<?xml version="1.0" encoding="utf-8"?>
<svg xmlns="http://www.w3.org/2000/svg" xmlns:xlink="http://www.w3.org/1999/xlink" width="600" height="400" viewBox="0 0 2400 1600">
<defs>
  <clipPath id="clip440">
    <rect x="0" y="0" width="2400" height="1600"/>
  </clipPath>
</defs>
<path clip-path="url(#clip440)" d="
M0 1600 L2400 1600 L2400 0 L0 0  Z
  " fill="#ffffff" fill-rule="evenodd" fill-opacity="1"/>
<defs>
  <clipPath id="clip441">
    <rect x="480" y="0" width="1681" height="1600"/>
  </clipPath>
</defs>
<path clip-path="url(#clip440)" d="
M238.13 1423.18 L2352.76 1423.18 L2352.76 47.2441 L238.13 47.2441  Z
  " fill="#ffffff" fill-rule="evenodd" fill-opacity="1"/>
<defs>
  <clipPath id="clip442">
    <rect x="238" y="47" width="2116" height="1377"/>
  </clipPath>
</defs>
<polyline clip-path="url(#clip442)" style="stroke:#000000; stroke-width:2; stroke-opacity:0.1; fill:none" points="
  297.978,1423.18 297.978,47.2441 
  "/>
<polyline clip-path="url(#clip442)" style="stroke:#000000; stroke-width:2; stroke-opacity:0.1; fill:none" points="
  867.958,1423.18 867.958,47.2441 
  "/>
<polyline clip-path="url(#clip442)" style="stroke:#000000; stroke-width:2; stroke-opacity:0.1; fill:none" points="
  1437.94,1423.18 1437.94,47.2441 
  "/>
<polyline clip-path="url(#clip442)" style="stroke:#000000; stroke-width:2; stroke-opacity:0.1; fill:none" points="
  2007.92,1423.18 2007.92,47.2441 
  "/>
<polyline clip-path="url(#clip440)" style="stroke:#000000; stroke-width:4; stroke-opacity:1; fill:none" points="
  238.13,1423.18 2352.76,1423.18 
  "/>
<polyline clip-path="url(#clip440)" style="stroke:#000000; stroke-width:4; stroke-opacity:1; fill:none" points="
  297.978,1423.18 297.978,1406.67 
  "/>
<polyline clip-path="url(#clip440)" style="stroke:#000000; stroke-width:4; stroke-opacity:1; fill:none" points="
  867.958,1423.18 867.958,1406.67 
  "/>
<polyline clip-path="url(#clip440)" style="stroke:#000000; stroke-width:4; stroke-opacity:1; fill:none" points="
  1437.94,1423.18 1437.94,1406.67 
  "/>
<polyline clip-path="url(#clip440)" style="stroke:#000000; stroke-width:4; stroke-opacity:1; fill:none" points="
  2007.92,1423.18 2007.92,1406.67 
  "/>
<path clip-path="url(#clip440)" d="M 0 0 M297.978 1452.37 Q294.367 1452.37 292.538 1455.94 Q290.733 1459.48 290.733 1466.61 Q290.733 1473.71 292.538 1477.28 Q294.367 1480.82 297.978 1480.82 Q301.612 1480.82 303.418 1477.28 Q305.246 1473.71 305.246 1466.61 Q305.246 1459.48 303.418 1455.94 Q301.612 1452.37 297.978 1452.37 M297.978 1448.67 Q303.788 1448.67 306.844 1453.27 Q309.922 1457.86 309.922 1466.61 Q309.922 1475.33 306.844 1479.94 Q303.788 1484.52 297.978 1484.52 Q292.168 1484.52 289.089 1479.94 Q286.034 1475.33 286.034 1466.61 Q286.034 1457.86 289.089 1453.27 Q292.168 1448.67 297.978 1448.67 Z" fill="#000000" fill-rule="evenodd" fill-opacity="1" /><path clip-path="url(#clip440)" d="M 0 0 M831.326 1479.92 L838.965 1479.92 L838.965 1453.55 L830.655 1455.22 L830.655 1450.96 L838.919 1449.29 L843.595 1449.29 L843.595 1479.92 L851.234 1479.92 L851.234 1483.85 L831.326 1483.85 L831.326 1479.92 Z" fill="#000000" fill-rule="evenodd" fill-opacity="1" /><path clip-path="url(#clip440)" d="M 0 0 M866.303 1452.37 Q862.692 1452.37 860.863 1455.94 Q859.058 1459.48 859.058 1466.61 Q859.058 1473.71 860.863 1477.28 Q862.692 1480.82 866.303 1480.82 Q869.937 1480.82 871.743 1477.28 Q873.571 1473.71 873.571 1466.61 Q873.571 1459.48 871.743 1455.94 Q869.937 1452.37 866.303 1452.37 M866.303 1448.67 Q872.113 1448.67 875.169 1453.27 Q878.247 1457.86 878.247 1466.61 Q878.247 1475.33 875.169 1479.94 Q872.113 1484.52 866.303 1484.52 Q860.493 1484.52 857.414 1479.94 Q854.359 1475.33 854.359 1466.61 Q854.359 1457.86 857.414 1453.27 Q860.493 1448.67 866.303 1448.67 Z" fill="#000000" fill-rule="evenodd" fill-opacity="1" /><path clip-path="url(#clip440)" d="M 0 0 M893.317 1452.37 Q889.706 1452.37 887.877 1455.94 Q886.071 1459.48 886.071 1466.61 Q886.071 1473.71 887.877 1477.28 Q889.706 1480.82 893.317 1480.82 Q896.951 1480.82 898.756 1477.28 Q900.585 1473.71 900.585 1466.61 Q900.585 1459.48 898.756 1455.94 Q896.951 1452.37 893.317 1452.37 M893.317 1448.67 Q899.127 1448.67 902.182 1453.27 Q905.261 1457.86 905.261 1466.61 Q905.261 1475.33 902.182 1479.94 Q899.127 1484.52 893.317 1484.52 Q887.506 1484.52 884.428 1479.94 Q881.372 1475.33 881.372 1466.61 Q881.372 1457.86 884.428 1453.27 Q887.506 1448.67 893.317 1448.67 Z" fill="#000000" fill-rule="evenodd" fill-opacity="1" /><path clip-path="url(#clip440)" d="M 0 0 M1405.58 1479.92 L1421.9 1479.92 L1421.9 1483.85 L1399.95 1483.85 L1399.95 1479.92 Q1402.61 1477.16 1407.2 1472.53 Q1411.8 1467.88 1412.98 1466.54 Q1415.23 1464.01 1416.11 1462.28 Q1417.01 1460.52 1417.01 1458.83 Q1417.01 1456.07 1415.07 1454.34 Q1413.15 1452.6 1410.04 1452.6 Q1407.85 1452.6 1405.39 1453.37 Q1402.96 1454.13 1400.18 1455.68 L1400.18 1450.96 Q1403.01 1449.82 1405.46 1449.25 Q1407.91 1448.67 1409.95 1448.67 Q1415.32 1448.67 1418.52 1451.35 Q1421.71 1454.04 1421.71 1458.53 Q1421.71 1460.66 1420.9 1462.58 Q1420.11 1464.48 1418.01 1467.07 Q1417.43 1467.74 1414.33 1470.96 Q1411.23 1474.15 1405.58 1479.92 Z" fill="#000000" fill-rule="evenodd" fill-opacity="1" /><path clip-path="url(#clip440)" d="M 0 0 M1436.97 1452.37 Q1433.35 1452.37 1431.53 1455.94 Q1429.72 1459.48 1429.72 1466.61 Q1429.72 1473.71 1431.53 1477.28 Q1433.35 1480.82 1436.97 1480.82 Q1440.6 1480.82 1442.41 1477.28 Q1444.23 1473.71 1444.23 1466.61 Q1444.23 1459.48 1442.41 1455.94 Q1440.6 1452.37 1436.97 1452.37 M1436.97 1448.67 Q1442.78 1448.67 1445.83 1453.27 Q1448.91 1457.86 1448.91 1466.61 Q1448.91 1475.33 1445.83 1479.94 Q1442.78 1484.52 1436.97 1484.52 Q1431.16 1484.52 1428.08 1479.94 Q1425.02 1475.33 1425.02 1466.61 Q1425.02 1457.86 1428.08 1453.27 Q1431.16 1448.67 1436.97 1448.67 Z" fill="#000000" fill-rule="evenodd" fill-opacity="1" /><path clip-path="url(#clip440)" d="M 0 0 M1463.98 1452.37 Q1460.37 1452.37 1458.54 1455.94 Q1456.73 1459.48 1456.73 1466.61 Q1456.73 1473.71 1458.54 1477.28 Q1460.37 1480.82 1463.98 1480.82 Q1467.61 1480.82 1469.42 1477.28 Q1471.25 1473.71 1471.25 1466.61 Q1471.25 1459.48 1469.42 1455.94 Q1467.61 1452.37 1463.98 1452.37 M1463.98 1448.67 Q1469.79 1448.67 1472.85 1453.27 Q1475.92 1457.86 1475.92 1466.61 Q1475.92 1475.33 1472.85 1479.94 Q1469.79 1484.52 1463.98 1484.52 Q1458.17 1484.52 1455.09 1479.94 Q1452.04 1475.33 1452.04 1466.61 Q1452.04 1457.86 1455.09 1453.27 Q1458.17 1448.67 1463.98 1448.67 Z" fill="#000000" fill-rule="evenodd" fill-opacity="1" /><path clip-path="url(#clip440)" d="M 0 0 M1985.15 1465.22 Q1988.51 1465.94 1990.38 1468.2 Q1992.28 1470.47 1992.28 1473.81 Q1992.28 1478.92 1988.76 1481.72 Q1985.24 1484.52 1978.76 1484.52 Q1976.59 1484.52 1974.27 1484.08 Q1971.98 1483.67 1969.53 1482.81 L1969.53 1478.3 Q1971.47 1479.43 1973.79 1480.01 Q1976.1 1480.59 1978.62 1480.59 Q1983.02 1480.59 1985.31 1478.85 Q1987.63 1477.12 1987.63 1473.81 Q1987.63 1470.75 1985.48 1469.04 Q1983.35 1467.3 1979.53 1467.3 L1975.5 1467.3 L1975.5 1463.46 L1979.71 1463.46 Q1983.16 1463.46 1984.99 1462.09 Q1986.82 1460.7 1986.82 1458.11 Q1986.82 1455.45 1984.92 1454.04 Q1983.05 1452.6 1979.53 1452.6 Q1977.61 1452.6 1975.41 1453.02 Q1973.21 1453.44 1970.57 1454.31 L1970.57 1450.15 Q1973.23 1449.41 1975.55 1449.04 Q1977.88 1448.67 1979.94 1448.67 Q1985.27 1448.67 1988.37 1451.1 Q1991.47 1453.5 1991.47 1457.63 Q1991.47 1460.5 1989.83 1462.49 Q1988.18 1464.45 1985.15 1465.22 Z" fill="#000000" fill-rule="evenodd" fill-opacity="1" /><path clip-path="url(#clip440)" d="M 0 0 M2007.35 1452.37 Q2003.74 1452.37 2001.91 1455.94 Q2000.11 1459.48 2000.11 1466.61 Q2000.11 1473.71 2001.91 1477.28 Q2003.74 1480.82 2007.35 1480.82 Q2010.99 1480.82 2012.79 1477.28 Q2014.62 1473.71 2014.62 1466.61 Q2014.62 1459.48 2012.79 1455.94 Q2010.99 1452.37 2007.35 1452.37 M2007.35 1448.67 Q2013.16 1448.67 2016.22 1453.27 Q2019.3 1457.86 2019.3 1466.61 Q2019.3 1475.33 2016.22 1479.94 Q2013.16 1484.52 2007.35 1484.52 Q2001.54 1484.52 1998.46 1479.94 Q1995.41 1475.33 1995.41 1466.61 Q1995.41 1457.86 1998.46 1453.27 Q2001.54 1448.67 2007.35 1448.67 Z" fill="#000000" fill-rule="evenodd" fill-opacity="1" /><path clip-path="url(#clip440)" d="M 0 0 M2034.36 1452.37 Q2030.75 1452.37 2028.92 1455.94 Q2027.12 1459.48 2027.12 1466.61 Q2027.12 1473.71 2028.92 1477.28 Q2030.75 1480.82 2034.36 1480.82 Q2038 1480.82 2039.8 1477.28 Q2041.63 1473.71 2041.63 1466.61 Q2041.63 1459.48 2039.8 1455.94 Q2038 1452.37 2034.36 1452.37 M2034.36 1448.67 Q2040.17 1448.67 2043.23 1453.27 Q2046.31 1457.86 2046.31 1466.61 Q2046.31 1475.33 2043.23 1479.94 Q2040.17 1484.52 2034.36 1484.52 Q2028.55 1484.52 2025.48 1479.94 Q2022.42 1475.33 2022.42 1466.61 Q2022.42 1457.86 2025.48 1453.27 Q2028.55 1448.67 2034.36 1448.67 Z" fill="#000000" fill-rule="evenodd" fill-opacity="1" /><path clip-path="url(#clip440)" d="M 0 0 M1312.06 1520.4 L1299.17 1537.74 L1312.73 1556.04 L1305.82 1556.04 L1295.44 1542.04 L1285.07 1556.04 L1278.16 1556.04 L1292.01 1537.39 L1279.34 1520.4 L1286.24 1520.4 L1295.7 1533.1 L1305.15 1520.4 L1312.06 1520.4 Z" fill="#000000" fill-rule="evenodd" fill-opacity="1" /><polyline clip-path="url(#clip442)" style="stroke:#000000; stroke-width:2; stroke-opacity:0.1; fill:none" points="
  238.13,1382.61 2352.76,1382.61 
  "/>
<polyline clip-path="url(#clip442)" style="stroke:#000000; stroke-width:2; stroke-opacity:0.1; fill:none" points="
  238.13,1077.09 2352.76,1077.09 
  "/>
<polyline clip-path="url(#clip442)" style="stroke:#000000; stroke-width:2; stroke-opacity:0.1; fill:none" points="
  238.13,771.572 2352.76,771.572 
  "/>
<polyline clip-path="url(#clip442)" style="stroke:#000000; stroke-width:2; stroke-opacity:0.1; fill:none" points="
  238.13,466.056 2352.76,466.056 
  "/>
<polyline clip-path="url(#clip442)" style="stroke:#000000; stroke-width:2; stroke-opacity:0.1; fill:none" points="
  238.13,160.539 2352.76,160.539 
  "/>
<polyline clip-path="url(#clip440)" style="stroke:#000000; stroke-width:4; stroke-opacity:1; fill:none" points="
  238.13,1423.18 238.13,47.2441 
  "/>
<polyline clip-path="url(#clip440)" style="stroke:#000000; stroke-width:4; stroke-opacity:1; fill:none" points="
  238.13,1382.61 263.506,1382.61 
  "/>
<polyline clip-path="url(#clip440)" style="stroke:#000000; stroke-width:4; stroke-opacity:1; fill:none" points="
  238.13,1077.09 263.506,1077.09 
  "/>
<polyline clip-path="url(#clip440)" style="stroke:#000000; stroke-width:4; stroke-opacity:1; fill:none" points="
  238.13,771.572 263.506,771.572 
  "/>
<polyline clip-path="url(#clip440)" style="stroke:#000000; stroke-width:4; stroke-opacity:1; fill:none" points="
  238.13,466.056 263.506,466.056 
  "/>
<polyline clip-path="url(#clip440)" style="stroke:#000000; stroke-width:4; stroke-opacity:1; fill:none" points="
  238.13,160.539 263.506,160.539 
  "/>
<path clip-path="url(#clip440)" d="M 0 0 M126.205 1368.4 Q122.593 1368.4 120.765 1371.97 Q118.959 1375.51 118.959 1382.64 Q118.959 1389.75 120.765 1393.31 Q122.593 1396.85 126.205 1396.85 Q129.839 1396.85 131.644 1393.31 Q133.473 1389.75 133.473 1382.64 Q133.473 1375.51 131.644 1371.97 Q129.839 1368.4 126.205 1368.4 M126.205 1364.7 Q132.015 1364.7 135.07 1369.31 Q138.149 1373.89 138.149 1382.64 Q138.149 1391.37 135.07 1395.97 Q132.015 1400.56 126.205 1400.56 Q120.394 1400.56 117.316 1395.97 Q114.26 1391.37 114.26 1382.64 Q114.26 1373.89 117.316 1369.31 Q120.394 1364.7 126.205 1364.7 Z" fill="#000000" fill-rule="evenodd" fill-opacity="1" /><path clip-path="url(#clip440)" d="M 0 0 M143.218 1394.01 L148.103 1394.01 L148.103 1399.89 L143.218 1399.89 L143.218 1394.01 Z" fill="#000000" fill-rule="evenodd" fill-opacity="1" /><path clip-path="url(#clip440)" d="M 0 0 M163.172 1368.4 Q159.561 1368.4 157.732 1371.97 Q155.927 1375.51 155.927 1382.64 Q155.927 1389.75 157.732 1393.31 Q159.561 1396.85 163.172 1396.85 Q166.806 1396.85 168.612 1393.31 Q170.44 1389.75 170.44 1382.64 Q170.44 1375.51 168.612 1371.97 Q166.806 1368.4 163.172 1368.4 M163.172 1364.7 Q168.982 1364.7 172.038 1369.31 Q175.116 1373.89 175.116 1382.64 Q175.116 1391.37 172.038 1395.97 Q168.982 1400.56 163.172 1400.56 Q157.362 1400.56 154.283 1395.97 Q151.228 1391.37 151.228 1382.64 Q151.228 1373.89 154.283 1369.31 Q157.362 1364.7 163.172 1364.7 Z" fill="#000000" fill-rule="evenodd" fill-opacity="1" /><path clip-path="url(#clip440)" d="M 0 0 M190.186 1368.4 Q186.575 1368.4 184.746 1371.97 Q182.94 1375.51 182.94 1382.64 Q182.94 1389.75 184.746 1393.31 Q186.575 1396.85 190.186 1396.85 Q193.82 1396.85 195.625 1393.31 Q197.454 1389.75 197.454 1382.64 Q197.454 1375.51 195.625 1371.97 Q193.82 1368.4 190.186 1368.4 M190.186 1364.7 Q195.996 1364.7 199.051 1369.31 Q202.13 1373.89 202.13 1382.64 Q202.13 1391.37 199.051 1395.97 Q195.996 1400.56 190.186 1400.56 Q184.376 1400.56 181.297 1395.97 Q178.241 1391.37 178.241 1382.64 Q178.241 1373.89 181.297 1369.31 Q184.376 1364.7 190.186 1364.7 Z" fill="#000000" fill-rule="evenodd" fill-opacity="1" /><path clip-path="url(#clip440)" d="M 0 0 M128.797 1062.89 Q125.186 1062.89 123.357 1066.45 Q121.552 1069.99 121.552 1077.12 Q121.552 1084.23 123.357 1087.79 Q125.186 1091.34 128.797 1091.34 Q132.431 1091.34 134.237 1087.79 Q136.066 1084.23 136.066 1077.12 Q136.066 1069.99 134.237 1066.45 Q132.431 1062.89 128.797 1062.89 M128.797 1059.18 Q134.607 1059.18 137.663 1063.79 Q140.741 1068.37 140.741 1077.12 Q140.741 1085.85 137.663 1090.46 Q134.607 1095.04 128.797 1095.04 Q122.987 1095.04 119.908 1090.46 Q116.853 1085.85 116.853 1077.12 Q116.853 1068.37 119.908 1063.79 Q122.987 1059.18 128.797 1059.18 Z" fill="#000000" fill-rule="evenodd" fill-opacity="1" /><path clip-path="url(#clip440)" d="M 0 0 M145.811 1088.49 L150.695 1088.49 L150.695 1094.37 L145.811 1094.37 L145.811 1088.49 Z" fill="#000000" fill-rule="evenodd" fill-opacity="1" /><path clip-path="url(#clip440)" d="M 0 0 M159.792 1090.43 L176.112 1090.43 L176.112 1094.37 L154.167 1094.37 L154.167 1090.43 Q156.829 1087.68 161.413 1083.05 Q166.019 1078.4 167.2 1077.05 Q169.445 1074.53 170.325 1072.79 Q171.227 1071.04 171.227 1069.35 Q171.227 1066.59 169.283 1064.86 Q167.362 1063.12 164.26 1063.12 Q162.061 1063.12 159.607 1063.88 Q157.177 1064.65 154.399 1066.2 L154.399 1061.48 Q157.223 1060.34 159.677 1059.76 Q162.13 1059.18 164.167 1059.18 Q169.538 1059.18 172.732 1061.87 Q175.926 1064.55 175.926 1069.04 Q175.926 1071.17 175.116 1073.1 Q174.329 1074.99 172.223 1077.59 Q171.644 1078.26 168.542 1081.48 Q165.44 1084.67 159.792 1090.43 Z" fill="#000000" fill-rule="evenodd" fill-opacity="1" /><path clip-path="url(#clip440)" d="M 0 0 M181.227 1059.81 L199.584 1059.81 L199.584 1063.74 L185.51 1063.74 L185.51 1072.22 Q186.528 1071.87 187.547 1071.71 Q188.565 1071.52 189.584 1071.52 Q195.371 1071.52 198.75 1074.69 Q202.13 1077.86 202.13 1083.28 Q202.13 1088.86 198.658 1091.96 Q195.186 1095.04 188.866 1095.04 Q186.69 1095.04 184.422 1094.67 Q182.176 1094.3 179.769 1093.56 L179.769 1088.86 Q181.852 1089.99 184.075 1090.55 Q186.297 1091.1 188.774 1091.1 Q192.778 1091.1 195.116 1089 Q197.454 1086.89 197.454 1083.28 Q197.454 1079.67 195.116 1077.56 Q192.778 1075.46 188.774 1075.46 Q186.899 1075.46 185.024 1075.87 Q183.172 1076.29 181.227 1077.17 L181.227 1059.81 Z" fill="#000000" fill-rule="evenodd" fill-opacity="1" /><path clip-path="url(#clip440)" d="M 0 0 M127.2 757.371 Q123.589 757.371 121.76 760.936 Q119.955 764.477 119.955 771.607 Q119.955 778.713 121.76 782.278 Q123.589 785.82 127.2 785.82 Q130.834 785.82 132.64 782.278 Q134.468 778.713 134.468 771.607 Q134.468 764.477 132.64 760.936 Q130.834 757.371 127.2 757.371 M127.2 753.667 Q133.01 753.667 136.066 758.274 Q139.144 762.857 139.144 771.607 Q139.144 780.334 136.066 784.94 Q133.01 789.524 127.2 789.524 Q121.39 789.524 118.311 784.94 Q115.256 780.334 115.256 771.607 Q115.256 762.857 118.311 758.274 Q121.39 753.667 127.2 753.667 Z" fill="#000000" fill-rule="evenodd" fill-opacity="1" /><path clip-path="url(#clip440)" d="M 0 0 M144.214 782.973 L149.098 782.973 L149.098 788.852 L144.214 788.852 L144.214 782.973 Z" fill="#000000" fill-rule="evenodd" fill-opacity="1" /><path clip-path="url(#clip440)" d="M 0 0 M154.214 754.292 L172.57 754.292 L172.57 758.227 L158.496 758.227 L158.496 766.7 Q159.515 766.352 160.533 766.19 Q161.552 766.005 162.57 766.005 Q168.357 766.005 171.737 769.176 Q175.116 772.348 175.116 777.764 Q175.116 783.343 171.644 786.445 Q168.172 789.524 161.852 789.524 Q159.677 789.524 157.408 789.153 Q155.163 788.783 152.755 788.042 L152.755 783.343 Q154.839 784.477 157.061 785.033 Q159.283 785.588 161.76 785.588 Q165.765 785.588 168.102 783.482 Q170.44 781.375 170.44 777.764 Q170.44 774.153 168.102 772.047 Q165.765 769.94 161.76 769.94 Q159.885 769.94 158.01 770.357 Q156.158 770.774 154.214 771.653 L154.214 754.292 Z" fill="#000000" fill-rule="evenodd" fill-opacity="1" /><path clip-path="url(#clip440)" d="M 0 0 M190.186 757.371 Q186.575 757.371 184.746 760.936 Q182.94 764.477 182.94 771.607 Q182.94 778.713 184.746 782.278 Q186.575 785.82 190.186 785.82 Q193.82 785.82 195.625 782.278 Q197.454 778.713 197.454 771.607 Q197.454 764.477 195.625 760.936 Q193.82 757.371 190.186 757.371 M190.186 753.667 Q195.996 753.667 199.051 758.274 Q202.13 762.857 202.13 771.607 Q202.13 780.334 199.051 784.94 Q195.996 789.524 190.186 789.524 Q184.376 789.524 181.297 784.94 Q178.241 780.334 178.241 771.607 Q178.241 762.857 181.297 758.274 Q184.376 753.667 190.186 753.667 Z" fill="#000000" fill-rule="evenodd" fill-opacity="1" /><path clip-path="url(#clip440)" d="M 0 0 M128.103 451.854 Q124.492 451.854 122.663 455.419 Q120.857 458.961 120.857 466.09 Q120.857 473.197 122.663 476.762 Q124.492 480.303 128.103 480.303 Q131.737 480.303 133.542 476.762 Q135.371 473.197 135.371 466.09 Q135.371 458.961 133.542 455.419 Q131.737 451.854 128.103 451.854 M128.103 448.151 Q133.913 448.151 136.968 452.757 Q140.047 457.34 140.047 466.09 Q140.047 474.817 136.968 479.424 Q133.913 484.007 128.103 484.007 Q122.293 484.007 119.214 479.424 Q116.158 474.817 116.158 466.09 Q116.158 457.34 119.214 452.757 Q122.293 448.151 128.103 448.151 Z" fill="#000000" fill-rule="evenodd" fill-opacity="1" /><path clip-path="url(#clip440)" d="M 0 0 M145.116 477.456 L150.001 477.456 L150.001 483.336 L145.116 483.336 L145.116 477.456 Z" fill="#000000" fill-rule="evenodd" fill-opacity="1" /><path clip-path="url(#clip440)" d="M 0 0 M153.89 448.776 L176.112 448.776 L176.112 450.766 L163.565 483.336 L158.681 483.336 L170.487 452.711 L153.89 452.711 L153.89 448.776 Z" fill="#000000" fill-rule="evenodd" fill-opacity="1" /><path clip-path="url(#clip440)" d="M 0 0 M181.227 448.776 L199.584 448.776 L199.584 452.711 L185.51 452.711 L185.51 461.183 Q186.528 460.836 187.547 460.674 Q188.565 460.488 189.584 460.488 Q195.371 460.488 198.75 463.66 Q202.13 466.831 202.13 472.248 Q202.13 477.826 198.658 480.928 Q195.186 484.007 188.866 484.007 Q186.69 484.007 184.422 483.637 Q182.176 483.266 179.769 482.525 L179.769 477.826 Q181.852 478.961 184.075 479.516 Q186.297 480.072 188.774 480.072 Q192.778 480.072 195.116 477.965 Q197.454 475.859 197.454 472.248 Q197.454 468.637 195.116 466.53 Q192.778 464.424 188.774 464.424 Q186.899 464.424 185.024 464.84 Q183.172 465.257 181.227 466.137 L181.227 448.776 Z" fill="#000000" fill-rule="evenodd" fill-opacity="1" /><path clip-path="url(#clip440)" d="M 0 0 M118.242 173.884 L125.88 173.884 L125.88 147.518 L117.57 149.185 L117.57 144.926 L125.834 143.259 L130.51 143.259 L130.51 173.884 L138.149 173.884 L138.149 177.819 L118.242 177.819 L118.242 173.884 Z" fill="#000000" fill-rule="evenodd" fill-opacity="1" /><path clip-path="url(#clip440)" d="M 0 0 M143.218 171.939 L148.103 171.939 L148.103 177.819 L143.218 177.819 L143.218 171.939 Z" fill="#000000" fill-rule="evenodd" fill-opacity="1" /><path clip-path="url(#clip440)" d="M 0 0 M163.172 146.338 Q159.561 146.338 157.732 149.902 Q155.927 153.444 155.927 160.574 Q155.927 167.68 157.732 171.245 Q159.561 174.787 163.172 174.787 Q166.806 174.787 168.612 171.245 Q170.44 167.68 170.44 160.574 Q170.44 153.444 168.612 149.902 Q166.806 146.338 163.172 146.338 M163.172 142.634 Q168.982 142.634 172.038 147.24 Q175.116 151.824 175.116 160.574 Q175.116 169.3 172.038 173.907 Q168.982 178.49 163.172 178.49 Q157.362 178.49 154.283 173.907 Q151.228 169.3 151.228 160.574 Q151.228 151.824 154.283 147.24 Q157.362 142.634 163.172 142.634 Z" fill="#000000" fill-rule="evenodd" fill-opacity="1" /><path clip-path="url(#clip440)" d="M 0 0 M190.186 146.338 Q186.575 146.338 184.746 149.902 Q182.94 153.444 182.94 160.574 Q182.94 167.68 184.746 171.245 Q186.575 174.787 190.186 174.787 Q193.82 174.787 195.625 171.245 Q197.454 167.68 197.454 160.574 Q197.454 153.444 195.625 149.902 Q193.82 146.338 190.186 146.338 M190.186 142.634 Q195.996 142.634 199.051 147.24 Q202.13 151.824 202.13 160.574 Q202.13 169.3 199.051 173.907 Q195.996 178.49 190.186 178.49 Q184.376 178.49 181.297 173.907 Q178.241 169.3 178.241 160.574 Q178.241 151.824 181.297 147.24 Q184.376 142.634 190.186 142.634 Z" fill="#000000" fill-rule="evenodd" fill-opacity="1" /><path clip-path="url(#clip440)" d="M 0 0 M70.212 745.095 Q76.6732 745.095 80.3653 742.453 Q84.0256 739.779 84.0256 735.132 Q84.0256 730.485 80.3653 727.812 Q76.6732 725.138 70.212 725.138 Q63.7508 725.138 60.0905 727.812 Q56.3984 730.485 56.3984 735.132 Q56.3984 739.779 60.0905 742.453 Q63.7508 745.095 70.212 745.095 M82.657 725.138 Q85.8398 726.984 87.3994 729.817 Q88.9272 732.618 88.9272 736.565 Q88.9272 743.026 83.771 747.1 Q78.6147 751.142 70.212 751.142 Q61.8093 751.142 56.6531 747.1 Q51.4968 743.026 51.4968 736.565 Q51.4968 732.618 53.0564 729.817 Q54.5842 726.984 57.7671 725.138 L52.3562 725.138 L52.3562 719.282 L101.563 719.282 L101.563 725.138 L82.657 725.138 Z" fill="#000000" fill-rule="evenodd" fill-opacity="1" /><polyline clip-path="url(#clip442)" style="stroke:#009af9; stroke-width:4; stroke-opacity:1; fill:none" points="
  297.978,1382.61 300.669,1382.61 305.771,1382.61 310.872,1382.61 313.563,1382.61 316.255,1382.61 321.356,1382.61 326.458,1382.61 329.149,1382.61 
  331.84,1382.61 336.941,1382.61 342.043,1382.61 344.734,1382.61 347.425,1382.61 352.527,1382.61 357.628,1382.61 360.32,1382.61 
  363.011,1382.61 368.112,1382.61 373.214,1382.61 375.905,1382.61 378.596,1382.61 383.698,1382.61 388.799,1382.61 391.49,1382.61 
  394.181,1382.61 399.283,1382.61 404.385,1382.61 407.076,1382.61 409.767,1382.61 414.868,1382.61 419.97,1382.61 422.661,1382.61 
  425.352,1382.61 430.454,1382.61 435.555,1382.61 438.246,1382.61 440.938,1382.61 446.039,1382.61 451.141,1382.61 453.832,1382.61 
  456.523,1382.61 461.625,1382.61 466.726,1382.61 469.417,1382.61 472.108,1382.61 477.21,1382.61 482.311,1382.61 485.003,1382.61 
  487.694,1382.61 492.795,1382.61 497.897,1382.61 500.588,1382.61 503.279,1382.61 508.381,1382.61 513.482,1382.61 516.173,1382.61 
  518.865,1382.61 523.966,1382.61 529.068,1382.61 531.759,1382.61 534.45,1382.61 539.552,1382.61 544.653,1382.61 547.344,1382.61 
  550.035,1382.61 555.137,1382.61 560.238,1382.61 562.93,1382.61 565.621,1382.61 570.722,1382.61 575.824,1382.61 578.515,1382.61 
  581.206,1382.61 586.308,1382.61 591.409,1382.61 594.1,1382.61 596.792,1382.61 601.893,1382.61 606.995,1382.61 609.686,1382.61 
  612.377,1382.61 617.478,1382.61 622.58,1382.61 625.271,1382.61 627.962,1382.61 633.064,1382.61 638.165,1382.61 640.857,1382.61 
  643.548,1382.61 648.649,1382.61 653.751,1382.61 656.442,1382.61 659.133,1382.61 664.235,1382.61 669.336,1382.61 672.027,1382.61 
  674.719,1382.61 679.82,1382.61 684.922,1382.61 687.613,1382.61 690.304,1382.61 695.405,1382.61 700.507,1382.61 703.198,1382.61 
  705.889,1382.61 710.991,1382.61 716.092,1382.61 718.784,1382.61 721.475,1382.61 726.576,160.539 731.678,160.539 734.369,160.539 
  737.06,160.539 742.162,160.539 747.263,160.539 749.954,160.539 752.645,160.539 757.747,160.539 762.849,160.539 765.54,160.539 
  768.231,160.539 773.332,160.539 778.434,160.539 781.125,160.539 783.816,160.539 788.918,160.539 794.019,160.539 796.71,160.539 
  799.402,160.539 804.503,160.539 809.605,160.539 812.296,160.539 814.987,160.539 820.089,160.539 825.19,160.539 827.881,160.539 
  830.572,160.539 835.674,160.539 840.775,160.539 843.467,160.539 846.158,160.539 851.259,160.539 856.361,160.539 859.052,160.539 
  861.743,160.539 866.845,160.539 871.946,160.539 874.637,160.539 877.329,160.539 882.43,160.539 887.532,160.539 890.223,160.539 
  892.914,160.539 898.016,160.539 903.117,160.539 905.808,160.539 908.499,160.539 913.601,160.539 918.702,160.539 921.394,160.539 
  924.085,160.539 929.186,160.539 934.288,160.539 936.979,160.539 939.67,160.539 944.772,160.539 949.873,160.539 952.564,160.539 
  955.256,160.539 960.357,160.539 965.459,160.539 968.15,160.539 970.841,160.539 975.942,160.539 981.044,160.539 983.735,160.539 
  986.426,160.539 991.528,160.539 996.629,160.539 999.321,160.539 1002.01,160.539 1007.11,160.539 1012.21,1382.61 1014.91,1382.61 
  1017.6,1382.61 1022.7,1382.61 1027.8,1382.61 1030.49,1382.61 1033.18,1382.61 1038.28,1382.61 1043.39,1382.61 1046.08,1382.61 
  1048.77,1382.61 1053.87,1382.61 1058.97,1382.61 1061.66,1382.61 1064.35,1382.61 1069.45,1382.61 1074.56,1382.61 1077.25,1382.61 
  1079.94,1382.61 1085.04,1382.61 1090.14,1382.61 1092.83,1382.61 1095.52,1382.61 1100.63,1382.61 1105.73,1382.61 1108.42,1382.61 
  1111.11,1382.61 1116.21,1382.61 1121.31,1382.61 1124,1382.61 1126.69,1382.61 1131.8,1382.61 1136.9,1382.61 1139.59,1382.61 
  1142.28,1382.61 1147.38,1382.61 1152.48,1382.61 1155.17,1382.61 1157.87,1382.61 1162.97,1382.61 1168.07,1382.61 1170.76,1382.61 
  1173.45,1382.61 1178.55,1382.61 1183.65,1382.61 1186.35,1382.61 1189.04,1382.61 1194.14,1382.61 1199.24,1382.61 1201.93,1382.61 
  1204.62,1382.61 1209.72,1382.61 1214.82,1382.61 1217.52,1382.61 1220.21,1382.61 1225.31,1382.61 1230.41,1382.61 1233.1,1382.61 
  1235.79,1382.61 1240.89,1382.61 1246,1382.61 1248.69,1382.61 1251.38,1382.61 1256.48,1382.61 1261.58,1382.61 1264.27,1382.61 
  1266.96,1382.61 1272.06,1382.61 1277.17,1382.61 1279.86,1382.61 1282.55,1382.61 1287.65,1382.61 1292.75,1382.61 1295.44,1382.61 
  1298.13,1382.61 1303.24,1382.61 1308.34,1382.61 1311.03,1382.61 1313.72,1382.61 1318.82,1382.61 1323.92,1382.61 1326.61,1382.61 
  1329.3,1382.61 1334.41,1382.61 1339.51,1382.61 1342.2,1382.61 1344.89,1382.61 1349.99,1382.61 1355.09,1382.61 1357.78,1382.61 
  1360.48,1382.61 1365.58,1382.61 1370.68,1382.61 1373.37,1382.61 1376.06,1382.61 1381.16,1382.61 1386.26,1382.61 1388.96,1382.61 
  1391.65,1382.61 1396.75,1382.61 1401.85,1382.61 1404.54,1382.61 1407.23,1382.61 1412.33,1382.61 1417.43,1382.61 1420.13,1382.61 
  1422.82,1382.61 1427.92,1382.61 1433.02,1382.61 1435.71,1382.61 1438.4,1382.61 1443.5,1382.61 1448.61,1382.61 1451.3,1382.61 
  1453.99,1382.61 1459.09,1382.61 1464.19,1382.61 1466.88,1382.61 1469.57,1382.61 1474.67,1382.61 1479.78,1382.61 1482.47,1382.61 
  1485.16,1382.61 1490.26,1382.61 1495.36,1382.61 1498.05,1382.61 1500.74,1382.61 1505.85,1382.61 1510.95,1382.61 1513.64,1382.61 
  1516.33,1382.61 1521.43,1382.61 1526.53,1382.61 1529.22,1382.61 1531.92,1382.61 1537.02,1382.61 1542.12,1382.61 1544.81,1382.61 
  1547.5,1382.61 1552.6,1382.61 1557.7,1382.61 1560.39,1382.61 1563.09,1382.61 1568.19,1382.61 1573.29,1382.61 1575.98,1382.61 
  1578.67,1382.61 1583.77,1382.61 1588.87,1382.61 1591.57,1382.61 1594.26,1382.61 1599.36,1382.61 1604.46,1382.61 1607.15,1382.61 
  1609.84,1382.61 1614.94,1382.61 1620.05,1382.61 1622.74,1382.61 1625.43,1382.61 1630.53,1382.61 1635.63,1382.61 1638.32,1382.61 
  1641.01,1382.61 1646.11,1382.61 1651.22,1382.61 1653.91,1382.61 1656.6,1382.61 1661.7,1382.61 1666.8,1382.61 1669.49,1382.61 
  1672.18,1382.61 1677.29,1382.61 1682.39,1382.61 1685.08,1382.61 1687.77,1382.61 1692.87,1382.61 1697.97,1382.61 1700.66,1382.61 
  1703.35,1382.61 1708.46,1382.61 1713.56,1382.61 1716.25,1382.61 1718.94,1382.61 1724.04,1382.61 1729.14,1382.61 1731.83,1382.61 
  1734.53,1382.61 1739.63,1382.61 1744.73,1382.61 1747.42,1382.61 1750.11,1382.61 1755.21,1382.61 1760.31,1382.61 1763,1382.61 
  1765.7,1382.61 1770.8,1382.61 1775.9,1382.61 1778.59,1382.61 1781.28,1382.61 1786.38,1382.61 1791.48,1382.61 1794.18,1382.61 
  1796.87,1382.61 1801.97,1382.61 1807.07,1382.61 1809.76,1382.61 1812.45,1382.61 1817.55,1382.61 1822.66,1382.61 1825.35,1382.61 
  1828.04,1382.61 1833.14,1382.61 1838.24,1382.61 1840.93,1382.61 1843.62,1382.61 1848.72,1382.61 1853.83,1382.61 1856.52,1382.61 
  1859.21,1382.61 1864.31,1382.61 1869.41,1382.61 1872.1,1382.61 1874.79,1382.61 1879.9,1382.61 1885,1382.61 1887.69,1382.61 
  1890.38,1382.61 1895.48,1382.61 1900.58,1382.61 1903.27,1382.61 1905.96,1382.61 1911.07,1382.61 1916.17,1382.61 1918.86,1382.61 
  1921.55,1382.61 1926.65,1382.61 1931.75,1382.61 1934.44,1382.61 1937.14,1382.61 1942.24,1382.61 1947.34,1382.61 1950.03,1382.61 
  1952.72,1382.61 1957.82,1382.61 1962.92,1382.61 1965.61,1382.61 1968.31,1382.61 1973.41,1382.61 1978.51,1382.61 1981.2,1382.61 
  1983.89,1382.61 1988.99,1382.61 1994.09,1382.61 1996.79,1382.61 1999.48,1382.61 2004.58,1382.61 2009.68,1382.61 2012.37,1382.61 
  2015.06,1382.61 2020.16,1382.61 2025.27,1382.61 2027.96,1382.61 2030.65,1382.61 2035.75,1382.61 2040.85,1382.61 2043.54,1382.61 
  2046.23,1382.61 2051.33,1382.61 2056.44,1382.61 2059.13,1382.61 2061.82,1382.61 2066.92,1382.61 2072.02,1382.61 2074.71,1382.61 
  2077.4,1382.61 2082.51,1382.61 2087.61,1382.61 2090.3,1382.61 2092.99,1382.61 2098.09,1382.61 2103.19,1382.61 2105.88,1382.61 
  2108.57,1382.61 2113.68,1382.61 2118.78,1382.61 2121.47,1382.61 2124.16,1382.61 2129.26,1382.61 2134.36,1382.61 2137.05,1382.61 
  2139.75,1382.61 2144.85,1382.61 2149.95,1382.61 2152.64,1382.61 2155.33,1382.61 2160.43,1382.61 2165.53,1382.61 2168.22,1382.61 
  2170.92,1382.61 2176.02,1382.61 2181.12,1382.61 2183.81,1382.61 2186.5,1382.61 2191.6,1382.61 2196.7,1382.61 2199.4,1382.61 
  2202.09,1382.61 2207.19,1382.61 2212.29,1382.61 2214.98,1382.61 2217.67,1382.61 2222.77,1382.61 2227.88,1382.61 2230.57,1382.61 
  2233.26,1382.61 2238.36,1382.61 2243.46,1382.61 2246.15,1382.61 2248.84,1382.61 2253.94,1382.61 2259.05,1382.61 2261.74,1382.61 
  2264.43,1382.61 2269.53,1382.61 2274.63,1382.61 2277.32,1382.61 2280.01,1382.61 2285.12,1382.61 2290.22,1382.61 2292.91,1382.61 
  
  "/>
<polyline clip-path="url(#clip442)" style="stroke:#e26f46; stroke-width:4; stroke-opacity:1; fill:none" points="
  297.978,1382.61 300.669,1382.61 305.771,1382.61 310.872,1382.61 313.563,1382.61 316.255,1382.61 321.356,1382.61 326.458,1382.61 329.149,1382.61 
  331.84,1382.61 336.941,1382.61 342.043,1382.61 344.734,1382.61 347.425,1382.61 352.527,1382.61 357.628,1382.61 360.32,1382.61 
  363.011,1382.61 368.112,1382.61 373.214,1382.61 375.905,1382.61 378.596,1382.61 383.698,1382.61 388.799,1382.61 391.49,1382.61 
  394.181,1382.61 399.283,1382.61 404.385,1382.61 407.076,1382.61 409.767,1382.61 414.868,1382.61 419.97,1382.61 422.661,1382.61 
  425.352,1382.61 430.454,1382.61 435.555,1382.61 438.246,1382.61 440.938,1382.61 446.039,1382.61 451.141,1382.61 453.832,1382.61 
  456.523,1382.61 461.625,1382.61 466.726,1382.61 469.417,1382.61 472.108,1382.61 477.21,1382.61 482.311,1382.61 485.003,1382.61 
  487.694,1382.61 492.795,1382.61 497.897,1382.61 500.588,1382.61 503.279,1382.61 508.381,1382.61 513.482,1382.61 516.173,1382.61 
  518.865,1382.61 523.966,1382.61 529.068,1382.61 531.759,1382.61 534.45,1382.61 539.552,1382.61 544.653,1382.61 547.344,1382.61 
  550.035,1382.61 555.137,1382.61 560.238,1382.61 562.93,1382.61 565.621,1382.61 570.722,1382.61 575.824,1382.61 578.515,1382.61 
  581.206,1382.61 586.308,1382.61 591.409,1382.61 594.1,1382.61 596.792,1382.61 601.893,1382.61 606.995,1382.61 609.686,1382.61 
  612.377,1382.61 617.478,1382.61 622.58,1382.61 625.271,1382.61 627.962,1382.61 633.064,1382.61 638.165,1382.61 640.857,1382.61 
  643.548,1382.61 648.649,1382.61 653.751,1382.61 656.442,1382.61 659.133,1382.61 664.235,1382.61 669.336,1382.61 672.027,1382.61 
  674.719,1382.61 679.82,1382.61 684.922,1382.61 687.613,1382.61 690.304,1382.61 695.405,1382.61 700.507,1382.61 703.198,1382.61 
  705.889,1382.61 710.991,1382.61 716.092,1382.61 718.784,1382.61 721.475,1382.61 726.576,1382.61 731.678,1382.61 734.369,1382.61 
  737.06,1382.61 742.162,1382.61 747.263,1382.61 749.954,1382.61 752.645,1382.61 757.747,1382.61 762.849,1382.61 765.54,1382.61 
  768.231,1382.61 773.332,1382.61 778.434,1382.61 781.125,1382.61 783.816,1382.61 788.918,1382.61 794.019,1382.61 796.71,1382.61 
  799.402,1382.61 804.503,1382.61 809.605,1382.61 812.296,1382.61 814.987,1382.61 820.089,1382.61 825.19,1382.61 827.881,1382.61 
  830.572,1382.61 835.674,1382.61 840.775,1382.61 843.467,1382.61 846.158,1382.61 851.259,1382.61 856.361,1382.61 859.052,1382.61 
  861.743,1382.61 866.845,1382.61 871.946,1382.61 874.637,1382.61 877.329,1382.61 882.43,1382.61 887.532,1382.61 890.223,1382.61 
  892.914,1382.61 898.016,1382.61 903.117,1382.61 905.808,1382.61 908.499,1382.61 913.601,1382.61 918.702,1382.61 921.394,1382.61 
  924.085,1382.61 929.186,1382.61 934.288,1382.61 936.979,1382.61 939.67,1382.61 944.772,1382.61 949.873,1382.61 952.564,1382.61 
  955.256,1382.61 960.357,1382.61 965.459,1382.61 968.15,1382.61 970.841,1382.61 975.942,1382.61 981.044,1382.61 983.735,1382.61 
  986.426,1382.61 991.528,1382.61 996.629,1382.61 999.321,1382.61 999.321,1382.61 1002.01,1382.61 1007.11,1382.61 1012.21,1382.61 1014.91,1382.61 
  1017.6,1382.61 1022.7,1382.61 1027.8,1382.61 1030.49,1382.61 1030.49,1382.61 1033.18,1382.61 1038.28,1382.61 1043.39,1382.61 1046.08,1382.61 
  1046.08,1382.61 1048.77,1382.61 1053.87,1382.61 1058.97,1382.61 1061.66,1382.61 1061.66,1382.61 1064.35,1382.61 1069.45,1382.61 1074.56,1382.61 1077.25,1382.61 
  1077.25,1382.61 1079.94,1382.61 1085.04,1382.61 1090.14,1382.61 1092.83,1382.61 1092.83,1382.61 1095.52,1382.61 1100.63,1382.61 1105.73,1382.61 1108.42,1382.61 
  1108.42,1382.61 1111.11,1382.61 1116.21,1382.61 1121.31,1382.61 1124,1382.61 1124,1382.61 1126.69,1382.61 1131.8,1382.61 1136.9,1382.61 1139.59,1382.61 
  1139.59,1382.61 1142.28,1382.61 1147.38,1382.61 1152.48,1382.61 1155.17,1382.61 1155.17,1382.61 1157.87,1382.61 1162.97,1382.61 1168.07,1382.61 1170.76,1382.61 
  1170.76,1382.61 1173.45,1382.61 1178.55,1382.6 1183.65,1382.6 1186.35,1382.6 1186.35,1382.6 1189.04,1382.6 1194.14,1382.61 1199.24,1382.6 1201.93,1382.6 
  1201.93,1382.6 1204.62,1382.6 1209.72,1382.6 1214.82,1382.6 1217.52,1382.6 1217.52,1382.6 1220.21,1382.6 1225.31,1382.6 1230.41,1382.6 1233.1,1382.6 
  1233.1,1382.56 1235.79,1382.59 1240.89,1382.59 1246,1382.51 1248.69,1382.41 1248.69,1382.55 1251.38,1382.57 1256.48,1382.56 1261.58,1382.49 1264.27,1382.44 
  1264.27,1378.33 1266.96,1384.24 1272.06,1374.91 1277.17,1337.26 1279.86,1305.42 1279.86,1307.56 1282.55,1250.91 1287.65,1117.47 1292.75,951.506 1295.44,851.495 
  1295.44,856.041 1298.13,749.085 1303.24,560.114 1308.34,390.266 1311.03,308.808 1311.03,307.336 1313.72,243.922 1318.82,153.843 1323.92,102.249 1326.61,90.1466 
  1326.61,86.1857 1329.3,87.9301 1334.41,99.3369 1339.51,120.273 1342.2,134.724 1342.2,133.912 1344.89,145.8 1349.99,162.438 1355.09,171.485 1357.78,173.252 
  1357.78,174.015 1360.48,172.691 1365.58,169.167 1370.68,164.552 1373.37,161.776 1373.37,161.817 1376.06,160.143 1381.16,158.244 1386.26,157.932 1388.96,158.374 
  1388.96,158.243 1391.65,158.944 1396.75,160.05 1401.85,160.843 1404.54,161.127 1404.54,161.162 1407.23,161.159 1412.33,161.037 1417.43,160.783 1420.13,160.605 
  1420.13,160.609 1422.82,160.51 1427.92,160.401 1433.02,160.388 1435.71,160.417 1435.71,160.414 1438.4,160.445 1443.5,160.497 1448.61,160.541 1451.3,160.561 
  1451.3,160.554 1453.99,160.59 1459.09,160.658 1464.19,160.723 1466.88,160.755 1466.88,160.753 1469.57,160.742 1474.67,160.59 1479.78,160.263 1482.47,160.019 
  1482.47,160.096 1485.16,159.74 1490.26,159.421 1495.36,159.6 1498.05,159.909 1498.05,159.766 1500.74,160.706 1505.85,162.85 1510.95,165.421 1513.64,166.931 
  1513.64,166.629 1516.33,167.905 1521.43,167.074 1526.53,161.883 1529.22,157.346 1529.22,158.421 1531.92,149.918 1537.02,132.987 1542.12,115.367 1544.81,105.944 
  1544.81,107.592 1547.5,99.8755 1552.6,104.611 1557.7,135.147 1560.39,161.832 1560.39,159.441 1563.09,204.006 1568.19,316.208 1573.29,463.741 1575.98,555.414 
  1575.98,550.147 1578.67,654.717 1583.77,846.65 1588.87,1028.76 1591.57,1120.22 1591.57,1121.09 1594.26,1196.2 1599.36,1303.15 1604.46,1364.69 1607.15,1379.26 
  1607.15,1381.63 1609.84,1382.08 1614.94,1382.2 1620.05,1381.65 1622.74,1381.23 1622.74,1381.56 1625.43,1381.82 1630.53,1382.25 1635.63,1382.56 1638.32,1382.67 
  1638.32,1382.6 1641.01,1382.6 1646.11,1382.6 1651.22,1382.59 1653.91,1382.59 1653.91,1382.6 1656.6,1382.6 1661.7,1382.6 1666.8,1382.6 1669.49,1382.61 
  1669.49,1382.61 1672.18,1382.61 1677.29,1382.61 1682.39,1382.61 1685.08,1382.61 1685.08,1382.61 1687.77,1382.61 1692.87,1382.61 1697.97,1382.61 1700.66,1382.61 
  1700.66,1382.61 1703.35,1382.61 1708.46,1382.61 1713.56,1382.61 1716.25,1382.61 1716.25,1382.61 1718.94,1382.61 1724.04,1382.61 1729.14,1382.61 1731.83,1382.61 
  1731.83,1382.61 1734.53,1382.61 1739.63,1382.61 1744.73,1382.61 1747.42,1382.61 1747.42,1382.61 1750.11,1382.61 1755.21,1382.61 1760.31,1382.61 1763,1382.61 
  1763,1382.61 1765.7,1382.61 1770.8,1382.61 1775.9,1382.61 1778.59,1382.61 1778.59,1382.61 1781.28,1382.61 1786.38,1382.61 1791.48,1382.61 1794.18,1382.61 
  1794.18,1382.61 1796.87,1382.61 1801.97,1382.61 1807.07,1382.61 1809.76,1382.61 1809.76,1382.61 1812.45,1382.61 1817.55,1382.61 1822.66,1382.61 1825.35,1382.61 
  1828.04,1382.61 1833.14,1382.61 1838.24,1382.61 1840.93,1382.61 1843.62,1382.61 1848.72,1382.61 1853.83,1382.61 1856.52,1382.61 
  1859.21,1382.61 1864.31,1382.61 1869.41,1382.61 1872.1,1382.61 1874.79,1382.61 1879.9,1382.61 1885,1382.61 1887.69,1382.61 
  1890.38,1382.61 1895.48,1382.61 1900.58,1382.61 1903.27,1382.61 1905.96,1382.61 1911.07,1382.61 1916.17,1382.61 1918.86,1382.61 
  1921.55,1382.61 1926.65,1382.61 1931.75,1382.61 1934.44,1382.61 1937.14,1382.61 1942.24,1382.61 1947.34,1382.61 1950.03,1382.61 
  1952.72,1382.61 1957.82,1382.61 1962.92,1382.61 1965.61,1382.61 1968.31,1382.61 1973.41,1382.61 1978.51,1382.61 1981.2,1382.61 
  1983.89,1382.61 1988.99,1382.61 1994.09,1382.61 1996.79,1382.61 1999.48,1382.61 2004.58,1382.61 2009.68,1382.61 2012.37,1382.61 
  2015.06,1382.61 2020.16,1382.61 2025.27,1382.61 2027.96,1382.61 2030.65,1382.61 2035.75,1382.61 2040.85,1382.61 2043.54,1382.61 
  2046.23,1382.61 2051.33,1382.61 2056.44,1382.61 2059.13,1382.61 2061.82,1382.61 2066.92,1382.61 2072.02,1382.61 2074.71,1382.61 
  2077.4,1382.61 2082.51,1382.61 2087.61,1382.61 2090.3,1382.61 2092.99,1382.61 2098.09,1382.61 2103.19,1382.61 2105.88,1382.61 
  2108.57,1382.61 2113.68,1382.61 2118.78,1382.61 2121.47,1382.61 2124.16,1382.61 2129.26,1382.61 2134.36,1382.61 2137.05,1382.61 
  2139.75,1382.61 2144.85,1382.61 2149.95,1382.61 2152.64,1382.61 2155.33,1382.61 2160.43,1382.61 2165.53,1382.61 2168.22,1382.61 
  2170.92,1382.61 2176.02,1382.61 2181.12,1382.61 2183.81,1382.61 2186.5,1382.61 2191.6,1382.61 2196.7,1382.61 2199.4,1382.61 
  2202.09,1382.61 2207.19,1382.61 2212.29,1382.61 2214.98,1382.61 2217.67,1382.61 2222.77,1382.61 2227.88,1382.61 2230.57,1382.61 
  2233.26,1382.61 2238.36,1382.61 2243.46,1382.61 2246.15,1382.61 2248.84,1382.61 2253.94,1382.61 2259.05,1382.61 2261.74,1382.61 
  2264.43,1382.61 2269.53,1382.61 2274.63,1382.61 2277.32,1382.61 2280.01,1382.61 2285.12,1382.61 2290.22,1382.61 2292.91,1382.61 
  
  "/>
<path clip-path="url(#clip440)" d="
M1786.57 274.549 L2282.27 274.549 L2282.27 93.1086 L1786.57 93.1086  Z
  " fill="#ffffff" fill-rule="evenodd" fill-opacity="1"/>
<polyline clip-path="url(#clip440)" style="stroke:#000000; stroke-width:4; stroke-opacity:1; fill:none" points="
  1786.57,274.549 2282.27,274.549 2282.27,93.1086 1786.57,93.1086 1786.57,274.549 
  "/>
<polyline clip-path="url(#clip440)" style="stroke:#009af9; stroke-width:4; stroke-opacity:1; fill:none" points="
  1810.07,153.589 1951.04,153.589 
  "/>
<path clip-path="url(#clip440)" d="M 0 0 M1981.94 137.582 L1981.94 144.943 L1990.72 144.943 L1990.72 148.253 L1981.94 148.253 L1981.94 162.327 Q1981.94 165.498 1982.8 166.401 Q1983.68 167.304 1986.34 167.304 L1990.72 167.304 L1990.72 170.869 L1986.34 170.869 Q1981.41 170.869 1979.54 169.04 Q1977.66 167.188 1977.66 162.327 L1977.66 148.253 L1974.54 148.253 L1974.54 144.943 L1977.66 144.943 L1977.66 137.582 L1981.94 137.582 Z" fill="#000000" fill-rule="evenodd" fill-opacity="1" /><path clip-path="url(#clip440)" d="M 0 0 M1995.74 149.341 L2025.42 149.341 L2025.42 153.23 L1995.74 153.23 L1995.74 149.341 M1995.74 158.785 L2025.42 158.785 L2025.42 162.721 L1995.74 162.721 L1995.74 158.785 Z" fill="#000000" fill-rule="evenodd" fill-opacity="1" /><path clip-path="url(#clip440)" d="M 0 0 M2040.49 139.387 Q2036.87 139.387 2035.05 142.952 Q2033.24 146.494 2033.24 153.623 Q2033.24 160.73 2035.05 164.295 Q2036.87 167.836 2040.49 167.836 Q2044.12 167.836 2045.93 164.295 Q2047.75 160.73 2047.75 153.623 Q2047.75 146.494 2045.93 142.952 Q2044.12 139.387 2040.49 139.387 M2040.49 135.684 Q2046.3 135.684 2049.35 140.29 Q2052.43 144.873 2052.43 153.623 Q2052.43 162.35 2049.35 166.957 Q2046.3 171.54 2040.49 171.54 Q2034.68 171.54 2031.6 166.957 Q2028.54 162.35 2028.54 153.623 Q2028.54 144.873 2031.6 140.29 Q2034.68 135.684 2040.49 135.684 Z" fill="#000000" fill-rule="evenodd" fill-opacity="1" /><path clip-path="url(#clip440)" d="M 0 0 M2057.5 164.989 L2062.38 164.989 L2062.38 170.869 L2057.5 170.869 L2057.5 164.989 Z" fill="#000000" fill-rule="evenodd" fill-opacity="1" /><path clip-path="url(#clip440)" d="M 0 0 M2077.45 139.387 Q2073.84 139.387 2072.01 142.952 Q2070.21 146.494 2070.21 153.623 Q2070.21 160.73 2072.01 164.295 Q2073.84 167.836 2077.45 167.836 Q2081.09 167.836 2082.89 164.295 Q2084.72 160.73 2084.72 153.623 Q2084.72 146.494 2082.89 142.952 Q2081.09 139.387 2077.45 139.387 M2077.45 135.684 Q2083.26 135.684 2086.32 140.29 Q2089.4 144.873 2089.4 153.623 Q2089.4 162.35 2086.32 166.957 Q2083.26 171.54 2077.45 171.54 Q2071.64 171.54 2068.56 166.957 Q2065.51 162.35 2065.51 153.623 Q2065.51 144.873 2068.56 140.29 Q2071.64 135.684 2077.45 135.684 Z" fill="#000000" fill-rule="evenodd" fill-opacity="1" /><path clip-path="url(#clip440)" d="M 0 0 M2108.54 134.85 L2118.36 134.85 L2118.36 138.16 L2112.8 138.16 L2112.8 173.808 L2118.36 173.808 L2118.36 177.119 L2108.54 177.119 L2108.54 134.85 Z" fill="#000000" fill-rule="evenodd" fill-opacity="1" /><path clip-path="url(#clip440)" d="M 0 0 M2139.35 145.707 L2139.35 149.734 Q2137.55 148.809 2135.6 148.346 Q2133.66 147.883 2131.57 147.883 Q2128.4 147.883 2126.81 148.855 Q2125.23 149.827 2125.23 151.771 Q2125.23 153.253 2126.37 154.109 Q2127.5 154.943 2130.93 155.707 L2132.38 156.031 Q2136.92 157.003 2138.82 158.785 Q2140.74 160.545 2140.74 163.716 Q2140.74 167.327 2137.87 169.433 Q2135.02 171.54 2130.02 171.54 Q2127.94 171.54 2125.67 171.123 Q2123.43 170.73 2120.93 169.92 L2120.93 165.521 Q2123.29 166.748 2125.58 167.373 Q2127.87 167.975 2130.12 167.975 Q2133.12 167.975 2134.74 166.957 Q2136.37 165.915 2136.37 164.04 Q2136.37 162.304 2135.18 161.378 Q2134.03 160.452 2130.07 159.596 L2128.59 159.248 Q2124.63 158.415 2122.87 156.702 Q2121.11 154.966 2121.11 151.957 Q2121.11 148.299 2123.7 146.309 Q2126.3 144.318 2131.06 144.318 Q2133.43 144.318 2135.51 144.665 Q2137.59 145.012 2139.35 145.707 Z" fill="#000000" fill-rule="evenodd" fill-opacity="1" /><path clip-path="url(#clip440)" d="M 0 0 M2155.16 134.85 L2155.16 177.119 L2145.35 177.119 L2145.35 173.808 L2150.88 173.808 L2150.88 138.16 L2145.35 138.16 L2145.35 134.85 L2155.16 134.85 Z" fill="#000000" fill-rule="evenodd" fill-opacity="1" /><polyline clip-path="url(#clip440)" style="stroke:#e26f46; stroke-width:4; stroke-opacity:1; fill:none" points="
  1810.07,214.069 1951.04,214.069 
  "/>
<path clip-path="url(#clip440)" d="M 0 0 M1981.94 198.062 L1981.94 205.423 L1990.72 205.423 L1990.72 208.733 L1981.94 208.733 L1981.94 222.807 Q1981.94 225.978 1982.8 226.881 Q1983.68 227.784 1986.34 227.784 L1990.72 227.784 L1990.72 231.349 L1986.34 231.349 Q1981.41 231.349 1979.54 229.52 Q1977.66 227.668 1977.66 222.807 L1977.66 208.733 L1974.54 208.733 L1974.54 205.423 L1977.66 205.423 L1977.66 198.062 L1981.94 198.062 Z" fill="#000000" fill-rule="evenodd" fill-opacity="1" /><path clip-path="url(#clip440)" d="M 0 0 M1995.74 209.821 L2025.42 209.821 L2025.42 213.71 L1995.74 213.71 L1995.74 209.821 M1995.74 219.265 L2025.42 219.265 L2025.42 223.201 L1995.74 223.201 L1995.74 219.265 Z" fill="#000000" fill-rule="evenodd" fill-opacity="1" /><path clip-path="url(#clip440)" d="M 0 0 M2043.33 200.863 L2031.53 219.312 L2043.33 219.312 L2043.33 200.863 M2042.11 196.789 L2047.99 196.789 L2047.99 219.312 L2052.92 219.312 L2052.92 223.201 L2047.99 223.201 L2047.99 231.349 L2043.33 231.349 L2043.33 223.201 L2027.73 223.201 L2027.73 218.687 L2042.11 196.789 Z" fill="#000000" fill-rule="evenodd" fill-opacity="1" /><path clip-path="url(#clip440)" d="M 0 0 M2058.03 196.789 L2076.39 196.789 L2076.39 200.724 L2062.31 200.724 L2062.31 209.196 Q2063.33 208.849 2064.35 208.687 Q2065.37 208.502 2066.39 208.502 Q2072.18 208.502 2075.56 211.673 Q2078.93 214.844 2078.93 220.261 Q2078.93 225.839 2075.46 228.941 Q2071.99 232.02 2065.67 232.02 Q2063.5 232.02 2061.23 231.65 Q2058.98 231.279 2056.57 230.538 L2056.57 225.839 Q2058.66 226.974 2060.88 227.529 Q2063.1 228.085 2065.58 228.085 Q2069.58 228.085 2071.92 225.978 Q2074.26 223.872 2074.26 220.261 Q2074.26 216.65 2071.92 214.543 Q2069.58 212.437 2065.58 212.437 Q2063.7 212.437 2061.83 212.853 Q2059.98 213.27 2058.03 214.15 L2058.03 196.789 Z" fill="#000000" fill-rule="evenodd" fill-opacity="1" /><path clip-path="url(#clip440)" d="M 0 0 M2094 199.867 Q2090.39 199.867 2088.56 203.432 Q2086.76 206.974 2086.76 214.103 Q2086.76 221.21 2088.56 224.775 Q2090.39 228.316 2094 228.316 Q2097.64 228.316 2099.44 224.775 Q2101.27 221.21 2101.27 214.103 Q2101.27 206.974 2099.44 203.432 Q2097.64 199.867 2094 199.867 M2094 196.164 Q2099.81 196.164 2102.87 200.77 Q2105.95 205.353 2105.95 214.103 Q2105.95 222.83 2102.87 227.437 Q2099.81 232.02 2094 232.02 Q2088.19 232.02 2085.12 227.437 Q2082.06 222.83 2082.06 214.103 Q2082.06 205.353 2085.12 200.77 Q2088.19 196.164 2094 196.164 Z" fill="#000000" fill-rule="evenodd" fill-opacity="1" /><path clip-path="url(#clip440)" d="M 0 0 M2111.02 225.469 L2115.9 225.469 L2115.9 231.349 L2111.02 231.349 L2111.02 225.469 Z" fill="#000000" fill-rule="evenodd" fill-opacity="1" /><path clip-path="url(#clip440)" d="M 0 0 M2133.82 200.863 L2122.01 219.312 L2133.82 219.312 L2133.82 200.863 M2132.59 196.789 L2138.47 196.789 L2138.47 219.312 L2143.4 219.312 L2143.4 223.201 L2138.47 223.201 L2138.47 231.349 L2133.82 231.349 L2133.82 223.201 L2118.22 223.201 L2118.22 218.687 L2132.59 196.789 Z" fill="#000000" fill-rule="evenodd" fill-opacity="1" /><path clip-path="url(#clip440)" d="M 0 0 M2147.29 196.789 L2169.51 196.789 L2169.51 198.779 L2156.97 231.349 L2152.08 231.349 L2163.89 200.724 L2147.29 200.724 L2147.29 196.789 Z" fill="#000000" fill-rule="evenodd" fill-opacity="1" /><path clip-path="url(#clip440)" d="M 0 0 M2188.66 195.33 L2198.47 195.33 L2198.47 198.64 L2192.92 198.64 L2192.92 234.288 L2198.47 234.288 L2198.47 237.599 L2188.66 237.599 L2188.66 195.33 Z" fill="#000000" fill-rule="evenodd" fill-opacity="1" /><path clip-path="url(#clip440)" d="M 0 0 M2219.47 206.187 L2219.47 210.214 Q2217.66 209.289 2215.72 208.826 Q2213.77 208.363 2211.69 208.363 Q2208.52 208.363 2206.92 209.335 Q2205.35 210.307 2205.35 212.251 Q2205.35 213.733 2206.48 214.589 Q2207.61 215.423 2211.04 216.187 L2212.5 216.511 Q2217.04 217.483 2218.93 219.265 Q2220.86 221.025 2220.86 224.196 Q2220.86 227.807 2217.99 229.913 Q2215.14 232.02 2210.14 232.02 Q2208.05 232.02 2205.79 231.603 Q2203.54 231.21 2201.04 230.4 L2201.04 226.001 Q2203.4 227.228 2205.69 227.853 Q2207.99 228.455 2210.23 228.455 Q2213.24 228.455 2214.86 227.437 Q2216.48 226.395 2216.48 224.52 Q2216.48 222.784 2215.3 221.858 Q2214.14 220.932 2210.18 220.076 L2208.7 219.728 Q2204.74 218.895 2202.99 217.182 Q2201.23 215.446 2201.23 212.437 Q2201.23 208.779 2203.82 206.789 Q2206.41 204.798 2211.18 204.798 Q2213.54 204.798 2215.62 205.145 Q2217.71 205.492 2219.47 206.187 Z" fill="#000000" fill-rule="evenodd" fill-opacity="1" /><path clip-path="url(#clip440)" d="M 0 0 M2235.28 195.33 L2235.28 237.599 L2225.46 237.599 L2225.46 234.288 L2230.99 234.288 L2230.99 198.64 L2225.46 198.64 L2225.46 195.33 L2235.28 195.33 Z" fill="#000000" fill-rule="evenodd" fill-opacity="1" /></svg>
