<?xml version="1.0" encoding="utf-8"?>
<svg xmlns="http://www.w3.org/2000/svg" xmlns:xlink="http://www.w3.org/1999/xlink" width="600" height="400" viewBox="0 0 2400 1600">
<defs>
  <clipPath id="clip140">
    <rect x="0" y="0" width="2400" height="1600"/>
  </clipPath>
</defs>
<path clip-path="url(#clip140)" d="
M0 1600 L2400 1600 L2400 0 L0 0  Z
  " fill="#ffffff" fill-rule="evenodd" fill-opacity="1"/>
<defs>
  <clipPath id="clip141">
    <rect x="480" y="0" width="1681" height="1600"/>
  </clipPath>
</defs>
<path clip-path="url(#clip140)" d="
M238.13 1423.18 L2352.76 1423.18 L2352.76 47.2441 L238.13 47.2441  Z
  " fill="#ffffff" fill-rule="evenodd" fill-opacity="1"/>
<defs>
  <clipPath id="clip142">
    <rect x="238" y="47" width="2116" height="1377"/>
  </clipPath>
</defs>
<polyline clip-path="url(#clip142)" style="stroke:#000000; stroke-width:2; stroke-opacity:0.1; fill:none" points="
  297.978,1423.18 297.978,47.2441 
  "/>
<polyline clip-path="url(#clip142)" style="stroke:#000000; stroke-width:2; stroke-opacity:0.1; fill:none" points="
  867.958,1423.18 867.958,47.2441 
  "/>
<polyline clip-path="url(#clip142)" style="stroke:#000000; stroke-width:2; stroke-opacity:0.1; fill:none" points="
  1437.94,1423.18 1437.94,47.2441 
  "/>
<polyline clip-path="url(#clip142)" style="stroke:#000000; stroke-width:2; stroke-opacity:0.1; fill:none" points="
  2007.92,1423.18 2007.92,47.2441 
  "/>
<polyline clip-path="url(#clip140)" style="stroke:#000000; stroke-width:4; stroke-opacity:1; fill:none" points="
  238.13,1423.18 2352.76,1423.18 
  "/>
<polyline clip-path="url(#clip140)" style="stroke:#000000; stroke-width:4; stroke-opacity:1; fill:none" points="
  297.978,1423.18 297.978,1406.67 
  "/>
<polyline clip-path="url(#clip140)" style="stroke:#000000; stroke-width:4; stroke-opacity:1; fill:none" points="
  867.958,1423.18 867.958,1406.67 
  "/>
<polyline clip-path="url(#clip140)" style="stroke:#000000; stroke-width:4; stroke-opacity:1; fill:none" points="
  1437.94,1423.18 1437.94,1406.67 
  "/>
<polyline clip-path="url(#clip140)" style="stroke:#000000; stroke-width:4; stroke-opacity:1; fill:none" points="
  2007.92,1423.18 2007.92,1406.67 
  "/>
<path clip-path="url(#clip140)" d="M 0 0 M297.978 1452.37 Q294.367 1452.37 292.538 1455.94 Q290.733 1459.48 290.733 1466.61 Q290.733 1473.71 292.538 1477.28 Q294.367 1480.82 297.978 1480.82 Q301.612 1480.82 303.418 1477.28 Q305.246 1473.71 305.246 1466.61 Q305.246 1459.48 303.418 1455.94 Q301.612 1452.37 297.978 1452.37 M297.978 1448.67 Q303.788 1448.67 306.844 1453.27 Q309.922 1457.86 309.922 1466.61 Q309.922 1475.33 306.844 1479.94 Q303.788 1484.52 297.978 1484.52 Q292.168 1484.52 289.089 1479.94 Q286.034 1475.33 286.034 1466.61 Q286.034 1457.86 289.089 1453.27 Q292.168 1448.67 297.978 1448.67 Z" fill="#000000" fill-rule="evenodd" fill-opacity="1" /><path clip-path="url(#clip140)" d="M 0 0 M831.326 1479.92 L838.965 1479.92 L838.965 1453.55 L830.655 1455.22 L830.655 1450.96 L838.919 1449.29 L843.595 1449.29 L843.595 1479.92 L851.234 1479.92 L851.234 1483.85 L831.326 1483.85 L831.326 1479.92 Z" fill="#000000" fill-rule="evenodd" fill-opacity="1" /><path clip-path="url(#clip140)" d="M 0 0 M866.303 1452.37 Q862.692 1452.37 860.863 1455.94 Q859.058 1459.48 859.058 1466.61 Q859.058 1473.71 860.863 1477.28 Q862.692 1480.82 866.303 1480.82 Q869.937 1480.82 871.743 1477.28 Q873.571 1473.71 873.571 1466.61 Q873.571 1459.48 871.743 1455.94 Q869.937 1452.37 866.303 1452.37 M866.303 1448.67 Q872.113 1448.67 875.169 1453.27 Q878.247 1457.86 878.247 1466.61 Q878.247 1475.33 875.169 1479.94 Q872.113 1484.52 866.303 1484.52 Q860.493 1484.52 857.414 1479.94 Q854.359 1475.33 854.359 1466.61 Q854.359 1457.86 857.414 1453.27 Q860.493 1448.67 866.303 1448.67 Z" fill="#000000" fill-rule="evenodd" fill-opacity="1" /><path clip-path="url(#clip140)" d="M 0 0 M893.317 1452.37 Q889.706 1452.37 887.877 1455.94 Q886.071 1459.48 886.071 1466.61 Q886.071 1473.71 887.877 1477.28 Q889.706 1480.82 893.317 1480.82 Q896.951 1480.82 898.756 1477.28 Q900.585 1473.71 900.585 1466.61 Q900.585 1459.48 898.756 1455.94 Q896.951 1452.37 893.317 1452.37 M893.317 1448.67 Q899.127 1448.67 902.182 1453.27 Q905.261 1457.86 905.261 1466.61 Q905.261 1475.33 902.182 1479.94 Q899.127 1484.52 893.317 1484.52 Q887.506 1484.52 884.428 1479.94 Q881.372 1475.33 881.372 1466.61 Q881.372 1457.86 884.428 1453.27 Q887.506 1448.67 893.317 1448.67 Z" fill="#000000" fill-rule="evenodd" fill-opacity="1" /><path clip-path="url(#clip140)" d="M 0 0 M1405.58 1479.92 L1421.9 1479.92 L1421.9 1483.85 L1399.95 1483.85 L1399.95 1479.92 Q1402.61 1477.16 1407.2 1472.53 Q1411.8 1467.88 1412.98 1466.54 Q1415.23 1464.01 1416.11 1462.28 Q1417.01 1460.52 1417.01 1458.83 Q1417.01 1456.07 1415.07 1454.34 Q1413.15 1452.6 1410.04 1452.6 Q1407.85 1452.6 1405.39 1453.37 Q1402.96 1454.13 1400.18 1455.68 L1400.18 1450.96 Q1403.01 1449.82 1405.46 1449.25 Q1407.91 1448.67 1409.95 1448.67 Q1415.32 1448.67 1418.52 1451.35 Q1421.71 1454.04 1421.71 1458.53 Q1421.71 1460.66 1420.9 1462.58 Q1420.11 1464.48 1418.01 1467.07 Q1417.43 1467.74 1414.33 1470.96 Q1411.23 1474.15 1405.58 1479.92 Z" fill="#000000" fill-rule="evenodd" fill-opacity="1" /><path clip-path="url(#clip140)" d="M 0 0 M1436.97 1452.37 Q1433.35 1452.37 1431.53 1455.94 Q1429.72 1459.48 1429.72 1466.61 Q1429.72 1473.71 1431.53 1477.28 Q1433.35 1480.82 1436.97 1480.82 Q1440.6 1480.82 1442.41 1477.28 Q1444.23 1473.71 1444.23 1466.61 Q1444.23 1459.48 1442.41 1455.94 Q1440.6 1452.37 1436.97 1452.37 M1436.97 1448.67 Q1442.78 1448.67 1445.83 1453.27 Q1448.91 1457.86 1448.91 1466.61 Q1448.91 1475.33 1445.83 1479.94 Q1442.78 1484.52 1436.97 1484.52 Q1431.16 1484.52 1428.08 1479.94 Q1425.02 1475.33 1425.02 1466.61 Q1425.02 1457.86 1428.08 1453.27 Q1431.16 1448.67 1436.97 1448.67 Z" fill="#000000" fill-rule="evenodd" fill-opacity="1" /><path clip-path="url(#clip140)" d="M 0 0 M1463.98 1452.37 Q1460.37 1452.37 1458.54 1455.94 Q1456.73 1459.48 1456.73 1466.61 Q1456.73 1473.71 1458.54 1477.28 Q1460.37 1480.82 1463.98 1480.82 Q1467.61 1480.82 1469.42 1477.28 Q1471.25 1473.71 1471.25 1466.61 Q1471.25 1459.48 1469.42 1455.94 Q1467.61 1452.37 1463.98 1452.37 M1463.98 1448.67 Q1469.79 1448.67 1472.85 1453.27 Q1475.92 1457.86 1475.92 1466.61 Q1475.92 1475.33 1472.85 1479.94 Q1469.79 1484.52 1463.98 1484.52 Q1458.17 1484.52 1455.09 1479.94 Q1452.04 1475.33 1452.04 1466.61 Q1452.04 1457.86 1455.09 1453.27 Q1458.17 1448.67 1463.98 1448.67 Z" fill="#000000" fill-rule="evenodd" fill-opacity="1" /><path clip-path="url(#clip140)" d="M 0 0 M1985.15 1465.22 Q1988.51 1465.94 1990.38 1468.2 Q1992.28 1470.47 1992.28 1473.81 Q1992.28 1478.92 1988.76 1481.72 Q1985.24 1484.52 1978.76 1484.52 Q1976.59 1484.52 1974.27 1484.08 Q1971.98 1483.67 1969.53 1482.81 L1969.53 1478.3 Q1971.47 1479.43 1973.79 1480.01 Q1976.1 1480.59 1978.62 1480.59 Q1983.02 1480.59 1985.31 1478.85 Q1987.63 1477.12 1987.63 1473.81 Q1987.63 1470.75 1985.48 1469.04 Q1983.35 1467.3 1979.53 1467.3 L1975.5 1467.3 L1975.5 1463.46 L1979.71 1463.46 Q1983.16 1463.46 1984.99 1462.09 Q1986.82 1460.7 1986.82 1458.11 Q1986.82 1455.45 1984.92 1454.04 Q1983.05 1452.6 1979.53 1452.6 Q1977.61 1452.6 1975.41 1453.02 Q1973.21 1453.44 1970.57 1454.31 L1970.57 1450.15 Q1973.23 1449.41 1975.55 1449.04 Q1977.88 1448.67 1979.94 1448.67 Q1985.27 1448.67 1988.37 1451.1 Q1991.47 1453.5 1991.47 1457.63 Q1991.47 1460.5 1989.83 1462.49 Q1988.18 1464.45 1985.15 1465.22 Z" fill="#000000" fill-rule="evenodd" fill-opacity="1" /><path clip-path="url(#clip140)" d="M 0 0 M2007.35 1452.37 Q2003.74 1452.37 2001.91 1455.94 Q2000.11 1459.48 2000.11 1466.61 Q2000.11 1473.71 2001.91 1477.28 Q2003.74 1480.82 2007.35 1480.82 Q2010.99 1480.82 2012.79 1477.28 Q2014.62 1473.71 2014.62 1466.61 Q2014.62 1459.48 2012.79 1455.94 Q2010.99 1452.37 2007.35 1452.37 M2007.35 1448.67 Q2013.16 1448.67 2016.22 1453.27 Q2019.3 1457.86 2019.3 1466.61 Q2019.3 1475.33 2016.22 1479.94 Q2013.16 1484.52 2007.35 1484.52 Q2001.54 1484.52 1998.46 1479.94 Q1995.41 1475.33 1995.41 1466.61 Q1995.41 1457.86 1998.46 1453.27 Q2001.54 1448.67 2007.35 1448.67 Z" fill="#000000" fill-rule="evenodd" fill-opacity="1" /><path clip-path="url(#clip140)" d="M 0 0 M2034.36 1452.37 Q2030.75 1452.37 2028.92 1455.94 Q2027.12 1459.48 2027.12 1466.61 Q2027.12 1473.71 2028.92 1477.28 Q2030.75 1480.82 2034.36 1480.82 Q2038 1480.82 2039.8 1477.28 Q2041.63 1473.71 2041.63 1466.61 Q2041.63 1459.48 2039.8 1455.94 Q2038 1452.37 2034.36 1452.37 M2034.36 1448.67 Q2040.17 1448.67 2043.23 1453.27 Q2046.31 1457.86 2046.31 1466.61 Q2046.31 1475.33 2043.23 1479.94 Q2040.17 1484.52 2034.36 1484.52 Q2028.55 1484.52 2025.48 1479.94 Q2022.42 1475.33 2022.42 1466.61 Q2022.42 1457.86 2025.48 1453.27 Q2028.55 1448.67 2034.36 1448.67 Z" fill="#000000" fill-rule="evenodd" fill-opacity="1" /><path clip-path="url(#clip140)" d="M 0 0 M1312.06 1520.4 L1299.17 1537.74 L1312.73 1556.04 L1305.82 1556.04 L1295.44 1542.04 L1285.07 1556.04 L1278.16 1556.04 L1292.01 1537.39 L1279.34 1520.4 L1286.24 1520.4 L1295.7 1533.1 L1305.15 1520.4 L1312.06 1520.4 Z" fill="#000000" fill-rule="evenodd" fill-opacity="1" /><polyline clip-path="url(#clip142)" style="stroke:#000000; stroke-width:2; stroke-opacity:0.1; fill:none" points="
  238.13,1384.24 2352.76,1384.24 
  "/>
<polyline clip-path="url(#clip142)" style="stroke:#000000; stroke-width:2; stroke-opacity:0.1; fill:none" points="
  238.13,1093.05 2352.76,1093.05 
  "/>
<polyline clip-path="url(#clip142)" style="stroke:#000000; stroke-width:2; stroke-opacity:0.1; fill:none" points="
  238.13,801.869 2352.76,801.869 
  "/>
<polyline clip-path="url(#clip142)" style="stroke:#000000; stroke-width:2; stroke-opacity:0.1; fill:none" points="
  238.13,510.684 2352.76,510.684 
  "/>
<polyline clip-path="url(#clip142)" style="stroke:#000000; stroke-width:2; stroke-opacity:0.1; fill:none" points="
  238.13,219.5 2352.76,219.5 
  "/>
<polyline clip-path="url(#clip140)" style="stroke:#000000; stroke-width:4; stroke-opacity:1; fill:none" points="
  238.13,1423.18 238.13,47.2441 
  "/>
<polyline clip-path="url(#clip140)" style="stroke:#000000; stroke-width:4; stroke-opacity:1; fill:none" points="
  238.13,1384.24 263.506,1384.24 
  "/>
<polyline clip-path="url(#clip140)" style="stroke:#000000; stroke-width:4; stroke-opacity:1; fill:none" points="
  238.13,1093.05 263.506,1093.05 
  "/>
<polyline clip-path="url(#clip140)" style="stroke:#000000; stroke-width:4; stroke-opacity:1; fill:none" points="
  238.13,801.869 263.506,801.869 
  "/>
<polyline clip-path="url(#clip140)" style="stroke:#000000; stroke-width:4; stroke-opacity:1; fill:none" points="
  238.13,510.684 263.506,510.684 
  "/>
<polyline clip-path="url(#clip140)" style="stroke:#000000; stroke-width:4; stroke-opacity:1; fill:none" points="
  238.13,219.5 263.506,219.5 
  "/>
<path clip-path="url(#clip140)" d="M 0 0 M126.205 1370.04 Q122.593 1370.04 120.765 1373.6 Q118.959 1377.14 118.959 1384.27 Q118.959 1391.38 120.765 1394.94 Q122.593 1398.49 126.205 1398.49 Q129.839 1398.49 131.644 1394.94 Q133.473 1391.38 133.473 1384.27 Q133.473 1377.14 131.644 1373.6 Q129.839 1370.04 126.205 1370.04 M126.205 1366.33 Q132.015 1366.33 135.07 1370.94 Q138.149 1375.52 138.149 1384.27 Q138.149 1393 135.07 1397.61 Q132.015 1402.19 126.205 1402.19 Q120.394 1402.19 117.316 1397.61 Q114.26 1393 114.26 1384.27 Q114.26 1375.52 117.316 1370.94 Q120.394 1366.33 126.205 1366.33 Z" fill="#000000" fill-rule="evenodd" fill-opacity="1" /><path clip-path="url(#clip140)" d="M 0 0 M143.218 1395.64 L148.103 1395.64 L148.103 1401.52 L143.218 1401.52 L143.218 1395.64 Z" fill="#000000" fill-rule="evenodd" fill-opacity="1" /><path clip-path="url(#clip140)" d="M 0 0 M163.172 1370.04 Q159.561 1370.04 157.732 1373.6 Q155.927 1377.14 155.927 1384.27 Q155.927 1391.38 157.732 1394.94 Q159.561 1398.49 163.172 1398.49 Q166.806 1398.49 168.612 1394.94 Q170.44 1391.38 170.44 1384.27 Q170.44 1377.14 168.612 1373.6 Q166.806 1370.04 163.172 1370.04 M163.172 1366.33 Q168.982 1366.33 172.038 1370.94 Q175.116 1375.52 175.116 1384.27 Q175.116 1393 172.038 1397.61 Q168.982 1402.19 163.172 1402.19 Q157.362 1402.19 154.283 1397.61 Q151.228 1393 151.228 1384.27 Q151.228 1375.52 154.283 1370.94 Q157.362 1366.33 163.172 1366.33 Z" fill="#000000" fill-rule="evenodd" fill-opacity="1" /><path clip-path="url(#clip140)" d="M 0 0 M190.186 1370.04 Q186.575 1370.04 184.746 1373.6 Q182.94 1377.14 182.94 1384.27 Q182.94 1391.38 184.746 1394.94 Q186.575 1398.49 190.186 1398.49 Q193.82 1398.49 195.625 1394.94 Q197.454 1391.38 197.454 1384.27 Q197.454 1377.14 195.625 1373.6 Q193.82 1370.04 190.186 1370.04 M190.186 1366.33 Q195.996 1366.33 199.051 1370.94 Q202.13 1375.52 202.13 1384.27 Q202.13 1393 199.051 1397.61 Q195.996 1402.19 190.186 1402.19 Q184.376 1402.19 181.297 1397.61 Q178.241 1393 178.241 1384.27 Q178.241 1375.52 181.297 1370.94 Q184.376 1366.33 190.186 1366.33 Z" fill="#000000" fill-rule="evenodd" fill-opacity="1" /><path clip-path="url(#clip140)" d="M 0 0 M128.797 1078.85 Q125.186 1078.85 123.357 1082.42 Q121.552 1085.96 121.552 1093.09 Q121.552 1100.19 123.357 1103.76 Q125.186 1107.3 128.797 1107.3 Q132.431 1107.3 134.237 1103.76 Q136.066 1100.19 136.066 1093.09 Q136.066 1085.96 134.237 1082.42 Q132.431 1078.85 128.797 1078.85 M128.797 1075.15 Q134.607 1075.15 137.663 1079.76 Q140.741 1084.34 140.741 1093.09 Q140.741 1101.82 137.663 1106.42 Q134.607 1111 128.797 1111 Q122.987 1111 119.908 1106.42 Q116.853 1101.82 116.853 1093.09 Q116.853 1084.34 119.908 1079.76 Q122.987 1075.15 128.797 1075.15 Z" fill="#000000" fill-rule="evenodd" fill-opacity="1" /><path clip-path="url(#clip140)" d="M 0 0 M145.811 1104.45 L150.695 1104.45 L150.695 1110.33 L145.811 1110.33 L145.811 1104.45 Z" fill="#000000" fill-rule="evenodd" fill-opacity="1" /><path clip-path="url(#clip140)" d="M 0 0 M159.792 1106.4 L176.112 1106.4 L176.112 1110.33 L154.167 1110.33 L154.167 1106.4 Q156.829 1103.64 161.413 1099.01 Q166.019 1094.36 167.2 1093.02 Q169.445 1090.5 170.325 1088.76 Q171.227 1087 171.227 1085.31 Q171.227 1082.56 169.283 1080.82 Q167.362 1079.08 164.26 1079.08 Q162.061 1079.08 159.607 1079.85 Q157.177 1080.61 154.399 1082.16 L154.399 1077.44 Q157.223 1076.31 159.677 1075.73 Q162.13 1075.15 164.167 1075.15 Q169.538 1075.15 172.732 1077.83 Q175.926 1080.52 175.926 1085.01 Q175.926 1087.14 175.116 1089.06 Q174.329 1090.96 172.223 1093.55 Q171.644 1094.22 168.542 1097.44 Q165.44 1100.63 159.792 1106.4 Z" fill="#000000" fill-rule="evenodd" fill-opacity="1" /><path clip-path="url(#clip140)" d="M 0 0 M181.227 1075.77 L199.584 1075.77 L199.584 1079.71 L185.51 1079.71 L185.51 1088.18 Q186.528 1087.83 187.547 1087.67 Q188.565 1087.49 189.584 1087.49 Q195.371 1087.49 198.75 1090.66 Q202.13 1093.83 202.13 1099.25 Q202.13 1104.82 198.658 1107.93 Q195.186 1111 188.866 1111 Q186.69 1111 184.422 1110.63 Q182.176 1110.26 179.769 1109.52 L179.769 1104.82 Q181.852 1105.96 184.075 1106.51 Q186.297 1107.07 188.774 1107.07 Q192.778 1107.07 195.116 1104.96 Q197.454 1102.86 197.454 1099.25 Q197.454 1095.63 195.116 1093.53 Q192.778 1091.42 188.774 1091.42 Q186.899 1091.42 185.024 1091.84 Q183.172 1092.26 181.227 1093.13 L181.227 1075.77 Z" fill="#000000" fill-rule="evenodd" fill-opacity="1" /><path clip-path="url(#clip140)" d="M 0 0 M127.2 787.668 Q123.589 787.668 121.76 791.233 Q119.955 794.774 119.955 801.904 Q119.955 809.01 121.76 812.575 Q123.589 816.117 127.2 816.117 Q130.834 816.117 132.64 812.575 Q134.468 809.01 134.468 801.904 Q134.468 794.774 132.64 791.233 Q130.834 787.668 127.2 787.668 M127.2 783.964 Q133.01 783.964 136.066 788.571 Q139.144 793.154 139.144 801.904 Q139.144 810.631 136.066 815.237 Q133.01 819.82 127.2 819.82 Q121.39 819.82 118.311 815.237 Q115.256 810.631 115.256 801.904 Q115.256 793.154 118.311 788.571 Q121.39 783.964 127.2 783.964 Z" fill="#000000" fill-rule="evenodd" fill-opacity="1" /><path clip-path="url(#clip140)" d="M 0 0 M144.214 813.269 L149.098 813.269 L149.098 819.149 L144.214 819.149 L144.214 813.269 Z" fill="#000000" fill-rule="evenodd" fill-opacity="1" /><path clip-path="url(#clip140)" d="M 0 0 M154.214 784.589 L172.57 784.589 L172.57 788.524 L158.496 788.524 L158.496 796.996 Q159.515 796.649 160.533 796.487 Q161.552 796.302 162.57 796.302 Q168.357 796.302 171.737 799.473 Q175.116 802.645 175.116 808.061 Q175.116 813.64 171.644 816.742 Q168.172 819.82 161.852 819.82 Q159.677 819.82 157.408 819.45 Q155.163 819.08 152.755 818.339 L152.755 813.64 Q154.839 814.774 157.061 815.33 Q159.283 815.885 161.76 815.885 Q165.765 815.885 168.102 813.779 Q170.44 811.672 170.44 808.061 Q170.44 804.45 168.102 802.344 Q165.765 800.237 161.76 800.237 Q159.885 800.237 158.01 800.654 Q156.158 801.07 154.214 801.95 L154.214 784.589 Z" fill="#000000" fill-rule="evenodd" fill-opacity="1" /><path clip-path="url(#clip140)" d="M 0 0 M190.186 787.668 Q186.575 787.668 184.746 791.233 Q182.94 794.774 182.94 801.904 Q182.94 809.01 184.746 812.575 Q186.575 816.117 190.186 816.117 Q193.82 816.117 195.625 812.575 Q197.454 809.01 197.454 801.904 Q197.454 794.774 195.625 791.233 Q193.82 787.668 190.186 787.668 M190.186 783.964 Q195.996 783.964 199.051 788.571 Q202.13 793.154 202.13 801.904 Q202.13 810.631 199.051 815.237 Q195.996 819.82 190.186 819.82 Q184.376 819.82 181.297 815.237 Q178.241 810.631 178.241 801.904 Q178.241 793.154 181.297 788.571 Q184.376 783.964 190.186 783.964 Z" fill="#000000" fill-rule="evenodd" fill-opacity="1" /><path clip-path="url(#clip140)" d="M 0 0 M128.103 496.483 Q124.492 496.483 122.663 500.048 Q120.857 503.59 120.857 510.719 Q120.857 517.826 122.663 521.39 Q124.492 524.932 128.103 524.932 Q131.737 524.932 133.542 521.39 Q135.371 517.826 135.371 510.719 Q135.371 503.59 133.542 500.048 Q131.737 496.483 128.103 496.483 M128.103 492.779 Q133.913 492.779 136.968 497.386 Q140.047 501.969 140.047 510.719 Q140.047 519.446 136.968 524.052 Q133.913 528.636 128.103 528.636 Q122.293 528.636 119.214 524.052 Q116.158 519.446 116.158 510.719 Q116.158 501.969 119.214 497.386 Q122.293 492.779 128.103 492.779 Z" fill="#000000" fill-rule="evenodd" fill-opacity="1" /><path clip-path="url(#clip140)" d="M 0 0 M145.116 522.085 L150.001 522.085 L150.001 527.964 L145.116 527.964 L145.116 522.085 Z" fill="#000000" fill-rule="evenodd" fill-opacity="1" /><path clip-path="url(#clip140)" d="M 0 0 M153.89 493.404 L176.112 493.404 L176.112 495.395 L163.565 527.964 L158.681 527.964 L170.487 497.34 L153.89 497.34 L153.89 493.404 Z" fill="#000000" fill-rule="evenodd" fill-opacity="1" /><path clip-path="url(#clip140)" d="M 0 0 M181.227 493.404 L199.584 493.404 L199.584 497.34 L185.51 497.34 L185.51 505.812 Q186.528 505.465 187.547 505.303 Q188.565 505.117 189.584 505.117 Q195.371 505.117 198.75 508.289 Q202.13 511.46 202.13 516.877 Q202.13 522.455 198.658 525.557 Q195.186 528.636 188.866 528.636 Q186.69 528.636 184.422 528.265 Q182.176 527.895 179.769 527.154 L179.769 522.455 Q181.852 523.589 184.075 524.145 Q186.297 524.701 188.774 524.701 Q192.778 524.701 195.116 522.594 Q197.454 520.488 197.454 516.877 Q197.454 513.265 195.116 511.159 Q192.778 509.053 188.774 509.053 Q186.899 509.053 185.024 509.469 Q183.172 509.886 181.227 510.765 L181.227 493.404 Z" fill="#000000" fill-rule="evenodd" fill-opacity="1" /><path clip-path="url(#clip140)" d="M 0 0 M118.242 232.845 L125.88 232.845 L125.88 206.479 L117.57 208.146 L117.57 203.887 L125.834 202.22 L130.51 202.22 L130.51 232.845 L138.149 232.845 L138.149 236.78 L118.242 236.78 L118.242 232.845 Z" fill="#000000" fill-rule="evenodd" fill-opacity="1" /><path clip-path="url(#clip140)" d="M 0 0 M143.218 230.9 L148.103 230.9 L148.103 236.78 L143.218 236.78 L143.218 230.9 Z" fill="#000000" fill-rule="evenodd" fill-opacity="1" /><path clip-path="url(#clip140)" d="M 0 0 M163.172 205.299 Q159.561 205.299 157.732 208.863 Q155.927 212.405 155.927 219.535 Q155.927 226.641 157.732 230.206 Q159.561 233.747 163.172 233.747 Q166.806 233.747 168.612 230.206 Q170.44 226.641 170.44 219.535 Q170.44 212.405 168.612 208.863 Q166.806 205.299 163.172 205.299 M163.172 201.595 Q168.982 201.595 172.038 206.201 Q175.116 210.785 175.116 219.535 Q175.116 228.261 172.038 232.868 Q168.982 237.451 163.172 237.451 Q157.362 237.451 154.283 232.868 Q151.228 228.261 151.228 219.535 Q151.228 210.785 154.283 206.201 Q157.362 201.595 163.172 201.595 Z" fill="#000000" fill-rule="evenodd" fill-opacity="1" /><path clip-path="url(#clip140)" d="M 0 0 M190.186 205.299 Q186.575 205.299 184.746 208.863 Q182.94 212.405 182.94 219.535 Q182.94 226.641 184.746 230.206 Q186.575 233.747 190.186 233.747 Q193.82 233.747 195.625 230.206 Q197.454 226.641 197.454 219.535 Q197.454 212.405 195.625 208.863 Q193.82 205.299 190.186 205.299 M190.186 201.595 Q195.996 201.595 199.051 206.201 Q202.13 210.785 202.13 219.535 Q202.13 228.261 199.051 232.868 Q195.996 237.451 190.186 237.451 Q184.376 237.451 181.297 232.868 Q178.241 228.261 178.241 219.535 Q178.241 210.785 181.297 206.201 Q184.376 201.595 190.186 201.595 Z" fill="#000000" fill-rule="evenodd" fill-opacity="1" /><path clip-path="url(#clip140)" d="M 0 0 M70.212 745.095 Q76.6732 745.095 80.3653 742.453 Q84.0256 739.779 84.0256 735.132 Q84.0256 730.485 80.3653 727.812 Q76.6732 725.138 70.212 725.138 Q63.7508 725.138 60.0905 727.812 Q56.3984 730.485 56.3984 735.132 Q56.3984 739.779 60.0905 742.453 Q63.7508 745.095 70.212 745.095 M82.657 725.138 Q85.8398 726.984 87.3994 729.817 Q88.9272 732.618 88.9272 736.565 Q88.9272 743.026 83.771 747.1 Q78.6147 751.142 70.212 751.142 Q61.8093 751.142 56.6531 747.1 Q51.4968 743.026 51.4968 736.565 Q51.4968 732.618 53.0564 729.817 Q54.5842 726.984 57.7671 725.138 L52.3562 725.138 L52.3562 719.282 L101.563 719.282 L101.563 725.138 L82.657 725.138 Z" fill="#000000" fill-rule="evenodd" fill-opacity="1" /><polyline clip-path="url(#clip142)" style="stroke:#009af9; stroke-width:4; stroke-opacity:1; fill:none" points="
  297.978,1384.24 300.669,1384.24 305.771,1384.24 310.872,1384.24 313.563,1384.24 316.255,1384.24 321.356,1384.24 326.458,1384.24 329.149,1384.24 
  331.84,1384.24 336.941,1384.24 342.043,1384.24 344.734,1384.24 347.425,1384.24 352.527,1384.24 357.628,1384.24 360.32,1384.24 
  363.011,1384.24 368.112,1384.24 373.214,1384.24 375.905,1384.24 378.596,1384.24 383.698,1384.24 388.799,1384.24 391.49,1384.24 
  394.181,1384.24 399.283,1384.24 404.385,1384.24 407.076,1384.24 409.767,1384.24 414.868,1384.24 419.97,1384.24 422.661,1384.24 
  425.352,1384.24 430.454,1384.24 435.555,1384.24 438.246,1384.24 440.938,1384.24 446.039,1384.24 451.141,1384.24 453.832,1384.24 
  456.523,1384.24 461.625,1384.24 466.726,1384.24 469.417,1384.24 472.108,1384.24 477.21,1384.24 482.311,1384.24 485.003,1384.24 
  487.694,1384.24 492.795,1384.24 497.897,1384.24 500.588,1384.24 503.279,1384.24 508.381,1384.24 513.482,1384.24 516.173,1384.24 
  518.865,1384.24 523.966,1384.24 529.068,1384.24 531.759,1384.24 534.45,1384.24 539.552,1384.24 544.653,1384.24 547.344,1384.24 
  550.035,1384.24 555.137,1384.24 560.238,1384.24 562.93,1384.24 565.621,1384.24 570.722,1384.24 575.824,1384.24 578.515,1384.24 
  581.206,1384.24 586.308,1384.24 591.409,1384.24 594.1,1384.24 596.792,1384.24 601.893,1384.24 606.995,1384.24 609.686,1384.24 
  612.377,1384.24 617.478,1384.24 622.58,1384.24 625.271,1384.24 627.962,1384.24 633.064,1384.24 638.165,1384.24 640.857,1384.24 
  643.548,1384.24 648.649,1384.24 653.751,1384.24 656.442,1384.24 659.133,1384.24 664.235,1384.24 669.336,1384.24 672.027,1384.24 
  674.719,1384.24 679.82,1384.24 684.922,1384.24 687.613,1384.24 690.304,1384.24 695.405,1384.24 700.507,1384.24 703.198,1384.24 
  705.889,1384.24 710.991,1384.24 716.092,1384.24 718.784,1384.24 721.475,1384.24 726.576,219.5 731.678,219.5 734.369,219.5 
  737.06,219.5 742.162,219.5 747.263,219.5 749.954,219.5 752.645,219.5 757.747,219.5 762.849,219.5 765.54,219.5 
  768.231,219.5 773.332,219.5 778.434,219.5 781.125,219.5 783.816,219.5 788.918,219.5 794.019,219.5 796.71,219.5 
  799.402,219.5 804.503,219.5 809.605,219.5 812.296,219.5 814.987,219.5 820.089,219.5 825.19,219.5 827.881,219.5 
  830.572,219.5 835.674,219.5 840.775,219.5 843.467,219.5 846.158,219.5 851.259,219.5 856.361,219.5 859.052,219.5 
  861.743,219.5 866.845,219.5 871.946,219.5 874.637,219.5 877.329,219.5 882.43,219.5 887.532,219.5 890.223,219.5 
  892.914,219.5 898.016,219.5 903.117,219.5 905.808,219.5 908.499,219.5 913.601,219.5 918.702,219.5 921.394,219.5 
  924.085,219.5 929.186,219.5 934.288,219.5 936.979,219.5 939.67,219.5 944.772,219.5 949.873,219.5 952.564,219.5 
  955.256,219.5 960.357,219.5 965.459,219.5 968.15,219.5 970.841,219.5 975.942,219.5 981.044,219.5 983.735,219.5 
  986.426,219.5 991.528,219.5 996.629,219.5 999.321,219.5 1002.01,219.5 1007.11,219.5 1012.21,1384.24 1014.91,1384.24 
  1017.6,1384.24 1022.7,1384.24 1027.8,1384.24 1030.49,1384.24 1033.18,1384.24 1038.28,1384.24 1043.39,1384.24 1046.08,1384.24 
  1048.77,1384.24 1053.87,1384.24 1058.97,1384.24 1061.66,1384.24 1064.35,1384.24 1069.45,1384.24 1074.56,1384.24 1077.25,1384.24 
  1079.94,1384.24 1085.04,1384.24 1090.14,1384.24 1092.83,1384.24 1095.52,1384.24 1100.63,1384.24 1105.73,1384.24 1108.42,1384.24 
  1111.11,1384.24 1116.21,1384.24 1121.31,1384.24 1124,1384.24 1126.69,1384.24 1131.8,1384.24 1136.9,1384.24 1139.59,1384.24 
  1142.28,1384.24 1147.38,1384.24 1152.48,1384.24 1155.17,1384.24 1157.87,1384.24 1162.97,1384.24 1168.07,1384.24 1170.76,1384.24 
  1173.45,1384.24 1178.55,1384.24 1183.65,1384.24 1186.35,1384.24 1189.04,1384.24 1194.14,1384.24 1199.24,1384.24 1201.93,1384.24 
  1204.62,1384.24 1209.72,1384.24 1214.82,1384.24 1217.52,1384.24 1220.21,1384.24 1225.31,1384.24 1230.41,1384.24 1233.1,1384.24 
  1235.79,1384.24 1240.89,1384.24 1246,1384.24 1248.69,1384.24 1251.38,1384.24 1256.48,1384.24 1261.58,1384.24 1264.27,1384.24 
  1266.96,1384.24 1272.06,1384.24 1277.17,1384.24 1279.86,1384.24 1282.55,1384.24 1287.65,1384.24 1292.75,1384.24 1295.44,1384.24 
  1298.13,1384.24 1303.24,1384.24 1308.34,1384.24 1311.03,1384.24 1313.72,1384.24 1318.82,1384.24 1323.92,1384.24 1326.61,1384.24 
  1329.3,1384.24 1334.41,1384.24 1339.51,1384.24 1342.2,1384.24 1344.89,1384.24 1349.99,1384.24 1355.09,1384.24 1357.78,1384.24 
  1360.48,1384.24 1365.58,1384.24 1370.68,1384.24 1373.37,1384.24 1376.06,1384.24 1381.16,1384.24 1386.26,1384.24 1388.96,1384.24 
  1391.65,1384.24 1396.75,1384.24 1401.85,1384.24 1404.54,1384.24 1407.23,1384.24 1412.33,1384.24 1417.43,1384.24 1420.13,1384.24 
  1422.82,1384.24 1427.92,1384.24 1433.02,1384.24 1435.71,1384.24 1438.4,1384.24 1443.5,1384.24 1448.61,1384.24 1451.3,1384.24 
  1453.99,1384.24 1459.09,1384.24 1464.19,1384.24 1466.88,1384.24 1469.57,1384.24 1474.67,1384.24 1479.78,1384.24 1482.47,1384.24 
  1485.16,1384.24 1490.26,1384.24 1495.36,1384.24 1498.05,1384.24 1500.74,1384.24 1505.85,1384.24 1510.95,1384.24 1513.64,1384.24 
  1516.33,1384.24 1521.43,1384.24 1526.53,1384.24 1529.22,1384.24 1531.92,1384.24 1537.02,1384.24 1542.12,1384.24 1544.81,1384.24 
  1547.5,1384.24 1552.6,1384.24 1557.7,1384.24 1560.39,1384.24 1563.09,1384.24 1568.19,1384.24 1573.29,1384.24 1575.98,1384.24 
  1578.67,1384.24 1583.77,1384.24 1588.87,1384.24 1591.57,1384.24 1594.26,1384.24 1599.36,1384.24 1604.46,1384.24 1607.15,1384.24 
  1609.84,1384.24 1614.94,1384.24 1620.05,1384.24 1622.74,1384.24 1625.43,1384.24 1630.53,1384.24 1635.63,1384.24 1638.32,1384.24 
  1641.01,1384.24 1646.11,1384.24 1651.22,1384.24 1653.91,1384.24 1656.6,1384.24 1661.7,1384.24 1666.8,1384.24 1669.49,1384.24 
  1672.18,1384.24 1677.29,1384.24 1682.39,1384.24 1685.08,1384.24 1687.77,1384.24 1692.87,1384.24 1697.97,1384.24 1700.66,1384.24 
  1703.35,1384.24 1708.46,1384.24 1713.56,1384.24 1716.25,1384.24 1718.94,1384.24 1724.04,1384.24 1729.14,1384.24 1731.83,1384.24 
  1734.53,1384.24 1739.63,1384.24 1744.73,1384.24 1747.42,1384.24 1750.11,1384.24 1755.21,1384.24 1760.31,1384.24 1763,1384.24 
  1765.7,1384.24 1770.8,1384.24 1775.9,1384.24 1778.59,1384.24 1781.28,1384.24 1786.38,1384.24 1791.48,1384.24 1794.18,1384.24 
  1796.87,1384.24 1801.97,1384.24 1807.07,1384.24 1809.76,1384.24 1812.45,1384.24 1817.55,1384.24 1822.66,1384.24 1825.35,1384.24 
  1828.04,1384.24 1833.14,1384.24 1838.24,1384.24 1840.93,1384.24 1843.62,1384.24 1848.72,1384.24 1853.83,1384.24 1856.52,1384.24 
  1859.21,1384.24 1864.31,1384.24 1869.41,1384.24 1872.1,1384.24 1874.79,1384.24 1879.9,1384.24 1885,1384.24 1887.69,1384.24 
  1890.38,1384.24 1895.48,1384.24 1900.58,1384.24 1903.27,1384.24 1905.96,1384.24 1911.07,1384.24 1916.17,1384.24 1918.86,1384.24 
  1921.55,1384.24 1926.65,1384.24 1931.75,1384.24 1934.44,1384.24 1937.14,1384.24 1942.24,1384.24 1947.34,1384.24 1950.03,1384.24 
  1952.72,1384.24 1957.82,1384.24 1962.92,1384.24 1965.61,1384.24 1968.31,1384.24 1973.41,1384.24 1978.51,1384.24 1981.2,1384.24 
  1983.89,1384.24 1988.99,1384.24 1994.09,1384.24 1996.79,1384.24 1999.48,1384.24 2004.58,1384.24 2009.68,1384.24 2012.37,1384.24 
  2015.06,1384.24 2020.16,1384.24 2025.27,1384.24 2027.96,1384.24 2030.65,1384.24 2035.75,1384.24 2040.85,1384.24 2043.54,1384.24 
  2046.23,1384.24 2051.33,1384.24 2056.44,1384.24 2059.13,1384.24 2061.82,1384.24 2066.92,1384.24 2072.02,1384.24 2074.71,1384.24 
  2077.4,1384.24 2082.51,1384.24 2087.61,1384.24 2090.3,1384.24 2092.99,1384.24 2098.09,1384.24 2103.19,1384.24 2105.88,1384.24 
  2108.57,1384.24 2113.68,1384.24 2118.78,1384.24 2121.47,1384.24 2124.16,1384.24 2129.26,1384.24 2134.36,1384.24 2137.05,1384.24 
  2139.75,1384.24 2144.85,1384.24 2149.95,1384.24 2152.64,1384.24 2155.33,1384.24 2160.43,1384.24 2165.53,1384.24 2168.22,1384.24 
  2170.92,1384.24 2176.02,1384.24 2181.12,1384.24 2183.81,1384.24 2186.5,1384.24 2191.6,1384.24 2196.7,1384.24 2199.4,1384.24 
  2202.09,1384.24 2207.19,1384.24 2212.29,1384.24 2214.98,1384.24 2217.67,1384.24 2222.77,1384.24 2227.88,1384.24 2230.57,1384.24 
  2233.26,1384.24 2238.36,1384.24 2243.46,1384.24 2246.15,1384.24 2248.84,1384.24 2253.94,1384.24 2259.05,1384.24 2261.74,1384.24 
  2264.43,1384.24 2269.53,1384.24 2274.63,1384.24 2277.32,1384.24 2280.01,1384.24 2285.12,1384.24 2290.22,1384.24 2292.91,1384.24 
  
  "/>
<polyline clip-path="url(#clip142)" style="stroke:#e26f46; stroke-width:4; stroke-opacity:1; fill:none" points="
  297.978,1384.24 300.669,1384.24 305.771,1384.24 310.872,1384.24 313.563,1384.24 316.255,1384.24 321.356,1384.24 326.458,1384.24 329.149,1384.24 
  331.84,1384.24 336.941,1384.24 342.043,1384.24 344.734,1384.24 347.425,1384.24 352.527,1384.24 357.628,1384.24 360.32,1384.24 
  363.011,1384.24 368.112,1384.24 373.214,1384.24 375.905,1384.24 378.596,1384.24 383.698,1384.24 388.799,1384.24 391.49,1384.24 
  394.181,1384.24 399.283,1384.24 404.385,1384.24 407.076,1384.24 409.767,1384.24 414.868,1384.24 419.97,1384.24 422.661,1384.24 
  425.352,1384.24 430.454,1384.24 435.555,1384.24 438.246,1384.24 440.938,1384.24 446.039,1384.24 451.141,1384.24 453.832,1384.24 
  456.523,1384.24 461.625,1384.24 466.726,1384.24 469.417,1384.24 472.108,1384.24 477.21,1384.24 482.311,1384.24 485.003,1384.24 
  487.694,1384.24 492.795,1384.24 497.897,1384.24 500.588,1384.24 503.279,1384.24 508.381,1384.24 513.482,1384.24 516.173,1384.24 
  518.865,1384.24 523.966,1384.24 529.068,1384.24 531.759,1384.24 534.45,1384.24 539.552,1384.24 544.653,1384.24 547.344,1384.24 
  550.035,1384.24 555.137,1384.24 560.238,1384.24 562.93,1384.24 565.621,1384.24 570.722,1384.24 575.824,1384.24 578.515,1384.24 
  581.206,1384.24 586.308,1384.24 591.409,1384.24 594.1,1384.24 596.792,1384.24 601.893,1384.24 606.995,1384.24 609.686,1384.24 
  612.377,1384.24 617.478,1384.24 622.58,1384.24 625.271,1384.24 627.962,1384.24 633.064,1384.24 638.165,1384.24 640.857,1384.24 
  643.548,1384.24 648.649,1384.24 653.751,1384.24 656.442,1384.24 659.133,1384.24 664.235,1384.24 669.336,1384.24 672.027,1384.24 
  674.719,1384.24 679.82,1384.24 684.922,1384.24 687.613,1384.24 690.304,1384.24 695.405,1384.24 700.507,1384.24 703.198,1384.24 
  705.889,1384.24 710.991,1384.24 716.092,1384.24 718.784,1384.24 721.475,1384.24 726.576,1384.24 731.678,1384.24 734.369,1384.24 
  737.06,1384.24 742.162,1384.24 747.263,1384.24 749.954,1384.24 752.645,1384.24 757.747,1384.24 762.849,1384.24 765.54,1384.24 
  768.231,1384.24 773.332,1384.24 778.434,1384.24 781.125,1384.24 783.816,1384.24 788.918,1384.24 794.019,1384.24 796.71,1384.24 
  799.402,1384.24 804.503,1384.24 809.605,1384.24 812.296,1384.24 814.987,1384.24 820.089,1384.24 825.19,1384.24 827.881,1384.24 
  830.572,1384.24 835.674,1384.24 840.775,1384.24 843.467,1384.24 846.158,1384.24 851.259,1384.24 856.361,1384.24 859.052,1384.24 
  861.743,1384.24 866.845,1384.24 871.946,1384.24 874.637,1384.24 877.329,1384.24 882.43,1384.24 887.532,1384.24 890.223,1384.24 
  892.914,1384.24 898.016,1384.24 903.117,1384.24 905.808,1384.24 908.499,1384.24 913.601,1384.24 918.702,1384.24 921.394,1384.24 
  924.085,1384.24 929.186,1384.24 934.288,1384.24 936.979,1384.24 939.67,1384.24 944.772,1384.24 949.873,1384.24 952.564,1384.24 
  955.256,1384.24 960.357,1384.24 965.459,1384.24 968.15,1384.24 970.841,1384.24 975.942,1384.24 981.044,1384.24 983.735,1384.24 
  983.735,1384.24 986.426,1384.24 991.528,1384.24 996.629,1384.24 999.321,1384.24 999.321,1384.24 1002.01,1384.24 1007.11,1384.24 1012.21,1384.24 1014.91,1384.24 
  1014.91,1384.24 1017.6,1384.24 1022.7,1384.24 1027.8,1384.24 1030.49,1384.24 1030.49,1384.24 1033.18,1384.24 1038.28,1384.24 1043.39,1384.24 1046.08,1384.24 
  1046.08,1384.24 1048.77,1384.24 1053.87,1384.24 1058.97,1384.24 1061.66,1384.24 1061.66,1384.24 1064.35,1384.24 1069.45,1384.24 1074.56,1384.24 1077.25,1384.24 
  1077.25,1384.24 1079.94,1384.24 1085.04,1384.24 1090.14,1384.24 1092.83,1384.24 1092.83,1384.24 1095.52,1384.24 1100.63,1384.24 1105.73,1384.24 1108.42,1384.24 
  1108.42,1384.24 1111.11,1384.24 1116.21,1384.24 1121.31,1384.24 1124,1384.24 1124,1384.24 1126.69,1384.24 1131.8,1384.24 1136.9,1384.24 1139.59,1384.24 
  1139.59,1384.24 1142.28,1384.24 1147.38,1384.24 1152.48,1384.24 1155.17,1384.24 1155.17,1384.24 1157.87,1384.24 1162.97,1384.24 1168.07,1384.24 1170.76,1384.24 
  1170.76,1384.24 1173.45,1384.24 1178.55,1384.23 1183.65,1384.23 1186.35,1384.23 1186.35,1384.23 1189.04,1384.23 1194.14,1384.24 1199.24,1384.21 1201.93,1384.19 
  1201.93,1384.2 1204.62,1384.17 1209.72,1384.2 1214.82,1384.23 1217.52,1384.19 1217.52,1384.13 1220.21,1384.08 1225.31,1383.7 1230.41,1383.74 1233.1,1383.98 
  1233.1,1383.87 1235.79,1384.23 1240.89,1383.54 1246,1380.83 1248.69,1379.53 1248.69,1380.47 1251.38,1378.93 1256.48,1382.49 1261.58,1383.4 1264.27,1378.76 
  1264.27,1376.24 1266.96,1370.31 1272.06,1347.52 1277.17,1352.24 1279.86,1367.48 1279.86,1368.79 1282.55,1381.61 1287.65,1345.71 1292.75,1124.12 1295.44,936.714 
  1295.44,939.089 1298.13,728.344 1303.24,387.074 1308.34,207.433 1311.03,178.698 1311.03,177.585 1313.72,179.823 1318.82,210.21 1323.92,229.491 1326.61,229.62 
  1326.61,230.042 1329.3,225.722 1334.41,218.282 1339.51,216.688 1342.2,217.834 1342.2,217.701 1344.89,219.202 1349.99,220.308 1355.09,219.878 1357.78,219.498 
  1357.78,219.515 1360.48,219.278 1365.58,219.338 1370.68,219.539 1373.37,219.579 1373.37,219.583 1376.06,219.563 1381.16,219.49 1386.26,219.475 1388.96,219.493 
  1388.96,219.487 1391.65,219.515 1396.75,219.51 1401.85,219.476 1404.54,219.471 1404.54,219.478 1407.23,219.485 1412.33,219.549 1417.43,219.526 1420.13,219.471 
  1420.13,219.495 1422.82,219.406 1427.92,219.445 1433.02,219.637 1435.71,219.689 1435.71,219.635 1438.4,219.654 1443.5,219.259 1448.61,219.209 1451.3,219.464 
  1451.3,219.412 1453.99,219.853 1459.09,220.1 1464.19,219.13 1466.88,218.524 1466.88,218.831 1469.57,218.209 1474.67,219.851 1479.78,221.573 1482.47,221.272 
  1482.47,220.987 1485.16,219.909 1490.26,215.971 1495.36,217.389 1498.05,220.702 1498.05,220.119 1500.74,224.566 1505.85,225.197 1510.95,214.894 1513.64,209.164 
  1513.64,211.24 1516.33,206.603 1521.43,220.749 1526.53,239.259 1529.22,240.313 1529.22,237.318 1531.92,232.177 1537.02,194.846 1542.12,183.039 1544.81,199.626 
  1544.81,202.25 1547.5,229.101 1552.6,285.997 1557.7,262.056 1560.39,211.343 1560.39,209.649 1563.09,150.186 1568.19,86.1857 1573.29,214.896 1575.98,370.538 
  1575.98,371.25 1578.67,568.201 1583.77,963.785 1588.87,1247.05 1591.57,1328.52 1591.57,1329.29 1594.26,1369.07 1599.36,1384.13 1604.46,1378.9 1607.15,1378.85 
  1607.15,1378.65 1609.84,1380.49 1614.94,1383.38 1620.05,1384.24 1622.74,1384.16 1622.74,1384.18 1625.43,1384.05 1630.53,1384.06 1635.63,1384.18 1638.32,1384.23 
  1638.32,1384.23 1641.01,1384.24 1646.11,1384.23 1651.22,1384.23 1653.91,1384.23 1653.91,1384.23 1656.6,1384.24 1661.7,1384.24 1666.8,1384.24 1669.49,1384.24 
  1669.49,1384.24 1672.18,1384.24 1677.29,1384.24 1682.39,1384.24 1685.08,1384.24 1685.08,1384.24 1687.77,1384.24 1692.87,1384.24 1697.97,1384.24 1700.66,1384.24 
  1700.66,1384.24 1703.35,1384.24 1708.46,1384.24 1713.56,1384.24 1716.25,1384.24 1716.25,1384.24 1718.94,1384.24 1724.04,1384.24 1729.14,1384.24 1731.83,1384.24 
  1731.83,1384.24 1734.53,1384.24 1739.63,1384.24 1744.73,1384.24 1747.42,1384.24 1747.42,1384.24 1750.11,1384.24 1755.21,1384.24 1760.31,1384.24 1763,1384.24 
  1763,1384.24 1765.7,1384.24 1770.8,1384.24 1775.9,1384.24 1778.59,1384.24 1778.59,1384.24 1781.28,1384.24 1786.38,1384.24 1791.48,1384.24 1794.18,1384.24 
  1794.18,1384.24 1796.87,1384.24 1801.97,1384.24 1807.07,1384.24 1809.76,1384.24 1812.45,1384.24 1817.55,1384.24 1822.66,1384.24 1825.35,1384.24 
  1828.04,1384.24 1833.14,1384.24 1838.24,1384.24 1840.93,1384.24 1843.62,1384.24 1848.72,1384.24 1853.83,1384.24 1856.52,1384.24 
  1859.21,1384.24 1864.31,1384.24 1869.41,1384.24 1872.1,1384.24 1874.79,1384.24 1879.9,1384.24 1885,1384.24 1887.69,1384.24 
  1890.38,1384.24 1895.48,1384.24 1900.58,1384.24 1903.27,1384.24 1905.96,1384.24 1911.07,1384.24 1916.17,1384.24 1918.86,1384.24 
  1921.55,1384.24 1926.65,1384.24 1931.75,1384.24 1934.44,1384.24 1937.14,1384.24 1942.24,1384.24 1947.34,1384.24 1950.03,1384.24 
  1952.72,1384.24 1957.82,1384.24 1962.92,1384.24 1965.61,1384.24 1968.31,1384.24 1973.41,1384.24 1978.51,1384.24 1981.2,1384.24 
  1983.89,1384.24 1988.99,1384.24 1994.09,1384.24 1996.79,1384.24 1999.48,1384.24 2004.58,1384.24 2009.68,1384.24 2012.37,1384.24 
  2015.06,1384.24 2020.16,1384.24 2025.27,1384.24 2027.96,1384.24 2030.65,1384.24 2035.75,1384.24 2040.85,1384.24 2043.54,1384.24 
  2046.23,1384.24 2051.33,1384.24 2056.44,1384.24 2059.13,1384.24 2061.82,1384.24 2066.92,1384.24 2072.02,1384.24 2074.71,1384.24 
  2077.4,1384.24 2082.51,1384.24 2087.61,1384.24 2090.3,1384.24 2092.99,1384.24 2098.09,1384.24 2103.19,1384.24 2105.88,1384.24 
  2108.57,1384.24 2113.68,1384.24 2118.78,1384.24 2121.47,1384.24 2124.16,1384.24 2129.26,1384.24 2134.36,1384.24 2137.05,1384.24 
  2139.75,1384.24 2144.85,1384.24 2149.95,1384.24 2152.64,1384.24 2155.33,1384.24 2160.43,1384.24 2165.53,1384.24 2168.22,1384.24 
  2170.92,1384.24 2176.02,1384.24 2181.12,1384.24 2183.81,1384.24 2186.5,1384.24 2191.6,1384.24 2196.7,1384.24 2199.4,1384.24 
  2202.09,1384.24 2207.19,1384.24 2212.29,1384.24 2214.98,1384.24 2217.67,1384.24 2222.77,1384.24 2227.88,1384.24 2230.57,1384.24 
  2233.26,1384.24 2238.36,1384.24 2243.46,1384.24 2246.15,1384.24 2248.84,1384.24 2253.94,1384.24 2259.05,1384.24 2261.74,1384.24 
  2264.43,1384.24 2269.53,1384.24 2274.63,1384.24 2277.32,1384.24 2280.01,1384.24 2285.12,1384.24 2290.22,1384.24 2292.91,1384.24 
  
  "/>
<path clip-path="url(#clip140)" d="
M1786.57 274.549 L2282.27 274.549 L2282.27 93.1086 L1786.57 93.1086  Z
  " fill="#ffffff" fill-rule="evenodd" fill-opacity="1"/>
<polyline clip-path="url(#clip140)" style="stroke:#000000; stroke-width:4; stroke-opacity:1; fill:none" points="
  1786.57,274.549 2282.27,274.549 2282.27,93.1086 1786.57,93.1086 1786.57,274.549 
  "/>
<polyline clip-path="url(#clip140)" style="stroke:#009af9; stroke-width:4; stroke-opacity:1; fill:none" points="
  1810.07,153.589 1951.04,153.589 
  "/>
<path clip-path="url(#clip140)" d="M 0 0 M1981.94 137.582 L1981.94 144.943 L1990.72 144.943 L1990.72 148.253 L1981.94 148.253 L1981.94 162.327 Q1981.94 165.498 1982.8 166.401 Q1983.68 167.304 1986.34 167.304 L1990.72 167.304 L1990.72 170.869 L1986.34 170.869 Q1981.41 170.869 1979.54 169.04 Q1977.66 167.188 1977.66 162.327 L1977.66 148.253 L1974.54 148.253 L1974.54 144.943 L1977.66 144.943 L1977.66 137.582 L1981.94 137.582 Z" fill="#000000" fill-rule="evenodd" fill-opacity="1" /><path clip-path="url(#clip140)" d="M 0 0 M1995.74 149.341 L2025.42 149.341 L2025.42 153.23 L1995.74 153.23 L1995.74 149.341 M1995.74 158.785 L2025.42 158.785 L2025.42 162.721 L1995.74 162.721 L1995.74 158.785 Z" fill="#000000" fill-rule="evenodd" fill-opacity="1" /><path clip-path="url(#clip140)" d="M 0 0 M2040.49 139.387 Q2036.87 139.387 2035.05 142.952 Q2033.24 146.494 2033.24 153.623 Q2033.24 160.73 2035.05 164.295 Q2036.87 167.836 2040.49 167.836 Q2044.12 167.836 2045.93 164.295 Q2047.75 160.73 2047.75 153.623 Q2047.75 146.494 2045.93 142.952 Q2044.12 139.387 2040.49 139.387 M2040.49 135.684 Q2046.3 135.684 2049.35 140.29 Q2052.43 144.873 2052.43 153.623 Q2052.43 162.35 2049.35 166.957 Q2046.3 171.54 2040.49 171.54 Q2034.68 171.54 2031.6 166.957 Q2028.54 162.35 2028.54 153.623 Q2028.54 144.873 2031.6 140.29 Q2034.68 135.684 2040.49 135.684 Z" fill="#000000" fill-rule="evenodd" fill-opacity="1" /><path clip-path="url(#clip140)" d="M 0 0 M2057.5 164.989 L2062.38 164.989 L2062.38 170.869 L2057.5 170.869 L2057.5 164.989 Z" fill="#000000" fill-rule="evenodd" fill-opacity="1" /><path clip-path="url(#clip140)" d="M 0 0 M2077.45 139.387 Q2073.84 139.387 2072.01 142.952 Q2070.21 146.494 2070.21 153.623 Q2070.21 160.73 2072.01 164.295 Q2073.84 167.836 2077.45 167.836 Q2081.09 167.836 2082.89 164.295 Q2084.72 160.73 2084.72 153.623 Q2084.72 146.494 2082.89 142.952 Q2081.09 139.387 2077.45 139.387 M2077.45 135.684 Q2083.26 135.684 2086.32 140.29 Q2089.4 144.873 2089.4 153.623 Q2089.4 162.35 2086.32 166.957 Q2083.26 171.54 2077.45 171.54 Q2071.64 171.54 2068.56 166.957 Q2065.51 162.35 2065.51 153.623 Q2065.51 144.873 2068.56 140.29 Q2071.64 135.684 2077.45 135.684 Z" fill="#000000" fill-rule="evenodd" fill-opacity="1" /><path clip-path="url(#clip140)" d="M 0 0 M2108.54 134.85 L2118.36 134.85 L2118.36 138.16 L2112.8 138.16 L2112.8 173.808 L2118.36 173.808 L2118.36 177.119 L2108.54 177.119 L2108.54 134.85 Z" fill="#000000" fill-rule="evenodd" fill-opacity="1" /><path clip-path="url(#clip140)" d="M 0 0 M2139.35 145.707 L2139.35 149.734 Q2137.55 148.809 2135.6 148.346 Q2133.66 147.883 2131.57 147.883 Q2128.4 147.883 2126.81 148.855 Q2125.23 149.827 2125.23 151.771 Q2125.23 153.253 2126.37 154.109 Q2127.5 154.943 2130.93 155.707 L2132.38 156.031 Q2136.92 157.003 2138.82 158.785 Q2140.74 160.545 2140.74 163.716 Q2140.74 167.327 2137.87 169.433 Q2135.02 171.54 2130.02 171.54 Q2127.94 171.54 2125.67 171.123 Q2123.43 170.73 2120.93 169.92 L2120.93 165.521 Q2123.29 166.748 2125.58 167.373 Q2127.87 167.975 2130.12 167.975 Q2133.12 167.975 2134.74 166.957 Q2136.37 165.915 2136.37 164.04 Q2136.37 162.304 2135.18 161.378 Q2134.03 160.452 2130.07 159.596 L2128.59 159.248 Q2124.63 158.415 2122.87 156.702 Q2121.11 154.966 2121.11 151.957 Q2121.11 148.299 2123.7 146.309 Q2126.3 144.318 2131.06 144.318 Q2133.43 144.318 2135.51 144.665 Q2137.59 145.012 2139.35 145.707 Z" fill="#000000" fill-rule="evenodd" fill-opacity="1" /><path clip-path="url(#clip140)" d="M 0 0 M2155.16 134.85 L2155.16 177.119 L2145.35 177.119 L2145.35 173.808 L2150.88 173.808 L2150.88 138.16 L2145.35 138.16 L2145.35 134.85 L2155.16 134.85 Z" fill="#000000" fill-rule="evenodd" fill-opacity="1" /><polyline clip-path="url(#clip140)" style="stroke:#e26f46; stroke-width:4; stroke-opacity:1; fill:none" points="
  1810.07,214.069 1951.04,214.069 
  "/>
<path clip-path="url(#clip140)" d="M 0 0 M1981.94 198.062 L1981.94 205.423 L1990.72 205.423 L1990.72 208.733 L1981.94 208.733 L1981.94 222.807 Q1981.94 225.978 1982.8 226.881 Q1983.68 227.784 1986.34 227.784 L1990.72 227.784 L1990.72 231.349 L1986.34 231.349 Q1981.41 231.349 1979.54 229.52 Q1977.66 227.668 1977.66 222.807 L1977.66 208.733 L1974.54 208.733 L1974.54 205.423 L1977.66 205.423 L1977.66 198.062 L1981.94 198.062 Z" fill="#000000" fill-rule="evenodd" fill-opacity="1" /><path clip-path="url(#clip140)" d="M 0 0 M1995.74 209.821 L2025.42 209.821 L2025.42 213.71 L1995.74 213.71 L1995.74 209.821 M1995.74 219.265 L2025.42 219.265 L2025.42 223.201 L1995.74 223.201 L1995.74 219.265 Z" fill="#000000" fill-rule="evenodd" fill-opacity="1" /><path clip-path="url(#clip140)" d="M 0 0 M2043.33 200.863 L2031.53 219.312 L2043.33 219.312 L2043.33 200.863 M2042.11 196.789 L2047.99 196.789 L2047.99 219.312 L2052.92 219.312 L2052.92 223.201 L2047.99 223.201 L2047.99 231.349 L2043.33 231.349 L2043.33 223.201 L2027.73 223.201 L2027.73 218.687 L2042.11 196.789 Z" fill="#000000" fill-rule="evenodd" fill-opacity="1" /><path clip-path="url(#clip140)" d="M 0 0 M2058.03 196.789 L2076.39 196.789 L2076.39 200.724 L2062.31 200.724 L2062.31 209.196 Q2063.33 208.849 2064.35 208.687 Q2065.37 208.502 2066.39 208.502 Q2072.18 208.502 2075.56 211.673 Q2078.93 214.844 2078.93 220.261 Q2078.93 225.839 2075.46 228.941 Q2071.99 232.02 2065.67 232.02 Q2063.5 232.02 2061.23 231.65 Q2058.98 231.279 2056.57 230.538 L2056.57 225.839 Q2058.66 226.974 2060.88 227.529 Q2063.1 228.085 2065.58 228.085 Q2069.58 228.085 2071.92 225.978 Q2074.26 223.872 2074.26 220.261 Q2074.26 216.65 2071.92 214.543 Q2069.58 212.437 2065.58 212.437 Q2063.7 212.437 2061.83 212.853 Q2059.98 213.27 2058.03 214.15 L2058.03 196.789 Z" fill="#000000" fill-rule="evenodd" fill-opacity="1" /><path clip-path="url(#clip140)" d="M 0 0 M2094 199.867 Q2090.39 199.867 2088.56 203.432 Q2086.76 206.974 2086.76 214.103 Q2086.76 221.21 2088.56 224.775 Q2090.39 228.316 2094 228.316 Q2097.64 228.316 2099.44 224.775 Q2101.27 221.21 2101.27 214.103 Q2101.27 206.974 2099.44 203.432 Q2097.64 199.867 2094 199.867 M2094 196.164 Q2099.81 196.164 2102.87 200.77 Q2105.95 205.353 2105.95 214.103 Q2105.95 222.83 2102.87 227.437 Q2099.81 232.02 2094 232.02 Q2088.19 232.02 2085.12 227.437 Q2082.06 222.83 2082.06 214.103 Q2082.06 205.353 2085.12 200.77 Q2088.19 196.164 2094 196.164 Z" fill="#000000" fill-rule="evenodd" fill-opacity="1" /><path clip-path="url(#clip140)" d="M 0 0 M2111.02 225.469 L2115.9 225.469 L2115.9 231.349 L2111.02 231.349 L2111.02 225.469 Z" fill="#000000" fill-rule="evenodd" fill-opacity="1" /><path clip-path="url(#clip140)" d="M 0 0 M2133.82 200.863 L2122.01 219.312 L2133.82 219.312 L2133.82 200.863 M2132.59 196.789 L2138.47 196.789 L2138.47 219.312 L2143.4 219.312 L2143.4 223.201 L2138.47 223.201 L2138.47 231.349 L2133.82 231.349 L2133.82 223.201 L2118.22 223.201 L2118.22 218.687 L2132.59 196.789 Z" fill="#000000" fill-rule="evenodd" fill-opacity="1" /><path clip-path="url(#clip140)" d="M 0 0 M2147.29 196.789 L2169.51 196.789 L2169.51 198.779 L2156.97 231.349 L2152.08 231.349 L2163.89 200.724 L2147.29 200.724 L2147.29 196.789 Z" fill="#000000" fill-rule="evenodd" fill-opacity="1" /><path clip-path="url(#clip140)" d="M 0 0 M2188.66 195.33 L2198.47 195.33 L2198.47 198.64 L2192.92 198.64 L2192.92 234.288 L2198.47 234.288 L2198.47 237.599 L2188.66 237.599 L2188.66 195.33 Z" fill="#000000" fill-rule="evenodd" fill-opacity="1" /><path clip-path="url(#clip140)" d="M 0 0 M2219.47 206.187 L2219.47 210.214 Q2217.66 209.289 2215.72 208.826 Q2213.77 208.363 2211.69 208.363 Q2208.52 208.363 2206.92 209.335 Q2205.35 210.307 2205.35 212.251 Q2205.35 213.733 2206.48 214.589 Q2207.61 215.423 2211.04 216.187 L2212.5 216.511 Q2217.04 217.483 2218.93 219.265 Q2220.86 221.025 2220.86 224.196 Q2220.86 227.807 2217.99 229.913 Q2215.14 232.02 2210.14 232.02 Q2208.05 232.02 2205.79 231.603 Q2203.54 231.21 2201.04 230.4 L2201.04 226.001 Q2203.4 227.228 2205.69 227.853 Q2207.99 228.455 2210.23 228.455 Q2213.24 228.455 2214.86 227.437 Q2216.48 226.395 2216.48 224.52 Q2216.48 222.784 2215.3 221.858 Q2214.14 220.932 2210.18 220.076 L2208.7 219.728 Q2204.74 218.895 2202.99 217.182 Q2201.23 215.446 2201.23 212.437 Q2201.23 208.779 2203.82 206.789 Q2206.41 204.798 2211.18 204.798 Q2213.54 204.798 2215.62 205.145 Q2217.71 205.492 2219.47 206.187 Z" fill="#000000" fill-rule="evenodd" fill-opacity="1" /><path clip-path="url(#clip140)" d="M 0 0 M2235.28 195.33 L2235.28 237.599 L2225.46 237.599 L2225.46 234.288 L2230.99 234.288 L2230.99 198.64 L2225.46 198.64 L2225.46 195.33 L2235.28 195.33 Z" fill="#000000" fill-rule="evenodd" fill-opacity="1" /></svg>
