<?xml version="1.0" encoding="utf-8"?>
<svg xmlns="http://www.w3.org/2000/svg" xmlns:xlink="http://www.w3.org/1999/xlink" width="600" height="400" viewBox="0 0 2400 1600">
<defs>
  <clipPath id="clip410">
    <rect x="0" y="0" width="2400" height="1600"/>
  </clipPath>
</defs>
<path clip-path="url(#clip410)" d="
M0 1600 L2400 1600 L2400 0 L0 0  Z
  " fill="#ffffff" fill-rule="evenodd" fill-opacity="1"/>
<defs>
  <clipPath id="clip411">
    <rect x="480" y="0" width="1681" height="1600"/>
  </clipPath>
</defs>
<path clip-path="url(#clip410)" d="
M238.13 1423.18 L2352.76 1423.18 L2352.76 47.2441 L238.13 47.2441  Z
  " fill="#ffffff" fill-rule="evenodd" fill-opacity="1"/>
<defs>
  <clipPath id="clip412">
    <rect x="238" y="47" width="2116" height="1377"/>
  </clipPath>
</defs>
<polyline clip-path="url(#clip412)" style="stroke:#000000; stroke-width:2; stroke-opacity:0.1; fill:none" points="
  297.978,1423.18 297.978,47.2441 
  "/>
<polyline clip-path="url(#clip412)" style="stroke:#000000; stroke-width:2; stroke-opacity:0.1; fill:none" points="
  867.958,1423.18 867.958,47.2441 
  "/>
<polyline clip-path="url(#clip412)" style="stroke:#000000; stroke-width:2; stroke-opacity:0.1; fill:none" points="
  1437.94,1423.18 1437.94,47.2441 
  "/>
<polyline clip-path="url(#clip412)" style="stroke:#000000; stroke-width:2; stroke-opacity:0.1; fill:none" points="
  2007.92,1423.18 2007.92,47.2441 
  "/>
<polyline clip-path="url(#clip410)" style="stroke:#000000; stroke-width:4; stroke-opacity:1; fill:none" points="
  238.13,1423.18 2352.76,1423.18 
  "/>
<polyline clip-path="url(#clip410)" style="stroke:#000000; stroke-width:4; stroke-opacity:1; fill:none" points="
  297.978,1423.18 297.978,1406.67 
  "/>
<polyline clip-path="url(#clip410)" style="stroke:#000000; stroke-width:4; stroke-opacity:1; fill:none" points="
  867.958,1423.18 867.958,1406.67 
  "/>
<polyline clip-path="url(#clip410)" style="stroke:#000000; stroke-width:4; stroke-opacity:1; fill:none" points="
  1437.94,1423.18 1437.94,1406.67 
  "/>
<polyline clip-path="url(#clip410)" style="stroke:#000000; stroke-width:4; stroke-opacity:1; fill:none" points="
  2007.92,1423.18 2007.92,1406.67 
  "/>
<path clip-path="url(#clip410)" d="M 0 0 M297.978 1452.37 Q294.367 1452.37 292.538 1455.94 Q290.733 1459.48 290.733 1466.61 Q290.733 1473.71 292.538 1477.28 Q294.367 1480.82 297.978 1480.82 Q301.612 1480.82 303.418 1477.28 Q305.246 1473.71 305.246 1466.61 Q305.246 1459.48 303.418 1455.94 Q301.612 1452.37 297.978 1452.37 M297.978 1448.67 Q303.788 1448.67 306.844 1453.27 Q309.922 1457.86 309.922 1466.61 Q309.922 1475.33 306.844 1479.94 Q303.788 1484.52 297.978 1484.52 Q292.168 1484.52 289.089 1479.94 Q286.034 1475.33 286.034 1466.61 Q286.034 1457.86 289.089 1453.27 Q292.168 1448.67 297.978 1448.67 Z" fill="#000000" fill-rule="evenodd" fill-opacity="1" /><path clip-path="url(#clip410)" d="M 0 0 M831.326 1479.92 L838.965 1479.92 L838.965 1453.55 L830.655 1455.22 L830.655 1450.96 L838.919 1449.29 L843.595 1449.29 L843.595 1479.92 L851.234 1479.92 L851.234 1483.85 L831.326 1483.85 L831.326 1479.92 Z" fill="#000000" fill-rule="evenodd" fill-opacity="1" /><path clip-path="url(#clip410)" d="M 0 0 M866.303 1452.37 Q862.692 1452.37 860.863 1455.94 Q859.058 1459.48 859.058 1466.61 Q859.058 1473.71 860.863 1477.28 Q862.692 1480.82 866.303 1480.82 Q869.937 1480.82 871.743 1477.28 Q873.571 1473.71 873.571 1466.61 Q873.571 1459.48 871.743 1455.94 Q869.937 1452.37 866.303 1452.37 M866.303 1448.67 Q872.113 1448.67 875.169 1453.27 Q878.247 1457.86 878.247 1466.61 Q878.247 1475.33 875.169 1479.94 Q872.113 1484.52 866.303 1484.52 Q860.493 1484.52 857.414 1479.94 Q854.359 1475.33 854.359 1466.61 Q854.359 1457.86 857.414 1453.27 Q860.493 1448.67 866.303 1448.67 Z" fill="#000000" fill-rule="evenodd" fill-opacity="1" /><path clip-path="url(#clip410)" d="M 0 0 M893.317 1452.37 Q889.706 1452.37 887.877 1455.94 Q886.071 1459.48 886.071 1466.61 Q886.071 1473.71 887.877 1477.28 Q889.706 1480.82 893.317 1480.82 Q896.951 1480.82 898.756 1477.28 Q900.585 1473.71 900.585 1466.61 Q900.585 1459.48 898.756 1455.94 Q896.951 1452.37 893.317 1452.37 M893.317 1448.67 Q899.127 1448.67 902.182 1453.27 Q905.261 1457.86 905.261 1466.61 Q905.261 1475.33 902.182 1479.94 Q899.127 1484.52 893.317 1484.52 Q887.506 1484.52 884.428 1479.94 Q881.372 1475.33 881.372 1466.61 Q881.372 1457.86 884.428 1453.27 Q887.506 1448.67 893.317 1448.67 Z" fill="#000000" fill-rule="evenodd" fill-opacity="1" /><path clip-path="url(#clip410)" d="M 0 0 M1405.58 1479.92 L1421.9 1479.92 L1421.9 1483.85 L1399.95 1483.85 L1399.95 1479.92 Q1402.61 1477.16 1407.2 1472.53 Q1411.8 1467.88 1412.98 1466.54 Q1415.23 1464.01 1416.11 1462.28 Q1417.01 1460.52 1417.01 1458.83 Q1417.01 1456.07 1415.07 1454.34 Q1413.15 1452.6 1410.04 1452.6 Q1407.85 1452.6 1405.39 1453.37 Q1402.96 1454.13 1400.18 1455.68 L1400.18 1450.96 Q1403.01 1449.82 1405.46 1449.25 Q1407.91 1448.67 1409.95 1448.67 Q1415.32 1448.67 1418.52 1451.35 Q1421.71 1454.04 1421.71 1458.53 Q1421.71 1460.66 1420.9 1462.58 Q1420.11 1464.48 1418.01 1467.07 Q1417.43 1467.74 1414.33 1470.96 Q1411.23 1474.15 1405.58 1479.92 Z" fill="#000000" fill-rule="evenodd" fill-opacity="1" /><path clip-path="url(#clip410)" d="M 0 0 M1436.97 1452.37 Q1433.35 1452.37 1431.53 1455.94 Q1429.72 1459.48 1429.72 1466.61 Q1429.72 1473.71 1431.53 1477.28 Q1433.35 1480.82 1436.97 1480.82 Q1440.6 1480.82 1442.41 1477.28 Q1444.23 1473.71 1444.23 1466.61 Q1444.23 1459.48 1442.41 1455.94 Q1440.6 1452.37 1436.97 1452.37 M1436.97 1448.67 Q1442.78 1448.67 1445.83 1453.27 Q1448.91 1457.86 1448.91 1466.61 Q1448.91 1475.33 1445.83 1479.94 Q1442.78 1484.52 1436.97 1484.52 Q1431.16 1484.52 1428.08 1479.94 Q1425.02 1475.33 1425.02 1466.61 Q1425.02 1457.86 1428.08 1453.27 Q1431.16 1448.67 1436.97 1448.67 Z" fill="#000000" fill-rule="evenodd" fill-opacity="1" /><path clip-path="url(#clip410)" d="M 0 0 M1463.98 1452.37 Q1460.37 1452.37 1458.54 1455.94 Q1456.73 1459.48 1456.73 1466.61 Q1456.73 1473.71 1458.54 1477.28 Q1460.37 1480.82 1463.98 1480.82 Q1467.61 1480.82 1469.42 1477.28 Q1471.25 1473.71 1471.25 1466.61 Q1471.25 1459.48 1469.42 1455.94 Q1467.61 1452.37 1463.98 1452.37 M1463.98 1448.67 Q1469.79 1448.67 1472.85 1453.27 Q1475.92 1457.86 1475.92 1466.61 Q1475.92 1475.33 1472.85 1479.94 Q1469.79 1484.52 1463.98 1484.52 Q1458.17 1484.52 1455.09 1479.94 Q1452.04 1475.33 1452.04 1466.61 Q1452.04 1457.86 1455.09 1453.27 Q1458.17 1448.67 1463.98 1448.67 Z" fill="#000000" fill-rule="evenodd" fill-opacity="1" /><path clip-path="url(#clip410)" d="M 0 0 M1985.15 1465.22 Q1988.51 1465.94 1990.38 1468.2 Q1992.28 1470.47 1992.28 1473.81 Q1992.28 1478.92 1988.76 1481.72 Q1985.24 1484.52 1978.76 1484.52 Q1976.59 1484.52 1974.27 1484.08 Q1971.98 1483.67 1969.53 1482.81 L1969.53 1478.3 Q1971.47 1479.43 1973.79 1480.01 Q1976.1 1480.59 1978.62 1480.59 Q1983.02 1480.59 1985.31 1478.85 Q1987.63 1477.12 1987.63 1473.81 Q1987.63 1470.75 1985.48 1469.04 Q1983.35 1467.3 1979.53 1467.3 L1975.5 1467.3 L1975.5 1463.46 L1979.71 1463.46 Q1983.16 1463.46 1984.99 1462.09 Q1986.82 1460.7 1986.82 1458.11 Q1986.82 1455.45 1984.92 1454.04 Q1983.05 1452.6 1979.53 1452.6 Q1977.61 1452.6 1975.41 1453.02 Q1973.21 1453.44 1970.57 1454.31 L1970.57 1450.15 Q1973.23 1449.41 1975.55 1449.04 Q1977.88 1448.67 1979.94 1448.67 Q1985.27 1448.67 1988.37 1451.1 Q1991.47 1453.5 1991.47 1457.63 Q1991.47 1460.5 1989.83 1462.49 Q1988.18 1464.45 1985.15 1465.22 Z" fill="#000000" fill-rule="evenodd" fill-opacity="1" /><path clip-path="url(#clip410)" d="M 0 0 M2007.35 1452.37 Q2003.74 1452.37 2001.91 1455.94 Q2000.11 1459.48 2000.11 1466.61 Q2000.11 1473.71 2001.91 1477.28 Q2003.74 1480.82 2007.35 1480.82 Q2010.99 1480.82 2012.79 1477.28 Q2014.62 1473.71 2014.62 1466.61 Q2014.62 1459.48 2012.79 1455.94 Q2010.99 1452.37 2007.35 1452.37 M2007.35 1448.67 Q2013.16 1448.67 2016.22 1453.27 Q2019.3 1457.86 2019.3 1466.61 Q2019.3 1475.33 2016.22 1479.94 Q2013.16 1484.52 2007.35 1484.52 Q2001.54 1484.52 1998.46 1479.94 Q1995.41 1475.33 1995.41 1466.61 Q1995.41 1457.86 1998.46 1453.27 Q2001.54 1448.67 2007.35 1448.67 Z" fill="#000000" fill-rule="evenodd" fill-opacity="1" /><path clip-path="url(#clip410)" d="M 0 0 M2034.36 1452.37 Q2030.75 1452.37 2028.92 1455.94 Q2027.12 1459.48 2027.12 1466.61 Q2027.12 1473.71 2028.92 1477.28 Q2030.75 1480.82 2034.36 1480.82 Q2038 1480.82 2039.8 1477.28 Q2041.63 1473.71 2041.63 1466.61 Q2041.63 1459.48 2039.8 1455.94 Q2038 1452.37 2034.36 1452.37 M2034.36 1448.67 Q2040.17 1448.67 2043.23 1453.27 Q2046.31 1457.86 2046.31 1466.61 Q2046.31 1475.33 2043.23 1479.94 Q2040.17 1484.52 2034.36 1484.52 Q2028.55 1484.52 2025.48 1479.94 Q2022.42 1475.33 2022.42 1466.61 Q2022.42 1457.86 2025.48 1453.27 Q2028.55 1448.67 2034.36 1448.67 Z" fill="#000000" fill-rule="evenodd" fill-opacity="1" /><path clip-path="url(#clip410)" d="M 0 0 M1312.06 1520.4 L1299.17 1537.74 L1312.73 1556.04 L1305.82 1556.04 L1295.44 1542.04 L1285.07 1556.04 L1278.16 1556.04 L1292.01 1537.39 L1279.34 1520.4 L1286.24 1520.4 L1295.7 1533.1 L1305.15 1520.4 L1312.06 1520.4 Z" fill="#000000" fill-rule="evenodd" fill-opacity="1" /><polyline clip-path="url(#clip412)" style="stroke:#000000; stroke-width:2; stroke-opacity:0.1; fill:none" points="
  238.13,1382.77 2352.76,1382.77 
  "/>
<polyline clip-path="url(#clip412)" style="stroke:#000000; stroke-width:2; stroke-opacity:0.1; fill:none" points="
  238.13,1078.98 2352.76,1078.98 
  "/>
<polyline clip-path="url(#clip412)" style="stroke:#000000; stroke-width:2; stroke-opacity:0.1; fill:none" points="
  238.13,775.184 2352.76,775.184 
  "/>
<polyline clip-path="url(#clip412)" style="stroke:#000000; stroke-width:2; stroke-opacity:0.1; fill:none" points="
  238.13,471.391 2352.76,471.391 
  "/>
<polyline clip-path="url(#clip412)" style="stroke:#000000; stroke-width:2; stroke-opacity:0.1; fill:none" points="
  238.13,167.598 2352.76,167.598 
  "/>
<polyline clip-path="url(#clip410)" style="stroke:#000000; stroke-width:4; stroke-opacity:1; fill:none" points="
  238.13,1423.18 238.13,47.2441 
  "/>
<polyline clip-path="url(#clip410)" style="stroke:#000000; stroke-width:4; stroke-opacity:1; fill:none" points="
  238.13,1382.77 263.506,1382.77 
  "/>
<polyline clip-path="url(#clip410)" style="stroke:#000000; stroke-width:4; stroke-opacity:1; fill:none" points="
  238.13,1078.98 263.506,1078.98 
  "/>
<polyline clip-path="url(#clip410)" style="stroke:#000000; stroke-width:4; stroke-opacity:1; fill:none" points="
  238.13,775.184 263.506,775.184 
  "/>
<polyline clip-path="url(#clip410)" style="stroke:#000000; stroke-width:4; stroke-opacity:1; fill:none" points="
  238.13,471.391 263.506,471.391 
  "/>
<polyline clip-path="url(#clip410)" style="stroke:#000000; stroke-width:4; stroke-opacity:1; fill:none" points="
  238.13,167.598 263.506,167.598 
  "/>
<path clip-path="url(#clip410)" d="M 0 0 M126.205 1368.57 Q122.593 1368.57 120.765 1372.13 Q118.959 1375.68 118.959 1382.81 Q118.959 1389.91 120.765 1393.48 Q122.593 1397.02 126.205 1397.02 Q129.839 1397.02 131.644 1393.48 Q133.473 1389.91 133.473 1382.81 Q133.473 1375.68 131.644 1372.13 Q129.839 1368.57 126.205 1368.57 M126.205 1364.87 Q132.015 1364.87 135.07 1369.47 Q138.149 1374.06 138.149 1382.81 Q138.149 1391.53 135.07 1396.14 Q132.015 1400.72 126.205 1400.72 Q120.394 1400.72 117.316 1396.14 Q114.26 1391.53 114.26 1382.81 Q114.26 1374.06 117.316 1369.47 Q120.394 1364.87 126.205 1364.87 Z" fill="#000000" fill-rule="evenodd" fill-opacity="1" /><path clip-path="url(#clip410)" d="M 0 0 M143.218 1394.17 L148.103 1394.17 L148.103 1400.05 L143.218 1400.05 L143.218 1394.17 Z" fill="#000000" fill-rule="evenodd" fill-opacity="1" /><path clip-path="url(#clip410)" d="M 0 0 M163.172 1368.57 Q159.561 1368.57 157.732 1372.13 Q155.927 1375.68 155.927 1382.81 Q155.927 1389.91 157.732 1393.48 Q159.561 1397.02 163.172 1397.02 Q166.806 1397.02 168.612 1393.48 Q170.44 1389.91 170.44 1382.81 Q170.44 1375.68 168.612 1372.13 Q166.806 1368.57 163.172 1368.57 M163.172 1364.87 Q168.982 1364.87 172.038 1369.47 Q175.116 1374.06 175.116 1382.81 Q175.116 1391.53 172.038 1396.14 Q168.982 1400.72 163.172 1400.72 Q157.362 1400.72 154.283 1396.14 Q151.228 1391.53 151.228 1382.81 Q151.228 1374.06 154.283 1369.47 Q157.362 1364.87 163.172 1364.87 Z" fill="#000000" fill-rule="evenodd" fill-opacity="1" /><path clip-path="url(#clip410)" d="M 0 0 M190.186 1368.57 Q186.575 1368.57 184.746 1372.13 Q182.94 1375.68 182.94 1382.81 Q182.94 1389.91 184.746 1393.48 Q186.575 1397.02 190.186 1397.02 Q193.82 1397.02 195.625 1393.48 Q197.454 1389.91 197.454 1382.81 Q197.454 1375.68 195.625 1372.13 Q193.82 1368.57 190.186 1368.57 M190.186 1364.87 Q195.996 1364.87 199.051 1369.47 Q202.13 1374.06 202.13 1382.81 Q202.13 1391.53 199.051 1396.14 Q195.996 1400.72 190.186 1400.72 Q184.376 1400.72 181.297 1396.14 Q178.241 1391.53 178.241 1382.81 Q178.241 1374.06 181.297 1369.47 Q184.376 1364.87 190.186 1364.87 Z" fill="#000000" fill-rule="evenodd" fill-opacity="1" /><path clip-path="url(#clip410)" d="M 0 0 M128.797 1064.78 Q125.186 1064.78 123.357 1068.34 Q121.552 1071.88 121.552 1079.01 Q121.552 1086.12 123.357 1089.68 Q125.186 1093.22 128.797 1093.22 Q132.431 1093.22 134.237 1089.68 Q136.066 1086.12 136.066 1079.01 Q136.066 1071.88 134.237 1068.34 Q132.431 1064.78 128.797 1064.78 M128.797 1061.07 Q134.607 1061.07 137.663 1065.68 Q140.741 1070.26 140.741 1079.01 Q140.741 1087.74 137.663 1092.35 Q134.607 1096.93 128.797 1096.93 Q122.987 1096.93 119.908 1092.35 Q116.853 1087.74 116.853 1079.01 Q116.853 1070.26 119.908 1065.68 Q122.987 1061.07 128.797 1061.07 Z" fill="#000000" fill-rule="evenodd" fill-opacity="1" /><path clip-path="url(#clip410)" d="M 0 0 M145.811 1090.38 L150.695 1090.38 L150.695 1096.26 L145.811 1096.26 L145.811 1090.38 Z" fill="#000000" fill-rule="evenodd" fill-opacity="1" /><path clip-path="url(#clip410)" d="M 0 0 M159.792 1092.32 L176.112 1092.32 L176.112 1096.26 L154.167 1096.26 L154.167 1092.32 Q156.829 1089.57 161.413 1084.94 Q166.019 1080.29 167.2 1078.94 Q169.445 1076.42 170.325 1074.68 Q171.227 1072.92 171.227 1071.23 Q171.227 1068.48 169.283 1066.74 Q167.362 1065.01 164.26 1065.01 Q162.061 1065.01 159.607 1065.77 Q157.177 1066.54 154.399 1068.09 L154.399 1063.36 Q157.223 1062.23 159.677 1061.65 Q162.13 1061.07 164.167 1061.07 Q169.538 1061.07 172.732 1063.76 Q175.926 1066.44 175.926 1070.93 Q175.926 1073.06 175.116 1074.98 Q174.329 1076.88 172.223 1079.47 Q171.644 1080.15 168.542 1083.36 Q165.44 1086.56 159.792 1092.32 Z" fill="#000000" fill-rule="evenodd" fill-opacity="1" /><path clip-path="url(#clip410)" d="M 0 0 M181.227 1061.7 L199.584 1061.7 L199.584 1065.63 L185.51 1065.63 L185.51 1074.1 Q186.528 1073.76 187.547 1073.6 Q188.565 1073.41 189.584 1073.41 Q195.371 1073.41 198.75 1076.58 Q202.13 1079.75 202.13 1085.17 Q202.13 1090.75 198.658 1093.85 Q195.186 1096.93 188.866 1096.93 Q186.69 1096.93 184.422 1096.56 Q182.176 1096.19 179.769 1095.45 L179.769 1090.75 Q181.852 1091.88 184.075 1092.44 Q186.297 1092.99 188.774 1092.99 Q192.778 1092.99 195.116 1090.89 Q197.454 1088.78 197.454 1085.17 Q197.454 1081.56 195.116 1079.45 Q192.778 1077.35 188.774 1077.35 Q186.899 1077.35 185.024 1077.76 Q183.172 1078.18 181.227 1079.06 L181.227 1061.7 Z" fill="#000000" fill-rule="evenodd" fill-opacity="1" /><path clip-path="url(#clip410)" d="M 0 0 M127.2 760.983 Q123.589 760.983 121.76 764.547 Q119.955 768.089 119.955 775.219 Q119.955 782.325 121.76 785.89 Q123.589 789.432 127.2 789.432 Q130.834 789.432 132.64 785.89 Q134.468 782.325 134.468 775.219 Q134.468 768.089 132.64 764.547 Q130.834 760.983 127.2 760.983 M127.2 757.279 Q133.01 757.279 136.066 761.885 Q139.144 766.469 139.144 775.219 Q139.144 783.946 136.066 788.552 Q133.01 793.135 127.2 793.135 Q121.39 793.135 118.311 788.552 Q115.256 783.946 115.256 775.219 Q115.256 766.469 118.311 761.885 Q121.39 757.279 127.2 757.279 Z" fill="#000000" fill-rule="evenodd" fill-opacity="1" /><path clip-path="url(#clip410)" d="M 0 0 M144.214 786.584 L149.098 786.584 L149.098 792.464 L144.214 792.464 L144.214 786.584 Z" fill="#000000" fill-rule="evenodd" fill-opacity="1" /><path clip-path="url(#clip410)" d="M 0 0 M154.214 757.904 L172.57 757.904 L172.57 761.839 L158.496 761.839 L158.496 770.311 Q159.515 769.964 160.533 769.802 Q161.552 769.617 162.57 769.617 Q168.357 769.617 171.737 772.788 Q175.116 775.959 175.116 781.376 Q175.116 786.955 171.644 790.057 Q168.172 793.135 161.852 793.135 Q159.677 793.135 157.408 792.765 Q155.163 792.395 152.755 791.654 L152.755 786.955 Q154.839 788.089 157.061 788.645 Q159.283 789.2 161.76 789.2 Q165.765 789.2 168.102 787.094 Q170.44 784.987 170.44 781.376 Q170.44 777.765 168.102 775.659 Q165.765 773.552 161.76 773.552 Q159.885 773.552 158.01 773.969 Q156.158 774.385 154.214 775.265 L154.214 757.904 Z" fill="#000000" fill-rule="evenodd" fill-opacity="1" /><path clip-path="url(#clip410)" d="M 0 0 M190.186 760.983 Q186.575 760.983 184.746 764.547 Q182.94 768.089 182.94 775.219 Q182.94 782.325 184.746 785.89 Q186.575 789.432 190.186 789.432 Q193.82 789.432 195.625 785.89 Q197.454 782.325 197.454 775.219 Q197.454 768.089 195.625 764.547 Q193.82 760.983 190.186 760.983 M190.186 757.279 Q195.996 757.279 199.051 761.885 Q202.13 766.469 202.13 775.219 Q202.13 783.946 199.051 788.552 Q195.996 793.135 190.186 793.135 Q184.376 793.135 181.297 788.552 Q178.241 783.946 178.241 775.219 Q178.241 766.469 181.297 761.885 Q184.376 757.279 190.186 757.279 Z" fill="#000000" fill-rule="evenodd" fill-opacity="1" /><path clip-path="url(#clip410)" d="M 0 0 M128.103 457.189 Q124.492 457.189 122.663 460.754 Q120.857 464.296 120.857 471.426 Q120.857 478.532 122.663 482.097 Q124.492 485.638 128.103 485.638 Q131.737 485.638 133.542 482.097 Q135.371 478.532 135.371 471.426 Q135.371 464.296 133.542 460.754 Q131.737 457.189 128.103 457.189 M128.103 453.486 Q133.913 453.486 136.968 458.092 Q140.047 462.676 140.047 471.426 Q140.047 480.152 136.968 484.759 Q133.913 489.342 128.103 489.342 Q122.293 489.342 119.214 484.759 Q116.158 480.152 116.158 471.426 Q116.158 462.676 119.214 458.092 Q122.293 453.486 128.103 453.486 Z" fill="#000000" fill-rule="evenodd" fill-opacity="1" /><path clip-path="url(#clip410)" d="M 0 0 M145.116 482.791 L150.001 482.791 L150.001 488.671 L145.116 488.671 L145.116 482.791 Z" fill="#000000" fill-rule="evenodd" fill-opacity="1" /><path clip-path="url(#clip410)" d="M 0 0 M153.89 454.111 L176.112 454.111 L176.112 456.102 L163.565 488.671 L158.681 488.671 L170.487 458.046 L153.89 458.046 L153.89 454.111 Z" fill="#000000" fill-rule="evenodd" fill-opacity="1" /><path clip-path="url(#clip410)" d="M 0 0 M181.227 454.111 L199.584 454.111 L199.584 458.046 L185.51 458.046 L185.51 466.518 Q186.528 466.171 187.547 466.009 Q188.565 465.824 189.584 465.824 Q195.371 465.824 198.75 468.995 Q202.13 472.166 202.13 477.583 Q202.13 483.162 198.658 486.263 Q195.186 489.342 188.866 489.342 Q186.69 489.342 184.422 488.972 Q182.176 488.601 179.769 487.861 L179.769 483.162 Q181.852 484.296 184.075 484.851 Q186.297 485.407 188.774 485.407 Q192.778 485.407 195.116 483.3 Q197.454 481.194 197.454 477.583 Q197.454 473.972 195.116 471.865 Q192.778 469.759 188.774 469.759 Q186.899 469.759 185.024 470.176 Q183.172 470.592 181.227 471.472 L181.227 454.111 Z" fill="#000000" fill-rule="evenodd" fill-opacity="1" /><path clip-path="url(#clip410)" d="M 0 0 M118.242 180.942 L125.88 180.942 L125.88 154.577 L117.57 156.244 L117.57 151.984 L125.834 150.318 L130.51 150.318 L130.51 180.942 L138.149 180.942 L138.149 184.878 L118.242 184.878 L118.242 180.942 Z" fill="#000000" fill-rule="evenodd" fill-opacity="1" /><path clip-path="url(#clip410)" d="M 0 0 M143.218 178.998 L148.103 178.998 L148.103 184.878 L143.218 184.878 L143.218 178.998 Z" fill="#000000" fill-rule="evenodd" fill-opacity="1" /><path clip-path="url(#clip410)" d="M 0 0 M163.172 153.396 Q159.561 153.396 157.732 156.961 Q155.927 160.503 155.927 167.632 Q155.927 174.739 157.732 178.304 Q159.561 181.845 163.172 181.845 Q166.806 181.845 168.612 178.304 Q170.44 174.739 170.44 167.632 Q170.44 160.503 168.612 156.961 Q166.806 153.396 163.172 153.396 M163.172 149.693 Q168.982 149.693 172.038 154.299 Q175.116 158.882 175.116 167.632 Q175.116 176.359 172.038 180.966 Q168.982 185.549 163.172 185.549 Q157.362 185.549 154.283 180.966 Q151.228 176.359 151.228 167.632 Q151.228 158.882 154.283 154.299 Q157.362 149.693 163.172 149.693 Z" fill="#000000" fill-rule="evenodd" fill-opacity="1" /><path clip-path="url(#clip410)" d="M 0 0 M190.186 153.396 Q186.575 153.396 184.746 156.961 Q182.94 160.503 182.94 167.632 Q182.94 174.739 184.746 178.304 Q186.575 181.845 190.186 181.845 Q193.82 181.845 195.625 178.304 Q197.454 174.739 197.454 167.632 Q197.454 160.503 195.625 156.961 Q193.82 153.396 190.186 153.396 M190.186 149.693 Q195.996 149.693 199.051 154.299 Q202.13 158.882 202.13 167.632 Q202.13 176.359 199.051 180.966 Q195.996 185.549 190.186 185.549 Q184.376 185.549 181.297 180.966 Q178.241 176.359 178.241 167.632 Q178.241 158.882 181.297 154.299 Q184.376 149.693 190.186 149.693 Z" fill="#000000" fill-rule="evenodd" fill-opacity="1" /><path clip-path="url(#clip410)" d="M 0 0 M70.212 745.095 Q76.6732 745.095 80.3653 742.453 Q84.0256 739.779 84.0256 735.132 Q84.0256 730.485 80.3653 727.812 Q76.6732 725.138 70.212 725.138 Q63.7508 725.138 60.0905 727.812 Q56.3984 730.485 56.3984 735.132 Q56.3984 739.779 60.0905 742.453 Q63.7508 745.095 70.212 745.095 M82.657 725.138 Q85.8398 726.984 87.3994 729.817 Q88.9272 732.618 88.9272 736.565 Q88.9272 743.026 83.771 747.1 Q78.6147 751.142 70.212 751.142 Q61.8093 751.142 56.6531 747.1 Q51.4968 743.026 51.4968 736.565 Q51.4968 732.618 53.0564 729.817 Q54.5842 726.984 57.7671 725.138 L52.3562 725.138 L52.3562 719.282 L101.563 719.282 L101.563 725.138 L82.657 725.138 Z" fill="#000000" fill-rule="evenodd" fill-opacity="1" /><polyline clip-path="url(#clip412)" style="stroke:#009af9; stroke-width:4; stroke-opacity:1; fill:none" points="
  297.978,1382.77 300.669,1382.77 305.771,1382.77 310.872,1382.77 313.563,1382.77 316.255,1382.77 321.356,1382.77 326.458,1382.77 329.149,1382.77 
  331.84,1382.77 336.941,1382.77 342.043,1382.77 344.734,1382.77 347.425,1382.77 352.527,1382.77 357.628,1382.77 360.32,1382.77 
  363.011,1382.77 368.112,1382.77 373.214,1382.77 375.905,1382.77 378.596,1382.77 383.698,1382.77 388.799,1382.77 391.49,1382.77 
  394.181,1382.77 399.283,1382.77 404.385,1382.77 407.076,1382.77 409.767,1382.77 414.868,1382.77 419.97,1382.77 422.661,1382.77 
  425.352,1382.77 430.454,1382.77 435.555,1382.77 438.246,1382.77 440.938,1382.77 446.039,1382.77 451.141,1382.77 453.832,1382.77 
  456.523,1382.77 461.625,1382.77 466.726,1382.77 469.417,1382.77 472.108,1382.77 477.21,1382.77 482.311,1382.77 485.003,1382.77 
  487.694,1382.77 492.795,1382.77 497.897,1382.77 500.588,1382.77 503.279,1382.77 508.381,1382.77 513.482,1382.77 516.173,1382.77 
  518.865,1382.77 523.966,1382.77 529.068,1382.77 531.759,1382.77 534.45,1382.77 539.552,1382.77 544.653,1382.77 547.344,1382.77 
  550.035,1382.77 555.137,1382.77 560.238,1382.77 562.93,1382.77 565.621,1382.77 570.722,1382.77 575.824,1382.77 578.515,1382.77 
  581.206,1382.77 586.308,1382.77 591.409,1382.77 594.1,1382.77 596.792,1382.77 601.893,1382.77 606.995,1382.77 609.686,1382.77 
  612.377,1382.77 617.478,1382.77 622.58,1382.77 625.271,1382.77 627.962,1382.77 633.064,1382.77 638.165,1382.77 640.857,1382.77 
  643.548,1382.77 648.649,1382.77 653.751,1382.77 656.442,1382.77 659.133,1382.77 664.235,1382.77 669.336,1382.77 672.027,1382.77 
  674.719,1382.77 679.82,1382.77 684.922,1382.77 687.613,1382.77 690.304,1382.77 695.405,1382.77 700.507,1382.77 703.198,1382.77 
  705.889,1382.77 710.991,1382.77 716.092,1382.77 718.784,1382.77 721.475,1382.77 726.576,167.598 731.678,167.598 734.369,167.598 
  737.06,167.598 742.162,167.598 747.263,167.598 749.954,167.598 752.645,167.598 757.747,167.598 762.849,167.598 765.54,167.598 
  768.231,167.598 773.332,167.598 778.434,167.598 781.125,167.598 783.816,167.598 788.918,167.598 794.019,167.598 796.71,167.598 
  799.402,167.598 804.503,167.598 809.605,167.598 812.296,167.598 814.987,167.598 820.089,167.598 825.19,167.598 827.881,167.598 
  830.572,167.598 835.674,167.598 840.775,167.598 843.467,167.598 846.158,167.598 851.259,167.598 856.361,167.598 859.052,167.598 
  861.743,167.598 866.845,167.598 871.946,167.598 874.637,167.598 877.329,167.598 882.43,167.598 887.532,167.598 890.223,167.598 
  892.914,167.598 898.016,167.598 903.117,167.598 905.808,167.598 908.499,167.598 913.601,167.598 918.702,167.598 921.394,167.598 
  924.085,167.598 929.186,167.598 934.288,167.598 936.979,167.598 939.67,167.598 944.772,167.598 949.873,167.598 952.564,167.598 
  955.256,167.598 960.357,167.598 965.459,167.598 968.15,167.598 970.841,167.598 975.942,167.598 981.044,167.598 983.735,167.598 
  986.426,167.598 991.528,167.598 996.629,167.598 999.321,167.598 1002.01,167.598 1007.11,167.598 1012.21,1382.77 1014.91,1382.77 
  1017.6,1382.77 1022.7,1382.77 1027.8,1382.77 1030.49,1382.77 1033.18,1382.77 1038.28,1382.77 1043.39,1382.77 1046.08,1382.77 
  1048.77,1382.77 1053.87,1382.77 1058.97,1382.77 1061.66,1382.77 1064.35,1382.77 1069.45,1382.77 1074.56,1382.77 1077.25,1382.77 
  1079.94,1382.77 1085.04,1382.77 1090.14,1382.77 1092.83,1382.77 1095.52,1382.77 1100.63,1382.77 1105.73,1382.77 1108.42,1382.77 
  1111.11,1382.77 1116.21,1382.77 1121.31,1382.77 1124,1382.77 1126.69,1382.77 1131.8,1382.77 1136.9,1382.77 1139.59,1382.77 
  1142.28,1382.77 1147.38,1382.77 1152.48,1382.77 1155.17,1382.77 1157.87,1382.77 1162.97,1382.77 1168.07,1382.77 1170.76,1382.77 
  1173.45,1382.77 1178.55,1382.77 1183.65,1382.77 1186.35,1382.77 1189.04,1382.77 1194.14,1382.77 1199.24,1382.77 1201.93,1382.77 
  1204.62,1382.77 1209.72,1382.77 1214.82,1382.77 1217.52,1382.77 1220.21,1382.77 1225.31,1382.77 1230.41,1382.77 1233.1,1382.77 
  1235.79,1382.77 1240.89,1382.77 1246,1382.77 1248.69,1382.77 1251.38,1382.77 1256.48,1382.77 1261.58,1382.77 1264.27,1382.77 
  1266.96,1382.77 1272.06,1382.77 1277.17,1382.77 1279.86,1382.77 1282.55,1382.77 1287.65,1382.77 1292.75,1382.77 1295.44,1382.77 
  1298.13,1382.77 1303.24,1382.77 1308.34,1382.77 1311.03,1382.77 1313.72,1382.77 1318.82,1382.77 1323.92,1382.77 1326.61,1382.77 
  1329.3,1382.77 1334.41,1382.77 1339.51,1382.77 1342.2,1382.77 1344.89,1382.77 1349.99,1382.77 1355.09,1382.77 1357.78,1382.77 
  1360.48,1382.77 1365.58,1382.77 1370.68,1382.77 1373.37,1382.77 1376.06,1382.77 1381.16,1382.77 1386.26,1382.77 1388.96,1382.77 
  1391.65,1382.77 1396.75,1382.77 1401.85,1382.77 1404.54,1382.77 1407.23,1382.77 1412.33,1382.77 1417.43,1382.77 1420.13,1382.77 
  1422.82,1382.77 1427.92,1382.77 1433.02,1382.77 1435.71,1382.77 1438.4,1382.77 1443.5,1382.77 1448.61,1382.77 1451.3,1382.77 
  1453.99,1382.77 1459.09,1382.77 1464.19,1382.77 1466.88,1382.77 1469.57,1382.77 1474.67,1382.77 1479.78,1382.77 1482.47,1382.77 
  1485.16,1382.77 1490.26,1382.77 1495.36,1382.77 1498.05,1382.77 1500.74,1382.77 1505.85,1382.77 1510.95,1382.77 1513.64,1382.77 
  1516.33,1382.77 1521.43,1382.77 1526.53,1382.77 1529.22,1382.77 1531.92,1382.77 1537.02,1382.77 1542.12,1382.77 1544.81,1382.77 
  1547.5,1382.77 1552.6,1382.77 1557.7,1382.77 1560.39,1382.77 1563.09,1382.77 1568.19,1382.77 1573.29,1382.77 1575.98,1382.77 
  1578.67,1382.77 1583.77,1382.77 1588.87,1382.77 1591.57,1382.77 1594.26,1382.77 1599.36,1382.77 1604.46,1382.77 1607.15,1382.77 
  1609.84,1382.77 1614.94,1382.77 1620.05,1382.77 1622.74,1382.77 1625.43,1382.77 1630.53,1382.77 1635.63,1382.77 1638.32,1382.77 
  1641.01,1382.77 1646.11,1382.77 1651.22,1382.77 1653.91,1382.77 1656.6,1382.77 1661.7,1382.77 1666.8,1382.77 1669.49,1382.77 
  1672.18,1382.77 1677.29,1382.77 1682.39,1382.77 1685.08,1382.77 1687.77,1382.77 1692.87,1382.77 1697.97,1382.77 1700.66,1382.77 
  1703.35,1382.77 1708.46,1382.77 1713.56,1382.77 1716.25,1382.77 1718.94,1382.77 1724.04,1382.77 1729.14,1382.77 1731.83,1382.77 
  1734.53,1382.77 1739.63,1382.77 1744.73,1382.77 1747.42,1382.77 1750.11,1382.77 1755.21,1382.77 1760.31,1382.77 1763,1382.77 
  1765.7,1382.77 1770.8,1382.77 1775.9,1382.77 1778.59,1382.77 1781.28,1382.77 1786.38,1382.77 1791.48,1382.77 1794.18,1382.77 
  1796.87,1382.77 1801.97,1382.77 1807.07,1382.77 1809.76,1382.77 1812.45,1382.77 1817.55,1382.77 1822.66,1382.77 1825.35,1382.77 
  1828.04,1382.77 1833.14,1382.77 1838.24,1382.77 1840.93,1382.77 1843.62,1382.77 1848.72,1382.77 1853.83,1382.77 1856.52,1382.77 
  1859.21,1382.77 1864.31,1382.77 1869.41,1382.77 1872.1,1382.77 1874.79,1382.77 1879.9,1382.77 1885,1382.77 1887.69,1382.77 
  1890.38,1382.77 1895.48,1382.77 1900.58,1382.77 1903.27,1382.77 1905.96,1382.77 1911.07,1382.77 1916.17,1382.77 1918.86,1382.77 
  1921.55,1382.77 1926.65,1382.77 1931.75,1382.77 1934.44,1382.77 1937.14,1382.77 1942.24,1382.77 1947.34,1382.77 1950.03,1382.77 
  1952.72,1382.77 1957.82,1382.77 1962.92,1382.77 1965.61,1382.77 1968.31,1382.77 1973.41,1382.77 1978.51,1382.77 1981.2,1382.77 
  1983.89,1382.77 1988.99,1382.77 1994.09,1382.77 1996.79,1382.77 1999.48,1382.77 2004.58,1382.77 2009.68,1382.77 2012.37,1382.77 
  2015.06,1382.77 2020.16,1382.77 2025.27,1382.77 2027.96,1382.77 2030.65,1382.77 2035.75,1382.77 2040.85,1382.77 2043.54,1382.77 
  2046.23,1382.77 2051.33,1382.77 2056.44,1382.77 2059.13,1382.77 2061.82,1382.77 2066.92,1382.77 2072.02,1382.77 2074.71,1382.77 
  2077.4,1382.77 2082.51,1382.77 2087.61,1382.77 2090.3,1382.77 2092.99,1382.77 2098.09,1382.77 2103.19,1382.77 2105.88,1382.77 
  2108.57,1382.77 2113.68,1382.77 2118.78,1382.77 2121.47,1382.77 2124.16,1382.77 2129.26,1382.77 2134.36,1382.77 2137.05,1382.77 
  2139.75,1382.77 2144.85,1382.77 2149.95,1382.77 2152.64,1382.77 2155.33,1382.77 2160.43,1382.77 2165.53,1382.77 2168.22,1382.77 
  2170.92,1382.77 2176.02,1382.77 2181.12,1382.77 2183.81,1382.77 2186.5,1382.77 2191.6,1382.77 2196.7,1382.77 2199.4,1382.77 
  2202.09,1382.77 2207.19,1382.77 2212.29,1382.77 2214.98,1382.77 2217.67,1382.77 2222.77,1382.77 2227.88,1382.77 2230.57,1382.77 
  2233.26,1382.77 2238.36,1382.77 2243.46,1382.77 2246.15,1382.77 2248.84,1382.77 2253.94,1382.77 2259.05,1382.77 2261.74,1382.77 
  2264.43,1382.77 2269.53,1382.77 2274.63,1382.77 2277.32,1382.77 2280.01,1382.77 2285.12,1382.77 2290.22,1382.77 2292.91,1382.77 
  
  "/>
<polyline clip-path="url(#clip412)" style="stroke:#e26f46; stroke-width:4; stroke-opacity:1; fill:none" points="
  297.978,1382.77 300.669,1382.77 305.771,1382.77 310.872,1382.77 313.563,1382.77 316.255,1382.77 321.356,1382.77 326.458,1382.77 329.149,1382.77 
  331.84,1382.77 336.941,1382.77 342.043,1382.77 344.734,1382.77 347.425,1382.77 352.527,1382.77 357.628,1382.77 360.32,1382.77 
  363.011,1382.77 368.112,1382.77 373.214,1382.77 375.905,1382.77 378.596,1382.77 383.698,1382.77 388.799,1382.77 391.49,1382.77 
  394.181,1382.77 399.283,1382.77 404.385,1382.77 407.076,1382.77 409.767,1382.77 414.868,1382.77 419.97,1382.77 422.661,1382.77 
  425.352,1382.77 430.454,1382.77 435.555,1382.77 438.246,1382.77 440.938,1382.77 446.039,1382.77 451.141,1382.77 453.832,1382.77 
  456.523,1382.77 461.625,1382.77 466.726,1382.77 469.417,1382.77 472.108,1382.77 477.21,1382.77 482.311,1382.77 485.003,1382.77 
  487.694,1382.77 492.795,1382.77 497.897,1382.77 500.588,1382.77 503.279,1382.77 508.381,1382.77 513.482,1382.77 516.173,1382.77 
  518.865,1382.77 523.966,1382.77 529.068,1382.77 531.759,1382.77 534.45,1382.77 539.552,1382.77 544.653,1382.77 547.344,1382.77 
  550.035,1382.77 555.137,1382.77 560.238,1382.77 562.93,1382.77 565.621,1382.77 570.722,1382.77 575.824,1382.77 578.515,1382.77 
  581.206,1382.77 586.308,1382.77 591.409,1382.77 594.1,1382.77 596.792,1382.77 601.893,1382.77 606.995,1382.77 609.686,1382.77 
  612.377,1382.77 617.478,1382.77 622.58,1382.77 625.271,1382.77 627.962,1382.77 633.064,1382.77 638.165,1382.77 640.857,1382.77 
  643.548,1382.77 648.649,1382.77 653.751,1382.77 656.442,1382.77 659.133,1382.77 664.235,1382.77 669.336,1382.77 672.027,1382.77 
  674.719,1382.77 679.82,1382.77 684.922,1382.77 687.613,1382.77 690.304,1382.77 695.405,1382.77 700.507,1382.77 703.198,1382.77 
  705.889,1382.77 710.991,1382.77 716.092,1382.77 718.784,1382.77 721.475,1382.77 726.576,1382.77 731.678,1382.77 734.369,1382.77 
  737.06,1382.77 742.162,1382.77 747.263,1382.77 749.954,1382.77 752.645,1382.77 757.747,1382.77 762.849,1382.77 765.54,1382.77 
  768.231,1382.77 773.332,1382.77 778.434,1382.77 781.125,1382.77 783.816,1382.77 788.918,1382.77 794.019,1382.77 796.71,1382.77 
  799.402,1382.77 804.503,1382.77 809.605,1382.77 812.296,1382.77 814.987,1382.77 820.089,1382.77 825.19,1382.77 827.881,1382.77 
  830.572,1382.77 835.674,1382.77 840.775,1382.77 843.467,1382.77 846.158,1382.77 851.259,1382.77 856.361,1382.77 859.052,1382.77 
  861.743,1382.77 866.845,1382.77 871.946,1382.77 874.637,1382.77 877.329,1382.77 882.43,1382.77 887.532,1382.77 890.223,1382.77 
  892.914,1382.77 898.016,1382.77 903.117,1382.77 905.808,1382.77 908.499,1382.77 913.601,1382.77 918.702,1382.77 921.394,1382.77 
  924.085,1382.77 929.186,1382.77 934.288,1382.77 936.979,1382.77 939.67,1382.77 944.772,1382.77 949.873,1382.77 952.564,1382.77 
  955.256,1382.77 960.357,1382.77 965.459,1382.77 968.15,1382.77 970.841,1382.77 975.942,1382.77 981.044,1382.77 983.735,1382.77 
  986.426,1382.77 991.528,1382.77 996.629,1382.77 999.321,1382.77 1002.01,1382.77 1007.11,1382.77 1012.21,1382.77 1014.91,1382.77 
  1017.6,1382.77 1022.7,1382.77 1027.8,1382.77 1030.49,1382.77 1030.49,1382.77 1033.18,1382.77 1038.28,1382.77 1043.39,1382.77 1046.08,1382.77 
  1046.08,1382.77 1048.77,1382.77 1053.87,1382.77 1058.97,1382.77 1061.66,1382.77 1061.66,1382.77 1064.35,1382.77 1069.45,1382.77 1074.56,1382.77 1077.25,1382.77 
  1077.25,1382.77 1079.94,1382.77 1085.04,1382.77 1090.14,1382.77 1092.83,1382.77 1092.83,1382.77 1095.52,1382.77 1100.63,1382.77 1105.73,1382.77 1108.42,1382.77 
  1108.42,1382.77 1111.11,1382.77 1116.21,1382.77 1121.31,1382.77 1124,1382.77 1124,1382.77 1126.69,1382.77 1131.8,1382.77 1136.9,1382.77 1139.59,1382.77 
  1139.59,1382.77 1142.28,1382.77 1147.38,1382.77 1152.48,1382.77 1155.17,1382.77 1155.17,1382.77 1157.87,1382.77 1162.97,1382.77 1168.07,1382.77 1170.76,1382.77 
  1170.76,1382.77 1173.45,1382.77 1178.55,1382.77 1183.65,1382.77 1186.35,1382.77 1186.35,1382.77 1189.04,1382.77 1194.14,1382.77 1199.24,1382.77 1201.93,1382.77 
  1201.93,1382.77 1204.62,1382.77 1209.72,1382.74 1214.82,1382.68 1217.52,1382.64 1217.52,1382.65 1220.21,1382.6 1225.31,1382.56 1230.41,1382.57 1233.1,1382.58 
  1233.1,1382.54 1235.79,1382.62 1240.89,1382.69 1246,1382.46 1248.69,1382.11 1248.69,1381.93 1251.38,1382.26 1256.48,1382.4 1261.58,1382.03 1264.27,1381.69 
  1264.27,1379.06 1266.96,1381.43 1272.06,1382.96 1277.17,1375.65 1279.86,1366.25 1279.86,1364.85 1282.55,1327.3 1287.65,1200.15 1292.75,1004.31 1295.44,875.185 
  1295.44,885.632 1298.13,741.639 1303.24,494.629 1308.34,289.837 1311.03,202.132 1311.03,201.003 1313.72,145.296 1318.82,87.5547 1323.92,86.1857 1326.61,105.641 
  1326.61,100.044 1329.3,124.684 1334.41,162.619 1339.51,186.983 1342.2,193.529 1342.2,194.721 1344.89,192.511 1349.99,183.938 1355.09,171.864 1357.78,164.985 
  1357.78,165.296 1360.48,161.974 1365.58,159.826 1370.68,162.241 1373.37,165.003 1373.37,164.621 1376.06,166.961 1381.16,169.653 1386.26,170.173 1388.96,169.618 
  1388.96,169.799 1391.65,168.85 1396.75,167.479 1401.85,166.756 1404.54,166.672 1404.54,166.614 1407.23,166.882 1412.33,167.383 1417.43,167.791 1420.13,167.934 
  1420.13,167.949 1422.82,167.9 1427.92,167.742 1433.02,167.55 1435.71,167.456 1435.71,167.451 1438.4,167.457 1443.5,167.539 1448.61,167.682 1451.3,167.769 
  1451.3,167.764 1453.99,167.787 1459.09,167.699 1464.19,167.455 1466.88,167.271 1466.88,167.32 1469.57,167.141 1474.67,167.103 1479.78,167.508 1482.47,167.919 
  1482.47,167.748 1485.16,168.41 1490.26,169.178 1495.36,169.069 1498.05,168.564 1498.05,168.905 1500.74,167.437 1505.85,164.685 1510.95,162.535 1513.64,161.87 
  1513.64,161.719 1516.33,162.999 1521.43,168.335 1526.53,176.997 1529.22,182.71 1529.22,181.27 1531.92,186.23 1537.02,185.848 1542.12,171.631 1544.81,158.145 
  1544.81,163.019 1547.5,139.692 1552.6,105.893 1557.7,91.6153 1560.39,94.3186 1560.39,96.8274 1563.09,120.08 1568.19,218.898 1573.29,387.784 1575.98,504.461 
  1575.98,493.685 1578.67,632.717 1583.77,883.534 1588.87,1107.08 1591.57,1209.75 1591.57,1212.63 1594.26,1281.02 1599.36,1360.94 1604.46,1384.24 1607.15,1377.13 
  1607.15,1382.51 1609.84,1376.75 1614.94,1370.01 1620.05,1368.67 1622.74,1370.1 1622.74,1369.54 1625.43,1372.81 1630.53,1378.05 1635.63,1381.62 1638.32,1382.67 
  1638.32,1382.7 1641.01,1382.72 1646.11,1382.59 1651.22,1382.36 1653.91,1382.26 1653.91,1382.26 1656.6,1382.33 1661.7,1382.51 1666.8,1382.68 1669.49,1382.75 
  1669.49,1382.76 1672.18,1382.77 1677.29,1382.77 1682.39,1382.76 1685.08,1382.75 1685.08,1382.76 1687.77,1382.76 1692.87,1382.76 1697.97,1382.77 1700.66,1382.77 
  1700.66,1382.77 1703.35,1382.77 1708.46,1382.77 1713.56,1382.77 1716.25,1382.77 1716.25,1382.77 1718.94,1382.77 1724.04,1382.77 1729.14,1382.77 1731.83,1382.77 
  1731.83,1382.77 1734.53,1382.77 1739.63,1382.77 1744.73,1382.77 1747.42,1382.77 1747.42,1382.77 1750.11,1382.77 1755.21,1382.77 1760.31,1382.77 1763,1382.77 
  1763,1382.77 1765.7,1382.77 1770.8,1382.77 1775.9,1382.77 1778.59,1382.77 1778.59,1382.77 1781.28,1382.77 1786.38,1382.77 1791.48,1382.77 1794.18,1382.77 
  1794.18,1382.77 1796.87,1382.77 1801.97,1382.77 1807.07,1382.77 1809.76,1382.77 1809.76,1382.77 1812.45,1382.77 1817.55,1382.77 1822.66,1382.77 1825.35,1382.77 
  1825.35,1382.77 1828.04,1382.77 1833.14,1382.77 1838.24,1382.77 1840.93,1382.77 1840.93,1382.77 1843.62,1382.77 1848.72,1382.77 1853.83,1382.77 1856.52,1382.77 
  1856.52,1382.77 1859.21,1382.77 1864.31,1382.77 1869.41,1382.77 1872.1,1382.77 1874.79,1382.77 1879.9,1382.77 1885,1382.77 1887.69,1382.77 
  1890.38,1382.77 1895.48,1382.77 1900.58,1382.77 1903.27,1382.77 1905.96,1382.77 1911.07,1382.77 1916.17,1382.77 1918.86,1382.77 
  1921.55,1382.77 1926.65,1382.77 1931.75,1382.77 1934.44,1382.77 1937.14,1382.77 1942.24,1382.77 1947.34,1382.77 1950.03,1382.77 
  1952.72,1382.77 1957.82,1382.77 1962.92,1382.77 1965.61,1382.77 1968.31,1382.77 1973.41,1382.77 1978.51,1382.77 1981.2,1382.77 
  1983.89,1382.77 1988.99,1382.77 1994.09,1382.77 1996.79,1382.77 1999.48,1382.77 2004.58,1382.77 2009.68,1382.77 2012.37,1382.77 
  2015.06,1382.77 2020.16,1382.77 2025.27,1382.77 2027.96,1382.77 2030.65,1382.77 2035.75,1382.77 2040.85,1382.77 2043.54,1382.77 
  2046.23,1382.77 2051.33,1382.77 2056.44,1382.77 2059.13,1382.77 2061.82,1382.77 2066.92,1382.77 2072.02,1382.77 2074.71,1382.77 
  2077.4,1382.77 2082.51,1382.77 2087.61,1382.77 2090.3,1382.77 2092.99,1382.77 2098.09,1382.77 2103.19,1382.77 2105.88,1382.77 
  2108.57,1382.77 2113.68,1382.77 2118.78,1382.77 2121.47,1382.77 2124.16,1382.77 2129.26,1382.77 2134.36,1382.77 2137.05,1382.77 
  2139.75,1382.77 2144.85,1382.77 2149.95,1382.77 2152.64,1382.77 2155.33,1382.77 2160.43,1382.77 2165.53,1382.77 2168.22,1382.77 
  2170.92,1382.77 2176.02,1382.77 2181.12,1382.77 2183.81,1382.77 2186.5,1382.77 2191.6,1382.77 2196.7,1382.77 2199.4,1382.77 
  2202.09,1382.77 2207.19,1382.77 2212.29,1382.77 2214.98,1382.77 2217.67,1382.77 2222.77,1382.77 2227.88,1382.77 2230.57,1382.77 
  2233.26,1382.77 2238.36,1382.77 2243.46,1382.77 2246.15,1382.77 2248.84,1382.77 2253.94,1382.77 2259.05,1382.77 2261.74,1382.77 
  2264.43,1382.77 2269.53,1382.77 2274.63,1382.77 2277.32,1382.77 2280.01,1382.77 2285.12,1382.77 2290.22,1382.77 2292.91,1382.77 
  
  "/>
<path clip-path="url(#clip410)" d="
M1786.57 274.549 L2282.27 274.549 L2282.27 93.1086 L1786.57 93.1086  Z
  " fill="#ffffff" fill-rule="evenodd" fill-opacity="1"/>
<polyline clip-path="url(#clip410)" style="stroke:#000000; stroke-width:4; stroke-opacity:1; fill:none" points="
  1786.57,274.549 2282.27,274.549 2282.27,93.1086 1786.57,93.1086 1786.57,274.549 
  "/>
<polyline clip-path="url(#clip410)" style="stroke:#009af9; stroke-width:4; stroke-opacity:1; fill:none" points="
  1810.07,153.589 1951.04,153.589 
  "/>
<path clip-path="url(#clip410)" d="M 0 0 M1981.94 137.582 L1981.94 144.943 L1990.72 144.943 L1990.72 148.253 L1981.94 148.253 L1981.94 162.327 Q1981.94 165.498 1982.8 166.401 Q1983.68 167.304 1986.34 167.304 L1990.72 167.304 L1990.72 170.869 L1986.34 170.869 Q1981.41 170.869 1979.54 169.04 Q1977.66 167.188 1977.66 162.327 L1977.66 148.253 L1974.54 148.253 L1974.54 144.943 L1977.66 144.943 L1977.66 137.582 L1981.94 137.582 Z" fill="#000000" fill-rule="evenodd" fill-opacity="1" /><path clip-path="url(#clip410)" d="M 0 0 M1995.74 149.341 L2025.42 149.341 L2025.42 153.23 L1995.74 153.23 L1995.74 149.341 M1995.74 158.785 L2025.42 158.785 L2025.42 162.721 L1995.74 162.721 L1995.74 158.785 Z" fill="#000000" fill-rule="evenodd" fill-opacity="1" /><path clip-path="url(#clip410)" d="M 0 0 M2040.49 139.387 Q2036.87 139.387 2035.05 142.952 Q2033.24 146.494 2033.24 153.623 Q2033.24 160.73 2035.05 164.295 Q2036.87 167.836 2040.49 167.836 Q2044.12 167.836 2045.93 164.295 Q2047.75 160.73 2047.75 153.623 Q2047.75 146.494 2045.93 142.952 Q2044.12 139.387 2040.49 139.387 M2040.49 135.684 Q2046.3 135.684 2049.35 140.29 Q2052.43 144.873 2052.43 153.623 Q2052.43 162.35 2049.35 166.957 Q2046.3 171.54 2040.49 171.54 Q2034.68 171.54 2031.6 166.957 Q2028.54 162.35 2028.54 153.623 Q2028.54 144.873 2031.6 140.29 Q2034.68 135.684 2040.49 135.684 Z" fill="#000000" fill-rule="evenodd" fill-opacity="1" /><path clip-path="url(#clip410)" d="M 0 0 M2057.5 164.989 L2062.38 164.989 L2062.38 170.869 L2057.5 170.869 L2057.5 164.989 Z" fill="#000000" fill-rule="evenodd" fill-opacity="1" /><path clip-path="url(#clip410)" d="M 0 0 M2077.45 139.387 Q2073.84 139.387 2072.01 142.952 Q2070.21 146.494 2070.21 153.623 Q2070.21 160.73 2072.01 164.295 Q2073.84 167.836 2077.45 167.836 Q2081.09 167.836 2082.89 164.295 Q2084.72 160.73 2084.72 153.623 Q2084.72 146.494 2082.89 142.952 Q2081.09 139.387 2077.45 139.387 M2077.45 135.684 Q2083.26 135.684 2086.32 140.29 Q2089.4 144.873 2089.4 153.623 Q2089.4 162.35 2086.32 166.957 Q2083.26 171.54 2077.45 171.54 Q2071.64 171.54 2068.56 166.957 Q2065.51 162.35 2065.51 153.623 Q2065.51 144.873 2068.56 140.29 Q2071.64 135.684 2077.45 135.684 Z" fill="#000000" fill-rule="evenodd" fill-opacity="1" /><path clip-path="url(#clip410)" d="M 0 0 M2108.54 134.85 L2118.36 134.85 L2118.36 138.16 L2112.8 138.16 L2112.8 173.808 L2118.36 173.808 L2118.36 177.119 L2108.54 177.119 L2108.54 134.85 Z" fill="#000000" fill-rule="evenodd" fill-opacity="1" /><path clip-path="url(#clip410)" d="M 0 0 M2139.35 145.707 L2139.35 149.734 Q2137.55 148.809 2135.6 148.346 Q2133.66 147.883 2131.57 147.883 Q2128.4 147.883 2126.81 148.855 Q2125.23 149.827 2125.23 151.771 Q2125.23 153.253 2126.37 154.109 Q2127.5 154.943 2130.93 155.707 L2132.38 156.031 Q2136.92 157.003 2138.82 158.785 Q2140.74 160.545 2140.74 163.716 Q2140.74 167.327 2137.87 169.433 Q2135.02 171.54 2130.02 171.54 Q2127.94 171.54 2125.67 171.123 Q2123.43 170.73 2120.93 169.92 L2120.93 165.521 Q2123.29 166.748 2125.58 167.373 Q2127.87 167.975 2130.12 167.975 Q2133.12 167.975 2134.74 166.957 Q2136.37 165.915 2136.37 164.04 Q2136.37 162.304 2135.18 161.378 Q2134.03 160.452 2130.07 159.596 L2128.59 159.248 Q2124.63 158.415 2122.87 156.702 Q2121.11 154.966 2121.11 151.957 Q2121.11 148.299 2123.7 146.309 Q2126.3 144.318 2131.06 144.318 Q2133.43 144.318 2135.51 144.665 Q2137.59 145.012 2139.35 145.707 Z" fill="#000000" fill-rule="evenodd" fill-opacity="1" /><path clip-path="url(#clip410)" d="M 0 0 M2155.16 134.85 L2155.16 177.119 L2145.35 177.119 L2145.35 173.808 L2150.88 173.808 L2150.88 138.16 L2145.35 138.16 L2145.35 134.85 L2155.16 134.85 Z" fill="#000000" fill-rule="evenodd" fill-opacity="1" /><polyline clip-path="url(#clip410)" style="stroke:#e26f46; stroke-width:4; stroke-opacity:1; fill:none" points="
  1810.07,214.069 1951.04,214.069 
  "/>
<path clip-path="url(#clip410)" d="M 0 0 M1981.94 198.062 L1981.94 205.423 L1990.72 205.423 L1990.72 208.733 L1981.94 208.733 L1981.94 222.807 Q1981.94 225.978 1982.8 226.881 Q1983.68 227.784 1986.34 227.784 L1990.72 227.784 L1990.72 231.349 L1986.34 231.349 Q1981.41 231.349 1979.54 229.52 Q1977.66 227.668 1977.66 222.807 L1977.66 208.733 L1974.54 208.733 L1974.54 205.423 L1977.66 205.423 L1977.66 198.062 L1981.94 198.062 Z" fill="#000000" fill-rule="evenodd" fill-opacity="1" /><path clip-path="url(#clip410)" d="M 0 0 M1995.74 209.821 L2025.42 209.821 L2025.42 213.71 L1995.74 213.71 L1995.74 209.821 M1995.74 219.265 L2025.42 219.265 L2025.42 223.201 L1995.74 223.201 L1995.74 219.265 Z" fill="#000000" fill-rule="evenodd" fill-opacity="1" /><path clip-path="url(#clip410)" d="M 0 0 M2043.33 200.863 L2031.53 219.312 L2043.33 219.312 L2043.33 200.863 M2042.11 196.789 L2047.99 196.789 L2047.99 219.312 L2052.92 219.312 L2052.92 223.201 L2047.99 223.201 L2047.99 231.349 L2043.33 231.349 L2043.33 223.201 L2027.73 223.201 L2027.73 218.687 L2042.11 196.789 Z" fill="#000000" fill-rule="evenodd" fill-opacity="1" /><path clip-path="url(#clip410)" d="M 0 0 M2058.03 196.789 L2076.39 196.789 L2076.39 200.724 L2062.31 200.724 L2062.31 209.196 Q2063.33 208.849 2064.35 208.687 Q2065.37 208.502 2066.39 208.502 Q2072.18 208.502 2075.56 211.673 Q2078.93 214.844 2078.93 220.261 Q2078.93 225.839 2075.46 228.941 Q2071.99 232.02 2065.67 232.02 Q2063.5 232.02 2061.23 231.65 Q2058.98 231.279 2056.57 230.538 L2056.57 225.839 Q2058.66 226.974 2060.88 227.529 Q2063.1 228.085 2065.58 228.085 Q2069.58 228.085 2071.92 225.978 Q2074.26 223.872 2074.26 220.261 Q2074.26 216.65 2071.92 214.543 Q2069.58 212.437 2065.58 212.437 Q2063.7 212.437 2061.83 212.853 Q2059.98 213.27 2058.03 214.15 L2058.03 196.789 Z" fill="#000000" fill-rule="evenodd" fill-opacity="1" /><path clip-path="url(#clip410)" d="M 0 0 M2094 199.867 Q2090.39 199.867 2088.56 203.432 Q2086.76 206.974 2086.76 214.103 Q2086.76 221.21 2088.56 224.775 Q2090.39 228.316 2094 228.316 Q2097.64 228.316 2099.44 224.775 Q2101.27 221.21 2101.27 214.103 Q2101.27 206.974 2099.44 203.432 Q2097.64 199.867 2094 199.867 M2094 196.164 Q2099.81 196.164 2102.87 200.77 Q2105.95 205.353 2105.95 214.103 Q2105.95 222.83 2102.87 227.437 Q2099.81 232.02 2094 232.02 Q2088.19 232.02 2085.12 227.437 Q2082.06 222.83 2082.06 214.103 Q2082.06 205.353 2085.12 200.77 Q2088.19 196.164 2094 196.164 Z" fill="#000000" fill-rule="evenodd" fill-opacity="1" /><path clip-path="url(#clip410)" d="M 0 0 M2111.02 225.469 L2115.9 225.469 L2115.9 231.349 L2111.02 231.349 L2111.02 225.469 Z" fill="#000000" fill-rule="evenodd" fill-opacity="1" /><path clip-path="url(#clip410)" d="M 0 0 M2133.82 200.863 L2122.01 219.312 L2133.82 219.312 L2133.82 200.863 M2132.59 196.789 L2138.47 196.789 L2138.47 219.312 L2143.4 219.312 L2143.4 223.201 L2138.47 223.201 L2138.47 231.349 L2133.82 231.349 L2133.82 223.201 L2118.22 223.201 L2118.22 218.687 L2132.59 196.789 Z" fill="#000000" fill-rule="evenodd" fill-opacity="1" /><path clip-path="url(#clip410)" d="M 0 0 M2147.29 196.789 L2169.51 196.789 L2169.51 198.779 L2156.97 231.349 L2152.08 231.349 L2163.89 200.724 L2147.29 200.724 L2147.29 196.789 Z" fill="#000000" fill-rule="evenodd" fill-opacity="1" /><path clip-path="url(#clip410)" d="M 0 0 M2188.66 195.33 L2198.47 195.33 L2198.47 198.64 L2192.92 198.64 L2192.92 234.288 L2198.47 234.288 L2198.47 237.599 L2188.66 237.599 L2188.66 195.33 Z" fill="#000000" fill-rule="evenodd" fill-opacity="1" /><path clip-path="url(#clip410)" d="M 0 0 M2219.47 206.187 L2219.47 210.214 Q2217.66 209.289 2215.72 208.826 Q2213.77 208.363 2211.69 208.363 Q2208.52 208.363 2206.92 209.335 Q2205.35 210.307 2205.35 212.251 Q2205.35 213.733 2206.48 214.589 Q2207.61 215.423 2211.04 216.187 L2212.5 216.511 Q2217.04 217.483 2218.93 219.265 Q2220.86 221.025 2220.86 224.196 Q2220.86 227.807 2217.99 229.913 Q2215.14 232.02 2210.14 232.02 Q2208.05 232.02 2205.79 231.603 Q2203.54 231.21 2201.04 230.4 L2201.04 226.001 Q2203.4 227.228 2205.69 227.853 Q2207.99 228.455 2210.23 228.455 Q2213.24 228.455 2214.86 227.437 Q2216.48 226.395 2216.48 224.52 Q2216.48 222.784 2215.3 221.858 Q2214.14 220.932 2210.18 220.076 L2208.7 219.728 Q2204.74 218.895 2202.99 217.182 Q2201.23 215.446 2201.23 212.437 Q2201.23 208.779 2203.82 206.789 Q2206.41 204.798 2211.18 204.798 Q2213.54 204.798 2215.62 205.145 Q2217.71 205.492 2219.47 206.187 Z" fill="#000000" fill-rule="evenodd" fill-opacity="1" /><path clip-path="url(#clip410)" d="M 0 0 M2235.28 195.33 L2235.28 237.599 L2225.46 237.599 L2225.46 234.288 L2230.99 234.288 L2230.99 198.64 L2225.46 198.64 L2225.46 195.33 L2235.28 195.33 Z" fill="#000000" fill-rule="evenodd" fill-opacity="1" /></svg>
