<?xml version="1.0" encoding="utf-8"?>
<svg xmlns="http://www.w3.org/2000/svg" xmlns:xlink="http://www.w3.org/1999/xlink" width="600" height="400" viewBox="0 0 2400 1600">
<defs>
  <clipPath id="clip290">
    <rect x="0" y="0" width="2400" height="1600"/>
  </clipPath>
</defs>
<path clip-path="url(#clip290)" d="
M0 1600 L2400 1600 L2400 0 L0 0  Z
  " fill="#ffffff" fill-rule="evenodd" fill-opacity="1"/>
<defs>
  <clipPath id="clip291">
    <rect x="480" y="0" width="1681" height="1600"/>
  </clipPath>
</defs>
<path clip-path="url(#clip290)" d="
M238.13 1423.18 L2352.76 1423.18 L2352.76 47.2441 L238.13 47.2441  Z
  " fill="#ffffff" fill-rule="evenodd" fill-opacity="1"/>
<defs>
  <clipPath id="clip292">
    <rect x="238" y="47" width="2116" height="1377"/>
  </clipPath>
</defs>
<polyline clip-path="url(#clip292)" style="stroke:#000000; stroke-width:2; stroke-opacity:0.1; fill:none" points="
  297.978,1423.18 297.978,47.2441 
  "/>
<polyline clip-path="url(#clip292)" style="stroke:#000000; stroke-width:2; stroke-opacity:0.1; fill:none" points="
  867.958,1423.18 867.958,47.2441 
  "/>
<polyline clip-path="url(#clip292)" style="stroke:#000000; stroke-width:2; stroke-opacity:0.1; fill:none" points="
  1437.94,1423.18 1437.94,47.2441 
  "/>
<polyline clip-path="url(#clip292)" style="stroke:#000000; stroke-width:2; stroke-opacity:0.1; fill:none" points="
  2007.92,1423.18 2007.92,47.2441 
  "/>
<polyline clip-path="url(#clip290)" style="stroke:#000000; stroke-width:4; stroke-opacity:1; fill:none" points="
  238.13,1423.18 2352.76,1423.18 
  "/>
<polyline clip-path="url(#clip290)" style="stroke:#000000; stroke-width:4; stroke-opacity:1; fill:none" points="
  297.978,1423.18 297.978,1406.67 
  "/>
<polyline clip-path="url(#clip290)" style="stroke:#000000; stroke-width:4; stroke-opacity:1; fill:none" points="
  867.958,1423.18 867.958,1406.67 
  "/>
<polyline clip-path="url(#clip290)" style="stroke:#000000; stroke-width:4; stroke-opacity:1; fill:none" points="
  1437.94,1423.18 1437.94,1406.67 
  "/>
<polyline clip-path="url(#clip290)" style="stroke:#000000; stroke-width:4; stroke-opacity:1; fill:none" points="
  2007.92,1423.18 2007.92,1406.67 
  "/>
<path clip-path="url(#clip290)" d="M 0 0 M297.978 1452.37 Q294.367 1452.37 292.538 1455.94 Q290.733 1459.48 290.733 1466.61 Q290.733 1473.71 292.538 1477.28 Q294.367 1480.82 297.978 1480.82 Q301.612 1480.82 303.418 1477.28 Q305.246 1473.71 305.246 1466.61 Q305.246 1459.48 303.418 1455.94 Q301.612 1452.37 297.978 1452.37 M297.978 1448.67 Q303.788 1448.67 306.844 1453.27 Q309.922 1457.86 309.922 1466.61 Q309.922 1475.33 306.844 1479.94 Q303.788 1484.52 297.978 1484.52 Q292.168 1484.52 289.089 1479.94 Q286.034 1475.33 286.034 1466.61 Q286.034 1457.86 289.089 1453.27 Q292.168 1448.67 297.978 1448.67 Z" fill="#000000" fill-rule="evenodd" fill-opacity="1" /><path clip-path="url(#clip290)" d="M 0 0 M831.326 1479.92 L838.965 1479.92 L838.965 1453.55 L830.655 1455.22 L830.655 1450.96 L838.919 1449.29 L843.595 1449.29 L843.595 1479.92 L851.234 1479.92 L851.234 1483.85 L831.326 1483.85 L831.326 1479.92 Z" fill="#000000" fill-rule="evenodd" fill-opacity="1" /><path clip-path="url(#clip290)" d="M 0 0 M866.303 1452.37 Q862.692 1452.37 860.863 1455.94 Q859.058 1459.48 859.058 1466.61 Q859.058 1473.71 860.863 1477.28 Q862.692 1480.82 866.303 1480.82 Q869.937 1480.82 871.743 1477.28 Q873.571 1473.71 873.571 1466.61 Q873.571 1459.48 871.743 1455.94 Q869.937 1452.37 866.303 1452.37 M866.303 1448.67 Q872.113 1448.67 875.169 1453.27 Q878.247 1457.86 878.247 1466.61 Q878.247 1475.33 875.169 1479.94 Q872.113 1484.52 866.303 1484.52 Q860.493 1484.52 857.414 1479.94 Q854.359 1475.33 854.359 1466.61 Q854.359 1457.86 857.414 1453.27 Q860.493 1448.67 866.303 1448.67 Z" fill="#000000" fill-rule="evenodd" fill-opacity="1" /><path clip-path="url(#clip290)" d="M 0 0 M893.317 1452.37 Q889.706 1452.37 887.877 1455.94 Q886.071 1459.48 886.071 1466.61 Q886.071 1473.71 887.877 1477.28 Q889.706 1480.82 893.317 1480.82 Q896.951 1480.82 898.756 1477.28 Q900.585 1473.71 900.585 1466.61 Q900.585 1459.48 898.756 1455.94 Q896.951 1452.37 893.317 1452.37 M893.317 1448.67 Q899.127 1448.67 902.182 1453.27 Q905.261 1457.86 905.261 1466.61 Q905.261 1475.33 902.182 1479.94 Q899.127 1484.52 893.317 1484.52 Q887.506 1484.52 884.428 1479.94 Q881.372 1475.33 881.372 1466.61 Q881.372 1457.86 884.428 1453.27 Q887.506 1448.67 893.317 1448.67 Z" fill="#000000" fill-rule="evenodd" fill-opacity="1" /><path clip-path="url(#clip290)" d="M 0 0 M1405.58 1479.92 L1421.9 1479.92 L1421.9 1483.85 L1399.95 1483.85 L1399.95 1479.92 Q1402.61 1477.16 1407.2 1472.53 Q1411.8 1467.88 1412.98 1466.54 Q1415.23 1464.01 1416.11 1462.28 Q1417.01 1460.52 1417.01 1458.83 Q1417.01 1456.07 1415.07 1454.34 Q1413.15 1452.6 1410.04 1452.6 Q1407.85 1452.6 1405.39 1453.37 Q1402.96 1454.13 1400.18 1455.68 L1400.18 1450.96 Q1403.01 1449.82 1405.46 1449.25 Q1407.91 1448.67 1409.95 1448.67 Q1415.32 1448.67 1418.52 1451.35 Q1421.71 1454.04 1421.71 1458.53 Q1421.71 1460.66 1420.9 1462.58 Q1420.11 1464.48 1418.01 1467.07 Q1417.43 1467.74 1414.33 1470.96 Q1411.23 1474.15 1405.58 1479.92 Z" fill="#000000" fill-rule="evenodd" fill-opacity="1" /><path clip-path="url(#clip290)" d="M 0 0 M1436.97 1452.37 Q1433.35 1452.37 1431.53 1455.94 Q1429.72 1459.48 1429.72 1466.61 Q1429.72 1473.71 1431.53 1477.28 Q1433.35 1480.82 1436.97 1480.82 Q1440.6 1480.82 1442.41 1477.28 Q1444.23 1473.71 1444.23 1466.61 Q1444.23 1459.48 1442.41 1455.94 Q1440.6 1452.37 1436.97 1452.37 M1436.97 1448.67 Q1442.78 1448.67 1445.83 1453.27 Q1448.91 1457.86 1448.91 1466.61 Q1448.91 1475.33 1445.83 1479.94 Q1442.78 1484.52 1436.97 1484.52 Q1431.16 1484.52 1428.08 1479.94 Q1425.02 1475.33 1425.02 1466.61 Q1425.02 1457.86 1428.08 1453.27 Q1431.16 1448.67 1436.97 1448.67 Z" fill="#000000" fill-rule="evenodd" fill-opacity="1" /><path clip-path="url(#clip290)" d="M 0 0 M1463.98 1452.37 Q1460.37 1452.37 1458.54 1455.94 Q1456.73 1459.48 1456.73 1466.61 Q1456.73 1473.71 1458.54 1477.28 Q1460.37 1480.82 1463.98 1480.82 Q1467.61 1480.82 1469.42 1477.28 Q1471.25 1473.71 1471.25 1466.61 Q1471.25 1459.48 1469.42 1455.94 Q1467.61 1452.37 1463.98 1452.37 M1463.98 1448.67 Q1469.79 1448.67 1472.85 1453.27 Q1475.92 1457.86 1475.92 1466.61 Q1475.92 1475.33 1472.85 1479.94 Q1469.79 1484.52 1463.98 1484.52 Q1458.17 1484.52 1455.09 1479.94 Q1452.04 1475.33 1452.04 1466.61 Q1452.04 1457.86 1455.09 1453.27 Q1458.17 1448.67 1463.98 1448.67 Z" fill="#000000" fill-rule="evenodd" fill-opacity="1" /><path clip-path="url(#clip290)" d="M 0 0 M1985.15 1465.22 Q1988.51 1465.94 1990.38 1468.2 Q1992.28 1470.47 1992.28 1473.81 Q1992.28 1478.92 1988.76 1481.72 Q1985.24 1484.52 1978.76 1484.52 Q1976.59 1484.52 1974.27 1484.08 Q1971.98 1483.67 1969.53 1482.81 L1969.53 1478.3 Q1971.47 1479.43 1973.79 1480.01 Q1976.1 1480.59 1978.62 1480.59 Q1983.02 1480.59 1985.31 1478.85 Q1987.63 1477.12 1987.63 1473.81 Q1987.63 1470.75 1985.48 1469.04 Q1983.35 1467.3 1979.53 1467.3 L1975.5 1467.3 L1975.5 1463.46 L1979.71 1463.46 Q1983.16 1463.46 1984.99 1462.09 Q1986.82 1460.7 1986.82 1458.11 Q1986.82 1455.45 1984.92 1454.04 Q1983.05 1452.6 1979.53 1452.6 Q1977.61 1452.6 1975.41 1453.02 Q1973.21 1453.44 1970.57 1454.31 L1970.57 1450.15 Q1973.23 1449.41 1975.55 1449.04 Q1977.88 1448.67 1979.94 1448.67 Q1985.27 1448.67 1988.37 1451.1 Q1991.47 1453.5 1991.47 1457.63 Q1991.47 1460.5 1989.83 1462.49 Q1988.18 1464.45 1985.15 1465.22 Z" fill="#000000" fill-rule="evenodd" fill-opacity="1" /><path clip-path="url(#clip290)" d="M 0 0 M2007.35 1452.37 Q2003.74 1452.37 2001.91 1455.94 Q2000.11 1459.48 2000.11 1466.61 Q2000.11 1473.71 2001.91 1477.28 Q2003.74 1480.82 2007.35 1480.82 Q2010.99 1480.82 2012.79 1477.28 Q2014.62 1473.71 2014.62 1466.61 Q2014.62 1459.48 2012.79 1455.94 Q2010.99 1452.37 2007.35 1452.37 M2007.35 1448.67 Q2013.16 1448.67 2016.22 1453.27 Q2019.3 1457.86 2019.3 1466.61 Q2019.3 1475.33 2016.22 1479.94 Q2013.16 1484.52 2007.35 1484.52 Q2001.54 1484.52 1998.46 1479.94 Q1995.41 1475.33 1995.41 1466.61 Q1995.41 1457.86 1998.46 1453.27 Q2001.54 1448.67 2007.35 1448.67 Z" fill="#000000" fill-rule="evenodd" fill-opacity="1" /><path clip-path="url(#clip290)" d="M 0 0 M2034.36 1452.37 Q2030.75 1452.37 2028.92 1455.94 Q2027.12 1459.48 2027.12 1466.61 Q2027.12 1473.71 2028.92 1477.28 Q2030.75 1480.82 2034.36 1480.82 Q2038 1480.82 2039.8 1477.28 Q2041.63 1473.71 2041.63 1466.61 Q2041.63 1459.48 2039.8 1455.94 Q2038 1452.37 2034.36 1452.37 M2034.36 1448.67 Q2040.17 1448.67 2043.23 1453.27 Q2046.31 1457.86 2046.31 1466.61 Q2046.31 1475.33 2043.23 1479.94 Q2040.17 1484.52 2034.36 1484.52 Q2028.55 1484.52 2025.48 1479.94 Q2022.42 1475.33 2022.42 1466.61 Q2022.42 1457.86 2025.48 1453.27 Q2028.55 1448.67 2034.36 1448.67 Z" fill="#000000" fill-rule="evenodd" fill-opacity="1" /><path clip-path="url(#clip290)" d="M 0 0 M1312.06 1520.4 L1299.17 1537.74 L1312.73 1556.04 L1305.82 1556.04 L1295.44 1542.04 L1285.07 1556.04 L1278.16 1556.04 L1292.01 1537.39 L1279.34 1520.4 L1286.24 1520.4 L1295.7 1533.1 L1305.15 1520.4 L1312.06 1520.4 Z" fill="#000000" fill-rule="evenodd" fill-opacity="1" /><polyline clip-path="url(#clip292)" style="stroke:#000000; stroke-width:2; stroke-opacity:0.1; fill:none" points="
  238.13,1263.67 2352.76,1263.67 
  "/>
<polyline clip-path="url(#clip292)" style="stroke:#000000; stroke-width:2; stroke-opacity:0.1; fill:none" points="
  238.13,997.355 2352.76,997.355 
  "/>
<polyline clip-path="url(#clip292)" style="stroke:#000000; stroke-width:2; stroke-opacity:0.1; fill:none" points="
  238.13,731.041 2352.76,731.041 
  "/>
<polyline clip-path="url(#clip292)" style="stroke:#000000; stroke-width:2; stroke-opacity:0.1; fill:none" points="
  238.13,464.726 2352.76,464.726 
  "/>
<polyline clip-path="url(#clip292)" style="stroke:#000000; stroke-width:2; stroke-opacity:0.1; fill:none" points="
  238.13,198.412 2352.76,198.412 
  "/>
<polyline clip-path="url(#clip290)" style="stroke:#000000; stroke-width:4; stroke-opacity:1; fill:none" points="
  238.13,1423.18 238.13,47.2441 
  "/>
<polyline clip-path="url(#clip290)" style="stroke:#000000; stroke-width:4; stroke-opacity:1; fill:none" points="
  238.13,1263.67 263.506,1263.67 
  "/>
<polyline clip-path="url(#clip290)" style="stroke:#000000; stroke-width:4; stroke-opacity:1; fill:none" points="
  238.13,997.355 263.506,997.355 
  "/>
<polyline clip-path="url(#clip290)" style="stroke:#000000; stroke-width:4; stroke-opacity:1; fill:none" points="
  238.13,731.041 263.506,731.041 
  "/>
<polyline clip-path="url(#clip290)" style="stroke:#000000; stroke-width:4; stroke-opacity:1; fill:none" points="
  238.13,464.726 263.506,464.726 
  "/>
<polyline clip-path="url(#clip290)" style="stroke:#000000; stroke-width:4; stroke-opacity:1; fill:none" points="
  238.13,198.412 263.506,198.412 
  "/>
<path clip-path="url(#clip290)" d="M 0 0 M126.205 1249.47 Q122.593 1249.47 120.765 1253.03 Q118.959 1256.58 118.959 1263.7 Q118.959 1270.81 120.765 1274.38 Q122.593 1277.92 126.205 1277.92 Q129.839 1277.92 131.644 1274.38 Q133.473 1270.81 133.473 1263.7 Q133.473 1256.58 131.644 1253.03 Q129.839 1249.47 126.205 1249.47 M126.205 1245.77 Q132.015 1245.77 135.07 1250.37 Q138.149 1254.95 138.149 1263.7 Q138.149 1272.43 135.07 1277.04 Q132.015 1281.62 126.205 1281.62 Q120.394 1281.62 117.316 1277.04 Q114.26 1272.43 114.26 1263.7 Q114.26 1254.95 117.316 1250.37 Q120.394 1245.77 126.205 1245.77 Z" fill="#000000" fill-rule="evenodd" fill-opacity="1" /><path clip-path="url(#clip290)" d="M 0 0 M143.218 1275.07 L148.103 1275.07 L148.103 1280.95 L143.218 1280.95 L143.218 1275.07 Z" fill="#000000" fill-rule="evenodd" fill-opacity="1" /><path clip-path="url(#clip290)" d="M 0 0 M163.172 1249.47 Q159.561 1249.47 157.732 1253.03 Q155.927 1256.58 155.927 1263.7 Q155.927 1270.81 157.732 1274.38 Q159.561 1277.92 163.172 1277.92 Q166.806 1277.92 168.612 1274.38 Q170.44 1270.81 170.44 1263.7 Q170.44 1256.58 168.612 1253.03 Q166.806 1249.47 163.172 1249.47 M163.172 1245.77 Q168.982 1245.77 172.038 1250.37 Q175.116 1254.95 175.116 1263.7 Q175.116 1272.43 172.038 1277.04 Q168.982 1281.62 163.172 1281.62 Q157.362 1281.62 154.283 1277.04 Q151.228 1272.43 151.228 1263.7 Q151.228 1254.95 154.283 1250.37 Q157.362 1245.77 163.172 1245.77 Z" fill="#000000" fill-rule="evenodd" fill-opacity="1" /><path clip-path="url(#clip290)" d="M 0 0 M190.186 1249.47 Q186.575 1249.47 184.746 1253.03 Q182.94 1256.58 182.94 1263.7 Q182.94 1270.81 184.746 1274.38 Q186.575 1277.92 190.186 1277.92 Q193.82 1277.92 195.625 1274.38 Q197.454 1270.81 197.454 1263.7 Q197.454 1256.58 195.625 1253.03 Q193.82 1249.47 190.186 1249.47 M190.186 1245.77 Q195.996 1245.77 199.051 1250.37 Q202.13 1254.95 202.13 1263.7 Q202.13 1272.43 199.051 1277.04 Q195.996 1281.62 190.186 1281.62 Q184.376 1281.62 181.297 1277.04 Q178.241 1272.43 178.241 1263.7 Q178.241 1254.95 181.297 1250.37 Q184.376 1245.77 190.186 1245.77 Z" fill="#000000" fill-rule="evenodd" fill-opacity="1" /><path clip-path="url(#clip290)" d="M 0 0 M128.797 983.154 Q125.186 983.154 123.357 986.719 Q121.552 990.261 121.552 997.39 Q121.552 1004.5 123.357 1008.06 Q125.186 1011.6 128.797 1011.6 Q132.431 1011.6 134.237 1008.06 Q136.066 1004.5 136.066 997.39 Q136.066 990.261 134.237 986.719 Q132.431 983.154 128.797 983.154 M128.797 979.45 Q134.607 979.45 137.663 984.057 Q140.741 988.64 140.741 997.39 Q140.741 1006.12 137.663 1010.72 Q134.607 1015.31 128.797 1015.31 Q122.987 1015.31 119.908 1010.72 Q116.853 1006.12 116.853 997.39 Q116.853 988.64 119.908 984.057 Q122.987 979.45 128.797 979.45 Z" fill="#000000" fill-rule="evenodd" fill-opacity="1" /><path clip-path="url(#clip290)" d="M 0 0 M145.811 1008.76 L150.695 1008.76 L150.695 1014.64 L145.811 1014.64 L145.811 1008.76 Z" fill="#000000" fill-rule="evenodd" fill-opacity="1" /><path clip-path="url(#clip290)" d="M 0 0 M159.792 1010.7 L176.112 1010.7 L176.112 1014.64 L154.167 1014.64 L154.167 1010.7 Q156.829 1007.95 161.413 1003.32 Q166.019 998.663 167.2 997.321 Q169.445 994.798 170.325 993.061 Q171.227 991.302 171.227 989.612 Q171.227 986.858 169.283 985.122 Q167.362 983.386 164.26 983.386 Q162.061 983.386 159.607 984.15 Q157.177 984.913 154.399 986.464 L154.399 981.742 Q157.223 980.608 159.677 980.029 Q162.13 979.45 164.167 979.45 Q169.538 979.45 172.732 982.136 Q175.926 984.821 175.926 989.312 Q175.926 991.441 175.116 993.362 Q174.329 995.261 172.223 997.853 Q171.644 998.524 168.542 1001.74 Q165.44 1004.94 159.792 1010.7 Z" fill="#000000" fill-rule="evenodd" fill-opacity="1" /><path clip-path="url(#clip290)" d="M 0 0 M181.227 980.075 L199.584 980.075 L199.584 984.011 L185.51 984.011 L185.51 992.483 Q186.528 992.136 187.547 991.974 Q188.565 991.788 189.584 991.788 Q195.371 991.788 198.75 994.96 Q202.13 998.131 202.13 1003.55 Q202.13 1009.13 198.658 1012.23 Q195.186 1015.31 188.866 1015.31 Q186.69 1015.31 184.422 1014.94 Q182.176 1014.57 179.769 1013.83 L179.769 1009.13 Q181.852 1010.26 184.075 1010.82 Q186.297 1011.37 188.774 1011.37 Q192.778 1011.37 195.116 1009.27 Q197.454 1007.16 197.454 1003.55 Q197.454 999.936 195.116 997.83 Q192.778 995.724 188.774 995.724 Q186.899 995.724 185.024 996.14 Q183.172 996.557 181.227 997.436 L181.227 980.075 Z" fill="#000000" fill-rule="evenodd" fill-opacity="1" /><path clip-path="url(#clip290)" d="M 0 0 M127.2 716.839 Q123.589 716.839 121.76 720.404 Q119.955 723.946 119.955 731.076 Q119.955 738.182 121.76 741.747 Q123.589 745.288 127.2 745.288 Q130.834 745.288 132.64 741.747 Q134.468 738.182 134.468 731.076 Q134.468 723.946 132.64 720.404 Q130.834 716.839 127.2 716.839 M127.2 713.136 Q133.01 713.136 136.066 717.742 Q139.144 722.326 139.144 731.076 Q139.144 739.802 136.066 744.409 Q133.01 748.992 127.2 748.992 Q121.39 748.992 118.311 744.409 Q115.256 739.802 115.256 731.076 Q115.256 722.326 118.311 717.742 Q121.39 713.136 127.2 713.136 Z" fill="#000000" fill-rule="evenodd" fill-opacity="1" /><path clip-path="url(#clip290)" d="M 0 0 M144.214 742.441 L149.098 742.441 L149.098 748.321 L144.214 748.321 L144.214 742.441 Z" fill="#000000" fill-rule="evenodd" fill-opacity="1" /><path clip-path="url(#clip290)" d="M 0 0 M154.214 713.761 L172.57 713.761 L172.57 717.696 L158.496 717.696 L158.496 726.168 Q159.515 725.821 160.533 725.659 Q161.552 725.474 162.57 725.474 Q168.357 725.474 171.737 728.645 Q175.116 731.816 175.116 737.233 Q175.116 742.812 171.644 745.913 Q168.172 748.992 161.852 748.992 Q159.677 748.992 157.408 748.622 Q155.163 748.251 152.755 747.511 L152.755 742.812 Q154.839 743.946 157.061 744.501 Q159.283 745.057 161.76 745.057 Q165.765 745.057 168.102 742.95 Q170.44 740.844 170.44 737.233 Q170.44 733.622 168.102 731.515 Q165.765 729.409 161.76 729.409 Q159.885 729.409 158.01 729.826 Q156.158 730.242 154.214 731.122 L154.214 713.761 Z" fill="#000000" fill-rule="evenodd" fill-opacity="1" /><path clip-path="url(#clip290)" d="M 0 0 M190.186 716.839 Q186.575 716.839 184.746 720.404 Q182.94 723.946 182.94 731.076 Q182.94 738.182 184.746 741.747 Q186.575 745.288 190.186 745.288 Q193.82 745.288 195.625 741.747 Q197.454 738.182 197.454 731.076 Q197.454 723.946 195.625 720.404 Q193.82 716.839 190.186 716.839 M190.186 713.136 Q195.996 713.136 199.051 717.742 Q202.13 722.326 202.13 731.076 Q202.13 739.802 199.051 744.409 Q195.996 748.992 190.186 748.992 Q184.376 748.992 181.297 744.409 Q178.241 739.802 178.241 731.076 Q178.241 722.326 181.297 717.742 Q184.376 713.136 190.186 713.136 Z" fill="#000000" fill-rule="evenodd" fill-opacity="1" /><path clip-path="url(#clip290)" d="M 0 0 M128.103 450.525 Q124.492 450.525 122.663 454.09 Q120.857 457.631 120.857 464.761 Q120.857 471.867 122.663 475.432 Q124.492 478.974 128.103 478.974 Q131.737 478.974 133.542 475.432 Q135.371 471.867 135.371 464.761 Q135.371 457.631 133.542 454.09 Q131.737 450.525 128.103 450.525 M128.103 446.821 Q133.913 446.821 136.968 451.428 Q140.047 456.011 140.047 464.761 Q140.047 473.488 136.968 478.094 Q133.913 482.677 128.103 482.677 Q122.293 482.677 119.214 478.094 Q116.158 473.488 116.158 464.761 Q116.158 456.011 119.214 451.428 Q122.293 446.821 128.103 446.821 Z" fill="#000000" fill-rule="evenodd" fill-opacity="1" /><path clip-path="url(#clip290)" d="M 0 0 M145.116 476.127 L150.001 476.127 L150.001 482.006 L145.116 482.006 L145.116 476.127 Z" fill="#000000" fill-rule="evenodd" fill-opacity="1" /><path clip-path="url(#clip290)" d="M 0 0 M153.89 447.446 L176.112 447.446 L176.112 449.437 L163.565 482.006 L158.681 482.006 L170.487 451.381 L153.89 451.381 L153.89 447.446 Z" fill="#000000" fill-rule="evenodd" fill-opacity="1" /><path clip-path="url(#clip290)" d="M 0 0 M181.227 447.446 L199.584 447.446 L199.584 451.381 L185.51 451.381 L185.51 459.853 Q186.528 459.506 187.547 459.344 Q188.565 459.159 189.584 459.159 Q195.371 459.159 198.75 462.33 Q202.13 465.502 202.13 470.918 Q202.13 476.497 198.658 479.599 Q195.186 482.677 188.866 482.677 Q186.69 482.677 184.422 482.307 Q182.176 481.937 179.769 481.196 L179.769 476.497 Q181.852 477.631 184.075 478.187 Q186.297 478.742 188.774 478.742 Q192.778 478.742 195.116 476.636 Q197.454 474.529 197.454 470.918 Q197.454 467.307 195.116 465.201 Q192.778 463.094 188.774 463.094 Q186.899 463.094 185.024 463.511 Q183.172 463.928 181.227 464.807 L181.227 447.446 Z" fill="#000000" fill-rule="evenodd" fill-opacity="1" /><path clip-path="url(#clip290)" d="M 0 0 M118.242 211.756 L125.88 211.756 L125.88 185.391 L117.57 187.057 L117.57 182.798 L125.834 181.132 L130.51 181.132 L130.51 211.756 L138.149 211.756 L138.149 215.692 L118.242 215.692 L118.242 211.756 Z" fill="#000000" fill-rule="evenodd" fill-opacity="1" /><path clip-path="url(#clip290)" d="M 0 0 M143.218 209.812 L148.103 209.812 L148.103 215.692 L143.218 215.692 L143.218 209.812 Z" fill="#000000" fill-rule="evenodd" fill-opacity="1" /><path clip-path="url(#clip290)" d="M 0 0 M163.172 184.21 Q159.561 184.21 157.732 187.775 Q155.927 191.317 155.927 198.446 Q155.927 205.553 157.732 209.117 Q159.561 212.659 163.172 212.659 Q166.806 212.659 168.612 209.117 Q170.44 205.553 170.44 198.446 Q170.44 191.317 168.612 187.775 Q166.806 184.21 163.172 184.21 M163.172 180.507 Q168.982 180.507 172.038 185.113 Q175.116 189.696 175.116 198.446 Q175.116 207.173 172.038 211.779 Q168.982 216.363 163.172 216.363 Q157.362 216.363 154.283 211.779 Q151.228 207.173 151.228 198.446 Q151.228 189.696 154.283 185.113 Q157.362 180.507 163.172 180.507 Z" fill="#000000" fill-rule="evenodd" fill-opacity="1" /><path clip-path="url(#clip290)" d="M 0 0 M190.186 184.21 Q186.575 184.21 184.746 187.775 Q182.94 191.317 182.94 198.446 Q182.94 205.553 184.746 209.117 Q186.575 212.659 190.186 212.659 Q193.82 212.659 195.625 209.117 Q197.454 205.553 197.454 198.446 Q197.454 191.317 195.625 187.775 Q193.82 184.21 190.186 184.21 M190.186 180.507 Q195.996 180.507 199.051 185.113 Q202.13 189.696 202.13 198.446 Q202.13 207.173 199.051 211.779 Q195.996 216.363 190.186 216.363 Q184.376 216.363 181.297 211.779 Q178.241 207.173 178.241 198.446 Q178.241 189.696 181.297 185.113 Q184.376 180.507 190.186 180.507 Z" fill="#000000" fill-rule="evenodd" fill-opacity="1" /><path clip-path="url(#clip290)" d="M 0 0 M70.212 745.095 Q76.6732 745.095 80.3653 742.453 Q84.0256 739.779 84.0256 735.132 Q84.0256 730.485 80.3653 727.812 Q76.6732 725.138 70.212 725.138 Q63.7508 725.138 60.0905 727.812 Q56.3984 730.485 56.3984 735.132 Q56.3984 739.779 60.0905 742.453 Q63.7508 745.095 70.212 745.095 M82.657 725.138 Q85.8398 726.984 87.3994 729.817 Q88.9272 732.618 88.9272 736.565 Q88.9272 743.026 83.771 747.1 Q78.6147 751.142 70.212 751.142 Q61.8093 751.142 56.6531 747.1 Q51.4968 743.026 51.4968 736.565 Q51.4968 732.618 53.0564 729.817 Q54.5842 726.984 57.7671 725.138 L52.3562 725.138 L52.3562 719.282 L101.563 719.282 L101.563 725.138 L82.657 725.138 Z" fill="#000000" fill-rule="evenodd" fill-opacity="1" /><polyline clip-path="url(#clip292)" style="stroke:#009af9; stroke-width:4; stroke-opacity:1; fill:none" points="
  297.978,1263.67 300.669,1263.67 305.771,1263.67 310.872,1263.67 313.563,1263.67 316.255,1263.67 321.356,1263.67 326.458,1263.67 329.149,1263.67 
  331.84,1263.67 336.941,1263.67 342.043,1263.67 344.734,1263.67 347.425,1263.67 352.527,1263.67 357.628,1263.67 360.32,1263.67 
  363.011,1263.67 368.112,1263.67 373.214,1263.67 375.905,1263.67 378.596,1263.67 383.698,1263.67 388.799,1263.67 391.49,1263.67 
  394.181,1263.67 399.283,1263.67 404.385,1263.67 407.076,1263.67 409.767,1263.67 414.868,1263.67 419.97,1263.67 422.661,1263.67 
  425.352,1263.67 430.454,1263.67 435.555,1263.67 438.246,1263.67 440.938,1263.67 446.039,1263.67 451.141,1263.67 453.832,1263.67 
  456.523,1263.67 461.625,1263.67 466.726,1263.67 469.417,1263.67 472.108,1263.67 477.21,1263.67 482.311,1263.67 485.003,1263.67 
  487.694,1263.67 492.795,1263.67 497.897,1263.67 500.588,1263.67 503.279,1263.67 508.381,1263.67 513.482,1263.67 516.173,1263.67 
  518.865,1263.67 523.966,1263.67 529.068,1263.67 531.759,1263.67 534.45,1263.67 539.552,1263.67 544.653,1263.67 547.344,1263.67 
  550.035,1263.67 555.137,1263.67 560.238,1263.67 562.93,1263.67 565.621,1263.67 570.722,1263.67 575.824,1263.67 578.515,1263.67 
  581.206,1263.67 586.308,1263.67 591.409,1263.67 594.1,1263.67 596.792,1263.67 601.893,1263.67 606.995,1263.67 609.686,1263.67 
  612.377,1263.67 617.478,1263.67 622.58,1263.67 625.271,1263.67 627.962,1263.67 633.064,1263.67 638.165,1263.67 640.857,1263.67 
  643.548,1263.67 648.649,1263.67 653.751,1263.67 656.442,1263.67 659.133,1263.67 664.235,1263.67 669.336,1263.67 672.027,1263.67 
  674.719,1263.67 679.82,1263.67 684.922,1263.67 687.613,1263.67 690.304,1263.67 695.405,1263.67 700.507,1263.67 703.198,1263.67 
  705.889,1263.67 710.991,1263.67 716.092,1263.67 718.784,1263.67 721.475,1263.67 726.576,198.412 731.678,198.412 734.369,198.412 
  737.06,198.412 742.162,198.412 747.263,198.412 749.954,198.412 752.645,198.412 757.747,198.412 762.849,198.412 765.54,198.412 
  768.231,198.412 773.332,198.412 778.434,198.412 781.125,198.412 783.816,198.412 788.918,198.412 794.019,198.412 796.71,198.412 
  799.402,198.412 804.503,198.412 809.605,198.412 812.296,198.412 814.987,198.412 820.089,198.412 825.19,198.412 827.881,198.412 
  830.572,198.412 835.674,198.412 840.775,198.412 843.467,198.412 846.158,198.412 851.259,198.412 856.361,198.412 859.052,198.412 
  861.743,198.412 866.845,198.412 871.946,198.412 874.637,198.412 877.329,198.412 882.43,198.412 887.532,198.412 890.223,198.412 
  892.914,198.412 898.016,198.412 903.117,198.412 905.808,198.412 908.499,198.412 913.601,198.412 918.702,198.412 921.394,198.412 
  924.085,198.412 929.186,198.412 934.288,198.412 936.979,198.412 939.67,198.412 944.772,198.412 949.873,198.412 952.564,198.412 
  955.256,198.412 960.357,198.412 965.459,198.412 968.15,198.412 970.841,198.412 975.942,198.412 981.044,198.412 983.735,198.412 
  986.426,198.412 991.528,198.412 996.629,198.412 999.321,198.412 1002.01,198.412 1007.11,198.412 1012.21,1263.67 1014.91,1263.67 
  1017.6,1263.67 1022.7,1263.67 1027.8,1263.67 1030.49,1263.67 1033.18,1263.67 1038.28,1263.67 1043.39,1263.67 1046.08,1263.67 
  1048.77,1263.67 1053.87,1263.67 1058.97,1263.67 1061.66,1263.67 1064.35,1263.67 1069.45,1263.67 1074.56,1263.67 1077.25,1263.67 
  1079.94,1263.67 1085.04,1263.67 1090.14,1263.67 1092.83,1263.67 1095.52,1263.67 1100.63,1263.67 1105.73,1263.67 1108.42,1263.67 
  1111.11,1263.67 1116.21,1263.67 1121.31,1263.67 1124,1263.67 1126.69,1263.67 1131.8,1263.67 1136.9,1263.67 1139.59,1263.67 
  1142.28,1263.67 1147.38,1263.67 1152.48,1263.67 1155.17,1263.67 1157.87,1263.67 1162.97,1263.67 1168.07,1263.67 1170.76,1263.67 
  1173.45,1263.67 1178.55,1263.67 1183.65,1263.67 1186.35,1263.67 1189.04,1263.67 1194.14,1263.67 1199.24,1263.67 1201.93,1263.67 
  1204.62,1263.67 1209.72,1263.67 1214.82,1263.67 1217.52,1263.67 1220.21,1263.67 1225.31,1263.67 1230.41,1263.67 1233.1,1263.67 
  1235.79,1263.67 1240.89,1263.67 1246,1263.67 1248.69,1263.67 1251.38,1263.67 1256.48,1263.67 1261.58,1263.67 1264.27,1263.67 
  1266.96,1263.67 1272.06,1263.67 1277.17,1263.67 1279.86,1263.67 1282.55,1263.67 1287.65,1263.67 1292.75,1263.67 1295.44,1263.67 
  1298.13,1263.67 1303.24,1263.67 1308.34,1263.67 1311.03,1263.67 1313.72,1263.67 1318.82,1263.67 1323.92,1263.67 1326.61,1263.67 
  1329.3,1263.67 1334.41,1263.67 1339.51,1263.67 1342.2,1263.67 1344.89,1263.67 1349.99,1263.67 1355.09,1263.67 1357.78,1263.67 
  1360.48,1263.67 1365.58,1263.67 1370.68,1263.67 1373.37,1263.67 1376.06,1263.67 1381.16,1263.67 1386.26,1263.67 1388.96,1263.67 
  1391.65,1263.67 1396.75,1263.67 1401.85,1263.67 1404.54,1263.67 1407.23,1263.67 1412.33,1263.67 1417.43,1263.67 1420.13,1263.67 
  1422.82,1263.67 1427.92,1263.67 1433.02,1263.67 1435.71,1263.67 1438.4,1263.67 1443.5,1263.67 1448.61,1263.67 1451.3,1263.67 
  1453.99,1263.67 1459.09,1263.67 1464.19,1263.67 1466.88,1263.67 1469.57,1263.67 1474.67,1263.67 1479.78,1263.67 1482.47,1263.67 
  1485.16,1263.67 1490.26,1263.67 1495.36,1263.67 1498.05,1263.67 1500.74,1263.67 1505.85,1263.67 1510.95,1263.67 1513.64,1263.67 
  1516.33,1263.67 1521.43,1263.67 1526.53,1263.67 1529.22,1263.67 1531.92,1263.67 1537.02,1263.67 1542.12,1263.67 1544.81,1263.67 
  1547.5,1263.67 1552.6,1263.67 1557.7,1263.67 1560.39,1263.67 1563.09,1263.67 1568.19,1263.67 1573.29,1263.67 1575.98,1263.67 
  1578.67,1263.67 1583.77,1263.67 1588.87,1263.67 1591.57,1263.67 1594.26,1263.67 1599.36,1263.67 1604.46,1263.67 1607.15,1263.67 
  1609.84,1263.67 1614.94,1263.67 1620.05,1263.67 1622.74,1263.67 1625.43,1263.67 1630.53,1263.67 1635.63,1263.67 1638.32,1263.67 
  1641.01,1263.67 1646.11,1263.67 1651.22,1263.67 1653.91,1263.67 1656.6,1263.67 1661.7,1263.67 1666.8,1263.67 1669.49,1263.67 
  1672.18,1263.67 1677.29,1263.67 1682.39,1263.67 1685.08,1263.67 1687.77,1263.67 1692.87,1263.67 1697.97,1263.67 1700.66,1263.67 
  1703.35,1263.67 1708.46,1263.67 1713.56,1263.67 1716.25,1263.67 1718.94,1263.67 1724.04,1263.67 1729.14,1263.67 1731.83,1263.67 
  1734.53,1263.67 1739.63,1263.67 1744.73,1263.67 1747.42,1263.67 1750.11,1263.67 1755.21,1263.67 1760.31,1263.67 1763,1263.67 
  1765.7,1263.67 1770.8,1263.67 1775.9,1263.67 1778.59,1263.67 1781.28,1263.67 1786.38,1263.67 1791.48,1263.67 1794.18,1263.67 
  1796.87,1263.67 1801.97,1263.67 1807.07,1263.67 1809.76,1263.67 1812.45,1263.67 1817.55,1263.67 1822.66,1263.67 1825.35,1263.67 
  1828.04,1263.67 1833.14,1263.67 1838.24,1263.67 1840.93,1263.67 1843.62,1263.67 1848.72,1263.67 1853.83,1263.67 1856.52,1263.67 
  1859.21,1263.67 1864.31,1263.67 1869.41,1263.67 1872.1,1263.67 1874.79,1263.67 1879.9,1263.67 1885,1263.67 1887.69,1263.67 
  1890.38,1263.67 1895.48,1263.67 1900.58,1263.67 1903.27,1263.67 1905.96,1263.67 1911.07,1263.67 1916.17,1263.67 1918.86,1263.67 
  1921.55,1263.67 1926.65,1263.67 1931.75,1263.67 1934.44,1263.67 1937.14,1263.67 1942.24,1263.67 1947.34,1263.67 1950.03,1263.67 
  1952.72,1263.67 1957.82,1263.67 1962.92,1263.67 1965.61,1263.67 1968.31,1263.67 1973.41,1263.67 1978.51,1263.67 1981.2,1263.67 
  1983.89,1263.67 1988.99,1263.67 1994.09,1263.67 1996.79,1263.67 1999.48,1263.67 2004.58,1263.67 2009.68,1263.67 2012.37,1263.67 
  2015.06,1263.67 2020.16,1263.67 2025.27,1263.67 2027.96,1263.67 2030.65,1263.67 2035.75,1263.67 2040.85,1263.67 2043.54,1263.67 
  2046.23,1263.67 2051.33,1263.67 2056.44,1263.67 2059.13,1263.67 2061.82,1263.67 2066.92,1263.67 2072.02,1263.67 2074.71,1263.67 
  2077.4,1263.67 2082.51,1263.67 2087.61,1263.67 2090.3,1263.67 2092.99,1263.67 2098.09,1263.67 2103.19,1263.67 2105.88,1263.67 
  2108.57,1263.67 2113.68,1263.67 2118.78,1263.67 2121.47,1263.67 2124.16,1263.67 2129.26,1263.67 2134.36,1263.67 2137.05,1263.67 
  2139.75,1263.67 2144.85,1263.67 2149.95,1263.67 2152.64,1263.67 2155.33,1263.67 2160.43,1263.67 2165.53,1263.67 2168.22,1263.67 
  2170.92,1263.67 2176.02,1263.67 2181.12,1263.67 2183.81,1263.67 2186.5,1263.67 2191.6,1263.67 2196.7,1263.67 2199.4,1263.67 
  2202.09,1263.67 2207.19,1263.67 2212.29,1263.67 2214.98,1263.67 2217.67,1263.67 2222.77,1263.67 2227.88,1263.67 2230.57,1263.67 
  2233.26,1263.67 2238.36,1263.67 2243.46,1263.67 2246.15,1263.67 2248.84,1263.67 2253.94,1263.67 2259.05,1263.67 2261.74,1263.67 
  2264.43,1263.67 2269.53,1263.67 2274.63,1263.67 2277.32,1263.67 2280.01,1263.67 2285.12,1263.67 2290.22,1263.67 2292.91,1263.67 
  
  "/>
<polyline clip-path="url(#clip292)" style="stroke:#e26f46; stroke-width:4; stroke-opacity:1; fill:none" points="
  297.978,1263.67 300.669,1263.67 305.771,1263.67 310.872,1263.67 313.563,1263.67 316.255,1263.67 321.356,1263.67 326.458,1263.67 329.149,1263.67 
  331.84,1263.67 336.941,1263.67 342.043,1263.67 344.734,1263.67 347.425,1263.67 352.527,1263.67 357.628,1263.67 360.32,1263.67 
  360.32,1263.67 363.011,1263.67 368.112,1263.67 373.214,1263.67 375.905,1263.67 378.596,1263.67 383.698,1263.67 388.799,1263.67 391.49,1263.67 
  391.49,1263.67 394.181,1263.67 399.283,1263.67 404.385,1263.67 407.076,1263.67 409.767,1263.67 414.868,1263.67 419.97,1263.67 422.661,1263.67 
  422.661,1263.67 425.352,1263.67 430.454,1263.67 435.555,1263.67 438.246,1263.67 438.246,1263.67 440.938,1263.67 446.039,1263.67 451.141,1263.67 453.832,1263.67 
  453.832,1263.67 456.523,1263.67 461.625,1263.67 466.726,1263.67 469.417,1263.67 469.417,1263.67 472.108,1263.67 477.21,1263.67 482.311,1263.67 485.003,1263.67 
  485.003,1263.67 487.694,1263.67 492.795,1263.67 497.897,1263.67 500.588,1263.67 500.588,1263.67 503.279,1263.67 508.381,1263.67 513.482,1263.67 516.173,1263.67 
  516.173,1263.67 518.865,1263.67 523.966,1263.67 529.068,1263.67 531.759,1263.67 531.759,1263.67 534.45,1263.67 539.552,1263.67 544.653,1263.67 547.344,1263.67 
  547.344,1263.67 550.035,1263.67 555.137,1263.67 560.238,1263.67 562.93,1263.67 562.93,1263.67 565.621,1263.67 570.722,1263.67 575.824,1263.67 578.515,1263.67 
  578.515,1263.67 581.206,1263.67 586.308,1263.67 591.409,1263.67 594.1,1263.67 594.1,1263.67 596.792,1263.67 601.893,1263.67 606.995,1263.67 609.686,1263.67 
  609.686,1263.67 612.377,1263.67 617.478,1263.67 622.58,1263.67 625.271,1263.67 625.271,1263.67 627.962,1263.67 633.064,1263.67 638.165,1263.67 640.857,1263.67 
  640.857,1263.67 643.548,1263.67 648.649,1263.67 653.751,1263.67 656.442,1263.67 656.442,1263.67 659.133,1263.67 664.235,1263.67 669.336,1263.67 672.027,1263.67 
  672.027,1263.67 674.719,1263.67 679.82,1263.67 684.922,1263.67 687.613,1263.67 687.613,1263.67 690.304,1263.67 695.405,1263.67 700.507,1263.67 703.198,1263.67 
  703.198,1263.67 705.889,1263.67 710.991,1263.67 716.092,1263.67 718.784,1263.67 718.784,1263.67 721.475,1263.67 726.576,1263.67 731.678,1263.67 734.369,1263.67 
  734.369,1263.67 737.06,1263.67 742.162,1263.67 747.263,1263.67 749.954,1263.67 749.954,1263.67 752.645,1263.67 757.747,1263.67 762.849,1263.67 765.54,1263.67 
  765.54,1263.67 768.231,1263.67 773.332,1263.67 778.434,1263.67 781.125,1263.67 781.125,1263.67 783.816,1263.67 788.918,1263.67 794.019,1263.67 796.71,1263.67 
  796.71,1263.67 799.402,1263.67 804.503,1263.67 809.605,1263.67 812.296,1263.67 812.296,1263.67 814.987,1263.67 820.089,1263.67 825.19,1263.67 827.881,1263.67 
  827.881,1263.67 830.572,1263.67 835.674,1263.67 840.775,1263.67 843.467,1263.67 843.467,1263.67 846.158,1263.67 851.259,1263.67 856.361,1263.67 859.052,1263.67 
  859.052,1263.67 861.743,1263.67 866.845,1263.67 871.946,1263.67 874.637,1263.67 874.637,1263.67 877.329,1263.67 882.43,1263.67 887.532,1263.67 890.223,1263.67 
  890.223,1263.67 892.914,1263.67 898.016,1263.67 903.117,1263.67 905.808,1263.67 905.808,1263.67 908.499,1263.67 913.601,1263.67 918.702,1263.67 921.394,1263.67 
  921.394,1263.67 924.085,1263.67 929.186,1263.67 934.288,1263.68 936.979,1263.67 936.979,1263.67 939.67,1263.66 944.772,1263.66 949.873,1263.67 952.564,1263.68 
  952.564,1263.68 955.256,1263.69 960.357,1263.67 965.459,1263.65 968.15,1263.66 968.15,1263.65 970.841,1263.67 975.942,1263.7 981.044,1263.68 983.735,1263.64 
  983.735,1263.66 986.426,1263.62 991.528,1263.65 996.629,1263.72 999.321,1263.73 999.321,1263.73 1002.01,1263.71 1007.11,1263.61 1012.21,1263.59 1014.91,1263.67 
  1014.91,1263.63 1017.6,1263.75 1022.7,1263.78 1027.8,1263.63 1030.49,1263.5 1030.49,1263.55 1033.18,1263.47 1038.28,1263.7 1043.39,1263.94 1046.08,1263.87 
  1046.08,1263.92 1048.77,1263.7 1053.87,1263.34 1058.97,1263.46 1061.66,1263.86 1061.66,1263.67 1064.35,1264.14 1069.45,1264.01 1074.56,1263.27 1077.25,1262.93 
  1077.25,1263.05 1079.94,1263.01 1085.04,1264.03 1090.14,1264.69 1092.83,1264.17 1092.83,1264.46 1095.52,1263.42 1100.63,1262.38 1105.73,1263.23 1108.42,1264.72 
  1108.42,1264.09 1111.11,1265.54 1116.21,1264.61 1121.31,1261.93 1124,1261.04 1124,1261.29 1126.69,1261.59 1131.8,1265.24 1136.9,1267.17 1139.59,1265.18 
  1139.59,1266.13 1142.28,1262.58 1147.38,1259.25 1152.48,1262.22 1155.17,1267.08 1155.17,1265.21 1157.87,1269.79 1162.97,1267.14 1168.07,1258.51 1170.76,1255.1 
  1170.76,1256.07 1173.45,1256.25 1178.55,1267.32 1183.65,1275.04 1186.35,1270.78 1186.35,1272.73 1189.04,1263.5 1194.14,1250.5 1199.24,1254.76 1201.93,1268.53 
  1201.93,1263.68 1204.62,1278.58 1209.72,1279.57 1214.82,1257.31 1217.52,1241.21 1217.52,1245.99 1220.21,1237.22 1225.31,1259.79 1230.41,1292.34 1233.1,1296.87 
  1233.1,1296.4 1235.79,1285.93 1240.89,1241.55 1246,1219.5 1248.69,1238.79 1248.69,1232.57 1251.38,1266.64 1256.48,1314.17 1261.58,1300.88 1264.27,1253.87 
  1264.27,1267.17 1266.96,1216.11 1272.06,1198.29 1277.17,1274.22 1279.86,1348.15 1279.86,1329.35 1282.55,1384.24 1287.65,1306.55 1292.75,1015.57 1295.44,786.074 
  1295.44,804.156 1298.13,571.216 1303.24,256.728 1308.34,123.926 1311.03,133.235 1311.03,122.124 1313.72,154.998 1318.82,206.967 1323.92,225.655 1326.61,214.153 
  1326.61,218.61 1329.3,204.42 1334.41,190.277 1339.51,190.873 1342.2,196.337 1342.2,195.18 1344.89,199.651 1349.99,201.548 1355.09,199.156 1357.78,197.907 
  1357.78,197.788 1360.48,197.579 1365.58,198.089 1370.68,198.444 1373.37,198.03 1373.37,198.374 1376.06,197.881 1381.16,198.556 1386.26,199.48 1388.96,199.318 
  1388.96,199.449 1391.65,198.614 1396.75,196.966 1401.85,197.256 1404.54,199.003 1404.54,198.223 1407.23,200.331 1412.33,200.294 1417.43,197.184 1420.13,195.194 
  1420.13,195.901 1422.82,195.02 1427.92,199 1433.02,202.926 1435.71,201.974 1435.71,202.563 1438.4,199.306 1443.5,193.343 1448.61,194.077 1451.3,199.751 
  1451.3,197.496 1453.99,204.225 1459.09,205.263 1464.19,195.914 1466.88,188.794 1466.88,191.157 1469.57,187.07 1474.67,197.482 1479.78,211.428 1482.47,212.052 
  1482.47,212.362 1485.16,206.082 1490.26,186.274 1495.36,180.569 1498.05,193.095 1498.05,188.495 1500.74,206.812 1505.85,222.243 1510.95,206.044 1513.64,182.186 
  1513.64,189.601 1516.33,168.185 1521.43,175.954 1526.53,216.966 1529.22,239.877 1529.22,233.782 1531.92,242.259 1537.02,199.856 1542.12,148.079 1544.81,144.056 
  1544.81,143.814 1547.5,164.444 1552.6,238.041 1557.7,270.937 1560.39,237.298 1560.39,245.321 1563.09,182.895 1568.19,86.1857 1573.29,133.753 1575.98,263.696 
  1575.98,253.529 1578.67,442.891 1583.77,851.74 1588.87,1189.74 1591.57,1284.64 1591.57,1291.21 1594.26,1331.72 1599.36,1314.58 1604.46,1256.69 1607.15,1242.88 
  1607.15,1239.66 1609.84,1238.58 1614.94,1254.56 1620.05,1271.86 1622.74,1272.54 1622.74,1274.24 1625.43,1270.87 1630.53,1263.57 1635.63,1259.87 1638.32,1261.32 
  1638.32,1260.58 1641.01,1262.65 1646.11,1264.78 1651.22,1264.72 1653.91,1263.87 1653.91,1264.06 1656.6,1263.4 1661.7,1263.18 1666.8,1263.61 1669.49,1263.82 
  1669.49,1263.83 1672.18,1263.88 1677.29,1263.75 1682.39,1263.59 1685.08,1263.6 1685.08,1263.57 1687.77,1263.62 1692.87,1263.69 1697.97,1263.7 1700.66,1263.68 
  1700.66,1263.69 1703.35,1263.66 1708.46,1263.66 1713.56,1263.67 1716.25,1263.67 1716.25,1263.68 1718.94,1263.68 1724.04,1263.67 1729.14,1263.67 1731.83,1263.67 
  1731.83,1263.67 1734.53,1263.67 1739.63,1263.67 1744.73,1263.67 1747.42,1263.67 1747.42,1263.67 1750.11,1263.67 1755.21,1263.67 1760.31,1263.67 1763,1263.67 
  1763,1263.67 1765.7,1263.67 1770.8,1263.67 1775.9,1263.67 1778.59,1263.67 1778.59,1263.67 1781.28,1263.67 1786.38,1263.67 1791.48,1263.67 1794.18,1263.67 
  1794.18,1263.67 1796.87,1263.67 1801.97,1263.67 1807.07,1263.67 1809.76,1263.67 1809.76,1263.67 1812.45,1263.67 1817.55,1263.67 1822.66,1263.67 1825.35,1263.67 
  1825.35,1263.67 1828.04,1263.67 1833.14,1263.67 1838.24,1263.67 1840.93,1263.67 1840.93,1263.67 1843.62,1263.67 1848.72,1263.67 1853.83,1263.67 1856.52,1263.67 
  1856.52,1263.67 1859.21,1263.67 1864.31,1263.67 1869.41,1263.67 1872.1,1263.67 1872.1,1263.67 1874.79,1263.67 1879.9,1263.67 1885,1263.67 1887.69,1263.67 
  1887.69,1263.67 1890.38,1263.67 1895.48,1263.67 1900.58,1263.67 1903.27,1263.67 1903.27,1263.67 1905.96,1263.67 1911.07,1263.67 1916.17,1263.67 1918.86,1263.67 
  1918.86,1263.67 1921.55,1263.67 1926.65,1263.67 1931.75,1263.67 1934.44,1263.67 1934.44,1263.67 1937.14,1263.67 1942.24,1263.67 1947.34,1263.67 1950.03,1263.67 
  1950.03,1263.67 1952.72,1263.67 1957.82,1263.67 1962.92,1263.67 1965.61,1263.67 1965.61,1263.67 1968.31,1263.67 1973.41,1263.67 1978.51,1263.67 1981.2,1263.67 
  1981.2,1263.67 1983.89,1263.67 1988.99,1263.67 1994.09,1263.67 1996.79,1263.67 1996.79,1263.67 1999.48,1263.67 2004.58,1263.67 2009.68,1263.67 2012.37,1263.67 
  2012.37,1263.67 2015.06,1263.67 2020.16,1263.67 2025.27,1263.67 2027.96,1263.67 2030.65,1263.67 2035.75,1263.67 2040.85,1263.67 2043.54,1263.67 
  2046.23,1263.67 2051.33,1263.67 2056.44,1263.67 2059.13,1263.67 2061.82,1263.67 2066.92,1263.67 2072.02,1263.67 2074.71,1263.67 
  2077.4,1263.67 2082.51,1263.67 2087.61,1263.67 2090.3,1263.67 2092.99,1263.67 2098.09,1263.67 2103.19,1263.67 2105.88,1263.67 
  2108.57,1263.67 2113.68,1263.67 2118.78,1263.67 2121.47,1263.67 2124.16,1263.67 2129.26,1263.67 2134.36,1263.67 2137.05,1263.67 
  2139.75,1263.67 2144.85,1263.67 2149.95,1263.67 2152.64,1263.67 2155.33,1263.67 2160.43,1263.67 2165.53,1263.67 2168.22,1263.67 
  2170.92,1263.67 2176.02,1263.67 2181.12,1263.67 2183.81,1263.67 2186.5,1263.67 2191.6,1263.67 2196.7,1263.67 2199.4,1263.67 
  2202.09,1263.67 2207.19,1263.67 2212.29,1263.67 2214.98,1263.67 2217.67,1263.67 2222.77,1263.67 2227.88,1263.67 2230.57,1263.67 
  2233.26,1263.67 2238.36,1263.67 2243.46,1263.67 2246.15,1263.67 2248.84,1263.67 2253.94,1263.67 2259.05,1263.67 2261.74,1263.67 
  2264.43,1263.67 2269.53,1263.67 2274.63,1263.67 2277.32,1263.67 2280.01,1263.67 2285.12,1263.67 2290.22,1263.67 2292.91,1263.67 
  
  "/>
<path clip-path="url(#clip290)" d="
M1786.57 274.549 L2282.27 274.549 L2282.27 93.1086 L1786.57 93.1086  Z
  " fill="#ffffff" fill-rule="evenodd" fill-opacity="1"/>
<polyline clip-path="url(#clip290)" style="stroke:#000000; stroke-width:4; stroke-opacity:1; fill:none" points="
  1786.57,274.549 2282.27,274.549 2282.27,93.1086 1786.57,93.1086 1786.57,274.549 
  "/>
<polyline clip-path="url(#clip290)" style="stroke:#009af9; stroke-width:4; stroke-opacity:1; fill:none" points="
  1810.07,153.589 1951.04,153.589 
  "/>
<path clip-path="url(#clip290)" d="M 0 0 M1981.94 137.582 L1981.94 144.943 L1990.72 144.943 L1990.72 148.253 L1981.94 148.253 L1981.94 162.327 Q1981.94 165.498 1982.8 166.401 Q1983.68 167.304 1986.34 167.304 L1990.72 167.304 L1990.72 170.869 L1986.34 170.869 Q1981.41 170.869 1979.54 169.04 Q1977.66 167.188 1977.66 162.327 L1977.66 148.253 L1974.54 148.253 L1974.54 144.943 L1977.66 144.943 L1977.66 137.582 L1981.94 137.582 Z" fill="#000000" fill-rule="evenodd" fill-opacity="1" /><path clip-path="url(#clip290)" d="M 0 0 M1995.74 149.341 L2025.42 149.341 L2025.42 153.23 L1995.74 153.23 L1995.74 149.341 M1995.74 158.785 L2025.42 158.785 L2025.42 162.721 L1995.74 162.721 L1995.74 158.785 Z" fill="#000000" fill-rule="evenodd" fill-opacity="1" /><path clip-path="url(#clip290)" d="M 0 0 M2040.49 139.387 Q2036.87 139.387 2035.05 142.952 Q2033.24 146.494 2033.24 153.623 Q2033.24 160.73 2035.05 164.295 Q2036.87 167.836 2040.49 167.836 Q2044.12 167.836 2045.93 164.295 Q2047.75 160.73 2047.75 153.623 Q2047.75 146.494 2045.93 142.952 Q2044.12 139.387 2040.49 139.387 M2040.49 135.684 Q2046.3 135.684 2049.35 140.29 Q2052.43 144.873 2052.43 153.623 Q2052.43 162.35 2049.35 166.957 Q2046.3 171.54 2040.49 171.54 Q2034.68 171.54 2031.6 166.957 Q2028.54 162.35 2028.54 153.623 Q2028.54 144.873 2031.6 140.29 Q2034.68 135.684 2040.49 135.684 Z" fill="#000000" fill-rule="evenodd" fill-opacity="1" /><path clip-path="url(#clip290)" d="M 0 0 M2057.5 164.989 L2062.38 164.989 L2062.38 170.869 L2057.5 170.869 L2057.5 164.989 Z" fill="#000000" fill-rule="evenodd" fill-opacity="1" /><path clip-path="url(#clip290)" d="M 0 0 M2077.45 139.387 Q2073.84 139.387 2072.01 142.952 Q2070.21 146.494 2070.21 153.623 Q2070.21 160.73 2072.01 164.295 Q2073.84 167.836 2077.45 167.836 Q2081.09 167.836 2082.89 164.295 Q2084.72 160.73 2084.72 153.623 Q2084.72 146.494 2082.89 142.952 Q2081.09 139.387 2077.45 139.387 M2077.45 135.684 Q2083.26 135.684 2086.32 140.29 Q2089.4 144.873 2089.4 153.623 Q2089.4 162.35 2086.32 166.957 Q2083.26 171.54 2077.45 171.54 Q2071.64 171.54 2068.56 166.957 Q2065.51 162.35 2065.51 153.623 Q2065.51 144.873 2068.56 140.29 Q2071.64 135.684 2077.45 135.684 Z" fill="#000000" fill-rule="evenodd" fill-opacity="1" /><path clip-path="url(#clip290)" d="M 0 0 M2108.54 134.85 L2118.36 134.85 L2118.36 138.16 L2112.8 138.16 L2112.8 173.808 L2118.36 173.808 L2118.36 177.119 L2108.54 177.119 L2108.54 134.85 Z" fill="#000000" fill-rule="evenodd" fill-opacity="1" /><path clip-path="url(#clip290)" d="M 0 0 M2139.35 145.707 L2139.35 149.734 Q2137.55 148.809 2135.6 148.346 Q2133.66 147.883 2131.57 147.883 Q2128.4 147.883 2126.81 148.855 Q2125.23 149.827 2125.23 151.771 Q2125.23 153.253 2126.37 154.109 Q2127.5 154.943 2130.93 155.707 L2132.38 156.031 Q2136.92 157.003 2138.82 158.785 Q2140.74 160.545 2140.74 163.716 Q2140.74 167.327 2137.87 169.433 Q2135.02 171.54 2130.02 171.54 Q2127.94 171.54 2125.67 171.123 Q2123.43 170.73 2120.93 169.92 L2120.93 165.521 Q2123.29 166.748 2125.58 167.373 Q2127.87 167.975 2130.12 167.975 Q2133.12 167.975 2134.74 166.957 Q2136.37 165.915 2136.37 164.04 Q2136.37 162.304 2135.18 161.378 Q2134.03 160.452 2130.07 159.596 L2128.59 159.248 Q2124.63 158.415 2122.87 156.702 Q2121.11 154.966 2121.11 151.957 Q2121.11 148.299 2123.7 146.309 Q2126.3 144.318 2131.06 144.318 Q2133.43 144.318 2135.51 144.665 Q2137.59 145.012 2139.35 145.707 Z" fill="#000000" fill-rule="evenodd" fill-opacity="1" /><path clip-path="url(#clip290)" d="M 0 0 M2155.16 134.85 L2155.16 177.119 L2145.35 177.119 L2145.35 173.808 L2150.88 173.808 L2150.88 138.16 L2145.35 138.16 L2145.35 134.85 L2155.16 134.85 Z" fill="#000000" fill-rule="evenodd" fill-opacity="1" /><polyline clip-path="url(#clip290)" style="stroke:#e26f46; stroke-width:4; stroke-opacity:1; fill:none" points="
  1810.07,214.069 1951.04,214.069 
  "/>
<path clip-path="url(#clip290)" d="M 0 0 M1981.94 198.062 L1981.94 205.423 L1990.72 205.423 L1990.72 208.733 L1981.94 208.733 L1981.94 222.807 Q1981.94 225.978 1982.8 226.881 Q1983.68 227.784 1986.34 227.784 L1990.72 227.784 L1990.72 231.349 L1986.34 231.349 Q1981.41 231.349 1979.54 229.52 Q1977.66 227.668 1977.66 222.807 L1977.66 208.733 L1974.54 208.733 L1974.54 205.423 L1977.66 205.423 L1977.66 198.062 L1981.94 198.062 Z" fill="#000000" fill-rule="evenodd" fill-opacity="1" /><path clip-path="url(#clip290)" d="M 0 0 M1995.74 209.821 L2025.42 209.821 L2025.42 213.71 L1995.74 213.71 L1995.74 209.821 M1995.74 219.265 L2025.42 219.265 L2025.42 223.201 L1995.74 223.201 L1995.74 219.265 Z" fill="#000000" fill-rule="evenodd" fill-opacity="1" /><path clip-path="url(#clip290)" d="M 0 0 M2043.33 200.863 L2031.53 219.312 L2043.33 219.312 L2043.33 200.863 M2042.11 196.789 L2047.99 196.789 L2047.99 219.312 L2052.92 219.312 L2052.92 223.201 L2047.99 223.201 L2047.99 231.349 L2043.33 231.349 L2043.33 223.201 L2027.73 223.201 L2027.73 218.687 L2042.11 196.789 Z" fill="#000000" fill-rule="evenodd" fill-opacity="1" /><path clip-path="url(#clip290)" d="M 0 0 M2058.03 196.789 L2076.39 196.789 L2076.39 200.724 L2062.31 200.724 L2062.31 209.196 Q2063.33 208.849 2064.35 208.687 Q2065.37 208.502 2066.39 208.502 Q2072.18 208.502 2075.56 211.673 Q2078.93 214.844 2078.93 220.261 Q2078.93 225.839 2075.46 228.941 Q2071.99 232.02 2065.67 232.02 Q2063.5 232.02 2061.23 231.65 Q2058.98 231.279 2056.57 230.538 L2056.57 225.839 Q2058.66 226.974 2060.88 227.529 Q2063.1 228.085 2065.58 228.085 Q2069.58 228.085 2071.92 225.978 Q2074.26 223.872 2074.26 220.261 Q2074.26 216.65 2071.92 214.543 Q2069.58 212.437 2065.58 212.437 Q2063.7 212.437 2061.83 212.853 Q2059.98 213.27 2058.03 214.15 L2058.03 196.789 Z" fill="#000000" fill-rule="evenodd" fill-opacity="1" /><path clip-path="url(#clip290)" d="M 0 0 M2094 199.867 Q2090.39 199.867 2088.56 203.432 Q2086.76 206.974 2086.76 214.103 Q2086.76 221.21 2088.56 224.775 Q2090.39 228.316 2094 228.316 Q2097.64 228.316 2099.44 224.775 Q2101.27 221.21 2101.27 214.103 Q2101.27 206.974 2099.44 203.432 Q2097.64 199.867 2094 199.867 M2094 196.164 Q2099.81 196.164 2102.87 200.77 Q2105.95 205.353 2105.95 214.103 Q2105.95 222.83 2102.87 227.437 Q2099.81 232.02 2094 232.02 Q2088.19 232.02 2085.12 227.437 Q2082.06 222.83 2082.06 214.103 Q2082.06 205.353 2085.12 200.77 Q2088.19 196.164 2094 196.164 Z" fill="#000000" fill-rule="evenodd" fill-opacity="1" /><path clip-path="url(#clip290)" d="M 0 0 M2111.02 225.469 L2115.9 225.469 L2115.9 231.349 L2111.02 231.349 L2111.02 225.469 Z" fill="#000000" fill-rule="evenodd" fill-opacity="1" /><path clip-path="url(#clip290)" d="M 0 0 M2133.82 200.863 L2122.01 219.312 L2133.82 219.312 L2133.82 200.863 M2132.59 196.789 L2138.47 196.789 L2138.47 219.312 L2143.4 219.312 L2143.4 223.201 L2138.47 223.201 L2138.47 231.349 L2133.82 231.349 L2133.82 223.201 L2118.22 223.201 L2118.22 218.687 L2132.59 196.789 Z" fill="#000000" fill-rule="evenodd" fill-opacity="1" /><path clip-path="url(#clip290)" d="M 0 0 M2147.29 196.789 L2169.51 196.789 L2169.51 198.779 L2156.97 231.349 L2152.08 231.349 L2163.89 200.724 L2147.29 200.724 L2147.29 196.789 Z" fill="#000000" fill-rule="evenodd" fill-opacity="1" /><path clip-path="url(#clip290)" d="M 0 0 M2188.66 195.33 L2198.47 195.33 L2198.47 198.64 L2192.92 198.64 L2192.92 234.288 L2198.47 234.288 L2198.47 237.599 L2188.66 237.599 L2188.66 195.33 Z" fill="#000000" fill-rule="evenodd" fill-opacity="1" /><path clip-path="url(#clip290)" d="M 0 0 M2219.47 206.187 L2219.47 210.214 Q2217.66 209.289 2215.72 208.826 Q2213.77 208.363 2211.69 208.363 Q2208.52 208.363 2206.92 209.335 Q2205.35 210.307 2205.35 212.251 Q2205.35 213.733 2206.48 214.589 Q2207.61 215.423 2211.04 216.187 L2212.5 216.511 Q2217.04 217.483 2218.93 219.265 Q2220.86 221.025 2220.86 224.196 Q2220.86 227.807 2217.99 229.913 Q2215.14 232.02 2210.14 232.02 Q2208.05 232.02 2205.79 231.603 Q2203.54 231.21 2201.04 230.4 L2201.04 226.001 Q2203.4 227.228 2205.69 227.853 Q2207.99 228.455 2210.23 228.455 Q2213.24 228.455 2214.86 227.437 Q2216.48 226.395 2216.48 224.52 Q2216.48 222.784 2215.3 221.858 Q2214.14 220.932 2210.18 220.076 L2208.7 219.728 Q2204.74 218.895 2202.99 217.182 Q2201.23 215.446 2201.23 212.437 Q2201.23 208.779 2203.82 206.789 Q2206.41 204.798 2211.18 204.798 Q2213.54 204.798 2215.62 205.145 Q2217.71 205.492 2219.47 206.187 Z" fill="#000000" fill-rule="evenodd" fill-opacity="1" /><path clip-path="url(#clip290)" d="M 0 0 M2235.28 195.33 L2235.28 237.599 L2225.46 237.599 L2225.46 234.288 L2230.99 234.288 L2230.99 198.64 L2225.46 198.64 L2225.46 195.33 L2235.28 195.33 Z" fill="#000000" fill-rule="evenodd" fill-opacity="1" /></svg>
