<?xml version="1.0" encoding="utf-8"?>
<svg xmlns="http://www.w3.org/2000/svg" xmlns:xlink="http://www.w3.org/1999/xlink" width="600" height="400" viewBox="0 0 2400 1600">
<defs>
  <clipPath id="clip020">
    <rect x="0" y="0" width="2400" height="1600"/>
  </clipPath>
</defs>
<path clip-path="url(#clip020)" d="
M0 1600 L2400 1600 L2400 0 L0 0  Z
  " fill="#ffffff" fill-rule="evenodd" fill-opacity="1"/>
<defs>
  <clipPath id="clip021">
    <rect x="480" y="0" width="1681" height="1600"/>
  </clipPath>
</defs>
<path clip-path="url(#clip020)" d="
M238.13 1423.18 L2352.76 1423.18 L2352.76 47.2441 L238.13 47.2441  Z
  " fill="#ffffff" fill-rule="evenodd" fill-opacity="1"/>
<defs>
  <clipPath id="clip022">
    <rect x="238" y="47" width="2116" height="1377"/>
  </clipPath>
</defs>
<polyline clip-path="url(#clip022)" style="stroke:#000000; stroke-width:2; stroke-opacity:0.1; fill:none" points="
  297.978,1423.18 297.978,47.2441 
  "/>
<polyline clip-path="url(#clip022)" style="stroke:#000000; stroke-width:2; stroke-opacity:0.1; fill:none" points="
  867.958,1423.18 867.958,47.2441 
  "/>
<polyline clip-path="url(#clip022)" style="stroke:#000000; stroke-width:2; stroke-opacity:0.1; fill:none" points="
  1437.94,1423.18 1437.94,47.2441 
  "/>
<polyline clip-path="url(#clip022)" style="stroke:#000000; stroke-width:2; stroke-opacity:0.1; fill:none" points="
  2007.92,1423.18 2007.92,47.2441 
  "/>
<polyline clip-path="url(#clip020)" style="stroke:#000000; stroke-width:4; stroke-opacity:1; fill:none" points="
  238.13,1423.18 2352.76,1423.18 
  "/>
<polyline clip-path="url(#clip020)" style="stroke:#000000; stroke-width:4; stroke-opacity:1; fill:none" points="
  297.978,1423.18 297.978,1406.67 
  "/>
<polyline clip-path="url(#clip020)" style="stroke:#000000; stroke-width:4; stroke-opacity:1; fill:none" points="
  867.958,1423.18 867.958,1406.67 
  "/>
<polyline clip-path="url(#clip020)" style="stroke:#000000; stroke-width:4; stroke-opacity:1; fill:none" points="
  1437.94,1423.18 1437.94,1406.67 
  "/>
<polyline clip-path="url(#clip020)" style="stroke:#000000; stroke-width:4; stroke-opacity:1; fill:none" points="
  2007.92,1423.18 2007.92,1406.67 
  "/>
<path clip-path="url(#clip020)" d="M 0 0 M297.978 1452.37 Q294.367 1452.37 292.538 1455.94 Q290.733 1459.48 290.733 1466.61 Q290.733 1473.71 292.538 1477.28 Q294.367 1480.82 297.978 1480.82 Q301.612 1480.82 303.418 1477.28 Q305.246 1473.71 305.246 1466.61 Q305.246 1459.48 303.418 1455.94 Q301.612 1452.37 297.978 1452.37 M297.978 1448.67 Q303.788 1448.67 306.844 1453.27 Q309.922 1457.86 309.922 1466.61 Q309.922 1475.33 306.844 1479.94 Q303.788 1484.52 297.978 1484.52 Q292.168 1484.52 289.089 1479.94 Q286.034 1475.33 286.034 1466.61 Q286.034 1457.86 289.089 1453.27 Q292.168 1448.67 297.978 1448.67 Z" fill="#000000" fill-rule="evenodd" fill-opacity="1" /><path clip-path="url(#clip020)" d="M 0 0 M831.326 1479.92 L838.965 1479.92 L838.965 1453.55 L830.655 1455.22 L830.655 1450.96 L838.919 1449.29 L843.595 1449.29 L843.595 1479.92 L851.234 1479.92 L851.234 1483.85 L831.326 1483.85 L831.326 1479.92 Z" fill="#000000" fill-rule="evenodd" fill-opacity="1" /><path clip-path="url(#clip020)" d="M 0 0 M866.303 1452.37 Q862.692 1452.37 860.863 1455.94 Q859.058 1459.48 859.058 1466.61 Q859.058 1473.71 860.863 1477.28 Q862.692 1480.82 866.303 1480.82 Q869.937 1480.82 871.743 1477.28 Q873.571 1473.71 873.571 1466.61 Q873.571 1459.48 871.743 1455.94 Q869.937 1452.37 866.303 1452.37 M866.303 1448.67 Q872.113 1448.67 875.169 1453.27 Q878.247 1457.86 878.247 1466.61 Q878.247 1475.33 875.169 1479.94 Q872.113 1484.52 866.303 1484.52 Q860.493 1484.52 857.414 1479.94 Q854.359 1475.33 854.359 1466.61 Q854.359 1457.86 857.414 1453.27 Q860.493 1448.67 866.303 1448.67 Z" fill="#000000" fill-rule="evenodd" fill-opacity="1" /><path clip-path="url(#clip020)" d="M 0 0 M893.317 1452.37 Q889.706 1452.37 887.877 1455.94 Q886.071 1459.48 886.071 1466.61 Q886.071 1473.71 887.877 1477.28 Q889.706 1480.82 893.317 1480.82 Q896.951 1480.82 898.756 1477.28 Q900.585 1473.71 900.585 1466.61 Q900.585 1459.48 898.756 1455.94 Q896.951 1452.37 893.317 1452.37 M893.317 1448.67 Q899.127 1448.67 902.182 1453.27 Q905.261 1457.86 905.261 1466.61 Q905.261 1475.33 902.182 1479.94 Q899.127 1484.52 893.317 1484.52 Q887.506 1484.52 884.428 1479.94 Q881.372 1475.33 881.372 1466.61 Q881.372 1457.86 884.428 1453.27 Q887.506 1448.67 893.317 1448.67 Z" fill="#000000" fill-rule="evenodd" fill-opacity="1" /><path clip-path="url(#clip020)" d="M 0 0 M1405.58 1479.92 L1421.9 1479.92 L1421.9 1483.85 L1399.95 1483.85 L1399.95 1479.92 Q1402.61 1477.16 1407.2 1472.53 Q1411.8 1467.88 1412.98 1466.54 Q1415.23 1464.01 1416.11 1462.28 Q1417.01 1460.52 1417.01 1458.83 Q1417.01 1456.07 1415.07 1454.34 Q1413.15 1452.6 1410.04 1452.6 Q1407.85 1452.6 1405.39 1453.37 Q1402.96 1454.13 1400.18 1455.68 L1400.18 1450.96 Q1403.01 1449.82 1405.46 1449.25 Q1407.91 1448.67 1409.95 1448.67 Q1415.32 1448.67 1418.52 1451.35 Q1421.71 1454.04 1421.71 1458.53 Q1421.71 1460.66 1420.9 1462.58 Q1420.11 1464.48 1418.01 1467.07 Q1417.43 1467.74 1414.33 1470.96 Q1411.23 1474.15 1405.58 1479.92 Z" fill="#000000" fill-rule="evenodd" fill-opacity="1" /><path clip-path="url(#clip020)" d="M 0 0 M1436.97 1452.37 Q1433.35 1452.37 1431.53 1455.94 Q1429.72 1459.48 1429.72 1466.61 Q1429.72 1473.71 1431.53 1477.28 Q1433.35 1480.82 1436.97 1480.82 Q1440.6 1480.82 1442.41 1477.28 Q1444.23 1473.71 1444.23 1466.61 Q1444.23 1459.48 1442.41 1455.94 Q1440.6 1452.37 1436.97 1452.37 M1436.97 1448.67 Q1442.78 1448.67 1445.83 1453.27 Q1448.91 1457.86 1448.91 1466.61 Q1448.91 1475.33 1445.83 1479.94 Q1442.78 1484.52 1436.97 1484.52 Q1431.16 1484.52 1428.08 1479.94 Q1425.02 1475.33 1425.02 1466.61 Q1425.02 1457.86 1428.08 1453.27 Q1431.16 1448.67 1436.97 1448.67 Z" fill="#000000" fill-rule="evenodd" fill-opacity="1" /><path clip-path="url(#clip020)" d="M 0 0 M1463.98 1452.37 Q1460.37 1452.37 1458.54 1455.94 Q1456.73 1459.48 1456.73 1466.61 Q1456.73 1473.71 1458.54 1477.28 Q1460.37 1480.82 1463.98 1480.82 Q1467.61 1480.82 1469.42 1477.28 Q1471.25 1473.71 1471.25 1466.61 Q1471.25 1459.48 1469.42 1455.94 Q1467.61 1452.37 1463.98 1452.37 M1463.98 1448.67 Q1469.79 1448.67 1472.85 1453.27 Q1475.92 1457.86 1475.92 1466.61 Q1475.92 1475.33 1472.85 1479.94 Q1469.79 1484.52 1463.98 1484.52 Q1458.17 1484.52 1455.09 1479.94 Q1452.04 1475.33 1452.04 1466.61 Q1452.04 1457.86 1455.09 1453.27 Q1458.17 1448.67 1463.98 1448.67 Z" fill="#000000" fill-rule="evenodd" fill-opacity="1" /><path clip-path="url(#clip020)" d="M 0 0 M1985.15 1465.22 Q1988.51 1465.94 1990.38 1468.2 Q1992.28 1470.47 1992.28 1473.81 Q1992.28 1478.92 1988.76 1481.72 Q1985.24 1484.52 1978.76 1484.52 Q1976.59 1484.52 1974.27 1484.08 Q1971.98 1483.67 1969.53 1482.81 L1969.53 1478.3 Q1971.47 1479.43 1973.79 1480.01 Q1976.1 1480.59 1978.62 1480.59 Q1983.02 1480.59 1985.31 1478.85 Q1987.63 1477.12 1987.63 1473.81 Q1987.63 1470.75 1985.48 1469.04 Q1983.35 1467.3 1979.53 1467.3 L1975.5 1467.3 L1975.5 1463.46 L1979.71 1463.46 Q1983.16 1463.46 1984.99 1462.09 Q1986.82 1460.7 1986.82 1458.11 Q1986.82 1455.45 1984.92 1454.04 Q1983.05 1452.6 1979.53 1452.6 Q1977.61 1452.6 1975.41 1453.02 Q1973.21 1453.44 1970.57 1454.31 L1970.57 1450.15 Q1973.23 1449.41 1975.55 1449.04 Q1977.88 1448.67 1979.94 1448.67 Q1985.27 1448.67 1988.37 1451.1 Q1991.47 1453.5 1991.47 1457.63 Q1991.47 1460.5 1989.83 1462.49 Q1988.18 1464.45 1985.15 1465.22 Z" fill="#000000" fill-rule="evenodd" fill-opacity="1" /><path clip-path="url(#clip020)" d="M 0 0 M2007.35 1452.37 Q2003.74 1452.37 2001.91 1455.94 Q2000.11 1459.48 2000.11 1466.61 Q2000.11 1473.71 2001.91 1477.28 Q2003.74 1480.82 2007.35 1480.82 Q2010.99 1480.82 2012.79 1477.28 Q2014.62 1473.71 2014.62 1466.61 Q2014.62 1459.48 2012.79 1455.94 Q2010.99 1452.37 2007.35 1452.37 M2007.35 1448.67 Q2013.16 1448.67 2016.22 1453.27 Q2019.3 1457.86 2019.3 1466.61 Q2019.3 1475.33 2016.22 1479.94 Q2013.16 1484.52 2007.35 1484.52 Q2001.54 1484.52 1998.46 1479.94 Q1995.41 1475.33 1995.41 1466.61 Q1995.41 1457.86 1998.46 1453.27 Q2001.54 1448.67 2007.35 1448.67 Z" fill="#000000" fill-rule="evenodd" fill-opacity="1" /><path clip-path="url(#clip020)" d="M 0 0 M2034.36 1452.37 Q2030.75 1452.37 2028.92 1455.94 Q2027.12 1459.48 2027.12 1466.61 Q2027.12 1473.71 2028.92 1477.28 Q2030.75 1480.82 2034.36 1480.82 Q2038 1480.82 2039.8 1477.28 Q2041.63 1473.71 2041.63 1466.61 Q2041.63 1459.48 2039.8 1455.94 Q2038 1452.37 2034.36 1452.37 M2034.36 1448.67 Q2040.17 1448.67 2043.23 1453.27 Q2046.31 1457.86 2046.31 1466.61 Q2046.31 1475.33 2043.23 1479.94 Q2040.17 1484.52 2034.36 1484.52 Q2028.55 1484.52 2025.48 1479.94 Q2022.42 1475.33 2022.42 1466.61 Q2022.42 1457.86 2025.48 1453.27 Q2028.55 1448.67 2034.36 1448.67 Z" fill="#000000" fill-rule="evenodd" fill-opacity="1" /><path clip-path="url(#clip020)" d="M 0 0 M1312.06 1520.4 L1299.17 1537.74 L1312.73 1556.04 L1305.82 1556.04 L1295.44 1542.04 L1285.07 1556.04 L1278.16 1556.04 L1292.01 1537.39 L1279.34 1520.4 L1286.24 1520.4 L1295.7 1533.1 L1305.15 1520.4 L1312.06 1520.4 Z" fill="#000000" fill-rule="evenodd" fill-opacity="1" /><polyline clip-path="url(#clip022)" style="stroke:#000000; stroke-width:2; stroke-opacity:0.1; fill:none" points="
  238.13,1384.24 2352.76,1384.24 
  "/>
<polyline clip-path="url(#clip022)" style="stroke:#000000; stroke-width:2; stroke-opacity:0.1; fill:none" points="
  238.13,1059.73 2352.76,1059.73 
  "/>
<polyline clip-path="url(#clip022)" style="stroke:#000000; stroke-width:2; stroke-opacity:0.1; fill:none" points="
  238.13,735.212 2352.76,735.212 
  "/>
<polyline clip-path="url(#clip022)" style="stroke:#000000; stroke-width:2; stroke-opacity:0.1; fill:none" points="
  238.13,410.699 2352.76,410.699 
  "/>
<polyline clip-path="url(#clip022)" style="stroke:#000000; stroke-width:2; stroke-opacity:0.1; fill:none" points="
  238.13,86.1857 2352.76,86.1857 
  "/>
<polyline clip-path="url(#clip020)" style="stroke:#000000; stroke-width:4; stroke-opacity:1; fill:none" points="
  238.13,1423.18 238.13,47.2441 
  "/>
<polyline clip-path="url(#clip020)" style="stroke:#000000; stroke-width:4; stroke-opacity:1; fill:none" points="
  238.13,1384.24 263.506,1384.24 
  "/>
<polyline clip-path="url(#clip020)" style="stroke:#000000; stroke-width:4; stroke-opacity:1; fill:none" points="
  238.13,1059.73 263.506,1059.73 
  "/>
<polyline clip-path="url(#clip020)" style="stroke:#000000; stroke-width:4; stroke-opacity:1; fill:none" points="
  238.13,735.212 263.506,735.212 
  "/>
<polyline clip-path="url(#clip020)" style="stroke:#000000; stroke-width:4; stroke-opacity:1; fill:none" points="
  238.13,410.699 263.506,410.699 
  "/>
<polyline clip-path="url(#clip020)" style="stroke:#000000; stroke-width:4; stroke-opacity:1; fill:none" points="
  238.13,86.1857 263.506,86.1857 
  "/>
<path clip-path="url(#clip020)" d="M 0 0 M126.205 1370.04 Q122.593 1370.04 120.765 1373.6 Q118.959 1377.14 118.959 1384.27 Q118.959 1391.38 120.765 1394.94 Q122.593 1398.49 126.205 1398.49 Q129.839 1398.49 131.644 1394.94 Q133.473 1391.38 133.473 1384.27 Q133.473 1377.14 131.644 1373.6 Q129.839 1370.04 126.205 1370.04 M126.205 1366.33 Q132.015 1366.33 135.07 1370.94 Q138.149 1375.52 138.149 1384.27 Q138.149 1393 135.07 1397.61 Q132.015 1402.19 126.205 1402.19 Q120.394 1402.19 117.316 1397.61 Q114.26 1393 114.26 1384.27 Q114.26 1375.52 117.316 1370.94 Q120.394 1366.33 126.205 1366.33 Z" fill="#000000" fill-rule="evenodd" fill-opacity="1" /><path clip-path="url(#clip020)" d="M 0 0 M143.218 1395.64 L148.103 1395.64 L148.103 1401.52 L143.218 1401.52 L143.218 1395.64 Z" fill="#000000" fill-rule="evenodd" fill-opacity="1" /><path clip-path="url(#clip020)" d="M 0 0 M163.172 1370.04 Q159.561 1370.04 157.732 1373.6 Q155.927 1377.14 155.927 1384.27 Q155.927 1391.38 157.732 1394.94 Q159.561 1398.49 163.172 1398.49 Q166.806 1398.49 168.612 1394.94 Q170.44 1391.38 170.44 1384.27 Q170.44 1377.14 168.612 1373.6 Q166.806 1370.04 163.172 1370.04 M163.172 1366.33 Q168.982 1366.33 172.038 1370.94 Q175.116 1375.52 175.116 1384.27 Q175.116 1393 172.038 1397.61 Q168.982 1402.19 163.172 1402.19 Q157.362 1402.19 154.283 1397.61 Q151.228 1393 151.228 1384.27 Q151.228 1375.52 154.283 1370.94 Q157.362 1366.33 163.172 1366.33 Z" fill="#000000" fill-rule="evenodd" fill-opacity="1" /><path clip-path="url(#clip020)" d="M 0 0 M190.186 1370.04 Q186.575 1370.04 184.746 1373.6 Q182.94 1377.14 182.94 1384.27 Q182.94 1391.38 184.746 1394.94 Q186.575 1398.49 190.186 1398.49 Q193.82 1398.49 195.625 1394.94 Q197.454 1391.38 197.454 1384.27 Q197.454 1377.14 195.625 1373.6 Q193.82 1370.04 190.186 1370.04 M190.186 1366.33 Q195.996 1366.33 199.051 1370.94 Q202.13 1375.52 202.13 1384.27 Q202.13 1393 199.051 1397.61 Q195.996 1402.19 190.186 1402.19 Q184.376 1402.19 181.297 1397.61 Q178.241 1393 178.241 1384.27 Q178.241 1375.52 181.297 1370.94 Q184.376 1366.33 190.186 1366.33 Z" fill="#000000" fill-rule="evenodd" fill-opacity="1" /><path clip-path="url(#clip020)" d="M 0 0 M128.797 1045.52 Q125.186 1045.52 123.357 1049.09 Q121.552 1052.63 121.552 1059.76 Q121.552 1066.87 123.357 1070.43 Q125.186 1073.97 128.797 1073.97 Q132.431 1073.97 134.237 1070.43 Q136.066 1066.87 136.066 1059.76 Q136.066 1052.63 134.237 1049.09 Q132.431 1045.52 128.797 1045.52 M128.797 1041.82 Q134.607 1041.82 137.663 1046.43 Q140.741 1051.01 140.741 1059.76 Q140.741 1068.49 137.663 1073.09 Q134.607 1077.68 128.797 1077.68 Q122.987 1077.68 119.908 1073.09 Q116.853 1068.49 116.853 1059.76 Q116.853 1051.01 119.908 1046.43 Q122.987 1041.82 128.797 1041.82 Z" fill="#000000" fill-rule="evenodd" fill-opacity="1" /><path clip-path="url(#clip020)" d="M 0 0 M145.811 1071.13 L150.695 1071.13 L150.695 1077.01 L145.811 1077.01 L145.811 1071.13 Z" fill="#000000" fill-rule="evenodd" fill-opacity="1" /><path clip-path="url(#clip020)" d="M 0 0 M159.792 1073.07 L176.112 1073.07 L176.112 1077.01 L154.167 1077.01 L154.167 1073.07 Q156.829 1070.32 161.413 1065.69 Q166.019 1061.03 167.2 1059.69 Q169.445 1057.17 170.325 1055.43 Q171.227 1053.67 171.227 1051.98 Q171.227 1049.23 169.283 1047.49 Q167.362 1045.76 164.26 1045.76 Q162.061 1045.76 159.607 1046.52 Q157.177 1047.28 154.399 1048.83 L154.399 1044.11 Q157.223 1042.98 159.677 1042.4 Q162.13 1041.82 164.167 1041.82 Q169.538 1041.82 172.732 1044.51 Q175.926 1047.19 175.926 1051.68 Q175.926 1053.81 175.116 1055.73 Q174.329 1057.63 172.223 1060.22 Q171.644 1060.89 168.542 1064.11 Q165.44 1067.31 159.792 1073.07 Z" fill="#000000" fill-rule="evenodd" fill-opacity="1" /><path clip-path="url(#clip020)" d="M 0 0 M181.227 1042.45 L199.584 1042.45 L199.584 1046.38 L185.51 1046.38 L185.51 1054.85 Q186.528 1054.51 187.547 1054.34 Q188.565 1054.16 189.584 1054.16 Q195.371 1054.16 198.75 1057.33 Q202.13 1060.5 202.13 1065.92 Q202.13 1071.5 198.658 1074.6 Q195.186 1077.68 188.866 1077.68 Q186.69 1077.68 184.422 1077.31 Q182.176 1076.94 179.769 1076.19 L179.769 1071.5 Q181.852 1072.63 184.075 1073.19 Q186.297 1073.74 188.774 1073.74 Q192.778 1073.74 195.116 1071.63 Q197.454 1069.53 197.454 1065.92 Q197.454 1062.31 195.116 1060.2 Q192.778 1058.09 188.774 1058.09 Q186.899 1058.09 185.024 1058.51 Q183.172 1058.93 181.227 1059.81 L181.227 1042.45 Z" fill="#000000" fill-rule="evenodd" fill-opacity="1" /><path clip-path="url(#clip020)" d="M 0 0 M127.2 721.011 Q123.589 721.011 121.76 724.575 Q119.955 728.117 119.955 735.247 Q119.955 742.353 121.76 745.918 Q123.589 749.46 127.2 749.46 Q130.834 749.46 132.64 745.918 Q134.468 742.353 134.468 735.247 Q134.468 728.117 132.64 724.575 Q130.834 721.011 127.2 721.011 M127.2 717.307 Q133.01 717.307 136.066 721.913 Q139.144 726.497 139.144 735.247 Q139.144 743.973 136.066 748.58 Q133.01 753.163 127.2 753.163 Q121.39 753.163 118.311 748.58 Q115.256 743.973 115.256 735.247 Q115.256 726.497 118.311 721.913 Q121.39 717.307 127.2 717.307 Z" fill="#000000" fill-rule="evenodd" fill-opacity="1" /><path clip-path="url(#clip020)" d="M 0 0 M144.214 746.612 L149.098 746.612 L149.098 752.492 L144.214 752.492 L144.214 746.612 Z" fill="#000000" fill-rule="evenodd" fill-opacity="1" /><path clip-path="url(#clip020)" d="M 0 0 M154.214 717.932 L172.57 717.932 L172.57 721.867 L158.496 721.867 L158.496 730.339 Q159.515 729.992 160.533 729.83 Q161.552 729.645 162.57 729.645 Q168.357 729.645 171.737 732.816 Q175.116 735.987 175.116 741.404 Q175.116 746.983 171.644 750.085 Q168.172 753.163 161.852 753.163 Q159.677 753.163 157.408 752.793 Q155.163 752.423 152.755 751.682 L152.755 746.983 Q154.839 748.117 157.061 748.673 Q159.283 749.228 161.76 749.228 Q165.765 749.228 168.102 747.122 Q170.44 745.015 170.44 741.404 Q170.44 737.793 168.102 735.687 Q165.765 733.58 161.76 733.58 Q159.885 733.58 158.01 733.997 Q156.158 734.413 154.214 735.293 L154.214 717.932 Z" fill="#000000" fill-rule="evenodd" fill-opacity="1" /><path clip-path="url(#clip020)" d="M 0 0 M190.186 721.011 Q186.575 721.011 184.746 724.575 Q182.94 728.117 182.94 735.247 Q182.94 742.353 184.746 745.918 Q186.575 749.46 190.186 749.46 Q193.82 749.46 195.625 745.918 Q197.454 742.353 197.454 735.247 Q197.454 728.117 195.625 724.575 Q193.82 721.011 190.186 721.011 M190.186 717.307 Q195.996 717.307 199.051 721.913 Q202.13 726.497 202.13 735.247 Q202.13 743.973 199.051 748.58 Q195.996 753.163 190.186 753.163 Q184.376 753.163 181.297 748.58 Q178.241 743.973 178.241 735.247 Q178.241 726.497 181.297 721.913 Q184.376 717.307 190.186 717.307 Z" fill="#000000" fill-rule="evenodd" fill-opacity="1" /><path clip-path="url(#clip020)" d="M 0 0 M128.103 396.498 Q124.492 396.498 122.663 400.062 Q120.857 403.604 120.857 410.734 Q120.857 417.84 122.663 421.405 Q124.492 424.946 128.103 424.946 Q131.737 424.946 133.542 421.405 Q135.371 417.84 135.371 410.734 Q135.371 403.604 133.542 400.062 Q131.737 396.498 128.103 396.498 M128.103 392.794 Q133.913 392.794 136.968 397.4 Q140.047 401.984 140.047 410.734 Q140.047 419.46 136.968 424.067 Q133.913 428.65 128.103 428.65 Q122.293 428.65 119.214 424.067 Q116.158 419.46 116.158 410.734 Q116.158 401.984 119.214 397.4 Q122.293 392.794 128.103 392.794 Z" fill="#000000" fill-rule="evenodd" fill-opacity="1" /><path clip-path="url(#clip020)" d="M 0 0 M145.116 422.099 L150.001 422.099 L150.001 427.979 L145.116 427.979 L145.116 422.099 Z" fill="#000000" fill-rule="evenodd" fill-opacity="1" /><path clip-path="url(#clip020)" d="M 0 0 M153.89 393.419 L176.112 393.419 L176.112 395.41 L163.565 427.979 L158.681 427.979 L170.487 397.354 L153.89 397.354 L153.89 393.419 Z" fill="#000000" fill-rule="evenodd" fill-opacity="1" /><path clip-path="url(#clip020)" d="M 0 0 M181.227 393.419 L199.584 393.419 L199.584 397.354 L185.51 397.354 L185.51 405.826 Q186.528 405.479 187.547 405.317 Q188.565 405.132 189.584 405.132 Q195.371 405.132 198.75 408.303 Q202.13 411.474 202.13 416.891 Q202.13 422.47 198.658 425.571 Q195.186 428.65 188.866 428.65 Q186.69 428.65 184.422 428.28 Q182.176 427.909 179.769 427.169 L179.769 422.47 Q181.852 423.604 184.075 424.159 Q186.297 424.715 188.774 424.715 Q192.778 424.715 195.116 422.608 Q197.454 420.502 197.454 416.891 Q197.454 413.28 195.116 411.173 Q192.778 409.067 188.774 409.067 Q186.899 409.067 185.024 409.484 Q183.172 409.9 181.227 410.78 L181.227 393.419 Z" fill="#000000" fill-rule="evenodd" fill-opacity="1" /><path clip-path="url(#clip020)" d="M 0 0 M118.242 99.5305 L125.88 99.5305 L125.88 73.1649 L117.57 74.8316 L117.57 70.5723 L125.834 68.9057 L130.51 68.9057 L130.51 99.5305 L138.149 99.5305 L138.149 103.466 L118.242 103.466 L118.242 99.5305 Z" fill="#000000" fill-rule="evenodd" fill-opacity="1" /><path clip-path="url(#clip020)" d="M 0 0 M143.218 97.5861 L148.103 97.5861 L148.103 103.466 L143.218 103.466 L143.218 97.5861 Z" fill="#000000" fill-rule="evenodd" fill-opacity="1" /><path clip-path="url(#clip020)" d="M 0 0 M163.172 71.9844 Q159.561 71.9844 157.732 75.5492 Q155.927 79.0908 155.927 86.2204 Q155.927 93.3268 157.732 96.8916 Q159.561 100.433 163.172 100.433 Q166.806 100.433 168.612 96.8916 Q170.44 93.3268 170.44 86.2204 Q170.44 79.0908 168.612 75.5492 Q166.806 71.9844 163.172 71.9844 M163.172 68.2807 Q168.982 68.2807 172.038 72.8871 Q175.116 77.4704 175.116 86.2204 Q175.116 94.9472 172.038 99.5537 Q168.982 104.137 163.172 104.137 Q157.362 104.137 154.283 99.5537 Q151.228 94.9472 151.228 86.2204 Q151.228 77.4704 154.283 72.8871 Q157.362 68.2807 163.172 68.2807 Z" fill="#000000" fill-rule="evenodd" fill-opacity="1" /><path clip-path="url(#clip020)" d="M 0 0 M190.186 71.9844 Q186.575 71.9844 184.746 75.5492 Q182.94 79.0908 182.94 86.2204 Q182.94 93.3268 184.746 96.8916 Q186.575 100.433 190.186 100.433 Q193.82 100.433 195.625 96.8916 Q197.454 93.3268 197.454 86.2204 Q197.454 79.0908 195.625 75.5492 Q193.82 71.9844 190.186 71.9844 M190.186 68.2807 Q195.996 68.2807 199.051 72.8871 Q202.13 77.4704 202.13 86.2204 Q202.13 94.9472 199.051 99.5537 Q195.996 104.137 190.186 104.137 Q184.376 104.137 181.297 99.5537 Q178.241 94.9472 178.241 86.2204 Q178.241 77.4704 181.297 72.8871 Q184.376 68.2807 190.186 68.2807 Z" fill="#000000" fill-rule="evenodd" fill-opacity="1" /><path clip-path="url(#clip020)" d="M 0 0 M70.212 745.095 Q76.6732 745.095 80.3653 742.453 Q84.0256 739.779 84.0256 735.132 Q84.0256 730.485 80.3653 727.812 Q76.6732 725.138 70.212 725.138 Q63.7508 725.138 60.0905 727.812 Q56.3984 730.485 56.3984 735.132 Q56.3984 739.779 60.0905 742.453 Q63.7508 745.095 70.212 745.095 M82.657 725.138 Q85.8398 726.984 87.3994 729.817 Q88.9272 732.618 88.9272 736.565 Q88.9272 743.026 83.771 747.1 Q78.6147 751.142 70.212 751.142 Q61.8093 751.142 56.6531 747.1 Q51.4968 743.026 51.4968 736.565 Q51.4968 732.618 53.0564 729.817 Q54.5842 726.984 57.7671 725.138 L52.3562 725.138 L52.3562 719.282 L101.563 719.282 L101.563 725.138 L82.657 725.138 Z" fill="#000000" fill-rule="evenodd" fill-opacity="1" /><polyline clip-path="url(#clip022)" style="stroke:#009af9; stroke-width:4; stroke-opacity:1; fill:none" points="
  297.978,1384.24 300.669,1384.24 305.771,1384.24 310.872,1384.24 313.563,1384.24 316.255,1384.24 321.356,1384.24 326.458,1384.24 329.149,1384.24 
  331.84,1384.24 336.941,1384.24 342.043,1384.24 344.734,1384.24 347.425,1384.24 352.527,1384.24 357.628,1384.24 360.32,1384.24 
  363.011,1384.24 368.112,1384.24 373.214,1384.24 375.905,1384.24 378.596,1384.24 383.698,1384.24 388.799,1384.24 391.49,1384.24 
  394.181,1384.24 399.283,1384.24 404.385,1384.24 407.076,1384.24 409.767,1384.24 414.868,1384.24 419.97,1384.24 422.661,1384.24 
  425.352,1384.24 430.454,1384.24 435.555,1384.24 438.246,1384.24 440.938,1384.24 446.039,1384.24 451.141,1384.24 453.832,1384.24 
  456.523,1384.24 461.625,1384.24 466.726,1384.24 469.417,1384.24 472.108,1384.24 477.21,1384.24 482.311,1384.24 485.003,1384.24 
  487.694,1384.24 492.795,1384.24 497.897,1384.24 500.588,1384.24 503.279,1384.24 508.381,1384.24 513.482,1384.24 516.173,1384.24 
  518.865,1384.24 523.966,1384.24 529.068,1384.24 531.759,1384.24 534.45,1384.24 539.552,1384.24 544.653,1384.24 547.344,1384.24 
  550.035,1384.24 555.137,1384.24 560.238,1384.24 562.93,1384.24 565.621,1384.24 570.722,1384.24 575.824,1384.24 578.515,1384.24 
  581.206,1384.24 586.308,1384.24 591.409,1384.24 594.1,1384.24 596.792,1384.24 601.893,1384.24 606.995,1384.24 609.686,1384.24 
  612.377,1384.24 617.478,1384.24 622.58,1384.24 625.271,1384.24 627.962,1384.24 633.064,1384.24 638.165,1384.24 640.857,1384.24 
  643.548,1384.24 648.649,1384.24 653.751,1384.24 656.442,1384.24 659.133,1384.24 664.235,1384.24 669.336,1384.24 672.027,1384.24 
  674.719,1384.24 679.82,1384.24 684.922,1384.24 687.613,1384.24 690.304,1384.24 695.405,1384.24 700.507,1384.24 703.198,1384.24 
  705.889,1384.24 710.991,1384.24 716.092,1384.24 718.784,1384.24 721.475,1384.24 726.576,86.1857 731.678,86.1857 734.369,86.1857 
  737.06,86.1857 742.162,86.1857 747.263,86.1857 749.954,86.1857 752.645,86.1857 757.747,86.1857 762.849,86.1857 765.54,86.1857 
  768.231,86.1857 773.332,86.1857 778.434,86.1857 781.125,86.1857 783.816,86.1857 788.918,86.1857 794.019,86.1857 796.71,86.1857 
  799.402,86.1857 804.503,86.1857 809.605,86.1857 812.296,86.1857 814.987,86.1857 820.089,86.1857 825.19,86.1857 827.881,86.1857 
  830.572,86.1857 835.674,86.1857 840.775,86.1857 843.467,86.1857 846.158,86.1857 851.259,86.1857 856.361,86.1857 859.052,86.1857 
  861.743,86.1857 866.845,86.1857 871.946,86.1857 874.637,86.1857 877.329,86.1857 882.43,86.1857 887.532,86.1857 890.223,86.1857 
  892.914,86.1857 898.016,86.1857 903.117,86.1857 905.808,86.1857 908.499,86.1857 913.601,86.1857 918.702,86.1857 921.394,86.1857 
  924.085,86.1857 929.186,86.1857 934.288,86.1857 936.979,86.1857 939.67,86.1857 944.772,86.1857 949.873,86.1857 952.564,86.1857 
  955.256,86.1857 960.357,86.1857 965.459,86.1857 968.15,86.1857 970.841,86.1857 975.942,86.1857 981.044,86.1857 983.735,86.1857 
  986.426,86.1857 991.528,86.1857 996.629,86.1857 999.321,86.1857 1002.01,86.1857 1007.11,86.1857 1012.21,1384.24 1014.91,1384.24 
  1017.6,1384.24 1022.7,1384.24 1027.8,1384.24 1030.49,1384.24 1033.18,1384.24 1038.28,1384.24 1043.39,1384.24 1046.08,1384.24 
  1048.77,1384.24 1053.87,1384.24 1058.97,1384.24 1061.66,1384.24 1064.35,1384.24 1069.45,1384.24 1074.56,1384.24 1077.25,1384.24 
  1079.94,1384.24 1085.04,1384.24 1090.14,1384.24 1092.83,1384.24 1095.52,1384.24 1100.63,1384.24 1105.73,1384.24 1108.42,1384.24 
  1111.11,1384.24 1116.21,1384.24 1121.31,1384.24 1124,1384.24 1126.69,1384.24 1131.8,1384.24 1136.9,1384.24 1139.59,1384.24 
  1142.28,1384.24 1147.38,1384.24 1152.48,1384.24 1155.17,1384.24 1157.87,1384.24 1162.97,1384.24 1168.07,1384.24 1170.76,1384.24 
  1173.45,1384.24 1178.55,1384.24 1183.65,1384.24 1186.35,1384.24 1189.04,1384.24 1194.14,1384.24 1199.24,1384.24 1201.93,1384.24 
  1204.62,1384.24 1209.72,1384.24 1214.82,1384.24 1217.52,1384.24 1220.21,1384.24 1225.31,1384.24 1230.41,1384.24 1233.1,1384.24 
  1235.79,1384.24 1240.89,1384.24 1246,1384.24 1248.69,1384.24 1251.38,1384.24 1256.48,1384.24 1261.58,1384.24 1264.27,1384.24 
  1266.96,1384.24 1272.06,1384.24 1277.17,1384.24 1279.86,1384.24 1282.55,1384.24 1287.65,1384.24 1292.75,1384.24 1295.44,1384.24 
  1298.13,1384.24 1303.24,1384.24 1308.34,1384.24 1311.03,1384.24 1313.72,1384.24 1318.82,1384.24 1323.92,1384.24 1326.61,1384.24 
  1329.3,1384.24 1334.41,1384.24 1339.51,1384.24 1342.2,1384.24 1344.89,1384.24 1349.99,1384.24 1355.09,1384.24 1357.78,1384.24 
  1360.48,1384.24 1365.58,1384.24 1370.68,1384.24 1373.37,1384.24 1376.06,1384.24 1381.16,1384.24 1386.26,1384.24 1388.96,1384.24 
  1391.65,1384.24 1396.75,1384.24 1401.85,1384.24 1404.54,1384.24 1407.23,1384.24 1412.33,1384.24 1417.43,1384.24 1420.13,1384.24 
  1422.82,1384.24 1427.92,1384.24 1433.02,1384.24 1435.71,1384.24 1438.4,1384.24 1443.5,1384.24 1448.61,1384.24 1451.3,1384.24 
  1453.99,1384.24 1459.09,1384.24 1464.19,1384.24 1466.88,1384.24 1469.57,1384.24 1474.67,1384.24 1479.78,1384.24 1482.47,1384.24 
  1485.16,1384.24 1490.26,1384.24 1495.36,1384.24 1498.05,1384.24 1500.74,1384.24 1505.85,1384.24 1510.95,1384.24 1513.64,1384.24 
  1516.33,1384.24 1521.43,1384.24 1526.53,1384.24 1529.22,1384.24 1531.92,1384.24 1537.02,1384.24 1542.12,1384.24 1544.81,1384.24 
  1547.5,1384.24 1552.6,1384.24 1557.7,1384.24 1560.39,1384.24 1563.09,1384.24 1568.19,1384.24 1573.29,1384.24 1575.98,1384.24 
  1578.67,1384.24 1583.77,1384.24 1588.87,1384.24 1591.57,1384.24 1594.26,1384.24 1599.36,1384.24 1604.46,1384.24 1607.15,1384.24 
  1609.84,1384.24 1614.94,1384.24 1620.05,1384.24 1622.74,1384.24 1625.43,1384.24 1630.53,1384.24 1635.63,1384.24 1638.32,1384.24 
  1641.01,1384.24 1646.11,1384.24 1651.22,1384.24 1653.91,1384.24 1656.6,1384.24 1661.7,1384.24 1666.8,1384.24 1669.49,1384.24 
  1672.18,1384.24 1677.29,1384.24 1682.39,1384.24 1685.08,1384.24 1687.77,1384.24 1692.87,1384.24 1697.97,1384.24 1700.66,1384.24 
  1703.35,1384.24 1708.46,1384.24 1713.56,1384.24 1716.25,1384.24 1718.94,1384.24 1724.04,1384.24 1729.14,1384.24 1731.83,1384.24 
  1734.53,1384.24 1739.63,1384.24 1744.73,1384.24 1747.42,1384.24 1750.11,1384.24 1755.21,1384.24 1760.31,1384.24 1763,1384.24 
  1765.7,1384.24 1770.8,1384.24 1775.9,1384.24 1778.59,1384.24 1781.28,1384.24 1786.38,1384.24 1791.48,1384.24 1794.18,1384.24 
  1796.87,1384.24 1801.97,1384.24 1807.07,1384.24 1809.76,1384.24 1812.45,1384.24 1817.55,1384.24 1822.66,1384.24 1825.35,1384.24 
  1828.04,1384.24 1833.14,1384.24 1838.24,1384.24 1840.93,1384.24 1843.62,1384.24 1848.72,1384.24 1853.83,1384.24 1856.52,1384.24 
  1859.21,1384.24 1864.31,1384.24 1869.41,1384.24 1872.1,1384.24 1874.79,1384.24 1879.9,1384.24 1885,1384.24 1887.69,1384.24 
  1890.38,1384.24 1895.48,1384.24 1900.58,1384.24 1903.27,1384.24 1905.96,1384.24 1911.07,1384.24 1916.17,1384.24 1918.86,1384.24 
  1921.55,1384.24 1926.65,1384.24 1931.75,1384.24 1934.44,1384.24 1937.14,1384.24 1942.24,1384.24 1947.34,1384.24 1950.03,1384.24 
  1952.72,1384.24 1957.82,1384.24 1962.92,1384.24 1965.61,1384.24 1968.31,1384.24 1973.41,1384.24 1978.51,1384.24 1981.2,1384.24 
  1983.89,1384.24 1988.99,1384.24 1994.09,1384.24 1996.79,1384.24 1999.48,1384.24 2004.58,1384.24 2009.68,1384.24 2012.37,1384.24 
  2015.06,1384.24 2020.16,1384.24 2025.27,1384.24 2027.96,1384.24 2030.65,1384.24 2035.75,1384.24 2040.85,1384.24 2043.54,1384.24 
  2046.23,1384.24 2051.33,1384.24 2056.44,1384.24 2059.13,1384.24 2061.82,1384.24 2066.92,1384.24 2072.02,1384.24 2074.71,1384.24 
  2077.4,1384.24 2082.51,1384.24 2087.61,1384.24 2090.3,1384.24 2092.99,1384.24 2098.09,1384.24 2103.19,1384.24 2105.88,1384.24 
  2108.57,1384.24 2113.68,1384.24 2118.78,1384.24 2121.47,1384.24 2124.16,1384.24 2129.26,1384.24 2134.36,1384.24 2137.05,1384.24 
  2139.75,1384.24 2144.85,1384.24 2149.95,1384.24 2152.64,1384.24 2155.33,1384.24 2160.43,1384.24 2165.53,1384.24 2168.22,1384.24 
  2170.92,1384.24 2176.02,1384.24 2181.12,1384.24 2183.81,1384.24 2186.5,1384.24 2191.6,1384.24 2196.7,1384.24 2199.4,1384.24 
  2202.09,1384.24 2207.19,1384.24 2212.29,1384.24 2214.98,1384.24 2217.67,1384.24 2222.77,1384.24 2227.88,1384.24 2230.57,1384.24 
  2233.26,1384.24 2238.36,1384.24 2243.46,1384.24 2246.15,1384.24 2248.84,1384.24 2253.94,1384.24 2259.05,1384.24 2261.74,1384.24 
  2264.43,1384.24 2269.53,1384.24 2274.63,1384.24 2277.32,1384.24 2280.01,1384.24 2285.12,1384.24 2290.22,1384.24 2292.91,1384.24 
  
  "/>
<polyline clip-path="url(#clip022)" style="stroke:#e26f46; stroke-width:4; stroke-opacity:1; fill:none" points="
  297.978,1384.06 300.669,1384.06 305.771,1384.06 310.872,1384.06 313.563,1384.06 313.563,1384.11 316.255,1384.11 321.356,1384.11 326.458,1384.11 329.149,1384.11 
  329.149,1384.14 331.84,1384.14 336.941,1384.14 342.043,1384.14 344.734,1384.14 344.734,1384.17 347.425,1384.17 352.527,1384.17 357.628,1384.17 360.32,1384.17 
  360.32,1384.19 363.011,1384.19 368.112,1384.19 373.214,1384.19 375.905,1384.19 375.905,1384.2 378.596,1384.2 383.698,1384.2 388.799,1384.2 391.49,1384.2 
  391.49,1384.21 394.181,1384.21 399.283,1384.21 404.385,1384.21 407.076,1384.21 407.076,1384.22 409.767,1384.22 414.868,1384.22 419.97,1384.22 422.661,1384.22 
  422.661,1384.22 425.352,1384.22 430.454,1384.22 435.555,1384.22 438.246,1384.22 438.246,1384.22 440.938,1384.22 446.039,1384.22 451.141,1384.22 453.832,1384.22 
  453.832,1384.22 456.523,1384.22 461.625,1384.22 466.726,1384.22 469.417,1384.22 469.417,1384.22 472.108,1384.22 477.21,1384.22 482.311,1384.22 485.003,1384.22 
  485.003,1384.22 487.694,1384.22 492.795,1384.22 497.897,1384.22 500.588,1384.22 500.588,1384.21 503.279,1384.21 508.381,1384.21 513.482,1384.21 516.173,1384.21 
  516.173,1384.2 518.865,1384.2 523.966,1384.2 529.068,1384.2 531.759,1384.2 531.759,1384.19 534.45,1384.19 539.552,1384.19 544.653,1384.19 547.344,1384.19 
  547.344,1384.17 550.035,1384.17 555.137,1384.17 560.238,1384.17 562.93,1384.17 562.93,1384.14 565.621,1384.14 570.722,1384.14 575.824,1384.14 578.515,1384.14 
  578.515,1384.1 581.206,1384.1 586.308,1384.1 591.409,1384.1 594.1,1384.1 594.1,1384.05 596.792,1384.05 601.893,1384.05 606.995,1384.05 609.686,1384.05 
  609.686,1383.98 612.377,1383.98 617.478,1383.98 622.58,1383.98 625.271,1383.98 625.271,1383.88 627.962,1383.88 633.064,1383.88 638.165,1383.88 640.857,1383.88 
  640.857,1383.76 643.548,1383.76 648.649,1383.76 653.751,1383.76 656.442,1383.76 656.442,1383.59 659.133,1383.59 664.235,1383.59 669.336,1383.59 672.027,1383.59 
  672.027,1383.38 674.719,1383.38 679.82,1383.38 684.922,1383.38 687.613,1383.38 687.613,1383.1 690.304,1383.1 695.405,1383.1 700.507,1383.1 703.198,1383.1 
  703.198,1382.73 705.889,1382.73 710.991,1382.73 716.092,1382.73 718.784,1382.73 718.784,1382.27 721.475,1382.27 726.576,1382.27 731.678,1382.27 734.369,1382.27 
  734.369,1381.67 737.06,1381.67 742.162,1381.67 747.263,1381.67 749.954,1381.67 749.954,1380.92 752.645,1380.92 757.747,1380.92 762.849,1380.92 765.54,1380.92 
  765.54,1379.98 768.231,1379.98 773.332,1379.98 778.434,1379.98 781.125,1379.98 781.125,1378.8 783.816,1378.8 788.918,1378.8 794.019,1378.8 796.71,1378.8 
  796.71,1377.34 799.402,1377.34 804.503,1377.34 809.605,1377.34 812.296,1377.34 812.296,1375.55 814.987,1375.55 820.089,1375.55 825.19,1375.55 827.881,1375.55 
  827.881,1373.35 830.572,1373.35 835.674,1373.35 840.775,1373.35 843.467,1373.35 843.467,1370.69 846.158,1370.69 851.259,1370.69 856.361,1370.69 859.052,1370.69 
  859.052,1367.48 861.743,1367.48 866.845,1367.48 871.946,1367.48 874.637,1367.48 874.637,1363.64 877.329,1363.64 882.43,1363.64 887.532,1363.64 890.223,1363.64 
  890.223,1359.08 892.914,1359.08 898.016,1359.08 903.117,1359.08 905.808,1359.08 905.808,1353.69 908.499,1353.69 913.601,1353.69 918.702,1353.69 921.394,1353.69 
  921.394,1347.38 924.085,1347.38 929.186,1347.38 934.288,1347.38 936.979,1347.38 936.979,1340.03 939.67,1340.03 944.772,1340.03 949.873,1340.03 952.564,1340.03 
  952.564,1331.55 955.256,1331.55 960.357,1331.55 965.459,1331.55 968.15,1331.55 968.15,1321.81 970.841,1321.81 975.942,1321.81 981.044,1321.81 983.735,1321.81 
  983.735,1310.72 986.426,1310.72 991.528,1310.72 996.629,1310.72 999.321,1310.72 999.321,1298.17 1002.01,1298.17 1007.11,1298.17 1012.21,1298.17 1014.91,1298.17 
  1014.91,1284.08 1017.6,1284.08 1022.7,1284.08 1027.8,1284.08 1030.49,1284.08 1030.49,1268.37 1033.18,1268.37 1038.28,1268.37 1043.39,1268.37 1046.08,1268.37 
  1046.08,1250.99 1048.77,1250.99 1053.87,1250.99 1058.97,1250.99 1061.66,1250.99 1061.66,1231.9 1064.35,1231.9 1069.45,1231.9 1074.56,1231.9 1077.25,1231.9 
  1077.25,1211.09 1079.94,1211.09 1085.04,1211.09 1090.14,1211.09 1092.83,1211.09 1092.83,1188.57 1095.52,1188.57 1100.63,1188.57 1105.73,1188.57 1108.42,1188.57 
  1108.42,1164.4 1111.11,1164.4 1116.21,1164.4 1121.31,1164.4 1124,1164.4 1124,1138.66 1126.69,1138.66 1131.8,1138.66 1136.9,1138.66 1139.59,1138.66 
  1139.59,1111.47 1142.28,1111.47 1147.38,1111.47 1152.48,1111.47 1155.17,1111.47 1155.17,1083 1157.87,1083 1162.97,1083 1168.07,1083 1170.76,1083 
  1170.76,1053.43 1173.45,1053.43 1178.55,1053.43 1183.65,1053.43 1186.35,1053.43 1186.35,1023 1189.04,1023 1194.14,1023 1199.24,1023 1201.93,1023 
  1201.93,991.98 1204.62,991.98 1209.72,991.98 1214.82,991.98 1217.52,991.98 1217.52,960.671 1220.21,960.671 1225.31,960.671 1230.41,960.671 1233.1,960.671 
  1233.1,929.401 1235.79,929.401 1240.89,929.401 1246,929.401 1248.69,929.401 1248.69,898.521 1251.38,898.521 1256.48,898.521 1261.58,898.521 1264.27,898.521 
  1264.27,868.401 1266.96,868.401 1272.06,868.401 1277.17,868.401 1279.86,868.401 1279.86,839.416 1282.55,839.416 1287.65,839.416 1292.75,839.416 1295.44,839.416 
  1295.44,811.945 1298.13,811.945 1303.24,811.945 1308.34,811.945 1311.03,811.945 1311.03,786.363 1313.72,786.363 1318.82,786.363 1323.92,786.363 1326.61,786.363 
  1326.61,763.026 1329.3,763.026 1334.41,763.026 1339.51,763.026 1342.2,763.026 1342.2,742.271 1344.89,742.271 1349.99,742.271 1355.09,742.271 1357.78,742.271 
  1357.78,724.401 1360.48,724.401 1365.58,724.401 1370.68,724.401 1373.37,724.401 1373.37,709.683 1376.06,709.683 1381.16,709.683 1386.26,709.683 1388.96,709.683 
  1388.96,698.34 1391.65,698.34 1396.75,698.34 1401.85,698.34 1404.54,698.34 1404.54,690.543 1407.23,690.543 1412.33,690.543 1417.43,690.543 1420.13,690.543 
  1420.13,686.409 1422.82,686.409 1427.92,686.409 1433.02,686.409 1435.71,686.409 1435.71,685.999 1438.4,685.999 1443.5,685.999 1448.61,685.999 1451.3,685.999 
  1451.3,689.315 1453.99,689.315 1459.09,689.315 1464.19,689.315 1466.88,689.315 1466.88,696.299 1469.57,696.299 1474.67,696.299 1479.78,696.299 1482.47,696.299 
  1482.47,706.837 1485.16,706.837 1490.26,706.837 1495.36,706.837 1498.05,706.837 1498.05,720.762 1500.74,720.762 1505.85,720.762 1510.95,720.762 1513.64,720.762 
  1513.64,737.856 1516.33,737.856 1521.43,737.856 1526.53,737.856 1529.22,737.856 1529.22,757.857 1531.92,757.857 1537.02,757.857 1542.12,757.857 1544.81,757.857 
  1544.81,780.466 1547.5,780.466 1552.6,780.466 1557.7,780.466 1560.39,780.466 1560.39,805.353 1563.09,805.353 1568.19,805.353 1573.29,805.353 1575.98,805.353 
  1575.98,832.166 1578.67,832.166 1583.77,832.166 1588.87,832.166 1591.57,832.166 1591.57,860.54 1594.26,860.54 1599.36,860.54 1604.46,860.54 1607.15,860.54 
  1607.15,890.1 1609.84,890.1 1614.94,890.1 1620.05,890.1 1622.74,890.1 1622.74,920.478 1625.43,920.478 1630.53,920.478 1635.63,920.478 1638.32,920.478 
  1638.32,951.31 1641.01,951.31 1646.11,951.31 1651.22,951.31 1653.91,951.31 1653.91,982.251 1656.6,982.251 1661.7,982.251 1666.8,982.251 1669.49,982.251 
  1669.49,1012.98 1672.18,1012.98 1677.29,1012.98 1682.39,1012.98 1685.08,1012.98 1685.08,1043.19 1687.77,1043.19 1692.87,1043.19 1697.97,1043.19 1700.66,1043.19 
  1700.66,1072.62 1703.35,1072.62 1708.46,1072.62 1713.56,1072.62 1716.25,1072.62 1716.25,1101.04 1718.94,1101.04 1724.04,1101.04 1729.14,1101.04 1731.83,1101.04 
  1731.83,1128.26 1734.53,1128.26 1739.63,1128.26 1744.73,1128.26 1747.42,1128.26 1747.42,1154.1 1750.11,1154.1 1755.21,1154.1 1760.31,1154.1 1763,1154.1 
  1763,1178.45 1765.7,1178.45 1770.8,1178.45 1775.9,1178.45 1778.59,1178.45 1778.59,1201.22 1781.28,1201.22 1786.38,1201.22 1791.48,1201.22 1794.18,1201.22 
  1794.18,1222.35 1796.87,1222.35 1801.97,1222.35 1807.07,1222.35 1809.76,1222.35 1809.76,1241.81 1812.45,1241.81 1817.55,1241.81 1822.66,1241.81 1825.35,1241.81 
  1825.35,1259.62 1828.04,1259.62 1833.14,1259.62 1838.24,1259.62 1840.93,1259.62 1840.93,1275.79 1843.62,1275.79 1848.72,1275.79 1853.83,1275.79 1856.52,1275.79 
  1856.52,1290.37 1859.21,1290.37 1864.31,1290.37 1869.41,1290.37 1872.1,1290.37 1872.1,1303.44 1874.79,1303.44 1879.9,1303.44 1885,1303.44 1887.69,1303.44 
  1887.69,1315.07 1890.38,1315.07 1895.48,1315.07 1900.58,1315.07 1903.27,1315.07 1903.27,1325.35 1905.96,1325.35 1911.07,1325.35 1916.17,1325.35 1918.86,1325.35 
  1918.86,1334.37 1921.55,1334.37 1926.65,1334.37 1931.75,1334.37 1934.44,1334.37 1934.44,1342.24 1937.14,1342.24 1942.24,1342.24 1947.34,1342.24 1950.03,1342.24 
  1950.03,1349.07 1952.72,1349.07 1957.82,1349.07 1962.92,1349.07 1965.61,1349.07 1965.61,1354.94 1968.31,1354.94 1973.41,1354.94 1978.51,1354.94 1981.2,1354.94 
  1981.2,1359.97 1983.89,1359.97 1988.99,1359.97 1994.09,1359.97 1996.79,1359.97 1996.79,1364.25 1999.48,1364.25 2004.58,1364.25 2009.68,1364.25 2012.37,1364.25 
  2012.37,1367.86 2015.06,1367.86 2020.16,1367.86 2025.27,1367.86 2027.96,1367.86 2027.96,1370.9 2030.65,1370.9 2035.75,1370.9 2040.85,1370.9 2043.54,1370.9 
  2043.54,1373.43 2046.23,1373.43 2051.33,1373.43 2056.44,1373.43 2059.13,1373.43 2059.13,1375.53 2061.82,1375.53 2066.92,1375.53 2072.02,1375.53 2074.71,1375.53 
  2074.71,1377.26 2077.4,1377.26 2082.51,1377.26 2087.61,1377.26 2090.3,1377.26 2090.3,1378.67 2092.99,1378.67 2098.09,1378.67 2103.19,1378.67 2105.88,1378.67 
  2105.88,1379.83 2108.57,1379.83 2113.68,1379.83 2118.78,1379.83 2121.47,1379.83 2121.47,1380.76 2124.16,1380.76 2129.26,1380.76 2134.36,1380.76 2137.05,1380.76 
  2137.05,1381.51 2139.75,1381.51 2144.85,1381.51 2149.95,1381.51 2152.64,1381.51 2152.64,1382.12 2155.33,1382.12 2160.43,1382.12 2165.53,1382.12 2168.22,1382.12 
  2168.22,1382.59 2170.92,1382.59 2176.02,1382.59 2181.12,1382.59 2183.81,1382.59 2183.81,1382.97 2186.5,1382.97 2191.6,1382.97 2196.7,1382.97 2199.4,1382.97 
  2199.4,1383.27 2202.09,1383.27 2207.19,1383.27 2212.29,1383.27 2214.98,1383.27 2214.98,1383.5 2217.67,1383.5 2222.77,1383.5 2227.88,1383.5 2230.57,1383.5 
  2230.57,1383.68 2233.26,1383.68 2238.36,1383.68 2243.46,1383.68 2246.15,1383.68 2246.15,1383.81 2248.84,1383.81 2253.94,1383.81 2259.05,1383.81 2261.74,1383.81 
  2261.74,1383.92 2264.43,1383.92 2269.53,1383.92 2274.63,1383.92 2277.32,1383.92 2277.32,1384 2280.01,1384 2285.12,1384 2290.22,1384 2292.91,1384 
  
  "/>
<path clip-path="url(#clip020)" d="
M1802.38 274.549 L2282.27 274.549 L2282.27 93.1086 L1802.38 93.1086  Z
  " fill="#ffffff" fill-rule="evenodd" fill-opacity="1"/>
<polyline clip-path="url(#clip020)" style="stroke:#000000; stroke-width:4; stroke-opacity:1; fill:none" points="
  1802.38,274.549 2282.27,274.549 2282.27,93.1086 1802.38,93.1086 1802.38,274.549 
  "/>
<polyline clip-path="url(#clip020)" style="stroke:#009af9; stroke-width:4; stroke-opacity:1; fill:none" points="
  1825.88,153.589 1966.85,153.589 
  "/>
<path clip-path="url(#clip020)" d="M 0 0 M1994.75 157.929 Q1994.75 162.628 1996.67 165.313 Q1998.61 167.975 2001.99 167.975 Q2005.37 167.975 2007.31 165.313 Q2009.26 162.628 2009.26 157.929 Q2009.26 153.23 2007.31 150.568 Q2005.37 147.883 2001.99 147.883 Q1998.61 147.883 1996.67 150.568 Q1994.75 153.23 1994.75 157.929 M2009.26 166.98 Q2007.92 169.295 2005.86 170.429 Q2003.82 171.54 2000.95 171.54 Q1996.25 171.54 1993.29 167.79 Q1990.35 164.04 1990.35 157.929 Q1990.35 151.818 1993.29 148.068 Q1996.25 144.318 2000.95 144.318 Q2003.82 144.318 2005.86 145.452 Q2007.92 146.563 2009.26 148.878 L2009.26 144.943 L2013.52 144.943 L2013.52 180.73 L2009.26 180.73 L2009.26 166.98 Z" fill="#000000" fill-rule="evenodd" fill-opacity="1" /><path clip-path="url(#clip020)" d="M 0 0 M2019.07 164.989 L2023.96 164.989 L2023.96 168.97 L2020.16 176.378 L2017.18 176.378 L2019.07 168.97 L2019.07 164.989 Z" fill="#000000" fill-rule="evenodd" fill-opacity="1" /><path clip-path="url(#clip020)" d="M 0 0 M2047.71 137.582 L2047.71 144.943 L2056.48 144.943 L2056.48 148.253 L2047.71 148.253 L2047.71 162.327 Q2047.71 165.498 2048.56 166.401 Q2049.44 167.304 2052.11 167.304 L2056.48 167.304 L2056.48 170.869 L2052.11 170.869 Q2047.18 170.869 2045.3 169.04 Q2043.43 167.188 2043.43 162.327 L2043.43 148.253 L2040.3 148.253 L2040.3 144.943 L2043.43 144.943 L2043.43 137.582 L2047.71 137.582 Z" fill="#000000" fill-rule="evenodd" fill-opacity="1" /><path clip-path="url(#clip020)" d="M 0 0 M2061.5 149.341 L2091.18 149.341 L2091.18 153.23 L2061.5 153.23 L2061.5 149.341 M2061.5 158.785 L2091.18 158.785 L2091.18 162.721 L2061.5 162.721 L2061.5 158.785 Z" fill="#000000" fill-rule="evenodd" fill-opacity="1" /><path clip-path="url(#clip020)" d="M 0 0 M2106.25 139.387 Q2102.64 139.387 2100.81 142.952 Q2099 146.494 2099 153.623 Q2099 160.73 2100.81 164.295 Q2102.64 167.836 2106.25 167.836 Q2109.88 167.836 2111.69 164.295 Q2113.52 160.73 2113.52 153.623 Q2113.52 146.494 2111.69 142.952 Q2109.88 139.387 2106.25 139.387 M2106.25 135.684 Q2112.06 135.684 2115.12 140.29 Q2118.19 144.873 2118.19 153.623 Q2118.19 162.35 2115.12 166.957 Q2112.06 171.54 2106.25 171.54 Q2100.44 171.54 2097.36 166.957 Q2094.31 162.35 2094.31 153.623 Q2094.31 144.873 2097.36 140.29 Q2100.44 135.684 2106.25 135.684 Z" fill="#000000" fill-rule="evenodd" fill-opacity="1" /><path clip-path="url(#clip020)" d="M 0 0 M2123.26 164.989 L2128.15 164.989 L2128.15 170.869 L2123.26 170.869 L2123.26 164.989 Z" fill="#000000" fill-rule="evenodd" fill-opacity="1" /><path clip-path="url(#clip020)" d="M 0 0 M2143.22 139.387 Q2139.61 139.387 2137.78 142.952 Q2135.97 146.494 2135.97 153.623 Q2135.97 160.73 2137.78 164.295 Q2139.61 167.836 2143.22 167.836 Q2146.85 167.836 2148.66 164.295 Q2150.49 160.73 2150.49 153.623 Q2150.49 146.494 2148.66 142.952 Q2146.85 139.387 2143.22 139.387 M2143.22 135.684 Q2149.03 135.684 2152.08 140.29 Q2155.16 144.873 2155.16 153.623 Q2155.16 162.35 2152.08 166.957 Q2149.03 171.54 2143.22 171.54 Q2137.41 171.54 2134.33 166.957 Q2131.27 162.35 2131.27 153.623 Q2131.27 144.873 2134.33 140.29 Q2137.41 135.684 2143.22 135.684 Z" fill="#000000" fill-rule="evenodd" fill-opacity="1" /><polyline clip-path="url(#clip020)" style="stroke:#e26f46; stroke-width:4; stroke-opacity:1; fill:none" points="
  1825.88,214.069 1966.85,214.069 
  "/>
<path clip-path="url(#clip020)" d="M 0 0 M1994.75 218.409 Q1994.75 223.108 1996.67 225.793 Q1998.61 228.455 2001.99 228.455 Q2005.37 228.455 2007.31 225.793 Q2009.26 223.108 2009.26 218.409 Q2009.26 213.71 2007.31 211.048 Q2005.37 208.363 2001.99 208.363 Q1998.61 208.363 1996.67 211.048 Q1994.75 213.71 1994.75 218.409 M2009.26 227.46 Q2007.92 229.775 2005.86 230.909 Q2003.82 232.02 2000.95 232.02 Q1996.25 232.02 1993.29 228.27 Q1990.35 224.52 1990.35 218.409 Q1990.35 212.298 1993.29 208.548 Q1996.25 204.798 2000.95 204.798 Q2003.82 204.798 2005.86 205.932 Q2007.92 207.043 2009.26 209.358 L2009.26 205.423 L2013.52 205.423 L2013.52 241.21 L2009.26 241.21 L2009.26 227.46 Z" fill="#000000" fill-rule="evenodd" fill-opacity="1" /><path clip-path="url(#clip020)" d="M 0 0 M2019.07 225.469 L2023.96 225.469 L2023.96 229.45 L2020.16 236.858 L2017.18 236.858 L2019.07 229.45 L2019.07 225.469 Z" fill="#000000" fill-rule="evenodd" fill-opacity="1" /><path clip-path="url(#clip020)" d="M 0 0 M2047.71 198.062 L2047.71 205.423 L2056.48 205.423 L2056.48 208.733 L2047.71 208.733 L2047.71 222.807 Q2047.71 225.978 2048.56 226.881 Q2049.44 227.784 2052.11 227.784 L2056.48 227.784 L2056.48 231.349 L2052.11 231.349 Q2047.18 231.349 2045.3 229.52 Q2043.43 227.668 2043.43 222.807 L2043.43 208.733 L2040.3 208.733 L2040.3 205.423 L2043.43 205.423 L2043.43 198.062 L2047.71 198.062 Z" fill="#000000" fill-rule="evenodd" fill-opacity="1" /><path clip-path="url(#clip020)" d="M 0 0 M2061.5 209.821 L2091.18 209.821 L2091.18 213.71 L2061.5 213.71 L2061.5 209.821 M2061.5 219.265 L2091.18 219.265 L2091.18 223.201 L2061.5 223.201 L2061.5 219.265 Z" fill="#000000" fill-rule="evenodd" fill-opacity="1" /><path clip-path="url(#clip020)" d="M 0 0 M2109.1 200.863 L2097.29 219.312 L2109.1 219.312 L2109.1 200.863 M2107.87 196.789 L2113.75 196.789 L2113.75 219.312 L2118.68 219.312 L2118.68 223.201 L2113.75 223.201 L2113.75 231.349 L2109.1 231.349 L2109.1 223.201 L2093.5 223.201 L2093.5 218.687 L2107.87 196.789 Z" fill="#000000" fill-rule="evenodd" fill-opacity="1" /><path clip-path="url(#clip020)" d="M 0 0 M2123.8 196.789 L2142.15 196.789 L2142.15 200.724 L2128.08 200.724 L2128.08 209.196 Q2129.1 208.849 2130.12 208.687 Q2131.13 208.502 2132.15 208.502 Q2137.94 208.502 2141.32 211.673 Q2144.7 214.844 2144.7 220.261 Q2144.7 225.839 2141.23 228.941 Q2137.75 232.02 2131.43 232.02 Q2129.26 232.02 2126.99 231.65 Q2124.74 231.279 2122.34 230.538 L2122.34 225.839 Q2124.42 226.974 2126.64 227.529 Q2128.87 228.085 2131.34 228.085 Q2135.35 228.085 2137.68 225.978 Q2140.02 223.872 2140.02 220.261 Q2140.02 216.65 2137.68 214.543 Q2135.35 212.437 2131.34 212.437 Q2129.47 212.437 2127.59 212.853 Q2125.74 213.27 2123.8 214.15 L2123.8 196.789 Z" fill="#000000" fill-rule="evenodd" fill-opacity="1" /><path clip-path="url(#clip020)" d="M 0 0 M2159.77 199.867 Q2156.16 199.867 2154.33 203.432 Q2152.52 206.974 2152.52 214.103 Q2152.52 221.21 2154.33 224.775 Q2156.16 228.316 2159.77 228.316 Q2163.4 228.316 2165.21 224.775 Q2167.04 221.21 2167.04 214.103 Q2167.04 206.974 2165.21 203.432 Q2163.4 199.867 2159.77 199.867 M2159.77 196.164 Q2165.58 196.164 2168.63 200.77 Q2171.71 205.353 2171.71 214.103 Q2171.71 222.83 2168.63 227.437 Q2165.58 232.02 2159.77 232.02 Q2153.96 232.02 2150.88 227.437 Q2147.82 222.83 2147.82 214.103 Q2147.82 205.353 2150.88 200.77 Q2153.96 196.164 2159.77 196.164 Z" fill="#000000" fill-rule="evenodd" fill-opacity="1" /><path clip-path="url(#clip020)" d="M 0 0 M2176.78 225.469 L2181.67 225.469 L2181.67 231.349 L2176.78 231.349 L2176.78 225.469 Z" fill="#000000" fill-rule="evenodd" fill-opacity="1" /><path clip-path="url(#clip020)" d="M 0 0 M2199.58 200.863 L2187.78 219.312 L2199.58 219.312 L2199.58 200.863 M2198.36 196.789 L2204.24 196.789 L2204.24 219.312 L2209.17 219.312 L2209.17 223.201 L2204.24 223.201 L2204.24 231.349 L2199.58 231.349 L2199.58 223.201 L2183.98 223.201 L2183.98 218.687 L2198.36 196.789 Z" fill="#000000" fill-rule="evenodd" fill-opacity="1" /><path clip-path="url(#clip020)" d="M 0 0 M2213.05 196.789 L2235.28 196.789 L2235.28 198.779 L2222.73 231.349 L2217.85 231.349 L2229.65 200.724 L2213.05 200.724 L2213.05 196.789 Z" fill="#000000" fill-rule="evenodd" fill-opacity="1" /></svg>
