<?xml version="1.0" encoding="utf-8"?>
<svg xmlns="http://www.w3.org/2000/svg" xmlns:xlink="http://www.w3.org/1999/xlink" width="600" height="400" viewBox="0 0 2400 1600">
<defs>
  <clipPath id="clip010">
    <rect x="0" y="0" width="2400" height="1600"/>
  </clipPath>
</defs>
<path clip-path="url(#clip010)" d="
M0 1600 L2400 1600 L2400 0 L0 0  Z
  " fill="#ffffff" fill-rule="evenodd" fill-opacity="1"/>
<defs>
  <clipPath id="clip011">
    <rect x="480" y="0" width="1681" height="1600"/>
  </clipPath>
</defs>
<path clip-path="url(#clip010)" d="
M334.958 1423.18 L2352.76 1423.18 L2352.76 123.472 L334.958 123.472  Z
  " fill="#ffffff" fill-rule="evenodd" fill-opacity="1"/>
<defs>
  <clipPath id="clip012">
    <rect x="334" y="123" width="2019" height="1301"/>
  </clipPath>
</defs>
<polyline clip-path="url(#clip012)" style="stroke:#000000; stroke-width:2; stroke-opacity:0.1; fill:none" points="
  392.062,1423.18 392.062,123.472 
  "/>
<polyline clip-path="url(#clip012)" style="stroke:#000000; stroke-width:2; stroke-opacity:0.1; fill:none" points="
  772.779,1423.18 772.779,123.472 
  "/>
<polyline clip-path="url(#clip012)" style="stroke:#000000; stroke-width:2; stroke-opacity:0.1; fill:none" points="
  1153.5,1423.18 1153.5,123.472 
  "/>
<polyline clip-path="url(#clip012)" style="stroke:#000000; stroke-width:2; stroke-opacity:0.1; fill:none" points="
  1534.21,1423.18 1534.21,123.472 
  "/>
<polyline clip-path="url(#clip012)" style="stroke:#000000; stroke-width:2; stroke-opacity:0.1; fill:none" points="
  1914.93,1423.18 1914.93,123.472 
  "/>
<polyline clip-path="url(#clip012)" style="stroke:#000000; stroke-width:2; stroke-opacity:0.1; fill:none" points="
  2295.65,1423.18 2295.65,123.472 
  "/>
<polyline clip-path="url(#clip012)" style="stroke:#000000; stroke-width:2; stroke-opacity:0.1; fill:none" points="
  334.958,1386.41 2352.76,1386.41 
  "/>
<polyline clip-path="url(#clip012)" style="stroke:#000000; stroke-width:2; stroke-opacity:0.1; fill:none" points="
  334.958,1109.69 2352.76,1109.69 
  "/>
<polyline clip-path="url(#clip012)" style="stroke:#000000; stroke-width:2; stroke-opacity:0.1; fill:none" points="
  334.958,832.966 2352.76,832.966 
  "/>
<polyline clip-path="url(#clip012)" style="stroke:#000000; stroke-width:2; stroke-opacity:0.1; fill:none" points="
  334.958,556.246 2352.76,556.246 
  "/>
<polyline clip-path="url(#clip012)" style="stroke:#000000; stroke-width:2; stroke-opacity:0.1; fill:none" points="
  334.958,279.525 2352.76,279.525 
  "/>
<polyline clip-path="url(#clip010)" style="stroke:#000000; stroke-width:4; stroke-opacity:1; fill:none" points="
  334.958,1423.18 2352.76,1423.18 
  "/>
<polyline clip-path="url(#clip010)" style="stroke:#000000; stroke-width:4; stroke-opacity:1; fill:none" points="
  334.958,1423.18 334.958,123.472 
  "/>
<polyline clip-path="url(#clip010)" style="stroke:#000000; stroke-width:4; stroke-opacity:1; fill:none" points="
  392.062,1423.18 392.062,1407.58 
  "/>
<polyline clip-path="url(#clip010)" style="stroke:#000000; stroke-width:4; stroke-opacity:1; fill:none" points="
  772.779,1423.18 772.779,1407.58 
  "/>
<polyline clip-path="url(#clip010)" style="stroke:#000000; stroke-width:4; stroke-opacity:1; fill:none" points="
  1153.5,1423.18 1153.5,1407.58 
  "/>
<polyline clip-path="url(#clip010)" style="stroke:#000000; stroke-width:4; stroke-opacity:1; fill:none" points="
  1534.21,1423.18 1534.21,1407.58 
  "/>
<polyline clip-path="url(#clip010)" style="stroke:#000000; stroke-width:4; stroke-opacity:1; fill:none" points="
  1914.93,1423.18 1914.93,1407.58 
  "/>
<polyline clip-path="url(#clip010)" style="stroke:#000000; stroke-width:4; stroke-opacity:1; fill:none" points="
  2295.65,1423.18 2295.65,1407.58 
  "/>
<polyline clip-path="url(#clip010)" style="stroke:#000000; stroke-width:4; stroke-opacity:1; fill:none" points="
  334.958,1386.41 359.172,1386.41 
  "/>
<polyline clip-path="url(#clip010)" style="stroke:#000000; stroke-width:4; stroke-opacity:1; fill:none" points="
  334.958,1109.69 359.172,1109.69 
  "/>
<polyline clip-path="url(#clip010)" style="stroke:#000000; stroke-width:4; stroke-opacity:1; fill:none" points="
  334.958,832.966 359.172,832.966 
  "/>
<polyline clip-path="url(#clip010)" style="stroke:#000000; stroke-width:4; stroke-opacity:1; fill:none" points="
  334.958,556.246 359.172,556.246 
  "/>
<polyline clip-path="url(#clip010)" style="stroke:#000000; stroke-width:4; stroke-opacity:1; fill:none" points="
  334.958,279.525 359.172,279.525 
  "/>
<path clip-path="url(#clip010)" d="M 0 0 M392.062 1445.17 Q388.451 1445.17 386.622 1448.74 Q384.817 1452.28 384.817 1459.41 Q384.817 1466.51 386.622 1470.08 Q388.451 1473.62 392.062 1473.62 Q395.696 1473.62 397.502 1470.08 Q399.33 1466.51 399.33 1459.41 Q399.33 1452.28 397.502 1448.74 Q395.696 1445.17 392.062 1445.17 M392.062 1441.47 Q397.872 1441.47 400.928 1446.07 Q404.006 1450.66 404.006 1459.41 Q404.006 1468.13 400.928 1472.74 Q397.872 1477.32 392.062 1477.32 Q386.252 1477.32 383.173 1472.74 Q380.118 1468.13 380.118 1459.41 Q380.118 1450.66 383.173 1446.07 Q386.252 1441.47 392.062 1441.47 Z" fill="#000000" fill-rule="evenodd" fill-opacity="1" /><path clip-path="url(#clip010)" d="M 0 0 M763.161 1472.72 L770.8 1472.72 L770.8 1446.35 L762.49 1448.02 L762.49 1443.76 L770.754 1442.09 L775.43 1442.09 L775.43 1472.72 L783.069 1472.72 L783.069 1476.65 L763.161 1476.65 L763.161 1472.72 Z" fill="#000000" fill-rule="evenodd" fill-opacity="1" /><path clip-path="url(#clip010)" d="M 0 0 M1148.15 1472.72 L1164.47 1472.72 L1164.47 1476.65 L1142.52 1476.65 L1142.52 1472.72 Q1145.19 1469.96 1149.77 1465.33 Q1154.38 1460.68 1155.56 1459.34 Q1157.8 1456.81 1158.68 1455.08 Q1159.58 1453.32 1159.58 1451.63 Q1159.58 1448.87 1157.64 1447.14 Q1155.72 1445.4 1152.62 1445.4 Q1150.42 1445.4 1147.96 1446.17 Q1145.53 1446.93 1142.76 1448.48 L1142.76 1443.76 Q1145.58 1442.62 1148.03 1442.05 Q1150.49 1441.47 1152.52 1441.47 Q1157.89 1441.47 1161.09 1444.15 Q1164.28 1446.84 1164.28 1451.33 Q1164.28 1453.46 1163.47 1455.38 Q1162.69 1457.28 1160.58 1459.87 Q1160 1460.54 1156.9 1463.76 Q1153.8 1466.95 1148.15 1472.72 Z" fill="#000000" fill-rule="evenodd" fill-opacity="1" /><path clip-path="url(#clip010)" d="M 0 0 M1538.46 1458.02 Q1541.82 1458.74 1543.69 1461 Q1545.59 1463.27 1545.59 1466.61 Q1545.59 1471.72 1542.07 1474.52 Q1538.55 1477.32 1532.07 1477.32 Q1529.9 1477.32 1527.58 1476.88 Q1525.29 1476.47 1522.84 1475.61 L1522.84 1471.1 Q1524.78 1472.23 1527.1 1472.81 Q1529.41 1473.39 1531.93 1473.39 Q1536.33 1473.39 1538.62 1471.65 Q1540.94 1469.92 1540.94 1466.61 Q1540.94 1463.55 1538.79 1461.84 Q1536.66 1460.1 1532.84 1460.1 L1528.81 1460.1 L1528.81 1456.26 L1533.02 1456.26 Q1536.47 1456.26 1538.3 1454.89 Q1540.13 1453.5 1540.13 1450.91 Q1540.13 1448.25 1538.23 1446.84 Q1536.36 1445.4 1532.84 1445.4 Q1530.92 1445.4 1528.72 1445.82 Q1526.52 1446.24 1523.88 1447.11 L1523.88 1442.95 Q1526.54 1442.21 1528.86 1441.84 Q1531.19 1441.47 1533.25 1441.47 Q1538.58 1441.47 1541.68 1443.9 Q1544.78 1446.3 1544.78 1450.43 Q1544.78 1453.3 1543.14 1455.29 Q1541.49 1457.25 1538.46 1458.02 Z" fill="#000000" fill-rule="evenodd" fill-opacity="1" /><path clip-path="url(#clip010)" d="M 0 0 M1917.94 1446.17 L1906.13 1464.61 L1917.94 1464.61 L1917.94 1446.17 M1916.71 1442.09 L1922.59 1442.09 L1922.59 1464.61 L1927.52 1464.61 L1927.52 1468.5 L1922.59 1468.5 L1922.59 1476.65 L1917.94 1476.65 L1917.94 1468.5 L1902.34 1468.5 L1902.34 1463.99 L1916.71 1442.09 Z" fill="#000000" fill-rule="evenodd" fill-opacity="1" /><path clip-path="url(#clip010)" d="M 0 0 M2285.93 1442.09 L2304.28 1442.09 L2304.28 1446.03 L2290.21 1446.03 L2290.21 1454.5 Q2291.23 1454.15 2292.25 1453.99 Q2293.26 1453.8 2294.28 1453.8 Q2300.07 1453.8 2303.45 1456.98 Q2306.83 1460.15 2306.83 1465.56 Q2306.83 1471.14 2303.36 1474.24 Q2299.88 1477.32 2293.57 1477.32 Q2291.39 1477.32 2289.12 1476.95 Q2286.88 1476.58 2284.47 1475.84 L2284.47 1471.14 Q2286.55 1472.28 2288.77 1472.83 Q2291 1473.39 2293.47 1473.39 Q2297.48 1473.39 2299.82 1471.28 Q2302.15 1469.18 2302.15 1465.56 Q2302.15 1461.95 2299.82 1459.85 Q2297.48 1457.74 2293.47 1457.74 Q2291.6 1457.74 2289.72 1458.16 Q2287.87 1458.57 2285.93 1459.45 L2285.93 1442.09 Z" fill="#000000" fill-rule="evenodd" fill-opacity="1" /><path clip-path="url(#clip010)" d="M 0 0 M299.014 1372.21 Q295.403 1372.21 293.574 1375.77 Q291.769 1379.31 291.769 1386.44 Q291.769 1393.55 293.574 1397.11 Q295.403 1400.66 299.014 1400.66 Q302.648 1400.66 304.454 1397.11 Q306.282 1393.55 306.282 1386.44 Q306.282 1379.31 304.454 1375.77 Q302.648 1372.21 299.014 1372.21 M299.014 1368.5 Q304.824 1368.5 307.88 1373.11 Q310.958 1377.69 310.958 1386.44 Q310.958 1395.17 307.88 1399.78 Q304.824 1404.36 299.014 1404.36 Q293.204 1404.36 290.125 1399.78 Q287.069 1395.17 287.069 1386.44 Q287.069 1377.69 290.125 1373.11 Q293.204 1368.5 299.014 1368.5 Z" fill="#000000" fill-rule="evenodd" fill-opacity="1" /><path clip-path="url(#clip010)" d="M 0 0 M129.123 1129.48 L145.443 1129.48 L145.443 1133.41 L123.498 1133.41 L123.498 1129.48 Q126.16 1126.72 130.744 1122.1 Q135.35 1117.44 136.531 1116.1 Q138.776 1113.58 139.656 1111.84 Q140.558 1110.08 140.558 1108.39 Q140.558 1105.64 138.614 1103.9 Q136.693 1102.16 133.591 1102.16 Q131.392 1102.16 128.938 1102.93 Q126.508 1103.69 123.73 1105.24 L123.73 1100.52 Q126.554 1099.39 129.008 1098.81 Q131.461 1098.23 133.498 1098.23 Q138.869 1098.23 142.063 1100.91 Q145.257 1103.6 145.257 1108.09 Q145.257 1110.22 144.447 1112.14 Q143.66 1114.04 141.554 1116.63 Q140.975 1117.3 137.873 1120.52 Q134.771 1123.72 129.123 1129.48 Z" fill="#000000" fill-rule="evenodd" fill-opacity="1" /><path clip-path="url(#clip010)" d="M 0 0 M150.512 1127.54 L155.396 1127.54 L155.396 1133.41 L150.512 1133.41 L150.512 1127.54 Z" fill="#000000" fill-rule="evenodd" fill-opacity="1" /><path clip-path="url(#clip010)" d="M 0 0 M160.512 1098.85 L178.868 1098.85 L178.868 1102.79 L164.794 1102.79 L164.794 1111.26 Q165.813 1110.91 166.831 1110.75 Q167.85 1110.57 168.868 1110.57 Q174.655 1110.57 178.035 1113.74 Q181.415 1116.91 181.415 1122.33 Q181.415 1127.91 177.942 1131.01 Q174.47 1134.09 168.151 1134.09 Q165.975 1134.09 163.706 1133.72 Q161.461 1133.35 159.054 1132.6 L159.054 1127.91 Q161.137 1129.04 163.359 1129.6 Q165.581 1130.15 168.058 1130.15 Q172.063 1130.15 174.401 1128.04 Q176.739 1125.94 176.739 1122.33 Q176.739 1118.72 174.401 1116.61 Q172.063 1114.5 168.058 1114.5 Q166.183 1114.5 164.308 1114.92 Q162.456 1115.34 160.512 1116.22 L160.512 1098.85 Z" fill="#000000" fill-rule="evenodd" fill-opacity="1" /><path clip-path="url(#clip010)" d="M 0 0 M214.655 1107.95 L204.077 1118.58 L214.655 1129.16 L211.901 1131.96 L201.276 1121.33 L190.651 1131.96 L187.919 1129.16 L198.475 1118.58 L187.919 1107.95 L190.651 1105.15 L201.276 1115.78 L211.901 1105.15 L214.655 1107.95 Z" fill="#000000" fill-rule="evenodd" fill-opacity="1" /><path clip-path="url(#clip010)" d="M 0 0 M220.535 1129.48 L228.174 1129.48 L228.174 1103.11 L219.864 1104.78 L219.864 1100.52 L228.127 1098.85 L232.803 1098.85 L232.803 1129.48 L240.442 1129.48 L240.442 1133.41 L220.535 1133.41 L220.535 1129.48 Z" fill="#000000" fill-rule="evenodd" fill-opacity="1" /><path clip-path="url(#clip010)" d="M 0 0 M255.511 1101.93 Q251.9 1101.93 250.072 1105.5 Q248.266 1109.04 248.266 1116.17 Q248.266 1123.28 250.072 1126.84 Q251.9 1130.38 255.511 1130.38 Q259.146 1130.38 260.951 1126.84 Q262.78 1123.28 262.78 1116.17 Q262.78 1109.04 260.951 1105.5 Q259.146 1101.93 255.511 1101.93 M255.511 1098.23 Q261.322 1098.23 264.377 1102.84 Q267.456 1107.42 267.456 1116.17 Q267.456 1124.9 264.377 1129.5 Q261.322 1134.09 255.511 1134.09 Q249.701 1134.09 246.623 1129.5 Q243.567 1124.9 243.567 1116.17 Q243.567 1107.42 246.623 1102.84 Q249.701 1098.23 255.511 1098.23 Z" fill="#000000" fill-rule="evenodd" fill-opacity="1" /><path clip-path="url(#clip010)" d="M 0 0 M267.456 1093.91 L277.593 1093.91 L277.593 1097 L267.456 1097 L267.456 1093.91 Z" fill="#000000" fill-rule="evenodd" fill-opacity="1" /><path clip-path="url(#clip010)" d="M 0 0 M301.592 1090.45 Q299.034 1090.45 297.529 1092.2 Q296.044 1093.95 296.044 1097 Q296.044 1100.02 297.529 1101.79 Q299.034 1103.54 301.592 1103.54 Q304.15 1103.54 305.636 1101.79 Q307.14 1100.02 307.14 1097 Q307.14 1093.95 305.636 1092.2 Q304.15 1090.45 301.592 1090.45 M309.134 1078.54 L309.134 1082.01 Q307.704 1081.33 306.237 1080.97 Q304.789 1080.61 303.36 1080.61 Q299.598 1080.61 297.605 1083.15 Q295.63 1085.69 295.348 1090.83 Q296.457 1089.19 298.131 1088.33 Q299.805 1087.44 301.818 1087.44 Q306.049 1087.44 308.494 1090.02 Q310.958 1092.58 310.958 1097 Q310.958 1101.32 308.4 1103.94 Q305.843 1106.55 301.592 1106.55 Q296.721 1106.55 294.144 1102.83 Q291.567 1099.08 291.567 1091.99 Q291.567 1085.33 294.727 1081.38 Q297.887 1077.42 303.209 1077.42 Q304.639 1077.42 306.087 1077.7 Q307.554 1077.98 309.134 1078.54 Z" fill="#000000" fill-rule="evenodd" fill-opacity="1" /><path clip-path="url(#clip010)" d="M 0 0 M123.545 822.134 L141.901 822.134 L141.901 826.069 L127.827 826.069 L127.827 834.541 Q128.846 834.194 129.864 834.032 Q130.883 833.847 131.901 833.847 Q137.688 833.847 141.068 837.018 Q144.447 840.19 144.447 845.606 Q144.447 851.185 140.975 854.287 Q137.503 857.365 131.183 857.365 Q129.008 857.365 126.739 856.995 Q124.494 856.625 122.086 855.884 L122.086 851.185 Q124.17 852.319 126.392 852.875 Q128.614 853.43 131.091 853.43 Q135.095 853.43 137.433 851.324 Q139.771 849.217 139.771 845.606 Q139.771 841.995 137.433 839.889 Q135.095 837.782 131.091 837.782 Q129.216 837.782 127.341 838.199 Q125.489 838.615 123.545 839.495 L123.545 822.134 Z" fill="#000000" fill-rule="evenodd" fill-opacity="1" /><path clip-path="url(#clip010)" d="M 0 0 M149.517 850.814 L154.401 850.814 L154.401 856.694 L149.517 856.694 L149.517 850.814 Z" fill="#000000" fill-rule="evenodd" fill-opacity="1" /><path clip-path="url(#clip010)" d="M 0 0 M169.47 825.213 Q165.859 825.213 164.03 828.778 Q162.225 832.319 162.225 839.449 Q162.225 846.555 164.03 850.12 Q165.859 853.662 169.47 853.662 Q173.105 853.662 174.91 850.12 Q176.739 846.555 176.739 839.449 Q176.739 832.319 174.91 828.778 Q173.105 825.213 169.47 825.213 M169.47 821.509 Q175.28 821.509 178.336 826.116 Q181.415 830.699 181.415 839.449 Q181.415 848.176 178.336 852.782 Q175.28 857.365 169.47 857.365 Q163.66 857.365 160.581 852.782 Q157.526 848.176 157.526 839.449 Q157.526 830.699 160.581 826.116 Q163.66 821.509 169.47 821.509 Z" fill="#000000" fill-rule="evenodd" fill-opacity="1" /><path clip-path="url(#clip010)" d="M 0 0 M214.655 831.231 L204.077 841.856 L214.655 852.435 L211.901 855.236 L201.276 844.611 L190.651 855.236 L187.919 852.435 L198.475 841.856 L187.919 831.231 L190.651 828.43 L201.276 839.055 L211.901 828.43 L214.655 831.231 Z" fill="#000000" fill-rule="evenodd" fill-opacity="1" /><path clip-path="url(#clip010)" d="M 0 0 M220.535 852.759 L228.174 852.759 L228.174 826.393 L219.864 828.06 L219.864 823.801 L228.127 822.134 L232.803 822.134 L232.803 852.759 L240.442 852.759 L240.442 856.694 L220.535 856.694 L220.535 852.759 Z" fill="#000000" fill-rule="evenodd" fill-opacity="1" /><path clip-path="url(#clip010)" d="M 0 0 M255.511 825.213 Q251.9 825.213 250.072 828.778 Q248.266 832.319 248.266 839.449 Q248.266 846.555 250.072 850.12 Q251.9 853.662 255.511 853.662 Q259.146 853.662 260.951 850.12 Q262.78 846.555 262.78 839.449 Q262.78 832.319 260.951 828.778 Q259.146 825.213 255.511 825.213 M255.511 821.509 Q261.322 821.509 264.377 826.116 Q267.456 830.699 267.456 839.449 Q267.456 848.176 264.377 852.782 Q261.322 857.365 255.511 857.365 Q249.701 857.365 246.623 852.782 Q243.567 848.176 243.567 839.449 Q243.567 830.699 246.623 826.116 Q249.701 821.509 255.511 821.509 Z" fill="#000000" fill-rule="evenodd" fill-opacity="1" /><path clip-path="url(#clip010)" d="M 0 0 M267.456 817.19 L277.593 817.19 L277.593 820.275 L267.456 820.275 L267.456 817.19 Z" fill="#000000" fill-rule="evenodd" fill-opacity="1" /><path clip-path="url(#clip010)" d="M 0 0 M301.592 813.73 Q299.034 813.73 297.529 815.479 Q296.044 817.228 296.044 820.275 Q296.044 823.303 297.529 825.071 Q299.034 826.82 301.592 826.82 Q304.15 826.82 305.636 825.071 Q307.14 823.303 307.14 820.275 Q307.14 817.228 305.636 815.479 Q304.15 813.73 301.592 813.73 M309.134 801.824 L309.134 805.285 Q307.704 804.608 306.237 804.251 Q304.789 803.893 303.36 803.893 Q299.598 803.893 297.605 806.432 Q295.63 808.971 295.348 814.106 Q296.457 812.47 298.131 811.604 Q299.805 810.72 301.818 810.72 Q306.049 810.72 308.494 813.297 Q310.958 815.855 310.958 820.275 Q310.958 824.601 308.4 827.215 Q305.843 829.829 301.592 829.829 Q296.721 829.829 294.144 826.105 Q291.567 822.362 291.567 815.272 Q291.567 808.614 294.727 804.664 Q297.887 800.696 303.209 800.696 Q304.639 800.696 306.087 800.978 Q307.554 801.26 309.134 801.824 Z" fill="#000000" fill-rule="evenodd" fill-opacity="1" /><path clip-path="url(#clip010)" d="M 0 0 M123.221 545.413 L145.443 545.413 L145.443 547.404 L132.896 579.973 L128.012 579.973 L139.818 549.349 L123.221 549.349 L123.221 545.413 Z" fill="#000000" fill-rule="evenodd" fill-opacity="1" /><path clip-path="url(#clip010)" d="M 0 0 M150.512 574.094 L155.396 574.094 L155.396 579.973 L150.512 579.973 L150.512 574.094 Z" fill="#000000" fill-rule="evenodd" fill-opacity="1" /><path clip-path="url(#clip010)" d="M 0 0 M160.512 545.413 L178.868 545.413 L178.868 549.349 L164.794 549.349 L164.794 557.821 Q165.813 557.474 166.831 557.311 Q167.85 557.126 168.868 557.126 Q174.655 557.126 178.035 560.298 Q181.415 563.469 181.415 568.885 Q181.415 574.464 177.942 577.566 Q174.47 580.645 168.151 580.645 Q165.975 580.645 163.706 580.274 Q161.461 579.904 159.054 579.163 L159.054 574.464 Q161.137 575.598 163.359 576.154 Q165.581 576.71 168.058 576.71 Q172.063 576.71 174.401 574.603 Q176.739 572.497 176.739 568.885 Q176.739 565.274 174.401 563.168 Q172.063 561.061 168.058 561.061 Q166.183 561.061 164.308 561.478 Q162.456 561.895 160.512 562.774 L160.512 545.413 Z" fill="#000000" fill-rule="evenodd" fill-opacity="1" /><path clip-path="url(#clip010)" d="M 0 0 M214.655 554.511 L204.077 565.136 L214.655 575.714 L211.901 578.515 L201.276 567.89 L190.651 578.515 L187.919 575.714 L198.475 565.136 L187.919 554.511 L190.651 551.71 L201.276 562.335 L211.901 551.71 L214.655 554.511 Z" fill="#000000" fill-rule="evenodd" fill-opacity="1" /><path clip-path="url(#clip010)" d="M 0 0 M220.535 576.038 L228.174 576.038 L228.174 549.673 L219.864 551.339 L219.864 547.08 L228.127 545.413 L232.803 545.413 L232.803 576.038 L240.442 576.038 L240.442 579.973 L220.535 579.973 L220.535 576.038 Z" fill="#000000" fill-rule="evenodd" fill-opacity="1" /><path clip-path="url(#clip010)" d="M 0 0 M255.511 548.492 Q251.9 548.492 250.072 552.057 Q248.266 555.599 248.266 562.728 Q248.266 569.835 250.072 573.399 Q251.9 576.941 255.511 576.941 Q259.146 576.941 260.951 573.399 Q262.78 569.835 262.78 562.728 Q262.78 555.599 260.951 552.057 Q259.146 548.492 255.511 548.492 M255.511 544.788 Q261.322 544.788 264.377 549.395 Q267.456 553.978 267.456 562.728 Q267.456 571.455 264.377 576.061 Q261.322 580.645 255.511 580.645 Q249.701 580.645 246.623 576.061 Q243.567 571.455 243.567 562.728 Q243.567 553.978 246.623 549.395 Q249.701 544.788 255.511 544.788 Z" fill="#000000" fill-rule="evenodd" fill-opacity="1" /><path clip-path="url(#clip010)" d="M 0 0 M267.456 540.47 L277.593 540.47 L277.593 543.554 L267.456 543.554 L267.456 540.47 Z" fill="#000000" fill-rule="evenodd" fill-opacity="1" /><path clip-path="url(#clip010)" d="M 0 0 M301.592 537.009 Q299.034 537.009 297.529 538.758 Q296.044 540.507 296.044 543.554 Q296.044 546.582 297.529 548.35 Q299.034 550.099 301.592 550.099 Q304.15 550.099 305.636 548.35 Q307.14 546.582 307.14 543.554 Q307.14 540.507 305.636 538.758 Q304.15 537.009 301.592 537.009 M309.134 525.104 L309.134 528.564 Q307.704 527.887 306.237 527.53 Q304.789 527.173 303.36 527.173 Q299.598 527.173 297.605 529.712 Q295.63 532.251 295.348 537.385 Q296.457 535.749 298.131 534.884 Q299.805 534 301.818 534 Q306.049 534 308.494 536.576 Q310.958 539.134 310.958 543.554 Q310.958 547.88 308.4 550.494 Q305.843 553.108 301.592 553.108 Q296.721 553.108 294.144 549.384 Q291.567 545.642 291.567 538.551 Q291.567 531.893 294.727 527.944 Q297.887 523.975 303.209 523.975 Q304.639 523.975 306.087 524.257 Q307.554 524.539 309.134 525.104 Z" fill="#000000" fill-rule="evenodd" fill-opacity="1" /><path clip-path="url(#clip010)" d="M 0 0 M125.762 299.318 L133.401 299.318 L133.401 272.952 L125.091 274.619 L125.091 270.359 L133.355 268.693 L138.031 268.693 L138.031 299.318 L145.67 299.318 L145.67 303.253 L125.762 303.253 L125.762 299.318 Z" fill="#000000" fill-rule="evenodd" fill-opacity="1" /><path clip-path="url(#clip010)" d="M 0 0 M150.739 297.373 L155.623 297.373 L155.623 303.253 L150.739 303.253 L150.739 297.373 Z" fill="#000000" fill-rule="evenodd" fill-opacity="1" /><path clip-path="url(#clip010)" d="M 0 0 M170.693 271.771 Q167.082 271.771 165.253 275.336 Q163.447 278.878 163.447 286.007 Q163.447 293.114 165.253 296.679 Q167.082 300.22 170.693 300.22 Q174.327 300.22 176.133 296.679 Q177.961 293.114 177.961 286.007 Q177.961 278.878 176.133 275.336 Q174.327 271.771 170.693 271.771 M170.693 268.068 Q176.503 268.068 179.558 272.674 Q182.637 277.258 182.637 286.007 Q182.637 294.734 179.558 299.341 Q176.503 303.924 170.693 303.924 Q164.883 303.924 161.804 299.341 Q158.748 294.734 158.748 286.007 Q158.748 277.258 161.804 272.674 Q164.883 268.068 170.693 268.068 Z" fill="#000000" fill-rule="evenodd" fill-opacity="1" /><path clip-path="url(#clip010)" d="M 0 0 M215.878 277.79 L205.299 288.415 L215.878 298.994 L213.123 301.794 L202.498 291.169 L191.873 301.794 L189.142 298.994 L199.697 288.415 L189.142 277.79 L191.873 274.989 L202.498 285.614 L213.123 274.989 L215.878 277.79 Z" fill="#000000" fill-rule="evenodd" fill-opacity="1" /><path clip-path="url(#clip010)" d="M 0 0 M221.757 299.318 L229.396 299.318 L229.396 272.952 L221.086 274.619 L221.086 270.359 L229.35 268.693 L234.026 268.693 L234.026 299.318 L241.665 299.318 L241.665 303.253 L221.757 303.253 L221.757 299.318 Z" fill="#000000" fill-rule="evenodd" fill-opacity="1" /><path clip-path="url(#clip010)" d="M 0 0 M256.734 271.771 Q253.123 271.771 251.294 275.336 Q249.489 278.878 249.489 286.007 Q249.489 293.114 251.294 296.679 Q253.123 300.22 256.734 300.22 Q260.368 300.22 262.174 296.679 Q264.002 293.114 264.002 286.007 Q264.002 278.878 262.174 275.336 Q260.368 271.771 256.734 271.771 M256.734 268.068 Q262.544 268.068 265.6 272.674 Q268.678 277.258 268.678 286.007 Q268.678 294.734 265.6 299.341 Q262.544 303.924 256.734 303.924 Q250.924 303.924 247.845 299.341 Q244.79 294.734 244.79 286.007 Q244.79 277.258 247.845 272.674 Q250.924 268.068 256.734 268.068 Z" fill="#000000" fill-rule="evenodd" fill-opacity="1" /><path clip-path="url(#clip010)" d="M 0 0 M268.678 263.749 L278.816 263.749 L278.816 266.833 L268.678 266.833 L268.678 263.749 Z" fill="#000000" fill-rule="evenodd" fill-opacity="1" /><path clip-path="url(#clip010)" d="M 0 0 M293.975 247.762 L308.889 247.762 L308.889 250.96 L297.454 250.96 L297.454 257.843 Q298.282 257.561 299.109 257.43 Q299.937 257.279 300.764 257.279 Q305.466 257.279 308.212 259.856 Q310.958 262.432 310.958 266.833 Q310.958 271.366 308.137 273.886 Q305.316 276.388 300.181 276.388 Q298.413 276.388 296.57 276.087 Q294.746 275.786 292.79 275.184 L292.79 271.366 Q294.483 272.288 296.288 272.739 Q298.094 273.19 300.106 273.19 Q303.36 273.19 305.259 271.479 Q307.159 269.767 307.159 266.833 Q307.159 263.899 305.259 262.188 Q303.36 260.476 300.106 260.476 Q298.583 260.476 297.059 260.815 Q295.555 261.153 293.975 261.868 L293.975 247.762 Z" fill="#000000" fill-rule="evenodd" fill-opacity="1" /><path clip-path="url(#clip010)" d="M 0 0 M1195.88 20.1573 L1184.78 50.2555 L1207.02 50.2555 L1195.88 20.1573 M1191.26 12.096 L1200.54 12.096 L1223.59 72.576 L1215.08 72.576 L1209.57 57.061 L1182.31 57.061 L1176.8 72.576 L1168.17 72.576 L1191.26 12.096 Z" fill="#000000" fill-rule="evenodd" fill-opacity="1" /><path clip-path="url(#clip010)" d="M 0 0 M1262.6 28.9478 L1262.6 35.9153 Q1259.44 34.1734 1256.24 33.3227 Q1253.08 32.4315 1249.84 32.4315 Q1242.58 32.4315 1238.57 37.0496 Q1234.56 41.6271 1234.56 49.9314 Q1234.56 58.2358 1238.57 62.8538 Q1242.58 67.4314 1249.84 67.4314 Q1253.08 67.4314 1256.24 66.5807 Q1259.44 65.6895 1262.6 63.9476 L1262.6 70.8341 Q1259.48 72.2924 1256.11 73.0216 Q1252.79 73.7508 1249.03 73.7508 Q1238.78 73.7508 1232.74 67.3098 Q1226.7 60.8689 1226.7 49.9314 Q1226.7 38.832 1232.78 32.472 Q1238.9 26.1121 1249.51 26.1121 Q1252.95 26.1121 1256.24 26.8413 Q1259.52 27.5299 1262.6 28.9478 Z" fill="#000000" fill-rule="evenodd" fill-opacity="1" /><path clip-path="url(#clip010)" d="M 0 0 M1303.06 28.9478 L1303.06 35.9153 Q1299.9 34.1734 1296.7 33.3227 Q1293.54 32.4315 1290.3 32.4315 Q1283.05 32.4315 1279.04 37.0496 Q1275.03 41.6271 1275.03 49.9314 Q1275.03 58.2358 1279.04 62.8538 Q1283.05 67.4314 1290.3 67.4314 Q1293.54 67.4314 1296.7 66.5807 Q1299.9 65.6895 1303.06 63.9476 L1303.06 70.8341 Q1299.95 72.2924 1296.58 73.0216 Q1293.26 73.7508 1289.49 73.7508 Q1279.25 73.7508 1273.21 67.3098 Q1267.17 60.8689 1267.17 49.9314 Q1267.17 38.832 1273.25 32.472 Q1279.37 26.1121 1289.98 26.1121 Q1293.42 26.1121 1296.7 26.8413 Q1299.99 27.5299 1303.06 28.9478 Z" fill="#000000" fill-rule="evenodd" fill-opacity="1" /><path clip-path="url(#clip010)" d="M 0 0 M1337.17 34.1734 Q1335.92 33.4443 1334.42 33.1202 Q1332.96 32.7556 1331.18 32.7556 Q1324.86 32.7556 1321.46 36.8875 Q1318.09 40.9789 1318.09 48.6757 L1318.09 72.576 L1310.6 72.576 L1310.6 27.2059 L1318.09 27.2059 L1318.09 34.2544 Q1320.44 30.1225 1324.21 28.1376 Q1327.98 26.1121 1333.37 26.1121 Q1334.13 26.1121 1335.07 26.2337 Q1336 26.3147 1337.13 26.5172 L1337.17 34.1734 Z" fill="#000000" fill-rule="evenodd" fill-opacity="1" /><path clip-path="url(#clip010)" d="M 0 0 M1381.98 48.0275 L1381.98 51.6733 L1347.71 51.6733 Q1348.19 59.3701 1352.32 63.421 Q1356.5 67.4314 1363.91 67.4314 Q1368.2 67.4314 1372.21 66.3781 Q1376.26 65.3249 1380.23 63.2184 L1380.23 70.267 Q1376.22 71.9684 1372.01 72.8596 Q1367.8 73.7508 1363.46 73.7508 Q1352.61 73.7508 1346.25 67.4314 Q1339.93 61.1119 1339.93 50.3365 Q1339.93 39.1965 1345.92 32.6746 Q1351.96 26.1121 1362.17 26.1121 Q1371.32 26.1121 1376.63 32.0264 Q1381.98 37.9003 1381.98 48.0275 M1374.52 45.84 Q1374.44 39.7232 1371.08 36.0774 Q1367.76 32.4315 1362.25 32.4315 Q1356.01 32.4315 1352.24 35.9558 Q1348.52 39.4801 1347.95 45.8805 L1374.52 45.84 Z" fill="#000000" fill-rule="evenodd" fill-opacity="1" /><path clip-path="url(#clip010)" d="M 0 0 M1397.17 14.324 L1397.17 27.2059 L1412.52 27.2059 L1412.52 32.9987 L1397.17 32.9987 L1397.17 57.6282 Q1397.17 63.1779 1398.67 64.7578 Q1400.21 66.3376 1404.86 66.3376 L1412.52 66.3376 L1412.52 72.576 L1404.86 72.576 Q1396.24 72.576 1392.95 69.3758 Q1389.67 66.1351 1389.67 57.6282 L1389.67 32.9987 L1384.2 32.9987 L1384.2 27.2059 L1389.67 27.2059 L1389.67 14.324 L1397.17 14.324 Z" fill="#000000" fill-rule="evenodd" fill-opacity="1" /><path clip-path="url(#clip010)" d="M 0 0 M1420.34 27.2059 L1427.79 27.2059 L1427.79 72.576 L1420.34 72.576 L1420.34 27.2059 M1420.34 9.54393 L1427.79 9.54393 L1427.79 18.9825 L1420.34 18.9825 L1420.34 9.54393 Z" fill="#000000" fill-rule="evenodd" fill-opacity="1" /><path clip-path="url(#clip010)" d="M 0 0 M1453.19 32.4315 Q1447.2 32.4315 1443.71 37.1306 Q1440.23 41.7891 1440.23 49.9314 Q1440.23 58.0738 1443.67 62.7728 Q1447.16 67.4314 1453.19 67.4314 Q1459.15 67.4314 1462.63 62.7323 Q1466.11 58.0333 1466.11 49.9314 Q1466.11 41.8701 1462.63 37.1711 Q1459.15 32.4315 1453.19 32.4315 M1453.19 26.1121 Q1462.91 26.1121 1468.46 32.4315 Q1474.01 38.7509 1474.01 49.9314 Q1474.01 61.0714 1468.46 67.4314 Q1462.91 73.7508 1453.19 73.7508 Q1443.43 73.7508 1437.88 67.4314 Q1432.37 61.0714 1432.37 49.9314 Q1432.37 38.7509 1437.88 32.4315 Q1443.43 26.1121 1453.19 26.1121 Z" fill="#000000" fill-rule="evenodd" fill-opacity="1" /><path clip-path="url(#clip010)" d="M 0 0 M1519.54 45.1919 L1519.54 72.576 L1512.09 72.576 L1512.09 45.4349 Q1512.09 38.994 1509.58 35.7938 Q1507.07 32.5936 1502.04 32.5936 Q1496.01 32.5936 1492.53 36.4419 Q1489.04 40.2903 1489.04 46.9338 L1489.04 72.576 L1481.55 72.576 L1481.55 27.2059 L1489.04 27.2059 L1489.04 34.2544 Q1491.72 30.163 1495.32 28.1376 Q1498.97 26.1121 1503.71 26.1121 Q1511.52 26.1121 1515.53 30.9732 Q1519.54 35.7938 1519.54 45.1919 Z" fill="#000000" fill-rule="evenodd" fill-opacity="1" /><path clip-path="url(#clip010)" d="M 0 0 M1168.02 1538.25 Q1168.02 1544.71 1170.66 1548.4 Q1173.34 1552.07 1177.98 1552.07 Q1182.63 1552.07 1185.3 1548.4 Q1187.98 1544.71 1187.98 1538.25 Q1187.98 1531.79 1185.3 1528.13 Q1182.63 1524.44 1177.98 1524.44 Q1173.34 1524.44 1170.66 1528.13 Q1168.02 1531.79 1168.02 1538.25 M1187.98 1550.7 Q1186.13 1553.88 1183.3 1555.44 Q1180.5 1556.97 1176.55 1556.97 Q1170.09 1556.97 1166.02 1551.81 Q1161.97 1546.65 1161.97 1538.25 Q1161.97 1529.85 1166.02 1524.69 Q1170.09 1519.54 1176.55 1519.54 Q1180.5 1519.54 1183.3 1521.1 Q1186.13 1522.62 1187.98 1525.81 L1187.98 1520.4 L1193.83 1520.4 L1193.83 1569.6 L1187.98 1569.6 L1187.98 1550.7 Z" fill="#000000" fill-rule="evenodd" fill-opacity="1" /><path clip-path="url(#clip010)" d="M 0 0 M1227.06 1566.87 L1227.06 1571.42 L1193.2 1571.42 L1193.2 1566.87 L1227.06 1566.87 Z" fill="#000000" fill-rule="evenodd" fill-opacity="1" /><path clip-path="url(#clip010)" d="M 0 0 M1253.86 1525.87 Q1252.88 1525.3 1251.7 1525.04 Q1250.55 1524.76 1249.15 1524.76 Q1244.19 1524.76 1241.51 1528 Q1238.87 1531.22 1238.87 1537.27 L1238.87 1556.04 L1232.98 1556.04 L1232.98 1520.4 L1238.87 1520.4 L1238.87 1525.93 Q1240.72 1522.69 1243.68 1521.13 Q1246.64 1519.54 1250.87 1519.54 Q1251.47 1519.54 1252.21 1519.63 Q1252.94 1519.7 1253.83 1519.85 L1253.86 1525.87 Z" fill="#000000" fill-rule="evenodd" fill-opacity="1" /><path clip-path="url(#clip010)" d="M 0 0 M1276.21 1538.12 Q1269.11 1538.12 1266.37 1539.75 Q1263.63 1541.37 1263.63 1545.29 Q1263.63 1548.4 1265.67 1550.25 Q1267.74 1552.07 1271.27 1552.07 Q1276.14 1552.07 1279.07 1548.63 Q1282.03 1545.16 1282.03 1539.43 L1282.03 1538.12 L1276.21 1538.12 M1287.89 1535.71 L1287.89 1556.04 L1282.03 1556.04 L1282.03 1550.63 Q1280.02 1553.88 1277.03 1555.44 Q1274.04 1556.97 1269.71 1556.97 Q1264.24 1556.97 1260.99 1553.91 Q1257.78 1550.82 1257.78 1545.67 Q1257.78 1539.65 1261.79 1536.6 Q1265.83 1533.54 1273.82 1533.54 L1282.03 1533.54 L1282.03 1532.97 Q1282.03 1528.93 1279.36 1526.73 Q1276.71 1524.5 1271.91 1524.5 Q1268.85 1524.5 1265.96 1525.23 Q1263.06 1525.97 1260.39 1527.43 L1260.39 1522.02 Q1263.6 1520.78 1266.63 1520.17 Q1269.65 1519.54 1272.51 1519.54 Q1280.25 1519.54 1284.07 1523.55 Q1287.89 1527.56 1287.89 1535.71 Z" fill="#000000" fill-rule="evenodd" fill-opacity="1" /><path clip-path="url(#clip010)" d="M 0 0 M1294.03 1520.4 L1299.89 1520.4 L1299.89 1556.04 L1294.03 1556.04 L1294.03 1520.4 M1294.03 1506.52 L1299.89 1506.52 L1299.89 1513.93 L1294.03 1513.93 L1294.03 1506.52 Z" fill="#000000" fill-rule="evenodd" fill-opacity="1" /><path clip-path="url(#clip010)" d="M 0 0 M1335.66 1534.53 L1335.66 1556.04 L1329.8 1556.04 L1329.8 1534.72 Q1329.8 1529.66 1327.83 1527.14 Q1325.86 1524.63 1321.91 1524.63 Q1317.17 1524.63 1314.43 1527.65 Q1311.69 1530.68 1311.69 1535.9 L1311.69 1556.04 L1305.81 1556.04 L1305.81 1520.4 L1311.69 1520.4 L1311.69 1525.93 Q1313.8 1522.72 1316.63 1521.13 Q1319.49 1519.54 1323.22 1519.54 Q1329.36 1519.54 1332.51 1523.36 Q1335.66 1527.14 1335.66 1534.53 Z" fill="#000000" fill-rule="evenodd" fill-opacity="1" /><path clip-path="url(#clip010)" d="M 0 0 M1361.98 1506.52 L1375.48 1506.52 L1375.48 1511.07 L1367.84 1511.07 L1367.84 1560.09 L1375.48 1560.09 L1375.48 1564.64 L1361.98 1564.64 L1361.98 1506.52 Z" fill="#000000" fill-rule="evenodd" fill-opacity="1" /><path clip-path="url(#clip010)" d="M 0 0 M1405.08 1537.81 Q1405.08 1531.44 1402.44 1527.94 Q1399.83 1524.44 1395.09 1524.44 Q1390.37 1524.44 1387.73 1527.94 Q1385.12 1531.44 1385.12 1537.81 Q1385.12 1544.14 1387.73 1547.64 Q1390.37 1551.14 1395.09 1551.14 Q1399.83 1551.14 1402.44 1547.64 Q1405.08 1544.14 1405.08 1537.81 M1410.94 1551.62 Q1410.94 1560.72 1406.89 1565.15 Q1402.85 1569.6 1394.51 1569.6 Q1391.42 1569.6 1388.69 1569.13 Q1385.95 1568.68 1383.37 1567.72 L1383.37 1562.03 Q1385.95 1563.43 1388.46 1564.1 Q1390.98 1564.76 1393.59 1564.76 Q1399.35 1564.76 1402.21 1561.74 Q1405.08 1558.75 1405.08 1552.67 L1405.08 1549.77 Q1403.27 1552.92 1400.43 1554.48 Q1397.6 1556.04 1393.65 1556.04 Q1387.1 1556.04 1383.09 1551.05 Q1379.08 1546.05 1379.08 1537.81 Q1379.08 1529.53 1383.09 1524.53 Q1387.1 1519.54 1393.65 1519.54 Q1397.6 1519.54 1400.43 1521.1 Q1403.27 1522.66 1405.08 1525.81 L1405.08 1520.4 L1410.94 1520.4 L1410.94 1551.62 Z" fill="#000000" fill-rule="evenodd" fill-opacity="1" /><path clip-path="url(#clip010)" d="M 0 0 M1427.49 1508.52 L1432.9 1508.52 L1416.35 1562.09 L1410.94 1562.09 L1427.49 1508.52 Z" fill="#000000" fill-rule="evenodd" fill-opacity="1" /><path clip-path="url(#clip010)" d="M 0 0 M1438.82 1506.52 L1444.71 1506.52 L1444.71 1535.77 L1462.18 1520.4 L1469.66 1520.4 L1450.75 1537.07 L1470.46 1556.04 L1462.82 1556.04 L1444.71 1538.63 L1444.71 1556.04 L1438.82 1556.04 L1438.82 1506.52 Z" fill="#000000" fill-rule="evenodd" fill-opacity="1" /><path clip-path="url(#clip010)" d="M 0 0 M1500.06 1537.81 Q1500.06 1531.44 1497.41 1527.94 Q1494.8 1524.44 1490.06 1524.44 Q1485.35 1524.44 1482.71 1527.94 Q1480.1 1531.44 1480.1 1537.81 Q1480.1 1544.14 1482.71 1547.64 Q1485.35 1551.14 1490.06 1551.14 Q1494.8 1551.14 1497.41 1547.64 Q1500.06 1544.14 1500.06 1537.81 M1505.91 1551.62 Q1505.91 1560.72 1501.87 1565.15 Q1497.83 1569.6 1489.49 1569.6 Q1486.4 1569.6 1483.66 1569.13 Q1480.93 1568.68 1478.35 1567.72 L1478.35 1562.03 Q1480.93 1563.43 1483.44 1564.1 Q1485.96 1564.76 1488.57 1564.76 Q1494.33 1564.76 1497.19 1561.74 Q1500.06 1558.75 1500.06 1552.67 L1500.06 1549.77 Q1498.24 1552.92 1495.41 1554.48 Q1492.58 1556.04 1488.63 1556.04 Q1482.07 1556.04 1478.06 1551.05 Q1474.05 1546.05 1474.05 1537.81 Q1474.05 1529.53 1478.06 1524.53 Q1482.07 1519.54 1488.63 1519.54 Q1492.58 1519.54 1495.41 1521.1 Q1498.24 1522.66 1500.06 1525.81 L1500.06 1520.4 L1505.91 1520.4 L1505.91 1551.62 Z" fill="#000000" fill-rule="evenodd" fill-opacity="1" /><path clip-path="url(#clip010)" d="M 0 0 M1525.74 1506.52 L1525.74 1564.64 L1512.25 1564.64 L1512.25 1560.09 L1519.85 1560.09 L1519.85 1511.07 L1512.25 1511.07 L1512.25 1506.52 L1525.74 1506.52 Z" fill="#000000" fill-rule="evenodd" fill-opacity="1" /><path clip-path="url(#clip010)" d="M 0 0 M70.0847 1031.81 Q70.0847 1038.9 71.7079 1041.64 Q73.3312 1044.38 77.2461 1044.38 Q80.3653 1044.38 82.2114 1042.34 Q84.0256 1040.27 84.0256 1036.74 Q84.0256 1031.87 80.5881 1028.94 Q77.1188 1025.98 71.3897 1025.98 L70.0847 1025.98 L70.0847 1031.81 M67.6657 1020.12 L88.0042 1020.12 L88.0042 1025.98 L82.5933 1025.98 Q85.8398 1027.99 87.3994 1030.98 Q88.9272 1033.97 88.9272 1038.3 Q88.9272 1043.77 85.8716 1047.02 Q82.7843 1050.23 77.6281 1050.23 Q71.6125 1050.23 68.5569 1046.22 Q65.5014 1042.18 65.5014 1034.19 L65.5014 1025.98 L64.9285 1025.98 Q60.8862 1025.98 58.6901 1028.65 Q56.4621 1031.3 56.4621 1036.1 Q56.4621 1039.16 57.1941 1042.05 Q57.9262 1044.95 59.3903 1047.62 L53.9795 1047.62 Q52.7381 1044.41 52.1334 1041.39 Q51.4968 1038.36 51.4968 1035.5 Q51.4968 1027.76 55.5072 1023.94 Q59.5176 1020.12 67.6657 1020.12 Z" fill="#000000" fill-rule="evenodd" fill-opacity="1" /><path clip-path="url(#clip010)" d="M 0 0 M53.7248 988.328 L59.1993 988.328 Q57.8307 990.81 57.1623 993.325 Q56.4621 995.807 56.4621 998.354 Q56.4621 1004.05 60.0905 1007.2 Q63.6872 1010.35 70.212 1010.35 Q76.7369 1010.35 80.3653 1007.2 Q83.9619 1004.05 83.9619 998.354 Q83.9619 995.807 83.2935 993.325 Q82.5933 990.81 81.2247 988.328 L86.6355 988.328 Q87.7814 990.779 88.3543 993.42 Q88.9272 996.03 88.9272 998.99 Q88.9272 1007.04 83.8664 1011.79 Q78.8057 1016.53 70.212 1016.53 Q61.491 1016.53 56.4939 1011.75 Q51.4968 1006.95 51.4968 998.608 Q51.4968 995.903 52.0697 993.325 Q52.6108 990.747 53.7248 988.328 Z" fill="#000000" fill-rule="evenodd" fill-opacity="1" /><path clip-path="url(#clip010)" d="M 0 0 M53.7248 956.531 L59.1993 956.531 Q57.8307 959.014 57.1623 961.528 Q56.4621 964.011 56.4621 966.557 Q56.4621 972.254 60.0905 975.405 Q63.6872 978.556 70.212 978.556 Q76.7369 978.556 80.3653 975.405 Q83.9619 972.254 83.9619 966.557 Q83.9619 964.011 83.2935 961.528 Q82.5933 959.014 81.2247 956.531 L86.6355 956.531 Q87.7814 958.982 88.3543 961.624 Q88.9272 964.234 88.9272 967.194 Q88.9272 975.246 83.8664 979.989 Q78.8057 984.731 70.212 984.731 Q61.491 984.731 56.4939 979.957 Q51.4968 975.151 51.4968 966.812 Q51.4968 964.106 52.0697 961.528 Q52.6108 958.95 53.7248 956.531 Z" fill="#000000" fill-rule="evenodd" fill-opacity="1" /><path clip-path="url(#clip010)" d="M 0 0 M57.8307 929.731 Q57.2578 930.718 57.0032 931.896 Q56.7167 933.042 56.7167 934.442 Q56.7167 939.407 59.9632 942.081 Q63.1779 944.723 69.2253 944.723 L88.0042 944.723 L88.0042 950.611 L52.3562 950.611 L52.3562 944.723 L57.8944 944.723 Q54.6479 942.877 53.0883 939.917 Q51.4968 936.956 51.4968 932.723 Q51.4968 932.119 51.5923 931.386 Q51.656 930.654 51.8151 929.763 L57.8307 929.731 Z" fill="#000000" fill-rule="evenodd" fill-opacity="1" /><path clip-path="url(#clip010)" d="M 0 0 M68.7161 894.529 L71.5806 894.529 L71.5806 921.456 Q77.6281 921.074 80.8109 917.828 Q83.9619 914.549 83.9619 908.725 Q83.9619 905.351 83.1344 902.2 Q82.3069 899.017 80.6518 895.898 L86.1899 895.898 Q87.5267 899.049 88.227 902.359 Q88.9272 905.669 88.9272 909.075 Q88.9272 917.605 83.9619 922.602 Q78.9967 927.567 70.5303 927.567 Q61.7774 927.567 56.6531 922.856 Q51.4968 918.114 51.4968 910.093 Q51.4968 902.9 56.1438 898.73 Q60.7589 894.529 68.7161 894.529 M66.9973 900.385 Q62.1912 900.449 59.3266 903.091 Q56.4621 905.701 56.4621 910.03 Q56.4621 914.931 59.2312 917.891 Q62.0002 920.819 67.0292 921.265 L66.9973 900.385 Z" fill="#000000" fill-rule="evenodd" fill-opacity="1" /><path clip-path="url(#clip010)" d="M 0 0 M42.2347 882.593 L52.3562 882.593 L52.3562 870.53 L56.9077 870.53 L56.9077 882.593 L76.2594 882.593 Q80.6199 882.593 81.8613 881.416 Q83.1026 880.206 83.1026 876.546 L83.1026 870.53 L88.0042 870.53 L88.0042 876.546 Q88.0042 883.325 85.4897 885.904 Q82.9434 888.482 76.2594 888.482 L56.9077 888.482 L56.9077 892.778 L52.3562 892.778 L52.3562 888.482 L42.2347 888.482 L42.2347 882.593 Z" fill="#000000" fill-rule="evenodd" fill-opacity="1" /><path clip-path="url(#clip010)" d="M 0 0 M52.3562 864.387 L52.3562 858.531 L88.0042 858.531 L88.0042 864.387 L52.3562 864.387 M38.479 864.387 L38.479 858.531 L45.895 858.531 L45.895 864.387 L38.479 864.387 Z" fill="#000000" fill-rule="evenodd" fill-opacity="1" /><path clip-path="url(#clip010)" d="M 0 0 M56.4621 838.574 Q56.4621 843.285 60.1542 846.022 Q63.8145 848.76 70.212 848.76 Q76.6095 848.76 80.3017 846.054 Q83.9619 843.317 83.9619 838.574 Q83.9619 833.896 80.2698 831.158 Q76.5777 828.421 70.212 828.421 Q63.8781 828.421 60.186 831.158 Q56.4621 833.896 56.4621 838.574 M51.4968 838.574 Q51.4968 830.936 56.4621 826.575 Q61.4273 822.215 70.212 822.215 Q78.9649 822.215 83.9619 826.575 Q88.9272 830.936 88.9272 838.574 Q88.9272 846.245 83.9619 850.606 Q78.9649 854.934 70.212 854.934 Q61.4273 854.934 56.4621 850.606 Q51.4968 846.245 51.4968 838.574 Z" fill="#000000" fill-rule="evenodd" fill-opacity="1" /><path clip-path="url(#clip010)" d="M 0 0 M66.4881 786.439 L88.0042 786.439 L88.0042 792.296 L66.679 792.296 Q61.6183 792.296 59.1038 794.269 Q56.5894 796.243 56.5894 800.189 Q56.5894 804.932 59.6131 807.669 Q62.6368 810.406 67.8567 810.406 L88.0042 810.406 L88.0042 816.295 L52.3562 816.295 L52.3562 810.406 L57.8944 810.406 Q54.6797 808.306 53.0883 805.473 Q51.4968 802.608 51.4968 798.884 Q51.4968 792.741 55.3163 789.59 Q59.1038 786.439 66.4881 786.439 Z" fill="#000000" fill-rule="evenodd" fill-opacity="1" /><path clip-path="url(#clip010)" d="M 0 0 M57.8307 738.919 Q57.2578 739.906 57.0032 741.084 Q56.7167 742.23 56.7167 743.63 Q56.7167 748.595 59.9632 751.269 Q63.1779 753.911 69.2253 753.911 L88.0042 753.911 L88.0042 759.799 L52.3562 759.799 L52.3562 753.911 L57.8944 753.911 Q54.6479 752.065 53.0883 749.104 Q51.4968 746.144 51.4968 741.911 Q51.4968 741.306 51.5923 740.574 Q51.656 739.842 51.8151 738.951 L57.8307 738.919 Z" fill="#000000" fill-rule="evenodd" fill-opacity="1" /><path clip-path="url(#clip010)" d="M 0 0 M70.0847 716.576 Q70.0847 723.673 71.7079 726.411 Q73.3312 729.148 77.2461 729.148 Q80.3653 729.148 82.2114 727.111 Q84.0256 725.042 84.0256 721.509 Q84.0256 716.639 80.5881 713.711 Q77.1188 710.751 71.3897 710.751 L70.0847 710.751 L70.0847 716.576 M67.6657 704.895 L88.0042 704.895 L88.0042 710.751 L82.5933 710.751 Q85.8398 712.756 87.3994 715.748 Q88.9272 718.74 88.9272 723.069 Q88.9272 728.543 85.8716 731.79 Q82.7843 735.004 77.6281 735.004 Q71.6125 735.004 68.5569 730.994 Q65.5014 726.952 65.5014 718.963 L65.5014 710.751 L64.9285 710.751 Q60.8862 710.751 58.6901 713.425 Q56.4621 716.066 56.4621 720.873 Q56.4621 723.928 57.1941 726.824 Q57.9262 729.721 59.3903 732.394 L53.9795 732.394 Q52.7381 729.18 52.1334 726.156 Q51.4968 723.132 51.4968 720.268 Q51.4968 712.533 55.5072 708.714 Q59.5176 704.895 67.6657 704.895 Z" fill="#000000" fill-rule="evenodd" fill-opacity="1" /><path clip-path="url(#clip010)" d="M 0 0 M42.2347 692.959 L52.3562 692.959 L52.3562 680.896 L56.9077 680.896 L56.9077 692.959 L76.2594 692.959 Q80.6199 692.959 81.8613 691.781 Q83.1026 690.572 83.1026 686.912 L83.1026 680.896 L88.0042 680.896 L88.0042 686.912 Q88.0042 693.691 85.4897 696.269 Q82.9434 698.847 76.2594 698.847 L56.9077 698.847 L56.9077 703.144 L52.3562 703.144 L52.3562 698.847 L42.2347 698.847 L42.2347 692.959 Z" fill="#000000" fill-rule="evenodd" fill-opacity="1" /><path clip-path="url(#clip010)" d="M 0 0 M68.7161 644.261 L71.5806 644.261 L71.5806 671.188 Q77.6281 670.806 80.8109 667.56 Q83.9619 664.281 83.9619 658.457 Q83.9619 655.083 83.1344 651.932 Q82.3069 648.749 80.6518 645.63 L86.1899 645.63 Q87.5267 648.781 88.227 652.091 Q88.9272 655.401 88.9272 658.807 Q88.9272 667.337 83.9619 672.334 Q78.9967 677.299 70.5303 677.299 Q61.7774 677.299 56.6531 672.589 Q51.4968 667.846 51.4968 659.825 Q51.4968 652.632 56.1438 648.463 Q60.7589 644.261 68.7161 644.261 M66.9973 650.118 Q62.1912 650.181 59.3266 652.823 Q56.4621 655.433 56.4621 659.762 Q56.4621 664.663 59.2312 667.623 Q62.0002 670.552 67.0292 670.997 L66.9973 650.118 Z" fill="#000000" fill-rule="evenodd" fill-opacity="1" /><path clip-path="url(#clip010)" d="M 0 0 M38.479 617.939 L38.479 604.444 L43.0304 604.444 L43.0304 612.083 L92.0464 612.083 L92.0464 604.444 L96.5979 604.444 L96.5979 617.939 L38.479 617.939 Z" fill="#000000" fill-rule="evenodd" fill-opacity="1" /><path clip-path="url(#clip010)" d="M 0 0 M82.5933 596.359 L82.5933 585.856 L46.3406 585.856 L48.6323 597.282 L42.7758 597.282 L40.4842 585.92 L40.4842 579.49 L82.5933 579.49 L82.5933 568.987 L88.0042 568.987 L88.0042 596.359 L82.5933 596.359 Z" fill="#000000" fill-rule="evenodd" fill-opacity="1" /><path clip-path="url(#clip010)" d="M 0 0 M40.4842 552.436 L40.4842 547.025 L94.0516 563.576 L94.0516 568.987 L40.4842 552.436 Z" fill="#000000" fill-rule="evenodd" fill-opacity="1" /><path clip-path="url(#clip010)" d="M 0 0 M53.4065 518.157 L58.9447 518.157 Q57.6716 520.639 57.035 523.313 Q56.3984 525.986 56.3984 528.851 Q56.3984 533.212 57.7352 535.408 Q59.072 537.572 61.7456 537.572 Q63.7826 537.572 64.9603 536.012 Q66.1061 534.453 67.1565 529.742 L67.6021 527.737 Q68.9389 521.499 71.3897 518.889 Q73.8086 516.247 78.1691 516.247 Q83.1344 516.247 86.0308 520.194 Q88.9272 524.109 88.9272 530.984 Q88.9272 533.848 88.3543 536.967 Q87.8132 540.055 86.6992 543.492 L80.6518 543.492 Q82.3387 540.246 83.198 537.095 Q84.0256 533.944 84.0256 530.856 Q84.0256 526.719 82.6251 524.491 Q81.1929 522.263 78.6147 522.263 Q76.2276 522.263 74.9545 523.886 Q73.6813 525.477 72.5037 530.92 L72.0262 532.957 Q70.8804 538.4 68.5251 540.819 Q66.138 543.238 62.0002 543.238 Q56.9713 543.238 54.2341 539.673 Q51.4968 536.108 51.4968 529.551 Q51.4968 526.305 51.9743 523.44 Q52.4517 520.576 53.4065 518.157 Z" fill="#000000" fill-rule="evenodd" fill-opacity="1" /><path clip-path="url(#clip010)" d="M 0 0 M38.479 496.418 L96.5979 496.418 L96.5979 509.913 L92.0464 509.913 L92.0464 502.306 L43.0304 502.306 L43.0304 509.913 L38.479 509.913 L38.479 496.418 Z" fill="#000000" fill-rule="evenodd" fill-opacity="1" /><polyline clip-path="url(#clip012)" style="stroke:#009af9; stroke-width:4; stroke-opacity:1; fill:none" points="
  392.066,1386.4 411.294,1365.33 430.522,1347.76 449.75,1331.3 468.978,1315.53 488.206,1300.25 507.434,1285.35 526.662,1270.76 545.891,1256.42 565.119,1242.31 
  584.347,1228.4 603.575,1214.65 622.803,1201.07 642.031,1187.62 661.259,1174.3 680.487,1161.11 699.715,1148.02 718.944,1135.03 738.172,1122.14 757.4,1109.34 
  776.628,1096.62 795.856,1083.98 815.084,1071.41 834.312,1058.92 853.54,1046.49 872.768,1034.13 891.997,1021.83 911.225,1009.59 930.453,997.411 949.681,985.282 
  968.909,973.205 988.137,961.178 1007.37,949.2 1026.59,937.268 1045.82,925.381 1065.05,913.538 1084.28,901.737 1103.51,889.977 1122.73,878.257 1141.96,866.576 
  1161.19,854.931 1180.42,843.323 1199.65,831.751 1218.87,820.212 1238.1,808.708 1257.33,797.235 1276.56,785.795 1295.79,774.386 1315.01,763.007 1334.24,751.658 
  1353.47,740.337 1372.7,729.045 1391.93,717.78 1411.16,706.543 1430.38,695.332 1449.61,684.147 1468.84,672.987 1488.07,661.852 1507.3,650.742 1526.52,639.656 
  1545.75,628.593 1564.98,617.553 1584.21,606.535 1603.44,595.54 1622.66,584.567 1641.89,573.615 1661.12,562.684 1680.35,551.773 1699.58,540.883 1718.81,530.013 
  1738.03,519.163 1757.26,508.332 1776.49,497.52 1795.72,486.727 1814.95,475.953 1834.17,465.196 1853.4,454.458 1872.63,443.737 1891.86,433.033 1911.09,422.347 
  1930.31,411.678 1949.54,401.025 1968.77,390.388 1988,379.768 2007.23,369.164 2026.45,358.576 2045.68,348.003 2064.91,337.445 2084.14,326.903 2103.37,316.376 
  2122.6,305.863 2141.82,295.365 2161.05,284.881 2180.28,274.412 2199.51,263.957 2218.74,253.515 2237.96,243.088 2257.19,232.674 2276.42,222.273 2295.65,211.885 
  
  "/>
<polyline clip-path="url(#clip012)" style="stroke:#e26f46; stroke-width:4; stroke-opacity:1; fill:none" points="
  392.066,1386.4 411.294,1364.41 430.522,1346.06 449.75,1328.88 468.978,1312.42 488.206,1296.46 507.434,1280.91 526.662,1265.67 545.891,1250.71 565.119,1235.98 
  584.347,1221.45 603.575,1207.1 622.803,1192.92 642.031,1178.88 661.259,1164.98 680.487,1151.2 699.715,1137.54 718.944,1123.98 738.172,1110.52 757.4,1097.16 
  776.628,1083.88 795.856,1070.68 815.084,1057.57 834.312,1044.52 853.54,1031.55 872.768,1018.65 891.997,1005.81 911.225,993.031 930.453,980.312 949.681,967.649 
  968.909,955.042 988.137,942.486 1007.37,929.981 1026.59,917.525 1045.82,905.116 1065.05,892.752 1084.28,880.432 1103.51,868.156 1122.73,855.92 1141.96,843.725 
  1161.19,831.569 1180.42,819.451 1199.65,807.369 1218.87,795.324 1238.1,783.313 1257.33,771.337 1276.56,759.394 1295.79,747.483 1315.01,735.604 1334.24,723.756 
  1353.47,711.937 1372.7,700.149 1391.93,688.389 1411.16,676.658 1430.38,664.954 1449.61,653.277 1468.84,641.627 1488.07,630.003 1507.3,618.404 1526.52,606.83 
  1545.75,595.281 1564.98,583.756 1584.21,572.254 1603.44,560.775 1622.66,549.32 1641.89,537.886 1661.12,526.475 1680.35,515.085 1699.58,503.716 1718.81,492.368 
  1738.03,481.041 1757.26,469.734 1776.49,458.447 1795.72,447.18 1814.95,435.931 1834.17,424.702 1853.4,413.492 1872.63,402.299 1891.86,391.125 1911.09,379.969 
  1930.31,368.831 1949.54,357.71 1968.77,346.606 1988,335.519 2007.23,324.449 2026.45,313.395 2045.68,302.357 2064.91,291.336 2084.14,280.33 2103.37,269.34 
  2122.6,258.365 2141.82,247.405 2161.05,236.461 2180.28,225.531 2199.51,214.617 2218.74,203.716 2237.96,192.83 2257.19,181.958 2276.42,171.1 2295.65,160.256 
  
  "/>
<path clip-path="url(#clip010)" d="
M1712.89 388.432 L2280.76 388.432 L2280.76 206.992 L1712.89 206.992  Z
  " fill="#ffffff" fill-rule="evenodd" fill-opacity="1"/>
<polyline clip-path="url(#clip010)" style="stroke:#000000; stroke-width:4; stroke-opacity:1; fill:none" points="
  1712.89,388.432 2280.76,388.432 2280.76,206.992 1712.89,206.992 1712.89,388.432 
  "/>
<polyline clip-path="url(#clip010)" style="stroke:#009af9; stroke-width:4; stroke-opacity:1; fill:none" points="
  1736.89,267.472 1880.89,267.472 
  "/>
<path clip-path="url(#clip010)" d="M 0 0 M1932.76 252.854 L1932.76 257.785 Q1930.4 255.586 1927.71 254.498 Q1925.05 253.41 1922.04 253.41 Q1916.11 253.41 1912.97 257.044 Q1909.82 260.655 1909.82 267.507 Q1909.82 274.336 1912.97 277.97 Q1916.11 281.581 1922.04 281.581 Q1925.05 281.581 1927.71 280.493 Q1930.4 279.405 1932.76 277.206 L1932.76 282.09 Q1930.3 283.757 1927.55 284.59 Q1924.82 285.423 1921.76 285.423 Q1913.92 285.423 1909.4 280.632 Q1904.89 275.817 1904.89 267.507 Q1904.89 259.174 1909.4 254.382 Q1913.92 249.567 1921.76 249.567 Q1924.86 249.567 1927.6 250.4 Q1930.35 251.211 1932.76 252.854 Z" fill="#000000" fill-rule="evenodd" fill-opacity="1" /><path clip-path="url(#clip010)" d="M 0 0 M1937.23 248.734 L1941.48 248.734 L1941.48 284.752 L1937.23 284.752 L1937.23 248.734 Z" fill="#000000" fill-rule="evenodd" fill-opacity="1" /><path clip-path="url(#clip010)" d="M 0 0 M1945.95 258.826 L1950.21 258.826 L1950.21 284.752 L1945.95 284.752 L1945.95 258.826 M1945.95 248.734 L1950.21 248.734 L1950.21 254.127 L1945.95 254.127 L1945.95 248.734 Z" fill="#000000" fill-rule="evenodd" fill-opacity="1" /><path clip-path="url(#clip010)" d="M 0 0 M1974.86 263.803 Q1976.46 260.933 1978.68 259.567 Q1980.91 258.201 1983.91 258.201 Q1987.97 258.201 1990.16 261.049 Q1992.36 263.873 1992.36 269.104 L1992.36 284.752 L1988.08 284.752 L1988.08 269.243 Q1988.08 265.516 1986.76 263.711 Q1985.44 261.905 1982.73 261.905 Q1979.42 261.905 1977.5 264.104 Q1975.58 266.303 1975.58 270.099 L1975.58 284.752 L1971.3 284.752 L1971.3 269.243 Q1971.3 265.493 1969.98 263.711 Q1968.66 261.905 1965.91 261.905 Q1962.64 261.905 1960.72 264.127 Q1958.8 266.326 1958.8 270.099 L1958.8 284.752 L1954.52 284.752 L1954.52 258.826 L1958.8 258.826 L1958.8 262.854 Q1960.26 260.47 1962.29 259.336 Q1964.33 258.201 1967.13 258.201 Q1969.96 258.201 1971.92 259.637 Q1973.91 261.072 1974.86 263.803 Z" fill="#000000" fill-rule="evenodd" fill-opacity="1" /><path clip-path="url(#clip010)" d="M 0 0 M2008.61 271.72 Q2003.45 271.72 2001.46 272.9 Q1999.47 274.081 1999.47 276.928 Q1999.47 279.197 2000.95 280.539 Q2002.46 281.859 2005.03 281.859 Q2008.57 281.859 2010.7 279.359 Q2012.85 276.836 2012.85 272.669 L2012.85 271.72 L2008.61 271.72 M2017.11 269.961 L2017.11 284.752 L2012.85 284.752 L2012.85 280.817 Q2011.39 283.178 2009.22 284.312 Q2007.04 285.423 2003.89 285.423 Q1999.91 285.423 1997.55 283.201 Q1995.21 280.956 1995.21 277.206 Q1995.21 272.831 1998.13 270.609 Q2001.07 268.386 2006.88 268.386 L2012.85 268.386 L2012.85 267.97 Q2012.85 265.03 2010.91 263.433 Q2008.98 261.812 2005.49 261.812 Q2003.27 261.812 2001.16 262.345 Q1999.05 262.877 1997.11 263.942 L1997.11 260.007 Q1999.45 259.104 2001.65 258.664 Q2003.85 258.201 2005.93 258.201 Q2011.55 258.201 2014.33 261.118 Q2017.11 264.035 2017.11 269.961 Z" fill="#000000" fill-rule="evenodd" fill-opacity="1" /><path clip-path="url(#clip010)" d="M 0 0 M2025.79 251.465 L2025.79 258.826 L2034.56 258.826 L2034.56 262.137 L2025.79 262.137 L2025.79 276.211 Q2025.79 279.382 2026.65 280.285 Q2027.53 281.187 2030.19 281.187 L2034.56 281.187 L2034.56 284.752 L2030.19 284.752 Q2025.26 284.752 2023.38 282.923 Q2021.51 281.072 2021.51 276.211 L2021.51 262.137 L2018.38 262.137 L2018.38 258.826 L2021.51 258.826 L2021.51 251.465 L2025.79 251.465 Z" fill="#000000" fill-rule="evenodd" fill-opacity="1" /><path clip-path="url(#clip010)" d="M 0 0 M2061.21 270.724 L2061.21 272.808 L2041.62 272.808 Q2041.9 277.206 2044.26 279.521 Q2046.65 281.812 2050.88 281.812 Q2053.34 281.812 2055.63 281.21 Q2057.94 280.609 2060.21 279.405 L2060.21 283.433 Q2057.92 284.405 2055.51 284.914 Q2053.1 285.423 2050.63 285.423 Q2044.42 285.423 2040.79 281.812 Q2037.18 278.201 2037.18 272.044 Q2037.18 265.678 2040.6 261.951 Q2044.05 258.201 2049.89 258.201 Q2055.12 258.201 2058.15 261.581 Q2061.21 264.937 2061.21 270.724 M2056.95 269.474 Q2056.9 265.979 2054.98 263.896 Q2053.08 261.812 2049.93 261.812 Q2046.37 261.812 2044.22 263.826 Q2042.09 265.84 2041.76 269.498 L2056.95 269.474 Z" fill="#000000" fill-rule="evenodd" fill-opacity="1" /><path clip-path="url(#clip010)" d="M 0 0 M2065.86 250.192 L2072.83 250.192 L2081.65 273.711 L2090.51 250.192 L2097.48 250.192 L2097.48 284.752 L2092.92 284.752 L2092.92 254.405 L2084.01 278.109 L2079.31 278.109 L2070.4 254.405 L2070.4 284.752 L2065.86 284.752 L2065.86 250.192 Z" fill="#000000" fill-rule="evenodd" fill-opacity="1" /><path clip-path="url(#clip010)" d="M 0 0 M2113.73 271.72 Q2108.57 271.72 2106.58 272.9 Q2104.59 274.081 2104.59 276.928 Q2104.59 279.197 2106.07 280.539 Q2107.57 281.859 2110.14 281.859 Q2113.68 281.859 2115.81 279.359 Q2117.96 276.836 2117.96 272.669 L2117.96 271.72 L2113.73 271.72 M2122.22 269.961 L2122.22 284.752 L2117.96 284.752 L2117.96 280.817 Q2116.51 283.178 2114.33 284.312 Q2112.15 285.423 2109.01 285.423 Q2105.03 285.423 2102.66 283.201 Q2100.33 280.956 2100.33 277.206 Q2100.33 272.831 2103.24 270.609 Q2106.18 268.386 2111.99 268.386 L2117.96 268.386 L2117.96 267.97 Q2117.96 265.03 2116.02 263.433 Q2114.1 261.812 2110.6 261.812 Q2108.38 261.812 2106.28 262.345 Q2104.17 262.877 2102.22 263.942 L2102.22 260.007 Q2104.56 259.104 2106.76 258.664 Q2108.96 258.201 2111.04 258.201 Q2116.67 258.201 2119.45 261.118 Q2122.22 264.035 2122.22 269.961 Z" fill="#000000" fill-rule="evenodd" fill-opacity="1" /><path clip-path="url(#clip010)" d="M 0 0 M2145.35 259.822 L2145.35 263.803 Q2143.54 262.808 2141.71 262.322 Q2139.91 261.812 2138.06 261.812 Q2133.91 261.812 2131.62 264.451 Q2129.33 267.067 2129.33 271.812 Q2129.33 276.558 2131.62 279.197 Q2133.91 281.812 2138.06 281.812 Q2139.91 281.812 2141.71 281.326 Q2143.54 280.817 2145.35 279.822 L2145.35 283.757 Q2143.57 284.59 2141.65 285.007 Q2139.75 285.423 2137.59 285.423 Q2131.74 285.423 2128.29 281.743 Q2124.84 278.062 2124.84 271.812 Q2124.84 265.47 2128.31 261.836 Q2131.81 258.201 2137.87 258.201 Q2139.84 258.201 2141.71 258.618 Q2143.59 259.012 2145.35 259.822 Z" fill="#000000" fill-rule="evenodd" fill-opacity="1" /><path clip-path="url(#clip010)" d="M 0 0 M2171.37 269.104 L2171.37 284.752 L2167.11 284.752 L2167.11 269.243 Q2167.11 265.562 2165.67 263.734 Q2164.24 261.905 2161.37 261.905 Q2157.92 261.905 2155.93 264.104 Q2153.94 266.303 2153.94 270.099 L2153.94 284.752 L2149.65 284.752 L2149.65 248.734 L2153.94 248.734 L2153.94 262.854 Q2155.46 260.516 2157.52 259.359 Q2159.61 258.201 2162.32 258.201 Q2166.78 258.201 2169.08 260.979 Q2171.37 263.734 2171.37 269.104 Z" fill="#000000" fill-rule="evenodd" fill-opacity="1" /><path clip-path="url(#clip010)" d="M 0 0 M2175.83 258.826 L2180.09 258.826 L2180.09 284.752 L2175.83 284.752 L2175.83 258.826 M2175.83 248.734 L2180.09 248.734 L2180.09 254.127 L2175.83 254.127 L2175.83 248.734 Z" fill="#000000" fill-rule="evenodd" fill-opacity="1" /><path clip-path="url(#clip010)" d="M 0 0 M2206.11 269.104 L2206.11 284.752 L2201.85 284.752 L2201.85 269.243 Q2201.85 265.562 2200.42 263.734 Q2198.98 261.905 2196.11 261.905 Q2192.66 261.905 2190.67 264.104 Q2188.68 266.303 2188.68 270.099 L2188.68 284.752 L2184.4 284.752 L2184.4 258.826 L2188.68 258.826 L2188.68 262.854 Q2190.21 260.516 2192.27 259.359 Q2194.35 258.201 2197.06 258.201 Q2201.53 258.201 2203.82 260.979 Q2206.11 263.734 2206.11 269.104 Z" fill="#000000" fill-rule="evenodd" fill-opacity="1" /><path clip-path="url(#clip010)" d="M 0 0 M2232.76 270.724 L2232.76 272.808 L2213.17 272.808 Q2213.45 277.206 2215.81 279.521 Q2218.2 281.812 2222.43 281.812 Q2224.89 281.812 2227.18 281.21 Q2229.49 280.609 2231.76 279.405 L2231.76 283.433 Q2229.47 284.405 2227.06 284.914 Q2224.65 285.423 2222.18 285.423 Q2215.97 285.423 2212.34 281.812 Q2208.73 278.201 2208.73 272.044 Q2208.73 265.678 2212.15 261.951 Q2215.6 258.201 2221.44 258.201 Q2226.67 258.201 2229.7 261.581 Q2232.76 264.937 2232.76 270.724 M2228.5 269.474 Q2228.45 265.979 2226.53 263.896 Q2224.63 261.812 2221.48 261.812 Q2217.92 261.812 2215.77 263.826 Q2213.64 265.84 2213.31 269.498 L2228.5 269.474 Z" fill="#000000" fill-rule="evenodd" fill-opacity="1" /><polyline clip-path="url(#clip010)" style="stroke:#e26f46; stroke-width:4; stroke-opacity:1; fill:none" points="
  1736.89,327.952 1880.89,327.952 
  "/>
<path clip-path="url(#clip010)" d="M 0 0 M1928.91 331.204 L1928.91 333.288 L1909.33 333.288 Q1909.61 337.686 1911.97 340.001 Q1914.35 342.292 1918.59 342.292 Q1921.04 342.292 1923.34 341.69 Q1925.65 341.089 1927.92 339.885 L1927.92 343.913 Q1925.63 344.885 1923.22 345.394 Q1920.81 345.903 1918.34 345.903 Q1912.13 345.903 1908.5 342.292 Q1904.89 338.681 1904.89 332.524 Q1904.89 326.158 1908.31 322.431 Q1911.76 318.681 1917.6 318.681 Q1922.83 318.681 1925.86 322.061 Q1928.91 325.417 1928.91 331.204 M1924.66 329.954 Q1924.61 326.459 1922.69 324.376 Q1920.79 322.292 1917.64 322.292 Q1914.08 322.292 1911.92 324.306 Q1909.79 326.32 1909.47 329.978 L1924.66 329.954 Z" fill="#000000" fill-rule="evenodd" fill-opacity="1" /><path clip-path="url(#clip010)" d="M 0 0 M1953.57 324.283 Q1955.16 321.413 1957.39 320.047 Q1959.61 318.681 1962.62 318.681 Q1966.67 318.681 1968.87 321.529 Q1971.07 324.353 1971.07 329.584 L1971.07 345.232 L1966.79 345.232 L1966.79 329.723 Q1966.79 325.996 1965.47 324.191 Q1964.15 322.385 1961.44 322.385 Q1958.13 322.385 1956.21 324.584 Q1954.29 326.783 1954.29 330.579 L1954.29 345.232 L1950 345.232 L1950 329.723 Q1950 325.973 1948.68 324.191 Q1947.36 322.385 1944.61 322.385 Q1941.35 322.385 1939.42 324.607 Q1937.5 326.806 1937.5 330.579 L1937.5 345.232 L1933.22 345.232 L1933.22 319.306 L1937.5 319.306 L1937.5 323.334 Q1938.96 320.95 1941 319.816 Q1943.04 318.681 1945.84 318.681 Q1948.66 318.681 1950.63 320.117 Q1952.62 321.552 1953.57 324.283 Z" fill="#000000" fill-rule="evenodd" fill-opacity="1" /><path clip-path="url(#clip010)" d="M 0 0 M1979.66 341.343 L1979.66 355.093 L1975.37 355.093 L1975.37 319.306 L1979.66 319.306 L1979.66 323.242 Q1981 320.927 1983.04 319.816 Q1985.1 318.681 1987.94 318.681 Q1992.66 318.681 1995.6 322.431 Q1998.57 326.181 1998.57 332.292 Q1998.57 338.403 1995.6 342.153 Q1992.66 345.903 1987.94 345.903 Q1985.1 345.903 1983.04 344.792 Q1981 343.658 1979.66 341.343 M1994.15 332.292 Q1994.15 327.593 1992.2 324.931 Q1990.28 322.246 1986.9 322.246 Q1983.52 322.246 1981.58 324.931 Q1979.66 327.593 1979.66 332.292 Q1979.66 336.991 1981.58 339.677 Q1983.52 342.339 1986.9 342.339 Q1990.28 342.339 1992.2 339.677 Q1994.15 336.991 1994.15 332.292 Z" fill="#000000" fill-rule="evenodd" fill-opacity="1" /><path clip-path="url(#clip010)" d="M 0 0 M2003.03 319.306 L2007.29 319.306 L2007.29 345.232 L2003.03 345.232 L2003.03 319.306 M2003.03 309.214 L2007.29 309.214 L2007.29 314.607 L2003.03 314.607 L2003.03 309.214 Z" fill="#000000" fill-rule="evenodd" fill-opacity="1" /><path clip-path="url(#clip010)" d="M 0 0 M2026.78 323.288 Q2026.07 322.871 2025.21 322.686 Q2024.38 322.478 2023.36 322.478 Q2019.75 322.478 2017.8 324.839 Q2015.88 327.177 2015.88 331.575 L2015.88 345.232 L2011.6 345.232 L2011.6 319.306 L2015.88 319.306 L2015.88 323.334 Q2017.22 320.973 2019.38 319.839 Q2021.53 318.681 2024.61 318.681 Q2025.05 318.681 2025.58 318.751 Q2026.11 318.797 2026.76 318.913 L2026.78 323.288 Z" fill="#000000" fill-rule="evenodd" fill-opacity="1" /><path clip-path="url(#clip010)" d="M 0 0 M2031.25 319.306 L2035.51 319.306 L2035.51 345.232 L2031.25 345.232 L2031.25 319.306 M2031.25 309.214 L2035.51 309.214 L2035.51 314.607 L2031.25 314.607 L2031.25 309.214 Z" fill="#000000" fill-rule="evenodd" fill-opacity="1" /><path clip-path="url(#clip010)" d="M 0 0 M2058.64 320.302 L2058.64 324.283 Q2056.83 323.288 2055 322.802 Q2053.2 322.292 2051.34 322.292 Q2047.2 322.292 2044.91 324.931 Q2042.62 327.547 2042.62 332.292 Q2042.62 337.038 2044.91 339.677 Q2047.2 342.292 2051.34 342.292 Q2053.2 342.292 2055 341.806 Q2056.83 341.297 2058.64 340.302 L2058.64 344.237 Q2056.85 345.07 2054.93 345.487 Q2053.03 345.903 2050.88 345.903 Q2045.03 345.903 2041.58 342.223 Q2038.13 338.542 2038.13 332.292 Q2038.13 325.95 2041.6 322.316 Q2045.09 318.681 2051.16 318.681 Q2053.13 318.681 2055 319.098 Q2056.88 319.492 2058.64 320.302 Z" fill="#000000" fill-rule="evenodd" fill-opacity="1" /><path clip-path="url(#clip010)" d="M 0 0 M2074.89 332.2 Q2069.72 332.2 2067.73 333.38 Q2065.74 334.561 2065.74 337.408 Q2065.74 339.677 2067.22 341.019 Q2068.73 342.339 2071.3 342.339 Q2074.84 342.339 2076.97 339.839 Q2079.12 337.316 2079.12 333.149 L2079.12 332.2 L2074.89 332.2 M2083.38 330.441 L2083.38 345.232 L2079.12 345.232 L2079.12 341.297 Q2077.66 343.658 2075.49 344.792 Q2073.31 345.903 2070.16 345.903 Q2066.18 345.903 2063.82 343.681 Q2061.48 341.436 2061.48 337.686 Q2061.48 333.311 2064.4 331.089 Q2067.34 328.866 2073.15 328.866 L2079.12 328.866 L2079.12 328.45 Q2079.12 325.51 2077.18 323.913 Q2075.26 322.292 2071.76 322.292 Q2069.54 322.292 2067.43 322.825 Q2065.33 323.357 2063.38 324.422 L2063.38 320.487 Q2065.72 319.584 2067.92 319.144 Q2070.12 318.681 2072.2 318.681 Q2077.83 318.681 2080.6 321.598 Q2083.38 324.515 2083.38 330.441 Z" fill="#000000" fill-rule="evenodd" fill-opacity="1" /><path clip-path="url(#clip010)" d="M 0 0 M2087.85 309.214 L2092.11 309.214 L2092.11 345.232 L2087.85 345.232 L2087.85 309.214 Z" fill="#000000" fill-rule="evenodd" fill-opacity="1" /></svg>
