<?xml version="1.0" encoding="utf-8"?>
<svg xmlns="http://www.w3.org/2000/svg" xmlns:xlink="http://www.w3.org/1999/xlink" width="600" height="400" viewBox="0 0 2400 1600">
<defs>
  <clipPath id="clip980">
    <rect x="0" y="0" width="2400" height="1600"/>
  </clipPath>
</defs>
<path clip-path="url(#clip980)" d="
M0 1600 L2400 1600 L2400 0 L0 0  Z
  " fill="#ffffff" fill-rule="evenodd" fill-opacity="1"/>
<defs>
  <clipPath id="clip981">
    <rect x="480" y="0" width="1681" height="1600"/>
  </clipPath>
</defs>
<path clip-path="url(#clip980)" d="
M175.445 1423.18 L2352.76 1423.18 L2352.76 123.472 L175.445 123.472  Z
  " fill="#ffffff" fill-rule="evenodd" fill-opacity="1"/>
<defs>
  <clipPath id="clip982">
    <rect x="175" y="123" width="2178" height="1301"/>
  </clipPath>
</defs>
<polyline clip-path="url(#clip982)" style="stroke:#000000; stroke-width:2; stroke-opacity:0.1; fill:none" points="
  237.063,1423.18 237.063,123.472 
  "/>
<polyline clip-path="url(#clip982)" style="stroke:#000000; stroke-width:2; stroke-opacity:0.1; fill:none" points="
  647.877,1423.18 647.877,123.472 
  "/>
<polyline clip-path="url(#clip982)" style="stroke:#000000; stroke-width:2; stroke-opacity:0.1; fill:none" points="
  1058.69,1423.18 1058.69,123.472 
  "/>
<polyline clip-path="url(#clip982)" style="stroke:#000000; stroke-width:2; stroke-opacity:0.1; fill:none" points="
  1469.51,1423.18 1469.51,123.472 
  "/>
<polyline clip-path="url(#clip982)" style="stroke:#000000; stroke-width:2; stroke-opacity:0.1; fill:none" points="
  1880.32,1423.18 1880.32,123.472 
  "/>
<polyline clip-path="url(#clip982)" style="stroke:#000000; stroke-width:2; stroke-opacity:0.1; fill:none" points="
  2291.13,1423.18 2291.13,123.472 
  "/>
<polyline clip-path="url(#clip982)" style="stroke:#000000; stroke-width:2; stroke-opacity:0.1; fill:none" points="
  175.445,1233.06 2352.76,1233.06 
  "/>
<polyline clip-path="url(#clip982)" style="stroke:#000000; stroke-width:2; stroke-opacity:0.1; fill:none" points="
  175.445,1029.96 2352.76,1029.96 
  "/>
<polyline clip-path="url(#clip982)" style="stroke:#000000; stroke-width:2; stroke-opacity:0.1; fill:none" points="
  175.445,826.859 2352.76,826.859 
  "/>
<polyline clip-path="url(#clip982)" style="stroke:#000000; stroke-width:2; stroke-opacity:0.1; fill:none" points="
  175.445,623.758 2352.76,623.758 
  "/>
<polyline clip-path="url(#clip982)" style="stroke:#000000; stroke-width:2; stroke-opacity:0.1; fill:none" points="
  175.445,420.658 2352.76,420.658 
  "/>
<polyline clip-path="url(#clip982)" style="stroke:#000000; stroke-width:2; stroke-opacity:0.1; fill:none" points="
  175.445,217.558 2352.76,217.558 
  "/>
<polyline clip-path="url(#clip980)" style="stroke:#000000; stroke-width:4; stroke-opacity:1; fill:none" points="
  175.445,1423.18 2352.76,1423.18 
  "/>
<polyline clip-path="url(#clip980)" style="stroke:#000000; stroke-width:4; stroke-opacity:1; fill:none" points="
  175.445,1423.18 175.445,123.472 
  "/>
<polyline clip-path="url(#clip980)" style="stroke:#000000; stroke-width:4; stroke-opacity:1; fill:none" points="
  237.063,1423.18 237.063,1407.58 
  "/>
<polyline clip-path="url(#clip980)" style="stroke:#000000; stroke-width:4; stroke-opacity:1; fill:none" points="
  647.877,1423.18 647.877,1407.58 
  "/>
<polyline clip-path="url(#clip980)" style="stroke:#000000; stroke-width:4; stroke-opacity:1; fill:none" points="
  1058.69,1423.18 1058.69,1407.58 
  "/>
<polyline clip-path="url(#clip980)" style="stroke:#000000; stroke-width:4; stroke-opacity:1; fill:none" points="
  1469.51,1423.18 1469.51,1407.58 
  "/>
<polyline clip-path="url(#clip980)" style="stroke:#000000; stroke-width:4; stroke-opacity:1; fill:none" points="
  1880.32,1423.18 1880.32,1407.58 
  "/>
<polyline clip-path="url(#clip980)" style="stroke:#000000; stroke-width:4; stroke-opacity:1; fill:none" points="
  2291.13,1423.18 2291.13,1407.58 
  "/>
<polyline clip-path="url(#clip980)" style="stroke:#000000; stroke-width:4; stroke-opacity:1; fill:none" points="
  175.445,1233.06 201.573,1233.06 
  "/>
<polyline clip-path="url(#clip980)" style="stroke:#000000; stroke-width:4; stroke-opacity:1; fill:none" points="
  175.445,1029.96 201.573,1029.96 
  "/>
<polyline clip-path="url(#clip980)" style="stroke:#000000; stroke-width:4; stroke-opacity:1; fill:none" points="
  175.445,826.859 201.573,826.859 
  "/>
<polyline clip-path="url(#clip980)" style="stroke:#000000; stroke-width:4; stroke-opacity:1; fill:none" points="
  175.445,623.758 201.573,623.758 
  "/>
<polyline clip-path="url(#clip980)" style="stroke:#000000; stroke-width:4; stroke-opacity:1; fill:none" points="
  175.445,420.658 201.573,420.658 
  "/>
<polyline clip-path="url(#clip980)" style="stroke:#000000; stroke-width:4; stroke-opacity:1; fill:none" points="
  175.445,217.558 201.573,217.558 
  "/>
<path clip-path="url(#clip980)" d="M 0 0 M237.063 1445.17 Q233.452 1445.17 231.623 1448.74 Q229.818 1452.28 229.818 1459.41 Q229.818 1466.51 231.623 1470.08 Q233.452 1473.62 237.063 1473.62 Q240.697 1473.62 242.503 1470.08 Q244.332 1466.51 244.332 1459.41 Q244.332 1452.28 242.503 1448.74 Q240.697 1445.17 237.063 1445.17 M237.063 1441.47 Q242.873 1441.47 245.929 1446.07 Q249.007 1450.66 249.007 1459.41 Q249.007 1468.13 245.929 1472.74 Q242.873 1477.32 237.063 1477.32 Q231.253 1477.32 228.174 1472.74 Q225.119 1468.13 225.119 1459.41 Q225.119 1450.66 228.174 1446.07 Q231.253 1441.47 237.063 1441.47 Z" fill="#000000" fill-rule="evenodd" fill-opacity="1" /><path clip-path="url(#clip980)" d="M 0 0 M638.259 1472.72 L645.898 1472.72 L645.898 1446.35 L637.588 1448.02 L637.588 1443.76 L645.852 1442.09 L650.528 1442.09 L650.528 1472.72 L658.167 1472.72 L658.167 1476.65 L638.259 1476.65 L638.259 1472.72 Z" fill="#000000" fill-rule="evenodd" fill-opacity="1" /><path clip-path="url(#clip980)" d="M 0 0 M1053.34 1472.72 L1069.66 1472.72 L1069.66 1476.65 L1047.72 1476.65 L1047.72 1472.72 Q1050.38 1469.96 1054.96 1465.33 Q1059.57 1460.68 1060.75 1459.34 Q1063 1456.81 1063.88 1455.08 Q1064.78 1453.32 1064.78 1451.63 Q1064.78 1448.87 1062.83 1447.14 Q1060.91 1445.4 1057.81 1445.4 Q1055.61 1445.4 1053.16 1446.17 Q1050.73 1446.93 1047.95 1448.48 L1047.95 1443.76 Q1050.77 1442.62 1053.23 1442.05 Q1055.68 1441.47 1057.72 1441.47 Q1063.09 1441.47 1066.28 1444.15 Q1069.48 1446.84 1069.48 1451.33 Q1069.48 1453.46 1068.67 1455.38 Q1067.88 1457.28 1065.77 1459.87 Q1065.2 1460.54 1062.09 1463.76 Q1058.99 1466.95 1053.34 1472.72 Z" fill="#000000" fill-rule="evenodd" fill-opacity="1" /><path clip-path="url(#clip980)" d="M 0 0 M1473.75 1458.02 Q1477.11 1458.74 1478.98 1461 Q1480.88 1463.27 1480.88 1466.61 Q1480.88 1471.72 1477.36 1474.52 Q1473.85 1477.32 1467.36 1477.32 Q1465.19 1477.32 1462.87 1476.88 Q1460.58 1476.47 1458.13 1475.61 L1458.13 1471.1 Q1460.07 1472.23 1462.39 1472.81 Q1464.7 1473.39 1467.23 1473.39 Q1471.62 1473.39 1473.92 1471.65 Q1476.23 1469.92 1476.23 1466.61 Q1476.23 1463.55 1474.08 1461.84 Q1471.95 1460.1 1468.13 1460.1 L1464.1 1460.1 L1464.1 1456.26 L1468.31 1456.26 Q1471.76 1456.26 1473.59 1454.89 Q1475.42 1453.5 1475.42 1450.91 Q1475.42 1448.25 1473.52 1446.84 Q1471.65 1445.4 1468.13 1445.4 Q1466.21 1445.4 1464.01 1445.82 Q1461.81 1446.24 1459.17 1447.11 L1459.17 1442.95 Q1461.83 1442.21 1464.15 1441.84 Q1466.48 1441.47 1468.54 1441.47 Q1473.87 1441.47 1476.97 1443.9 Q1480.07 1446.3 1480.07 1450.43 Q1480.07 1453.3 1478.43 1455.29 Q1476.79 1457.25 1473.75 1458.02 Z" fill="#000000" fill-rule="evenodd" fill-opacity="1" /><path clip-path="url(#clip980)" d="M 0 0 M1883.33 1446.17 L1871.52 1464.61 L1883.33 1464.61 L1883.33 1446.17 M1882.1 1442.09 L1887.98 1442.09 L1887.98 1464.61 L1892.91 1464.61 L1892.91 1468.5 L1887.98 1468.5 L1887.98 1476.65 L1883.33 1476.65 L1883.33 1468.5 L1867.73 1468.5 L1867.73 1463.99 L1882.1 1442.09 Z" fill="#000000" fill-rule="evenodd" fill-opacity="1" /><path clip-path="url(#clip980)" d="M 0 0 M2281.41 1442.09 L2299.77 1442.09 L2299.77 1446.03 L2285.69 1446.03 L2285.69 1454.5 Q2286.71 1454.15 2287.73 1453.99 Q2288.75 1453.8 2289.77 1453.8 Q2295.56 1453.8 2298.93 1456.98 Q2302.31 1460.15 2302.31 1465.56 Q2302.31 1471.14 2298.84 1474.24 Q2295.37 1477.32 2289.05 1477.32 Q2286.87 1477.32 2284.61 1476.95 Q2282.36 1476.58 2279.95 1475.84 L2279.95 1471.14 Q2282.04 1472.28 2284.26 1472.83 Q2286.48 1473.39 2288.96 1473.39 Q2292.96 1473.39 2295.3 1471.28 Q2297.64 1469.18 2297.64 1465.56 Q2297.64 1461.95 2295.3 1459.85 Q2292.96 1457.74 2288.96 1457.74 Q2287.08 1457.74 2285.21 1458.16 Q2283.36 1458.57 2281.41 1459.45 L2281.41 1442.09 Z" fill="#000000" fill-rule="evenodd" fill-opacity="1" /><path clip-path="url(#clip980)" d="M 0 0 M135.126 1246.4 L151.445 1246.4 L151.445 1250.34 L129.501 1250.34 L129.501 1246.4 Q132.163 1243.65 136.746 1239.02 Q141.353 1234.37 142.533 1233.02 Q144.779 1230.5 145.658 1228.77 Q146.561 1227.01 146.561 1225.32 Q146.561 1222.56 144.617 1220.83 Q142.695 1219.09 139.593 1219.09 Q137.394 1219.09 134.941 1219.85 Q132.51 1220.62 129.732 1222.17 L129.732 1217.45 Q132.556 1216.31 135.01 1215.73 Q137.464 1215.15 139.501 1215.15 Q144.871 1215.15 148.066 1217.84 Q151.26 1220.52 151.26 1225.02 Q151.26 1227.15 150.45 1229.07 Q149.663 1230.96 147.556 1233.56 Q146.978 1234.23 143.876 1237.45 Q140.774 1240.64 135.126 1246.4 Z" fill="#000000" fill-rule="evenodd" fill-opacity="1" /><path clip-path="url(#clip980)" d="M 0 0 M144.316 1028.6 Q147.672 1029.32 149.547 1031.59 Q151.445 1033.86 151.445 1037.19 Q151.445 1042.31 147.927 1045.11 Q144.408 1047.91 137.927 1047.91 Q135.751 1047.91 133.436 1047.47 Q131.144 1047.05 128.691 1046.2 L128.691 1041.68 Q130.635 1042.82 132.95 1043.4 Q135.265 1043.98 137.788 1043.98 Q142.186 1043.98 144.478 1042.24 Q146.792 1040.5 146.792 1037.19 Q146.792 1034.14 144.64 1032.42 Q142.51 1030.69 138.691 1030.69 L134.663 1030.69 L134.663 1026.85 L138.876 1026.85 Q142.325 1026.85 144.154 1025.48 Q145.982 1024.09 145.982 1021.5 Q145.982 1018.84 144.084 1017.42 Q142.209 1015.99 138.691 1015.99 Q136.769 1015.99 134.57 1016.41 Q132.371 1016.82 129.732 1017.7 L129.732 1013.54 Q132.394 1012.79 134.709 1012.42 Q137.047 1012.05 139.107 1012.05 Q144.431 1012.05 147.533 1014.48 Q150.635 1016.89 150.635 1021.01 Q150.635 1023.88 148.992 1025.87 Q147.348 1027.84 144.316 1028.6 Z" fill="#000000" fill-rule="evenodd" fill-opacity="1" /><path clip-path="url(#clip980)" d="M 0 0 M141.862 813.653 L130.056 832.102 L141.862 832.102 L141.862 813.653 M140.635 809.579 L146.515 809.579 L146.515 832.102 L151.445 832.102 L151.445 835.991 L146.515 835.991 L146.515 844.139 L141.862 844.139 L141.862 835.991 L126.26 835.991 L126.26 831.477 L140.635 809.579 Z" fill="#000000" fill-rule="evenodd" fill-opacity="1" /><path clip-path="url(#clip980)" d="M 0 0 M130.543 606.478 L148.899 606.478 L148.899 610.413 L134.825 610.413 L134.825 618.886 Q135.843 618.538 136.862 618.376 Q137.88 618.191 138.899 618.191 Q144.686 618.191 148.066 621.362 Q151.445 624.534 151.445 629.95 Q151.445 635.529 147.973 638.631 Q144.501 641.71 138.181 641.71 Q136.005 641.71 133.737 641.339 Q131.492 640.969 129.084 640.228 L129.084 635.529 Q131.168 636.663 133.39 637.219 Q135.612 637.774 138.089 637.774 Q142.093 637.774 144.431 635.668 Q146.769 633.561 146.769 629.95 Q146.769 626.339 144.431 624.233 Q142.093 622.126 138.089 622.126 Q136.214 622.126 134.339 622.543 Q132.487 622.96 130.543 623.839 L130.543 606.478 Z" fill="#000000" fill-rule="evenodd" fill-opacity="1" /><path clip-path="url(#clip980)" d="M 0 0 M139.917 418.794 Q136.769 418.794 134.918 420.947 Q133.089 423.1 133.089 426.85 Q133.089 430.577 134.918 432.753 Q136.769 434.906 139.917 434.906 Q143.066 434.906 144.894 432.753 Q146.746 430.577 146.746 426.85 Q146.746 423.1 144.894 420.947 Q143.066 418.794 139.917 418.794 M149.2 404.142 L149.2 408.401 Q147.441 407.568 145.635 407.128 Q143.853 406.688 142.093 406.688 Q137.464 406.688 135.01 409.813 Q132.58 412.938 132.232 419.257 Q133.598 417.244 135.658 416.179 Q137.718 415.091 140.195 415.091 Q145.404 415.091 148.413 418.262 Q151.445 421.41 151.445 426.85 Q151.445 432.174 148.297 435.392 Q145.149 438.609 139.917 438.609 Q133.922 438.609 130.751 434.026 Q127.58 429.419 127.58 420.693 Q127.58 412.498 131.468 407.637 Q135.357 402.753 141.908 402.753 Q143.667 402.753 145.45 403.1 Q147.255 403.447 149.2 404.142 Z" fill="#000000" fill-rule="evenodd" fill-opacity="1" /><path clip-path="url(#clip980)" d="M 0 0 M129.223 200.278 L151.445 200.278 L151.445 202.268 L138.899 234.838 L134.015 234.838 L145.82 204.213 L129.223 204.213 L129.223 200.278 Z" fill="#000000" fill-rule="evenodd" fill-opacity="1" /><path clip-path="url(#clip980)" d="M 0 0 M679.656 20.1573 L668.557 50.2555 L690.796 50.2555 L679.656 20.1573 M675.038 12.096 L684.315 12.096 L707.365 72.576 L698.858 72.576 L693.348 57.061 L666.086 57.061 L660.577 72.576 L651.948 72.576 L675.038 12.096 Z" fill="#000000" fill-rule="evenodd" fill-opacity="1" /><path clip-path="url(#clip980)" d="M 0 0 M704.975 27.2059 L712.874 27.2059 L727.052 65.2844 L741.23 27.2059 L749.129 27.2059 L732.116 72.576 L721.988 72.576 L704.975 27.2059 Z" fill="#000000" fill-rule="evenodd" fill-opacity="1" /><path clip-path="url(#clip980)" d="M 0 0 M795.755 48.0275 L795.755 51.6733 L761.485 51.6733 Q761.971 59.3701 766.103 63.421 Q770.275 67.4314 777.688 67.4314 Q781.982 67.4314 785.993 66.3781 Q790.043 65.3249 794.013 63.2184 L794.013 70.267 Q790.003 71.9684 785.79 72.8596 Q781.577 73.7508 777.243 73.7508 Q766.386 73.7508 760.026 67.4314 Q753.707 61.1119 753.707 50.3365 Q753.707 39.1965 759.702 32.6746 Q765.738 26.1121 775.946 26.1121 Q785.101 26.1121 790.408 32.0264 Q795.755 37.9003 795.755 48.0275 M788.302 45.84 Q788.221 39.7232 784.858 36.0774 Q781.537 32.4315 776.027 32.4315 Q769.789 32.4315 766.022 35.9558 Q762.295 39.4801 761.728 45.8805 L788.302 45.84 Z" fill="#000000" fill-rule="evenodd" fill-opacity="1" /><path clip-path="url(#clip980)" d="M 0 0 M829.864 34.1734 Q828.608 33.4443 827.109 33.1202 Q825.651 32.7556 823.869 32.7556 Q817.549 32.7556 814.146 36.8875 Q810.784 40.9789 810.784 48.6757 L810.784 72.576 L803.29 72.576 L803.29 27.2059 L810.784 27.2059 L810.784 34.2544 Q813.134 30.1225 816.901 28.1376 Q820.668 26.1121 826.056 26.1121 Q826.826 26.1121 827.757 26.2337 Q828.689 26.3147 829.823 26.5172 L829.864 34.1734 Z" fill="#000000" fill-rule="evenodd" fill-opacity="1" /><path clip-path="url(#clip980)" d="M 0 0 M858.301 49.7694 Q849.268 49.7694 845.784 51.8354 Q842.3 53.9013 842.3 58.8839 Q842.3 62.8538 844.893 65.2034 Q847.526 67.5124 852.022 67.5124 Q858.22 67.5124 861.947 63.1374 Q865.714 58.7219 865.714 51.4303 L865.714 49.7694 L858.301 49.7694 M873.168 46.6907 L873.168 72.576 L865.714 72.576 L865.714 65.6895 Q863.162 69.8214 859.354 71.8063 Q855.547 73.7508 850.037 73.7508 Q843.07 73.7508 838.938 69.8619 Q834.846 65.9325 834.846 59.3701 Q834.846 51.7138 839.951 47.825 Q845.095 43.9361 855.263 43.9361 L865.714 43.9361 L865.714 43.2069 Q865.714 38.0623 862.312 35.2672 Q858.949 32.4315 852.833 32.4315 Q848.944 32.4315 845.257 33.3632 Q841.571 34.295 838.168 36.1584 L838.168 29.2718 Q842.26 27.692 846.108 26.9223 Q849.956 26.1121 853.602 26.1121 Q863.446 26.1121 868.307 31.2163 Q873.168 36.3204 873.168 46.6907 Z" fill="#000000" fill-rule="evenodd" fill-opacity="1" /><path clip-path="url(#clip980)" d="M 0 0 M910.841 49.3643 Q910.841 41.2625 907.479 36.8065 Q904.157 32.3505 898.122 32.3505 Q892.126 32.3505 888.764 36.8065 Q885.442 41.2625 885.442 49.3643 Q885.442 57.4256 888.764 61.8816 Q892.126 66.3376 898.122 66.3376 Q904.157 66.3376 907.479 61.8816 Q910.841 57.4256 910.841 49.3643 M918.295 66.9452 Q918.295 78.5308 913.15 84.1616 Q908.006 89.8329 897.392 89.8329 Q893.463 89.8329 889.979 89.2252 Q886.496 88.6581 883.214 87.4428 L883.214 80.1917 Q886.496 81.9741 889.696 82.8248 Q892.896 83.6755 896.218 83.6755 Q903.55 83.6755 907.196 79.8271 Q910.841 76.0193 910.841 68.282 L910.841 64.5957 Q908.532 68.6061 904.927 70.5911 Q901.322 72.576 896.299 72.576 Q887.954 72.576 882.85 66.2161 Q877.746 59.8562 877.746 49.3643 Q877.746 38.832 882.85 32.472 Q887.954 26.1121 896.299 26.1121 Q901.322 26.1121 904.927 28.0971 Q908.532 30.082 910.841 34.0924 L910.841 27.2059 L918.295 27.2059 L918.295 66.9452 Z" fill="#000000" fill-rule="evenodd" fill-opacity="1" /><path clip-path="url(#clip980)" d="M 0 0 M964.921 48.0275 L964.921 51.6733 L930.65 51.6733 Q931.136 59.3701 935.268 63.421 Q939.441 67.4314 946.854 67.4314 Q951.148 67.4314 955.158 66.3781 Q959.209 65.3249 963.179 63.2184 L963.179 70.267 Q959.169 71.9684 954.956 72.8596 Q950.743 73.7508 946.408 73.7508 Q935.552 73.7508 929.192 67.4314 Q922.873 61.1119 922.873 50.3365 Q922.873 39.1965 928.868 32.6746 Q934.904 26.1121 945.112 26.1121 Q954.267 26.1121 959.574 32.0264 Q964.921 37.9003 964.921 48.0275 M957.467 45.84 Q957.386 39.7232 954.024 36.0774 Q950.702 32.4315 945.193 32.4315 Q938.955 32.4315 935.187 35.9558 Q931.461 39.4801 930.893 45.8805 L957.467 45.84 Z" fill="#000000" fill-rule="evenodd" fill-opacity="1" /><path clip-path="url(#clip980)" d="M 0 0 M1006.48 14.324 L1006.48 27.2059 L1021.84 27.2059 L1021.84 32.9987 L1006.48 32.9987 L1006.48 57.6282 Q1006.48 63.1779 1007.98 64.7578 Q1009.52 66.3376 1014.18 66.3376 L1021.84 66.3376 L1021.84 72.576 L1014.18 72.576 Q1005.55 72.576 1002.27 69.3758 Q998.989 66.1351 998.989 57.6282 L998.989 32.9987 L993.52 32.9987 L993.52 27.2059 L998.989 27.2059 L998.989 14.324 L1006.48 14.324 Z" fill="#000000" fill-rule="evenodd" fill-opacity="1" /><path clip-path="url(#clip980)" d="M 0 0 M1068.46 48.0275 L1068.46 51.6733 L1034.19 51.6733 Q1034.68 59.3701 1038.81 63.421 Q1042.98 67.4314 1050.4 67.4314 Q1054.69 67.4314 1058.7 66.3781 Q1062.75 65.3249 1066.72 63.2184 L1066.72 70.267 Q1062.71 71.9684 1058.5 72.8596 Q1054.28 73.7508 1049.95 73.7508 Q1039.09 73.7508 1032.73 67.4314 Q1026.41 61.1119 1026.41 50.3365 Q1026.41 39.1965 1032.41 32.6746 Q1038.44 26.1121 1048.65 26.1121 Q1057.81 26.1121 1063.11 32.0264 Q1068.46 37.9003 1068.46 48.0275 M1061.01 45.84 Q1060.93 39.7232 1057.57 36.0774 Q1054.24 32.4315 1048.73 32.4315 Q1042.5 32.4315 1038.73 35.9558 Q1035 39.4801 1034.43 45.8805 L1061.01 45.84 Z" fill="#000000" fill-rule="evenodd" fill-opacity="1" /><path clip-path="url(#clip980)" d="M 0 0 M1102.57 34.1734 Q1101.31 33.4443 1099.82 33.1202 Q1098.36 32.7556 1096.58 32.7556 Q1090.26 32.7556 1086.85 36.8875 Q1083.49 40.9789 1083.49 48.6757 L1083.49 72.576 L1076 72.576 L1076 27.2059 L1083.49 27.2059 L1083.49 34.2544 Q1085.84 30.1225 1089.61 28.1376 Q1093.38 26.1121 1098.76 26.1121 Q1099.53 26.1121 1100.46 26.2337 Q1101.4 26.3147 1102.53 26.5172 L1102.57 34.1734 Z" fill="#000000" fill-rule="evenodd" fill-opacity="1" /><path clip-path="url(#clip980)" d="M 0 0 M1144.25 35.9153 Q1147.05 30.8922 1150.94 28.5022 Q1154.83 26.1121 1160.09 26.1121 Q1167.18 26.1121 1171.03 31.0947 Q1174.88 36.0368 1174.88 45.1919 L1174.88 72.576 L1167.39 72.576 L1167.39 45.4349 Q1167.39 38.913 1165.08 35.7533 Q1162.77 32.5936 1158.03 32.5936 Q1152.23 32.5936 1148.87 36.4419 Q1145.51 40.2903 1145.51 46.9338 L1145.51 72.576 L1138.02 72.576 L1138.02 45.4349 Q1138.02 38.8725 1135.71 35.7533 Q1133.4 32.5936 1128.58 32.5936 Q1122.87 32.5936 1119.5 36.4824 Q1116.14 40.3308 1116.14 46.9338 L1116.14 72.576 L1108.65 72.576 L1108.65 27.2059 L1116.14 27.2059 L1116.14 34.2544 Q1118.69 30.082 1122.26 28.0971 Q1125.82 26.1121 1130.72 26.1121 Q1135.67 26.1121 1139.11 28.6237 Q1142.59 31.1352 1144.25 35.9153 Z" fill="#000000" fill-rule="evenodd" fill-opacity="1" /><path clip-path="url(#clip980)" d="M 0 0 M1182.7 27.2059 L1190.15 27.2059 L1190.15 72.576 L1182.7 72.576 L1182.7 27.2059 M1182.7 9.54393 L1190.15 9.54393 L1190.15 18.9825 L1182.7 18.9825 L1182.7 9.54393 Z" fill="#000000" fill-rule="evenodd" fill-opacity="1" /><path clip-path="url(#clip980)" d="M 0 0 M1235.68 45.1919 L1235.68 72.576 L1228.23 72.576 L1228.23 45.4349 Q1228.23 38.994 1225.72 35.7938 Q1223.21 32.5936 1218.18 32.5936 Q1212.15 32.5936 1208.66 36.4419 Q1205.18 40.2903 1205.18 46.9338 L1205.18 72.576 L1197.69 72.576 L1197.69 27.2059 L1205.18 27.2059 L1205.18 34.2544 Q1207.85 30.163 1211.46 28.1376 Q1215.1 26.1121 1219.84 26.1121 Q1227.66 26.1121 1231.67 30.9732 Q1235.68 35.7938 1235.68 45.1919 Z" fill="#000000" fill-rule="evenodd" fill-opacity="1" /><path clip-path="url(#clip980)" d="M 0 0 M1264.12 49.7694 Q1255.09 49.7694 1251.6 51.8354 Q1248.12 53.9013 1248.12 58.8839 Q1248.12 62.8538 1250.71 65.2034 Q1253.35 67.5124 1257.84 67.5124 Q1264.04 67.5124 1267.77 63.1374 Q1271.53 58.7219 1271.53 51.4303 L1271.53 49.7694 L1264.12 49.7694 M1278.99 46.6907 L1278.99 72.576 L1271.53 72.576 L1271.53 65.6895 Q1268.98 69.8214 1265.17 71.8063 Q1261.37 73.7508 1255.86 73.7508 Q1248.89 73.7508 1244.76 69.8619 Q1240.67 65.9325 1240.67 59.3701 Q1240.67 51.7138 1245.77 47.825 Q1250.91 43.9361 1261.08 43.9361 L1271.53 43.9361 L1271.53 43.2069 Q1271.53 38.0623 1268.13 35.2672 Q1264.77 32.4315 1258.65 32.4315 Q1254.76 32.4315 1251.08 33.3632 Q1247.39 34.295 1243.99 36.1584 L1243.99 29.2718 Q1248.08 27.692 1251.93 26.9223 Q1255.78 26.1121 1259.42 26.1121 Q1269.27 26.1121 1274.13 31.2163 Q1278.99 36.3204 1278.99 46.6907 Z" fill="#000000" fill-rule="evenodd" fill-opacity="1" /><path clip-path="url(#clip980)" d="M 0 0 M1286.81 9.54393 L1294.26 9.54393 L1294.26 72.576 L1286.81 72.576 L1286.81 9.54393 Z" fill="#000000" fill-rule="evenodd" fill-opacity="1" /><path clip-path="url(#clip980)" d="M 0 0 M1323.1 27.2059 L1331 27.2059 L1345.18 65.2844 L1359.36 27.2059 L1367.26 27.2059 L1350.24 72.576 L1340.12 72.576 L1323.1 27.2059 Z" fill="#000000" fill-rule="evenodd" fill-opacity="1" /><path clip-path="url(#clip980)" d="M 0 0 M1413.88 48.0275 L1413.88 51.6733 L1379.61 51.6733 Q1380.1 59.3701 1384.23 63.421 Q1388.4 67.4314 1395.82 67.4314 Q1400.11 67.4314 1404.12 66.3781 Q1408.17 65.3249 1412.14 63.2184 L1412.14 70.267 Q1408.13 71.9684 1403.92 72.8596 Q1399.7 73.7508 1395.37 73.7508 Q1384.51 73.7508 1378.15 67.4314 Q1371.83 61.1119 1371.83 50.3365 Q1371.83 39.1965 1377.83 32.6746 Q1383.87 26.1121 1394.07 26.1121 Q1403.23 26.1121 1408.54 32.0264 Q1413.88 37.9003 1413.88 48.0275 M1406.43 45.84 Q1406.35 39.7232 1402.99 36.0774 Q1399.66 32.4315 1394.15 32.4315 Q1387.92 32.4315 1384.15 35.9558 Q1380.42 39.4801 1379.86 45.8805 L1406.43 45.84 Z" fill="#000000" fill-rule="evenodd" fill-opacity="1" /><path clip-path="url(#clip980)" d="M 0 0 M1421.7 9.54393 L1429.15 9.54393 L1429.15 72.576 L1421.7 72.576 L1421.7 9.54393 Z" fill="#000000" fill-rule="evenodd" fill-opacity="1" /><path clip-path="url(#clip980)" d="M 0 0 M1454.55 32.4315 Q1448.56 32.4315 1445.07 37.1306 Q1441.59 41.7891 1441.59 49.9314 Q1441.59 58.0738 1445.03 62.7728 Q1448.52 67.4314 1454.55 67.4314 Q1460.51 67.4314 1463.99 62.7323 Q1467.48 58.0333 1467.48 49.9314 Q1467.48 41.8701 1463.99 37.1711 Q1460.51 32.4315 1454.55 32.4315 M1454.55 26.1121 Q1464.28 26.1121 1469.83 32.4315 Q1475.38 38.7509 1475.38 49.9314 Q1475.38 61.0714 1469.83 67.4314 Q1464.28 73.7508 1454.55 73.7508 Q1444.79 73.7508 1439.24 67.4314 Q1433.73 61.0714 1433.73 49.9314 Q1433.73 38.7509 1439.24 32.4315 Q1444.79 26.1121 1454.55 26.1121 Z" fill="#000000" fill-rule="evenodd" fill-opacity="1" /><path clip-path="url(#clip980)" d="M 0 0 M1515.84 28.9478 L1515.84 35.9153 Q1512.68 34.1734 1509.48 33.3227 Q1506.32 32.4315 1503.08 32.4315 Q1495.83 32.4315 1491.82 37.0496 Q1487.81 41.6271 1487.81 49.9314 Q1487.81 58.2358 1491.82 62.8538 Q1495.83 67.4314 1503.08 67.4314 Q1506.32 67.4314 1509.48 66.5807 Q1512.68 65.6895 1515.84 63.9476 L1515.84 70.8341 Q1512.72 72.2924 1509.36 73.0216 Q1506.04 73.7508 1502.27 73.7508 Q1492.02 73.7508 1485.99 67.3098 Q1479.95 60.8689 1479.95 49.9314 Q1479.95 38.832 1486.03 32.472 Q1492.15 26.1121 1502.76 26.1121 Q1506.2 26.1121 1509.48 26.8413 Q1512.77 27.5299 1515.84 28.9478 Z" fill="#000000" fill-rule="evenodd" fill-opacity="1" /><path clip-path="url(#clip980)" d="M 0 0 M1523.66 27.2059 L1531.12 27.2059 L1531.12 72.576 L1523.66 72.576 L1523.66 27.2059 M1523.66 9.54393 L1531.12 9.54393 L1531.12 18.9825 L1523.66 18.9825 L1523.66 9.54393 Z" fill="#000000" fill-rule="evenodd" fill-opacity="1" /><path clip-path="url(#clip980)" d="M 0 0 M1546.31 14.324 L1546.31 27.2059 L1561.66 27.2059 L1561.66 32.9987 L1546.31 32.9987 L1546.31 57.6282 Q1546.31 63.1779 1547.81 64.7578 Q1549.34 66.3376 1554 66.3376 L1561.66 66.3376 L1561.66 72.576 L1554 72.576 Q1545.38 72.576 1542.09 69.3758 Q1538.81 66.1351 1538.81 57.6282 L1538.81 32.9987 L1533.34 32.9987 L1533.34 27.2059 L1538.81 27.2059 L1538.81 14.324 L1546.31 14.324 Z" fill="#000000" fill-rule="evenodd" fill-opacity="1" /><path clip-path="url(#clip980)" d="M 0 0 M1588.36 76.7889 Q1585.2 84.8907 1582.2 87.3618 Q1579.2 89.8329 1574.18 89.8329 L1568.22 89.8329 L1568.22 83.5945 L1572.6 83.5945 Q1575.68 83.5945 1577.38 82.1361 Q1579.08 80.6778 1581.14 75.2496 L1582.48 71.8468 L1564.13 27.2059 L1572.03 27.2059 L1586.21 62.6918 L1600.39 27.2059 L1608.29 27.2059 L1588.36 76.7889 Z" fill="#000000" fill-rule="evenodd" fill-opacity="1" /><path clip-path="url(#clip980)" d="M 0 0 M1660.06 32.4315 Q1654.06 32.4315 1650.58 37.1306 Q1647.09 41.7891 1647.09 49.9314 Q1647.09 58.0738 1650.54 62.7728 Q1654.02 67.4314 1660.06 67.4314 Q1666.01 67.4314 1669.49 62.7323 Q1672.98 58.0333 1672.98 49.9314 Q1672.98 41.8701 1669.49 37.1711 Q1666.01 32.4315 1660.06 32.4315 M1660.06 26.1121 Q1669.78 26.1121 1675.33 32.4315 Q1680.88 38.7509 1680.88 49.9314 Q1680.88 61.0714 1675.33 67.4314 Q1669.78 73.7508 1660.06 73.7508 Q1650.29 73.7508 1644.74 67.4314 Q1639.23 61.0714 1639.23 49.9314 Q1639.23 38.7509 1644.74 32.4315 Q1650.29 26.1121 1660.06 26.1121 Z" fill="#000000" fill-rule="evenodd" fill-opacity="1" /><path clip-path="url(#clip980)" d="M 0 0 M1711.66 9.54393 L1711.66 15.7418 L1704.54 15.7418 Q1700.52 15.7418 1698.94 17.3622 Q1697.41 18.9825 1697.41 23.1955 L1697.41 27.2059 L1709.68 27.2059 L1709.68 32.9987 L1697.41 32.9987 L1697.41 72.576 L1689.91 72.576 L1689.91 32.9987 L1682.78 32.9987 L1682.78 27.2059 L1689.91 27.2059 L1689.91 24.0462 Q1689.91 16.471 1693.44 13.0277 Q1696.96 9.54393 1704.62 9.54393 L1711.66 9.54393 Z" fill="#000000" fill-rule="evenodd" fill-opacity="1" /><path clip-path="url(#clip980)" d="M 0 0 M1772.14 34.1734 Q1770.89 33.4443 1769.39 33.1202 Q1767.93 32.7556 1766.15 32.7556 Q1759.83 32.7556 1756.43 36.8875 Q1753.06 40.9789 1753.06 48.6757 L1753.06 72.576 L1745.57 72.576 L1745.57 27.2059 L1753.06 27.2059 L1753.06 34.2544 Q1755.41 30.1225 1759.18 28.1376 Q1762.95 26.1121 1768.34 26.1121 Q1769.11 26.1121 1770.04 26.2337 Q1770.97 26.3147 1772.1 26.5172 L1772.14 34.1734 Z" fill="#000000" fill-rule="evenodd" fill-opacity="1" /><path clip-path="url(#clip980)" d="M 0 0 M1800.58 49.7694 Q1791.55 49.7694 1788.06 51.8354 Q1784.58 53.9013 1784.58 58.8839 Q1784.58 62.8538 1787.17 65.2034 Q1789.81 67.5124 1794.3 67.5124 Q1800.5 67.5124 1804.23 63.1374 Q1808 58.7219 1808 51.4303 L1808 49.7694 L1800.58 49.7694 M1815.45 46.6907 L1815.45 72.576 L1808 72.576 L1808 65.6895 Q1805.44 69.8214 1801.64 71.8063 Q1797.83 73.7508 1792.32 73.7508 Q1785.35 73.7508 1781.22 69.8619 Q1777.13 65.9325 1777.13 59.3701 Q1777.13 51.7138 1782.23 47.825 Q1787.38 43.9361 1797.54 43.9361 L1808 43.9361 L1808 43.2069 Q1808 38.0623 1804.59 35.2672 Q1801.23 32.4315 1795.11 32.4315 Q1791.22 32.4315 1787.54 33.3632 Q1783.85 34.295 1780.45 36.1584 L1780.45 29.2718 Q1784.54 27.692 1788.39 26.9223 Q1792.24 26.1121 1795.88 26.1121 Q1805.73 26.1121 1810.59 31.2163 Q1815.45 36.3204 1815.45 46.6907 Z" fill="#000000" fill-rule="evenodd" fill-opacity="1" /><path clip-path="url(#clip980)" d="M 0 0 M1823.27 27.2059 L1830.72 27.2059 L1830.72 72.576 L1823.27 72.576 L1823.27 27.2059 M1823.27 9.54393 L1830.72 9.54393 L1830.72 18.9825 L1823.27 18.9825 L1823.27 9.54393 Z" fill="#000000" fill-rule="evenodd" fill-opacity="1" /><path clip-path="url(#clip980)" d="M 0 0 M1876.25 45.1919 L1876.25 72.576 L1868.8 72.576 L1868.8 45.4349 Q1868.8 38.994 1866.29 35.7938 Q1863.78 32.5936 1858.75 32.5936 Q1852.72 32.5936 1849.23 36.4419 Q1845.75 40.2903 1845.75 46.9338 L1845.75 72.576 L1838.26 72.576 L1838.26 27.2059 L1845.75 27.2059 L1845.75 34.2544 Q1848.42 30.163 1852.03 28.1376 Q1855.67 26.1121 1860.41 26.1121 Q1868.23 26.1121 1872.24 30.9732 Q1876.25 35.7938 1876.25 45.1919 Z" fill="#000000" fill-rule="evenodd" fill-opacity="1" /><path clip-path="url(#clip980)" d="M 0 0 M1088.26 1538.25 Q1088.26 1544.71 1090.91 1548.4 Q1093.58 1552.07 1098.23 1552.07 Q1102.87 1552.07 1105.55 1548.4 Q1108.22 1544.71 1108.22 1538.25 Q1108.22 1531.79 1105.55 1528.13 Q1102.87 1524.44 1098.23 1524.44 Q1093.58 1524.44 1090.91 1528.13 Q1088.26 1531.79 1088.26 1538.25 M1108.22 1550.7 Q1106.37 1553.88 1103.54 1555.44 Q1100.74 1556.97 1096.79 1556.97 Q1090.33 1556.97 1086.26 1551.81 Q1082.22 1546.65 1082.22 1538.25 Q1082.22 1529.85 1086.26 1524.69 Q1090.33 1519.54 1096.79 1519.54 Q1100.74 1519.54 1103.54 1521.1 Q1106.37 1522.62 1108.22 1525.81 L1108.22 1520.4 L1114.08 1520.4 L1114.08 1569.6 L1108.22 1569.6 L1108.22 1550.7 Z" fill="#000000" fill-rule="evenodd" fill-opacity="1" /><path clip-path="url(#clip980)" d="M 0 0 M1147.31 1566.87 L1147.31 1571.42 L1113.44 1571.42 L1113.44 1566.87 L1147.31 1566.87 Z" fill="#000000" fill-rule="evenodd" fill-opacity="1" /><path clip-path="url(#clip980)" d="M 0 0 M1174.11 1525.87 Q1173.12 1525.3 1171.94 1525.04 Q1170.8 1524.76 1169.39 1524.76 Q1164.43 1524.76 1161.76 1528 Q1159.11 1531.22 1159.11 1537.27 L1159.11 1556.04 L1153.23 1556.04 L1153.23 1520.4 L1159.11 1520.4 L1159.11 1525.93 Q1160.96 1522.69 1163.92 1521.13 Q1166.88 1519.54 1171.11 1519.54 Q1171.72 1519.54 1172.45 1519.63 Q1173.18 1519.7 1174.07 1519.85 L1174.11 1525.87 Z" fill="#000000" fill-rule="evenodd" fill-opacity="1" /><path clip-path="url(#clip980)" d="M 0 0 M1196.45 1538.12 Q1189.35 1538.12 1186.61 1539.75 Q1183.88 1541.37 1183.88 1545.29 Q1183.88 1548.4 1185.91 1550.25 Q1187.98 1552.07 1191.52 1552.07 Q1196.39 1552.07 1199.31 1548.63 Q1202.27 1545.16 1202.27 1539.43 L1202.27 1538.12 L1196.45 1538.12 M1208.13 1535.71 L1208.13 1556.04 L1202.27 1556.04 L1202.27 1550.63 Q1200.27 1553.88 1197.28 1555.44 Q1194.28 1556.97 1189.96 1556.97 Q1184.48 1556.97 1181.23 1553.91 Q1178.02 1550.82 1178.02 1545.67 Q1178.02 1539.65 1182.03 1536.6 Q1186.07 1533.54 1194.06 1533.54 L1202.27 1533.54 L1202.27 1532.97 Q1202.27 1528.93 1199.6 1526.73 Q1196.96 1524.5 1192.15 1524.5 Q1189.1 1524.5 1186.2 1525.23 Q1183.3 1525.97 1180.63 1527.43 L1180.63 1522.02 Q1183.84 1520.78 1186.87 1520.17 Q1189.89 1519.54 1192.76 1519.54 Q1200.49 1519.54 1204.31 1523.55 Q1208.13 1527.56 1208.13 1535.71 Z" fill="#000000" fill-rule="evenodd" fill-opacity="1" /><path clip-path="url(#clip980)" d="M 0 0 M1214.27 1520.4 L1220.13 1520.4 L1220.13 1556.04 L1214.27 1556.04 L1214.27 1520.4 M1214.27 1506.52 L1220.13 1506.52 L1220.13 1513.93 L1214.27 1513.93 L1214.27 1506.52 Z" fill="#000000" fill-rule="evenodd" fill-opacity="1" /><path clip-path="url(#clip980)" d="M 0 0 M1255.9 1534.53 L1255.9 1556.04 L1250.05 1556.04 L1250.05 1534.72 Q1250.05 1529.66 1248.07 1527.14 Q1246.1 1524.63 1242.15 1524.63 Q1237.41 1524.63 1234.68 1527.65 Q1231.94 1530.68 1231.94 1535.9 L1231.94 1556.04 L1226.05 1556.04 L1226.05 1520.4 L1231.94 1520.4 L1231.94 1525.93 Q1234.04 1522.72 1236.87 1521.13 Q1239.74 1519.54 1243.46 1519.54 Q1249.6 1519.54 1252.75 1523.36 Q1255.9 1527.14 1255.9 1534.53 Z" fill="#000000" fill-rule="evenodd" fill-opacity="1" /><path clip-path="url(#clip980)" d="M 0 0 M1282.23 1506.52 L1295.72 1506.52 L1295.72 1511.07 L1288.08 1511.07 L1288.08 1560.09 L1295.72 1560.09 L1295.72 1564.64 L1282.23 1564.64 L1282.23 1506.52 Z" fill="#000000" fill-rule="evenodd" fill-opacity="1" /><path clip-path="url(#clip980)" d="M 0 0 M1325.32 1537.81 Q1325.32 1531.44 1322.68 1527.94 Q1320.07 1524.44 1315.33 1524.44 Q1310.62 1524.44 1307.98 1527.94 Q1305.37 1531.44 1305.37 1537.81 Q1305.37 1544.14 1307.98 1547.64 Q1310.62 1551.14 1315.33 1551.14 Q1320.07 1551.14 1322.68 1547.64 Q1325.32 1544.14 1325.32 1537.81 M1331.18 1551.62 Q1331.18 1560.72 1327.14 1565.15 Q1323.09 1569.6 1314.76 1569.6 Q1311.67 1569.6 1308.93 1569.13 Q1306.19 1568.68 1303.62 1567.72 L1303.62 1562.03 Q1306.19 1563.43 1308.71 1564.1 Q1311.22 1564.76 1313.83 1564.76 Q1319.59 1564.76 1322.46 1561.74 Q1325.32 1558.75 1325.32 1552.67 L1325.32 1549.77 Q1323.51 1552.92 1320.68 1554.48 Q1317.84 1556.04 1313.9 1556.04 Q1307.34 1556.04 1303.33 1551.05 Q1299.32 1546.05 1299.32 1537.81 Q1299.32 1529.53 1303.33 1524.53 Q1307.34 1519.54 1313.9 1519.54 Q1317.84 1519.54 1320.68 1521.1 Q1323.51 1522.66 1325.32 1525.81 L1325.32 1520.4 L1331.18 1520.4 L1331.18 1551.62 Z" fill="#000000" fill-rule="evenodd" fill-opacity="1" /><path clip-path="url(#clip980)" d="M 0 0 M1347.73 1508.52 L1353.14 1508.52 L1336.59 1562.09 L1331.18 1562.09 L1347.73 1508.52 Z" fill="#000000" fill-rule="evenodd" fill-opacity="1" /><path clip-path="url(#clip980)" d="M 0 0 M1359.06 1506.52 L1364.95 1506.52 L1364.95 1535.77 L1382.42 1520.4 L1389.9 1520.4 L1371 1537.07 L1390.7 1556.04 L1383.06 1556.04 L1364.95 1538.63 L1364.95 1556.04 L1359.06 1556.04 L1359.06 1506.52 Z" fill="#000000" fill-rule="evenodd" fill-opacity="1" /><path clip-path="url(#clip980)" d="M 0 0 M1420.3 1537.81 Q1420.3 1531.44 1417.66 1527.94 Q1415.05 1524.44 1410.3 1524.44 Q1405.59 1524.44 1402.95 1527.94 Q1400.34 1531.44 1400.34 1537.81 Q1400.34 1544.14 1402.95 1547.64 Q1405.59 1551.14 1410.3 1551.14 Q1415.05 1551.14 1417.66 1547.64 Q1420.3 1544.14 1420.3 1537.81 M1426.16 1551.62 Q1426.16 1560.72 1422.11 1565.15 Q1418.07 1569.6 1409.73 1569.6 Q1406.64 1569.6 1403.91 1569.13 Q1401.17 1568.68 1398.59 1567.72 L1398.59 1562.03 Q1401.17 1563.43 1403.68 1564.1 Q1406.2 1564.76 1408.81 1564.76 Q1414.57 1564.76 1417.43 1561.74 Q1420.3 1558.75 1420.3 1552.67 L1420.3 1549.77 Q1418.48 1552.92 1415.65 1554.48 Q1412.82 1556.04 1408.87 1556.04 Q1402.32 1556.04 1398.31 1551.05 Q1394.3 1546.05 1394.3 1537.81 Q1394.3 1529.53 1398.31 1524.53 Q1402.32 1519.54 1408.87 1519.54 Q1412.82 1519.54 1415.65 1521.1 Q1418.48 1522.66 1420.3 1525.81 L1420.3 1520.4 L1426.16 1520.4 L1426.16 1551.62 Z" fill="#000000" fill-rule="evenodd" fill-opacity="1" /><path clip-path="url(#clip980)" d="M 0 0 M1445.98 1506.52 L1445.98 1564.64 L1432.49 1564.64 L1432.49 1560.09 L1440.1 1560.09 L1440.1 1511.07 L1432.49 1511.07 L1432.49 1506.52 L1445.98 1506.52 Z" fill="#000000" fill-rule="evenodd" fill-opacity="1" /><path clip-path="url(#clip980)" d="M 0 0 M52.3562 970.536 L52.3562 964.329 L82.275 953.189 L52.3562 942.049 L52.3562 935.842 L88.0042 949.21 L88.0042 957.168 L52.3562 970.536 Z" fill="#000000" fill-rule="evenodd" fill-opacity="1" /><path clip-path="url(#clip980)" d="M 0 0 M68.7161 899.208 L71.5806 899.208 L71.5806 926.135 Q77.6281 925.753 80.8109 922.506 Q83.9619 919.228 83.9619 913.403 Q83.9619 910.03 83.1344 906.879 Q82.3069 903.696 80.6518 900.576 L86.1899 900.576 Q87.5267 903.727 88.227 907.038 Q88.9272 910.348 88.9272 913.753 Q88.9272 922.284 83.9619 927.281 Q78.9967 932.246 70.5303 932.246 Q61.7774 932.246 56.6531 927.535 Q51.4968 922.793 51.4968 914.772 Q51.4968 907.579 56.1438 903.409 Q60.7589 899.208 68.7161 899.208 M66.9973 905.064 Q62.1912 905.128 59.3266 907.77 Q56.4621 910.38 56.4621 914.708 Q56.4621 919.61 59.2312 922.57 Q62.0002 925.498 67.0292 925.944 L66.9973 905.064 Z" fill="#000000" fill-rule="evenodd" fill-opacity="1" /><path clip-path="url(#clip980)" d="M 0 0 M38.479 893.065 L38.479 887.208 L88.0042 887.208 L88.0042 893.065 L38.479 893.065 Z" fill="#000000" fill-rule="evenodd" fill-opacity="1" /><path clip-path="url(#clip980)" d="M 0 0 M56.4621 867.252 Q56.4621 871.963 60.1542 874.7 Q63.8145 877.437 70.212 877.437 Q76.6095 877.437 80.3017 874.732 Q83.9619 871.994 83.9619 867.252 Q83.9619 862.573 80.2698 859.836 Q76.5777 857.099 70.212 857.099 Q63.8781 857.099 60.186 859.836 Q56.4621 862.573 56.4621 867.252 M51.4968 867.252 Q51.4968 859.613 56.4621 855.253 Q61.4273 850.892 70.212 850.892 Q78.9649 850.892 83.9619 855.253 Q88.9272 859.613 88.9272 867.252 Q88.9272 874.923 83.9619 879.283 Q78.9649 883.612 70.212 883.612 Q61.4273 883.612 56.4621 879.283 Q51.4968 874.923 51.4968 867.252 Z" fill="#000000" fill-rule="evenodd" fill-opacity="1" /><path clip-path="url(#clip980)" d="M 0 0 M53.7248 819.095 L59.1993 819.095 Q57.8307 821.578 57.1623 824.092 Q56.4621 826.575 56.4621 829.121 Q56.4621 834.819 60.0905 837.97 Q63.6872 841.121 70.212 841.121 Q76.7369 841.121 80.3653 837.97 Q83.9619 834.819 83.9619 829.121 Q83.9619 826.575 83.2935 824.092 Q82.5933 821.578 81.2247 819.095 L86.6355 819.095 Q87.7814 821.546 88.3543 824.188 Q88.9272 826.798 88.9272 829.758 Q88.9272 837.811 83.8664 842.553 Q78.8057 847.295 70.212 847.295 Q61.491 847.295 56.4939 842.521 Q51.4968 837.715 51.4968 829.376 Q51.4968 826.671 52.0697 824.092 Q52.6108 821.514 53.7248 819.095 Z" fill="#000000" fill-rule="evenodd" fill-opacity="1" /><path clip-path="url(#clip980)" d="M 0 0 M52.3562 812.953 L52.3562 807.096 L88.0042 807.096 L88.0042 812.953 L52.3562 812.953 M38.479 812.953 L38.479 807.096 L45.895 807.096 L45.895 812.953 L38.479 812.953 Z" fill="#000000" fill-rule="evenodd" fill-opacity="1" /><path clip-path="url(#clip980)" d="M 0 0 M42.2347 795.16 L52.3562 795.16 L52.3562 783.097 L56.9077 783.097 L56.9077 795.16 L76.2594 795.16 Q80.6199 795.16 81.8613 793.983 Q83.1026 792.773 83.1026 789.113 L83.1026 783.097 L88.0042 783.097 L88.0042 789.113 Q88.0042 795.892 85.4897 798.471 Q82.9434 801.049 76.2594 801.049 L56.9077 801.049 L56.9077 805.345 L52.3562 805.345 L52.3562 801.049 L42.2347 801.049 L42.2347 795.16 Z" fill="#000000" fill-rule="evenodd" fill-opacity="1" /><path clip-path="url(#clip980)" d="M 0 0 M91.3143 762.122 Q97.68 764.605 99.6216 766.96 Q101.563 769.316 101.563 773.262 L101.563 777.941 L96.6615 777.941 L96.6615 774.504 Q96.6615 772.085 95.5157 770.748 Q94.3699 769.411 90.1048 767.788 L87.4312 766.737 L52.3562 781.156 L52.3562 774.949 L80.238 763.809 L52.3562 752.669 L52.3562 746.463 L91.3143 762.122 Z" fill="#000000" fill-rule="evenodd" fill-opacity="1" /><path clip-path="url(#clip980)" d="M 0 0 M38.479 720.141 L38.479 706.645 L43.0304 706.645 L43.0304 714.284 L92.0464 714.284 L92.0464 706.645 L96.5979 706.645 L96.5979 720.141 L38.479 720.141 Z" fill="#000000" fill-rule="evenodd" fill-opacity="1" /><path clip-path="url(#clip980)" d="M 0 0 M59.1993 672.748 Q55.2526 670.552 53.3747 667.496 Q51.4968 664.441 51.4968 660.303 Q51.4968 654.733 55.4117 651.709 Q59.2948 648.685 66.4881 648.685 L88.0042 648.685 L88.0042 654.574 L66.679 654.574 Q61.5546 654.574 59.072 656.388 Q56.5894 658.202 56.5894 661.926 Q56.5894 666.478 59.6131 669.119 Q62.6368 671.761 67.8567 671.761 L88.0042 671.761 L88.0042 677.649 L66.679 677.649 Q61.5228 677.649 59.072 679.464 Q56.5894 681.278 56.5894 685.065 Q56.5894 689.553 59.6449 692.195 Q62.6686 694.837 67.8567 694.837 L88.0042 694.837 L88.0042 700.725 L52.3562 700.725 L52.3562 694.837 L57.8944 694.837 Q54.616 692.832 53.0564 690.031 Q51.4968 687.23 51.4968 683.379 Q51.4968 679.495 53.4702 676.79 Q55.4436 674.053 59.1993 672.748 Z" fill="#000000" fill-rule="evenodd" fill-opacity="1" /><path clip-path="url(#clip980)" d="M 0 0 M40.4842 632.135 L40.4842 626.724 L94.0516 643.275 L94.0516 648.685 L40.4842 632.135 Z" fill="#000000" fill-rule="evenodd" fill-opacity="1" /><path clip-path="url(#clip980)" d="M 0 0 M53.4065 597.855 L58.9447 597.855 Q57.6716 600.338 57.035 603.012 Q56.3984 605.685 56.3984 608.55 Q56.3984 612.91 57.7352 615.106 Q59.072 617.271 61.7456 617.271 Q63.7826 617.271 64.9603 615.711 Q66.1061 614.151 67.1565 609.441 L67.6021 607.436 Q68.9389 601.197 71.3897 598.587 Q73.8086 595.946 78.1691 595.946 Q83.1344 595.946 86.0308 599.892 Q88.9272 603.807 88.9272 610.682 Q88.9272 613.547 88.3543 616.666 Q87.8132 619.753 86.6992 623.191 L80.6518 623.191 Q82.3387 619.944 83.198 616.793 Q84.0256 613.642 84.0256 610.555 Q84.0256 606.417 82.6251 604.189 Q81.1929 601.961 78.6147 601.961 Q76.2276 601.961 74.9545 603.584 Q73.6813 605.176 72.5037 610.619 L72.0262 612.656 Q70.8804 618.098 68.5251 620.517 Q66.138 622.936 62.0002 622.936 Q56.9713 622.936 54.2341 619.371 Q51.4968 615.807 51.4968 609.25 Q51.4968 606.003 51.9743 603.139 Q52.4517 600.274 53.4065 597.855 Z" fill="#000000" fill-rule="evenodd" fill-opacity="1" /><path clip-path="url(#clip980)" d="M 0 0 M38.479 576.116 L96.5979 576.116 L96.5979 589.612 L92.0464 589.612 L92.0464 582.005 L43.0304 582.005 L43.0304 589.612 L38.479 589.612 L38.479 576.116 Z" fill="#000000" fill-rule="evenodd" fill-opacity="1" /><polyline clip-path="url(#clip982)" style="stroke:#009af9; stroke-width:4; stroke-opacity:1; fill:none" points="
  237.067,1355.24 257.815,814.609 278.564,739.983 299.312,693.234 320.06,658.598 340.808,630.86 361.556,607.616 382.304,587.545 403.052,569.844 423.801,553.983 
  444.549,539.595 465.297,526.416 486.045,514.246 506.793,502.934 527.541,492.359 548.289,482.425 569.038,473.055 589.786,464.184 610.534,455.758 631.282,447.733 
  652.03,440.068 672.778,432.733 693.526,425.696 714.275,418.934 735.023,412.425 755.771,406.149 776.519,400.089 797.267,394.229 818.015,388.556 838.764,383.058 
  859.512,377.724 880.26,372.542 901.008,367.505 921.756,362.604 942.504,357.831 963.252,353.18 984.001,348.643 1004.75,344.215 1025.5,339.891 1046.24,335.665 
  1066.99,331.533 1087.74,327.491 1108.49,323.533 1129.24,319.658 1149.99,315.86 1170.73,312.137 1191.48,308.486 1212.23,304.904 1232.98,301.388 1253.73,297.935 
  1274.47,294.543 1295.22,291.211 1315.97,287.935 1336.72,284.713 1357.47,281.545 1378.22,278.427 1398.96,275.359 1419.71,272.338 1440.46,269.363 1461.21,266.433 
  1481.96,263.545 1502.7,260.7 1523.45,257.895 1544.2,255.13 1564.95,252.402 1585.7,249.712 1606.45,247.057 1627.19,244.438 1647.94,241.853 1668.69,239.3 
  1689.44,236.78 1710.19,234.291 1730.93,231.833 1751.68,229.404 1772.43,227.004 1793.18,224.633 1813.93,222.289 1834.67,219.971 1855.42,217.68 1876.17,215.415 
  1896.92,213.174 1917.67,210.958 1938.42,208.766 1959.16,206.597 1979.91,204.45 2000.66,202.326 2021.41,200.224 2042.16,198.143 2062.9,196.083 2083.65,194.043 
  2104.4,192.023 2125.15,190.022 2145.9,188.041 2166.65,186.079 2187.39,184.135 2208.14,182.209 2228.89,180.3 2249.64,178.409 2270.39,176.535 2291.13,174.678 
  
  "/>
<polyline clip-path="url(#clip982)" style="stroke:#e26f46; stroke-width:4; stroke-opacity:1; fill:none" points="
  237.067,1386.4 257.815,842.425 278.564,764.516 299.312,715.454 320.06,678.982 340.808,649.704 361.556,625.12 382.304,603.859 403.052,585.082 423.801,568.237 
  444.549,552.94 465.297,538.914 486.045,525.952 506.793,513.893 527.541,502.611 548.289,492.007 569.038,481.997 589.786,472.516 610.534,463.505 631.282,454.917 
  652.03,446.712 672.778,438.855 693.526,431.315 714.275,424.066 735.023,417.085 755.771,410.351 776.519,403.846 797.267,397.554 818.015,391.461 838.764,385.554 
  859.512,379.82 880.26,374.249 901.008,368.832 921.756,363.559 942.504,358.422 963.252,353.415 984.001,348.53 1004.75,343.762 1025.5,339.103 1046.24,334.549 
  1066.99,330.096 1087.74,325.737 1108.49,321.47 1129.24,317.29 1149.99,313.193 1170.73,309.175 1191.48,305.235 1212.23,301.367 1232.98,297.571 1253.73,293.842 
  1274.47,290.178 1295.22,286.578 1315.97,283.038 1336.72,279.556 1357.47,276.131 1378.22,272.76 1398.96,269.442 1419.71,266.174 1440.46,262.956 1461.21,259.786 
  1481.96,256.662 1502.7,253.582 1523.45,250.546 1544.2,247.552 1564.95,244.599 1585.7,241.686 1606.45,238.811 1627.19,235.973 1647.94,233.172 1668.69,230.406 
  1689.44,227.675 1710.19,224.977 1730.93,222.313 1751.68,219.679 1772.43,217.077 1793.18,214.505 1813.93,211.963 1834.67,209.45 1855.42,206.964 1876.17,204.506 
  1896.92,202.075 1917.67,199.67 1938.42,197.29 1959.16,194.936 1979.91,192.606 2000.66,190.299 2021.41,188.017 2042.16,185.757 2062.9,183.519 2083.65,181.303 
  2104.4,179.109 2125.15,176.936 2145.9,174.783 2166.65,172.65 2187.39,170.537 2208.14,168.444 2228.89,166.369 2249.64,164.314 2270.39,162.276 2291.13,160.256 
  
  "/>
<path clip-path="url(#clip980)" d="
M1712.89 388.432 L2280.76 388.432 L2280.76 206.992 L1712.89 206.992  Z
  " fill="#ffffff" fill-rule="evenodd" fill-opacity="1"/>
<polyline clip-path="url(#clip980)" style="stroke:#000000; stroke-width:4; stroke-opacity:1; fill:none" points="
  1712.89,388.432 2280.76,388.432 2280.76,206.992 1712.89,206.992 1712.89,388.432 
  "/>
<polyline clip-path="url(#clip980)" style="stroke:#009af9; stroke-width:4; stroke-opacity:1; fill:none" points="
  1736.89,267.472 1880.89,267.472 
  "/>
<path clip-path="url(#clip980)" d="M 0 0 M1932.76 252.854 L1932.76 257.785 Q1930.4 255.586 1927.71 254.498 Q1925.05 253.41 1922.04 253.41 Q1916.11 253.41 1912.97 257.044 Q1909.82 260.655 1909.82 267.507 Q1909.82 274.336 1912.97 277.97 Q1916.11 281.581 1922.04 281.581 Q1925.05 281.581 1927.71 280.493 Q1930.4 279.405 1932.76 277.206 L1932.76 282.09 Q1930.3 283.757 1927.55 284.59 Q1924.82 285.423 1921.76 285.423 Q1913.92 285.423 1909.4 280.632 Q1904.89 275.817 1904.89 267.507 Q1904.89 259.174 1909.4 254.382 Q1913.92 249.567 1921.76 249.567 Q1924.86 249.567 1927.6 250.4 Q1930.35 251.211 1932.76 252.854 Z" fill="#000000" fill-rule="evenodd" fill-opacity="1" /><path clip-path="url(#clip980)" d="M 0 0 M1937.23 248.734 L1941.48 248.734 L1941.48 284.752 L1937.23 284.752 L1937.23 248.734 Z" fill="#000000" fill-rule="evenodd" fill-opacity="1" /><path clip-path="url(#clip980)" d="M 0 0 M1945.95 258.826 L1950.21 258.826 L1950.21 284.752 L1945.95 284.752 L1945.95 258.826 M1945.95 248.734 L1950.21 248.734 L1950.21 254.127 L1945.95 254.127 L1945.95 248.734 Z" fill="#000000" fill-rule="evenodd" fill-opacity="1" /><path clip-path="url(#clip980)" d="M 0 0 M1974.86 263.803 Q1976.46 260.933 1978.68 259.567 Q1980.91 258.201 1983.91 258.201 Q1987.97 258.201 1990.16 261.049 Q1992.36 263.873 1992.36 269.104 L1992.36 284.752 L1988.08 284.752 L1988.08 269.243 Q1988.08 265.516 1986.76 263.711 Q1985.44 261.905 1982.73 261.905 Q1979.42 261.905 1977.5 264.104 Q1975.58 266.303 1975.58 270.099 L1975.58 284.752 L1971.3 284.752 L1971.3 269.243 Q1971.3 265.493 1969.98 263.711 Q1968.66 261.905 1965.91 261.905 Q1962.64 261.905 1960.72 264.127 Q1958.8 266.326 1958.8 270.099 L1958.8 284.752 L1954.52 284.752 L1954.52 258.826 L1958.8 258.826 L1958.8 262.854 Q1960.26 260.47 1962.29 259.336 Q1964.33 258.201 1967.13 258.201 Q1969.96 258.201 1971.92 259.637 Q1973.91 261.072 1974.86 263.803 Z" fill="#000000" fill-rule="evenodd" fill-opacity="1" /><path clip-path="url(#clip980)" d="M 0 0 M2008.61 271.72 Q2003.45 271.72 2001.46 272.9 Q1999.47 274.081 1999.47 276.928 Q1999.47 279.197 2000.95 280.539 Q2002.46 281.859 2005.03 281.859 Q2008.57 281.859 2010.7 279.359 Q2012.85 276.836 2012.85 272.669 L2012.85 271.72 L2008.61 271.72 M2017.11 269.961 L2017.11 284.752 L2012.85 284.752 L2012.85 280.817 Q2011.39 283.178 2009.22 284.312 Q2007.04 285.423 2003.89 285.423 Q1999.91 285.423 1997.55 283.201 Q1995.21 280.956 1995.21 277.206 Q1995.21 272.831 1998.13 270.609 Q2001.07 268.386 2006.88 268.386 L2012.85 268.386 L2012.85 267.97 Q2012.85 265.03 2010.91 263.433 Q2008.98 261.812 2005.49 261.812 Q2003.27 261.812 2001.16 262.345 Q1999.05 262.877 1997.11 263.942 L1997.11 260.007 Q1999.45 259.104 2001.65 258.664 Q2003.85 258.201 2005.93 258.201 Q2011.55 258.201 2014.33 261.118 Q2017.11 264.035 2017.11 269.961 Z" fill="#000000" fill-rule="evenodd" fill-opacity="1" /><path clip-path="url(#clip980)" d="M 0 0 M2025.79 251.465 L2025.79 258.826 L2034.56 258.826 L2034.56 262.137 L2025.79 262.137 L2025.79 276.211 Q2025.79 279.382 2026.65 280.285 Q2027.53 281.187 2030.19 281.187 L2034.56 281.187 L2034.56 284.752 L2030.19 284.752 Q2025.26 284.752 2023.38 282.923 Q2021.51 281.072 2021.51 276.211 L2021.51 262.137 L2018.38 262.137 L2018.38 258.826 L2021.51 258.826 L2021.51 251.465 L2025.79 251.465 Z" fill="#000000" fill-rule="evenodd" fill-opacity="1" /><path clip-path="url(#clip980)" d="M 0 0 M2061.21 270.724 L2061.21 272.808 L2041.62 272.808 Q2041.9 277.206 2044.26 279.521 Q2046.65 281.812 2050.88 281.812 Q2053.34 281.812 2055.63 281.21 Q2057.94 280.609 2060.21 279.405 L2060.21 283.433 Q2057.92 284.405 2055.51 284.914 Q2053.1 285.423 2050.63 285.423 Q2044.42 285.423 2040.79 281.812 Q2037.18 278.201 2037.18 272.044 Q2037.18 265.678 2040.6 261.951 Q2044.05 258.201 2049.89 258.201 Q2055.12 258.201 2058.15 261.581 Q2061.21 264.937 2061.21 270.724 M2056.95 269.474 Q2056.9 265.979 2054.98 263.896 Q2053.08 261.812 2049.93 261.812 Q2046.37 261.812 2044.22 263.826 Q2042.09 265.84 2041.76 269.498 L2056.95 269.474 Z" fill="#000000" fill-rule="evenodd" fill-opacity="1" /><path clip-path="url(#clip980)" d="M 0 0 M2065.86 250.192 L2072.83 250.192 L2081.65 273.711 L2090.51 250.192 L2097.48 250.192 L2097.48 284.752 L2092.92 284.752 L2092.92 254.405 L2084.01 278.109 L2079.31 278.109 L2070.4 254.405 L2070.4 284.752 L2065.86 284.752 L2065.86 250.192 Z" fill="#000000" fill-rule="evenodd" fill-opacity="1" /><path clip-path="url(#clip980)" d="M 0 0 M2113.73 271.72 Q2108.57 271.72 2106.58 272.9 Q2104.59 274.081 2104.59 276.928 Q2104.59 279.197 2106.07 280.539 Q2107.57 281.859 2110.14 281.859 Q2113.68 281.859 2115.81 279.359 Q2117.96 276.836 2117.96 272.669 L2117.96 271.72 L2113.73 271.72 M2122.22 269.961 L2122.22 284.752 L2117.96 284.752 L2117.96 280.817 Q2116.51 283.178 2114.33 284.312 Q2112.15 285.423 2109.01 285.423 Q2105.03 285.423 2102.66 283.201 Q2100.33 280.956 2100.33 277.206 Q2100.33 272.831 2103.24 270.609 Q2106.18 268.386 2111.99 268.386 L2117.96 268.386 L2117.96 267.97 Q2117.96 265.03 2116.02 263.433 Q2114.1 261.812 2110.6 261.812 Q2108.38 261.812 2106.28 262.345 Q2104.17 262.877 2102.22 263.942 L2102.22 260.007 Q2104.56 259.104 2106.76 258.664 Q2108.96 258.201 2111.04 258.201 Q2116.67 258.201 2119.45 261.118 Q2122.22 264.035 2122.22 269.961 Z" fill="#000000" fill-rule="evenodd" fill-opacity="1" /><path clip-path="url(#clip980)" d="M 0 0 M2145.35 259.822 L2145.35 263.803 Q2143.54 262.808 2141.71 262.322 Q2139.91 261.812 2138.06 261.812 Q2133.91 261.812 2131.62 264.451 Q2129.33 267.067 2129.33 271.812 Q2129.33 276.558 2131.62 279.197 Q2133.91 281.812 2138.06 281.812 Q2139.91 281.812 2141.71 281.326 Q2143.54 280.817 2145.35 279.822 L2145.35 283.757 Q2143.57 284.59 2141.65 285.007 Q2139.75 285.423 2137.59 285.423 Q2131.74 285.423 2128.29 281.743 Q2124.84 278.062 2124.84 271.812 Q2124.84 265.47 2128.31 261.836 Q2131.81 258.201 2137.87 258.201 Q2139.84 258.201 2141.71 258.618 Q2143.59 259.012 2145.35 259.822 Z" fill="#000000" fill-rule="evenodd" fill-opacity="1" /><path clip-path="url(#clip980)" d="M 0 0 M2171.37 269.104 L2171.37 284.752 L2167.11 284.752 L2167.11 269.243 Q2167.11 265.562 2165.67 263.734 Q2164.24 261.905 2161.37 261.905 Q2157.92 261.905 2155.93 264.104 Q2153.94 266.303 2153.94 270.099 L2153.94 284.752 L2149.65 284.752 L2149.65 248.734 L2153.94 248.734 L2153.94 262.854 Q2155.46 260.516 2157.52 259.359 Q2159.61 258.201 2162.32 258.201 Q2166.78 258.201 2169.08 260.979 Q2171.37 263.734 2171.37 269.104 Z" fill="#000000" fill-rule="evenodd" fill-opacity="1" /><path clip-path="url(#clip980)" d="M 0 0 M2175.83 258.826 L2180.09 258.826 L2180.09 284.752 L2175.83 284.752 L2175.83 258.826 M2175.83 248.734 L2180.09 248.734 L2180.09 254.127 L2175.83 254.127 L2175.83 248.734 Z" fill="#000000" fill-rule="evenodd" fill-opacity="1" /><path clip-path="url(#clip980)" d="M 0 0 M2206.11 269.104 L2206.11 284.752 L2201.85 284.752 L2201.85 269.243 Q2201.85 265.562 2200.42 263.734 Q2198.98 261.905 2196.11 261.905 Q2192.66 261.905 2190.67 264.104 Q2188.68 266.303 2188.68 270.099 L2188.68 284.752 L2184.4 284.752 L2184.4 258.826 L2188.68 258.826 L2188.68 262.854 Q2190.21 260.516 2192.27 259.359 Q2194.35 258.201 2197.06 258.201 Q2201.53 258.201 2203.82 260.979 Q2206.11 263.734 2206.11 269.104 Z" fill="#000000" fill-rule="evenodd" fill-opacity="1" /><path clip-path="url(#clip980)" d="M 0 0 M2232.76 270.724 L2232.76 272.808 L2213.17 272.808 Q2213.45 277.206 2215.81 279.521 Q2218.2 281.812 2222.43 281.812 Q2224.89 281.812 2227.18 281.21 Q2229.49 280.609 2231.76 279.405 L2231.76 283.433 Q2229.47 284.405 2227.06 284.914 Q2224.65 285.423 2222.18 285.423 Q2215.97 285.423 2212.34 281.812 Q2208.73 278.201 2208.73 272.044 Q2208.73 265.678 2212.15 261.951 Q2215.6 258.201 2221.44 258.201 Q2226.67 258.201 2229.7 261.581 Q2232.76 264.937 2232.76 270.724 M2228.5 269.474 Q2228.45 265.979 2226.53 263.896 Q2224.63 261.812 2221.48 261.812 Q2217.92 261.812 2215.77 263.826 Q2213.64 265.84 2213.31 269.498 L2228.5 269.474 Z" fill="#000000" fill-rule="evenodd" fill-opacity="1" /><polyline clip-path="url(#clip980)" style="stroke:#e26f46; stroke-width:4; stroke-opacity:1; fill:none" points="
  1736.89,327.952 1880.89,327.952 
  "/>
<path clip-path="url(#clip980)" d="M 0 0 M1904.89 310.672 L1926.74 310.672 L1926.74 314.607 L1909.56 314.607 L1909.56 324.839 L1926.02 324.839 L1926.02 328.774 L1909.56 328.774 L1909.56 341.297 L1927.16 341.297 L1927.16 345.232 L1904.89 345.232 L1904.89 310.672 Z" fill="#000000" fill-rule="evenodd" fill-opacity="1" /><path clip-path="url(#clip980)" d="M 0 0 M1951.81 324.283 Q1953.41 321.413 1955.63 320.047 Q1957.85 318.681 1960.86 318.681 Q1964.91 318.681 1967.11 321.529 Q1969.31 324.353 1969.31 329.584 L1969.31 345.232 L1965.03 345.232 L1965.03 329.723 Q1965.03 325.996 1963.71 324.191 Q1962.39 322.385 1959.68 322.385 Q1956.37 322.385 1954.45 324.584 Q1952.53 326.783 1952.53 330.579 L1952.53 345.232 L1948.24 345.232 L1948.24 329.723 Q1948.24 325.973 1946.92 324.191 Q1945.6 322.385 1942.85 322.385 Q1939.59 322.385 1937.66 324.607 Q1935.74 326.806 1935.74 330.579 L1935.74 345.232 L1931.46 345.232 L1931.46 319.306 L1935.74 319.306 L1935.74 323.334 Q1937.2 320.95 1939.24 319.816 Q1941.28 318.681 1944.08 318.681 Q1946.9 318.681 1948.87 320.117 Q1950.86 321.552 1951.81 324.283 Z" fill="#000000" fill-rule="evenodd" fill-opacity="1" /><path clip-path="url(#clip980)" d="M 0 0 M1977.9 341.343 L1977.9 355.093 L1973.61 355.093 L1973.61 319.306 L1977.9 319.306 L1977.9 323.242 Q1979.24 320.927 1981.28 319.816 Q1983.34 318.681 1986.18 318.681 Q1990.91 318.681 1993.85 322.431 Q1996.81 326.181 1996.81 332.292 Q1996.81 338.403 1993.85 342.153 Q1990.91 345.903 1986.18 345.903 Q1983.34 345.903 1981.28 344.792 Q1979.24 343.658 1977.9 341.343 M1992.39 332.292 Q1992.39 327.593 1990.44 324.931 Q1988.52 322.246 1985.14 322.246 Q1981.76 322.246 1979.82 324.931 Q1977.9 327.593 1977.9 332.292 Q1977.9 336.991 1979.82 339.677 Q1981.76 342.339 1985.14 342.339 Q1988.52 342.339 1990.44 339.677 Q1992.39 336.991 1992.39 332.292 Z" fill="#000000" fill-rule="evenodd" fill-opacity="1" /><path clip-path="url(#clip980)" d="M 0 0 M2001.28 319.306 L2005.53 319.306 L2005.53 345.232 L2001.28 345.232 L2001.28 319.306 M2001.28 309.214 L2005.53 309.214 L2005.53 314.607 L2001.28 314.607 L2001.28 309.214 Z" fill="#000000" fill-rule="evenodd" fill-opacity="1" /><path clip-path="url(#clip980)" d="M 0 0 M2025.03 323.288 Q2024.31 322.871 2023.45 322.686 Q2022.62 322.478 2021.6 322.478 Q2017.99 322.478 2016.04 324.839 Q2014.12 327.177 2014.12 331.575 L2014.12 345.232 L2009.84 345.232 L2009.84 319.306 L2014.12 319.306 L2014.12 323.334 Q2015.47 320.973 2017.62 319.839 Q2019.77 318.681 2022.85 318.681 Q2023.29 318.681 2023.82 318.751 Q2024.35 318.797 2025 318.913 L2025.03 323.288 Z" fill="#000000" fill-rule="evenodd" fill-opacity="1" /><path clip-path="url(#clip980)" d="M 0 0 M2029.49 319.306 L2033.75 319.306 L2033.75 345.232 L2029.49 345.232 L2029.49 319.306 M2029.49 309.214 L2033.75 309.214 L2033.75 314.607 L2029.49 314.607 L2029.49 309.214 Z" fill="#000000" fill-rule="evenodd" fill-opacity="1" /><path clip-path="url(#clip980)" d="M 0 0 M2056.88 320.302 L2056.88 324.283 Q2055.07 323.288 2053.24 322.802 Q2051.44 322.292 2049.59 322.292 Q2045.44 322.292 2043.15 324.931 Q2040.86 327.547 2040.86 332.292 Q2040.86 337.038 2043.15 339.677 Q2045.44 342.292 2049.59 342.292 Q2051.44 342.292 2053.24 341.806 Q2055.07 341.297 2056.88 340.302 L2056.88 344.237 Q2055.09 345.07 2053.17 345.487 Q2051.28 345.903 2049.12 345.903 Q2043.27 345.903 2039.82 342.223 Q2036.37 338.542 2036.37 332.292 Q2036.37 325.95 2039.84 322.316 Q2043.34 318.681 2049.4 318.681 Q2051.37 318.681 2053.24 319.098 Q2055.12 319.492 2056.88 320.302 Z" fill="#000000" fill-rule="evenodd" fill-opacity="1" /><path clip-path="url(#clip980)" d="M 0 0 M2073.13 332.2 Q2067.97 332.2 2065.97 333.38 Q2063.98 334.561 2063.98 337.408 Q2063.98 339.677 2065.47 341.019 Q2066.97 342.339 2069.54 342.339 Q2073.08 342.339 2075.21 339.839 Q2077.36 337.316 2077.36 333.149 L2077.36 332.2 L2073.13 332.2 M2081.62 330.441 L2081.62 345.232 L2077.36 345.232 L2077.36 341.297 Q2075.9 343.658 2073.73 344.792 Q2071.55 345.903 2068.4 345.903 Q2064.42 345.903 2062.06 343.681 Q2059.72 341.436 2059.72 337.686 Q2059.72 333.311 2062.64 331.089 Q2065.58 328.866 2071.39 328.866 L2077.36 328.866 L2077.36 328.45 Q2077.36 325.51 2075.42 323.913 Q2073.5 322.292 2070 322.292 Q2067.78 322.292 2065.67 322.825 Q2063.57 323.357 2061.62 324.422 L2061.62 320.487 Q2063.96 319.584 2066.16 319.144 Q2068.36 318.681 2070.44 318.681 Q2076.07 318.681 2078.84 321.598 Q2081.62 324.515 2081.62 330.441 Z" fill="#000000" fill-rule="evenodd" fill-opacity="1" /><path clip-path="url(#clip980)" d="M 0 0 M2086.09 309.214 L2090.35 309.214 L2090.35 345.232 L2086.09 345.232 L2086.09 309.214 Z" fill="#000000" fill-rule="evenodd" fill-opacity="1" /></svg>
