<?xml version="1.0" encoding="utf-8"?>
<svg xmlns="http://www.w3.org/2000/svg" xmlns:xlink="http://www.w3.org/1999/xlink" width="600" height="400" viewBox="0 0 2400 1600">
<defs>
  <clipPath id="clip040">
    <rect x="0" y="0" width="2400" height="1600"/>
  </clipPath>
</defs>
<path clip-path="url(#clip040)" d="
M0 1600 L2400 1600 L2400 0 L0 0  Z
  " fill="#ffffff" fill-rule="evenodd" fill-opacity="1"/>
<defs>
  <clipPath id="clip041">
    <rect x="480" y="0" width="1681" height="1600"/>
  </clipPath>
</defs>
<path clip-path="url(#clip040)" d="
M351.092 1423.18 L2352.76 1423.18 L2352.76 123.472 L351.092 123.472  Z
  " fill="#ffffff" fill-rule="evenodd" fill-opacity="1"/>
<defs>
  <clipPath id="clip042">
    <rect x="351" y="123" width="2003" height="1301"/>
  </clipPath>
</defs>
<polyline clip-path="url(#clip042)" style="stroke:#000000; stroke-width:2; stroke-opacity:0.1; fill:none" points="
  407.739,1423.18 407.739,123.472 
  "/>
<polyline clip-path="url(#clip042)" style="stroke:#000000; stroke-width:2; stroke-opacity:0.1; fill:none" points="
  785.413,1423.18 785.413,123.472 
  "/>
<polyline clip-path="url(#clip042)" style="stroke:#000000; stroke-width:2; stroke-opacity:0.1; fill:none" points="
  1163.09,1423.18 1163.09,123.472 
  "/>
<polyline clip-path="url(#clip042)" style="stroke:#000000; stroke-width:2; stroke-opacity:0.1; fill:none" points="
  1540.76,1423.18 1540.76,123.472 
  "/>
<polyline clip-path="url(#clip042)" style="stroke:#000000; stroke-width:2; stroke-opacity:0.1; fill:none" points="
  1918.43,1423.18 1918.43,123.472 
  "/>
<polyline clip-path="url(#clip042)" style="stroke:#000000; stroke-width:2; stroke-opacity:0.1; fill:none" points="
  2296.11,1423.18 2296.11,123.472 
  "/>
<polyline clip-path="url(#clip042)" style="stroke:#000000; stroke-width:2; stroke-opacity:0.1; fill:none" points="
  351.092,1317.06 2352.76,1317.06 
  "/>
<polyline clip-path="url(#clip042)" style="stroke:#000000; stroke-width:2; stroke-opacity:0.1; fill:none" points="
  351.092,1027.8 2352.76,1027.8 
  "/>
<polyline clip-path="url(#clip042)" style="stroke:#000000; stroke-width:2; stroke-opacity:0.1; fill:none" points="
  351.092,738.536 2352.76,738.536 
  "/>
<polyline clip-path="url(#clip042)" style="stroke:#000000; stroke-width:2; stroke-opacity:0.1; fill:none" points="
  351.092,449.277 2352.76,449.277 
  "/>
<polyline clip-path="url(#clip042)" style="stroke:#000000; stroke-width:2; stroke-opacity:0.1; fill:none" points="
  351.092,160.017 2352.76,160.017 
  "/>
<polyline clip-path="url(#clip040)" style="stroke:#000000; stroke-width:4; stroke-opacity:1; fill:none" points="
  351.092,1423.18 2352.76,1423.18 
  "/>
<polyline clip-path="url(#clip040)" style="stroke:#000000; stroke-width:4; stroke-opacity:1; fill:none" points="
  351.092,1423.18 351.092,123.472 
  "/>
<polyline clip-path="url(#clip040)" style="stroke:#000000; stroke-width:4; stroke-opacity:1; fill:none" points="
  407.739,1423.18 407.739,1407.58 
  "/>
<polyline clip-path="url(#clip040)" style="stroke:#000000; stroke-width:4; stroke-opacity:1; fill:none" points="
  785.413,1423.18 785.413,1407.58 
  "/>
<polyline clip-path="url(#clip040)" style="stroke:#000000; stroke-width:4; stroke-opacity:1; fill:none" points="
  1163.09,1423.18 1163.09,1407.58 
  "/>
<polyline clip-path="url(#clip040)" style="stroke:#000000; stroke-width:4; stroke-opacity:1; fill:none" points="
  1540.76,1423.18 1540.76,1407.58 
  "/>
<polyline clip-path="url(#clip040)" style="stroke:#000000; stroke-width:4; stroke-opacity:1; fill:none" points="
  1918.43,1423.18 1918.43,1407.58 
  "/>
<polyline clip-path="url(#clip040)" style="stroke:#000000; stroke-width:4; stroke-opacity:1; fill:none" points="
  2296.11,1423.18 2296.11,1407.58 
  "/>
<polyline clip-path="url(#clip040)" style="stroke:#000000; stroke-width:4; stroke-opacity:1; fill:none" points="
  351.092,1317.06 375.112,1317.06 
  "/>
<polyline clip-path="url(#clip040)" style="stroke:#000000; stroke-width:4; stroke-opacity:1; fill:none" points="
  351.092,1027.8 375.112,1027.8 
  "/>
<polyline clip-path="url(#clip040)" style="stroke:#000000; stroke-width:4; stroke-opacity:1; fill:none" points="
  351.092,738.536 375.112,738.536 
  "/>
<polyline clip-path="url(#clip040)" style="stroke:#000000; stroke-width:4; stroke-opacity:1; fill:none" points="
  351.092,449.277 375.112,449.277 
  "/>
<polyline clip-path="url(#clip040)" style="stroke:#000000; stroke-width:4; stroke-opacity:1; fill:none" points="
  351.092,160.017 375.112,160.017 
  "/>
<path clip-path="url(#clip040)" d="M 0 0 M407.739 1445.17 Q404.128 1445.17 402.3 1448.74 Q400.494 1452.28 400.494 1459.41 Q400.494 1466.51 402.3 1470.08 Q404.128 1473.62 407.739 1473.62 Q411.374 1473.62 413.179 1470.08 Q415.008 1466.51 415.008 1459.41 Q415.008 1452.28 413.179 1448.74 Q411.374 1445.17 407.739 1445.17 M407.739 1441.47 Q413.55 1441.47 416.605 1446.07 Q419.684 1450.66 419.684 1459.41 Q419.684 1468.13 416.605 1472.74 Q413.55 1477.32 407.739 1477.32 Q401.929 1477.32 398.851 1472.74 Q395.795 1468.13 395.795 1459.41 Q395.795 1450.66 398.851 1446.07 Q401.929 1441.47 407.739 1441.47 Z" fill="#000000" fill-rule="evenodd" fill-opacity="1" /><path clip-path="url(#clip040)" d="M 0 0 M775.795 1472.72 L783.433 1472.72 L783.433 1446.35 L775.123 1448.02 L775.123 1443.76 L783.387 1442.09 L788.063 1442.09 L788.063 1472.72 L795.702 1472.72 L795.702 1476.65 L775.795 1476.65 L775.795 1472.72 Z" fill="#000000" fill-rule="evenodd" fill-opacity="1" /><path clip-path="url(#clip040)" d="M 0 0 M1157.74 1472.72 L1174.06 1472.72 L1174.06 1476.65 L1152.11 1476.65 L1152.11 1472.72 Q1154.78 1469.96 1159.36 1465.33 Q1163.97 1460.68 1165.15 1459.34 Q1167.39 1456.81 1168.27 1455.08 Q1169.17 1453.32 1169.17 1451.63 Q1169.17 1448.87 1167.23 1447.14 Q1165.31 1445.4 1162.21 1445.4 Q1160.01 1445.4 1157.55 1446.17 Q1155.12 1446.93 1152.35 1448.48 L1152.35 1443.76 Q1155.17 1442.62 1157.62 1442.05 Q1160.08 1441.47 1162.11 1441.47 Q1167.48 1441.47 1170.68 1444.15 Q1173.87 1446.84 1173.87 1451.33 Q1173.87 1453.46 1173.06 1455.38 Q1172.28 1457.28 1170.17 1459.87 Q1169.59 1460.54 1166.49 1463.76 Q1163.39 1466.95 1157.74 1472.72 Z" fill="#000000" fill-rule="evenodd" fill-opacity="1" /><path clip-path="url(#clip040)" d="M 0 0 M1545.01 1458.02 Q1548.36 1458.74 1550.24 1461 Q1552.14 1463.27 1552.14 1466.61 Q1552.14 1471.72 1548.62 1474.52 Q1545.1 1477.32 1538.62 1477.32 Q1536.44 1477.32 1534.13 1476.88 Q1531.84 1476.47 1529.38 1475.61 L1529.38 1471.1 Q1531.33 1472.23 1533.64 1472.81 Q1535.96 1473.39 1538.48 1473.39 Q1542.88 1473.39 1545.17 1471.65 Q1547.48 1469.92 1547.48 1466.61 Q1547.48 1463.55 1545.33 1461.84 Q1543.2 1460.1 1539.38 1460.1 L1535.35 1460.1 L1535.35 1456.26 L1539.57 1456.26 Q1543.02 1456.26 1544.84 1454.89 Q1546.67 1453.5 1546.67 1450.91 Q1546.67 1448.25 1544.78 1446.84 Q1542.9 1445.4 1539.38 1445.4 Q1537.46 1445.4 1535.26 1445.82 Q1533.06 1446.24 1530.42 1447.11 L1530.42 1442.95 Q1533.09 1442.21 1535.4 1441.84 Q1537.74 1441.47 1539.8 1441.47 Q1545.12 1441.47 1548.22 1443.9 Q1551.33 1446.3 1551.33 1450.43 Q1551.33 1453.3 1549.68 1455.29 Q1548.04 1457.25 1545.01 1458.02 Z" fill="#000000" fill-rule="evenodd" fill-opacity="1" /><path clip-path="url(#clip040)" d="M 0 0 M1921.44 1446.17 L1909.64 1464.61 L1921.44 1464.61 L1921.44 1446.17 M1920.21 1442.09 L1926.09 1442.09 L1926.09 1464.61 L1931.02 1464.61 L1931.02 1468.5 L1926.09 1468.5 L1926.09 1476.65 L1921.44 1476.65 L1921.44 1468.5 L1905.84 1468.5 L1905.84 1463.99 L1920.21 1442.09 Z" fill="#000000" fill-rule="evenodd" fill-opacity="1" /><path clip-path="url(#clip040)" d="M 0 0 M2286.38 1442.09 L2304.74 1442.09 L2304.74 1446.03 L2290.67 1446.03 L2290.67 1454.5 Q2291.68 1454.15 2292.7 1453.99 Q2293.72 1453.8 2294.74 1453.8 Q2300.53 1453.8 2303.91 1456.98 Q2307.29 1460.15 2307.29 1465.56 Q2307.29 1471.14 2303.81 1474.24 Q2300.34 1477.32 2294.02 1477.32 Q2291.85 1477.32 2289.58 1476.95 Q2287.33 1476.58 2284.92 1475.84 L2284.92 1471.14 Q2287.01 1472.28 2289.23 1472.83 Q2291.45 1473.39 2293.93 1473.39 Q2297.93 1473.39 2300.27 1471.28 Q2302.61 1469.18 2302.61 1465.56 Q2302.61 1461.95 2300.27 1459.85 Q2297.93 1457.74 2293.93 1457.74 Q2292.05 1457.74 2290.18 1458.16 Q2288.33 1458.57 2286.38 1459.45 L2286.38 1442.09 Z" fill="#000000" fill-rule="evenodd" fill-opacity="1" /><path clip-path="url(#clip040)" d="M 0 0 M110.184 1325.9 L122.661 1325.9 L122.661 1329.69 L110.184 1329.69 L110.184 1325.9 Z" fill="#000000" fill-rule="evenodd" fill-opacity="1" /><path clip-path="url(#clip040)" d="M 0 0 M145.485 1336.85 L161.804 1336.85 L161.804 1340.78 L139.86 1340.78 L139.86 1336.85 Q142.522 1334.09 147.105 1329.46 Q151.711 1324.81 152.892 1323.47 Q155.137 1320.95 156.017 1319.21 Q156.92 1317.45 156.92 1315.76 Q156.92 1313.01 154.975 1311.27 Q153.054 1309.53 149.952 1309.53 Q147.753 1309.53 145.299 1310.3 Q142.869 1311.06 140.091 1312.61 L140.091 1307.89 Q142.915 1306.76 145.369 1306.18 Q147.823 1305.6 149.86 1305.6 Q155.23 1305.6 158.424 1308.28 Q161.619 1310.97 161.619 1315.46 Q161.619 1317.59 160.809 1319.51 Q160.022 1321.41 157.915 1324 Q157.336 1324.67 154.235 1327.89 Q151.133 1331.08 145.485 1336.85 Z" fill="#000000" fill-rule="evenodd" fill-opacity="1" /><path clip-path="url(#clip040)" d="M 0 0 M166.873 1334.9 L171.758 1334.9 L171.758 1340.78 L166.873 1340.78 L166.873 1334.9 Z" fill="#000000" fill-rule="evenodd" fill-opacity="1" /><path clip-path="url(#clip040)" d="M 0 0 M186.827 1309.3 Q183.216 1309.3 181.387 1312.87 Q179.582 1316.41 179.582 1323.54 Q179.582 1330.64 181.387 1334.21 Q183.216 1337.75 186.827 1337.75 Q190.461 1337.75 192.267 1334.21 Q194.095 1330.64 194.095 1323.54 Q194.095 1316.41 192.267 1312.87 Q190.461 1309.3 186.827 1309.3 M186.827 1305.6 Q192.637 1305.6 195.693 1310.2 Q198.771 1314.79 198.771 1323.54 Q198.771 1332.26 195.693 1336.87 Q192.637 1341.45 186.827 1341.45 Q181.017 1341.45 177.938 1336.87 Q174.883 1332.26 174.883 1323.54 Q174.883 1314.79 177.938 1310.2 Q181.017 1305.6 186.827 1305.6 Z" fill="#000000" fill-rule="evenodd" fill-opacity="1" /><path clip-path="url(#clip040)" d="M 0 0 M232.012 1315.32 L221.433 1325.94 L232.012 1336.52 L229.257 1339.32 L218.632 1328.7 L208.007 1339.32 L205.276 1336.52 L215.831 1325.94 L205.276 1315.32 L208.007 1312.52 L218.632 1323.14 L229.257 1312.52 L232.012 1315.32 Z" fill="#000000" fill-rule="evenodd" fill-opacity="1" /><path clip-path="url(#clip040)" d="M 0 0 M237.892 1336.85 L245.53 1336.85 L245.53 1310.48 L237.22 1312.15 L237.22 1307.89 L245.484 1306.22 L250.16 1306.22 L250.16 1336.85 L257.799 1336.85 L257.799 1340.78 L237.892 1340.78 L237.892 1336.85 Z" fill="#000000" fill-rule="evenodd" fill-opacity="1" /><path clip-path="url(#clip040)" d="M 0 0 M272.868 1309.3 Q269.257 1309.3 267.428 1312.87 Q265.623 1316.41 265.623 1323.54 Q265.623 1330.64 267.428 1334.21 Q269.257 1337.75 272.868 1337.75 Q276.502 1337.75 278.308 1334.21 Q280.137 1330.64 280.137 1323.54 Q280.137 1316.41 278.308 1312.87 Q276.502 1309.3 272.868 1309.3 M272.868 1305.6 Q278.678 1305.6 281.734 1310.2 Q284.813 1314.79 284.813 1323.54 Q284.813 1332.26 281.734 1336.87 Q278.678 1341.45 272.868 1341.45 Q267.058 1341.45 263.979 1336.87 Q260.924 1332.26 260.924 1323.54 Q260.924 1314.79 263.979 1310.2 Q267.058 1305.6 272.868 1305.6 Z" fill="#000000" fill-rule="evenodd" fill-opacity="1" /><path clip-path="url(#clip040)" d="M 0 0 M284.813 1301.28 L294.95 1301.28 L294.95 1304.36 L284.813 1304.36 L284.813 1301.28 Z" fill="#000000" fill-rule="evenodd" fill-opacity="1" /><path clip-path="url(#clip040)" d="M 0 0 M310.109 1285.29 L325.024 1285.29 L325.024 1288.49 L313.588 1288.49 L313.588 1295.37 Q314.416 1295.09 315.244 1294.96 Q316.071 1294.81 316.899 1294.81 Q321.601 1294.81 324.346 1297.39 Q327.092 1299.96 327.092 1304.36 Q327.092 1308.9 324.271 1311.42 Q321.45 1313.92 316.316 1313.92 Q314.548 1313.92 312.704 1313.62 Q310.88 1313.32 308.924 1312.71 L308.924 1308.9 Q310.617 1309.82 312.422 1310.27 Q314.228 1310.72 316.24 1310.72 Q319.494 1310.72 321.394 1309.01 Q323.293 1307.3 323.293 1304.36 Q323.293 1301.43 321.394 1299.72 Q319.494 1298.01 316.24 1298.01 Q314.717 1298.01 313.193 1298.35 Q311.689 1298.68 310.109 1299.4 L310.109 1285.29 Z" fill="#000000" fill-rule="evenodd" fill-opacity="1" /><path clip-path="url(#clip040)" d="M 0 0 M112.545 1036.64 L125.022 1036.64 L125.022 1040.44 L112.545 1040.44 L112.545 1036.64 Z" fill="#000000" fill-rule="evenodd" fill-opacity="1" /><path clip-path="url(#clip040)" d="M 0 0 M142.892 1047.59 L150.531 1047.59 L150.531 1021.22 L142.221 1022.89 L142.221 1018.63 L150.485 1016.96 L155.16 1016.96 L155.16 1047.59 L162.799 1047.59 L162.799 1051.52 L142.892 1051.52 L142.892 1047.59 Z" fill="#000000" fill-rule="evenodd" fill-opacity="1" /><path clip-path="url(#clip040)" d="M 0 0 M167.869 1045.64 L172.753 1045.64 L172.753 1051.52 L167.869 1051.52 L167.869 1045.64 Z" fill="#000000" fill-rule="evenodd" fill-opacity="1" /><path clip-path="url(#clip040)" d="M 0 0 M177.869 1016.96 L196.225 1016.96 L196.225 1020.9 L182.151 1020.9 L182.151 1029.37 Q183.17 1029.02 184.188 1028.86 Q185.207 1028.68 186.225 1028.68 Q192.012 1028.68 195.392 1031.85 Q198.771 1035.02 198.771 1040.44 Q198.771 1046.01 195.299 1049.12 Q191.827 1052.19 185.508 1052.19 Q183.332 1052.19 181.063 1051.82 Q178.818 1051.45 176.41 1050.71 L176.41 1046.01 Q178.494 1047.15 180.716 1047.7 Q182.938 1048.26 185.415 1048.26 Q189.42 1048.26 191.757 1046.15 Q194.095 1044.05 194.095 1040.44 Q194.095 1036.82 191.757 1034.72 Q189.42 1032.61 185.415 1032.61 Q183.54 1032.61 181.665 1033.03 Q179.813 1033.44 177.869 1034.32 L177.869 1016.96 Z" fill="#000000" fill-rule="evenodd" fill-opacity="1" /><path clip-path="url(#clip040)" d="M 0 0 M232.012 1026.06 L221.433 1036.69 L232.012 1047.26 L229.257 1050.07 L218.632 1039.44 L208.007 1050.07 L205.276 1047.26 L215.831 1036.69 L205.276 1026.06 L208.007 1023.26 L218.632 1033.88 L229.257 1023.26 L232.012 1026.06 Z" fill="#000000" fill-rule="evenodd" fill-opacity="1" /><path clip-path="url(#clip040)" d="M 0 0 M237.892 1047.59 L245.53 1047.59 L245.53 1021.22 L237.22 1022.89 L237.22 1018.63 L245.484 1016.96 L250.16 1016.96 L250.16 1047.59 L257.799 1047.59 L257.799 1051.52 L237.892 1051.52 L237.892 1047.59 Z" fill="#000000" fill-rule="evenodd" fill-opacity="1" /><path clip-path="url(#clip040)" d="M 0 0 M272.868 1020.04 Q269.257 1020.04 267.428 1023.61 Q265.623 1027.15 265.623 1034.28 Q265.623 1041.38 267.428 1044.95 Q269.257 1048.49 272.868 1048.49 Q276.502 1048.49 278.308 1044.95 Q280.137 1041.38 280.137 1034.28 Q280.137 1027.15 278.308 1023.61 Q276.502 1020.04 272.868 1020.04 M272.868 1016.34 Q278.678 1016.34 281.734 1020.94 Q284.813 1025.53 284.813 1034.28 Q284.813 1043 281.734 1047.61 Q278.678 1052.19 272.868 1052.19 Q267.058 1052.19 263.979 1047.61 Q260.924 1043 260.924 1034.28 Q260.924 1025.53 263.979 1020.94 Q267.058 1016.34 272.868 1016.34 Z" fill="#000000" fill-rule="evenodd" fill-opacity="1" /><path clip-path="url(#clip040)" d="M 0 0 M284.813 1012.02 L294.95 1012.02 L294.95 1015.1 L284.813 1015.1 L284.813 1012.02 Z" fill="#000000" fill-rule="evenodd" fill-opacity="1" /><path clip-path="url(#clip040)" d="M 0 0 M310.109 996.033 L325.024 996.033 L325.024 999.23 L313.588 999.23 L313.588 1006.11 Q314.416 1005.83 315.244 1005.7 Q316.071 1005.55 316.899 1005.55 Q321.601 1005.55 324.346 1008.13 Q327.092 1010.7 327.092 1015.1 Q327.092 1019.64 324.271 1022.16 Q321.45 1024.66 316.316 1024.66 Q314.548 1024.66 312.704 1024.36 Q310.88 1024.06 308.924 1023.45 L308.924 1019.64 Q310.617 1020.56 312.422 1021.01 Q314.228 1021.46 316.24 1021.46 Q319.494 1021.46 321.394 1019.75 Q323.293 1018.04 323.293 1015.1 Q323.293 1012.17 321.394 1010.46 Q319.494 1008.75 316.24 1008.75 Q314.717 1008.75 313.193 1009.09 Q311.689 1009.42 310.109 1010.14 L310.109 996.033 Z" fill="#000000" fill-rule="evenodd" fill-opacity="1" /><path clip-path="url(#clip040)" d="M 0 0 M111.55 747.38 L124.026 747.38 L124.026 751.176 L111.55 751.176 L111.55 747.38 Z" fill="#000000" fill-rule="evenodd" fill-opacity="1" /><path clip-path="url(#clip040)" d="M 0 0 M141.897 758.329 L149.535 758.329 L149.535 731.963 L141.225 733.63 L141.225 729.371 L149.489 727.704 L154.165 727.704 L154.165 758.329 L161.804 758.329 L161.804 762.264 L141.897 762.264 L141.897 758.329 Z" fill="#000000" fill-rule="evenodd" fill-opacity="1" /><path clip-path="url(#clip040)" d="M 0 0 M166.873 756.384 L171.758 756.384 L171.758 762.264 L166.873 762.264 L166.873 756.384 Z" fill="#000000" fill-rule="evenodd" fill-opacity="1" /><path clip-path="url(#clip040)" d="M 0 0 M186.827 730.783 Q183.216 730.783 181.387 734.347 Q179.582 737.889 179.582 745.019 Q179.582 752.125 181.387 755.69 Q183.216 759.232 186.827 759.232 Q190.461 759.232 192.267 755.69 Q194.095 752.125 194.095 745.019 Q194.095 737.889 192.267 734.347 Q190.461 730.783 186.827 730.783 M186.827 727.079 Q192.637 727.079 195.693 731.685 Q198.771 736.269 198.771 745.019 Q198.771 753.745 195.693 758.352 Q192.637 762.935 186.827 762.935 Q181.017 762.935 177.938 758.352 Q174.883 753.745 174.883 745.019 Q174.883 736.269 177.938 731.685 Q181.017 727.079 186.827 727.079 Z" fill="#000000" fill-rule="evenodd" fill-opacity="1" /><path clip-path="url(#clip040)" d="M 0 0 M232.012 736.801 L221.433 747.426 L232.012 758.005 L229.257 760.806 L218.632 750.181 L208.007 760.806 L205.276 758.005 L215.831 747.426 L205.276 736.801 L208.007 734 L218.632 744.625 L229.257 734 L232.012 736.801 Z" fill="#000000" fill-rule="evenodd" fill-opacity="1" /><path clip-path="url(#clip040)" d="M 0 0 M237.892 758.329 L245.53 758.329 L245.53 731.963 L237.22 733.63 L237.22 729.371 L245.484 727.704 L250.16 727.704 L250.16 758.329 L257.799 758.329 L257.799 762.264 L237.892 762.264 L237.892 758.329 Z" fill="#000000" fill-rule="evenodd" fill-opacity="1" /><path clip-path="url(#clip040)" d="M 0 0 M272.868 730.783 Q269.257 730.783 267.428 734.347 Q265.623 737.889 265.623 745.019 Q265.623 752.125 267.428 755.69 Q269.257 759.232 272.868 759.232 Q276.502 759.232 278.308 755.69 Q280.137 752.125 280.137 745.019 Q280.137 737.889 278.308 734.347 Q276.502 730.783 272.868 730.783 M272.868 727.079 Q278.678 727.079 281.734 731.685 Q284.813 736.269 284.813 745.019 Q284.813 753.745 281.734 758.352 Q278.678 762.935 272.868 762.935 Q267.058 762.935 263.979 758.352 Q260.924 753.745 260.924 745.019 Q260.924 736.269 263.979 731.685 Q267.058 727.079 272.868 727.079 Z" fill="#000000" fill-rule="evenodd" fill-opacity="1" /><path clip-path="url(#clip040)" d="M 0 0 M284.813 722.76 L294.95 722.76 L294.95 725.845 L284.813 725.845 L284.813 722.76 Z" fill="#000000" fill-rule="evenodd" fill-opacity="1" /><path clip-path="url(#clip040)" d="M 0 0 M310.109 706.774 L325.024 706.774 L325.024 709.971 L313.588 709.971 L313.588 716.854 Q314.416 716.572 315.244 716.441 Q316.071 716.29 316.899 716.29 Q321.601 716.29 324.346 718.867 Q327.092 721.444 327.092 725.845 Q327.092 730.377 324.271 732.898 Q321.45 735.399 316.316 735.399 Q314.548 735.399 312.704 735.098 Q310.88 734.797 308.924 734.195 L308.924 730.377 Q310.617 731.299 312.422 731.75 Q314.228 732.202 316.24 732.202 Q319.494 732.202 321.394 730.49 Q323.293 728.779 323.293 725.845 Q323.293 722.911 321.394 721.199 Q319.494 719.488 316.24 719.488 Q314.717 719.488 313.193 719.826 Q311.689 720.165 310.109 720.879 L310.109 706.774 Z" fill="#000000" fill-rule="evenodd" fill-opacity="1" /><path clip-path="url(#clip040)" d="M 0 0 M108.545 458.12 L121.021 458.12 L121.021 461.917 L108.545 461.917 L108.545 458.12 Z" fill="#000000" fill-rule="evenodd" fill-opacity="1" /><path clip-path="url(#clip040)" d="M 0 0 M139.679 438.444 L158.035 438.444 L158.035 442.38 L143.961 442.38 L143.961 450.852 Q144.98 450.505 145.998 450.343 Q147.017 450.157 148.035 450.157 Q153.822 450.157 157.202 453.329 Q160.581 456.5 160.581 461.917 Q160.581 467.495 157.109 470.597 Q153.637 473.676 147.318 473.676 Q145.142 473.676 142.873 473.305 Q140.628 472.935 138.22 472.194 L138.22 467.495 Q140.304 468.629 142.526 469.185 Q144.748 469.741 147.225 469.741 Q151.23 469.741 153.568 467.634 Q155.906 465.528 155.906 461.917 Q155.906 458.305 153.568 456.199 Q151.23 454.093 147.225 454.093 Q145.35 454.093 143.475 454.509 Q141.623 454.926 139.679 455.805 L139.679 438.444 Z" fill="#000000" fill-rule="evenodd" fill-opacity="1" /><path clip-path="url(#clip040)" d="M 0 0 M165.651 467.125 L170.535 467.125 L170.535 473.004 L165.651 473.004 L165.651 467.125 Z" fill="#000000" fill-rule="evenodd" fill-opacity="1" /><path clip-path="url(#clip040)" d="M 0 0 M185.604 441.523 Q181.993 441.523 180.165 445.088 Q178.359 448.63 178.359 455.759 Q178.359 462.866 180.165 466.43 Q181.993 469.972 185.604 469.972 Q189.239 469.972 191.044 466.43 Q192.873 462.866 192.873 455.759 Q192.873 448.63 191.044 445.088 Q189.239 441.523 185.604 441.523 M185.604 437.819 Q191.415 437.819 194.47 442.426 Q197.549 447.009 197.549 455.759 Q197.549 464.486 194.47 469.092 Q191.415 473.676 185.604 473.676 Q179.794 473.676 176.716 469.092 Q173.66 464.486 173.66 455.759 Q173.66 447.009 176.716 442.426 Q179.794 437.819 185.604 437.819 Z" fill="#000000" fill-rule="evenodd" fill-opacity="1" /><path clip-path="url(#clip040)" d="M 0 0 M230.789 447.542 L220.211 458.167 L230.789 468.745 L228.035 471.546 L217.41 460.921 L206.785 471.546 L204.053 468.745 L214.609 458.167 L204.053 447.542 L206.785 444.741 L217.41 455.366 L228.035 444.741 L230.789 447.542 Z" fill="#000000" fill-rule="evenodd" fill-opacity="1" /><path clip-path="url(#clip040)" d="M 0 0 M236.669 469.069 L244.308 469.069 L244.308 442.704 L235.998 444.37 L235.998 440.111 L244.262 438.444 L248.937 438.444 L248.937 469.069 L256.576 469.069 L256.576 473.004 L236.669 473.004 L236.669 469.069 Z" fill="#000000" fill-rule="evenodd" fill-opacity="1" /><path clip-path="url(#clip040)" d="M 0 0 M271.646 441.523 Q268.035 441.523 266.206 445.088 Q264.4 448.63 264.4 455.759 Q264.4 462.866 266.206 466.43 Q268.035 469.972 271.646 469.972 Q275.28 469.972 277.085 466.43 Q278.914 462.866 278.914 455.759 Q278.914 448.63 277.085 445.088 Q275.28 441.523 271.646 441.523 M271.646 437.819 Q277.456 437.819 280.511 442.426 Q283.59 447.009 283.59 455.759 Q283.59 464.486 280.511 469.092 Q277.456 473.676 271.646 473.676 Q265.836 473.676 262.757 469.092 Q259.701 464.486 259.701 455.759 Q259.701 447.009 262.757 442.426 Q265.836 437.819 271.646 437.819 Z" fill="#000000" fill-rule="evenodd" fill-opacity="1" /><path clip-path="url(#clip040)" d="M 0 0 M283.59 433.501 L293.727 433.501 L293.727 436.585 L283.59 436.585 L283.59 433.501 Z" fill="#000000" fill-rule="evenodd" fill-opacity="1" /><path clip-path="url(#clip040)" d="M 0 0 M317.726 430.04 Q315.168 430.04 313.664 431.789 Q312.178 433.538 312.178 436.585 Q312.178 439.613 313.664 441.381 Q315.168 443.13 317.726 443.13 Q320.284 443.13 321.77 441.381 Q323.274 439.613 323.274 436.585 Q323.274 433.538 321.77 431.789 Q320.284 430.04 317.726 430.04 M325.268 418.135 L325.268 421.595 Q323.839 420.918 322.372 420.561 Q320.923 420.204 319.494 420.204 Q315.733 420.204 313.739 422.743 Q311.764 425.282 311.482 430.416 Q312.592 428.78 314.266 427.915 Q315.939 427.031 317.952 427.031 Q322.184 427.031 324.629 429.607 Q327.092 432.165 327.092 436.585 Q327.092 440.911 324.535 443.525 Q321.977 446.139 317.726 446.139 Q312.855 446.139 310.278 442.416 Q307.702 438.673 307.702 431.582 Q307.702 424.924 310.861 420.975 Q314.021 417.006 319.344 417.006 Q320.773 417.006 322.221 417.288 Q323.688 417.57 325.268 418.135 Z" fill="#000000" fill-rule="evenodd" fill-opacity="1" /><path clip-path="url(#clip040)" d="M 0 0 M315.148 145.816 Q311.537 145.816 309.708 149.381 Q307.903 152.922 307.903 160.052 Q307.903 167.159 309.708 170.723 Q311.537 174.265 315.148 174.265 Q318.782 174.265 320.588 170.723 Q322.417 167.159 322.417 160.052 Q322.417 152.922 320.588 149.381 Q318.782 145.816 315.148 145.816 M315.148 142.112 Q320.958 142.112 324.014 146.719 Q327.092 151.302 327.092 160.052 Q327.092 168.779 324.014 173.385 Q320.958 177.969 315.148 177.969 Q309.338 177.969 306.259 173.385 Q303.204 168.779 303.204 160.052 Q303.204 151.302 306.259 146.719 Q309.338 142.112 315.148 142.112 Z" fill="#000000" fill-rule="evenodd" fill-opacity="1" /><path clip-path="url(#clip040)" d="M 0 0 M1069.78 44.2197 Q1072.41 45.1109 1074.88 48.0275 Q1077.39 50.9442 1079.91 56.0483 L1088.21 72.576 L1079.42 72.576 L1071.68 57.061 Q1068.68 50.9847 1065.85 48.9997 Q1063.05 47.0148 1058.19 47.0148 L1049.28 47.0148 L1049.28 72.576 L1041.1 72.576 L1041.1 12.096 L1059.57 12.096 Q1069.94 12.096 1075.04 16.4305 Q1080.15 20.7649 1080.15 29.5149 Q1080.15 35.2267 1077.48 38.994 Q1074.84 42.7613 1069.78 44.2197 M1049.28 18.8205 L1049.28 40.2903 L1059.57 40.2903 Q1065.48 40.2903 1068.48 37.5762 Q1071.52 34.8216 1071.52 29.5149 Q1071.52 24.2082 1068.48 21.5346 Q1065.48 18.8205 1059.57 18.8205 L1049.28 18.8205 Z" fill="#000000" fill-rule="evenodd" fill-opacity="1" /><path clip-path="url(#clip040)" d="M 0 0 M1114.82 49.7694 Q1105.79 49.7694 1102.31 51.8354 Q1098.82 53.9013 1098.82 58.8839 Q1098.82 62.8538 1101.42 65.2034 Q1104.05 67.5124 1108.55 67.5124 Q1114.74 67.5124 1118.47 63.1374 Q1122.24 58.7219 1122.24 51.4303 L1122.24 49.7694 L1114.82 49.7694 M1129.69 46.6907 L1129.69 72.576 L1122.24 72.576 L1122.24 65.6895 Q1119.69 69.8214 1115.88 71.8063 Q1112.07 73.7508 1106.56 73.7508 Q1099.59 73.7508 1095.46 69.8619 Q1091.37 65.9325 1091.37 59.3701 Q1091.37 51.7138 1096.47 47.825 Q1101.62 43.9361 1111.79 43.9361 L1122.24 43.9361 L1122.24 43.2069 Q1122.24 38.0623 1118.84 35.2672 Q1115.47 32.4315 1109.36 32.4315 Q1105.47 32.4315 1101.78 33.3632 Q1098.09 34.295 1094.69 36.1584 L1094.69 29.2718 Q1098.78 27.692 1102.63 26.9223 Q1106.48 26.1121 1110.13 26.1121 Q1119.97 26.1121 1124.83 31.2163 Q1129.69 36.3204 1129.69 46.6907 Z" fill="#000000" fill-rule="evenodd" fill-opacity="1" /><path clip-path="url(#clip040)" d="M 0 0 M1137.51 27.2059 L1144.96 27.2059 L1144.96 72.576 L1137.51 72.576 L1137.51 27.2059 M1137.51 9.54393 L1144.96 9.54393 L1144.96 18.9825 L1137.51 18.9825 L1137.51 9.54393 Z" fill="#000000" fill-rule="evenodd" fill-opacity="1" /><path clip-path="url(#clip040)" d="M 0 0 M1190.5 45.1919 L1190.5 72.576 L1183.04 72.576 L1183.04 45.4349 Q1183.04 38.994 1180.53 35.7938 Q1178.02 32.5936 1173 32.5936 Q1166.96 32.5936 1163.48 36.4419 Q1159.99 40.2903 1159.99 46.9338 L1159.99 72.576 L1152.5 72.576 L1152.5 27.2059 L1159.99 27.2059 L1159.99 34.2544 Q1162.67 30.163 1166.27 28.1376 Q1169.92 26.1121 1174.66 26.1121 Q1182.47 26.1121 1186.49 30.9732 Q1190.5 35.7938 1190.5 45.1919 Z" fill="#000000" fill-rule="evenodd" fill-opacity="1" /><path clip-path="url(#clip040)" d="M 0 0 M1263.49 48.0275 L1263.49 51.6733 L1229.22 51.6733 Q1229.71 59.3701 1233.84 63.421 Q1238.01 67.4314 1245.43 67.4314 Q1249.72 67.4314 1253.73 66.3781 Q1257.78 65.3249 1261.75 63.2184 L1261.75 70.267 Q1257.74 71.9684 1253.53 72.8596 Q1249.31 73.7508 1244.98 73.7508 Q1234.12 73.7508 1227.76 67.4314 Q1221.44 61.1119 1221.44 50.3365 Q1221.44 39.1965 1227.44 32.6746 Q1233.48 26.1121 1243.68 26.1121 Q1252.84 26.1121 1258.15 32.0264 Q1263.49 37.9003 1263.49 48.0275 M1256.04 45.84 Q1255.96 39.7232 1252.6 36.0774 Q1249.27 32.4315 1243.77 32.4315 Q1237.53 32.4315 1233.76 35.9558 Q1230.03 39.4801 1229.47 45.8805 L1256.04 45.84 Z" fill="#000000" fill-rule="evenodd" fill-opacity="1" /><path clip-path="url(#clip040)" d="M 0 0 M1265.96 27.2059 L1273.86 27.2059 L1288.04 65.2844 L1302.22 27.2059 L1310.12 27.2059 L1293.11 72.576 L1282.98 72.576 L1265.96 27.2059 Z" fill="#000000" fill-rule="evenodd" fill-opacity="1" /><path clip-path="url(#clip040)" d="M 0 0 M1338.56 49.7694 Q1329.52 49.7694 1326.04 51.8354 Q1322.56 53.9013 1322.56 58.8839 Q1322.56 62.8538 1325.15 65.2034 Q1327.78 67.5124 1332.28 67.5124 Q1338.48 67.5124 1342.2 63.1374 Q1345.97 58.7219 1345.97 51.4303 L1345.97 49.7694 L1338.56 49.7694 M1353.42 46.6907 L1353.42 72.576 L1345.97 72.576 L1345.97 65.6895 Q1343.42 69.8214 1339.61 71.8063 Q1335.8 73.7508 1330.29 73.7508 Q1323.32 73.7508 1319.19 69.8619 Q1315.1 65.9325 1315.1 59.3701 Q1315.1 51.7138 1320.21 47.825 Q1325.35 43.9361 1335.52 43.9361 L1345.97 43.9361 L1345.97 43.2069 Q1345.97 38.0623 1342.57 35.2672 Q1339.2 32.4315 1333.09 32.4315 Q1329.2 32.4315 1325.51 33.3632 Q1321.83 34.295 1318.42 36.1584 L1318.42 29.2718 Q1322.51 27.692 1326.36 26.9223 Q1330.21 26.1121 1333.86 26.1121 Q1343.7 26.1121 1348.56 31.2163 Q1353.42 36.3204 1353.42 46.6907 Z" fill="#000000" fill-rule="evenodd" fill-opacity="1" /><path clip-path="url(#clip040)" d="M 0 0 M1368.45 65.7705 L1368.45 89.8329 L1360.96 89.8329 L1360.96 27.2059 L1368.45 27.2059 L1368.45 34.0924 Q1370.8 30.0415 1374.37 28.0971 Q1377.97 26.1121 1382.95 26.1121 Q1391.22 26.1121 1396.36 32.6746 Q1401.55 39.2371 1401.55 49.9314 Q1401.55 60.6258 1396.36 67.1883 Q1391.22 73.7508 1382.95 73.7508 Q1377.97 73.7508 1374.37 71.8063 Q1370.8 69.8214 1368.45 65.7705 M1393.81 49.9314 Q1393.81 41.7081 1390.41 37.0496 Q1387.05 32.3505 1381.13 32.3505 Q1375.22 32.3505 1371.81 37.0496 Q1368.45 41.7081 1368.45 49.9314 Q1368.45 58.1548 1371.81 62.8538 Q1375.22 67.5124 1381.13 67.5124 Q1387.05 67.5124 1390.41 62.8538 Q1393.81 58.1548 1393.81 49.9314 Z" fill="#000000" fill-rule="evenodd" fill-opacity="1" /><path clip-path="url(#clip040)" d="M 0 0 M1426.95 32.4315 Q1420.95 32.4315 1417.47 37.1306 Q1413.98 41.7891 1413.98 49.9314 Q1413.98 58.0738 1417.43 62.7728 Q1420.91 67.4314 1426.95 67.4314 Q1432.9 67.4314 1436.39 62.7323 Q1439.87 58.0333 1439.87 49.9314 Q1439.87 41.8701 1436.39 37.1711 Q1432.9 32.4315 1426.95 32.4315 M1426.95 26.1121 Q1436.67 26.1121 1442.22 32.4315 Q1447.77 38.7509 1447.77 49.9314 Q1447.77 61.0714 1442.22 67.4314 Q1436.67 73.7508 1426.95 73.7508 Q1417.18 73.7508 1411.63 67.4314 Q1406.13 61.0714 1406.13 49.9314 Q1406.13 38.7509 1411.63 32.4315 Q1417.18 26.1121 1426.95 26.1121 Z" fill="#000000" fill-rule="evenodd" fill-opacity="1" /><path clip-path="url(#clip040)" d="M 0 0 M1481.88 34.1734 Q1480.62 33.4443 1479.12 33.1202 Q1477.66 32.7556 1475.88 32.7556 Q1469.56 32.7556 1466.16 36.8875 Q1462.8 40.9789 1462.8 48.6757 L1462.8 72.576 L1455.3 72.576 L1455.3 27.2059 L1462.8 27.2059 L1462.8 34.2544 Q1465.15 30.1225 1468.91 28.1376 Q1472.68 26.1121 1478.07 26.1121 Q1478.84 26.1121 1479.77 26.2337 Q1480.7 26.3147 1481.84 26.5172 L1481.88 34.1734 Z" fill="#000000" fill-rule="evenodd" fill-opacity="1" /><path clip-path="url(#clip040)" d="M 0 0 M1510.31 49.7694 Q1501.28 49.7694 1497.8 51.8354 Q1494.31 53.9013 1494.31 58.8839 Q1494.31 62.8538 1496.91 65.2034 Q1499.54 67.5124 1504.04 67.5124 Q1510.23 67.5124 1513.96 63.1374 Q1517.73 58.7219 1517.73 51.4303 L1517.73 49.7694 L1510.31 49.7694 M1525.18 46.6907 L1525.18 72.576 L1517.73 72.576 L1517.73 65.6895 Q1515.18 69.8214 1511.37 71.8063 Q1507.56 73.7508 1502.05 73.7508 Q1495.08 73.7508 1490.95 69.8619 Q1486.86 65.9325 1486.86 59.3701 Q1486.86 51.7138 1491.96 47.825 Q1497.11 43.9361 1507.28 43.9361 L1517.73 43.9361 L1517.73 43.2069 Q1517.73 38.0623 1514.32 35.2672 Q1510.96 32.4315 1504.85 32.4315 Q1500.96 32.4315 1497.27 33.3632 Q1493.58 34.295 1490.18 36.1584 L1490.18 29.2718 Q1494.27 27.692 1498.12 26.9223 Q1501.97 26.1121 1505.62 26.1121 Q1515.46 26.1121 1520.32 31.2163 Q1525.18 36.3204 1525.18 46.6907 Z" fill="#000000" fill-rule="evenodd" fill-opacity="1" /><path clip-path="url(#clip040)" d="M 0 0 M1540.37 14.324 L1540.37 27.2059 L1555.73 27.2059 L1555.73 32.9987 L1540.37 32.9987 L1540.37 57.6282 Q1540.37 63.1779 1541.87 64.7578 Q1543.41 66.3376 1548.07 66.3376 L1555.73 66.3376 L1555.73 72.576 L1548.07 72.576 Q1539.44 72.576 1536.16 69.3758 Q1532.88 66.1351 1532.88 57.6282 L1532.88 32.9987 L1527.41 32.9987 L1527.41 27.2059 L1532.88 27.2059 L1532.88 14.324 L1540.37 14.324 Z" fill="#000000" fill-rule="evenodd" fill-opacity="1" /><path clip-path="url(#clip040)" d="M 0 0 M1563.54 27.2059 L1571 27.2059 L1571 72.576 L1563.54 72.576 L1563.54 27.2059 M1563.54 9.54393 L1571 9.54393 L1571 18.9825 L1563.54 18.9825 L1563.54 9.54393 Z" fill="#000000" fill-rule="evenodd" fill-opacity="1" /><path clip-path="url(#clip040)" d="M 0 0 M1596.4 32.4315 Q1590.4 32.4315 1586.92 37.1306 Q1583.43 41.7891 1583.43 49.9314 Q1583.43 58.0738 1586.88 62.7728 Q1590.36 67.4314 1596.4 67.4314 Q1602.35 67.4314 1605.83 62.7323 Q1609.32 58.0333 1609.32 49.9314 Q1609.32 41.8701 1605.83 37.1711 Q1602.35 32.4315 1596.4 32.4315 M1596.4 26.1121 Q1606.12 26.1121 1611.67 32.4315 Q1617.22 38.7509 1617.22 49.9314 Q1617.22 61.0714 1611.67 67.4314 Q1606.12 73.7508 1596.4 73.7508 Q1586.63 73.7508 1581.08 67.4314 Q1575.57 61.0714 1575.57 49.9314 Q1575.57 38.7509 1581.08 32.4315 Q1586.63 26.1121 1596.4 26.1121 Z" fill="#000000" fill-rule="evenodd" fill-opacity="1" /><path clip-path="url(#clip040)" d="M 0 0 M1662.75 45.1919 L1662.75 72.576 L1655.3 72.576 L1655.3 45.4349 Q1655.3 38.994 1652.78 35.7938 Q1650.27 32.5936 1645.25 32.5936 Q1639.21 32.5936 1635.73 36.4419 Q1632.25 40.2903 1632.25 46.9338 L1632.25 72.576 L1624.75 72.576 L1624.75 27.2059 L1632.25 27.2059 L1632.25 34.2544 Q1634.92 30.163 1638.53 28.1376 Q1642.17 26.1121 1646.91 26.1121 Q1654.73 26.1121 1658.74 30.9732 Q1662.75 35.7938 1662.75 45.1919 Z" fill="#000000" fill-rule="evenodd" fill-opacity="1" /><path clip-path="url(#clip040)" d="M 0 0 M1176.09 1538.25 Q1176.09 1544.71 1178.73 1548.4 Q1181.4 1552.07 1186.05 1552.07 Q1190.7 1552.07 1193.37 1548.4 Q1196.04 1544.71 1196.04 1538.25 Q1196.04 1531.79 1193.37 1528.13 Q1190.7 1524.44 1186.05 1524.44 Q1181.4 1524.44 1178.73 1528.13 Q1176.09 1531.79 1176.09 1538.25 M1196.04 1550.7 Q1194.2 1553.88 1191.37 1555.44 Q1188.56 1556.97 1184.62 1556.97 Q1178.16 1556.97 1174.08 1551.81 Q1170.04 1546.65 1170.04 1538.25 Q1170.04 1529.85 1174.08 1524.69 Q1178.16 1519.54 1184.62 1519.54 Q1188.56 1519.54 1191.37 1521.1 Q1194.2 1522.62 1196.04 1525.81 L1196.04 1520.4 L1201.9 1520.4 L1201.9 1569.6 L1196.04 1569.6 L1196.04 1550.7 Z" fill="#000000" fill-rule="evenodd" fill-opacity="1" /><path clip-path="url(#clip040)" d="M 0 0 M1235.13 1566.87 L1235.13 1571.42 L1201.26 1571.42 L1201.26 1566.87 L1235.13 1566.87 Z" fill="#000000" fill-rule="evenodd" fill-opacity="1" /><path clip-path="url(#clip040)" d="M 0 0 M1261.93 1525.87 Q1260.94 1525.3 1259.76 1525.04 Q1258.62 1524.76 1257.22 1524.76 Q1252.25 1524.76 1249.58 1528 Q1246.94 1531.22 1246.94 1537.27 L1246.94 1556.04 L1241.05 1556.04 L1241.05 1520.4 L1246.94 1520.4 L1246.94 1525.93 Q1248.78 1522.69 1251.74 1521.13 Q1254.7 1519.54 1258.94 1519.54 Q1259.54 1519.54 1260.27 1519.63 Q1261.01 1519.7 1261.9 1519.85 L1261.93 1525.87 Z" fill="#000000" fill-rule="evenodd" fill-opacity="1" /><path clip-path="url(#clip040)" d="M 0 0 M1284.27 1538.12 Q1277.17 1538.12 1274.44 1539.75 Q1271.7 1541.37 1271.7 1545.29 Q1271.7 1548.4 1273.74 1550.25 Q1275.81 1552.07 1279.34 1552.07 Q1284.21 1552.07 1287.14 1548.63 Q1290.1 1545.16 1290.1 1539.43 L1290.1 1538.12 L1284.27 1538.12 M1295.95 1535.71 L1295.95 1556.04 L1290.1 1556.04 L1290.1 1550.63 Q1288.09 1553.88 1285.1 1555.44 Q1282.11 1556.97 1277.78 1556.97 Q1272.31 1556.97 1269.06 1553.91 Q1265.84 1550.82 1265.84 1545.67 Q1265.84 1539.65 1269.85 1536.6 Q1273.9 1533.54 1281.89 1533.54 L1290.1 1533.54 L1290.1 1532.97 Q1290.1 1528.93 1287.42 1526.73 Q1284.78 1524.5 1279.98 1524.5 Q1276.92 1524.5 1274.02 1525.23 Q1271.13 1525.97 1268.45 1527.43 L1268.45 1522.02 Q1271.67 1520.78 1274.69 1520.17 Q1277.72 1519.54 1280.58 1519.54 Q1288.31 1519.54 1292.13 1523.55 Q1295.95 1527.56 1295.95 1535.71 Z" fill="#000000" fill-rule="evenodd" fill-opacity="1" /><path clip-path="url(#clip040)" d="M 0 0 M1302.1 1520.4 L1307.95 1520.4 L1307.95 1556.04 L1302.1 1556.04 L1302.1 1520.4 M1302.1 1506.52 L1307.95 1506.52 L1307.95 1513.93 L1302.1 1513.93 L1302.1 1506.52 Z" fill="#000000" fill-rule="evenodd" fill-opacity="1" /><path clip-path="url(#clip040)" d="M 0 0 M1343.73 1534.53 L1343.73 1556.04 L1337.87 1556.04 L1337.87 1534.72 Q1337.87 1529.66 1335.9 1527.14 Q1333.93 1524.63 1329.98 1524.63 Q1325.24 1524.63 1322.5 1527.65 Q1319.76 1530.68 1319.76 1535.9 L1319.76 1556.04 L1313.87 1556.04 L1313.87 1520.4 L1319.76 1520.4 L1319.76 1525.93 Q1321.86 1522.72 1324.69 1521.13 Q1327.56 1519.54 1331.28 1519.54 Q1337.43 1519.54 1340.58 1523.36 Q1343.73 1527.14 1343.73 1534.53 Z" fill="#000000" fill-rule="evenodd" fill-opacity="1" /><path clip-path="url(#clip040)" d="M 0 0 M1370.05 1506.52 L1383.55 1506.52 L1383.55 1511.07 L1375.91 1511.07 L1375.91 1560.09 L1383.55 1560.09 L1383.55 1564.64 L1370.05 1564.64 L1370.05 1506.52 Z" fill="#000000" fill-rule="evenodd" fill-opacity="1" /><path clip-path="url(#clip040)" d="M 0 0 M1413.15 1537.81 Q1413.15 1531.44 1410.5 1527.94 Q1407.89 1524.44 1403.15 1524.44 Q1398.44 1524.44 1395.8 1527.94 Q1393.19 1531.44 1393.19 1537.81 Q1393.19 1544.14 1395.8 1547.64 Q1398.44 1551.14 1403.15 1551.14 Q1407.89 1551.14 1410.5 1547.64 Q1413.15 1544.14 1413.15 1537.81 M1419 1551.62 Q1419 1560.72 1414.96 1565.15 Q1410.92 1569.6 1402.58 1569.6 Q1399.49 1569.6 1396.75 1569.13 Q1394.02 1568.68 1391.44 1567.72 L1391.44 1562.03 Q1394.02 1563.43 1396.53 1564.1 Q1399.05 1564.76 1401.66 1564.76 Q1407.42 1564.76 1410.28 1561.74 Q1413.15 1558.75 1413.15 1552.67 L1413.15 1549.77 Q1411.33 1552.92 1408.5 1554.48 Q1405.67 1556.04 1401.72 1556.04 Q1395.16 1556.04 1391.15 1551.05 Q1387.14 1546.05 1387.14 1537.81 Q1387.14 1529.53 1391.15 1524.53 Q1395.16 1519.54 1401.72 1519.54 Q1405.67 1519.54 1408.5 1521.1 Q1411.33 1522.66 1413.15 1525.81 L1413.15 1520.4 L1419 1520.4 L1419 1551.62 Z" fill="#000000" fill-rule="evenodd" fill-opacity="1" /><path clip-path="url(#clip040)" d="M 0 0 M1435.55 1508.52 L1440.96 1508.52 L1424.41 1562.09 L1419 1562.09 L1435.55 1508.52 Z" fill="#000000" fill-rule="evenodd" fill-opacity="1" /><path clip-path="url(#clip040)" d="M 0 0 M1446.88 1506.52 L1452.77 1506.52 L1452.77 1535.77 L1470.25 1520.4 L1477.73 1520.4 L1458.82 1537.07 L1478.52 1556.04 L1470.88 1556.04 L1452.77 1538.63 L1452.77 1556.04 L1446.88 1556.04 L1446.88 1506.52 Z" fill="#000000" fill-rule="evenodd" fill-opacity="1" /><path clip-path="url(#clip040)" d="M 0 0 M1508.12 1537.81 Q1508.12 1531.44 1505.48 1527.94 Q1502.87 1524.44 1498.13 1524.44 Q1493.42 1524.44 1490.78 1527.94 Q1488.17 1531.44 1488.17 1537.81 Q1488.17 1544.14 1490.78 1547.64 Q1493.42 1551.14 1498.13 1551.14 Q1502.87 1551.14 1505.48 1547.64 Q1508.12 1544.14 1508.12 1537.81 M1513.98 1551.62 Q1513.98 1560.72 1509.94 1565.15 Q1505.89 1569.6 1497.56 1569.6 Q1494.47 1569.6 1491.73 1569.13 Q1488.99 1568.68 1486.42 1567.72 L1486.42 1562.03 Q1488.99 1563.43 1491.51 1564.1 Q1494.02 1564.76 1496.63 1564.76 Q1502.39 1564.76 1505.26 1561.74 Q1508.12 1558.75 1508.12 1552.67 L1508.12 1549.77 Q1506.31 1552.92 1503.48 1554.48 Q1500.64 1556.04 1496.7 1556.04 Q1490.14 1556.04 1486.13 1551.05 Q1482.12 1546.05 1482.12 1537.81 Q1482.12 1529.53 1486.13 1524.53 Q1490.14 1519.54 1496.7 1519.54 Q1500.64 1519.54 1503.48 1521.1 Q1506.31 1522.66 1508.12 1525.81 L1508.12 1520.4 L1513.98 1520.4 L1513.98 1551.62 Z" fill="#000000" fill-rule="evenodd" fill-opacity="1" /><path clip-path="url(#clip040)" d="M 0 0 M1533.81 1506.52 L1533.81 1564.64 L1520.31 1564.64 L1520.31 1560.09 L1527.92 1560.09 L1527.92 1511.07 L1520.31 1511.07 L1520.31 1506.52 L1533.81 1506.52 Z" fill="#000000" fill-rule="evenodd" fill-opacity="1" /><path clip-path="url(#clip040)" d="M 0 0 M57.8307 1134.33 Q57.2578 1135.31 57.0032 1136.49 Q56.7167 1137.64 56.7167 1139.04 Q56.7167 1144 59.9632 1146.67 Q63.1779 1149.32 69.2253 1149.32 L88.0042 1149.32 L88.0042 1155.2 L52.3562 1155.2 L52.3562 1149.32 L57.8944 1149.32 Q54.6479 1147.47 53.0883 1144.51 Q51.4968 1141.55 51.4968 1137.32 Q51.4968 1136.71 51.5923 1135.98 Q51.656 1135.25 51.8151 1134.36 L57.8307 1134.33 Z" fill="#000000" fill-rule="evenodd" fill-opacity="1" /><path clip-path="url(#clip040)" d="M 0 0 M70.0847 1111.98 Q70.0847 1119.08 71.7079 1121.82 Q73.3312 1124.55 77.2461 1124.55 Q80.3653 1124.55 82.2114 1122.52 Q84.0256 1120.45 84.0256 1116.91 Q84.0256 1112.05 80.5881 1109.12 Q77.1188 1106.16 71.3897 1106.16 L70.0847 1106.16 L70.0847 1111.98 M67.6657 1100.3 L88.0042 1100.3 L88.0042 1106.16 L82.5933 1106.16 Q85.8398 1108.16 87.3994 1111.15 Q88.9272 1114.15 88.9272 1118.47 Q88.9272 1123.95 85.8716 1127.2 Q82.7843 1130.41 77.6281 1130.41 Q71.6125 1130.41 68.5569 1126.4 Q65.5014 1122.36 65.5014 1114.37 L65.5014 1106.16 L64.9285 1106.16 Q60.8862 1106.16 58.6901 1108.83 Q56.4621 1111.47 56.4621 1116.28 Q56.4621 1119.33 57.1941 1122.23 Q57.9262 1125.13 59.3903 1127.8 L53.9795 1127.8 Q52.7381 1124.59 52.1334 1121.56 Q51.4968 1118.54 51.4968 1115.67 Q51.4968 1107.94 55.5072 1104.12 Q59.5176 1100.3 67.6657 1100.3 Z" fill="#000000" fill-rule="evenodd" fill-opacity="1" /><path clip-path="url(#clip040)" d="M 0 0 M52.3562 1094.16 L52.3562 1088.3 L88.0042 1088.3 L88.0042 1094.16 L52.3562 1094.16 M38.479 1094.16 L38.479 1088.3 L45.895 1088.3 L45.895 1094.16 L38.479 1094.16 Z" fill="#000000" fill-rule="evenodd" fill-opacity="1" /><path clip-path="url(#clip040)" d="M 0 0 M66.4881 1052.53 L88.0042 1052.53 L88.0042 1058.38 L66.679 1058.38 Q61.6183 1058.38 59.1038 1060.36 Q56.5894 1062.33 56.5894 1066.28 Q56.5894 1071.02 59.6131 1073.76 Q62.6368 1076.49 67.8567 1076.49 L88.0042 1076.49 L88.0042 1082.38 L52.3562 1082.38 L52.3562 1076.49 L57.8944 1076.49 Q54.6797 1074.39 53.0883 1071.56 Q51.4968 1068.69 51.4968 1064.97 Q51.4968 1058.83 55.3163 1055.68 Q59.1038 1052.53 66.4881 1052.53 Z" fill="#000000" fill-rule="evenodd" fill-opacity="1" /><path clip-path="url(#clip040)" d="M 0 0 M68.7161 995.171 L71.5806 995.171 L71.5806 1022.1 Q77.6281 1021.72 80.8109 1018.47 Q83.9619 1015.19 83.9619 1009.37 Q83.9619 1005.99 83.1344 1002.84 Q82.3069 999.659 80.6518 996.539 L86.1899 996.539 Q87.5267 999.691 88.227 1003 Q88.9272 1006.31 88.9272 1009.72 Q88.9272 1018.25 83.9619 1023.24 Q78.9967 1028.21 70.5303 1028.21 Q61.7774 1028.21 56.6531 1023.5 Q51.4968 1018.76 51.4968 1010.74 Q51.4968 1003.54 56.1438 999.372 Q60.7589 995.171 68.7161 995.171 M66.9973 1001.03 Q62.1912 1001.09 59.3266 1003.73 Q56.4621 1006.34 56.4621 1010.67 Q56.4621 1015.57 59.2312 1018.53 Q62.0002 1021.46 67.0292 1021.91 L66.9973 1001.03 Z" fill="#000000" fill-rule="evenodd" fill-opacity="1" /><path clip-path="url(#clip040)" d="M 0 0 M52.3562 993.229 L52.3562 987.023 L82.275 975.883 L52.3562 964.743 L52.3562 958.536 L88.0042 971.904 L88.0042 979.861 L52.3562 993.229 Z" fill="#000000" fill-rule="evenodd" fill-opacity="1" /><path clip-path="url(#clip040)" d="M 0 0 M70.0847 936.193 Q70.0847 943.29 71.7079 946.028 Q73.3312 948.765 77.2461 948.765 Q80.3653 948.765 82.2114 946.728 Q84.0256 944.659 84.0256 941.126 Q84.0256 936.256 80.5881 933.328 Q77.1188 930.368 71.3897 930.368 L70.0847 930.368 L70.0847 936.193 M67.6657 924.512 L88.0042 924.512 L88.0042 930.368 L82.5933 930.368 Q85.8398 932.373 87.3994 935.365 Q88.9272 938.357 88.9272 942.686 Q88.9272 948.16 85.8716 951.407 Q82.7843 954.621 77.6281 954.621 Q71.6125 954.621 68.5569 950.611 Q65.5014 946.569 65.5014 938.58 L65.5014 930.368 L64.9285 930.368 Q60.8862 930.368 58.6901 933.042 Q56.4621 935.683 56.4621 940.489 Q56.4621 943.545 57.1941 946.441 Q57.9262 949.338 59.3903 952.011 L53.9795 952.011 Q52.7381 948.797 52.1334 945.773 Q51.4968 942.749 51.4968 939.885 Q51.4968 932.15 55.5072 928.331 Q59.5176 924.512 67.6657 924.512 Z" fill="#000000" fill-rule="evenodd" fill-opacity="1" /><path clip-path="url(#clip040)" d="M 0 0 M82.657 912.703 L101.563 912.703 L101.563 918.591 L52.3562 918.591 L52.3562 912.703 L57.7671 912.703 Q54.5842 910.857 53.0564 908.056 Q51.4968 905.223 51.4968 901.309 Q51.4968 894.815 56.6531 890.773 Q61.8093 886.699 70.212 886.699 Q78.6147 886.699 83.771 890.773 Q88.9272 894.815 88.9272 901.309 Q88.9272 905.223 87.3994 908.056 Q85.8398 910.857 82.657 912.703 M70.212 892.778 Q63.7508 892.778 60.0905 895.452 Q56.3984 898.094 56.3984 902.741 Q56.3984 907.388 60.0905 910.061 Q63.7508 912.703 70.212 912.703 Q76.6732 912.703 80.3653 910.061 Q84.0256 907.388 84.0256 902.741 Q84.0256 898.094 80.3653 895.452 Q76.6732 892.778 70.212 892.778 Z" fill="#000000" fill-rule="evenodd" fill-opacity="1" /><path clip-path="url(#clip040)" d="M 0 0 M56.4621 866.743 Q56.4621 871.453 60.1542 874.191 Q63.8145 876.928 70.212 876.928 Q76.6095 876.928 80.3017 874.222 Q83.9619 871.485 83.9619 866.743 Q83.9619 862.064 80.2698 859.327 Q76.5777 856.589 70.212 856.589 Q63.8781 856.589 60.186 859.327 Q56.4621 862.064 56.4621 866.743 M51.4968 866.743 Q51.4968 859.104 56.4621 854.743 Q61.4273 850.383 70.212 850.383 Q78.9649 850.383 83.9619 854.743 Q88.9272 859.104 88.9272 866.743 Q88.9272 874.413 83.9619 878.774 Q78.9649 883.103 70.212 883.103 Q61.4273 883.103 56.4621 878.774 Q51.4968 874.413 51.4968 866.743 Z" fill="#000000" fill-rule="evenodd" fill-opacity="1" /><path clip-path="url(#clip040)" d="M 0 0 M57.8307 823.583 Q57.2578 824.57 57.0032 825.748 Q56.7167 826.893 56.7167 828.294 Q56.7167 833.259 59.9632 835.933 Q63.1779 838.574 69.2253 838.574 L88.0042 838.574 L88.0042 844.463 L52.3562 844.463 L52.3562 838.574 L57.8944 838.574 Q54.6479 836.728 53.0883 833.768 Q51.4968 830.808 51.4968 826.575 Q51.4968 825.97 51.5923 825.238 Q51.656 824.506 51.8151 823.615 L57.8307 823.583 Z" fill="#000000" fill-rule="evenodd" fill-opacity="1" /><path clip-path="url(#clip040)" d="M 0 0 M70.0847 801.24 Q70.0847 808.337 71.7079 811.075 Q73.3312 813.812 77.2461 813.812 Q80.3653 813.812 82.2114 811.775 Q84.0256 809.706 84.0256 806.173 Q84.0256 801.303 80.5881 798.375 Q77.1188 795.415 71.3897 795.415 L70.0847 795.415 L70.0847 801.24 M67.6657 789.559 L88.0042 789.559 L88.0042 795.415 L82.5933 795.415 Q85.8398 797.42 87.3994 800.412 Q88.9272 803.404 88.9272 807.733 Q88.9272 813.207 85.8716 816.454 Q82.7843 819.668 77.6281 819.668 Q71.6125 819.668 68.5569 815.658 Q65.5014 811.616 65.5014 803.627 L65.5014 795.415 L64.9285 795.415 Q60.8862 795.415 58.6901 798.089 Q56.4621 800.73 56.4621 805.536 Q56.4621 808.592 57.1941 811.488 Q57.9262 814.385 59.3903 817.058 L53.9795 817.058 Q52.7381 813.844 52.1334 810.82 Q51.4968 807.796 51.4968 804.932 Q51.4968 797.197 55.5072 793.378 Q59.5176 789.559 67.6657 789.559 Z" fill="#000000" fill-rule="evenodd" fill-opacity="1" /><path clip-path="url(#clip040)" d="M 0 0 M42.2347 777.623 L52.3562 777.623 L52.3562 765.56 L56.9077 765.56 L56.9077 777.623 L76.2594 777.623 Q80.6199 777.623 81.8613 776.445 Q83.1026 775.236 83.1026 771.575 L83.1026 765.56 L88.0042 765.56 L88.0042 771.575 Q88.0042 778.355 85.4897 780.933 Q82.9434 783.511 76.2594 783.511 L56.9077 783.511 L56.9077 787.808 L52.3562 787.808 L52.3562 783.511 L42.2347 783.511 L42.2347 777.623 Z" fill="#000000" fill-rule="evenodd" fill-opacity="1" /><path clip-path="url(#clip040)" d="M 0 0 M52.3562 759.417 L52.3562 753.56 L88.0042 753.56 L88.0042 759.417 L52.3562 759.417 M38.479 759.417 L38.479 753.56 L45.895 753.56 L45.895 759.417 L38.479 759.417 Z" fill="#000000" fill-rule="evenodd" fill-opacity="1" /><path clip-path="url(#clip040)" d="M 0 0 M56.4621 733.604 Q56.4621 738.315 60.1542 741.052 Q63.8145 743.789 70.212 743.789 Q76.6095 743.789 80.3017 741.084 Q83.9619 738.346 83.9619 733.604 Q83.9619 728.925 80.2698 726.188 Q76.5777 723.451 70.212 723.451 Q63.8781 723.451 60.186 726.188 Q56.4621 728.925 56.4621 733.604 M51.4968 733.604 Q51.4968 725.965 56.4621 721.605 Q61.4273 717.244 70.212 717.244 Q78.9649 717.244 83.9619 721.605 Q88.9272 725.965 88.9272 733.604 Q88.9272 741.275 83.9619 745.635 Q78.9649 749.964 70.212 749.964 Q61.4273 749.964 56.4621 745.635 Q51.4968 741.275 51.4968 733.604 Z" fill="#000000" fill-rule="evenodd" fill-opacity="1" /><path clip-path="url(#clip040)" d="M 0 0 M66.4881 681.469 L88.0042 681.469 L88.0042 687.325 L66.679 687.325 Q61.6183 687.325 59.1038 689.299 Q56.5894 691.272 56.5894 695.219 Q56.5894 699.961 59.6131 702.698 Q62.6368 705.436 67.8567 705.436 L88.0042 705.436 L88.0042 711.324 L52.3562 711.324 L52.3562 705.436 L57.8944 705.436 Q54.6797 703.335 53.0883 700.502 Q51.4968 697.638 51.4968 693.914 Q51.4968 687.771 55.3163 684.62 Q59.1038 681.469 66.4881 681.469 Z" fill="#000000" fill-rule="evenodd" fill-opacity="1" /><path clip-path="url(#clip040)" d="M 0 0 M57.8307 633.949 Q57.2578 634.936 57.0032 636.113 Q56.7167 637.259 56.7167 638.659 Q56.7167 643.625 59.9632 646.298 Q63.1779 648.94 69.2253 648.94 L88.0042 648.94 L88.0042 654.828 L52.3562 654.828 L52.3562 648.94 L57.8944 648.94 Q54.6479 647.094 53.0883 644.134 Q51.4968 641.174 51.4968 636.941 Q51.4968 636.336 51.5923 635.604 Q51.656 634.872 51.8151 633.981 L57.8307 633.949 Z" fill="#000000" fill-rule="evenodd" fill-opacity="1" /><path clip-path="url(#clip040)" d="M 0 0 M70.0847 611.605 Q70.0847 618.703 71.7079 621.44 Q73.3312 624.177 77.2461 624.177 Q80.3653 624.177 82.2114 622.14 Q84.0256 620.072 84.0256 616.539 Q84.0256 611.669 80.5881 608.741 Q77.1188 605.781 71.3897 605.781 L70.0847 605.781 L70.0847 611.605 M67.6657 599.924 L88.0042 599.924 L88.0042 605.781 L82.5933 605.781 Q85.8398 607.786 87.3994 610.778 Q88.9272 613.77 88.9272 618.098 Q88.9272 623.573 85.8716 626.819 Q82.7843 630.034 77.6281 630.034 Q71.6125 630.034 68.5569 626.024 Q65.5014 621.981 65.5014 613.992 L65.5014 605.781 L64.9285 605.781 Q60.8862 605.781 58.6901 608.454 Q56.4621 611.096 56.4621 615.902 Q56.4621 618.958 57.1941 621.854 Q57.9262 624.75 59.3903 627.424 L53.9795 627.424 Q52.7381 624.209 52.1334 621.186 Q51.4968 618.162 51.4968 615.297 Q51.4968 607.563 55.5072 603.744 Q59.5176 599.924 67.6657 599.924 Z" fill="#000000" fill-rule="evenodd" fill-opacity="1" /><path clip-path="url(#clip040)" d="M 0 0 M42.2347 587.988 L52.3562 587.988 L52.3562 575.925 L56.9077 575.925 L56.9077 587.988 L76.2594 587.988 Q80.6199 587.988 81.8613 586.811 Q83.1026 585.601 83.1026 581.941 L83.1026 575.925 L88.0042 575.925 L88.0042 581.941 Q88.0042 588.72 85.4897 591.299 Q82.9434 593.877 76.2594 593.877 L56.9077 593.877 L56.9077 598.174 L52.3562 598.174 L52.3562 593.877 L42.2347 593.877 L42.2347 587.988 Z" fill="#000000" fill-rule="evenodd" fill-opacity="1" /><path clip-path="url(#clip040)" d="M 0 0 M68.7161 539.291 L71.5806 539.291 L71.5806 566.218 Q77.6281 565.836 80.8109 562.589 Q83.9619 559.311 83.9619 553.486 Q83.9619 550.112 83.1344 546.961 Q82.3069 543.779 80.6518 540.659 L86.1899 540.659 Q87.5267 543.81 88.227 547.121 Q88.9272 550.431 88.9272 553.836 Q88.9272 562.366 83.9619 567.364 Q78.9967 572.329 70.5303 572.329 Q61.7774 572.329 56.6531 567.618 Q51.4968 562.876 51.4968 554.855 Q51.4968 547.662 56.1438 543.492 Q60.7589 539.291 68.7161 539.291 M66.9973 545.147 Q62.1912 545.211 59.3266 547.853 Q56.4621 550.463 56.4621 554.791 Q56.4621 559.693 59.2312 562.653 Q62.0002 565.581 67.0292 566.027 L66.9973 545.147 Z" fill="#000000" fill-rule="evenodd" fill-opacity="1" /><path clip-path="url(#clip040)" d="M 0 0 M38.479 512.969 L38.479 499.473 L43.0304 499.473 L43.0304 507.112 L92.0464 507.112 L92.0464 499.473 L96.5979 499.473 L96.5979 512.969 L38.479 512.969 Z" fill="#000000" fill-rule="evenodd" fill-opacity="1" /><path clip-path="url(#clip040)" d="M 0 0 M82.5933 491.389 L82.5933 480.885 L46.3406 480.885 L48.6323 492.312 L42.7758 492.312 L40.4842 480.949 L40.4842 474.52 L82.5933 474.52 L82.5933 464.016 L88.0042 464.016 L88.0042 491.389 L82.5933 491.389 Z" fill="#000000" fill-rule="evenodd" fill-opacity="1" /><path clip-path="url(#clip040)" d="M 0 0 M40.4842 447.465 L40.4842 442.055 L94.0516 458.605 L94.0516 464.016 L40.4842 447.465 Z" fill="#000000" fill-rule="evenodd" fill-opacity="1" /><path clip-path="url(#clip040)" d="M 0 0 M53.4065 413.186 L58.9447 413.186 Q57.6716 415.669 57.035 418.342 Q56.3984 421.016 56.3984 423.881 Q56.3984 428.241 57.7352 430.437 Q59.072 432.602 61.7456 432.602 Q63.7826 432.602 64.9603 431.042 Q66.1061 429.482 67.1565 424.772 L67.6021 422.767 Q68.9389 416.528 71.3897 413.918 Q73.8086 411.276 78.1691 411.276 Q83.1344 411.276 86.0308 415.223 Q88.9272 419.138 88.9272 426.013 Q88.9272 428.878 88.3543 431.997 Q87.8132 435.084 86.6992 438.522 L80.6518 438.522 Q82.3387 435.275 83.198 432.124 Q84.0256 428.973 84.0256 425.886 Q84.0256 421.748 82.6251 419.52 Q81.1929 417.292 78.6147 417.292 Q76.2276 417.292 74.9545 418.915 Q73.6813 420.507 72.5037 425.949 L72.0262 427.986 Q70.8804 433.429 68.5251 435.848 Q66.138 438.267 62.0002 438.267 Q56.9713 438.267 54.2341 434.702 Q51.4968 431.137 51.4968 424.581 Q51.4968 421.334 51.9743 418.47 Q52.4517 415.605 53.4065 413.186 Z" fill="#000000" fill-rule="evenodd" fill-opacity="1" /><path clip-path="url(#clip040)" d="M 0 0 M38.479 391.447 L96.5979 391.447 L96.5979 404.943 L92.0464 404.943 L92.0464 397.336 L43.0304 397.336 L43.0304 404.943 L38.479 404.943 L38.479 391.447 Z" fill="#000000" fill-rule="evenodd" fill-opacity="1" /><polyline clip-path="url(#clip042)" style="stroke:#009af9; stroke-width:4; stroke-opacity:1; fill:none" points="
  407.743,160.373 426.818,220.862 445.892,254.811 464.966,283.059 484.041,308.164 503.115,331.173 522.189,352.643 541.264,372.917 560.338,392.221 579.413,410.716 
  598.487,428.524 617.561,445.734 636.636,462.421 655.71,478.642 674.784,494.445 693.859,509.87 712.933,524.951 732.007,539.716 751.082,554.191 770.156,568.396 
  789.23,582.352 808.305,596.074 827.379,609.577 846.454,622.875 865.528,635.981 884.602,648.903 903.677,661.653 922.751,674.239 941.825,686.669 960.9,698.952 
  979.974,711.092 999.048,723.098 1018.12,734.975 1037.2,746.727 1056.27,758.361 1075.35,769.881 1094.42,781.291 1113.49,792.595 1132.57,803.798 1151.64,814.902 
  1170.72,825.912 1189.79,836.83 1208.87,847.659 1227.94,858.402 1247.02,869.062 1266.09,879.641 1285.16,890.142 1304.24,900.567 1323.31,910.919 1342.39,921.198 
  1361.46,931.408 1380.54,941.55 1399.61,951.626 1418.68,961.637 1437.76,971.586 1456.83,981.473 1475.91,991.301 1494.98,1001.07 1514.06,1010.78 1533.13,1020.44 
  1552.2,1030.04 1571.28,1039.59 1590.35,1049.09 1609.43,1058.53 1628.5,1067.93 1647.58,1077.28 1666.65,1086.58 1685.73,1095.83 1704.8,1105.04 1723.87,1114.2 
  1742.95,1123.32 1762.02,1132.39 1781.1,1141.43 1800.17,1150.42 1819.25,1159.37 1838.32,1168.28 1857.39,1177.15 1876.47,1185.98 1895.54,1194.78 1914.62,1203.53 
  1933.69,1212.25 1952.77,1220.94 1971.84,1229.59 1990.92,1238.2 2009.99,1246.78 2029.06,1255.32 2048.14,1263.83 2067.21,1272.31 2086.29,1280.76 2105.36,1289.18 
  2124.44,1297.56 2143.51,1305.91 2162.58,1314.24 2181.66,1322.53 2200.73,1330.79 2219.81,1339.02 2238.88,1347.23 2257.96,1355.41 2277.03,1363.56 2296.11,1371.68 
  
  "/>
<polyline clip-path="url(#clip042)" style="stroke:#e26f46; stroke-width:4; stroke-opacity:1; fill:none" points="
  407.743,160.256 426.818,211.781 445.892,242.664 464.966,268.878 484.041,292.479 503.115,314.32 522.189,334.86 541.264,354.381 560.338,373.072 579.413,391.069 
  598.487,408.471 617.561,425.356 636.636,441.786 655.71,457.81 674.784,473.468 693.859,488.796 712.933,503.82 732.007,518.567 751.082,533.057 770.156,547.309 
  789.23,561.34 808.305,575.163 827.379,588.792 846.454,602.239 865.528,615.513 884.602,628.624 903.677,641.58 922.751,654.389 941.825,667.059 960.9,679.596 
  979.974,692.006 999.048,704.293 1018.12,716.465 1037.2,728.524 1056.27,740.477 1075.35,752.325 1094.42,764.075 1113.49,775.729 1132.57,787.29 1151.64,798.762 
  1170.72,810.148 1189.79,821.45 1208.87,832.672 1227.94,843.815 1247.02,854.883 1266.09,865.876 1285.16,876.798 1304.24,887.651 1323.31,898.436 1342.39,909.156 
  1361.46,919.811 1380.54,930.404 1399.61,940.936 1418.68,951.409 1437.76,961.825 1456.83,972.184 1475.91,982.488 1494.98,992.738 1514.06,1002.94 1533.13,1013.08 
  1552.2,1023.18 1571.28,1033.23 1590.35,1043.22 1609.43,1053.18 1628.5,1063.08 1647.58,1072.94 1666.65,1082.76 1685.73,1092.53 1704.8,1102.26 1723.87,1111.95 
  1742.95,1121.6 1762.02,1131.21 1781.1,1140.78 1800.17,1150.31 1819.25,1159.8 1838.32,1169.25 1857.39,1178.67 1876.47,1188.05 1895.54,1197.4 1914.62,1206.71 
  1933.69,1215.99 1952.77,1225.23 1971.84,1234.44 1990.92,1243.62 2009.99,1252.76 2029.06,1261.88 2048.14,1270.96 2067.21,1280.01 2086.29,1289.03 2105.36,1298.03 
  2124.44,1306.99 2143.51,1315.92 2162.58,1324.83 2181.66,1333.7 2200.73,1342.55 2219.81,1351.37 2238.88,1360.17 2257.96,1368.94 2277.03,1377.68 2296.11,1386.4 
  
  "/>
<path clip-path="url(#clip040)" d="
M1712.89 388.432 L2280.76 388.432 L2280.76 206.992 L1712.89 206.992  Z
  " fill="#ffffff" fill-rule="evenodd" fill-opacity="1"/>
<polyline clip-path="url(#clip040)" style="stroke:#000000; stroke-width:4; stroke-opacity:1; fill:none" points="
  1712.89,388.432 2280.76,388.432 2280.76,206.992 1712.89,206.992 1712.89,388.432 
  "/>
<polyline clip-path="url(#clip040)" style="stroke:#009af9; stroke-width:4; stroke-opacity:1; fill:none" points="
  1736.89,267.472 1880.89,267.472 
  "/>
<path clip-path="url(#clip040)" d="M 0 0 M1932.76 252.854 L1932.76 257.785 Q1930.4 255.586 1927.71 254.498 Q1925.05 253.41 1922.04 253.41 Q1916.11 253.41 1912.97 257.044 Q1909.82 260.655 1909.82 267.507 Q1909.82 274.336 1912.97 277.97 Q1916.11 281.581 1922.04 281.581 Q1925.05 281.581 1927.71 280.493 Q1930.4 279.405 1932.76 277.206 L1932.76 282.09 Q1930.3 283.757 1927.55 284.59 Q1924.82 285.423 1921.76 285.423 Q1913.92 285.423 1909.4 280.632 Q1904.89 275.817 1904.89 267.507 Q1904.89 259.174 1909.4 254.382 Q1913.92 249.567 1921.76 249.567 Q1924.86 249.567 1927.6 250.4 Q1930.35 251.211 1932.76 252.854 Z" fill="#000000" fill-rule="evenodd" fill-opacity="1" /><path clip-path="url(#clip040)" d="M 0 0 M1937.23 248.734 L1941.48 248.734 L1941.48 284.752 L1937.23 284.752 L1937.23 248.734 Z" fill="#000000" fill-rule="evenodd" fill-opacity="1" /><path clip-path="url(#clip040)" d="M 0 0 M1945.95 258.826 L1950.21 258.826 L1950.21 284.752 L1945.95 284.752 L1945.95 258.826 M1945.95 248.734 L1950.21 248.734 L1950.21 254.127 L1945.95 254.127 L1945.95 248.734 Z" fill="#000000" fill-rule="evenodd" fill-opacity="1" /><path clip-path="url(#clip040)" d="M 0 0 M1974.86 263.803 Q1976.46 260.933 1978.68 259.567 Q1980.91 258.201 1983.91 258.201 Q1987.97 258.201 1990.16 261.049 Q1992.36 263.873 1992.36 269.104 L1992.36 284.752 L1988.08 284.752 L1988.08 269.243 Q1988.08 265.516 1986.76 263.711 Q1985.44 261.905 1982.73 261.905 Q1979.42 261.905 1977.5 264.104 Q1975.58 266.303 1975.58 270.099 L1975.58 284.752 L1971.3 284.752 L1971.3 269.243 Q1971.3 265.493 1969.98 263.711 Q1968.66 261.905 1965.91 261.905 Q1962.64 261.905 1960.72 264.127 Q1958.8 266.326 1958.8 270.099 L1958.8 284.752 L1954.52 284.752 L1954.52 258.826 L1958.8 258.826 L1958.8 262.854 Q1960.26 260.47 1962.29 259.336 Q1964.33 258.201 1967.13 258.201 Q1969.96 258.201 1971.92 259.637 Q1973.91 261.072 1974.86 263.803 Z" fill="#000000" fill-rule="evenodd" fill-opacity="1" /><path clip-path="url(#clip040)" d="M 0 0 M2008.61 271.72 Q2003.45 271.72 2001.46 272.9 Q1999.47 274.081 1999.47 276.928 Q1999.47 279.197 2000.95 280.539 Q2002.46 281.859 2005.03 281.859 Q2008.57 281.859 2010.7 279.359 Q2012.85 276.836 2012.85 272.669 L2012.85 271.72 L2008.61 271.72 M2017.11 269.961 L2017.11 284.752 L2012.85 284.752 L2012.85 280.817 Q2011.39 283.178 2009.22 284.312 Q2007.04 285.423 2003.89 285.423 Q1999.91 285.423 1997.55 283.201 Q1995.21 280.956 1995.21 277.206 Q1995.21 272.831 1998.13 270.609 Q2001.07 268.386 2006.88 268.386 L2012.85 268.386 L2012.85 267.97 Q2012.85 265.03 2010.91 263.433 Q2008.98 261.812 2005.49 261.812 Q2003.27 261.812 2001.16 262.345 Q1999.05 262.877 1997.11 263.942 L1997.11 260.007 Q1999.45 259.104 2001.65 258.664 Q2003.85 258.201 2005.93 258.201 Q2011.55 258.201 2014.33 261.118 Q2017.11 264.035 2017.11 269.961 Z" fill="#000000" fill-rule="evenodd" fill-opacity="1" /><path clip-path="url(#clip040)" d="M 0 0 M2025.79 251.465 L2025.79 258.826 L2034.56 258.826 L2034.56 262.137 L2025.79 262.137 L2025.79 276.211 Q2025.79 279.382 2026.65 280.285 Q2027.53 281.187 2030.19 281.187 L2034.56 281.187 L2034.56 284.752 L2030.19 284.752 Q2025.26 284.752 2023.38 282.923 Q2021.51 281.072 2021.51 276.211 L2021.51 262.137 L2018.38 262.137 L2018.38 258.826 L2021.51 258.826 L2021.51 251.465 L2025.79 251.465 Z" fill="#000000" fill-rule="evenodd" fill-opacity="1" /><path clip-path="url(#clip040)" d="M 0 0 M2061.21 270.724 L2061.21 272.808 L2041.62 272.808 Q2041.9 277.206 2044.26 279.521 Q2046.65 281.812 2050.88 281.812 Q2053.34 281.812 2055.63 281.21 Q2057.94 280.609 2060.21 279.405 L2060.21 283.433 Q2057.92 284.405 2055.51 284.914 Q2053.1 285.423 2050.63 285.423 Q2044.42 285.423 2040.79 281.812 Q2037.18 278.201 2037.18 272.044 Q2037.18 265.678 2040.6 261.951 Q2044.05 258.201 2049.89 258.201 Q2055.12 258.201 2058.15 261.581 Q2061.21 264.937 2061.21 270.724 M2056.95 269.474 Q2056.9 265.979 2054.98 263.896 Q2053.08 261.812 2049.93 261.812 Q2046.37 261.812 2044.22 263.826 Q2042.09 265.84 2041.76 269.498 L2056.95 269.474 Z" fill="#000000" fill-rule="evenodd" fill-opacity="1" /><path clip-path="url(#clip040)" d="M 0 0 M2065.86 250.192 L2072.83 250.192 L2081.65 273.711 L2090.51 250.192 L2097.48 250.192 L2097.48 284.752 L2092.92 284.752 L2092.92 254.405 L2084.01 278.109 L2079.31 278.109 L2070.4 254.405 L2070.4 284.752 L2065.86 284.752 L2065.86 250.192 Z" fill="#000000" fill-rule="evenodd" fill-opacity="1" /><path clip-path="url(#clip040)" d="M 0 0 M2113.73 271.72 Q2108.57 271.72 2106.58 272.9 Q2104.59 274.081 2104.59 276.928 Q2104.59 279.197 2106.07 280.539 Q2107.57 281.859 2110.14 281.859 Q2113.68 281.859 2115.81 279.359 Q2117.96 276.836 2117.96 272.669 L2117.96 271.72 L2113.73 271.72 M2122.22 269.961 L2122.22 284.752 L2117.96 284.752 L2117.96 280.817 Q2116.51 283.178 2114.33 284.312 Q2112.15 285.423 2109.01 285.423 Q2105.03 285.423 2102.66 283.201 Q2100.33 280.956 2100.33 277.206 Q2100.33 272.831 2103.24 270.609 Q2106.18 268.386 2111.99 268.386 L2117.96 268.386 L2117.96 267.97 Q2117.96 265.03 2116.02 263.433 Q2114.1 261.812 2110.6 261.812 Q2108.38 261.812 2106.28 262.345 Q2104.17 262.877 2102.22 263.942 L2102.22 260.007 Q2104.56 259.104 2106.76 258.664 Q2108.96 258.201 2111.04 258.201 Q2116.67 258.201 2119.45 261.118 Q2122.22 264.035 2122.22 269.961 Z" fill="#000000" fill-rule="evenodd" fill-opacity="1" /><path clip-path="url(#clip040)" d="M 0 0 M2145.35 259.822 L2145.35 263.803 Q2143.54 262.808 2141.71 262.322 Q2139.91 261.812 2138.06 261.812 Q2133.91 261.812 2131.62 264.451 Q2129.33 267.067 2129.33 271.812 Q2129.33 276.558 2131.62 279.197 Q2133.91 281.812 2138.06 281.812 Q2139.91 281.812 2141.71 281.326 Q2143.54 280.817 2145.35 279.822 L2145.35 283.757 Q2143.57 284.59 2141.65 285.007 Q2139.75 285.423 2137.59 285.423 Q2131.74 285.423 2128.29 281.743 Q2124.84 278.062 2124.84 271.812 Q2124.84 265.47 2128.31 261.836 Q2131.81 258.201 2137.87 258.201 Q2139.84 258.201 2141.71 258.618 Q2143.59 259.012 2145.35 259.822 Z" fill="#000000" fill-rule="evenodd" fill-opacity="1" /><path clip-path="url(#clip040)" d="M 0 0 M2171.37 269.104 L2171.37 284.752 L2167.11 284.752 L2167.11 269.243 Q2167.11 265.562 2165.67 263.734 Q2164.24 261.905 2161.37 261.905 Q2157.92 261.905 2155.93 264.104 Q2153.94 266.303 2153.94 270.099 L2153.94 284.752 L2149.65 284.752 L2149.65 248.734 L2153.94 248.734 L2153.94 262.854 Q2155.46 260.516 2157.52 259.359 Q2159.61 258.201 2162.32 258.201 Q2166.78 258.201 2169.08 260.979 Q2171.37 263.734 2171.37 269.104 Z" fill="#000000" fill-rule="evenodd" fill-opacity="1" /><path clip-path="url(#clip040)" d="M 0 0 M2175.83 258.826 L2180.09 258.826 L2180.09 284.752 L2175.83 284.752 L2175.83 258.826 M2175.83 248.734 L2180.09 248.734 L2180.09 254.127 L2175.83 254.127 L2175.83 248.734 Z" fill="#000000" fill-rule="evenodd" fill-opacity="1" /><path clip-path="url(#clip040)" d="M 0 0 M2206.11 269.104 L2206.11 284.752 L2201.85 284.752 L2201.85 269.243 Q2201.85 265.562 2200.42 263.734 Q2198.98 261.905 2196.11 261.905 Q2192.66 261.905 2190.67 264.104 Q2188.68 266.303 2188.68 270.099 L2188.68 284.752 L2184.4 284.752 L2184.4 258.826 L2188.68 258.826 L2188.68 262.854 Q2190.21 260.516 2192.27 259.359 Q2194.35 258.201 2197.06 258.201 Q2201.53 258.201 2203.82 260.979 Q2206.11 263.734 2206.11 269.104 Z" fill="#000000" fill-rule="evenodd" fill-opacity="1" /><path clip-path="url(#clip040)" d="M 0 0 M2232.76 270.724 L2232.76 272.808 L2213.17 272.808 Q2213.45 277.206 2215.81 279.521 Q2218.2 281.812 2222.43 281.812 Q2224.89 281.812 2227.18 281.21 Q2229.49 280.609 2231.76 279.405 L2231.76 283.433 Q2229.47 284.405 2227.06 284.914 Q2224.65 285.423 2222.18 285.423 Q2215.97 285.423 2212.34 281.812 Q2208.73 278.201 2208.73 272.044 Q2208.73 265.678 2212.15 261.951 Q2215.6 258.201 2221.44 258.201 Q2226.67 258.201 2229.7 261.581 Q2232.76 264.937 2232.76 270.724 M2228.5 269.474 Q2228.45 265.979 2226.53 263.896 Q2224.63 261.812 2221.48 261.812 Q2217.92 261.812 2215.77 263.826 Q2213.64 265.84 2213.31 269.498 L2228.5 269.474 Z" fill="#000000" fill-rule="evenodd" fill-opacity="1" /><polyline clip-path="url(#clip040)" style="stroke:#e26f46; stroke-width:4; stroke-opacity:1; fill:none" points="
  1736.89,327.952 1880.89,327.952 
  "/>
<path clip-path="url(#clip040)" d="M 0 0 M1928.91 331.204 L1928.91 333.288 L1909.33 333.288 Q1909.61 337.686 1911.97 340.001 Q1914.35 342.292 1918.59 342.292 Q1921.04 342.292 1923.34 341.69 Q1925.65 341.089 1927.92 339.885 L1927.92 343.913 Q1925.63 344.885 1923.22 345.394 Q1920.81 345.903 1918.34 345.903 Q1912.13 345.903 1908.5 342.292 Q1904.89 338.681 1904.89 332.524 Q1904.89 326.158 1908.31 322.431 Q1911.76 318.681 1917.6 318.681 Q1922.83 318.681 1925.86 322.061 Q1928.91 325.417 1928.91 331.204 M1924.66 329.954 Q1924.61 326.459 1922.69 324.376 Q1920.79 322.292 1917.64 322.292 Q1914.08 322.292 1911.92 324.306 Q1909.79 326.32 1909.47 329.978 L1924.66 329.954 Z" fill="#000000" fill-rule="evenodd" fill-opacity="1" /><path clip-path="url(#clip040)" d="M 0 0 M1953.57 324.283 Q1955.16 321.413 1957.39 320.047 Q1959.61 318.681 1962.62 318.681 Q1966.67 318.681 1968.87 321.529 Q1971.07 324.353 1971.07 329.584 L1971.07 345.232 L1966.79 345.232 L1966.79 329.723 Q1966.79 325.996 1965.47 324.191 Q1964.15 322.385 1961.44 322.385 Q1958.13 322.385 1956.21 324.584 Q1954.29 326.783 1954.29 330.579 L1954.29 345.232 L1950 345.232 L1950 329.723 Q1950 325.973 1948.68 324.191 Q1947.36 322.385 1944.61 322.385 Q1941.35 322.385 1939.42 324.607 Q1937.5 326.806 1937.5 330.579 L1937.5 345.232 L1933.22 345.232 L1933.22 319.306 L1937.5 319.306 L1937.5 323.334 Q1938.96 320.95 1941 319.816 Q1943.04 318.681 1945.84 318.681 Q1948.66 318.681 1950.63 320.117 Q1952.62 321.552 1953.57 324.283 Z" fill="#000000" fill-rule="evenodd" fill-opacity="1" /><path clip-path="url(#clip040)" d="M 0 0 M1979.66 341.343 L1979.66 355.093 L1975.37 355.093 L1975.37 319.306 L1979.66 319.306 L1979.66 323.242 Q1981 320.927 1983.04 319.816 Q1985.1 318.681 1987.94 318.681 Q1992.66 318.681 1995.6 322.431 Q1998.57 326.181 1998.57 332.292 Q1998.57 338.403 1995.6 342.153 Q1992.66 345.903 1987.94 345.903 Q1985.1 345.903 1983.04 344.792 Q1981 343.658 1979.66 341.343 M1994.15 332.292 Q1994.15 327.593 1992.2 324.931 Q1990.28 322.246 1986.9 322.246 Q1983.52 322.246 1981.58 324.931 Q1979.66 327.593 1979.66 332.292 Q1979.66 336.991 1981.58 339.677 Q1983.52 342.339 1986.9 342.339 Q1990.28 342.339 1992.2 339.677 Q1994.15 336.991 1994.15 332.292 Z" fill="#000000" fill-rule="evenodd" fill-opacity="1" /><path clip-path="url(#clip040)" d="M 0 0 M2003.03 319.306 L2007.29 319.306 L2007.29 345.232 L2003.03 345.232 L2003.03 319.306 M2003.03 309.214 L2007.29 309.214 L2007.29 314.607 L2003.03 314.607 L2003.03 309.214 Z" fill="#000000" fill-rule="evenodd" fill-opacity="1" /><path clip-path="url(#clip040)" d="M 0 0 M2026.78 323.288 Q2026.07 322.871 2025.21 322.686 Q2024.38 322.478 2023.36 322.478 Q2019.75 322.478 2017.8 324.839 Q2015.88 327.177 2015.88 331.575 L2015.88 345.232 L2011.6 345.232 L2011.6 319.306 L2015.88 319.306 L2015.88 323.334 Q2017.22 320.973 2019.38 319.839 Q2021.53 318.681 2024.61 318.681 Q2025.05 318.681 2025.58 318.751 Q2026.11 318.797 2026.76 318.913 L2026.78 323.288 Z" fill="#000000" fill-rule="evenodd" fill-opacity="1" /><path clip-path="url(#clip040)" d="M 0 0 M2031.25 319.306 L2035.51 319.306 L2035.51 345.232 L2031.25 345.232 L2031.25 319.306 M2031.25 309.214 L2035.51 309.214 L2035.51 314.607 L2031.25 314.607 L2031.25 309.214 Z" fill="#000000" fill-rule="evenodd" fill-opacity="1" /><path clip-path="url(#clip040)" d="M 0 0 M2058.64 320.302 L2058.64 324.283 Q2056.83 323.288 2055 322.802 Q2053.2 322.292 2051.34 322.292 Q2047.2 322.292 2044.91 324.931 Q2042.62 327.547 2042.62 332.292 Q2042.62 337.038 2044.91 339.677 Q2047.2 342.292 2051.34 342.292 Q2053.2 342.292 2055 341.806 Q2056.83 341.297 2058.64 340.302 L2058.64 344.237 Q2056.85 345.07 2054.93 345.487 Q2053.03 345.903 2050.88 345.903 Q2045.03 345.903 2041.58 342.223 Q2038.13 338.542 2038.13 332.292 Q2038.13 325.95 2041.6 322.316 Q2045.09 318.681 2051.16 318.681 Q2053.13 318.681 2055 319.098 Q2056.88 319.492 2058.64 320.302 Z" fill="#000000" fill-rule="evenodd" fill-opacity="1" /><path clip-path="url(#clip040)" d="M 0 0 M2074.89 332.2 Q2069.72 332.2 2067.73 333.38 Q2065.74 334.561 2065.74 337.408 Q2065.74 339.677 2067.22 341.019 Q2068.73 342.339 2071.3 342.339 Q2074.84 342.339 2076.97 339.839 Q2079.12 337.316 2079.12 333.149 L2079.12 332.2 L2074.89 332.2 M2083.38 330.441 L2083.38 345.232 L2079.12 345.232 L2079.12 341.297 Q2077.66 343.658 2075.49 344.792 Q2073.31 345.903 2070.16 345.903 Q2066.18 345.903 2063.82 343.681 Q2061.48 341.436 2061.48 337.686 Q2061.48 333.311 2064.4 331.089 Q2067.34 328.866 2073.15 328.866 L2079.12 328.866 L2079.12 328.45 Q2079.12 325.51 2077.18 323.913 Q2075.26 322.292 2071.76 322.292 Q2069.54 322.292 2067.43 322.825 Q2065.33 323.357 2063.38 324.422 L2063.38 320.487 Q2065.72 319.584 2067.92 319.144 Q2070.12 318.681 2072.2 318.681 Q2077.83 318.681 2080.6 321.598 Q2083.38 324.515 2083.38 330.441 Z" fill="#000000" fill-rule="evenodd" fill-opacity="1" /><path clip-path="url(#clip040)" d="M 0 0 M2087.85 309.214 L2092.11 309.214 L2092.11 345.232 L2087.85 345.232 L2087.85 309.214 Z" fill="#000000" fill-rule="evenodd" fill-opacity="1" /></svg>
