<?xml version="1.0" encoding="utf-8"?>
<svg xmlns="http://www.w3.org/2000/svg" xmlns:xlink="http://www.w3.org/1999/xlink" width="600" height="400" viewBox="0 0 2400 1600">
<defs>
  <clipPath id="clip840">
    <rect x="0" y="0" width="2400" height="1600"/>
  </clipPath>
</defs>
<path clip-path="url(#clip840)" d="
M0 1600 L2400 1600 L2400 0 L0 0  Z
  " fill="#ffffff" fill-rule="evenodd" fill-opacity="1"/>
<defs>
  <clipPath id="clip841">
    <rect x="480" y="0" width="1681" height="1600"/>
  </clipPath>
</defs>
<path clip-path="url(#clip840)" d="
M238.13 1423.18 L2352.76 1423.18 L2352.76 47.2441 L238.13 47.2441  Z
  " fill="#ffffff" fill-rule="evenodd" fill-opacity="1"/>
<defs>
  <clipPath id="clip842">
    <rect x="238" y="47" width="2116" height="1377"/>
  </clipPath>
</defs>
<polyline clip-path="url(#clip842)" style="stroke:#000000; stroke-width:2; stroke-opacity:0.1; fill:none" points="
  297.978,1423.18 297.978,47.2441 
  "/>
<polyline clip-path="url(#clip842)" style="stroke:#000000; stroke-width:2; stroke-opacity:0.1; fill:none" points="
  867.958,1423.18 867.958,47.2441 
  "/>
<polyline clip-path="url(#clip842)" style="stroke:#000000; stroke-width:2; stroke-opacity:0.1; fill:none" points="
  1437.94,1423.18 1437.94,47.2441 
  "/>
<polyline clip-path="url(#clip842)" style="stroke:#000000; stroke-width:2; stroke-opacity:0.1; fill:none" points="
  2007.92,1423.18 2007.92,47.2441 
  "/>
<polyline clip-path="url(#clip842)" style="stroke:#000000; stroke-width:2; stroke-opacity:0.1; fill:none" points="
  238.13,1263.67 2352.76,1263.67 
  "/>
<polyline clip-path="url(#clip842)" style="stroke:#000000; stroke-width:2; stroke-opacity:0.1; fill:none" points="
  238.13,997.355 2352.76,997.355 
  "/>
<polyline clip-path="url(#clip842)" style="stroke:#000000; stroke-width:2; stroke-opacity:0.1; fill:none" points="
  238.13,731.041 2352.76,731.041 
  "/>
<polyline clip-path="url(#clip842)" style="stroke:#000000; stroke-width:2; stroke-opacity:0.1; fill:none" points="
  238.13,464.726 2352.76,464.726 
  "/>
<polyline clip-path="url(#clip842)" style="stroke:#000000; stroke-width:2; stroke-opacity:0.1; fill:none" points="
  238.13,198.412 2352.76,198.412 
  "/>
<polyline clip-path="url(#clip840)" style="stroke:#000000; stroke-width:4; stroke-opacity:1; fill:none" points="
  238.13,1423.18 2352.76,1423.18 
  "/>
<polyline clip-path="url(#clip840)" style="stroke:#000000; stroke-width:4; stroke-opacity:1; fill:none" points="
  238.13,1423.18 238.13,47.2441 
  "/>
<polyline clip-path="url(#clip840)" style="stroke:#000000; stroke-width:4; stroke-opacity:1; fill:none" points="
  297.978,1423.18 297.978,1406.67 
  "/>
<polyline clip-path="url(#clip840)" style="stroke:#000000; stroke-width:4; stroke-opacity:1; fill:none" points="
  867.958,1423.18 867.958,1406.67 
  "/>
<polyline clip-path="url(#clip840)" style="stroke:#000000; stroke-width:4; stroke-opacity:1; fill:none" points="
  1437.94,1423.18 1437.94,1406.67 
  "/>
<polyline clip-path="url(#clip840)" style="stroke:#000000; stroke-width:4; stroke-opacity:1; fill:none" points="
  2007.92,1423.18 2007.92,1406.67 
  "/>
<polyline clip-path="url(#clip840)" style="stroke:#000000; stroke-width:4; stroke-opacity:1; fill:none" points="
  238.13,1263.67 263.506,1263.67 
  "/>
<polyline clip-path="url(#clip840)" style="stroke:#000000; stroke-width:4; stroke-opacity:1; fill:none" points="
  238.13,997.355 263.506,997.355 
  "/>
<polyline clip-path="url(#clip840)" style="stroke:#000000; stroke-width:4; stroke-opacity:1; fill:none" points="
  238.13,731.041 263.506,731.041 
  "/>
<polyline clip-path="url(#clip840)" style="stroke:#000000; stroke-width:4; stroke-opacity:1; fill:none" points="
  238.13,464.726 263.506,464.726 
  "/>
<polyline clip-path="url(#clip840)" style="stroke:#000000; stroke-width:4; stroke-opacity:1; fill:none" points="
  238.13,198.412 263.506,198.412 
  "/>
<path clip-path="url(#clip840)" d="M 0 0 M297.978 1445.17 Q294.367 1445.17 292.538 1448.74 Q290.733 1452.28 290.733 1459.41 Q290.733 1466.51 292.538 1470.08 Q294.367 1473.62 297.978 1473.62 Q301.612 1473.62 303.418 1470.08 Q305.246 1466.51 305.246 1459.41 Q305.246 1452.28 303.418 1448.74 Q301.612 1445.17 297.978 1445.17 M297.978 1441.47 Q303.788 1441.47 306.844 1446.07 Q309.922 1450.66 309.922 1459.41 Q309.922 1468.13 306.844 1472.74 Q303.788 1477.32 297.978 1477.32 Q292.168 1477.32 289.089 1472.74 Q286.034 1468.13 286.034 1459.41 Q286.034 1450.66 289.089 1446.07 Q292.168 1441.47 297.978 1441.47 Z" fill="#000000" fill-rule="evenodd" fill-opacity="1" /><path clip-path="url(#clip840)" d="M 0 0 M831.326 1472.72 L838.965 1472.72 L838.965 1446.35 L830.655 1448.02 L830.655 1443.76 L838.919 1442.09 L843.595 1442.09 L843.595 1472.72 L851.234 1472.72 L851.234 1476.65 L831.326 1476.65 L831.326 1472.72 Z" fill="#000000" fill-rule="evenodd" fill-opacity="1" /><path clip-path="url(#clip840)" d="M 0 0 M866.303 1445.17 Q862.692 1445.17 860.863 1448.74 Q859.058 1452.28 859.058 1459.41 Q859.058 1466.51 860.863 1470.08 Q862.692 1473.62 866.303 1473.62 Q869.937 1473.62 871.743 1470.08 Q873.571 1466.51 873.571 1459.41 Q873.571 1452.28 871.743 1448.74 Q869.937 1445.17 866.303 1445.17 M866.303 1441.47 Q872.113 1441.47 875.169 1446.07 Q878.247 1450.66 878.247 1459.41 Q878.247 1468.13 875.169 1472.74 Q872.113 1477.32 866.303 1477.32 Q860.493 1477.32 857.414 1472.74 Q854.359 1468.13 854.359 1459.41 Q854.359 1450.66 857.414 1446.07 Q860.493 1441.47 866.303 1441.47 Z" fill="#000000" fill-rule="evenodd" fill-opacity="1" /><path clip-path="url(#clip840)" d="M 0 0 M893.317 1445.17 Q889.706 1445.17 887.877 1448.74 Q886.071 1452.28 886.071 1459.41 Q886.071 1466.51 887.877 1470.08 Q889.706 1473.62 893.317 1473.62 Q896.951 1473.62 898.756 1470.08 Q900.585 1466.51 900.585 1459.41 Q900.585 1452.28 898.756 1448.74 Q896.951 1445.17 893.317 1445.17 M893.317 1441.47 Q899.127 1441.47 902.182 1446.07 Q905.261 1450.66 905.261 1459.41 Q905.261 1468.13 902.182 1472.74 Q899.127 1477.32 893.317 1477.32 Q887.506 1477.32 884.428 1472.74 Q881.372 1468.13 881.372 1459.41 Q881.372 1450.66 884.428 1446.07 Q887.506 1441.47 893.317 1441.47 Z" fill="#000000" fill-rule="evenodd" fill-opacity="1" /><path clip-path="url(#clip840)" d="M 0 0 M1405.58 1472.72 L1421.9 1472.72 L1421.9 1476.65 L1399.95 1476.65 L1399.95 1472.72 Q1402.61 1469.96 1407.2 1465.33 Q1411.8 1460.68 1412.98 1459.34 Q1415.23 1456.81 1416.11 1455.08 Q1417.01 1453.32 1417.01 1451.63 Q1417.01 1448.87 1415.07 1447.14 Q1413.15 1445.4 1410.04 1445.4 Q1407.85 1445.4 1405.39 1446.17 Q1402.96 1446.93 1400.18 1448.48 L1400.18 1443.76 Q1403.01 1442.62 1405.46 1442.05 Q1407.91 1441.47 1409.95 1441.47 Q1415.32 1441.47 1418.52 1444.15 Q1421.71 1446.84 1421.71 1451.33 Q1421.71 1453.46 1420.9 1455.38 Q1420.11 1457.28 1418.01 1459.87 Q1417.43 1460.54 1414.33 1463.76 Q1411.23 1466.95 1405.58 1472.72 Z" fill="#000000" fill-rule="evenodd" fill-opacity="1" /><path clip-path="url(#clip840)" d="M 0 0 M1436.97 1445.17 Q1433.35 1445.17 1431.53 1448.74 Q1429.72 1452.28 1429.72 1459.41 Q1429.72 1466.51 1431.53 1470.08 Q1433.35 1473.62 1436.97 1473.62 Q1440.6 1473.62 1442.41 1470.08 Q1444.23 1466.51 1444.23 1459.41 Q1444.23 1452.28 1442.41 1448.74 Q1440.6 1445.17 1436.97 1445.17 M1436.97 1441.47 Q1442.78 1441.47 1445.83 1446.07 Q1448.91 1450.66 1448.91 1459.41 Q1448.91 1468.13 1445.83 1472.74 Q1442.78 1477.32 1436.97 1477.32 Q1431.16 1477.32 1428.08 1472.74 Q1425.02 1468.13 1425.02 1459.41 Q1425.02 1450.66 1428.08 1446.07 Q1431.16 1441.47 1436.97 1441.47 Z" fill="#000000" fill-rule="evenodd" fill-opacity="1" /><path clip-path="url(#clip840)" d="M 0 0 M1463.98 1445.17 Q1460.37 1445.17 1458.54 1448.74 Q1456.73 1452.28 1456.73 1459.41 Q1456.73 1466.51 1458.54 1470.08 Q1460.37 1473.62 1463.98 1473.62 Q1467.61 1473.62 1469.42 1470.08 Q1471.25 1466.51 1471.25 1459.41 Q1471.25 1452.28 1469.42 1448.74 Q1467.61 1445.17 1463.98 1445.17 M1463.98 1441.47 Q1469.79 1441.47 1472.85 1446.07 Q1475.92 1450.66 1475.92 1459.41 Q1475.92 1468.13 1472.85 1472.74 Q1469.79 1477.32 1463.98 1477.32 Q1458.17 1477.32 1455.09 1472.74 Q1452.04 1468.13 1452.04 1459.41 Q1452.04 1450.66 1455.09 1446.07 Q1458.17 1441.47 1463.98 1441.47 Z" fill="#000000" fill-rule="evenodd" fill-opacity="1" /><path clip-path="url(#clip840)" d="M 0 0 M1985.15 1458.02 Q1988.51 1458.74 1990.38 1461 Q1992.28 1463.27 1992.28 1466.61 Q1992.28 1471.72 1988.76 1474.52 Q1985.24 1477.32 1978.76 1477.32 Q1976.59 1477.32 1974.27 1476.88 Q1971.98 1476.47 1969.53 1475.61 L1969.53 1471.1 Q1971.47 1472.23 1973.79 1472.81 Q1976.1 1473.39 1978.62 1473.39 Q1983.02 1473.39 1985.31 1471.65 Q1987.63 1469.92 1987.63 1466.61 Q1987.63 1463.55 1985.48 1461.84 Q1983.35 1460.1 1979.53 1460.1 L1975.5 1460.1 L1975.5 1456.26 L1979.71 1456.26 Q1983.16 1456.26 1984.99 1454.89 Q1986.82 1453.5 1986.82 1450.91 Q1986.82 1448.25 1984.92 1446.84 Q1983.05 1445.4 1979.53 1445.4 Q1977.61 1445.4 1975.41 1445.82 Q1973.21 1446.24 1970.57 1447.11 L1970.57 1442.95 Q1973.23 1442.21 1975.55 1441.84 Q1977.88 1441.47 1979.94 1441.47 Q1985.27 1441.47 1988.37 1443.9 Q1991.47 1446.3 1991.47 1450.43 Q1991.47 1453.3 1989.83 1455.29 Q1988.18 1457.25 1985.15 1458.02 Z" fill="#000000" fill-rule="evenodd" fill-opacity="1" /><path clip-path="url(#clip840)" d="M 0 0 M2007.35 1445.17 Q2003.74 1445.17 2001.91 1448.74 Q2000.11 1452.28 2000.11 1459.41 Q2000.11 1466.51 2001.91 1470.08 Q2003.74 1473.62 2007.35 1473.62 Q2010.99 1473.62 2012.79 1470.08 Q2014.62 1466.51 2014.62 1459.41 Q2014.62 1452.28 2012.79 1448.74 Q2010.99 1445.17 2007.35 1445.17 M2007.35 1441.47 Q2013.16 1441.47 2016.22 1446.07 Q2019.3 1450.66 2019.3 1459.41 Q2019.3 1468.13 2016.22 1472.74 Q2013.16 1477.32 2007.35 1477.32 Q2001.54 1477.32 1998.46 1472.74 Q1995.41 1468.13 1995.41 1459.41 Q1995.41 1450.66 1998.46 1446.07 Q2001.54 1441.47 2007.35 1441.47 Z" fill="#000000" fill-rule="evenodd" fill-opacity="1" /><path clip-path="url(#clip840)" d="M 0 0 M2034.36 1445.17 Q2030.75 1445.17 2028.92 1448.74 Q2027.12 1452.28 2027.12 1459.41 Q2027.12 1466.51 2028.92 1470.08 Q2030.75 1473.62 2034.36 1473.62 Q2038 1473.62 2039.8 1470.08 Q2041.63 1466.51 2041.63 1459.41 Q2041.63 1452.28 2039.8 1448.74 Q2038 1445.17 2034.36 1445.17 M2034.36 1441.47 Q2040.17 1441.47 2043.23 1446.07 Q2046.31 1450.66 2046.31 1459.41 Q2046.31 1468.13 2043.23 1472.74 Q2040.17 1477.32 2034.36 1477.32 Q2028.55 1477.32 2025.48 1472.74 Q2022.42 1468.13 2022.42 1459.41 Q2022.42 1450.66 2025.48 1446.07 Q2028.55 1441.47 2034.36 1441.47 Z" fill="#000000" fill-rule="evenodd" fill-opacity="1" /><path clip-path="url(#clip840)" d="M 0 0 M138.205 1249.47 Q134.593 1249.47 132.765 1253.03 Q130.959 1256.58 130.959 1263.7 Q130.959 1270.81 132.765 1274.38 Q134.593 1277.92 138.205 1277.92 Q141.839 1277.92 143.644 1274.38 Q145.473 1270.81 145.473 1263.7 Q145.473 1256.58 143.644 1253.03 Q141.839 1249.47 138.205 1249.47 M138.205 1245.77 Q144.015 1245.77 147.07 1250.37 Q150.149 1254.95 150.149 1263.7 Q150.149 1272.43 147.07 1277.04 Q144.015 1281.62 138.205 1281.62 Q132.394 1281.62 129.316 1277.04 Q126.26 1272.43 126.26 1263.7 Q126.26 1254.95 129.316 1250.37 Q132.394 1245.77 138.205 1245.77 Z" fill="#000000" fill-rule="evenodd" fill-opacity="1" /><path clip-path="url(#clip840)" d="M 0 0 M155.218 1275.07 L160.103 1275.07 L160.103 1280.95 L155.218 1280.95 L155.218 1275.07 Z" fill="#000000" fill-rule="evenodd" fill-opacity="1" /><path clip-path="url(#clip840)" d="M 0 0 M175.172 1249.47 Q171.561 1249.47 169.732 1253.03 Q167.927 1256.58 167.927 1263.7 Q167.927 1270.81 169.732 1274.38 Q171.561 1277.92 175.172 1277.92 Q178.806 1277.92 180.612 1274.38 Q182.44 1270.81 182.44 1263.7 Q182.44 1256.58 180.612 1253.03 Q178.806 1249.47 175.172 1249.47 M175.172 1245.77 Q180.982 1245.77 184.038 1250.37 Q187.116 1254.95 187.116 1263.7 Q187.116 1272.43 184.038 1277.04 Q180.982 1281.62 175.172 1281.62 Q169.362 1281.62 166.283 1277.04 Q163.228 1272.43 163.228 1263.7 Q163.228 1254.95 166.283 1250.37 Q169.362 1245.77 175.172 1245.77 Z" fill="#000000" fill-rule="evenodd" fill-opacity="1" /><path clip-path="url(#clip840)" d="M 0 0 M202.186 1249.47 Q198.575 1249.47 196.746 1253.03 Q194.94 1256.58 194.94 1263.7 Q194.94 1270.81 196.746 1274.38 Q198.575 1277.92 202.186 1277.92 Q205.82 1277.92 207.625 1274.38 Q209.454 1270.81 209.454 1263.7 Q209.454 1256.58 207.625 1253.03 Q205.82 1249.47 202.186 1249.47 M202.186 1245.77 Q207.996 1245.77 211.051 1250.37 Q214.13 1254.95 214.13 1263.7 Q214.13 1272.43 211.051 1277.04 Q207.996 1281.62 202.186 1281.62 Q196.376 1281.62 193.297 1277.04 Q190.241 1272.43 190.241 1263.7 Q190.241 1254.95 193.297 1250.37 Q196.376 1245.77 202.186 1245.77 Z" fill="#000000" fill-rule="evenodd" fill-opacity="1" /><path clip-path="url(#clip840)" d="M 0 0 M140.797 983.154 Q137.186 983.154 135.357 986.719 Q133.552 990.261 133.552 997.39 Q133.552 1004.5 135.357 1008.06 Q137.186 1011.6 140.797 1011.6 Q144.431 1011.6 146.237 1008.06 Q148.066 1004.5 148.066 997.39 Q148.066 990.261 146.237 986.719 Q144.431 983.154 140.797 983.154 M140.797 979.45 Q146.607 979.45 149.663 984.057 Q152.741 988.64 152.741 997.39 Q152.741 1006.12 149.663 1010.72 Q146.607 1015.31 140.797 1015.31 Q134.987 1015.31 131.908 1010.72 Q128.853 1006.12 128.853 997.39 Q128.853 988.64 131.908 984.057 Q134.987 979.45 140.797 979.45 Z" fill="#000000" fill-rule="evenodd" fill-opacity="1" /><path clip-path="url(#clip840)" d="M 0 0 M157.811 1008.76 L162.695 1008.76 L162.695 1014.64 L157.811 1014.64 L157.811 1008.76 Z" fill="#000000" fill-rule="evenodd" fill-opacity="1" /><path clip-path="url(#clip840)" d="M 0 0 M171.792 1010.7 L188.112 1010.7 L188.112 1014.64 L166.167 1014.64 L166.167 1010.7 Q168.829 1007.95 173.413 1003.32 Q178.019 998.663 179.2 997.321 Q181.445 994.798 182.325 993.061 Q183.227 991.302 183.227 989.612 Q183.227 986.858 181.283 985.122 Q179.362 983.386 176.26 983.386 Q174.061 983.386 171.607 984.15 Q169.177 984.913 166.399 986.464 L166.399 981.742 Q169.223 980.608 171.677 980.029 Q174.13 979.45 176.167 979.45 Q181.538 979.45 184.732 982.136 Q187.926 984.821 187.926 989.312 Q187.926 991.441 187.116 993.362 Q186.329 995.261 184.223 997.853 Q183.644 998.524 180.542 1001.74 Q177.44 1004.94 171.792 1010.7 Z" fill="#000000" fill-rule="evenodd" fill-opacity="1" /><path clip-path="url(#clip840)" d="M 0 0 M193.227 980.075 L211.584 980.075 L211.584 984.011 L197.51 984.011 L197.51 992.483 Q198.528 992.136 199.547 991.974 Q200.565 991.788 201.584 991.788 Q207.371 991.788 210.75 994.96 Q214.13 998.131 214.13 1003.55 Q214.13 1009.13 210.658 1012.23 Q207.186 1015.31 200.866 1015.31 Q198.69 1015.31 196.422 1014.94 Q194.176 1014.57 191.769 1013.83 L191.769 1009.13 Q193.852 1010.26 196.075 1010.82 Q198.297 1011.37 200.774 1011.37 Q204.778 1011.37 207.116 1009.27 Q209.454 1007.16 209.454 1003.55 Q209.454 999.936 207.116 997.83 Q204.778 995.724 200.774 995.724 Q198.899 995.724 197.024 996.14 Q195.172 996.557 193.227 997.436 L193.227 980.075 Z" fill="#000000" fill-rule="evenodd" fill-opacity="1" /><path clip-path="url(#clip840)" d="M 0 0 M139.2 716.839 Q135.589 716.839 133.76 720.404 Q131.955 723.946 131.955 731.076 Q131.955 738.182 133.76 741.747 Q135.589 745.288 139.2 745.288 Q142.834 745.288 144.64 741.747 Q146.468 738.182 146.468 731.076 Q146.468 723.946 144.64 720.404 Q142.834 716.839 139.2 716.839 M139.2 713.136 Q145.01 713.136 148.066 717.742 Q151.144 722.326 151.144 731.076 Q151.144 739.802 148.066 744.409 Q145.01 748.992 139.2 748.992 Q133.39 748.992 130.311 744.409 Q127.256 739.802 127.256 731.076 Q127.256 722.326 130.311 717.742 Q133.39 713.136 139.2 713.136 Z" fill="#000000" fill-rule="evenodd" fill-opacity="1" /><path clip-path="url(#clip840)" d="M 0 0 M156.214 742.441 L161.098 742.441 L161.098 748.321 L156.214 748.321 L156.214 742.441 Z" fill="#000000" fill-rule="evenodd" fill-opacity="1" /><path clip-path="url(#clip840)" d="M 0 0 M166.214 713.761 L184.57 713.761 L184.57 717.696 L170.496 717.696 L170.496 726.168 Q171.515 725.821 172.533 725.659 Q173.552 725.474 174.57 725.474 Q180.357 725.474 183.737 728.645 Q187.116 731.816 187.116 737.233 Q187.116 742.812 183.644 745.913 Q180.172 748.992 173.852 748.992 Q171.677 748.992 169.408 748.622 Q167.163 748.251 164.755 747.511 L164.755 742.812 Q166.839 743.946 169.061 744.501 Q171.283 745.057 173.76 745.057 Q177.765 745.057 180.102 742.95 Q182.44 740.844 182.44 737.233 Q182.44 733.622 180.102 731.515 Q177.765 729.409 173.76 729.409 Q171.885 729.409 170.01 729.826 Q168.158 730.242 166.214 731.122 L166.214 713.761 Z" fill="#000000" fill-rule="evenodd" fill-opacity="1" /><path clip-path="url(#clip840)" d="M 0 0 M202.186 716.839 Q198.575 716.839 196.746 720.404 Q194.94 723.946 194.94 731.076 Q194.94 738.182 196.746 741.747 Q198.575 745.288 202.186 745.288 Q205.82 745.288 207.625 741.747 Q209.454 738.182 209.454 731.076 Q209.454 723.946 207.625 720.404 Q205.82 716.839 202.186 716.839 M202.186 713.136 Q207.996 713.136 211.051 717.742 Q214.13 722.326 214.13 731.076 Q214.13 739.802 211.051 744.409 Q207.996 748.992 202.186 748.992 Q196.376 748.992 193.297 744.409 Q190.241 739.802 190.241 731.076 Q190.241 722.326 193.297 717.742 Q196.376 713.136 202.186 713.136 Z" fill="#000000" fill-rule="evenodd" fill-opacity="1" /><path clip-path="url(#clip840)" d="M 0 0 M140.103 450.525 Q136.492 450.525 134.663 454.09 Q132.857 457.631 132.857 464.761 Q132.857 471.867 134.663 475.432 Q136.492 478.974 140.103 478.974 Q143.737 478.974 145.542 475.432 Q147.371 471.867 147.371 464.761 Q147.371 457.631 145.542 454.09 Q143.737 450.525 140.103 450.525 M140.103 446.821 Q145.913 446.821 148.968 451.428 Q152.047 456.011 152.047 464.761 Q152.047 473.488 148.968 478.094 Q145.913 482.677 140.103 482.677 Q134.293 482.677 131.214 478.094 Q128.158 473.488 128.158 464.761 Q128.158 456.011 131.214 451.428 Q134.293 446.821 140.103 446.821 Z" fill="#000000" fill-rule="evenodd" fill-opacity="1" /><path clip-path="url(#clip840)" d="M 0 0 M157.116 476.127 L162.001 476.127 L162.001 482.006 L157.116 482.006 L157.116 476.127 Z" fill="#000000" fill-rule="evenodd" fill-opacity="1" /><path clip-path="url(#clip840)" d="M 0 0 M165.89 447.446 L188.112 447.446 L188.112 449.437 L175.565 482.006 L170.681 482.006 L182.487 451.381 L165.89 451.381 L165.89 447.446 Z" fill="#000000" fill-rule="evenodd" fill-opacity="1" /><path clip-path="url(#clip840)" d="M 0 0 M193.227 447.446 L211.584 447.446 L211.584 451.381 L197.51 451.381 L197.51 459.853 Q198.528 459.506 199.547 459.344 Q200.565 459.159 201.584 459.159 Q207.371 459.159 210.75 462.33 Q214.13 465.502 214.13 470.918 Q214.13 476.497 210.658 479.599 Q207.186 482.677 200.866 482.677 Q198.69 482.677 196.422 482.307 Q194.176 481.937 191.769 481.196 L191.769 476.497 Q193.852 477.631 196.075 478.187 Q198.297 478.742 200.774 478.742 Q204.778 478.742 207.116 476.636 Q209.454 474.529 209.454 470.918 Q209.454 467.307 207.116 465.201 Q204.778 463.094 200.774 463.094 Q198.899 463.094 197.024 463.511 Q195.172 463.928 193.227 464.807 L193.227 447.446 Z" fill="#000000" fill-rule="evenodd" fill-opacity="1" /><path clip-path="url(#clip840)" d="M 0 0 M130.242 211.756 L137.88 211.756 L137.88 185.391 L129.57 187.057 L129.57 182.798 L137.834 181.132 L142.51 181.132 L142.51 211.756 L150.149 211.756 L150.149 215.692 L130.242 215.692 L130.242 211.756 Z" fill="#000000" fill-rule="evenodd" fill-opacity="1" /><path clip-path="url(#clip840)" d="M 0 0 M155.218 209.812 L160.103 209.812 L160.103 215.692 L155.218 215.692 L155.218 209.812 Z" fill="#000000" fill-rule="evenodd" fill-opacity="1" /><path clip-path="url(#clip840)" d="M 0 0 M175.172 184.21 Q171.561 184.21 169.732 187.775 Q167.927 191.317 167.927 198.446 Q167.927 205.553 169.732 209.117 Q171.561 212.659 175.172 212.659 Q178.806 212.659 180.612 209.117 Q182.44 205.553 182.44 198.446 Q182.44 191.317 180.612 187.775 Q178.806 184.21 175.172 184.21 M175.172 180.507 Q180.982 180.507 184.038 185.113 Q187.116 189.696 187.116 198.446 Q187.116 207.173 184.038 211.779 Q180.982 216.363 175.172 216.363 Q169.362 216.363 166.283 211.779 Q163.228 207.173 163.228 198.446 Q163.228 189.696 166.283 185.113 Q169.362 180.507 175.172 180.507 Z" fill="#000000" fill-rule="evenodd" fill-opacity="1" /><path clip-path="url(#clip840)" d="M 0 0 M202.186 184.21 Q198.575 184.21 196.746 187.775 Q194.94 191.317 194.94 198.446 Q194.94 205.553 196.746 209.117 Q198.575 212.659 202.186 212.659 Q205.82 212.659 207.625 209.117 Q209.454 205.553 209.454 198.446 Q209.454 191.317 207.625 187.775 Q205.82 184.21 202.186 184.21 M202.186 180.507 Q207.996 180.507 211.051 185.113 Q214.13 189.696 214.13 198.446 Q214.13 207.173 211.051 211.779 Q207.996 216.363 202.186 216.363 Q196.376 216.363 193.297 211.779 Q190.241 207.173 190.241 198.446 Q190.241 189.696 193.297 185.113 Q196.376 180.507 202.186 180.507 Z" fill="#000000" fill-rule="evenodd" fill-opacity="1" /><path clip-path="url(#clip840)" d="M 0 0 M1312.06 1520.4 L1299.17 1537.74 L1312.73 1556.04 L1305.82 1556.04 L1295.44 1542.04 L1285.07 1556.04 L1278.16 1556.04 L1292.01 1537.39 L1279.34 1520.4 L1286.24 1520.4 L1295.7 1533.1 L1305.15 1520.4 L1312.06 1520.4 Z" fill="#000000" fill-rule="evenodd" fill-opacity="1" /><path clip-path="url(#clip840)" d="M 0 0 M70.212 745.095 Q76.6732 745.095 80.3653 742.453 Q84.0256 739.779 84.0256 735.132 Q84.0256 730.485 80.3653 727.812 Q76.6732 725.138 70.212 725.138 Q63.7508 725.138 60.0905 727.812 Q56.3984 730.485 56.3984 735.132 Q56.3984 739.779 60.0905 742.453 Q63.7508 745.095 70.212 745.095 M82.657 725.138 Q85.8398 726.984 87.3994 729.817 Q88.9272 732.618 88.9272 736.565 Q88.9272 743.026 83.771 747.1 Q78.6147 751.142 70.212 751.142 Q61.8093 751.142 56.6531 747.1 Q51.4968 743.026 51.4968 736.565 Q51.4968 732.618 53.0564 729.817 Q54.5842 726.984 57.7671 725.138 L52.3562 725.138 L52.3562 719.282 L101.563 719.282 L101.563 725.138 L82.657 725.138 Z" fill="#000000" fill-rule="evenodd" fill-opacity="1" /><polyline clip-path="url(#clip842)" style="stroke:#009af9; stroke-width:4; stroke-opacity:1; fill:none" points="
  297.978,1263.67 300.669,1263.67 305.771,1263.67 310.872,1263.67 313.563,1263.67 316.255,1263.67 321.356,1263.67 326.458,1263.67 329.149,1263.67 
  331.84,1263.67 336.941,1263.67 342.043,1263.67 344.734,1263.67 347.425,1263.67 352.527,1263.67 357.628,1263.67 360.32,1263.67 
  363.011,1263.67 368.112,1263.67 373.214,1263.67 375.905,1263.67 378.596,1263.67 383.698,1263.67 388.799,1263.67 391.49,1263.67 
  394.181,1263.67 399.283,1263.67 404.385,1263.67 407.076,1263.67 409.767,1263.67 414.868,1263.67 419.97,1263.67 422.661,1263.67 
  425.352,1263.67 430.454,1263.67 435.555,1263.67 438.246,1263.67 440.938,1263.67 446.039,1263.67 451.141,1263.67 453.832,1263.67 
  456.523,1263.67 461.625,1263.67 466.726,1263.67 469.417,1263.67 472.108,1263.67 477.21,1263.67 482.311,1263.67 485.003,1263.67 
  487.694,1263.67 492.795,1263.67 497.897,1263.67 500.588,1263.67 503.279,1263.67 508.381,1263.67 513.482,1263.67 516.173,1263.67 
  518.865,1263.67 523.966,1263.67 529.068,1263.67 531.759,1263.67 534.45,1263.67 539.552,1263.67 544.653,1263.67 547.344,1263.67 
  550.035,1263.67 555.137,1263.67 560.238,1263.67 562.93,1263.67 565.621,1263.67 570.722,1263.67 575.824,1263.67 578.515,1263.67 
  581.206,1263.67 586.308,1263.67 591.409,1263.67 594.1,1263.67 596.792,1263.67 601.893,1263.67 606.995,1263.67 609.686,1263.67 
  612.377,1263.67 617.478,1263.67 622.58,1263.67 625.271,1263.67 627.962,1263.67 633.064,1263.67 638.165,1263.67 640.857,1263.67 
  643.548,1263.67 648.649,1263.67 653.751,1263.67 656.442,1263.67 659.133,1263.67 664.235,1263.67 669.336,1263.67 672.027,1263.67 
  674.719,1263.67 679.82,1263.67 684.922,1263.67 687.613,1263.67 690.304,1263.67 695.405,1263.67 700.507,1263.67 703.198,1263.67 
  705.889,1263.67 710.991,1263.67 716.092,1263.67 718.784,1263.67 721.475,1263.67 726.576,198.412 731.678,198.412 734.369,198.412 
  737.06,198.412 742.162,198.412 747.263,198.412 749.954,198.412 752.645,198.412 757.747,198.412 762.849,198.412 765.54,198.412 
  768.231,198.412 773.332,198.412 778.434,198.412 781.125,198.412 783.816,198.412 788.918,198.412 794.019,198.412 796.71,198.412 
  799.402,198.412 804.503,198.412 809.605,198.412 812.296,198.412 814.987,198.412 820.089,198.412 825.19,198.412 827.881,198.412 
  830.572,198.412 835.674,198.412 840.775,198.412 843.467,198.412 846.158,198.412 851.259,198.412 856.361,198.412 859.052,198.412 
  861.743,198.412 866.845,198.412 871.946,198.412 874.637,198.412 877.329,198.412 882.43,198.412 887.532,198.412 890.223,198.412 
  892.914,198.412 898.016,198.412 903.117,198.412 905.808,198.412 908.499,198.412 913.601,198.412 918.702,198.412 921.394,198.412 
  924.085,198.412 929.186,198.412 934.288,198.412 936.979,198.412 939.67,198.412 944.772,198.412 949.873,198.412 952.564,198.412 
  955.256,198.412 960.357,198.412 965.459,198.412 968.15,198.412 970.841,198.412 975.942,198.412 981.044,198.412 983.735,198.412 
  986.426,198.412 991.528,198.412 996.629,198.412 999.321,198.412 1002.01,198.412 1007.11,198.412 1012.21,1263.67 1014.91,1263.67 
  1017.6,1263.67 1022.7,1263.67 1027.8,1263.67 1030.49,1263.67 1033.18,1263.67 1038.28,1263.67 1043.39,1263.67 1046.08,1263.67 
  1048.77,1263.67 1053.87,1263.67 1058.97,1263.67 1061.66,1263.67 1064.35,1263.67 1069.45,1263.67 1074.56,1263.67 1077.25,1263.67 
  1079.94,1263.67 1085.04,1263.67 1090.14,1263.67 1092.83,1263.67 1095.52,1263.67 1100.63,1263.67 1105.73,1263.67 1108.42,1263.67 
  1111.11,1263.67 1116.21,1263.67 1121.31,1263.67 1124,1263.67 1126.69,1263.67 1131.8,1263.67 1136.9,1263.67 1139.59,1263.67 
  1142.28,1263.67 1147.38,1263.67 1152.48,1263.67 1155.17,1263.67 1157.87,1263.67 1162.97,1263.67 1168.07,1263.67 1170.76,1263.67 
  1173.45,1263.67 1178.55,1263.67 1183.65,1263.67 1186.35,1263.67 1189.04,1263.67 1194.14,1263.67 1199.24,1263.67 1201.93,1263.67 
  1204.62,1263.67 1209.72,1263.67 1214.82,1263.67 1217.52,1263.67 1220.21,1263.67 1225.31,1263.67 1230.41,1263.67 1233.1,1263.67 
  1235.79,1263.67 1240.89,1263.67 1246,1263.67 1248.69,1263.67 1251.38,1263.67 1256.48,1263.67 1261.58,1263.67 1264.27,1263.67 
  1266.96,1263.67 1272.06,1263.67 1277.17,1263.67 1279.86,1263.67 1282.55,1263.67 1287.65,1263.67 1292.75,1263.67 1295.44,1263.67 
  1298.13,1263.67 1303.24,1263.67 1308.34,1263.67 1311.03,1263.67 1313.72,1263.67 1318.82,1263.67 1323.92,1263.67 1326.61,1263.67 
  1329.3,1263.67 1334.41,1263.67 1339.51,1263.67 1342.2,1263.67 1344.89,1263.67 1349.99,1263.67 1355.09,1263.67 1357.78,1263.67 
  1360.48,1263.67 1365.58,1263.67 1370.68,1263.67 1373.37,1263.67 1376.06,1263.67 1381.16,1263.67 1386.26,1263.67 1388.96,1263.67 
  1391.65,1263.67 1396.75,1263.67 1401.85,1263.67 1404.54,1263.67 1407.23,1263.67 1412.33,1263.67 1417.43,1263.67 1420.13,1263.67 
  1422.82,1263.67 1427.92,1263.67 1433.02,1263.67 1435.71,1263.67 1438.4,1263.67 1443.5,1263.67 1448.61,1263.67 1451.3,1263.67 
  1453.99,1263.67 1459.09,1263.67 1464.19,1263.67 1466.88,1263.67 1469.57,1263.67 1474.67,1263.67 1479.78,1263.67 1482.47,1263.67 
  1485.16,1263.67 1490.26,1263.67 1495.36,1263.67 1498.05,1263.67 1500.74,1263.67 1505.85,1263.67 1510.95,1263.67 1513.64,1263.67 
  1516.33,1263.67 1521.43,1263.67 1526.53,1263.67 1529.22,1263.67 1531.92,1263.67 1537.02,1263.67 1542.12,1263.67 1544.81,1263.67 
  1547.5,1263.67 1552.6,1263.67 1557.7,1263.67 1560.39,1263.67 1563.09,1263.67 1568.19,1263.67 1573.29,1263.67 1575.98,1263.67 
  1578.67,1263.67 1583.77,1263.67 1588.87,1263.67 1591.57,1263.67 1594.26,1263.67 1599.36,1263.67 1604.46,1263.67 1607.15,1263.67 
  1609.84,1263.67 1614.94,1263.67 1620.05,1263.67 1622.74,1263.67 1625.43,1263.67 1630.53,1263.67 1635.63,1263.67 1638.32,1263.67 
  1641.01,1263.67 1646.11,1263.67 1651.22,1263.67 1653.91,1263.67 1656.6,1263.67 1661.7,1263.67 1666.8,1263.67 1669.49,1263.67 
  1672.18,1263.67 1677.29,1263.67 1682.39,1263.67 1685.08,1263.67 1687.77,1263.67 1692.87,1263.67 1697.97,1263.67 1700.66,1263.67 
  1703.35,1263.67 1708.46,1263.67 1713.56,1263.67 1716.25,1263.67 1718.94,1263.67 1724.04,1263.67 1729.14,1263.67 1731.83,1263.67 
  1734.53,1263.67 1739.63,1263.67 1744.73,1263.67 1747.42,1263.67 1750.11,1263.67 1755.21,1263.67 1760.31,1263.67 1763,1263.67 
  1765.7,1263.67 1770.8,1263.67 1775.9,1263.67 1778.59,1263.67 1781.28,1263.67 1786.38,1263.67 1791.48,1263.67 1794.18,1263.67 
  1796.87,1263.67 1801.97,1263.67 1807.07,1263.67 1809.76,1263.67 1812.45,1263.67 1817.55,1263.67 1822.66,1263.67 1825.35,1263.67 
  1828.04,1263.67 1833.14,1263.67 1838.24,1263.67 1840.93,1263.67 1843.62,1263.67 1848.72,1263.67 1853.83,1263.67 1856.52,1263.67 
  1859.21,1263.67 1864.31,1263.67 1869.41,1263.67 1872.1,1263.67 1874.79,1263.67 1879.9,1263.67 1885,1263.67 1887.69,1263.67 
  1890.38,1263.67 1895.48,1263.67 1900.58,1263.67 1903.27,1263.67 1905.96,1263.67 1911.07,1263.67 1916.17,1263.67 1918.86,1263.67 
  1921.55,1263.67 1926.65,1263.67 1931.75,1263.67 1934.44,1263.67 1937.14,1263.67 1942.24,1263.67 1947.34,1263.67 1950.03,1263.67 
  1952.72,1263.67 1957.82,1263.67 1962.92,1263.67 1965.61,1263.67 1968.31,1263.67 1973.41,1263.67 1978.51,1263.67 1981.2,1263.67 
  1983.89,1263.67 1988.99,1263.67 1994.09,1263.67 1996.79,1263.67 1999.48,1263.67 2004.58,1263.67 2009.68,1263.67 2012.37,1263.67 
  2015.06,1263.67 2020.16,1263.67 2025.27,1263.67 2027.96,1263.67 2030.65,1263.67 2035.75,1263.67 2040.85,1263.67 2043.54,1263.67 
  2046.23,1263.67 2051.33,1263.67 2056.44,1263.67 2059.13,1263.67 2061.82,1263.67 2066.92,1263.67 2072.02,1263.67 2074.71,1263.67 
  2077.4,1263.67 2082.51,1263.67 2087.61,1263.67 2090.3,1263.67 2092.99,1263.67 2098.09,1263.67 2103.19,1263.67 2105.88,1263.67 
  2108.57,1263.67 2113.68,1263.67 2118.78,1263.67 2121.47,1263.67 2124.16,1263.67 2129.26,1263.67 2134.36,1263.67 2137.05,1263.67 
  2139.75,1263.67 2144.85,1263.67 2149.95,1263.67 2152.64,1263.67 2155.33,1263.67 2160.43,1263.67 2165.53,1263.67 2168.22,1263.67 
  2170.92,1263.67 2176.02,1263.67 2181.12,1263.67 2183.81,1263.67 2186.5,1263.67 2191.6,1263.67 2196.7,1263.67 2199.4,1263.67 
  2202.09,1263.67 2207.19,1263.67 2212.29,1263.67 2214.98,1263.67 2217.67,1263.67 2222.77,1263.67 2227.88,1263.67 2230.57,1263.67 
  2233.26,1263.67 2238.36,1263.67 2243.46,1263.67 2246.15,1263.67 2248.84,1263.67 2253.94,1263.67 2259.05,1263.67 2261.74,1263.67 
  2264.43,1263.67 2269.53,1263.67 2274.63,1263.67 2277.32,1263.67 2280.01,1263.67 2285.12,1263.67 2290.22,1263.67 2292.91,1263.67 
  
  "/>
<polyline clip-path="url(#clip842)" style="stroke:#e26f46; stroke-width:4; stroke-opacity:1; fill:none" points="
  297.978,1263.67 300.669,1263.67 305.771,1263.67 310.872,1263.67 313.563,1263.67 316.255,1263.67 321.356,1263.67 326.458,1263.67 329.149,1263.67 
  331.84,1263.67 336.941,1263.67 342.043,1263.67 344.734,1263.67 347.425,1263.67 352.527,1263.67 357.628,1263.67 360.32,1263.67 
  363.011,1263.67 368.112,1263.67 373.214,1263.67 375.905,1263.67 378.596,1263.67 383.698,1263.67 388.799,1263.67 391.49,1263.67 
  394.181,1263.67 399.283,1263.67 404.385,1263.67 407.076,1263.67 409.767,1263.67 414.868,1263.67 419.97,1263.67 422.661,1263.67 
  422.661,1263.67 425.352,1263.67 430.454,1263.67 435.555,1263.67 438.246,1263.67 438.246,1263.67 440.938,1263.67 446.039,1263.67 451.141,1263.67 453.832,1263.67 
  453.832,1263.67 456.523,1263.67 461.625,1263.67 466.726,1263.67 469.417,1263.67 469.417,1263.67 472.108,1263.67 477.21,1263.67 482.311,1263.67 485.003,1263.67 
  485.003,1263.67 487.694,1263.67 492.795,1263.67 497.897,1263.67 500.588,1263.67 500.588,1263.67 503.279,1263.67 508.381,1263.67 513.482,1263.67 516.173,1263.67 
  516.173,1263.67 518.865,1263.67 523.966,1263.67 529.068,1263.67 531.759,1263.67 531.759,1263.67 534.45,1263.67 539.552,1263.67 544.653,1263.67 547.344,1263.67 
  547.344,1263.67 550.035,1263.67 555.137,1263.67 560.238,1263.67 562.93,1263.67 562.93,1263.67 565.621,1263.67 570.722,1263.67 575.824,1263.67 578.515,1263.67 
  578.515,1263.67 581.206,1263.67 586.308,1263.67 591.409,1263.67 594.1,1263.67 594.1,1263.67 596.792,1263.67 601.893,1263.67 606.995,1263.67 609.686,1263.67 
  609.686,1263.67 612.377,1263.67 617.478,1263.67 622.58,1263.67 625.271,1263.67 625.271,1263.67 627.962,1263.67 633.064,1263.67 638.165,1263.67 640.857,1263.67 
  640.857,1263.67 643.548,1263.67 648.649,1263.67 653.751,1263.67 656.442,1263.67 656.442,1263.67 659.133,1263.67 664.235,1263.67 669.336,1263.67 672.027,1263.67 
  672.027,1263.67 674.719,1263.67 679.82,1263.67 684.922,1263.67 687.613,1263.67 687.613,1263.67 690.304,1263.67 695.405,1263.67 700.507,1263.67 703.198,1263.67 
  703.198,1263.67 705.889,1263.67 710.991,1263.67 716.092,1263.67 718.784,1263.67 718.784,1263.67 721.475,1263.67 726.576,1263.67 731.678,1263.67 734.369,1263.67 
  734.369,1263.67 737.06,1263.67 742.162,1263.67 747.263,1263.67 749.954,1263.67 749.954,1263.67 752.645,1263.67 757.747,1263.67 762.849,1263.67 765.54,1263.67 
  765.54,1263.67 768.231,1263.67 773.332,1263.67 778.434,1263.67 781.125,1263.67 781.125,1263.67 783.816,1263.67 788.918,1263.67 794.019,1263.67 796.71,1263.67 
  796.71,1263.67 799.402,1263.67 804.503,1263.67 809.605,1263.67 812.296,1263.67 812.296,1263.67 814.987,1263.67 820.089,1263.67 825.19,1263.67 827.881,1263.67 
  827.881,1263.67 830.572,1263.67 835.674,1263.67 840.775,1263.67 843.467,1263.67 843.467,1263.67 846.158,1263.67 851.259,1263.67 856.361,1263.67 859.052,1263.67 
  859.052,1263.67 861.743,1263.67 866.845,1263.67 871.946,1263.67 874.637,1263.67 874.637,1263.67 877.329,1263.67 882.43,1263.67 887.532,1263.67 890.223,1263.67 
  890.223,1263.67 892.914,1263.67 898.016,1263.67 903.117,1263.67 905.808,1263.67 905.808,1263.67 908.499,1263.67 913.601,1263.67 918.702,1263.67 921.394,1263.67 
  921.394,1263.67 924.085,1263.67 929.186,1263.67 934.288,1263.68 936.979,1263.67 936.979,1263.67 939.67,1263.66 944.772,1263.66 949.873,1263.67 952.564,1263.68 
  952.564,1263.68 955.256,1263.69 960.357,1263.67 965.459,1263.65 968.15,1263.66 968.15,1263.65 970.841,1263.67 975.942,1263.7 981.044,1263.68 983.735,1263.64 
  983.735,1263.66 986.426,1263.62 991.528,1263.65 996.629,1263.72 999.321,1263.73 999.321,1263.73 1002.01,1263.71 1007.11,1263.61 1012.21,1263.59 1014.91,1263.67 
  1014.91,1263.63 1017.6,1263.75 1022.7,1263.78 1027.8,1263.63 1030.49,1263.5 1030.49,1263.55 1033.18,1263.47 1038.28,1263.7 1043.39,1263.94 1046.08,1263.87 
  1046.08,1263.92 1048.77,1263.7 1053.87,1263.34 1058.97,1263.46 1061.66,1263.86 1061.66,1263.67 1064.35,1264.14 1069.45,1264.01 1074.56,1263.27 1077.25,1262.93 
  1077.25,1263.05 1079.94,1263.01 1085.04,1264.03 1090.14,1264.69 1092.83,1264.17 1092.83,1264.46 1095.52,1263.42 1100.63,1262.38 1105.73,1263.23 1108.42,1264.72 
  1108.42,1264.09 1111.11,1265.54 1116.21,1264.61 1121.31,1261.93 1124,1261.04 1124,1261.29 1126.69,1261.59 1131.8,1265.24 1136.9,1267.17 1139.59,1265.18 
  1139.59,1266.13 1142.28,1262.58 1147.38,1259.25 1152.48,1262.22 1155.17,1267.08 1155.17,1265.21 1157.87,1269.79 1162.97,1267.14 1168.07,1258.51 1170.76,1255.1 
  1170.76,1256.07 1173.45,1256.25 1178.55,1267.32 1183.65,1275.04 1186.35,1270.78 1186.35,1272.73 1189.04,1263.5 1194.14,1250.5 1199.24,1254.76 1201.93,1268.53 
  1201.93,1263.68 1204.62,1278.58 1209.72,1279.57 1214.82,1257.31 1217.52,1241.21 1217.52,1245.99 1220.21,1237.22 1225.31,1259.79 1230.41,1292.34 1233.1,1296.87 
  1233.1,1296.4 1235.79,1285.93 1240.89,1241.55 1246,1219.5 1248.69,1238.79 1248.69,1232.57 1251.38,1266.64 1256.48,1314.17 1261.58,1300.88 1264.27,1253.87 
  1264.27,1267.17 1266.96,1216.11 1272.06,1198.29 1277.17,1274.22 1279.86,1348.15 1279.86,1329.35 1282.55,1384.24 1287.65,1306.55 1292.75,1015.57 1295.44,786.074 
  1295.44,804.156 1298.13,571.216 1303.24,256.728 1308.34,123.926 1311.03,133.235 1311.03,122.124 1313.72,154.998 1318.82,206.967 1323.92,225.655 1326.61,214.153 
  1326.61,218.61 1329.3,204.42 1334.41,190.277 1339.51,190.873 1342.2,196.337 1342.2,195.18 1344.89,199.651 1349.99,201.548 1355.09,199.156 1357.78,197.907 
  1357.78,197.788 1360.48,197.579 1365.58,198.089 1370.68,198.444 1373.37,198.03 1373.37,198.374 1376.06,197.881 1381.16,198.556 1386.26,199.48 1388.96,199.318 
  1388.96,199.449 1391.65,198.614 1396.75,196.966 1401.85,197.256 1404.54,199.003 1404.54,198.223 1407.23,200.331 1412.33,200.294 1417.43,197.184 1420.13,195.194 
  1420.13,195.901 1422.82,195.02 1427.92,199 1433.02,202.926 1435.71,201.974 1435.71,202.563 1438.4,199.306 1443.5,193.343 1448.61,194.077 1451.3,199.751 
  1451.3,197.496 1453.99,204.225 1459.09,205.263 1464.19,195.914 1466.88,188.794 1466.88,191.157 1469.57,187.07 1474.67,197.482 1479.78,211.428 1482.47,212.052 
  1482.47,212.362 1485.16,206.082 1490.26,186.274 1495.36,180.569 1498.05,193.095 1498.05,188.495 1500.74,206.812 1505.85,222.243 1510.95,206.044 1513.64,182.186 
  1513.64,189.601 1516.33,168.185 1521.43,175.954 1526.53,216.966 1529.22,239.877 1529.22,233.782 1531.92,242.259 1537.02,199.856 1542.12,148.079 1544.81,144.056 
  1544.81,143.814 1547.5,164.444 1552.6,238.041 1557.7,270.937 1560.39,237.298 1560.39,245.321 1563.09,182.895 1568.19,86.1857 1573.29,133.753 1575.98,263.696 
  1575.98,253.529 1578.67,442.891 1583.77,851.74 1588.87,1189.74 1591.57,1284.64 1591.57,1291.21 1594.26,1331.72 1599.36,1314.58 1604.46,1256.69 1607.15,1242.88 
  1607.15,1239.66 1609.84,1238.58 1614.94,1254.56 1620.05,1271.86 1622.74,1272.54 1622.74,1274.24 1625.43,1270.87 1630.53,1263.57 1635.63,1259.87 1638.32,1261.32 
  1638.32,1260.58 1641.01,1262.65 1646.11,1264.78 1651.22,1264.72 1653.91,1263.87 1653.91,1264.06 1656.6,1263.4 1661.7,1263.18 1666.8,1263.61 1669.49,1263.82 
  1669.49,1263.83 1672.18,1263.88 1677.29,1263.75 1682.39,1263.59 1685.08,1263.6 1685.08,1263.57 1687.77,1263.62 1692.87,1263.69 1697.97,1263.7 1700.66,1263.68 
  1700.66,1263.69 1703.35,1263.66 1708.46,1263.66 1713.56,1263.67 1716.25,1263.67 1716.25,1263.68 1718.94,1263.68 1724.04,1263.67 1729.14,1263.67 1731.83,1263.67 
  1731.83,1263.67 1734.53,1263.67 1739.63,1263.67 1744.73,1263.67 1747.42,1263.67 1747.42,1263.67 1750.11,1263.67 1755.21,1263.67 1760.31,1263.67 1763,1263.67 
  1763,1263.67 1765.7,1263.67 1770.8,1263.67 1775.9,1263.67 1778.59,1263.67 1778.59,1263.67 1781.28,1263.67 1786.38,1263.67 1791.48,1263.67 1794.18,1263.67 
  1794.18,1263.67 1796.87,1263.67 1801.97,1263.67 1807.07,1263.67 1809.76,1263.67 1809.76,1263.67 1812.45,1263.67 1817.55,1263.67 1822.66,1263.67 1825.35,1263.67 
  1825.35,1263.67 1828.04,1263.67 1833.14,1263.67 1838.24,1263.67 1840.93,1263.67 1840.93,1263.67 1843.62,1263.67 1848.72,1263.67 1853.83,1263.67 1856.52,1263.67 
  1856.52,1263.67 1859.21,1263.67 1864.31,1263.67 1869.41,1263.67 1872.1,1263.67 1872.1,1263.67 1874.79,1263.67 1879.9,1263.67 1885,1263.67 1887.69,1263.67 
  1887.69,1263.67 1890.38,1263.67 1895.48,1263.67 1900.58,1263.67 1903.27,1263.67 1903.27,1263.67 1905.96,1263.67 1911.07,1263.67 1916.17,1263.67 1918.86,1263.67 
  1918.86,1263.67 1921.55,1263.67 1926.65,1263.67 1931.75,1263.67 1934.44,1263.67 1934.44,1263.67 1937.14,1263.67 1942.24,1263.67 1947.34,1263.67 1950.03,1263.67 
  1950.03,1263.67 1952.72,1263.67 1957.82,1263.67 1962.92,1263.67 1965.61,1263.67 1965.61,1263.67 1968.31,1263.67 1973.41,1263.67 1978.51,1263.67 1981.2,1263.67 
  1981.2,1263.67 1983.89,1263.67 1988.99,1263.67 1994.09,1263.67 1996.79,1263.67 1999.48,1263.67 2004.58,1263.67 2009.68,1263.67 2012.37,1263.67 
  2012.37,1263.67 2015.06,1263.67 2020.16,1263.67 2025.27,1263.67 2027.96,1263.67 2027.96,1263.67 2030.65,1263.67 2035.75,1263.67 2040.85,1263.67 2043.54,1263.67 
  2046.23,1263.67 2051.33,1263.67 2056.44,1263.67 2059.13,1263.67 2061.82,1263.67 2066.92,1263.67 2072.02,1263.67 2074.71,1263.67 
  2077.4,1263.67 2082.51,1263.67 2087.61,1263.67 2090.3,1263.67 2092.99,1263.67 2098.09,1263.67 2103.19,1263.67 2105.88,1263.67 
  2108.57,1263.67 2113.68,1263.67 2118.78,1263.67 2121.47,1263.67 2124.16,1263.67 2129.26,1263.67 2134.36,1263.67 2137.05,1263.67 
  2139.75,1263.67 2144.85,1263.67 2149.95,1263.67 2152.64,1263.67 2155.33,1263.67 2160.43,1263.67 2165.53,1263.67 2168.22,1263.67 
  2170.92,1263.67 2176.02,1263.67 2181.12,1263.67 2183.81,1263.67 2186.5,1263.67 2191.6,1263.67 2196.7,1263.67 2199.4,1263.67 
  2202.09,1263.67 2207.19,1263.67 2212.29,1263.67 2214.98,1263.67 2217.67,1263.67 2222.77,1263.67 2227.88,1263.67 2230.57,1263.67 
  2233.26,1263.67 2238.36,1263.67 2243.46,1263.67 2246.15,1263.67 2248.84,1263.67 2253.94,1263.67 2259.05,1263.67 2261.74,1263.67 
  2264.43,1263.67 2269.53,1263.67 2274.63,1263.67 2277.32,1263.67 2280.01,1263.67 2285.12,1263.67 2290.22,1263.67 2292.91,1263.67 
  
  "/>
<path clip-path="url(#clip840)" d="
M1802.38 274.549 L2282.27 274.549 L2282.27 93.1086 L1802.38 93.1086  Z
  " fill="#ffffff" fill-rule="evenodd" fill-opacity="1"/>
<polyline clip-path="url(#clip840)" style="stroke:#000000; stroke-width:4; stroke-opacity:1; fill:none" points="
  1802.38,274.549 2282.27,274.549 2282.27,93.1086 1802.38,93.1086 1802.38,274.549 
  "/>
<polyline clip-path="url(#clip840)" style="stroke:#009af9; stroke-width:4; stroke-opacity:1; fill:none" points="
  1825.88,153.589 1966.85,153.589 
  "/>
<path clip-path="url(#clip840)" d="M 0 0 M1994.75 157.929 Q1994.75 162.628 1996.67 165.313 Q1998.61 167.975 2001.99 167.975 Q2005.37 167.975 2007.31 165.313 Q2009.26 162.628 2009.26 157.929 Q2009.26 153.23 2007.31 150.568 Q2005.37 147.883 2001.99 147.883 Q1998.61 147.883 1996.67 150.568 Q1994.75 153.23 1994.75 157.929 M2009.26 166.98 Q2007.92 169.295 2005.86 170.429 Q2003.82 171.54 2000.95 171.54 Q1996.25 171.54 1993.29 167.79 Q1990.35 164.04 1990.35 157.929 Q1990.35 151.818 1993.29 148.068 Q1996.25 144.318 2000.95 144.318 Q2003.82 144.318 2005.86 145.452 Q2007.92 146.563 2009.26 148.878 L2009.26 144.943 L2013.52 144.943 L2013.52 180.73 L2009.26 180.73 L2009.26 166.98 Z" fill="#000000" fill-rule="evenodd" fill-opacity="1" /><path clip-path="url(#clip840)" d="M 0 0 M2019.07 164.989 L2023.96 164.989 L2023.96 168.97 L2020.16 176.378 L2017.18 176.378 L2019.07 168.97 L2019.07 164.989 Z" fill="#000000" fill-rule="evenodd" fill-opacity="1" /><path clip-path="url(#clip840)" d="M 0 0 M2047.71 137.582 L2047.71 144.943 L2056.48 144.943 L2056.48 148.253 L2047.71 148.253 L2047.71 162.327 Q2047.71 165.498 2048.56 166.401 Q2049.44 167.304 2052.11 167.304 L2056.48 167.304 L2056.48 170.869 L2052.11 170.869 Q2047.18 170.869 2045.3 169.04 Q2043.43 167.188 2043.43 162.327 L2043.43 148.253 L2040.3 148.253 L2040.3 144.943 L2043.43 144.943 L2043.43 137.582 L2047.71 137.582 Z" fill="#000000" fill-rule="evenodd" fill-opacity="1" /><path clip-path="url(#clip840)" d="M 0 0 M2061.5 149.341 L2091.18 149.341 L2091.18 153.23 L2061.5 153.23 L2061.5 149.341 M2061.5 158.785 L2091.18 158.785 L2091.18 162.721 L2061.5 162.721 L2061.5 158.785 Z" fill="#000000" fill-rule="evenodd" fill-opacity="1" /><path clip-path="url(#clip840)" d="M 0 0 M2106.25 139.387 Q2102.64 139.387 2100.81 142.952 Q2099 146.494 2099 153.623 Q2099 160.73 2100.81 164.295 Q2102.64 167.836 2106.25 167.836 Q2109.88 167.836 2111.69 164.295 Q2113.52 160.73 2113.52 153.623 Q2113.52 146.494 2111.69 142.952 Q2109.88 139.387 2106.25 139.387 M2106.25 135.684 Q2112.06 135.684 2115.12 140.29 Q2118.19 144.873 2118.19 153.623 Q2118.19 162.35 2115.12 166.957 Q2112.06 171.54 2106.25 171.54 Q2100.44 171.54 2097.36 166.957 Q2094.31 162.35 2094.31 153.623 Q2094.31 144.873 2097.36 140.29 Q2100.44 135.684 2106.25 135.684 Z" fill="#000000" fill-rule="evenodd" fill-opacity="1" /><path clip-path="url(#clip840)" d="M 0 0 M2123.26 164.989 L2128.15 164.989 L2128.15 170.869 L2123.26 170.869 L2123.26 164.989 Z" fill="#000000" fill-rule="evenodd" fill-opacity="1" /><path clip-path="url(#clip840)" d="M 0 0 M2143.22 139.387 Q2139.61 139.387 2137.78 142.952 Q2135.97 146.494 2135.97 153.623 Q2135.97 160.73 2137.78 164.295 Q2139.61 167.836 2143.22 167.836 Q2146.85 167.836 2148.66 164.295 Q2150.49 160.73 2150.49 153.623 Q2150.49 146.494 2148.66 142.952 Q2146.85 139.387 2143.22 139.387 M2143.22 135.684 Q2149.03 135.684 2152.08 140.29 Q2155.16 144.873 2155.16 153.623 Q2155.16 162.35 2152.08 166.957 Q2149.03 171.54 2143.22 171.54 Q2137.41 171.54 2134.33 166.957 Q2131.27 162.35 2131.27 153.623 Q2131.27 144.873 2134.33 140.29 Q2137.41 135.684 2143.22 135.684 Z" fill="#000000" fill-rule="evenodd" fill-opacity="1" /><polyline clip-path="url(#clip840)" style="stroke:#e26f46; stroke-width:4; stroke-opacity:1; fill:none" points="
  1825.88,214.069 1966.85,214.069 
  "/>
<path clip-path="url(#clip840)" d="M 0 0 M1994.75 218.409 Q1994.75 223.108 1996.67 225.793 Q1998.61 228.455 2001.99 228.455 Q2005.37 228.455 2007.31 225.793 Q2009.26 223.108 2009.26 218.409 Q2009.26 213.71 2007.31 211.048 Q2005.37 208.363 2001.99 208.363 Q1998.61 208.363 1996.67 211.048 Q1994.75 213.71 1994.75 218.409 M2009.26 227.46 Q2007.92 229.775 2005.86 230.909 Q2003.82 232.02 2000.95 232.02 Q1996.25 232.02 1993.29 228.27 Q1990.35 224.52 1990.35 218.409 Q1990.35 212.298 1993.29 208.548 Q1996.25 204.798 2000.95 204.798 Q2003.82 204.798 2005.86 205.932 Q2007.92 207.043 2009.26 209.358 L2009.26 205.423 L2013.52 205.423 L2013.52 241.21 L2009.26 241.21 L2009.26 227.46 Z" fill="#000000" fill-rule="evenodd" fill-opacity="1" /><path clip-path="url(#clip840)" d="M 0 0 M2019.07 225.469 L2023.96 225.469 L2023.96 229.45 L2020.16 236.858 L2017.18 236.858 L2019.07 229.45 L2019.07 225.469 Z" fill="#000000" fill-rule="evenodd" fill-opacity="1" /><path clip-path="url(#clip840)" d="M 0 0 M2047.71 198.062 L2047.71 205.423 L2056.48 205.423 L2056.48 208.733 L2047.71 208.733 L2047.71 222.807 Q2047.71 225.978 2048.56 226.881 Q2049.44 227.784 2052.11 227.784 L2056.48 227.784 L2056.48 231.349 L2052.11 231.349 Q2047.18 231.349 2045.3 229.52 Q2043.43 227.668 2043.43 222.807 L2043.43 208.733 L2040.3 208.733 L2040.3 205.423 L2043.43 205.423 L2043.43 198.062 L2047.71 198.062 Z" fill="#000000" fill-rule="evenodd" fill-opacity="1" /><path clip-path="url(#clip840)" d="M 0 0 M2061.5 209.821 L2091.18 209.821 L2091.18 213.71 L2061.5 213.71 L2061.5 209.821 M2061.5 219.265 L2091.18 219.265 L2091.18 223.201 L2061.5 223.201 L2061.5 219.265 Z" fill="#000000" fill-rule="evenodd" fill-opacity="1" /><path clip-path="url(#clip840)" d="M 0 0 M2109.1 200.863 L2097.29 219.312 L2109.1 219.312 L2109.1 200.863 M2107.87 196.789 L2113.75 196.789 L2113.75 219.312 L2118.68 219.312 L2118.68 223.201 L2113.75 223.201 L2113.75 231.349 L2109.1 231.349 L2109.1 223.201 L2093.5 223.201 L2093.5 218.687 L2107.87 196.789 Z" fill="#000000" fill-rule="evenodd" fill-opacity="1" /><path clip-path="url(#clip840)" d="M 0 0 M2123.8 196.789 L2142.15 196.789 L2142.15 200.724 L2128.08 200.724 L2128.08 209.196 Q2129.1 208.849 2130.12 208.687 Q2131.13 208.502 2132.15 208.502 Q2137.94 208.502 2141.32 211.673 Q2144.7 214.844 2144.7 220.261 Q2144.7 225.839 2141.23 228.941 Q2137.75 232.02 2131.43 232.02 Q2129.26 232.02 2126.99 231.65 Q2124.74 231.279 2122.34 230.538 L2122.34 225.839 Q2124.42 226.974 2126.64 227.529 Q2128.87 228.085 2131.34 228.085 Q2135.35 228.085 2137.68 225.978 Q2140.02 223.872 2140.02 220.261 Q2140.02 216.65 2137.68 214.543 Q2135.35 212.437 2131.34 212.437 Q2129.47 212.437 2127.59 212.853 Q2125.74 213.27 2123.8 214.15 L2123.8 196.789 Z" fill="#000000" fill-rule="evenodd" fill-opacity="1" /><path clip-path="url(#clip840)" d="M 0 0 M2159.77 199.867 Q2156.16 199.867 2154.33 203.432 Q2152.52 206.974 2152.52 214.103 Q2152.52 221.21 2154.33 224.775 Q2156.16 228.316 2159.77 228.316 Q2163.4 228.316 2165.21 224.775 Q2167.04 221.21 2167.04 214.103 Q2167.04 206.974 2165.21 203.432 Q2163.4 199.867 2159.77 199.867 M2159.77 196.164 Q2165.58 196.164 2168.63 200.77 Q2171.71 205.353 2171.71 214.103 Q2171.71 222.83 2168.63 227.437 Q2165.58 232.02 2159.77 232.02 Q2153.96 232.02 2150.88 227.437 Q2147.82 222.83 2147.82 214.103 Q2147.82 205.353 2150.88 200.77 Q2153.96 196.164 2159.77 196.164 Z" fill="#000000" fill-rule="evenodd" fill-opacity="1" /><path clip-path="url(#clip840)" d="M 0 0 M2176.78 225.469 L2181.67 225.469 L2181.67 231.349 L2176.78 231.349 L2176.78 225.469 Z" fill="#000000" fill-rule="evenodd" fill-opacity="1" /><path clip-path="url(#clip840)" d="M 0 0 M2199.58 200.863 L2187.78 219.312 L2199.58 219.312 L2199.58 200.863 M2198.36 196.789 L2204.24 196.789 L2204.24 219.312 L2209.17 219.312 L2209.17 223.201 L2204.24 223.201 L2204.24 231.349 L2199.58 231.349 L2199.58 223.201 L2183.98 223.201 L2183.98 218.687 L2198.36 196.789 Z" fill="#000000" fill-rule="evenodd" fill-opacity="1" /><path clip-path="url(#clip840)" d="M 0 0 M2213.05 196.789 L2235.28 196.789 L2235.28 198.779 L2222.73 231.349 L2217.85 231.349 L2229.65 200.724 L2213.05 200.724 L2213.05 196.789 Z" fill="#000000" fill-rule="evenodd" fill-opacity="1" /></svg>
