<?xml version="1.0" encoding="utf-8"?>
<svg xmlns="http://www.w3.org/2000/svg" xmlns:xlink="http://www.w3.org/1999/xlink" width="600" height="400" viewBox="0 0 2400 1600">
<defs>
  <clipPath id="clip630">
    <rect x="0" y="0" width="2400" height="1600"/>
  </clipPath>
</defs>
<path clip-path="url(#clip630)" d="
M0 1600 L2400 1600 L2400 0 L0 0  Z
  " fill="#ffffff" fill-rule="evenodd" fill-opacity="1"/>
<defs>
  <clipPath id="clip631">
    <rect x="480" y="0" width="1681" height="1600"/>
  </clipPath>
</defs>
<path clip-path="url(#clip630)" d="
M238.13 1423.18 L2352.76 1423.18 L2352.76 47.2441 L238.13 47.2441  Z
  " fill="#ffffff" fill-rule="evenodd" fill-opacity="1"/>
<defs>
  <clipPath id="clip632">
    <rect x="238" y="47" width="2116" height="1377"/>
  </clipPath>
</defs>
<polyline clip-path="url(#clip632)" style="stroke:#000000; stroke-width:2; stroke-opacity:0.1; fill:none" points="
  297.978,1423.18 297.978,47.2441 
  "/>
<polyline clip-path="url(#clip632)" style="stroke:#000000; stroke-width:2; stroke-opacity:0.1; fill:none" points="
  867.958,1423.18 867.958,47.2441 
  "/>
<polyline clip-path="url(#clip632)" style="stroke:#000000; stroke-width:2; stroke-opacity:0.1; fill:none" points="
  1437.94,1423.18 1437.94,47.2441 
  "/>
<polyline clip-path="url(#clip632)" style="stroke:#000000; stroke-width:2; stroke-opacity:0.1; fill:none" points="
  2007.92,1423.18 2007.92,47.2441 
  "/>
<polyline clip-path="url(#clip632)" style="stroke:#000000; stroke-width:2; stroke-opacity:0.1; fill:none" points="
  238.13,1250.91 2352.76,1250.91 
  "/>
<polyline clip-path="url(#clip632)" style="stroke:#000000; stroke-width:2; stroke-opacity:0.1; fill:none" points="
  238.13,992.871 2352.76,992.871 
  "/>
<polyline clip-path="url(#clip632)" style="stroke:#000000; stroke-width:2; stroke-opacity:0.1; fill:none" points="
  238.13,734.832 2352.76,734.832 
  "/>
<polyline clip-path="url(#clip632)" style="stroke:#000000; stroke-width:2; stroke-opacity:0.1; fill:none" points="
  238.13,476.794 2352.76,476.794 
  "/>
<polyline clip-path="url(#clip632)" style="stroke:#000000; stroke-width:2; stroke-opacity:0.1; fill:none" points="
  238.13,218.755 2352.76,218.755 
  "/>
<polyline clip-path="url(#clip630)" style="stroke:#000000; stroke-width:4; stroke-opacity:1; fill:none" points="
  238.13,1423.18 2352.76,1423.18 
  "/>
<polyline clip-path="url(#clip630)" style="stroke:#000000; stroke-width:4; stroke-opacity:1; fill:none" points="
  238.13,1423.18 238.13,47.2441 
  "/>
<polyline clip-path="url(#clip630)" style="stroke:#000000; stroke-width:4; stroke-opacity:1; fill:none" points="
  297.978,1423.18 297.978,1406.67 
  "/>
<polyline clip-path="url(#clip630)" style="stroke:#000000; stroke-width:4; stroke-opacity:1; fill:none" points="
  867.958,1423.18 867.958,1406.67 
  "/>
<polyline clip-path="url(#clip630)" style="stroke:#000000; stroke-width:4; stroke-opacity:1; fill:none" points="
  1437.94,1423.18 1437.94,1406.67 
  "/>
<polyline clip-path="url(#clip630)" style="stroke:#000000; stroke-width:4; stroke-opacity:1; fill:none" points="
  2007.92,1423.18 2007.92,1406.67 
  "/>
<polyline clip-path="url(#clip630)" style="stroke:#000000; stroke-width:4; stroke-opacity:1; fill:none" points="
  238.13,1250.91 263.506,1250.91 
  "/>
<polyline clip-path="url(#clip630)" style="stroke:#000000; stroke-width:4; stroke-opacity:1; fill:none" points="
  238.13,992.871 263.506,992.871 
  "/>
<polyline clip-path="url(#clip630)" style="stroke:#000000; stroke-width:4; stroke-opacity:1; fill:none" points="
  238.13,734.832 263.506,734.832 
  "/>
<polyline clip-path="url(#clip630)" style="stroke:#000000; stroke-width:4; stroke-opacity:1; fill:none" points="
  238.13,476.794 263.506,476.794 
  "/>
<polyline clip-path="url(#clip630)" style="stroke:#000000; stroke-width:4; stroke-opacity:1; fill:none" points="
  238.13,218.755 263.506,218.755 
  "/>
<path clip-path="url(#clip630)" d="M 0 0 M297.978 1445.17 Q294.367 1445.17 292.538 1448.74 Q290.733 1452.28 290.733 1459.41 Q290.733 1466.51 292.538 1470.08 Q294.367 1473.62 297.978 1473.62 Q301.612 1473.62 303.418 1470.08 Q305.246 1466.51 305.246 1459.41 Q305.246 1452.28 303.418 1448.74 Q301.612 1445.17 297.978 1445.17 M297.978 1441.47 Q303.788 1441.47 306.844 1446.07 Q309.922 1450.66 309.922 1459.41 Q309.922 1468.13 306.844 1472.74 Q303.788 1477.32 297.978 1477.32 Q292.168 1477.32 289.089 1472.74 Q286.034 1468.13 286.034 1459.41 Q286.034 1450.66 289.089 1446.07 Q292.168 1441.47 297.978 1441.47 Z" fill="#000000" fill-rule="evenodd" fill-opacity="1" /><path clip-path="url(#clip630)" d="M 0 0 M831.326 1472.72 L838.965 1472.72 L838.965 1446.35 L830.655 1448.02 L830.655 1443.76 L838.919 1442.09 L843.595 1442.09 L843.595 1472.72 L851.234 1472.72 L851.234 1476.65 L831.326 1476.65 L831.326 1472.72 Z" fill="#000000" fill-rule="evenodd" fill-opacity="1" /><path clip-path="url(#clip630)" d="M 0 0 M866.303 1445.17 Q862.692 1445.17 860.863 1448.74 Q859.058 1452.28 859.058 1459.41 Q859.058 1466.51 860.863 1470.08 Q862.692 1473.62 866.303 1473.62 Q869.937 1473.62 871.743 1470.08 Q873.571 1466.51 873.571 1459.41 Q873.571 1452.28 871.743 1448.74 Q869.937 1445.17 866.303 1445.17 M866.303 1441.47 Q872.113 1441.47 875.169 1446.07 Q878.247 1450.66 878.247 1459.41 Q878.247 1468.13 875.169 1472.74 Q872.113 1477.32 866.303 1477.32 Q860.493 1477.32 857.414 1472.74 Q854.359 1468.13 854.359 1459.41 Q854.359 1450.66 857.414 1446.07 Q860.493 1441.47 866.303 1441.47 Z" fill="#000000" fill-rule="evenodd" fill-opacity="1" /><path clip-path="url(#clip630)" d="M 0 0 M893.317 1445.17 Q889.706 1445.17 887.877 1448.74 Q886.071 1452.28 886.071 1459.41 Q886.071 1466.51 887.877 1470.08 Q889.706 1473.62 893.317 1473.62 Q896.951 1473.62 898.756 1470.08 Q900.585 1466.51 900.585 1459.41 Q900.585 1452.28 898.756 1448.74 Q896.951 1445.17 893.317 1445.17 M893.317 1441.47 Q899.127 1441.47 902.182 1446.07 Q905.261 1450.66 905.261 1459.41 Q905.261 1468.13 902.182 1472.74 Q899.127 1477.32 893.317 1477.32 Q887.506 1477.32 884.428 1472.74 Q881.372 1468.13 881.372 1459.41 Q881.372 1450.66 884.428 1446.07 Q887.506 1441.47 893.317 1441.47 Z" fill="#000000" fill-rule="evenodd" fill-opacity="1" /><path clip-path="url(#clip630)" d="M 0 0 M1405.58 1472.72 L1421.9 1472.72 L1421.9 1476.65 L1399.95 1476.65 L1399.95 1472.72 Q1402.61 1469.96 1407.2 1465.33 Q1411.8 1460.68 1412.98 1459.34 Q1415.23 1456.81 1416.11 1455.08 Q1417.01 1453.32 1417.01 1451.63 Q1417.01 1448.87 1415.07 1447.14 Q1413.15 1445.4 1410.04 1445.4 Q1407.85 1445.4 1405.39 1446.17 Q1402.96 1446.93 1400.18 1448.48 L1400.18 1443.76 Q1403.01 1442.62 1405.46 1442.05 Q1407.91 1441.47 1409.95 1441.47 Q1415.32 1441.47 1418.52 1444.15 Q1421.71 1446.84 1421.71 1451.33 Q1421.71 1453.46 1420.9 1455.38 Q1420.11 1457.28 1418.01 1459.87 Q1417.43 1460.54 1414.33 1463.76 Q1411.23 1466.95 1405.58 1472.72 Z" fill="#000000" fill-rule="evenodd" fill-opacity="1" /><path clip-path="url(#clip630)" d="M 0 0 M1436.97 1445.17 Q1433.35 1445.17 1431.53 1448.74 Q1429.72 1452.28 1429.72 1459.41 Q1429.72 1466.51 1431.53 1470.08 Q1433.35 1473.62 1436.97 1473.62 Q1440.6 1473.62 1442.41 1470.08 Q1444.23 1466.51 1444.23 1459.41 Q1444.23 1452.28 1442.41 1448.74 Q1440.6 1445.17 1436.97 1445.17 M1436.97 1441.47 Q1442.78 1441.47 1445.83 1446.07 Q1448.91 1450.66 1448.91 1459.41 Q1448.91 1468.13 1445.83 1472.74 Q1442.78 1477.32 1436.97 1477.32 Q1431.16 1477.32 1428.08 1472.74 Q1425.02 1468.13 1425.02 1459.41 Q1425.02 1450.66 1428.08 1446.07 Q1431.16 1441.47 1436.97 1441.47 Z" fill="#000000" fill-rule="evenodd" fill-opacity="1" /><path clip-path="url(#clip630)" d="M 0 0 M1463.98 1445.17 Q1460.37 1445.17 1458.54 1448.74 Q1456.73 1452.28 1456.73 1459.41 Q1456.73 1466.51 1458.54 1470.08 Q1460.37 1473.62 1463.98 1473.62 Q1467.61 1473.62 1469.42 1470.08 Q1471.25 1466.51 1471.25 1459.41 Q1471.25 1452.28 1469.42 1448.74 Q1467.61 1445.17 1463.98 1445.17 M1463.98 1441.47 Q1469.79 1441.47 1472.85 1446.07 Q1475.92 1450.66 1475.92 1459.41 Q1475.92 1468.13 1472.85 1472.74 Q1469.79 1477.32 1463.98 1477.32 Q1458.17 1477.32 1455.09 1472.74 Q1452.04 1468.13 1452.04 1459.41 Q1452.04 1450.66 1455.09 1446.07 Q1458.17 1441.47 1463.98 1441.47 Z" fill="#000000" fill-rule="evenodd" fill-opacity="1" /><path clip-path="url(#clip630)" d="M 0 0 M1985.15 1458.02 Q1988.51 1458.74 1990.38 1461 Q1992.28 1463.27 1992.28 1466.61 Q1992.28 1471.72 1988.76 1474.52 Q1985.24 1477.32 1978.76 1477.32 Q1976.59 1477.32 1974.27 1476.88 Q1971.98 1476.47 1969.53 1475.61 L1969.53 1471.1 Q1971.47 1472.23 1973.79 1472.81 Q1976.1 1473.39 1978.62 1473.39 Q1983.02 1473.39 1985.31 1471.65 Q1987.63 1469.92 1987.63 1466.61 Q1987.63 1463.55 1985.48 1461.84 Q1983.35 1460.1 1979.53 1460.1 L1975.5 1460.1 L1975.5 1456.26 L1979.71 1456.26 Q1983.16 1456.26 1984.99 1454.89 Q1986.82 1453.5 1986.82 1450.91 Q1986.82 1448.25 1984.92 1446.84 Q1983.05 1445.4 1979.53 1445.4 Q1977.61 1445.4 1975.41 1445.82 Q1973.21 1446.24 1970.57 1447.11 L1970.57 1442.95 Q1973.23 1442.21 1975.55 1441.84 Q1977.88 1441.47 1979.94 1441.47 Q1985.27 1441.47 1988.37 1443.9 Q1991.47 1446.3 1991.47 1450.43 Q1991.47 1453.3 1989.83 1455.29 Q1988.18 1457.25 1985.15 1458.02 Z" fill="#000000" fill-rule="evenodd" fill-opacity="1" /><path clip-path="url(#clip630)" d="M 0 0 M2007.35 1445.17 Q2003.74 1445.17 2001.91 1448.74 Q2000.11 1452.28 2000.11 1459.41 Q2000.11 1466.51 2001.91 1470.08 Q2003.74 1473.62 2007.35 1473.62 Q2010.99 1473.62 2012.79 1470.08 Q2014.62 1466.51 2014.62 1459.41 Q2014.62 1452.28 2012.79 1448.74 Q2010.99 1445.17 2007.35 1445.17 M2007.35 1441.47 Q2013.16 1441.47 2016.22 1446.07 Q2019.3 1450.66 2019.3 1459.41 Q2019.3 1468.13 2016.22 1472.74 Q2013.16 1477.32 2007.35 1477.32 Q2001.54 1477.32 1998.46 1472.74 Q1995.41 1468.13 1995.41 1459.41 Q1995.41 1450.66 1998.46 1446.07 Q2001.54 1441.47 2007.35 1441.47 Z" fill="#000000" fill-rule="evenodd" fill-opacity="1" /><path clip-path="url(#clip630)" d="M 0 0 M2034.36 1445.17 Q2030.75 1445.17 2028.92 1448.74 Q2027.12 1452.28 2027.12 1459.41 Q2027.12 1466.51 2028.92 1470.08 Q2030.75 1473.62 2034.36 1473.62 Q2038 1473.62 2039.8 1470.08 Q2041.63 1466.51 2041.63 1459.41 Q2041.63 1452.28 2039.8 1448.74 Q2038 1445.17 2034.36 1445.17 M2034.36 1441.47 Q2040.17 1441.47 2043.23 1446.07 Q2046.31 1450.66 2046.31 1459.41 Q2046.31 1468.13 2043.23 1472.74 Q2040.17 1477.32 2034.36 1477.32 Q2028.55 1477.32 2025.48 1472.74 Q2022.42 1468.13 2022.42 1459.41 Q2022.42 1450.66 2025.48 1446.07 Q2028.55 1441.47 2034.36 1441.47 Z" fill="#000000" fill-rule="evenodd" fill-opacity="1" /><path clip-path="url(#clip630)" d="M 0 0 M138.205 1236.71 Q134.593 1236.71 132.765 1240.27 Q130.959 1243.82 130.959 1250.94 Q130.959 1258.05 132.765 1261.62 Q134.593 1265.16 138.205 1265.16 Q141.839 1265.16 143.644 1261.62 Q145.473 1258.05 145.473 1250.94 Q145.473 1243.82 143.644 1240.27 Q141.839 1236.71 138.205 1236.71 M138.205 1233 Q144.015 1233 147.07 1237.61 Q150.149 1242.19 150.149 1250.94 Q150.149 1259.67 147.07 1264.28 Q144.015 1268.86 138.205 1268.86 Q132.394 1268.86 129.316 1264.28 Q126.26 1259.67 126.26 1250.94 Q126.26 1242.19 129.316 1237.61 Q132.394 1233 138.205 1233 Z" fill="#000000" fill-rule="evenodd" fill-opacity="1" /><path clip-path="url(#clip630)" d="M 0 0 M155.218 1262.31 L160.103 1262.31 L160.103 1268.19 L155.218 1268.19 L155.218 1262.31 Z" fill="#000000" fill-rule="evenodd" fill-opacity="1" /><path clip-path="url(#clip630)" d="M 0 0 M175.172 1236.71 Q171.561 1236.71 169.732 1240.27 Q167.927 1243.82 167.927 1250.94 Q167.927 1258.05 169.732 1261.62 Q171.561 1265.16 175.172 1265.16 Q178.806 1265.16 180.612 1261.62 Q182.44 1258.05 182.44 1250.94 Q182.44 1243.82 180.612 1240.27 Q178.806 1236.71 175.172 1236.71 M175.172 1233 Q180.982 1233 184.038 1237.61 Q187.116 1242.19 187.116 1250.94 Q187.116 1259.67 184.038 1264.28 Q180.982 1268.86 175.172 1268.86 Q169.362 1268.86 166.283 1264.28 Q163.228 1259.67 163.228 1250.94 Q163.228 1242.19 166.283 1237.61 Q169.362 1233 175.172 1233 Z" fill="#000000" fill-rule="evenodd" fill-opacity="1" /><path clip-path="url(#clip630)" d="M 0 0 M202.186 1236.71 Q198.575 1236.71 196.746 1240.27 Q194.94 1243.82 194.94 1250.94 Q194.94 1258.05 196.746 1261.62 Q198.575 1265.16 202.186 1265.16 Q205.82 1265.16 207.625 1261.62 Q209.454 1258.05 209.454 1250.94 Q209.454 1243.82 207.625 1240.27 Q205.82 1236.71 202.186 1236.71 M202.186 1233 Q207.996 1233 211.051 1237.61 Q214.13 1242.19 214.13 1250.94 Q214.13 1259.67 211.051 1264.28 Q207.996 1268.86 202.186 1268.86 Q196.376 1268.86 193.297 1264.28 Q190.241 1259.67 190.241 1250.94 Q190.241 1242.19 193.297 1237.61 Q196.376 1233 202.186 1233 Z" fill="#000000" fill-rule="evenodd" fill-opacity="1" /><path clip-path="url(#clip630)" d="M 0 0 M140.797 978.67 Q137.186 978.67 135.357 982.235 Q133.552 985.776 133.552 992.906 Q133.552 1000.01 135.357 1003.58 Q137.186 1007.12 140.797 1007.12 Q144.431 1007.12 146.237 1003.58 Q148.066 1000.01 148.066 992.906 Q148.066 985.776 146.237 982.235 Q144.431 978.67 140.797 978.67 M140.797 974.966 Q146.607 974.966 149.663 979.573 Q152.741 984.156 152.741 992.906 Q152.741 1001.63 149.663 1006.24 Q146.607 1010.82 140.797 1010.82 Q134.987 1010.82 131.908 1006.24 Q128.853 1001.63 128.853 992.906 Q128.853 984.156 131.908 979.573 Q134.987 974.966 140.797 974.966 Z" fill="#000000" fill-rule="evenodd" fill-opacity="1" /><path clip-path="url(#clip630)" d="M 0 0 M157.811 1004.27 L162.695 1004.27 L162.695 1010.15 L157.811 1010.15 L157.811 1004.27 Z" fill="#000000" fill-rule="evenodd" fill-opacity="1" /><path clip-path="url(#clip630)" d="M 0 0 M171.792 1006.22 L188.112 1006.22 L188.112 1010.15 L166.167 1010.15 L166.167 1006.22 Q168.829 1003.46 173.413 998.832 Q178.019 994.179 179.2 992.837 Q181.445 990.313 182.325 988.577 Q183.227 986.818 183.227 985.128 Q183.227 982.374 181.283 980.638 Q179.362 978.901 176.26 978.901 Q174.061 978.901 171.607 979.665 Q169.177 980.429 166.399 981.98 L166.399 977.258 Q169.223 976.124 171.677 975.545 Q174.13 974.966 176.167 974.966 Q181.538 974.966 184.732 977.651 Q187.926 980.337 187.926 984.827 Q187.926 986.957 187.116 988.878 Q186.329 990.776 184.223 993.369 Q183.644 994.04 180.542 997.258 Q177.44 1000.45 171.792 1006.22 Z" fill="#000000" fill-rule="evenodd" fill-opacity="1" /><path clip-path="url(#clip630)" d="M 0 0 M193.227 975.591 L211.584 975.591 L211.584 979.526 L197.51 979.526 L197.51 987.999 Q198.528 987.651 199.547 987.489 Q200.565 987.304 201.584 987.304 Q207.371 987.304 210.75 990.475 Q214.13 993.647 214.13 999.063 Q214.13 1004.64 210.658 1007.74 Q207.186 1010.82 200.866 1010.82 Q198.69 1010.82 196.422 1010.45 Q194.176 1010.08 191.769 1009.34 L191.769 1004.64 Q193.852 1005.78 196.075 1006.33 Q198.297 1006.89 200.774 1006.89 Q204.778 1006.89 207.116 1004.78 Q209.454 1002.67 209.454 999.063 Q209.454 995.452 207.116 993.346 Q204.778 991.239 200.774 991.239 Q198.899 991.239 197.024 991.656 Q195.172 992.073 193.227 992.952 L193.227 975.591 Z" fill="#000000" fill-rule="evenodd" fill-opacity="1" /><path clip-path="url(#clip630)" d="M 0 0 M139.2 720.631 Q135.589 720.631 133.76 724.196 Q131.955 727.738 131.955 734.867 Q131.955 741.974 133.76 745.538 Q135.589 749.08 139.2 749.08 Q142.834 749.08 144.64 745.538 Q146.468 741.974 146.468 734.867 Q146.468 727.738 144.64 724.196 Q142.834 720.631 139.2 720.631 M139.2 716.927 Q145.01 716.927 148.066 721.534 Q151.144 726.117 151.144 734.867 Q151.144 743.594 148.066 748.2 Q145.01 752.784 139.2 752.784 Q133.39 752.784 130.311 748.2 Q127.256 743.594 127.256 734.867 Q127.256 726.117 130.311 721.534 Q133.39 716.927 139.2 716.927 Z" fill="#000000" fill-rule="evenodd" fill-opacity="1" /><path clip-path="url(#clip630)" d="M 0 0 M156.214 746.233 L161.098 746.233 L161.098 752.112 L156.214 752.112 L156.214 746.233 Z" fill="#000000" fill-rule="evenodd" fill-opacity="1" /><path clip-path="url(#clip630)" d="M 0 0 M166.214 717.552 L184.57 717.552 L184.57 721.488 L170.496 721.488 L170.496 729.96 Q171.515 729.613 172.533 729.451 Q173.552 729.265 174.57 729.265 Q180.357 729.265 183.737 732.437 Q187.116 735.608 187.116 741.025 Q187.116 746.603 183.644 749.705 Q180.172 752.784 173.852 752.784 Q171.677 752.784 169.408 752.413 Q167.163 752.043 164.755 751.302 L164.755 746.603 Q166.839 747.737 169.061 748.293 Q171.283 748.849 173.76 748.849 Q177.765 748.849 180.102 746.742 Q182.44 744.636 182.44 741.025 Q182.44 737.413 180.102 735.307 Q177.765 733.201 173.76 733.201 Q171.885 733.201 170.01 733.617 Q168.158 734.034 166.214 734.913 L166.214 717.552 Z" fill="#000000" fill-rule="evenodd" fill-opacity="1" /><path clip-path="url(#clip630)" d="M 0 0 M202.186 720.631 Q198.575 720.631 196.746 724.196 Q194.94 727.738 194.94 734.867 Q194.94 741.974 196.746 745.538 Q198.575 749.08 202.186 749.08 Q205.82 749.08 207.625 745.538 Q209.454 741.974 209.454 734.867 Q209.454 727.738 207.625 724.196 Q205.82 720.631 202.186 720.631 M202.186 716.927 Q207.996 716.927 211.051 721.534 Q214.13 726.117 214.13 734.867 Q214.13 743.594 211.051 748.2 Q207.996 752.784 202.186 752.784 Q196.376 752.784 193.297 748.2 Q190.241 743.594 190.241 734.867 Q190.241 726.117 193.297 721.534 Q196.376 716.927 202.186 716.927 Z" fill="#000000" fill-rule="evenodd" fill-opacity="1" /><path clip-path="url(#clip630)" d="M 0 0 M140.103 462.592 Q136.492 462.592 134.663 466.157 Q132.857 469.699 132.857 476.828 Q132.857 483.935 134.663 487.5 Q136.492 491.041 140.103 491.041 Q143.737 491.041 145.542 487.5 Q147.371 483.935 147.371 476.828 Q147.371 469.699 145.542 466.157 Q143.737 462.592 140.103 462.592 M140.103 458.889 Q145.913 458.889 148.968 463.495 Q152.047 468.078 152.047 476.828 Q152.047 485.555 148.968 490.162 Q145.913 494.745 140.103 494.745 Q134.293 494.745 131.214 490.162 Q128.158 485.555 128.158 476.828 Q128.158 468.078 131.214 463.495 Q134.293 458.889 140.103 458.889 Z" fill="#000000" fill-rule="evenodd" fill-opacity="1" /><path clip-path="url(#clip630)" d="M 0 0 M157.116 488.194 L162.001 488.194 L162.001 494.074 L157.116 494.074 L157.116 488.194 Z" fill="#000000" fill-rule="evenodd" fill-opacity="1" /><path clip-path="url(#clip630)" d="M 0 0 M165.89 459.514 L188.112 459.514 L188.112 461.504 L175.565 494.074 L170.681 494.074 L182.487 463.449 L165.89 463.449 L165.89 459.514 Z" fill="#000000" fill-rule="evenodd" fill-opacity="1" /><path clip-path="url(#clip630)" d="M 0 0 M193.227 459.514 L211.584 459.514 L211.584 463.449 L197.51 463.449 L197.51 471.921 Q198.528 471.574 199.547 471.412 Q200.565 471.227 201.584 471.227 Q207.371 471.227 210.75 474.398 Q214.13 477.569 214.13 482.986 Q214.13 488.564 210.658 491.666 Q207.186 494.745 200.866 494.745 Q198.69 494.745 196.422 494.375 Q194.176 494.004 191.769 493.264 L191.769 488.564 Q193.852 489.699 196.075 490.254 Q198.297 490.81 200.774 490.81 Q204.778 490.81 207.116 488.703 Q209.454 486.597 209.454 482.986 Q209.454 479.375 207.116 477.268 Q204.778 475.162 200.774 475.162 Q198.899 475.162 197.024 475.578 Q195.172 475.995 193.227 476.875 L193.227 459.514 Z" fill="#000000" fill-rule="evenodd" fill-opacity="1" /><path clip-path="url(#clip630)" d="M 0 0 M130.242 232.1 L137.88 232.1 L137.88 205.734 L129.57 207.401 L129.57 203.142 L137.834 201.475 L142.51 201.475 L142.51 232.1 L150.149 232.1 L150.149 236.035 L130.242 236.035 L130.242 232.1 Z" fill="#000000" fill-rule="evenodd" fill-opacity="1" /><path clip-path="url(#clip630)" d="M 0 0 M155.218 230.155 L160.103 230.155 L160.103 236.035 L155.218 236.035 L155.218 230.155 Z" fill="#000000" fill-rule="evenodd" fill-opacity="1" /><path clip-path="url(#clip630)" d="M 0 0 M175.172 204.554 Q171.561 204.554 169.732 208.118 Q167.927 211.66 167.927 218.79 Q167.927 225.896 169.732 229.461 Q171.561 233.003 175.172 233.003 Q178.806 233.003 180.612 229.461 Q182.44 225.896 182.44 218.79 Q182.44 211.66 180.612 208.118 Q178.806 204.554 175.172 204.554 M175.172 200.85 Q180.982 200.85 184.038 205.456 Q187.116 210.04 187.116 218.79 Q187.116 227.516 184.038 232.123 Q180.982 236.706 175.172 236.706 Q169.362 236.706 166.283 232.123 Q163.228 227.516 163.228 218.79 Q163.228 210.04 166.283 205.456 Q169.362 200.85 175.172 200.85 Z" fill="#000000" fill-rule="evenodd" fill-opacity="1" /><path clip-path="url(#clip630)" d="M 0 0 M202.186 204.554 Q198.575 204.554 196.746 208.118 Q194.94 211.66 194.94 218.79 Q194.94 225.896 196.746 229.461 Q198.575 233.003 202.186 233.003 Q205.82 233.003 207.625 229.461 Q209.454 225.896 209.454 218.79 Q209.454 211.66 207.625 208.118 Q205.82 204.554 202.186 204.554 M202.186 200.85 Q207.996 200.85 211.051 205.456 Q214.13 210.04 214.13 218.79 Q214.13 227.516 211.051 232.123 Q207.996 236.706 202.186 236.706 Q196.376 236.706 193.297 232.123 Q190.241 227.516 190.241 218.79 Q190.241 210.04 193.297 205.456 Q196.376 200.85 202.186 200.85 Z" fill="#000000" fill-rule="evenodd" fill-opacity="1" /><path clip-path="url(#clip630)" d="M 0 0 M1312.06 1520.4 L1299.17 1537.74 L1312.73 1556.04 L1305.82 1556.04 L1295.44 1542.04 L1285.07 1556.04 L1278.16 1556.04 L1292.01 1537.39 L1279.34 1520.4 L1286.24 1520.4 L1295.7 1533.1 L1305.15 1520.4 L1312.06 1520.4 Z" fill="#000000" fill-rule="evenodd" fill-opacity="1" /><path clip-path="url(#clip630)" d="M 0 0 M70.212 745.095 Q76.6732 745.095 80.3653 742.453 Q84.0256 739.779 84.0256 735.132 Q84.0256 730.485 80.3653 727.812 Q76.6732 725.138 70.212 725.138 Q63.7508 725.138 60.0905 727.812 Q56.3984 730.485 56.3984 735.132 Q56.3984 739.779 60.0905 742.453 Q63.7508 745.095 70.212 745.095 M82.657 725.138 Q85.8398 726.984 87.3994 729.817 Q88.9272 732.618 88.9272 736.565 Q88.9272 743.026 83.771 747.1 Q78.6147 751.142 70.212 751.142 Q61.8093 751.142 56.6531 747.1 Q51.4968 743.026 51.4968 736.565 Q51.4968 732.618 53.0564 729.817 Q54.5842 726.984 57.7671 725.138 L52.3562 725.138 L52.3562 719.282 L101.563 719.282 L101.563 725.138 L82.657 725.138 Z" fill="#000000" fill-rule="evenodd" fill-opacity="1" /><polyline clip-path="url(#clip632)" style="stroke:#009af9; stroke-width:4; stroke-opacity:1; fill:none" points="
  297.978,1250.91 300.669,1250.91 305.771,1250.91 310.872,1250.91 313.563,1250.91 316.255,1250.91 321.356,1250.91 326.458,1250.91 329.149,1250.91 
  331.84,1250.91 336.941,1250.91 342.043,1250.91 344.734,1250.91 347.425,1250.91 352.527,1250.91 357.628,1250.91 360.32,1250.91 
  363.011,1250.91 368.112,1250.91 373.214,1250.91 375.905,1250.91 378.596,1250.91 383.698,1250.91 388.799,1250.91 391.49,1250.91 
  394.181,1250.91 399.283,1250.91 404.385,1250.91 407.076,1250.91 409.767,1250.91 414.868,1250.91 419.97,1250.91 422.661,1250.91 
  425.352,1250.91 430.454,1250.91 435.555,1250.91 438.246,1250.91 440.938,1250.91 446.039,1250.91 451.141,1250.91 453.832,1250.91 
  456.523,1250.91 461.625,1250.91 466.726,1250.91 469.417,1250.91 472.108,1250.91 477.21,1250.91 482.311,1250.91 485.003,1250.91 
  487.694,1250.91 492.795,1250.91 497.897,1250.91 500.588,1250.91 503.279,1250.91 508.381,1250.91 513.482,1250.91 516.173,1250.91 
  518.865,1250.91 523.966,1250.91 529.068,1250.91 531.759,1250.91 534.45,1250.91 539.552,1250.91 544.653,1250.91 547.344,1250.91 
  550.035,1250.91 555.137,1250.91 560.238,1250.91 562.93,1250.91 565.621,1250.91 570.722,1250.91 575.824,1250.91 578.515,1250.91 
  581.206,1250.91 586.308,1250.91 591.409,1250.91 594.1,1250.91 596.792,1250.91 601.893,1250.91 606.995,1250.91 609.686,1250.91 
  612.377,1250.91 617.478,1250.91 622.58,1250.91 625.271,1250.91 627.962,1250.91 633.064,1250.91 638.165,1250.91 640.857,1250.91 
  643.548,1250.91 648.649,1250.91 653.751,1250.91 656.442,1250.91 659.133,1250.91 664.235,1250.91 669.336,1250.91 672.027,1250.91 
  674.719,1250.91 679.82,1250.91 684.922,1250.91 687.613,1250.91 690.304,1250.91 695.405,1250.91 700.507,1250.91 703.198,1250.91 
  705.889,1250.91 710.991,1250.91 716.092,1250.91 718.784,1250.91 721.475,1250.91 726.576,218.755 731.678,218.755 734.369,218.755 
  737.06,218.755 742.162,218.755 747.263,218.755 749.954,218.755 752.645,218.755 757.747,218.755 762.849,218.755 765.54,218.755 
  768.231,218.755 773.332,218.755 778.434,218.755 781.125,218.755 783.816,218.755 788.918,218.755 794.019,218.755 796.71,218.755 
  799.402,218.755 804.503,218.755 809.605,218.755 812.296,218.755 814.987,218.755 820.089,218.755 825.19,218.755 827.881,218.755 
  830.572,218.755 835.674,218.755 840.775,218.755 843.467,218.755 846.158,218.755 851.259,218.755 856.361,218.755 859.052,218.755 
  861.743,218.755 866.845,218.755 871.946,218.755 874.637,218.755 877.329,218.755 882.43,218.755 887.532,218.755 890.223,218.755 
  892.914,218.755 898.016,218.755 903.117,218.755 905.808,218.755 908.499,218.755 913.601,218.755 918.702,218.755 921.394,218.755 
  924.085,218.755 929.186,218.755 934.288,218.755 936.979,218.755 939.67,218.755 944.772,218.755 949.873,218.755 952.564,218.755 
  955.256,218.755 960.357,218.755 965.459,218.755 968.15,218.755 970.841,218.755 975.942,218.755 981.044,218.755 983.735,218.755 
  986.426,218.755 991.528,218.755 996.629,218.755 999.321,218.755 1002.01,218.755 1007.11,218.755 1012.21,1250.91 1014.91,1250.91 
  1017.6,1250.91 1022.7,1250.91 1027.8,1250.91 1030.49,1250.91 1033.18,1250.91 1038.28,1250.91 1043.39,1250.91 1046.08,1250.91 
  1048.77,1250.91 1053.87,1250.91 1058.97,1250.91 1061.66,1250.91 1064.35,1250.91 1069.45,1250.91 1074.56,1250.91 1077.25,1250.91 
  1079.94,1250.91 1085.04,1250.91 1090.14,1250.91 1092.83,1250.91 1095.52,1250.91 1100.63,1250.91 1105.73,1250.91 1108.42,1250.91 
  1111.11,1250.91 1116.21,1250.91 1121.31,1250.91 1124,1250.91 1126.69,1250.91 1131.8,1250.91 1136.9,1250.91 1139.59,1250.91 
  1142.28,1250.91 1147.38,1250.91 1152.48,1250.91 1155.17,1250.91 1157.87,1250.91 1162.97,1250.91 1168.07,1250.91 1170.76,1250.91 
  1173.45,1250.91 1178.55,1250.91 1183.65,1250.91 1186.35,1250.91 1189.04,1250.91 1194.14,1250.91 1199.24,1250.91 1201.93,1250.91 
  1204.62,1250.91 1209.72,1250.91 1214.82,1250.91 1217.52,1250.91 1220.21,1250.91 1225.31,1250.91 1230.41,1250.91 1233.1,1250.91 
  1235.79,1250.91 1240.89,1250.91 1246,1250.91 1248.69,1250.91 1251.38,1250.91 1256.48,1250.91 1261.58,1250.91 1264.27,1250.91 
  1266.96,1250.91 1272.06,1250.91 1277.17,1250.91 1279.86,1250.91 1282.55,1250.91 1287.65,1250.91 1292.75,1250.91 1295.44,1250.91 
  1298.13,1250.91 1303.24,1250.91 1308.34,1250.91 1311.03,1250.91 1313.72,1250.91 1318.82,1250.91 1323.92,1250.91 1326.61,1250.91 
  1329.3,1250.91 1334.41,1250.91 1339.51,1250.91 1342.2,1250.91 1344.89,1250.91 1349.99,1250.91 1355.09,1250.91 1357.78,1250.91 
  1360.48,1250.91 1365.58,1250.91 1370.68,1250.91 1373.37,1250.91 1376.06,1250.91 1381.16,1250.91 1386.26,1250.91 1388.96,1250.91 
  1391.65,1250.91 1396.75,1250.91 1401.85,1250.91 1404.54,1250.91 1407.23,1250.91 1412.33,1250.91 1417.43,1250.91 1420.13,1250.91 
  1422.82,1250.91 1427.92,1250.91 1433.02,1250.91 1435.71,1250.91 1438.4,1250.91 1443.5,1250.91 1448.61,1250.91 1451.3,1250.91 
  1453.99,1250.91 1459.09,1250.91 1464.19,1250.91 1466.88,1250.91 1469.57,1250.91 1474.67,1250.91 1479.78,1250.91 1482.47,1250.91 
  1485.16,1250.91 1490.26,1250.91 1495.36,1250.91 1498.05,1250.91 1500.74,1250.91 1505.85,1250.91 1510.95,1250.91 1513.64,1250.91 
  1516.33,1250.91 1521.43,1250.91 1526.53,1250.91 1529.22,1250.91 1531.92,1250.91 1537.02,1250.91 1542.12,1250.91 1544.81,1250.91 
  1547.5,1250.91 1552.6,1250.91 1557.7,1250.91 1560.39,1250.91 1563.09,1250.91 1568.19,1250.91 1573.29,1250.91 1575.98,1250.91 
  1578.67,1250.91 1583.77,1250.91 1588.87,1250.91 1591.57,1250.91 1594.26,1250.91 1599.36,1250.91 1604.46,1250.91 1607.15,1250.91 
  1609.84,1250.91 1614.94,1250.91 1620.05,1250.91 1622.74,1250.91 1625.43,1250.91 1630.53,1250.91 1635.63,1250.91 1638.32,1250.91 
  1641.01,1250.91 1646.11,1250.91 1651.22,1250.91 1653.91,1250.91 1656.6,1250.91 1661.7,1250.91 1666.8,1250.91 1669.49,1250.91 
  1672.18,1250.91 1677.29,1250.91 1682.39,1250.91 1685.08,1250.91 1687.77,1250.91 1692.87,1250.91 1697.97,1250.91 1700.66,1250.91 
  1703.35,1250.91 1708.46,1250.91 1713.56,1250.91 1716.25,1250.91 1718.94,1250.91 1724.04,1250.91 1729.14,1250.91 1731.83,1250.91 
  1734.53,1250.91 1739.63,1250.91 1744.73,1250.91 1747.42,1250.91 1750.11,1250.91 1755.21,1250.91 1760.31,1250.91 1763,1250.91 
  1765.7,1250.91 1770.8,1250.91 1775.9,1250.91 1778.59,1250.91 1781.28,1250.91 1786.38,1250.91 1791.48,1250.91 1794.18,1250.91 
  1796.87,1250.91 1801.97,1250.91 1807.07,1250.91 1809.76,1250.91 1812.45,1250.91 1817.55,1250.91 1822.66,1250.91 1825.35,1250.91 
  1828.04,1250.91 1833.14,1250.91 1838.24,1250.91 1840.93,1250.91 1843.62,1250.91 1848.72,1250.91 1853.83,1250.91 1856.52,1250.91 
  1859.21,1250.91 1864.31,1250.91 1869.41,1250.91 1872.1,1250.91 1874.79,1250.91 1879.9,1250.91 1885,1250.91 1887.69,1250.91 
  1890.38,1250.91 1895.48,1250.91 1900.58,1250.91 1903.27,1250.91 1905.96,1250.91 1911.07,1250.91 1916.17,1250.91 1918.86,1250.91 
  1921.55,1250.91 1926.65,1250.91 1931.75,1250.91 1934.44,1250.91 1937.14,1250.91 1942.24,1250.91 1947.34,1250.91 1950.03,1250.91 
  1952.72,1250.91 1957.82,1250.91 1962.92,1250.91 1965.61,1250.91 1968.31,1250.91 1973.41,1250.91 1978.51,1250.91 1981.2,1250.91 
  1983.89,1250.91 1988.99,1250.91 1994.09,1250.91 1996.79,1250.91 1999.48,1250.91 2004.58,1250.91 2009.68,1250.91 2012.37,1250.91 
  2015.06,1250.91 2020.16,1250.91 2025.27,1250.91 2027.96,1250.91 2030.65,1250.91 2035.75,1250.91 2040.85,1250.91 2043.54,1250.91 
  2046.23,1250.91 2051.33,1250.91 2056.44,1250.91 2059.13,1250.91 2061.82,1250.91 2066.92,1250.91 2072.02,1250.91 2074.71,1250.91 
  2077.4,1250.91 2082.51,1250.91 2087.61,1250.91 2090.3,1250.91 2092.99,1250.91 2098.09,1250.91 2103.19,1250.91 2105.88,1250.91 
  2108.57,1250.91 2113.68,1250.91 2118.78,1250.91 2121.47,1250.91 2124.16,1250.91 2129.26,1250.91 2134.36,1250.91 2137.05,1250.91 
  2139.75,1250.91 2144.85,1250.91 2149.95,1250.91 2152.64,1250.91 2155.33,1250.91 2160.43,1250.91 2165.53,1250.91 2168.22,1250.91 
  2170.92,1250.91 2176.02,1250.91 2181.12,1250.91 2183.81,1250.91 2186.5,1250.91 2191.6,1250.91 2196.7,1250.91 2199.4,1250.91 
  2202.09,1250.91 2207.19,1250.91 2212.29,1250.91 2214.98,1250.91 2217.67,1250.91 2222.77,1250.91 2227.88,1250.91 2230.57,1250.91 
  2233.26,1250.91 2238.36,1250.91 2243.46,1250.91 2246.15,1250.91 2248.84,1250.91 2253.94,1250.91 2259.05,1250.91 2261.74,1250.91 
  2264.43,1250.91 2269.53,1250.91 2274.63,1250.91 2277.32,1250.91 2280.01,1250.91 2285.12,1250.91 2290.22,1250.91 2292.91,1250.91 
  
  "/>
<polyline clip-path="url(#clip632)" style="stroke:#e26f46; stroke-width:4; stroke-opacity:1; fill:none" points="
  297.978,1250.91 300.669,1250.91 305.771,1250.91 310.872,1250.91 313.563,1250.91 316.255,1250.91 321.356,1250.91 326.458,1250.91 329.149,1250.91 
  331.84,1250.91 336.941,1250.91 342.043,1250.91 344.734,1250.91 347.425,1250.91 352.527,1250.91 357.628,1250.91 360.32,1250.91 
  363.011,1250.91 368.112,1250.91 373.214,1250.91 375.905,1250.91 378.596,1250.91 383.698,1250.91 388.799,1250.91 391.49,1250.91 
  394.181,1250.91 399.283,1250.91 404.385,1250.91 407.076,1250.91 409.767,1250.91 414.868,1250.91 419.97,1250.91 422.661,1250.91 
  425.352,1250.91 430.454,1250.91 435.555,1250.91 438.246,1250.91 440.938,1250.91 446.039,1250.91 451.141,1250.91 453.832,1250.91 
  456.523,1250.91 461.625,1250.91 466.726,1250.91 469.417,1250.91 472.108,1250.91 477.21,1250.91 482.311,1250.91 485.003,1250.91 
  487.694,1250.91 492.795,1250.91 497.897,1250.91 500.588,1250.91 503.279,1250.91 508.381,1250.91 513.482,1250.91 516.173,1250.91 
  518.865,1250.91 523.966,1250.91 529.068,1250.91 531.759,1250.91 534.45,1250.91 539.552,1250.91 544.653,1250.91 547.344,1250.91 
  550.035,1250.91 555.137,1250.91 560.238,1250.91 562.93,1250.91 565.621,1250.91 570.722,1250.91 575.824,1250.91 578.515,1250.91 
  581.206,1250.91 586.308,1250.91 591.409,1250.91 594.1,1250.91 596.792,1250.91 601.893,1250.91 606.995,1250.91 609.686,1250.91 
  612.377,1250.91 617.478,1250.91 622.58,1250.91 625.271,1250.91 627.962,1250.91 633.064,1250.91 638.165,1250.91 640.857,1250.91 
  643.548,1250.91 648.649,1250.91 653.751,1250.91 656.442,1250.91 659.133,1250.91 664.235,1250.91 669.336,1250.91 672.027,1250.91 
  674.719,1250.91 679.82,1250.91 684.922,1250.91 687.613,1250.91 690.304,1250.91 695.405,1250.91 700.507,1250.91 703.198,1250.91 
  705.889,1250.91 710.991,1250.91 716.092,1250.91 718.784,1250.91 721.475,1250.91 726.576,1250.91 731.678,1250.91 734.369,1250.91 
  737.06,1250.91 742.162,1250.91 747.263,1250.91 749.954,1250.91 752.645,1250.91 757.747,1250.91 762.849,1250.91 765.54,1250.91 
  768.231,1250.91 773.332,1250.91 778.434,1250.91 781.125,1250.91 781.125,1250.91 783.816,1250.91 788.918,1250.91 794.019,1250.91 796.71,1250.91 
  799.402,1250.91 804.503,1250.91 809.605,1250.91 812.296,1250.91 812.296,1250.91 814.987,1250.91 820.089,1250.91 825.19,1250.91 827.881,1250.91 
  827.881,1250.91 830.572,1250.91 835.674,1250.91 840.775,1250.91 843.467,1250.91 843.467,1250.91 846.158,1250.91 851.259,1250.91 856.361,1250.91 859.052,1250.91 
  859.052,1250.91 861.743,1250.91 866.845,1250.91 871.946,1250.91 874.637,1250.91 874.637,1250.91 877.329,1250.91 882.43,1250.91 887.532,1250.91 890.223,1250.91 
  890.223,1250.91 892.914,1250.91 898.016,1250.91 903.117,1250.91 905.808,1250.91 905.808,1250.91 908.499,1250.91 913.601,1250.91 918.702,1250.91 921.394,1250.91 
  921.394,1250.91 924.085,1250.91 929.186,1250.91 934.288,1250.91 936.979,1250.91 936.979,1250.91 939.67,1250.91 944.772,1250.91 949.873,1250.91 952.564,1250.91 
  952.564,1250.91 955.256,1250.91 960.357,1250.91 965.459,1250.91 968.15,1250.91 968.15,1250.91 970.841,1250.91 975.942,1250.91 981.044,1250.91 983.735,1250.91 
  983.735,1250.91 986.426,1250.91 991.528,1250.91 996.629,1250.91 999.321,1250.91 999.321,1250.91 1002.01,1250.91 1007.11,1250.91 1012.21,1250.91 1014.91,1250.91 
  1014.91,1250.91 1017.6,1250.91 1022.7,1250.91 1027.8,1250.91 1030.49,1250.91 1030.49,1250.91 1033.18,1250.91 1038.28,1250.91 1043.39,1250.91 1046.08,1250.91 
  1046.08,1250.91 1048.77,1250.91 1053.87,1250.91 1058.97,1250.91 1061.66,1250.91 1061.66,1250.91 1064.35,1250.91 1069.45,1250.91 1074.56,1250.91 1077.25,1250.91 
  1077.25,1250.91 1079.94,1250.91 1085.04,1250.91 1090.14,1250.91 1092.83,1250.91 1092.83,1250.91 1095.52,1250.92 1100.63,1250.91 1105.73,1250.9 1108.42,1250.9 
  1108.42,1250.9 1111.11,1250.9 1116.21,1250.93 1121.31,1250.92 1124,1250.89 1124,1250.91 1126.69,1250.86 1131.8,1250.89 1136.9,1250.98 1139.59,1251 
  1139.59,1250.98 1142.28,1250.98 1147.38,1250.78 1152.48,1250.78 1155.17,1250.92 1155.17,1250.88 1157.87,1251.12 1162.97,1251.19 1168.07,1250.65 1170.76,1250.36 
  1170.76,1250.53 1173.45,1250.26 1178.55,1251.26 1183.65,1252.01 1186.35,1251.67 1186.35,1251.58 1189.04,1250.77 1194.14,1248.89 1199.24,1250.36 1201.93,1252.33 
  1201.93,1251.8 1204.62,1254.28 1209.72,1253.06 1214.82,1246.85 1217.52,1244.54 1217.52,1245.86 1220.21,1244.64 1225.31,1255.12 1230.41,1262.5 1233.1,1259.59 
  1233.1,1258.41 1235.79,1251.64 1240.89,1231.85 1246,1237.45 1248.69,1253.17 1248.69,1252.54 1251.38,1272.37 1256.48,1287.36 1261.58,1247.36 1264.27,1214.18 
  1264.27,1217.32 1266.96,1187.59 1272.06,1205.01 1277.17,1305.7 1279.86,1359.49 1279.86,1355.32 1282.55,1384.24 1287.65,1276.4 1292.75,970.038 1295.44,765.862 
  1295.44,768.944 1298.13,566.447 1303.24,287.226 1308.34,174.661 1311.03,169.735 1311.03,168.291 1313.72,184.444 1318.82,218.673 1323.92,230.97 1326.61,228.04 
  1326.61,228.534 1329.3,222.704 1334.41,216.034 1339.51,216.143 1342.2,217.701 1342.2,217.579 1344.89,219.064 1349.99,219.684 1355.09,218.954 1357.78,218.589 
  1357.78,218.596 1360.48,218.451 1365.58,218.631 1370.68,218.836 1373.37,218.85 1373.37,218.855 1376.06,218.812 1381.16,218.731 1386.26,218.727 1388.96,218.75 
  1388.96,218.745 1391.65,218.774 1396.75,218.77 1401.85,218.732 1404.54,218.724 1404.54,218.732 1407.23,218.733 1412.33,218.799 1417.43,218.79 1420.13,218.741 
  1420.13,218.759 1422.82,218.675 1427.92,218.683 1433.02,218.868 1435.71,218.939 1435.71,218.881 1438.4,218.934 1443.5,218.562 1448.61,218.436 1451.3,218.641 
  1451.3,218.617 1453.99,219.003 1459.09,219.39 1464.19,218.555 1466.88,217.913 1466.88,218.201 1469.57,217.473 1474.67,218.8 1479.78,220.708 1482.47,220.707 
  1482.47,220.343 1485.16,219.664 1490.26,215.597 1495.36,216.053 1498.05,218.979 1498.05,218.61 1500.74,222.82 1505.85,225.067 1510.95,215.947 1513.64,209.773 
  1513.64,211.667 1516.33,205.969 1521.43,217.034 1526.53,236.535 1529.22,240.097 1529.22,236.94 1531.92,234.961 1537.02,199.562 1542.12,181.106 1544.81,192.611 
  1544.81,195.901 1547.5,218.319 1552.6,279.44 1557.7,271.335 1560.39,227.971 1560.39,225.294 1563.09,169.143 1568.19,86.1857 1573.29,173.962 1575.98,307.146 
  1575.98,308.991 1578.67,487.043 1583.77,872.105 1588.87,1165.66 1591.57,1252.7 1591.57,1251.86 1594.26,1294 1599.36,1288.35 1604.46,1253.07 1607.15,1241.93 
  1607.15,1242.01 1609.84,1238.83 1614.94,1246.04 1620.05,1253.44 1622.74,1254.34 1622.74,1254.46 1625.43,1253.47 1630.53,1250.83 1635.63,1249.93 1638.32,1250.25 
  1638.32,1250.19 1641.01,1250.73 1646.11,1251.19 1651.22,1251.06 1653.91,1250.92 1653.91,1250.92 1656.6,1250.83 1661.7,1250.85 1666.8,1250.92 1669.49,1250.94 
  1669.49,1250.94 1672.18,1250.93 1677.29,1250.91 1682.39,1250.9 1685.08,1250.91 1685.08,1250.9 1687.77,1250.91 1692.87,1250.91 1697.97,1250.91 1700.66,1250.91 
  1700.66,1250.91 1703.35,1250.91 1708.46,1250.91 1713.56,1250.91 1716.25,1250.91 1716.25,1250.91 1718.94,1250.91 1724.04,1250.91 1729.14,1250.91 1731.83,1250.91 
  1731.83,1250.91 1734.53,1250.91 1739.63,1250.91 1744.73,1250.91 1747.42,1250.91 1747.42,1250.91 1750.11,1250.91 1755.21,1250.91 1760.31,1250.91 1763,1250.91 
  1763,1250.91 1765.7,1250.91 1770.8,1250.91 1775.9,1250.91 1778.59,1250.91 1778.59,1250.91 1781.28,1250.91 1786.38,1250.91 1791.48,1250.91 1794.18,1250.91 
  1794.18,1250.91 1796.87,1250.91 1801.97,1250.91 1807.07,1250.91 1809.76,1250.91 1809.76,1250.91 1812.45,1250.91 1817.55,1250.91 1822.66,1250.91 1825.35,1250.91 
  1825.35,1250.91 1828.04,1250.91 1833.14,1250.91 1838.24,1250.91 1840.93,1250.91 1840.93,1250.91 1843.62,1250.91 1848.72,1250.91 1853.83,1250.91 1856.52,1250.91 
  1856.52,1250.91 1859.21,1250.91 1864.31,1250.91 1869.41,1250.91 1872.1,1250.91 1872.1,1250.91 1874.79,1250.91 1879.9,1250.91 1885,1250.91 1887.69,1250.91 
  1887.69,1250.91 1890.38,1250.91 1895.48,1250.91 1900.58,1250.91 1903.27,1250.91 1905.96,1250.91 1911.07,1250.91 1916.17,1250.91 1918.86,1250.91 
  1921.55,1250.91 1926.65,1250.91 1931.75,1250.91 1934.44,1250.91 1937.14,1250.91 1942.24,1250.91 1947.34,1250.91 1950.03,1250.91 
  1952.72,1250.91 1957.82,1250.91 1962.92,1250.91 1965.61,1250.91 1968.31,1250.91 1973.41,1250.91 1978.51,1250.91 1981.2,1250.91 
  1983.89,1250.91 1988.99,1250.91 1994.09,1250.91 1996.79,1250.91 1999.48,1250.91 2004.58,1250.91 2009.68,1250.91 2012.37,1250.91 
  2015.06,1250.91 2020.16,1250.91 2025.27,1250.91 2027.96,1250.91 2030.65,1250.91 2035.75,1250.91 2040.85,1250.91 2043.54,1250.91 
  2046.23,1250.91 2051.33,1250.91 2056.44,1250.91 2059.13,1250.91 2061.82,1250.91 2066.92,1250.91 2072.02,1250.91 2074.71,1250.91 
  2077.4,1250.91 2082.51,1250.91 2087.61,1250.91 2090.3,1250.91 2092.99,1250.91 2098.09,1250.91 2103.19,1250.91 2105.88,1250.91 
  2108.57,1250.91 2113.68,1250.91 2118.78,1250.91 2121.47,1250.91 2124.16,1250.91 2129.26,1250.91 2134.36,1250.91 2137.05,1250.91 
  2139.75,1250.91 2144.85,1250.91 2149.95,1250.91 2152.64,1250.91 2155.33,1250.91 2160.43,1250.91 2165.53,1250.91 2168.22,1250.91 
  2170.92,1250.91 2176.02,1250.91 2181.12,1250.91 2183.81,1250.91 2186.5,1250.91 2191.6,1250.91 2196.7,1250.91 2199.4,1250.91 
  2202.09,1250.91 2207.19,1250.91 2212.29,1250.91 2214.98,1250.91 2217.67,1250.91 2222.77,1250.91 2227.88,1250.91 2230.57,1250.91 
  2233.26,1250.91 2238.36,1250.91 2243.46,1250.91 2246.15,1250.91 2248.84,1250.91 2253.94,1250.91 2259.05,1250.91 2261.74,1250.91 
  2264.43,1250.91 2269.53,1250.91 2274.63,1250.91 2277.32,1250.91 2280.01,1250.91 2285.12,1250.91 2290.22,1250.91 2292.91,1250.91 
  
  "/>
<path clip-path="url(#clip630)" d="
M1802.38 274.549 L2282.27 274.549 L2282.27 93.1086 L1802.38 93.1086  Z
  " fill="#ffffff" fill-rule="evenodd" fill-opacity="1"/>
<polyline clip-path="url(#clip630)" style="stroke:#000000; stroke-width:4; stroke-opacity:1; fill:none" points="
  1802.38,274.549 2282.27,274.549 2282.27,93.1086 1802.38,93.1086 1802.38,274.549 
  "/>
<polyline clip-path="url(#clip630)" style="stroke:#009af9; stroke-width:4; stroke-opacity:1; fill:none" points="
  1825.88,153.589 1966.85,153.589 
  "/>
<path clip-path="url(#clip630)" d="M 0 0 M1994.75 157.929 Q1994.75 162.628 1996.67 165.313 Q1998.61 167.975 2001.99 167.975 Q2005.37 167.975 2007.31 165.313 Q2009.26 162.628 2009.26 157.929 Q2009.26 153.23 2007.31 150.568 Q2005.37 147.883 2001.99 147.883 Q1998.61 147.883 1996.67 150.568 Q1994.75 153.23 1994.75 157.929 M2009.26 166.98 Q2007.92 169.295 2005.86 170.429 Q2003.82 171.54 2000.95 171.54 Q1996.25 171.54 1993.29 167.79 Q1990.35 164.04 1990.35 157.929 Q1990.35 151.818 1993.29 148.068 Q1996.25 144.318 2000.95 144.318 Q2003.82 144.318 2005.86 145.452 Q2007.92 146.563 2009.26 148.878 L2009.26 144.943 L2013.52 144.943 L2013.52 180.73 L2009.26 180.73 L2009.26 166.98 Z" fill="#000000" fill-rule="evenodd" fill-opacity="1" /><path clip-path="url(#clip630)" d="M 0 0 M2019.07 164.989 L2023.96 164.989 L2023.96 168.97 L2020.16 176.378 L2017.18 176.378 L2019.07 168.97 L2019.07 164.989 Z" fill="#000000" fill-rule="evenodd" fill-opacity="1" /><path clip-path="url(#clip630)" d="M 0 0 M2047.71 137.582 L2047.71 144.943 L2056.48 144.943 L2056.48 148.253 L2047.71 148.253 L2047.71 162.327 Q2047.71 165.498 2048.56 166.401 Q2049.44 167.304 2052.11 167.304 L2056.48 167.304 L2056.48 170.869 L2052.11 170.869 Q2047.18 170.869 2045.3 169.04 Q2043.43 167.188 2043.43 162.327 L2043.43 148.253 L2040.3 148.253 L2040.3 144.943 L2043.43 144.943 L2043.43 137.582 L2047.71 137.582 Z" fill="#000000" fill-rule="evenodd" fill-opacity="1" /><path clip-path="url(#clip630)" d="M 0 0 M2061.5 149.341 L2091.18 149.341 L2091.18 153.23 L2061.5 153.23 L2061.5 149.341 M2061.5 158.785 L2091.18 158.785 L2091.18 162.721 L2061.5 162.721 L2061.5 158.785 Z" fill="#000000" fill-rule="evenodd" fill-opacity="1" /><path clip-path="url(#clip630)" d="M 0 0 M2106.25 139.387 Q2102.64 139.387 2100.81 142.952 Q2099 146.494 2099 153.623 Q2099 160.73 2100.81 164.295 Q2102.64 167.836 2106.25 167.836 Q2109.88 167.836 2111.69 164.295 Q2113.52 160.73 2113.52 153.623 Q2113.52 146.494 2111.69 142.952 Q2109.88 139.387 2106.25 139.387 M2106.25 135.684 Q2112.06 135.684 2115.12 140.29 Q2118.19 144.873 2118.19 153.623 Q2118.19 162.35 2115.12 166.957 Q2112.06 171.54 2106.25 171.54 Q2100.44 171.54 2097.36 166.957 Q2094.31 162.35 2094.31 153.623 Q2094.31 144.873 2097.36 140.29 Q2100.44 135.684 2106.25 135.684 Z" fill="#000000" fill-rule="evenodd" fill-opacity="1" /><path clip-path="url(#clip630)" d="M 0 0 M2123.26 164.989 L2128.15 164.989 L2128.15 170.869 L2123.26 170.869 L2123.26 164.989 Z" fill="#000000" fill-rule="evenodd" fill-opacity="1" /><path clip-path="url(#clip630)" d="M 0 0 M2143.22 139.387 Q2139.61 139.387 2137.78 142.952 Q2135.97 146.494 2135.97 153.623 Q2135.97 160.73 2137.78 164.295 Q2139.61 167.836 2143.22 167.836 Q2146.85 167.836 2148.66 164.295 Q2150.49 160.73 2150.49 153.623 Q2150.49 146.494 2148.66 142.952 Q2146.85 139.387 2143.22 139.387 M2143.22 135.684 Q2149.03 135.684 2152.08 140.29 Q2155.16 144.873 2155.16 153.623 Q2155.16 162.35 2152.08 166.957 Q2149.03 171.54 2143.22 171.54 Q2137.41 171.54 2134.33 166.957 Q2131.27 162.35 2131.27 153.623 Q2131.27 144.873 2134.33 140.29 Q2137.41 135.684 2143.22 135.684 Z" fill="#000000" fill-rule="evenodd" fill-opacity="1" /><polyline clip-path="url(#clip630)" style="stroke:#e26f46; stroke-width:4; stroke-opacity:1; fill:none" points="
  1825.88,214.069 1966.85,214.069 
  "/>
<path clip-path="url(#clip630)" d="M 0 0 M1994.75 218.409 Q1994.75 223.108 1996.67 225.793 Q1998.61 228.455 2001.99 228.455 Q2005.37 228.455 2007.31 225.793 Q2009.26 223.108 2009.26 218.409 Q2009.26 213.71 2007.31 211.048 Q2005.37 208.363 2001.99 208.363 Q1998.61 208.363 1996.67 211.048 Q1994.75 213.71 1994.75 218.409 M2009.26 227.46 Q2007.92 229.775 2005.86 230.909 Q2003.82 232.02 2000.95 232.02 Q1996.25 232.02 1993.29 228.27 Q1990.35 224.52 1990.35 218.409 Q1990.35 212.298 1993.29 208.548 Q1996.25 204.798 2000.95 204.798 Q2003.82 204.798 2005.86 205.932 Q2007.92 207.043 2009.26 209.358 L2009.26 205.423 L2013.52 205.423 L2013.52 241.21 L2009.26 241.21 L2009.26 227.46 Z" fill="#000000" fill-rule="evenodd" fill-opacity="1" /><path clip-path="url(#clip630)" d="M 0 0 M2019.07 225.469 L2023.96 225.469 L2023.96 229.45 L2020.16 236.858 L2017.18 236.858 L2019.07 229.45 L2019.07 225.469 Z" fill="#000000" fill-rule="evenodd" fill-opacity="1" /><path clip-path="url(#clip630)" d="M 0 0 M2047.71 198.062 L2047.71 205.423 L2056.48 205.423 L2056.48 208.733 L2047.71 208.733 L2047.71 222.807 Q2047.71 225.978 2048.56 226.881 Q2049.44 227.784 2052.11 227.784 L2056.48 227.784 L2056.48 231.349 L2052.11 231.349 Q2047.18 231.349 2045.3 229.52 Q2043.43 227.668 2043.43 222.807 L2043.43 208.733 L2040.3 208.733 L2040.3 205.423 L2043.43 205.423 L2043.43 198.062 L2047.71 198.062 Z" fill="#000000" fill-rule="evenodd" fill-opacity="1" /><path clip-path="url(#clip630)" d="M 0 0 M2061.5 209.821 L2091.18 209.821 L2091.18 213.71 L2061.5 213.71 L2061.5 209.821 M2061.5 219.265 L2091.18 219.265 L2091.18 223.201 L2061.5 223.201 L2061.5 219.265 Z" fill="#000000" fill-rule="evenodd" fill-opacity="1" /><path clip-path="url(#clip630)" d="M 0 0 M2109.1 200.863 L2097.29 219.312 L2109.1 219.312 L2109.1 200.863 M2107.87 196.789 L2113.75 196.789 L2113.75 219.312 L2118.68 219.312 L2118.68 223.201 L2113.75 223.201 L2113.75 231.349 L2109.1 231.349 L2109.1 223.201 L2093.5 223.201 L2093.5 218.687 L2107.87 196.789 Z" fill="#000000" fill-rule="evenodd" fill-opacity="1" /><path clip-path="url(#clip630)" d="M 0 0 M2123.8 196.789 L2142.15 196.789 L2142.15 200.724 L2128.08 200.724 L2128.08 209.196 Q2129.1 208.849 2130.12 208.687 Q2131.13 208.502 2132.15 208.502 Q2137.94 208.502 2141.32 211.673 Q2144.7 214.844 2144.7 220.261 Q2144.7 225.839 2141.23 228.941 Q2137.75 232.02 2131.43 232.02 Q2129.26 232.02 2126.99 231.65 Q2124.74 231.279 2122.34 230.538 L2122.34 225.839 Q2124.42 226.974 2126.64 227.529 Q2128.87 228.085 2131.34 228.085 Q2135.35 228.085 2137.68 225.978 Q2140.02 223.872 2140.02 220.261 Q2140.02 216.65 2137.68 214.543 Q2135.35 212.437 2131.34 212.437 Q2129.47 212.437 2127.59 212.853 Q2125.74 213.27 2123.8 214.15 L2123.8 196.789 Z" fill="#000000" fill-rule="evenodd" fill-opacity="1" /><path clip-path="url(#clip630)" d="M 0 0 M2159.77 199.867 Q2156.16 199.867 2154.33 203.432 Q2152.52 206.974 2152.52 214.103 Q2152.52 221.21 2154.33 224.775 Q2156.16 228.316 2159.77 228.316 Q2163.4 228.316 2165.21 224.775 Q2167.04 221.21 2167.04 214.103 Q2167.04 206.974 2165.21 203.432 Q2163.4 199.867 2159.77 199.867 M2159.77 196.164 Q2165.58 196.164 2168.63 200.77 Q2171.71 205.353 2171.71 214.103 Q2171.71 222.83 2168.63 227.437 Q2165.58 232.02 2159.77 232.02 Q2153.96 232.02 2150.88 227.437 Q2147.82 222.83 2147.82 214.103 Q2147.82 205.353 2150.88 200.77 Q2153.96 196.164 2159.77 196.164 Z" fill="#000000" fill-rule="evenodd" fill-opacity="1" /><path clip-path="url(#clip630)" d="M 0 0 M2176.78 225.469 L2181.67 225.469 L2181.67 231.349 L2176.78 231.349 L2176.78 225.469 Z" fill="#000000" fill-rule="evenodd" fill-opacity="1" /><path clip-path="url(#clip630)" d="M 0 0 M2199.58 200.863 L2187.78 219.312 L2199.58 219.312 L2199.58 200.863 M2198.36 196.789 L2204.24 196.789 L2204.24 219.312 L2209.17 219.312 L2209.17 223.201 L2204.24 223.201 L2204.24 231.349 L2199.58 231.349 L2199.58 223.201 L2183.98 223.201 L2183.98 218.687 L2198.36 196.789 Z" fill="#000000" fill-rule="evenodd" fill-opacity="1" /><path clip-path="url(#clip630)" d="M 0 0 M2213.05 196.789 L2235.28 196.789 L2235.28 198.779 L2222.73 231.349 L2217.85 231.349 L2229.65 200.724 L2213.05 200.724 L2213.05 196.789 Z" fill="#000000" fill-rule="evenodd" fill-opacity="1" /></svg>
