<?xml version="1.0" encoding="utf-8"?>
<svg xmlns="http://www.w3.org/2000/svg" xmlns:xlink="http://www.w3.org/1999/xlink" width="600" height="400" viewBox="0 0 2400 1600">
<defs>
  <clipPath id="clip990">
    <rect x="0" y="0" width="2400" height="1600"/>
  </clipPath>
</defs>
<path clip-path="url(#clip990)" d="
M0 1600 L2400 1600 L2400 0 L0 0  Z
  " fill="#ffffff" fill-rule="evenodd" fill-opacity="1"/>
<defs>
  <clipPath id="clip991">
    <rect x="480" y="0" width="1681" height="1600"/>
  </clipPath>
</defs>
<path clip-path="url(#clip990)" d="
M238.13 1423.18 L2352.76 1423.18 L2352.76 47.2441 L238.13 47.2441  Z
  " fill="#ffffff" fill-rule="evenodd" fill-opacity="1"/>
<defs>
  <clipPath id="clip992">
    <rect x="238" y="47" width="2116" height="1377"/>
  </clipPath>
</defs>
<polyline clip-path="url(#clip992)" style="stroke:#000000; stroke-width:2; stroke-opacity:0.1; fill:none" points="
  297.978,1423.18 297.978,47.2441 
  "/>
<polyline clip-path="url(#clip992)" style="stroke:#000000; stroke-width:2; stroke-opacity:0.1; fill:none" points="
  867.958,1423.18 867.958,47.2441 
  "/>
<polyline clip-path="url(#clip992)" style="stroke:#000000; stroke-width:2; stroke-opacity:0.1; fill:none" points="
  1437.94,1423.18 1437.94,47.2441 
  "/>
<polyline clip-path="url(#clip992)" style="stroke:#000000; stroke-width:2; stroke-opacity:0.1; fill:none" points="
  2007.92,1423.18 2007.92,47.2441 
  "/>
<polyline clip-path="url(#clip992)" style="stroke:#000000; stroke-width:2; stroke-opacity:0.1; fill:none" points="
  238.13,1382.61 2352.76,1382.61 
  "/>
<polyline clip-path="url(#clip992)" style="stroke:#000000; stroke-width:2; stroke-opacity:0.1; fill:none" points="
  238.13,1077.09 2352.76,1077.09 
  "/>
<polyline clip-path="url(#clip992)" style="stroke:#000000; stroke-width:2; stroke-opacity:0.1; fill:none" points="
  238.13,771.572 2352.76,771.572 
  "/>
<polyline clip-path="url(#clip992)" style="stroke:#000000; stroke-width:2; stroke-opacity:0.1; fill:none" points="
  238.13,466.056 2352.76,466.056 
  "/>
<polyline clip-path="url(#clip992)" style="stroke:#000000; stroke-width:2; stroke-opacity:0.1; fill:none" points="
  238.13,160.539 2352.76,160.539 
  "/>
<polyline clip-path="url(#clip990)" style="stroke:#000000; stroke-width:4; stroke-opacity:1; fill:none" points="
  238.13,1423.18 2352.76,1423.18 
  "/>
<polyline clip-path="url(#clip990)" style="stroke:#000000; stroke-width:4; stroke-opacity:1; fill:none" points="
  238.13,1423.18 238.13,47.2441 
  "/>
<polyline clip-path="url(#clip990)" style="stroke:#000000; stroke-width:4; stroke-opacity:1; fill:none" points="
  297.978,1423.18 297.978,1406.67 
  "/>
<polyline clip-path="url(#clip990)" style="stroke:#000000; stroke-width:4; stroke-opacity:1; fill:none" points="
  867.958,1423.18 867.958,1406.67 
  "/>
<polyline clip-path="url(#clip990)" style="stroke:#000000; stroke-width:4; stroke-opacity:1; fill:none" points="
  1437.94,1423.18 1437.94,1406.67 
  "/>
<polyline clip-path="url(#clip990)" style="stroke:#000000; stroke-width:4; stroke-opacity:1; fill:none" points="
  2007.92,1423.18 2007.92,1406.67 
  "/>
<polyline clip-path="url(#clip990)" style="stroke:#000000; stroke-width:4; stroke-opacity:1; fill:none" points="
  238.13,1382.61 263.506,1382.61 
  "/>
<polyline clip-path="url(#clip990)" style="stroke:#000000; stroke-width:4; stroke-opacity:1; fill:none" points="
  238.13,1077.09 263.506,1077.09 
  "/>
<polyline clip-path="url(#clip990)" style="stroke:#000000; stroke-width:4; stroke-opacity:1; fill:none" points="
  238.13,771.572 263.506,771.572 
  "/>
<polyline clip-path="url(#clip990)" style="stroke:#000000; stroke-width:4; stroke-opacity:1; fill:none" points="
  238.13,466.056 263.506,466.056 
  "/>
<polyline clip-path="url(#clip990)" style="stroke:#000000; stroke-width:4; stroke-opacity:1; fill:none" points="
  238.13,160.539 263.506,160.539 
  "/>
<path clip-path="url(#clip990)" d="M 0 0 M297.978 1445.17 Q294.367 1445.17 292.538 1448.74 Q290.733 1452.28 290.733 1459.41 Q290.733 1466.51 292.538 1470.08 Q294.367 1473.62 297.978 1473.62 Q301.612 1473.62 303.418 1470.08 Q305.246 1466.51 305.246 1459.41 Q305.246 1452.28 303.418 1448.74 Q301.612 1445.17 297.978 1445.17 M297.978 1441.47 Q303.788 1441.47 306.844 1446.07 Q309.922 1450.66 309.922 1459.41 Q309.922 1468.13 306.844 1472.74 Q303.788 1477.32 297.978 1477.32 Q292.168 1477.32 289.089 1472.74 Q286.034 1468.13 286.034 1459.41 Q286.034 1450.66 289.089 1446.07 Q292.168 1441.47 297.978 1441.47 Z" fill="#000000" fill-rule="evenodd" fill-opacity="1" /><path clip-path="url(#clip990)" d="M 0 0 M831.326 1472.72 L838.965 1472.72 L838.965 1446.35 L830.655 1448.02 L830.655 1443.76 L838.919 1442.09 L843.595 1442.09 L843.595 1472.72 L851.234 1472.72 L851.234 1476.65 L831.326 1476.65 L831.326 1472.72 Z" fill="#000000" fill-rule="evenodd" fill-opacity="1" /><path clip-path="url(#clip990)" d="M 0 0 M866.303 1445.17 Q862.692 1445.17 860.863 1448.74 Q859.058 1452.28 859.058 1459.41 Q859.058 1466.51 860.863 1470.08 Q862.692 1473.62 866.303 1473.62 Q869.937 1473.62 871.743 1470.08 Q873.571 1466.51 873.571 1459.41 Q873.571 1452.28 871.743 1448.74 Q869.937 1445.17 866.303 1445.17 M866.303 1441.47 Q872.113 1441.47 875.169 1446.07 Q878.247 1450.66 878.247 1459.41 Q878.247 1468.13 875.169 1472.74 Q872.113 1477.32 866.303 1477.32 Q860.493 1477.32 857.414 1472.74 Q854.359 1468.13 854.359 1459.41 Q854.359 1450.66 857.414 1446.07 Q860.493 1441.47 866.303 1441.47 Z" fill="#000000" fill-rule="evenodd" fill-opacity="1" /><path clip-path="url(#clip990)" d="M 0 0 M893.317 1445.17 Q889.706 1445.17 887.877 1448.74 Q886.071 1452.28 886.071 1459.41 Q886.071 1466.51 887.877 1470.08 Q889.706 1473.62 893.317 1473.62 Q896.951 1473.62 898.756 1470.08 Q900.585 1466.51 900.585 1459.41 Q900.585 1452.28 898.756 1448.74 Q896.951 1445.17 893.317 1445.17 M893.317 1441.47 Q899.127 1441.47 902.182 1446.07 Q905.261 1450.66 905.261 1459.41 Q905.261 1468.13 902.182 1472.74 Q899.127 1477.32 893.317 1477.32 Q887.506 1477.32 884.428 1472.74 Q881.372 1468.13 881.372 1459.41 Q881.372 1450.66 884.428 1446.07 Q887.506 1441.47 893.317 1441.47 Z" fill="#000000" fill-rule="evenodd" fill-opacity="1" /><path clip-path="url(#clip990)" d="M 0 0 M1405.58 1472.72 L1421.9 1472.72 L1421.9 1476.65 L1399.95 1476.65 L1399.95 1472.72 Q1402.61 1469.96 1407.2 1465.33 Q1411.8 1460.68 1412.98 1459.34 Q1415.23 1456.81 1416.11 1455.08 Q1417.01 1453.32 1417.01 1451.63 Q1417.01 1448.87 1415.07 1447.14 Q1413.15 1445.4 1410.04 1445.4 Q1407.85 1445.4 1405.39 1446.17 Q1402.96 1446.93 1400.18 1448.48 L1400.18 1443.76 Q1403.01 1442.62 1405.46 1442.05 Q1407.91 1441.47 1409.95 1441.47 Q1415.32 1441.47 1418.52 1444.15 Q1421.71 1446.84 1421.71 1451.33 Q1421.71 1453.46 1420.9 1455.38 Q1420.11 1457.28 1418.01 1459.87 Q1417.43 1460.54 1414.33 1463.76 Q1411.23 1466.95 1405.58 1472.72 Z" fill="#000000" fill-rule="evenodd" fill-opacity="1" /><path clip-path="url(#clip990)" d="M 0 0 M1436.97 1445.17 Q1433.35 1445.17 1431.53 1448.74 Q1429.72 1452.28 1429.72 1459.41 Q1429.72 1466.51 1431.53 1470.08 Q1433.35 1473.62 1436.97 1473.62 Q1440.6 1473.62 1442.41 1470.08 Q1444.23 1466.51 1444.23 1459.41 Q1444.23 1452.28 1442.41 1448.74 Q1440.6 1445.17 1436.97 1445.17 M1436.97 1441.47 Q1442.78 1441.47 1445.83 1446.07 Q1448.91 1450.66 1448.91 1459.41 Q1448.91 1468.13 1445.83 1472.74 Q1442.78 1477.32 1436.97 1477.32 Q1431.16 1477.32 1428.08 1472.74 Q1425.02 1468.13 1425.02 1459.41 Q1425.02 1450.66 1428.08 1446.07 Q1431.16 1441.47 1436.97 1441.47 Z" fill="#000000" fill-rule="evenodd" fill-opacity="1" /><path clip-path="url(#clip990)" d="M 0 0 M1463.98 1445.17 Q1460.37 1445.17 1458.54 1448.74 Q1456.73 1452.28 1456.73 1459.41 Q1456.73 1466.51 1458.54 1470.08 Q1460.37 1473.62 1463.98 1473.62 Q1467.61 1473.62 1469.42 1470.08 Q1471.25 1466.51 1471.25 1459.41 Q1471.25 1452.28 1469.42 1448.74 Q1467.61 1445.17 1463.98 1445.17 M1463.98 1441.47 Q1469.79 1441.47 1472.85 1446.07 Q1475.92 1450.66 1475.92 1459.41 Q1475.92 1468.13 1472.85 1472.74 Q1469.79 1477.32 1463.98 1477.32 Q1458.17 1477.32 1455.09 1472.74 Q1452.04 1468.13 1452.04 1459.41 Q1452.04 1450.66 1455.09 1446.07 Q1458.17 1441.47 1463.98 1441.47 Z" fill="#000000" fill-rule="evenodd" fill-opacity="1" /><path clip-path="url(#clip990)" d="M 0 0 M1985.15 1458.02 Q1988.51 1458.74 1990.38 1461 Q1992.28 1463.27 1992.28 1466.61 Q1992.28 1471.72 1988.76 1474.52 Q1985.24 1477.32 1978.76 1477.32 Q1976.59 1477.32 1974.27 1476.88 Q1971.98 1476.47 1969.53 1475.61 L1969.53 1471.1 Q1971.47 1472.23 1973.79 1472.81 Q1976.1 1473.39 1978.62 1473.39 Q1983.02 1473.39 1985.31 1471.65 Q1987.63 1469.92 1987.63 1466.61 Q1987.63 1463.55 1985.48 1461.84 Q1983.35 1460.1 1979.53 1460.1 L1975.5 1460.1 L1975.5 1456.26 L1979.71 1456.26 Q1983.16 1456.26 1984.99 1454.89 Q1986.82 1453.5 1986.82 1450.91 Q1986.82 1448.25 1984.92 1446.84 Q1983.05 1445.4 1979.53 1445.4 Q1977.61 1445.4 1975.41 1445.82 Q1973.21 1446.24 1970.57 1447.11 L1970.57 1442.95 Q1973.23 1442.21 1975.55 1441.84 Q1977.88 1441.47 1979.94 1441.47 Q1985.27 1441.47 1988.37 1443.9 Q1991.47 1446.3 1991.47 1450.43 Q1991.47 1453.3 1989.83 1455.29 Q1988.18 1457.25 1985.15 1458.02 Z" fill="#000000" fill-rule="evenodd" fill-opacity="1" /><path clip-path="url(#clip990)" d="M 0 0 M2007.35 1445.17 Q2003.74 1445.17 2001.91 1448.74 Q2000.11 1452.28 2000.11 1459.41 Q2000.11 1466.51 2001.91 1470.08 Q2003.74 1473.62 2007.35 1473.62 Q2010.99 1473.62 2012.79 1470.08 Q2014.62 1466.51 2014.62 1459.41 Q2014.62 1452.28 2012.79 1448.74 Q2010.99 1445.17 2007.35 1445.17 M2007.35 1441.47 Q2013.16 1441.47 2016.22 1446.07 Q2019.3 1450.66 2019.3 1459.41 Q2019.3 1468.13 2016.22 1472.74 Q2013.16 1477.32 2007.35 1477.32 Q2001.54 1477.32 1998.46 1472.74 Q1995.41 1468.13 1995.41 1459.41 Q1995.41 1450.66 1998.46 1446.07 Q2001.54 1441.47 2007.35 1441.47 Z" fill="#000000" fill-rule="evenodd" fill-opacity="1" /><path clip-path="url(#clip990)" d="M 0 0 M2034.36 1445.17 Q2030.75 1445.17 2028.92 1448.74 Q2027.12 1452.28 2027.12 1459.41 Q2027.12 1466.51 2028.92 1470.08 Q2030.75 1473.62 2034.36 1473.62 Q2038 1473.62 2039.8 1470.08 Q2041.63 1466.51 2041.63 1459.41 Q2041.63 1452.28 2039.8 1448.74 Q2038 1445.17 2034.36 1445.17 M2034.36 1441.47 Q2040.17 1441.47 2043.23 1446.07 Q2046.31 1450.66 2046.31 1459.41 Q2046.31 1468.13 2043.23 1472.74 Q2040.17 1477.32 2034.36 1477.32 Q2028.55 1477.32 2025.48 1472.74 Q2022.42 1468.13 2022.42 1459.41 Q2022.42 1450.66 2025.48 1446.07 Q2028.55 1441.47 2034.36 1441.47 Z" fill="#000000" fill-rule="evenodd" fill-opacity="1" /><path clip-path="url(#clip990)" d="M 0 0 M138.205 1368.4 Q134.593 1368.4 132.765 1371.97 Q130.959 1375.51 130.959 1382.64 Q130.959 1389.75 132.765 1393.31 Q134.593 1396.85 138.205 1396.85 Q141.839 1396.85 143.644 1393.31 Q145.473 1389.75 145.473 1382.64 Q145.473 1375.51 143.644 1371.97 Q141.839 1368.4 138.205 1368.4 M138.205 1364.7 Q144.015 1364.7 147.07 1369.31 Q150.149 1373.89 150.149 1382.64 Q150.149 1391.37 147.07 1395.97 Q144.015 1400.56 138.205 1400.56 Q132.394 1400.56 129.316 1395.97 Q126.26 1391.37 126.26 1382.64 Q126.26 1373.89 129.316 1369.31 Q132.394 1364.7 138.205 1364.7 Z" fill="#000000" fill-rule="evenodd" fill-opacity="1" /><path clip-path="url(#clip990)" d="M 0 0 M155.218 1394.01 L160.103 1394.01 L160.103 1399.89 L155.218 1399.89 L155.218 1394.01 Z" fill="#000000" fill-rule="evenodd" fill-opacity="1" /><path clip-path="url(#clip990)" d="M 0 0 M175.172 1368.4 Q171.561 1368.4 169.732 1371.97 Q167.927 1375.51 167.927 1382.64 Q167.927 1389.75 169.732 1393.31 Q171.561 1396.85 175.172 1396.85 Q178.806 1396.85 180.612 1393.31 Q182.44 1389.75 182.44 1382.64 Q182.44 1375.51 180.612 1371.97 Q178.806 1368.4 175.172 1368.4 M175.172 1364.7 Q180.982 1364.7 184.038 1369.31 Q187.116 1373.89 187.116 1382.64 Q187.116 1391.37 184.038 1395.97 Q180.982 1400.56 175.172 1400.56 Q169.362 1400.56 166.283 1395.97 Q163.228 1391.37 163.228 1382.64 Q163.228 1373.89 166.283 1369.31 Q169.362 1364.7 175.172 1364.7 Z" fill="#000000" fill-rule="evenodd" fill-opacity="1" /><path clip-path="url(#clip990)" d="M 0 0 M202.186 1368.4 Q198.575 1368.4 196.746 1371.97 Q194.94 1375.51 194.94 1382.64 Q194.94 1389.75 196.746 1393.31 Q198.575 1396.85 202.186 1396.85 Q205.82 1396.85 207.625 1393.31 Q209.454 1389.75 209.454 1382.64 Q209.454 1375.51 207.625 1371.97 Q205.82 1368.4 202.186 1368.4 M202.186 1364.7 Q207.996 1364.7 211.051 1369.31 Q214.13 1373.89 214.13 1382.64 Q214.13 1391.37 211.051 1395.97 Q207.996 1400.56 202.186 1400.56 Q196.376 1400.56 193.297 1395.97 Q190.241 1391.37 190.241 1382.64 Q190.241 1373.89 193.297 1369.31 Q196.376 1364.7 202.186 1364.7 Z" fill="#000000" fill-rule="evenodd" fill-opacity="1" /><path clip-path="url(#clip990)" d="M 0 0 M140.797 1062.89 Q137.186 1062.89 135.357 1066.45 Q133.552 1069.99 133.552 1077.12 Q133.552 1084.23 135.357 1087.79 Q137.186 1091.34 140.797 1091.34 Q144.431 1091.34 146.237 1087.79 Q148.066 1084.23 148.066 1077.12 Q148.066 1069.99 146.237 1066.45 Q144.431 1062.89 140.797 1062.89 M140.797 1059.18 Q146.607 1059.18 149.663 1063.79 Q152.741 1068.37 152.741 1077.12 Q152.741 1085.85 149.663 1090.46 Q146.607 1095.04 140.797 1095.04 Q134.987 1095.04 131.908 1090.46 Q128.853 1085.85 128.853 1077.12 Q128.853 1068.37 131.908 1063.79 Q134.987 1059.18 140.797 1059.18 Z" fill="#000000" fill-rule="evenodd" fill-opacity="1" /><path clip-path="url(#clip990)" d="M 0 0 M157.811 1088.49 L162.695 1088.49 L162.695 1094.37 L157.811 1094.37 L157.811 1088.49 Z" fill="#000000" fill-rule="evenodd" fill-opacity="1" /><path clip-path="url(#clip990)" d="M 0 0 M171.792 1090.43 L188.112 1090.43 L188.112 1094.37 L166.167 1094.37 L166.167 1090.43 Q168.829 1087.68 173.413 1083.05 Q178.019 1078.4 179.2 1077.05 Q181.445 1074.53 182.325 1072.79 Q183.227 1071.04 183.227 1069.35 Q183.227 1066.59 181.283 1064.86 Q179.362 1063.12 176.26 1063.12 Q174.061 1063.12 171.607 1063.88 Q169.177 1064.65 166.399 1066.2 L166.399 1061.48 Q169.223 1060.34 171.677 1059.76 Q174.13 1059.18 176.167 1059.18 Q181.538 1059.18 184.732 1061.87 Q187.926 1064.55 187.926 1069.04 Q187.926 1071.17 187.116 1073.1 Q186.329 1074.99 184.223 1077.59 Q183.644 1078.26 180.542 1081.48 Q177.44 1084.67 171.792 1090.43 Z" fill="#000000" fill-rule="evenodd" fill-opacity="1" /><path clip-path="url(#clip990)" d="M 0 0 M193.227 1059.81 L211.584 1059.81 L211.584 1063.74 L197.51 1063.74 L197.51 1072.22 Q198.528 1071.87 199.547 1071.71 Q200.565 1071.52 201.584 1071.52 Q207.371 1071.52 210.75 1074.69 Q214.13 1077.86 214.13 1083.28 Q214.13 1088.86 210.658 1091.96 Q207.186 1095.04 200.866 1095.04 Q198.69 1095.04 196.422 1094.67 Q194.176 1094.3 191.769 1093.56 L191.769 1088.86 Q193.852 1089.99 196.075 1090.55 Q198.297 1091.1 200.774 1091.1 Q204.778 1091.1 207.116 1089 Q209.454 1086.89 209.454 1083.28 Q209.454 1079.67 207.116 1077.56 Q204.778 1075.46 200.774 1075.46 Q198.899 1075.46 197.024 1075.87 Q195.172 1076.29 193.227 1077.17 L193.227 1059.81 Z" fill="#000000" fill-rule="evenodd" fill-opacity="1" /><path clip-path="url(#clip990)" d="M 0 0 M139.2 757.371 Q135.589 757.371 133.76 760.936 Q131.955 764.477 131.955 771.607 Q131.955 778.713 133.76 782.278 Q135.589 785.82 139.2 785.82 Q142.834 785.82 144.64 782.278 Q146.468 778.713 146.468 771.607 Q146.468 764.477 144.64 760.936 Q142.834 757.371 139.2 757.371 M139.2 753.667 Q145.01 753.667 148.066 758.274 Q151.144 762.857 151.144 771.607 Q151.144 780.334 148.066 784.94 Q145.01 789.524 139.2 789.524 Q133.39 789.524 130.311 784.94 Q127.256 780.334 127.256 771.607 Q127.256 762.857 130.311 758.274 Q133.39 753.667 139.2 753.667 Z" fill="#000000" fill-rule="evenodd" fill-opacity="1" /><path clip-path="url(#clip990)" d="M 0 0 M156.214 782.973 L161.098 782.973 L161.098 788.852 L156.214 788.852 L156.214 782.973 Z" fill="#000000" fill-rule="evenodd" fill-opacity="1" /><path clip-path="url(#clip990)" d="M 0 0 M166.214 754.292 L184.57 754.292 L184.57 758.227 L170.496 758.227 L170.496 766.7 Q171.515 766.352 172.533 766.19 Q173.552 766.005 174.57 766.005 Q180.357 766.005 183.737 769.176 Q187.116 772.348 187.116 777.764 Q187.116 783.343 183.644 786.445 Q180.172 789.524 173.852 789.524 Q171.677 789.524 169.408 789.153 Q167.163 788.783 164.755 788.042 L164.755 783.343 Q166.839 784.477 169.061 785.033 Q171.283 785.588 173.76 785.588 Q177.765 785.588 180.102 783.482 Q182.44 781.375 182.44 777.764 Q182.44 774.153 180.102 772.047 Q177.765 769.94 173.76 769.94 Q171.885 769.94 170.01 770.357 Q168.158 770.774 166.214 771.653 L166.214 754.292 Z" fill="#000000" fill-rule="evenodd" fill-opacity="1" /><path clip-path="url(#clip990)" d="M 0 0 M202.186 757.371 Q198.575 757.371 196.746 760.936 Q194.94 764.477 194.94 771.607 Q194.94 778.713 196.746 782.278 Q198.575 785.82 202.186 785.82 Q205.82 785.82 207.625 782.278 Q209.454 778.713 209.454 771.607 Q209.454 764.477 207.625 760.936 Q205.82 757.371 202.186 757.371 M202.186 753.667 Q207.996 753.667 211.051 758.274 Q214.13 762.857 214.13 771.607 Q214.13 780.334 211.051 784.94 Q207.996 789.524 202.186 789.524 Q196.376 789.524 193.297 784.94 Q190.241 780.334 190.241 771.607 Q190.241 762.857 193.297 758.274 Q196.376 753.667 202.186 753.667 Z" fill="#000000" fill-rule="evenodd" fill-opacity="1" /><path clip-path="url(#clip990)" d="M 0 0 M140.103 451.854 Q136.492 451.854 134.663 455.419 Q132.857 458.961 132.857 466.09 Q132.857 473.197 134.663 476.762 Q136.492 480.303 140.103 480.303 Q143.737 480.303 145.542 476.762 Q147.371 473.197 147.371 466.09 Q147.371 458.961 145.542 455.419 Q143.737 451.854 140.103 451.854 M140.103 448.151 Q145.913 448.151 148.968 452.757 Q152.047 457.34 152.047 466.09 Q152.047 474.817 148.968 479.424 Q145.913 484.007 140.103 484.007 Q134.293 484.007 131.214 479.424 Q128.158 474.817 128.158 466.09 Q128.158 457.34 131.214 452.757 Q134.293 448.151 140.103 448.151 Z" fill="#000000" fill-rule="evenodd" fill-opacity="1" /><path clip-path="url(#clip990)" d="M 0 0 M157.116 477.456 L162.001 477.456 L162.001 483.336 L157.116 483.336 L157.116 477.456 Z" fill="#000000" fill-rule="evenodd" fill-opacity="1" /><path clip-path="url(#clip990)" d="M 0 0 M165.89 448.776 L188.112 448.776 L188.112 450.766 L175.565 483.336 L170.681 483.336 L182.487 452.711 L165.89 452.711 L165.89 448.776 Z" fill="#000000" fill-rule="evenodd" fill-opacity="1" /><path clip-path="url(#clip990)" d="M 0 0 M193.227 448.776 L211.584 448.776 L211.584 452.711 L197.51 452.711 L197.51 461.183 Q198.528 460.836 199.547 460.674 Q200.565 460.488 201.584 460.488 Q207.371 460.488 210.75 463.66 Q214.13 466.831 214.13 472.248 Q214.13 477.826 210.658 480.928 Q207.186 484.007 200.866 484.007 Q198.69 484.007 196.422 483.637 Q194.176 483.266 191.769 482.525 L191.769 477.826 Q193.852 478.961 196.075 479.516 Q198.297 480.072 200.774 480.072 Q204.778 480.072 207.116 477.965 Q209.454 475.859 209.454 472.248 Q209.454 468.637 207.116 466.53 Q204.778 464.424 200.774 464.424 Q198.899 464.424 197.024 464.84 Q195.172 465.257 193.227 466.137 L193.227 448.776 Z" fill="#000000" fill-rule="evenodd" fill-opacity="1" /><path clip-path="url(#clip990)" d="M 0 0 M130.242 173.884 L137.88 173.884 L137.88 147.518 L129.57 149.185 L129.57 144.926 L137.834 143.259 L142.51 143.259 L142.51 173.884 L150.149 173.884 L150.149 177.819 L130.242 177.819 L130.242 173.884 Z" fill="#000000" fill-rule="evenodd" fill-opacity="1" /><path clip-path="url(#clip990)" d="M 0 0 M155.218 171.939 L160.103 171.939 L160.103 177.819 L155.218 177.819 L155.218 171.939 Z" fill="#000000" fill-rule="evenodd" fill-opacity="1" /><path clip-path="url(#clip990)" d="M 0 0 M175.172 146.338 Q171.561 146.338 169.732 149.902 Q167.927 153.444 167.927 160.574 Q167.927 167.68 169.732 171.245 Q171.561 174.787 175.172 174.787 Q178.806 174.787 180.612 171.245 Q182.44 167.68 182.44 160.574 Q182.44 153.444 180.612 149.902 Q178.806 146.338 175.172 146.338 M175.172 142.634 Q180.982 142.634 184.038 147.24 Q187.116 151.824 187.116 160.574 Q187.116 169.3 184.038 173.907 Q180.982 178.49 175.172 178.49 Q169.362 178.49 166.283 173.907 Q163.228 169.3 163.228 160.574 Q163.228 151.824 166.283 147.24 Q169.362 142.634 175.172 142.634 Z" fill="#000000" fill-rule="evenodd" fill-opacity="1" /><path clip-path="url(#clip990)" d="M 0 0 M202.186 146.338 Q198.575 146.338 196.746 149.902 Q194.94 153.444 194.94 160.574 Q194.94 167.68 196.746 171.245 Q198.575 174.787 202.186 174.787 Q205.82 174.787 207.625 171.245 Q209.454 167.68 209.454 160.574 Q209.454 153.444 207.625 149.902 Q205.82 146.338 202.186 146.338 M202.186 142.634 Q207.996 142.634 211.051 147.24 Q214.13 151.824 214.13 160.574 Q214.13 169.3 211.051 173.907 Q207.996 178.49 202.186 178.49 Q196.376 178.49 193.297 173.907 Q190.241 169.3 190.241 160.574 Q190.241 151.824 193.297 147.24 Q196.376 142.634 202.186 142.634 Z" fill="#000000" fill-rule="evenodd" fill-opacity="1" /><path clip-path="url(#clip990)" d="M 0 0 M1312.06 1520.4 L1299.17 1537.74 L1312.73 1556.04 L1305.82 1556.04 L1295.44 1542.04 L1285.07 1556.04 L1278.16 1556.04 L1292.01 1537.39 L1279.34 1520.4 L1286.24 1520.4 L1295.7 1533.1 L1305.15 1520.4 L1312.06 1520.4 Z" fill="#000000" fill-rule="evenodd" fill-opacity="1" /><path clip-path="url(#clip990)" d="M 0 0 M70.212 745.095 Q76.6732 745.095 80.3653 742.453 Q84.0256 739.779 84.0256 735.132 Q84.0256 730.485 80.3653 727.812 Q76.6732 725.138 70.212 725.138 Q63.7508 725.138 60.0905 727.812 Q56.3984 730.485 56.3984 735.132 Q56.3984 739.779 60.0905 742.453 Q63.7508 745.095 70.212 745.095 M82.657 725.138 Q85.8398 726.984 87.3994 729.817 Q88.9272 732.618 88.9272 736.565 Q88.9272 743.026 83.771 747.1 Q78.6147 751.142 70.212 751.142 Q61.8093 751.142 56.6531 747.1 Q51.4968 743.026 51.4968 736.565 Q51.4968 732.618 53.0564 729.817 Q54.5842 726.984 57.7671 725.138 L52.3562 725.138 L52.3562 719.282 L101.563 719.282 L101.563 725.138 L82.657 725.138 Z" fill="#000000" fill-rule="evenodd" fill-opacity="1" /><polyline clip-path="url(#clip992)" style="stroke:#009af9; stroke-width:4; stroke-opacity:1; fill:none" points="
  297.978,1382.61 300.669,1382.61 305.771,1382.61 310.872,1382.61 313.563,1382.61 316.255,1382.61 321.356,1382.61 326.458,1382.61 329.149,1382.61 
  331.84,1382.61 336.941,1382.61 342.043,1382.61 344.734,1382.61 347.425,1382.61 352.527,1382.61 357.628,1382.61 360.32,1382.61 
  363.011,1382.61 368.112,1382.61 373.214,1382.61 375.905,1382.61 378.596,1382.61 383.698,1382.61 388.799,1382.61 391.49,1382.61 
  394.181,1382.61 399.283,1382.61 404.385,1382.61 407.076,1382.61 409.767,1382.61 414.868,1382.61 419.97,1382.61 422.661,1382.61 
  425.352,1382.61 430.454,1382.61 435.555,1382.61 438.246,1382.61 440.938,1382.61 446.039,1382.61 451.141,1382.61 453.832,1382.61 
  456.523,1382.61 461.625,1382.61 466.726,1382.61 469.417,1382.61 472.108,1382.61 477.21,1382.61 482.311,1382.61 485.003,1382.61 
  487.694,1382.61 492.795,1382.61 497.897,1382.61 500.588,1382.61 503.279,1382.61 508.381,1382.61 513.482,1382.61 516.173,1382.61 
  518.865,1382.61 523.966,1382.61 529.068,1382.61 531.759,1382.61 534.45,1382.61 539.552,1382.61 544.653,1382.61 547.344,1382.61 
  550.035,1382.61 555.137,1382.61 560.238,1382.61 562.93,1382.61 565.621,1382.61 570.722,1382.61 575.824,1382.61 578.515,1382.61 
  581.206,1382.61 586.308,1382.61 591.409,1382.61 594.1,1382.61 596.792,1382.61 601.893,1382.61 606.995,1382.61 609.686,1382.61 
  612.377,1382.61 617.478,1382.61 622.58,1382.61 625.271,1382.61 627.962,1382.61 633.064,1382.61 638.165,1382.61 640.857,1382.61 
  643.548,1382.61 648.649,1382.61 653.751,1382.61 656.442,1382.61 659.133,1382.61 664.235,1382.61 669.336,1382.61 672.027,1382.61 
  674.719,1382.61 679.82,1382.61 684.922,1382.61 687.613,1382.61 690.304,1382.61 695.405,1382.61 700.507,1382.61 703.198,1382.61 
  705.889,1382.61 710.991,1382.61 716.092,1382.61 718.784,1382.61 721.475,1382.61 726.576,160.539 731.678,160.539 734.369,160.539 
  737.06,160.539 742.162,160.539 747.263,160.539 749.954,160.539 752.645,160.539 757.747,160.539 762.849,160.539 765.54,160.539 
  768.231,160.539 773.332,160.539 778.434,160.539 781.125,160.539 783.816,160.539 788.918,160.539 794.019,160.539 796.71,160.539 
  799.402,160.539 804.503,160.539 809.605,160.539 812.296,160.539 814.987,160.539 820.089,160.539 825.19,160.539 827.881,160.539 
  830.572,160.539 835.674,160.539 840.775,160.539 843.467,160.539 846.158,160.539 851.259,160.539 856.361,160.539 859.052,160.539 
  861.743,160.539 866.845,160.539 871.946,160.539 874.637,160.539 877.329,160.539 882.43,160.539 887.532,160.539 890.223,160.539 
  892.914,160.539 898.016,160.539 903.117,160.539 905.808,160.539 908.499,160.539 913.601,160.539 918.702,160.539 921.394,160.539 
  924.085,160.539 929.186,160.539 934.288,160.539 936.979,160.539 939.67,160.539 944.772,160.539 949.873,160.539 952.564,160.539 
  955.256,160.539 960.357,160.539 965.459,160.539 968.15,160.539 970.841,160.539 975.942,160.539 981.044,160.539 983.735,160.539 
  986.426,160.539 991.528,160.539 996.629,160.539 999.321,160.539 1002.01,160.539 1007.11,160.539 1012.21,1382.61 1014.91,1382.61 
  1017.6,1382.61 1022.7,1382.61 1027.8,1382.61 1030.49,1382.61 1033.18,1382.61 1038.28,1382.61 1043.39,1382.61 1046.08,1382.61 
  1048.77,1382.61 1053.87,1382.61 1058.97,1382.61 1061.66,1382.61 1064.35,1382.61 1069.45,1382.61 1074.56,1382.61 1077.25,1382.61 
  1079.94,1382.61 1085.04,1382.61 1090.14,1382.61 1092.83,1382.61 1095.52,1382.61 1100.63,1382.61 1105.73,1382.61 1108.42,1382.61 
  1111.11,1382.61 1116.21,1382.61 1121.31,1382.61 1124,1382.61 1126.69,1382.61 1131.8,1382.61 1136.9,1382.61 1139.59,1382.61 
  1142.28,1382.61 1147.38,1382.61 1152.48,1382.61 1155.17,1382.61 1157.87,1382.61 1162.97,1382.61 1168.07,1382.61 1170.76,1382.61 
  1173.45,1382.61 1178.55,1382.61 1183.65,1382.61 1186.35,1382.61 1189.04,1382.61 1194.14,1382.61 1199.24,1382.61 1201.93,1382.61 
  1204.62,1382.61 1209.72,1382.61 1214.82,1382.61 1217.52,1382.61 1220.21,1382.61 1225.31,1382.61 1230.41,1382.61 1233.1,1382.61 
  1235.79,1382.61 1240.89,1382.61 1246,1382.61 1248.69,1382.61 1251.38,1382.61 1256.48,1382.61 1261.58,1382.61 1264.27,1382.61 
  1266.96,1382.61 1272.06,1382.61 1277.17,1382.61 1279.86,1382.61 1282.55,1382.61 1287.65,1382.61 1292.75,1382.61 1295.44,1382.61 
  1298.13,1382.61 1303.24,1382.61 1308.34,1382.61 1311.03,1382.61 1313.72,1382.61 1318.82,1382.61 1323.92,1382.61 1326.61,1382.61 
  1329.3,1382.61 1334.41,1382.61 1339.51,1382.61 1342.2,1382.61 1344.89,1382.61 1349.99,1382.61 1355.09,1382.61 1357.78,1382.61 
  1360.48,1382.61 1365.58,1382.61 1370.68,1382.61 1373.37,1382.61 1376.06,1382.61 1381.16,1382.61 1386.26,1382.61 1388.96,1382.61 
  1391.65,1382.61 1396.75,1382.61 1401.85,1382.61 1404.54,1382.61 1407.23,1382.61 1412.33,1382.61 1417.43,1382.61 1420.13,1382.61 
  1422.82,1382.61 1427.92,1382.61 1433.02,1382.61 1435.71,1382.61 1438.4,1382.61 1443.5,1382.61 1448.61,1382.61 1451.3,1382.61 
  1453.99,1382.61 1459.09,1382.61 1464.19,1382.61 1466.88,1382.61 1469.57,1382.61 1474.67,1382.61 1479.78,1382.61 1482.47,1382.61 
  1485.16,1382.61 1490.26,1382.61 1495.36,1382.61 1498.05,1382.61 1500.74,1382.61 1505.85,1382.61 1510.95,1382.61 1513.64,1382.61 
  1516.33,1382.61 1521.43,1382.61 1526.53,1382.61 1529.22,1382.61 1531.92,1382.61 1537.02,1382.61 1542.12,1382.61 1544.81,1382.61 
  1547.5,1382.61 1552.6,1382.61 1557.7,1382.61 1560.39,1382.61 1563.09,1382.61 1568.19,1382.61 1573.29,1382.61 1575.98,1382.61 
  1578.67,1382.61 1583.77,1382.61 1588.87,1382.61 1591.57,1382.61 1594.26,1382.61 1599.36,1382.61 1604.46,1382.61 1607.15,1382.61 
  1609.84,1382.61 1614.94,1382.61 1620.05,1382.61 1622.74,1382.61 1625.43,1382.61 1630.53,1382.61 1635.63,1382.61 1638.32,1382.61 
  1641.01,1382.61 1646.11,1382.61 1651.22,1382.61 1653.91,1382.61 1656.6,1382.61 1661.7,1382.61 1666.8,1382.61 1669.49,1382.61 
  1672.18,1382.61 1677.29,1382.61 1682.39,1382.61 1685.08,1382.61 1687.77,1382.61 1692.87,1382.61 1697.97,1382.61 1700.66,1382.61 
  1703.35,1382.61 1708.46,1382.61 1713.56,1382.61 1716.25,1382.61 1718.94,1382.61 1724.04,1382.61 1729.14,1382.61 1731.83,1382.61 
  1734.53,1382.61 1739.63,1382.61 1744.73,1382.61 1747.42,1382.61 1750.11,1382.61 1755.21,1382.61 1760.31,1382.61 1763,1382.61 
  1765.7,1382.61 1770.8,1382.61 1775.9,1382.61 1778.59,1382.61 1781.28,1382.61 1786.38,1382.61 1791.48,1382.61 1794.18,1382.61 
  1796.87,1382.61 1801.97,1382.61 1807.07,1382.61 1809.76,1382.61 1812.45,1382.61 1817.55,1382.61 1822.66,1382.61 1825.35,1382.61 
  1828.04,1382.61 1833.14,1382.61 1838.24,1382.61 1840.93,1382.61 1843.62,1382.61 1848.72,1382.61 1853.83,1382.61 1856.52,1382.61 
  1859.21,1382.61 1864.31,1382.61 1869.41,1382.61 1872.1,1382.61 1874.79,1382.61 1879.9,1382.61 1885,1382.61 1887.69,1382.61 
  1890.38,1382.61 1895.48,1382.61 1900.58,1382.61 1903.27,1382.61 1905.96,1382.61 1911.07,1382.61 1916.17,1382.61 1918.86,1382.61 
  1921.55,1382.61 1926.65,1382.61 1931.75,1382.61 1934.44,1382.61 1937.14,1382.61 1942.24,1382.61 1947.34,1382.61 1950.03,1382.61 
  1952.72,1382.61 1957.82,1382.61 1962.92,1382.61 1965.61,1382.61 1968.31,1382.61 1973.41,1382.61 1978.51,1382.61 1981.2,1382.61 
  1983.89,1382.61 1988.99,1382.61 1994.09,1382.61 1996.79,1382.61 1999.48,1382.61 2004.58,1382.61 2009.68,1382.61 2012.37,1382.61 
  2015.06,1382.61 2020.16,1382.61 2025.27,1382.61 2027.96,1382.61 2030.65,1382.61 2035.75,1382.61 2040.85,1382.61 2043.54,1382.61 
  2046.23,1382.61 2051.33,1382.61 2056.44,1382.61 2059.13,1382.61 2061.82,1382.61 2066.92,1382.61 2072.02,1382.61 2074.71,1382.61 
  2077.4,1382.61 2082.51,1382.61 2087.61,1382.61 2090.3,1382.61 2092.99,1382.61 2098.09,1382.61 2103.19,1382.61 2105.88,1382.61 
  2108.57,1382.61 2113.68,1382.61 2118.78,1382.61 2121.47,1382.61 2124.16,1382.61 2129.26,1382.61 2134.36,1382.61 2137.05,1382.61 
  2139.75,1382.61 2144.85,1382.61 2149.95,1382.61 2152.64,1382.61 2155.33,1382.61 2160.43,1382.61 2165.53,1382.61 2168.22,1382.61 
  2170.92,1382.61 2176.02,1382.61 2181.12,1382.61 2183.81,1382.61 2186.5,1382.61 2191.6,1382.61 2196.7,1382.61 2199.4,1382.61 
  2202.09,1382.61 2207.19,1382.61 2212.29,1382.61 2214.98,1382.61 2217.67,1382.61 2222.77,1382.61 2227.88,1382.61 2230.57,1382.61 
  2233.26,1382.61 2238.36,1382.61 2243.46,1382.61 2246.15,1382.61 2248.84,1382.61 2253.94,1382.61 2259.05,1382.61 2261.74,1382.61 
  2264.43,1382.61 2269.53,1382.61 2274.63,1382.61 2277.32,1382.61 2280.01,1382.61 2285.12,1382.61 2290.22,1382.61 2292.91,1382.61 
  
  "/>
<polyline clip-path="url(#clip992)" style="stroke:#e26f46; stroke-width:4; stroke-opacity:1; fill:none" points="
  297.978,1382.61 300.669,1382.61 305.771,1382.61 310.872,1382.61 313.563,1382.61 316.255,1382.61 321.356,1382.61 326.458,1382.61 329.149,1382.61 
  331.84,1382.61 336.941,1382.61 342.043,1382.61 344.734,1382.61 347.425,1382.61 352.527,1382.61 357.628,1382.61 360.32,1382.61 
  363.011,1382.61 368.112,1382.61 373.214,1382.61 375.905,1382.61 378.596,1382.61 383.698,1382.61 388.799,1382.61 391.49,1382.61 
  394.181,1382.61 399.283,1382.61 404.385,1382.61 407.076,1382.61 409.767,1382.61 414.868,1382.61 419.97,1382.61 422.661,1382.61 
  425.352,1382.61 430.454,1382.61 435.555,1382.61 438.246,1382.61 440.938,1382.61 446.039,1382.61 451.141,1382.61 453.832,1382.61 
  456.523,1382.61 461.625,1382.61 466.726,1382.61 469.417,1382.61 472.108,1382.61 477.21,1382.61 482.311,1382.61 485.003,1382.61 
  487.694,1382.61 492.795,1382.61 497.897,1382.61 500.588,1382.61 503.279,1382.61 508.381,1382.61 513.482,1382.61 516.173,1382.61 
  518.865,1382.61 523.966,1382.61 529.068,1382.61 531.759,1382.61 534.45,1382.61 539.552,1382.61 544.653,1382.61 547.344,1382.61 
  550.035,1382.61 555.137,1382.61 560.238,1382.61 562.93,1382.61 565.621,1382.61 570.722,1382.61 575.824,1382.61 578.515,1382.61 
  581.206,1382.61 586.308,1382.61 591.409,1382.61 594.1,1382.61 596.792,1382.61 601.893,1382.61 606.995,1382.61 609.686,1382.61 
  612.377,1382.61 617.478,1382.61 622.58,1382.61 625.271,1382.61 627.962,1382.61 633.064,1382.61 638.165,1382.61 640.857,1382.61 
  643.548,1382.61 648.649,1382.61 653.751,1382.61 656.442,1382.61 659.133,1382.61 664.235,1382.61 669.336,1382.61 672.027,1382.61 
  674.719,1382.61 679.82,1382.61 684.922,1382.61 687.613,1382.61 690.304,1382.61 695.405,1382.61 700.507,1382.61 703.198,1382.61 
  705.889,1382.61 710.991,1382.61 716.092,1382.61 718.784,1382.61 721.475,1382.61 726.576,1382.61 731.678,1382.61 734.369,1382.61 
  737.06,1382.61 742.162,1382.61 747.263,1382.61 749.954,1382.61 752.645,1382.61 757.747,1382.61 762.849,1382.61 765.54,1382.61 
  768.231,1382.61 773.332,1382.61 778.434,1382.61 781.125,1382.61 783.816,1382.61 788.918,1382.61 794.019,1382.61 796.71,1382.61 
  799.402,1382.61 804.503,1382.61 809.605,1382.61 812.296,1382.61 814.987,1382.61 820.089,1382.61 825.19,1382.61 827.881,1382.61 
  830.572,1382.61 835.674,1382.61 840.775,1382.61 843.467,1382.61 846.158,1382.61 851.259,1382.61 856.361,1382.61 859.052,1382.61 
  861.743,1382.61 866.845,1382.61 871.946,1382.61 874.637,1382.61 877.329,1382.61 882.43,1382.61 887.532,1382.61 890.223,1382.61 
  892.914,1382.61 898.016,1382.61 903.117,1382.61 905.808,1382.61 908.499,1382.61 913.601,1382.61 918.702,1382.61 921.394,1382.61 
  924.085,1382.61 929.186,1382.61 934.288,1382.61 936.979,1382.61 939.67,1382.61 944.772,1382.61 949.873,1382.61 952.564,1382.61 
  955.256,1382.61 960.357,1382.61 965.459,1382.61 968.15,1382.61 970.841,1382.61 975.942,1382.61 981.044,1382.61 983.735,1382.61 
  986.426,1382.61 991.528,1382.61 996.629,1382.61 999.321,1382.61 999.321,1382.61 1002.01,1382.61 1007.11,1382.61 1012.21,1382.61 1014.91,1382.61 
  1014.91,1382.61 1017.6,1382.61 1022.7,1382.61 1027.8,1382.61 1030.49,1382.61 1030.49,1382.61 1033.18,1382.61 1038.28,1382.61 1043.39,1382.61 1046.08,1382.61 
  1046.08,1382.61 1048.77,1382.61 1053.87,1382.61 1058.97,1382.61 1061.66,1382.61 1061.66,1382.61 1064.35,1382.61 1069.45,1382.61 1074.56,1382.61 1077.25,1382.61 
  1077.25,1382.61 1079.94,1382.61 1085.04,1382.61 1090.14,1382.61 1092.83,1382.61 1092.83,1382.61 1095.52,1382.61 1100.63,1382.61 1105.73,1382.61 1108.42,1382.61 
  1108.42,1382.61 1111.11,1382.61 1116.21,1382.61 1121.31,1382.61 1124,1382.61 1124,1382.61 1126.69,1382.61 1131.8,1382.61 1136.9,1382.61 1139.59,1382.61 
  1139.59,1382.61 1142.28,1382.61 1147.38,1382.61 1152.48,1382.61 1155.17,1382.61 1155.17,1382.61 1157.87,1382.61 1162.97,1382.61 1168.07,1382.61 1170.76,1382.61 
  1170.76,1382.61 1173.45,1382.61 1178.55,1382.6 1183.65,1382.6 1186.35,1382.6 1186.35,1382.6 1189.04,1382.6 1194.14,1382.61 1199.24,1382.6 1201.93,1382.6 
  1201.93,1382.6 1204.62,1382.6 1209.72,1382.6 1214.82,1382.6 1217.52,1382.6 1217.52,1382.6 1220.21,1382.6 1225.31,1382.6 1230.41,1382.6 1233.1,1382.6 
  1233.1,1382.56 1235.79,1382.59 1240.89,1382.59 1246,1382.51 1248.69,1382.41 1248.69,1382.55 1251.38,1382.57 1256.48,1382.56 1261.58,1382.49 1264.27,1382.44 
  1264.27,1378.33 1266.96,1384.24 1272.06,1374.91 1277.17,1337.26 1279.86,1305.42 1279.86,1307.56 1282.55,1250.91 1287.65,1117.47 1292.75,951.506 1295.44,851.495 
  1295.44,856.041 1298.13,749.085 1303.24,560.114 1308.34,390.266 1311.03,308.808 1311.03,307.336 1313.72,243.922 1318.82,153.843 1323.92,102.249 1326.61,90.1466 
  1326.61,86.1857 1329.3,87.9301 1334.41,99.3369 1339.51,120.273 1342.2,134.724 1342.2,133.912 1344.89,145.8 1349.99,162.438 1355.09,171.485 1357.78,173.252 
  1357.78,174.015 1360.48,172.691 1365.58,169.167 1370.68,164.552 1373.37,161.776 1373.37,161.817 1376.06,160.143 1381.16,158.244 1386.26,157.932 1388.96,158.374 
  1388.96,158.243 1391.65,158.944 1396.75,160.05 1401.85,160.843 1404.54,161.127 1404.54,161.162 1407.23,161.159 1412.33,161.037 1417.43,160.783 1420.13,160.605 
  1420.13,160.609 1422.82,160.51 1427.92,160.401 1433.02,160.388 1435.71,160.417 1435.71,160.414 1438.4,160.445 1443.5,160.497 1448.61,160.541 1451.3,160.561 
  1451.3,160.554 1453.99,160.59 1459.09,160.658 1464.19,160.723 1466.88,160.755 1466.88,160.753 1469.57,160.742 1474.67,160.59 1479.78,160.263 1482.47,160.019 
  1482.47,160.096 1485.16,159.74 1490.26,159.421 1495.36,159.6 1498.05,159.909 1498.05,159.766 1500.74,160.706 1505.85,162.85 1510.95,165.421 1513.64,166.931 
  1513.64,166.629 1516.33,167.905 1521.43,167.074 1526.53,161.883 1529.22,157.346 1529.22,158.421 1531.92,149.918 1537.02,132.987 1542.12,115.367 1544.81,105.944 
  1544.81,107.592 1547.5,99.8755 1552.6,104.611 1557.7,135.147 1560.39,161.832 1560.39,159.441 1563.09,204.006 1568.19,316.208 1573.29,463.741 1575.98,555.414 
  1575.98,550.147 1578.67,654.717 1583.77,846.65 1588.87,1028.76 1591.57,1120.22 1591.57,1121.09 1594.26,1196.2 1599.36,1303.15 1604.46,1364.69 1607.15,1379.26 
  1607.15,1381.63 1609.84,1382.08 1614.94,1382.2 1620.05,1381.65 1622.74,1381.23 1622.74,1381.56 1625.43,1381.82 1630.53,1382.25 1635.63,1382.56 1638.32,1382.67 
  1638.32,1382.6 1641.01,1382.6 1646.11,1382.6 1651.22,1382.59 1653.91,1382.59 1653.91,1382.6 1656.6,1382.6 1661.7,1382.6 1666.8,1382.6 1669.49,1382.61 
  1669.49,1382.61 1672.18,1382.61 1677.29,1382.61 1682.39,1382.61 1685.08,1382.61 1685.08,1382.61 1687.77,1382.61 1692.87,1382.61 1697.97,1382.61 1700.66,1382.61 
  1700.66,1382.61 1703.35,1382.61 1708.46,1382.61 1713.56,1382.61 1716.25,1382.61 1716.25,1382.61 1718.94,1382.61 1724.04,1382.61 1729.14,1382.61 1731.83,1382.61 
  1731.83,1382.61 1734.53,1382.61 1739.63,1382.61 1744.73,1382.61 1747.42,1382.61 1747.42,1382.61 1750.11,1382.61 1755.21,1382.61 1760.31,1382.61 1763,1382.61 
  1763,1382.61 1765.7,1382.61 1770.8,1382.61 1775.9,1382.61 1778.59,1382.61 1778.59,1382.61 1781.28,1382.61 1786.38,1382.61 1791.48,1382.61 1794.18,1382.61 
  1794.18,1382.61 1796.87,1382.61 1801.97,1382.61 1807.07,1382.61 1809.76,1382.61 1809.76,1382.61 1812.45,1382.61 1817.55,1382.61 1822.66,1382.61 1825.35,1382.61 
  1825.35,1382.61 1828.04,1382.61 1833.14,1382.61 1838.24,1382.61 1840.93,1382.61 1843.62,1382.61 1848.72,1382.61 1853.83,1382.61 1856.52,1382.61 
  1859.21,1382.61 1864.31,1382.61 1869.41,1382.61 1872.1,1382.61 1874.79,1382.61 1879.9,1382.61 1885,1382.61 1887.69,1382.61 
  1890.38,1382.61 1895.48,1382.61 1900.58,1382.61 1903.27,1382.61 1905.96,1382.61 1911.07,1382.61 1916.17,1382.61 1918.86,1382.61 
  1921.55,1382.61 1926.65,1382.61 1931.75,1382.61 1934.44,1382.61 1937.14,1382.61 1942.24,1382.61 1947.34,1382.61 1950.03,1382.61 
  1952.72,1382.61 1957.82,1382.61 1962.92,1382.61 1965.61,1382.61 1968.31,1382.61 1973.41,1382.61 1978.51,1382.61 1981.2,1382.61 
  1983.89,1382.61 1988.99,1382.61 1994.09,1382.61 1996.79,1382.61 1999.48,1382.61 2004.58,1382.61 2009.68,1382.61 2012.37,1382.61 
  2015.06,1382.61 2020.16,1382.61 2025.27,1382.61 2027.96,1382.61 2030.65,1382.61 2035.75,1382.61 2040.85,1382.61 2043.54,1382.61 
  2046.23,1382.61 2051.33,1382.61 2056.44,1382.61 2059.13,1382.61 2061.82,1382.61 2066.92,1382.61 2072.02,1382.61 2074.71,1382.61 
  2077.4,1382.61 2082.51,1382.61 2087.61,1382.61 2090.3,1382.61 2092.99,1382.61 2098.09,1382.61 2103.19,1382.61 2105.88,1382.61 
  2108.57,1382.61 2113.68,1382.61 2118.78,1382.61 2121.47,1382.61 2124.16,1382.61 2129.26,1382.61 2134.36,1382.61 2137.05,1382.61 
  2139.75,1382.61 2144.85,1382.61 2149.95,1382.61 2152.64,1382.61 2155.33,1382.61 2160.43,1382.61 2165.53,1382.61 2168.22,1382.61 
  2170.92,1382.61 2176.02,1382.61 2181.12,1382.61 2183.81,1382.61 2186.5,1382.61 2191.6,1382.61 2196.7,1382.61 2199.4,1382.61 
  2202.09,1382.61 2207.19,1382.61 2212.29,1382.61 2214.98,1382.61 2217.67,1382.61 2222.77,1382.61 2227.88,1382.61 2230.57,1382.61 
  2233.26,1382.61 2238.36,1382.61 2243.46,1382.61 2246.15,1382.61 2248.84,1382.61 2253.94,1382.61 2259.05,1382.61 2261.74,1382.61 
  2264.43,1382.61 2269.53,1382.61 2274.63,1382.61 2277.32,1382.61 2280.01,1382.61 2285.12,1382.61 2290.22,1382.61 2292.91,1382.61 
  
  "/>
<path clip-path="url(#clip990)" d="
M1802.38 274.549 L2282.27 274.549 L2282.27 93.1086 L1802.38 93.1086  Z
  " fill="#ffffff" fill-rule="evenodd" fill-opacity="1"/>
<polyline clip-path="url(#clip990)" style="stroke:#000000; stroke-width:4; stroke-opacity:1; fill:none" points="
  1802.38,274.549 2282.27,274.549 2282.27,93.1086 1802.38,93.1086 1802.38,274.549 
  "/>
<polyline clip-path="url(#clip990)" style="stroke:#009af9; stroke-width:4; stroke-opacity:1; fill:none" points="
  1825.88,153.589 1966.85,153.589 
  "/>
<path clip-path="url(#clip990)" d="M 0 0 M1994.75 157.929 Q1994.75 162.628 1996.67 165.313 Q1998.61 167.975 2001.99 167.975 Q2005.37 167.975 2007.31 165.313 Q2009.26 162.628 2009.26 157.929 Q2009.26 153.23 2007.31 150.568 Q2005.37 147.883 2001.99 147.883 Q1998.61 147.883 1996.67 150.568 Q1994.75 153.23 1994.75 157.929 M2009.26 166.98 Q2007.92 169.295 2005.86 170.429 Q2003.82 171.54 2000.95 171.54 Q1996.25 171.54 1993.29 167.79 Q1990.35 164.04 1990.35 157.929 Q1990.35 151.818 1993.29 148.068 Q1996.25 144.318 2000.95 144.318 Q2003.82 144.318 2005.86 145.452 Q2007.92 146.563 2009.26 148.878 L2009.26 144.943 L2013.52 144.943 L2013.52 180.73 L2009.26 180.73 L2009.26 166.98 Z" fill="#000000" fill-rule="evenodd" fill-opacity="1" /><path clip-path="url(#clip990)" d="M 0 0 M2019.07 164.989 L2023.96 164.989 L2023.96 168.97 L2020.16 176.378 L2017.18 176.378 L2019.07 168.97 L2019.07 164.989 Z" fill="#000000" fill-rule="evenodd" fill-opacity="1" /><path clip-path="url(#clip990)" d="M 0 0 M2047.71 137.582 L2047.71 144.943 L2056.48 144.943 L2056.48 148.253 L2047.71 148.253 L2047.71 162.327 Q2047.71 165.498 2048.56 166.401 Q2049.44 167.304 2052.11 167.304 L2056.48 167.304 L2056.48 170.869 L2052.11 170.869 Q2047.18 170.869 2045.3 169.04 Q2043.43 167.188 2043.43 162.327 L2043.43 148.253 L2040.3 148.253 L2040.3 144.943 L2043.43 144.943 L2043.43 137.582 L2047.71 137.582 Z" fill="#000000" fill-rule="evenodd" fill-opacity="1" /><path clip-path="url(#clip990)" d="M 0 0 M2061.5 149.341 L2091.18 149.341 L2091.18 153.23 L2061.5 153.23 L2061.5 149.341 M2061.5 158.785 L2091.18 158.785 L2091.18 162.721 L2061.5 162.721 L2061.5 158.785 Z" fill="#000000" fill-rule="evenodd" fill-opacity="1" /><path clip-path="url(#clip990)" d="M 0 0 M2106.25 139.387 Q2102.64 139.387 2100.81 142.952 Q2099 146.494 2099 153.623 Q2099 160.73 2100.81 164.295 Q2102.64 167.836 2106.25 167.836 Q2109.88 167.836 2111.69 164.295 Q2113.52 160.73 2113.52 153.623 Q2113.52 146.494 2111.69 142.952 Q2109.88 139.387 2106.25 139.387 M2106.25 135.684 Q2112.06 135.684 2115.12 140.29 Q2118.19 144.873 2118.19 153.623 Q2118.19 162.35 2115.12 166.957 Q2112.06 171.54 2106.25 171.54 Q2100.44 171.54 2097.36 166.957 Q2094.31 162.35 2094.31 153.623 Q2094.31 144.873 2097.36 140.29 Q2100.44 135.684 2106.25 135.684 Z" fill="#000000" fill-rule="evenodd" fill-opacity="1" /><path clip-path="url(#clip990)" d="M 0 0 M2123.26 164.989 L2128.15 164.989 L2128.15 170.869 L2123.26 170.869 L2123.26 164.989 Z" fill="#000000" fill-rule="evenodd" fill-opacity="1" /><path clip-path="url(#clip990)" d="M 0 0 M2143.22 139.387 Q2139.61 139.387 2137.78 142.952 Q2135.97 146.494 2135.97 153.623 Q2135.97 160.73 2137.78 164.295 Q2139.61 167.836 2143.22 167.836 Q2146.85 167.836 2148.66 164.295 Q2150.49 160.73 2150.49 153.623 Q2150.49 146.494 2148.66 142.952 Q2146.85 139.387 2143.22 139.387 M2143.22 135.684 Q2149.03 135.684 2152.08 140.29 Q2155.16 144.873 2155.16 153.623 Q2155.16 162.35 2152.08 166.957 Q2149.03 171.54 2143.22 171.54 Q2137.41 171.54 2134.33 166.957 Q2131.27 162.35 2131.27 153.623 Q2131.27 144.873 2134.33 140.29 Q2137.41 135.684 2143.22 135.684 Z" fill="#000000" fill-rule="evenodd" fill-opacity="1" /><polyline clip-path="url(#clip990)" style="stroke:#e26f46; stroke-width:4; stroke-opacity:1; fill:none" points="
  1825.88,214.069 1966.85,214.069 
  "/>
<path clip-path="url(#clip990)" d="M 0 0 M1994.75 218.409 Q1994.75 223.108 1996.67 225.793 Q1998.61 228.455 2001.99 228.455 Q2005.37 228.455 2007.31 225.793 Q2009.26 223.108 2009.26 218.409 Q2009.26 213.71 2007.31 211.048 Q2005.37 208.363 2001.99 208.363 Q1998.61 208.363 1996.67 211.048 Q1994.75 213.71 1994.75 218.409 M2009.26 227.46 Q2007.92 229.775 2005.86 230.909 Q2003.82 232.02 2000.95 232.02 Q1996.25 232.02 1993.29 228.27 Q1990.35 224.52 1990.35 218.409 Q1990.35 212.298 1993.29 208.548 Q1996.25 204.798 2000.95 204.798 Q2003.82 204.798 2005.86 205.932 Q2007.92 207.043 2009.26 209.358 L2009.26 205.423 L2013.52 205.423 L2013.52 241.21 L2009.26 241.21 L2009.26 227.46 Z" fill="#000000" fill-rule="evenodd" fill-opacity="1" /><path clip-path="url(#clip990)" d="M 0 0 M2019.07 225.469 L2023.96 225.469 L2023.96 229.45 L2020.16 236.858 L2017.18 236.858 L2019.07 229.45 L2019.07 225.469 Z" fill="#000000" fill-rule="evenodd" fill-opacity="1" /><path clip-path="url(#clip990)" d="M 0 0 M2047.71 198.062 L2047.71 205.423 L2056.48 205.423 L2056.48 208.733 L2047.71 208.733 L2047.71 222.807 Q2047.71 225.978 2048.56 226.881 Q2049.44 227.784 2052.11 227.784 L2056.48 227.784 L2056.48 231.349 L2052.11 231.349 Q2047.18 231.349 2045.3 229.52 Q2043.43 227.668 2043.43 222.807 L2043.43 208.733 L2040.3 208.733 L2040.3 205.423 L2043.43 205.423 L2043.43 198.062 L2047.71 198.062 Z" fill="#000000" fill-rule="evenodd" fill-opacity="1" /><path clip-path="url(#clip990)" d="M 0 0 M2061.5 209.821 L2091.18 209.821 L2091.18 213.71 L2061.5 213.71 L2061.5 209.821 M2061.5 219.265 L2091.18 219.265 L2091.18 223.201 L2061.5 223.201 L2061.5 219.265 Z" fill="#000000" fill-rule="evenodd" fill-opacity="1" /><path clip-path="url(#clip990)" d="M 0 0 M2109.1 200.863 L2097.29 219.312 L2109.1 219.312 L2109.1 200.863 M2107.87 196.789 L2113.75 196.789 L2113.75 219.312 L2118.68 219.312 L2118.68 223.201 L2113.75 223.201 L2113.75 231.349 L2109.1 231.349 L2109.1 223.201 L2093.5 223.201 L2093.5 218.687 L2107.87 196.789 Z" fill="#000000" fill-rule="evenodd" fill-opacity="1" /><path clip-path="url(#clip990)" d="M 0 0 M2123.8 196.789 L2142.15 196.789 L2142.15 200.724 L2128.08 200.724 L2128.08 209.196 Q2129.1 208.849 2130.12 208.687 Q2131.13 208.502 2132.15 208.502 Q2137.94 208.502 2141.32 211.673 Q2144.7 214.844 2144.7 220.261 Q2144.7 225.839 2141.23 228.941 Q2137.75 232.02 2131.43 232.02 Q2129.26 232.02 2126.99 231.65 Q2124.74 231.279 2122.34 230.538 L2122.34 225.839 Q2124.42 226.974 2126.64 227.529 Q2128.87 228.085 2131.34 228.085 Q2135.35 228.085 2137.68 225.978 Q2140.02 223.872 2140.02 220.261 Q2140.02 216.65 2137.68 214.543 Q2135.35 212.437 2131.34 212.437 Q2129.47 212.437 2127.59 212.853 Q2125.74 213.27 2123.8 214.15 L2123.8 196.789 Z" fill="#000000" fill-rule="evenodd" fill-opacity="1" /><path clip-path="url(#clip990)" d="M 0 0 M2159.77 199.867 Q2156.16 199.867 2154.33 203.432 Q2152.52 206.974 2152.52 214.103 Q2152.52 221.21 2154.33 224.775 Q2156.16 228.316 2159.77 228.316 Q2163.4 228.316 2165.21 224.775 Q2167.04 221.21 2167.04 214.103 Q2167.04 206.974 2165.21 203.432 Q2163.4 199.867 2159.77 199.867 M2159.77 196.164 Q2165.58 196.164 2168.63 200.77 Q2171.71 205.353 2171.71 214.103 Q2171.71 222.83 2168.63 227.437 Q2165.58 232.02 2159.77 232.02 Q2153.96 232.02 2150.88 227.437 Q2147.82 222.83 2147.82 214.103 Q2147.82 205.353 2150.88 200.77 Q2153.96 196.164 2159.77 196.164 Z" fill="#000000" fill-rule="evenodd" fill-opacity="1" /><path clip-path="url(#clip990)" d="M 0 0 M2176.78 225.469 L2181.67 225.469 L2181.67 231.349 L2176.78 231.349 L2176.78 225.469 Z" fill="#000000" fill-rule="evenodd" fill-opacity="1" /><path clip-path="url(#clip990)" d="M 0 0 M2199.58 200.863 L2187.78 219.312 L2199.58 219.312 L2199.58 200.863 M2198.36 196.789 L2204.24 196.789 L2204.24 219.312 L2209.17 219.312 L2209.17 223.201 L2204.24 223.201 L2204.24 231.349 L2199.58 231.349 L2199.58 223.201 L2183.98 223.201 L2183.98 218.687 L2198.36 196.789 Z" fill="#000000" fill-rule="evenodd" fill-opacity="1" /><path clip-path="url(#clip990)" d="M 0 0 M2213.05 196.789 L2235.28 196.789 L2235.28 198.779 L2222.73 231.349 L2217.85 231.349 L2229.65 200.724 L2213.05 200.724 L2213.05 196.789 Z" fill="#000000" fill-rule="evenodd" fill-opacity="1" /></svg>
