<?xml version="1.0" encoding="utf-8"?>
<svg xmlns="http://www.w3.org/2000/svg" xmlns:xlink="http://www.w3.org/1999/xlink" width="600" height="400" viewBox="0 0 2400 1600">
<defs>
  <clipPath id="clip960">
    <rect x="0" y="0" width="2400" height="1600"/>
  </clipPath>
</defs>
<path clip-path="url(#clip960)" d="
M0 1600 L2400 1600 L2400 0 L0 0  Z
  " fill="#ffffff" fill-rule="evenodd" fill-opacity="1"/>
<defs>
  <clipPath id="clip961">
    <rect x="480" y="0" width="1681" height="1600"/>
  </clipPath>
</defs>
<path clip-path="url(#clip960)" d="
M238.13 1423.18 L2352.76 1423.18 L2352.76 47.2441 L238.13 47.2441  Z
  " fill="#ffffff" fill-rule="evenodd" fill-opacity="1"/>
<defs>
  <clipPath id="clip962">
    <rect x="238" y="47" width="2116" height="1377"/>
  </clipPath>
</defs>
<polyline clip-path="url(#clip962)" style="stroke:#000000; stroke-width:2; stroke-opacity:0.1; fill:none" points="
  297.978,1423.18 297.978,47.2441 
  "/>
<polyline clip-path="url(#clip962)" style="stroke:#000000; stroke-width:2; stroke-opacity:0.1; fill:none" points="
  867.958,1423.18 867.958,47.2441 
  "/>
<polyline clip-path="url(#clip962)" style="stroke:#000000; stroke-width:2; stroke-opacity:0.1; fill:none" points="
  1437.94,1423.18 1437.94,47.2441 
  "/>
<polyline clip-path="url(#clip962)" style="stroke:#000000; stroke-width:2; stroke-opacity:0.1; fill:none" points="
  2007.92,1423.18 2007.92,47.2441 
  "/>
<polyline clip-path="url(#clip962)" style="stroke:#000000; stroke-width:2; stroke-opacity:0.1; fill:none" points="
  238.13,1382.77 2352.76,1382.77 
  "/>
<polyline clip-path="url(#clip962)" style="stroke:#000000; stroke-width:2; stroke-opacity:0.1; fill:none" points="
  238.13,1078.98 2352.76,1078.98 
  "/>
<polyline clip-path="url(#clip962)" style="stroke:#000000; stroke-width:2; stroke-opacity:0.1; fill:none" points="
  238.13,775.184 2352.76,775.184 
  "/>
<polyline clip-path="url(#clip962)" style="stroke:#000000; stroke-width:2; stroke-opacity:0.1; fill:none" points="
  238.13,471.391 2352.76,471.391 
  "/>
<polyline clip-path="url(#clip962)" style="stroke:#000000; stroke-width:2; stroke-opacity:0.1; fill:none" points="
  238.13,167.598 2352.76,167.598 
  "/>
<polyline clip-path="url(#clip960)" style="stroke:#000000; stroke-width:4; stroke-opacity:1; fill:none" points="
  238.13,1423.18 2352.76,1423.18 
  "/>
<polyline clip-path="url(#clip960)" style="stroke:#000000; stroke-width:4; stroke-opacity:1; fill:none" points="
  238.13,1423.18 238.13,47.2441 
  "/>
<polyline clip-path="url(#clip960)" style="stroke:#000000; stroke-width:4; stroke-opacity:1; fill:none" points="
  297.978,1423.18 297.978,1406.67 
  "/>
<polyline clip-path="url(#clip960)" style="stroke:#000000; stroke-width:4; stroke-opacity:1; fill:none" points="
  867.958,1423.18 867.958,1406.67 
  "/>
<polyline clip-path="url(#clip960)" style="stroke:#000000; stroke-width:4; stroke-opacity:1; fill:none" points="
  1437.94,1423.18 1437.94,1406.67 
  "/>
<polyline clip-path="url(#clip960)" style="stroke:#000000; stroke-width:4; stroke-opacity:1; fill:none" points="
  2007.92,1423.18 2007.92,1406.67 
  "/>
<polyline clip-path="url(#clip960)" style="stroke:#000000; stroke-width:4; stroke-opacity:1; fill:none" points="
  238.13,1382.77 263.506,1382.77 
  "/>
<polyline clip-path="url(#clip960)" style="stroke:#000000; stroke-width:4; stroke-opacity:1; fill:none" points="
  238.13,1078.98 263.506,1078.98 
  "/>
<polyline clip-path="url(#clip960)" style="stroke:#000000; stroke-width:4; stroke-opacity:1; fill:none" points="
  238.13,775.184 263.506,775.184 
  "/>
<polyline clip-path="url(#clip960)" style="stroke:#000000; stroke-width:4; stroke-opacity:1; fill:none" points="
  238.13,471.391 263.506,471.391 
  "/>
<polyline clip-path="url(#clip960)" style="stroke:#000000; stroke-width:4; stroke-opacity:1; fill:none" points="
  238.13,167.598 263.506,167.598 
  "/>
<path clip-path="url(#clip960)" d="M 0 0 M297.978 1445.17 Q294.367 1445.17 292.538 1448.74 Q290.733 1452.28 290.733 1459.41 Q290.733 1466.51 292.538 1470.08 Q294.367 1473.62 297.978 1473.62 Q301.612 1473.62 303.418 1470.08 Q305.246 1466.51 305.246 1459.41 Q305.246 1452.28 303.418 1448.74 Q301.612 1445.17 297.978 1445.17 M297.978 1441.47 Q303.788 1441.47 306.844 1446.07 Q309.922 1450.66 309.922 1459.41 Q309.922 1468.13 306.844 1472.74 Q303.788 1477.32 297.978 1477.32 Q292.168 1477.32 289.089 1472.74 Q286.034 1468.13 286.034 1459.41 Q286.034 1450.66 289.089 1446.07 Q292.168 1441.47 297.978 1441.47 Z" fill="#000000" fill-rule="evenodd" fill-opacity="1" /><path clip-path="url(#clip960)" d="M 0 0 M831.326 1472.72 L838.965 1472.72 L838.965 1446.35 L830.655 1448.02 L830.655 1443.76 L838.919 1442.09 L843.595 1442.09 L843.595 1472.72 L851.234 1472.72 L851.234 1476.65 L831.326 1476.65 L831.326 1472.72 Z" fill="#000000" fill-rule="evenodd" fill-opacity="1" /><path clip-path="url(#clip960)" d="M 0 0 M866.303 1445.17 Q862.692 1445.17 860.863 1448.74 Q859.058 1452.28 859.058 1459.41 Q859.058 1466.51 860.863 1470.08 Q862.692 1473.62 866.303 1473.62 Q869.937 1473.62 871.743 1470.08 Q873.571 1466.51 873.571 1459.41 Q873.571 1452.28 871.743 1448.74 Q869.937 1445.17 866.303 1445.17 M866.303 1441.47 Q872.113 1441.47 875.169 1446.07 Q878.247 1450.66 878.247 1459.41 Q878.247 1468.13 875.169 1472.74 Q872.113 1477.32 866.303 1477.32 Q860.493 1477.32 857.414 1472.74 Q854.359 1468.13 854.359 1459.41 Q854.359 1450.66 857.414 1446.07 Q860.493 1441.47 866.303 1441.47 Z" fill="#000000" fill-rule="evenodd" fill-opacity="1" /><path clip-path="url(#clip960)" d="M 0 0 M893.317 1445.17 Q889.706 1445.17 887.877 1448.74 Q886.071 1452.28 886.071 1459.41 Q886.071 1466.51 887.877 1470.08 Q889.706 1473.62 893.317 1473.62 Q896.951 1473.62 898.756 1470.08 Q900.585 1466.51 900.585 1459.41 Q900.585 1452.28 898.756 1448.74 Q896.951 1445.17 893.317 1445.17 M893.317 1441.47 Q899.127 1441.47 902.182 1446.07 Q905.261 1450.66 905.261 1459.41 Q905.261 1468.13 902.182 1472.74 Q899.127 1477.32 893.317 1477.32 Q887.506 1477.32 884.428 1472.74 Q881.372 1468.13 881.372 1459.41 Q881.372 1450.66 884.428 1446.07 Q887.506 1441.47 893.317 1441.47 Z" fill="#000000" fill-rule="evenodd" fill-opacity="1" /><path clip-path="url(#clip960)" d="M 0 0 M1405.58 1472.72 L1421.9 1472.72 L1421.9 1476.65 L1399.95 1476.65 L1399.95 1472.72 Q1402.61 1469.96 1407.2 1465.33 Q1411.8 1460.68 1412.98 1459.34 Q1415.23 1456.81 1416.11 1455.08 Q1417.01 1453.32 1417.01 1451.63 Q1417.01 1448.87 1415.07 1447.14 Q1413.15 1445.4 1410.04 1445.4 Q1407.85 1445.4 1405.39 1446.17 Q1402.96 1446.93 1400.18 1448.48 L1400.18 1443.76 Q1403.01 1442.62 1405.46 1442.05 Q1407.91 1441.47 1409.95 1441.47 Q1415.32 1441.47 1418.52 1444.15 Q1421.71 1446.84 1421.71 1451.33 Q1421.71 1453.46 1420.9 1455.38 Q1420.11 1457.28 1418.01 1459.87 Q1417.43 1460.54 1414.33 1463.76 Q1411.23 1466.95 1405.58 1472.72 Z" fill="#000000" fill-rule="evenodd" fill-opacity="1" /><path clip-path="url(#clip960)" d="M 0 0 M1436.97 1445.17 Q1433.35 1445.17 1431.53 1448.74 Q1429.72 1452.28 1429.72 1459.41 Q1429.72 1466.51 1431.53 1470.08 Q1433.35 1473.62 1436.97 1473.62 Q1440.6 1473.62 1442.41 1470.08 Q1444.23 1466.51 1444.23 1459.41 Q1444.23 1452.28 1442.41 1448.74 Q1440.6 1445.17 1436.97 1445.17 M1436.97 1441.47 Q1442.78 1441.47 1445.83 1446.07 Q1448.91 1450.66 1448.91 1459.41 Q1448.91 1468.13 1445.83 1472.74 Q1442.78 1477.32 1436.97 1477.32 Q1431.16 1477.32 1428.08 1472.74 Q1425.02 1468.13 1425.02 1459.41 Q1425.02 1450.66 1428.08 1446.07 Q1431.16 1441.47 1436.97 1441.47 Z" fill="#000000" fill-rule="evenodd" fill-opacity="1" /><path clip-path="url(#clip960)" d="M 0 0 M1463.98 1445.17 Q1460.37 1445.17 1458.54 1448.74 Q1456.73 1452.28 1456.73 1459.41 Q1456.73 1466.51 1458.54 1470.08 Q1460.37 1473.62 1463.98 1473.62 Q1467.61 1473.62 1469.42 1470.08 Q1471.25 1466.51 1471.25 1459.41 Q1471.25 1452.28 1469.42 1448.74 Q1467.61 1445.17 1463.98 1445.17 M1463.98 1441.47 Q1469.79 1441.47 1472.85 1446.07 Q1475.92 1450.66 1475.92 1459.41 Q1475.92 1468.13 1472.85 1472.74 Q1469.79 1477.32 1463.98 1477.32 Q1458.17 1477.32 1455.09 1472.74 Q1452.04 1468.13 1452.04 1459.41 Q1452.04 1450.66 1455.09 1446.07 Q1458.17 1441.47 1463.98 1441.47 Z" fill="#000000" fill-rule="evenodd" fill-opacity="1" /><path clip-path="url(#clip960)" d="M 0 0 M1985.15 1458.02 Q1988.51 1458.74 1990.38 1461 Q1992.28 1463.27 1992.28 1466.61 Q1992.28 1471.72 1988.76 1474.52 Q1985.24 1477.32 1978.76 1477.32 Q1976.59 1477.32 1974.27 1476.88 Q1971.98 1476.47 1969.53 1475.61 L1969.53 1471.1 Q1971.47 1472.23 1973.79 1472.81 Q1976.1 1473.39 1978.62 1473.39 Q1983.02 1473.39 1985.31 1471.65 Q1987.63 1469.92 1987.63 1466.61 Q1987.63 1463.55 1985.48 1461.84 Q1983.35 1460.1 1979.53 1460.1 L1975.5 1460.1 L1975.5 1456.26 L1979.71 1456.26 Q1983.16 1456.26 1984.99 1454.89 Q1986.82 1453.5 1986.82 1450.91 Q1986.82 1448.25 1984.92 1446.84 Q1983.05 1445.4 1979.53 1445.4 Q1977.61 1445.4 1975.41 1445.82 Q1973.21 1446.24 1970.57 1447.11 L1970.57 1442.95 Q1973.23 1442.21 1975.55 1441.84 Q1977.88 1441.47 1979.94 1441.47 Q1985.27 1441.47 1988.37 1443.9 Q1991.47 1446.3 1991.47 1450.43 Q1991.47 1453.3 1989.83 1455.29 Q1988.18 1457.25 1985.15 1458.02 Z" fill="#000000" fill-rule="evenodd" fill-opacity="1" /><path clip-path="url(#clip960)" d="M 0 0 M2007.35 1445.17 Q2003.74 1445.17 2001.91 1448.74 Q2000.11 1452.28 2000.11 1459.41 Q2000.11 1466.51 2001.91 1470.08 Q2003.74 1473.62 2007.35 1473.62 Q2010.99 1473.62 2012.79 1470.08 Q2014.62 1466.51 2014.62 1459.41 Q2014.62 1452.28 2012.79 1448.74 Q2010.99 1445.17 2007.35 1445.17 M2007.35 1441.47 Q2013.16 1441.47 2016.22 1446.07 Q2019.3 1450.66 2019.3 1459.41 Q2019.3 1468.13 2016.22 1472.74 Q2013.16 1477.32 2007.35 1477.32 Q2001.54 1477.32 1998.46 1472.74 Q1995.41 1468.13 1995.41 1459.41 Q1995.41 1450.66 1998.46 1446.07 Q2001.54 1441.47 2007.35 1441.47 Z" fill="#000000" fill-rule="evenodd" fill-opacity="1" /><path clip-path="url(#clip960)" d="M 0 0 M2034.36 1445.17 Q2030.75 1445.17 2028.92 1448.74 Q2027.12 1452.28 2027.12 1459.41 Q2027.12 1466.51 2028.92 1470.08 Q2030.75 1473.62 2034.36 1473.62 Q2038 1473.62 2039.8 1470.08 Q2041.63 1466.51 2041.63 1459.41 Q2041.63 1452.28 2039.8 1448.74 Q2038 1445.17 2034.36 1445.17 M2034.36 1441.47 Q2040.17 1441.47 2043.23 1446.07 Q2046.31 1450.66 2046.31 1459.41 Q2046.31 1468.13 2043.23 1472.74 Q2040.17 1477.32 2034.36 1477.32 Q2028.55 1477.32 2025.48 1472.74 Q2022.42 1468.13 2022.42 1459.41 Q2022.42 1450.66 2025.48 1446.07 Q2028.55 1441.47 2034.36 1441.47 Z" fill="#000000" fill-rule="evenodd" fill-opacity="1" /><path clip-path="url(#clip960)" d="M 0 0 M138.205 1368.57 Q134.593 1368.57 132.765 1372.13 Q130.959 1375.68 130.959 1382.81 Q130.959 1389.91 132.765 1393.48 Q134.593 1397.02 138.205 1397.02 Q141.839 1397.02 143.644 1393.48 Q145.473 1389.91 145.473 1382.81 Q145.473 1375.68 143.644 1372.13 Q141.839 1368.57 138.205 1368.57 M138.205 1364.87 Q144.015 1364.87 147.07 1369.47 Q150.149 1374.06 150.149 1382.81 Q150.149 1391.53 147.07 1396.14 Q144.015 1400.72 138.205 1400.72 Q132.394 1400.72 129.316 1396.14 Q126.26 1391.53 126.26 1382.81 Q126.26 1374.06 129.316 1369.47 Q132.394 1364.87 138.205 1364.87 Z" fill="#000000" fill-rule="evenodd" fill-opacity="1" /><path clip-path="url(#clip960)" d="M 0 0 M155.218 1394.17 L160.103 1394.17 L160.103 1400.05 L155.218 1400.05 L155.218 1394.17 Z" fill="#000000" fill-rule="evenodd" fill-opacity="1" /><path clip-path="url(#clip960)" d="M 0 0 M175.172 1368.57 Q171.561 1368.57 169.732 1372.13 Q167.927 1375.68 167.927 1382.81 Q167.927 1389.91 169.732 1393.48 Q171.561 1397.02 175.172 1397.02 Q178.806 1397.02 180.612 1393.48 Q182.44 1389.91 182.44 1382.81 Q182.44 1375.68 180.612 1372.13 Q178.806 1368.57 175.172 1368.57 M175.172 1364.87 Q180.982 1364.87 184.038 1369.47 Q187.116 1374.06 187.116 1382.81 Q187.116 1391.53 184.038 1396.14 Q180.982 1400.72 175.172 1400.72 Q169.362 1400.72 166.283 1396.14 Q163.228 1391.53 163.228 1382.81 Q163.228 1374.06 166.283 1369.47 Q169.362 1364.87 175.172 1364.87 Z" fill="#000000" fill-rule="evenodd" fill-opacity="1" /><path clip-path="url(#clip960)" d="M 0 0 M202.186 1368.57 Q198.575 1368.57 196.746 1372.13 Q194.94 1375.68 194.94 1382.81 Q194.94 1389.91 196.746 1393.48 Q198.575 1397.02 202.186 1397.02 Q205.82 1397.02 207.625 1393.48 Q209.454 1389.91 209.454 1382.81 Q209.454 1375.68 207.625 1372.13 Q205.82 1368.57 202.186 1368.57 M202.186 1364.87 Q207.996 1364.87 211.051 1369.47 Q214.13 1374.06 214.13 1382.81 Q214.13 1391.53 211.051 1396.14 Q207.996 1400.72 202.186 1400.72 Q196.376 1400.72 193.297 1396.14 Q190.241 1391.53 190.241 1382.81 Q190.241 1374.06 193.297 1369.47 Q196.376 1364.87 202.186 1364.87 Z" fill="#000000" fill-rule="evenodd" fill-opacity="1" /><path clip-path="url(#clip960)" d="M 0 0 M140.797 1064.78 Q137.186 1064.78 135.357 1068.34 Q133.552 1071.88 133.552 1079.01 Q133.552 1086.12 135.357 1089.68 Q137.186 1093.22 140.797 1093.22 Q144.431 1093.22 146.237 1089.68 Q148.066 1086.12 148.066 1079.01 Q148.066 1071.88 146.237 1068.34 Q144.431 1064.78 140.797 1064.78 M140.797 1061.07 Q146.607 1061.07 149.663 1065.68 Q152.741 1070.26 152.741 1079.01 Q152.741 1087.74 149.663 1092.35 Q146.607 1096.93 140.797 1096.93 Q134.987 1096.93 131.908 1092.35 Q128.853 1087.74 128.853 1079.01 Q128.853 1070.26 131.908 1065.68 Q134.987 1061.07 140.797 1061.07 Z" fill="#000000" fill-rule="evenodd" fill-opacity="1" /><path clip-path="url(#clip960)" d="M 0 0 M157.811 1090.38 L162.695 1090.38 L162.695 1096.26 L157.811 1096.26 L157.811 1090.38 Z" fill="#000000" fill-rule="evenodd" fill-opacity="1" /><path clip-path="url(#clip960)" d="M 0 0 M171.792 1092.32 L188.112 1092.32 L188.112 1096.26 L166.167 1096.26 L166.167 1092.32 Q168.829 1089.57 173.413 1084.94 Q178.019 1080.29 179.2 1078.94 Q181.445 1076.42 182.325 1074.68 Q183.227 1072.92 183.227 1071.23 Q183.227 1068.48 181.283 1066.74 Q179.362 1065.01 176.26 1065.01 Q174.061 1065.01 171.607 1065.77 Q169.177 1066.54 166.399 1068.09 L166.399 1063.36 Q169.223 1062.23 171.677 1061.65 Q174.13 1061.07 176.167 1061.07 Q181.538 1061.07 184.732 1063.76 Q187.926 1066.44 187.926 1070.93 Q187.926 1073.06 187.116 1074.98 Q186.329 1076.88 184.223 1079.47 Q183.644 1080.15 180.542 1083.36 Q177.44 1086.56 171.792 1092.32 Z" fill="#000000" fill-rule="evenodd" fill-opacity="1" /><path clip-path="url(#clip960)" d="M 0 0 M193.227 1061.7 L211.584 1061.7 L211.584 1065.63 L197.51 1065.63 L197.51 1074.1 Q198.528 1073.76 199.547 1073.6 Q200.565 1073.41 201.584 1073.41 Q207.371 1073.41 210.75 1076.58 Q214.13 1079.75 214.13 1085.17 Q214.13 1090.75 210.658 1093.85 Q207.186 1096.93 200.866 1096.93 Q198.69 1096.93 196.422 1096.56 Q194.176 1096.19 191.769 1095.45 L191.769 1090.75 Q193.852 1091.88 196.075 1092.44 Q198.297 1092.99 200.774 1092.99 Q204.778 1092.99 207.116 1090.89 Q209.454 1088.78 209.454 1085.17 Q209.454 1081.56 207.116 1079.45 Q204.778 1077.35 200.774 1077.35 Q198.899 1077.35 197.024 1077.76 Q195.172 1078.18 193.227 1079.06 L193.227 1061.7 Z" fill="#000000" fill-rule="evenodd" fill-opacity="1" /><path clip-path="url(#clip960)" d="M 0 0 M139.2 760.983 Q135.589 760.983 133.76 764.547 Q131.955 768.089 131.955 775.219 Q131.955 782.325 133.76 785.89 Q135.589 789.432 139.2 789.432 Q142.834 789.432 144.64 785.89 Q146.468 782.325 146.468 775.219 Q146.468 768.089 144.64 764.547 Q142.834 760.983 139.2 760.983 M139.2 757.279 Q145.01 757.279 148.066 761.885 Q151.144 766.469 151.144 775.219 Q151.144 783.946 148.066 788.552 Q145.01 793.135 139.2 793.135 Q133.39 793.135 130.311 788.552 Q127.256 783.946 127.256 775.219 Q127.256 766.469 130.311 761.885 Q133.39 757.279 139.2 757.279 Z" fill="#000000" fill-rule="evenodd" fill-opacity="1" /><path clip-path="url(#clip960)" d="M 0 0 M156.214 786.584 L161.098 786.584 L161.098 792.464 L156.214 792.464 L156.214 786.584 Z" fill="#000000" fill-rule="evenodd" fill-opacity="1" /><path clip-path="url(#clip960)" d="M 0 0 M166.214 757.904 L184.57 757.904 L184.57 761.839 L170.496 761.839 L170.496 770.311 Q171.515 769.964 172.533 769.802 Q173.552 769.617 174.57 769.617 Q180.357 769.617 183.737 772.788 Q187.116 775.959 187.116 781.376 Q187.116 786.955 183.644 790.057 Q180.172 793.135 173.852 793.135 Q171.677 793.135 169.408 792.765 Q167.163 792.395 164.755 791.654 L164.755 786.955 Q166.839 788.089 169.061 788.645 Q171.283 789.2 173.76 789.2 Q177.765 789.2 180.102 787.094 Q182.44 784.987 182.44 781.376 Q182.44 777.765 180.102 775.659 Q177.765 773.552 173.76 773.552 Q171.885 773.552 170.01 773.969 Q168.158 774.385 166.214 775.265 L166.214 757.904 Z" fill="#000000" fill-rule="evenodd" fill-opacity="1" /><path clip-path="url(#clip960)" d="M 0 0 M202.186 760.983 Q198.575 760.983 196.746 764.547 Q194.94 768.089 194.94 775.219 Q194.94 782.325 196.746 785.89 Q198.575 789.432 202.186 789.432 Q205.82 789.432 207.625 785.89 Q209.454 782.325 209.454 775.219 Q209.454 768.089 207.625 764.547 Q205.82 760.983 202.186 760.983 M202.186 757.279 Q207.996 757.279 211.051 761.885 Q214.13 766.469 214.13 775.219 Q214.13 783.946 211.051 788.552 Q207.996 793.135 202.186 793.135 Q196.376 793.135 193.297 788.552 Q190.241 783.946 190.241 775.219 Q190.241 766.469 193.297 761.885 Q196.376 757.279 202.186 757.279 Z" fill="#000000" fill-rule="evenodd" fill-opacity="1" /><path clip-path="url(#clip960)" d="M 0 0 M140.103 457.189 Q136.492 457.189 134.663 460.754 Q132.857 464.296 132.857 471.426 Q132.857 478.532 134.663 482.097 Q136.492 485.638 140.103 485.638 Q143.737 485.638 145.542 482.097 Q147.371 478.532 147.371 471.426 Q147.371 464.296 145.542 460.754 Q143.737 457.189 140.103 457.189 M140.103 453.486 Q145.913 453.486 148.968 458.092 Q152.047 462.676 152.047 471.426 Q152.047 480.152 148.968 484.759 Q145.913 489.342 140.103 489.342 Q134.293 489.342 131.214 484.759 Q128.158 480.152 128.158 471.426 Q128.158 462.676 131.214 458.092 Q134.293 453.486 140.103 453.486 Z" fill="#000000" fill-rule="evenodd" fill-opacity="1" /><path clip-path="url(#clip960)" d="M 0 0 M157.116 482.791 L162.001 482.791 L162.001 488.671 L157.116 488.671 L157.116 482.791 Z" fill="#000000" fill-rule="evenodd" fill-opacity="1" /><path clip-path="url(#clip960)" d="M 0 0 M165.89 454.111 L188.112 454.111 L188.112 456.102 L175.565 488.671 L170.681 488.671 L182.487 458.046 L165.89 458.046 L165.89 454.111 Z" fill="#000000" fill-rule="evenodd" fill-opacity="1" /><path clip-path="url(#clip960)" d="M 0 0 M193.227 454.111 L211.584 454.111 L211.584 458.046 L197.51 458.046 L197.51 466.518 Q198.528 466.171 199.547 466.009 Q200.565 465.824 201.584 465.824 Q207.371 465.824 210.75 468.995 Q214.13 472.166 214.13 477.583 Q214.13 483.162 210.658 486.263 Q207.186 489.342 200.866 489.342 Q198.69 489.342 196.422 488.972 Q194.176 488.601 191.769 487.861 L191.769 483.162 Q193.852 484.296 196.075 484.851 Q198.297 485.407 200.774 485.407 Q204.778 485.407 207.116 483.3 Q209.454 481.194 209.454 477.583 Q209.454 473.972 207.116 471.865 Q204.778 469.759 200.774 469.759 Q198.899 469.759 197.024 470.176 Q195.172 470.592 193.227 471.472 L193.227 454.111 Z" fill="#000000" fill-rule="evenodd" fill-opacity="1" /><path clip-path="url(#clip960)" d="M 0 0 M130.242 180.942 L137.88 180.942 L137.88 154.577 L129.57 156.244 L129.57 151.984 L137.834 150.318 L142.51 150.318 L142.51 180.942 L150.149 180.942 L150.149 184.878 L130.242 184.878 L130.242 180.942 Z" fill="#000000" fill-rule="evenodd" fill-opacity="1" /><path clip-path="url(#clip960)" d="M 0 0 M155.218 178.998 L160.103 178.998 L160.103 184.878 L155.218 184.878 L155.218 178.998 Z" fill="#000000" fill-rule="evenodd" fill-opacity="1" /><path clip-path="url(#clip960)" d="M 0 0 M175.172 153.396 Q171.561 153.396 169.732 156.961 Q167.927 160.503 167.927 167.632 Q167.927 174.739 169.732 178.304 Q171.561 181.845 175.172 181.845 Q178.806 181.845 180.612 178.304 Q182.44 174.739 182.44 167.632 Q182.44 160.503 180.612 156.961 Q178.806 153.396 175.172 153.396 M175.172 149.693 Q180.982 149.693 184.038 154.299 Q187.116 158.882 187.116 167.632 Q187.116 176.359 184.038 180.966 Q180.982 185.549 175.172 185.549 Q169.362 185.549 166.283 180.966 Q163.228 176.359 163.228 167.632 Q163.228 158.882 166.283 154.299 Q169.362 149.693 175.172 149.693 Z" fill="#000000" fill-rule="evenodd" fill-opacity="1" /><path clip-path="url(#clip960)" d="M 0 0 M202.186 153.396 Q198.575 153.396 196.746 156.961 Q194.94 160.503 194.94 167.632 Q194.94 174.739 196.746 178.304 Q198.575 181.845 202.186 181.845 Q205.82 181.845 207.625 178.304 Q209.454 174.739 209.454 167.632 Q209.454 160.503 207.625 156.961 Q205.82 153.396 202.186 153.396 M202.186 149.693 Q207.996 149.693 211.051 154.299 Q214.13 158.882 214.13 167.632 Q214.13 176.359 211.051 180.966 Q207.996 185.549 202.186 185.549 Q196.376 185.549 193.297 180.966 Q190.241 176.359 190.241 167.632 Q190.241 158.882 193.297 154.299 Q196.376 149.693 202.186 149.693 Z" fill="#000000" fill-rule="evenodd" fill-opacity="1" /><path clip-path="url(#clip960)" d="M 0 0 M1312.06 1520.4 L1299.17 1537.74 L1312.73 1556.04 L1305.82 1556.04 L1295.44 1542.04 L1285.07 1556.04 L1278.16 1556.04 L1292.01 1537.39 L1279.34 1520.4 L1286.24 1520.4 L1295.7 1533.1 L1305.15 1520.4 L1312.06 1520.4 Z" fill="#000000" fill-rule="evenodd" fill-opacity="1" /><path clip-path="url(#clip960)" d="M 0 0 M70.212 745.095 Q76.6732 745.095 80.3653 742.453 Q84.0256 739.779 84.0256 735.132 Q84.0256 730.485 80.3653 727.812 Q76.6732 725.138 70.212 725.138 Q63.7508 725.138 60.0905 727.812 Q56.3984 730.485 56.3984 735.132 Q56.3984 739.779 60.0905 742.453 Q63.7508 745.095 70.212 745.095 M82.657 725.138 Q85.8398 726.984 87.3994 729.817 Q88.9272 732.618 88.9272 736.565 Q88.9272 743.026 83.771 747.1 Q78.6147 751.142 70.212 751.142 Q61.8093 751.142 56.6531 747.1 Q51.4968 743.026 51.4968 736.565 Q51.4968 732.618 53.0564 729.817 Q54.5842 726.984 57.7671 725.138 L52.3562 725.138 L52.3562 719.282 L101.563 719.282 L101.563 725.138 L82.657 725.138 Z" fill="#000000" fill-rule="evenodd" fill-opacity="1" /><polyline clip-path="url(#clip962)" style="stroke:#009af9; stroke-width:4; stroke-opacity:1; fill:none" points="
  297.978,1382.77 300.669,1382.77 305.771,1382.77 310.872,1382.77 313.563,1382.77 316.255,1382.77 321.356,1382.77 326.458,1382.77 329.149,1382.77 
  331.84,1382.77 336.941,1382.77 342.043,1382.77 344.734,1382.77 347.425,1382.77 352.527,1382.77 357.628,1382.77 360.32,1382.77 
  363.011,1382.77 368.112,1382.77 373.214,1382.77 375.905,1382.77 378.596,1382.77 383.698,1382.77 388.799,1382.77 391.49,1382.77 
  394.181,1382.77 399.283,1382.77 404.385,1382.77 407.076,1382.77 409.767,1382.77 414.868,1382.77 419.97,1382.77 422.661,1382.77 
  425.352,1382.77 430.454,1382.77 435.555,1382.77 438.246,1382.77 440.938,1382.77 446.039,1382.77 451.141,1382.77 453.832,1382.77 
  456.523,1382.77 461.625,1382.77 466.726,1382.77 469.417,1382.77 472.108,1382.77 477.21,1382.77 482.311,1382.77 485.003,1382.77 
  487.694,1382.77 492.795,1382.77 497.897,1382.77 500.588,1382.77 503.279,1382.77 508.381,1382.77 513.482,1382.77 516.173,1382.77 
  518.865,1382.77 523.966,1382.77 529.068,1382.77 531.759,1382.77 534.45,1382.77 539.552,1382.77 544.653,1382.77 547.344,1382.77 
  550.035,1382.77 555.137,1382.77 560.238,1382.77 562.93,1382.77 565.621,1382.77 570.722,1382.77 575.824,1382.77 578.515,1382.77 
  581.206,1382.77 586.308,1382.77 591.409,1382.77 594.1,1382.77 596.792,1382.77 601.893,1382.77 606.995,1382.77 609.686,1382.77 
  612.377,1382.77 617.478,1382.77 622.58,1382.77 625.271,1382.77 627.962,1382.77 633.064,1382.77 638.165,1382.77 640.857,1382.77 
  643.548,1382.77 648.649,1382.77 653.751,1382.77 656.442,1382.77 659.133,1382.77 664.235,1382.77 669.336,1382.77 672.027,1382.77 
  674.719,1382.77 679.82,1382.77 684.922,1382.77 687.613,1382.77 690.304,1382.77 695.405,1382.77 700.507,1382.77 703.198,1382.77 
  705.889,1382.77 710.991,1382.77 716.092,1382.77 718.784,1382.77 721.475,1382.77 726.576,167.598 731.678,167.598 734.369,167.598 
  737.06,167.598 742.162,167.598 747.263,167.598 749.954,167.598 752.645,167.598 757.747,167.598 762.849,167.598 765.54,167.598 
  768.231,167.598 773.332,167.598 778.434,167.598 781.125,167.598 783.816,167.598 788.918,167.598 794.019,167.598 796.71,167.598 
  799.402,167.598 804.503,167.598 809.605,167.598 812.296,167.598 814.987,167.598 820.089,167.598 825.19,167.598 827.881,167.598 
  830.572,167.598 835.674,167.598 840.775,167.598 843.467,167.598 846.158,167.598 851.259,167.598 856.361,167.598 859.052,167.598 
  861.743,167.598 866.845,167.598 871.946,167.598 874.637,167.598 877.329,167.598 882.43,167.598 887.532,167.598 890.223,167.598 
  892.914,167.598 898.016,167.598 903.117,167.598 905.808,167.598 908.499,167.598 913.601,167.598 918.702,167.598 921.394,167.598 
  924.085,167.598 929.186,167.598 934.288,167.598 936.979,167.598 939.67,167.598 944.772,167.598 949.873,167.598 952.564,167.598 
  955.256,167.598 960.357,167.598 965.459,167.598 968.15,167.598 970.841,167.598 975.942,167.598 981.044,167.598 983.735,167.598 
  986.426,167.598 991.528,167.598 996.629,167.598 999.321,167.598 1002.01,167.598 1007.11,167.598 1012.21,1382.77 1014.91,1382.77 
  1017.6,1382.77 1022.7,1382.77 1027.8,1382.77 1030.49,1382.77 1033.18,1382.77 1038.28,1382.77 1043.39,1382.77 1046.08,1382.77 
  1048.77,1382.77 1053.87,1382.77 1058.97,1382.77 1061.66,1382.77 1064.35,1382.77 1069.45,1382.77 1074.56,1382.77 1077.25,1382.77 
  1079.94,1382.77 1085.04,1382.77 1090.14,1382.77 1092.83,1382.77 1095.52,1382.77 1100.63,1382.77 1105.73,1382.77 1108.42,1382.77 
  1111.11,1382.77 1116.21,1382.77 1121.31,1382.77 1124,1382.77 1126.69,1382.77 1131.8,1382.77 1136.9,1382.77 1139.59,1382.77 
  1142.28,1382.77 1147.38,1382.77 1152.48,1382.77 1155.17,1382.77 1157.87,1382.77 1162.97,1382.77 1168.07,1382.77 1170.76,1382.77 
  1173.45,1382.77 1178.55,1382.77 1183.65,1382.77 1186.35,1382.77 1189.04,1382.77 1194.14,1382.77 1199.24,1382.77 1201.93,1382.77 
  1204.62,1382.77 1209.72,1382.77 1214.82,1382.77 1217.52,1382.77 1220.21,1382.77 1225.31,1382.77 1230.41,1382.77 1233.1,1382.77 
  1235.79,1382.77 1240.89,1382.77 1246,1382.77 1248.69,1382.77 1251.38,1382.77 1256.48,1382.77 1261.58,1382.77 1264.27,1382.77 
  1266.96,1382.77 1272.06,1382.77 1277.17,1382.77 1279.86,1382.77 1282.55,1382.77 1287.65,1382.77 1292.75,1382.77 1295.44,1382.77 
  1298.13,1382.77 1303.24,1382.77 1308.34,1382.77 1311.03,1382.77 1313.72,1382.77 1318.82,1382.77 1323.92,1382.77 1326.61,1382.77 
  1329.3,1382.77 1334.41,1382.77 1339.51,1382.77 1342.2,1382.77 1344.89,1382.77 1349.99,1382.77 1355.09,1382.77 1357.78,1382.77 
  1360.48,1382.77 1365.58,1382.77 1370.68,1382.77 1373.37,1382.77 1376.06,1382.77 1381.16,1382.77 1386.26,1382.77 1388.96,1382.77 
  1391.65,1382.77 1396.75,1382.77 1401.85,1382.77 1404.54,1382.77 1407.23,1382.77 1412.33,1382.77 1417.43,1382.77 1420.13,1382.77 
  1422.82,1382.77 1427.92,1382.77 1433.02,1382.77 1435.71,1382.77 1438.4,1382.77 1443.5,1382.77 1448.61,1382.77 1451.3,1382.77 
  1453.99,1382.77 1459.09,1382.77 1464.19,1382.77 1466.88,1382.77 1469.57,1382.77 1474.67,1382.77 1479.78,1382.77 1482.47,1382.77 
  1485.16,1382.77 1490.26,1382.77 1495.36,1382.77 1498.05,1382.77 1500.74,1382.77 1505.85,1382.77 1510.95,1382.77 1513.64,1382.77 
  1516.33,1382.77 1521.43,1382.77 1526.53,1382.77 1529.22,1382.77 1531.92,1382.77 1537.02,1382.77 1542.12,1382.77 1544.81,1382.77 
  1547.5,1382.77 1552.6,1382.77 1557.7,1382.77 1560.39,1382.77 1563.09,1382.77 1568.19,1382.77 1573.29,1382.77 1575.98,1382.77 
  1578.67,1382.77 1583.77,1382.77 1588.87,1382.77 1591.57,1382.77 1594.26,1382.77 1599.36,1382.77 1604.46,1382.77 1607.15,1382.77 
  1609.84,1382.77 1614.94,1382.77 1620.05,1382.77 1622.74,1382.77 1625.43,1382.77 1630.53,1382.77 1635.63,1382.77 1638.32,1382.77 
  1641.01,1382.77 1646.11,1382.77 1651.22,1382.77 1653.91,1382.77 1656.6,1382.77 1661.7,1382.77 1666.8,1382.77 1669.49,1382.77 
  1672.18,1382.77 1677.29,1382.77 1682.39,1382.77 1685.08,1382.77 1687.77,1382.77 1692.87,1382.77 1697.97,1382.77 1700.66,1382.77 
  1703.35,1382.77 1708.46,1382.77 1713.56,1382.77 1716.25,1382.77 1718.94,1382.77 1724.04,1382.77 1729.14,1382.77 1731.83,1382.77 
  1734.53,1382.77 1739.63,1382.77 1744.73,1382.77 1747.42,1382.77 1750.11,1382.77 1755.21,1382.77 1760.31,1382.77 1763,1382.77 
  1765.7,1382.77 1770.8,1382.77 1775.9,1382.77 1778.59,1382.77 1781.28,1382.77 1786.38,1382.77 1791.48,1382.77 1794.18,1382.77 
  1796.87,1382.77 1801.97,1382.77 1807.07,1382.77 1809.76,1382.77 1812.45,1382.77 1817.55,1382.77 1822.66,1382.77 1825.35,1382.77 
  1828.04,1382.77 1833.14,1382.77 1838.24,1382.77 1840.93,1382.77 1843.62,1382.77 1848.72,1382.77 1853.83,1382.77 1856.52,1382.77 
  1859.21,1382.77 1864.31,1382.77 1869.41,1382.77 1872.1,1382.77 1874.79,1382.77 1879.9,1382.77 1885,1382.77 1887.69,1382.77 
  1890.38,1382.77 1895.48,1382.77 1900.58,1382.77 1903.27,1382.77 1905.96,1382.77 1911.07,1382.77 1916.17,1382.77 1918.86,1382.77 
  1921.55,1382.77 1926.65,1382.77 1931.75,1382.77 1934.44,1382.77 1937.14,1382.77 1942.24,1382.77 1947.34,1382.77 1950.03,1382.77 
  1952.72,1382.77 1957.82,1382.77 1962.92,1382.77 1965.61,1382.77 1968.31,1382.77 1973.41,1382.77 1978.51,1382.77 1981.2,1382.77 
  1983.89,1382.77 1988.99,1382.77 1994.09,1382.77 1996.79,1382.77 1999.48,1382.77 2004.58,1382.77 2009.68,1382.77 2012.37,1382.77 
  2015.06,1382.77 2020.16,1382.77 2025.27,1382.77 2027.96,1382.77 2030.65,1382.77 2035.75,1382.77 2040.85,1382.77 2043.54,1382.77 
  2046.23,1382.77 2051.33,1382.77 2056.44,1382.77 2059.13,1382.77 2061.82,1382.77 2066.92,1382.77 2072.02,1382.77 2074.71,1382.77 
  2077.4,1382.77 2082.51,1382.77 2087.61,1382.77 2090.3,1382.77 2092.99,1382.77 2098.09,1382.77 2103.19,1382.77 2105.88,1382.77 
  2108.57,1382.77 2113.68,1382.77 2118.78,1382.77 2121.47,1382.77 2124.16,1382.77 2129.26,1382.77 2134.36,1382.77 2137.05,1382.77 
  2139.75,1382.77 2144.85,1382.77 2149.95,1382.77 2152.64,1382.77 2155.33,1382.77 2160.43,1382.77 2165.53,1382.77 2168.22,1382.77 
  2170.92,1382.77 2176.02,1382.77 2181.12,1382.77 2183.81,1382.77 2186.5,1382.77 2191.6,1382.77 2196.7,1382.77 2199.4,1382.77 
  2202.09,1382.77 2207.19,1382.77 2212.29,1382.77 2214.98,1382.77 2217.67,1382.77 2222.77,1382.77 2227.88,1382.77 2230.57,1382.77 
  2233.26,1382.77 2238.36,1382.77 2243.46,1382.77 2246.15,1382.77 2248.84,1382.77 2253.94,1382.77 2259.05,1382.77 2261.74,1382.77 
  2264.43,1382.77 2269.53,1382.77 2274.63,1382.77 2277.32,1382.77 2280.01,1382.77 2285.12,1382.77 2290.22,1382.77 2292.91,1382.77 
  
  "/>
<polyline clip-path="url(#clip962)" style="stroke:#e26f46; stroke-width:4; stroke-opacity:1; fill:none" points="
  297.978,1382.77 300.669,1382.77 305.771,1382.77 310.872,1382.77 313.563,1382.77 316.255,1382.77 321.356,1382.77 326.458,1382.77 329.149,1382.77 
  331.84,1382.77 336.941,1382.77 342.043,1382.77 344.734,1382.77 347.425,1382.77 352.527,1382.77 357.628,1382.77 360.32,1382.77 
  363.011,1382.77 368.112,1382.77 373.214,1382.77 375.905,1382.77 378.596,1382.77 383.698,1382.77 388.799,1382.77 391.49,1382.77 
  394.181,1382.77 399.283,1382.77 404.385,1382.77 407.076,1382.77 409.767,1382.77 414.868,1382.77 419.97,1382.77 422.661,1382.77 
  425.352,1382.77 430.454,1382.77 435.555,1382.77 438.246,1382.77 440.938,1382.77 446.039,1382.77 451.141,1382.77 453.832,1382.77 
  456.523,1382.77 461.625,1382.77 466.726,1382.77 469.417,1382.77 472.108,1382.77 477.21,1382.77 482.311,1382.77 485.003,1382.77 
  487.694,1382.77 492.795,1382.77 497.897,1382.77 500.588,1382.77 503.279,1382.77 508.381,1382.77 513.482,1382.77 516.173,1382.77 
  518.865,1382.77 523.966,1382.77 529.068,1382.77 531.759,1382.77 534.45,1382.77 539.552,1382.77 544.653,1382.77 547.344,1382.77 
  550.035,1382.77 555.137,1382.77 560.238,1382.77 562.93,1382.77 565.621,1382.77 570.722,1382.77 575.824,1382.77 578.515,1382.77 
  581.206,1382.77 586.308,1382.77 591.409,1382.77 594.1,1382.77 596.792,1382.77 601.893,1382.77 606.995,1382.77 609.686,1382.77 
  612.377,1382.77 617.478,1382.77 622.58,1382.77 625.271,1382.77 627.962,1382.77 633.064,1382.77 638.165,1382.77 640.857,1382.77 
  643.548,1382.77 648.649,1382.77 653.751,1382.77 656.442,1382.77 659.133,1382.77 664.235,1382.77 669.336,1382.77 672.027,1382.77 
  674.719,1382.77 679.82,1382.77 684.922,1382.77 687.613,1382.77 690.304,1382.77 695.405,1382.77 700.507,1382.77 703.198,1382.77 
  705.889,1382.77 710.991,1382.77 716.092,1382.77 718.784,1382.77 721.475,1382.77 726.576,1382.77 731.678,1382.77 734.369,1382.77 
  737.06,1382.77 742.162,1382.77 747.263,1382.77 749.954,1382.77 752.645,1382.77 757.747,1382.77 762.849,1382.77 765.54,1382.77 
  768.231,1382.77 773.332,1382.77 778.434,1382.77 781.125,1382.77 783.816,1382.77 788.918,1382.77 794.019,1382.77 796.71,1382.77 
  799.402,1382.77 804.503,1382.77 809.605,1382.77 812.296,1382.77 814.987,1382.77 820.089,1382.77 825.19,1382.77 827.881,1382.77 
  830.572,1382.77 835.674,1382.77 840.775,1382.77 843.467,1382.77 846.158,1382.77 851.259,1382.77 856.361,1382.77 859.052,1382.77 
  861.743,1382.77 866.845,1382.77 871.946,1382.77 874.637,1382.77 877.329,1382.77 882.43,1382.77 887.532,1382.77 890.223,1382.77 
  892.914,1382.77 898.016,1382.77 903.117,1382.77 905.808,1382.77 908.499,1382.77 913.601,1382.77 918.702,1382.77 921.394,1382.77 
  924.085,1382.77 929.186,1382.77 934.288,1382.77 936.979,1382.77 939.67,1382.77 944.772,1382.77 949.873,1382.77 952.564,1382.77 
  955.256,1382.77 960.357,1382.77 965.459,1382.77 968.15,1382.77 970.841,1382.77 975.942,1382.77 981.044,1382.77 983.735,1382.77 
  986.426,1382.77 991.528,1382.77 996.629,1382.77 999.321,1382.77 1002.01,1382.77 1007.11,1382.77 1012.21,1382.77 1014.91,1382.77 
  1017.6,1382.77 1022.7,1382.77 1027.8,1382.77 1030.49,1382.77 1030.49,1382.77 1033.18,1382.77 1038.28,1382.77 1043.39,1382.77 1046.08,1382.77 
  1046.08,1382.77 1048.77,1382.77 1053.87,1382.77 1058.97,1382.77 1061.66,1382.77 1061.66,1382.77 1064.35,1382.77 1069.45,1382.77 1074.56,1382.77 1077.25,1382.77 
  1077.25,1382.77 1079.94,1382.77 1085.04,1382.77 1090.14,1382.77 1092.83,1382.77 1092.83,1382.77 1095.52,1382.77 1100.63,1382.77 1105.73,1382.77 1108.42,1382.77 
  1108.42,1382.77 1111.11,1382.77 1116.21,1382.77 1121.31,1382.77 1124,1382.77 1124,1382.77 1126.69,1382.77 1131.8,1382.77 1136.9,1382.77 1139.59,1382.77 
  1139.59,1382.77 1142.28,1382.77 1147.38,1382.77 1152.48,1382.77 1155.17,1382.77 1155.17,1382.77 1157.87,1382.77 1162.97,1382.77 1168.07,1382.77 1170.76,1382.77 
  1170.76,1382.77 1173.45,1382.77 1178.55,1382.77 1183.65,1382.77 1186.35,1382.77 1186.35,1382.77 1189.04,1382.77 1194.14,1382.77 1199.24,1382.77 1201.93,1382.77 
  1201.93,1382.77 1204.62,1382.77 1209.72,1382.74 1214.82,1382.68 1217.52,1382.64 1217.52,1382.65 1220.21,1382.6 1225.31,1382.56 1230.41,1382.57 1233.1,1382.58 
  1233.1,1382.54 1235.79,1382.62 1240.89,1382.69 1246,1382.46 1248.69,1382.11 1248.69,1381.93 1251.38,1382.26 1256.48,1382.4 1261.58,1382.03 1264.27,1381.69 
  1264.27,1379.06 1266.96,1381.43 1272.06,1382.96 1277.17,1375.65 1279.86,1366.25 1279.86,1364.85 1282.55,1327.3 1287.65,1200.15 1292.75,1004.31 1295.44,875.185 
  1295.44,885.632 1298.13,741.639 1303.24,494.629 1308.34,289.837 1311.03,202.132 1311.03,201.003 1313.72,145.296 1318.82,87.5547 1323.92,86.1857 1326.61,105.641 
  1326.61,100.044 1329.3,124.684 1334.41,162.619 1339.51,186.983 1342.2,193.529 1342.2,194.721 1344.89,192.511 1349.99,183.938 1355.09,171.864 1357.78,164.985 
  1357.78,165.296 1360.48,161.974 1365.58,159.826 1370.68,162.241 1373.37,165.003 1373.37,164.621 1376.06,166.961 1381.16,169.653 1386.26,170.173 1388.96,169.618 
  1388.96,169.799 1391.65,168.85 1396.75,167.479 1401.85,166.756 1404.54,166.672 1404.54,166.614 1407.23,166.882 1412.33,167.383 1417.43,167.791 1420.13,167.934 
  1420.13,167.949 1422.82,167.9 1427.92,167.742 1433.02,167.55 1435.71,167.456 1435.71,167.451 1438.4,167.457 1443.5,167.539 1448.61,167.682 1451.3,167.769 
  1451.3,167.764 1453.99,167.787 1459.09,167.699 1464.19,167.455 1466.88,167.271 1466.88,167.32 1469.57,167.141 1474.67,167.103 1479.78,167.508 1482.47,167.919 
  1482.47,167.748 1485.16,168.41 1490.26,169.178 1495.36,169.069 1498.05,168.564 1498.05,168.905 1500.74,167.437 1505.85,164.685 1510.95,162.535 1513.64,161.87 
  1513.64,161.719 1516.33,162.999 1521.43,168.335 1526.53,176.997 1529.22,182.71 1529.22,181.27 1531.92,186.23 1537.02,185.848 1542.12,171.631 1544.81,158.145 
  1544.81,163.019 1547.5,139.692 1552.6,105.893 1557.7,91.6153 1560.39,94.3186 1560.39,96.8274 1563.09,120.08 1568.19,218.898 1573.29,387.784 1575.98,504.461 
  1575.98,493.685 1578.67,632.717 1583.77,883.534 1588.87,1107.08 1591.57,1209.75 1591.57,1212.63 1594.26,1281.02 1599.36,1360.94 1604.46,1384.24 1607.15,1377.13 
  1607.15,1382.51 1609.84,1376.75 1614.94,1370.01 1620.05,1368.67 1622.74,1370.1 1622.74,1369.54 1625.43,1372.81 1630.53,1378.05 1635.63,1381.62 1638.32,1382.67 
  1638.32,1382.7 1641.01,1382.72 1646.11,1382.59 1651.22,1382.36 1653.91,1382.26 1653.91,1382.26 1656.6,1382.33 1661.7,1382.51 1666.8,1382.68 1669.49,1382.75 
  1669.49,1382.76 1672.18,1382.77 1677.29,1382.77 1682.39,1382.76 1685.08,1382.75 1685.08,1382.76 1687.77,1382.76 1692.87,1382.76 1697.97,1382.77 1700.66,1382.77 
  1700.66,1382.77 1703.35,1382.77 1708.46,1382.77 1713.56,1382.77 1716.25,1382.77 1716.25,1382.77 1718.94,1382.77 1724.04,1382.77 1729.14,1382.77 1731.83,1382.77 
  1731.83,1382.77 1734.53,1382.77 1739.63,1382.77 1744.73,1382.77 1747.42,1382.77 1747.42,1382.77 1750.11,1382.77 1755.21,1382.77 1760.31,1382.77 1763,1382.77 
  1763,1382.77 1765.7,1382.77 1770.8,1382.77 1775.9,1382.77 1778.59,1382.77 1778.59,1382.77 1781.28,1382.77 1786.38,1382.77 1791.48,1382.77 1794.18,1382.77 
  1794.18,1382.77 1796.87,1382.77 1801.97,1382.77 1807.07,1382.77 1809.76,1382.77 1809.76,1382.77 1812.45,1382.77 1817.55,1382.77 1822.66,1382.77 1825.35,1382.77 
  1825.35,1382.77 1828.04,1382.77 1833.14,1382.77 1838.24,1382.77 1840.93,1382.77 1840.93,1382.77 1843.62,1382.77 1848.72,1382.77 1853.83,1382.77 1856.52,1382.77 
  1856.52,1382.77 1859.21,1382.77 1864.31,1382.77 1869.41,1382.77 1872.1,1382.77 1872.1,1382.77 1874.79,1382.77 1879.9,1382.77 1885,1382.77 1887.69,1382.77 
  1890.38,1382.77 1895.48,1382.77 1900.58,1382.77 1903.27,1382.77 1905.96,1382.77 1911.07,1382.77 1916.17,1382.77 1918.86,1382.77 
  1921.55,1382.77 1926.65,1382.77 1931.75,1382.77 1934.44,1382.77 1937.14,1382.77 1942.24,1382.77 1947.34,1382.77 1950.03,1382.77 
  1952.72,1382.77 1957.82,1382.77 1962.92,1382.77 1965.61,1382.77 1968.31,1382.77 1973.41,1382.77 1978.51,1382.77 1981.2,1382.77 
  1983.89,1382.77 1988.99,1382.77 1994.09,1382.77 1996.79,1382.77 1999.48,1382.77 2004.58,1382.77 2009.68,1382.77 2012.37,1382.77 
  2015.06,1382.77 2020.16,1382.77 2025.27,1382.77 2027.96,1382.77 2030.65,1382.77 2035.75,1382.77 2040.85,1382.77 2043.54,1382.77 
  2046.23,1382.77 2051.33,1382.77 2056.44,1382.77 2059.13,1382.77 2061.82,1382.77 2066.92,1382.77 2072.02,1382.77 2074.71,1382.77 
  2077.4,1382.77 2082.51,1382.77 2087.61,1382.77 2090.3,1382.77 2092.99,1382.77 2098.09,1382.77 2103.19,1382.77 2105.88,1382.77 
  2108.57,1382.77 2113.68,1382.77 2118.78,1382.77 2121.47,1382.77 2124.16,1382.77 2129.26,1382.77 2134.36,1382.77 2137.05,1382.77 
  2139.75,1382.77 2144.85,1382.77 2149.95,1382.77 2152.64,1382.77 2155.33,1382.77 2160.43,1382.77 2165.53,1382.77 2168.22,1382.77 
  2170.92,1382.77 2176.02,1382.77 2181.12,1382.77 2183.81,1382.77 2186.5,1382.77 2191.6,1382.77 2196.7,1382.77 2199.4,1382.77 
  2202.09,1382.77 2207.19,1382.77 2212.29,1382.77 2214.98,1382.77 2217.67,1382.77 2222.77,1382.77 2227.88,1382.77 2230.57,1382.77 
  2233.26,1382.77 2238.36,1382.77 2243.46,1382.77 2246.15,1382.77 2248.84,1382.77 2253.94,1382.77 2259.05,1382.77 2261.74,1382.77 
  2264.43,1382.77 2269.53,1382.77 2274.63,1382.77 2277.32,1382.77 2280.01,1382.77 2285.12,1382.77 2290.22,1382.77 2292.91,1382.77 
  
  "/>
<path clip-path="url(#clip960)" d="
M1802.38 274.549 L2282.27 274.549 L2282.27 93.1086 L1802.38 93.1086  Z
  " fill="#ffffff" fill-rule="evenodd" fill-opacity="1"/>
<polyline clip-path="url(#clip960)" style="stroke:#000000; stroke-width:4; stroke-opacity:1; fill:none" points="
  1802.38,274.549 2282.27,274.549 2282.27,93.1086 1802.38,93.1086 1802.38,274.549 
  "/>
<polyline clip-path="url(#clip960)" style="stroke:#009af9; stroke-width:4; stroke-opacity:1; fill:none" points="
  1825.88,153.589 1966.85,153.589 
  "/>
<path clip-path="url(#clip960)" d="M 0 0 M1994.75 157.929 Q1994.75 162.628 1996.67 165.313 Q1998.61 167.975 2001.99 167.975 Q2005.37 167.975 2007.31 165.313 Q2009.26 162.628 2009.26 157.929 Q2009.26 153.23 2007.31 150.568 Q2005.37 147.883 2001.99 147.883 Q1998.61 147.883 1996.67 150.568 Q1994.75 153.23 1994.75 157.929 M2009.26 166.98 Q2007.92 169.295 2005.86 170.429 Q2003.82 171.54 2000.95 171.54 Q1996.25 171.54 1993.29 167.79 Q1990.35 164.04 1990.35 157.929 Q1990.35 151.818 1993.29 148.068 Q1996.25 144.318 2000.95 144.318 Q2003.82 144.318 2005.86 145.452 Q2007.92 146.563 2009.26 148.878 L2009.26 144.943 L2013.52 144.943 L2013.52 180.73 L2009.26 180.73 L2009.26 166.98 Z" fill="#000000" fill-rule="evenodd" fill-opacity="1" /><path clip-path="url(#clip960)" d="M 0 0 M2019.07 164.989 L2023.96 164.989 L2023.96 168.97 L2020.16 176.378 L2017.18 176.378 L2019.07 168.97 L2019.07 164.989 Z" fill="#000000" fill-rule="evenodd" fill-opacity="1" /><path clip-path="url(#clip960)" d="M 0 0 M2047.71 137.582 L2047.71 144.943 L2056.48 144.943 L2056.48 148.253 L2047.71 148.253 L2047.71 162.327 Q2047.71 165.498 2048.56 166.401 Q2049.44 167.304 2052.11 167.304 L2056.48 167.304 L2056.48 170.869 L2052.11 170.869 Q2047.18 170.869 2045.3 169.04 Q2043.43 167.188 2043.43 162.327 L2043.43 148.253 L2040.3 148.253 L2040.3 144.943 L2043.43 144.943 L2043.43 137.582 L2047.71 137.582 Z" fill="#000000" fill-rule="evenodd" fill-opacity="1" /><path clip-path="url(#clip960)" d="M 0 0 M2061.5 149.341 L2091.18 149.341 L2091.18 153.23 L2061.5 153.23 L2061.5 149.341 M2061.5 158.785 L2091.18 158.785 L2091.18 162.721 L2061.5 162.721 L2061.5 158.785 Z" fill="#000000" fill-rule="evenodd" fill-opacity="1" /><path clip-path="url(#clip960)" d="M 0 0 M2106.25 139.387 Q2102.64 139.387 2100.81 142.952 Q2099 146.494 2099 153.623 Q2099 160.73 2100.81 164.295 Q2102.64 167.836 2106.25 167.836 Q2109.88 167.836 2111.69 164.295 Q2113.52 160.73 2113.52 153.623 Q2113.52 146.494 2111.69 142.952 Q2109.88 139.387 2106.25 139.387 M2106.25 135.684 Q2112.06 135.684 2115.12 140.29 Q2118.19 144.873 2118.19 153.623 Q2118.19 162.35 2115.12 166.957 Q2112.06 171.54 2106.25 171.54 Q2100.44 171.54 2097.36 166.957 Q2094.31 162.35 2094.31 153.623 Q2094.31 144.873 2097.36 140.29 Q2100.44 135.684 2106.25 135.684 Z" fill="#000000" fill-rule="evenodd" fill-opacity="1" /><path clip-path="url(#clip960)" d="M 0 0 M2123.26 164.989 L2128.15 164.989 L2128.15 170.869 L2123.26 170.869 L2123.26 164.989 Z" fill="#000000" fill-rule="evenodd" fill-opacity="1" /><path clip-path="url(#clip960)" d="M 0 0 M2143.22 139.387 Q2139.61 139.387 2137.78 142.952 Q2135.97 146.494 2135.97 153.623 Q2135.97 160.73 2137.78 164.295 Q2139.61 167.836 2143.22 167.836 Q2146.85 167.836 2148.66 164.295 Q2150.49 160.73 2150.49 153.623 Q2150.49 146.494 2148.66 142.952 Q2146.85 139.387 2143.22 139.387 M2143.22 135.684 Q2149.03 135.684 2152.08 140.29 Q2155.16 144.873 2155.16 153.623 Q2155.16 162.35 2152.08 166.957 Q2149.03 171.54 2143.22 171.54 Q2137.41 171.54 2134.33 166.957 Q2131.27 162.35 2131.27 153.623 Q2131.27 144.873 2134.33 140.29 Q2137.41 135.684 2143.22 135.684 Z" fill="#000000" fill-rule="evenodd" fill-opacity="1" /><polyline clip-path="url(#clip960)" style="stroke:#e26f46; stroke-width:4; stroke-opacity:1; fill:none" points="
  1825.88,214.069 1966.85,214.069 
  "/>
<path clip-path="url(#clip960)" d="M 0 0 M1994.75 218.409 Q1994.75 223.108 1996.67 225.793 Q1998.61 228.455 2001.99 228.455 Q2005.37 228.455 2007.31 225.793 Q2009.26 223.108 2009.26 218.409 Q2009.26 213.71 2007.31 211.048 Q2005.37 208.363 2001.99 208.363 Q1998.61 208.363 1996.67 211.048 Q1994.75 213.71 1994.75 218.409 M2009.26 227.46 Q2007.92 229.775 2005.86 230.909 Q2003.82 232.02 2000.95 232.02 Q1996.25 232.02 1993.29 228.27 Q1990.35 224.52 1990.35 218.409 Q1990.35 212.298 1993.29 208.548 Q1996.25 204.798 2000.95 204.798 Q2003.82 204.798 2005.86 205.932 Q2007.92 207.043 2009.26 209.358 L2009.26 205.423 L2013.52 205.423 L2013.52 241.21 L2009.26 241.21 L2009.26 227.46 Z" fill="#000000" fill-rule="evenodd" fill-opacity="1" /><path clip-path="url(#clip960)" d="M 0 0 M2019.07 225.469 L2023.96 225.469 L2023.96 229.45 L2020.16 236.858 L2017.18 236.858 L2019.07 229.45 L2019.07 225.469 Z" fill="#000000" fill-rule="evenodd" fill-opacity="1" /><path clip-path="url(#clip960)" d="M 0 0 M2047.71 198.062 L2047.71 205.423 L2056.48 205.423 L2056.48 208.733 L2047.71 208.733 L2047.71 222.807 Q2047.71 225.978 2048.56 226.881 Q2049.44 227.784 2052.11 227.784 L2056.48 227.784 L2056.48 231.349 L2052.11 231.349 Q2047.18 231.349 2045.3 229.52 Q2043.43 227.668 2043.43 222.807 L2043.43 208.733 L2040.3 208.733 L2040.3 205.423 L2043.43 205.423 L2043.43 198.062 L2047.71 198.062 Z" fill="#000000" fill-rule="evenodd" fill-opacity="1" /><path clip-path="url(#clip960)" d="M 0 0 M2061.5 209.821 L2091.18 209.821 L2091.18 213.71 L2061.5 213.71 L2061.5 209.821 M2061.5 219.265 L2091.18 219.265 L2091.18 223.201 L2061.5 223.201 L2061.5 219.265 Z" fill="#000000" fill-rule="evenodd" fill-opacity="1" /><path clip-path="url(#clip960)" d="M 0 0 M2109.1 200.863 L2097.29 219.312 L2109.1 219.312 L2109.1 200.863 M2107.87 196.789 L2113.75 196.789 L2113.75 219.312 L2118.68 219.312 L2118.68 223.201 L2113.75 223.201 L2113.75 231.349 L2109.1 231.349 L2109.1 223.201 L2093.5 223.201 L2093.5 218.687 L2107.87 196.789 Z" fill="#000000" fill-rule="evenodd" fill-opacity="1" /><path clip-path="url(#clip960)" d="M 0 0 M2123.8 196.789 L2142.15 196.789 L2142.15 200.724 L2128.08 200.724 L2128.08 209.196 Q2129.1 208.849 2130.12 208.687 Q2131.13 208.502 2132.15 208.502 Q2137.94 208.502 2141.32 211.673 Q2144.7 214.844 2144.7 220.261 Q2144.7 225.839 2141.23 228.941 Q2137.75 232.02 2131.43 232.02 Q2129.26 232.02 2126.99 231.65 Q2124.74 231.279 2122.34 230.538 L2122.34 225.839 Q2124.42 226.974 2126.64 227.529 Q2128.87 228.085 2131.34 228.085 Q2135.35 228.085 2137.68 225.978 Q2140.02 223.872 2140.02 220.261 Q2140.02 216.65 2137.68 214.543 Q2135.35 212.437 2131.34 212.437 Q2129.47 212.437 2127.59 212.853 Q2125.74 213.27 2123.8 214.15 L2123.8 196.789 Z" fill="#000000" fill-rule="evenodd" fill-opacity="1" /><path clip-path="url(#clip960)" d="M 0 0 M2159.77 199.867 Q2156.16 199.867 2154.33 203.432 Q2152.52 206.974 2152.52 214.103 Q2152.52 221.21 2154.33 224.775 Q2156.16 228.316 2159.77 228.316 Q2163.4 228.316 2165.21 224.775 Q2167.04 221.21 2167.04 214.103 Q2167.04 206.974 2165.21 203.432 Q2163.4 199.867 2159.77 199.867 M2159.77 196.164 Q2165.58 196.164 2168.63 200.77 Q2171.71 205.353 2171.71 214.103 Q2171.71 222.83 2168.63 227.437 Q2165.58 232.02 2159.77 232.02 Q2153.96 232.02 2150.88 227.437 Q2147.82 222.83 2147.82 214.103 Q2147.82 205.353 2150.88 200.77 Q2153.96 196.164 2159.77 196.164 Z" fill="#000000" fill-rule="evenodd" fill-opacity="1" /><path clip-path="url(#clip960)" d="M 0 0 M2176.78 225.469 L2181.67 225.469 L2181.67 231.349 L2176.78 231.349 L2176.78 225.469 Z" fill="#000000" fill-rule="evenodd" fill-opacity="1" /><path clip-path="url(#clip960)" d="M 0 0 M2199.58 200.863 L2187.78 219.312 L2199.58 219.312 L2199.58 200.863 M2198.36 196.789 L2204.24 196.789 L2204.24 219.312 L2209.17 219.312 L2209.17 223.201 L2204.24 223.201 L2204.24 231.349 L2199.58 231.349 L2199.58 223.201 L2183.98 223.201 L2183.98 218.687 L2198.36 196.789 Z" fill="#000000" fill-rule="evenodd" fill-opacity="1" /><path clip-path="url(#clip960)" d="M 0 0 M2213.05 196.789 L2235.28 196.789 L2235.28 198.779 L2222.73 231.349 L2217.85 231.349 L2229.65 200.724 L2213.05 200.724 L2213.05 196.789 Z" fill="#000000" fill-rule="evenodd" fill-opacity="1" /></svg>
