<?xml version="1.0" encoding="utf-8"?>
<svg xmlns="http://www.w3.org/2000/svg" xmlns:xlink="http://www.w3.org/1999/xlink" width="600" height="400" viewBox="0 0 2400 1600">
<defs>
  <clipPath id="clip870">
    <rect x="0" y="0" width="2400" height="1600"/>
  </clipPath>
</defs>
<path clip-path="url(#clip870)" d="
M0 1600 L2400 1600 L2400 0 L0 0  Z
  " fill="#ffffff" fill-rule="evenodd" fill-opacity="1"/>
<defs>
  <clipPath id="clip871">
    <rect x="480" y="0" width="1681" height="1600"/>
  </clipPath>
</defs>
<path clip-path="url(#clip870)" d="
M238.13 1423.18 L2352.76 1423.18 L2352.76 47.2441 L238.13 47.2441  Z
  " fill="#ffffff" fill-rule="evenodd" fill-opacity="1"/>
<defs>
  <clipPath id="clip872">
    <rect x="238" y="47" width="2116" height="1377"/>
  </clipPath>
</defs>
<polyline clip-path="url(#clip872)" style="stroke:#000000; stroke-width:2; stroke-opacity:0.1; fill:none" points="
  297.978,1423.18 297.978,47.2441 
  "/>
<polyline clip-path="url(#clip872)" style="stroke:#000000; stroke-width:2; stroke-opacity:0.1; fill:none" points="
  867.958,1423.18 867.958,47.2441 
  "/>
<polyline clip-path="url(#clip872)" style="stroke:#000000; stroke-width:2; stroke-opacity:0.1; fill:none" points="
  1437.94,1423.18 1437.94,47.2441 
  "/>
<polyline clip-path="url(#clip872)" style="stroke:#000000; stroke-width:2; stroke-opacity:0.1; fill:none" points="
  2007.92,1423.18 2007.92,47.2441 
  "/>
<polyline clip-path="url(#clip872)" style="stroke:#000000; stroke-width:2; stroke-opacity:0.1; fill:none" points="
  238.13,1316.66 2352.76,1316.66 
  "/>
<polyline clip-path="url(#clip872)" style="stroke:#000000; stroke-width:2; stroke-opacity:0.1; fill:none" points="
  238.13,1025.64 2352.76,1025.64 
  "/>
<polyline clip-path="url(#clip872)" style="stroke:#000000; stroke-width:2; stroke-opacity:0.1; fill:none" points="
  238.13,734.614 2352.76,734.614 
  "/>
<polyline clip-path="url(#clip872)" style="stroke:#000000; stroke-width:2; stroke-opacity:0.1; fill:none" points="
  238.13,443.591 2352.76,443.591 
  "/>
<polyline clip-path="url(#clip872)" style="stroke:#000000; stroke-width:2; stroke-opacity:0.1; fill:none" points="
  238.13,152.568 2352.76,152.568 
  "/>
<polyline clip-path="url(#clip870)" style="stroke:#000000; stroke-width:4; stroke-opacity:1; fill:none" points="
  238.13,1423.18 2352.76,1423.18 
  "/>
<polyline clip-path="url(#clip870)" style="stroke:#000000; stroke-width:4; stroke-opacity:1; fill:none" points="
  238.13,1423.18 238.13,47.2441 
  "/>
<polyline clip-path="url(#clip870)" style="stroke:#000000; stroke-width:4; stroke-opacity:1; fill:none" points="
  297.978,1423.18 297.978,1406.67 
  "/>
<polyline clip-path="url(#clip870)" style="stroke:#000000; stroke-width:4; stroke-opacity:1; fill:none" points="
  867.958,1423.18 867.958,1406.67 
  "/>
<polyline clip-path="url(#clip870)" style="stroke:#000000; stroke-width:4; stroke-opacity:1; fill:none" points="
  1437.94,1423.18 1437.94,1406.67 
  "/>
<polyline clip-path="url(#clip870)" style="stroke:#000000; stroke-width:4; stroke-opacity:1; fill:none" points="
  2007.92,1423.18 2007.92,1406.67 
  "/>
<polyline clip-path="url(#clip870)" style="stroke:#000000; stroke-width:4; stroke-opacity:1; fill:none" points="
  238.13,1316.66 263.506,1316.66 
  "/>
<polyline clip-path="url(#clip870)" style="stroke:#000000; stroke-width:4; stroke-opacity:1; fill:none" points="
  238.13,1025.64 263.506,1025.64 
  "/>
<polyline clip-path="url(#clip870)" style="stroke:#000000; stroke-width:4; stroke-opacity:1; fill:none" points="
  238.13,734.614 263.506,734.614 
  "/>
<polyline clip-path="url(#clip870)" style="stroke:#000000; stroke-width:4; stroke-opacity:1; fill:none" points="
  238.13,443.591 263.506,443.591 
  "/>
<polyline clip-path="url(#clip870)" style="stroke:#000000; stroke-width:4; stroke-opacity:1; fill:none" points="
  238.13,152.568 263.506,152.568 
  "/>
<path clip-path="url(#clip870)" d="M 0 0 M297.978 1445.17 Q294.367 1445.17 292.538 1448.74 Q290.733 1452.28 290.733 1459.41 Q290.733 1466.51 292.538 1470.08 Q294.367 1473.62 297.978 1473.62 Q301.612 1473.62 303.418 1470.08 Q305.246 1466.51 305.246 1459.41 Q305.246 1452.28 303.418 1448.74 Q301.612 1445.17 297.978 1445.17 M297.978 1441.47 Q303.788 1441.47 306.844 1446.07 Q309.922 1450.66 309.922 1459.41 Q309.922 1468.13 306.844 1472.74 Q303.788 1477.32 297.978 1477.32 Q292.168 1477.32 289.089 1472.74 Q286.034 1468.13 286.034 1459.41 Q286.034 1450.66 289.089 1446.07 Q292.168 1441.47 297.978 1441.47 Z" fill="#000000" fill-rule="evenodd" fill-opacity="1" /><path clip-path="url(#clip870)" d="M 0 0 M831.326 1472.72 L838.965 1472.72 L838.965 1446.35 L830.655 1448.02 L830.655 1443.76 L838.919 1442.09 L843.595 1442.09 L843.595 1472.72 L851.234 1472.72 L851.234 1476.65 L831.326 1476.65 L831.326 1472.72 Z" fill="#000000" fill-rule="evenodd" fill-opacity="1" /><path clip-path="url(#clip870)" d="M 0 0 M866.303 1445.17 Q862.692 1445.17 860.863 1448.74 Q859.058 1452.28 859.058 1459.41 Q859.058 1466.51 860.863 1470.08 Q862.692 1473.62 866.303 1473.62 Q869.937 1473.62 871.743 1470.08 Q873.571 1466.51 873.571 1459.41 Q873.571 1452.28 871.743 1448.74 Q869.937 1445.17 866.303 1445.17 M866.303 1441.47 Q872.113 1441.47 875.169 1446.07 Q878.247 1450.66 878.247 1459.41 Q878.247 1468.13 875.169 1472.74 Q872.113 1477.32 866.303 1477.32 Q860.493 1477.32 857.414 1472.74 Q854.359 1468.13 854.359 1459.41 Q854.359 1450.66 857.414 1446.07 Q860.493 1441.47 866.303 1441.47 Z" fill="#000000" fill-rule="evenodd" fill-opacity="1" /><path clip-path="url(#clip870)" d="M 0 0 M893.317 1445.17 Q889.706 1445.17 887.877 1448.74 Q886.071 1452.28 886.071 1459.41 Q886.071 1466.51 887.877 1470.08 Q889.706 1473.62 893.317 1473.62 Q896.951 1473.62 898.756 1470.08 Q900.585 1466.51 900.585 1459.41 Q900.585 1452.28 898.756 1448.74 Q896.951 1445.17 893.317 1445.17 M893.317 1441.47 Q899.127 1441.47 902.182 1446.07 Q905.261 1450.66 905.261 1459.41 Q905.261 1468.13 902.182 1472.74 Q899.127 1477.32 893.317 1477.32 Q887.506 1477.32 884.428 1472.74 Q881.372 1468.13 881.372 1459.41 Q881.372 1450.66 884.428 1446.07 Q887.506 1441.47 893.317 1441.47 Z" fill="#000000" fill-rule="evenodd" fill-opacity="1" /><path clip-path="url(#clip870)" d="M 0 0 M1405.58 1472.72 L1421.9 1472.72 L1421.9 1476.65 L1399.95 1476.65 L1399.95 1472.72 Q1402.61 1469.96 1407.2 1465.33 Q1411.8 1460.68 1412.98 1459.34 Q1415.23 1456.81 1416.11 1455.08 Q1417.01 1453.32 1417.01 1451.63 Q1417.01 1448.87 1415.07 1447.14 Q1413.15 1445.4 1410.04 1445.4 Q1407.85 1445.4 1405.39 1446.17 Q1402.96 1446.93 1400.18 1448.48 L1400.18 1443.76 Q1403.01 1442.62 1405.46 1442.05 Q1407.91 1441.47 1409.95 1441.47 Q1415.32 1441.47 1418.52 1444.15 Q1421.71 1446.84 1421.71 1451.33 Q1421.71 1453.46 1420.9 1455.38 Q1420.11 1457.28 1418.01 1459.87 Q1417.43 1460.54 1414.33 1463.76 Q1411.23 1466.95 1405.58 1472.72 Z" fill="#000000" fill-rule="evenodd" fill-opacity="1" /><path clip-path="url(#clip870)" d="M 0 0 M1436.97 1445.17 Q1433.35 1445.17 1431.53 1448.74 Q1429.72 1452.28 1429.72 1459.41 Q1429.72 1466.51 1431.53 1470.08 Q1433.35 1473.62 1436.97 1473.62 Q1440.6 1473.62 1442.41 1470.08 Q1444.23 1466.51 1444.23 1459.41 Q1444.23 1452.28 1442.41 1448.74 Q1440.6 1445.17 1436.97 1445.17 M1436.97 1441.47 Q1442.78 1441.47 1445.83 1446.07 Q1448.91 1450.66 1448.91 1459.41 Q1448.91 1468.13 1445.83 1472.74 Q1442.78 1477.32 1436.97 1477.32 Q1431.16 1477.32 1428.08 1472.74 Q1425.02 1468.13 1425.02 1459.41 Q1425.02 1450.66 1428.08 1446.07 Q1431.16 1441.47 1436.97 1441.47 Z" fill="#000000" fill-rule="evenodd" fill-opacity="1" /><path clip-path="url(#clip870)" d="M 0 0 M1463.98 1445.17 Q1460.37 1445.17 1458.54 1448.74 Q1456.73 1452.28 1456.73 1459.41 Q1456.73 1466.51 1458.54 1470.08 Q1460.37 1473.62 1463.98 1473.62 Q1467.61 1473.62 1469.42 1470.08 Q1471.25 1466.51 1471.25 1459.41 Q1471.25 1452.28 1469.42 1448.74 Q1467.61 1445.17 1463.98 1445.17 M1463.98 1441.47 Q1469.79 1441.47 1472.85 1446.07 Q1475.92 1450.66 1475.92 1459.41 Q1475.92 1468.13 1472.85 1472.74 Q1469.79 1477.32 1463.98 1477.32 Q1458.17 1477.32 1455.09 1472.74 Q1452.04 1468.13 1452.04 1459.41 Q1452.04 1450.66 1455.09 1446.07 Q1458.17 1441.47 1463.98 1441.47 Z" fill="#000000" fill-rule="evenodd" fill-opacity="1" /><path clip-path="url(#clip870)" d="M 0 0 M1985.15 1458.02 Q1988.51 1458.74 1990.38 1461 Q1992.28 1463.27 1992.28 1466.61 Q1992.28 1471.72 1988.76 1474.52 Q1985.24 1477.32 1978.76 1477.32 Q1976.59 1477.32 1974.27 1476.88 Q1971.98 1476.47 1969.53 1475.61 L1969.53 1471.1 Q1971.47 1472.23 1973.79 1472.81 Q1976.1 1473.39 1978.62 1473.39 Q1983.02 1473.39 1985.31 1471.65 Q1987.63 1469.92 1987.63 1466.61 Q1987.63 1463.55 1985.48 1461.84 Q1983.35 1460.1 1979.53 1460.1 L1975.5 1460.1 L1975.5 1456.26 L1979.71 1456.26 Q1983.16 1456.26 1984.99 1454.89 Q1986.82 1453.5 1986.82 1450.91 Q1986.82 1448.25 1984.92 1446.84 Q1983.05 1445.4 1979.53 1445.4 Q1977.61 1445.4 1975.41 1445.82 Q1973.21 1446.24 1970.57 1447.11 L1970.57 1442.95 Q1973.23 1442.21 1975.55 1441.84 Q1977.88 1441.47 1979.94 1441.47 Q1985.27 1441.47 1988.37 1443.9 Q1991.47 1446.3 1991.47 1450.43 Q1991.47 1453.3 1989.83 1455.29 Q1988.18 1457.25 1985.15 1458.02 Z" fill="#000000" fill-rule="evenodd" fill-opacity="1" /><path clip-path="url(#clip870)" d="M 0 0 M2007.35 1445.17 Q2003.74 1445.17 2001.91 1448.74 Q2000.11 1452.28 2000.11 1459.41 Q2000.11 1466.51 2001.91 1470.08 Q2003.74 1473.62 2007.35 1473.62 Q2010.99 1473.62 2012.79 1470.08 Q2014.62 1466.51 2014.62 1459.41 Q2014.62 1452.28 2012.79 1448.74 Q2010.99 1445.17 2007.35 1445.17 M2007.35 1441.47 Q2013.16 1441.47 2016.22 1446.07 Q2019.3 1450.66 2019.3 1459.41 Q2019.3 1468.13 2016.22 1472.74 Q2013.16 1477.32 2007.35 1477.32 Q2001.54 1477.32 1998.46 1472.74 Q1995.41 1468.13 1995.41 1459.41 Q1995.41 1450.66 1998.46 1446.07 Q2001.54 1441.47 2007.35 1441.47 Z" fill="#000000" fill-rule="evenodd" fill-opacity="1" /><path clip-path="url(#clip870)" d="M 0 0 M2034.36 1445.17 Q2030.75 1445.17 2028.92 1448.74 Q2027.12 1452.28 2027.12 1459.41 Q2027.12 1466.51 2028.92 1470.08 Q2030.75 1473.62 2034.36 1473.62 Q2038 1473.62 2039.8 1470.08 Q2041.63 1466.51 2041.63 1459.41 Q2041.63 1452.28 2039.8 1448.74 Q2038 1445.17 2034.36 1445.17 M2034.36 1441.47 Q2040.17 1441.47 2043.23 1446.07 Q2046.31 1450.66 2046.31 1459.41 Q2046.31 1468.13 2043.23 1472.74 Q2040.17 1477.32 2034.36 1477.32 Q2028.55 1477.32 2025.48 1472.74 Q2022.42 1468.13 2022.42 1459.41 Q2022.42 1450.66 2025.48 1446.07 Q2028.55 1441.47 2034.36 1441.47 Z" fill="#000000" fill-rule="evenodd" fill-opacity="1" /><path clip-path="url(#clip870)" d="M 0 0 M138.205 1302.46 Q134.593 1302.46 132.765 1306.02 Q130.959 1309.57 130.959 1316.69 Q130.959 1323.8 132.765 1327.37 Q134.593 1330.91 138.205 1330.91 Q141.839 1330.91 143.644 1327.37 Q145.473 1323.8 145.473 1316.69 Q145.473 1309.57 143.644 1306.02 Q141.839 1302.46 138.205 1302.46 M138.205 1298.76 Q144.015 1298.76 147.07 1303.36 Q150.149 1307.94 150.149 1316.69 Q150.149 1325.42 147.07 1330.03 Q144.015 1334.61 138.205 1334.61 Q132.394 1334.61 129.316 1330.03 Q126.26 1325.42 126.26 1316.69 Q126.26 1307.94 129.316 1303.36 Q132.394 1298.76 138.205 1298.76 Z" fill="#000000" fill-rule="evenodd" fill-opacity="1" /><path clip-path="url(#clip870)" d="M 0 0 M155.218 1328.06 L160.103 1328.06 L160.103 1333.94 L155.218 1333.94 L155.218 1328.06 Z" fill="#000000" fill-rule="evenodd" fill-opacity="1" /><path clip-path="url(#clip870)" d="M 0 0 M175.172 1302.46 Q171.561 1302.46 169.732 1306.02 Q167.927 1309.57 167.927 1316.69 Q167.927 1323.8 169.732 1327.37 Q171.561 1330.91 175.172 1330.91 Q178.806 1330.91 180.612 1327.37 Q182.44 1323.8 182.44 1316.69 Q182.44 1309.57 180.612 1306.02 Q178.806 1302.46 175.172 1302.46 M175.172 1298.76 Q180.982 1298.76 184.038 1303.36 Q187.116 1307.94 187.116 1316.69 Q187.116 1325.42 184.038 1330.03 Q180.982 1334.61 175.172 1334.61 Q169.362 1334.61 166.283 1330.03 Q163.228 1325.42 163.228 1316.69 Q163.228 1307.94 166.283 1303.36 Q169.362 1298.76 175.172 1298.76 Z" fill="#000000" fill-rule="evenodd" fill-opacity="1" /><path clip-path="url(#clip870)" d="M 0 0 M202.186 1302.46 Q198.575 1302.46 196.746 1306.02 Q194.94 1309.57 194.94 1316.69 Q194.94 1323.8 196.746 1327.37 Q198.575 1330.91 202.186 1330.91 Q205.82 1330.91 207.625 1327.37 Q209.454 1323.8 209.454 1316.69 Q209.454 1309.57 207.625 1306.02 Q205.82 1302.46 202.186 1302.46 M202.186 1298.76 Q207.996 1298.76 211.051 1303.36 Q214.13 1307.94 214.13 1316.69 Q214.13 1325.42 211.051 1330.03 Q207.996 1334.61 202.186 1334.61 Q196.376 1334.61 193.297 1330.03 Q190.241 1325.42 190.241 1316.69 Q190.241 1307.94 193.297 1303.36 Q196.376 1298.76 202.186 1298.76 Z" fill="#000000" fill-rule="evenodd" fill-opacity="1" /><path clip-path="url(#clip870)" d="M 0 0 M140.797 1011.44 Q137.186 1011.44 135.357 1015 Q133.552 1018.54 133.552 1025.67 Q133.552 1032.78 135.357 1036.34 Q137.186 1039.88 140.797 1039.88 Q144.431 1039.88 146.237 1036.34 Q148.066 1032.78 148.066 1025.67 Q148.066 1018.54 146.237 1015 Q144.431 1011.44 140.797 1011.44 M140.797 1007.73 Q146.607 1007.73 149.663 1012.34 Q152.741 1016.92 152.741 1025.67 Q152.741 1034.4 149.663 1039.01 Q146.607 1043.59 140.797 1043.59 Q134.987 1043.59 131.908 1039.01 Q128.853 1034.4 128.853 1025.67 Q128.853 1016.92 131.908 1012.34 Q134.987 1007.73 140.797 1007.73 Z" fill="#000000" fill-rule="evenodd" fill-opacity="1" /><path clip-path="url(#clip870)" d="M 0 0 M157.811 1037.04 L162.695 1037.04 L162.695 1042.92 L157.811 1042.92 L157.811 1037.04 Z" fill="#000000" fill-rule="evenodd" fill-opacity="1" /><path clip-path="url(#clip870)" d="M 0 0 M171.792 1038.98 L188.112 1038.98 L188.112 1042.92 L166.167 1042.92 L166.167 1038.98 Q168.829 1036.23 173.413 1031.6 Q178.019 1026.95 179.2 1025.6 Q181.445 1023.08 182.325 1021.34 Q183.227 1019.58 183.227 1017.89 Q183.227 1015.14 181.283 1013.4 Q179.362 1011.67 176.26 1011.67 Q174.061 1011.67 171.607 1012.43 Q169.177 1013.2 166.399 1014.75 L166.399 1010.02 Q169.223 1008.89 171.677 1008.31 Q174.13 1007.73 176.167 1007.73 Q181.538 1007.73 184.732 1010.42 Q187.926 1013.1 187.926 1017.59 Q187.926 1019.72 187.116 1021.64 Q186.329 1023.54 184.223 1026.13 Q183.644 1026.81 180.542 1030.02 Q177.44 1033.22 171.792 1038.98 Z" fill="#000000" fill-rule="evenodd" fill-opacity="1" /><path clip-path="url(#clip870)" d="M 0 0 M193.227 1008.36 L211.584 1008.36 L211.584 1012.29 L197.51 1012.29 L197.51 1020.76 Q198.528 1020.42 199.547 1020.26 Q200.565 1020.07 201.584 1020.07 Q207.371 1020.07 210.75 1023.24 Q214.13 1026.41 214.13 1031.83 Q214.13 1037.41 210.658 1040.51 Q207.186 1043.59 200.866 1043.59 Q198.69 1043.59 196.422 1043.22 Q194.176 1042.85 191.769 1042.11 L191.769 1037.41 Q193.852 1038.54 196.075 1039.1 Q198.297 1039.65 200.774 1039.65 Q204.778 1039.65 207.116 1037.55 Q209.454 1035.44 209.454 1031.83 Q209.454 1028.22 207.116 1026.11 Q204.778 1024.01 200.774 1024.01 Q198.899 1024.01 197.024 1024.42 Q195.172 1024.84 193.227 1025.72 L193.227 1008.36 Z" fill="#000000" fill-rule="evenodd" fill-opacity="1" /><path clip-path="url(#clip870)" d="M 0 0 M139.2 720.413 Q135.589 720.413 133.76 723.978 Q131.955 727.519 131.955 734.649 Q131.955 741.755 133.76 745.32 Q135.589 748.862 139.2 748.862 Q142.834 748.862 144.64 745.32 Q146.468 741.755 146.468 734.649 Q146.468 727.519 144.64 723.978 Q142.834 720.413 139.2 720.413 M139.2 716.709 Q145.01 716.709 148.066 721.316 Q151.144 725.899 151.144 734.649 Q151.144 743.376 148.066 747.982 Q145.01 752.566 139.2 752.566 Q133.39 752.566 130.311 747.982 Q127.256 743.376 127.256 734.649 Q127.256 725.899 130.311 721.316 Q133.39 716.709 139.2 716.709 Z" fill="#000000" fill-rule="evenodd" fill-opacity="1" /><path clip-path="url(#clip870)" d="M 0 0 M156.214 746.015 L161.098 746.015 L161.098 751.894 L156.214 751.894 L156.214 746.015 Z" fill="#000000" fill-rule="evenodd" fill-opacity="1" /><path clip-path="url(#clip870)" d="M 0 0 M166.214 717.334 L184.57 717.334 L184.57 721.269 L170.496 721.269 L170.496 729.742 Q171.515 729.394 172.533 729.232 Q173.552 729.047 174.57 729.047 Q180.357 729.047 183.737 732.218 Q187.116 735.39 187.116 740.806 Q187.116 746.385 183.644 749.487 Q180.172 752.566 173.852 752.566 Q171.677 752.566 169.408 752.195 Q167.163 751.825 164.755 751.084 L164.755 746.385 Q166.839 747.519 169.061 748.075 Q171.283 748.63 173.76 748.63 Q177.765 748.63 180.102 746.524 Q182.44 744.417 182.44 740.806 Q182.44 737.195 180.102 735.089 Q177.765 732.982 173.76 732.982 Q171.885 732.982 170.01 733.399 Q168.158 733.816 166.214 734.695 L166.214 717.334 Z" fill="#000000" fill-rule="evenodd" fill-opacity="1" /><path clip-path="url(#clip870)" d="M 0 0 M202.186 720.413 Q198.575 720.413 196.746 723.978 Q194.94 727.519 194.94 734.649 Q194.94 741.755 196.746 745.32 Q198.575 748.862 202.186 748.862 Q205.82 748.862 207.625 745.32 Q209.454 741.755 209.454 734.649 Q209.454 727.519 207.625 723.978 Q205.82 720.413 202.186 720.413 M202.186 716.709 Q207.996 716.709 211.051 721.316 Q214.13 725.899 214.13 734.649 Q214.13 743.376 211.051 747.982 Q207.996 752.566 202.186 752.566 Q196.376 752.566 193.297 747.982 Q190.241 743.376 190.241 734.649 Q190.241 725.899 193.297 721.316 Q196.376 716.709 202.186 716.709 Z" fill="#000000" fill-rule="evenodd" fill-opacity="1" /><path clip-path="url(#clip870)" d="M 0 0 M140.103 429.39 Q136.492 429.39 134.663 432.955 Q132.857 436.496 132.857 443.626 Q132.857 450.732 134.663 454.297 Q136.492 457.839 140.103 457.839 Q143.737 457.839 145.542 454.297 Q147.371 450.732 147.371 443.626 Q147.371 436.496 145.542 432.955 Q143.737 429.39 140.103 429.39 M140.103 425.686 Q145.913 425.686 148.968 430.293 Q152.047 434.876 152.047 443.626 Q152.047 452.353 148.968 456.959 Q145.913 461.543 140.103 461.543 Q134.293 461.543 131.214 456.959 Q128.158 452.353 128.158 443.626 Q128.158 434.876 131.214 430.293 Q134.293 425.686 140.103 425.686 Z" fill="#000000" fill-rule="evenodd" fill-opacity="1" /><path clip-path="url(#clip870)" d="M 0 0 M157.116 454.992 L162.001 454.992 L162.001 460.871 L157.116 460.871 L157.116 454.992 Z" fill="#000000" fill-rule="evenodd" fill-opacity="1" /><path clip-path="url(#clip870)" d="M 0 0 M165.89 426.311 L188.112 426.311 L188.112 428.302 L175.565 460.871 L170.681 460.871 L182.487 430.246 L165.89 430.246 L165.89 426.311 Z" fill="#000000" fill-rule="evenodd" fill-opacity="1" /><path clip-path="url(#clip870)" d="M 0 0 M193.227 426.311 L211.584 426.311 L211.584 430.246 L197.51 430.246 L197.51 438.719 Q198.528 438.371 199.547 438.209 Q200.565 438.024 201.584 438.024 Q207.371 438.024 210.75 441.195 Q214.13 444.367 214.13 449.783 Q214.13 455.362 210.658 458.464 Q207.186 461.543 200.866 461.543 Q198.69 461.543 196.422 461.172 Q194.176 460.802 191.769 460.061 L191.769 455.362 Q193.852 456.496 196.075 457.052 Q198.297 457.607 200.774 457.607 Q204.778 457.607 207.116 455.501 Q209.454 453.395 209.454 449.783 Q209.454 446.172 207.116 444.066 Q204.778 441.959 200.774 441.959 Q198.899 441.959 197.024 442.376 Q195.172 442.793 193.227 443.672 L193.227 426.311 Z" fill="#000000" fill-rule="evenodd" fill-opacity="1" /><path clip-path="url(#clip870)" d="M 0 0 M130.242 165.913 L137.88 165.913 L137.88 139.548 L129.57 141.214 L129.57 136.955 L137.834 135.288 L142.51 135.288 L142.51 165.913 L150.149 165.913 L150.149 169.848 L130.242 169.848 L130.242 165.913 Z" fill="#000000" fill-rule="evenodd" fill-opacity="1" /><path clip-path="url(#clip870)" d="M 0 0 M155.218 163.969 L160.103 163.969 L160.103 169.848 L155.218 169.848 L155.218 163.969 Z" fill="#000000" fill-rule="evenodd" fill-opacity="1" /><path clip-path="url(#clip870)" d="M 0 0 M175.172 138.367 Q171.561 138.367 169.732 141.932 Q167.927 145.474 167.927 152.603 Q167.927 159.71 169.732 163.274 Q171.561 166.816 175.172 166.816 Q178.806 166.816 180.612 163.274 Q182.44 159.71 182.44 152.603 Q182.44 145.474 180.612 141.932 Q178.806 138.367 175.172 138.367 M175.172 134.663 Q180.982 134.663 184.038 139.27 Q187.116 143.853 187.116 152.603 Q187.116 161.33 184.038 165.936 Q180.982 170.52 175.172 170.52 Q169.362 170.52 166.283 165.936 Q163.228 161.33 163.228 152.603 Q163.228 143.853 166.283 139.27 Q169.362 134.663 175.172 134.663 Z" fill="#000000" fill-rule="evenodd" fill-opacity="1" /><path clip-path="url(#clip870)" d="M 0 0 M202.186 138.367 Q198.575 138.367 196.746 141.932 Q194.94 145.474 194.94 152.603 Q194.94 159.71 196.746 163.274 Q198.575 166.816 202.186 166.816 Q205.82 166.816 207.625 163.274 Q209.454 159.71 209.454 152.603 Q209.454 145.474 207.625 141.932 Q205.82 138.367 202.186 138.367 M202.186 134.663 Q207.996 134.663 211.051 139.27 Q214.13 143.853 214.13 152.603 Q214.13 161.33 211.051 165.936 Q207.996 170.52 202.186 170.52 Q196.376 170.52 193.297 165.936 Q190.241 161.33 190.241 152.603 Q190.241 143.853 193.297 139.27 Q196.376 134.663 202.186 134.663 Z" fill="#000000" fill-rule="evenodd" fill-opacity="1" /><path clip-path="url(#clip870)" d="M 0 0 M1312.06 1520.4 L1299.17 1537.74 L1312.73 1556.04 L1305.82 1556.04 L1295.44 1542.04 L1285.07 1556.04 L1278.16 1556.04 L1292.01 1537.39 L1279.34 1520.4 L1286.24 1520.4 L1295.7 1533.1 L1305.15 1520.4 L1312.06 1520.4 Z" fill="#000000" fill-rule="evenodd" fill-opacity="1" /><path clip-path="url(#clip870)" d="M 0 0 M70.212 745.095 Q76.6732 745.095 80.3653 742.453 Q84.0256 739.779 84.0256 735.132 Q84.0256 730.485 80.3653 727.812 Q76.6732 725.138 70.212 725.138 Q63.7508 725.138 60.0905 727.812 Q56.3984 730.485 56.3984 735.132 Q56.3984 739.779 60.0905 742.453 Q63.7508 745.095 70.212 745.095 M82.657 725.138 Q85.8398 726.984 87.3994 729.817 Q88.9272 732.618 88.9272 736.565 Q88.9272 743.026 83.771 747.1 Q78.6147 751.142 70.212 751.142 Q61.8093 751.142 56.6531 747.1 Q51.4968 743.026 51.4968 736.565 Q51.4968 732.618 53.0564 729.817 Q54.5842 726.984 57.7671 725.138 L52.3562 725.138 L52.3562 719.282 L101.563 719.282 L101.563 725.138 L82.657 725.138 Z" fill="#000000" fill-rule="evenodd" fill-opacity="1" /><polyline clip-path="url(#clip872)" style="stroke:#009af9; stroke-width:4; stroke-opacity:1; fill:none" points="
  297.978,1316.66 300.669,1316.66 305.771,1316.66 310.872,1316.66 313.563,1316.66 316.255,1316.66 321.356,1316.66 326.458,1316.66 329.149,1316.66 
  331.84,1316.66 336.941,1316.66 342.043,1316.66 344.734,1316.66 347.425,1316.66 352.527,1316.66 357.628,1316.66 360.32,1316.66 
  363.011,1316.66 368.112,1316.66 373.214,1316.66 375.905,1316.66 378.596,1316.66 383.698,1316.66 388.799,1316.66 391.49,1316.66 
  394.181,1316.66 399.283,1316.66 404.385,1316.66 407.076,1316.66 409.767,1316.66 414.868,1316.66 419.97,1316.66 422.661,1316.66 
  425.352,1316.66 430.454,1316.66 435.555,1316.66 438.246,1316.66 440.938,1316.66 446.039,1316.66 451.141,1316.66 453.832,1316.66 
  456.523,1316.66 461.625,1316.66 466.726,1316.66 469.417,1316.66 472.108,1316.66 477.21,1316.66 482.311,1316.66 485.003,1316.66 
  487.694,1316.66 492.795,1316.66 497.897,1316.66 500.588,1316.66 503.279,1316.66 508.381,1316.66 513.482,1316.66 516.173,1316.66 
  518.865,1316.66 523.966,1316.66 529.068,1316.66 531.759,1316.66 534.45,1316.66 539.552,1316.66 544.653,1316.66 547.344,1316.66 
  550.035,1316.66 555.137,1316.66 560.238,1316.66 562.93,1316.66 565.621,1316.66 570.722,1316.66 575.824,1316.66 578.515,1316.66 
  581.206,1316.66 586.308,1316.66 591.409,1316.66 594.1,1316.66 596.792,1316.66 601.893,1316.66 606.995,1316.66 609.686,1316.66 
  612.377,1316.66 617.478,1316.66 622.58,1316.66 625.271,1316.66 627.962,1316.66 633.064,1316.66 638.165,1316.66 640.857,1316.66 
  643.548,1316.66 648.649,1316.66 653.751,1316.66 656.442,1316.66 659.133,1316.66 664.235,1316.66 669.336,1316.66 672.027,1316.66 
  674.719,1316.66 679.82,1316.66 684.922,1316.66 687.613,1316.66 690.304,1316.66 695.405,1316.66 700.507,1316.66 703.198,1316.66 
  705.889,1316.66 710.991,1316.66 716.092,1316.66 718.784,1316.66 721.475,1316.66 726.576,152.568 731.678,152.568 734.369,152.568 
  737.06,152.568 742.162,152.568 747.263,152.568 749.954,152.568 752.645,152.568 757.747,152.568 762.849,152.568 765.54,152.568 
  768.231,152.568 773.332,152.568 778.434,152.568 781.125,152.568 783.816,152.568 788.918,152.568 794.019,152.568 796.71,152.568 
  799.402,152.568 804.503,152.568 809.605,152.568 812.296,152.568 814.987,152.568 820.089,152.568 825.19,152.568 827.881,152.568 
  830.572,152.568 835.674,152.568 840.775,152.568 843.467,152.568 846.158,152.568 851.259,152.568 856.361,152.568 859.052,152.568 
  861.743,152.568 866.845,152.568 871.946,152.568 874.637,152.568 877.329,152.568 882.43,152.568 887.532,152.568 890.223,152.568 
  892.914,152.568 898.016,152.568 903.117,152.568 905.808,152.568 908.499,152.568 913.601,152.568 918.702,152.568 921.394,152.568 
  924.085,152.568 929.186,152.568 934.288,152.568 936.979,152.568 939.67,152.568 944.772,152.568 949.873,152.568 952.564,152.568 
  955.256,152.568 960.357,152.568 965.459,152.568 968.15,152.568 970.841,152.568 975.942,152.568 981.044,152.568 983.735,152.568 
  986.426,152.568 991.528,152.568 996.629,152.568 999.321,152.568 1002.01,152.568 1007.11,152.568 1012.21,1316.66 1014.91,1316.66 
  1017.6,1316.66 1022.7,1316.66 1027.8,1316.66 1030.49,1316.66 1033.18,1316.66 1038.28,1316.66 1043.39,1316.66 1046.08,1316.66 
  1048.77,1316.66 1053.87,1316.66 1058.97,1316.66 1061.66,1316.66 1064.35,1316.66 1069.45,1316.66 1074.56,1316.66 1077.25,1316.66 
  1079.94,1316.66 1085.04,1316.66 1090.14,1316.66 1092.83,1316.66 1095.52,1316.66 1100.63,1316.66 1105.73,1316.66 1108.42,1316.66 
  1111.11,1316.66 1116.21,1316.66 1121.31,1316.66 1124,1316.66 1126.69,1316.66 1131.8,1316.66 1136.9,1316.66 1139.59,1316.66 
  1142.28,1316.66 1147.38,1316.66 1152.48,1316.66 1155.17,1316.66 1157.87,1316.66 1162.97,1316.66 1168.07,1316.66 1170.76,1316.66 
  1173.45,1316.66 1178.55,1316.66 1183.65,1316.66 1186.35,1316.66 1189.04,1316.66 1194.14,1316.66 1199.24,1316.66 1201.93,1316.66 
  1204.62,1316.66 1209.72,1316.66 1214.82,1316.66 1217.52,1316.66 1220.21,1316.66 1225.31,1316.66 1230.41,1316.66 1233.1,1316.66 
  1235.79,1316.66 1240.89,1316.66 1246,1316.66 1248.69,1316.66 1251.38,1316.66 1256.48,1316.66 1261.58,1316.66 1264.27,1316.66 
  1266.96,1316.66 1272.06,1316.66 1277.17,1316.66 1279.86,1316.66 1282.55,1316.66 1287.65,1316.66 1292.75,1316.66 1295.44,1316.66 
  1298.13,1316.66 1303.24,1316.66 1308.34,1316.66 1311.03,1316.66 1313.72,1316.66 1318.82,1316.66 1323.92,1316.66 1326.61,1316.66 
  1329.3,1316.66 1334.41,1316.66 1339.51,1316.66 1342.2,1316.66 1344.89,1316.66 1349.99,1316.66 1355.09,1316.66 1357.78,1316.66 
  1360.48,1316.66 1365.58,1316.66 1370.68,1316.66 1373.37,1316.66 1376.06,1316.66 1381.16,1316.66 1386.26,1316.66 1388.96,1316.66 
  1391.65,1316.66 1396.75,1316.66 1401.85,1316.66 1404.54,1316.66 1407.23,1316.66 1412.33,1316.66 1417.43,1316.66 1420.13,1316.66 
  1422.82,1316.66 1427.92,1316.66 1433.02,1316.66 1435.71,1316.66 1438.4,1316.66 1443.5,1316.66 1448.61,1316.66 1451.3,1316.66 
  1453.99,1316.66 1459.09,1316.66 1464.19,1316.66 1466.88,1316.66 1469.57,1316.66 1474.67,1316.66 1479.78,1316.66 1482.47,1316.66 
  1485.16,1316.66 1490.26,1316.66 1495.36,1316.66 1498.05,1316.66 1500.74,1316.66 1505.85,1316.66 1510.95,1316.66 1513.64,1316.66 
  1516.33,1316.66 1521.43,1316.66 1526.53,1316.66 1529.22,1316.66 1531.92,1316.66 1537.02,1316.66 1542.12,1316.66 1544.81,1316.66 
  1547.5,1316.66 1552.6,1316.66 1557.7,1316.66 1560.39,1316.66 1563.09,1316.66 1568.19,1316.66 1573.29,1316.66 1575.98,1316.66 
  1578.67,1316.66 1583.77,1316.66 1588.87,1316.66 1591.57,1316.66 1594.26,1316.66 1599.36,1316.66 1604.46,1316.66 1607.15,1316.66 
  1609.84,1316.66 1614.94,1316.66 1620.05,1316.66 1622.74,1316.66 1625.43,1316.66 1630.53,1316.66 1635.63,1316.66 1638.32,1316.66 
  1641.01,1316.66 1646.11,1316.66 1651.22,1316.66 1653.91,1316.66 1656.6,1316.66 1661.7,1316.66 1666.8,1316.66 1669.49,1316.66 
  1672.18,1316.66 1677.29,1316.66 1682.39,1316.66 1685.08,1316.66 1687.77,1316.66 1692.87,1316.66 1697.97,1316.66 1700.66,1316.66 
  1703.35,1316.66 1708.46,1316.66 1713.56,1316.66 1716.25,1316.66 1718.94,1316.66 1724.04,1316.66 1729.14,1316.66 1731.83,1316.66 
  1734.53,1316.66 1739.63,1316.66 1744.73,1316.66 1747.42,1316.66 1750.11,1316.66 1755.21,1316.66 1760.31,1316.66 1763,1316.66 
  1765.7,1316.66 1770.8,1316.66 1775.9,1316.66 1778.59,1316.66 1781.28,1316.66 1786.38,1316.66 1791.48,1316.66 1794.18,1316.66 
  1796.87,1316.66 1801.97,1316.66 1807.07,1316.66 1809.76,1316.66 1812.45,1316.66 1817.55,1316.66 1822.66,1316.66 1825.35,1316.66 
  1828.04,1316.66 1833.14,1316.66 1838.24,1316.66 1840.93,1316.66 1843.62,1316.66 1848.72,1316.66 1853.83,1316.66 1856.52,1316.66 
  1859.21,1316.66 1864.31,1316.66 1869.41,1316.66 1872.1,1316.66 1874.79,1316.66 1879.9,1316.66 1885,1316.66 1887.69,1316.66 
  1890.38,1316.66 1895.48,1316.66 1900.58,1316.66 1903.27,1316.66 1905.96,1316.66 1911.07,1316.66 1916.17,1316.66 1918.86,1316.66 
  1921.55,1316.66 1926.65,1316.66 1931.75,1316.66 1934.44,1316.66 1937.14,1316.66 1942.24,1316.66 1947.34,1316.66 1950.03,1316.66 
  1952.72,1316.66 1957.82,1316.66 1962.92,1316.66 1965.61,1316.66 1968.31,1316.66 1973.41,1316.66 1978.51,1316.66 1981.2,1316.66 
  1983.89,1316.66 1988.99,1316.66 1994.09,1316.66 1996.79,1316.66 1999.48,1316.66 2004.58,1316.66 2009.68,1316.66 2012.37,1316.66 
  2015.06,1316.66 2020.16,1316.66 2025.27,1316.66 2027.96,1316.66 2030.65,1316.66 2035.75,1316.66 2040.85,1316.66 2043.54,1316.66 
  2046.23,1316.66 2051.33,1316.66 2056.44,1316.66 2059.13,1316.66 2061.82,1316.66 2066.92,1316.66 2072.02,1316.66 2074.71,1316.66 
  2077.4,1316.66 2082.51,1316.66 2087.61,1316.66 2090.3,1316.66 2092.99,1316.66 2098.09,1316.66 2103.19,1316.66 2105.88,1316.66 
  2108.57,1316.66 2113.68,1316.66 2118.78,1316.66 2121.47,1316.66 2124.16,1316.66 2129.26,1316.66 2134.36,1316.66 2137.05,1316.66 
  2139.75,1316.66 2144.85,1316.66 2149.95,1316.66 2152.64,1316.66 2155.33,1316.66 2160.43,1316.66 2165.53,1316.66 2168.22,1316.66 
  2170.92,1316.66 2176.02,1316.66 2181.12,1316.66 2183.81,1316.66 2186.5,1316.66 2191.6,1316.66 2196.7,1316.66 2199.4,1316.66 
  2202.09,1316.66 2207.19,1316.66 2212.29,1316.66 2214.98,1316.66 2217.67,1316.66 2222.77,1316.66 2227.88,1316.66 2230.57,1316.66 
  2233.26,1316.66 2238.36,1316.66 2243.46,1316.66 2246.15,1316.66 2248.84,1316.66 2253.94,1316.66 2259.05,1316.66 2261.74,1316.66 
  2264.43,1316.66 2269.53,1316.66 2274.63,1316.66 2277.32,1316.66 2280.01,1316.66 2285.12,1316.66 2290.22,1316.66 2292.91,1316.66 
  
  "/>
<polyline clip-path="url(#clip872)" style="stroke:#e26f46; stroke-width:4; stroke-opacity:1; fill:none" points="
  297.978,1316.66 300.669,1316.66 305.771,1316.66 310.872,1316.66 313.563,1316.66 316.255,1316.66 321.356,1316.66 326.458,1316.66 329.149,1316.66 
  331.84,1316.66 336.941,1316.66 342.043,1316.66 344.734,1316.66 347.425,1316.66 352.527,1316.66 357.628,1316.66 360.32,1316.66 
  363.011,1316.66 368.112,1316.66 373.214,1316.66 375.905,1316.66 378.596,1316.66 383.698,1316.66 388.799,1316.66 391.49,1316.66 
  394.181,1316.66 399.283,1316.66 404.385,1316.66 407.076,1316.66 409.767,1316.66 414.868,1316.66 419.97,1316.66 422.661,1316.66 
  425.352,1316.66 430.454,1316.66 435.555,1316.66 438.246,1316.66 440.938,1316.66 446.039,1316.66 451.141,1316.66 453.832,1316.66 
  456.523,1316.66 461.625,1316.66 466.726,1316.66 469.417,1316.66 472.108,1316.66 477.21,1316.66 482.311,1316.66 485.003,1316.66 
  487.694,1316.66 492.795,1316.66 497.897,1316.66 500.588,1316.66 503.279,1316.66 508.381,1316.66 513.482,1316.66 516.173,1316.66 
  518.865,1316.66 523.966,1316.66 529.068,1316.66 531.759,1316.66 534.45,1316.66 539.552,1316.66 544.653,1316.66 547.344,1316.66 
  550.035,1316.66 555.137,1316.66 560.238,1316.66 562.93,1316.66 565.621,1316.66 570.722,1316.66 575.824,1316.66 578.515,1316.66 
  581.206,1316.66 586.308,1316.66 591.409,1316.66 594.1,1316.66 596.792,1316.66 601.893,1316.66 606.995,1316.66 609.686,1316.66 
  612.377,1316.66 617.478,1316.66 622.58,1316.66 625.271,1316.66 627.962,1316.66 633.064,1316.66 638.165,1316.66 640.857,1316.66 
  643.548,1316.66 648.649,1316.66 653.751,1316.66 656.442,1316.66 659.133,1316.66 664.235,1316.66 669.336,1316.66 672.027,1316.66 
  674.719,1316.66 679.82,1316.66 684.922,1316.66 687.613,1316.66 690.304,1316.66 695.405,1316.66 700.507,1316.66 703.198,1316.66 
  705.889,1316.66 710.991,1316.66 716.092,1316.66 718.784,1316.66 721.475,1316.66 726.576,1316.66 731.678,1316.66 734.369,1316.66 
  737.06,1316.66 742.162,1316.66 747.263,1316.66 749.954,1316.66 752.645,1316.66 757.747,1316.66 762.849,1316.66 765.54,1316.66 
  768.231,1316.66 773.332,1316.66 778.434,1316.66 781.125,1316.66 783.816,1316.66 788.918,1316.66 794.019,1316.66 796.71,1316.66 
  799.402,1316.66 804.503,1316.66 809.605,1316.66 812.296,1316.66 814.987,1316.66 820.089,1316.66 825.19,1316.66 827.881,1316.66 
  830.572,1316.66 835.674,1316.66 840.775,1316.66 843.467,1316.66 846.158,1316.66 851.259,1316.66 856.361,1316.66 859.052,1316.66 
  859.052,1316.66 861.743,1316.66 866.845,1316.66 871.946,1316.66 874.637,1316.66 874.637,1316.66 877.329,1316.66 882.43,1316.66 887.532,1316.66 890.223,1316.66 
  890.223,1316.66 892.914,1316.66 898.016,1316.66 903.117,1316.66 905.808,1316.66 905.808,1316.66 908.499,1316.66 913.601,1316.66 918.702,1316.66 921.394,1316.66 
  921.394,1316.66 924.085,1316.66 929.186,1316.66 934.288,1316.66 936.979,1316.66 936.979,1316.66 939.67,1316.66 944.772,1316.66 949.873,1316.66 952.564,1316.66 
  952.564,1316.66 955.256,1316.66 960.357,1316.66 965.459,1316.66 968.15,1316.66 968.15,1316.66 970.841,1316.66 975.942,1316.66 981.044,1316.66 983.735,1316.66 
  983.735,1316.66 986.426,1316.66 991.528,1316.66 996.629,1316.66 999.321,1316.66 999.321,1316.66 1002.01,1316.66 1007.11,1316.66 1012.21,1316.66 1014.91,1316.66 
  1014.91,1316.66 1017.6,1316.66 1022.7,1316.66 1027.8,1316.66 1030.49,1316.66 1030.49,1316.66 1033.18,1316.66 1038.28,1316.66 1043.39,1316.66 1046.08,1316.66 
  1046.08,1316.66 1048.77,1316.66 1053.87,1316.66 1058.97,1316.66 1061.66,1316.66 1061.66,1316.66 1064.35,1316.66 1069.45,1316.66 1074.56,1316.66 1077.25,1316.66 
  1077.25,1316.66 1079.94,1316.66 1085.04,1316.66 1090.14,1316.66 1092.83,1316.66 1092.83,1316.66 1095.52,1316.66 1100.63,1316.66 1105.73,1316.66 1108.42,1316.66 
  1108.42,1316.66 1111.11,1316.66 1116.21,1316.66 1121.31,1316.66 1124,1316.66 1124,1316.66 1126.69,1316.67 1131.8,1316.67 1136.9,1316.67 1139.59,1316.67 
  1139.59,1316.67 1142.28,1316.66 1147.38,1316.65 1152.48,1316.62 1155.17,1316.61 1155.17,1316.61 1157.87,1316.59 1162.97,1316.58 1168.07,1316.62 1170.76,1316.66 
  1170.76,1316.64 1173.45,1316.73 1178.55,1316.91 1183.65,1317.11 1186.35,1317.22 1186.35,1317.23 1189.04,1317.31 1194.14,1317.2 1199.24,1316.73 1201.93,1316.34 
  1201.93,1316.42 1204.62,1315.68 1209.72,1314.16 1214.82,1312.55 1217.52,1311.67 1217.52,1311.64 1220.21,1311.03 1225.31,1311.67 1230.41,1314.71 1233.1,1317.31 
  1233.1,1316.79 1235.79,1321.61 1240.89,1332.7 1246,1346.09 1248.69,1353.98 1248.69,1353.79 1251.38,1362.07 1256.48,1370.68 1261.58,1369.76 1264.27,1365.34 
  1264.27,1367.23 1266.96,1353.63 1272.06,1308.48 1277.17,1238.95 1279.86,1192.85 1279.86,1196.11 1282.55,1135 1287.65,1005.02 1292.75,858.625 1295.44,775.633 
  1295.44,776.533 1298.13,690.013 1303.24,535.188 1308.34,393.117 1311.03,323.601 1311.03,320.943 1313.72,264.58 1318.82,179.387 1323.92,120.812 1326.61,99.9382 
  1326.61,97.1133 1329.3,89.6041 1334.41,86.1857 1339.51,95.0491 1342.2,103.916 1342.2,103.393 1344.89,114.146 1349.99,132.321 1355.09,147.373 1357.78,153.96 
  1357.78,154.517 1360.48,157.986 1365.58,161.595 1370.68,161.784 1373.37,160.693 1373.37,160.854 1376.06,159.037 1381.16,155.901 1386.26,153.254 1388.96,152.09 
  1388.96,151.986 1391.65,151.464 1396.75,151.012 1401.85,151.161 1404.54,151.443 1404.54,151.428 1407.23,151.774 1412.33,152.309 1417.43,152.682 1420.13,152.813 
  1420.13,152.831 1422.82,152.845 1427.92,152.817 1433.02,152.737 1435.71,152.68 1435.71,152.675 1438.4,152.643 1443.5,152.605 1448.61,152.589 1451.3,152.587 
  1451.3,152.592 1453.99,152.574 1459.09,152.491 1464.19,152.343 1466.88,152.239 1466.88,152.251 1469.57,152.108 1474.67,151.969 1479.78,152.018 1482.47,152.127 
  1482.47,152.068 1485.16,152.43 1490.26,153.446 1495.36,154.877 1498.05,155.793 1498.05,155.733 1500.74,156.821 1505.85,157.919 1510.95,157.678 1513.64,156.98 
  1513.64,157.325 1516.33,155.058 1521.43,148.123 1526.53,137.855 1529.22,131.144 1529.22,131.654 1531.92,122.983 1537.02,109.24 1542.12,99.389 1544.81,95.9085 
  1544.81,94.8852 1547.5,96.6503 1552.6,115.935 1557.7,155.665 1560.39,184.689 1560.39,181.565 1563.09,225.172 1568.19,326.737 1573.29,451.145 1575.98,525.209 
  1575.98,523.065 1578.67,606.596 1583.77,764.516 1588.87,920.363 1591.57,1001.13 1591.57,1002.75 1594.26,1075.19 1599.36,1192.36 1604.46,1284.13 1607.15,1322.7 
  1607.15,1325.94 1609.84,1348.95 1614.94,1376.22 1620.05,1384.24 1622.74,1381.58 1622.74,1382.94 1625.43,1374.31 1630.53,1356.8 1635.63,1338.6 1638.32,1329.06 
  1638.32,1328.64 1641.01,1321.68 1646.11,1312.33 1651.22,1307.59 1653.91,1306.79 1653.91,1306.43 1656.6,1307.44 1661.7,1309.95 1666.8,1313 1669.49,1314.73 
  1669.49,1314.8 1672.18,1316.02 1677.29,1317.58 1682.39,1318.25 1685.08,1318.28 1685.08,1318.33 1687.77,1318.06 1692.87,1317.51 1697.97,1316.96 1700.66,1316.69 
  1700.66,1316.67 1703.35,1316.53 1708.46,1316.39 1713.56,1316.39 1716.25,1316.44 1716.25,1316.44 1718.94,1316.51 1724.04,1316.61 1729.14,1316.69 1731.83,1316.71 
  1731.83,1316.71 1734.53,1316.72 1739.63,1316.71 1744.73,1316.68 1747.42,1316.67 1747.42,1316.67 1750.11,1316.66 1755.21,1316.65 1760.31,1316.65 1763,1316.65 
  1763,1316.65 1765.7,1316.65 1770.8,1316.66 1775.9,1316.66 1778.59,1316.66 1778.59,1316.66 1781.28,1316.66 1786.38,1316.66 1791.48,1316.66 1794.18,1316.66 
  1794.18,1316.66 1796.87,1316.66 1801.97,1316.66 1807.07,1316.66 1809.76,1316.66 1809.76,1316.66 1812.45,1316.66 1817.55,1316.66 1822.66,1316.66 1825.35,1316.66 
  1825.35,1316.66 1828.04,1316.66 1833.14,1316.66 1838.24,1316.66 1840.93,1316.66 1840.93,1316.66 1843.62,1316.66 1848.72,1316.66 1853.83,1316.66 1856.52,1316.66 
  1856.52,1316.66 1859.21,1316.66 1864.31,1316.66 1869.41,1316.66 1872.1,1316.66 1872.1,1316.66 1874.79,1316.66 1879.9,1316.66 1885,1316.66 1887.69,1316.66 
  1887.69,1316.66 1890.38,1316.66 1895.48,1316.66 1900.58,1316.66 1903.27,1316.66 1903.27,1316.66 1905.96,1316.66 1911.07,1316.66 1916.17,1316.66 1918.86,1316.66 
  1918.86,1316.66 1921.55,1316.66 1926.65,1316.66 1931.75,1316.66 1934.44,1316.66 1934.44,1316.66 1937.14,1316.66 1942.24,1316.66 1947.34,1316.66 1950.03,1316.66 
  1950.03,1316.66 1952.72,1316.66 1957.82,1316.66 1962.92,1316.66 1965.61,1316.66 1965.61,1316.66 1968.31,1316.66 1973.41,1316.66 1978.51,1316.66 1981.2,1316.66 
  1981.2,1316.66 1983.89,1316.66 1988.99,1316.66 1994.09,1316.66 1996.79,1316.66 1996.79,1316.66 1999.48,1316.66 2004.58,1316.66 2009.68,1316.66 2012.37,1316.66 
  2015.06,1316.66 2020.16,1316.66 2025.27,1316.66 2027.96,1316.66 2030.65,1316.66 2035.75,1316.66 2040.85,1316.66 2043.54,1316.66 
  2046.23,1316.66 2051.33,1316.66 2056.44,1316.66 2059.13,1316.66 2061.82,1316.66 2066.92,1316.66 2072.02,1316.66 2074.71,1316.66 
  2077.4,1316.66 2082.51,1316.66 2087.61,1316.66 2090.3,1316.66 2092.99,1316.66 2098.09,1316.66 2103.19,1316.66 2105.88,1316.66 
  2108.57,1316.66 2113.68,1316.66 2118.78,1316.66 2121.47,1316.66 2124.16,1316.66 2129.26,1316.66 2134.36,1316.66 2137.05,1316.66 
  2139.75,1316.66 2144.85,1316.66 2149.95,1316.66 2152.64,1316.66 2155.33,1316.66 2160.43,1316.66 2165.53,1316.66 2168.22,1316.66 
  2170.92,1316.66 2176.02,1316.66 2181.12,1316.66 2183.81,1316.66 2186.5,1316.66 2191.6,1316.66 2196.7,1316.66 2199.4,1316.66 
  2202.09,1316.66 2207.19,1316.66 2212.29,1316.66 2214.98,1316.66 2217.67,1316.66 2222.77,1316.66 2227.88,1316.66 2230.57,1316.66 
  2233.26,1316.66 2238.36,1316.66 2243.46,1316.66 2246.15,1316.66 2248.84,1316.66 2253.94,1316.66 2259.05,1316.66 2261.74,1316.66 
  2264.43,1316.66 2269.53,1316.66 2274.63,1316.66 2277.32,1316.66 2280.01,1316.66 2285.12,1316.66 2290.22,1316.66 2292.91,1316.66 
  
  "/>
<path clip-path="url(#clip870)" d="
M1802.38 274.549 L2282.27 274.549 L2282.27 93.1086 L1802.38 93.1086  Z
  " fill="#ffffff" fill-rule="evenodd" fill-opacity="1"/>
<polyline clip-path="url(#clip870)" style="stroke:#000000; stroke-width:4; stroke-opacity:1; fill:none" points="
  1802.38,274.549 2282.27,274.549 2282.27,93.1086 1802.38,93.1086 1802.38,274.549 
  "/>
<polyline clip-path="url(#clip870)" style="stroke:#009af9; stroke-width:4; stroke-opacity:1; fill:none" points="
  1825.88,153.589 1966.85,153.589 
  "/>
<path clip-path="url(#clip870)" d="M 0 0 M1994.75 157.929 Q1994.75 162.628 1996.67 165.313 Q1998.61 167.975 2001.99 167.975 Q2005.37 167.975 2007.31 165.313 Q2009.26 162.628 2009.26 157.929 Q2009.26 153.23 2007.31 150.568 Q2005.37 147.883 2001.99 147.883 Q1998.61 147.883 1996.67 150.568 Q1994.75 153.23 1994.75 157.929 M2009.26 166.98 Q2007.92 169.295 2005.86 170.429 Q2003.82 171.54 2000.95 171.54 Q1996.25 171.54 1993.29 167.79 Q1990.35 164.04 1990.35 157.929 Q1990.35 151.818 1993.29 148.068 Q1996.25 144.318 2000.95 144.318 Q2003.82 144.318 2005.86 145.452 Q2007.92 146.563 2009.26 148.878 L2009.26 144.943 L2013.52 144.943 L2013.52 180.73 L2009.26 180.73 L2009.26 166.98 Z" fill="#000000" fill-rule="evenodd" fill-opacity="1" /><path clip-path="url(#clip870)" d="M 0 0 M2019.07 164.989 L2023.96 164.989 L2023.96 168.97 L2020.16 176.378 L2017.18 176.378 L2019.07 168.97 L2019.07 164.989 Z" fill="#000000" fill-rule="evenodd" fill-opacity="1" /><path clip-path="url(#clip870)" d="M 0 0 M2047.71 137.582 L2047.71 144.943 L2056.48 144.943 L2056.48 148.253 L2047.71 148.253 L2047.71 162.327 Q2047.71 165.498 2048.56 166.401 Q2049.44 167.304 2052.11 167.304 L2056.48 167.304 L2056.48 170.869 L2052.11 170.869 Q2047.18 170.869 2045.3 169.04 Q2043.43 167.188 2043.43 162.327 L2043.43 148.253 L2040.3 148.253 L2040.3 144.943 L2043.43 144.943 L2043.43 137.582 L2047.71 137.582 Z" fill="#000000" fill-rule="evenodd" fill-opacity="1" /><path clip-path="url(#clip870)" d="M 0 0 M2061.5 149.341 L2091.18 149.341 L2091.18 153.23 L2061.5 153.23 L2061.5 149.341 M2061.5 158.785 L2091.18 158.785 L2091.18 162.721 L2061.5 162.721 L2061.5 158.785 Z" fill="#000000" fill-rule="evenodd" fill-opacity="1" /><path clip-path="url(#clip870)" d="M 0 0 M2106.25 139.387 Q2102.64 139.387 2100.81 142.952 Q2099 146.494 2099 153.623 Q2099 160.73 2100.81 164.295 Q2102.64 167.836 2106.25 167.836 Q2109.88 167.836 2111.69 164.295 Q2113.52 160.73 2113.52 153.623 Q2113.52 146.494 2111.69 142.952 Q2109.88 139.387 2106.25 139.387 M2106.25 135.684 Q2112.06 135.684 2115.12 140.29 Q2118.19 144.873 2118.19 153.623 Q2118.19 162.35 2115.12 166.957 Q2112.06 171.54 2106.25 171.54 Q2100.44 171.54 2097.36 166.957 Q2094.31 162.35 2094.31 153.623 Q2094.31 144.873 2097.36 140.29 Q2100.44 135.684 2106.25 135.684 Z" fill="#000000" fill-rule="evenodd" fill-opacity="1" /><path clip-path="url(#clip870)" d="M 0 0 M2123.26 164.989 L2128.15 164.989 L2128.15 170.869 L2123.26 170.869 L2123.26 164.989 Z" fill="#000000" fill-rule="evenodd" fill-opacity="1" /><path clip-path="url(#clip870)" d="M 0 0 M2143.22 139.387 Q2139.61 139.387 2137.78 142.952 Q2135.97 146.494 2135.97 153.623 Q2135.97 160.73 2137.78 164.295 Q2139.61 167.836 2143.22 167.836 Q2146.85 167.836 2148.66 164.295 Q2150.49 160.73 2150.49 153.623 Q2150.49 146.494 2148.66 142.952 Q2146.85 139.387 2143.22 139.387 M2143.22 135.684 Q2149.03 135.684 2152.08 140.29 Q2155.16 144.873 2155.16 153.623 Q2155.16 162.35 2152.08 166.957 Q2149.03 171.54 2143.22 171.54 Q2137.41 171.54 2134.33 166.957 Q2131.27 162.35 2131.27 153.623 Q2131.27 144.873 2134.33 140.29 Q2137.41 135.684 2143.22 135.684 Z" fill="#000000" fill-rule="evenodd" fill-opacity="1" /><polyline clip-path="url(#clip870)" style="stroke:#e26f46; stroke-width:4; stroke-opacity:1; fill:none" points="
  1825.88,214.069 1966.85,214.069 
  "/>
<path clip-path="url(#clip870)" d="M 0 0 M1994.75 218.409 Q1994.75 223.108 1996.67 225.793 Q1998.61 228.455 2001.99 228.455 Q2005.37 228.455 2007.31 225.793 Q2009.26 223.108 2009.26 218.409 Q2009.26 213.71 2007.31 211.048 Q2005.37 208.363 2001.99 208.363 Q1998.61 208.363 1996.67 211.048 Q1994.75 213.71 1994.75 218.409 M2009.26 227.46 Q2007.92 229.775 2005.86 230.909 Q2003.82 232.02 2000.95 232.02 Q1996.25 232.02 1993.29 228.27 Q1990.35 224.52 1990.35 218.409 Q1990.35 212.298 1993.29 208.548 Q1996.25 204.798 2000.95 204.798 Q2003.82 204.798 2005.86 205.932 Q2007.92 207.043 2009.26 209.358 L2009.26 205.423 L2013.52 205.423 L2013.52 241.21 L2009.26 241.21 L2009.26 227.46 Z" fill="#000000" fill-rule="evenodd" fill-opacity="1" /><path clip-path="url(#clip870)" d="M 0 0 M2019.07 225.469 L2023.96 225.469 L2023.96 229.45 L2020.16 236.858 L2017.18 236.858 L2019.07 229.45 L2019.07 225.469 Z" fill="#000000" fill-rule="evenodd" fill-opacity="1" /><path clip-path="url(#clip870)" d="M 0 0 M2047.71 198.062 L2047.71 205.423 L2056.48 205.423 L2056.48 208.733 L2047.71 208.733 L2047.71 222.807 Q2047.71 225.978 2048.56 226.881 Q2049.44 227.784 2052.11 227.784 L2056.48 227.784 L2056.48 231.349 L2052.11 231.349 Q2047.18 231.349 2045.3 229.52 Q2043.43 227.668 2043.43 222.807 L2043.43 208.733 L2040.3 208.733 L2040.3 205.423 L2043.43 205.423 L2043.43 198.062 L2047.71 198.062 Z" fill="#000000" fill-rule="evenodd" fill-opacity="1" /><path clip-path="url(#clip870)" d="M 0 0 M2061.5 209.821 L2091.18 209.821 L2091.18 213.71 L2061.5 213.71 L2061.5 209.821 M2061.5 219.265 L2091.18 219.265 L2091.18 223.201 L2061.5 223.201 L2061.5 219.265 Z" fill="#000000" fill-rule="evenodd" fill-opacity="1" /><path clip-path="url(#clip870)" d="M 0 0 M2109.1 200.863 L2097.29 219.312 L2109.1 219.312 L2109.1 200.863 M2107.87 196.789 L2113.75 196.789 L2113.75 219.312 L2118.68 219.312 L2118.68 223.201 L2113.75 223.201 L2113.75 231.349 L2109.1 231.349 L2109.1 223.201 L2093.5 223.201 L2093.5 218.687 L2107.87 196.789 Z" fill="#000000" fill-rule="evenodd" fill-opacity="1" /><path clip-path="url(#clip870)" d="M 0 0 M2123.8 196.789 L2142.15 196.789 L2142.15 200.724 L2128.08 200.724 L2128.08 209.196 Q2129.1 208.849 2130.12 208.687 Q2131.13 208.502 2132.15 208.502 Q2137.94 208.502 2141.32 211.673 Q2144.7 214.844 2144.7 220.261 Q2144.7 225.839 2141.23 228.941 Q2137.75 232.02 2131.43 232.02 Q2129.26 232.02 2126.99 231.65 Q2124.74 231.279 2122.34 230.538 L2122.34 225.839 Q2124.42 226.974 2126.64 227.529 Q2128.87 228.085 2131.34 228.085 Q2135.35 228.085 2137.68 225.978 Q2140.02 223.872 2140.02 220.261 Q2140.02 216.65 2137.68 214.543 Q2135.35 212.437 2131.34 212.437 Q2129.47 212.437 2127.59 212.853 Q2125.74 213.27 2123.8 214.15 L2123.8 196.789 Z" fill="#000000" fill-rule="evenodd" fill-opacity="1" /><path clip-path="url(#clip870)" d="M 0 0 M2159.77 199.867 Q2156.16 199.867 2154.33 203.432 Q2152.52 206.974 2152.52 214.103 Q2152.52 221.21 2154.33 224.775 Q2156.16 228.316 2159.77 228.316 Q2163.4 228.316 2165.21 224.775 Q2167.04 221.21 2167.04 214.103 Q2167.04 206.974 2165.21 203.432 Q2163.4 199.867 2159.77 199.867 M2159.77 196.164 Q2165.58 196.164 2168.63 200.77 Q2171.71 205.353 2171.71 214.103 Q2171.71 222.83 2168.63 227.437 Q2165.58 232.02 2159.77 232.02 Q2153.96 232.02 2150.88 227.437 Q2147.82 222.83 2147.82 214.103 Q2147.82 205.353 2150.88 200.77 Q2153.96 196.164 2159.77 196.164 Z" fill="#000000" fill-rule="evenodd" fill-opacity="1" /><path clip-path="url(#clip870)" d="M 0 0 M2176.78 225.469 L2181.67 225.469 L2181.67 231.349 L2176.78 231.349 L2176.78 225.469 Z" fill="#000000" fill-rule="evenodd" fill-opacity="1" /><path clip-path="url(#clip870)" d="M 0 0 M2199.58 200.863 L2187.78 219.312 L2199.58 219.312 L2199.58 200.863 M2198.36 196.789 L2204.24 196.789 L2204.24 219.312 L2209.17 219.312 L2209.17 223.201 L2204.24 223.201 L2204.24 231.349 L2199.58 231.349 L2199.58 223.201 L2183.98 223.201 L2183.98 218.687 L2198.36 196.789 Z" fill="#000000" fill-rule="evenodd" fill-opacity="1" /><path clip-path="url(#clip870)" d="M 0 0 M2213.05 196.789 L2235.28 196.789 L2235.28 198.779 L2222.73 231.349 L2217.85 231.349 L2229.65 200.724 L2213.05 200.724 L2213.05 196.789 Z" fill="#000000" fill-rule="evenodd" fill-opacity="1" /></svg>
