<?xml version="1.0" encoding="utf-8"?>
<svg xmlns="http://www.w3.org/2000/svg" xmlns:xlink="http://www.w3.org/1999/xlink" width="600" height="400" viewBox="0 0 2400 1600">
<defs>
  <clipPath id="clip900">
    <rect x="0" y="0" width="2400" height="1600"/>
  </clipPath>
</defs>
<path clip-path="url(#clip900)" d="
M0 1600 L2400 1600 L2400 0 L0 0  Z
  " fill="#ffffff" fill-rule="evenodd" fill-opacity="1"/>
<defs>
  <clipPath id="clip901">
    <rect x="480" y="0" width="1681" height="1600"/>
  </clipPath>
</defs>
<path clip-path="url(#clip900)" d="
M238.13 1423.18 L2352.76 1423.18 L2352.76 47.2441 L238.13 47.2441  Z
  " fill="#ffffff" fill-rule="evenodd" fill-opacity="1"/>
<defs>
  <clipPath id="clip902">
    <rect x="238" y="47" width="2116" height="1377"/>
  </clipPath>
</defs>
<polyline clip-path="url(#clip902)" style="stroke:#000000; stroke-width:2; stroke-opacity:0.1; fill:none" points="
  297.978,1423.18 297.978,47.2441 
  "/>
<polyline clip-path="url(#clip902)" style="stroke:#000000; stroke-width:2; stroke-opacity:0.1; fill:none" points="
  867.958,1423.18 867.958,47.2441 
  "/>
<polyline clip-path="url(#clip902)" style="stroke:#000000; stroke-width:2; stroke-opacity:0.1; fill:none" points="
  1437.94,1423.18 1437.94,47.2441 
  "/>
<polyline clip-path="url(#clip902)" style="stroke:#000000; stroke-width:2; stroke-opacity:0.1; fill:none" points="
  2007.92,1423.18 2007.92,47.2441 
  "/>
<polyline clip-path="url(#clip902)" style="stroke:#000000; stroke-width:2; stroke-opacity:0.1; fill:none" points="
  238.13,1314.03 2352.76,1314.03 
  "/>
<polyline clip-path="url(#clip902)" style="stroke:#000000; stroke-width:2; stroke-opacity:0.1; fill:none" points="
  238.13,1025.73 2352.76,1025.73 
  "/>
<polyline clip-path="url(#clip902)" style="stroke:#000000; stroke-width:2; stroke-opacity:0.1; fill:none" points="
  238.13,737.425 2352.76,737.425 
  "/>
<polyline clip-path="url(#clip902)" style="stroke:#000000; stroke-width:2; stroke-opacity:0.1; fill:none" points="
  238.13,449.123 2352.76,449.123 
  "/>
<polyline clip-path="url(#clip902)" style="stroke:#000000; stroke-width:2; stroke-opacity:0.1; fill:none" points="
  238.13,160.821 2352.76,160.821 
  "/>
<polyline clip-path="url(#clip900)" style="stroke:#000000; stroke-width:4; stroke-opacity:1; fill:none" points="
  238.13,1423.18 2352.76,1423.18 
  "/>
<polyline clip-path="url(#clip900)" style="stroke:#000000; stroke-width:4; stroke-opacity:1; fill:none" points="
  238.13,1423.18 238.13,47.2441 
  "/>
<polyline clip-path="url(#clip900)" style="stroke:#000000; stroke-width:4; stroke-opacity:1; fill:none" points="
  297.978,1423.18 297.978,1406.67 
  "/>
<polyline clip-path="url(#clip900)" style="stroke:#000000; stroke-width:4; stroke-opacity:1; fill:none" points="
  867.958,1423.18 867.958,1406.67 
  "/>
<polyline clip-path="url(#clip900)" style="stroke:#000000; stroke-width:4; stroke-opacity:1; fill:none" points="
  1437.94,1423.18 1437.94,1406.67 
  "/>
<polyline clip-path="url(#clip900)" style="stroke:#000000; stroke-width:4; stroke-opacity:1; fill:none" points="
  2007.92,1423.18 2007.92,1406.67 
  "/>
<polyline clip-path="url(#clip900)" style="stroke:#000000; stroke-width:4; stroke-opacity:1; fill:none" points="
  238.13,1314.03 263.506,1314.03 
  "/>
<polyline clip-path="url(#clip900)" style="stroke:#000000; stroke-width:4; stroke-opacity:1; fill:none" points="
  238.13,1025.73 263.506,1025.73 
  "/>
<polyline clip-path="url(#clip900)" style="stroke:#000000; stroke-width:4; stroke-opacity:1; fill:none" points="
  238.13,737.425 263.506,737.425 
  "/>
<polyline clip-path="url(#clip900)" style="stroke:#000000; stroke-width:4; stroke-opacity:1; fill:none" points="
  238.13,449.123 263.506,449.123 
  "/>
<polyline clip-path="url(#clip900)" style="stroke:#000000; stroke-width:4; stroke-opacity:1; fill:none" points="
  238.13,160.821 263.506,160.821 
  "/>
<path clip-path="url(#clip900)" d="M 0 0 M297.978 1445.17 Q294.367 1445.17 292.538 1448.74 Q290.733 1452.28 290.733 1459.41 Q290.733 1466.51 292.538 1470.08 Q294.367 1473.62 297.978 1473.62 Q301.612 1473.62 303.418 1470.08 Q305.246 1466.51 305.246 1459.41 Q305.246 1452.28 303.418 1448.74 Q301.612 1445.17 297.978 1445.17 M297.978 1441.47 Q303.788 1441.47 306.844 1446.07 Q309.922 1450.66 309.922 1459.41 Q309.922 1468.13 306.844 1472.74 Q303.788 1477.32 297.978 1477.32 Q292.168 1477.32 289.089 1472.74 Q286.034 1468.13 286.034 1459.41 Q286.034 1450.66 289.089 1446.07 Q292.168 1441.47 297.978 1441.47 Z" fill="#000000" fill-rule="evenodd" fill-opacity="1" /><path clip-path="url(#clip900)" d="M 0 0 M831.326 1472.72 L838.965 1472.72 L838.965 1446.35 L830.655 1448.02 L830.655 1443.76 L838.919 1442.09 L843.595 1442.09 L843.595 1472.72 L851.234 1472.72 L851.234 1476.65 L831.326 1476.65 L831.326 1472.72 Z" fill="#000000" fill-rule="evenodd" fill-opacity="1" /><path clip-path="url(#clip900)" d="M 0 0 M866.303 1445.17 Q862.692 1445.17 860.863 1448.74 Q859.058 1452.28 859.058 1459.41 Q859.058 1466.51 860.863 1470.08 Q862.692 1473.62 866.303 1473.62 Q869.937 1473.62 871.743 1470.08 Q873.571 1466.51 873.571 1459.41 Q873.571 1452.28 871.743 1448.74 Q869.937 1445.17 866.303 1445.17 M866.303 1441.47 Q872.113 1441.47 875.169 1446.07 Q878.247 1450.66 878.247 1459.41 Q878.247 1468.13 875.169 1472.74 Q872.113 1477.32 866.303 1477.32 Q860.493 1477.32 857.414 1472.74 Q854.359 1468.13 854.359 1459.41 Q854.359 1450.66 857.414 1446.07 Q860.493 1441.47 866.303 1441.47 Z" fill="#000000" fill-rule="evenodd" fill-opacity="1" /><path clip-path="url(#clip900)" d="M 0 0 M893.317 1445.17 Q889.706 1445.17 887.877 1448.74 Q886.071 1452.28 886.071 1459.41 Q886.071 1466.51 887.877 1470.08 Q889.706 1473.62 893.317 1473.62 Q896.951 1473.62 898.756 1470.08 Q900.585 1466.51 900.585 1459.41 Q900.585 1452.28 898.756 1448.74 Q896.951 1445.17 893.317 1445.17 M893.317 1441.47 Q899.127 1441.47 902.182 1446.07 Q905.261 1450.66 905.261 1459.41 Q905.261 1468.13 902.182 1472.74 Q899.127 1477.32 893.317 1477.32 Q887.506 1477.32 884.428 1472.74 Q881.372 1468.13 881.372 1459.41 Q881.372 1450.66 884.428 1446.07 Q887.506 1441.47 893.317 1441.47 Z" fill="#000000" fill-rule="evenodd" fill-opacity="1" /><path clip-path="url(#clip900)" d="M 0 0 M1405.58 1472.72 L1421.9 1472.72 L1421.9 1476.65 L1399.95 1476.65 L1399.95 1472.72 Q1402.61 1469.96 1407.2 1465.33 Q1411.8 1460.68 1412.98 1459.34 Q1415.23 1456.81 1416.11 1455.08 Q1417.01 1453.32 1417.01 1451.63 Q1417.01 1448.87 1415.07 1447.14 Q1413.15 1445.4 1410.04 1445.4 Q1407.85 1445.4 1405.39 1446.17 Q1402.96 1446.93 1400.18 1448.48 L1400.18 1443.76 Q1403.01 1442.62 1405.46 1442.05 Q1407.91 1441.47 1409.95 1441.47 Q1415.32 1441.47 1418.52 1444.15 Q1421.71 1446.84 1421.71 1451.33 Q1421.71 1453.46 1420.9 1455.38 Q1420.11 1457.28 1418.01 1459.87 Q1417.43 1460.54 1414.33 1463.76 Q1411.23 1466.95 1405.58 1472.72 Z" fill="#000000" fill-rule="evenodd" fill-opacity="1" /><path clip-path="url(#clip900)" d="M 0 0 M1436.97 1445.17 Q1433.35 1445.17 1431.53 1448.74 Q1429.72 1452.28 1429.72 1459.41 Q1429.72 1466.51 1431.53 1470.08 Q1433.35 1473.62 1436.97 1473.62 Q1440.6 1473.62 1442.41 1470.08 Q1444.23 1466.51 1444.23 1459.41 Q1444.23 1452.28 1442.41 1448.74 Q1440.6 1445.17 1436.97 1445.17 M1436.97 1441.47 Q1442.78 1441.47 1445.83 1446.07 Q1448.91 1450.66 1448.91 1459.41 Q1448.91 1468.13 1445.83 1472.74 Q1442.78 1477.32 1436.97 1477.32 Q1431.16 1477.32 1428.08 1472.74 Q1425.02 1468.13 1425.02 1459.41 Q1425.02 1450.66 1428.08 1446.07 Q1431.16 1441.47 1436.97 1441.47 Z" fill="#000000" fill-rule="evenodd" fill-opacity="1" /><path clip-path="url(#clip900)" d="M 0 0 M1463.98 1445.17 Q1460.37 1445.17 1458.54 1448.74 Q1456.73 1452.28 1456.73 1459.41 Q1456.73 1466.51 1458.54 1470.08 Q1460.37 1473.62 1463.98 1473.62 Q1467.61 1473.62 1469.42 1470.08 Q1471.25 1466.51 1471.25 1459.41 Q1471.25 1452.28 1469.42 1448.74 Q1467.61 1445.17 1463.98 1445.17 M1463.98 1441.47 Q1469.79 1441.47 1472.85 1446.07 Q1475.92 1450.66 1475.92 1459.41 Q1475.92 1468.13 1472.85 1472.74 Q1469.79 1477.32 1463.98 1477.32 Q1458.17 1477.32 1455.09 1472.74 Q1452.04 1468.13 1452.04 1459.41 Q1452.04 1450.66 1455.09 1446.07 Q1458.17 1441.47 1463.98 1441.47 Z" fill="#000000" fill-rule="evenodd" fill-opacity="1" /><path clip-path="url(#clip900)" d="M 0 0 M1985.15 1458.02 Q1988.51 1458.74 1990.38 1461 Q1992.28 1463.27 1992.28 1466.61 Q1992.28 1471.72 1988.76 1474.52 Q1985.24 1477.32 1978.76 1477.32 Q1976.59 1477.32 1974.27 1476.88 Q1971.98 1476.47 1969.53 1475.61 L1969.53 1471.1 Q1971.47 1472.23 1973.79 1472.81 Q1976.1 1473.39 1978.62 1473.39 Q1983.02 1473.39 1985.31 1471.65 Q1987.63 1469.92 1987.63 1466.61 Q1987.63 1463.55 1985.48 1461.84 Q1983.35 1460.1 1979.53 1460.1 L1975.5 1460.1 L1975.5 1456.26 L1979.71 1456.26 Q1983.16 1456.26 1984.99 1454.89 Q1986.82 1453.5 1986.82 1450.91 Q1986.82 1448.25 1984.92 1446.84 Q1983.05 1445.4 1979.53 1445.4 Q1977.61 1445.4 1975.41 1445.82 Q1973.21 1446.24 1970.57 1447.11 L1970.57 1442.95 Q1973.23 1442.21 1975.55 1441.84 Q1977.88 1441.47 1979.94 1441.47 Q1985.27 1441.47 1988.37 1443.9 Q1991.47 1446.3 1991.47 1450.43 Q1991.47 1453.3 1989.83 1455.29 Q1988.18 1457.25 1985.15 1458.02 Z" fill="#000000" fill-rule="evenodd" fill-opacity="1" /><path clip-path="url(#clip900)" d="M 0 0 M2007.35 1445.17 Q2003.74 1445.17 2001.91 1448.74 Q2000.11 1452.28 2000.11 1459.41 Q2000.11 1466.51 2001.91 1470.08 Q2003.74 1473.62 2007.35 1473.62 Q2010.99 1473.62 2012.79 1470.08 Q2014.62 1466.51 2014.62 1459.41 Q2014.62 1452.28 2012.79 1448.74 Q2010.99 1445.17 2007.35 1445.17 M2007.35 1441.47 Q2013.16 1441.47 2016.22 1446.07 Q2019.3 1450.66 2019.3 1459.41 Q2019.3 1468.13 2016.22 1472.74 Q2013.16 1477.32 2007.35 1477.32 Q2001.54 1477.32 1998.46 1472.74 Q1995.41 1468.13 1995.41 1459.41 Q1995.41 1450.66 1998.46 1446.07 Q2001.54 1441.47 2007.35 1441.47 Z" fill="#000000" fill-rule="evenodd" fill-opacity="1" /><path clip-path="url(#clip900)" d="M 0 0 M2034.36 1445.17 Q2030.75 1445.17 2028.92 1448.74 Q2027.12 1452.28 2027.12 1459.41 Q2027.12 1466.51 2028.92 1470.08 Q2030.75 1473.62 2034.36 1473.62 Q2038 1473.62 2039.8 1470.08 Q2041.63 1466.51 2041.63 1459.41 Q2041.63 1452.28 2039.8 1448.74 Q2038 1445.17 2034.36 1445.17 M2034.36 1441.47 Q2040.17 1441.47 2043.23 1446.07 Q2046.31 1450.66 2046.31 1459.41 Q2046.31 1468.13 2043.23 1472.74 Q2040.17 1477.32 2034.36 1477.32 Q2028.55 1477.32 2025.48 1472.74 Q2022.42 1468.13 2022.42 1459.41 Q2022.42 1450.66 2025.48 1446.07 Q2028.55 1441.47 2034.36 1441.47 Z" fill="#000000" fill-rule="evenodd" fill-opacity="1" /><path clip-path="url(#clip900)" d="M 0 0 M138.205 1299.83 Q134.593 1299.83 132.765 1303.39 Q130.959 1306.93 130.959 1314.06 Q130.959 1321.17 132.765 1324.73 Q134.593 1328.28 138.205 1328.28 Q141.839 1328.28 143.644 1324.73 Q145.473 1321.17 145.473 1314.06 Q145.473 1306.93 143.644 1303.39 Q141.839 1299.83 138.205 1299.83 M138.205 1296.12 Q144.015 1296.12 147.07 1300.73 Q150.149 1305.31 150.149 1314.06 Q150.149 1322.79 147.07 1327.4 Q144.015 1331.98 138.205 1331.98 Q132.394 1331.98 129.316 1327.4 Q126.26 1322.79 126.26 1314.06 Q126.26 1305.31 129.316 1300.73 Q132.394 1296.12 138.205 1296.12 Z" fill="#000000" fill-rule="evenodd" fill-opacity="1" /><path clip-path="url(#clip900)" d="M 0 0 M155.218 1325.43 L160.103 1325.43 L160.103 1331.31 L155.218 1331.31 L155.218 1325.43 Z" fill="#000000" fill-rule="evenodd" fill-opacity="1" /><path clip-path="url(#clip900)" d="M 0 0 M175.172 1299.83 Q171.561 1299.83 169.732 1303.39 Q167.927 1306.93 167.927 1314.06 Q167.927 1321.17 169.732 1324.73 Q171.561 1328.28 175.172 1328.28 Q178.806 1328.28 180.612 1324.73 Q182.44 1321.17 182.44 1314.06 Q182.44 1306.93 180.612 1303.39 Q178.806 1299.83 175.172 1299.83 M175.172 1296.12 Q180.982 1296.12 184.038 1300.73 Q187.116 1305.31 187.116 1314.06 Q187.116 1322.79 184.038 1327.4 Q180.982 1331.98 175.172 1331.98 Q169.362 1331.98 166.283 1327.4 Q163.228 1322.79 163.228 1314.06 Q163.228 1305.31 166.283 1300.73 Q169.362 1296.12 175.172 1296.12 Z" fill="#000000" fill-rule="evenodd" fill-opacity="1" /><path clip-path="url(#clip900)" d="M 0 0 M202.186 1299.83 Q198.575 1299.83 196.746 1303.39 Q194.94 1306.93 194.94 1314.06 Q194.94 1321.17 196.746 1324.73 Q198.575 1328.28 202.186 1328.28 Q205.82 1328.28 207.625 1324.73 Q209.454 1321.17 209.454 1314.06 Q209.454 1306.93 207.625 1303.39 Q205.82 1299.83 202.186 1299.83 M202.186 1296.12 Q207.996 1296.12 211.051 1300.73 Q214.13 1305.31 214.13 1314.06 Q214.13 1322.79 211.051 1327.4 Q207.996 1331.98 202.186 1331.98 Q196.376 1331.98 193.297 1327.4 Q190.241 1322.79 190.241 1314.06 Q190.241 1305.31 193.297 1300.73 Q196.376 1296.12 202.186 1296.12 Z" fill="#000000" fill-rule="evenodd" fill-opacity="1" /><path clip-path="url(#clip900)" d="M 0 0 M140.797 1011.53 Q137.186 1011.53 135.357 1015.09 Q133.552 1018.63 133.552 1025.76 Q133.552 1032.87 135.357 1036.43 Q137.186 1039.97 140.797 1039.97 Q144.431 1039.97 146.237 1036.43 Q148.066 1032.87 148.066 1025.76 Q148.066 1018.63 146.237 1015.09 Q144.431 1011.53 140.797 1011.53 M140.797 1007.82 Q146.607 1007.82 149.663 1012.43 Q152.741 1017.01 152.741 1025.76 Q152.741 1034.49 149.663 1039.09 Q146.607 1043.68 140.797 1043.68 Q134.987 1043.68 131.908 1039.09 Q128.853 1034.49 128.853 1025.76 Q128.853 1017.01 131.908 1012.43 Q134.987 1007.82 140.797 1007.82 Z" fill="#000000" fill-rule="evenodd" fill-opacity="1" /><path clip-path="url(#clip900)" d="M 0 0 M157.811 1037.13 L162.695 1037.13 L162.695 1043.01 L157.811 1043.01 L157.811 1037.13 Z" fill="#000000" fill-rule="evenodd" fill-opacity="1" /><path clip-path="url(#clip900)" d="M 0 0 M171.792 1039.07 L188.112 1039.07 L188.112 1043.01 L166.167 1043.01 L166.167 1039.07 Q168.829 1036.32 173.413 1031.69 Q178.019 1027.03 179.2 1025.69 Q181.445 1023.17 182.325 1021.43 Q183.227 1019.67 183.227 1017.98 Q183.227 1015.23 181.283 1013.49 Q179.362 1011.76 176.26 1011.76 Q174.061 1011.76 171.607 1012.52 Q169.177 1013.28 166.399 1014.84 L166.399 1010.11 Q169.223 1008.98 171.677 1008.4 Q174.13 1007.82 176.167 1007.82 Q181.538 1007.82 184.732 1010.51 Q187.926 1013.19 187.926 1017.68 Q187.926 1019.81 187.116 1021.73 Q186.329 1023.63 184.223 1026.22 Q183.644 1026.9 180.542 1030.11 Q177.44 1033.31 171.792 1039.07 Z" fill="#000000" fill-rule="evenodd" fill-opacity="1" /><path clip-path="url(#clip900)" d="M 0 0 M193.227 1008.45 L211.584 1008.45 L211.584 1012.38 L197.51 1012.38 L197.51 1020.85 Q198.528 1020.51 199.547 1020.34 Q200.565 1020.16 201.584 1020.16 Q207.371 1020.16 210.75 1023.33 Q214.13 1026.5 214.13 1031.92 Q214.13 1037.5 210.658 1040.6 Q207.186 1043.68 200.866 1043.68 Q198.69 1043.68 196.422 1043.31 Q194.176 1042.94 191.769 1042.2 L191.769 1037.5 Q193.852 1038.63 196.075 1039.19 Q198.297 1039.74 200.774 1039.74 Q204.778 1039.74 207.116 1037.64 Q209.454 1035.53 209.454 1031.92 Q209.454 1028.31 207.116 1026.2 Q204.778 1024.09 200.774 1024.09 Q198.899 1024.09 197.024 1024.51 Q195.172 1024.93 193.227 1025.81 L193.227 1008.45 Z" fill="#000000" fill-rule="evenodd" fill-opacity="1" /><path clip-path="url(#clip900)" d="M 0 0 M139.2 723.223 Q135.589 723.223 133.76 726.788 Q131.955 730.33 131.955 737.459 Q131.955 744.566 133.76 748.131 Q135.589 751.672 139.2 751.672 Q142.834 751.672 144.64 748.131 Q146.468 744.566 146.468 737.459 Q146.468 730.33 144.64 726.788 Q142.834 723.223 139.2 723.223 M139.2 719.52 Q145.01 719.52 148.066 724.126 Q151.144 728.71 151.144 737.459 Q151.144 746.186 148.066 750.793 Q145.01 755.376 139.2 755.376 Q133.39 755.376 130.311 750.793 Q127.256 746.186 127.256 737.459 Q127.256 728.71 130.311 724.126 Q133.39 719.52 139.2 719.52 Z" fill="#000000" fill-rule="evenodd" fill-opacity="1" /><path clip-path="url(#clip900)" d="M 0 0 M156.214 748.825 L161.098 748.825 L161.098 754.705 L156.214 754.705 L156.214 748.825 Z" fill="#000000" fill-rule="evenodd" fill-opacity="1" /><path clip-path="url(#clip900)" d="M 0 0 M166.214 720.145 L184.57 720.145 L184.57 724.08 L170.496 724.08 L170.496 732.552 Q171.515 732.205 172.533 732.043 Q173.552 731.858 174.57 731.858 Q180.357 731.858 183.737 735.029 Q187.116 738.2 187.116 743.617 Q187.116 749.196 183.644 752.297 Q180.172 755.376 173.852 755.376 Q171.677 755.376 169.408 755.006 Q167.163 754.635 164.755 753.895 L164.755 749.196 Q166.839 750.33 169.061 750.885 Q171.283 751.441 173.76 751.441 Q177.765 751.441 180.102 749.334 Q182.44 747.228 182.44 743.617 Q182.44 740.006 180.102 737.899 Q177.765 735.793 173.76 735.793 Q171.885 735.793 170.01 736.209 Q168.158 736.626 166.214 737.506 L166.214 720.145 Z" fill="#000000" fill-rule="evenodd" fill-opacity="1" /><path clip-path="url(#clip900)" d="M 0 0 M202.186 723.223 Q198.575 723.223 196.746 726.788 Q194.94 730.33 194.94 737.459 Q194.94 744.566 196.746 748.131 Q198.575 751.672 202.186 751.672 Q205.82 751.672 207.625 748.131 Q209.454 744.566 209.454 737.459 Q209.454 730.33 207.625 726.788 Q205.82 723.223 202.186 723.223 M202.186 719.52 Q207.996 719.52 211.051 724.126 Q214.13 728.71 214.13 737.459 Q214.13 746.186 211.051 750.793 Q207.996 755.376 202.186 755.376 Q196.376 755.376 193.297 750.793 Q190.241 746.186 190.241 737.459 Q190.241 728.71 193.297 724.126 Q196.376 719.52 202.186 719.52 Z" fill="#000000" fill-rule="evenodd" fill-opacity="1" /><path clip-path="url(#clip900)" d="M 0 0 M140.103 434.922 Q136.492 434.922 134.663 438.487 Q132.857 442.028 132.857 449.158 Q132.857 456.264 134.663 459.829 Q136.492 463.371 140.103 463.371 Q143.737 463.371 145.542 459.829 Q147.371 456.264 147.371 449.158 Q147.371 442.028 145.542 438.487 Q143.737 434.922 140.103 434.922 M140.103 431.218 Q145.913 431.218 148.968 435.825 Q152.047 440.408 152.047 449.158 Q152.047 457.885 148.968 462.491 Q145.913 467.074 140.103 467.074 Q134.293 467.074 131.214 462.491 Q128.158 457.885 128.158 449.158 Q128.158 440.408 131.214 435.825 Q134.293 431.218 140.103 431.218 Z" fill="#000000" fill-rule="evenodd" fill-opacity="1" /><path clip-path="url(#clip900)" d="M 0 0 M157.116 460.523 L162.001 460.523 L162.001 466.403 L157.116 466.403 L157.116 460.523 Z" fill="#000000" fill-rule="evenodd" fill-opacity="1" /><path clip-path="url(#clip900)" d="M 0 0 M165.89 431.843 L188.112 431.843 L188.112 433.834 L175.565 466.403 L170.681 466.403 L182.487 435.778 L165.89 435.778 L165.89 431.843 Z" fill="#000000" fill-rule="evenodd" fill-opacity="1" /><path clip-path="url(#clip900)" d="M 0 0 M193.227 431.843 L211.584 431.843 L211.584 435.778 L197.51 435.778 L197.51 444.25 Q198.528 443.903 199.547 443.741 Q200.565 443.556 201.584 443.556 Q207.371 443.556 210.75 446.727 Q214.13 449.899 214.13 455.315 Q214.13 460.894 210.658 463.996 Q207.186 467.074 200.866 467.074 Q198.69 467.074 196.422 466.704 Q194.176 466.334 191.769 465.593 L191.769 460.894 Q193.852 462.028 196.075 462.584 Q198.297 463.139 200.774 463.139 Q204.778 463.139 207.116 461.033 Q209.454 458.926 209.454 455.315 Q209.454 451.704 207.116 449.598 Q204.778 447.491 200.774 447.491 Q198.899 447.491 197.024 447.908 Q195.172 448.324 193.227 449.204 L193.227 431.843 Z" fill="#000000" fill-rule="evenodd" fill-opacity="1" /><path clip-path="url(#clip900)" d="M 0 0 M130.242 174.166 L137.88 174.166 L137.88 147.801 L129.57 149.467 L129.57 145.208 L137.834 143.541 L142.51 143.541 L142.51 174.166 L150.149 174.166 L150.149 178.101 L130.242 178.101 L130.242 174.166 Z" fill="#000000" fill-rule="evenodd" fill-opacity="1" /><path clip-path="url(#clip900)" d="M 0 0 M155.218 172.222 L160.103 172.222 L160.103 178.101 L155.218 178.101 L155.218 172.222 Z" fill="#000000" fill-rule="evenodd" fill-opacity="1" /><path clip-path="url(#clip900)" d="M 0 0 M175.172 146.62 Q171.561 146.62 169.732 150.185 Q167.927 153.727 167.927 160.856 Q167.927 167.963 169.732 171.527 Q171.561 175.069 175.172 175.069 Q178.806 175.069 180.612 171.527 Q182.44 167.963 182.44 160.856 Q182.44 153.727 180.612 150.185 Q178.806 146.62 175.172 146.62 M175.172 142.916 Q180.982 142.916 184.038 147.523 Q187.116 152.106 187.116 160.856 Q187.116 169.583 184.038 174.189 Q180.982 178.773 175.172 178.773 Q169.362 178.773 166.283 174.189 Q163.228 169.583 163.228 160.856 Q163.228 152.106 166.283 147.523 Q169.362 142.916 175.172 142.916 Z" fill="#000000" fill-rule="evenodd" fill-opacity="1" /><path clip-path="url(#clip900)" d="M 0 0 M202.186 146.62 Q198.575 146.62 196.746 150.185 Q194.94 153.727 194.94 160.856 Q194.94 167.963 196.746 171.527 Q198.575 175.069 202.186 175.069 Q205.82 175.069 207.625 171.527 Q209.454 167.963 209.454 160.856 Q209.454 153.727 207.625 150.185 Q205.82 146.62 202.186 146.62 M202.186 142.916 Q207.996 142.916 211.051 147.523 Q214.13 152.106 214.13 160.856 Q214.13 169.583 211.051 174.189 Q207.996 178.773 202.186 178.773 Q196.376 178.773 193.297 174.189 Q190.241 169.583 190.241 160.856 Q190.241 152.106 193.297 147.523 Q196.376 142.916 202.186 142.916 Z" fill="#000000" fill-rule="evenodd" fill-opacity="1" /><path clip-path="url(#clip900)" d="M 0 0 M1312.06 1520.4 L1299.17 1537.74 L1312.73 1556.04 L1305.82 1556.04 L1295.44 1542.04 L1285.07 1556.04 L1278.16 1556.04 L1292.01 1537.39 L1279.34 1520.4 L1286.24 1520.4 L1295.7 1533.1 L1305.15 1520.4 L1312.06 1520.4 Z" fill="#000000" fill-rule="evenodd" fill-opacity="1" /><path clip-path="url(#clip900)" d="M 0 0 M70.212 745.095 Q76.6732 745.095 80.3653 742.453 Q84.0256 739.779 84.0256 735.132 Q84.0256 730.485 80.3653 727.812 Q76.6732 725.138 70.212 725.138 Q63.7508 725.138 60.0905 727.812 Q56.3984 730.485 56.3984 735.132 Q56.3984 739.779 60.0905 742.453 Q63.7508 745.095 70.212 745.095 M82.657 725.138 Q85.8398 726.984 87.3994 729.817 Q88.9272 732.618 88.9272 736.565 Q88.9272 743.026 83.771 747.1 Q78.6147 751.142 70.212 751.142 Q61.8093 751.142 56.6531 747.1 Q51.4968 743.026 51.4968 736.565 Q51.4968 732.618 53.0564 729.817 Q54.5842 726.984 57.7671 725.138 L52.3562 725.138 L52.3562 719.282 L101.563 719.282 L101.563 725.138 L82.657 725.138 Z" fill="#000000" fill-rule="evenodd" fill-opacity="1" /><polyline clip-path="url(#clip902)" style="stroke:#009af9; stroke-width:4; stroke-opacity:1; fill:none" points="
  297.978,1314.03 300.669,1314.03 305.771,1314.03 310.872,1314.03 313.563,1314.03 316.255,1314.03 321.356,1314.03 326.458,1314.03 329.149,1314.03 
  331.84,1314.03 336.941,1314.03 342.043,1314.03 344.734,1314.03 347.425,1314.03 352.527,1314.03 357.628,1314.03 360.32,1314.03 
  363.011,1314.03 368.112,1314.03 373.214,1314.03 375.905,1314.03 378.596,1314.03 383.698,1314.03 388.799,1314.03 391.49,1314.03 
  394.181,1314.03 399.283,1314.03 404.385,1314.03 407.076,1314.03 409.767,1314.03 414.868,1314.03 419.97,1314.03 422.661,1314.03 
  425.352,1314.03 430.454,1314.03 435.555,1314.03 438.246,1314.03 440.938,1314.03 446.039,1314.03 451.141,1314.03 453.832,1314.03 
  456.523,1314.03 461.625,1314.03 466.726,1314.03 469.417,1314.03 472.108,1314.03 477.21,1314.03 482.311,1314.03 485.003,1314.03 
  487.694,1314.03 492.795,1314.03 497.897,1314.03 500.588,1314.03 503.279,1314.03 508.381,1314.03 513.482,1314.03 516.173,1314.03 
  518.865,1314.03 523.966,1314.03 529.068,1314.03 531.759,1314.03 534.45,1314.03 539.552,1314.03 544.653,1314.03 547.344,1314.03 
  550.035,1314.03 555.137,1314.03 560.238,1314.03 562.93,1314.03 565.621,1314.03 570.722,1314.03 575.824,1314.03 578.515,1314.03 
  581.206,1314.03 586.308,1314.03 591.409,1314.03 594.1,1314.03 596.792,1314.03 601.893,1314.03 606.995,1314.03 609.686,1314.03 
  612.377,1314.03 617.478,1314.03 622.58,1314.03 625.271,1314.03 627.962,1314.03 633.064,1314.03 638.165,1314.03 640.857,1314.03 
  643.548,1314.03 648.649,1314.03 653.751,1314.03 656.442,1314.03 659.133,1314.03 664.235,1314.03 669.336,1314.03 672.027,1314.03 
  674.719,1314.03 679.82,1314.03 684.922,1314.03 687.613,1314.03 690.304,1314.03 695.405,1314.03 700.507,1314.03 703.198,1314.03 
  705.889,1314.03 710.991,1314.03 716.092,1314.03 718.784,1314.03 721.475,1314.03 726.576,160.821 731.678,160.821 734.369,160.821 
  737.06,160.821 742.162,160.821 747.263,160.821 749.954,160.821 752.645,160.821 757.747,160.821 762.849,160.821 765.54,160.821 
  768.231,160.821 773.332,160.821 778.434,160.821 781.125,160.821 783.816,160.821 788.918,160.821 794.019,160.821 796.71,160.821 
  799.402,160.821 804.503,160.821 809.605,160.821 812.296,160.821 814.987,160.821 820.089,160.821 825.19,160.821 827.881,160.821 
  830.572,160.821 835.674,160.821 840.775,160.821 843.467,160.821 846.158,160.821 851.259,160.821 856.361,160.821 859.052,160.821 
  861.743,160.821 866.845,160.821 871.946,160.821 874.637,160.821 877.329,160.821 882.43,160.821 887.532,160.821 890.223,160.821 
  892.914,160.821 898.016,160.821 903.117,160.821 905.808,160.821 908.499,160.821 913.601,160.821 918.702,160.821 921.394,160.821 
  924.085,160.821 929.186,160.821 934.288,160.821 936.979,160.821 939.67,160.821 944.772,160.821 949.873,160.821 952.564,160.821 
  955.256,160.821 960.357,160.821 965.459,160.821 968.15,160.821 970.841,160.821 975.942,160.821 981.044,160.821 983.735,160.821 
  986.426,160.821 991.528,160.821 996.629,160.821 999.321,160.821 1002.01,160.821 1007.11,160.821 1012.21,1314.03 1014.91,1314.03 
  1017.6,1314.03 1022.7,1314.03 1027.8,1314.03 1030.49,1314.03 1033.18,1314.03 1038.28,1314.03 1043.39,1314.03 1046.08,1314.03 
  1048.77,1314.03 1053.87,1314.03 1058.97,1314.03 1061.66,1314.03 1064.35,1314.03 1069.45,1314.03 1074.56,1314.03 1077.25,1314.03 
  1079.94,1314.03 1085.04,1314.03 1090.14,1314.03 1092.83,1314.03 1095.52,1314.03 1100.63,1314.03 1105.73,1314.03 1108.42,1314.03 
  1111.11,1314.03 1116.21,1314.03 1121.31,1314.03 1124,1314.03 1126.69,1314.03 1131.8,1314.03 1136.9,1314.03 1139.59,1314.03 
  1142.28,1314.03 1147.38,1314.03 1152.48,1314.03 1155.17,1314.03 1157.87,1314.03 1162.97,1314.03 1168.07,1314.03 1170.76,1314.03 
  1173.45,1314.03 1178.55,1314.03 1183.65,1314.03 1186.35,1314.03 1189.04,1314.03 1194.14,1314.03 1199.24,1314.03 1201.93,1314.03 
  1204.62,1314.03 1209.72,1314.03 1214.82,1314.03 1217.52,1314.03 1220.21,1314.03 1225.31,1314.03 1230.41,1314.03 1233.1,1314.03 
  1235.79,1314.03 1240.89,1314.03 1246,1314.03 1248.69,1314.03 1251.38,1314.03 1256.48,1314.03 1261.58,1314.03 1264.27,1314.03 
  1266.96,1314.03 1272.06,1314.03 1277.17,1314.03 1279.86,1314.03 1282.55,1314.03 1287.65,1314.03 1292.75,1314.03 1295.44,1314.03 
  1298.13,1314.03 1303.24,1314.03 1308.34,1314.03 1311.03,1314.03 1313.72,1314.03 1318.82,1314.03 1323.92,1314.03 1326.61,1314.03 
  1329.3,1314.03 1334.41,1314.03 1339.51,1314.03 1342.2,1314.03 1344.89,1314.03 1349.99,1314.03 1355.09,1314.03 1357.78,1314.03 
  1360.48,1314.03 1365.58,1314.03 1370.68,1314.03 1373.37,1314.03 1376.06,1314.03 1381.16,1314.03 1386.26,1314.03 1388.96,1314.03 
  1391.65,1314.03 1396.75,1314.03 1401.85,1314.03 1404.54,1314.03 1407.23,1314.03 1412.33,1314.03 1417.43,1314.03 1420.13,1314.03 
  1422.82,1314.03 1427.92,1314.03 1433.02,1314.03 1435.71,1314.03 1438.4,1314.03 1443.5,1314.03 1448.61,1314.03 1451.3,1314.03 
  1453.99,1314.03 1459.09,1314.03 1464.19,1314.03 1466.88,1314.03 1469.57,1314.03 1474.67,1314.03 1479.78,1314.03 1482.47,1314.03 
  1485.16,1314.03 1490.26,1314.03 1495.36,1314.03 1498.05,1314.03 1500.74,1314.03 1505.85,1314.03 1510.95,1314.03 1513.64,1314.03 
  1516.33,1314.03 1521.43,1314.03 1526.53,1314.03 1529.22,1314.03 1531.92,1314.03 1537.02,1314.03 1542.12,1314.03 1544.81,1314.03 
  1547.5,1314.03 1552.6,1314.03 1557.7,1314.03 1560.39,1314.03 1563.09,1314.03 1568.19,1314.03 1573.29,1314.03 1575.98,1314.03 
  1578.67,1314.03 1583.77,1314.03 1588.87,1314.03 1591.57,1314.03 1594.26,1314.03 1599.36,1314.03 1604.46,1314.03 1607.15,1314.03 
  1609.84,1314.03 1614.94,1314.03 1620.05,1314.03 1622.74,1314.03 1625.43,1314.03 1630.53,1314.03 1635.63,1314.03 1638.32,1314.03 
  1641.01,1314.03 1646.11,1314.03 1651.22,1314.03 1653.91,1314.03 1656.6,1314.03 1661.7,1314.03 1666.8,1314.03 1669.49,1314.03 
  1672.18,1314.03 1677.29,1314.03 1682.39,1314.03 1685.08,1314.03 1687.77,1314.03 1692.87,1314.03 1697.97,1314.03 1700.66,1314.03 
  1703.35,1314.03 1708.46,1314.03 1713.56,1314.03 1716.25,1314.03 1718.94,1314.03 1724.04,1314.03 1729.14,1314.03 1731.83,1314.03 
  1734.53,1314.03 1739.63,1314.03 1744.73,1314.03 1747.42,1314.03 1750.11,1314.03 1755.21,1314.03 1760.31,1314.03 1763,1314.03 
  1765.7,1314.03 1770.8,1314.03 1775.9,1314.03 1778.59,1314.03 1781.28,1314.03 1786.38,1314.03 1791.48,1314.03 1794.18,1314.03 
  1796.87,1314.03 1801.97,1314.03 1807.07,1314.03 1809.76,1314.03 1812.45,1314.03 1817.55,1314.03 1822.66,1314.03 1825.35,1314.03 
  1828.04,1314.03 1833.14,1314.03 1838.24,1314.03 1840.93,1314.03 1843.62,1314.03 1848.72,1314.03 1853.83,1314.03 1856.52,1314.03 
  1859.21,1314.03 1864.31,1314.03 1869.41,1314.03 1872.1,1314.03 1874.79,1314.03 1879.9,1314.03 1885,1314.03 1887.69,1314.03 
  1890.38,1314.03 1895.48,1314.03 1900.58,1314.03 1903.27,1314.03 1905.96,1314.03 1911.07,1314.03 1916.17,1314.03 1918.86,1314.03 
  1921.55,1314.03 1926.65,1314.03 1931.75,1314.03 1934.44,1314.03 1937.14,1314.03 1942.24,1314.03 1947.34,1314.03 1950.03,1314.03 
  1952.72,1314.03 1957.82,1314.03 1962.92,1314.03 1965.61,1314.03 1968.31,1314.03 1973.41,1314.03 1978.51,1314.03 1981.2,1314.03 
  1983.89,1314.03 1988.99,1314.03 1994.09,1314.03 1996.79,1314.03 1999.48,1314.03 2004.58,1314.03 2009.68,1314.03 2012.37,1314.03 
  2015.06,1314.03 2020.16,1314.03 2025.27,1314.03 2027.96,1314.03 2030.65,1314.03 2035.75,1314.03 2040.85,1314.03 2043.54,1314.03 
  2046.23,1314.03 2051.33,1314.03 2056.44,1314.03 2059.13,1314.03 2061.82,1314.03 2066.92,1314.03 2072.02,1314.03 2074.71,1314.03 
  2077.4,1314.03 2082.51,1314.03 2087.61,1314.03 2090.3,1314.03 2092.99,1314.03 2098.09,1314.03 2103.19,1314.03 2105.88,1314.03 
  2108.57,1314.03 2113.68,1314.03 2118.78,1314.03 2121.47,1314.03 2124.16,1314.03 2129.26,1314.03 2134.36,1314.03 2137.05,1314.03 
  2139.75,1314.03 2144.85,1314.03 2149.95,1314.03 2152.64,1314.03 2155.33,1314.03 2160.43,1314.03 2165.53,1314.03 2168.22,1314.03 
  2170.92,1314.03 2176.02,1314.03 2181.12,1314.03 2183.81,1314.03 2186.5,1314.03 2191.6,1314.03 2196.7,1314.03 2199.4,1314.03 
  2202.09,1314.03 2207.19,1314.03 2212.29,1314.03 2214.98,1314.03 2217.67,1314.03 2222.77,1314.03 2227.88,1314.03 2230.57,1314.03 
  2233.26,1314.03 2238.36,1314.03 2243.46,1314.03 2246.15,1314.03 2248.84,1314.03 2253.94,1314.03 2259.05,1314.03 2261.74,1314.03 
  2264.43,1314.03 2269.53,1314.03 2274.63,1314.03 2277.32,1314.03 2280.01,1314.03 2285.12,1314.03 2290.22,1314.03 2292.91,1314.03 
  
  "/>
<polyline clip-path="url(#clip902)" style="stroke:#e26f46; stroke-width:4; stroke-opacity:1; fill:none" points="
  297.978,1314.03 300.669,1314.03 305.771,1314.03 310.872,1314.03 313.563,1314.03 316.255,1314.03 321.356,1314.03 326.458,1314.03 329.149,1314.03 
  331.84,1314.03 336.941,1314.03 342.043,1314.03 344.734,1314.03 347.425,1314.03 352.527,1314.03 357.628,1314.03 360.32,1314.03 
  363.011,1314.03 368.112,1314.03 373.214,1314.03 375.905,1314.03 378.596,1314.03 383.698,1314.03 388.799,1314.03 391.49,1314.03 
  394.181,1314.03 399.283,1314.03 404.385,1314.03 407.076,1314.03 409.767,1314.03 414.868,1314.03 419.97,1314.03 422.661,1314.03 
  425.352,1314.03 430.454,1314.03 435.555,1314.03 438.246,1314.03 440.938,1314.03 446.039,1314.03 451.141,1314.03 453.832,1314.03 
  456.523,1314.03 461.625,1314.03 466.726,1314.03 469.417,1314.03 472.108,1314.03 477.21,1314.03 482.311,1314.03 485.003,1314.03 
  487.694,1314.03 492.795,1314.03 497.897,1314.03 500.588,1314.03 503.279,1314.03 508.381,1314.03 513.482,1314.03 516.173,1314.03 
  518.865,1314.03 523.966,1314.03 529.068,1314.03 531.759,1314.03 534.45,1314.03 539.552,1314.03 544.653,1314.03 547.344,1314.03 
  550.035,1314.03 555.137,1314.03 560.238,1314.03 562.93,1314.03 565.621,1314.03 570.722,1314.03 575.824,1314.03 578.515,1314.03 
  581.206,1314.03 586.308,1314.03 591.409,1314.03 594.1,1314.03 596.792,1314.03 601.893,1314.03 606.995,1314.03 609.686,1314.03 
  612.377,1314.03 617.478,1314.03 622.58,1314.03 625.271,1314.03 627.962,1314.03 633.064,1314.03 638.165,1314.03 640.857,1314.03 
  643.548,1314.03 648.649,1314.03 653.751,1314.03 656.442,1314.03 659.133,1314.03 664.235,1314.03 669.336,1314.03 672.027,1314.03 
  674.719,1314.03 679.82,1314.03 684.922,1314.03 687.613,1314.03 690.304,1314.03 695.405,1314.03 700.507,1314.03 703.198,1314.03 
  705.889,1314.03 710.991,1314.03 716.092,1314.03 718.784,1314.03 721.475,1314.03 726.576,1314.03 731.678,1314.03 734.369,1314.03 
  737.06,1314.03 742.162,1314.03 747.263,1314.03 749.954,1314.03 752.645,1314.03 757.747,1314.03 762.849,1314.03 765.54,1314.03 
  768.231,1314.03 773.332,1314.03 778.434,1314.03 781.125,1314.03 783.816,1314.03 788.918,1314.03 794.019,1314.03 796.71,1314.03 
  799.402,1314.03 804.503,1314.03 809.605,1314.03 812.296,1314.03 812.296,1314.03 814.987,1314.03 820.089,1314.03 825.19,1314.03 827.881,1314.03 
  827.881,1314.03 830.572,1314.03 835.674,1314.03 840.775,1314.03 843.467,1314.03 843.467,1314.03 846.158,1314.03 851.259,1314.03 856.361,1314.03 859.052,1314.03 
  859.052,1314.03 861.743,1314.03 866.845,1314.03 871.946,1314.03 874.637,1314.03 874.637,1314.03 877.329,1314.03 882.43,1314.03 887.532,1314.03 890.223,1314.03 
  890.223,1314.03 892.914,1314.03 898.016,1314.03 903.117,1314.03 905.808,1314.03 905.808,1314.03 908.499,1314.03 913.601,1314.03 918.702,1314.03 921.394,1314.03 
  921.394,1314.03 924.085,1314.03 929.186,1314.03 934.288,1314.03 936.979,1314.03 936.979,1314.03 939.67,1314.03 944.772,1314.03 949.873,1314.03 952.564,1314.03 
  952.564,1314.03 955.256,1314.03 960.357,1314.03 965.459,1314.03 968.15,1314.03 968.15,1314.03 970.841,1314.03 975.942,1314.03 981.044,1314.03 983.735,1314.03 
  983.735,1314.03 986.426,1314.03 991.528,1314.03 996.629,1314.03 999.321,1314.03 999.321,1314.03 1002.01,1314.03 1007.11,1314.03 1012.21,1314.03 1014.91,1314.03 
  1014.91,1314.03 1017.6,1314.03 1022.7,1314.03 1027.8,1314.03 1030.49,1314.03 1030.49,1314.03 1033.18,1314.03 1038.28,1314.03 1043.39,1314.03 1046.08,1314.03 
  1046.08,1314.03 1048.77,1314.03 1053.87,1314.03 1058.97,1314.03 1061.66,1314.03 1061.66,1314.03 1064.35,1314.03 1069.45,1314.03 1074.56,1314.03 1077.25,1314.03 
  1077.25,1314.03 1079.94,1314.03 1085.04,1314.03 1090.14,1314.03 1092.83,1314.03 1092.83,1314.03 1095.52,1314.03 1100.63,1314.03 1105.73,1314.03 1108.42,1314.03 
  1108.42,1314.03 1111.11,1314.03 1116.21,1314.03 1121.31,1314.03 1124,1314.03 1124,1314.03 1126.69,1314.03 1131.8,1314.02 1136.9,1314.02 1139.59,1314.02 
  1139.59,1314.02 1142.28,1314.02 1147.38,1314.03 1152.48,1314.05 1155.17,1314.06 1155.17,1314.06 1157.87,1314.07 1162.97,1314.06 1168.07,1314.02 1170.76,1313.99 
  1170.76,1314 1173.45,1313.93 1178.55,1313.85 1183.65,1313.84 1186.35,1313.86 1186.35,1313.83 1189.04,1313.96 1194.14,1314.28 1199.24,1314.69 1201.93,1314.94 
  1201.93,1314.89 1204.62,1315.1 1209.72,1314.94 1214.82,1314.01 1217.52,1313.21 1217.52,1313.47 1220.21,1311.95 1225.31,1309.47 1230.41,1307.59 1233.1,1306.88 
  1233.1,1306.94 1235.79,1307.52 1240.89,1312.42 1246,1322.33 1248.69,1329.58 1248.69,1328.09 1251.38,1339.03 1256.48,1356.22 1261.58,1368.28 1264.27,1372.37 
  1264.27,1371.56 1266.96,1369.54 1272.06,1342.01 1277.17,1283.3 1279.86,1239.71 1279.86,1243.24 1282.55,1181.13 1287.65,1043.03 1292.75,879.55 1295.44,783.601 
  1295.44,787.48 1298.13,686.454 1303.24,509.679 1308.34,353.11 1311.03,279.026 1311.03,277.337 1313.72,220.745 1318.82,141.666 1323.92,98.5433 1326.61,89.8927 
  1326.61,86.1857 1329.3,90.0236 1334.41,103.878 1339.51,125.36 1342.2,139.368 1342.2,138.746 1344.89,149.809 1349.99,164.932 1355.09,172.562 1357.78,173.636 
  1357.78,174.381 1360.48,172.662 1365.58,168.702 1370.68,164.045 1373.37,161.396 1373.37,161.401 1376.06,159.916 1381.16,158.325 1386.26,158.251 1388.96,158.789 
  1388.96,158.667 1391.65,159.39 1396.75,160.493 1401.85,161.23 1404.54,161.466 1404.54,161.505 1407.23,161.464 1412.33,161.294 1417.43,161.022 1420.13,160.846 
  1420.13,160.848 1422.82,160.76 1427.92,160.671 1433.02,160.675 1435.71,160.713 1435.71,160.71 1438.4,160.743 1443.5,160.792 1448.61,160.827 1451.3,160.84 
  1451.3,160.834 1453.99,160.862 1459.09,160.92 1464.19,160.984 1466.88,161.02 1466.88,161.015 1469.57,161.019 1474.67,160.901 1479.78,160.616 1482.47,160.397 
  1482.47,160.469 1485.16,160.13 1490.26,159.786 1495.36,159.862 1498.05,160.084 1498.05,159.968 1500.74,160.751 1505.85,162.655 1510.95,165.07 1513.64,166.536 
  1513.64,166.231 1516.33,167.616 1521.43,167.365 1526.53,163.24 1529.22,159.461 1529.22,160.379 1531.92,152.972 1537.02,137.599 1542.12,120.804 1544.81,111.503 
  1544.81,113.115 1547.5,104.73 1552.6,105.755 1557.7,129.385 1560.39,151.142 1560.39,149.197 1563.09,186.947 1568.19,285.055 1573.29,417.089 1575.98,500.073 
  1575.98,495.38 1578.67,591.514 1583.77,772.159 1588.87,949.358 1591.57,1040.89 1591.57,1040.48 1594.26,1120.47 1599.36,1243.31 1604.46,1328.85 1607.15,1359.1 
  1607.15,1362.94 1609.84,1375.66 1614.94,1384.24 1620.05,1373.75 1622.74,1361.04 1622.74,1362.87 1625.43,1348.96 1630.53,1326.95 1635.63,1310.83 1638.32,1304.76 
  1638.32,1304.1 1641.01,1302.4 1646.11,1302.16 1651.22,1305.5 1653.91,1308.57 1653.91,1308.29 1656.6,1310.96 1661.7,1314.63 1666.8,1316.53 1669.49,1316.82 
  1669.49,1316.99 1672.18,1316.53 1677.29,1315.55 1682.39,1314.46 1685.08,1313.87 1685.08,1313.86 1687.77,1313.61 1692.87,1313.4 1697.97,1313.51 1700.66,1313.7 
  1700.66,1313.68 1703.35,1313.85 1708.46,1314.08 1713.56,1314.19 1716.25,1314.2 1716.25,1314.21 1718.94,1314.16 1724.04,1314.09 1729.14,1314.02 1731.83,1313.99 
  1731.83,1313.99 1734.53,1313.99 1739.63,1313.99 1744.73,1314.01 1747.42,1314.02 1747.42,1314.02 1750.11,1314.03 1755.21,1314.04 1760.31,1314.04 1763,1314.03 
  1763,1314.03 1765.7,1314.03 1770.8,1314.03 1775.9,1314.02 1778.59,1314.02 1778.59,1314.02 1781.28,1314.03 1786.38,1314.03 1791.48,1314.03 1794.18,1314.03 
  1794.18,1314.03 1796.87,1314.03 1801.97,1314.03 1807.07,1314.03 1809.76,1314.03 1809.76,1314.03 1812.45,1314.03 1817.55,1314.03 1822.66,1314.03 1825.35,1314.03 
  1825.35,1314.03 1828.04,1314.03 1833.14,1314.03 1838.24,1314.03 1840.93,1314.03 1840.93,1314.03 1843.62,1314.03 1848.72,1314.03 1853.83,1314.03 1856.52,1314.03 
  1856.52,1314.03 1859.21,1314.03 1864.31,1314.03 1869.41,1314.03 1872.1,1314.03 1872.1,1314.03 1874.79,1314.03 1879.9,1314.03 1885,1314.03 1887.69,1314.03 
  1887.69,1314.03 1890.38,1314.03 1895.48,1314.03 1900.58,1314.03 1903.27,1314.03 1903.27,1314.03 1905.96,1314.03 1911.07,1314.03 1916.17,1314.03 1918.86,1314.03 
  1918.86,1314.03 1921.55,1314.03 1926.65,1314.03 1931.75,1314.03 1934.44,1314.03 1934.44,1314.03 1937.14,1314.03 1942.24,1314.03 1947.34,1314.03 1950.03,1314.03 
  1950.03,1314.03 1952.72,1314.03 1957.82,1314.03 1962.92,1314.03 1965.61,1314.03 1965.61,1314.03 1968.31,1314.03 1973.41,1314.03 1978.51,1314.03 1981.2,1314.03 
  1981.2,1314.03 1983.89,1314.03 1988.99,1314.03 1994.09,1314.03 1996.79,1314.03 1996.79,1314.03 1999.48,1314.03 2004.58,1314.03 2009.68,1314.03 2012.37,1314.03 
  2012.37,1314.03 2015.06,1314.03 2020.16,1314.03 2025.27,1314.03 2027.96,1314.03 2027.96,1314.03 2030.65,1314.03 2035.75,1314.03 2040.85,1314.03 2043.54,1314.03 
  2043.54,1314.03 2046.23,1314.03 2051.33,1314.03 2056.44,1314.03 2059.13,1314.03 2061.82,1314.03 2066.92,1314.03 2072.02,1314.03 2074.71,1314.03 
  2077.4,1314.03 2082.51,1314.03 2087.61,1314.03 2090.3,1314.03 2092.99,1314.03 2098.09,1314.03 2103.19,1314.03 2105.88,1314.03 
  2108.57,1314.03 2113.68,1314.03 2118.78,1314.03 2121.47,1314.03 2124.16,1314.03 2129.26,1314.03 2134.36,1314.03 2137.05,1314.03 
  2139.75,1314.03 2144.85,1314.03 2149.95,1314.03 2152.64,1314.03 2155.33,1314.03 2160.43,1314.03 2165.53,1314.03 2168.22,1314.03 
  2170.92,1314.03 2176.02,1314.03 2181.12,1314.03 2183.81,1314.03 2186.5,1314.03 2191.6,1314.03 2196.7,1314.03 2199.4,1314.03 
  2202.09,1314.03 2207.19,1314.03 2212.29,1314.03 2214.98,1314.03 2217.67,1314.03 2222.77,1314.03 2227.88,1314.03 2230.57,1314.03 
  2233.26,1314.03 2238.36,1314.03 2243.46,1314.03 2246.15,1314.03 2248.84,1314.03 2253.94,1314.03 2259.05,1314.03 2261.74,1314.03 
  2264.43,1314.03 2269.53,1314.03 2274.63,1314.03 2277.32,1314.03 2280.01,1314.03 2285.12,1314.03 2290.22,1314.03 2292.91,1314.03 
  
  "/>
<path clip-path="url(#clip900)" d="
M1802.38 274.549 L2282.27 274.549 L2282.27 93.1086 L1802.38 93.1086  Z
  " fill="#ffffff" fill-rule="evenodd" fill-opacity="1"/>
<polyline clip-path="url(#clip900)" style="stroke:#000000; stroke-width:4; stroke-opacity:1; fill:none" points="
  1802.38,274.549 2282.27,274.549 2282.27,93.1086 1802.38,93.1086 1802.38,274.549 
  "/>
<polyline clip-path="url(#clip900)" style="stroke:#009af9; stroke-width:4; stroke-opacity:1; fill:none" points="
  1825.88,153.589 1966.85,153.589 
  "/>
<path clip-path="url(#clip900)" d="M 0 0 M1994.75 157.929 Q1994.75 162.628 1996.67 165.313 Q1998.61 167.975 2001.99 167.975 Q2005.37 167.975 2007.31 165.313 Q2009.26 162.628 2009.26 157.929 Q2009.26 153.23 2007.31 150.568 Q2005.37 147.883 2001.99 147.883 Q1998.61 147.883 1996.67 150.568 Q1994.75 153.23 1994.75 157.929 M2009.26 166.98 Q2007.92 169.295 2005.86 170.429 Q2003.82 171.54 2000.95 171.54 Q1996.25 171.54 1993.29 167.79 Q1990.35 164.04 1990.35 157.929 Q1990.35 151.818 1993.29 148.068 Q1996.25 144.318 2000.95 144.318 Q2003.82 144.318 2005.86 145.452 Q2007.92 146.563 2009.26 148.878 L2009.26 144.943 L2013.52 144.943 L2013.52 180.73 L2009.26 180.73 L2009.26 166.98 Z" fill="#000000" fill-rule="evenodd" fill-opacity="1" /><path clip-path="url(#clip900)" d="M 0 0 M2019.07 164.989 L2023.96 164.989 L2023.96 168.97 L2020.16 176.378 L2017.18 176.378 L2019.07 168.97 L2019.07 164.989 Z" fill="#000000" fill-rule="evenodd" fill-opacity="1" /><path clip-path="url(#clip900)" d="M 0 0 M2047.71 137.582 L2047.71 144.943 L2056.48 144.943 L2056.48 148.253 L2047.71 148.253 L2047.71 162.327 Q2047.71 165.498 2048.56 166.401 Q2049.44 167.304 2052.11 167.304 L2056.48 167.304 L2056.48 170.869 L2052.11 170.869 Q2047.18 170.869 2045.3 169.04 Q2043.43 167.188 2043.43 162.327 L2043.43 148.253 L2040.3 148.253 L2040.3 144.943 L2043.43 144.943 L2043.43 137.582 L2047.71 137.582 Z" fill="#000000" fill-rule="evenodd" fill-opacity="1" /><path clip-path="url(#clip900)" d="M 0 0 M2061.5 149.341 L2091.18 149.341 L2091.18 153.23 L2061.5 153.23 L2061.5 149.341 M2061.5 158.785 L2091.18 158.785 L2091.18 162.721 L2061.5 162.721 L2061.5 158.785 Z" fill="#000000" fill-rule="evenodd" fill-opacity="1" /><path clip-path="url(#clip900)" d="M 0 0 M2106.25 139.387 Q2102.64 139.387 2100.81 142.952 Q2099 146.494 2099 153.623 Q2099 160.73 2100.81 164.295 Q2102.64 167.836 2106.25 167.836 Q2109.88 167.836 2111.69 164.295 Q2113.52 160.73 2113.52 153.623 Q2113.52 146.494 2111.69 142.952 Q2109.88 139.387 2106.25 139.387 M2106.25 135.684 Q2112.06 135.684 2115.12 140.29 Q2118.19 144.873 2118.19 153.623 Q2118.19 162.35 2115.12 166.957 Q2112.06 171.54 2106.25 171.54 Q2100.44 171.54 2097.36 166.957 Q2094.31 162.35 2094.31 153.623 Q2094.31 144.873 2097.36 140.29 Q2100.44 135.684 2106.25 135.684 Z" fill="#000000" fill-rule="evenodd" fill-opacity="1" /><path clip-path="url(#clip900)" d="M 0 0 M2123.26 164.989 L2128.15 164.989 L2128.15 170.869 L2123.26 170.869 L2123.26 164.989 Z" fill="#000000" fill-rule="evenodd" fill-opacity="1" /><path clip-path="url(#clip900)" d="M 0 0 M2143.22 139.387 Q2139.61 139.387 2137.78 142.952 Q2135.97 146.494 2135.97 153.623 Q2135.97 160.73 2137.78 164.295 Q2139.61 167.836 2143.22 167.836 Q2146.85 167.836 2148.66 164.295 Q2150.49 160.73 2150.49 153.623 Q2150.49 146.494 2148.66 142.952 Q2146.85 139.387 2143.22 139.387 M2143.22 135.684 Q2149.03 135.684 2152.08 140.29 Q2155.16 144.873 2155.16 153.623 Q2155.16 162.35 2152.08 166.957 Q2149.03 171.54 2143.22 171.54 Q2137.41 171.54 2134.33 166.957 Q2131.27 162.35 2131.27 153.623 Q2131.27 144.873 2134.33 140.29 Q2137.41 135.684 2143.22 135.684 Z" fill="#000000" fill-rule="evenodd" fill-opacity="1" /><polyline clip-path="url(#clip900)" style="stroke:#e26f46; stroke-width:4; stroke-opacity:1; fill:none" points="
  1825.88,214.069 1966.85,214.069 
  "/>
<path clip-path="url(#clip900)" d="M 0 0 M1994.75 218.409 Q1994.75 223.108 1996.67 225.793 Q1998.61 228.455 2001.99 228.455 Q2005.37 228.455 2007.31 225.793 Q2009.26 223.108 2009.26 218.409 Q2009.26 213.71 2007.31 211.048 Q2005.37 208.363 2001.99 208.363 Q1998.61 208.363 1996.67 211.048 Q1994.75 213.71 1994.75 218.409 M2009.26 227.46 Q2007.92 229.775 2005.86 230.909 Q2003.82 232.02 2000.95 232.02 Q1996.25 232.02 1993.29 228.27 Q1990.35 224.52 1990.35 218.409 Q1990.35 212.298 1993.29 208.548 Q1996.25 204.798 2000.95 204.798 Q2003.82 204.798 2005.86 205.932 Q2007.92 207.043 2009.26 209.358 L2009.26 205.423 L2013.52 205.423 L2013.52 241.21 L2009.26 241.21 L2009.26 227.46 Z" fill="#000000" fill-rule="evenodd" fill-opacity="1" /><path clip-path="url(#clip900)" d="M 0 0 M2019.07 225.469 L2023.96 225.469 L2023.96 229.45 L2020.16 236.858 L2017.18 236.858 L2019.07 229.45 L2019.07 225.469 Z" fill="#000000" fill-rule="evenodd" fill-opacity="1" /><path clip-path="url(#clip900)" d="M 0 0 M2047.71 198.062 L2047.71 205.423 L2056.48 205.423 L2056.48 208.733 L2047.71 208.733 L2047.71 222.807 Q2047.71 225.978 2048.56 226.881 Q2049.44 227.784 2052.11 227.784 L2056.48 227.784 L2056.48 231.349 L2052.11 231.349 Q2047.18 231.349 2045.3 229.52 Q2043.43 227.668 2043.43 222.807 L2043.43 208.733 L2040.3 208.733 L2040.3 205.423 L2043.43 205.423 L2043.43 198.062 L2047.71 198.062 Z" fill="#000000" fill-rule="evenodd" fill-opacity="1" /><path clip-path="url(#clip900)" d="M 0 0 M2061.5 209.821 L2091.18 209.821 L2091.18 213.71 L2061.5 213.71 L2061.5 209.821 M2061.5 219.265 L2091.18 219.265 L2091.18 223.201 L2061.5 223.201 L2061.5 219.265 Z" fill="#000000" fill-rule="evenodd" fill-opacity="1" /><path clip-path="url(#clip900)" d="M 0 0 M2109.1 200.863 L2097.29 219.312 L2109.1 219.312 L2109.1 200.863 M2107.87 196.789 L2113.75 196.789 L2113.75 219.312 L2118.68 219.312 L2118.68 223.201 L2113.75 223.201 L2113.75 231.349 L2109.1 231.349 L2109.1 223.201 L2093.5 223.201 L2093.5 218.687 L2107.87 196.789 Z" fill="#000000" fill-rule="evenodd" fill-opacity="1" /><path clip-path="url(#clip900)" d="M 0 0 M2123.8 196.789 L2142.15 196.789 L2142.15 200.724 L2128.08 200.724 L2128.08 209.196 Q2129.1 208.849 2130.12 208.687 Q2131.13 208.502 2132.15 208.502 Q2137.94 208.502 2141.32 211.673 Q2144.7 214.844 2144.7 220.261 Q2144.7 225.839 2141.23 228.941 Q2137.75 232.02 2131.43 232.02 Q2129.26 232.02 2126.99 231.65 Q2124.74 231.279 2122.34 230.538 L2122.34 225.839 Q2124.42 226.974 2126.64 227.529 Q2128.87 228.085 2131.34 228.085 Q2135.35 228.085 2137.68 225.978 Q2140.02 223.872 2140.02 220.261 Q2140.02 216.65 2137.68 214.543 Q2135.35 212.437 2131.34 212.437 Q2129.47 212.437 2127.59 212.853 Q2125.74 213.27 2123.8 214.15 L2123.8 196.789 Z" fill="#000000" fill-rule="evenodd" fill-opacity="1" /><path clip-path="url(#clip900)" d="M 0 0 M2159.77 199.867 Q2156.16 199.867 2154.33 203.432 Q2152.52 206.974 2152.52 214.103 Q2152.52 221.21 2154.33 224.775 Q2156.16 228.316 2159.77 228.316 Q2163.4 228.316 2165.21 224.775 Q2167.04 221.21 2167.04 214.103 Q2167.04 206.974 2165.21 203.432 Q2163.4 199.867 2159.77 199.867 M2159.77 196.164 Q2165.58 196.164 2168.63 200.77 Q2171.71 205.353 2171.71 214.103 Q2171.71 222.83 2168.63 227.437 Q2165.58 232.02 2159.77 232.02 Q2153.96 232.02 2150.88 227.437 Q2147.82 222.83 2147.82 214.103 Q2147.82 205.353 2150.88 200.77 Q2153.96 196.164 2159.77 196.164 Z" fill="#000000" fill-rule="evenodd" fill-opacity="1" /><path clip-path="url(#clip900)" d="M 0 0 M2176.78 225.469 L2181.67 225.469 L2181.67 231.349 L2176.78 231.349 L2176.78 225.469 Z" fill="#000000" fill-rule="evenodd" fill-opacity="1" /><path clip-path="url(#clip900)" d="M 0 0 M2199.58 200.863 L2187.78 219.312 L2199.58 219.312 L2199.58 200.863 M2198.36 196.789 L2204.24 196.789 L2204.24 219.312 L2209.17 219.312 L2209.17 223.201 L2204.24 223.201 L2204.24 231.349 L2199.58 231.349 L2199.58 223.201 L2183.98 223.201 L2183.98 218.687 L2198.36 196.789 Z" fill="#000000" fill-rule="evenodd" fill-opacity="1" /><path clip-path="url(#clip900)" d="M 0 0 M2213.05 196.789 L2235.28 196.789 L2235.28 198.779 L2222.73 231.349 L2217.85 231.349 L2229.65 200.724 L2213.05 200.724 L2213.05 196.789 Z" fill="#000000" fill-rule="evenodd" fill-opacity="1" /></svg>
