<?xml version="1.0" encoding="utf-8"?>
<svg xmlns="http://www.w3.org/2000/svg" xmlns:xlink="http://www.w3.org/1999/xlink" width="600" height="400" viewBox="0 0 2400 1600">
<defs>
  <clipPath id="clip030">
    <rect x="0" y="0" width="2400" height="1600"/>
  </clipPath>
</defs>
<path clip-path="url(#clip030)" d="
M0 1600 L2400 1600 L2400 0 L0 0  Z
  " fill="#ffffff" fill-rule="evenodd" fill-opacity="1"/>
<defs>
  <clipPath id="clip031">
    <rect x="480" y="0" width="1681" height="1600"/>
  </clipPath>
</defs>
<path clip-path="url(#clip030)" d="
M375.155 1423.18 L2352.76 1423.18 L2352.76 47.2441 L375.155 47.2441  Z
  " fill="#ffffff" fill-rule="evenodd" fill-opacity="1"/>
<defs>
  <clipPath id="clip032">
    <rect x="375" y="47" width="1979" height="1377"/>
  </clipPath>
</defs>
<polyline clip-path="url(#clip032)" style="stroke:#000000; stroke-width:2; stroke-opacity:0.1; fill:none" points="
  431.121,1423.18 431.121,47.2441 
  "/>
<polyline clip-path="url(#clip032)" style="stroke:#000000; stroke-width:2; stroke-opacity:0.1; fill:none" points="
  804.254,1423.18 804.254,47.2441 
  "/>
<polyline clip-path="url(#clip032)" style="stroke:#000000; stroke-width:2; stroke-opacity:0.1; fill:none" points="
  1177.39,1423.18 1177.39,47.2441 
  "/>
<polyline clip-path="url(#clip032)" style="stroke:#000000; stroke-width:2; stroke-opacity:0.1; fill:none" points="
  1550.52,1423.18 1550.52,47.2441 
  "/>
<polyline clip-path="url(#clip032)" style="stroke:#000000; stroke-width:2; stroke-opacity:0.1; fill:none" points="
  1923.65,1423.18 1923.65,47.2441 
  "/>
<polyline clip-path="url(#clip032)" style="stroke:#000000; stroke-width:2; stroke-opacity:0.1; fill:none" points="
  2296.79,1423.18 2296.79,47.2441 
  "/>
<polyline clip-path="url(#clip030)" style="stroke:#000000; stroke-width:4; stroke-opacity:1; fill:none" points="
  375.155,1423.18 2352.76,1423.18 
  "/>
<polyline clip-path="url(#clip030)" style="stroke:#000000; stroke-width:4; stroke-opacity:1; fill:none" points="
  431.121,1423.18 431.121,1406.67 
  "/>
<polyline clip-path="url(#clip030)" style="stroke:#000000; stroke-width:4; stroke-opacity:1; fill:none" points="
  804.254,1423.18 804.254,1406.67 
  "/>
<polyline clip-path="url(#clip030)" style="stroke:#000000; stroke-width:4; stroke-opacity:1; fill:none" points="
  1177.39,1423.18 1177.39,1406.67 
  "/>
<polyline clip-path="url(#clip030)" style="stroke:#000000; stroke-width:4; stroke-opacity:1; fill:none" points="
  1550.52,1423.18 1550.52,1406.67 
  "/>
<polyline clip-path="url(#clip030)" style="stroke:#000000; stroke-width:4; stroke-opacity:1; fill:none" points="
  1923.65,1423.18 1923.65,1406.67 
  "/>
<polyline clip-path="url(#clip030)" style="stroke:#000000; stroke-width:4; stroke-opacity:1; fill:none" points="
  2296.79,1423.18 2296.79,1406.67 
  "/>
<path clip-path="url(#clip030)" d="M 0 0 M431.121 1452.37 Q427.51 1452.37 425.681 1455.94 Q423.876 1459.48 423.876 1466.61 Q423.876 1473.71 425.681 1477.28 Q427.51 1480.82 431.121 1480.82 Q434.755 1480.82 436.561 1477.28 Q438.389 1473.71 438.389 1466.61 Q438.389 1459.48 436.561 1455.94 Q434.755 1452.37 431.121 1452.37 M431.121 1448.67 Q436.931 1448.67 439.987 1453.27 Q443.065 1457.86 443.065 1466.61 Q443.065 1475.33 439.987 1479.94 Q436.931 1484.52 431.121 1484.52 Q425.311 1484.52 422.232 1479.94 Q419.177 1475.33 419.177 1466.61 Q419.177 1457.86 422.232 1453.27 Q425.311 1448.67 431.121 1448.67 Z" fill="#000000" fill-rule="evenodd" fill-opacity="1" /><path clip-path="url(#clip030)" d="M 0 0 M794.636 1479.92 L802.275 1479.92 L802.275 1453.55 L793.965 1455.22 L793.965 1450.96 L802.228 1449.29 L806.904 1449.29 L806.904 1479.92 L814.543 1479.92 L814.543 1483.85 L794.636 1483.85 L794.636 1479.92 Z" fill="#000000" fill-rule="evenodd" fill-opacity="1" /><path clip-path="url(#clip030)" d="M 0 0 M1172.04 1479.92 L1188.36 1479.92 L1188.36 1483.85 L1166.41 1483.85 L1166.41 1479.92 Q1169.08 1477.16 1173.66 1472.53 Q1178.27 1467.88 1179.45 1466.54 Q1181.69 1464.01 1182.57 1462.28 Q1183.47 1460.52 1183.47 1458.83 Q1183.47 1456.07 1181.53 1454.34 Q1179.61 1452.6 1176.51 1452.6 Q1174.31 1452.6 1171.85 1453.37 Q1169.42 1454.13 1166.65 1455.68 L1166.65 1450.96 Q1169.47 1449.82 1171.92 1449.25 Q1174.38 1448.67 1176.41 1448.67 Q1181.79 1448.67 1184.98 1451.35 Q1188.17 1454.04 1188.17 1458.53 Q1188.17 1460.66 1187.36 1462.58 Q1186.58 1464.48 1184.47 1467.07 Q1183.89 1467.74 1180.79 1470.96 Q1177.69 1474.15 1172.04 1479.92 Z" fill="#000000" fill-rule="evenodd" fill-opacity="1" /><path clip-path="url(#clip030)" d="M 0 0 M1554.77 1465.22 Q1558.12 1465.94 1560 1468.2 Q1561.9 1470.47 1561.9 1473.81 Q1561.9 1478.92 1558.38 1481.72 Q1554.86 1484.52 1548.38 1484.52 Q1546.2 1484.52 1543.89 1484.08 Q1541.6 1483.67 1539.14 1482.81 L1539.14 1478.3 Q1541.09 1479.43 1543.4 1480.01 Q1545.72 1480.59 1548.24 1480.59 Q1552.64 1480.59 1554.93 1478.85 Q1557.24 1477.12 1557.24 1473.81 Q1557.24 1470.75 1555.09 1469.04 Q1552.96 1467.3 1549.14 1467.3 L1545.11 1467.3 L1545.11 1463.46 L1549.33 1463.46 Q1552.78 1463.46 1554.61 1462.09 Q1556.43 1460.7 1556.43 1458.11 Q1556.43 1455.45 1554.54 1454.04 Q1552.66 1452.6 1549.14 1452.6 Q1547.22 1452.6 1545.02 1453.02 Q1542.82 1453.44 1540.18 1454.31 L1540.18 1450.15 Q1542.85 1449.41 1545.16 1449.04 Q1547.5 1448.67 1549.56 1448.67 Q1554.88 1448.67 1557.99 1451.1 Q1561.09 1453.5 1561.09 1457.63 Q1561.09 1460.5 1559.44 1462.49 Q1557.8 1464.45 1554.77 1465.22 Z" fill="#000000" fill-rule="evenodd" fill-opacity="1" /><path clip-path="url(#clip030)" d="M 0 0 M1926.66 1453.37 L1914.86 1471.81 L1926.66 1471.81 L1926.66 1453.37 M1925.44 1449.29 L1931.32 1449.29 L1931.32 1471.81 L1936.25 1471.81 L1936.25 1475.7 L1931.32 1475.7 L1931.32 1483.85 L1926.66 1483.85 L1926.66 1475.7 L1911.06 1475.7 L1911.06 1471.19 L1925.44 1449.29 Z" fill="#000000" fill-rule="evenodd" fill-opacity="1" /><path clip-path="url(#clip030)" d="M 0 0 M2287.06 1449.29 L2305.42 1449.29 L2305.42 1453.23 L2291.35 1453.23 L2291.35 1461.7 Q2292.36 1461.35 2293.38 1461.19 Q2294.4 1461 2295.42 1461 Q2301.21 1461 2304.59 1464.18 Q2307.97 1467.35 2307.97 1472.76 Q2307.97 1478.34 2304.49 1481.44 Q2301.02 1484.52 2294.7 1484.52 Q2292.53 1484.52 2290.26 1484.15 Q2288.01 1483.78 2285.61 1483.04 L2285.61 1478.34 Q2287.69 1479.48 2289.91 1480.03 Q2292.13 1480.59 2294.61 1480.59 Q2298.61 1480.59 2300.95 1478.48 Q2303.29 1476.38 2303.29 1472.76 Q2303.29 1469.15 2300.95 1467.05 Q2298.61 1464.94 2294.61 1464.94 Q2292.74 1464.94 2290.86 1465.36 Q2289.01 1465.77 2287.06 1466.65 L2287.06 1449.29 Z" fill="#000000" fill-rule="evenodd" fill-opacity="1" /><path clip-path="url(#clip030)" d="M 0 0 M1188.12 1550.25 Q1188.12 1556.71 1190.76 1560.4 Q1193.43 1564.07 1198.08 1564.07 Q1202.73 1564.07 1205.4 1560.4 Q1208.08 1556.71 1208.08 1550.25 Q1208.08 1543.79 1205.4 1540.13 Q1202.73 1536.44 1198.08 1536.44 Q1193.43 1536.44 1190.76 1540.13 Q1188.12 1543.79 1188.12 1550.25 M1208.08 1562.7 Q1206.23 1565.88 1203.4 1567.44 Q1200.6 1568.97 1196.65 1568.97 Q1190.19 1568.97 1186.11 1563.81 Q1182.07 1558.65 1182.07 1550.25 Q1182.07 1541.85 1186.11 1536.69 Q1190.19 1531.54 1196.65 1531.54 Q1200.6 1531.54 1203.4 1533.1 Q1206.23 1534.62 1208.08 1537.81 L1208.08 1532.4 L1213.93 1532.4 L1213.93 1581.6 L1208.08 1581.6 L1208.08 1562.7 Z" fill="#000000" fill-rule="evenodd" fill-opacity="1" /><path clip-path="url(#clip030)" d="M 0 0 M1247.16 1578.87 L1247.16 1583.42 L1213.29 1583.42 L1213.29 1578.87 L1247.16 1578.87 Z" fill="#000000" fill-rule="evenodd" fill-opacity="1" /><path clip-path="url(#clip030)" d="M 0 0 M1273.96 1537.87 Q1272.97 1537.3 1271.8 1537.04 Q1270.65 1536.76 1269.25 1536.76 Q1264.28 1536.76 1261.61 1540 Q1258.97 1543.22 1258.97 1549.27 L1258.97 1568.04 L1253.08 1568.04 L1253.08 1532.4 L1258.97 1532.4 L1258.97 1537.93 Q1260.81 1534.69 1263.78 1533.13 Q1266.74 1531.54 1270.97 1531.54 Q1271.57 1531.54 1272.31 1531.63 Q1273.04 1531.7 1273.93 1531.85 L1273.96 1537.87 Z" fill="#000000" fill-rule="evenodd" fill-opacity="1" /><path clip-path="url(#clip030)" d="M 0 0 M1296.3 1550.12 Q1289.21 1550.12 1286.47 1551.75 Q1283.73 1553.37 1283.73 1557.29 Q1283.73 1560.4 1285.77 1562.25 Q1287.84 1564.07 1291.37 1564.07 Q1296.24 1564.07 1299.17 1560.63 Q1302.13 1557.16 1302.13 1551.43 L1302.13 1550.12 L1296.3 1550.12 M1307.98 1547.71 L1307.98 1568.04 L1302.13 1568.04 L1302.13 1562.63 Q1300.12 1565.88 1297.13 1567.44 Q1294.14 1568.97 1289.81 1568.97 Q1284.34 1568.97 1281.09 1565.91 Q1277.88 1562.82 1277.88 1557.67 Q1277.88 1551.65 1281.89 1548.6 Q1285.93 1545.54 1293.92 1545.54 L1302.13 1545.54 L1302.13 1544.97 Q1302.13 1540.93 1299.45 1538.73 Q1296.81 1536.5 1292.01 1536.5 Q1288.95 1536.5 1286.06 1537.23 Q1283.16 1537.97 1280.49 1539.43 L1280.49 1534.02 Q1283.7 1532.78 1286.72 1532.17 Q1289.75 1531.54 1292.61 1531.54 Q1300.35 1531.54 1304.17 1535.55 Q1307.98 1539.56 1307.98 1547.71 Z" fill="#000000" fill-rule="evenodd" fill-opacity="1" /><path clip-path="url(#clip030)" d="M 0 0 M1314.13 1532.4 L1319.98 1532.4 L1319.98 1568.04 L1314.13 1568.04 L1314.13 1532.4 M1314.13 1518.52 L1319.98 1518.52 L1319.98 1525.93 L1314.13 1525.93 L1314.13 1518.52 Z" fill="#000000" fill-rule="evenodd" fill-opacity="1" /><path clip-path="url(#clip030)" d="M 0 0 M1355.76 1546.53 L1355.76 1568.04 L1349.9 1568.04 L1349.9 1546.72 Q1349.9 1541.66 1347.93 1539.14 Q1345.96 1536.63 1342.01 1536.63 Q1337.27 1536.63 1334.53 1539.65 Q1331.79 1542.68 1331.79 1547.9 L1331.79 1568.04 L1325.9 1568.04 L1325.9 1532.4 L1331.79 1532.4 L1331.79 1537.93 Q1333.89 1534.72 1336.73 1533.13 Q1339.59 1531.54 1343.31 1531.54 Q1349.46 1531.54 1352.61 1535.36 Q1355.76 1539.14 1355.76 1546.53 Z" fill="#000000" fill-rule="evenodd" fill-opacity="1" /><path clip-path="url(#clip030)" d="M 0 0 M1382.08 1518.52 L1395.58 1518.52 L1395.58 1523.07 L1387.94 1523.07 L1387.94 1572.09 L1395.58 1572.09 L1395.58 1576.64 L1382.08 1576.64 L1382.08 1518.52 Z" fill="#000000" fill-rule="evenodd" fill-opacity="1" /><path clip-path="url(#clip030)" d="M 0 0 M1425.18 1549.81 Q1425.18 1543.44 1422.54 1539.94 Q1419.93 1536.44 1415.18 1536.44 Q1410.47 1536.44 1407.83 1539.94 Q1405.22 1543.44 1405.22 1549.81 Q1405.22 1556.14 1407.83 1559.64 Q1410.47 1563.14 1415.18 1563.14 Q1419.93 1563.14 1422.54 1559.64 Q1425.18 1556.14 1425.18 1549.81 M1431.03 1563.62 Q1431.03 1572.72 1426.99 1577.15 Q1422.95 1581.6 1414.61 1581.6 Q1411.52 1581.6 1408.79 1581.13 Q1406.05 1580.68 1403.47 1579.72 L1403.47 1574.03 Q1406.05 1575.43 1408.56 1576.1 Q1411.08 1576.76 1413.69 1576.76 Q1419.45 1576.76 1422.31 1573.74 Q1425.18 1570.75 1425.18 1564.67 L1425.18 1561.77 Q1423.36 1564.92 1420.53 1566.48 Q1417.7 1568.04 1413.75 1568.04 Q1407.19 1568.04 1403.18 1563.05 Q1399.17 1558.05 1399.17 1549.81 Q1399.17 1541.53 1403.18 1536.53 Q1407.19 1531.54 1413.75 1531.54 Q1417.7 1531.54 1420.53 1533.1 Q1423.36 1534.66 1425.18 1537.81 L1425.18 1532.4 L1431.03 1532.4 L1431.03 1563.62 Z" fill="#000000" fill-rule="evenodd" fill-opacity="1" /><path clip-path="url(#clip030)" d="M 0 0 M1447.58 1520.52 L1453 1520.52 L1436.44 1574.09 L1431.03 1574.09 L1447.58 1520.52 Z" fill="#000000" fill-rule="evenodd" fill-opacity="1" /><path clip-path="url(#clip030)" d="M 0 0 M1458.92 1518.52 L1464.8 1518.52 L1464.8 1547.77 L1482.28 1532.4 L1489.76 1532.4 L1470.85 1549.07 L1490.55 1568.04 L1482.91 1568.04 L1464.8 1550.63 L1464.8 1568.04 L1458.92 1568.04 L1458.92 1518.52 Z" fill="#000000" fill-rule="evenodd" fill-opacity="1" /><path clip-path="url(#clip030)" d="M 0 0 M1520.15 1549.81 Q1520.15 1543.44 1517.51 1539.94 Q1514.9 1536.44 1510.16 1536.44 Q1505.45 1536.44 1502.81 1539.94 Q1500.2 1543.44 1500.2 1549.81 Q1500.2 1556.14 1502.81 1559.64 Q1505.45 1563.14 1510.16 1563.14 Q1514.9 1563.14 1517.51 1559.64 Q1520.15 1556.14 1520.15 1549.81 M1526.01 1563.62 Q1526.01 1572.72 1521.97 1577.15 Q1517.93 1581.6 1509.59 1581.6 Q1506.5 1581.6 1503.76 1581.13 Q1501.02 1580.68 1498.45 1579.72 L1498.45 1574.03 Q1501.02 1575.43 1503.54 1576.1 Q1506.05 1576.76 1508.66 1576.76 Q1514.42 1576.76 1517.29 1573.74 Q1520.15 1570.75 1520.15 1564.67 L1520.15 1561.77 Q1518.34 1564.92 1515.51 1566.48 Q1512.67 1568.04 1508.73 1568.04 Q1502.17 1568.04 1498.16 1563.05 Q1494.15 1558.05 1494.15 1549.81 Q1494.15 1541.53 1498.16 1536.53 Q1502.17 1531.54 1508.73 1531.54 Q1512.67 1531.54 1515.51 1533.1 Q1518.34 1534.66 1520.15 1537.81 L1520.15 1532.4 L1526.01 1532.4 L1526.01 1563.62 Z" fill="#000000" fill-rule="evenodd" fill-opacity="1" /><path clip-path="url(#clip030)" d="M 0 0 M1545.84 1518.52 L1545.84 1576.64 L1532.34 1576.64 L1532.34 1572.09 L1539.95 1572.09 L1539.95 1523.07 L1532.34 1523.07 L1532.34 1518.52 L1545.84 1518.52 Z" fill="#000000" fill-rule="evenodd" fill-opacity="1" /><polyline clip-path="url(#clip032)" style="stroke:#000000; stroke-width:2; stroke-opacity:0.1; fill:none" points="
  375.155,1310.83 2352.76,1310.83 
  "/>
<polyline clip-path="url(#clip032)" style="stroke:#000000; stroke-width:2; stroke-opacity:0.1; fill:none" points="
  375.155,1004.61 2352.76,1004.61 
  "/>
<polyline clip-path="url(#clip032)" style="stroke:#000000; stroke-width:2; stroke-opacity:0.1; fill:none" points="
  375.155,698.382 2352.76,698.382 
  "/>
<polyline clip-path="url(#clip032)" style="stroke:#000000; stroke-width:2; stroke-opacity:0.1; fill:none" points="
  375.155,392.157 2352.76,392.157 
  "/>
<polyline clip-path="url(#clip032)" style="stroke:#000000; stroke-width:2; stroke-opacity:0.1; fill:none" points="
  375.155,85.9327 2352.76,85.9327 
  "/>
<polyline clip-path="url(#clip030)" style="stroke:#000000; stroke-width:4; stroke-opacity:1; fill:none" points="
  375.155,1423.18 375.155,47.2441 
  "/>
<polyline clip-path="url(#clip030)" style="stroke:#000000; stroke-width:4; stroke-opacity:1; fill:none" points="
  375.155,1310.83 398.886,1310.83 
  "/>
<polyline clip-path="url(#clip030)" style="stroke:#000000; stroke-width:4; stroke-opacity:1; fill:none" points="
  375.155,1004.61 398.886,1004.61 
  "/>
<polyline clip-path="url(#clip030)" style="stroke:#000000; stroke-width:4; stroke-opacity:1; fill:none" points="
  375.155,698.382 398.886,698.382 
  "/>
<polyline clip-path="url(#clip030)" style="stroke:#000000; stroke-width:4; stroke-opacity:1; fill:none" points="
  375.155,392.157 398.886,392.157 
  "/>
<polyline clip-path="url(#clip030)" style="stroke:#000000; stroke-width:4; stroke-opacity:1; fill:none" points="
  375.155,85.9327 398.886,85.9327 
  "/>
<path clip-path="url(#clip030)" d="M 0 0 M115.802 1317.73 L145.478 1317.73 L145.478 1321.67 L115.802 1321.67 L115.802 1317.73 Z" fill="#000000" fill-rule="evenodd" fill-opacity="1" /><path clip-path="url(#clip030)" d="M 0 0 M154.575 1330.62 L170.895 1330.62 L170.895 1334.56 L148.95 1334.56 L148.95 1330.62 Q151.612 1327.87 156.196 1323.24 Q160.802 1318.59 161.983 1317.24 Q164.228 1314.72 165.108 1312.98 Q166.01 1311.23 166.01 1309.54 Q166.01 1306.78 164.066 1305.04 Q162.145 1303.31 159.043 1303.31 Q156.844 1303.31 154.39 1304.07 Q151.96 1304.84 149.182 1306.39 L149.182 1301.67 Q152.006 1300.53 154.46 1299.95 Q156.913 1299.37 158.95 1299.37 Q164.321 1299.37 167.515 1302.06 Q170.71 1304.74 170.71 1309.23 Q170.71 1311.36 169.899 1313.29 Q169.112 1315.18 167.006 1317.78 Q166.427 1318.45 163.325 1321.67 Q160.223 1324.86 154.575 1330.62 Z" fill="#000000" fill-rule="evenodd" fill-opacity="1" /><path clip-path="url(#clip030)" d="M 0 0 M175.964 1328.68 L180.848 1328.68 L180.848 1334.56 L175.964 1334.56 L175.964 1328.68 Z" fill="#000000" fill-rule="evenodd" fill-opacity="1" /><path clip-path="url(#clip030)" d="M 0 0 M195.918 1303.08 Q192.307 1303.08 190.478 1306.64 Q188.672 1310.18 188.672 1317.31 Q188.672 1324.42 190.478 1327.98 Q192.307 1331.53 195.918 1331.53 Q199.552 1331.53 201.357 1327.98 Q203.186 1324.42 203.186 1317.31 Q203.186 1310.18 201.357 1306.64 Q199.552 1303.08 195.918 1303.08 M195.918 1299.37 Q201.728 1299.37 204.783 1303.98 Q207.862 1308.56 207.862 1317.31 Q207.862 1326.04 204.783 1330.65 Q201.728 1335.23 195.918 1335.23 Q190.108 1335.23 187.029 1330.65 Q183.973 1326.04 183.973 1317.31 Q183.973 1308.56 187.029 1303.98 Q190.108 1299.37 195.918 1299.37 Z" fill="#000000" fill-rule="evenodd" fill-opacity="1" /><path clip-path="url(#clip030)" d="M 0 0 M241.103 1309.1 L230.524 1319.72 L241.103 1330.3 L238.348 1333.1 L227.723 1322.48 L217.098 1333.1 L214.367 1330.3 L224.922 1319.72 L214.367 1309.1 L217.098 1306.29 L227.723 1316.92 L238.348 1306.29 L241.103 1309.1 Z" fill="#000000" fill-rule="evenodd" fill-opacity="1" /><path clip-path="url(#clip030)" d="M 0 0 M246.982 1330.62 L254.621 1330.62 L254.621 1304.26 L246.311 1305.92 L246.311 1301.67 L254.575 1300 L259.251 1300 L259.251 1330.62 L266.89 1330.62 L266.89 1334.56 L246.982 1334.56 L246.982 1330.62 Z" fill="#000000" fill-rule="evenodd" fill-opacity="1" /><path clip-path="url(#clip030)" d="M 0 0 M281.959 1303.08 Q278.348 1303.08 276.519 1306.64 Q274.714 1310.18 274.714 1317.31 Q274.714 1324.42 276.519 1327.98 Q278.348 1331.53 281.959 1331.53 Q285.593 1331.53 287.399 1327.98 Q289.227 1324.42 289.227 1317.31 Q289.227 1310.18 287.399 1306.64 Q285.593 1303.08 281.959 1303.08 M281.959 1299.37 Q287.769 1299.37 290.825 1303.98 Q293.903 1308.56 293.903 1317.31 Q293.903 1326.04 290.825 1330.65 Q287.769 1335.23 281.959 1335.23 Q276.149 1335.23 273.07 1330.65 Q270.015 1326.04 270.015 1317.31 Q270.015 1308.56 273.07 1303.98 Q276.149 1299.37 281.959 1299.37 Z" fill="#000000" fill-rule="evenodd" fill-opacity="1" /><path clip-path="url(#clip030)" d="M 0 0 M293.903 1293.48 L318.015 1293.48 L318.015 1296.67 L293.903 1296.67 L293.903 1293.48 Z" fill="#000000" fill-rule="evenodd" fill-opacity="1" /><path clip-path="url(#clip030)" d="M 0 0 M322.171 1279.07 L337.086 1279.07 L337.086 1282.27 L325.651 1282.27 L325.651 1289.15 Q326.478 1288.87 327.306 1288.74 Q328.133 1288.58 328.961 1288.58 Q333.663 1288.58 336.409 1291.16 Q339.155 1293.74 339.155 1298.14 Q339.155 1302.67 336.334 1305.19 Q333.512 1307.69 328.378 1307.69 Q326.61 1307.69 324.767 1307.39 Q322.942 1307.09 320.986 1306.49 L320.986 1302.67 Q322.679 1303.59 324.485 1304.04 Q326.29 1304.5 328.303 1304.5 Q331.556 1304.5 333.456 1302.78 Q335.356 1301.07 335.356 1298.14 Q335.356 1295.21 333.456 1293.49 Q331.556 1291.78 328.303 1291.78 Q326.779 1291.78 325.256 1292.12 Q323.751 1292.46 322.171 1293.17 L322.171 1279.07 Z" fill="#000000" fill-rule="evenodd" fill-opacity="1" /><path clip-path="url(#clip030)" d="M 0 0 M116.427 1011.51 L146.103 1011.51 L146.103 1015.44 L116.427 1015.44 L116.427 1011.51 Z" fill="#000000" fill-rule="evenodd" fill-opacity="1" /><path clip-path="url(#clip030)" d="M 0 0 M151.983 1024.4 L159.622 1024.4 L159.622 998.033 L151.311 999.7 L151.311 995.441 L159.575 993.774 L164.251 993.774 L164.251 1024.4 L171.89 1024.4 L171.89 1028.33 L151.983 1028.33 L151.983 1024.4 Z" fill="#000000" fill-rule="evenodd" fill-opacity="1" /><path clip-path="url(#clip030)" d="M 0 0 M176.959 1022.45 L181.844 1022.45 L181.844 1028.33 L176.959 1028.33 L176.959 1022.45 Z" fill="#000000" fill-rule="evenodd" fill-opacity="1" /><path clip-path="url(#clip030)" d="M 0 0 M186.959 993.774 L205.316 993.774 L205.316 997.709 L191.242 997.709 L191.242 1006.18 Q192.26 1005.83 193.279 1005.67 Q194.297 1005.49 195.316 1005.49 Q201.103 1005.49 204.482 1008.66 Q207.862 1011.83 207.862 1017.25 Q207.862 1022.82 204.39 1025.93 Q200.918 1029.01 194.598 1029.01 Q192.422 1029.01 190.154 1028.63 Q187.908 1028.26 185.501 1027.52 L185.501 1022.82 Q187.584 1023.96 189.807 1024.51 Q192.029 1025.07 194.506 1025.07 Q198.51 1025.07 200.848 1022.96 Q203.186 1020.86 203.186 1017.25 Q203.186 1013.64 200.848 1011.53 Q198.51 1009.42 194.506 1009.42 Q192.631 1009.42 190.756 1009.84 Q188.904 1010.26 186.959 1011.14 L186.959 993.774 Z" fill="#000000" fill-rule="evenodd" fill-opacity="1" /><path clip-path="url(#clip030)" d="M 0 0 M241.103 1002.87 L230.524 1013.5 L241.103 1024.07 L238.348 1026.88 L227.723 1016.25 L217.098 1026.88 L214.367 1024.07 L224.922 1013.5 L214.367 1002.87 L217.098 1000.07 L227.723 1010.7 L238.348 1000.07 L241.103 1002.87 Z" fill="#000000" fill-rule="evenodd" fill-opacity="1" /><path clip-path="url(#clip030)" d="M 0 0 M246.982 1024.4 L254.621 1024.4 L254.621 998.033 L246.311 999.7 L246.311 995.441 L254.575 993.774 L259.251 993.774 L259.251 1024.4 L266.89 1024.4 L266.89 1028.33 L246.982 1028.33 L246.982 1024.4 Z" fill="#000000" fill-rule="evenodd" fill-opacity="1" /><path clip-path="url(#clip030)" d="M 0 0 M281.959 996.853 Q278.348 996.853 276.519 1000.42 Q274.714 1003.96 274.714 1011.09 Q274.714 1018.2 276.519 1021.76 Q278.348 1025.3 281.959 1025.3 Q285.593 1025.3 287.399 1021.76 Q289.227 1018.2 289.227 1011.09 Q289.227 1003.96 287.399 1000.42 Q285.593 996.853 281.959 996.853 M281.959 993.149 Q287.769 993.149 290.825 997.756 Q293.903 1002.34 293.903 1011.09 Q293.903 1019.82 290.825 1024.42 Q287.769 1029.01 281.959 1029.01 Q276.149 1029.01 273.07 1024.42 Q270.015 1019.82 270.015 1011.09 Q270.015 1002.34 273.07 997.756 Q276.149 993.149 281.959 993.149 Z" fill="#000000" fill-rule="evenodd" fill-opacity="1" /><path clip-path="url(#clip030)" d="M 0 0 M293.903 987.25 L318.015 987.25 L318.015 990.448 L293.903 990.448 L293.903 987.25 Z" fill="#000000" fill-rule="evenodd" fill-opacity="1" /><path clip-path="url(#clip030)" d="M 0 0 M322.171 972.844 L337.086 972.844 L337.086 976.041 L325.651 976.041 L325.651 982.925 Q326.478 982.643 327.306 982.511 Q328.133 982.36 328.961 982.36 Q333.663 982.36 336.409 984.937 Q339.155 987.514 339.155 991.915 Q339.155 996.447 336.334 998.968 Q333.512 1001.47 328.378 1001.47 Q326.61 1001.47 324.767 1001.17 Q322.942 1000.87 320.986 1000.27 L320.986 996.447 Q322.679 997.369 324.485 997.82 Q326.29 998.272 328.303 998.272 Q331.556 998.272 333.456 996.56 Q335.356 994.849 335.356 991.915 Q335.356 988.981 333.456 987.269 Q331.556 985.558 328.303 985.558 Q326.779 985.558 325.256 985.896 Q323.751 986.235 322.171 986.949 L322.171 972.844 Z" fill="#000000" fill-rule="evenodd" fill-opacity="1" /><path clip-path="url(#clip030)" d="M 0 0 M115.432 705.281 L145.108 705.281 L145.108 709.216 L115.432 709.216 L115.432 705.281 Z" fill="#000000" fill-rule="evenodd" fill-opacity="1" /><path clip-path="url(#clip030)" d="M 0 0 M150.987 718.174 L158.626 718.174 L158.626 691.809 L150.316 693.475 L150.316 689.216 L158.58 687.549 L163.256 687.549 L163.256 718.174 L170.895 718.174 L170.895 722.109 L150.987 722.109 L150.987 718.174 Z" fill="#000000" fill-rule="evenodd" fill-opacity="1" /><path clip-path="url(#clip030)" d="M 0 0 M175.964 716.23 L180.848 716.23 L180.848 722.109 L175.964 722.109 L175.964 716.23 Z" fill="#000000" fill-rule="evenodd" fill-opacity="1" /><path clip-path="url(#clip030)" d="M 0 0 M195.918 690.628 Q192.307 690.628 190.478 694.193 Q188.672 697.735 188.672 704.864 Q188.672 711.971 190.478 715.535 Q192.307 719.077 195.918 719.077 Q199.552 719.077 201.357 715.535 Q203.186 711.971 203.186 704.864 Q203.186 697.735 201.357 694.193 Q199.552 690.628 195.918 690.628 M195.918 686.924 Q201.728 686.924 204.783 691.531 Q207.862 696.114 207.862 704.864 Q207.862 713.591 204.783 718.197 Q201.728 722.781 195.918 722.781 Q190.108 722.781 187.029 718.197 Q183.973 713.591 183.973 704.864 Q183.973 696.114 187.029 691.531 Q190.108 686.924 195.918 686.924 Z" fill="#000000" fill-rule="evenodd" fill-opacity="1" /><path clip-path="url(#clip030)" d="M 0 0 M241.103 696.647 L230.524 707.272 L241.103 717.85 L238.348 720.651 L227.723 710.026 L217.098 720.651 L214.367 717.85 L224.922 707.272 L214.367 696.647 L217.098 693.846 L227.723 704.471 L238.348 693.846 L241.103 696.647 Z" fill="#000000" fill-rule="evenodd" fill-opacity="1" /><path clip-path="url(#clip030)" d="M 0 0 M246.982 718.174 L254.621 718.174 L254.621 691.809 L246.311 693.475 L246.311 689.216 L254.575 687.549 L259.251 687.549 L259.251 718.174 L266.89 718.174 L266.89 722.109 L246.982 722.109 L246.982 718.174 Z" fill="#000000" fill-rule="evenodd" fill-opacity="1" /><path clip-path="url(#clip030)" d="M 0 0 M281.959 690.628 Q278.348 690.628 276.519 694.193 Q274.714 697.735 274.714 704.864 Q274.714 711.971 276.519 715.535 Q278.348 719.077 281.959 719.077 Q285.593 719.077 287.399 715.535 Q289.227 711.971 289.227 704.864 Q289.227 697.735 287.399 694.193 Q285.593 690.628 281.959 690.628 M281.959 686.924 Q287.769 686.924 290.825 691.531 Q293.903 696.114 293.903 704.864 Q293.903 713.591 290.825 718.197 Q287.769 722.781 281.959 722.781 Q276.149 722.781 273.07 718.197 Q270.015 713.591 270.015 704.864 Q270.015 696.114 273.07 691.531 Q276.149 686.924 281.959 686.924 Z" fill="#000000" fill-rule="evenodd" fill-opacity="1" /><path clip-path="url(#clip030)" d="M 0 0 M293.903 681.026 L318.015 681.026 L318.015 684.223 L293.903 684.223 L293.903 681.026 Z" fill="#000000" fill-rule="evenodd" fill-opacity="1" /><path clip-path="url(#clip030)" d="M 0 0 M322.171 666.619 L337.086 666.619 L337.086 669.816 L325.651 669.816 L325.651 676.7 Q326.478 676.418 327.306 676.286 Q328.133 676.136 328.961 676.136 Q333.663 676.136 336.409 678.712 Q339.155 681.289 339.155 685.69 Q339.155 690.223 336.334 692.743 Q333.512 695.245 328.378 695.245 Q326.61 695.245 324.767 694.944 Q322.942 694.643 320.986 694.041 L320.986 690.223 Q322.679 691.144 324.485 691.596 Q326.29 692.047 328.303 692.047 Q331.556 692.047 333.456 690.336 Q335.356 688.624 335.356 685.69 Q335.356 682.756 333.456 681.045 Q331.556 679.333 328.303 679.333 Q326.779 679.333 325.256 679.672 Q323.751 680.01 322.171 680.725 L322.171 666.619 Z" fill="#000000" fill-rule="evenodd" fill-opacity="1" /><path clip-path="url(#clip030)" d="M 0 0 M114.26 399.056 L143.936 399.056 L143.936 402.991 L114.26 402.991 L114.26 399.056 Z" fill="#000000" fill-rule="evenodd" fill-opacity="1" /><path clip-path="url(#clip030)" d="M 0 0 M149.052 381.325 L167.408 381.325 L167.408 385.26 L153.334 385.26 L153.334 393.732 Q154.353 393.385 155.371 393.223 Q156.39 393.038 157.408 393.038 Q163.195 393.038 166.575 396.209 Q169.954 399.38 169.954 404.797 Q169.954 410.376 166.482 413.478 Q163.01 416.556 156.69 416.556 Q154.515 416.556 152.246 416.186 Q150.001 415.815 147.593 415.075 L147.593 410.376 Q149.677 411.51 151.899 412.065 Q154.121 412.621 156.598 412.621 Q160.603 412.621 162.94 410.515 Q165.278 408.408 165.278 404.797 Q165.278 401.186 162.94 399.079 Q160.603 396.973 156.598 396.973 Q154.723 396.973 152.848 397.39 Q150.996 397.806 149.052 398.686 L149.052 381.325 Z" fill="#000000" fill-rule="evenodd" fill-opacity="1" /><path clip-path="url(#clip030)" d="M 0 0 M175.024 410.005 L179.908 410.005 L179.908 415.885 L175.024 415.885 L175.024 410.005 Z" fill="#000000" fill-rule="evenodd" fill-opacity="1" /><path clip-path="url(#clip030)" d="M 0 0 M194.977 384.404 Q191.366 384.404 189.538 387.968 Q187.732 391.51 187.732 398.64 Q187.732 405.746 189.538 409.311 Q191.366 412.853 194.977 412.853 Q198.612 412.853 200.417 409.311 Q202.246 405.746 202.246 398.64 Q202.246 391.51 200.417 387.968 Q198.612 384.404 194.977 384.404 M194.977 380.7 Q200.787 380.7 203.843 385.306 Q206.922 389.89 206.922 398.64 Q206.922 407.366 203.843 411.973 Q200.787 416.556 194.977 416.556 Q189.167 416.556 186.088 411.973 Q183.033 407.366 183.033 398.64 Q183.033 389.89 186.088 385.306 Q189.167 380.7 194.977 380.7 Z" fill="#000000" fill-rule="evenodd" fill-opacity="1" /><path clip-path="url(#clip030)" d="M 0 0 M240.162 390.422 L229.584 401.047 L240.162 411.626 L237.408 414.427 L226.783 403.802 L216.158 414.427 L213.426 411.626 L223.982 401.047 L213.426 390.422 L216.158 387.621 L226.783 398.246 L237.408 387.621 L240.162 390.422 Z" fill="#000000" fill-rule="evenodd" fill-opacity="1" /><path clip-path="url(#clip030)" d="M 0 0 M246.042 411.95 L253.681 411.95 L253.681 385.584 L245.371 387.251 L245.371 382.992 L253.634 381.325 L258.31 381.325 L258.31 411.95 L265.949 411.95 L265.949 415.885 L246.042 415.885 L246.042 411.95 Z" fill="#000000" fill-rule="evenodd" fill-opacity="1" /><path clip-path="url(#clip030)" d="M 0 0 M281.019 384.404 Q277.407 384.404 275.579 387.968 Q273.773 391.51 273.773 398.64 Q273.773 405.746 275.579 409.311 Q277.407 412.853 281.019 412.853 Q284.653 412.853 286.458 409.311 Q288.287 405.746 288.287 398.64 Q288.287 391.51 286.458 387.968 Q284.653 384.404 281.019 384.404 M281.019 380.7 Q286.829 380.7 289.884 385.306 Q292.963 389.89 292.963 398.64 Q292.963 407.366 289.884 411.973 Q286.829 416.556 281.019 416.556 Q275.208 416.556 272.13 411.973 Q269.074 407.366 269.074 398.64 Q269.074 389.89 272.13 385.306 Q275.208 380.7 281.019 380.7 Z" fill="#000000" fill-rule="evenodd" fill-opacity="1" /><path clip-path="url(#clip030)" d="M 0 0 M292.963 374.801 L317.074 374.801 L317.074 377.999 L292.963 377.999 L292.963 374.801 Z" fill="#000000" fill-rule="evenodd" fill-opacity="1" /><path clip-path="url(#clip030)" d="M 0 0 M329.789 372.92 Q327.231 372.92 325.726 374.67 Q324.24 376.419 324.24 379.466 Q324.24 382.494 325.726 384.262 Q327.231 386.011 329.789 386.011 Q332.346 386.011 333.832 384.262 Q335.337 382.494 335.337 379.466 Q335.337 376.419 333.832 374.67 Q332.346 372.92 329.789 372.92 M337.33 361.015 L337.33 364.476 Q335.901 363.799 334.434 363.441 Q332.986 363.084 331.556 363.084 Q327.795 363.084 325.801 365.623 Q323.826 368.162 323.544 373.297 Q324.654 371.66 326.328 370.795 Q328.002 369.911 330.014 369.911 Q334.246 369.911 336.691 372.488 Q339.155 375.046 339.155 379.466 Q339.155 383.791 336.597 386.406 Q334.039 389.02 329.789 389.02 Q324.917 389.02 322.341 385.296 Q319.764 381.553 319.764 374.463 Q319.764 367.805 322.924 363.855 Q326.083 359.887 331.406 359.887 Q332.835 359.887 334.284 360.169 Q335.751 360.451 337.33 361.015 Z" fill="#000000" fill-rule="evenodd" fill-opacity="1" /><path clip-path="url(#clip030)" d="M 0 0 M327.21 71.7314 Q323.599 71.7314 321.771 75.2962 Q319.965 78.8378 319.965 85.9674 Q319.965 93.0739 321.771 96.6387 Q323.599 100.18 327.21 100.18 Q330.845 100.18 332.65 96.6387 Q334.479 93.0739 334.479 85.9674 Q334.479 78.8378 332.65 75.2962 Q330.845 71.7314 327.21 71.7314 M327.21 68.0277 Q333.021 68.0277 336.076 72.6342 Q339.155 77.2175 339.155 85.9674 Q339.155 94.6942 336.076 99.3007 Q333.021 103.884 327.21 103.884 Q321.4 103.884 318.322 99.3007 Q315.266 94.6942 315.266 85.9674 Q315.266 77.2175 318.322 72.6342 Q321.4 68.0277 327.21 68.0277 Z" fill="#000000" fill-rule="evenodd" fill-opacity="1" /><path clip-path="url(#clip030)" d="M 0 0 M33.8307 1096.21 Q33.2578 1097.2 33.0032 1098.38 Q32.7167 1099.52 32.7167 1100.92 Q32.7167 1105.89 35.9632 1108.56 Q39.1779 1111.2 45.2253 1111.2 L64.0042 1111.2 L64.0042 1117.09 L28.3562 1117.09 L28.3562 1111.2 L33.8944 1111.2 Q30.6479 1109.36 29.0883 1106.4 Q27.4968 1103.44 27.4968 1099.2 Q27.4968 1098.6 27.5923 1097.87 Q27.656 1097.13 27.8151 1096.24 L33.8307 1096.21 Z" fill="#000000" fill-rule="evenodd" fill-opacity="1" /><path clip-path="url(#clip030)" d="M 0 0 M46.0847 1073.87 Q46.0847 1080.97 47.7079 1083.7 Q49.3312 1086.44 53.2461 1086.44 Q56.3653 1086.44 58.2114 1084.4 Q60.0256 1082.33 60.0256 1078.8 Q60.0256 1073.93 56.5881 1071 Q53.1188 1068.04 47.3897 1068.04 L46.0847 1068.04 L46.0847 1073.87 M43.6657 1062.19 L64.0042 1062.19 L64.0042 1068.04 L58.5933 1068.04 Q61.8398 1070.05 63.3994 1073.04 Q64.9272 1076.03 64.9272 1080.36 Q64.9272 1085.84 61.8716 1089.08 Q58.7843 1092.3 53.6281 1092.3 Q47.6125 1092.3 44.5569 1088.29 Q41.5014 1084.24 41.5014 1076.25 L41.5014 1068.04 L40.9285 1068.04 Q36.8862 1068.04 34.6901 1070.72 Q32.4621 1073.36 32.4621 1078.16 Q32.4621 1081.22 33.1941 1084.12 Q33.9262 1087.01 35.3903 1089.69 L29.9795 1089.69 Q28.7381 1086.47 28.1334 1083.45 Q27.4968 1080.42 27.4968 1077.56 Q27.4968 1069.83 31.5072 1066.01 Q35.5176 1062.19 43.6657 1062.19 Z" fill="#000000" fill-rule="evenodd" fill-opacity="1" /><path clip-path="url(#clip030)" d="M 0 0 M28.3562 1056.04 L28.3562 1050.19 L64.0042 1050.19 L64.0042 1056.04 L28.3562 1056.04 M14.479 1056.04 L14.479 1050.19 L21.895 1050.19 L21.895 1056.04 L14.479 1056.04 Z" fill="#000000" fill-rule="evenodd" fill-opacity="1" /><path clip-path="url(#clip030)" d="M 0 0 M42.4881 1014.41 L64.0042 1014.41 L64.0042 1020.27 L42.679 1020.27 Q37.6183 1020.27 35.1038 1022.24 Q32.5894 1024.22 32.5894 1028.16 Q32.5894 1032.9 35.6131 1035.64 Q38.6368 1038.38 43.8567 1038.38 L64.0042 1038.38 L64.0042 1044.27 L28.3562 1044.27 L28.3562 1038.38 L33.8944 1038.38 Q30.6797 1036.28 29.0883 1033.45 Q27.4968 1030.58 27.4968 1026.86 Q27.4968 1020.71 31.3163 1017.56 Q35.1038 1014.41 42.4881 1014.41 Z" fill="#000000" fill-rule="evenodd" fill-opacity="1" /><path clip-path="url(#clip030)" d="M 0 0 M44.7161 957.057 L47.5806 957.057 L47.5806 983.984 Q53.6281 983.602 56.8109 980.355 Q59.9619 977.077 59.9619 971.252 Q59.9619 967.879 59.1344 964.728 Q58.3069 961.545 56.6518 958.425 L62.1899 958.425 Q63.5267 961.576 64.227 964.887 Q64.9272 968.197 64.9272 971.602 Q64.9272 980.133 59.9619 985.13 Q54.9967 990.095 46.5303 990.095 Q37.7774 990.095 32.6531 985.384 Q27.4968 980.642 27.4968 972.621 Q27.4968 965.428 32.1438 961.258 Q36.7589 957.057 44.7161 957.057 M42.9973 962.913 Q38.1912 962.977 35.3266 965.619 Q32.4621 968.229 32.4621 972.557 Q32.4621 977.459 35.2312 980.419 Q38.0002 983.347 43.0292 983.793 L42.9973 962.913 Z" fill="#000000" fill-rule="evenodd" fill-opacity="1" /><path clip-path="url(#clip030)" d="M 0 0 M28.3562 955.115 L28.3562 948.909 L58.275 937.769 L28.3562 926.629 L28.3562 920.422 L64.0042 933.79 L64.0042 941.747 L28.3562 955.115 Z" fill="#000000" fill-rule="evenodd" fill-opacity="1" /><path clip-path="url(#clip030)" d="M 0 0 M46.0847 898.079 Q46.0847 905.176 47.7079 907.914 Q49.3312 910.651 53.2461 910.651 Q56.3653 910.651 58.2114 908.614 Q60.0256 906.545 60.0256 903.012 Q60.0256 898.142 56.5881 895.214 Q53.1188 892.254 47.3897 892.254 L46.0847 892.254 L46.0847 898.079 M43.6657 886.398 L64.0042 886.398 L64.0042 892.254 L58.5933 892.254 Q61.8398 894.259 63.3994 897.251 Q64.9272 900.243 64.9272 904.572 Q64.9272 910.046 61.8716 913.293 Q58.7843 916.507 53.6281 916.507 Q47.6125 916.507 44.5569 912.497 Q41.5014 908.455 41.5014 900.466 L41.5014 892.254 L40.9285 892.254 Q36.8862 892.254 34.6901 894.928 Q32.4621 897.569 32.4621 902.375 Q32.4621 905.431 33.1941 908.327 Q33.9262 911.224 35.3903 913.897 L29.9795 913.897 Q28.7381 910.683 28.1334 907.659 Q27.4968 904.635 27.4968 901.771 Q27.4968 894.036 31.5072 890.217 Q35.5176 886.398 43.6657 886.398 Z" fill="#000000" fill-rule="evenodd" fill-opacity="1" /><path clip-path="url(#clip030)" d="M 0 0 M58.657 874.589 L77.5631 874.589 L77.5631 880.477 L28.3562 880.477 L28.3562 874.589 L33.7671 874.589 Q30.5842 872.743 29.0564 869.942 Q27.4968 867.109 27.4968 863.195 Q27.4968 856.701 32.6531 852.659 Q37.8093 848.585 46.212 848.585 Q54.6147 848.585 59.771 852.659 Q64.9272 856.701 64.9272 863.195 Q64.9272 867.109 63.3994 869.942 Q61.8398 872.743 58.657 874.589 M46.212 854.664 Q39.7508 854.664 36.0905 857.338 Q32.3984 859.98 32.3984 864.627 Q32.3984 869.274 36.0905 871.947 Q39.7508 874.589 46.212 874.589 Q52.6732 874.589 56.3653 871.947 Q60.0256 869.274 60.0256 864.627 Q60.0256 859.98 56.3653 857.338 Q52.6732 854.664 46.212 854.664 Z" fill="#000000" fill-rule="evenodd" fill-opacity="1" /><path clip-path="url(#clip030)" d="M 0 0 M32.4621 828.629 Q32.4621 833.339 36.1542 836.077 Q39.8145 838.814 46.212 838.814 Q52.6095 838.814 56.3017 836.108 Q59.9619 833.371 59.9619 828.629 Q59.9619 823.95 56.2698 821.213 Q52.5777 818.475 46.212 818.475 Q39.8781 818.475 36.186 821.213 Q32.4621 823.95 32.4621 828.629 M27.4968 828.629 Q27.4968 820.99 32.4621 816.629 Q37.4273 812.269 46.212 812.269 Q54.9649 812.269 59.9619 816.629 Q64.9272 820.99 64.9272 828.629 Q64.9272 836.299 59.9619 840.66 Q54.9649 844.989 46.212 844.989 Q37.4273 844.989 32.4621 840.66 Q27.4968 836.299 27.4968 828.629 Z" fill="#000000" fill-rule="evenodd" fill-opacity="1" /><path clip-path="url(#clip030)" d="M 0 0 M33.8307 785.469 Q33.2578 786.456 33.0032 787.634 Q32.7167 788.779 32.7167 790.18 Q32.7167 795.145 35.9632 797.819 Q39.1779 800.46 45.2253 800.46 L64.0042 800.46 L64.0042 806.349 L28.3562 806.349 L28.3562 800.46 L33.8944 800.46 Q30.6479 798.614 29.0883 795.654 Q27.4968 792.694 27.4968 788.461 Q27.4968 787.856 27.5923 787.124 Q27.656 786.392 27.8151 785.501 L33.8307 785.469 Z" fill="#000000" fill-rule="evenodd" fill-opacity="1" /><path clip-path="url(#clip030)" d="M 0 0 M46.0847 763.126 Q46.0847 770.223 47.7079 772.961 Q49.3312 775.698 53.2461 775.698 Q56.3653 775.698 58.2114 773.661 Q60.0256 771.592 60.0256 768.059 Q60.0256 763.189 56.5881 760.261 Q53.1188 757.301 47.3897 757.301 L46.0847 757.301 L46.0847 763.126 M43.6657 751.445 L64.0042 751.445 L64.0042 757.301 L58.5933 757.301 Q61.8398 759.306 63.3994 762.298 Q64.9272 765.29 64.9272 769.619 Q64.9272 775.093 61.8716 778.34 Q58.7843 781.554 53.6281 781.554 Q47.6125 781.554 44.5569 777.544 Q41.5014 773.502 41.5014 765.513 L41.5014 757.301 L40.9285 757.301 Q36.8862 757.301 34.6901 759.975 Q32.4621 762.616 32.4621 767.422 Q32.4621 770.478 33.1941 773.374 Q33.9262 776.271 35.3903 778.944 L29.9795 778.944 Q28.7381 775.73 28.1334 772.706 Q27.4968 769.682 27.4968 766.818 Q27.4968 759.083 31.5072 755.264 Q35.5176 751.445 43.6657 751.445 Z" fill="#000000" fill-rule="evenodd" fill-opacity="1" /><path clip-path="url(#clip030)" d="M 0 0 M18.2347 739.509 L28.3562 739.509 L28.3562 727.446 L32.9077 727.446 L32.9077 739.509 L52.2594 739.509 Q56.6199 739.509 57.8613 738.331 Q59.1026 737.122 59.1026 733.461 L59.1026 727.446 L64.0042 727.446 L64.0042 733.461 Q64.0042 740.241 61.4897 742.819 Q58.9434 745.397 52.2594 745.397 L32.9077 745.397 L32.9077 749.694 L28.3562 749.694 L28.3562 745.397 L18.2347 745.397 L18.2347 739.509 Z" fill="#000000" fill-rule="evenodd" fill-opacity="1" /><path clip-path="url(#clip030)" d="M 0 0 M28.3562 721.303 L28.3562 715.446 L64.0042 715.446 L64.0042 721.303 L28.3562 721.303 M14.479 721.303 L14.479 715.446 L21.895 715.446 L21.895 721.303 L14.479 721.303 Z" fill="#000000" fill-rule="evenodd" fill-opacity="1" /><path clip-path="url(#clip030)" d="M 0 0 M32.4621 695.49 Q32.4621 700.201 36.1542 702.938 Q39.8145 705.675 46.212 705.675 Q52.6095 705.675 56.3017 702.97 Q59.9619 700.232 59.9619 695.49 Q59.9619 690.811 56.2698 688.074 Q52.5777 685.337 46.212 685.337 Q39.8781 685.337 36.186 688.074 Q32.4621 690.811 32.4621 695.49 M27.4968 695.49 Q27.4968 687.851 32.4621 683.491 Q37.4273 679.13 46.212 679.13 Q54.9649 679.13 59.9619 683.491 Q64.9272 687.851 64.9272 695.49 Q64.9272 703.161 59.9619 707.521 Q54.9649 711.85 46.212 711.85 Q37.4273 711.85 32.4621 707.521 Q27.4968 703.161 27.4968 695.49 Z" fill="#000000" fill-rule="evenodd" fill-opacity="1" /><path clip-path="url(#clip030)" d="M 0 0 M42.4881 643.355 L64.0042 643.355 L64.0042 649.211 L42.679 649.211 Q37.6183 649.211 35.1038 651.185 Q32.5894 653.158 32.5894 657.105 Q32.5894 661.847 35.6131 664.584 Q38.6368 667.322 43.8567 667.322 L64.0042 667.322 L64.0042 673.21 L28.3562 673.21 L28.3562 667.322 L33.8944 667.322 Q30.6797 665.221 29.0883 662.388 Q27.4968 659.524 27.4968 655.8 Q27.4968 649.657 31.3163 646.506 Q35.1038 643.355 42.4881 643.355 Z" fill="#000000" fill-rule="evenodd" fill-opacity="1" /><path clip-path="url(#clip030)" d="M 0 0 M33.8307 595.835 Q33.2578 596.822 33.0032 597.999 Q32.7167 599.145 32.7167 600.545 Q32.7167 605.511 35.9632 608.184 Q39.1779 610.826 45.2253 610.826 L64.0042 610.826 L64.0042 616.714 L28.3562 616.714 L28.3562 610.826 L33.8944 610.826 Q30.6479 608.98 29.0883 606.02 Q27.4968 603.06 27.4968 598.827 Q27.4968 598.222 27.5923 597.49 Q27.656 596.758 27.8151 595.867 L33.8307 595.835 Z" fill="#000000" fill-rule="evenodd" fill-opacity="1" /><path clip-path="url(#clip030)" d="M 0 0 M46.0847 573.491 Q46.0847 580.589 47.7079 583.326 Q49.3312 586.063 53.2461 586.063 Q56.3653 586.063 58.2114 584.026 Q60.0256 581.958 60.0256 578.425 Q60.0256 573.555 56.5881 570.627 Q53.1188 567.667 47.3897 567.667 L46.0847 567.667 L46.0847 573.491 M43.6657 561.81 L64.0042 561.81 L64.0042 567.667 L58.5933 567.667 Q61.8398 569.672 63.3994 572.664 Q64.9272 575.656 64.9272 579.984 Q64.9272 585.459 61.8716 588.705 Q58.7843 591.92 53.6281 591.92 Q47.6125 591.92 44.5569 587.91 Q41.5014 583.867 41.5014 575.878 L41.5014 567.667 L40.9285 567.667 Q36.8862 567.667 34.6901 570.34 Q32.4621 572.982 32.4621 577.788 Q32.4621 580.844 33.1941 583.74 Q33.9262 586.636 35.3903 589.31 L29.9795 589.31 Q28.7381 586.095 28.1334 583.072 Q27.4968 580.048 27.4968 577.183 Q27.4968 569.449 31.5072 565.63 Q35.5176 561.81 43.6657 561.81 Z" fill="#000000" fill-rule="evenodd" fill-opacity="1" /><path clip-path="url(#clip030)" d="M 0 0 M18.2347 549.874 L28.3562 549.874 L28.3562 537.811 L32.9077 537.811 L32.9077 549.874 L52.2594 549.874 Q56.6199 549.874 57.8613 548.697 Q59.1026 547.487 59.1026 543.827 L59.1026 537.811 L64.0042 537.811 L64.0042 543.827 Q64.0042 550.606 61.4897 553.185 Q58.9434 555.763 52.2594 555.763 L32.9077 555.763 L32.9077 560.06 L28.3562 560.06 L28.3562 555.763 L18.2347 555.763 L18.2347 549.874 Z" fill="#000000" fill-rule="evenodd" fill-opacity="1" /><path clip-path="url(#clip030)" d="M 0 0 M44.7161 501.177 L47.5806 501.177 L47.5806 528.104 Q53.6281 527.722 56.8109 524.475 Q59.9619 521.197 59.9619 515.372 Q59.9619 511.998 59.1344 508.847 Q58.3069 505.665 56.6518 502.545 L62.1899 502.545 Q63.5267 505.696 64.227 509.007 Q64.9272 512.317 64.9272 515.722 Q64.9272 524.252 59.9619 529.25 Q54.9967 534.215 46.5303 534.215 Q37.7774 534.215 32.6531 529.504 Q27.4968 524.762 27.4968 516.741 Q27.4968 509.548 32.1438 505.378 Q36.7589 501.177 44.7161 501.177 M42.9973 507.033 Q38.1912 507.097 35.3266 509.739 Q32.4621 512.349 32.4621 516.677 Q32.4621 521.579 35.2312 524.539 Q38.0002 527.467 43.0292 527.913 L42.9973 507.033 Z" fill="#000000" fill-rule="evenodd" fill-opacity="1" /><path clip-path="url(#clip030)" d="M 0 0 M14.479 474.855 L14.479 461.359 L19.0304 461.359 L19.0304 468.998 L68.0464 468.998 L68.0464 461.359 L72.5979 461.359 L72.5979 474.855 L14.479 474.855 Z" fill="#000000" fill-rule="evenodd" fill-opacity="1" /><path clip-path="url(#clip030)" d="M 0 0 M58.5933 453.275 L58.5933 442.771 L22.3406 442.771 L24.6323 454.198 L18.7758 454.198 L16.4842 442.835 L16.4842 436.406 L58.5933 436.406 L58.5933 425.902 L64.0042 425.902 L64.0042 453.275 L58.5933 453.275 Z" fill="#000000" fill-rule="evenodd" fill-opacity="1" /><path clip-path="url(#clip030)" d="M 0 0 M16.4842 409.351 L16.4842 403.941 L70.0516 420.491 L70.0516 425.902 L16.4842 409.351 Z" fill="#000000" fill-rule="evenodd" fill-opacity="1" /><path clip-path="url(#clip030)" d="M 0 0 M29.4065 375.072 L34.9447 375.072 Q33.6716 377.555 33.035 380.228 Q32.3984 382.902 32.3984 385.767 Q32.3984 390.127 33.7352 392.323 Q35.072 394.488 37.7456 394.488 Q39.7826 394.488 40.9603 392.928 Q42.1061 391.368 43.1565 386.658 L43.6021 384.653 Q44.9389 378.414 47.3897 375.804 Q49.8086 373.162 54.1691 373.162 Q59.1344 373.162 62.0308 377.109 Q64.9272 381.024 64.9272 387.899 Q64.9272 390.764 64.3543 393.883 Q63.8132 396.97 62.6992 400.408 L56.6518 400.408 Q58.3387 397.161 59.198 394.01 Q60.0256 390.859 60.0256 387.772 Q60.0256 383.634 58.6251 381.406 Q57.1929 379.178 54.6147 379.178 Q52.2276 379.178 50.9545 380.801 Q49.6813 382.393 48.5037 387.835 L48.0262 389.872 Q46.8804 395.315 44.5251 397.734 Q42.138 400.153 38.0002 400.153 Q32.9713 400.153 30.2341 396.588 Q27.4968 393.023 27.4968 386.467 Q27.4968 383.22 27.9743 380.356 Q28.4517 377.491 29.4065 375.072 Z" fill="#000000" fill-rule="evenodd" fill-opacity="1" /><path clip-path="url(#clip030)" d="M 0 0 M14.479 353.333 L72.5979 353.333 L72.5979 366.829 L68.0464 366.829 L68.0464 359.222 L19.0304 359.222 L19.0304 366.829 L14.479 366.829 L14.479 353.333 Z" fill="#000000" fill-rule="evenodd" fill-opacity="1" /><polyline clip-path="url(#clip032)" style="stroke:#009af9; stroke-width:12; stroke-opacity:1; fill:none" points="
  431.125,86.3091 449.97,150.346 468.815,186.286 487.66,216.19 506.505,242.768 525.35,267.126 544.195,289.856 563.04,311.319 581.885,331.755 600.73,351.335 
  619.575,370.187 638.42,388.407 657.265,406.072 676.11,423.245 694.956,439.975 713.801,456.304 732.646,472.27 751.491,487.901 770.336,503.224 789.181,518.263 
  808.026,533.037 826.871,547.564 845.716,561.859 864.561,575.938 883.406,589.811 902.251,603.492 921.096,616.989 939.941,630.314 958.786,643.473 977.632,656.476 
  996.477,669.328 1015.32,682.038 1034.17,694.611 1053.01,707.053 1071.86,719.37 1090.7,731.565 1109.55,743.644 1128.39,755.612 1147.24,767.471 1166.08,779.227 
  1184.93,790.882 1203.77,802.44 1222.62,813.904 1241.46,825.277 1260.31,836.563 1279.15,847.763 1298,858.88 1316.84,869.916 1335.69,880.875 1354.53,891.757 
  1373.38,902.566 1392.22,913.302 1411.07,923.969 1429.91,934.568 1448.76,945.1 1467.6,955.567 1486.45,965.971 1505.29,976.313 1524.14,986.595 1542.98,996.818 
  1561.83,1006.98 1580.67,1017.09 1599.52,1027.15 1618.36,1037.15 1637.21,1047.09 1656.05,1056.99 1674.9,1066.84 1693.74,1076.63 1712.59,1086.38 1731.43,1096.08 
  1750.28,1105.73 1769.12,1115.34 1787.97,1124.9 1806.81,1134.42 1825.66,1143.9 1844.5,1153.33 1863.35,1162.72 1882.19,1172.07 1901.04,1181.38 1919.88,1190.65 
  1938.73,1199.88 1957.57,1209.08 1976.42,1218.23 1995.27,1227.35 2014.11,1236.43 2032.96,1245.48 2051.8,1254.49 2070.65,1263.47 2089.49,1272.41 2108.34,1281.32 
  2127.18,1290.19 2146.03,1299.03 2164.87,1307.85 2183.72,1316.62 2202.56,1325.37 2221.41,1334.09 2240.25,1342.78 2259.1,1351.43 2277.94,1360.06 2296.79,1368.66 
  
  "/>
<polyline clip-path="url(#clip032)" style="stroke:#e26f46; stroke-width:12; stroke-opacity:1; fill:none" points="
  431.125,86.1857 449.97,140.732 468.815,173.427 487.66,201.178 506.505,226.163 525.35,249.285 544.195,271.03 563.04,291.696 581.885,311.483 600.73,330.535 
  619.575,348.958 638.42,366.834 657.265,384.227 676.11,401.191 694.956,417.768 713.801,433.994 732.646,449.9 751.491,465.511 770.336,480.851 789.181,495.939 
  808.026,510.793 826.871,525.427 845.716,539.855 864.561,554.09 883.406,568.143 902.251,582.023 921.096,595.739 939.941,609.3 958.786,622.713 977.632,635.985 
  996.477,649.122 1015.32,662.131 1034.17,675.016 1053.01,687.783 1071.86,700.436 1090.7,712.98 1109.55,725.418 1128.39,737.756 1147.24,749.995 1166.08,762.14 
  1184.93,774.194 1203.77,786.159 1222.62,798.039 1241.46,809.835 1260.31,821.552 1279.15,833.19 1298,844.753 1316.84,856.242 1335.69,867.66 1354.53,879.008 
  1373.38,890.288 1392.22,901.503 1411.07,912.653 1429.91,923.74 1448.76,934.766 1467.6,945.733 1486.45,956.641 1505.29,967.493 1524.14,978.288 1542.98,989.03 
  1561.83,999.718 1580.67,1010.35 1599.52,1020.94 1618.36,1031.48 1637.21,1041.96 1656.05,1052.4 1674.9,1062.79 1693.74,1073.14 1712.59,1083.44 1731.43,1093.7 
  1750.28,1103.91 1769.12,1114.08 1787.97,1124.21 1806.81,1134.3 1825.66,1144.35 1844.5,1154.36 1863.35,1164.33 1882.19,1174.26 1901.04,1184.16 1919.88,1194.01 
  1938.73,1203.84 1957.57,1213.62 1976.42,1223.37 1995.27,1233.09 2014.11,1242.77 2032.96,1252.42 2051.8,1262.03 2070.65,1271.61 2089.49,1281.17 2108.34,1290.68 
  2127.18,1300.17 2146.03,1309.63 2164.87,1319.06 2183.72,1328.46 2202.56,1337.82 2221.41,1347.16 2240.25,1356.47 2259.1,1365.76 2277.94,1375.01 2296.79,1384.24 
  
  "/>
<path clip-path="url(#clip030)" d="
M1739.23 274.549 L2286.84 274.549 L2286.84 93.1086 L1739.23 93.1086  Z
  " fill="#ffffff" fill-rule="evenodd" fill-opacity="1"/>
<polyline clip-path="url(#clip030)" style="stroke:#000000; stroke-width:4; stroke-opacity:1; fill:none" points="
  1739.23,274.549 2286.84,274.549 2286.84,93.1086 1739.23,93.1086 1739.23,274.549 
  "/>
<polyline clip-path="url(#clip030)" style="stroke:#009af9; stroke-width:4; stroke-opacity:1; fill:none" points="
  1761.21,153.589 1893.05,153.589 
  "/>
<path clip-path="url(#clip030)" d="M 0 0 M1942.89 138.971 L1942.89 143.901 Q1940.53 141.702 1937.84 140.614 Q1935.18 139.526 1932.17 139.526 Q1926.25 139.526 1923.1 143.16 Q1919.95 146.772 1919.95 153.623 Q1919.95 160.452 1923.1 164.086 Q1926.25 167.697 1932.17 167.697 Q1935.18 167.697 1937.84 166.609 Q1940.53 165.521 1942.89 163.322 L1942.89 168.207 Q1940.44 169.873 1937.68 170.707 Q1934.95 171.54 1931.9 171.54 Q1924.05 171.54 1919.53 166.748 Q1915.02 161.933 1915.02 153.623 Q1915.02 145.29 1919.53 140.498 Q1924.05 135.684 1931.9 135.684 Q1935 135.684 1937.73 136.517 Q1940.48 137.327 1942.89 138.971 Z" fill="#000000" fill-rule="evenodd" fill-opacity="1" /><path clip-path="url(#clip030)" d="M 0 0 M1947.36 134.85 L1951.62 134.85 L1951.62 170.869 L1947.36 170.869 L1947.36 134.85 Z" fill="#000000" fill-rule="evenodd" fill-opacity="1" /><path clip-path="url(#clip030)" d="M 0 0 M1956.09 144.943 L1960.34 144.943 L1960.34 170.869 L1956.09 170.869 L1956.09 144.943 M1956.09 134.85 L1960.34 134.85 L1960.34 140.244 L1956.09 140.244 L1956.09 134.85 Z" fill="#000000" fill-rule="evenodd" fill-opacity="1" /><path clip-path="url(#clip030)" d="M 0 0 M1985 149.92 Q1986.59 147.049 1988.82 145.684 Q1991.04 144.318 1994.05 144.318 Q1998.1 144.318 2000.3 147.165 Q2002.5 149.989 2002.5 155.221 L2002.5 170.869 L1998.21 170.869 L1998.21 155.359 Q1998.21 151.633 1996.9 149.827 Q1995.58 148.022 1992.87 148.022 Q1989.56 148.022 1987.64 150.221 Q1985.71 152.42 1985.71 156.216 L1985.71 170.869 L1981.43 170.869 L1981.43 155.359 Q1981.43 151.609 1980.11 149.827 Q1978.79 148.022 1976.04 148.022 Q1972.77 148.022 1970.85 150.244 Q1968.93 152.443 1968.93 156.216 L1968.93 170.869 L1964.65 170.869 L1964.65 144.943 L1968.93 144.943 L1968.93 148.971 Q1970.39 146.586 1972.43 145.452 Q1974.46 144.318 1977.27 144.318 Q1980.09 144.318 1982.06 145.753 Q1984.05 147.188 1985 149.92 Z" fill="#000000" fill-rule="evenodd" fill-opacity="1" /><path clip-path="url(#clip030)" d="M 0 0 M2018.75 157.836 Q2013.58 157.836 2011.59 159.017 Q2009.6 160.197 2009.6 163.045 Q2009.6 165.313 2011.08 166.656 Q2012.59 167.975 2015.16 167.975 Q2018.7 167.975 2020.83 165.475 Q2022.98 162.952 2022.98 158.785 L2022.98 157.836 L2018.75 157.836 M2027.24 156.077 L2027.24 170.869 L2022.98 170.869 L2022.98 166.933 Q2021.52 169.295 2019.35 170.429 Q2017.17 171.54 2014.02 171.54 Q2010.04 171.54 2007.68 169.318 Q2005.34 167.072 2005.34 163.322 Q2005.34 158.947 2008.26 156.725 Q2011.2 154.503 2017.01 154.503 L2022.98 154.503 L2022.98 154.086 Q2022.98 151.147 2021.04 149.549 Q2019.12 147.929 2015.62 147.929 Q2013.4 147.929 2011.29 148.461 Q2009.19 148.994 2007.24 150.059 L2007.24 146.123 Q2009.58 145.221 2011.78 144.781 Q2013.98 144.318 2016.06 144.318 Q2021.69 144.318 2024.46 147.234 Q2027.24 150.151 2027.24 156.077 Z" fill="#000000" fill-rule="evenodd" fill-opacity="1" /><path clip-path="url(#clip030)" d="M 0 0 M2035.92 137.582 L2035.92 144.943 L2044.7 144.943 L2044.7 148.253 L2035.92 148.253 L2035.92 162.327 Q2035.92 165.498 2036.78 166.401 Q2037.66 167.304 2040.32 167.304 L2044.7 167.304 L2044.7 170.869 L2040.32 170.869 Q2035.39 170.869 2033.52 169.04 Q2031.64 167.188 2031.64 162.327 L2031.64 148.253 L2028.52 148.253 L2028.52 144.943 L2031.64 144.943 L2031.64 137.582 L2035.92 137.582 Z" fill="#000000" fill-rule="evenodd" fill-opacity="1" /><path clip-path="url(#clip030)" d="M 0 0 M2071.34 156.841 L2071.34 158.924 L2051.76 158.924 Q2052.03 163.322 2054.39 165.637 Q2056.78 167.929 2061.02 167.929 Q2063.47 167.929 2065.76 167.327 Q2068.08 166.725 2070.34 165.521 L2070.34 169.549 Q2068.05 170.521 2065.64 171.031 Q2063.24 171.54 2060.76 171.54 Q2054.56 171.54 2050.92 167.929 Q2047.31 164.318 2047.31 158.16 Q2047.31 151.795 2050.74 148.068 Q2054.19 144.318 2060.02 144.318 Q2065.25 144.318 2068.28 147.697 Q2071.34 151.054 2071.34 156.841 M2067.08 155.591 Q2067.03 152.096 2065.11 150.012 Q2063.21 147.929 2060.07 147.929 Q2056.5 147.929 2054.35 149.943 Q2052.22 151.957 2051.89 155.614 L2067.08 155.591 Z" fill="#000000" fill-rule="evenodd" fill-opacity="1" /><path clip-path="url(#clip030)" d="M 0 0 M2075.99 136.309 L2082.96 136.309 L2091.78 159.827 L2100.64 136.309 L2107.61 136.309 L2107.61 170.869 L2103.05 170.869 L2103.05 140.522 L2094.14 164.225 L2089.44 164.225 L2080.53 140.522 L2080.53 170.869 L2075.99 170.869 L2075.99 136.309 Z" fill="#000000" fill-rule="evenodd" fill-opacity="1" /><path clip-path="url(#clip030)" d="M 0 0 M2123.86 157.836 Q2118.7 157.836 2116.71 159.017 Q2114.72 160.197 2114.72 163.045 Q2114.72 165.313 2116.2 166.656 Q2117.7 167.975 2120.27 167.975 Q2123.82 167.975 2125.95 165.475 Q2128.1 162.952 2128.1 158.785 L2128.1 157.836 L2123.86 157.836 M2132.36 156.077 L2132.36 170.869 L2128.1 170.869 L2128.1 166.933 Q2126.64 169.295 2124.46 170.429 Q2122.29 171.54 2119.14 171.54 Q2115.16 171.54 2112.8 169.318 Q2110.46 167.072 2110.46 163.322 Q2110.46 158.947 2113.38 156.725 Q2116.32 154.503 2122.13 154.503 L2128.1 154.503 L2128.1 154.086 Q2128.1 151.147 2126.15 149.549 Q2124.23 147.929 2120.74 147.929 Q2118.51 147.929 2116.41 148.461 Q2114.3 148.994 2112.36 150.059 L2112.36 146.123 Q2114.7 145.221 2116.89 144.781 Q2119.09 144.318 2121.18 144.318 Q2126.8 144.318 2129.58 147.234 Q2132.36 150.151 2132.36 156.077 Z" fill="#000000" fill-rule="evenodd" fill-opacity="1" /><path clip-path="url(#clip030)" d="M 0 0 M2155.48 145.938 L2155.48 149.92 Q2153.68 148.924 2151.85 148.438 Q2150.04 147.929 2148.19 147.929 Q2144.05 147.929 2141.76 150.568 Q2139.46 153.184 2139.46 157.929 Q2139.46 162.674 2141.76 165.313 Q2144.05 167.929 2148.19 167.929 Q2150.04 167.929 2151.85 167.443 Q2153.68 166.933 2155.48 165.938 L2155.48 169.873 Q2153.7 170.707 2151.78 171.123 Q2149.88 171.54 2147.73 171.54 Q2141.87 171.54 2138.42 167.859 Q2134.97 164.179 2134.97 157.929 Q2134.97 151.586 2138.45 147.952 Q2141.94 144.318 2148.01 144.318 Q2149.97 144.318 2151.85 144.735 Q2153.72 145.128 2155.48 145.938 Z" fill="#000000" fill-rule="evenodd" fill-opacity="1" /><path clip-path="url(#clip030)" d="M 0 0 M2181.5 155.221 L2181.5 170.869 L2177.24 170.869 L2177.24 155.359 Q2177.24 151.679 2175.81 149.85 Q2174.37 148.022 2171.5 148.022 Q2168.05 148.022 2166.06 150.221 Q2164.07 152.42 2164.07 156.216 L2164.07 170.869 L2159.79 170.869 L2159.79 134.85 L2164.07 134.85 L2164.07 148.971 Q2165.6 146.633 2167.66 145.475 Q2169.74 144.318 2172.45 144.318 Q2176.92 144.318 2179.21 147.096 Q2181.5 149.85 2181.5 155.221 Z" fill="#000000" fill-rule="evenodd" fill-opacity="1" /><path clip-path="url(#clip030)" d="M 0 0 M2185.97 144.943 L2190.23 144.943 L2190.23 170.869 L2185.97 170.869 L2185.97 144.943 M2185.97 134.85 L2190.23 134.85 L2190.23 140.244 L2185.97 140.244 L2185.97 134.85 Z" fill="#000000" fill-rule="evenodd" fill-opacity="1" /><path clip-path="url(#clip030)" d="M 0 0 M2216.25 155.221 L2216.25 170.869 L2211.99 170.869 L2211.99 155.359 Q2211.99 151.679 2210.55 149.85 Q2209.12 148.022 2206.25 148.022 Q2202.8 148.022 2200.81 150.221 Q2198.82 152.42 2198.82 156.216 L2198.82 170.869 L2194.53 170.869 L2194.53 144.943 L2198.82 144.943 L2198.82 148.971 Q2200.34 146.633 2202.4 145.475 Q2204.49 144.318 2207.19 144.318 Q2211.66 144.318 2213.95 147.096 Q2216.25 149.85 2216.25 155.221 Z" fill="#000000" fill-rule="evenodd" fill-opacity="1" /><path clip-path="url(#clip030)" d="M 0 0 M2242.89 156.841 L2242.89 158.924 L2223.31 158.924 Q2223.58 163.322 2225.94 165.637 Q2228.33 167.929 2232.57 167.929 Q2235.02 167.929 2237.31 167.327 Q2239.63 166.725 2241.89 165.521 L2241.89 169.549 Q2239.6 170.521 2237.19 171.031 Q2234.79 171.54 2232.31 171.54 Q2226.11 171.54 2222.47 167.929 Q2218.86 164.318 2218.86 158.16 Q2218.86 151.795 2222.29 148.068 Q2225.74 144.318 2231.57 144.318 Q2236.8 144.318 2239.83 147.697 Q2242.89 151.054 2242.89 156.841 M2238.63 155.591 Q2238.58 152.096 2236.66 150.012 Q2234.76 147.929 2231.62 147.929 Q2228.05 147.929 2225.9 149.943 Q2223.77 151.957 2223.44 155.614 L2238.63 155.591 Z" fill="#000000" fill-rule="evenodd" fill-opacity="1" /><polyline clip-path="url(#clip030)" style="stroke:#e26f46; stroke-width:4; stroke-opacity:1; fill:none" points="
  1761.21,214.069 1893.05,214.069 
  "/>
<path clip-path="url(#clip030)" d="M 0 0 M1939.05 217.321 L1939.05 219.404 L1919.46 219.404 Q1919.74 223.802 1922.1 226.117 Q1924.49 228.409 1928.72 228.409 Q1931.18 228.409 1933.47 227.807 Q1935.78 227.205 1938.05 226.001 L1938.05 230.029 Q1935.76 231.001 1933.35 231.511 Q1930.95 232.02 1928.47 232.02 Q1922.27 232.02 1918.63 228.409 Q1915.02 224.798 1915.02 218.64 Q1915.02 212.275 1918.45 208.548 Q1921.9 204.798 1927.73 204.798 Q1932.96 204.798 1935.99 208.177 Q1939.05 211.534 1939.05 217.321 M1934.79 216.071 Q1934.74 212.576 1932.82 210.492 Q1930.92 208.409 1927.78 208.409 Q1924.21 208.409 1922.06 210.423 Q1919.93 212.437 1919.6 216.094 L1934.79 216.071 Z" fill="#000000" fill-rule="evenodd" fill-opacity="1" /><path clip-path="url(#clip030)" d="M 0 0 M1963.7 210.4 Q1965.3 207.529 1967.52 206.164 Q1969.74 204.798 1972.75 204.798 Q1976.8 204.798 1979 207.645 Q1981.2 210.469 1981.2 215.701 L1981.2 231.349 L1976.92 231.349 L1976.92 215.839 Q1976.92 212.113 1975.6 210.307 Q1974.28 208.502 1971.57 208.502 Q1968.26 208.502 1966.34 210.701 Q1964.42 212.9 1964.42 216.696 L1964.42 231.349 L1960.14 231.349 L1960.14 215.839 Q1960.14 212.089 1958.82 210.307 Q1957.5 208.502 1954.74 208.502 Q1951.48 208.502 1949.56 210.724 Q1947.64 212.923 1947.64 216.696 L1947.64 231.349 L1943.35 231.349 L1943.35 205.423 L1947.64 205.423 L1947.64 209.451 Q1949.09 207.066 1951.13 205.932 Q1953.17 204.798 1955.97 204.798 Q1958.79 204.798 1960.76 206.233 Q1962.75 207.668 1963.7 210.4 Z" fill="#000000" fill-rule="evenodd" fill-opacity="1" /><path clip-path="url(#clip030)" d="M 0 0 M1989.79 227.46 L1989.79 241.21 L1985.51 241.21 L1985.51 205.423 L1989.79 205.423 L1989.79 209.358 Q1991.13 207.043 1993.17 205.932 Q1995.23 204.798 1998.08 204.798 Q2002.8 204.798 2005.74 208.548 Q2008.7 212.298 2008.7 218.409 Q2008.7 224.52 2005.74 228.27 Q2002.8 232.02 1998.08 232.02 Q1995.23 232.02 1993.17 230.909 Q1991.13 229.775 1989.79 227.46 M2004.28 218.409 Q2004.28 213.71 2002.33 211.048 Q2000.41 208.363 1997.03 208.363 Q1993.65 208.363 1991.71 211.048 Q1989.79 213.71 1989.79 218.409 Q1989.79 223.108 1991.71 225.793 Q1993.65 228.455 1997.03 228.455 Q2000.41 228.455 2002.33 225.793 Q2004.28 223.108 2004.28 218.409 Z" fill="#000000" fill-rule="evenodd" fill-opacity="1" /><path clip-path="url(#clip030)" d="M 0 0 M2013.17 205.423 L2017.43 205.423 L2017.43 231.349 L2013.17 231.349 L2013.17 205.423 M2013.17 195.33 L2017.43 195.33 L2017.43 200.724 L2013.17 200.724 L2013.17 195.33 Z" fill="#000000" fill-rule="evenodd" fill-opacity="1" /><path clip-path="url(#clip030)" d="M 0 0 M2036.92 209.404 Q2036.2 208.988 2035.34 208.802 Q2034.51 208.594 2033.49 208.594 Q2029.88 208.594 2027.94 210.955 Q2026.02 213.293 2026.02 217.691 L2026.02 231.349 L2021.73 231.349 L2021.73 205.423 L2026.02 205.423 L2026.02 209.451 Q2027.36 207.089 2029.51 205.955 Q2031.66 204.798 2034.74 204.798 Q2035.18 204.798 2035.71 204.867 Q2036.25 204.914 2036.89 205.029 L2036.92 209.404 Z" fill="#000000" fill-rule="evenodd" fill-opacity="1" /><path clip-path="url(#clip030)" d="M 0 0 M2041.39 205.423 L2045.64 205.423 L2045.64 231.349 L2041.39 231.349 L2041.39 205.423 M2041.39 195.33 L2045.64 195.33 L2045.64 200.724 L2041.39 200.724 L2041.39 195.33 Z" fill="#000000" fill-rule="evenodd" fill-opacity="1" /><path clip-path="url(#clip030)" d="M 0 0 M2068.77 206.418 L2068.77 210.4 Q2066.96 209.404 2065.14 208.918 Q2063.33 208.409 2061.48 208.409 Q2057.33 208.409 2055.04 211.048 Q2052.75 213.664 2052.75 218.409 Q2052.75 223.154 2055.04 225.793 Q2057.33 228.409 2061.48 228.409 Q2063.33 228.409 2065.14 227.923 Q2066.96 227.413 2068.77 226.418 L2068.77 230.353 Q2066.99 231.187 2065.07 231.603 Q2063.17 232.02 2061.02 232.02 Q2055.16 232.02 2051.71 228.339 Q2048.26 224.659 2048.26 218.409 Q2048.26 212.066 2051.73 208.432 Q2055.23 204.798 2061.29 204.798 Q2063.26 204.798 2065.14 205.215 Q2067.01 205.608 2068.77 206.418 Z" fill="#000000" fill-rule="evenodd" fill-opacity="1" /><path clip-path="url(#clip030)" d="M 0 0 M2085.02 218.316 Q2079.86 218.316 2077.87 219.497 Q2075.88 220.677 2075.88 223.525 Q2075.88 225.793 2077.36 227.136 Q2078.86 228.455 2081.43 228.455 Q2084.97 228.455 2087.1 225.955 Q2089.26 223.432 2089.26 219.265 L2089.26 218.316 L2085.02 218.316 M2093.51 216.557 L2093.51 231.349 L2089.26 231.349 L2089.26 227.413 Q2087.8 229.775 2085.62 230.909 Q2083.45 232.02 2080.3 232.02 Q2076.32 232.02 2073.95 229.798 Q2071.62 227.552 2071.62 223.802 Q2071.62 219.427 2074.53 217.205 Q2077.47 214.983 2083.28 214.983 L2089.26 214.983 L2089.26 214.566 Q2089.26 211.627 2087.31 210.029 Q2085.39 208.409 2081.89 208.409 Q2079.67 208.409 2077.57 208.941 Q2075.46 209.474 2073.52 210.539 L2073.52 206.603 Q2075.85 205.701 2078.05 205.261 Q2080.25 204.798 2082.33 204.798 Q2087.96 204.798 2090.74 207.714 Q2093.51 210.631 2093.51 216.557 Z" fill="#000000" fill-rule="evenodd" fill-opacity="1" /><path clip-path="url(#clip030)" d="M 0 0 M2097.98 195.33 L2102.24 195.33 L2102.24 231.349 L2097.98 231.349 L2097.98 195.33 Z" fill="#000000" fill-rule="evenodd" fill-opacity="1" /></svg>
