<?xml version="1.0" encoding="utf-8"?>
<svg xmlns="http://www.w3.org/2000/svg" xmlns:xlink="http://www.w3.org/1999/xlink" width="600" height="400" viewBox="0 0 2400 1600">
<defs>
  <clipPath id="clip590">
    <rect x="0" y="0" width="2400" height="1600"/>
  </clipPath>
</defs>
<path clip-path="url(#clip590)" d="
M0 1600 L2400 1600 L2400 0 L0 0  Z
  " fill="#ffffff" fill-rule="evenodd" fill-opacity="1"/>
<defs>
  <clipPath id="clip591">
    <rect x="480" y="0" width="1681" height="1600"/>
  </clipPath>
</defs>
<path clip-path="url(#clip590)" d="
M319.171 1423.18 L2352.76 1423.18 L2352.76 47.2441 L319.171 47.2441  Z
  " fill="#ffffff" fill-rule="evenodd" fill-opacity="1"/>
<defs>
  <clipPath id="clip592">
    <rect x="319" y="47" width="2035" height="1377"/>
  </clipPath>
</defs>
<polyline clip-path="url(#clip592)" style="stroke:#000000; stroke-width:2; stroke-opacity:0.1; fill:none" points="
  376.722,1423.18 376.722,47.2441 
  "/>
<polyline clip-path="url(#clip592)" style="stroke:#000000; stroke-width:2; stroke-opacity:0.1; fill:none" points="
  760.418,1423.18 760.418,47.2441 
  "/>
<polyline clip-path="url(#clip592)" style="stroke:#000000; stroke-width:2; stroke-opacity:0.1; fill:none" points="
  1144.11,1423.18 1144.11,47.2441 
  "/>
<polyline clip-path="url(#clip592)" style="stroke:#000000; stroke-width:2; stroke-opacity:0.1; fill:none" points="
  1527.81,1423.18 1527.81,47.2441 
  "/>
<polyline clip-path="url(#clip592)" style="stroke:#000000; stroke-width:2; stroke-opacity:0.1; fill:none" points="
  1911.51,1423.18 1911.51,47.2441 
  "/>
<polyline clip-path="url(#clip592)" style="stroke:#000000; stroke-width:2; stroke-opacity:0.1; fill:none" points="
  2295.2,1423.18 2295.2,47.2441 
  "/>
<polyline clip-path="url(#clip592)" style="stroke:#000000; stroke-width:2; stroke-opacity:0.1; fill:none" points="
  319.171,1384.24 2352.76,1384.24 
  "/>
<polyline clip-path="url(#clip592)" style="stroke:#000000; stroke-width:2; stroke-opacity:0.1; fill:none" points="
  319.171,1093.42 2352.76,1093.42 
  "/>
<polyline clip-path="url(#clip592)" style="stroke:#000000; stroke-width:2; stroke-opacity:0.1; fill:none" points="
  319.171,802.591 2352.76,802.591 
  "/>
<polyline clip-path="url(#clip592)" style="stroke:#000000; stroke-width:2; stroke-opacity:0.1; fill:none" points="
  319.171,511.766 2352.76,511.766 
  "/>
<polyline clip-path="url(#clip592)" style="stroke:#000000; stroke-width:2; stroke-opacity:0.1; fill:none" points="
  319.171,220.941 2352.76,220.941 
  "/>
<polyline clip-path="url(#clip590)" style="stroke:#000000; stroke-width:4; stroke-opacity:1; fill:none" points="
  319.171,1423.18 2352.76,1423.18 
  "/>
<polyline clip-path="url(#clip590)" style="stroke:#000000; stroke-width:4; stroke-opacity:1; fill:none" points="
  319.171,1423.18 319.171,47.2441 
  "/>
<polyline clip-path="url(#clip590)" style="stroke:#000000; stroke-width:4; stroke-opacity:1; fill:none" points="
  376.722,1423.18 376.722,1406.67 
  "/>
<polyline clip-path="url(#clip590)" style="stroke:#000000; stroke-width:4; stroke-opacity:1; fill:none" points="
  760.418,1423.18 760.418,1406.67 
  "/>
<polyline clip-path="url(#clip590)" style="stroke:#000000; stroke-width:4; stroke-opacity:1; fill:none" points="
  1144.11,1423.18 1144.11,1406.67 
  "/>
<polyline clip-path="url(#clip590)" style="stroke:#000000; stroke-width:4; stroke-opacity:1; fill:none" points="
  1527.81,1423.18 1527.81,1406.67 
  "/>
<polyline clip-path="url(#clip590)" style="stroke:#000000; stroke-width:4; stroke-opacity:1; fill:none" points="
  1911.51,1423.18 1911.51,1406.67 
  "/>
<polyline clip-path="url(#clip590)" style="stroke:#000000; stroke-width:4; stroke-opacity:1; fill:none" points="
  2295.2,1423.18 2295.2,1406.67 
  "/>
<polyline clip-path="url(#clip590)" style="stroke:#000000; stroke-width:4; stroke-opacity:1; fill:none" points="
  319.171,1384.24 343.574,1384.24 
  "/>
<polyline clip-path="url(#clip590)" style="stroke:#000000; stroke-width:4; stroke-opacity:1; fill:none" points="
  319.171,1093.42 343.574,1093.42 
  "/>
<polyline clip-path="url(#clip590)" style="stroke:#000000; stroke-width:4; stroke-opacity:1; fill:none" points="
  319.171,802.591 343.574,802.591 
  "/>
<polyline clip-path="url(#clip590)" style="stroke:#000000; stroke-width:4; stroke-opacity:1; fill:none" points="
  319.171,511.766 343.574,511.766 
  "/>
<polyline clip-path="url(#clip590)" style="stroke:#000000; stroke-width:4; stroke-opacity:1; fill:none" points="
  319.171,220.941 343.574,220.941 
  "/>
<path clip-path="url(#clip590)" d="M 0 0 M376.722 1445.17 Q373.111 1445.17 371.282 1448.74 Q369.476 1452.28 369.476 1459.41 Q369.476 1466.51 371.282 1470.08 Q373.111 1473.62 376.722 1473.62 Q380.356 1473.62 382.162 1470.08 Q383.99 1466.51 383.99 1459.41 Q383.99 1452.28 382.162 1448.74 Q380.356 1445.17 376.722 1445.17 M376.722 1441.47 Q382.532 1441.47 385.587 1446.07 Q388.666 1450.66 388.666 1459.41 Q388.666 1468.13 385.587 1472.74 Q382.532 1477.32 376.722 1477.32 Q370.912 1477.32 367.833 1472.74 Q364.777 1468.13 364.777 1459.41 Q364.777 1450.66 367.833 1446.07 Q370.912 1441.47 376.722 1441.47 Z" fill="#000000" fill-rule="evenodd" fill-opacity="1" /><path clip-path="url(#clip590)" d="M 0 0 M750.8 1472.72 L758.439 1472.72 L758.439 1446.35 L750.128 1448.02 L750.128 1443.76 L758.392 1442.09 L763.068 1442.09 L763.068 1472.72 L770.707 1472.72 L770.707 1476.65 L750.8 1476.65 L750.8 1472.72 Z" fill="#000000" fill-rule="evenodd" fill-opacity="1" /><path clip-path="url(#clip590)" d="M 0 0 M1138.77 1472.72 L1155.09 1472.72 L1155.09 1476.65 L1133.14 1476.65 L1133.14 1472.72 Q1135.8 1469.96 1140.39 1465.33 Q1144.99 1460.68 1146.17 1459.34 Q1148.42 1456.81 1149.3 1455.08 Q1150.2 1453.32 1150.2 1451.63 Q1150.2 1448.87 1148.26 1447.14 Q1146.34 1445.4 1143.23 1445.4 Q1141.04 1445.4 1138.58 1446.17 Q1136.15 1446.93 1133.37 1448.48 L1133.37 1443.76 Q1136.2 1442.62 1138.65 1442.05 Q1141.1 1441.47 1143.14 1441.47 Q1148.51 1441.47 1151.71 1444.15 Q1154.9 1446.84 1154.9 1451.33 Q1154.9 1453.46 1154.09 1455.38 Q1153.3 1457.28 1151.2 1459.87 Q1150.62 1460.54 1147.52 1463.76 Q1144.41 1466.95 1138.77 1472.72 Z" fill="#000000" fill-rule="evenodd" fill-opacity="1" /><path clip-path="url(#clip590)" d="M 0 0 M1532.06 1458.02 Q1535.41 1458.74 1537.29 1461 Q1539.19 1463.27 1539.19 1466.61 Q1539.19 1471.72 1535.67 1474.52 Q1532.15 1477.32 1525.67 1477.32 Q1523.49 1477.32 1521.18 1476.88 Q1518.89 1476.47 1516.43 1475.61 L1516.43 1471.1 Q1518.38 1472.23 1520.69 1472.81 Q1523.01 1473.39 1525.53 1473.39 Q1529.93 1473.39 1532.22 1471.65 Q1534.53 1469.92 1534.53 1466.61 Q1534.53 1463.55 1532.38 1461.84 Q1530.25 1460.1 1526.43 1460.1 L1522.4 1460.1 L1522.4 1456.26 L1526.62 1456.26 Q1530.07 1456.26 1531.9 1454.89 Q1533.72 1453.5 1533.72 1450.91 Q1533.72 1448.25 1531.83 1446.84 Q1529.95 1445.4 1526.43 1445.4 Q1524.51 1445.4 1522.31 1445.82 Q1520.11 1446.24 1517.47 1447.11 L1517.47 1442.95 Q1520.14 1442.21 1522.45 1441.84 Q1524.79 1441.47 1526.85 1441.47 Q1532.17 1441.47 1535.27 1443.9 Q1538.38 1446.3 1538.38 1450.43 Q1538.38 1453.3 1536.73 1455.29 Q1535.09 1457.25 1532.06 1458.02 Z" fill="#000000" fill-rule="evenodd" fill-opacity="1" /><path clip-path="url(#clip590)" d="M 0 0 M1914.51 1446.17 L1902.71 1464.61 L1914.51 1464.61 L1914.51 1446.17 M1913.29 1442.09 L1919.17 1442.09 L1919.17 1464.61 L1924.1 1464.61 L1924.1 1468.5 L1919.17 1468.5 L1919.17 1476.65 L1914.51 1476.65 L1914.51 1468.5 L1898.91 1468.5 L1898.91 1463.99 L1913.29 1442.09 Z" fill="#000000" fill-rule="evenodd" fill-opacity="1" /><path clip-path="url(#clip590)" d="M 0 0 M2285.48 1442.09 L2303.84 1442.09 L2303.84 1446.03 L2289.76 1446.03 L2289.76 1454.5 Q2290.78 1454.15 2291.8 1453.99 Q2292.82 1453.8 2293.84 1453.8 Q2299.62 1453.8 2303 1456.98 Q2306.38 1460.15 2306.38 1465.56 Q2306.38 1471.14 2302.91 1474.24 Q2299.44 1477.32 2293.12 1477.32 Q2290.94 1477.32 2288.67 1476.95 Q2286.43 1476.58 2284.02 1475.84 L2284.02 1471.14 Q2286.1 1472.28 2288.33 1472.83 Q2290.55 1473.39 2293.03 1473.39 Q2297.03 1473.39 2299.37 1471.28 Q2301.71 1469.18 2301.71 1465.56 Q2301.71 1461.95 2299.37 1459.85 Q2297.03 1457.74 2293.03 1457.74 Q2291.15 1457.74 2289.28 1458.16 Q2287.42 1458.57 2285.48 1459.45 L2285.48 1442.09 Z" fill="#000000" fill-rule="evenodd" fill-opacity="1" /><path clip-path="url(#clip590)" d="M 0 0 M138.205 1370.04 Q134.593 1370.04 132.765 1373.6 Q130.959 1377.15 130.959 1384.28 Q130.959 1391.38 132.765 1394.95 Q134.593 1398.49 138.205 1398.49 Q141.839 1398.49 143.644 1394.95 Q145.473 1391.38 145.473 1384.28 Q145.473 1377.15 143.644 1373.6 Q141.839 1370.04 138.205 1370.04 M138.205 1366.34 Q144.015 1366.34 147.07 1370.94 Q150.149 1375.53 150.149 1384.28 Q150.149 1393 147.07 1397.61 Q144.015 1402.19 138.205 1402.19 Q132.394 1402.19 129.316 1397.61 Q126.26 1393 126.26 1384.28 Q126.26 1375.53 129.316 1370.94 Q132.394 1366.34 138.205 1366.34 Z" fill="#000000" fill-rule="evenodd" fill-opacity="1" /><path clip-path="url(#clip590)" d="M 0 0 M155.218 1395.64 L160.103 1395.64 L160.103 1401.52 L155.218 1401.52 L155.218 1395.64 Z" fill="#000000" fill-rule="evenodd" fill-opacity="1" /><path clip-path="url(#clip590)" d="M 0 0 M175.172 1370.04 Q171.561 1370.04 169.732 1373.6 Q167.927 1377.15 167.927 1384.28 Q167.927 1391.38 169.732 1394.95 Q171.561 1398.49 175.172 1398.49 Q178.806 1398.49 180.612 1394.95 Q182.44 1391.38 182.44 1384.28 Q182.44 1377.15 180.612 1373.6 Q178.806 1370.04 175.172 1370.04 M175.172 1366.34 Q180.982 1366.34 184.038 1370.94 Q187.116 1375.53 187.116 1384.28 Q187.116 1393 184.038 1397.61 Q180.982 1402.19 175.172 1402.19 Q169.362 1402.19 166.283 1397.61 Q163.228 1393 163.228 1384.28 Q163.228 1375.53 166.283 1370.94 Q169.362 1366.34 175.172 1366.34 Z" fill="#000000" fill-rule="evenodd" fill-opacity="1" /><path clip-path="url(#clip590)" d="M 0 0 M202.186 1370.04 Q198.575 1370.04 196.746 1373.6 Q194.94 1377.15 194.94 1384.28 Q194.94 1391.38 196.746 1394.95 Q198.575 1398.49 202.186 1398.49 Q205.82 1398.49 207.625 1394.95 Q209.454 1391.38 209.454 1384.28 Q209.454 1377.15 207.625 1373.6 Q205.82 1370.04 202.186 1370.04 M202.186 1366.34 Q207.996 1366.34 211.051 1370.94 Q214.13 1375.53 214.13 1384.28 Q214.13 1393 211.051 1397.61 Q207.996 1402.19 202.186 1402.19 Q196.376 1402.19 193.297 1397.61 Q190.241 1393 190.241 1384.28 Q190.241 1375.53 193.297 1370.94 Q196.376 1366.34 202.186 1366.34 Z" fill="#000000" fill-rule="evenodd" fill-opacity="1" /><path clip-path="url(#clip590)" d="M 0 0 M229.199 1370.04 Q225.588 1370.04 223.76 1373.6 Q221.954 1377.15 221.954 1384.28 Q221.954 1391.38 223.76 1394.95 Q225.588 1398.49 229.199 1398.49 Q232.834 1398.49 234.639 1394.95 Q236.468 1391.38 236.468 1384.28 Q236.468 1377.15 234.639 1373.6 Q232.834 1370.04 229.199 1370.04 M229.199 1366.34 Q235.01 1366.34 238.065 1370.94 Q241.144 1375.53 241.144 1384.28 Q241.144 1393 238.065 1397.61 Q235.01 1402.19 229.199 1402.19 Q223.389 1402.19 220.311 1397.61 Q217.255 1393 217.255 1384.28 Q217.255 1375.53 220.311 1370.94 Q223.389 1366.34 229.199 1366.34 Z" fill="#000000" fill-rule="evenodd" fill-opacity="1" /><path clip-path="url(#clip590)" d="M 0 0 M256.213 1370.04 Q252.602 1370.04 250.773 1373.6 Q248.968 1377.15 248.968 1384.28 Q248.968 1391.38 250.773 1394.95 Q252.602 1398.49 256.213 1398.49 Q259.847 1398.49 261.653 1394.95 Q263.482 1391.38 263.482 1384.28 Q263.482 1377.15 261.653 1373.6 Q259.847 1370.04 256.213 1370.04 M256.213 1366.34 Q262.023 1366.34 265.079 1370.94 Q268.158 1375.53 268.158 1384.28 Q268.158 1393 265.079 1397.61 Q262.023 1402.19 256.213 1402.19 Q250.403 1402.19 247.324 1397.61 Q244.269 1393 244.269 1384.28 Q244.269 1375.53 247.324 1370.94 Q250.403 1366.34 256.213 1366.34 Z" fill="#000000" fill-rule="evenodd" fill-opacity="1" /><path clip-path="url(#clip590)" d="M 0 0 M283.227 1370.04 Q279.616 1370.04 277.787 1373.6 Q275.982 1377.15 275.982 1384.28 Q275.982 1391.38 277.787 1394.95 Q279.616 1398.49 283.227 1398.49 Q286.861 1398.49 288.667 1394.95 Q290.495 1391.38 290.495 1384.28 Q290.495 1377.15 288.667 1373.6 Q286.861 1370.04 283.227 1370.04 M283.227 1366.34 Q289.037 1366.34 292.093 1370.94 Q295.171 1375.53 295.171 1384.28 Q295.171 1393 292.093 1397.61 Q289.037 1402.19 283.227 1402.19 Q277.417 1402.19 274.338 1397.61 Q271.283 1393 271.283 1384.28 Q271.283 1375.53 274.338 1370.94 Q277.417 1366.34 283.227 1366.34 Z" fill="#000000" fill-rule="evenodd" fill-opacity="1" /><path clip-path="url(#clip590)" d="M 0 0 M140.797 1079.21 Q137.186 1079.21 135.357 1082.78 Q133.552 1086.32 133.552 1093.45 Q133.552 1100.56 135.357 1104.12 Q137.186 1107.66 140.797 1107.66 Q144.431 1107.66 146.237 1104.12 Q148.066 1100.56 148.066 1093.45 Q148.066 1086.32 146.237 1082.78 Q144.431 1079.21 140.797 1079.21 M140.797 1075.51 Q146.607 1075.51 149.663 1080.12 Q152.741 1084.7 152.741 1093.45 Q152.741 1102.18 149.663 1106.78 Q146.607 1111.37 140.797 1111.37 Q134.987 1111.37 131.908 1106.78 Q128.853 1102.18 128.853 1093.45 Q128.853 1084.7 131.908 1080.12 Q134.987 1075.51 140.797 1075.51 Z" fill="#000000" fill-rule="evenodd" fill-opacity="1" /><path clip-path="url(#clip590)" d="M 0 0 M157.811 1104.82 L162.695 1104.82 L162.695 1110.7 L157.811 1110.7 L157.811 1104.82 Z" fill="#000000" fill-rule="evenodd" fill-opacity="1" /><path clip-path="url(#clip590)" d="M 0 0 M177.765 1079.21 Q174.153 1079.21 172.325 1082.78 Q170.519 1086.32 170.519 1093.45 Q170.519 1100.56 172.325 1104.12 Q174.153 1107.66 177.765 1107.66 Q181.399 1107.66 183.204 1104.12 Q185.033 1100.56 185.033 1093.45 Q185.033 1086.32 183.204 1082.78 Q181.399 1079.21 177.765 1079.21 M177.765 1075.51 Q183.575 1075.51 186.63 1080.12 Q189.709 1084.7 189.709 1093.45 Q189.709 1102.18 186.63 1106.78 Q183.575 1111.37 177.765 1111.37 Q171.954 1111.37 168.876 1106.78 Q165.82 1102.18 165.82 1093.45 Q165.82 1084.7 168.876 1080.12 Q171.954 1075.51 177.765 1075.51 Z" fill="#000000" fill-rule="evenodd" fill-opacity="1" /><path clip-path="url(#clip590)" d="M 0 0 M204.778 1079.21 Q201.167 1079.21 199.338 1082.78 Q197.533 1086.32 197.533 1093.45 Q197.533 1100.56 199.338 1104.12 Q201.167 1107.66 204.778 1107.66 Q208.412 1107.66 210.218 1104.12 Q212.047 1100.56 212.047 1093.45 Q212.047 1086.32 210.218 1082.78 Q208.412 1079.21 204.778 1079.21 M204.778 1075.51 Q210.588 1075.51 213.644 1080.12 Q216.723 1084.7 216.723 1093.45 Q216.723 1102.18 213.644 1106.78 Q210.588 1111.37 204.778 1111.37 Q198.968 1111.37 195.889 1106.78 Q192.834 1102.18 192.834 1093.45 Q192.834 1084.7 195.889 1080.12 Q198.968 1075.51 204.778 1075.51 Z" fill="#000000" fill-rule="evenodd" fill-opacity="1" /><path clip-path="url(#clip590)" d="M 0 0 M231.792 1079.21 Q228.181 1079.21 226.352 1082.78 Q224.547 1086.32 224.547 1093.45 Q224.547 1100.56 226.352 1104.12 Q228.181 1107.66 231.792 1107.66 Q235.426 1107.66 237.232 1104.12 Q239.06 1100.56 239.06 1093.45 Q239.06 1086.32 237.232 1082.78 Q235.426 1079.21 231.792 1079.21 M231.792 1075.51 Q237.602 1075.51 240.658 1080.12 Q243.736 1084.7 243.736 1093.45 Q243.736 1102.18 240.658 1106.78 Q237.602 1111.37 231.792 1111.37 Q225.982 1111.37 222.903 1106.78 Q219.848 1102.18 219.848 1093.45 Q219.848 1084.7 222.903 1080.12 Q225.982 1075.51 231.792 1075.51 Z" fill="#000000" fill-rule="evenodd" fill-opacity="1" /><path clip-path="url(#clip590)" d="M 0 0 M252.834 1106.76 L269.153 1106.76 L269.153 1110.7 L247.209 1110.7 L247.209 1106.76 Q249.871 1104.01 254.454 1099.38 Q259.06 1094.72 260.241 1093.38 Q262.486 1090.86 263.366 1089.12 Q264.269 1087.36 264.269 1085.67 Q264.269 1082.92 262.324 1081.18 Q260.403 1079.45 257.301 1079.45 Q255.102 1079.45 252.648 1080.21 Q250.218 1080.97 247.44 1082.52 L247.44 1077.8 Q250.264 1076.67 252.718 1076.09 Q255.172 1075.51 257.209 1075.51 Q262.579 1075.51 265.773 1078.2 Q268.968 1080.88 268.968 1085.37 Q268.968 1087.5 268.158 1089.42 Q267.371 1091.32 265.264 1093.91 Q264.685 1094.58 261.584 1097.8 Q258.482 1101 252.834 1106.76 Z" fill="#000000" fill-rule="evenodd" fill-opacity="1" /><path clip-path="url(#clip590)" d="M 0 0 M274.269 1076.14 L292.625 1076.14 L292.625 1080.07 L278.551 1080.07 L278.551 1088.54 Q279.57 1088.2 280.588 1088.03 Q281.607 1087.85 282.625 1087.85 Q288.412 1087.85 291.792 1091.02 Q295.171 1094.19 295.171 1099.61 Q295.171 1105.19 291.699 1108.29 Q288.227 1111.37 281.907 1111.37 Q279.732 1111.37 277.463 1111 Q275.218 1110.63 272.81 1109.89 L272.81 1105.19 Q274.894 1106.32 277.116 1106.88 Q279.338 1107.43 281.815 1107.43 Q285.819 1107.43 288.157 1105.33 Q290.495 1103.22 290.495 1099.61 Q290.495 1096 288.157 1093.89 Q285.819 1091.78 281.815 1091.78 Q279.94 1091.78 278.065 1092.2 Q276.213 1092.62 274.269 1093.5 L274.269 1076.14 Z" fill="#000000" fill-rule="evenodd" fill-opacity="1" /><path clip-path="url(#clip590)" d="M 0 0 M139.2 788.389 Q135.589 788.389 133.76 791.954 Q131.955 795.496 131.955 802.626 Q131.955 809.732 133.76 813.297 Q135.589 816.838 139.2 816.838 Q142.834 816.838 144.64 813.297 Q146.468 809.732 146.468 802.626 Q146.468 795.496 144.64 791.954 Q142.834 788.389 139.2 788.389 M139.2 784.686 Q145.01 784.686 148.066 789.292 Q151.144 793.876 151.144 802.626 Q151.144 811.352 148.066 815.959 Q145.01 820.542 139.2 820.542 Q133.39 820.542 130.311 815.959 Q127.256 811.352 127.256 802.626 Q127.256 793.876 130.311 789.292 Q133.39 784.686 139.2 784.686 Z" fill="#000000" fill-rule="evenodd" fill-opacity="1" /><path clip-path="url(#clip590)" d="M 0 0 M156.214 813.991 L161.098 813.991 L161.098 819.871 L156.214 819.871 L156.214 813.991 Z" fill="#000000" fill-rule="evenodd" fill-opacity="1" /><path clip-path="url(#clip590)" d="M 0 0 M176.167 788.389 Q172.556 788.389 170.728 791.954 Q168.922 795.496 168.922 802.626 Q168.922 809.732 170.728 813.297 Q172.556 816.838 176.167 816.838 Q179.802 816.838 181.607 813.297 Q183.436 809.732 183.436 802.626 Q183.436 795.496 181.607 791.954 Q179.802 788.389 176.167 788.389 M176.167 784.686 Q181.977 784.686 185.033 789.292 Q188.112 793.876 188.112 802.626 Q188.112 811.352 185.033 815.959 Q181.977 820.542 176.167 820.542 Q170.357 820.542 167.278 815.959 Q164.223 811.352 164.223 802.626 Q164.223 793.876 167.278 789.292 Q170.357 784.686 176.167 784.686 Z" fill="#000000" fill-rule="evenodd" fill-opacity="1" /><path clip-path="url(#clip590)" d="M 0 0 M203.181 788.389 Q199.57 788.389 197.741 791.954 Q195.936 795.496 195.936 802.626 Q195.936 809.732 197.741 813.297 Q199.57 816.838 203.181 816.838 Q206.815 816.838 208.621 813.297 Q210.45 809.732 210.45 802.626 Q210.45 795.496 208.621 791.954 Q206.815 788.389 203.181 788.389 M203.181 784.686 Q208.991 784.686 212.047 789.292 Q215.125 793.876 215.125 802.626 Q215.125 811.352 212.047 815.959 Q208.991 820.542 203.181 820.542 Q197.371 820.542 194.292 815.959 Q191.237 811.352 191.237 802.626 Q191.237 793.876 194.292 789.292 Q197.371 784.686 203.181 784.686 Z" fill="#000000" fill-rule="evenodd" fill-opacity="1" /><path clip-path="url(#clip590)" d="M 0 0 M230.195 788.389 Q226.584 788.389 224.755 791.954 Q222.949 795.496 222.949 802.626 Q222.949 809.732 224.755 813.297 Q226.584 816.838 230.195 816.838 Q233.829 816.838 235.635 813.297 Q237.463 809.732 237.463 802.626 Q237.463 795.496 235.635 791.954 Q233.829 788.389 230.195 788.389 M230.195 784.686 Q236.005 784.686 239.06 789.292 Q242.139 793.876 242.139 802.626 Q242.139 811.352 239.06 815.959 Q236.005 820.542 230.195 820.542 Q224.385 820.542 221.306 815.959 Q218.25 811.352 218.25 802.626 Q218.25 793.876 221.306 789.292 Q224.385 784.686 230.195 784.686 Z" fill="#000000" fill-rule="evenodd" fill-opacity="1" /><path clip-path="url(#clip590)" d="M 0 0 M247.255 785.311 L265.611 785.311 L265.611 789.246 L251.537 789.246 L251.537 797.718 Q252.556 797.371 253.574 797.209 Q254.593 797.024 255.611 797.024 Q261.398 797.024 264.778 800.195 Q268.158 803.366 268.158 808.783 Q268.158 814.362 264.685 817.463 Q261.213 820.542 254.894 820.542 Q252.718 820.542 250.449 820.172 Q248.204 819.801 245.797 819.061 L245.797 814.362 Q247.88 815.496 250.102 816.051 Q252.324 816.607 254.801 816.607 Q258.806 816.607 261.144 814.5 Q263.482 812.394 263.482 808.783 Q263.482 805.172 261.144 803.065 Q258.806 800.959 254.801 800.959 Q252.926 800.959 251.051 801.376 Q249.199 801.792 247.255 802.672 L247.255 785.311 Z" fill="#000000" fill-rule="evenodd" fill-opacity="1" /><path clip-path="url(#clip590)" d="M 0 0 M283.227 788.389 Q279.616 788.389 277.787 791.954 Q275.982 795.496 275.982 802.626 Q275.982 809.732 277.787 813.297 Q279.616 816.838 283.227 816.838 Q286.861 816.838 288.667 813.297 Q290.495 809.732 290.495 802.626 Q290.495 795.496 288.667 791.954 Q286.861 788.389 283.227 788.389 M283.227 784.686 Q289.037 784.686 292.093 789.292 Q295.171 793.876 295.171 802.626 Q295.171 811.352 292.093 815.959 Q289.037 820.542 283.227 820.542 Q277.417 820.542 274.338 815.959 Q271.283 811.352 271.283 802.626 Q271.283 793.876 274.338 789.292 Q277.417 784.686 283.227 784.686 Z" fill="#000000" fill-rule="evenodd" fill-opacity="1" /><path clip-path="url(#clip590)" d="M 0 0 M140.103 497.565 Q136.492 497.565 134.663 501.13 Q132.857 504.671 132.857 511.801 Q132.857 518.907 134.663 522.472 Q136.492 526.014 140.103 526.014 Q143.737 526.014 145.542 522.472 Q147.371 518.907 147.371 511.801 Q147.371 504.671 145.542 501.13 Q143.737 497.565 140.103 497.565 M140.103 493.861 Q145.913 493.861 148.968 498.468 Q152.047 503.051 152.047 511.801 Q152.047 520.528 148.968 525.134 Q145.913 529.717 140.103 529.717 Q134.293 529.717 131.214 525.134 Q128.158 520.528 128.158 511.801 Q128.158 503.051 131.214 498.468 Q134.293 493.861 140.103 493.861 Z" fill="#000000" fill-rule="evenodd" fill-opacity="1" /><path clip-path="url(#clip590)" d="M 0 0 M157.116 523.166 L162.001 523.166 L162.001 529.046 L157.116 529.046 L157.116 523.166 Z" fill="#000000" fill-rule="evenodd" fill-opacity="1" /><path clip-path="url(#clip590)" d="M 0 0 M177.07 497.565 Q173.459 497.565 171.63 501.13 Q169.825 504.671 169.825 511.801 Q169.825 518.907 171.63 522.472 Q173.459 526.014 177.07 526.014 Q180.704 526.014 182.51 522.472 Q184.339 518.907 184.339 511.801 Q184.339 504.671 182.51 501.13 Q180.704 497.565 177.07 497.565 M177.07 493.861 Q182.88 493.861 185.936 498.468 Q189.014 503.051 189.014 511.801 Q189.014 520.528 185.936 525.134 Q182.88 529.717 177.07 529.717 Q171.26 529.717 168.181 525.134 Q165.126 520.528 165.126 511.801 Q165.126 503.051 168.181 498.468 Q171.26 493.861 177.07 493.861 Z" fill="#000000" fill-rule="evenodd" fill-opacity="1" /><path clip-path="url(#clip590)" d="M 0 0 M204.084 497.565 Q200.473 497.565 198.644 501.13 Q196.838 504.671 196.838 511.801 Q196.838 518.907 198.644 522.472 Q200.473 526.014 204.084 526.014 Q207.718 526.014 209.524 522.472 Q211.352 518.907 211.352 511.801 Q211.352 504.671 209.524 501.13 Q207.718 497.565 204.084 497.565 M204.084 493.861 Q209.894 493.861 212.95 498.468 Q216.028 503.051 216.028 511.801 Q216.028 520.528 212.95 525.134 Q209.894 529.717 204.084 529.717 Q198.274 529.717 195.195 525.134 Q192.139 520.528 192.139 511.801 Q192.139 503.051 195.195 498.468 Q198.274 493.861 204.084 493.861 Z" fill="#000000" fill-rule="evenodd" fill-opacity="1" /><path clip-path="url(#clip590)" d="M 0 0 M231.098 497.565 Q227.486 497.565 225.658 501.13 Q223.852 504.671 223.852 511.801 Q223.852 518.907 225.658 522.472 Q227.486 526.014 231.098 526.014 Q234.732 526.014 236.537 522.472 Q238.366 518.907 238.366 511.801 Q238.366 504.671 236.537 501.13 Q234.732 497.565 231.098 497.565 M231.098 493.861 Q236.908 493.861 239.963 498.468 Q243.042 503.051 243.042 511.801 Q243.042 520.528 239.963 525.134 Q236.908 529.717 231.098 529.717 Q225.287 529.717 222.209 525.134 Q219.153 520.528 219.153 511.801 Q219.153 503.051 222.209 498.468 Q225.287 493.861 231.098 493.861 Z" fill="#000000" fill-rule="evenodd" fill-opacity="1" /><path clip-path="url(#clip590)" d="M 0 0 M246.931 494.486 L269.153 494.486 L269.153 496.477 L256.607 529.046 L251.722 529.046 L263.528 498.421 L246.931 498.421 L246.931 494.486 Z" fill="#000000" fill-rule="evenodd" fill-opacity="1" /><path clip-path="url(#clip590)" d="M 0 0 M274.269 494.486 L292.625 494.486 L292.625 498.421 L278.551 498.421 L278.551 506.893 Q279.57 506.546 280.588 506.384 Q281.607 506.199 282.625 506.199 Q288.412 506.199 291.792 509.37 Q295.171 512.542 295.171 517.958 Q295.171 523.537 291.699 526.639 Q288.227 529.717 281.907 529.717 Q279.732 529.717 277.463 529.347 Q275.218 528.977 272.81 528.236 L272.81 523.537 Q274.894 524.671 277.116 525.227 Q279.338 525.782 281.815 525.782 Q285.819 525.782 288.157 523.676 Q290.495 521.569 290.495 517.958 Q290.495 514.347 288.157 512.241 Q285.819 510.134 281.815 510.134 Q279.94 510.134 278.065 510.551 Q276.213 510.967 274.269 511.847 L274.269 494.486 Z" fill="#000000" fill-rule="evenodd" fill-opacity="1" /><path clip-path="url(#clip590)" d="M 0 0 M139.431 206.74 Q135.82 206.74 133.992 210.305 Q132.186 213.846 132.186 220.976 Q132.186 228.083 133.992 231.647 Q135.82 235.189 139.431 235.189 Q143.066 235.189 144.871 231.647 Q146.7 228.083 146.7 220.976 Q146.7 213.846 144.871 210.305 Q143.066 206.74 139.431 206.74 M139.431 203.036 Q145.242 203.036 148.297 207.643 Q151.376 212.226 151.376 220.976 Q151.376 229.703 148.297 234.309 Q145.242 238.893 139.431 238.893 Q133.621 238.893 130.543 234.309 Q127.487 229.703 127.487 220.976 Q127.487 212.226 130.543 207.643 Q133.621 203.036 139.431 203.036 Z" fill="#000000" fill-rule="evenodd" fill-opacity="1" /><path clip-path="url(#clip590)" d="M 0 0 M156.445 232.342 L161.329 232.342 L161.329 238.221 L156.445 238.221 L156.445 232.342 Z" fill="#000000" fill-rule="evenodd" fill-opacity="1" /><path clip-path="url(#clip590)" d="M 0 0 M176.399 206.74 Q172.788 206.74 170.959 210.305 Q169.153 213.846 169.153 220.976 Q169.153 228.083 170.959 231.647 Q172.788 235.189 176.399 235.189 Q180.033 235.189 181.839 231.647 Q183.667 228.083 183.667 220.976 Q183.667 213.846 181.839 210.305 Q180.033 206.74 176.399 206.74 M176.399 203.036 Q182.209 203.036 185.264 207.643 Q188.343 212.226 188.343 220.976 Q188.343 229.703 185.264 234.309 Q182.209 238.893 176.399 238.893 Q170.589 238.893 167.51 234.309 Q164.454 229.703 164.454 220.976 Q164.454 212.226 167.51 207.643 Q170.589 203.036 176.399 203.036 Z" fill="#000000" fill-rule="evenodd" fill-opacity="1" /><path clip-path="url(#clip590)" d="M 0 0 M203.413 206.74 Q199.801 206.74 197.973 210.305 Q196.167 213.846 196.167 220.976 Q196.167 228.083 197.973 231.647 Q199.801 235.189 203.413 235.189 Q207.047 235.189 208.852 231.647 Q210.681 228.083 210.681 220.976 Q210.681 213.846 208.852 210.305 Q207.047 206.74 203.413 206.74 M203.413 203.036 Q209.223 203.036 212.278 207.643 Q215.357 212.226 215.357 220.976 Q215.357 229.703 212.278 234.309 Q209.223 238.893 203.413 238.893 Q197.602 238.893 194.524 234.309 Q191.468 229.703 191.468 220.976 Q191.468 212.226 194.524 207.643 Q197.602 203.036 203.413 203.036 Z" fill="#000000" fill-rule="evenodd" fill-opacity="1" /><path clip-path="url(#clip590)" d="M 0 0 M221.237 234.286 L228.875 234.286 L228.875 207.921 L220.565 209.587 L220.565 205.328 L228.829 203.661 L233.505 203.661 L233.505 234.286 L241.144 234.286 L241.144 238.221 L221.237 238.221 L221.237 234.286 Z" fill="#000000" fill-rule="evenodd" fill-opacity="1" /><path clip-path="url(#clip590)" d="M 0 0 M256.213 206.74 Q252.602 206.74 250.773 210.305 Q248.968 213.846 248.968 220.976 Q248.968 228.083 250.773 231.647 Q252.602 235.189 256.213 235.189 Q259.847 235.189 261.653 231.647 Q263.482 228.083 263.482 220.976 Q263.482 213.846 261.653 210.305 Q259.847 206.74 256.213 206.74 M256.213 203.036 Q262.023 203.036 265.079 207.643 Q268.158 212.226 268.158 220.976 Q268.158 229.703 265.079 234.309 Q262.023 238.893 256.213 238.893 Q250.403 238.893 247.324 234.309 Q244.269 229.703 244.269 220.976 Q244.269 212.226 247.324 207.643 Q250.403 203.036 256.213 203.036 Z" fill="#000000" fill-rule="evenodd" fill-opacity="1" /><path clip-path="url(#clip590)" d="M 0 0 M283.227 206.74 Q279.616 206.74 277.787 210.305 Q275.982 213.846 275.982 220.976 Q275.982 228.083 277.787 231.647 Q279.616 235.189 283.227 235.189 Q286.861 235.189 288.667 231.647 Q290.495 228.083 290.495 220.976 Q290.495 213.846 288.667 210.305 Q286.861 206.74 283.227 206.74 M283.227 203.036 Q289.037 203.036 292.093 207.643 Q295.171 212.226 295.171 220.976 Q295.171 229.703 292.093 234.309 Q289.037 238.893 283.227 238.893 Q277.417 238.893 274.338 234.309 Q271.283 229.703 271.283 220.976 Q271.283 212.226 274.338 207.643 Q277.417 203.036 283.227 203.036 Z" fill="#000000" fill-rule="evenodd" fill-opacity="1" /><path clip-path="url(#clip590)" d="M 0 0 M1137.7 1538.25 Q1137.7 1544.71 1140.35 1548.4 Q1143.02 1552.07 1147.67 1552.07 Q1152.31 1552.07 1154.99 1548.4 Q1157.66 1544.71 1157.66 1538.25 Q1157.66 1531.79 1154.99 1528.13 Q1152.31 1524.44 1147.67 1524.44 Q1143.02 1524.44 1140.35 1528.13 Q1137.7 1531.79 1137.7 1538.25 M1157.66 1550.7 Q1155.81 1553.88 1152.98 1555.44 Q1150.18 1556.97 1146.23 1556.97 Q1139.77 1556.97 1135.7 1551.81 Q1131.66 1546.65 1131.66 1538.25 Q1131.66 1529.85 1135.7 1524.69 Q1139.77 1519.54 1146.23 1519.54 Q1150.18 1519.54 1152.98 1521.1 Q1155.81 1522.62 1157.66 1525.81 L1157.66 1520.4 L1163.52 1520.4 L1163.52 1569.6 L1157.66 1569.6 L1157.66 1550.7 Z" fill="#000000" fill-rule="evenodd" fill-opacity="1" /><path clip-path="url(#clip590)" d="M 0 0 M1196.75 1566.87 L1196.75 1571.42 L1162.88 1571.42 L1162.88 1566.87 L1196.75 1566.87 Z" fill="#000000" fill-rule="evenodd" fill-opacity="1" /><path clip-path="url(#clip590)" d="M 0 0 M1225.61 1521.45 L1225.61 1526.98 Q1223.13 1525.71 1220.46 1525.07 Q1217.78 1524.44 1214.92 1524.44 Q1210.56 1524.44 1208.36 1525.77 Q1206.2 1527.11 1206.2 1529.79 Q1206.2 1531.82 1207.76 1533 Q1209.32 1534.15 1214.03 1535.2 L1216.03 1535.64 Q1222.27 1536.98 1224.88 1539.43 Q1227.52 1541.85 1227.52 1546.21 Q1227.52 1551.17 1223.58 1554.07 Q1219.66 1556.97 1212.79 1556.97 Q1209.92 1556.97 1206.8 1556.39 Q1203.72 1555.85 1200.28 1554.74 L1200.28 1548.69 Q1203.53 1550.38 1206.68 1551.24 Q1209.83 1552.07 1212.91 1552.07 Q1217.05 1552.07 1219.28 1550.66 Q1221.51 1549.23 1221.51 1546.65 Q1221.51 1544.27 1219.88 1542.99 Q1218.29 1541.72 1212.85 1540.54 L1210.81 1540.07 Q1205.37 1538.92 1202.95 1536.56 Q1200.53 1534.18 1200.53 1530.04 Q1200.53 1525.01 1204.1 1522.27 Q1207.66 1519.54 1214.22 1519.54 Q1217.47 1519.54 1220.33 1520.01 Q1223.2 1520.49 1225.61 1521.45 Z" fill="#000000" fill-rule="evenodd" fill-opacity="1" /><path clip-path="url(#clip590)" d="M 0 0 M1263.3 1534.53 L1263.3 1556.04 L1257.44 1556.04 L1257.44 1534.72 Q1257.44 1529.66 1255.47 1527.14 Q1253.5 1524.63 1249.55 1524.63 Q1244.81 1524.63 1242.07 1527.65 Q1239.33 1530.68 1239.33 1535.9 L1239.33 1556.04 L1233.44 1556.04 L1233.44 1520.4 L1239.33 1520.4 L1239.33 1525.93 Q1241.43 1522.72 1244.27 1521.13 Q1247.13 1519.54 1250.85 1519.54 Q1257 1519.54 1260.15 1523.36 Q1263.3 1527.14 1263.3 1534.53 Z" fill="#000000" fill-rule="evenodd" fill-opacity="1" /><path clip-path="url(#clip590)" d="M 0 0 M1283.26 1524.5 Q1278.54 1524.5 1275.81 1528.19 Q1273.07 1531.85 1273.07 1538.25 Q1273.07 1544.65 1275.78 1548.34 Q1278.51 1552 1283.26 1552 Q1287.93 1552 1290.67 1548.31 Q1293.41 1544.62 1293.41 1538.25 Q1293.41 1531.92 1290.67 1528.23 Q1287.93 1524.5 1283.26 1524.5 M1283.26 1519.54 Q1290.89 1519.54 1295.25 1524.5 Q1299.62 1529.47 1299.62 1538.25 Q1299.62 1547 1295.25 1552 Q1290.89 1556.97 1283.26 1556.97 Q1275.58 1556.97 1271.22 1552 Q1266.9 1547 1266.9 1538.25 Q1266.9 1529.47 1271.22 1524.5 Q1275.58 1519.54 1283.26 1519.54 Z" fill="#000000" fill-rule="evenodd" fill-opacity="1" /><path clip-path="url(#clip590)" d="M 0 0 M1302.35 1520.4 L1308.21 1520.4 L1315.53 1548.21 L1322.82 1520.4 L1329.73 1520.4 L1337.05 1548.21 L1344.33 1520.4 L1350.19 1520.4 L1340.87 1556.04 L1333.96 1556.04 L1326.29 1526.83 L1318.59 1556.04 L1311.68 1556.04 L1302.35 1520.4 Z" fill="#000000" fill-rule="evenodd" fill-opacity="1" /><path clip-path="url(#clip590)" d="M 0 0 M1376.51 1506.52 L1390.01 1506.52 L1390.01 1511.07 L1382.37 1511.07 L1382.37 1560.09 L1390.01 1560.09 L1390.01 1564.64 L1376.51 1564.64 L1376.51 1506.52 Z" fill="#000000" fill-rule="evenodd" fill-opacity="1" /><path clip-path="url(#clip590)" d="M 0 0 M1419.61 1537.81 Q1419.61 1531.44 1416.97 1527.94 Q1414.36 1524.44 1409.61 1524.44 Q1404.9 1524.44 1402.26 1527.94 Q1399.65 1531.44 1399.65 1537.81 Q1399.65 1544.14 1402.26 1547.64 Q1404.9 1551.14 1409.61 1551.14 Q1414.36 1551.14 1416.97 1547.64 Q1419.61 1544.14 1419.61 1537.81 M1425.47 1551.62 Q1425.47 1560.72 1421.42 1565.15 Q1417.38 1569.6 1409.04 1569.6 Q1405.95 1569.6 1403.22 1569.13 Q1400.48 1568.68 1397.9 1567.72 L1397.9 1562.03 Q1400.48 1563.43 1402.99 1564.1 Q1405.51 1564.76 1408.12 1564.76 Q1413.88 1564.76 1416.74 1561.74 Q1419.61 1558.75 1419.61 1552.67 L1419.61 1549.77 Q1417.79 1552.92 1414.96 1554.48 Q1412.13 1556.04 1408.18 1556.04 Q1401.63 1556.04 1397.62 1551.05 Q1393.61 1546.05 1393.61 1537.81 Q1393.61 1529.53 1397.62 1524.53 Q1401.63 1519.54 1408.18 1519.54 Q1412.13 1519.54 1414.96 1521.1 Q1417.79 1522.66 1419.61 1525.81 L1419.61 1520.4 L1425.47 1520.4 L1425.47 1551.62 Z" fill="#000000" fill-rule="evenodd" fill-opacity="1" /><path clip-path="url(#clip590)" d="M 0 0 M1442.02 1508.52 L1447.43 1508.52 L1430.88 1562.09 L1425.47 1562.09 L1442.02 1508.52 Z" fill="#000000" fill-rule="evenodd" fill-opacity="1" /><path clip-path="url(#clip590)" d="M 0 0 M1453.35 1506.52 L1459.24 1506.52 L1459.24 1535.77 L1476.71 1520.4 L1484.19 1520.4 L1465.28 1537.07 L1484.98 1556.04 L1477.35 1556.04 L1459.24 1538.63 L1459.24 1556.04 L1453.35 1556.04 L1453.35 1506.52 Z" fill="#000000" fill-rule="evenodd" fill-opacity="1" /><path clip-path="url(#clip590)" d="M 0 0 M1514.59 1537.81 Q1514.59 1531.44 1511.94 1527.94 Q1509.33 1524.44 1504.59 1524.44 Q1499.88 1524.44 1497.24 1527.94 Q1494.63 1531.44 1494.63 1537.81 Q1494.63 1544.14 1497.24 1547.64 Q1499.88 1551.14 1504.59 1551.14 Q1509.33 1551.14 1511.94 1547.64 Q1514.59 1544.14 1514.59 1537.81 M1520.44 1551.62 Q1520.44 1560.72 1516.4 1565.15 Q1512.36 1569.6 1504.02 1569.6 Q1500.93 1569.6 1498.19 1569.13 Q1495.46 1568.68 1492.88 1567.72 L1492.88 1562.03 Q1495.46 1563.43 1497.97 1564.1 Q1500.49 1564.76 1503.1 1564.76 Q1508.86 1564.76 1511.72 1561.74 Q1514.59 1558.75 1514.59 1552.67 L1514.59 1549.77 Q1512.77 1552.92 1509.94 1554.48 Q1507.11 1556.04 1503.16 1556.04 Q1496.6 1556.04 1492.59 1551.05 Q1488.58 1546.05 1488.58 1537.81 Q1488.58 1529.53 1492.59 1524.53 Q1496.6 1519.54 1503.16 1519.54 Q1507.11 1519.54 1509.94 1521.1 Q1512.77 1522.66 1514.59 1525.81 L1514.59 1520.4 L1520.44 1520.4 L1520.44 1551.62 Z" fill="#000000" fill-rule="evenodd" fill-opacity="1" /><path clip-path="url(#clip590)" d="M 0 0 M1540.27 1506.52 L1540.27 1564.64 L1526.78 1564.64 L1526.78 1560.09 L1534.38 1560.09 L1534.38 1511.07 L1526.78 1511.07 L1526.78 1506.52 L1540.27 1506.52 Z" fill="#000000" fill-rule="evenodd" fill-opacity="1" /><path clip-path="url(#clip590)" d="M 0 0 M53.4065 1005.5 L58.9447 1005.5 Q57.6716 1007.98 57.035 1010.66 Q56.3984 1013.33 56.3984 1016.19 Q56.3984 1020.55 57.7352 1022.75 Q59.072 1024.92 61.7456 1024.92 Q63.7826 1024.92 64.9603 1023.36 Q66.1061 1021.8 67.1565 1017.09 L67.6021 1015.08 Q68.9389 1008.84 71.3897 1006.23 Q73.8086 1003.59 78.1691 1003.59 Q83.1344 1003.59 86.0308 1007.54 Q88.9272 1011.45 88.9272 1018.33 Q88.9272 1021.19 88.3543 1024.31 Q87.8132 1027.4 86.6992 1030.84 L80.6518 1030.84 Q82.3387 1027.59 83.198 1024.44 Q84.0256 1021.29 84.0256 1018.2 Q84.0256 1014.06 82.6251 1011.83 Q81.1929 1009.61 78.6147 1009.61 Q76.2276 1009.61 74.9545 1011.23 Q73.6813 1012.82 72.5037 1018.26 L72.0262 1020.3 Q70.8804 1025.74 68.5251 1028.16 Q66.138 1030.58 62.0002 1030.58 Q56.9713 1030.58 54.2341 1027.02 Q51.4968 1023.45 51.4968 1016.89 Q51.4968 1013.65 51.9743 1010.78 Q52.4517 1007.92 53.4065 1005.5 Z" fill="#000000" fill-rule="evenodd" fill-opacity="1" /><path clip-path="url(#clip590)" d="M 0 0 M66.4881 967.815 L88.0042 967.815 L88.0042 973.671 L66.679 973.671 Q61.6183 973.671 59.1038 975.645 Q56.5894 977.618 56.5894 981.565 Q56.5894 986.307 59.6131 989.045 Q62.6368 991.782 67.8567 991.782 L88.0042 991.782 L88.0042 997.67 L52.3562 997.67 L52.3562 991.782 L57.8944 991.782 Q54.6797 989.681 53.0883 986.848 Q51.4968 983.984 51.4968 980.26 Q51.4968 974.117 55.3163 970.966 Q59.1038 967.815 66.4881 967.815 Z" fill="#000000" fill-rule="evenodd" fill-opacity="1" /><path clip-path="url(#clip590)" d="M 0 0 M56.4621 947.858 Q56.4621 952.569 60.1542 955.306 Q63.8145 958.044 70.212 958.044 Q76.6095 958.044 80.3017 955.338 Q83.9619 952.601 83.9619 947.858 Q83.9619 943.18 80.2698 940.442 Q76.5777 937.705 70.212 937.705 Q63.8781 937.705 60.186 940.442 Q56.4621 943.18 56.4621 947.858 M51.4968 947.858 Q51.4968 940.22 56.4621 935.859 Q61.4273 931.499 70.212 931.499 Q78.9649 931.499 83.9619 935.859 Q88.9272 940.22 88.9272 947.858 Q88.9272 955.529 83.9619 959.89 Q78.9649 964.218 70.212 964.218 Q61.4273 964.218 56.4621 959.89 Q51.4968 955.529 51.4968 947.858 Z" fill="#000000" fill-rule="evenodd" fill-opacity="1" /><path clip-path="url(#clip590)" d="M 0 0 M52.3562 928.761 L52.3562 922.905 L80.1743 915.584 L52.3562 908.296 L52.3562 901.389 L80.1743 894.068 L52.3562 886.779 L52.3562 880.923 L88.0042 890.249 L88.0042 897.156 L58.7856 904.826 L88.0042 912.529 L88.0042 919.436 L52.3562 928.761 Z" fill="#000000" fill-rule="evenodd" fill-opacity="1" /><path clip-path="url(#clip590)" d="M 0 0 M59.1993 826.305 Q55.2526 824.109 53.3747 821.054 Q51.4968 817.998 51.4968 813.86 Q51.4968 808.29 55.4117 805.267 Q59.2948 802.243 66.4881 802.243 L88.0042 802.243 L88.0042 808.131 L66.679 808.131 Q61.5546 808.131 59.072 809.945 Q56.5894 811.76 56.5894 815.484 Q56.5894 820.035 59.6131 822.677 Q62.6368 825.319 67.8567 825.319 L88.0042 825.319 L88.0042 831.207 L66.679 831.207 Q61.5228 831.207 59.072 833.021 Q56.5894 834.835 56.5894 838.623 Q56.5894 843.111 59.6449 845.752 Q62.6686 848.394 67.8567 848.394 L88.0042 848.394 L88.0042 854.283 L52.3562 854.283 L52.3562 848.394 L57.8944 848.394 Q54.616 846.389 53.0564 843.588 Q51.4968 840.787 51.4968 836.936 Q51.4968 833.053 53.4702 830.347 Q55.4436 827.61 59.1993 826.305 Z" fill="#000000" fill-rule="evenodd" fill-opacity="1" /><path clip-path="url(#clip590)" d="M 0 0 M68.7161 765.608 L71.5806 765.608 L71.5806 792.535 Q77.6281 792.153 80.8109 788.907 Q83.9619 785.628 83.9619 779.804 Q83.9619 776.43 83.1344 773.279 Q82.3069 770.096 80.6518 766.977 L86.1899 766.977 Q87.5267 770.128 88.227 773.438 Q88.9272 776.748 88.9272 780.154 Q88.9272 788.684 83.9619 793.681 Q78.9967 798.646 70.5303 798.646 Q61.7774 798.646 56.6531 793.936 Q51.4968 789.193 51.4968 781.172 Q51.4968 773.979 56.1438 769.81 Q60.7589 765.608 68.7161 765.608 M66.9973 771.465 Q62.1912 771.528 59.3266 774.17 Q56.4621 776.78 56.4621 781.109 Q56.4621 786.01 59.2312 788.97 Q62.0002 791.899 67.0292 792.344 L66.9973 771.465 Z" fill="#000000" fill-rule="evenodd" fill-opacity="1" /><path clip-path="url(#clip590)" d="M 0 0 M38.479 759.465 L38.479 753.609 L88.0042 753.609 L88.0042 759.465 L38.479 759.465 Z" fill="#000000" fill-rule="evenodd" fill-opacity="1" /><path clip-path="url(#clip590)" d="M 0 0 M42.2347 741.673 L52.3562 741.673 L52.3562 729.61 L56.9077 729.61 L56.9077 741.673 L76.2594 741.673 Q80.6199 741.673 81.8613 740.496 Q83.1026 739.286 83.1026 735.626 L83.1026 729.61 L88.0042 729.61 L88.0042 735.626 Q88.0042 742.405 85.4897 744.983 Q82.9434 747.561 76.2594 747.561 L56.9077 747.561 L56.9077 751.858 L52.3562 751.858 L52.3562 747.561 L42.2347 747.561 L42.2347 741.673 Z" fill="#000000" fill-rule="evenodd" fill-opacity="1" /><path clip-path="url(#clip590)" d="M 0 0 M57.8307 682.09 Q57.2578 683.077 57.0032 684.254 Q56.7167 685.4 56.7167 686.801 Q56.7167 691.766 59.9632 694.44 Q63.1779 697.081 69.2253 697.081 L88.0042 697.081 L88.0042 702.97 L52.3562 702.97 L52.3562 697.081 L57.8944 697.081 Q54.6479 695.235 53.0883 692.275 Q51.4968 689.315 51.4968 685.082 Q51.4968 684.477 51.5923 683.745 Q51.656 683.013 51.8151 682.122 L57.8307 682.09 Z" fill="#000000" fill-rule="evenodd" fill-opacity="1" /><path clip-path="url(#clip590)" d="M 0 0 M70.0847 659.747 Q70.0847 666.844 71.7079 669.582 Q73.3312 672.319 77.2461 672.319 Q80.3653 672.319 82.2114 670.282 Q84.0256 668.213 84.0256 664.68 Q84.0256 659.81 80.5881 656.882 Q77.1188 653.922 71.3897 653.922 L70.0847 653.922 L70.0847 659.747 M67.6657 648.065 L88.0042 648.065 L88.0042 653.922 L82.5933 653.922 Q85.8398 655.927 87.3994 658.919 Q88.9272 661.911 88.9272 666.24 Q88.9272 671.714 85.8716 674.961 Q82.7843 678.175 77.6281 678.175 Q71.6125 678.175 68.5569 674.165 Q65.5014 670.123 65.5014 662.134 L65.5014 653.922 L64.9285 653.922 Q60.8862 653.922 58.6901 656.595 Q56.4621 659.237 56.4621 664.043 Q56.4621 667.099 57.1941 669.995 Q57.9262 672.892 59.3903 675.565 L53.9795 675.565 Q52.7381 672.351 52.1334 669.327 Q51.4968 666.303 51.4968 663.439 Q51.4968 655.704 55.5072 651.885 Q59.5176 648.065 67.6657 648.065 Z" fill="#000000" fill-rule="evenodd" fill-opacity="1" /><path clip-path="url(#clip590)" d="M 0 0 M42.2347 636.13 L52.3562 636.13 L52.3562 624.067 L56.9077 624.067 L56.9077 636.13 L76.2594 636.13 Q80.6199 636.13 81.8613 634.952 Q83.1026 633.743 83.1026 630.082 L83.1026 624.067 L88.0042 624.067 L88.0042 630.082 Q88.0042 636.862 85.4897 639.44 Q82.9434 642.018 76.2594 642.018 L56.9077 642.018 L56.9077 646.315 L52.3562 646.315 L52.3562 642.018 L42.2347 642.018 L42.2347 636.13 Z" fill="#000000" fill-rule="evenodd" fill-opacity="1" /><path clip-path="url(#clip590)" d="M 0 0 M68.7161 587.432 L71.5806 587.432 L71.5806 614.359 Q77.6281 613.977 80.8109 610.731 Q83.9619 607.452 83.9619 601.628 Q83.9619 598.254 83.1344 595.103 Q82.3069 591.92 80.6518 588.801 L86.1899 588.801 Q87.5267 591.952 88.227 595.262 Q88.9272 598.572 88.9272 601.978 Q88.9272 610.508 83.9619 615.505 Q78.9967 620.47 70.5303 620.47 Q61.7774 620.47 56.6531 615.759 Q51.4968 611.017 51.4968 602.996 Q51.4968 595.803 56.1438 591.633 Q60.7589 587.432 68.7161 587.432 M66.9973 593.289 Q62.1912 593.352 59.3266 595.994 Q56.4621 598.604 56.4621 602.933 Q56.4621 607.834 59.2312 610.794 Q62.0002 613.722 67.0292 614.168 L66.9973 593.289 Z" fill="#000000" fill-rule="evenodd" fill-opacity="1" /><path clip-path="url(#clip590)" d="M 0 0 M38.479 561.11 L38.479 547.615 L43.0304 547.615 L43.0304 555.253 L92.0464 555.253 L92.0464 547.615 L96.5979 547.615 L96.5979 561.11 L38.479 561.11 Z" fill="#000000" fill-rule="evenodd" fill-opacity="1" /><path clip-path="url(#clip590)" d="M 0 0 M82.5933 539.53 L82.5933 529.027 L46.3406 529.027 L48.6323 540.453 L42.7758 540.453 L40.4842 529.09 L40.4842 522.661 L82.5933 522.661 L82.5933 512.158 L88.0042 512.158 L88.0042 539.53 L82.5933 539.53 Z" fill="#000000" fill-rule="evenodd" fill-opacity="1" /><path clip-path="url(#clip590)" d="M 0 0 M40.4842 495.607 L40.4842 490.196 L94.0516 506.747 L94.0516 512.158 L40.4842 495.607 Z" fill="#000000" fill-rule="evenodd" fill-opacity="1" /><path clip-path="url(#clip590)" d="M 0 0 M53.4065 461.327 L58.9447 461.327 Q57.6716 463.81 57.035 466.484 Q56.3984 469.157 56.3984 472.022 Q56.3984 476.382 57.7352 478.579 Q59.072 480.743 61.7456 480.743 Q63.7826 480.743 64.9603 479.183 Q66.1061 477.624 67.1565 472.913 L67.6021 470.908 Q68.9389 464.669 71.3897 462.059 Q73.8086 459.418 78.1691 459.418 Q83.1344 459.418 86.0308 463.364 Q88.9272 467.279 88.9272 474.154 Q88.9272 477.019 88.3543 480.138 Q87.8132 483.225 86.6992 486.663 L80.6518 486.663 Q82.3387 483.416 83.198 480.265 Q84.0256 477.114 84.0256 474.027 Q84.0256 469.889 82.6251 467.661 Q81.1929 465.433 78.6147 465.433 Q76.2276 465.433 74.9545 467.057 Q73.6813 468.648 72.5037 474.091 L72.0262 476.128 Q70.8804 481.57 68.5251 483.989 Q66.138 486.408 62.0002 486.408 Q56.9713 486.408 54.2341 482.844 Q51.4968 479.279 51.4968 472.722 Q51.4968 469.476 51.9743 466.611 Q52.4517 463.746 53.4065 461.327 Z" fill="#000000" fill-rule="evenodd" fill-opacity="1" /><path clip-path="url(#clip590)" d="M 0 0 M38.479 439.589 L96.5979 439.589 L96.5979 453.084 L92.0464 453.084 L92.0464 445.477 L43.0304 445.477 L43.0304 453.084 L38.479 453.084 L38.479 439.589 Z" fill="#000000" fill-rule="evenodd" fill-opacity="1" /><polyline clip-path="url(#clip592)" style="stroke:#009af9; stroke-width:12; stroke-opacity:1; fill:none" points="
  376.726,1384.24 396.104,1378.37 415.483,1372.99 434.861,1367.77 454.24,1362.65 473.618,1357.61 492.997,1352.63 512.375,1347.69 531.754,1342.8 551.132,1337.94 
  570.511,1333.11 589.89,1328.31 609.268,1323.54 628.647,1318.79 648.025,1314.06 667.404,1309.35 686.782,1304.66 706.161,1299.98 725.539,1295.32 744.918,1290.68 
  764.296,1286.04 783.675,1281.43 803.054,1276.82 822.432,1272.23 841.811,1267.65 861.189,1263.07 880.568,1258.51 899.946,1253.96 919.325,1249.42 938.703,1244.89 
  958.082,1240.37 977.46,1235.85 996.839,1231.35 1016.22,1226.85 1035.6,1222.36 1054.97,1217.88 1074.35,1213.4 1093.73,1208.93 1113.11,1204.47 1132.49,1200.02 
  1151.87,1195.57 1171.25,1191.13 1190.62,1186.69 1210,1182.26 1229.38,1177.84 1248.76,1173.42 1268.14,1169.01 1287.52,1164.6 1306.9,1160.2 1326.27,1155.8 
  1345.65,1151.41 1365.03,1147.02 1384.41,1142.64 1403.79,1138.26 1423.17,1133.89 1442.55,1129.52 1461.92,1125.16 1481.3,1120.8 1500.68,1116.45 1520.06,1112.09 
  1539.44,1107.75 1558.82,1103.41 1578.2,1099.07 1597.57,1094.73 1616.95,1090.4 1636.33,1086.08 1655.71,1081.75 1675.09,1077.44 1694.47,1073.12 1713.85,1068.81 
  1733.22,1064.5 1752.6,1060.2 1771.98,1055.89 1791.36,1051.6 1810.74,1047.3 1830.12,1043.01 1849.5,1038.72 1868.87,1034.44 1888.25,1030.15 1907.63,1025.88 
  1927.01,1021.6 1946.39,1017.33 1965.77,1013.06 1985.14,1008.79 2004.52,1004.53 2023.9,1000.27 2043.28,996.007 2062.66,991.752 2082.04,987.499 2101.42,983.249 
  2120.79,979.002 2140.17,974.757 2159.55,970.515 2178.93,966.275 2198.31,962.039 2217.69,957.804 2237.07,953.572 2256.44,949.343 2275.82,945.116 2295.2,940.891 
  
  "/>
<polyline clip-path="url(#clip592)" style="stroke:#e26f46; stroke-width:12; stroke-opacity:1; fill:none" points="
  376.726,1384.24 396.104,1372.65 415.483,1362.01 434.861,1351.7 454.24,1341.59 473.618,1331.63 492.997,1321.78 512.375,1312.04 531.754,1302.37 551.132,1292.77 
  570.511,1283.23 589.89,1273.75 609.268,1264.32 628.647,1254.93 648.025,1245.59 667.404,1236.28 686.782,1227.01 706.161,1217.77 725.539,1208.57 744.918,1199.39 
  764.296,1190.24 783.675,1181.12 803.054,1172.02 822.432,1162.94 841.811,1153.89 861.189,1144.86 880.568,1135.85 899.946,1126.86 919.325,1117.89 938.703,1108.93 
  958.082,1100 977.46,1091.08 996.839,1082.18 1016.22,1073.29 1035.6,1064.42 1054.97,1055.56 1074.35,1046.72 1093.73,1037.89 1113.11,1029.08 1132.49,1020.28 
  1151.87,1011.49 1171.25,1002.71 1190.62,993.951 1210,985.199 1229.38,976.459 1248.76,967.73 1268.14,959.012 1287.52,950.304 1306.9,941.608 1326.27,932.921 
  1345.65,924.245 1365.03,915.578 1384.41,906.921 1403.79,898.273 1423.17,889.635 1442.55,881.005 1461.92,872.385 1481.3,863.773 1500.68,855.17 1520.06,846.575 
  1539.44,837.988 1558.82,829.409 1578.2,820.839 1597.57,812.276 1616.95,803.721 1636.33,795.173 1655.71,786.633 1675.09,778.1 1694.47,769.574 1713.85,761.056 
  1733.22,752.544 1752.6,744.039 1771.98,735.541 1791.36,727.05 1810.74,718.565 1830.12,710.087 1849.5,701.615 1868.87,693.149 1888.25,684.689 1907.63,676.236 
  1927.01,667.788 1946.39,659.347 1965.77,650.911 1985.14,642.482 2004.52,634.057 2023.9,625.639 2043.28,617.226 2062.66,608.819 2082.04,600.417 2101.42,592.02 
  2120.79,583.629 2140.17,575.243 2159.55,566.862 2178.93,558.486 2198.31,550.116 2217.69,541.75 2237.07,533.389 2256.44,525.034 2275.82,516.683 2295.2,508.336 
  
  "/>
<polyline clip-path="url(#clip592)" style="stroke:#3da44d; stroke-width:12; stroke-opacity:1; fill:none" points="
  376.726,1384.23 396.104,1367.07 415.483,1351.3 434.861,1336.02 454.24,1321.03 473.618,1306.27 492.997,1291.68 512.375,1277.24 531.754,1262.91 551.132,1248.68 
  570.511,1234.55 589.89,1220.5 609.268,1206.52 628.647,1192.61 648.025,1178.76 667.404,1164.97 686.782,1151.23 706.161,1137.54 725.539,1123.9 744.918,1110.3 
  764.296,1096.74 783.675,1083.22 803.054,1069.73 822.432,1056.29 841.811,1042.87 861.189,1029.49 880.568,1016.13 899.946,1002.81 919.325,989.516 938.703,976.248 
  958.082,963.006 977.46,949.789 996.839,936.596 1016.22,923.427 1035.6,910.28 1054.97,897.156 1074.35,884.052 1093.73,870.97 1113.11,857.907 1132.49,844.864 
  1151.87,831.84 1171.25,818.835 1190.62,805.847 1210,792.877 1229.38,779.925 1248.76,766.989 1268.14,754.069 1287.52,741.165 1306.9,728.276 1326.27,715.403 
  1345.65,702.545 1365.03,689.701 1384.41,676.872 1403.79,664.056 1423.17,651.254 1442.55,638.466 1461.92,625.691 1481.3,612.928 1500.68,600.179 1520.06,587.441 
  1539.44,574.716 1558.82,562.003 1578.2,549.302 1597.57,536.612 1616.95,523.934 1636.33,511.266 1655.71,498.61 1675.09,485.965 1694.47,473.33 1713.85,460.706 
  1733.22,448.092 1752.6,435.488 1771.98,422.894 1791.36,410.31 1810.74,397.736 1830.12,385.171 1849.5,372.616 1868.87,360.07 1888.25,347.534 1907.63,335.006 
  1927.01,322.487 1946.39,309.977 1965.77,297.476 1985.14,284.983 2004.52,272.499 2023.9,260.023 2043.28,247.556 2062.66,235.097 2082.04,222.645 2101.42,210.202 
  2120.79,197.766 2140.17,185.339 2159.55,172.918 2178.93,160.506 2198.31,148.101 2217.69,135.703 2237.07,123.313 2256.44,110.93 2275.82,98.5544 2295.2,86.1857 
  
  "/>
<path clip-path="url(#clip590)" d="
M1937.05 335.029 L2284.97 335.029 L2284.97 93.1086 L1937.05 93.1086  Z
  " fill="#ffffff" fill-rule="evenodd" fill-opacity="1"/>
<polyline clip-path="url(#clip590)" style="stroke:#000000; stroke-width:4; stroke-opacity:1; fill:none" points="
  1937.05,335.029 2284.97,335.029 2284.97,93.1086 1937.05,93.1086 1937.05,335.029 
  "/>
<polyline clip-path="url(#clip590)" style="stroke:#009af9; stroke-width:4; stroke-opacity:1; fill:none" points="
  1959.64,153.589 2095.22,153.589 
  "/>
<path clip-path="url(#clip590)" d="M 0 0 M2117.81 136.309 L2147.05 136.309 L2147.05 140.244 L2134.78 140.244 L2134.78 170.869 L2130.08 170.869 L2130.08 140.244 L2117.81 140.244 L2117.81 136.309 Z" fill="#000000" fill-rule="evenodd" fill-opacity="1" /><path clip-path="url(#clip590)" d="M 0 0 M2152.07 149.341 L2181.75 149.341 L2181.75 153.23 L2152.07 153.23 L2152.07 149.341 M2152.07 158.785 L2181.75 158.785 L2181.75 162.721 L2152.07 162.721 L2152.07 158.785 Z" fill="#000000" fill-rule="evenodd" fill-opacity="1" /><path clip-path="url(#clip590)" d="M 0 0 M2190.84 166.933 L2207.16 166.933 L2207.16 170.869 L2185.22 170.869 L2185.22 166.933 Q2187.88 164.179 2192.46 159.549 Q2197.07 154.896 2198.25 153.554 Q2200.5 151.031 2201.38 149.295 Q2202.28 147.535 2202.28 145.846 Q2202.28 143.091 2200.33 141.355 Q2198.41 139.619 2195.31 139.619 Q2193.11 139.619 2190.66 140.383 Q2188.23 141.147 2185.45 142.697 L2185.45 137.975 Q2188.27 136.841 2190.73 136.262 Q2193.18 135.684 2195.22 135.684 Q2200.59 135.684 2203.78 138.369 Q2206.98 141.054 2206.98 145.545 Q2206.98 147.674 2206.17 149.596 Q2205.38 151.494 2203.27 154.086 Q2202.7 154.758 2199.59 157.975 Q2196.49 161.17 2190.84 166.933 Z" fill="#000000" fill-rule="evenodd" fill-opacity="1" /><path clip-path="url(#clip590)" d="M 0 0 M2237.7 138.971 L2237.7 143.901 Q2235.33 141.702 2232.65 140.614 Q2229.99 139.526 2226.98 139.526 Q2221.05 139.526 2217.9 143.16 Q2214.76 146.772 2214.76 153.623 Q2214.76 160.452 2217.9 164.086 Q2221.05 167.697 2226.98 167.697 Q2229.99 167.697 2232.65 166.609 Q2235.33 165.521 2237.7 163.322 L2237.7 168.207 Q2235.24 169.873 2232.49 170.707 Q2229.76 171.54 2226.7 171.54 Q2218.85 171.54 2214.34 166.748 Q2209.83 161.933 2209.83 153.623 Q2209.83 145.29 2214.34 140.498 Q2218.85 135.684 2226.7 135.684 Q2229.8 135.684 2232.53 136.517 Q2235.29 137.327 2237.7 138.971 Z" fill="#000000" fill-rule="evenodd" fill-opacity="1" /><polyline clip-path="url(#clip590)" style="stroke:#e26f46; stroke-width:4; stroke-opacity:1; fill:none" points="
  1959.64,214.069 2095.22,214.069 
  "/>
<path clip-path="url(#clip590)" d="M 0 0 M2117.81 196.789 L2147.05 196.789 L2147.05 200.724 L2134.78 200.724 L2134.78 231.349 L2130.08 231.349 L2130.08 200.724 L2117.81 200.724 L2117.81 196.789 Z" fill="#000000" fill-rule="evenodd" fill-opacity="1" /><path clip-path="url(#clip590)" d="M 0 0 M2152.07 209.821 L2181.75 209.821 L2181.75 213.71 L2152.07 213.71 L2152.07 209.821 M2152.07 219.265 L2181.75 219.265 L2181.75 223.201 L2152.07 223.201 L2152.07 219.265 Z" fill="#000000" fill-rule="evenodd" fill-opacity="1" /><path clip-path="url(#clip590)" d="M 0 0 M2199.66 200.863 L2187.86 219.312 L2199.66 219.312 L2199.66 200.863 M2198.44 196.789 L2204.32 196.789 L2204.32 219.312 L2209.25 219.312 L2209.25 223.201 L2204.32 223.201 L2204.32 231.349 L2199.66 231.349 L2199.66 223.201 L2184.06 223.201 L2184.06 218.687 L2198.44 196.789 Z" fill="#000000" fill-rule="evenodd" fill-opacity="1" /><path clip-path="url(#clip590)" d="M 0 0 M2239.78 199.451 L2239.78 204.381 Q2237.42 202.182 2234.73 201.094 Q2232.07 200.006 2229.06 200.006 Q2223.14 200.006 2219.99 203.64 Q2216.84 207.252 2216.84 214.103 Q2216.84 220.932 2219.99 224.566 Q2223.14 228.177 2229.06 228.177 Q2232.07 228.177 2234.73 227.089 Q2237.42 226.001 2239.78 223.802 L2239.78 228.687 Q2237.33 230.353 2234.57 231.187 Q2231.84 232.02 2228.78 232.02 Q2220.94 232.02 2216.42 227.228 Q2211.91 222.413 2211.91 214.103 Q2211.91 205.77 2216.42 200.978 Q2220.94 196.164 2228.78 196.164 Q2231.89 196.164 2234.62 196.997 Q2237.37 197.807 2239.78 199.451 Z" fill="#000000" fill-rule="evenodd" fill-opacity="1" /><polyline clip-path="url(#clip590)" style="stroke:#3da44d; stroke-width:4; stroke-opacity:1; fill:none" points="
  1959.64,274.549 2095.22,274.549 
  "/>
<path clip-path="url(#clip590)" d="M 0 0 M2117.81 257.269 L2147.05 257.269 L2147.05 261.204 L2134.78 261.204 L2134.78 291.829 L2130.08 291.829 L2130.08 261.204 L2117.81 261.204 L2117.81 257.269 Z" fill="#000000" fill-rule="evenodd" fill-opacity="1" /><path clip-path="url(#clip590)" d="M 0 0 M2152.07 270.301 L2181.75 270.301 L2181.75 274.19 L2152.07 274.19 L2152.07 270.301 M2152.07 279.745 L2181.75 279.745 L2181.75 283.681 L2152.07 283.681 L2152.07 279.745 Z" fill="#000000" fill-rule="evenodd" fill-opacity="1" /><path clip-path="url(#clip590)" d="M 0 0 M2197.39 272.685 Q2194.25 272.685 2192.39 274.838 Q2190.57 276.991 2190.57 280.741 Q2190.57 284.468 2192.39 286.643 Q2194.25 288.796 2197.39 288.796 Q2200.54 288.796 2202.37 286.643 Q2204.22 284.468 2204.22 280.741 Q2204.22 276.991 2202.37 274.838 Q2200.54 272.685 2197.39 272.685 M2206.68 258.033 L2206.68 262.292 Q2204.92 261.458 2203.11 261.019 Q2201.33 260.579 2199.57 260.579 Q2194.94 260.579 2192.49 263.704 Q2190.06 266.829 2189.71 273.148 Q2191.08 271.134 2193.14 270.069 Q2195.2 268.982 2197.67 268.982 Q2202.88 268.982 2205.89 272.153 Q2208.92 275.301 2208.92 280.741 Q2208.92 286.065 2205.77 289.282 Q2202.63 292.5 2197.39 292.5 Q2191.4 292.5 2188.23 287.917 Q2185.06 283.31 2185.06 274.583 Q2185.06 266.389 2188.95 261.528 Q2192.83 256.644 2199.39 256.644 Q2201.14 256.644 2202.93 256.991 Q2204.73 257.338 2206.68 258.033 Z" fill="#000000" fill-rule="evenodd" fill-opacity="1" /><path clip-path="url(#clip590)" d="M 0 0 M2239.45 259.931 L2239.45 264.861 Q2237.09 262.662 2234.41 261.574 Q2231.75 260.486 2228.74 260.486 Q2222.81 260.486 2219.66 264.12 Q2216.52 267.732 2216.52 274.583 Q2216.52 281.412 2219.66 285.046 Q2222.81 288.657 2228.74 288.657 Q2231.75 288.657 2234.41 287.569 Q2237.09 286.481 2239.45 284.282 L2239.45 289.167 Q2237 290.833 2234.25 291.667 Q2231.52 292.5 2228.46 292.5 Q2220.61 292.5 2216.1 287.708 Q2211.58 282.893 2211.58 274.583 Q2211.58 266.25 2216.1 261.458 Q2220.61 256.644 2228.46 256.644 Q2231.56 256.644 2234.29 257.477 Q2237.05 258.287 2239.45 259.931 Z" fill="#000000" fill-rule="evenodd" fill-opacity="1" /></svg>
