<?xml version="1.0" encoding="utf-8"?>
<svg xmlns="http://www.w3.org/2000/svg" xmlns:xlink="http://www.w3.org/1999/xlink" width="600" height="400" viewBox="0 0 2400 1600">
<defs>
  <clipPath id="clip180">
    <rect x="0" y="0" width="2400" height="1600"/>
  </clipPath>
</defs>
<path clip-path="url(#clip180)" d="
M0 1600 L2400 1600 L2400 0 L0 0  Z
  " fill="#ffffff" fill-rule="evenodd" fill-opacity="1"/>
<defs>
  <clipPath id="clip181">
    <rect x="480" y="0" width="1681" height="1600"/>
  </clipPath>
</defs>
<path clip-path="url(#clip180)" d="
M338.728 1423.18 L2352.76 1423.18 L2352.76 47.2441 L338.728 47.2441  Z
  " fill="#ffffff" fill-rule="evenodd" fill-opacity="1"/>
<defs>
  <clipPath id="clip182">
    <rect x="338" y="47" width="2015" height="1377"/>
  </clipPath>
</defs>
<polyline clip-path="url(#clip182)" style="stroke:#000000; stroke-width:2; stroke-opacity:0.1; fill:none" points="
  395.725,1423.18 395.725,47.2441 
  "/>
<polyline clip-path="url(#clip182)" style="stroke:#000000; stroke-width:2; stroke-opacity:0.1; fill:none" points="
  775.731,1423.18 775.731,47.2441 
  "/>
<polyline clip-path="url(#clip182)" style="stroke:#000000; stroke-width:2; stroke-opacity:0.1; fill:none" points="
  1155.74,1423.18 1155.74,47.2441 
  "/>
<polyline clip-path="url(#clip182)" style="stroke:#000000; stroke-width:2; stroke-opacity:0.1; fill:none" points="
  1535.74,1423.18 1535.74,47.2441 
  "/>
<polyline clip-path="url(#clip182)" style="stroke:#000000; stroke-width:2; stroke-opacity:0.1; fill:none" points="
  1915.75,1423.18 1915.75,47.2441 
  "/>
<polyline clip-path="url(#clip182)" style="stroke:#000000; stroke-width:2; stroke-opacity:0.1; fill:none" points="
  2295.76,1423.18 2295.76,47.2441 
  "/>
<polyline clip-path="url(#clip180)" style="stroke:#000000; stroke-width:4; stroke-opacity:1; fill:none" points="
  338.728,1423.18 2352.76,1423.18 
  "/>
<polyline clip-path="url(#clip180)" style="stroke:#000000; stroke-width:4; stroke-opacity:1; fill:none" points="
  395.725,1423.18 395.725,1406.67 
  "/>
<polyline clip-path="url(#clip180)" style="stroke:#000000; stroke-width:4; stroke-opacity:1; fill:none" points="
  775.731,1423.18 775.731,1406.67 
  "/>
<polyline clip-path="url(#clip180)" style="stroke:#000000; stroke-width:4; stroke-opacity:1; fill:none" points="
  1155.74,1423.18 1155.74,1406.67 
  "/>
<polyline clip-path="url(#clip180)" style="stroke:#000000; stroke-width:4; stroke-opacity:1; fill:none" points="
  1535.74,1423.18 1535.74,1406.67 
  "/>
<polyline clip-path="url(#clip180)" style="stroke:#000000; stroke-width:4; stroke-opacity:1; fill:none" points="
  1915.75,1423.18 1915.75,1406.67 
  "/>
<polyline clip-path="url(#clip180)" style="stroke:#000000; stroke-width:4; stroke-opacity:1; fill:none" points="
  2295.76,1423.18 2295.76,1406.67 
  "/>
<path clip-path="url(#clip180)" d="M 0 0 M395.725 1452.37 Q392.114 1452.37 390.286 1455.94 Q388.48 1459.48 388.48 1466.61 Q388.48 1473.71 390.286 1477.28 Q392.114 1480.82 395.725 1480.82 Q399.36 1480.82 401.165 1477.28 Q402.994 1473.71 402.994 1466.61 Q402.994 1459.48 401.165 1455.94 Q399.36 1452.37 395.725 1452.37 M395.725 1448.67 Q401.536 1448.67 404.591 1453.27 Q407.67 1457.86 407.67 1466.61 Q407.67 1475.33 404.591 1479.94 Q401.536 1484.52 395.725 1484.52 Q389.915 1484.52 386.837 1479.94 Q383.781 1475.33 383.781 1466.61 Q383.781 1457.86 386.837 1453.27 Q389.915 1448.67 395.725 1448.67 Z" fill="#000000" fill-rule="evenodd" fill-opacity="1" /><path clip-path="url(#clip180)" d="M 0 0 M766.113 1479.92 L773.752 1479.92 L773.752 1453.55 L765.442 1455.22 L765.442 1450.96 L773.706 1449.29 L778.382 1449.29 L778.382 1479.92 L786.021 1479.92 L786.021 1483.85 L766.113 1483.85 L766.113 1479.92 Z" fill="#000000" fill-rule="evenodd" fill-opacity="1" /><path clip-path="url(#clip180)" d="M 0 0 M1150.39 1479.92 L1166.71 1479.92 L1166.71 1483.85 L1144.77 1483.85 L1144.77 1479.92 Q1147.43 1477.16 1152.01 1472.53 Q1156.62 1467.88 1157.8 1466.54 Q1160.04 1464.01 1160.92 1462.28 Q1161.83 1460.52 1161.83 1458.83 Q1161.83 1456.07 1159.88 1454.34 Q1157.96 1452.6 1154.86 1452.6 Q1152.66 1452.6 1150.2 1453.37 Q1147.77 1454.13 1145 1455.68 L1145 1450.96 Q1147.82 1449.82 1150.27 1449.25 Q1152.73 1448.67 1154.77 1448.67 Q1160.14 1448.67 1163.33 1451.35 Q1166.52 1454.04 1166.52 1458.53 Q1166.52 1460.66 1165.71 1462.58 Q1164.93 1464.48 1162.82 1467.07 Q1162.24 1467.74 1159.14 1470.96 Q1156.04 1474.15 1150.39 1479.92 Z" fill="#000000" fill-rule="evenodd" fill-opacity="1" /><path clip-path="url(#clip180)" d="M 0 0 M1539.99 1465.22 Q1543.35 1465.94 1545.22 1468.2 Q1547.12 1470.47 1547.12 1473.81 Q1547.12 1478.92 1543.6 1481.72 Q1540.08 1484.52 1533.6 1484.52 Q1531.43 1484.52 1529.11 1484.08 Q1526.82 1483.67 1524.37 1482.81 L1524.37 1478.3 Q1526.31 1479.43 1528.63 1480.01 Q1530.94 1480.59 1533.46 1480.59 Q1537.86 1480.59 1540.15 1478.85 Q1542.47 1477.12 1542.47 1473.81 Q1542.47 1470.75 1540.31 1469.04 Q1538.19 1467.3 1534.37 1467.3 L1530.34 1467.3 L1530.34 1463.46 L1534.55 1463.46 Q1538 1463.46 1539.83 1462.09 Q1541.66 1460.7 1541.66 1458.11 Q1541.66 1455.45 1539.76 1454.04 Q1537.88 1452.6 1534.37 1452.6 Q1532.44 1452.6 1530.25 1453.02 Q1528.05 1453.44 1525.41 1454.31 L1525.41 1450.15 Q1528.07 1449.41 1530.38 1449.04 Q1532.72 1448.67 1534.78 1448.67 Q1540.11 1448.67 1543.21 1451.1 Q1546.31 1453.5 1546.31 1457.63 Q1546.31 1460.5 1544.67 1462.49 Q1543.02 1464.45 1539.99 1465.22 Z" fill="#000000" fill-rule="evenodd" fill-opacity="1" /><path clip-path="url(#clip180)" d="M 0 0 M1918.76 1453.37 L1906.95 1471.81 L1918.76 1471.81 L1918.76 1453.37 M1917.53 1449.29 L1923.41 1449.29 L1923.41 1471.81 L1928.34 1471.81 L1928.34 1475.7 L1923.41 1475.7 L1923.41 1483.85 L1918.76 1483.85 L1918.76 1475.7 L1903.16 1475.7 L1903.16 1471.19 L1917.53 1449.29 Z" fill="#000000" fill-rule="evenodd" fill-opacity="1" /><path clip-path="url(#clip180)" d="M 0 0 M2286.03 1449.29 L2304.39 1449.29 L2304.39 1453.23 L2290.32 1453.23 L2290.32 1461.7 Q2291.33 1461.35 2292.35 1461.19 Q2293.37 1461 2294.39 1461 Q2300.18 1461 2303.56 1464.18 Q2306.94 1467.35 2306.94 1472.76 Q2306.94 1478.34 2303.46 1481.44 Q2299.99 1484.52 2293.67 1484.52 Q2291.5 1484.52 2289.23 1484.15 Q2286.98 1483.78 2284.57 1483.04 L2284.57 1478.34 Q2286.66 1479.48 2288.88 1480.03 Q2291.1 1480.59 2293.58 1480.59 Q2297.58 1480.59 2299.92 1478.48 Q2302.26 1476.38 2302.26 1472.76 Q2302.26 1469.15 2299.92 1467.05 Q2297.58 1464.94 2293.58 1464.94 Q2291.7 1464.94 2289.83 1465.36 Q2287.98 1465.77 2286.03 1466.65 L2286.03 1449.29 Z" fill="#000000" fill-rule="evenodd" fill-opacity="1" /><path clip-path="url(#clip180)" d="M 0 0 M1147.48 1538.25 Q1147.48 1544.71 1150.12 1548.4 Q1152.8 1552.07 1157.44 1552.07 Q1162.09 1552.07 1164.77 1548.4 Q1167.44 1544.71 1167.44 1538.25 Q1167.44 1531.79 1164.77 1528.13 Q1162.09 1524.44 1157.44 1524.44 Q1152.8 1524.44 1150.12 1528.13 Q1147.48 1531.79 1147.48 1538.25 M1167.44 1550.7 Q1165.59 1553.88 1162.76 1555.44 Q1159.96 1556.97 1156.01 1556.97 Q1149.55 1556.97 1145.48 1551.81 Q1141.43 1546.65 1141.43 1538.25 Q1141.43 1529.85 1145.48 1524.69 Q1149.55 1519.54 1156.01 1519.54 Q1159.96 1519.54 1162.76 1521.1 Q1165.59 1522.62 1167.44 1525.81 L1167.44 1520.4 L1173.3 1520.4 L1173.3 1569.6 L1167.44 1569.6 L1167.44 1550.7 Z" fill="#000000" fill-rule="evenodd" fill-opacity="1" /><path clip-path="url(#clip180)" d="M 0 0 M1206.52 1566.87 L1206.52 1571.42 L1172.66 1571.42 L1172.66 1566.87 L1206.52 1566.87 Z" fill="#000000" fill-rule="evenodd" fill-opacity="1" /><path clip-path="url(#clip180)" d="M 0 0 M1235.39 1521.45 L1235.39 1526.98 Q1232.91 1525.71 1230.24 1525.07 Q1227.56 1524.44 1224.7 1524.44 Q1220.34 1524.44 1218.14 1525.77 Q1215.98 1527.11 1215.98 1529.79 Q1215.98 1531.82 1217.54 1533 Q1219.1 1534.15 1223.81 1535.2 L1225.81 1535.64 Q1232.05 1536.98 1234.66 1539.43 Q1237.3 1541.85 1237.3 1546.21 Q1237.3 1551.17 1233.36 1554.07 Q1229.44 1556.97 1222.57 1556.97 Q1219.7 1556.97 1216.58 1556.39 Q1213.49 1555.85 1210.06 1554.74 L1210.06 1548.69 Q1213.3 1550.38 1216.45 1551.24 Q1219.61 1552.07 1222.69 1552.07 Q1226.83 1552.07 1229.06 1550.66 Q1231.29 1549.23 1231.29 1546.65 Q1231.29 1544.27 1229.66 1542.99 Q1228.07 1541.72 1222.63 1540.54 L1220.59 1540.07 Q1215.15 1538.92 1212.73 1536.56 Q1210.31 1534.18 1210.31 1530.04 Q1210.31 1525.01 1213.88 1522.27 Q1217.44 1519.54 1224 1519.54 Q1227.24 1519.54 1230.11 1520.01 Q1232.97 1520.49 1235.39 1521.45 Z" fill="#000000" fill-rule="evenodd" fill-opacity="1" /><path clip-path="url(#clip180)" d="M 0 0 M1273.08 1534.53 L1273.08 1556.04 L1267.22 1556.04 L1267.22 1534.72 Q1267.22 1529.66 1265.25 1527.14 Q1263.27 1524.63 1259.33 1524.63 Q1254.59 1524.63 1251.85 1527.65 Q1249.11 1530.68 1249.11 1535.9 L1249.11 1556.04 L1243.22 1556.04 L1243.22 1520.4 L1249.11 1520.4 L1249.11 1525.93 Q1251.21 1522.72 1254.04 1521.13 Q1256.91 1519.54 1260.63 1519.54 Q1266.78 1519.54 1269.93 1523.36 Q1273.08 1527.14 1273.08 1534.53 Z" fill="#000000" fill-rule="evenodd" fill-opacity="1" /><path clip-path="url(#clip180)" d="M 0 0 M1293.03 1524.5 Q1288.32 1524.5 1285.59 1528.19 Q1282.85 1531.85 1282.85 1538.25 Q1282.85 1544.65 1285.55 1548.34 Q1288.29 1552 1293.03 1552 Q1297.71 1552 1300.45 1548.31 Q1303.19 1544.62 1303.19 1538.25 Q1303.19 1531.92 1300.45 1528.23 Q1297.71 1524.5 1293.03 1524.5 M1293.03 1519.54 Q1300.67 1519.54 1305.03 1524.5 Q1309.39 1529.47 1309.39 1538.25 Q1309.39 1547 1305.03 1552 Q1300.67 1556.97 1293.03 1556.97 Q1285.36 1556.97 1281 1552 Q1276.67 1547 1276.67 1538.25 Q1276.67 1529.47 1281 1524.5 Q1285.36 1519.54 1293.03 1519.54 Z" fill="#000000" fill-rule="evenodd" fill-opacity="1" /><path clip-path="url(#clip180)" d="M 0 0 M1312.13 1520.4 L1317.99 1520.4 L1325.31 1548.21 L1332.6 1520.4 L1339.5 1520.4 L1346.82 1548.21 L1354.11 1520.4 L1359.97 1520.4 L1350.64 1556.04 L1343.74 1556.04 L1336.07 1526.83 L1328.36 1556.04 L1321.46 1556.04 L1312.13 1520.4 Z" fill="#000000" fill-rule="evenodd" fill-opacity="1" /><path clip-path="url(#clip180)" d="M 0 0 M1386.29 1506.52 L1399.79 1506.52 L1399.79 1511.07 L1392.15 1511.07 L1392.15 1560.09 L1399.79 1560.09 L1399.79 1564.64 L1386.29 1564.64 L1386.29 1506.52 Z" fill="#000000" fill-rule="evenodd" fill-opacity="1" /><path clip-path="url(#clip180)" d="M 0 0 M1429.39 1537.81 Q1429.39 1531.44 1426.75 1527.94 Q1424.14 1524.44 1419.39 1524.44 Q1414.68 1524.44 1412.04 1527.94 Q1409.43 1531.44 1409.43 1537.81 Q1409.43 1544.14 1412.04 1547.64 Q1414.68 1551.14 1419.39 1551.14 Q1424.14 1551.14 1426.75 1547.64 Q1429.39 1544.14 1429.39 1537.81 M1435.24 1551.62 Q1435.24 1560.72 1431.2 1565.15 Q1427.16 1569.6 1418.82 1569.6 Q1415.73 1569.6 1413 1569.13 Q1410.26 1568.68 1407.68 1567.72 L1407.68 1562.03 Q1410.26 1563.43 1412.77 1564.1 Q1415.29 1564.76 1417.9 1564.76 Q1423.66 1564.76 1426.52 1561.74 Q1429.39 1558.75 1429.39 1552.67 L1429.39 1549.77 Q1427.57 1552.92 1424.74 1554.48 Q1421.91 1556.04 1417.96 1556.04 Q1411.4 1556.04 1407.39 1551.05 Q1403.38 1546.05 1403.38 1537.81 Q1403.38 1529.53 1407.39 1524.53 Q1411.4 1519.54 1417.96 1519.54 Q1421.91 1519.54 1424.74 1521.1 Q1427.57 1522.66 1429.39 1525.81 L1429.39 1520.4 L1435.24 1520.4 L1435.24 1551.62 Z" fill="#000000" fill-rule="evenodd" fill-opacity="1" /><path clip-path="url(#clip180)" d="M 0 0 M1451.79 1508.52 L1457.21 1508.52 L1440.65 1562.09 L1435.24 1562.09 L1451.79 1508.52 Z" fill="#000000" fill-rule="evenodd" fill-opacity="1" /><path clip-path="url(#clip180)" d="M 0 0 M1463.13 1506.52 L1469.01 1506.52 L1469.01 1535.77 L1486.49 1520.4 L1493.97 1520.4 L1475.06 1537.07 L1494.76 1556.04 L1487.12 1556.04 L1469.01 1538.63 L1469.01 1556.04 L1463.13 1556.04 L1463.13 1506.52 Z" fill="#000000" fill-rule="evenodd" fill-opacity="1" /><path clip-path="url(#clip180)" d="M 0 0 M1524.36 1537.81 Q1524.36 1531.44 1521.72 1527.94 Q1519.11 1524.44 1514.37 1524.44 Q1509.66 1524.44 1507.02 1527.94 Q1504.41 1531.44 1504.41 1537.81 Q1504.41 1544.14 1507.02 1547.64 Q1509.66 1551.14 1514.37 1551.14 Q1519.11 1551.14 1521.72 1547.64 Q1524.36 1544.14 1524.36 1537.81 M1530.22 1551.62 Q1530.22 1560.72 1526.18 1565.15 Q1522.14 1569.6 1513.8 1569.6 Q1510.71 1569.6 1507.97 1569.13 Q1505.23 1568.68 1502.66 1567.72 L1502.66 1562.03 Q1505.23 1563.43 1507.75 1564.1 Q1510.26 1564.76 1512.87 1564.76 Q1518.63 1564.76 1521.5 1561.74 Q1524.36 1558.75 1524.36 1552.67 L1524.36 1549.77 Q1522.55 1552.92 1519.72 1554.48 Q1516.88 1556.04 1512.94 1556.04 Q1506.38 1556.04 1502.37 1551.05 Q1498.36 1546.05 1498.36 1537.81 Q1498.36 1529.53 1502.37 1524.53 Q1506.38 1519.54 1512.94 1519.54 Q1516.88 1519.54 1519.72 1521.1 Q1522.55 1522.66 1524.36 1525.81 L1524.36 1520.4 L1530.22 1520.4 L1530.22 1551.62 Z" fill="#000000" fill-rule="evenodd" fill-opacity="1" /><path clip-path="url(#clip180)" d="M 0 0 M1550.05 1506.52 L1550.05 1564.64 L1536.55 1564.64 L1536.55 1560.09 L1544.16 1560.09 L1544.16 1511.07 L1536.55 1511.07 L1536.55 1506.52 L1550.05 1506.52 Z" fill="#000000" fill-rule="evenodd" fill-opacity="1" /><polyline clip-path="url(#clip182)" style="stroke:#000000; stroke-width:2; stroke-opacity:0.1; fill:none" points="
  338.728,1155.33 2352.76,1155.33 
  "/>
<polyline clip-path="url(#clip182)" style="stroke:#000000; stroke-width:2; stroke-opacity:0.1; fill:none" points="
  338.728,810.715 2352.76,810.715 
  "/>
<polyline clip-path="url(#clip182)" style="stroke:#000000; stroke-width:2; stroke-opacity:0.1; fill:none" points="
  338.728,466.096 2352.76,466.096 
  "/>
<polyline clip-path="url(#clip182)" style="stroke:#000000; stroke-width:2; stroke-opacity:0.1; fill:none" points="
  338.728,121.478 2352.76,121.478 
  "/>
<polyline clip-path="url(#clip180)" style="stroke:#000000; stroke-width:4; stroke-opacity:1; fill:none" points="
  338.728,1423.18 338.728,47.2441 
  "/>
<polyline clip-path="url(#clip180)" style="stroke:#000000; stroke-width:4; stroke-opacity:1; fill:none" points="
  338.728,1155.33 362.897,1155.33 
  "/>
<polyline clip-path="url(#clip180)" style="stroke:#000000; stroke-width:4; stroke-opacity:1; fill:none" points="
  338.728,810.715 362.897,810.715 
  "/>
<polyline clip-path="url(#clip180)" style="stroke:#000000; stroke-width:4; stroke-opacity:1; fill:none" points="
  338.728,466.096 362.897,466.096 
  "/>
<polyline clip-path="url(#clip180)" style="stroke:#000000; stroke-width:4; stroke-opacity:1; fill:none" points="
  338.728,121.478 362.897,121.478 
  "/>
<path clip-path="url(#clip180)" d="M 0 0 M114.26 1162.23 L143.936 1162.23 L143.936 1166.17 L114.26 1166.17 L114.26 1162.23 Z" fill="#000000" fill-rule="evenodd" fill-opacity="1" /><path clip-path="url(#clip180)" d="M 0 0 M161.852 1148.57 L150.047 1167.02 L161.852 1167.02 L161.852 1148.57 M160.626 1144.5 L166.505 1144.5 L166.505 1167.02 L171.436 1167.02 L171.436 1170.91 L166.505 1170.91 L166.505 1179.06 L161.852 1179.06 L161.852 1170.91 L146.251 1170.91 L146.251 1166.4 L160.626 1144.5 Z" fill="#000000" fill-rule="evenodd" fill-opacity="1" /><path clip-path="url(#clip180)" d="M 0 0 M204.676 1153.6 L194.098 1164.22 L204.676 1174.8 L201.922 1177.6 L191.297 1166.98 L180.672 1177.6 L177.94 1174.8 L188.496 1164.22 L177.94 1153.6 L180.672 1150.8 L191.297 1161.42 L201.922 1150.8 L204.676 1153.6 Z" fill="#000000" fill-rule="evenodd" fill-opacity="1" /><path clip-path="url(#clip180)" d="M 0 0 M210.556 1175.13 L218.195 1175.13 L218.195 1148.76 L209.885 1150.43 L209.885 1146.17 L218.148 1144.5 L222.824 1144.5 L222.824 1175.13 L230.463 1175.13 L230.463 1179.06 L210.556 1179.06 L210.556 1175.13 Z" fill="#000000" fill-rule="evenodd" fill-opacity="1" /><path clip-path="url(#clip180)" d="M 0 0 M245.533 1147.58 Q241.922 1147.58 240.093 1151.14 Q238.287 1154.69 238.287 1161.82 Q238.287 1168.92 240.093 1172.49 Q241.922 1176.03 245.533 1176.03 Q249.167 1176.03 250.972 1172.49 Q252.801 1168.92 252.801 1161.82 Q252.801 1154.69 250.972 1151.14 Q249.167 1147.58 245.533 1147.58 M245.533 1143.88 Q251.343 1143.88 254.398 1148.48 Q257.477 1153.07 257.477 1161.82 Q257.477 1170.54 254.398 1175.15 Q251.343 1179.73 245.533 1179.73 Q239.722 1179.73 236.644 1175.15 Q233.588 1170.54 233.588 1161.82 Q233.588 1153.07 236.644 1148.48 Q239.722 1143.88 245.533 1143.88 Z" fill="#000000" fill-rule="evenodd" fill-opacity="1" /><path clip-path="url(#clip180)" d="M 0 0 M257.477 1137.98 L281.589 1137.98 L281.589 1141.17 L257.477 1141.17 L257.477 1137.98 Z" fill="#000000" fill-rule="evenodd" fill-opacity="1" /><path clip-path="url(#clip180)" d="M 0 0 M285.745 1123.57 L300.66 1123.57 L300.66 1126.77 L289.224 1126.77 L289.224 1133.65 Q290.052 1133.37 290.88 1133.24 Q291.707 1133.09 292.535 1133.09 Q297.237 1133.09 299.983 1135.66 Q302.728 1138.24 302.728 1142.64 Q302.728 1147.17 299.907 1149.69 Q297.086 1152.2 291.952 1152.2 Q290.184 1152.2 288.341 1151.89 Q286.516 1151.59 284.56 1150.99 L284.56 1147.17 Q286.253 1148.1 288.058 1148.55 Q289.864 1149 291.876 1149 Q295.13 1149 297.03 1147.29 Q298.929 1145.58 298.929 1142.64 Q298.929 1139.71 297.03 1138 Q295.13 1136.28 291.876 1136.28 Q290.353 1136.28 288.83 1136.62 Q287.325 1136.96 285.745 1137.68 L285.745 1123.57 Z" fill="#000000" fill-rule="evenodd" fill-opacity="1" /><path clip-path="url(#clip180)" d="M 0 0 M116.343 817.614 L146.019 817.614 L146.019 821.549 L116.343 821.549 L116.343 817.614 Z" fill="#000000" fill-rule="evenodd" fill-opacity="1" /><path clip-path="url(#clip180)" d="M 0 0 M155.116 830.507 L171.436 830.507 L171.436 834.442 L149.491 834.442 L149.491 830.507 Q152.153 827.753 156.737 823.123 Q161.343 818.47 162.524 817.128 Q164.769 814.605 165.649 812.868 Q166.552 811.109 166.552 809.419 Q166.552 806.665 164.607 804.929 Q162.686 803.193 159.584 803.193 Q157.385 803.193 154.931 803.956 Q152.501 804.72 149.723 806.271 L149.723 801.549 Q152.547 800.415 155.001 799.836 Q157.454 799.257 159.491 799.257 Q164.862 799.257 168.056 801.943 Q171.251 804.628 171.251 809.118 Q171.251 811.248 170.44 813.169 Q169.653 815.067 167.547 817.66 Q166.968 818.331 163.866 821.549 Q160.765 824.743 155.116 830.507 Z" fill="#000000" fill-rule="evenodd" fill-opacity="1" /><path clip-path="url(#clip180)" d="M 0 0 M204.676 808.98 L194.098 819.604 L204.676 830.183 L201.922 832.984 L191.297 822.359 L180.672 832.984 L177.94 830.183 L188.496 819.604 L177.94 808.98 L180.672 806.179 L191.297 816.804 L201.922 806.179 L204.676 808.98 Z" fill="#000000" fill-rule="evenodd" fill-opacity="1" /><path clip-path="url(#clip180)" d="M 0 0 M210.556 830.507 L218.195 830.507 L218.195 804.142 L209.885 805.808 L209.885 801.549 L218.148 799.882 L222.824 799.882 L222.824 830.507 L230.463 830.507 L230.463 834.442 L210.556 834.442 L210.556 830.507 Z" fill="#000000" fill-rule="evenodd" fill-opacity="1" /><path clip-path="url(#clip180)" d="M 0 0 M245.533 802.961 Q241.922 802.961 240.093 806.526 Q238.287 810.067 238.287 817.197 Q238.287 824.304 240.093 827.868 Q241.922 831.41 245.533 831.41 Q249.167 831.41 250.972 827.868 Q252.801 824.304 252.801 817.197 Q252.801 810.067 250.972 806.526 Q249.167 802.961 245.533 802.961 M245.533 799.257 Q251.343 799.257 254.398 803.864 Q257.477 808.447 257.477 817.197 Q257.477 825.924 254.398 830.53 Q251.343 835.114 245.533 835.114 Q239.722 835.114 236.644 830.53 Q233.588 825.924 233.588 817.197 Q233.588 808.447 236.644 803.864 Q239.722 799.257 245.533 799.257 Z" fill="#000000" fill-rule="evenodd" fill-opacity="1" /><path clip-path="url(#clip180)" d="M 0 0 M257.477 793.359 L281.589 793.359 L281.589 796.556 L257.477 796.556 L257.477 793.359 Z" fill="#000000" fill-rule="evenodd" fill-opacity="1" /><path clip-path="url(#clip180)" d="M 0 0 M285.745 778.952 L300.66 778.952 L300.66 782.149 L289.224 782.149 L289.224 789.033 Q290.052 788.751 290.88 788.619 Q291.707 788.469 292.535 788.469 Q297.237 788.469 299.983 791.045 Q302.728 793.622 302.728 798.023 Q302.728 802.556 299.907 805.076 Q297.086 807.577 291.952 807.577 Q290.184 807.577 288.341 807.276 Q286.516 806.976 284.56 806.374 L284.56 802.556 Q286.253 803.477 288.058 803.929 Q289.864 804.38 291.876 804.38 Q295.13 804.38 297.03 802.669 Q298.929 800.957 298.929 798.023 Q298.929 795.089 297.03 793.378 Q295.13 791.666 291.876 791.666 Q290.353 791.666 288.83 792.005 Q287.325 792.343 285.745 793.058 L285.745 778.952 Z" fill="#000000" fill-rule="evenodd" fill-opacity="1" /><path clip-path="url(#clip180)" d="M 0 0 M290.784 451.895 Q287.173 451.895 285.344 455.46 Q283.539 459.001 283.539 466.131 Q283.539 473.237 285.344 476.802 Q287.173 480.344 290.784 480.344 Q294.418 480.344 296.224 476.802 Q298.053 473.237 298.053 466.131 Q298.053 459.001 296.224 455.46 Q294.418 451.895 290.784 451.895 M290.784 448.191 Q296.594 448.191 299.65 452.798 Q302.728 457.381 302.728 466.131 Q302.728 474.858 299.65 479.464 Q296.594 484.048 290.784 484.048 Q284.974 484.048 281.895 479.464 Q278.84 474.858 278.84 466.131 Q278.84 457.381 281.895 452.798 Q284.974 448.191 290.784 448.191 Z" fill="#000000" fill-rule="evenodd" fill-opacity="1" /><path clip-path="url(#clip180)" d="M 0 0 M155.116 141.27 L171.436 141.27 L171.436 145.205 L149.491 145.205 L149.491 141.27 Q152.153 138.516 156.737 133.886 Q161.343 129.233 162.524 127.891 Q164.769 125.367 165.649 123.631 Q166.552 121.872 166.552 120.182 Q166.552 117.428 164.607 115.692 Q162.686 113.955 159.584 113.955 Q157.385 113.955 154.931 114.719 Q152.501 115.483 149.723 117.034 L149.723 112.312 Q152.547 111.178 155.001 110.599 Q157.454 110.02 159.491 110.02 Q164.862 110.02 168.056 112.705 Q171.251 115.391 171.251 119.881 Q171.251 122.011 170.44 123.932 Q169.653 125.83 167.547 128.423 Q166.968 129.094 163.866 132.312 Q160.765 135.506 155.116 141.27 Z" fill="#000000" fill-rule="evenodd" fill-opacity="1" /><path clip-path="url(#clip180)" d="M 0 0 M204.676 119.742 L194.098 130.367 L204.676 140.946 L201.922 143.747 L191.297 133.122 L180.672 143.747 L177.94 140.946 L188.496 130.367 L177.94 119.742 L180.672 116.942 L191.297 127.567 L201.922 116.942 L204.676 119.742 Z" fill="#000000" fill-rule="evenodd" fill-opacity="1" /><path clip-path="url(#clip180)" d="M 0 0 M210.556 141.27 L218.195 141.27 L218.195 114.905 L209.885 116.571 L209.885 112.312 L218.148 110.645 L222.824 110.645 L222.824 141.27 L230.463 141.27 L230.463 145.205 L210.556 145.205 L210.556 141.27 Z" fill="#000000" fill-rule="evenodd" fill-opacity="1" /><path clip-path="url(#clip180)" d="M 0 0 M245.533 113.724 Q241.922 113.724 240.093 117.289 Q238.287 120.83 238.287 127.96 Q238.287 135.066 240.093 138.631 Q241.922 142.173 245.533 142.173 Q249.167 142.173 250.972 138.631 Q252.801 135.066 252.801 127.96 Q252.801 120.83 250.972 117.289 Q249.167 113.724 245.533 113.724 M245.533 110.02 Q251.343 110.02 254.398 114.627 Q257.477 119.21 257.477 127.96 Q257.477 136.687 254.398 141.293 Q251.343 145.877 245.533 145.877 Q239.722 145.877 236.644 141.293 Q233.588 136.687 233.588 127.96 Q233.588 119.21 236.644 114.627 Q239.722 110.02 245.533 110.02 Z" fill="#000000" fill-rule="evenodd" fill-opacity="1" /><path clip-path="url(#clip180)" d="M 0 0 M257.477 104.122 L281.589 104.122 L281.589 107.319 L257.477 107.319 L257.477 104.122 Z" fill="#000000" fill-rule="evenodd" fill-opacity="1" /><path clip-path="url(#clip180)" d="M 0 0 M285.745 89.7149 L300.66 89.7149 L300.66 92.9122 L289.224 92.9122 L289.224 99.7959 Q290.052 99.5138 290.88 99.3821 Q291.707 99.2317 292.535 99.2317 Q297.237 99.2317 299.983 101.808 Q302.728 104.385 302.728 108.786 Q302.728 113.319 299.907 115.839 Q297.086 118.34 291.952 118.34 Q290.184 118.34 288.341 118.039 Q286.516 117.738 284.56 117.137 L284.56 113.319 Q286.253 114.24 288.058 114.692 Q289.864 115.143 291.876 115.143 Q295.13 115.143 297.03 113.432 Q298.929 111.72 298.929 108.786 Q298.929 105.852 297.03 104.14 Q295.13 102.429 291.876 102.429 Q290.353 102.429 288.83 102.768 Q287.325 103.106 285.745 103.821 L285.745 89.7149 Z" fill="#000000" fill-rule="evenodd" fill-opacity="1" /><path clip-path="url(#clip180)" d="M 0 0 M53.4065 1263.14 L58.9447 1263.14 Q57.6716 1265.62 57.035 1268.29 Q56.3984 1270.97 56.3984 1273.83 Q56.3984 1278.19 57.7352 1280.39 Q59.072 1282.55 61.7456 1282.55 Q63.7826 1282.55 64.9603 1280.99 Q66.1061 1279.43 67.1565 1274.72 L67.6021 1272.72 Q68.9389 1266.48 71.3897 1263.87 Q73.8086 1261.23 78.1691 1261.23 Q83.1344 1261.23 86.0308 1265.17 Q88.9272 1269.09 88.9272 1275.96 Q88.9272 1278.83 88.3543 1281.95 Q87.8132 1285.03 86.6992 1288.47 L80.6518 1288.47 Q82.3387 1285.22 83.198 1282.07 Q84.0256 1278.92 84.0256 1275.84 Q84.0256 1271.7 82.6251 1269.47 Q81.1929 1267.24 78.6147 1267.24 Q76.2276 1267.24 74.9545 1268.87 Q73.6813 1270.46 72.5037 1275.9 L72.0262 1277.94 Q70.8804 1283.38 68.5251 1285.8 Q66.138 1288.22 62.0002 1288.22 Q56.9713 1288.22 54.2341 1284.65 Q51.4968 1281.09 51.4968 1274.53 Q51.4968 1271.28 51.9743 1268.42 Q52.4517 1265.55 53.4065 1263.14 Z" fill="#000000" fill-rule="evenodd" fill-opacity="1" /><path clip-path="url(#clip180)" d="M 0 0 M66.4881 1225.45 L88.0042 1225.45 L88.0042 1231.31 L66.679 1231.31 Q61.6183 1231.31 59.1038 1233.28 Q56.5894 1235.25 56.5894 1239.2 Q56.5894 1243.94 59.6131 1246.68 Q62.6368 1249.42 67.8567 1249.42 L88.0042 1249.42 L88.0042 1255.31 L52.3562 1255.31 L52.3562 1249.42 L57.8944 1249.42 Q54.6797 1247.32 53.0883 1244.48 Q51.4968 1241.62 51.4968 1237.9 Q51.4968 1231.75 55.3163 1228.6 Q59.1038 1225.45 66.4881 1225.45 Z" fill="#000000" fill-rule="evenodd" fill-opacity="1" /><path clip-path="url(#clip180)" d="M 0 0 M56.4621 1205.49 Q56.4621 1210.21 60.1542 1212.94 Q63.8145 1215.68 70.212 1215.68 Q76.6095 1215.68 80.3017 1212.97 Q83.9619 1210.24 83.9619 1205.49 Q83.9619 1200.82 80.2698 1198.08 Q76.5777 1195.34 70.212 1195.34 Q63.8781 1195.34 60.186 1198.08 Q56.4621 1200.82 56.4621 1205.49 M51.4968 1205.49 Q51.4968 1197.86 56.4621 1193.5 Q61.4273 1189.13 70.212 1189.13 Q78.9649 1189.13 83.9619 1193.5 Q88.9272 1197.86 88.9272 1205.49 Q88.9272 1213.17 83.9619 1217.53 Q78.9649 1221.85 70.212 1221.85 Q61.4273 1221.85 56.4621 1217.53 Q51.4968 1213.17 51.4968 1205.49 Z" fill="#000000" fill-rule="evenodd" fill-opacity="1" /><path clip-path="url(#clip180)" d="M 0 0 M52.3562 1186.4 L52.3562 1180.54 L80.1743 1173.22 L52.3562 1165.93 L52.3562 1159.02 L80.1743 1151.7 L52.3562 1144.42 L52.3562 1138.56 L88.0042 1147.88 L88.0042 1154.79 L58.7856 1162.46 L88.0042 1170.16 L88.0042 1177.07 L52.3562 1186.4 Z" fill="#000000" fill-rule="evenodd" fill-opacity="1" /><path clip-path="url(#clip180)" d="M 0 0 M57.7671 1088.24 L38.479 1088.24 L38.479 1082.38 L88.0042 1082.38 L88.0042 1088.24 L82.657 1088.24 Q85.8398 1090.08 87.3994 1092.92 Q88.9272 1095.72 88.9272 1099.66 Q88.9272 1106.13 83.771 1110.2 Q78.6147 1114.24 70.212 1114.24 Q61.8093 1114.24 56.6531 1110.2 Q51.4968 1106.13 51.4968 1099.66 Q51.4968 1095.72 53.0564 1092.92 Q54.5842 1090.08 57.7671 1088.24 M70.212 1108.19 Q76.6732 1108.19 80.3653 1105.55 Q84.0256 1102.88 84.0256 1098.23 Q84.0256 1093.59 80.3653 1090.91 Q76.6732 1088.24 70.212 1088.24 Q63.7508 1088.24 60.0905 1090.91 Q56.3984 1093.59 56.3984 1098.23 Q56.3984 1102.88 60.0905 1105.55 Q63.7508 1108.19 70.212 1108.19 Z" fill="#000000" fill-rule="evenodd" fill-opacity="1" /><path clip-path="url(#clip180)" d="M 0 0 M68.7161 1045.75 L71.5806 1045.75 L71.5806 1072.67 Q77.6281 1072.29 80.8109 1069.05 Q83.9619 1065.77 83.9619 1059.94 Q83.9619 1056.57 83.1344 1053.42 Q82.3069 1050.23 80.6518 1047.12 L86.1899 1047.12 Q87.5267 1050.27 88.227 1053.58 Q88.9272 1056.89 88.9272 1060.29 Q88.9272 1068.82 83.9619 1073.82 Q78.9967 1078.79 70.5303 1078.79 Q61.7774 1078.79 56.6531 1074.07 Q51.4968 1069.33 51.4968 1061.31 Q51.4968 1054.12 56.1438 1049.95 Q60.7589 1045.75 68.7161 1045.75 M66.9973 1051.6 Q62.1912 1051.67 59.3266 1054.31 Q56.4621 1056.92 56.4621 1061.25 Q56.4621 1066.15 59.2312 1069.11 Q62.0002 1072.04 67.0292 1072.48 L66.9973 1051.6 Z" fill="#000000" fill-rule="evenodd" fill-opacity="1" /><path clip-path="url(#clip180)" d="M 0 0 M82.657 1033.94 L101.563 1033.94 L101.563 1039.83 L52.3562 1039.83 L52.3562 1033.94 L57.7671 1033.94 Q54.5842 1032.09 53.0564 1029.29 Q51.4968 1026.46 51.4968 1022.54 Q51.4968 1016.05 56.6531 1012.01 Q61.8093 1007.93 70.212 1007.93 Q78.6147 1007.93 83.771 1012.01 Q88.9272 1016.05 88.9272 1022.54 Q88.9272 1026.46 87.3994 1029.29 Q85.8398 1032.09 82.657 1033.94 M70.212 1014.01 Q63.7508 1014.01 60.0905 1016.69 Q56.3984 1019.33 56.3984 1023.98 Q56.3984 1028.62 60.0905 1031.3 Q63.7508 1033.94 70.212 1033.94 Q76.6732 1033.94 80.3653 1031.3 Q84.0256 1028.62 84.0256 1023.98 Q84.0256 1019.33 80.3653 1016.69 Q76.6732 1014.01 70.212 1014.01 Z" fill="#000000" fill-rule="evenodd" fill-opacity="1" /><path clip-path="url(#clip180)" d="M 0 0 M56.4621 987.978 Q56.4621 992.689 60.1542 995.426 Q63.8145 998.163 70.212 998.163 Q76.6095 998.163 80.3017 995.458 Q83.9619 992.721 83.9619 987.978 Q83.9619 983.299 80.2698 980.562 Q76.5777 977.825 70.212 977.825 Q63.8781 977.825 60.186 980.562 Q56.4621 983.299 56.4621 987.978 M51.4968 987.978 Q51.4968 980.339 56.4621 975.979 Q61.4273 971.618 70.212 971.618 Q78.9649 971.618 83.9619 975.979 Q88.9272 980.339 88.9272 987.978 Q88.9272 995.649 83.9619 1000.01 Q78.9649 1004.34 70.212 1004.34 Q61.4273 1004.34 56.4621 1000.01 Q51.4968 995.649 51.4968 987.978 Z" fill="#000000" fill-rule="evenodd" fill-opacity="1" /><path clip-path="url(#clip180)" d="M 0 0 M53.4065 942.75 L58.9447 942.75 Q57.6716 945.233 57.035 947.906 Q56.3984 950.58 56.3984 953.444 Q56.3984 957.805 57.7352 960.001 Q59.072 962.165 61.7456 962.165 Q63.7826 962.165 64.9603 960.606 Q66.1061 959.046 67.1565 954.336 L67.6021 952.33 Q68.9389 946.092 71.3897 943.482 Q73.8086 940.84 78.1691 940.84 Q83.1344 940.84 86.0308 944.787 Q88.9272 948.702 88.9272 955.577 Q88.9272 958.441 88.3543 961.561 Q87.8132 964.648 86.6992 968.085 L80.6518 968.085 Q82.3387 964.839 83.198 961.688 Q84.0256 958.537 84.0256 955.45 Q84.0256 951.312 82.6251 949.084 Q81.1929 946.856 78.6147 946.856 Q76.2276 946.856 74.9545 948.479 Q73.6813 950.07 72.5037 955.513 L72.0262 957.55 Q70.8804 962.993 68.5251 965.412 Q66.138 967.831 62.0002 967.831 Q56.9713 967.831 54.2341 964.266 Q51.4968 960.701 51.4968 954.145 Q51.4968 950.898 51.9743 948.033 Q52.4517 945.169 53.4065 942.75 Z" fill="#000000" fill-rule="evenodd" fill-opacity="1" /><path clip-path="url(#clip180)" d="M 0 0 M52.3562 934.697 L52.3562 928.841 L88.0042 928.841 L88.0042 934.697 L52.3562 934.697 M38.479 934.697 L38.479 928.841 L45.895 928.841 L45.895 934.697 L38.479 934.697 Z" fill="#000000" fill-rule="evenodd" fill-opacity="1" /><path clip-path="url(#clip180)" d="M 0 0 M42.2347 916.905 L52.3562 916.905 L52.3562 904.842 L56.9077 904.842 L56.9077 916.905 L76.2594 916.905 Q80.6199 916.905 81.8613 915.727 Q83.1026 914.518 83.1026 910.858 L83.1026 904.842 L88.0042 904.842 L88.0042 910.858 Q88.0042 917.637 85.4897 920.215 Q82.9434 922.793 76.2594 922.793 L56.9077 922.793 L56.9077 927.09 L52.3562 927.09 L52.3562 922.793 L42.2347 922.793 L42.2347 916.905 Z" fill="#000000" fill-rule="evenodd" fill-opacity="1" /><path clip-path="url(#clip180)" d="M 0 0 M52.3562 898.699 L52.3562 892.843 L88.0042 892.843 L88.0042 898.699 L52.3562 898.699 M38.479 898.699 L38.479 892.843 L45.895 892.843 L45.895 898.699 L38.479 898.699 Z" fill="#000000" fill-rule="evenodd" fill-opacity="1" /><path clip-path="url(#clip180)" d="M 0 0 M56.4621 872.886 Q56.4621 877.597 60.1542 880.334 Q63.8145 883.071 70.212 883.071 Q76.6095 883.071 80.3017 880.366 Q83.9619 877.629 83.9619 872.886 Q83.9619 868.207 80.2698 865.47 Q76.5777 862.733 70.212 862.733 Q63.8781 862.733 60.186 865.47 Q56.4621 868.207 56.4621 872.886 M51.4968 872.886 Q51.4968 865.247 56.4621 860.887 Q61.4273 856.526 70.212 856.526 Q78.9649 856.526 83.9619 860.887 Q88.9272 865.247 88.9272 872.886 Q88.9272 880.557 83.9619 884.917 Q78.9649 889.246 70.212 889.246 Q61.4273 889.246 56.4621 884.917 Q51.4968 880.557 51.4968 872.886 Z" fill="#000000" fill-rule="evenodd" fill-opacity="1" /><path clip-path="url(#clip180)" d="M 0 0 M66.4881 820.751 L88.0042 820.751 L88.0042 826.608 L66.679 826.608 Q61.6183 826.608 59.1038 828.581 Q56.5894 830.554 56.5894 834.501 Q56.5894 839.244 59.6131 841.981 Q62.6368 844.718 67.8567 844.718 L88.0042 844.718 L88.0042 850.606 L52.3562 850.606 L52.3562 844.718 L57.8944 844.718 Q54.6797 842.617 53.0883 839.785 Q51.4968 836.92 51.4968 833.196 Q51.4968 827.053 55.3163 823.902 Q59.1038 820.751 66.4881 820.751 Z" fill="#000000" fill-rule="evenodd" fill-opacity="1" /><path clip-path="url(#clip180)" d="M 0 0 M53.4065 771.162 L58.9447 771.162 Q57.6716 773.645 57.035 776.319 Q56.3984 778.992 56.3984 781.857 Q56.3984 786.217 57.7352 788.413 Q59.072 790.578 61.7456 790.578 Q63.7826 790.578 64.9603 789.018 Q66.1061 787.459 67.1565 782.748 L67.6021 780.743 Q68.9389 774.504 71.3897 771.894 Q73.8086 769.253 78.1691 769.253 Q83.1344 769.253 86.0308 773.199 Q88.9272 777.114 88.9272 783.989 Q88.9272 786.854 88.3543 789.973 Q87.8132 793.06 86.6992 796.498 L80.6518 796.498 Q82.3387 793.251 83.198 790.1 Q84.0256 786.949 84.0256 783.862 Q84.0256 779.724 82.6251 777.496 Q81.1929 775.268 78.6147 775.268 Q76.2276 775.268 74.9545 776.891 Q73.6813 778.483 72.5037 783.926 L72.0262 785.963 Q70.8804 791.405 68.5251 793.824 Q66.138 796.243 62.0002 796.243 Q56.9713 796.243 54.2341 792.678 Q51.4968 789.114 51.4968 782.557 Q51.4968 779.31 51.9743 776.446 Q52.4517 773.581 53.4065 771.162 Z" fill="#000000" fill-rule="evenodd" fill-opacity="1" /><path clip-path="url(#clip180)" d="M 0 0 M73.9359 763.714 L52.3562 763.714 L52.3562 757.858 L73.7131 757.858 Q78.7739 757.858 81.3202 755.885 Q83.8346 753.911 83.8346 749.964 Q83.8346 745.222 80.8109 742.485 Q77.7872 739.716 72.5673 739.716 L52.3562 739.716 L52.3562 733.859 L88.0042 733.859 L88.0042 739.716 L82.5296 739.716 Q85.7762 741.848 87.3676 744.681 Q88.9272 747.482 88.9272 751.206 Q88.9272 757.349 85.1078 760.532 Q81.2883 763.714 73.9359 763.714 M51.4968 748.978 L51.4968 748.978 Z" fill="#000000" fill-rule="evenodd" fill-opacity="1" /><path clip-path="url(#clip180)" d="M 0 0 M70.212 702.126 Q63.7508 702.126 60.0905 704.8 Q56.3984 707.442 56.3984 712.089 Q56.3984 716.736 60.0905 719.409 Q63.7508 722.051 70.212 722.051 Q76.6732 722.051 80.3653 719.409 Q84.0256 716.736 84.0256 712.089 Q84.0256 707.442 80.3653 704.8 Q76.6732 702.126 70.212 702.126 M57.7671 722.051 Q54.5842 720.205 53.0564 717.404 Q51.4968 714.571 51.4968 710.656 Q51.4968 704.163 56.6531 700.121 Q61.8093 696.047 70.212 696.047 Q78.6147 696.047 83.771 700.121 Q88.9272 704.163 88.9272 710.656 Q88.9272 714.571 87.3994 717.404 Q85.8398 720.205 82.657 722.051 L88.0042 722.051 L88.0042 727.939 L38.479 727.939 L38.479 722.051 L57.7671 722.051 Z" fill="#000000" fill-rule="evenodd" fill-opacity="1" /><path clip-path="url(#clip180)" d="M 0 0 M38.479 689.904 L38.479 684.048 L88.0042 684.048 L88.0042 689.904 L38.479 689.904 Z" fill="#000000" fill-rule="evenodd" fill-opacity="1" /><path clip-path="url(#clip180)" d="M 0 0 M52.3562 677.905 L52.3562 672.048 L88.0042 672.048 L88.0042 677.905 L52.3562 677.905 M38.479 677.905 L38.479 672.048 L45.895 672.048 L45.895 677.905 L38.479 677.905 Z" fill="#000000" fill-rule="evenodd" fill-opacity="1" /><path clip-path="url(#clip180)" d="M 0 0 M59.1993 638.151 Q55.2526 635.955 53.3747 632.899 Q51.4968 629.844 51.4968 625.706 Q51.4968 620.136 55.4117 617.112 Q59.2948 614.088 66.4881 614.088 L88.0042 614.088 L88.0042 619.977 L66.679 619.977 Q61.5546 619.977 59.072 621.791 Q56.5894 623.605 56.5894 627.329 Q56.5894 631.881 59.6131 634.522 Q62.6368 637.164 67.8567 637.164 L88.0042 637.164 L88.0042 643.052 L66.679 643.052 Q61.5228 643.052 59.072 644.867 Q56.5894 646.681 56.5894 650.468 Q56.5894 654.956 59.6449 657.598 Q62.6686 660.24 67.8567 660.24 L88.0042 660.24 L88.0042 666.128 L52.3562 666.128 L52.3562 660.24 L57.8944 660.24 Q54.616 658.235 53.0564 655.434 Q51.4968 652.633 51.4968 648.782 Q51.4968 644.899 53.4702 642.193 Q55.4436 639.456 59.1993 638.151 Z" fill="#000000" fill-rule="evenodd" fill-opacity="1" /><path clip-path="url(#clip180)" d="M 0 0 M70.0847 591.745 Q70.0847 598.843 71.7079 601.58 Q73.3312 604.317 77.2461 604.317 Q80.3653 604.317 82.2114 602.28 Q84.0256 600.211 84.0256 596.678 Q84.0256 591.809 80.5881 588.88 Q77.1188 585.92 71.3897 585.92 L70.0847 585.92 L70.0847 591.745 M67.6657 580.064 L88.0042 580.064 L88.0042 585.92 L82.5933 585.92 Q85.8398 587.925 87.3994 590.917 Q88.9272 593.909 88.9272 598.238 Q88.9272 603.712 85.8716 606.959 Q82.7843 610.174 77.6281 610.174 Q71.6125 610.174 68.5569 606.163 Q65.5014 602.121 65.5014 594.132 L65.5014 585.92 L64.9285 585.92 Q60.8862 585.92 58.6901 588.594 Q56.4621 591.236 56.4621 596.042 Q56.4621 599.097 57.1941 601.994 Q57.9262 604.89 59.3903 607.564 L53.9795 607.564 Q52.7381 604.349 52.1334 601.325 Q51.4968 598.302 51.4968 595.437 Q51.4968 587.703 55.5072 583.883 Q59.5176 580.064 67.6657 580.064 Z" fill="#000000" fill-rule="evenodd" fill-opacity="1" /><path clip-path="url(#clip180)" d="M 0 0 M42.2347 568.128 L52.3562 568.128 L52.3562 556.065 L56.9077 556.065 L56.9077 568.128 L76.2594 568.128 Q80.6199 568.128 81.8613 566.95 Q83.1026 565.741 83.1026 562.081 L83.1026 556.065 L88.0042 556.065 L88.0042 562.081 Q88.0042 568.86 85.4897 571.438 Q82.9434 574.016 76.2594 574.016 L56.9077 574.016 L56.9077 578.313 L52.3562 578.313 L52.3562 574.016 L42.2347 574.016 L42.2347 568.128 Z" fill="#000000" fill-rule="evenodd" fill-opacity="1" /><path clip-path="url(#clip180)" d="M 0 0 M52.3562 549.922 L52.3562 544.066 L88.0042 544.066 L88.0042 549.922 L52.3562 549.922 M38.479 549.922 L38.479 544.066 L45.895 544.066 L45.895 549.922 L38.479 549.922 Z" fill="#000000" fill-rule="evenodd" fill-opacity="1" /><path clip-path="url(#clip180)" d="M 0 0 M56.4621 524.109 Q56.4621 528.82 60.1542 531.557 Q63.8145 534.294 70.212 534.294 Q76.6095 534.294 80.3017 531.589 Q83.9619 528.852 83.9619 524.109 Q83.9619 519.43 80.2698 516.693 Q76.5777 513.956 70.212 513.956 Q63.8781 513.956 60.186 516.693 Q56.4621 519.43 56.4621 524.109 M51.4968 524.109 Q51.4968 516.47 56.4621 512.11 Q61.4273 507.749 70.212 507.749 Q78.9649 507.749 83.9619 512.11 Q88.9272 516.47 88.9272 524.109 Q88.9272 531.78 83.9619 536.14 Q78.9649 540.469 70.212 540.469 Q61.4273 540.469 56.4621 536.14 Q51.4968 531.78 51.4968 524.109 Z" fill="#000000" fill-rule="evenodd" fill-opacity="1" /><path clip-path="url(#clip180)" d="M 0 0 M66.4881 471.974 L88.0042 471.974 L88.0042 477.831 L66.679 477.831 Q61.6183 477.831 59.1038 479.804 Q56.5894 481.777 56.5894 485.724 Q56.5894 490.466 59.6131 493.204 Q62.6368 495.941 67.8567 495.941 L88.0042 495.941 L88.0042 501.829 L52.3562 501.829 L52.3562 495.941 L57.8944 495.941 Q54.6797 493.84 53.0883 491.008 Q51.4968 488.143 51.4968 484.419 Q51.4968 478.276 55.3163 475.125 Q59.1038 471.974 66.4881 471.974 Z" fill="#000000" fill-rule="evenodd" fill-opacity="1" /><path clip-path="url(#clip180)" d="M 0 0 M57.8307 424.454 Q57.2578 425.441 57.0032 426.618 Q56.7167 427.764 56.7167 429.165 Q56.7167 434.13 59.9632 436.804 Q63.1779 439.445 69.2253 439.445 L88.0042 439.445 L88.0042 445.334 L52.3562 445.334 L52.3562 439.445 L57.8944 439.445 Q54.6479 437.599 53.0883 434.639 Q51.4968 431.679 51.4968 427.446 Q51.4968 426.841 51.5923 426.109 Q51.656 425.377 51.8151 424.486 L57.8307 424.454 Z" fill="#000000" fill-rule="evenodd" fill-opacity="1" /><path clip-path="url(#clip180)" d="M 0 0 M70.0847 402.11 Q70.0847 409.208 71.7079 411.945 Q73.3312 414.683 77.2461 414.683 Q80.3653 414.683 82.2114 412.646 Q84.0256 410.577 84.0256 407.044 Q84.0256 402.174 80.5881 399.246 Q77.1188 396.286 71.3897 396.286 L70.0847 396.286 L70.0847 402.11 M67.6657 390.429 L88.0042 390.429 L88.0042 396.286 L82.5933 396.286 Q85.8398 398.291 87.3994 401.283 Q88.9272 404.275 88.9272 408.603 Q88.9272 414.078 85.8716 417.324 Q82.7843 420.539 77.6281 420.539 Q71.6125 420.539 68.5569 416.529 Q65.5014 412.487 65.5014 404.498 L65.5014 396.286 L64.9285 396.286 Q60.8862 396.286 58.6901 398.959 Q56.4621 401.601 56.4621 406.407 Q56.4621 409.463 57.1941 412.359 Q57.9262 415.256 59.3903 417.929 L53.9795 417.929 Q52.7381 414.715 52.1334 411.691 Q51.4968 408.667 51.4968 405.803 Q51.4968 398.068 55.5072 394.249 Q59.5176 390.429 67.6657 390.429 Z" fill="#000000" fill-rule="evenodd" fill-opacity="1" /><path clip-path="url(#clip180)" d="M 0 0 M42.2347 378.494 L52.3562 378.494 L52.3562 366.431 L56.9077 366.431 L56.9077 378.494 L76.2594 378.494 Q80.6199 378.494 81.8613 377.316 Q83.1026 376.107 83.1026 372.446 L83.1026 366.431 L88.0042 366.431 L88.0042 372.446 Q88.0042 379.226 85.4897 381.804 Q82.9434 384.382 76.2594 384.382 L56.9077 384.382 L56.9077 388.679 L52.3562 388.679 L52.3562 384.382 L42.2347 384.382 L42.2347 378.494 Z" fill="#000000" fill-rule="evenodd" fill-opacity="1" /><path clip-path="url(#clip180)" d="M 0 0 M68.7161 329.796 L71.5806 329.796 L71.5806 356.723 Q77.6281 356.341 80.8109 353.095 Q83.9619 349.816 83.9619 343.992 Q83.9619 340.618 83.1344 337.467 Q82.3069 334.284 80.6518 331.165 L86.1899 331.165 Q87.5267 334.316 88.227 337.626 Q88.9272 340.936 88.9272 344.342 Q88.9272 352.872 83.9619 357.869 Q78.9967 362.834 70.5303 362.834 Q61.7774 362.834 56.6531 358.123 Q51.4968 353.381 51.4968 345.36 Q51.4968 338.167 56.1438 333.997 Q60.7589 329.796 68.7161 329.796 M66.9973 335.652 Q62.1912 335.716 59.3266 338.358 Q56.4621 340.968 56.4621 345.297 Q56.4621 350.198 59.2312 353.158 Q62.0002 356.086 67.0292 356.532 L66.9973 335.652 Z" fill="#000000" fill-rule="evenodd" fill-opacity="1" /><path clip-path="url(#clip180)" d="M 0 0 M38.479 303.474 L38.479 289.979 L43.0304 289.979 L43.0304 297.617 L92.0464 297.617 L92.0464 289.979 L96.5979 289.979 L96.5979 303.474 L38.479 303.474 Z" fill="#000000" fill-rule="evenodd" fill-opacity="1" /><path clip-path="url(#clip180)" d="M 0 0 M82.5933 281.894 L82.5933 271.391 L46.3406 271.391 L48.6323 282.817 L42.7758 282.817 L40.4842 271.454 L40.4842 265.025 L82.5933 265.025 L82.5933 254.522 L88.0042 254.522 L88.0042 281.894 L82.5933 281.894 Z" fill="#000000" fill-rule="evenodd" fill-opacity="1" /><path clip-path="url(#clip180)" d="M 0 0 M40.4842 237.971 L40.4842 232.56 L94.0516 249.111 L94.0516 254.522 L40.4842 237.971 Z" fill="#000000" fill-rule="evenodd" fill-opacity="1" /><path clip-path="url(#clip180)" d="M 0 0 M53.4065 203.691 L58.9447 203.691 Q57.6716 206.174 57.035 208.848 Q56.3984 211.521 56.3984 214.386 Q56.3984 218.746 57.7352 220.942 Q59.072 223.107 61.7456 223.107 Q63.7826 223.107 64.9603 221.547 Q66.1061 219.988 67.1565 215.277 L67.6021 213.272 Q68.9389 207.033 71.3897 204.423 Q73.8086 201.782 78.1691 201.782 Q83.1344 201.782 86.0308 205.728 Q88.9272 209.643 88.9272 216.518 Q88.9272 219.383 88.3543 222.502 Q87.8132 225.589 86.6992 229.027 L80.6518 229.027 Q82.3387 225.78 83.198 222.629 Q84.0256 219.478 84.0256 216.391 Q84.0256 212.253 82.6251 210.025 Q81.1929 207.797 78.6147 207.797 Q76.2276 207.797 74.9545 209.421 Q73.6813 211.012 72.5037 216.455 L72.0262 218.492 Q70.8804 223.934 68.5251 226.353 Q66.138 228.772 62.0002 228.772 Q56.9713 228.772 54.2341 225.207 Q51.4968 221.643 51.4968 215.086 Q51.4968 211.839 51.9743 208.975 Q52.4517 206.11 53.4065 203.691 Z" fill="#000000" fill-rule="evenodd" fill-opacity="1" /><path clip-path="url(#clip180)" d="M 0 0 M38.479 181.952 L96.5979 181.952 L96.5979 195.448 L92.0464 195.448 L92.0464 187.841 L43.0304 187.841 L43.0304 195.448 L38.479 195.448 L38.479 181.952 Z" fill="#000000" fill-rule="evenodd" fill-opacity="1" /><polyline clip-path="url(#clip182)" style="stroke:#009af9; stroke-width:12; stroke-opacity:1; fill:none" points="
  395.729,466.1 414.921,478.238 434.114,489.386 453.306,500.194 472.498,510.788 491.69,521.227 510.882,531.545 530.075,541.762 549.267,551.895 568.459,561.955 
  587.651,571.95 606.843,581.888 626.035,591.773 645.228,601.612 664.42,611.406 683.612,621.161 702.804,630.878 721.996,640.561 741.189,650.211 760.381,659.83 
  779.573,669.42 798.765,678.983 817.957,688.52 837.149,698.032 856.342,707.521 875.534,716.987 894.726,726.431 913.918,735.855 933.11,745.259 952.302,754.643 
  971.495,764.01 990.687,773.358 1009.88,782.69 1029.07,792.005 1048.26,801.304 1067.46,810.587 1086.65,819.855 1105.84,829.109 1125.03,838.348 1144.22,847.574 
  1163.42,856.786 1182.61,865.985 1201.8,875.172 1220.99,884.346 1240.19,893.508 1259.38,902.658 1278.57,911.797 1297.76,920.925 1316.95,930.041 1336.15,939.147 
  1355.34,948.242 1374.53,957.327 1393.72,966.402 1412.91,975.467 1432.11,984.523 1451.3,993.569 1470.49,1002.61 1489.68,1011.63 1508.88,1020.65 1528.07,1029.66 
  1547.26,1038.66 1566.45,1047.66 1585.64,1056.64 1604.84,1065.62 1624.03,1074.58 1643.22,1083.54 1662.41,1092.5 1681.61,1101.44 1700.8,1110.38 1719.99,1119.31 
  1739.18,1128.23 1758.37,1137.15 1777.57,1146.06 1796.76,1154.96 1815.95,1163.85 1835.14,1172.74 1854.33,1181.62 1873.53,1190.5 1892.72,1199.36 1911.91,1208.23 
  1931.1,1217.08 1950.3,1225.93 1969.49,1234.77 1988.68,1243.61 2007.87,1252.44 2027.06,1261.27 2046.26,1270.09 2065.45,1278.9 2084.64,1287.71 2103.83,1296.51 
  2123.03,1305.31 2142.22,1314.1 2161.41,1322.88 2180.6,1331.66 2199.79,1340.44 2218.99,1349.21 2238.18,1357.97 2257.37,1366.73 2276.56,1375.49 2295.76,1384.24 
  
  "/>
<polyline clip-path="url(#clip182)" style="stroke:#e26f46; stroke-width:12; stroke-opacity:1; fill:none" points="
  395.729,466.095 414.921,461.07 434.114,456.456 453.306,451.982 472.498,447.597 491.69,443.277 510.882,439.007 530.075,434.779 549.267,430.585 568.459,426.422 
  587.651,422.286 606.843,418.173 626.035,414.082 645.228,410.011 664.42,405.958 683.612,401.921 702.804,397.9 721.996,393.893 741.189,389.9 760.381,385.92 
  779.573,381.951 798.765,377.994 817.957,374.048 837.149,370.112 856.342,366.185 875.534,362.268 894.726,358.36 913.918,354.461 933.11,350.57 952.302,346.686 
  971.495,342.811 990.687,338.942 1009.88,335.081 1029.07,331.227 1048.26,327.379 1067.46,323.538 1086.65,319.703 1105.84,315.874 1125.03,312.051 1144.22,308.233 
  1163.42,304.422 1182.61,300.615 1201.8,296.814 1220.99,293.018 1240.19,289.227 1259.38,285.441 1278.57,281.66 1297.76,277.883 1316.95,274.111 1336.15,270.343 
  1355.34,266.58 1374.53,262.821 1393.72,259.066 1412.91,255.315 1432.11,251.568 1451.3,247.825 1470.49,244.086 1489.68,240.351 1508.88,236.62 1528.07,232.892 
  1547.26,229.167 1566.45,225.446 1585.64,221.729 1604.84,218.015 1624.03,214.304 1643.22,210.597 1662.41,206.893 1681.61,203.192 1700.8,199.494 1719.99,195.799 
  1739.18,192.107 1758.37,188.418 1777.57,184.732 1796.76,181.049 1815.95,177.369 1835.14,173.692 1854.33,170.017 1873.53,166.345 1892.72,162.676 1911.91,159.01 
  1931.1,155.346 1950.3,151.684 1969.49,148.025 1988.68,144.369 2007.87,140.715 2027.06,137.064 2046.26,133.415 2065.45,129.768 2084.64,126.124 2103.83,122.482 
  2123.03,118.843 2142.22,115.205 2161.41,111.57 2180.6,107.938 2199.79,104.307 2218.99,100.678 2238.18,97.052 2257.37,93.4278 2276.56,89.8057 2295.76,86.1857 
  
  "/>
<path clip-path="url(#clip180)" d="
M1970.89 274.549 L2285.62 274.549 L2285.62 93.1086 L1970.89 93.1086  Z
  " fill="#ffffff" fill-rule="evenodd" fill-opacity="1"/>
<polyline clip-path="url(#clip180)" style="stroke:#000000; stroke-width:4; stroke-opacity:1; fill:none" points="
  1970.89,274.549 2285.62,274.549 2285.62,93.1086 1970.89,93.1086 1970.89,274.549 
  "/>
<polyline clip-path="url(#clip180)" style="stroke:#009af9; stroke-width:4; stroke-opacity:1; fill:none" points="
  1993.27,153.589 2127.54,153.589 
  "/>
<path clip-path="url(#clip180)" d="M 0 0 M2149.92 136.309 L2179.15 136.309 L2179.15 140.244 L2166.88 140.244 L2166.88 170.869 L2162.19 170.869 L2162.19 140.244 L2149.92 140.244 L2149.92 136.309 Z" fill="#000000" fill-rule="evenodd" fill-opacity="1" /><path clip-path="url(#clip180)" d="M 0 0 M2213.85 147.535 L2189.96 156.031 L2213.85 164.48 L2213.85 168.693 L2184.18 157.929 L2184.18 154.086 L2213.85 143.322 L2213.85 147.535 Z" fill="#000000" fill-rule="evenodd" fill-opacity="1" /><path clip-path="url(#clip180)" d="M 0 0 M2228.92 139.387 Q2225.31 139.387 2223.48 142.952 Q2221.68 146.494 2221.68 153.623 Q2221.68 160.73 2223.48 164.295 Q2225.31 167.836 2228.92 167.836 Q2232.56 167.836 2234.36 164.295 Q2236.19 160.73 2236.19 153.623 Q2236.19 146.494 2234.36 142.952 Q2232.56 139.387 2228.92 139.387 M2228.92 135.684 Q2234.73 135.684 2237.79 140.29 Q2240.87 144.873 2240.87 153.623 Q2240.87 162.35 2237.79 166.957 Q2234.73 171.54 2228.92 171.54 Q2223.11 171.54 2220.03 166.957 Q2216.98 162.35 2216.98 153.623 Q2216.98 144.873 2220.03 140.29 Q2223.11 135.684 2228.92 135.684 Z" fill="#000000" fill-rule="evenodd" fill-opacity="1" /><polyline clip-path="url(#clip180)" style="stroke:#e26f46; stroke-width:4; stroke-opacity:1; fill:none" points="
  1993.27,214.069 2127.54,214.069 
  "/>
<path clip-path="url(#clip180)" d="M 0 0 M2149.92 196.789 L2179.15 196.789 L2179.15 200.724 L2166.88 200.724 L2166.88 231.349 L2162.19 231.349 L2162.19 200.724 L2149.92 200.724 L2149.92 196.789 Z" fill="#000000" fill-rule="evenodd" fill-opacity="1" /><path clip-path="url(#clip180)" d="M 0 0 M2184.18 208.015 L2184.18 203.802 L2213.85 214.566 L2213.85 218.409 L2184.18 229.173 L2184.18 224.96 L2208.02 216.511 L2184.18 208.015 Z" fill="#000000" fill-rule="evenodd" fill-opacity="1" /><path clip-path="url(#clip180)" d="M 0 0 M2228.92 199.867 Q2225.31 199.867 2223.48 203.432 Q2221.68 206.974 2221.68 214.103 Q2221.68 221.21 2223.48 224.775 Q2225.31 228.316 2228.92 228.316 Q2232.56 228.316 2234.36 224.775 Q2236.19 221.21 2236.19 214.103 Q2236.19 206.974 2234.36 203.432 Q2232.56 199.867 2228.92 199.867 M2228.92 196.164 Q2234.73 196.164 2237.79 200.77 Q2240.87 205.353 2240.87 214.103 Q2240.87 222.83 2237.79 227.437 Q2234.73 232.02 2228.92 232.02 Q2223.11 232.02 2220.03 227.437 Q2216.98 222.83 2216.98 214.103 Q2216.98 205.353 2220.03 200.77 Q2223.11 196.164 2228.92 196.164 Z" fill="#000000" fill-rule="evenodd" fill-opacity="1" /></svg>
