<?xml version="1.0" encoding="utf-8"?>
<svg xmlns="http://www.w3.org/2000/svg" xmlns:xlink="http://www.w3.org/1999/xlink" width="600" height="400" viewBox="0 0 2400 1600">
<defs>
  <clipPath id="clip420">
    <rect x="0" y="0" width="2400" height="1600"/>
  </clipPath>
</defs>
<path clip-path="url(#clip420)" d="
M0 1600 L2400 1600 L2400 0 L0 0  Z
  " fill="#ffffff" fill-rule="evenodd" fill-opacity="1"/>
<defs>
  <clipPath id="clip421">
    <rect x="480" y="0" width="1681" height="1600"/>
  </clipPath>
</defs>
<path clip-path="url(#clip420)" d="
M292.644 1423.18 L2352.76 1423.18 L2352.76 47.2441 L292.644 47.2441  Z
  " fill="#ffffff" fill-rule="evenodd" fill-opacity="1"/>
<defs>
  <clipPath id="clip422">
    <rect x="292" y="47" width="2061" height="1377"/>
  </clipPath>
</defs>
<polyline clip-path="url(#clip422)" style="stroke:#000000; stroke-width:2; stroke-opacity:0.1; fill:none" points="
  350.945,1423.18 350.945,47.2441 
  "/>
<polyline clip-path="url(#clip422)" style="stroke:#000000; stroke-width:2; stroke-opacity:0.1; fill:none" points="
  739.646,1423.18 739.646,47.2441 
  "/>
<polyline clip-path="url(#clip422)" style="stroke:#000000; stroke-width:2; stroke-opacity:0.1; fill:none" points="
  1128.35,1423.18 1128.35,47.2441 
  "/>
<polyline clip-path="url(#clip422)" style="stroke:#000000; stroke-width:2; stroke-opacity:0.1; fill:none" points="
  1517.05,1423.18 1517.05,47.2441 
  "/>
<polyline clip-path="url(#clip422)" style="stroke:#000000; stroke-width:2; stroke-opacity:0.1; fill:none" points="
  1905.75,1423.18 1905.75,47.2441 
  "/>
<polyline clip-path="url(#clip422)" style="stroke:#000000; stroke-width:2; stroke-opacity:0.1; fill:none" points="
  2294.45,1423.18 2294.45,47.2441 
  "/>
<polyline clip-path="url(#clip422)" style="stroke:#000000; stroke-width:2; stroke-opacity:0.1; fill:none" points="
  292.644,1384.24 2352.76,1384.24 
  "/>
<polyline clip-path="url(#clip422)" style="stroke:#000000; stroke-width:2; stroke-opacity:0.1; fill:none" points="
  292.644,1085.85 2352.76,1085.85 
  "/>
<polyline clip-path="url(#clip422)" style="stroke:#000000; stroke-width:2; stroke-opacity:0.1; fill:none" points="
  292.644,787.468 2352.76,787.468 
  "/>
<polyline clip-path="url(#clip422)" style="stroke:#000000; stroke-width:2; stroke-opacity:0.1; fill:none" points="
  292.644,489.082 2352.76,489.082 
  "/>
<polyline clip-path="url(#clip422)" style="stroke:#000000; stroke-width:2; stroke-opacity:0.1; fill:none" points="
  292.644,190.697 2352.76,190.697 
  "/>
<polyline clip-path="url(#clip420)" style="stroke:#000000; stroke-width:4; stroke-opacity:1; fill:none" points="
  292.644,1423.18 2352.76,1423.18 
  "/>
<polyline clip-path="url(#clip420)" style="stroke:#000000; stroke-width:4; stroke-opacity:1; fill:none" points="
  292.644,1423.18 292.644,47.2441 
  "/>
<polyline clip-path="url(#clip420)" style="stroke:#000000; stroke-width:4; stroke-opacity:1; fill:none" points="
  350.945,1423.18 350.945,1406.67 
  "/>
<polyline clip-path="url(#clip420)" style="stroke:#000000; stroke-width:4; stroke-opacity:1; fill:none" points="
  739.646,1423.18 739.646,1406.67 
  "/>
<polyline clip-path="url(#clip420)" style="stroke:#000000; stroke-width:4; stroke-opacity:1; fill:none" points="
  1128.35,1423.18 1128.35,1406.67 
  "/>
<polyline clip-path="url(#clip420)" style="stroke:#000000; stroke-width:4; stroke-opacity:1; fill:none" points="
  1517.05,1423.18 1517.05,1406.67 
  "/>
<polyline clip-path="url(#clip420)" style="stroke:#000000; stroke-width:4; stroke-opacity:1; fill:none" points="
  1905.75,1423.18 1905.75,1406.67 
  "/>
<polyline clip-path="url(#clip420)" style="stroke:#000000; stroke-width:4; stroke-opacity:1; fill:none" points="
  2294.45,1423.18 2294.45,1406.67 
  "/>
<polyline clip-path="url(#clip420)" style="stroke:#000000; stroke-width:4; stroke-opacity:1; fill:none" points="
  292.644,1384.24 317.365,1384.24 
  "/>
<polyline clip-path="url(#clip420)" style="stroke:#000000; stroke-width:4; stroke-opacity:1; fill:none" points="
  292.644,1085.85 317.365,1085.85 
  "/>
<polyline clip-path="url(#clip420)" style="stroke:#000000; stroke-width:4; stroke-opacity:1; fill:none" points="
  292.644,787.468 317.365,787.468 
  "/>
<polyline clip-path="url(#clip420)" style="stroke:#000000; stroke-width:4; stroke-opacity:1; fill:none" points="
  292.644,489.082 317.365,489.082 
  "/>
<polyline clip-path="url(#clip420)" style="stroke:#000000; stroke-width:4; stroke-opacity:1; fill:none" points="
  292.644,190.697 317.365,190.697 
  "/>
<path clip-path="url(#clip420)" d="M 0 0 M350.945 1445.17 Q347.334 1445.17 345.505 1448.74 Q343.699 1452.28 343.699 1459.41 Q343.699 1466.51 345.505 1470.08 Q347.334 1473.62 350.945 1473.62 Q354.579 1473.62 356.385 1470.08 Q358.213 1466.51 358.213 1459.41 Q358.213 1452.28 356.385 1448.74 Q354.579 1445.17 350.945 1445.17 M350.945 1441.47 Q356.755 1441.47 359.811 1446.07 Q362.889 1450.66 362.889 1459.41 Q362.889 1468.13 359.811 1472.74 Q356.755 1477.32 350.945 1477.32 Q345.135 1477.32 342.056 1472.74 Q339 1468.13 339 1459.41 Q339 1450.66 342.056 1446.07 Q345.135 1441.47 350.945 1441.47 Z" fill="#000000" fill-rule="evenodd" fill-opacity="1" /><path clip-path="url(#clip420)" d="M 0 0 M730.028 1472.72 L737.667 1472.72 L737.667 1446.35 L729.357 1448.02 L729.357 1443.76 L737.621 1442.09 L742.296 1442.09 L742.296 1472.72 L749.935 1472.72 L749.935 1476.65 L730.028 1476.65 L730.028 1472.72 Z" fill="#000000" fill-rule="evenodd" fill-opacity="1" /><path clip-path="url(#clip420)" d="M 0 0 M1123 1472.72 L1139.32 1472.72 L1139.32 1476.65 L1117.38 1476.65 L1117.38 1472.72 Q1120.04 1469.96 1124.62 1465.33 Q1129.23 1460.68 1130.41 1459.34 Q1132.65 1456.81 1133.53 1455.08 Q1134.44 1453.32 1134.44 1451.63 Q1134.44 1448.87 1132.49 1447.14 Q1130.57 1445.4 1127.47 1445.4 Q1125.27 1445.4 1122.81 1446.17 Q1120.38 1446.93 1117.61 1448.48 L1117.61 1443.76 Q1120.43 1442.62 1122.88 1442.05 Q1125.34 1441.47 1127.38 1441.47 Q1132.75 1441.47 1135.94 1444.15 Q1139.13 1446.84 1139.13 1451.33 Q1139.13 1453.46 1138.32 1455.38 Q1137.54 1457.28 1135.43 1459.87 Q1134.85 1460.54 1131.75 1463.76 Q1128.65 1466.95 1123 1472.72 Z" fill="#000000" fill-rule="evenodd" fill-opacity="1" /><path clip-path="url(#clip420)" d="M 0 0 M1521.3 1458.02 Q1524.65 1458.74 1526.53 1461 Q1528.43 1463.27 1528.43 1466.61 Q1528.43 1471.72 1524.91 1474.52 Q1521.39 1477.32 1514.91 1477.32 Q1512.73 1477.32 1510.42 1476.88 Q1508.12 1476.47 1505.67 1475.61 L1505.67 1471.1 Q1507.62 1472.23 1509.93 1472.81 Q1512.25 1473.39 1514.77 1473.39 Q1519.17 1473.39 1521.46 1471.65 Q1523.77 1469.92 1523.77 1466.61 Q1523.77 1463.55 1521.62 1461.84 Q1519.49 1460.1 1515.67 1460.1 L1511.64 1460.1 L1511.64 1456.26 L1515.86 1456.26 Q1519.31 1456.26 1521.13 1454.89 Q1522.96 1453.5 1522.96 1450.91 Q1522.96 1448.25 1521.06 1446.84 Q1519.19 1445.4 1515.67 1445.4 Q1513.75 1445.4 1511.55 1445.82 Q1509.35 1446.24 1506.71 1447.11 L1506.71 1442.95 Q1509.37 1442.21 1511.69 1441.84 Q1514.03 1441.47 1516.09 1441.47 Q1521.41 1441.47 1524.51 1443.9 Q1527.62 1446.3 1527.62 1450.43 Q1527.62 1453.3 1525.97 1455.29 Q1524.33 1457.25 1521.3 1458.02 Z" fill="#000000" fill-rule="evenodd" fill-opacity="1" /><path clip-path="url(#clip420)" d="M 0 0 M1908.76 1446.17 L1896.95 1464.61 L1908.76 1464.61 L1908.76 1446.17 M1907.53 1442.09 L1913.41 1442.09 L1913.41 1464.61 L1918.34 1464.61 L1918.34 1468.5 L1913.41 1468.5 L1913.41 1476.65 L1908.76 1476.65 L1908.76 1468.5 L1893.16 1468.5 L1893.16 1463.99 L1907.53 1442.09 Z" fill="#000000" fill-rule="evenodd" fill-opacity="1" /><path clip-path="url(#clip420)" d="M 0 0 M2284.73 1442.09 L2303.09 1442.09 L2303.09 1446.03 L2289.01 1446.03 L2289.01 1454.5 Q2290.03 1454.15 2291.05 1453.99 Q2292.07 1453.8 2293.09 1453.8 Q2298.87 1453.8 2302.25 1456.98 Q2305.63 1460.15 2305.63 1465.56 Q2305.63 1471.14 2302.16 1474.24 Q2298.69 1477.32 2292.37 1477.32 Q2290.19 1477.32 2287.92 1476.95 Q2285.68 1476.58 2283.27 1475.84 L2283.27 1471.14 Q2285.35 1472.28 2287.58 1472.83 Q2289.8 1473.39 2292.27 1473.39 Q2296.28 1473.39 2298.62 1471.28 Q2300.96 1469.18 2300.96 1465.56 Q2300.96 1461.95 2298.62 1459.85 Q2296.28 1457.74 2292.27 1457.74 Q2290.4 1457.74 2288.52 1458.16 Q2286.67 1458.57 2284.73 1459.45 L2284.73 1442.09 Z" fill="#000000" fill-rule="evenodd" fill-opacity="1" /><path clip-path="url(#clip420)" d="M 0 0 M138.691 1370.04 Q135.08 1370.04 133.251 1373.6 Q131.445 1377.14 131.445 1384.27 Q131.445 1391.38 133.251 1394.94 Q135.08 1398.49 138.691 1398.49 Q142.325 1398.49 144.13 1394.94 Q145.959 1391.38 145.959 1384.27 Q145.959 1377.14 144.13 1373.6 Q142.325 1370.04 138.691 1370.04 M138.691 1366.33 Q144.501 1366.33 147.556 1370.94 Q150.635 1375.52 150.635 1384.27 Q150.635 1393 147.556 1397.61 Q144.501 1402.19 138.691 1402.19 Q132.88 1402.19 129.802 1397.61 Q126.746 1393 126.746 1384.27 Q126.746 1375.52 129.802 1370.94 Q132.88 1366.33 138.691 1366.33 Z" fill="#000000" fill-rule="evenodd" fill-opacity="1" /><path clip-path="url(#clip420)" d="M 0 0 M155.704 1395.64 L160.589 1395.64 L160.589 1401.52 L155.704 1401.52 L155.704 1395.64 Z" fill="#000000" fill-rule="evenodd" fill-opacity="1" /><path clip-path="url(#clip420)" d="M 0 0 M175.658 1370.04 Q172.047 1370.04 170.218 1373.6 Q168.413 1377.14 168.413 1384.27 Q168.413 1391.38 170.218 1394.94 Q172.047 1398.49 175.658 1398.49 Q179.292 1398.49 181.098 1394.94 Q182.927 1391.38 182.927 1384.27 Q182.927 1377.14 181.098 1373.6 Q179.292 1370.04 175.658 1370.04 M175.658 1366.33 Q181.468 1366.33 184.524 1370.94 Q187.602 1375.52 187.602 1384.27 Q187.602 1393 184.524 1397.61 Q181.468 1402.19 175.658 1402.19 Q169.848 1402.19 166.769 1397.61 Q163.714 1393 163.714 1384.27 Q163.714 1375.52 166.769 1370.94 Q169.848 1366.33 175.658 1366.33 Z" fill="#000000" fill-rule="evenodd" fill-opacity="1" /><path clip-path="url(#clip420)" d="M 0 0 M202.672 1370.04 Q199.061 1370.04 197.232 1373.6 Q195.426 1377.14 195.426 1384.27 Q195.426 1391.38 197.232 1394.94 Q199.061 1398.49 202.672 1398.49 Q206.306 1398.49 208.112 1394.94 Q209.94 1391.38 209.94 1384.27 Q209.94 1377.14 208.112 1373.6 Q206.306 1370.04 202.672 1370.04 M202.672 1366.33 Q208.482 1366.33 211.537 1370.94 Q214.616 1375.52 214.616 1384.27 Q214.616 1393 211.537 1397.61 Q208.482 1402.19 202.672 1402.19 Q196.862 1402.19 193.783 1397.61 Q190.727 1393 190.727 1384.27 Q190.727 1375.52 193.783 1370.94 Q196.862 1366.33 202.672 1366.33 Z" fill="#000000" fill-rule="evenodd" fill-opacity="1" /><path clip-path="url(#clip420)" d="M 0 0 M229.686 1370.04 Q226.074 1370.04 224.246 1373.6 Q222.44 1377.14 222.44 1384.27 Q222.44 1391.38 224.246 1394.94 Q226.074 1398.49 229.686 1398.49 Q233.32 1398.49 235.125 1394.94 Q236.954 1391.38 236.954 1384.27 Q236.954 1377.14 235.125 1373.6 Q233.32 1370.04 229.686 1370.04 M229.686 1366.33 Q235.496 1366.33 238.551 1370.94 Q241.63 1375.52 241.63 1384.27 Q241.63 1393 238.551 1397.61 Q235.496 1402.19 229.686 1402.19 Q223.875 1402.19 220.797 1397.61 Q217.741 1393 217.741 1384.27 Q217.741 1375.52 220.797 1370.94 Q223.875 1366.33 229.686 1366.33 Z" fill="#000000" fill-rule="evenodd" fill-opacity="1" /><path clip-path="url(#clip420)" d="M 0 0 M256.699 1370.04 Q253.088 1370.04 251.259 1373.6 Q249.454 1377.14 249.454 1384.27 Q249.454 1391.38 251.259 1394.94 Q253.088 1398.49 256.699 1398.49 Q260.334 1398.49 262.139 1394.94 Q263.968 1391.38 263.968 1384.27 Q263.968 1377.14 262.139 1373.6 Q260.334 1370.04 256.699 1370.04 M256.699 1366.33 Q262.509 1366.33 265.565 1370.94 Q268.644 1375.52 268.644 1384.27 Q268.644 1393 265.565 1397.61 Q262.509 1402.19 256.699 1402.19 Q250.889 1402.19 247.81 1397.61 Q244.755 1393 244.755 1384.27 Q244.755 1375.52 247.81 1370.94 Q250.889 1366.33 256.699 1366.33 Z" fill="#000000" fill-rule="evenodd" fill-opacity="1" /><path clip-path="url(#clip420)" d="M 0 0 M140.288 1071.65 Q136.677 1071.65 134.848 1075.22 Q133.043 1078.76 133.043 1085.89 Q133.043 1092.99 134.848 1096.56 Q136.677 1100.1 140.288 1100.1 Q143.922 1100.1 145.728 1096.56 Q147.556 1092.99 147.556 1085.89 Q147.556 1078.76 145.728 1075.22 Q143.922 1071.65 140.288 1071.65 M140.288 1067.95 Q146.098 1067.95 149.154 1072.55 Q152.232 1077.14 152.232 1085.89 Q152.232 1094.61 149.154 1099.22 Q146.098 1103.8 140.288 1103.8 Q134.478 1103.8 131.399 1099.22 Q128.343 1094.61 128.343 1085.89 Q128.343 1077.14 131.399 1072.55 Q134.478 1067.95 140.288 1067.95 Z" fill="#000000" fill-rule="evenodd" fill-opacity="1" /><path clip-path="url(#clip420)" d="M 0 0 M157.302 1097.25 L162.186 1097.25 L162.186 1103.13 L157.302 1103.13 L157.302 1097.25 Z" fill="#000000" fill-rule="evenodd" fill-opacity="1" /><path clip-path="url(#clip420)" d="M 0 0 M177.255 1071.65 Q173.644 1071.65 171.815 1075.22 Q170.01 1078.76 170.01 1085.89 Q170.01 1092.99 171.815 1096.56 Q173.644 1100.1 177.255 1100.1 Q180.889 1100.1 182.695 1096.56 Q184.524 1092.99 184.524 1085.89 Q184.524 1078.76 182.695 1075.22 Q180.889 1071.65 177.255 1071.65 M177.255 1067.95 Q183.065 1067.95 186.121 1072.55 Q189.2 1077.14 189.2 1085.89 Q189.2 1094.61 186.121 1099.22 Q183.065 1103.8 177.255 1103.8 Q171.445 1103.8 168.366 1099.22 Q165.311 1094.61 165.311 1085.89 Q165.311 1077.14 168.366 1072.55 Q171.445 1067.95 177.255 1067.95 Z" fill="#000000" fill-rule="evenodd" fill-opacity="1" /><path clip-path="url(#clip420)" d="M 0 0 M204.269 1071.65 Q200.658 1071.65 198.829 1075.22 Q197.024 1078.76 197.024 1085.89 Q197.024 1092.99 198.829 1096.56 Q200.658 1100.1 204.269 1100.1 Q207.903 1100.1 209.709 1096.56 Q211.537 1092.99 211.537 1085.89 Q211.537 1078.76 209.709 1075.22 Q207.903 1071.65 204.269 1071.65 M204.269 1067.95 Q210.079 1067.95 213.135 1072.55 Q216.213 1077.14 216.213 1085.89 Q216.213 1094.61 213.135 1099.22 Q210.079 1103.8 204.269 1103.8 Q198.459 1103.8 195.38 1099.22 Q192.325 1094.61 192.325 1085.89 Q192.325 1077.14 195.38 1072.55 Q198.459 1067.95 204.269 1067.95 Z" fill="#000000" fill-rule="evenodd" fill-opacity="1" /><path clip-path="url(#clip420)" d="M 0 0 M231.283 1071.65 Q227.672 1071.65 225.843 1075.22 Q224.037 1078.76 224.037 1085.89 Q224.037 1092.99 225.843 1096.56 Q227.672 1100.1 231.283 1100.1 Q234.917 1100.1 236.723 1096.56 Q238.551 1092.99 238.551 1085.89 Q238.551 1078.76 236.723 1075.22 Q234.917 1071.65 231.283 1071.65 M231.283 1067.95 Q237.093 1067.95 240.148 1072.55 Q243.227 1077.14 243.227 1085.89 Q243.227 1094.61 240.148 1099.22 Q237.093 1103.8 231.283 1103.8 Q225.473 1103.8 222.394 1099.22 Q219.338 1094.61 219.338 1085.89 Q219.338 1077.14 222.394 1072.55 Q225.473 1067.95 231.283 1067.95 Z" fill="#000000" fill-rule="evenodd" fill-opacity="1" /><path clip-path="url(#clip420)" d="M 0 0 M252.324 1099.2 L268.644 1099.2 L268.644 1103.13 L246.699 1103.13 L246.699 1099.2 Q249.361 1096.44 253.945 1091.81 Q258.551 1087.16 259.732 1085.82 Q261.977 1083.3 262.857 1081.56 Q263.759 1079.8 263.759 1078.11 Q263.759 1075.36 261.815 1073.62 Q259.894 1071.88 256.792 1071.88 Q254.593 1071.88 252.139 1072.65 Q249.709 1073.41 246.931 1074.96 L246.931 1070.24 Q249.755 1069.11 252.209 1068.53 Q254.662 1067.95 256.699 1067.95 Q262.07 1067.95 265.264 1070.63 Q268.458 1073.32 268.458 1077.81 Q268.458 1079.94 267.648 1081.86 Q266.861 1083.76 264.755 1086.35 Q264.176 1087.02 261.074 1090.24 Q257.972 1093.43 252.324 1099.2 Z" fill="#000000" fill-rule="evenodd" fill-opacity="1" /><path clip-path="url(#clip420)" d="M 0 0 M138.205 773.266 Q134.593 773.266 132.765 776.831 Q130.959 780.373 130.959 787.502 Q130.959 794.609 132.765 798.174 Q134.593 801.715 138.205 801.715 Q141.839 801.715 143.644 798.174 Q145.473 794.609 145.473 787.502 Q145.473 780.373 143.644 776.831 Q141.839 773.266 138.205 773.266 M138.205 769.563 Q144.015 769.563 147.07 774.169 Q150.149 778.753 150.149 787.502 Q150.149 796.229 147.07 800.836 Q144.015 805.419 138.205 805.419 Q132.394 805.419 129.316 800.836 Q126.26 796.229 126.26 787.502 Q126.26 778.753 129.316 774.169 Q132.394 769.563 138.205 769.563 Z" fill="#000000" fill-rule="evenodd" fill-opacity="1" /><path clip-path="url(#clip420)" d="M 0 0 M155.218 798.868 L160.103 798.868 L160.103 804.748 L155.218 804.748 L155.218 798.868 Z" fill="#000000" fill-rule="evenodd" fill-opacity="1" /><path clip-path="url(#clip420)" d="M 0 0 M175.172 773.266 Q171.561 773.266 169.732 776.831 Q167.927 780.373 167.927 787.502 Q167.927 794.609 169.732 798.174 Q171.561 801.715 175.172 801.715 Q178.806 801.715 180.612 798.174 Q182.44 794.609 182.44 787.502 Q182.44 780.373 180.612 776.831 Q178.806 773.266 175.172 773.266 M175.172 769.563 Q180.982 769.563 184.038 774.169 Q187.116 778.753 187.116 787.502 Q187.116 796.229 184.038 800.836 Q180.982 805.419 175.172 805.419 Q169.362 805.419 166.283 800.836 Q163.228 796.229 163.228 787.502 Q163.228 778.753 166.283 774.169 Q169.362 769.563 175.172 769.563 Z" fill="#000000" fill-rule="evenodd" fill-opacity="1" /><path clip-path="url(#clip420)" d="M 0 0 M202.186 773.266 Q198.575 773.266 196.746 776.831 Q194.94 780.373 194.94 787.502 Q194.94 794.609 196.746 798.174 Q198.575 801.715 202.186 801.715 Q205.82 801.715 207.625 798.174 Q209.454 794.609 209.454 787.502 Q209.454 780.373 207.625 776.831 Q205.82 773.266 202.186 773.266 M202.186 769.563 Q207.996 769.563 211.051 774.169 Q214.13 778.753 214.13 787.502 Q214.13 796.229 211.051 800.836 Q207.996 805.419 202.186 805.419 Q196.376 805.419 193.297 800.836 Q190.241 796.229 190.241 787.502 Q190.241 778.753 193.297 774.169 Q196.376 769.563 202.186 769.563 Z" fill="#000000" fill-rule="evenodd" fill-opacity="1" /><path clip-path="url(#clip420)" d="M 0 0 M229.199 773.266 Q225.588 773.266 223.76 776.831 Q221.954 780.373 221.954 787.502 Q221.954 794.609 223.76 798.174 Q225.588 801.715 229.199 801.715 Q232.834 801.715 234.639 798.174 Q236.468 794.609 236.468 787.502 Q236.468 780.373 234.639 776.831 Q232.834 773.266 229.199 773.266 M229.199 769.563 Q235.01 769.563 238.065 774.169 Q241.144 778.753 241.144 787.502 Q241.144 796.229 238.065 800.836 Q235.01 805.419 229.199 805.419 Q223.389 805.419 220.311 800.836 Q217.255 796.229 217.255 787.502 Q217.255 778.753 220.311 774.169 Q223.389 769.563 229.199 769.563 Z" fill="#000000" fill-rule="evenodd" fill-opacity="1" /><path clip-path="url(#clip420)" d="M 0 0 M259.06 774.262 L247.255 792.711 L259.06 792.711 L259.06 774.262 M257.834 770.188 L263.713 770.188 L263.713 792.711 L268.644 792.711 L268.644 796.6 L263.713 796.6 L263.713 804.748 L259.06 804.748 L259.06 796.6 L243.459 796.6 L243.459 792.086 L257.834 770.188 Z" fill="#000000" fill-rule="evenodd" fill-opacity="1" /><path clip-path="url(#clip420)" d="M 0 0 M138.529 474.881 Q134.918 474.881 133.089 478.446 Q131.283 481.988 131.283 489.117 Q131.283 496.224 133.089 499.788 Q134.918 503.33 138.529 503.33 Q142.163 503.33 143.968 499.788 Q145.797 496.224 145.797 489.117 Q145.797 481.988 143.968 478.446 Q142.163 474.881 138.529 474.881 M138.529 471.177 Q144.339 471.177 147.394 475.784 Q150.473 480.367 150.473 489.117 Q150.473 497.844 147.394 502.45 Q144.339 507.034 138.529 507.034 Q132.718 507.034 129.64 502.45 Q126.584 497.844 126.584 489.117 Q126.584 480.367 129.64 475.784 Q132.718 471.177 138.529 471.177 Z" fill="#000000" fill-rule="evenodd" fill-opacity="1" /><path clip-path="url(#clip420)" d="M 0 0 M155.542 500.483 L160.427 500.483 L160.427 506.362 L155.542 506.362 L155.542 500.483 Z" fill="#000000" fill-rule="evenodd" fill-opacity="1" /><path clip-path="url(#clip420)" d="M 0 0 M175.496 474.881 Q171.885 474.881 170.056 478.446 Q168.251 481.988 168.251 489.117 Q168.251 496.224 170.056 499.788 Q171.885 503.33 175.496 503.33 Q179.13 503.33 180.936 499.788 Q182.764 496.224 182.764 489.117 Q182.764 481.988 180.936 478.446 Q179.13 474.881 175.496 474.881 M175.496 471.177 Q181.306 471.177 184.362 475.784 Q187.44 480.367 187.44 489.117 Q187.44 497.844 184.362 502.45 Q181.306 507.034 175.496 507.034 Q169.686 507.034 166.607 502.45 Q163.552 497.844 163.552 489.117 Q163.552 480.367 166.607 475.784 Q169.686 471.177 175.496 471.177 Z" fill="#000000" fill-rule="evenodd" fill-opacity="1" /><path clip-path="url(#clip420)" d="M 0 0 M202.51 474.881 Q198.899 474.881 197.07 478.446 Q195.264 481.988 195.264 489.117 Q195.264 496.224 197.07 499.788 Q198.899 503.33 202.51 503.33 Q206.144 503.33 207.95 499.788 Q209.778 496.224 209.778 489.117 Q209.778 481.988 207.95 478.446 Q206.144 474.881 202.51 474.881 M202.51 471.177 Q208.32 471.177 211.375 475.784 Q214.454 480.367 214.454 489.117 Q214.454 497.844 211.375 502.45 Q208.32 507.034 202.51 507.034 Q196.7 507.034 193.621 502.45 Q190.565 497.844 190.565 489.117 Q190.565 480.367 193.621 475.784 Q196.7 471.177 202.51 471.177 Z" fill="#000000" fill-rule="evenodd" fill-opacity="1" /><path clip-path="url(#clip420)" d="M 0 0 M229.523 474.881 Q225.912 474.881 224.084 478.446 Q222.278 481.988 222.278 489.117 Q222.278 496.224 224.084 499.788 Q225.912 503.33 229.523 503.33 Q233.158 503.33 234.963 499.788 Q236.792 496.224 236.792 489.117 Q236.792 481.988 234.963 478.446 Q233.158 474.881 229.523 474.881 M229.523 471.177 Q235.334 471.177 238.389 475.784 Q241.468 480.367 241.468 489.117 Q241.468 497.844 238.389 502.45 Q235.334 507.034 229.523 507.034 Q223.713 507.034 220.635 502.45 Q217.579 497.844 217.579 489.117 Q217.579 480.367 220.635 475.784 Q223.713 471.177 229.523 471.177 Z" fill="#000000" fill-rule="evenodd" fill-opacity="1" /><path clip-path="url(#clip420)" d="M 0 0 M257.116 487.219 Q253.968 487.219 252.116 489.372 Q250.287 491.525 250.287 495.275 Q250.287 499.001 252.116 501.177 Q253.968 503.33 257.116 503.33 Q260.264 503.33 262.093 501.177 Q263.945 499.001 263.945 495.275 Q263.945 491.525 262.093 489.372 Q260.264 487.219 257.116 487.219 M266.398 472.566 L266.398 476.826 Q264.639 475.992 262.833 475.552 Q261.051 475.113 259.292 475.113 Q254.662 475.113 252.209 478.238 Q249.778 481.363 249.431 487.682 Q250.797 485.668 252.857 484.603 Q254.917 483.515 257.394 483.515 Q262.602 483.515 265.611 486.687 Q268.644 489.835 268.644 495.275 Q268.644 500.599 265.496 503.816 Q262.347 507.034 257.116 507.034 Q251.121 507.034 247.949 502.45 Q244.778 497.844 244.778 489.117 Q244.778 480.923 248.667 476.062 Q252.556 471.177 259.107 471.177 Q260.866 471.177 262.648 471.525 Q264.454 471.872 266.398 472.566 Z" fill="#000000" fill-rule="evenodd" fill-opacity="1" /><path clip-path="url(#clip420)" d="M 0 0 M138.783 176.496 Q135.172 176.496 133.343 180.061 Q131.538 183.602 131.538 190.732 Q131.538 197.838 133.343 201.403 Q135.172 204.945 138.783 204.945 Q142.417 204.945 144.223 201.403 Q146.052 197.838 146.052 190.732 Q146.052 183.602 144.223 180.061 Q142.417 176.496 138.783 176.496 M138.783 172.792 Q144.593 172.792 147.649 177.399 Q150.728 181.982 150.728 190.732 Q150.728 199.459 147.649 204.065 Q144.593 208.649 138.783 208.649 Q132.973 208.649 129.894 204.065 Q126.839 199.459 126.839 190.732 Q126.839 181.982 129.894 177.399 Q132.973 172.792 138.783 172.792 Z" fill="#000000" fill-rule="evenodd" fill-opacity="1" /><path clip-path="url(#clip420)" d="M 0 0 M155.797 202.098 L160.681 202.098 L160.681 207.977 L155.797 207.977 L155.797 202.098 Z" fill="#000000" fill-rule="evenodd" fill-opacity="1" /><path clip-path="url(#clip420)" d="M 0 0 M175.751 176.496 Q172.14 176.496 170.311 180.061 Q168.505 183.602 168.505 190.732 Q168.505 197.838 170.311 201.403 Q172.14 204.945 175.751 204.945 Q179.385 204.945 181.19 201.403 Q183.019 197.838 183.019 190.732 Q183.019 183.602 181.19 180.061 Q179.385 176.496 175.751 176.496 M175.751 172.792 Q181.561 172.792 184.616 177.399 Q187.695 181.982 187.695 190.732 Q187.695 199.459 184.616 204.065 Q181.561 208.649 175.751 208.649 Q169.94 208.649 166.862 204.065 Q163.806 199.459 163.806 190.732 Q163.806 181.982 166.862 177.399 Q169.94 172.792 175.751 172.792 Z" fill="#000000" fill-rule="evenodd" fill-opacity="1" /><path clip-path="url(#clip420)" d="M 0 0 M202.764 176.496 Q199.153 176.496 197.325 180.061 Q195.519 183.602 195.519 190.732 Q195.519 197.838 197.325 201.403 Q199.153 204.945 202.764 204.945 Q206.399 204.945 208.204 201.403 Q210.033 197.838 210.033 190.732 Q210.033 183.602 208.204 180.061 Q206.399 176.496 202.764 176.496 M202.764 172.792 Q208.575 172.792 211.63 177.399 Q214.709 181.982 214.709 190.732 Q214.709 199.459 211.63 204.065 Q208.575 208.649 202.764 208.649 Q196.954 208.649 193.876 204.065 Q190.82 199.459 190.82 190.732 Q190.82 181.982 193.876 177.399 Q196.954 172.792 202.764 172.792 Z" fill="#000000" fill-rule="evenodd" fill-opacity="1" /><path clip-path="url(#clip420)" d="M 0 0 M229.778 176.496 Q226.167 176.496 224.338 180.061 Q222.533 183.602 222.533 190.732 Q222.533 197.838 224.338 201.403 Q226.167 204.945 229.778 204.945 Q233.412 204.945 235.218 201.403 Q237.047 197.838 237.047 190.732 Q237.047 183.602 235.218 180.061 Q233.412 176.496 229.778 176.496 M229.778 172.792 Q235.588 172.792 238.644 177.399 Q241.723 181.982 241.723 190.732 Q241.723 199.459 238.644 204.065 Q235.588 208.649 229.778 208.649 Q223.968 208.649 220.889 204.065 Q217.834 199.459 217.834 190.732 Q217.834 181.982 220.889 177.399 Q223.968 172.792 229.778 172.792 Z" fill="#000000" fill-rule="evenodd" fill-opacity="1" /><path clip-path="url(#clip420)" d="M 0 0 M256.792 191.565 Q253.459 191.565 251.537 193.348 Q249.639 195.13 249.639 198.255 Q249.639 201.38 251.537 203.162 Q253.459 204.945 256.792 204.945 Q260.125 204.945 262.046 203.162 Q263.968 201.357 263.968 198.255 Q263.968 195.13 262.046 193.348 Q260.148 191.565 256.792 191.565 M252.116 189.575 Q249.107 188.834 247.417 186.774 Q245.75 184.713 245.75 181.751 Q245.75 177.607 248.69 175.2 Q251.653 172.792 256.792 172.792 Q261.954 172.792 264.894 175.2 Q267.833 177.607 267.833 181.751 Q267.833 184.713 266.144 186.774 Q264.477 188.834 261.491 189.575 Q264.871 190.362 266.746 192.653 Q268.644 194.945 268.644 198.255 Q268.644 203.278 265.565 205.963 Q262.509 208.649 256.792 208.649 Q251.074 208.649 247.996 205.963 Q244.94 203.278 244.94 198.255 Q244.94 194.945 246.838 192.653 Q248.736 190.362 252.116 189.575 M250.403 182.19 Q250.403 184.875 252.07 186.38 Q253.759 187.885 256.792 187.885 Q259.801 187.885 261.491 186.38 Q263.204 184.875 263.204 182.19 Q263.204 179.505 261.491 178.001 Q259.801 176.496 256.792 176.496 Q253.759 176.496 252.07 178.001 Q250.403 179.505 250.403 182.19 Z" fill="#000000" fill-rule="evenodd" fill-opacity="1" /><path clip-path="url(#clip420)" d="M 0 0 M983.519 1538.25 Q983.519 1544.71 986.161 1548.4 Q988.834 1552.07 993.481 1552.07 Q998.128 1552.07 1000.8 1548.4 Q1003.48 1544.71 1003.48 1538.25 Q1003.48 1531.79 1000.8 1528.13 Q998.128 1524.44 993.481 1524.44 Q988.834 1524.44 986.161 1528.13 Q983.519 1531.79 983.519 1538.25 M1003.48 1550.7 Q1001.63 1553.88 998.797 1555.44 Q995.996 1556.97 992.049 1556.97 Q985.588 1556.97 981.514 1551.81 Q977.472 1546.65 977.472 1538.25 Q977.472 1529.85 981.514 1524.69 Q985.588 1519.54 992.049 1519.54 Q995.996 1519.54 998.797 1521.1 Q1001.63 1522.62 1003.48 1525.81 L1003.48 1520.4 L1009.33 1520.4 L1009.33 1569.6 L1003.48 1569.6 L1003.48 1550.7 Z" fill="#000000" fill-rule="evenodd" fill-opacity="1" /><path clip-path="url(#clip420)" d="M 0 0 M1042.56 1566.87 L1042.56 1571.42 L1008.7 1571.42 L1008.7 1566.87 L1042.56 1566.87 Z" fill="#000000" fill-rule="evenodd" fill-opacity="1" /><path clip-path="url(#clip420)" d="M 0 0 M1069.36 1525.87 Q1068.37 1525.3 1067.2 1525.04 Q1066.05 1524.76 1064.65 1524.76 Q1059.68 1524.76 1057.01 1528 Q1054.37 1531.22 1054.37 1537.27 L1054.37 1556.04 L1048.48 1556.04 L1048.48 1520.4 L1054.37 1520.4 L1054.37 1525.93 Q1056.22 1522.69 1059.18 1521.13 Q1062.14 1519.54 1066.37 1519.54 Q1066.97 1519.54 1067.71 1519.63 Q1068.44 1519.7 1069.33 1519.85 L1069.36 1525.87 Z" fill="#000000" fill-rule="evenodd" fill-opacity="1" /><path clip-path="url(#clip420)" d="M 0 0 M1091.7 1538.12 Q1084.61 1538.12 1081.87 1539.75 Q1079.13 1541.37 1079.13 1545.29 Q1079.13 1548.4 1081.17 1550.25 Q1083.24 1552.07 1086.77 1552.07 Q1091.64 1552.07 1094.57 1548.63 Q1097.53 1545.16 1097.53 1539.43 L1097.53 1538.12 L1091.7 1538.12 M1103.39 1535.71 L1103.39 1556.04 L1097.53 1556.04 L1097.53 1550.63 Q1095.52 1553.88 1092.53 1555.44 Q1089.54 1556.97 1085.21 1556.97 Q1079.74 1556.97 1076.49 1553.91 Q1073.28 1550.82 1073.28 1545.67 Q1073.28 1539.65 1077.29 1536.6 Q1081.33 1533.54 1089.32 1533.54 L1097.53 1533.54 L1097.53 1532.97 Q1097.53 1528.93 1094.86 1526.73 Q1092.21 1524.5 1087.41 1524.5 Q1084.35 1524.5 1081.46 1525.23 Q1078.56 1525.97 1075.89 1527.43 L1075.89 1522.02 Q1079.1 1520.78 1082.12 1520.17 Q1085.15 1519.54 1088.01 1519.54 Q1095.75 1519.54 1099.57 1523.55 Q1103.39 1527.56 1103.39 1535.71 Z" fill="#000000" fill-rule="evenodd" fill-opacity="1" /><path clip-path="url(#clip420)" d="M 0 0 M1109.53 1520.4 L1115.38 1520.4 L1115.38 1556.04 L1109.53 1556.04 L1109.53 1520.4 M1109.53 1506.52 L1115.38 1506.52 L1115.38 1513.93 L1109.53 1513.93 L1109.53 1506.52 Z" fill="#000000" fill-rule="evenodd" fill-opacity="1" /><path clip-path="url(#clip420)" d="M 0 0 M1151.16 1534.53 L1151.16 1556.04 L1145.3 1556.04 L1145.3 1534.72 Q1145.3 1529.66 1143.33 1527.14 Q1141.36 1524.63 1137.41 1524.63 Q1132.67 1524.63 1129.93 1527.65 Q1127.19 1530.68 1127.19 1535.9 L1127.19 1556.04 L1121.3 1556.04 L1121.3 1520.4 L1127.19 1520.4 L1127.19 1525.93 Q1129.29 1522.72 1132.13 1521.13 Q1134.99 1519.54 1138.71 1519.54 Q1144.86 1519.54 1148.01 1523.36 Q1151.16 1527.14 1151.16 1534.53 Z" fill="#000000" fill-rule="evenodd" fill-opacity="1" /><path clip-path="url(#clip420)" d="M 0 0 M1191.84 1524.5 Q1187.13 1524.5 1184.39 1528.19 Q1181.65 1531.85 1181.65 1538.25 Q1181.65 1544.65 1184.36 1548.34 Q1187.09 1552 1191.84 1552 Q1196.52 1552 1199.25 1548.31 Q1201.99 1544.62 1201.99 1538.25 Q1201.99 1531.92 1199.25 1528.23 Q1196.52 1524.5 1191.84 1524.5 M1191.84 1519.54 Q1199.48 1519.54 1203.84 1524.5 Q1208.2 1529.47 1208.2 1538.25 Q1208.2 1547 1203.84 1552 Q1199.48 1556.97 1191.84 1556.97 Q1184.17 1556.97 1179.81 1552 Q1175.48 1547 1175.48 1538.25 Q1175.48 1529.47 1179.81 1524.5 Q1184.17 1519.54 1191.84 1519.54 Z" fill="#000000" fill-rule="evenodd" fill-opacity="1" /><path clip-path="url(#clip420)" d="M 0 0 M1235 1525.87 Q1234.01 1525.3 1232.83 1525.04 Q1231.69 1524.76 1230.29 1524.76 Q1225.32 1524.76 1222.65 1528 Q1220.01 1531.22 1220.01 1537.27 L1220.01 1556.04 L1214.12 1556.04 L1214.12 1520.4 L1220.01 1520.4 L1220.01 1525.93 Q1221.85 1522.69 1224.81 1521.13 Q1227.77 1519.54 1232 1519.54 Q1232.61 1519.54 1233.34 1519.63 Q1234.07 1519.7 1234.96 1519.85 L1235 1525.87 Z" fill="#000000" fill-rule="evenodd" fill-opacity="1" /><path clip-path="url(#clip420)" d="M 0 0 M1265.36 1538.25 Q1265.36 1544.71 1268 1548.4 Q1270.68 1552.07 1275.32 1552.07 Q1279.97 1552.07 1282.64 1548.4 Q1285.32 1544.71 1285.32 1538.25 Q1285.32 1531.79 1282.64 1528.13 Q1279.97 1524.44 1275.32 1524.44 Q1270.68 1524.44 1268 1528.13 Q1265.36 1531.79 1265.36 1538.25 M1285.32 1550.7 Q1283.47 1553.88 1280.64 1555.44 Q1277.84 1556.97 1273.89 1556.97 Q1267.43 1556.97 1263.36 1551.81 Q1259.31 1546.65 1259.31 1538.25 Q1259.31 1529.85 1263.36 1524.69 Q1267.43 1519.54 1273.89 1519.54 Q1277.84 1519.54 1280.64 1521.1 Q1283.47 1522.62 1285.32 1525.81 L1285.32 1520.4 L1291.17 1520.4 L1291.17 1569.6 L1285.32 1569.6 L1285.32 1550.7 Z" fill="#000000" fill-rule="evenodd" fill-opacity="1" /><path clip-path="url(#clip420)" d="M 0 0 M1324.4 1566.87 L1324.4 1571.42 L1290.54 1571.42 L1290.54 1566.87 L1324.4 1566.87 Z" fill="#000000" fill-rule="evenodd" fill-opacity="1" /><path clip-path="url(#clip420)" d="M 0 0 M1353.27 1521.45 L1353.27 1526.98 Q1350.79 1525.71 1348.11 1525.07 Q1345.44 1524.44 1342.58 1524.44 Q1338.22 1524.44 1336.02 1525.77 Q1333.86 1527.11 1333.86 1529.79 Q1333.86 1531.82 1335.42 1533 Q1336.97 1534.15 1341.69 1535.2 L1343.69 1535.64 Q1349.93 1536.98 1352.54 1539.43 Q1355.18 1541.85 1355.18 1546.21 Q1355.18 1551.17 1351.23 1554.07 Q1347.32 1556.97 1340.44 1556.97 Q1337.58 1556.97 1334.46 1556.39 Q1331.37 1555.85 1327.94 1554.74 L1327.94 1548.69 Q1331.18 1550.38 1334.33 1551.24 Q1337.48 1552.07 1340.57 1552.07 Q1344.71 1552.07 1346.94 1550.66 Q1349.17 1549.23 1349.17 1546.65 Q1349.17 1544.27 1347.54 1542.99 Q1345.95 1541.72 1340.51 1540.54 L1338.47 1540.07 Q1333.03 1538.92 1330.61 1536.56 Q1328.19 1534.18 1328.19 1530.04 Q1328.19 1525.01 1331.75 1522.27 Q1335.32 1519.54 1341.88 1519.54 Q1345.12 1519.54 1347.99 1520.01 Q1350.85 1520.49 1353.27 1521.45 Z" fill="#000000" fill-rule="evenodd" fill-opacity="1" /><path clip-path="url(#clip420)" d="M 0 0 M1390.96 1534.53 L1390.96 1556.04 L1385.1 1556.04 L1385.1 1534.72 Q1385.1 1529.66 1383.13 1527.14 Q1381.15 1524.63 1377.21 1524.63 Q1372.46 1524.63 1369.73 1527.65 Q1366.99 1530.68 1366.99 1535.9 L1366.99 1556.04 L1361.1 1556.04 L1361.1 1520.4 L1366.99 1520.4 L1366.99 1525.93 Q1369.09 1522.72 1371.92 1521.13 Q1374.79 1519.54 1378.51 1519.54 Q1384.65 1519.54 1387.81 1523.36 Q1390.96 1527.14 1390.96 1534.53 Z" fill="#000000" fill-rule="evenodd" fill-opacity="1" /><path clip-path="url(#clip420)" d="M 0 0 M1410.91 1524.5 Q1406.2 1524.5 1403.46 1528.19 Q1400.73 1531.85 1400.73 1538.25 Q1400.73 1544.65 1403.43 1548.34 Q1406.17 1552 1410.91 1552 Q1415.59 1552 1418.33 1548.31 Q1421.07 1544.62 1421.07 1538.25 Q1421.07 1531.92 1418.33 1528.23 Q1415.59 1524.5 1410.91 1524.5 M1410.91 1519.54 Q1418.55 1519.54 1422.91 1524.5 Q1427.27 1529.47 1427.27 1538.25 Q1427.27 1547 1422.91 1552 Q1418.55 1556.97 1410.91 1556.97 Q1403.24 1556.97 1398.88 1552 Q1394.55 1547 1394.55 1538.25 Q1394.55 1529.47 1398.88 1524.5 Q1403.24 1519.54 1410.91 1519.54 Z" fill="#000000" fill-rule="evenodd" fill-opacity="1" /><path clip-path="url(#clip420)" d="M 0 0 M1430.01 1520.4 L1435.87 1520.4 L1443.19 1548.21 L1450.48 1520.4 L1457.38 1520.4 L1464.7 1548.21 L1471.99 1520.4 L1477.85 1520.4 L1468.52 1556.04 L1461.62 1556.04 L1453.94 1526.83 L1446.24 1556.04 L1439.34 1556.04 L1430.01 1520.4 Z" fill="#000000" fill-rule="evenodd" fill-opacity="1" /><path clip-path="url(#clip420)" d="M 0 0 M1504.17 1506.52 L1517.67 1506.52 L1517.67 1511.07 L1510.03 1511.07 L1510.03 1560.09 L1517.67 1560.09 L1517.67 1564.64 L1504.17 1564.64 L1504.17 1506.52 Z" fill="#000000" fill-rule="evenodd" fill-opacity="1" /><path clip-path="url(#clip420)" d="M 0 0 M1547.27 1537.81 Q1547.27 1531.44 1544.62 1527.94 Q1542.01 1524.44 1537.27 1524.44 Q1532.56 1524.44 1529.92 1527.94 Q1527.31 1531.44 1527.31 1537.81 Q1527.31 1544.14 1529.92 1547.64 Q1532.56 1551.14 1537.27 1551.14 Q1542.01 1551.14 1544.62 1547.64 Q1547.27 1544.14 1547.27 1537.81 M1553.12 1551.62 Q1553.12 1560.72 1549.08 1565.15 Q1545.04 1569.6 1536.7 1569.6 Q1533.61 1569.6 1530.87 1569.13 Q1528.14 1568.68 1525.56 1567.72 L1525.56 1562.03 Q1528.14 1563.43 1530.65 1564.1 Q1533.17 1564.76 1535.78 1564.76 Q1541.54 1564.76 1544.4 1561.74 Q1547.27 1558.75 1547.27 1552.67 L1547.27 1549.77 Q1545.45 1552.92 1542.62 1554.48 Q1539.79 1556.04 1535.84 1556.04 Q1529.28 1556.04 1525.27 1551.05 Q1521.26 1546.05 1521.26 1537.81 Q1521.26 1529.53 1525.27 1524.53 Q1529.28 1519.54 1535.84 1519.54 Q1539.79 1519.54 1542.62 1521.1 Q1545.45 1522.66 1547.27 1525.81 L1547.27 1520.4 L1553.12 1520.4 L1553.12 1551.62 Z" fill="#000000" fill-rule="evenodd" fill-opacity="1" /><path clip-path="url(#clip420)" d="M 0 0 M1569.67 1508.52 L1575.08 1508.52 L1558.53 1562.09 L1553.12 1562.09 L1569.67 1508.52 Z" fill="#000000" fill-rule="evenodd" fill-opacity="1" /><path clip-path="url(#clip420)" d="M 0 0 M1581 1506.52 L1586.89 1506.52 L1586.89 1535.77 L1604.37 1520.4 L1611.85 1520.4 L1592.94 1537.07 L1612.64 1556.04 L1605 1556.04 L1586.89 1538.63 L1586.89 1556.04 L1581 1556.04 L1581 1506.52 Z" fill="#000000" fill-rule="evenodd" fill-opacity="1" /><path clip-path="url(#clip420)" d="M 0 0 M1642.24 1537.81 Q1642.24 1531.44 1639.6 1527.94 Q1636.99 1524.44 1632.25 1524.44 Q1627.54 1524.44 1624.9 1527.94 Q1622.29 1531.44 1622.29 1537.81 Q1622.29 1544.14 1624.9 1547.64 Q1627.54 1551.14 1632.25 1551.14 Q1636.99 1551.14 1639.6 1547.64 Q1642.24 1544.14 1642.24 1537.81 M1648.1 1551.62 Q1648.1 1560.72 1644.06 1565.15 Q1640.01 1569.6 1631.68 1569.6 Q1628.59 1569.6 1625.85 1569.13 Q1623.11 1568.68 1620.54 1567.72 L1620.54 1562.03 Q1623.11 1563.43 1625.63 1564.1 Q1628.14 1564.76 1630.75 1564.76 Q1636.51 1564.76 1639.38 1561.74 Q1642.24 1558.75 1642.24 1552.67 L1642.24 1549.77 Q1640.43 1552.92 1637.6 1554.48 Q1634.76 1556.04 1630.82 1556.04 Q1624.26 1556.04 1620.25 1551.05 Q1616.24 1546.05 1616.24 1537.81 Q1616.24 1529.53 1620.25 1524.53 Q1624.26 1519.54 1630.82 1519.54 Q1634.76 1519.54 1637.6 1521.1 Q1640.43 1522.66 1642.24 1525.81 L1642.24 1520.4 L1648.1 1520.4 L1648.1 1551.62 Z" fill="#000000" fill-rule="evenodd" fill-opacity="1" /><path clip-path="url(#clip420)" d="M 0 0 M1667.93 1506.52 L1667.93 1564.64 L1654.43 1564.64 L1654.43 1560.09 L1662.04 1560.09 L1662.04 1511.07 L1654.43 1511.07 L1654.43 1506.52 L1667.93 1506.52 Z" fill="#000000" fill-rule="evenodd" fill-opacity="1" /><path clip-path="url(#clip420)" d="M 0 0 M70.0847 1126.77 Q70.0847 1133.86 71.7079 1136.6 Q73.3312 1139.34 77.2461 1139.34 Q80.3653 1139.34 82.2114 1137.3 Q84.0256 1135.23 84.0256 1131.7 Q84.0256 1126.83 80.5881 1123.9 Q77.1188 1120.94 71.3897 1120.94 L70.0847 1120.94 L70.0847 1126.77 M67.6657 1115.09 L88.0042 1115.09 L88.0042 1120.94 L82.5933 1120.94 Q85.8398 1122.95 87.3994 1125.94 Q88.9272 1128.93 88.9272 1133.26 Q88.9272 1138.73 85.8716 1141.98 Q82.7843 1145.2 77.6281 1145.2 Q71.6125 1145.2 68.5569 1141.18 Q65.5014 1137.14 65.5014 1129.15 L65.5014 1120.94 L64.9285 1120.94 Q60.8862 1120.94 58.6901 1123.62 Q56.4621 1126.26 56.4621 1131.06 Q56.4621 1134.12 57.1941 1137.02 Q57.9262 1139.91 59.3903 1142.59 L53.9795 1142.59 Q52.7381 1139.37 52.1334 1136.35 Q51.4968 1133.32 51.4968 1130.46 Q51.4968 1122.72 55.5072 1118.9 Q59.5176 1115.09 67.6657 1115.09 Z" fill="#000000" fill-rule="evenodd" fill-opacity="1" /><path clip-path="url(#clip420)" d="M 0 0 M53.7248 1083.29 L59.1993 1083.29 Q57.8307 1085.77 57.1623 1088.29 Q56.4621 1090.77 56.4621 1093.31 Q56.4621 1099.01 60.0905 1102.16 Q63.6872 1105.31 70.212 1105.31 Q76.7369 1105.31 80.3653 1102.16 Q83.9619 1099.01 83.9619 1093.31 Q83.9619 1090.77 83.2935 1088.29 Q82.5933 1085.77 81.2247 1083.29 L86.6355 1083.29 Q87.7814 1085.74 88.3543 1088.38 Q88.9272 1090.99 88.9272 1093.95 Q88.9272 1102 83.8664 1106.75 Q78.8057 1111.49 70.212 1111.49 Q61.491 1111.49 56.4939 1106.71 Q51.4968 1101.91 51.4968 1093.57 Q51.4968 1090.86 52.0697 1088.29 Q52.6108 1085.71 53.7248 1083.29 Z" fill="#000000" fill-rule="evenodd" fill-opacity="1" /><path clip-path="url(#clip420)" d="M 0 0 M53.7248 1051.49 L59.1993 1051.49 Q57.8307 1053.97 57.1623 1056.49 Q56.4621 1058.97 56.4621 1061.52 Q56.4621 1067.22 60.0905 1070.37 Q63.6872 1073.52 70.212 1073.52 Q76.7369 1073.52 80.3653 1070.37 Q83.9619 1067.22 83.9619 1061.52 Q83.9619 1058.97 83.2935 1056.49 Q82.5933 1053.97 81.2247 1051.49 L86.6355 1051.49 Q87.7814 1053.94 88.3543 1056.58 Q88.9272 1059.19 88.9272 1062.15 Q88.9272 1070.21 83.8664 1074.95 Q78.8057 1079.69 70.212 1079.69 Q61.491 1079.69 56.4939 1074.92 Q51.4968 1070.11 51.4968 1061.77 Q51.4968 1059.07 52.0697 1056.49 Q52.6108 1053.91 53.7248 1051.49 Z" fill="#000000" fill-rule="evenodd" fill-opacity="1" /><path clip-path="url(#clip420)" d="M 0 0 M57.8307 1024.69 Q57.2578 1025.68 57.0032 1026.86 Q56.7167 1028 56.7167 1029.4 Q56.7167 1034.37 59.9632 1037.04 Q63.1779 1039.68 69.2253 1039.68 L88.0042 1039.68 L88.0042 1045.57 L52.3562 1045.57 L52.3562 1039.68 L57.8944 1039.68 Q54.6479 1037.84 53.0883 1034.88 Q51.4968 1031.92 51.4968 1027.68 Q51.4968 1027.08 51.5923 1026.35 Q51.656 1025.62 51.8151 1024.72 L57.8307 1024.69 Z" fill="#000000" fill-rule="evenodd" fill-opacity="1" /><path clip-path="url(#clip420)" d="M 0 0 M68.7161 989.49 L71.5806 989.49 L71.5806 1016.42 Q77.6281 1016.04 80.8109 1012.79 Q83.9619 1009.51 83.9619 1003.69 Q83.9619 1000.31 83.1344 997.161 Q82.3069 993.978 80.6518 990.859 L86.1899 990.859 Q87.5267 994.01 88.227 997.32 Q88.9272 1000.63 88.9272 1004.04 Q88.9272 1012.57 83.9619 1017.56 Q78.9967 1022.53 70.5303 1022.53 Q61.7774 1022.53 56.6531 1017.82 Q51.4968 1013.08 51.4968 1005.05 Q51.4968 997.861 56.1438 993.691 Q60.7589 989.49 68.7161 989.49 M66.9973 995.347 Q62.1912 995.41 59.3266 998.052 Q56.4621 1000.66 56.4621 1004.99 Q56.4621 1009.89 59.2312 1012.85 Q62.0002 1015.78 67.0292 1016.23 L66.9973 995.347 Z" fill="#000000" fill-rule="evenodd" fill-opacity="1" /><path clip-path="url(#clip420)" d="M 0 0 M42.2347 977.554 L52.3562 977.554 L52.3562 965.491 L56.9077 965.491 L56.9077 977.554 L76.2594 977.554 Q80.6199 977.554 81.8613 976.377 Q83.1026 975.167 83.1026 971.507 L83.1026 965.491 L88.0042 965.491 L88.0042 971.507 Q88.0042 978.286 85.4897 980.865 Q82.9434 983.443 76.2594 983.443 L56.9077 983.443 L56.9077 987.74 L52.3562 987.74 L52.3562 983.443 L42.2347 983.443 L42.2347 977.554 Z" fill="#000000" fill-rule="evenodd" fill-opacity="1" /><path clip-path="url(#clip420)" d="M 0 0 M52.3562 959.348 L52.3562 953.492 L88.0042 953.492 L88.0042 959.348 L52.3562 959.348 M38.479 959.348 L38.479 953.492 L45.895 953.492 L45.895 959.348 L38.479 959.348 Z" fill="#000000" fill-rule="evenodd" fill-opacity="1" /><path clip-path="url(#clip420)" d="M 0 0 M56.4621 933.536 Q56.4621 938.246 60.1542 940.983 Q63.8145 943.721 70.212 943.721 Q76.6095 943.721 80.3017 941.015 Q83.9619 938.278 83.9619 933.536 Q83.9619 928.857 80.2698 926.12 Q76.5777 923.382 70.212 923.382 Q63.8781 923.382 60.186 926.12 Q56.4621 928.857 56.4621 933.536 M51.4968 933.536 Q51.4968 925.897 56.4621 921.536 Q61.4273 917.176 70.212 917.176 Q78.9649 917.176 83.9619 921.536 Q88.9272 925.897 88.9272 933.536 Q88.9272 941.206 83.9619 945.567 Q78.9649 949.895 70.212 949.895 Q61.4273 949.895 56.4621 945.567 Q51.4968 941.206 51.4968 933.536 Z" fill="#000000" fill-rule="evenodd" fill-opacity="1" /><path clip-path="url(#clip420)" d="M 0 0 M66.4881 881.4 L88.0042 881.4 L88.0042 887.257 L66.679 887.257 Q61.6183 887.257 59.1038 889.23 Q56.5894 891.204 56.5894 895.15 Q56.5894 899.893 59.6131 902.63 Q62.6368 905.367 67.8567 905.367 L88.0042 905.367 L88.0042 911.256 L52.3562 911.256 L52.3562 905.367 L57.8944 905.367 Q54.6797 903.267 53.0883 900.434 Q51.4968 897.569 51.4968 893.845 Q51.4968 887.702 55.3163 884.551 Q59.1038 881.4 66.4881 881.4 Z" fill="#000000" fill-rule="evenodd" fill-opacity="1" /><path clip-path="url(#clip420)" d="M 0 0 M57.8307 833.88 Q57.2578 834.867 57.0032 836.045 Q56.7167 837.191 56.7167 838.591 Q56.7167 843.556 59.9632 846.23 Q63.1779 848.872 69.2253 848.872 L88.0042 848.872 L88.0042 854.76 L52.3562 854.76 L52.3562 848.872 L57.8944 848.872 Q54.6479 847.026 53.0883 844.066 Q51.4968 841.105 51.4968 836.872 Q51.4968 836.268 51.5923 835.536 Q51.656 834.803 51.8151 833.912 L57.8307 833.88 Z" fill="#000000" fill-rule="evenodd" fill-opacity="1" /><path clip-path="url(#clip420)" d="M 0 0 M70.0847 811.537 Q70.0847 818.635 71.7079 821.372 Q73.3312 824.109 77.2461 824.109 Q80.3653 824.109 82.2114 822.072 Q84.0256 820.003 84.0256 816.47 Q84.0256 811.6 80.5881 808.672 Q77.1188 805.712 71.3897 805.712 L70.0847 805.712 L70.0847 811.537 M67.6657 799.856 L88.0042 799.856 L88.0042 805.712 L82.5933 805.712 Q85.8398 807.717 87.3994 810.709 Q88.9272 813.701 88.9272 818.03 Q88.9272 823.504 85.8716 826.751 Q82.7843 829.966 77.6281 829.966 Q71.6125 829.966 68.5569 825.955 Q65.5014 821.913 65.5014 813.924 L65.5014 805.712 L64.9285 805.712 Q60.8862 805.712 58.6901 808.386 Q56.4621 811.028 56.4621 815.834 Q56.4621 818.889 57.1941 821.786 Q57.9262 824.682 59.3903 827.356 L53.9795 827.356 Q52.7381 824.141 52.1334 821.117 Q51.4968 818.093 51.4968 815.229 Q51.4968 807.495 55.5072 803.675 Q59.5176 799.856 67.6657 799.856 Z" fill="#000000" fill-rule="evenodd" fill-opacity="1" /><path clip-path="url(#clip420)" d="M 0 0 M52.3562 793.713 L52.3562 787.856 L88.0042 787.856 L88.0042 793.713 L52.3562 793.713 M38.479 793.713 L38.479 787.856 L45.895 787.856 L45.895 793.713 L38.479 793.713 Z" fill="#000000" fill-rule="evenodd" fill-opacity="1" /><path clip-path="url(#clip420)" d="M 0 0 M66.4881 752.081 L88.0042 752.081 L88.0042 757.938 L66.679 757.938 Q61.6183 757.938 59.1038 759.911 Q56.5894 761.884 56.5894 765.831 Q56.5894 770.573 59.6131 773.311 Q62.6368 776.048 67.8567 776.048 L88.0042 776.048 L88.0042 781.936 L52.3562 781.936 L52.3562 776.048 L57.8944 776.048 Q54.6797 773.947 53.0883 771.115 Q51.4968 768.25 51.4968 764.526 Q51.4968 758.383 55.3163 755.232 Q59.1038 752.081 66.4881 752.081 Z" fill="#000000" fill-rule="evenodd" fill-opacity="1" /><path clip-path="url(#clip420)" d="M 0 0 M53.4065 702.492 L58.9447 702.492 Q57.6716 704.975 57.035 707.648 Q56.3984 710.322 56.3984 713.187 Q56.3984 717.547 57.7352 719.743 Q59.072 721.908 61.7456 721.908 Q63.7826 721.908 64.9603 720.348 Q66.1061 718.788 67.1565 714.078 L67.6021 712.073 Q68.9389 705.834 71.3897 703.224 Q73.8086 700.583 78.1691 700.583 Q83.1344 700.583 86.0308 704.529 Q88.9272 708.444 88.9272 715.319 Q88.9272 718.184 88.3543 721.303 Q87.8132 724.39 86.6992 727.828 L80.6518 727.828 Q82.3387 724.581 83.198 721.43 Q84.0256 718.279 84.0256 715.192 Q84.0256 711.054 82.6251 708.826 Q81.1929 706.598 78.6147 706.598 Q76.2276 706.598 74.9545 708.221 Q73.6813 709.813 72.5037 715.255 L72.0262 717.293 Q70.8804 722.735 68.5251 725.154 Q66.138 727.573 62.0002 727.573 Q56.9713 727.573 54.2341 724.008 Q51.4968 720.444 51.4968 713.887 Q51.4968 710.64 51.9743 707.776 Q52.4517 704.911 53.4065 702.492 Z" fill="#000000" fill-rule="evenodd" fill-opacity="1" /><path clip-path="url(#clip420)" d="M 0 0 M52.3562 694.44 L52.3562 688.583 L88.0042 688.583 L88.0042 694.44 L52.3562 694.44 M38.479 694.44 L38.479 688.583 L45.895 688.583 L45.895 694.44 L38.479 694.44 Z" fill="#000000" fill-rule="evenodd" fill-opacity="1" /><path clip-path="url(#clip420)" d="M 0 0 M66.4881 652.808 L88.0042 652.808 L88.0042 658.664 L66.679 658.664 Q61.6183 658.664 59.1038 660.638 Q56.5894 662.611 56.5894 666.558 Q56.5894 671.3 59.6131 674.038 Q62.6368 676.775 67.8567 676.775 L88.0042 676.775 L88.0042 682.663 L52.3562 682.663 L52.3562 676.775 L57.8944 676.775 Q54.6797 674.674 53.0883 671.841 Q51.4968 668.977 51.4968 665.253 Q51.4968 659.11 55.3163 655.959 Q59.1038 652.808 66.4881 652.808 Z" fill="#000000" fill-rule="evenodd" fill-opacity="1" /><path clip-path="url(#clip420)" d="M 0 0 M38.479 646.888 L38.479 641 L67.7294 641 L52.3562 623.526 L52.3562 616.046 L69.0344 634.952 L88.0042 615.25 L88.0042 622.889 L70.5939 641 L88.0042 641 L88.0042 646.888 L38.479 646.888 Z" fill="#000000" fill-rule="evenodd" fill-opacity="1" /><path clip-path="url(#clip420)" d="M 0 0 M57.8307 567.73 Q57.2578 568.717 57.0032 569.895 Q56.7167 571.04 56.7167 572.441 Q56.7167 577.406 59.9632 580.08 Q63.1779 582.721 69.2253 582.721 L88.0042 582.721 L88.0042 588.61 L52.3562 588.61 L52.3562 582.721 L57.8944 582.721 Q54.6479 580.875 53.0883 577.915 Q51.4968 574.955 51.4968 570.722 Q51.4968 570.117 51.5923 569.385 Q51.656 568.653 51.8151 567.762 L57.8307 567.73 Z" fill="#000000" fill-rule="evenodd" fill-opacity="1" /><path clip-path="url(#clip420)" d="M 0 0 M70.0847 545.387 Q70.0847 552.484 71.7079 555.222 Q73.3312 557.959 77.2461 557.959 Q80.3653 557.959 82.2114 555.922 Q84.0256 553.853 84.0256 550.32 Q84.0256 545.45 80.5881 542.522 Q77.1188 539.562 71.3897 539.562 L70.0847 539.562 L70.0847 545.387 M67.6657 533.706 L88.0042 533.706 L88.0042 539.562 L82.5933 539.562 Q85.8398 541.567 87.3994 544.559 Q88.9272 547.551 88.9272 551.88 Q88.9272 557.354 85.8716 560.601 Q82.7843 563.815 77.6281 563.815 Q71.6125 563.815 68.5569 559.805 Q65.5014 555.763 65.5014 547.774 L65.5014 539.562 L64.9285 539.562 Q60.8862 539.562 58.6901 542.236 Q56.4621 544.877 56.4621 549.683 Q56.4621 552.739 57.1941 555.635 Q57.9262 558.532 59.3903 561.205 L53.9795 561.205 Q52.7381 557.991 52.1334 554.967 Q51.4968 551.943 51.4968 549.079 Q51.4968 541.344 55.5072 537.525 Q59.5176 533.706 67.6657 533.706 Z" fill="#000000" fill-rule="evenodd" fill-opacity="1" /><path clip-path="url(#clip420)" d="M 0 0 M42.2347 521.77 L52.3562 521.77 L52.3562 509.707 L56.9077 509.707 L56.9077 521.77 L76.2594 521.77 Q80.6199 521.77 81.8613 520.592 Q83.1026 519.383 83.1026 515.722 L83.1026 509.707 L88.0042 509.707 L88.0042 515.722 Q88.0042 522.502 85.4897 525.08 Q82.9434 527.658 76.2594 527.658 L56.9077 527.658 L56.9077 531.955 L52.3562 531.955 L52.3562 527.658 L42.2347 527.658 L42.2347 521.77 Z" fill="#000000" fill-rule="evenodd" fill-opacity="1" /><path clip-path="url(#clip420)" d="M 0 0 M68.7161 473.072 L71.5806 473.072 L71.5806 499.999 Q77.6281 499.617 80.8109 496.371 Q83.9619 493.092 83.9619 487.268 Q83.9619 483.894 83.1344 480.743 Q82.3069 477.56 80.6518 474.441 L86.1899 474.441 Q87.5267 477.592 88.227 480.902 Q88.9272 484.212 88.9272 487.618 Q88.9272 496.148 83.9619 501.145 Q78.9967 506.11 70.5303 506.11 Q61.7774 506.11 56.6531 501.4 Q51.4968 496.657 51.4968 488.636 Q51.4968 481.443 56.1438 477.274 Q60.7589 473.072 68.7161 473.072 M66.9973 478.929 Q62.1912 478.992 59.3266 481.634 Q56.4621 484.244 56.4621 488.573 Q56.4621 493.474 59.2312 496.434 Q62.0002 499.363 67.0292 499.808 L66.9973 478.929 Z" fill="#000000" fill-rule="evenodd" fill-opacity="1" /><path clip-path="url(#clip420)" d="M 0 0 M38.479 446.75 L38.479 433.255 L43.0304 433.255 L43.0304 440.894 L92.0464 440.894 L92.0464 433.255 L96.5979 433.255 L96.5979 446.75 L38.479 446.75 Z" fill="#000000" fill-rule="evenodd" fill-opacity="1" /><path clip-path="url(#clip420)" d="M 0 0 M82.5933 425.17 L82.5933 414.667 L46.3406 414.667 L48.6323 426.093 L42.7758 426.093 L40.4842 414.73 L40.4842 408.301 L82.5933 408.301 L82.5933 397.798 L88.0042 397.798 L88.0042 425.17 L82.5933 425.17 Z" fill="#000000" fill-rule="evenodd" fill-opacity="1" /><path clip-path="url(#clip420)" d="M 0 0 M40.4842 381.247 L40.4842 375.836 L94.0516 392.387 L94.0516 397.798 L40.4842 381.247 Z" fill="#000000" fill-rule="evenodd" fill-opacity="1" /><path clip-path="url(#clip420)" d="M 0 0 M53.4065 346.968 L58.9447 346.968 Q57.6716 349.45 57.035 352.124 Q56.3984 354.797 56.3984 357.662 Q56.3984 362.022 57.7352 364.219 Q59.072 366.383 61.7456 366.383 Q63.7826 366.383 64.9603 364.823 Q66.1061 363.264 67.1565 358.553 L67.6021 356.548 Q68.9389 350.31 71.3897 347.7 Q73.8086 345.058 78.1691 345.058 Q83.1344 345.058 86.0308 349.005 Q88.9272 352.919 88.9272 359.794 Q88.9272 362.659 88.3543 365.778 Q87.8132 368.866 86.6992 372.303 L80.6518 372.303 Q82.3387 369.057 83.198 365.905 Q84.0256 362.754 84.0256 359.667 Q84.0256 355.529 82.6251 353.301 Q81.1929 351.073 78.6147 351.073 Q76.2276 351.073 74.9545 352.697 Q73.6813 354.288 72.5037 359.731 L72.0262 361.768 Q70.8804 367.21 68.5251 369.629 Q66.138 372.048 62.0002 372.048 Q56.9713 372.048 54.2341 368.484 Q51.4968 364.919 51.4968 358.362 Q51.4968 355.116 51.9743 352.251 Q52.4517 349.386 53.4065 346.968 Z" fill="#000000" fill-rule="evenodd" fill-opacity="1" /><path clip-path="url(#clip420)" d="M 0 0 M38.479 325.229 L96.5979 325.229 L96.5979 338.724 L92.0464 338.724 L92.0464 331.117 L43.0304 331.117 L43.0304 338.724 L38.479 338.724 L38.479 325.229 Z" fill="#000000" fill-rule="evenodd" fill-opacity="1" /><polyline clip-path="url(#clip422)" style="stroke:#009af9; stroke-width:12; stroke-opacity:1; fill:none" points="
  350.949,1384.24 370.58,1384 390.211,1383.51 409.843,1382.84 429.474,1382.01 449.105,1381.03 468.737,1379.92 488.368,1378.7 507.999,1377.35 527.631,1375.9 
  547.262,1374.34 566.893,1372.69 586.525,1370.93 606.156,1369.08 625.787,1367.14 645.419,1365.12 665.05,1363 684.681,1360.8 704.313,1358.52 723.944,1356.16 
  743.575,1353.72 763.207,1351.2 782.838,1348.61 802.469,1345.94 822.101,1343.2 841.732,1340.38 861.363,1337.49 880.995,1334.54 900.626,1331.51 920.257,1328.42 
  939.889,1325.26 959.52,1322.03 979.151,1318.74 998.783,1315.38 1018.41,1311.95 1038.05,1308.47 1057.68,1304.92 1077.31,1301.31 1096.94,1297.63 1116.57,1293.9 
  1136.2,1290.11 1155.83,1286.25 1175.46,1282.34 1195.1,1278.37 1214.73,1274.34 1234.36,1270.25 1253.99,1266.11 1273.62,1261.9 1293.25,1257.65 1312.88,1253.33 
  1332.52,1248.96 1352.15,1244.54 1371.78,1240.06 1391.41,1235.53 1411.04,1230.94 1430.67,1226.3 1450.3,1221.61 1469.93,1216.87 1489.57,1212.07 1509.2,1207.22 
  1528.83,1202.32 1548.46,1197.37 1568.09,1192.36 1587.72,1187.31 1607.35,1182.2 1626.99,1177.05 1646.62,1171.84 1666.25,1166.59 1685.88,1161.29 1705.51,1155.93 
  1725.14,1150.53 1744.77,1145.08 1764.4,1139.59 1784.04,1134.04 1803.67,1128.45 1823.3,1122.81 1842.93,1117.12 1862.56,1111.38 1882.19,1105.6 1901.82,1099.77 
  1921.46,1093.9 1941.09,1087.98 1960.72,1082.01 1980.35,1076 1999.98,1069.94 2019.61,1063.84 2039.24,1057.69 2058.87,1051.5 2078.51,1045.26 2098.14,1038.98 
  2117.77,1032.65 2137.4,1026.28 2157.03,1019.87 2176.66,1013.41 2196.29,1006.91 2215.93,1000.37 2235.56,993.779 2255.19,987.148 2274.82,980.474 2294.45,973.758 
  
  "/>
<polyline clip-path="url(#clip422)" style="stroke:#e26f46; stroke-width:12; stroke-opacity:1; fill:none" points="
  350.949,1384.24 370.58,1383.82 390.211,1382.95 409.843,1381.75 429.474,1380.27 449.105,1378.53 468.737,1376.57 488.368,1374.38 507.999,1371.99 527.631,1369.41 
  547.262,1366.64 566.893,1363.7 586.525,1360.58 606.156,1357.29 625.787,1353.84 645.419,1350.23 665.05,1346.47 684.681,1342.56 704.313,1338.51 723.944,1334.31 
  743.575,1329.97 763.207,1325.49 782.838,1320.88 802.469,1316.13 822.101,1311.25 841.732,1306.25 861.363,1301.12 880.995,1295.86 900.626,1290.48 920.257,1284.98 
  939.889,1279.35 959.52,1273.61 979.151,1267.76 998.783,1261.78 1018.41,1255.7 1038.05,1249.5 1057.68,1243.19 1077.31,1236.76 1096.94,1230.23 1116.57,1223.59 
  1136.2,1216.85 1155.83,1209.99 1175.46,1203.03 1195.1,1195.97 1214.73,1188.81 1234.36,1181.54 1253.99,1174.17 1273.62,1166.69 1293.25,1159.12 1312.88,1151.45 
  1332.52,1143.68 1352.15,1135.82 1371.78,1127.85 1391.41,1119.79 1411.04,1111.64 1430.67,1103.39 1450.3,1095.04 1469.93,1086.6 1489.57,1078.07 1509.2,1069.45 
  1528.83,1060.73 1548.46,1051.93 1568.09,1043.03 1587.72,1034.04 1607.35,1024.96 1626.99,1015.8 1646.62,1006.54 1666.25,997.197 1685.88,987.766 1705.51,978.248 
  1725.14,968.644 1744.77,958.953 1764.4,949.176 1784.04,939.315 1803.67,929.368 1823.3,919.338 1842.93,909.223 1862.56,899.025 1882.19,888.743 1901.82,878.379 
  1921.46,867.933 1941.09,857.405 1960.72,846.795 1980.35,836.104 1999.98,825.332 2019.61,814.479 2039.24,803.547 2058.87,792.535 2078.51,781.443 2098.14,770.273 
  2117.77,759.023 2137.4,747.696 2157.03,736.29 2176.66,724.806 2196.29,713.245 2215.93,701.607 2235.56,689.892 2255.19,678.101 2274.82,666.233 2294.45,654.29 
  
  "/>
<polyline clip-path="url(#clip422)" style="stroke:#3da44d; stroke-width:12; stroke-opacity:1; fill:none" points="
  350.949,1384.24 370.58,1383.5 390.211,1381.95 409.843,1379.81 429.474,1377.18 449.105,1374.09 468.737,1370.6 488.368,1366.71 507.999,1362.47 527.631,1357.87 
  547.262,1352.95 566.893,1347.71 586.525,1342.16 606.156,1336.31 625.787,1330.18 645.419,1323.77 665.05,1317.08 684.681,1310.13 704.313,1302.92 723.944,1295.45 
  743.575,1287.73 763.207,1279.77 782.838,1271.56 802.469,1263.12 822.101,1254.45 841.732,1245.55 861.363,1236.42 880.995,1227.07 900.626,1217.51 920.257,1207.72 
  939.889,1197.72 959.52,1187.52 979.151,1177.1 998.783,1166.48 1018.41,1155.66 1038.05,1144.63 1057.68,1133.41 1077.31,1121.99 1096.94,1110.37 1116.57,1098.57 
  1136.2,1086.57 1155.83,1074.38 1175.46,1062.01 1195.1,1049.45 1214.73,1036.7 1234.36,1023.78 1253.99,1010.67 1273.62,997.386 1293.25,983.922 1312.88,970.281 
  1332.52,956.466 1352.15,942.477 1371.78,928.315 1391.41,913.982 1411.04,899.479 1430.67,884.807 1450.3,869.968 1469.93,854.962 1489.57,839.79 1509.2,824.454 
  1528.83,808.955 1548.46,793.293 1568.09,777.471 1587.72,761.487 1607.35,745.345 1626.99,729.044 1646.62,712.586 1666.25,695.971 1685.88,679.2 1705.51,662.274 
  1725.14,645.195 1744.77,627.962 1764.4,610.577 1784.04,593.04 1803.67,575.353 1823.3,557.515 1842.93,539.528 1862.56,521.393 1882.19,503.11 1901.82,484.68 
  1921.46,466.103 1941.09,447.381 1960.72,428.513 1980.35,409.502 1999.98,390.346 2019.61,371.048 2039.24,351.607 2058.87,332.024 2078.51,312.3 2098.14,292.436 
  2117.77,272.431 2137.4,252.288 2157.03,232.005 2176.66,211.584 2196.29,191.025 2215.93,170.33 2235.56,149.497 2255.19,128.529 2274.82,107.425 2294.45,86.1857 
  
  "/>
<path clip-path="url(#clip420)" d="
M1819.93 335.029 L2284.09 335.029 L2284.09 93.1086 L1819.93 93.1086  Z
  " fill="#ffffff" fill-rule="evenodd" fill-opacity="1"/>
<polyline clip-path="url(#clip420)" style="stroke:#000000; stroke-width:4; stroke-opacity:1; fill:none" points="
  1819.93,335.029 2284.09,335.029 2284.09,93.1086 1819.93,93.1086 1819.93,335.029 
  "/>
<polyline clip-path="url(#clip420)" style="stroke:#009af9; stroke-width:4; stroke-opacity:1; fill:none" points="
  1842.82,153.589 1980.16,153.589 
  "/>
<path clip-path="url(#clip420)" d="M 0 0 M2007.45 157.929 Q2007.45 162.628 2009.37 165.313 Q2011.32 167.975 2014.7 167.975 Q2018.07 167.975 2020.02 165.313 Q2021.96 162.628 2021.96 157.929 Q2021.96 153.23 2020.02 150.568 Q2018.07 147.883 2014.7 147.883 Q2011.32 147.883 2009.37 150.568 Q2007.45 153.23 2007.45 157.929 M2021.96 166.98 Q2020.62 169.295 2018.56 170.429 Q2016.52 171.54 2013.65 171.54 Q2008.95 171.54 2005.99 167.79 Q2003.05 164.04 2003.05 157.929 Q2003.05 151.818 2005.99 148.068 Q2008.95 144.318 2013.65 144.318 Q2016.52 144.318 2018.56 145.452 Q2020.62 146.563 2021.96 148.878 L2021.96 144.943 L2026.22 144.943 L2026.22 180.73 L2021.96 180.73 L2021.96 166.98 Z" fill="#000000" fill-rule="evenodd" fill-opacity="1" /><path clip-path="url(#clip420)" d="M 0 0 M2050.39 178.739 L2050.39 182.049 L2025.76 182.049 L2025.76 178.739 L2050.39 178.739 Z" fill="#000000" fill-rule="evenodd" fill-opacity="1" /><path clip-path="url(#clip420)" d="M 0 0 M2054.86 144.943 L2059.12 144.943 L2059.12 170.869 L2054.86 170.869 L2054.86 144.943 M2054.86 134.85 L2059.12 134.85 L2059.12 140.244 L2054.86 140.244 L2054.86 134.85 Z" fill="#000000" fill-rule="evenodd" fill-opacity="1" /><path clip-path="url(#clip420)" d="M 0 0 M2082.24 145.938 L2082.24 149.92 Q2080.44 148.924 2078.61 148.438 Q2076.8 147.929 2074.95 147.929 Q2070.81 147.929 2068.51 150.568 Q2066.22 153.184 2066.22 157.929 Q2066.22 162.674 2068.51 165.313 Q2070.81 167.929 2074.95 167.929 Q2076.8 167.929 2078.61 167.443 Q2080.44 166.933 2082.24 165.938 L2082.24 169.873 Q2080.46 170.707 2078.54 171.123 Q2076.64 171.54 2074.49 171.54 Q2068.63 171.54 2065.18 167.859 Q2061.73 164.179 2061.73 157.929 Q2061.73 151.586 2065.2 147.952 Q2068.7 144.318 2074.76 144.318 Q2076.73 144.318 2078.61 144.735 Q2080.48 145.128 2082.24 145.938 Z" fill="#000000" fill-rule="evenodd" fill-opacity="1" /><path clip-path="url(#clip420)" d="M 0 0 M2108.88 156.841 L2108.88 158.924 L2089.3 158.924 Q2089.58 163.322 2091.94 165.637 Q2094.32 167.929 2098.56 167.929 Q2101.01 167.929 2103.31 167.327 Q2105.62 166.725 2107.89 165.521 L2107.89 169.549 Q2105.6 170.521 2103.19 171.031 Q2100.78 171.54 2098.31 171.54 Q2092.1 171.54 2088.47 167.929 Q2084.86 164.318 2084.86 158.16 Q2084.86 151.795 2088.28 148.068 Q2091.73 144.318 2097.57 144.318 Q2102.8 144.318 2105.83 147.697 Q2108.88 151.054 2108.88 156.841 M2104.63 155.591 Q2104.58 152.096 2102.66 150.012 Q2100.76 147.929 2097.61 147.929 Q2094.05 147.929 2091.89 149.943 Q2089.76 151.957 2089.44 155.614 L2104.63 155.591 Z" fill="#000000" fill-rule="evenodd" fill-opacity="1" /><path clip-path="url(#clip420)" d="M 0 0 M2113.91 149.341 L2143.58 149.341 L2143.58 153.23 L2113.91 153.23 L2113.91 149.341 M2113.91 158.785 L2143.58 158.785 L2143.58 162.721 L2113.91 162.721 L2113.91 158.785 Z" fill="#000000" fill-rule="evenodd" fill-opacity="1" /><path clip-path="url(#clip420)" d="M 0 0 M2149.46 166.933 L2157.1 166.933 L2157.1 140.568 L2148.79 142.235 L2148.79 137.975 L2157.06 136.309 L2161.73 136.309 L2161.73 166.933 L2169.37 166.933 L2169.37 170.869 L2149.46 170.869 L2149.46 166.933 Z" fill="#000000" fill-rule="evenodd" fill-opacity="1" /><path clip-path="url(#clip420)" d="M 0 0 M2196.01 156.841 L2196.01 158.924 L2176.43 158.924 Q2176.71 163.322 2179.07 165.637 Q2181.45 167.929 2185.69 167.929 Q2188.14 167.929 2190.44 167.327 Q2192.75 166.725 2195.02 165.521 L2195.02 169.549 Q2192.73 170.521 2190.32 171.031 Q2187.91 171.54 2185.44 171.54 Q2179.23 171.54 2175.6 167.929 Q2171.99 164.318 2171.99 158.16 Q2171.99 151.795 2175.41 148.068 Q2178.86 144.318 2184.69 144.318 Q2189.93 144.318 2192.96 147.697 Q2196.01 151.054 2196.01 156.841 M2191.75 155.591 Q2191.71 152.096 2189.79 150.012 Q2187.89 147.929 2184.74 147.929 Q2181.18 147.929 2179.02 149.943 Q2176.89 151.957 2176.57 155.614 L2191.75 155.591 Z" fill="#000000" fill-rule="evenodd" fill-opacity="1" /><path clip-path="url(#clip420)" d="M 0 0 M2198.33 155.984 L2210.81 155.984 L2210.81 159.781 L2198.33 159.781 L2198.33 155.984 Z" fill="#000000" fill-rule="evenodd" fill-opacity="1" /><path clip-path="url(#clip420)" d="M 0 0 M2226.45 151.725 Q2223.31 151.725 2221.45 153.878 Q2219.62 156.031 2219.62 159.781 Q2219.62 163.508 2221.45 165.683 Q2223.31 167.836 2226.45 167.836 Q2229.6 167.836 2231.43 165.683 Q2233.28 163.508 2233.28 159.781 Q2233.28 156.031 2231.43 153.878 Q2229.6 151.725 2226.45 151.725 M2235.74 137.073 L2235.74 141.332 Q2233.98 140.498 2232.17 140.059 Q2230.39 139.619 2228.63 139.619 Q2224 139.619 2221.55 142.744 Q2219.12 145.869 2218.77 152.188 Q2220.13 150.174 2222.19 149.109 Q2224.25 148.022 2226.73 148.022 Q2231.94 148.022 2234.95 151.193 Q2237.98 154.341 2237.98 159.781 Q2237.98 165.105 2234.83 168.322 Q2231.68 171.54 2226.45 171.54 Q2220.46 171.54 2217.29 166.957 Q2214.12 162.35 2214.12 153.623 Q2214.12 145.429 2218 140.568 Q2221.89 135.684 2228.44 135.684 Q2230.2 135.684 2231.99 136.031 Q2233.79 136.378 2235.74 137.073 Z" fill="#000000" fill-rule="evenodd" fill-opacity="1" /><polyline clip-path="url(#clip420)" style="stroke:#e26f46; stroke-width:4; stroke-opacity:1; fill:none" points="
  1842.82,214.069 1980.16,214.069 
  "/>
<path clip-path="url(#clip420)" d="M 0 0 M2007.45 218.409 Q2007.45 223.108 2009.37 225.793 Q2011.32 228.455 2014.7 228.455 Q2018.07 228.455 2020.02 225.793 Q2021.96 223.108 2021.96 218.409 Q2021.96 213.71 2020.02 211.048 Q2018.07 208.363 2014.7 208.363 Q2011.32 208.363 2009.37 211.048 Q2007.45 213.71 2007.45 218.409 M2021.96 227.46 Q2020.62 229.775 2018.56 230.909 Q2016.52 232.02 2013.65 232.02 Q2008.95 232.02 2005.99 228.27 Q2003.05 224.52 2003.05 218.409 Q2003.05 212.298 2005.99 208.548 Q2008.95 204.798 2013.65 204.798 Q2016.52 204.798 2018.56 205.932 Q2020.62 207.043 2021.96 209.358 L2021.96 205.423 L2026.22 205.423 L2026.22 241.21 L2021.96 241.21 L2021.96 227.46 Z" fill="#000000" fill-rule="evenodd" fill-opacity="1" /><path clip-path="url(#clip420)" d="M 0 0 M2050.39 239.219 L2050.39 242.529 L2025.76 242.529 L2025.76 239.219 L2050.39 239.219 Z" fill="#000000" fill-rule="evenodd" fill-opacity="1" /><path clip-path="url(#clip420)" d="M 0 0 M2054.86 205.423 L2059.12 205.423 L2059.12 231.349 L2054.86 231.349 L2054.86 205.423 M2054.86 195.33 L2059.12 195.33 L2059.12 200.724 L2054.86 200.724 L2054.86 195.33 Z" fill="#000000" fill-rule="evenodd" fill-opacity="1" /><path clip-path="url(#clip420)" d="M 0 0 M2082.24 206.418 L2082.24 210.4 Q2080.44 209.404 2078.61 208.918 Q2076.8 208.409 2074.95 208.409 Q2070.81 208.409 2068.51 211.048 Q2066.22 213.664 2066.22 218.409 Q2066.22 223.154 2068.51 225.793 Q2070.81 228.409 2074.95 228.409 Q2076.8 228.409 2078.61 227.923 Q2080.44 227.413 2082.24 226.418 L2082.24 230.353 Q2080.46 231.187 2078.54 231.603 Q2076.64 232.02 2074.49 232.02 Q2068.63 232.02 2065.18 228.339 Q2061.73 224.659 2061.73 218.409 Q2061.73 212.066 2065.2 208.432 Q2068.7 204.798 2074.76 204.798 Q2076.73 204.798 2078.61 205.215 Q2080.48 205.608 2082.24 206.418 Z" fill="#000000" fill-rule="evenodd" fill-opacity="1" /><path clip-path="url(#clip420)" d="M 0 0 M2108.88 217.321 L2108.88 219.404 L2089.3 219.404 Q2089.58 223.802 2091.94 226.117 Q2094.32 228.409 2098.56 228.409 Q2101.01 228.409 2103.31 227.807 Q2105.62 227.205 2107.89 226.001 L2107.89 230.029 Q2105.6 231.001 2103.19 231.511 Q2100.78 232.02 2098.31 232.02 Q2092.1 232.02 2088.47 228.409 Q2084.86 224.798 2084.86 218.64 Q2084.86 212.275 2088.28 208.548 Q2091.73 204.798 2097.57 204.798 Q2102.8 204.798 2105.83 208.177 Q2108.88 211.534 2108.88 217.321 M2104.63 216.071 Q2104.58 212.576 2102.66 210.492 Q2100.76 208.409 2097.61 208.409 Q2094.05 208.409 2091.89 210.423 Q2089.76 212.437 2089.44 216.094 L2104.63 216.071 Z" fill="#000000" fill-rule="evenodd" fill-opacity="1" /><path clip-path="url(#clip420)" d="M 0 0 M2113.91 209.821 L2143.58 209.821 L2143.58 213.71 L2113.91 213.71 L2113.91 209.821 M2113.91 219.265 L2143.58 219.265 L2143.58 223.201 L2113.91 223.201 L2113.91 219.265 Z" fill="#000000" fill-rule="evenodd" fill-opacity="1" /><path clip-path="url(#clip420)" d="M 0 0 M2149.46 227.413 L2157.1 227.413 L2157.1 201.048 L2148.79 202.715 L2148.79 198.455 L2157.06 196.789 L2161.73 196.789 L2161.73 227.413 L2169.37 227.413 L2169.37 231.349 L2149.46 231.349 L2149.46 227.413 Z" fill="#000000" fill-rule="evenodd" fill-opacity="1" /><path clip-path="url(#clip420)" d="M 0 0 M2196.01 217.321 L2196.01 219.404 L2176.43 219.404 Q2176.71 223.802 2179.07 226.117 Q2181.45 228.409 2185.69 228.409 Q2188.14 228.409 2190.44 227.807 Q2192.75 227.205 2195.02 226.001 L2195.02 230.029 Q2192.73 231.001 2190.32 231.511 Q2187.91 232.02 2185.44 232.02 Q2179.23 232.02 2175.6 228.409 Q2171.99 224.798 2171.99 218.64 Q2171.99 212.275 2175.41 208.548 Q2178.86 204.798 2184.69 204.798 Q2189.93 204.798 2192.96 208.177 Q2196.01 211.534 2196.01 217.321 M2191.75 216.071 Q2191.71 212.576 2189.79 210.492 Q2187.89 208.409 2184.74 208.409 Q2181.18 208.409 2179.02 210.423 Q2176.89 212.437 2176.57 216.094 L2191.75 216.071 Z" fill="#000000" fill-rule="evenodd" fill-opacity="1" /><path clip-path="url(#clip420)" d="M 0 0 M2198.33 216.464 L2210.81 216.464 L2210.81 220.261 L2198.33 220.261 L2198.33 216.464 Z" fill="#000000" fill-rule="evenodd" fill-opacity="1" /><path clip-path="url(#clip420)" d="M 0 0 M2215.92 196.789 L2234.28 196.789 L2234.28 200.724 L2220.2 200.724 L2220.2 209.196 Q2221.22 208.849 2222.24 208.687 Q2223.26 208.502 2224.28 208.502 Q2230.06 208.502 2233.44 211.673 Q2236.82 214.844 2236.82 220.261 Q2236.82 225.839 2233.35 228.941 Q2229.88 232.02 2223.56 232.02 Q2221.38 232.02 2219.12 231.65 Q2216.87 231.279 2214.46 230.538 L2214.46 225.839 Q2216.55 226.974 2218.77 227.529 Q2220.99 228.085 2223.47 228.085 Q2227.47 228.085 2229.81 225.978 Q2232.15 223.872 2232.15 220.261 Q2232.15 216.65 2229.81 214.543 Q2227.47 212.437 2223.47 212.437 Q2221.59 212.437 2219.72 212.853 Q2217.87 213.27 2215.92 214.15 L2215.92 196.789 Z" fill="#000000" fill-rule="evenodd" fill-opacity="1" /><polyline clip-path="url(#clip420)" style="stroke:#3da44d; stroke-width:4; stroke-opacity:1; fill:none" points="
  1842.82,274.549 1980.16,274.549 
  "/>
<path clip-path="url(#clip420)" d="M 0 0 M2007.45 278.889 Q2007.45 283.588 2009.37 286.273 Q2011.32 288.935 2014.7 288.935 Q2018.07 288.935 2020.02 286.273 Q2021.96 283.588 2021.96 278.889 Q2021.96 274.19 2020.02 271.528 Q2018.07 268.843 2014.7 268.843 Q2011.32 268.843 2009.37 271.528 Q2007.45 274.19 2007.45 278.889 M2021.96 287.94 Q2020.62 290.255 2018.56 291.389 Q2016.52 292.5 2013.65 292.5 Q2008.95 292.5 2005.99 288.75 Q2003.05 285 2003.05 278.889 Q2003.05 272.778 2005.99 269.028 Q2008.95 265.278 2013.65 265.278 Q2016.52 265.278 2018.56 266.412 Q2020.62 267.523 2021.96 269.838 L2021.96 265.903 L2026.22 265.903 L2026.22 301.69 L2021.96 301.69 L2021.96 287.94 Z" fill="#000000" fill-rule="evenodd" fill-opacity="1" /><path clip-path="url(#clip420)" d="M 0 0 M2050.39 299.699 L2050.39 303.009 L2025.76 303.009 L2025.76 299.699 L2050.39 299.699 Z" fill="#000000" fill-rule="evenodd" fill-opacity="1" /><path clip-path="url(#clip420)" d="M 0 0 M2054.86 265.903 L2059.12 265.903 L2059.12 291.829 L2054.86 291.829 L2054.86 265.903 M2054.86 255.81 L2059.12 255.81 L2059.12 261.204 L2054.86 261.204 L2054.86 255.81 Z" fill="#000000" fill-rule="evenodd" fill-opacity="1" /><path clip-path="url(#clip420)" d="M 0 0 M2082.24 266.898 L2082.24 270.88 Q2080.44 269.884 2078.61 269.398 Q2076.8 268.889 2074.95 268.889 Q2070.81 268.889 2068.51 271.528 Q2066.22 274.144 2066.22 278.889 Q2066.22 283.634 2068.51 286.273 Q2070.81 288.889 2074.95 288.889 Q2076.8 288.889 2078.61 288.403 Q2080.44 287.893 2082.24 286.898 L2082.24 290.833 Q2080.46 291.667 2078.54 292.083 Q2076.64 292.5 2074.49 292.5 Q2068.63 292.5 2065.18 288.819 Q2061.73 285.139 2061.73 278.889 Q2061.73 272.546 2065.2 268.912 Q2068.7 265.278 2074.76 265.278 Q2076.73 265.278 2078.61 265.695 Q2080.48 266.088 2082.24 266.898 Z" fill="#000000" fill-rule="evenodd" fill-opacity="1" /><path clip-path="url(#clip420)" d="M 0 0 M2108.88 277.801 L2108.88 279.884 L2089.3 279.884 Q2089.58 284.282 2091.94 286.597 Q2094.32 288.889 2098.56 288.889 Q2101.01 288.889 2103.31 288.287 Q2105.62 287.685 2107.89 286.481 L2107.89 290.509 Q2105.6 291.481 2103.19 291.991 Q2100.78 292.5 2098.31 292.5 Q2092.1 292.5 2088.47 288.889 Q2084.86 285.278 2084.86 279.12 Q2084.86 272.755 2088.28 269.028 Q2091.73 265.278 2097.57 265.278 Q2102.8 265.278 2105.83 268.657 Q2108.88 272.014 2108.88 277.801 M2104.63 276.551 Q2104.58 273.056 2102.66 270.972 Q2100.76 268.889 2097.61 268.889 Q2094.05 268.889 2091.89 270.903 Q2089.76 272.917 2089.44 276.574 L2104.63 276.551 Z" fill="#000000" fill-rule="evenodd" fill-opacity="1" /><path clip-path="url(#clip420)" d="M 0 0 M2113.91 270.301 L2143.58 270.301 L2143.58 274.19 L2113.91 274.19 L2113.91 270.301 M2113.91 279.745 L2143.58 279.745 L2143.58 283.681 L2113.91 283.681 L2113.91 279.745 Z" fill="#000000" fill-rule="evenodd" fill-opacity="1" /><path clip-path="url(#clip420)" d="M 0 0 M2149.46 287.893 L2157.1 287.893 L2157.1 261.528 L2148.79 263.195 L2148.79 258.935 L2157.06 257.269 L2161.73 257.269 L2161.73 287.893 L2169.37 287.893 L2169.37 291.829 L2149.46 291.829 L2149.46 287.893 Z" fill="#000000" fill-rule="evenodd" fill-opacity="1" /><path clip-path="url(#clip420)" d="M 0 0 M2196.01 277.801 L2196.01 279.884 L2176.43 279.884 Q2176.71 284.282 2179.07 286.597 Q2181.45 288.889 2185.69 288.889 Q2188.14 288.889 2190.44 288.287 Q2192.75 287.685 2195.02 286.481 L2195.02 290.509 Q2192.73 291.481 2190.32 291.991 Q2187.91 292.5 2185.44 292.5 Q2179.23 292.5 2175.6 288.889 Q2171.99 285.278 2171.99 279.12 Q2171.99 272.755 2175.41 269.028 Q2178.86 265.278 2184.69 265.278 Q2189.93 265.278 2192.96 268.657 Q2196.01 272.014 2196.01 277.801 M2191.75 276.551 Q2191.71 273.056 2189.79 270.972 Q2187.89 268.889 2184.74 268.889 Q2181.18 268.889 2179.02 270.903 Q2176.89 272.917 2176.57 276.574 L2191.75 276.551 Z" fill="#000000" fill-rule="evenodd" fill-opacity="1" /><path clip-path="url(#clip420)" d="M 0 0 M2198.33 276.944 L2210.81 276.944 L2210.81 280.741 L2198.33 280.741 L2198.33 276.944 Z" fill="#000000" fill-rule="evenodd" fill-opacity="1" /><path clip-path="url(#clip420)" d="M 0 0 M2228.72 261.343 L2216.92 279.792 L2228.72 279.792 L2228.72 261.343 M2227.5 257.269 L2233.37 257.269 L2233.37 279.792 L2238.31 279.792 L2238.31 283.681 L2233.37 283.681 L2233.37 291.829 L2228.72 291.829 L2228.72 283.681 L2213.12 283.681 L2213.12 279.167 L2227.5 257.269 Z" fill="#000000" fill-rule="evenodd" fill-opacity="1" /></svg>
