<?xml version="1.0" encoding="utf-8"?>
<svg xmlns="http://www.w3.org/2000/svg" xmlns:xlink="http://www.w3.org/1999/xlink" width="600" height="400" viewBox="0 0 2400 1600">
<defs>
  <clipPath id="clip450">
    <rect x="0" y="0" width="2400" height="1600"/>
  </clipPath>
</defs>
<path clip-path="url(#clip450)" d="
M0 1600 L2400 1600 L2400 0 L0 0  Z
  " fill="#ffffff" fill-rule="evenodd" fill-opacity="1"/>
<defs>
  <clipPath id="clip451">
    <rect x="480" y="0" width="1681" height="1600"/>
  </clipPath>
</defs>
<path clip-path="url(#clip450)" d="
M341.822 1423.18 L2352.76 1423.18 L2352.76 47.2441 L341.822 47.2441  Z
  " fill="#ffffff" fill-rule="evenodd" fill-opacity="1"/>
<defs>
  <clipPath id="clip452">
    <rect x="341" y="47" width="2012" height="1377"/>
  </clipPath>
</defs>
<polyline clip-path="url(#clip452)" style="stroke:#000000; stroke-width:2; stroke-opacity:0.1; fill:none" points="
  398.731,1423.18 398.731,47.2441 
  "/>
<polyline clip-path="url(#clip452)" style="stroke:#000000; stroke-width:2; stroke-opacity:0.1; fill:none" points="
  778.153,1423.18 778.153,47.2441 
  "/>
<polyline clip-path="url(#clip452)" style="stroke:#000000; stroke-width:2; stroke-opacity:0.1; fill:none" points="
  1157.58,1423.18 1157.58,47.2441 
  "/>
<polyline clip-path="url(#clip452)" style="stroke:#000000; stroke-width:2; stroke-opacity:0.1; fill:none" points="
  1537,1423.18 1537,47.2441 
  "/>
<polyline clip-path="url(#clip452)" style="stroke:#000000; stroke-width:2; stroke-opacity:0.1; fill:none" points="
  1916.42,1423.18 1916.42,47.2441 
  "/>
<polyline clip-path="url(#clip452)" style="stroke:#000000; stroke-width:2; stroke-opacity:0.1; fill:none" points="
  2295.84,1423.18 2295.84,47.2441 
  "/>
<polyline clip-path="url(#clip452)" style="stroke:#000000; stroke-width:2; stroke-opacity:0.1; fill:none" points="
  341.822,1384.25 2352.76,1384.25 
  "/>
<polyline clip-path="url(#clip452)" style="stroke:#000000; stroke-width:2; stroke-opacity:0.1; fill:none" points="
  341.822,1141.49 2352.76,1141.49 
  "/>
<polyline clip-path="url(#clip452)" style="stroke:#000000; stroke-width:2; stroke-opacity:0.1; fill:none" points="
  341.822,898.726 2352.76,898.726 
  "/>
<polyline clip-path="url(#clip452)" style="stroke:#000000; stroke-width:2; stroke-opacity:0.1; fill:none" points="
  341.822,655.964 2352.76,655.964 
  "/>
<polyline clip-path="url(#clip452)" style="stroke:#000000; stroke-width:2; stroke-opacity:0.1; fill:none" points="
  341.822,413.203 2352.76,413.203 
  "/>
<polyline clip-path="url(#clip452)" style="stroke:#000000; stroke-width:2; stroke-opacity:0.1; fill:none" points="
  341.822,170.441 2352.76,170.441 
  "/>
<polyline clip-path="url(#clip450)" style="stroke:#000000; stroke-width:4; stroke-opacity:1; fill:none" points="
  341.822,1423.18 2352.76,1423.18 
  "/>
<polyline clip-path="url(#clip450)" style="stroke:#000000; stroke-width:4; stroke-opacity:1; fill:none" points="
  341.822,1423.18 341.822,47.2441 
  "/>
<polyline clip-path="url(#clip450)" style="stroke:#000000; stroke-width:4; stroke-opacity:1; fill:none" points="
  398.731,1423.18 398.731,1406.67 
  "/>
<polyline clip-path="url(#clip450)" style="stroke:#000000; stroke-width:4; stroke-opacity:1; fill:none" points="
  778.153,1423.18 778.153,1406.67 
  "/>
<polyline clip-path="url(#clip450)" style="stroke:#000000; stroke-width:4; stroke-opacity:1; fill:none" points="
  1157.58,1423.18 1157.58,1406.67 
  "/>
<polyline clip-path="url(#clip450)" style="stroke:#000000; stroke-width:4; stroke-opacity:1; fill:none" points="
  1537,1423.18 1537,1406.67 
  "/>
<polyline clip-path="url(#clip450)" style="stroke:#000000; stroke-width:4; stroke-opacity:1; fill:none" points="
  1916.42,1423.18 1916.42,1406.67 
  "/>
<polyline clip-path="url(#clip450)" style="stroke:#000000; stroke-width:4; stroke-opacity:1; fill:none" points="
  2295.84,1423.18 2295.84,1406.67 
  "/>
<polyline clip-path="url(#clip450)" style="stroke:#000000; stroke-width:4; stroke-opacity:1; fill:none" points="
  341.822,1384.25 365.953,1384.25 
  "/>
<polyline clip-path="url(#clip450)" style="stroke:#000000; stroke-width:4; stroke-opacity:1; fill:none" points="
  341.822,1141.49 365.953,1141.49 
  "/>
<polyline clip-path="url(#clip450)" style="stroke:#000000; stroke-width:4; stroke-opacity:1; fill:none" points="
  341.822,898.726 365.953,898.726 
  "/>
<polyline clip-path="url(#clip450)" style="stroke:#000000; stroke-width:4; stroke-opacity:1; fill:none" points="
  341.822,655.964 365.953,655.964 
  "/>
<polyline clip-path="url(#clip450)" style="stroke:#000000; stroke-width:4; stroke-opacity:1; fill:none" points="
  341.822,413.203 365.953,413.203 
  "/>
<polyline clip-path="url(#clip450)" style="stroke:#000000; stroke-width:4; stroke-opacity:1; fill:none" points="
  341.822,170.441 365.953,170.441 
  "/>
<path clip-path="url(#clip450)" d="M 0 0 M398.731 1445.17 Q395.12 1445.17 393.291 1448.74 Q391.486 1452.28 391.486 1459.41 Q391.486 1466.51 393.291 1470.08 Q395.12 1473.62 398.731 1473.62 Q402.365 1473.62 404.171 1470.08 Q406 1466.51 406 1459.41 Q406 1452.28 404.171 1448.74 Q402.365 1445.17 398.731 1445.17 M398.731 1441.47 Q404.541 1441.47 407.597 1446.07 Q410.675 1450.66 410.675 1459.41 Q410.675 1468.13 407.597 1472.74 Q404.541 1477.32 398.731 1477.32 Q392.921 1477.32 389.842 1472.74 Q386.787 1468.13 386.787 1459.41 Q386.787 1450.66 389.842 1446.07 Q392.921 1441.47 398.731 1441.47 Z" fill="#000000" fill-rule="evenodd" fill-opacity="1" /><path clip-path="url(#clip450)" d="M 0 0 M768.535 1472.72 L776.174 1472.72 L776.174 1446.35 L767.864 1448.02 L767.864 1443.76 L776.128 1442.09 L780.804 1442.09 L780.804 1472.72 L788.443 1472.72 L788.443 1476.65 L768.535 1476.65 L768.535 1472.72 Z" fill="#000000" fill-rule="evenodd" fill-opacity="1" /><path clip-path="url(#clip450)" d="M 0 0 M1152.23 1472.72 L1168.55 1472.72 L1168.55 1476.65 L1146.6 1476.65 L1146.6 1472.72 Q1149.27 1469.96 1153.85 1465.33 Q1158.46 1460.68 1159.64 1459.34 Q1161.88 1456.81 1162.76 1455.08 Q1163.66 1453.32 1163.66 1451.63 Q1163.66 1448.87 1161.72 1447.14 Q1159.8 1445.4 1156.7 1445.4 Q1154.5 1445.4 1152.04 1446.17 Q1149.61 1446.93 1146.84 1448.48 L1146.84 1443.76 Q1149.66 1442.62 1152.11 1442.05 Q1154.57 1441.47 1156.6 1441.47 Q1161.97 1441.47 1165.17 1444.15 Q1168.36 1446.84 1168.36 1451.33 Q1168.36 1453.46 1167.55 1455.38 Q1166.77 1457.28 1164.66 1459.87 Q1164.08 1460.54 1160.98 1463.76 Q1157.88 1466.95 1152.23 1472.72 Z" fill="#000000" fill-rule="evenodd" fill-opacity="1" /><path clip-path="url(#clip450)" d="M 0 0 M1541.25 1458.02 Q1544.6 1458.74 1546.48 1461 Q1548.38 1463.27 1548.38 1466.61 Q1548.38 1471.72 1544.86 1474.52 Q1541.34 1477.32 1534.86 1477.32 Q1532.68 1477.32 1530.37 1476.88 Q1528.07 1476.47 1525.62 1475.61 L1525.62 1471.1 Q1527.57 1472.23 1529.88 1472.81 Q1532.19 1473.39 1534.72 1473.39 Q1539.12 1473.39 1541.41 1471.65 Q1543.72 1469.92 1543.72 1466.61 Q1543.72 1463.55 1541.57 1461.84 Q1539.44 1460.1 1535.62 1460.1 L1531.59 1460.1 L1531.59 1456.26 L1535.81 1456.26 Q1539.25 1456.26 1541.08 1454.89 Q1542.91 1453.5 1542.91 1450.91 Q1542.91 1448.25 1541.01 1446.84 Q1539.14 1445.4 1535.62 1445.4 Q1533.7 1445.4 1531.5 1445.82 Q1529.3 1446.24 1526.66 1447.11 L1526.66 1442.95 Q1529.32 1442.21 1531.64 1441.84 Q1533.98 1441.47 1536.04 1441.47 Q1541.36 1441.47 1544.46 1443.9 Q1547.57 1446.3 1547.57 1450.43 Q1547.57 1453.3 1545.92 1455.29 Q1544.28 1457.25 1541.25 1458.02 Z" fill="#000000" fill-rule="evenodd" fill-opacity="1" /><path clip-path="url(#clip450)" d="M 0 0 M1919.43 1446.17 L1907.62 1464.61 L1919.43 1464.61 L1919.43 1446.17 M1918.2 1442.09 L1924.08 1442.09 L1924.08 1464.61 L1929.01 1464.61 L1929.01 1468.5 L1924.08 1468.5 L1924.08 1476.65 L1919.43 1476.65 L1919.43 1468.5 L1903.83 1468.5 L1903.83 1463.99 L1918.2 1442.09 Z" fill="#000000" fill-rule="evenodd" fill-opacity="1" /><path clip-path="url(#clip450)" d="M 0 0 M2286.12 1442.09 L2304.48 1442.09 L2304.48 1446.03 L2290.4 1446.03 L2290.4 1454.5 Q2291.42 1454.15 2292.44 1453.99 Q2293.46 1453.8 2294.48 1453.8 Q2300.26 1453.8 2303.64 1456.98 Q2307.02 1460.15 2307.02 1465.56 Q2307.02 1471.14 2303.55 1474.24 Q2300.08 1477.32 2293.76 1477.32 Q2291.58 1477.32 2289.31 1476.95 Q2287.07 1476.58 2284.66 1475.84 L2284.66 1471.14 Q2286.75 1472.28 2288.97 1472.83 Q2291.19 1473.39 2293.67 1473.39 Q2297.67 1473.39 2300.01 1471.28 Q2302.35 1469.18 2302.35 1465.56 Q2302.35 1461.95 2300.01 1459.85 Q2297.67 1457.74 2293.67 1457.74 Q2291.79 1457.74 2289.92 1458.16 Q2288.06 1458.57 2286.12 1459.45 L2286.12 1442.09 Z" fill="#000000" fill-rule="evenodd" fill-opacity="1" /><path clip-path="url(#clip450)" d="M 0 0 M305.877 1370.05 Q302.266 1370.05 300.437 1373.61 Q298.632 1377.15 298.632 1384.28 Q298.632 1391.39 300.437 1394.95 Q302.266 1398.5 305.877 1398.5 Q309.511 1398.5 311.317 1394.95 Q313.146 1391.39 313.146 1384.28 Q313.146 1377.15 311.317 1373.61 Q309.511 1370.05 305.877 1370.05 M305.877 1366.34 Q311.687 1366.34 314.743 1370.95 Q317.822 1375.53 317.822 1384.28 Q317.822 1393.01 314.743 1397.62 Q311.687 1402.2 305.877 1402.2 Q300.067 1402.2 296.988 1397.62 Q293.933 1393.01 293.933 1384.28 Q293.933 1375.53 296.988 1370.95 Q300.067 1366.34 305.877 1366.34 Z" fill="#000000" fill-rule="evenodd" fill-opacity="1" /><path clip-path="url(#clip450)" d="M 0 0 M127.718 1130.65 L146.075 1130.65 L146.075 1134.59 L132.001 1134.59 L132.001 1143.06 Q133.019 1142.71 134.038 1142.55 Q135.056 1142.37 136.075 1142.37 Q141.862 1142.37 145.242 1145.54 Q148.621 1148.71 148.621 1154.13 Q148.621 1159.71 145.149 1162.81 Q141.677 1165.89 135.357 1165.89 Q133.181 1165.89 130.913 1165.52 Q128.668 1165.15 126.26 1164.4 L126.26 1159.71 Q128.343 1160.84 130.566 1161.4 Q132.788 1161.95 135.265 1161.95 Q139.269 1161.95 141.607 1159.84 Q143.945 1157.74 143.945 1154.13 Q143.945 1150.52 141.607 1148.41 Q139.269 1146.3 135.265 1146.3 Q133.39 1146.3 131.515 1146.72 Q129.663 1147.14 127.718 1148.02 L127.718 1130.65 Z" fill="#000000" fill-rule="evenodd" fill-opacity="1" /><path clip-path="url(#clip450)" d="M 0 0 M153.691 1159.34 L158.575 1159.34 L158.575 1165.21 L153.691 1165.21 L153.691 1159.34 Z" fill="#000000" fill-rule="evenodd" fill-opacity="1" /><path clip-path="url(#clip450)" d="M 0 0 M173.644 1133.73 Q170.033 1133.73 168.204 1137.3 Q166.399 1140.84 166.399 1147.97 Q166.399 1155.08 168.204 1158.64 Q170.033 1162.18 173.644 1162.18 Q177.278 1162.18 179.084 1158.64 Q180.913 1155.08 180.913 1147.97 Q180.913 1140.84 179.084 1137.3 Q177.278 1133.73 173.644 1133.73 M173.644 1130.03 Q179.454 1130.03 182.51 1134.64 Q185.589 1139.22 185.589 1147.97 Q185.589 1156.7 182.51 1161.3 Q179.454 1165.89 173.644 1165.89 Q167.834 1165.89 164.755 1161.3 Q161.7 1156.7 161.7 1147.97 Q161.7 1139.22 164.755 1134.64 Q167.834 1130.03 173.644 1130.03 Z" fill="#000000" fill-rule="evenodd" fill-opacity="1" /><path clip-path="url(#clip450)" d="M 0 0 M218.829 1139.75 L208.25 1150.38 L218.829 1160.96 L216.074 1163.76 L205.45 1153.13 L194.825 1163.76 L192.093 1160.96 L202.649 1150.38 L192.093 1139.75 L194.825 1136.95 L205.45 1147.58 L216.074 1136.95 L218.829 1139.75 Z" fill="#000000" fill-rule="evenodd" fill-opacity="1" /><path clip-path="url(#clip450)" d="M 0 0 M224.709 1161.28 L232.348 1161.28 L232.348 1134.91 L224.037 1136.58 L224.037 1132.32 L232.301 1130.65 L236.977 1130.65 L236.977 1161.28 L244.616 1161.28 L244.616 1165.21 L224.709 1165.21 L224.709 1161.28 Z" fill="#000000" fill-rule="evenodd" fill-opacity="1" /><path clip-path="url(#clip450)" d="M 0 0 M259.685 1133.73 Q256.074 1133.73 254.246 1137.3 Q252.44 1140.84 252.44 1147.97 Q252.44 1155.08 254.246 1158.64 Q256.074 1162.18 259.685 1162.18 Q263.32 1162.18 265.125 1158.64 Q266.954 1155.08 266.954 1147.97 Q266.954 1140.84 265.125 1137.3 Q263.32 1133.73 259.685 1133.73 M259.685 1130.03 Q265.496 1130.03 268.551 1134.64 Q271.63 1139.22 271.63 1147.97 Q271.63 1156.7 268.551 1161.3 Q265.496 1165.89 259.685 1165.89 Q253.875 1165.89 250.797 1161.3 Q247.741 1156.7 247.741 1147.97 Q247.741 1139.22 250.797 1134.64 Q253.875 1130.03 259.685 1130.03 Z" fill="#000000" fill-rule="evenodd" fill-opacity="1" /><path clip-path="url(#clip450)" d="M 0 0 M271.63 1124.13 L295.741 1124.13 L295.741 1127.33 L271.63 1127.33 L271.63 1124.13 Z" fill="#000000" fill-rule="evenodd" fill-opacity="1" /><path clip-path="url(#clip450)" d="M 0 0 M308.455 1122.25 Q305.898 1122.25 304.393 1124 Q302.907 1125.75 302.907 1128.8 Q302.907 1131.82 304.393 1133.59 Q305.898 1135.34 308.455 1135.34 Q311.013 1135.34 312.499 1133.59 Q314.004 1131.82 314.004 1128.8 Q314.004 1125.75 312.499 1124 Q311.013 1122.25 308.455 1122.25 M315.997 1110.34 L315.997 1113.81 Q314.568 1113.13 313.101 1112.77 Q311.653 1112.41 310.223 1112.41 Q306.462 1112.41 304.468 1114.95 Q302.493 1117.49 302.211 1122.63 Q303.321 1120.99 304.995 1120.12 Q306.669 1119.24 308.681 1119.24 Q312.913 1119.24 315.358 1121.82 Q317.822 1124.38 317.822 1128.8 Q317.822 1133.12 315.264 1135.74 Q312.706 1138.35 308.455 1138.35 Q303.584 1138.35 301.007 1134.63 Q298.431 1130.88 298.431 1123.79 Q298.431 1117.13 301.591 1113.18 Q304.75 1109.22 310.073 1109.22 Q311.502 1109.22 312.95 1109.5 Q314.417 1109.78 315.997 1110.34 Z" fill="#000000" fill-rule="evenodd" fill-opacity="1" /><path clip-path="url(#clip450)" d="M 0 0 M129.654 918.518 L137.293 918.518 L137.293 892.152 L128.983 893.819 L128.983 889.56 L137.247 887.893 L141.923 887.893 L141.923 918.518 L149.562 918.518 L149.562 922.453 L129.654 922.453 L129.654 918.518 Z" fill="#000000" fill-rule="evenodd" fill-opacity="1" /><path clip-path="url(#clip450)" d="M 0 0 M154.631 916.574 L159.515 916.574 L159.515 922.453 L154.631 922.453 L154.631 916.574 Z" fill="#000000" fill-rule="evenodd" fill-opacity="1" /><path clip-path="url(#clip450)" d="M 0 0 M174.585 890.972 Q170.973 890.972 169.145 894.537 Q167.339 898.078 167.339 905.208 Q167.339 912.314 169.145 915.879 Q170.973 919.421 174.585 919.421 Q178.219 919.421 180.024 915.879 Q181.853 912.314 181.853 905.208 Q181.853 898.078 180.024 894.537 Q178.219 890.972 174.585 890.972 M174.585 887.268 Q180.395 887.268 183.45 891.875 Q186.529 896.458 186.529 905.208 Q186.529 913.935 183.45 918.541 Q180.395 923.124 174.585 923.124 Q168.774 923.124 165.696 918.541 Q162.64 913.935 162.64 905.208 Q162.64 896.458 165.696 891.875 Q168.774 887.268 174.585 887.268 Z" fill="#000000" fill-rule="evenodd" fill-opacity="1" /><path clip-path="url(#clip450)" d="M 0 0 M219.769 896.99 L209.191 907.615 L219.769 918.194 L217.015 920.995 L206.39 910.37 L195.765 920.995 L193.034 918.194 L203.589 907.615 L193.034 896.99 L195.765 894.189 L206.39 904.814 L217.015 894.189 L219.769 896.99 Z" fill="#000000" fill-rule="evenodd" fill-opacity="1" /><path clip-path="url(#clip450)" d="M 0 0 M225.649 918.518 L233.288 918.518 L233.288 892.152 L224.978 893.819 L224.978 889.56 L233.242 887.893 L237.918 887.893 L237.918 918.518 L245.556 918.518 L245.556 922.453 L225.649 922.453 L225.649 918.518 Z" fill="#000000" fill-rule="evenodd" fill-opacity="1" /><path clip-path="url(#clip450)" d="M 0 0 M260.626 890.972 Q257.015 890.972 255.186 894.537 Q253.38 898.078 253.38 905.208 Q253.38 912.314 255.186 915.879 Q257.015 919.421 260.626 919.421 Q264.26 919.421 266.066 915.879 Q267.894 912.314 267.894 905.208 Q267.894 898.078 266.066 894.537 Q264.26 890.972 260.626 890.972 M260.626 887.268 Q266.436 887.268 269.491 891.875 Q272.57 896.458 272.57 905.208 Q272.57 913.935 269.491 918.541 Q266.436 923.124 260.626 923.124 Q254.816 923.124 251.737 918.541 Q248.681 913.935 248.681 905.208 Q248.681 896.458 251.737 891.875 Q254.816 887.268 260.626 887.268 Z" fill="#000000" fill-rule="evenodd" fill-opacity="1" /><path clip-path="url(#clip450)" d="M 0 0 M272.57 881.37 L296.682 881.37 L296.682 884.567 L272.57 884.567 L272.57 881.37 Z" fill="#000000" fill-rule="evenodd" fill-opacity="1" /><path clip-path="url(#clip450)" d="M 0 0 M300.838 866.963 L315.753 866.963 L315.753 870.16 L304.318 870.16 L304.318 877.044 Q305.145 876.762 305.973 876.63 Q306.8 876.48 307.628 876.48 Q312.33 876.48 315.076 879.056 Q317.822 881.633 317.822 886.034 Q317.822 890.567 315 893.087 Q312.179 895.588 307.045 895.588 Q305.277 895.588 303.434 895.287 Q301.609 894.986 299.653 894.384 L299.653 890.567 Q301.346 891.488 303.152 891.939 Q304.957 892.391 306.97 892.391 Q310.223 892.391 312.123 890.679 Q314.022 888.968 314.022 886.034 Q314.022 883.1 312.123 881.388 Q310.223 879.677 306.97 879.677 Q305.446 879.677 303.923 880.015 Q302.418 880.354 300.838 881.069 L300.838 866.963 Z" fill="#000000" fill-rule="evenodd" fill-opacity="1" /><path clip-path="url(#clip450)" d="M 0 0 M130.65 675.757 L138.288 675.757 L138.288 649.391 L129.978 651.058 L129.978 646.798 L138.242 645.132 L142.918 645.132 L142.918 675.757 L150.557 675.757 L150.557 679.692 L130.65 679.692 L130.65 675.757 Z" fill="#000000" fill-rule="evenodd" fill-opacity="1" /><path clip-path="url(#clip450)" d="M 0 0 M155.626 673.812 L160.511 673.812 L160.511 679.692 L155.626 679.692 L155.626 673.812 Z" fill="#000000" fill-rule="evenodd" fill-opacity="1" /><path clip-path="url(#clip450)" d="M 0 0 M165.626 645.132 L183.983 645.132 L183.983 649.067 L169.909 649.067 L169.909 657.539 Q170.927 657.192 171.946 657.03 Q172.964 656.845 173.983 656.845 Q179.77 656.845 183.149 660.016 Q186.529 663.187 186.529 668.604 Q186.529 674.182 183.057 677.284 Q179.585 680.363 173.265 680.363 Q171.089 680.363 168.821 679.993 Q166.575 679.622 164.168 678.881 L164.168 674.182 Q166.251 675.317 168.473 675.872 Q170.696 676.428 173.173 676.428 Q177.177 676.428 179.515 674.321 Q181.853 672.215 181.853 668.604 Q181.853 664.993 179.515 662.886 Q177.177 660.78 173.173 660.78 Q171.298 660.78 169.423 661.196 Q167.571 661.613 165.626 662.493 L165.626 645.132 Z" fill="#000000" fill-rule="evenodd" fill-opacity="1" /><path clip-path="url(#clip450)" d="M 0 0 M219.769 654.229 L209.191 664.854 L219.769 675.432 L217.015 678.233 L206.39 667.608 L195.765 678.233 L193.034 675.432 L203.589 664.854 L193.034 654.229 L195.765 651.428 L206.39 662.053 L217.015 651.428 L219.769 654.229 Z" fill="#000000" fill-rule="evenodd" fill-opacity="1" /><path clip-path="url(#clip450)" d="M 0 0 M225.649 675.757 L233.288 675.757 L233.288 649.391 L224.978 651.058 L224.978 646.798 L233.242 645.132 L237.918 645.132 L237.918 675.757 L245.556 675.757 L245.556 679.692 L225.649 679.692 L225.649 675.757 Z" fill="#000000" fill-rule="evenodd" fill-opacity="1" /><path clip-path="url(#clip450)" d="M 0 0 M260.626 648.21 Q257.015 648.21 255.186 651.775 Q253.38 655.317 253.38 662.446 Q253.38 669.553 255.186 673.118 Q257.015 676.659 260.626 676.659 Q264.26 676.659 266.066 673.118 Q267.894 669.553 267.894 662.446 Q267.894 655.317 266.066 651.775 Q264.26 648.21 260.626 648.21 M260.626 644.507 Q266.436 644.507 269.491 649.113 Q272.57 653.696 272.57 662.446 Q272.57 671.173 269.491 675.78 Q266.436 680.363 260.626 680.363 Q254.816 680.363 251.737 675.78 Q248.681 671.173 248.681 662.446 Q248.681 653.696 251.737 649.113 Q254.816 644.507 260.626 644.507 Z" fill="#000000" fill-rule="evenodd" fill-opacity="1" /><path clip-path="url(#clip450)" d="M 0 0 M272.57 638.608 L296.682 638.608 L296.682 641.805 L272.57 641.805 L272.57 638.608 Z" fill="#000000" fill-rule="evenodd" fill-opacity="1" /><path clip-path="url(#clip450)" d="M 0 0 M300.838 624.201 L315.753 624.201 L315.753 627.399 L304.318 627.399 L304.318 634.282 Q305.145 634 305.973 633.868 Q306.8 633.718 307.628 633.718 Q312.33 633.718 315.076 636.295 Q317.822 638.871 317.822 643.272 Q317.822 647.805 315 650.325 Q312.179 652.827 307.045 652.827 Q305.277 652.827 303.434 652.526 Q301.609 652.225 299.653 651.623 L299.653 647.805 Q301.346 648.727 303.152 649.178 Q304.957 649.629 306.97 649.629 Q310.223 649.629 312.123 647.918 Q314.022 646.206 314.022 643.272 Q314.022 640.338 312.123 638.627 Q310.223 636.915 306.97 636.915 Q305.446 636.915 303.923 637.254 Q302.418 637.592 300.838 638.307 L300.838 624.201 Z" fill="#000000" fill-rule="evenodd" fill-opacity="1" /><path clip-path="url(#clip450)" d="M 0 0 M133.242 432.995 L149.562 432.995 L149.562 436.93 L127.617 436.93 L127.617 432.995 Q130.279 430.24 134.863 425.611 Q139.469 420.958 140.65 419.615 Q142.895 417.092 143.775 415.356 Q144.677 413.597 144.677 411.907 Q144.677 409.153 142.733 407.416 Q140.812 405.68 137.71 405.68 Q135.511 405.68 133.057 406.444 Q130.626 407.208 127.849 408.759 L127.849 404.037 Q130.673 402.903 133.126 402.324 Q135.58 401.745 137.617 401.745 Q142.987 401.745 146.182 404.43 Q149.376 407.116 149.376 411.606 Q149.376 413.736 148.566 415.657 Q147.779 417.555 145.673 420.148 Q145.094 420.819 141.992 424.037 Q138.89 427.231 133.242 432.995 Z" fill="#000000" fill-rule="evenodd" fill-opacity="1" /><path clip-path="url(#clip450)" d="M 0 0 M154.631 431.051 L159.515 431.051 L159.515 436.93 L154.631 436.93 L154.631 431.051 Z" fill="#000000" fill-rule="evenodd" fill-opacity="1" /><path clip-path="url(#clip450)" d="M 0 0 M174.585 405.449 Q170.973 405.449 169.145 409.014 Q167.339 412.555 167.339 419.685 Q167.339 426.791 169.145 430.356 Q170.973 433.898 174.585 433.898 Q178.219 433.898 180.024 430.356 Q181.853 426.791 181.853 419.685 Q181.853 412.555 180.024 409.014 Q178.219 405.449 174.585 405.449 M174.585 401.745 Q180.395 401.745 183.45 406.352 Q186.529 410.935 186.529 419.685 Q186.529 428.412 183.45 433.018 Q180.395 437.601 174.585 437.601 Q168.774 437.601 165.696 433.018 Q162.64 428.412 162.64 419.685 Q162.64 410.935 165.696 406.352 Q168.774 401.745 174.585 401.745 Z" fill="#000000" fill-rule="evenodd" fill-opacity="1" /><path clip-path="url(#clip450)" d="M 0 0 M219.769 411.467 L209.191 422.092 L219.769 432.671 L217.015 435.472 L206.39 424.847 L195.765 435.472 L193.034 432.671 L203.589 422.092 L193.034 411.467 L195.765 408.666 L206.39 419.291 L217.015 408.666 L219.769 411.467 Z" fill="#000000" fill-rule="evenodd" fill-opacity="1" /><path clip-path="url(#clip450)" d="M 0 0 M225.649 432.995 L233.288 432.995 L233.288 406.629 L224.978 408.296 L224.978 404.037 L233.242 402.37 L237.918 402.37 L237.918 432.995 L245.556 432.995 L245.556 436.93 L225.649 436.93 L225.649 432.995 Z" fill="#000000" fill-rule="evenodd" fill-opacity="1" /><path clip-path="url(#clip450)" d="M 0 0 M260.626 405.449 Q257.015 405.449 255.186 409.014 Q253.38 412.555 253.38 419.685 Q253.38 426.791 255.186 430.356 Q257.015 433.898 260.626 433.898 Q264.26 433.898 266.066 430.356 Q267.894 426.791 267.894 419.685 Q267.894 412.555 266.066 409.014 Q264.26 405.449 260.626 405.449 M260.626 401.745 Q266.436 401.745 269.491 406.352 Q272.57 410.935 272.57 419.685 Q272.57 428.412 269.491 433.018 Q266.436 437.601 260.626 437.601 Q254.816 437.601 251.737 433.018 Q248.681 428.412 248.681 419.685 Q248.681 410.935 251.737 406.352 Q254.816 401.745 260.626 401.745 Z" fill="#000000" fill-rule="evenodd" fill-opacity="1" /><path clip-path="url(#clip450)" d="M 0 0 M272.57 395.847 L296.682 395.847 L296.682 399.044 L272.57 399.044 L272.57 395.847 Z" fill="#000000" fill-rule="evenodd" fill-opacity="1" /><path clip-path="url(#clip450)" d="M 0 0 M300.838 381.44 L315.753 381.44 L315.753 384.637 L304.318 384.637 L304.318 391.521 Q305.145 391.239 305.973 391.107 Q306.8 390.957 307.628 390.957 Q312.33 390.957 315.076 393.533 Q317.822 396.11 317.822 400.511 Q317.822 405.044 315 407.564 Q312.179 410.065 307.045 410.065 Q305.277 410.065 303.434 409.764 Q301.609 409.463 299.653 408.861 L299.653 405.044 Q301.346 405.965 303.152 406.416 Q304.957 406.868 306.97 406.868 Q310.223 406.868 312.123 405.156 Q314.022 403.445 314.022 400.511 Q314.022 397.577 312.123 395.865 Q310.223 394.154 306.97 394.154 Q305.446 394.154 303.923 394.492 Q302.418 394.831 300.838 395.546 L300.838 381.44 Z" fill="#000000" fill-rule="evenodd" fill-opacity="1" /><path clip-path="url(#clip450)" d="M 0 0 M134.238 190.234 L150.557 190.234 L150.557 194.169 L128.613 194.169 L128.613 190.234 Q131.275 187.479 135.858 182.849 Q140.464 178.197 141.645 176.854 Q143.89 174.331 144.77 172.595 Q145.673 170.835 145.673 169.146 Q145.673 166.391 143.728 164.655 Q141.807 162.919 138.705 162.919 Q136.506 162.919 134.052 163.683 Q131.622 164.447 128.844 165.998 L128.844 161.275 Q131.668 160.141 134.122 159.562 Q136.575 158.984 138.613 158.984 Q143.983 158.984 147.177 161.669 Q150.372 164.354 150.372 168.845 Q150.372 170.974 149.562 172.896 Q148.775 174.794 146.668 177.386 Q146.089 178.058 142.987 181.275 Q139.886 184.47 134.238 190.234 Z" fill="#000000" fill-rule="evenodd" fill-opacity="1" /><path clip-path="url(#clip450)" d="M 0 0 M155.626 188.289 L160.511 188.289 L160.511 194.169 L155.626 194.169 L155.626 188.289 Z" fill="#000000" fill-rule="evenodd" fill-opacity="1" /><path clip-path="url(#clip450)" d="M 0 0 M165.626 159.609 L183.983 159.609 L183.983 163.544 L169.909 163.544 L169.909 172.016 Q170.927 171.669 171.946 171.507 Q172.964 171.322 173.983 171.322 Q179.77 171.322 183.149 174.493 Q186.529 177.664 186.529 183.081 Q186.529 188.659 183.057 191.761 Q179.585 194.84 173.265 194.84 Q171.089 194.84 168.821 194.47 Q166.575 194.099 164.168 193.358 L164.168 188.659 Q166.251 189.794 168.473 190.349 Q170.696 190.905 173.173 190.905 Q177.177 190.905 179.515 188.798 Q181.853 186.692 181.853 183.081 Q181.853 179.47 179.515 177.363 Q177.177 175.257 173.173 175.257 Q171.298 175.257 169.423 175.673 Q167.571 176.09 165.626 176.97 L165.626 159.609 Z" fill="#000000" fill-rule="evenodd" fill-opacity="1" /><path clip-path="url(#clip450)" d="M 0 0 M219.769 168.706 L209.191 179.331 L219.769 189.909 L217.015 192.71 L206.39 182.085 L195.765 192.71 L193.034 189.909 L203.589 179.331 L193.034 168.706 L195.765 165.905 L206.39 176.53 L217.015 165.905 L219.769 168.706 Z" fill="#000000" fill-rule="evenodd" fill-opacity="1" /><path clip-path="url(#clip450)" d="M 0 0 M225.649 190.234 L233.288 190.234 L233.288 163.868 L224.978 165.535 L224.978 161.275 L233.242 159.609 L237.918 159.609 L237.918 190.234 L245.556 190.234 L245.556 194.169 L225.649 194.169 L225.649 190.234 Z" fill="#000000" fill-rule="evenodd" fill-opacity="1" /><path clip-path="url(#clip450)" d="M 0 0 M260.626 162.687 Q257.015 162.687 255.186 166.252 Q253.38 169.794 253.38 176.923 Q253.38 184.03 255.186 187.595 Q257.015 191.136 260.626 191.136 Q264.26 191.136 266.066 187.595 Q267.894 184.03 267.894 176.923 Q267.894 169.794 266.066 166.252 Q264.26 162.687 260.626 162.687 M260.626 158.984 Q266.436 158.984 269.491 163.59 Q272.57 168.173 272.57 176.923 Q272.57 185.65 269.491 190.257 Q266.436 194.84 260.626 194.84 Q254.816 194.84 251.737 190.257 Q248.681 185.65 248.681 176.923 Q248.681 168.173 251.737 163.59 Q254.816 158.984 260.626 158.984 Z" fill="#000000" fill-rule="evenodd" fill-opacity="1" /><path clip-path="url(#clip450)" d="M 0 0 M272.57 153.085 L296.682 153.085 L296.682 156.282 L272.57 156.282 L272.57 153.085 Z" fill="#000000" fill-rule="evenodd" fill-opacity="1" /><path clip-path="url(#clip450)" d="M 0 0 M300.838 138.678 L315.753 138.678 L315.753 141.876 L304.318 141.876 L304.318 148.759 Q305.145 148.477 305.973 148.345 Q306.8 148.195 307.628 148.195 Q312.33 148.195 315.076 150.772 Q317.822 153.348 317.822 157.749 Q317.822 162.282 315 164.802 Q312.179 167.304 307.045 167.304 Q305.277 167.304 303.434 167.003 Q301.609 166.702 299.653 166.1 L299.653 162.282 Q301.346 163.204 303.152 163.655 Q304.957 164.106 306.97 164.106 Q310.223 164.106 312.123 162.395 Q314.022 160.683 314.022 157.749 Q314.022 154.815 312.123 153.104 Q310.223 151.392 306.97 151.392 Q305.446 151.392 303.923 151.731 Q302.418 152.069 300.838 152.784 L300.838 138.678 Z" fill="#000000" fill-rule="evenodd" fill-opacity="1" /><path clip-path="url(#clip450)" d="M 0 0 M1171.45 1538.25 Q1171.45 1544.71 1174.09 1548.4 Q1176.77 1552.07 1181.41 1552.07 Q1186.06 1552.07 1188.73 1548.4 Q1191.41 1544.71 1191.41 1538.25 Q1191.41 1531.79 1188.73 1528.13 Q1186.06 1524.44 1181.41 1524.44 Q1176.77 1524.44 1174.09 1528.13 Q1171.45 1531.79 1171.45 1538.25 M1191.41 1550.7 Q1189.56 1553.88 1186.73 1555.44 Q1183.93 1556.97 1179.98 1556.97 Q1173.52 1556.97 1169.45 1551.81 Q1165.4 1546.65 1165.4 1538.25 Q1165.4 1529.85 1169.45 1524.69 Q1173.52 1519.54 1179.98 1519.54 Q1183.93 1519.54 1186.73 1521.1 Q1189.56 1522.62 1191.41 1525.81 L1191.41 1520.4 L1197.26 1520.4 L1197.26 1569.6 L1191.41 1569.6 L1191.41 1550.7 Z" fill="#000000" fill-rule="evenodd" fill-opacity="1" /><path clip-path="url(#clip450)" d="M 0 0 M1230.49 1566.87 L1230.49 1571.42 L1196.63 1571.42 L1196.63 1566.87 L1230.49 1566.87 Z" fill="#000000" fill-rule="evenodd" fill-opacity="1" /><path clip-path="url(#clip450)" d="M 0 0 M1257.29 1525.87 Q1256.31 1525.3 1255.13 1525.04 Q1253.98 1524.76 1252.58 1524.76 Q1247.62 1524.76 1244.94 1528 Q1242.3 1531.22 1242.3 1537.27 L1242.3 1556.04 L1236.41 1556.04 L1236.41 1520.4 L1242.3 1520.4 L1242.3 1525.93 Q1244.15 1522.69 1247.11 1521.13 Q1250.07 1519.54 1254.3 1519.54 Q1254.91 1519.54 1255.64 1519.63 Q1256.37 1519.7 1257.26 1519.85 L1257.29 1525.87 Z" fill="#000000" fill-rule="evenodd" fill-opacity="1" /><path clip-path="url(#clip450)" d="M 0 0 M1279.64 1538.12 Q1272.54 1538.12 1269.8 1539.75 Q1267.06 1541.37 1267.06 1545.29 Q1267.06 1548.4 1269.1 1550.25 Q1271.17 1552.07 1274.7 1552.07 Q1279.57 1552.07 1282.5 1548.63 Q1285.46 1545.16 1285.46 1539.43 L1285.46 1538.12 L1279.64 1538.12 M1291.32 1535.71 L1291.32 1556.04 L1285.46 1556.04 L1285.46 1550.63 Q1283.46 1553.88 1280.46 1555.44 Q1277.47 1556.97 1273.14 1556.97 Q1267.67 1556.97 1264.42 1553.91 Q1261.21 1550.82 1261.21 1545.67 Q1261.21 1539.65 1265.22 1536.6 Q1269.26 1533.54 1277.25 1533.54 L1285.46 1533.54 L1285.46 1532.97 Q1285.46 1528.93 1282.79 1526.73 Q1280.15 1524.5 1275.34 1524.5 Q1272.28 1524.5 1269.39 1525.23 Q1266.49 1525.97 1263.82 1527.43 L1263.82 1522.02 Q1267.03 1520.78 1270.06 1520.17 Q1273.08 1519.54 1275.95 1519.54 Q1283.68 1519.54 1287.5 1523.55 Q1291.32 1527.56 1291.32 1535.71 Z" fill="#000000" fill-rule="evenodd" fill-opacity="1" /><path clip-path="url(#clip450)" d="M 0 0 M1297.46 1520.4 L1303.32 1520.4 L1303.32 1556.04 L1297.46 1556.04 L1297.46 1520.4 M1297.46 1506.52 L1303.32 1506.52 L1303.32 1513.93 L1297.46 1513.93 L1297.46 1506.52 Z" fill="#000000" fill-rule="evenodd" fill-opacity="1" /><path clip-path="url(#clip450)" d="M 0 0 M1339.09 1534.53 L1339.09 1556.04 L1333.24 1556.04 L1333.24 1534.72 Q1333.24 1529.66 1331.26 1527.14 Q1329.29 1524.63 1325.34 1524.63 Q1320.6 1524.63 1317.86 1527.65 Q1315.13 1530.68 1315.13 1535.9 L1315.13 1556.04 L1309.24 1556.04 L1309.24 1520.4 L1315.13 1520.4 L1315.13 1525.93 Q1317.23 1522.72 1320.06 1521.13 Q1322.92 1519.54 1326.65 1519.54 Q1332.79 1519.54 1335.94 1523.36 Q1339.09 1527.14 1339.09 1534.53 Z" fill="#000000" fill-rule="evenodd" fill-opacity="1" /><path clip-path="url(#clip450)" d="M 0 0 M1365.42 1506.52 L1378.91 1506.52 L1378.91 1511.07 L1371.27 1511.07 L1371.27 1560.09 L1378.91 1560.09 L1378.91 1564.64 L1365.42 1564.64 L1365.42 1506.52 Z" fill="#000000" fill-rule="evenodd" fill-opacity="1" /><path clip-path="url(#clip450)" d="M 0 0 M1408.51 1537.81 Q1408.51 1531.44 1405.87 1527.94 Q1403.26 1524.44 1398.52 1524.44 Q1393.81 1524.44 1391.16 1527.94 Q1388.55 1531.44 1388.55 1537.81 Q1388.55 1544.14 1391.16 1547.64 Q1393.81 1551.14 1398.52 1551.14 Q1403.26 1551.14 1405.87 1547.64 Q1408.51 1544.14 1408.51 1537.81 M1414.37 1551.62 Q1414.37 1560.72 1410.33 1565.15 Q1406.28 1569.6 1397.94 1569.6 Q1394.86 1569.6 1392.12 1569.13 Q1389.38 1568.68 1386.8 1567.72 L1386.8 1562.03 Q1389.38 1563.43 1391.9 1564.1 Q1394.41 1564.76 1397.02 1564.76 Q1402.78 1564.76 1405.65 1561.74 Q1408.51 1558.75 1408.51 1552.67 L1408.51 1549.77 Q1406.7 1552.92 1403.86 1554.48 Q1401.03 1556.04 1397.08 1556.04 Q1390.53 1556.04 1386.52 1551.05 Q1382.51 1546.05 1382.51 1537.81 Q1382.51 1529.53 1386.52 1524.53 Q1390.53 1519.54 1397.08 1519.54 Q1401.03 1519.54 1403.86 1521.1 Q1406.7 1522.66 1408.51 1525.81 L1408.51 1520.4 L1414.37 1520.4 L1414.37 1551.62 Z" fill="#000000" fill-rule="evenodd" fill-opacity="1" /><path clip-path="url(#clip450)" d="M 0 0 M1430.92 1508.52 L1436.33 1508.52 L1419.78 1562.09 L1414.37 1562.09 L1430.92 1508.52 Z" fill="#000000" fill-rule="evenodd" fill-opacity="1" /><path clip-path="url(#clip450)" d="M 0 0 M1442.25 1506.52 L1448.14 1506.52 L1448.14 1535.77 L1465.61 1520.4 L1473.09 1520.4 L1454.18 1537.07 L1473.89 1556.04 L1466.25 1556.04 L1448.14 1538.63 L1448.14 1556.04 L1442.25 1556.04 L1442.25 1506.52 Z" fill="#000000" fill-rule="evenodd" fill-opacity="1" /><path clip-path="url(#clip450)" d="M 0 0 M1503.49 1537.81 Q1503.49 1531.44 1500.85 1527.94 Q1498.24 1524.44 1493.49 1524.44 Q1488.78 1524.44 1486.14 1527.94 Q1483.53 1531.44 1483.53 1537.81 Q1483.53 1544.14 1486.14 1547.64 Q1488.78 1551.14 1493.49 1551.14 Q1498.24 1551.14 1500.85 1547.64 Q1503.49 1544.14 1503.49 1537.81 M1509.34 1551.62 Q1509.34 1560.72 1505.3 1565.15 Q1501.26 1569.6 1492.92 1569.6 Q1489.83 1569.6 1487.1 1569.13 Q1484.36 1568.68 1481.78 1567.72 L1481.78 1562.03 Q1484.36 1563.43 1486.87 1564.1 Q1489.39 1564.76 1492 1564.76 Q1497.76 1564.76 1500.62 1561.74 Q1503.49 1558.75 1503.49 1552.67 L1503.49 1549.77 Q1501.67 1552.92 1498.84 1554.48 Q1496.01 1556.04 1492.06 1556.04 Q1485.5 1556.04 1481.49 1551.05 Q1477.48 1546.05 1477.48 1537.81 Q1477.48 1529.53 1481.49 1524.53 Q1485.5 1519.54 1492.06 1519.54 Q1496.01 1519.54 1498.84 1521.1 Q1501.67 1522.66 1503.49 1525.81 L1503.49 1520.4 L1509.34 1520.4 L1509.34 1551.62 Z" fill="#000000" fill-rule="evenodd" fill-opacity="1" /><path clip-path="url(#clip450)" d="M 0 0 M1529.17 1506.52 L1529.17 1564.64 L1515.68 1564.64 L1515.68 1560.09 L1523.28 1560.09 L1523.28 1511.07 L1515.68 1511.07 L1515.68 1506.52 L1529.17 1506.52 Z" fill="#000000" fill-rule="evenodd" fill-opacity="1" /><path clip-path="url(#clip450)" d="M 0 0 M53.4065 1211.32 L58.9447 1211.32 Q57.6716 1213.8 57.035 1216.48 Q56.3984 1219.15 56.3984 1222.01 Q56.3984 1226.37 57.7352 1228.57 Q59.072 1230.73 61.7456 1230.73 Q63.7826 1230.73 64.9603 1229.17 Q66.1061 1227.62 67.1565 1222.9 L67.6021 1220.9 Q68.9389 1214.66 71.3897 1212.05 Q73.8086 1209.41 78.1691 1209.41 Q83.1344 1209.41 86.0308 1213.36 Q88.9272 1217.27 88.9272 1224.15 Q88.9272 1227.01 88.3543 1230.13 Q87.8132 1233.22 86.6992 1236.65 L80.6518 1236.65 Q82.3387 1233.41 83.198 1230.26 Q84.0256 1227.11 84.0256 1224.02 Q84.0256 1219.88 82.6251 1217.65 Q81.1929 1215.42 78.6147 1215.42 Q76.2276 1215.42 74.9545 1217.05 Q73.6813 1218.64 72.5037 1224.08 L72.0262 1226.12 Q70.8804 1231.56 68.5251 1233.98 Q66.138 1236.4 62.0002 1236.4 Q56.9713 1236.4 54.2341 1232.84 Q51.4968 1229.27 51.4968 1222.71 Q51.4968 1219.47 51.9743 1216.6 Q52.4517 1213.74 53.4065 1211.32 Z" fill="#000000" fill-rule="evenodd" fill-opacity="1" /><path clip-path="url(#clip450)" d="M 0 0 M66.4881 1173.63 L88.0042 1173.63 L88.0042 1179.49 L66.679 1179.49 Q61.6183 1179.49 59.1038 1181.46 Q56.5894 1183.44 56.5894 1187.38 Q56.5894 1192.13 59.6131 1194.86 Q62.6368 1197.6 67.8567 1197.6 L88.0042 1197.6 L88.0042 1203.49 L52.3562 1203.49 L52.3562 1197.6 L57.8944 1197.6 Q54.6797 1195.5 53.0883 1192.67 Q51.4968 1189.8 51.4968 1186.08 Q51.4968 1179.94 55.3163 1176.79 Q59.1038 1173.63 66.4881 1173.63 Z" fill="#000000" fill-rule="evenodd" fill-opacity="1" /><path clip-path="url(#clip450)" d="M 0 0 M56.4621 1153.68 Q56.4621 1158.39 60.1542 1161.13 Q63.8145 1163.86 70.212 1163.86 Q76.6095 1163.86 80.3017 1161.16 Q83.9619 1158.42 83.9619 1153.68 Q83.9619 1149 80.2698 1146.26 Q76.5777 1143.52 70.212 1143.52 Q63.8781 1143.52 60.186 1146.26 Q56.4621 1149 56.4621 1153.68 M51.4968 1153.68 Q51.4968 1146.04 56.4621 1141.68 Q61.4273 1137.32 70.212 1137.32 Q78.9649 1137.32 83.9619 1141.68 Q88.9272 1146.04 88.9272 1153.68 Q88.9272 1161.35 83.9619 1165.71 Q78.9649 1170.04 70.212 1170.04 Q61.4273 1170.04 56.4621 1165.71 Q51.4968 1161.35 51.4968 1153.68 Z" fill="#000000" fill-rule="evenodd" fill-opacity="1" /><path clip-path="url(#clip450)" d="M 0 0 M52.3562 1134.58 L52.3562 1128.72 L80.1743 1121.4 L52.3562 1114.11 L52.3562 1107.21 L80.1743 1099.89 L52.3562 1092.6 L52.3562 1086.74 L88.0042 1096.07 L88.0042 1102.97 L58.7856 1110.65 L88.0042 1118.35 L88.0042 1125.25 L52.3562 1134.58 Z" fill="#000000" fill-rule="evenodd" fill-opacity="1" /><path clip-path="url(#clip450)" d="M 0 0 M67.5384 1083.56 L67.5384 1066.4 L72.7583 1066.4 L72.7583 1083.56 L67.5384 1083.56 Z" fill="#000000" fill-rule="evenodd" fill-opacity="1" /><path clip-path="url(#clip450)" d="M 0 0 M57.8307 1039.6 Q57.2578 1040.59 57.0032 1041.77 Q56.7167 1042.91 56.7167 1044.31 Q56.7167 1049.28 59.9632 1051.95 Q63.1779 1054.6 69.2253 1054.6 L88.0042 1054.6 L88.0042 1060.48 L52.3562 1060.48 L52.3562 1054.6 L57.8944 1054.6 Q54.6479 1052.75 53.0883 1049.79 Q51.4968 1046.83 51.4968 1042.6 Q51.4968 1041.99 51.5923 1041.26 Q51.656 1040.53 51.8151 1039.64 L57.8307 1039.6 Z" fill="#000000" fill-rule="evenodd" fill-opacity="1" /><path clip-path="url(#clip450)" d="M 0 0 M70.0847 1017.26 Q70.0847 1024.36 71.7079 1027.1 Q73.3312 1029.83 77.2461 1029.83 Q80.3653 1029.83 82.2114 1027.8 Q84.0256 1025.73 84.0256 1022.19 Q84.0256 1017.32 80.5881 1014.4 Q77.1188 1011.44 71.3897 1011.44 L70.0847 1011.44 L70.0847 1017.26 M67.6657 1005.58 L88.0042 1005.58 L88.0042 1011.44 L82.5933 1011.44 Q85.8398 1013.44 87.3994 1016.43 Q88.9272 1019.42 88.9272 1023.75 Q88.9272 1029.23 85.8716 1032.47 Q82.7843 1035.69 77.6281 1035.69 Q71.6125 1035.69 68.5569 1031.68 Q65.5014 1027.64 65.5014 1019.65 L65.5014 1011.44 L64.9285 1011.44 Q60.8862 1011.44 58.6901 1014.11 Q56.4621 1016.75 56.4621 1021.56 Q56.4621 1024.61 57.1941 1027.51 Q57.9262 1030.41 59.3903 1033.08 L53.9795 1033.08 Q52.7381 1029.86 52.1334 1026.84 Q51.4968 1023.82 51.4968 1020.95 Q51.4968 1013.22 55.5072 1009.4 Q59.5176 1005.58 67.6657 1005.58 Z" fill="#000000" fill-rule="evenodd" fill-opacity="1" /><path clip-path="url(#clip450)" d="M 0 0 M52.3562 999.437 L52.3562 993.58 L88.0042 993.58 L88.0042 999.437 L52.3562 999.437 M38.479 999.437 L38.479 993.58 L45.895 993.58 L45.895 999.437 L38.479 999.437 Z" fill="#000000" fill-rule="evenodd" fill-opacity="1" /><path clip-path="url(#clip450)" d="M 0 0 M66.4881 957.805 L88.0042 957.805 L88.0042 963.661 L66.679 963.661 Q61.6183 963.661 59.1038 965.635 Q56.5894 967.608 56.5894 971.555 Q56.5894 976.297 59.6131 979.034 Q62.6368 981.772 67.8567 981.772 L88.0042 981.772 L88.0042 987.66 L52.3562 987.66 L52.3562 981.772 L57.8944 981.772 Q54.6797 979.671 53.0883 976.838 Q51.4968 973.974 51.4968 970.25 Q51.4968 964.107 55.3163 960.956 Q59.1038 957.805 66.4881 957.805 Z" fill="#000000" fill-rule="evenodd" fill-opacity="1" /><path clip-path="url(#clip450)" d="M 0 0 M70.0847 914.741 Q70.0847 921.839 71.7079 924.576 Q73.3312 927.313 77.2461 927.313 Q80.3653 927.313 82.2114 925.276 Q84.0256 923.207 84.0256 919.674 Q84.0256 914.804 80.5881 911.876 Q77.1188 908.916 71.3897 908.916 L70.0847 908.916 L70.0847 914.741 M67.6657 903.06 L88.0042 903.06 L88.0042 908.916 L82.5933 908.916 Q85.8398 910.921 87.3994 913.913 Q88.9272 916.905 88.9272 921.234 Q88.9272 926.708 85.8716 929.955 Q82.7843 933.17 77.6281 933.17 Q71.6125 933.17 68.5569 929.159 Q65.5014 925.117 65.5014 917.128 L65.5014 908.916 L64.9285 908.916 Q60.8862 908.916 58.6901 911.59 Q56.4621 914.232 56.4621 919.038 Q56.4621 922.093 57.1941 924.99 Q57.9262 927.886 59.3903 930.56 L53.9795 930.56 Q52.7381 927.345 52.1334 924.321 Q51.4968 921.297 51.4968 918.433 Q51.4968 910.699 55.5072 906.879 Q59.5176 903.06 67.6657 903.06 Z" fill="#000000" fill-rule="evenodd" fill-opacity="1" /><path clip-path="url(#clip450)" d="M 0 0 M53.7248 871.263 L59.1993 871.263 Q57.8307 873.746 57.1623 876.26 Q56.4621 878.743 56.4621 881.289 Q56.4621 886.986 60.0905 890.137 Q63.6872 893.288 70.212 893.288 Q76.7369 893.288 80.3653 890.137 Q83.9619 886.986 83.9619 881.289 Q83.9619 878.743 83.2935 876.26 Q82.5933 873.746 81.2247 871.263 L86.6355 871.263 Q87.7814 873.714 88.3543 876.356 Q88.9272 878.966 88.9272 881.926 Q88.9272 889.978 83.8664 894.721 Q78.8057 899.463 70.212 899.463 Q61.491 899.463 56.4939 894.689 Q51.4968 889.883 51.4968 881.544 Q51.4968 878.838 52.0697 876.26 Q52.6108 873.682 53.7248 871.263 Z" fill="#000000" fill-rule="evenodd" fill-opacity="1" /><path clip-path="url(#clip450)" d="M 0 0 M53.7248 839.466 L59.1993 839.466 Q57.8307 841.949 57.1623 844.463 Q56.4621 846.946 56.4621 849.492 Q56.4621 855.19 60.0905 858.341 Q63.6872 861.492 70.212 861.492 Q76.7369 861.492 80.3653 858.341 Q83.9619 855.19 83.9619 849.492 Q83.9619 846.946 83.2935 844.463 Q82.5933 841.949 81.2247 839.466 L86.6355 839.466 Q87.7814 841.917 88.3543 844.559 Q88.9272 847.169 88.9272 850.129 Q88.9272 858.182 83.8664 862.924 Q78.8057 867.666 70.212 867.666 Q61.491 867.666 56.4939 862.892 Q51.4968 858.086 51.4968 849.747 Q51.4968 847.042 52.0697 844.463 Q52.6108 841.885 53.7248 839.466 Z" fill="#000000" fill-rule="evenodd" fill-opacity="1" /><path clip-path="url(#clip450)" d="M 0 0 M57.8307 812.667 Q57.2578 813.653 57.0032 814.831 Q56.7167 815.977 56.7167 817.377 Q56.7167 822.343 59.9632 825.016 Q63.1779 827.658 69.2253 827.658 L88.0042 827.658 L88.0042 833.546 L52.3562 833.546 L52.3562 827.658 L57.8944 827.658 Q54.6479 825.812 53.0883 822.852 Q51.4968 819.892 51.4968 815.659 Q51.4968 815.054 51.5923 814.322 Q51.656 813.59 51.8151 812.699 L57.8307 812.667 Z" fill="#000000" fill-rule="evenodd" fill-opacity="1" /><path clip-path="url(#clip450)" d="M 0 0 M68.7161 777.464 L71.5806 777.464 L71.5806 804.391 Q77.6281 804.009 80.8109 800.763 Q83.9619 797.484 83.9619 791.66 Q83.9619 788.286 83.1344 785.135 Q82.3069 781.952 80.6518 778.833 L86.1899 778.833 Q87.5267 781.984 88.227 785.294 Q88.9272 788.604 88.9272 792.01 Q88.9272 800.54 83.9619 805.537 Q78.9967 810.502 70.5303 810.502 Q61.7774 810.502 56.6531 805.792 Q51.4968 801.049 51.4968 793.028 Q51.4968 785.835 56.1438 781.666 Q60.7589 777.464 68.7161 777.464 M66.9973 783.321 Q62.1912 783.384 59.3266 786.026 Q56.4621 788.636 56.4621 792.965 Q56.4621 797.866 59.2312 800.826 Q62.0002 803.755 67.0292 804.2 L66.9973 783.321 Z" fill="#000000" fill-rule="evenodd" fill-opacity="1" /><path clip-path="url(#clip450)" d="M 0 0 M42.2347 765.529 L52.3562 765.529 L52.3562 753.466 L56.9077 753.466 L56.9077 765.529 L76.2594 765.529 Q80.6199 765.529 81.8613 764.351 Q83.1026 763.142 83.1026 759.481 L83.1026 753.466 L88.0042 753.466 L88.0042 759.481 Q88.0042 766.261 85.4897 768.839 Q82.9434 771.417 76.2594 771.417 L56.9077 771.417 L56.9077 775.714 L52.3562 775.714 L52.3562 771.417 L42.2347 771.417 L42.2347 765.529 Z" fill="#000000" fill-rule="evenodd" fill-opacity="1" /><path clip-path="url(#clip450)" d="M 0 0 M52.3562 747.323 L52.3562 741.466 L88.0042 741.466 L88.0042 747.323 L52.3562 747.323 M38.479 747.323 L38.479 741.466 L45.895 741.466 L45.895 747.323 L38.479 747.323 Z" fill="#000000" fill-rule="evenodd" fill-opacity="1" /><path clip-path="url(#clip450)" d="M 0 0 M56.4621 721.51 Q56.4621 726.22 60.1542 728.958 Q63.8145 731.695 70.212 731.695 Q76.6095 731.695 80.3017 728.989 Q83.9619 726.252 83.9619 721.51 Q83.9619 716.831 80.2698 714.094 Q76.5777 711.356 70.212 711.356 Q63.8781 711.356 60.186 714.094 Q56.4621 716.831 56.4621 721.51 M51.4968 721.51 Q51.4968 713.871 56.4621 709.51 Q61.4273 705.15 70.212 705.15 Q78.9649 705.15 83.9619 709.51 Q88.9272 713.871 88.9272 721.51 Q88.9272 729.18 83.9619 733.541 Q78.9649 737.87 70.212 737.87 Q61.4273 737.87 56.4621 733.541 Q51.4968 729.18 51.4968 721.51 Z" fill="#000000" fill-rule="evenodd" fill-opacity="1" /><path clip-path="url(#clip450)" d="M 0 0 M66.4881 669.375 L88.0042 669.375 L88.0042 675.231 L66.679 675.231 Q61.6183 675.231 59.1038 677.204 Q56.5894 679.178 56.5894 683.125 Q56.5894 687.867 59.6131 690.604 Q62.6368 693.342 67.8567 693.342 L88.0042 693.342 L88.0042 699.23 L52.3562 699.23 L52.3562 693.342 L57.8944 693.342 Q54.6797 691.241 53.0883 688.408 Q51.4968 685.544 51.4968 681.82 Q51.4968 675.677 55.3163 672.526 Q59.1038 669.375 66.4881 669.375 Z" fill="#000000" fill-rule="evenodd" fill-opacity="1" /><path clip-path="url(#clip450)" d="M 0 0 M57.8307 621.855 Q57.2578 622.841 57.0032 624.019 Q56.7167 625.165 56.7167 626.565 Q56.7167 631.531 59.9632 634.204 Q63.1779 636.846 69.2253 636.846 L88.0042 636.846 L88.0042 642.734 L52.3562 642.734 L52.3562 636.846 L57.8944 636.846 Q54.6479 635 53.0883 632.04 Q51.4968 629.08 51.4968 624.847 Q51.4968 624.242 51.5923 623.51 Q51.656 622.778 51.8151 621.886 L57.8307 621.855 Z" fill="#000000" fill-rule="evenodd" fill-opacity="1" /><path clip-path="url(#clip450)" d="M 0 0 M70.0847 599.511 Q70.0847 606.609 71.7079 609.346 Q73.3312 612.083 77.2461 612.083 Q80.3653 612.083 82.2114 610.046 Q84.0256 607.977 84.0256 604.444 Q84.0256 599.575 80.5881 596.646 Q77.1188 593.686 71.3897 593.686 L70.0847 593.686 L70.0847 599.511 M67.6657 587.83 L88.0042 587.83 L88.0042 593.686 L82.5933 593.686 Q85.8398 595.692 87.3994 598.683 Q88.9272 601.675 88.9272 606.004 Q88.9272 611.479 85.8716 614.725 Q82.7843 617.94 77.6281 617.94 Q71.6125 617.94 68.5569 613.929 Q65.5014 609.887 65.5014 601.898 L65.5014 593.686 L64.9285 593.686 Q60.8862 593.686 58.6901 596.36 Q56.4621 599.002 56.4621 603.808 Q56.4621 606.863 57.1941 609.76 Q57.9262 612.656 59.3903 615.33 L53.9795 615.33 Q52.7381 612.115 52.1334 609.091 Q51.4968 606.068 51.4968 603.203 Q51.4968 595.469 55.5072 591.649 Q59.5176 587.83 67.6657 587.83 Z" fill="#000000" fill-rule="evenodd" fill-opacity="1" /><path clip-path="url(#clip450)" d="M 0 0 M42.2347 575.894 L52.3562 575.894 L52.3562 563.831 L56.9077 563.831 L56.9077 575.894 L76.2594 575.894 Q80.6199 575.894 81.8613 574.717 Q83.1026 573.507 83.1026 569.847 L83.1026 563.831 L88.0042 563.831 L88.0042 569.847 Q88.0042 576.626 85.4897 579.204 Q82.9434 581.783 76.2594 581.783 L56.9077 581.783 L56.9077 586.079 L52.3562 586.079 L52.3562 581.783 L42.2347 581.783 L42.2347 575.894 Z" fill="#000000" fill-rule="evenodd" fill-opacity="1" /><path clip-path="url(#clip450)" d="M 0 0 M68.7161 527.197 L71.5806 527.197 L71.5806 554.124 Q77.6281 553.742 80.8109 550.495 Q83.9619 547.217 83.9619 541.392 Q83.9619 538.018 83.1344 534.867 Q82.3069 531.684 80.6518 528.565 L86.1899 528.565 Q87.5267 531.716 88.227 535.026 Q88.9272 538.337 88.9272 541.742 Q88.9272 550.272 83.9619 555.269 Q78.9967 560.235 70.5303 560.235 Q61.7774 560.235 56.6531 555.524 Q51.4968 550.782 51.4968 542.761 Q51.4968 535.567 56.1438 531.398 Q60.7589 527.197 68.7161 527.197 M66.9973 533.053 Q62.1912 533.117 59.3266 535.758 Q56.4621 538.368 56.4621 542.697 Q56.4621 547.599 59.2312 550.559 Q62.0002 553.487 67.0292 553.933 L66.9973 533.053 Z" fill="#000000" fill-rule="evenodd" fill-opacity="1" /><path clip-path="url(#clip450)" d="M 0 0 M38.479 500.874 L38.479 487.379 L43.0304 487.379 L43.0304 495.018 L92.0464 495.018 L92.0464 487.379 L96.5979 487.379 L96.5979 500.874 L38.479 500.874 Z" fill="#000000" fill-rule="evenodd" fill-opacity="1" /><path clip-path="url(#clip450)" d="M 0 0 M82.5933 479.295 L82.5933 468.791 L46.3406 468.791 L48.6323 480.218 L42.7758 480.218 L40.4842 468.855 L40.4842 462.426 L82.5933 462.426 L82.5933 451.922 L88.0042 451.922 L88.0042 479.295 L82.5933 479.295 Z" fill="#000000" fill-rule="evenodd" fill-opacity="1" /><path clip-path="url(#clip450)" d="M 0 0 M40.4842 435.371 L40.4842 429.96 L94.0516 446.511 L94.0516 451.922 L40.4842 435.371 Z" fill="#000000" fill-rule="evenodd" fill-opacity="1" /><path clip-path="url(#clip450)" d="M 0 0 M53.4065 401.092 L58.9447 401.092 Q57.6716 403.575 57.035 406.248 Q56.3984 408.922 56.3984 411.786 Q56.3984 416.147 57.7352 418.343 Q59.072 420.507 61.7456 420.507 Q63.7826 420.507 64.9603 418.948 Q66.1061 417.388 67.1565 412.678 L67.6021 410.672 Q68.9389 404.434 71.3897 401.824 Q73.8086 399.182 78.1691 399.182 Q83.1344 399.182 86.0308 403.129 Q88.9272 407.044 88.9272 413.919 Q88.9272 416.783 88.3543 419.903 Q87.8132 422.99 86.6992 426.427 L80.6518 426.427 Q82.3387 423.181 83.198 420.03 Q84.0256 416.879 84.0256 413.792 Q84.0256 409.654 82.6251 407.426 Q81.1929 405.198 78.6147 405.198 Q76.2276 405.198 74.9545 406.821 Q73.6813 408.413 72.5037 413.855 L72.0262 415.892 Q70.8804 421.335 68.5251 423.754 Q66.138 426.173 62.0002 426.173 Q56.9713 426.173 54.2341 422.608 Q51.4968 419.043 51.4968 412.487 Q51.4968 409.24 51.9743 406.375 Q52.4517 403.511 53.4065 401.092 Z" fill="#000000" fill-rule="evenodd" fill-opacity="1" /><path clip-path="url(#clip450)" d="M 0 0 M38.479 379.353 L96.5979 379.353 L96.5979 392.848 L92.0464 392.848 L92.0464 385.241 L43.0304 385.241 L43.0304 392.848 L38.479 392.848 L38.479 379.353 Z" fill="#000000" fill-rule="evenodd" fill-opacity="1" /><path clip-path="url(#clip450)" d="M 0 0 M40.4842 358.824 L40.4842 318.624 L45.895 318.624 L45.895 335.493 L88.0042 335.493 L88.0042 341.955 L45.895 341.955 L45.895 358.824 L40.4842 358.824 Z" fill="#000000" fill-rule="evenodd" fill-opacity="1" /><path clip-path="url(#clip450)" d="M 0 0 M55.921 311.717 L50.1282 311.717 L64.9285 270.913 L70.212 270.913 L85.0123 311.717 L79.2195 311.717 L67.6021 278.934 L55.921 311.717 Z" fill="#000000" fill-rule="evenodd" fill-opacity="1" /><path clip-path="url(#clip450)" d="M 0 0 M44.7174 250.193 Q44.7174 255.158 49.6189 257.673 Q54.4887 260.155 64.2919 260.155 Q74.0633 260.155 78.9649 257.673 Q83.8346 255.158 83.8346 250.193 Q83.8346 245.196 78.9649 242.713 Q74.0633 240.199 64.2919 240.199 Q54.4887 240.199 49.6189 242.713 Q44.7174 245.196 44.7174 250.193 M39.6248 250.193 Q39.6248 242.204 45.9587 238.003 Q52.2607 233.769 64.2919 233.769 Q76.2913 233.769 82.6251 238.003 Q88.9272 242.204 88.9272 250.193 Q88.9272 258.182 82.6251 262.415 Q76.2913 266.616 64.2919 266.616 Q52.2607 266.616 45.9587 262.415 Q39.6248 258.182 39.6248 250.193 Z" fill="#000000" fill-rule="evenodd" fill-opacity="1" /><polyline clip-path="url(#clip452)" style="stroke:#009af9; stroke-width:12; stroke-opacity:1; fill:none" points="
  398.735,1384.24 417.898,1383.7 437.06,1383.48 456.223,1383.31 475.386,1383.17 494.548,1383.04 513.711,1382.92 532.874,1382.81 552.037,1382.71 571.199,1382.62 
  590.362,1382.52 609.525,1382.44 628.687,1382.35 647.85,1382.27 667.013,1382.19 686.175,1382.11 705.338,1382.04 724.501,1381.97 743.664,1381.9 762.826,1381.83 
  781.989,1381.76 801.152,1381.69 820.314,1381.63 839.477,1381.56 858.64,1381.5 877.802,1381.44 896.965,1381.38 916.128,1381.32 935.291,1381.26 954.453,1381.2 
  973.616,1381.14 992.779,1381.09 1011.94,1381.03 1031.1,1380.98 1050.27,1380.92 1069.43,1380.87 1088.59,1380.81 1107.75,1380.76 1126.92,1380.71 1146.08,1380.66 
  1165.24,1380.6 1184.41,1380.55 1203.57,1380.5 1222.73,1380.45 1241.89,1380.4 1261.06,1380.36 1280.22,1380.31 1299.38,1380.26 1318.54,1380.21 1337.71,1380.16 
  1356.87,1380.12 1376.03,1380.07 1395.2,1380.02 1414.36,1379.98 1433.52,1379.93 1452.68,1379.89 1471.85,1379.84 1491.01,1379.8 1510.17,1379.75 1529.33,1379.71 
  1548.5,1379.66 1567.66,1379.62 1586.82,1379.58 1605.99,1379.53 1625.15,1379.49 1644.31,1379.45 1663.47,1379.4 1682.64,1379.36 1701.8,1379.32 1720.96,1379.28 
  1740.12,1379.24 1759.29,1379.2 1778.45,1379.15 1797.61,1379.11 1816.78,1379.07 1835.94,1379.03 1855.1,1378.99 1874.26,1378.95 1893.43,1378.91 1912.59,1378.87 
  1931.75,1378.83 1950.91,1378.79 1970.08,1378.75 1989.24,1378.71 2008.4,1378.68 2027.56,1378.64 2046.73,1378.6 2065.89,1378.56 2085.05,1378.52 2104.22,1378.48 
  2123.38,1378.44 2142.54,1378.41 2161.7,1378.37 2180.87,1378.33 2200.03,1378.29 2219.19,1378.26 2238.35,1378.22 2257.52,1378.18 2276.68,1378.15 2295.84,1378.11 
  
  "/>
<polyline clip-path="url(#clip452)" style="stroke:#e26f46; stroke-width:12; stroke-opacity:1; fill:none" points="
  398.735,1384.08 417.898,1375.35 437.06,1371.98 456.223,1369.4 475.386,1367.23 494.548,1365.32 513.711,1363.58 532.874,1361.98 552.037,1360.48 571.199,1359.07 
  590.362,1357.73 609.525,1356.45 628.687,1355.23 647.85,1354.05 667.013,1352.91 686.175,1351.81 705.338,1350.74 724.501,1349.7 743.664,1348.69 762.826,1347.7 
  781.989,1346.74 801.152,1345.8 820.314,1344.88 839.477,1343.97 858.64,1343.09 877.802,1342.22 896.965,1341.36 916.128,1340.52 935.291,1339.69 954.453,1338.88 
  973.616,1338.07 992.779,1337.28 1011.94,1336.5 1031.1,1335.73 1050.27,1334.97 1069.43,1334.22 1088.59,1333.48 1107.75,1332.75 1126.92,1332.02 1146.08,1331.3 
  1165.24,1330.6 1184.41,1329.89 1203.57,1329.2 1222.73,1328.51 1241.89,1327.83 1261.06,1327.16 1280.22,1326.49 1299.38,1325.83 1318.54,1325.17 1337.71,1324.52 
  1356.87,1323.88 1376.03,1323.24 1395.2,1322.61 1414.36,1321.98 1433.52,1321.35 1452.68,1320.73 1471.85,1320.12 1491.01,1319.51 1510.17,1318.9 1529.33,1318.3 
  1548.5,1317.7 1567.66,1317.11 1586.82,1316.52 1605.99,1315.93 1625.15,1315.35 1644.31,1314.77 1663.47,1314.2 1682.64,1313.63 1701.8,1313.06 1720.96,1312.5 
  1740.12,1311.94 1759.29,1311.38 1778.45,1310.82 1797.61,1310.27 1816.78,1309.72 1835.94,1309.18 1855.1,1308.64 1874.26,1308.1 1893.43,1307.56 1912.59,1307.03 
  1931.75,1306.49 1950.91,1305.97 1970.08,1305.44 1989.24,1304.92 2008.4,1304.39 2027.56,1303.88 2046.73,1303.36 2065.89,1302.85 2085.05,1302.33 2104.22,1301.82 
  2123.38,1301.32 2142.54,1300.81 2161.7,1300.31 2180.87,1299.81 2200.03,1299.31 2219.19,1298.82 2238.35,1298.32 2257.52,1297.83 2276.68,1297.34 2295.84,1296.85 
  
  "/>
<polyline clip-path="url(#clip452)" style="stroke:#3da44d; stroke-width:12; stroke-opacity:1; fill:none" points="
  398.735,1381.59 417.898,1238.06 437.06,1184.48 456.223,1144.02 475.386,1110.18 494.548,1080.5 513.711,1053.73 532.874,1029.15 552.037,1006.29 571.199,984.83 
  590.362,964.529 609.525,945.216 628.687,926.754 647.85,909.036 667.013,891.975 686.175,875.501 705.338,859.554 724.501,844.085 743.664,829.05 762.826,814.413 
  781.989,800.142 801.152,786.21 820.314,772.592 839.477,759.266 858.64,746.213 877.802,733.416 896.965,720.86 916.128,708.53 935.291,696.413 954.453,684.498 
  973.616,672.775 992.779,661.233 1011.94,649.865 1031.1,638.661 1050.27,627.614 1069.43,616.717 1088.59,605.963 1107.75,595.348 1126.92,584.864 1146.08,574.507 
  1165.24,564.271 1184.41,554.153 1203.57,544.147 1222.73,534.25 1241.89,524.458 1261.06,514.767 1280.22,505.174 1299.38,495.676 1318.54,486.269 1337.71,476.951 
  1356.87,467.718 1376.03,458.57 1395.2,449.502 1414.36,440.512 1433.52,431.599 1452.68,422.76 1471.85,413.993 1491.01,405.297 1510.17,396.668 1529.33,388.106 
  1548.5,379.609 1567.66,371.175 1586.82,362.803 1605.99,354.491 1625.15,346.237 1644.31,338.041 1663.47,329.9 1682.64,321.815 1701.8,313.783 1720.96,305.803 
  1740.12,297.874 1759.29,289.995 1778.45,282.165 1797.61,274.383 1816.78,266.648 1835.94,258.959 1855.1,251.314 1874.26,243.715 1893.43,236.158 1912.59,228.644 
  1931.75,221.171 1950.91,213.739 1970.08,206.348 1989.24,198.995 2008.4,191.682 2027.56,184.406 2046.73,177.167 2065.89,169.966 2085.05,162.8 2104.22,155.669 
  2123.38,148.574 2142.54,141.512 2161.7,134.484 2180.87,127.489 2200.03,120.527 2219.19,113.597 2238.35,106.698 2257.52,99.8301 2276.68,92.9929 2295.84,86.1857 
  
  "/>
<path clip-path="url(#clip450)" d="
M1773.93 335.029 L2285.72 335.029 L2285.72 93.1086 L1773.93 93.1086  Z
  " fill="#ffffff" fill-rule="evenodd" fill-opacity="1"/>
<polyline clip-path="url(#clip450)" style="stroke:#000000; stroke-width:4; stroke-opacity:1; fill:none" points="
  1773.93,335.029 2285.72,335.029 2285.72,93.1086 1773.93,93.1086 1773.93,335.029 
  "/>
<polyline clip-path="url(#clip450)" style="stroke:#009af9; stroke-width:4; stroke-opacity:1; fill:none" points="
  1796.28,153.589 1930.34,153.589 
  "/>
<path clip-path="url(#clip450)" d="M 0 0 M1957.08 157.929 Q1957.08 162.628 1959 165.313 Q1960.95 167.975 1964.33 167.975 Q1967.71 167.975 1969.65 165.313 Q1971.59 162.628 1971.59 157.929 Q1971.59 153.23 1969.65 150.568 Q1967.71 147.883 1964.33 147.883 Q1960.95 147.883 1959 150.568 Q1957.08 153.23 1957.08 157.929 M1971.59 166.98 Q1970.25 169.295 1968.19 170.429 Q1966.15 171.54 1963.28 171.54 Q1958.59 171.54 1955.62 167.79 Q1952.68 164.04 1952.68 157.929 Q1952.68 151.818 1955.62 148.068 Q1958.59 144.318 1963.28 144.318 Q1966.15 144.318 1968.19 145.452 Q1970.25 146.563 1971.59 148.878 L1971.59 144.943 L1975.85 144.943 L1975.85 180.73 L1971.59 180.73 L1971.59 166.98 Z" fill="#000000" fill-rule="evenodd" fill-opacity="1" /><path clip-path="url(#clip450)" d="M 0 0 M2000.02 178.739 L2000.02 182.049 L1975.39 182.049 L1975.39 178.739 L2000.02 178.739 Z" fill="#000000" fill-rule="evenodd" fill-opacity="1" /><path clip-path="url(#clip450)" d="M 0 0 M2021.02 145.707 L2021.02 149.734 Q2019.21 148.809 2017.27 148.346 Q2015.32 147.883 2013.24 147.883 Q2010.07 147.883 2008.47 148.855 Q2006.9 149.827 2006.9 151.771 Q2006.9 153.253 2008.03 154.109 Q2009.16 154.943 2012.59 155.707 L2014.05 156.031 Q2018.58 157.003 2020.48 158.785 Q2022.4 160.545 2022.4 163.716 Q2022.4 167.327 2019.53 169.433 Q2016.69 171.54 2011.69 171.54 Q2009.6 171.54 2007.33 171.123 Q2005.09 170.73 2002.59 169.92 L2002.59 165.521 Q2004.95 166.748 2007.24 167.373 Q2009.53 167.975 2011.78 167.975 Q2014.79 167.975 2016.41 166.957 Q2018.03 165.915 2018.03 164.04 Q2018.03 162.304 2016.85 161.378 Q2015.69 160.452 2011.73 159.596 L2010.25 159.248 Q2006.29 158.415 2004.53 156.702 Q2002.77 154.966 2002.77 151.957 Q2002.77 148.299 2005.37 146.309 Q2007.96 144.318 2012.73 144.318 Q2015.09 144.318 2017.17 144.665 Q2019.26 145.012 2021.02 145.707 Z" fill="#000000" fill-rule="evenodd" fill-opacity="1" /><path clip-path="url(#clip450)" d="M 0 0 M2048.42 155.221 L2048.42 170.869 L2044.16 170.869 L2044.16 155.359 Q2044.16 151.679 2042.73 149.85 Q2041.29 148.022 2038.42 148.022 Q2034.97 148.022 2032.98 150.221 Q2030.99 152.42 2030.99 156.216 L2030.99 170.869 L2026.71 170.869 L2026.71 144.943 L2030.99 144.943 L2030.99 148.971 Q2032.52 146.633 2034.58 145.475 Q2036.66 144.318 2039.37 144.318 Q2043.84 144.318 2046.13 147.096 Q2048.42 149.85 2048.42 155.221 Z" fill="#000000" fill-rule="evenodd" fill-opacity="1" /><path clip-path="url(#clip450)" d="M 0 0 M2062.94 147.929 Q2059.51 147.929 2057.52 150.614 Q2055.53 153.276 2055.53 157.929 Q2055.53 162.582 2057.5 165.267 Q2059.49 167.929 2062.94 167.929 Q2066.34 167.929 2068.33 165.244 Q2070.32 162.558 2070.32 157.929 Q2070.32 153.322 2068.33 150.637 Q2066.34 147.929 2062.94 147.929 M2062.94 144.318 Q2068.49 144.318 2071.66 147.929 Q2074.83 151.54 2074.83 157.929 Q2074.83 164.295 2071.66 167.929 Q2068.49 171.54 2062.94 171.54 Q2057.36 171.54 2054.19 167.929 Q2051.04 164.295 2051.04 157.929 Q2051.04 151.54 2054.19 147.929 Q2057.36 144.318 2062.94 144.318 Z" fill="#000000" fill-rule="evenodd" fill-opacity="1" /><path clip-path="url(#clip450)" d="M 0 0 M2076.83 144.943 L2081.08 144.943 L2086.41 165.174 L2091.71 144.943 L2096.73 144.943 L2102.06 165.174 L2107.36 144.943 L2111.62 144.943 L2104.83 170.869 L2099.81 170.869 L2094.23 149.619 L2088.63 170.869 L2083.61 170.869 L2076.83 144.943 Z" fill="#000000" fill-rule="evenodd" fill-opacity="1" /><path clip-path="url(#clip450)" d="M 0 0 M2116.64 149.341 L2146.32 149.341 L2146.32 153.23 L2116.64 153.23 L2116.64 149.341 M2116.64 158.785 L2146.32 158.785 L2146.32 162.721 L2116.64 162.721 L2116.64 158.785 Z" fill="#000000" fill-rule="evenodd" fill-opacity="1" /><path clip-path="url(#clip450)" d="M 0 0 M2152.2 166.933 L2159.83 166.933 L2159.83 140.568 L2151.52 142.235 L2151.52 137.975 L2159.79 136.309 L2164.46 136.309 L2164.46 166.933 L2172.1 166.933 L2172.1 170.869 L2152.2 170.869 L2152.2 166.933 Z" fill="#000000" fill-rule="evenodd" fill-opacity="1" /><path clip-path="url(#clip450)" d="M 0 0 M2198.75 156.841 L2198.75 158.924 L2179.16 158.924 Q2179.44 163.322 2181.8 165.637 Q2184.19 167.929 2188.42 167.929 Q2190.88 167.929 2193.17 167.327 Q2195.48 166.725 2197.75 165.521 L2197.75 169.549 Q2195.46 170.521 2193.05 171.031 Q2190.64 171.54 2188.17 171.54 Q2181.96 171.54 2178.33 167.929 Q2174.72 164.318 2174.72 158.16 Q2174.72 151.795 2178.14 148.068 Q2181.59 144.318 2187.43 144.318 Q2192.66 144.318 2195.69 147.697 Q2198.75 151.054 2198.75 156.841 M2194.49 155.591 Q2194.44 152.096 2192.52 150.012 Q2190.62 147.929 2187.47 147.929 Q2183.91 147.929 2181.76 149.943 Q2179.63 151.957 2179.3 155.614 L2194.49 155.591 Z" fill="#000000" fill-rule="evenodd" fill-opacity="1" /><path clip-path="url(#clip450)" d="M 0 0 M2201.06 155.984 L2213.54 155.984 L2213.54 159.781 L2201.06 159.781 L2201.06 155.984 Z" fill="#000000" fill-rule="evenodd" fill-opacity="1" /><path clip-path="url(#clip450)" d="M 0 0 M2229.19 151.725 Q2226.04 151.725 2224.19 153.878 Q2222.36 156.031 2222.36 159.781 Q2222.36 163.508 2224.19 165.683 Q2226.04 167.836 2229.19 167.836 Q2232.33 167.836 2234.16 165.683 Q2236.01 163.508 2236.01 159.781 Q2236.01 156.031 2234.16 153.878 Q2232.33 151.725 2229.19 151.725 M2238.47 137.073 L2238.47 141.332 Q2236.71 140.498 2234.9 140.059 Q2233.12 139.619 2231.36 139.619 Q2226.73 139.619 2224.28 142.744 Q2221.85 145.869 2221.5 152.188 Q2222.87 150.174 2224.93 149.109 Q2226.99 148.022 2229.46 148.022 Q2234.67 148.022 2237.68 151.193 Q2240.71 154.341 2240.71 159.781 Q2240.71 165.105 2237.57 168.322 Q2234.42 171.54 2229.19 171.54 Q2223.19 171.54 2220.02 166.957 Q2216.85 162.35 2216.85 153.623 Q2216.85 145.429 2220.74 140.568 Q2224.63 135.684 2231.18 135.684 Q2232.94 135.684 2234.72 136.031 Q2236.52 136.378 2238.47 137.073 Z" fill="#000000" fill-rule="evenodd" fill-opacity="1" /><polyline clip-path="url(#clip450)" style="stroke:#e26f46; stroke-width:4; stroke-opacity:1; fill:none" points="
  1796.28,214.069 1930.34,214.069 
  "/>
<path clip-path="url(#clip450)" d="M 0 0 M1957.08 218.409 Q1957.08 223.108 1959 225.793 Q1960.95 228.455 1964.33 228.455 Q1967.71 228.455 1969.65 225.793 Q1971.59 223.108 1971.59 218.409 Q1971.59 213.71 1969.65 211.048 Q1967.71 208.363 1964.33 208.363 Q1960.95 208.363 1959 211.048 Q1957.08 213.71 1957.08 218.409 M1971.59 227.46 Q1970.25 229.775 1968.19 230.909 Q1966.15 232.02 1963.28 232.02 Q1958.59 232.02 1955.62 228.27 Q1952.68 224.52 1952.68 218.409 Q1952.68 212.298 1955.62 208.548 Q1958.59 204.798 1963.28 204.798 Q1966.15 204.798 1968.19 205.932 Q1970.25 207.043 1971.59 209.358 L1971.59 205.423 L1975.85 205.423 L1975.85 241.21 L1971.59 241.21 L1971.59 227.46 Z" fill="#000000" fill-rule="evenodd" fill-opacity="1" /><path clip-path="url(#clip450)" d="M 0 0 M2000.02 239.219 L2000.02 242.529 L1975.39 242.529 L1975.39 239.219 L2000.02 239.219 Z" fill="#000000" fill-rule="evenodd" fill-opacity="1" /><path clip-path="url(#clip450)" d="M 0 0 M2021.02 206.187 L2021.02 210.214 Q2019.21 209.289 2017.27 208.826 Q2015.32 208.363 2013.24 208.363 Q2010.07 208.363 2008.47 209.335 Q2006.9 210.307 2006.9 212.251 Q2006.9 213.733 2008.03 214.589 Q2009.16 215.423 2012.59 216.187 L2014.05 216.511 Q2018.58 217.483 2020.48 219.265 Q2022.4 221.025 2022.4 224.196 Q2022.4 227.807 2019.53 229.913 Q2016.69 232.02 2011.69 232.02 Q2009.6 232.02 2007.33 231.603 Q2005.09 231.21 2002.59 230.4 L2002.59 226.001 Q2004.95 227.228 2007.24 227.853 Q2009.53 228.455 2011.78 228.455 Q2014.79 228.455 2016.41 227.437 Q2018.03 226.395 2018.03 224.52 Q2018.03 222.784 2016.85 221.858 Q2015.69 220.932 2011.73 220.076 L2010.25 219.728 Q2006.29 218.895 2004.53 217.182 Q2002.77 215.446 2002.77 212.437 Q2002.77 208.779 2005.37 206.789 Q2007.96 204.798 2012.73 204.798 Q2015.09 204.798 2017.17 205.145 Q2019.26 205.492 2021.02 206.187 Z" fill="#000000" fill-rule="evenodd" fill-opacity="1" /><path clip-path="url(#clip450)" d="M 0 0 M2048.42 215.701 L2048.42 231.349 L2044.16 231.349 L2044.16 215.839 Q2044.16 212.159 2042.73 210.33 Q2041.29 208.502 2038.42 208.502 Q2034.97 208.502 2032.98 210.701 Q2030.99 212.9 2030.99 216.696 L2030.99 231.349 L2026.71 231.349 L2026.71 205.423 L2030.99 205.423 L2030.99 209.451 Q2032.52 207.113 2034.58 205.955 Q2036.66 204.798 2039.37 204.798 Q2043.84 204.798 2046.13 207.576 Q2048.42 210.33 2048.42 215.701 Z" fill="#000000" fill-rule="evenodd" fill-opacity="1" /><path clip-path="url(#clip450)" d="M 0 0 M2062.94 208.409 Q2059.51 208.409 2057.52 211.094 Q2055.53 213.756 2055.53 218.409 Q2055.53 223.062 2057.5 225.747 Q2059.49 228.409 2062.94 228.409 Q2066.34 228.409 2068.33 225.724 Q2070.32 223.038 2070.32 218.409 Q2070.32 213.802 2068.33 211.117 Q2066.34 208.409 2062.94 208.409 M2062.94 204.798 Q2068.49 204.798 2071.66 208.409 Q2074.83 212.02 2074.83 218.409 Q2074.83 224.775 2071.66 228.409 Q2068.49 232.02 2062.94 232.02 Q2057.36 232.02 2054.19 228.409 Q2051.04 224.775 2051.04 218.409 Q2051.04 212.02 2054.19 208.409 Q2057.36 204.798 2062.94 204.798 Z" fill="#000000" fill-rule="evenodd" fill-opacity="1" /><path clip-path="url(#clip450)" d="M 0 0 M2076.83 205.423 L2081.08 205.423 L2086.41 225.654 L2091.71 205.423 L2096.73 205.423 L2102.06 225.654 L2107.36 205.423 L2111.62 205.423 L2104.83 231.349 L2099.81 231.349 L2094.23 210.099 L2088.63 231.349 L2083.61 231.349 L2076.83 205.423 Z" fill="#000000" fill-rule="evenodd" fill-opacity="1" /><path clip-path="url(#clip450)" d="M 0 0 M2116.64 209.821 L2146.32 209.821 L2146.32 213.71 L2116.64 213.71 L2116.64 209.821 M2116.64 219.265 L2146.32 219.265 L2146.32 223.201 L2116.64 223.201 L2116.64 219.265 Z" fill="#000000" fill-rule="evenodd" fill-opacity="1" /><path clip-path="url(#clip450)" d="M 0 0 M2152.2 227.413 L2159.83 227.413 L2159.83 201.048 L2151.52 202.715 L2151.52 198.455 L2159.79 196.789 L2164.46 196.789 L2164.46 227.413 L2172.1 227.413 L2172.1 231.349 L2152.2 231.349 L2152.2 227.413 Z" fill="#000000" fill-rule="evenodd" fill-opacity="1" /><path clip-path="url(#clip450)" d="M 0 0 M2198.75 217.321 L2198.75 219.404 L2179.16 219.404 Q2179.44 223.802 2181.8 226.117 Q2184.19 228.409 2188.42 228.409 Q2190.88 228.409 2193.17 227.807 Q2195.48 227.205 2197.75 226.001 L2197.75 230.029 Q2195.46 231.001 2193.05 231.511 Q2190.64 232.02 2188.17 232.02 Q2181.96 232.02 2178.33 228.409 Q2174.72 224.798 2174.72 218.64 Q2174.72 212.275 2178.14 208.548 Q2181.59 204.798 2187.43 204.798 Q2192.66 204.798 2195.69 208.177 Q2198.75 211.534 2198.75 217.321 M2194.49 216.071 Q2194.44 212.576 2192.52 210.492 Q2190.62 208.409 2187.47 208.409 Q2183.91 208.409 2181.76 210.423 Q2179.63 212.437 2179.3 216.094 L2194.49 216.071 Z" fill="#000000" fill-rule="evenodd" fill-opacity="1" /><path clip-path="url(#clip450)" d="M 0 0 M2201.06 216.464 L2213.54 216.464 L2213.54 220.261 L2201.06 220.261 L2201.06 216.464 Z" fill="#000000" fill-rule="evenodd" fill-opacity="1" /><path clip-path="url(#clip450)" d="M 0 0 M2218.65 196.789 L2237.01 196.789 L2237.01 200.724 L2222.94 200.724 L2222.94 209.196 Q2223.95 208.849 2224.97 208.687 Q2225.99 208.502 2227.01 208.502 Q2232.8 208.502 2236.18 211.673 Q2239.56 214.844 2239.56 220.261 Q2239.56 225.839 2236.08 228.941 Q2232.61 232.02 2226.29 232.02 Q2224.12 232.02 2221.85 231.65 Q2219.6 231.279 2217.19 230.538 L2217.19 225.839 Q2219.28 226.974 2221.5 227.529 Q2223.72 228.085 2226.2 228.085 Q2230.2 228.085 2232.54 225.978 Q2234.88 223.872 2234.88 220.261 Q2234.88 216.65 2232.54 214.543 Q2230.2 212.437 2226.2 212.437 Q2224.32 212.437 2222.45 212.853 Q2220.6 213.27 2218.65 214.15 L2218.65 196.789 Z" fill="#000000" fill-rule="evenodd" fill-opacity="1" /><polyline clip-path="url(#clip450)" style="stroke:#3da44d; stroke-width:4; stroke-opacity:1; fill:none" points="
  1796.28,274.549 1930.34,274.549 
  "/>
<path clip-path="url(#clip450)" d="M 0 0 M1957.08 278.889 Q1957.08 283.588 1959 286.273 Q1960.95 288.935 1964.33 288.935 Q1967.71 288.935 1969.65 286.273 Q1971.59 283.588 1971.59 278.889 Q1971.59 274.19 1969.65 271.528 Q1967.71 268.843 1964.33 268.843 Q1960.95 268.843 1959 271.528 Q1957.08 274.19 1957.08 278.889 M1971.59 287.94 Q1970.25 290.255 1968.19 291.389 Q1966.15 292.5 1963.28 292.5 Q1958.59 292.5 1955.62 288.75 Q1952.68 285 1952.68 278.889 Q1952.68 272.778 1955.62 269.028 Q1958.59 265.278 1963.28 265.278 Q1966.15 265.278 1968.19 266.412 Q1970.25 267.523 1971.59 269.838 L1971.59 265.903 L1975.85 265.903 L1975.85 301.69 L1971.59 301.69 L1971.59 287.94 Z" fill="#000000" fill-rule="evenodd" fill-opacity="1" /><path clip-path="url(#clip450)" d="M 0 0 M2000.02 299.699 L2000.02 303.009 L1975.39 303.009 L1975.39 299.699 L2000.02 299.699 Z" fill="#000000" fill-rule="evenodd" fill-opacity="1" /><path clip-path="url(#clip450)" d="M 0 0 M2021.02 266.667 L2021.02 270.694 Q2019.21 269.769 2017.27 269.306 Q2015.32 268.843 2013.24 268.843 Q2010.07 268.843 2008.47 269.815 Q2006.9 270.787 2006.9 272.731 Q2006.9 274.213 2008.03 275.069 Q2009.16 275.903 2012.59 276.667 L2014.05 276.991 Q2018.58 277.963 2020.48 279.745 Q2022.4 281.505 2022.4 284.676 Q2022.4 288.287 2019.53 290.393 Q2016.69 292.5 2011.69 292.5 Q2009.6 292.5 2007.33 292.083 Q2005.09 291.69 2002.59 290.88 L2002.59 286.481 Q2004.95 287.708 2007.24 288.333 Q2009.53 288.935 2011.78 288.935 Q2014.79 288.935 2016.41 287.917 Q2018.03 286.875 2018.03 285 Q2018.03 283.264 2016.85 282.338 Q2015.69 281.412 2011.73 280.556 L2010.25 280.208 Q2006.29 279.375 2004.53 277.662 Q2002.77 275.926 2002.77 272.917 Q2002.77 269.259 2005.37 267.269 Q2007.96 265.278 2012.73 265.278 Q2015.09 265.278 2017.17 265.625 Q2019.26 265.972 2021.02 266.667 Z" fill="#000000" fill-rule="evenodd" fill-opacity="1" /><path clip-path="url(#clip450)" d="M 0 0 M2048.42 276.181 L2048.42 291.829 L2044.16 291.829 L2044.16 276.319 Q2044.16 272.639 2042.73 270.81 Q2041.29 268.982 2038.42 268.982 Q2034.97 268.982 2032.98 271.181 Q2030.99 273.38 2030.99 277.176 L2030.99 291.829 L2026.71 291.829 L2026.71 265.903 L2030.99 265.903 L2030.99 269.931 Q2032.52 267.593 2034.58 266.435 Q2036.66 265.278 2039.37 265.278 Q2043.84 265.278 2046.13 268.056 Q2048.42 270.81 2048.42 276.181 Z" fill="#000000" fill-rule="evenodd" fill-opacity="1" /><path clip-path="url(#clip450)" d="M 0 0 M2062.94 268.889 Q2059.51 268.889 2057.52 271.574 Q2055.53 274.236 2055.53 278.889 Q2055.53 283.542 2057.5 286.227 Q2059.49 288.889 2062.94 288.889 Q2066.34 288.889 2068.33 286.204 Q2070.32 283.518 2070.32 278.889 Q2070.32 274.282 2068.33 271.597 Q2066.34 268.889 2062.94 268.889 M2062.94 265.278 Q2068.49 265.278 2071.66 268.889 Q2074.83 272.5 2074.83 278.889 Q2074.83 285.255 2071.66 288.889 Q2068.49 292.5 2062.94 292.5 Q2057.36 292.5 2054.19 288.889 Q2051.04 285.255 2051.04 278.889 Q2051.04 272.5 2054.19 268.889 Q2057.36 265.278 2062.94 265.278 Z" fill="#000000" fill-rule="evenodd" fill-opacity="1" /><path clip-path="url(#clip450)" d="M 0 0 M2076.83 265.903 L2081.08 265.903 L2086.41 286.134 L2091.71 265.903 L2096.73 265.903 L2102.06 286.134 L2107.36 265.903 L2111.62 265.903 L2104.83 291.829 L2099.81 291.829 L2094.23 270.579 L2088.63 291.829 L2083.61 291.829 L2076.83 265.903 Z" fill="#000000" fill-rule="evenodd" fill-opacity="1" /><path clip-path="url(#clip450)" d="M 0 0 M2116.64 270.301 L2146.32 270.301 L2146.32 274.19 L2116.64 274.19 L2116.64 270.301 M2116.64 279.745 L2146.32 279.745 L2146.32 283.681 L2116.64 283.681 L2116.64 279.745 Z" fill="#000000" fill-rule="evenodd" fill-opacity="1" /><path clip-path="url(#clip450)" d="M 0 0 M2152.2 287.893 L2159.83 287.893 L2159.83 261.528 L2151.52 263.195 L2151.52 258.935 L2159.79 257.269 L2164.46 257.269 L2164.46 287.893 L2172.1 287.893 L2172.1 291.829 L2152.2 291.829 L2152.2 287.893 Z" fill="#000000" fill-rule="evenodd" fill-opacity="1" /><path clip-path="url(#clip450)" d="M 0 0 M2198.75 277.801 L2198.75 279.884 L2179.16 279.884 Q2179.44 284.282 2181.8 286.597 Q2184.19 288.889 2188.42 288.889 Q2190.88 288.889 2193.17 288.287 Q2195.48 287.685 2197.75 286.481 L2197.75 290.509 Q2195.46 291.481 2193.05 291.991 Q2190.64 292.5 2188.17 292.5 Q2181.96 292.5 2178.33 288.889 Q2174.72 285.278 2174.72 279.12 Q2174.72 272.755 2178.14 269.028 Q2181.59 265.278 2187.43 265.278 Q2192.66 265.278 2195.69 268.657 Q2198.75 272.014 2198.75 277.801 M2194.49 276.551 Q2194.44 273.056 2192.52 270.972 Q2190.62 268.889 2187.47 268.889 Q2183.91 268.889 2181.76 270.903 Q2179.63 272.917 2179.3 276.574 L2194.49 276.551 Z" fill="#000000" fill-rule="evenodd" fill-opacity="1" /><path clip-path="url(#clip450)" d="M 0 0 M2201.06 276.944 L2213.54 276.944 L2213.54 280.741 L2201.06 280.741 L2201.06 276.944 Z" fill="#000000" fill-rule="evenodd" fill-opacity="1" /><path clip-path="url(#clip450)" d="M 0 0 M2231.45 261.343 L2219.65 279.792 L2231.45 279.792 L2231.45 261.343 M2230.23 257.269 L2236.11 257.269 L2236.11 279.792 L2241.04 279.792 L2241.04 283.681 L2236.11 283.681 L2236.11 291.829 L2231.45 291.829 L2231.45 283.681 L2215.85 283.681 L2215.85 279.167 L2230.23 257.269 Z" fill="#000000" fill-rule="evenodd" fill-opacity="1" /></svg>
