<?xml version="1.0" encoding="utf-8"?>
<svg xmlns="http://www.w3.org/2000/svg" xmlns:xlink="http://www.w3.org/1999/xlink" width="600" height="400" viewBox="0 0 2400 1600">
<defs>
  <clipPath id="clip620">
    <rect x="0" y="0" width="2400" height="1600"/>
  </clipPath>
</defs>
<path clip-path="url(#clip620)" d="
M0 1600 L2400 1600 L2400 0 L0 0  Z
  " fill="#ffffff" fill-rule="evenodd" fill-opacity="1"/>
<defs>
  <clipPath id="clip621">
    <rect x="480" y="0" width="1681" height="1600"/>
  </clipPath>
</defs>
<path clip-path="url(#clip620)" d="
M238.13 1423.18 L2352.76 1423.18 L2352.76 47.2441 L238.13 47.2441  Z
  " fill="#ffffff" fill-rule="evenodd" fill-opacity="1"/>
<defs>
  <clipPath id="clip622">
    <rect x="238" y="47" width="2116" height="1377"/>
  </clipPath>
</defs>
<polyline clip-path="url(#clip622)" style="stroke:#000000; stroke-width:2; stroke-opacity:0.1; fill:none" points="
  238.13,1423.18 238.13,47.2441 
  "/>
<polyline clip-path="url(#clip622)" style="stroke:#000000; stroke-width:2; stroke-opacity:0.1; fill:none" points="
  540.219,1423.18 540.219,47.2441 
  "/>
<polyline clip-path="url(#clip622)" style="stroke:#000000; stroke-width:2; stroke-opacity:0.1; fill:none" points="
  842.309,1423.18 842.309,47.2441 
  "/>
<polyline clip-path="url(#clip622)" style="stroke:#000000; stroke-width:2; stroke-opacity:0.1; fill:none" points="
  1144.4,1423.18 1144.4,47.2441 
  "/>
<polyline clip-path="url(#clip622)" style="stroke:#000000; stroke-width:2; stroke-opacity:0.1; fill:none" points="
  1446.49,1423.18 1446.49,47.2441 
  "/>
<polyline clip-path="url(#clip622)" style="stroke:#000000; stroke-width:2; stroke-opacity:0.1; fill:none" points="
  1748.58,1423.18 1748.58,47.2441 
  "/>
<polyline clip-path="url(#clip622)" style="stroke:#000000; stroke-width:2; stroke-opacity:0.1; fill:none" points="
  2050.67,1423.18 2050.67,47.2441 
  "/>
<polyline clip-path="url(#clip622)" style="stroke:#000000; stroke-width:2; stroke-opacity:0.1; fill:none" points="
  2352.76,1423.18 2352.76,47.2441 
  "/>
<polyline clip-path="url(#clip620)" style="stroke:#000000; stroke-width:4; stroke-opacity:1; fill:none" points="
  238.13,1423.18 2352.76,1423.18 
  "/>
<polyline clip-path="url(#clip620)" style="stroke:#000000; stroke-width:4; stroke-opacity:1; fill:none" points="
  238.13,1423.18 238.13,1406.67 
  "/>
<polyline clip-path="url(#clip620)" style="stroke:#000000; stroke-width:4; stroke-opacity:1; fill:none" points="
  540.219,1423.18 540.219,1406.67 
  "/>
<polyline clip-path="url(#clip620)" style="stroke:#000000; stroke-width:4; stroke-opacity:1; fill:none" points="
  842.309,1423.18 842.309,1406.67 
  "/>
<polyline clip-path="url(#clip620)" style="stroke:#000000; stroke-width:4; stroke-opacity:1; fill:none" points="
  1144.4,1423.18 1144.4,1406.67 
  "/>
<polyline clip-path="url(#clip620)" style="stroke:#000000; stroke-width:4; stroke-opacity:1; fill:none" points="
  1446.49,1423.18 1446.49,1406.67 
  "/>
<polyline clip-path="url(#clip620)" style="stroke:#000000; stroke-width:4; stroke-opacity:1; fill:none" points="
  1748.58,1423.18 1748.58,1406.67 
  "/>
<polyline clip-path="url(#clip620)" style="stroke:#000000; stroke-width:4; stroke-opacity:1; fill:none" points="
  2050.67,1423.18 2050.67,1406.67 
  "/>
<polyline clip-path="url(#clip620)" style="stroke:#000000; stroke-width:4; stroke-opacity:1; fill:none" points="
  2352.76,1423.18 2352.76,1406.67 
  "/>
<path clip-path="url(#clip620)" d="M 0 0 M238.13 1452.37 Q234.519 1452.37 232.69 1455.94 Q230.885 1459.48 230.885 1466.61 Q230.885 1473.71 232.69 1477.28 Q234.519 1480.82 238.13 1480.82 Q241.764 1480.82 243.57 1477.28 Q245.399 1473.71 245.399 1466.61 Q245.399 1459.48 243.57 1455.94 Q241.764 1452.37 238.13 1452.37 M238.13 1448.67 Q243.94 1448.67 246.996 1453.27 Q250.074 1457.86 250.074 1466.61 Q250.074 1475.33 246.996 1479.94 Q243.94 1484.52 238.13 1484.52 Q232.32 1484.52 229.241 1479.94 Q226.186 1475.33 226.186 1466.61 Q226.186 1457.86 229.241 1453.27 Q232.32 1448.67 238.13 1448.67 Z" fill="#000000" fill-rule="evenodd" fill-opacity="1" /><path clip-path="url(#clip620)" d="M 0 0 M516.99 1449.29 L535.347 1449.29 L535.347 1453.23 L521.273 1453.23 L521.273 1461.7 Q522.291 1461.35 523.31 1461.19 Q524.328 1461 525.347 1461 Q531.134 1461 534.513 1464.18 Q537.893 1467.35 537.893 1472.76 Q537.893 1478.34 534.421 1481.44 Q530.949 1484.52 524.629 1484.52 Q522.453 1484.52 520.185 1484.15 Q517.939 1483.78 515.532 1483.04 L515.532 1478.34 Q517.615 1479.48 519.838 1480.03 Q522.06 1480.59 524.537 1480.59 Q528.541 1480.59 530.879 1478.48 Q533.217 1476.38 533.217 1472.76 Q533.217 1469.15 530.879 1467.05 Q528.541 1464.94 524.537 1464.94 Q522.662 1464.94 520.787 1465.36 Q518.935 1465.77 516.99 1466.65 L516.99 1449.29 Z" fill="#000000" fill-rule="evenodd" fill-opacity="1" /><path clip-path="url(#clip620)" d="M 0 0 M552.962 1452.37 Q549.351 1452.37 547.523 1455.94 Q545.717 1459.48 545.717 1466.61 Q545.717 1473.71 547.523 1477.28 Q549.351 1480.82 552.962 1480.82 Q556.597 1480.82 558.402 1477.28 Q560.231 1473.71 560.231 1466.61 Q560.231 1459.48 558.402 1455.94 Q556.597 1452.37 552.962 1452.37 M552.962 1448.67 Q558.773 1448.67 561.828 1453.27 Q564.907 1457.86 564.907 1466.61 Q564.907 1475.33 561.828 1479.94 Q558.773 1484.52 552.962 1484.52 Q547.152 1484.52 544.074 1479.94 Q541.018 1475.33 541.018 1466.61 Q541.018 1457.86 544.074 1453.27 Q547.152 1448.67 552.962 1448.67 Z" fill="#000000" fill-rule="evenodd" fill-opacity="1" /><path clip-path="url(#clip620)" d="M 0 0 M805.677 1479.92 L813.316 1479.92 L813.316 1453.55 L805.006 1455.22 L805.006 1450.96 L813.27 1449.29 L817.946 1449.29 L817.946 1479.92 L825.584 1479.92 L825.584 1483.85 L805.677 1483.85 L805.677 1479.92 Z" fill="#000000" fill-rule="evenodd" fill-opacity="1" /><path clip-path="url(#clip620)" d="M 0 0 M840.654 1452.37 Q837.043 1452.37 835.214 1455.94 Q833.408 1459.48 833.408 1466.61 Q833.408 1473.71 835.214 1477.28 Q837.043 1480.82 840.654 1480.82 Q844.288 1480.82 846.094 1477.28 Q847.922 1473.71 847.922 1466.61 Q847.922 1459.48 846.094 1455.94 Q844.288 1452.37 840.654 1452.37 M840.654 1448.67 Q846.464 1448.67 849.519 1453.27 Q852.598 1457.86 852.598 1466.61 Q852.598 1475.33 849.519 1479.94 Q846.464 1484.52 840.654 1484.52 Q834.844 1484.52 831.765 1479.94 Q828.709 1475.33 828.709 1466.61 Q828.709 1457.86 831.765 1453.27 Q834.844 1448.67 840.654 1448.67 Z" fill="#000000" fill-rule="evenodd" fill-opacity="1" /><path clip-path="url(#clip620)" d="M 0 0 M867.668 1452.37 Q864.056 1452.37 862.228 1455.94 Q860.422 1459.48 860.422 1466.61 Q860.422 1473.71 862.228 1477.28 Q864.056 1480.82 867.668 1480.82 Q871.302 1480.82 873.107 1477.28 Q874.936 1473.71 874.936 1466.61 Q874.936 1459.48 873.107 1455.94 Q871.302 1452.37 867.668 1452.37 M867.668 1448.67 Q873.478 1448.67 876.533 1453.27 Q879.612 1457.86 879.612 1466.61 Q879.612 1475.33 876.533 1479.94 Q873.478 1484.52 867.668 1484.52 Q861.857 1484.52 858.779 1479.94 Q855.723 1475.33 855.723 1466.61 Q855.723 1457.86 858.779 1453.27 Q861.857 1448.67 867.668 1448.67 Z" fill="#000000" fill-rule="evenodd" fill-opacity="1" /><path clip-path="url(#clip620)" d="M 0 0 M1108.26 1479.92 L1115.9 1479.92 L1115.9 1453.55 L1107.59 1455.22 L1107.59 1450.96 L1115.86 1449.29 L1120.53 1449.29 L1120.53 1479.92 L1128.17 1479.92 L1128.17 1483.85 L1108.26 1483.85 L1108.26 1479.92 Z" fill="#000000" fill-rule="evenodd" fill-opacity="1" /><path clip-path="url(#clip620)" d="M 0 0 M1133.29 1449.29 L1151.64 1449.29 L1151.64 1453.23 L1137.57 1453.23 L1137.57 1461.7 Q1138.59 1461.35 1139.61 1461.19 Q1140.63 1461 1141.64 1461 Q1147.43 1461 1150.81 1464.18 Q1154.19 1467.35 1154.19 1472.76 Q1154.19 1478.34 1150.72 1481.44 Q1147.25 1484.52 1140.93 1484.52 Q1138.75 1484.52 1136.48 1484.15 Q1134.24 1483.78 1131.83 1483.04 L1131.83 1478.34 Q1133.91 1479.48 1136.13 1480.03 Q1138.36 1480.59 1140.83 1480.59 Q1144.84 1480.59 1147.18 1478.48 Q1149.51 1476.38 1149.51 1472.76 Q1149.51 1469.15 1147.18 1467.05 Q1144.84 1464.94 1140.83 1464.94 Q1138.96 1464.94 1137.08 1465.36 Q1135.23 1465.77 1133.29 1466.65 L1133.29 1449.29 Z" fill="#000000" fill-rule="evenodd" fill-opacity="1" /><path clip-path="url(#clip620)" d="M 0 0 M1169.26 1452.37 Q1165.65 1452.37 1163.82 1455.94 Q1162.01 1459.48 1162.01 1466.61 Q1162.01 1473.71 1163.82 1477.28 Q1165.65 1480.82 1169.26 1480.82 Q1172.89 1480.82 1174.7 1477.28 Q1176.53 1473.71 1176.53 1466.61 Q1176.53 1459.48 1174.7 1455.94 Q1172.89 1452.37 1169.26 1452.37 M1169.26 1448.67 Q1175.07 1448.67 1178.12 1453.27 Q1181.2 1457.86 1181.2 1466.61 Q1181.2 1475.33 1178.12 1479.94 Q1175.07 1484.52 1169.26 1484.52 Q1163.45 1484.52 1160.37 1479.94 Q1157.31 1475.33 1157.31 1466.61 Q1157.31 1457.86 1160.37 1453.27 Q1163.45 1448.67 1169.26 1448.67 Z" fill="#000000" fill-rule="evenodd" fill-opacity="1" /><path clip-path="url(#clip620)" d="M 0 0 M1414.13 1479.92 L1430.45 1479.92 L1430.45 1483.85 L1408.5 1483.85 L1408.5 1479.92 Q1411.16 1477.16 1415.75 1472.53 Q1420.35 1467.88 1421.53 1466.54 Q1423.78 1464.01 1424.66 1462.28 Q1425.56 1460.52 1425.56 1458.83 Q1425.56 1456.07 1423.62 1454.34 Q1421.7 1452.6 1418.59 1452.6 Q1416.4 1452.6 1413.94 1453.37 Q1411.51 1454.13 1408.73 1455.68 L1408.73 1450.96 Q1411.56 1449.82 1414.01 1449.25 Q1416.46 1448.67 1418.5 1448.67 Q1423.87 1448.67 1427.07 1451.35 Q1430.26 1454.04 1430.26 1458.53 Q1430.26 1460.66 1429.45 1462.58 Q1428.66 1464.48 1426.56 1467.07 Q1425.98 1467.74 1422.88 1470.96 Q1419.77 1474.15 1414.13 1479.92 Z" fill="#000000" fill-rule="evenodd" fill-opacity="1" /><path clip-path="url(#clip620)" d="M 0 0 M1445.52 1452.37 Q1441.9 1452.37 1440.08 1455.94 Q1438.27 1459.48 1438.27 1466.61 Q1438.27 1473.71 1440.08 1477.28 Q1441.9 1480.82 1445.52 1480.82 Q1449.15 1480.82 1450.96 1477.28 Q1452.78 1473.71 1452.78 1466.61 Q1452.78 1459.48 1450.96 1455.94 Q1449.15 1452.37 1445.52 1452.37 M1445.52 1448.67 Q1451.33 1448.67 1454.38 1453.27 Q1457.46 1457.86 1457.46 1466.61 Q1457.46 1475.33 1454.38 1479.94 Q1451.33 1484.52 1445.52 1484.52 Q1439.71 1484.52 1436.63 1479.94 Q1433.57 1475.33 1433.57 1466.61 Q1433.57 1457.86 1436.63 1453.27 Q1439.71 1448.67 1445.52 1448.67 Z" fill="#000000" fill-rule="evenodd" fill-opacity="1" /><path clip-path="url(#clip620)" d="M 0 0 M1472.53 1452.37 Q1468.92 1452.37 1467.09 1455.94 Q1465.28 1459.48 1465.28 1466.61 Q1465.28 1473.71 1467.09 1477.28 Q1468.92 1480.82 1472.53 1480.82 Q1476.16 1480.82 1477.97 1477.28 Q1479.8 1473.71 1479.8 1466.61 Q1479.8 1459.48 1477.97 1455.94 Q1476.16 1452.37 1472.53 1452.37 M1472.53 1448.67 Q1478.34 1448.67 1481.39 1453.27 Q1484.47 1457.86 1484.47 1466.61 Q1484.47 1475.33 1481.39 1479.94 Q1478.34 1484.52 1472.53 1484.52 Q1466.72 1484.52 1463.64 1479.94 Q1460.58 1475.33 1460.58 1466.61 Q1460.58 1457.86 1463.64 1453.27 Q1466.72 1448.67 1472.53 1448.67 Z" fill="#000000" fill-rule="evenodd" fill-opacity="1" /><path clip-path="url(#clip620)" d="M 0 0 M1716.71 1479.92 L1733.03 1479.92 L1733.03 1483.85 L1711.09 1483.85 L1711.09 1479.92 Q1713.75 1477.16 1718.33 1472.53 Q1722.94 1467.88 1724.12 1466.54 Q1726.37 1464.01 1727.25 1462.28 Q1728.15 1460.52 1728.15 1458.83 Q1728.15 1456.07 1726.2 1454.34 Q1724.28 1452.6 1721.18 1452.6 Q1718.98 1452.6 1716.53 1453.37 Q1714.1 1454.13 1711.32 1455.68 L1711.32 1450.96 Q1714.14 1449.82 1716.6 1449.25 Q1719.05 1448.67 1721.09 1448.67 Q1726.46 1448.67 1729.65 1451.35 Q1732.85 1454.04 1732.85 1458.53 Q1732.85 1460.66 1732.04 1462.58 Q1731.25 1464.48 1729.14 1467.07 Q1728.57 1467.74 1725.46 1470.96 Q1722.36 1474.15 1716.71 1479.92 Z" fill="#000000" fill-rule="evenodd" fill-opacity="1" /><path clip-path="url(#clip620)" d="M 0 0 M1738.15 1449.29 L1756.51 1449.29 L1756.51 1453.23 L1742.43 1453.23 L1742.43 1461.7 Q1743.45 1461.35 1744.47 1461.19 Q1745.49 1461 1746.51 1461 Q1752.29 1461 1755.67 1464.18 Q1759.05 1467.35 1759.05 1472.76 Q1759.05 1478.34 1755.58 1481.44 Q1752.11 1484.52 1745.79 1484.52 Q1743.61 1484.52 1741.34 1484.15 Q1739.1 1483.78 1736.69 1483.04 L1736.69 1478.34 Q1738.77 1479.48 1741 1480.03 Q1743.22 1480.59 1745.7 1480.59 Q1749.7 1480.59 1752.04 1478.48 Q1754.38 1476.38 1754.38 1472.76 Q1754.38 1469.15 1752.04 1467.05 Q1749.7 1464.94 1745.7 1464.94 Q1743.82 1464.94 1741.95 1465.36 Q1740.09 1465.77 1738.15 1466.65 L1738.15 1449.29 Z" fill="#000000" fill-rule="evenodd" fill-opacity="1" /><path clip-path="url(#clip620)" d="M 0 0 M1774.12 1452.37 Q1770.51 1452.37 1768.68 1455.94 Q1766.88 1459.48 1766.88 1466.61 Q1766.88 1473.71 1768.68 1477.28 Q1770.51 1480.82 1774.12 1480.82 Q1777.76 1480.82 1779.56 1477.28 Q1781.39 1473.71 1781.39 1466.61 Q1781.39 1459.48 1779.56 1455.94 Q1777.76 1452.37 1774.12 1452.37 M1774.12 1448.67 Q1779.93 1448.67 1782.99 1453.27 Q1786.07 1457.86 1786.07 1466.61 Q1786.07 1475.33 1782.99 1479.94 Q1779.93 1484.52 1774.12 1484.52 Q1768.31 1484.52 1765.23 1479.94 Q1762.18 1475.33 1762.18 1466.61 Q1762.18 1457.86 1765.23 1453.27 Q1768.31 1448.67 1774.12 1448.67 Z" fill="#000000" fill-rule="evenodd" fill-opacity="1" /><path clip-path="url(#clip620)" d="M 0 0 M2027.9 1465.22 Q2031.26 1465.94 2033.13 1468.2 Q2035.03 1470.47 2035.03 1473.81 Q2035.03 1478.92 2031.51 1481.72 Q2027.99 1484.52 2021.51 1484.52 Q2019.34 1484.52 2017.02 1484.08 Q2014.73 1483.67 2012.28 1482.81 L2012.28 1478.3 Q2014.22 1479.43 2016.53 1480.01 Q2018.85 1480.59 2021.37 1480.59 Q2025.77 1480.59 2028.06 1478.85 Q2030.38 1477.12 2030.38 1473.81 Q2030.38 1470.75 2028.22 1469.04 Q2026.09 1467.3 2022.28 1467.3 L2018.25 1467.3 L2018.25 1463.46 L2022.46 1463.46 Q2025.91 1463.46 2027.74 1462.09 Q2029.57 1460.7 2029.57 1458.11 Q2029.57 1455.45 2027.67 1454.04 Q2025.79 1452.6 2022.28 1452.6 Q2020.35 1452.6 2018.16 1453.02 Q2015.96 1453.44 2013.32 1454.31 L2013.32 1450.15 Q2015.98 1449.41 2018.29 1449.04 Q2020.63 1448.67 2022.69 1448.67 Q2028.02 1448.67 2031.12 1451.1 Q2034.22 1453.5 2034.22 1457.63 Q2034.22 1460.5 2032.58 1462.49 Q2030.93 1464.45 2027.9 1465.22 Z" fill="#000000" fill-rule="evenodd" fill-opacity="1" /><path clip-path="url(#clip620)" d="M 0 0 M2050.1 1452.37 Q2046.49 1452.37 2044.66 1455.94 Q2042.85 1459.48 2042.85 1466.61 Q2042.85 1473.71 2044.66 1477.28 Q2046.49 1480.82 2050.1 1480.82 Q2053.73 1480.82 2055.54 1477.28 Q2057.37 1473.71 2057.37 1466.61 Q2057.37 1459.48 2055.54 1455.94 Q2053.73 1452.37 2050.1 1452.37 M2050.1 1448.67 Q2055.91 1448.67 2058.97 1453.27 Q2062.04 1457.86 2062.04 1466.61 Q2062.04 1475.33 2058.97 1479.94 Q2055.91 1484.52 2050.1 1484.52 Q2044.29 1484.52 2041.21 1479.94 Q2038.15 1475.33 2038.15 1466.61 Q2038.15 1457.86 2041.21 1453.27 Q2044.29 1448.67 2050.1 1448.67 Z" fill="#000000" fill-rule="evenodd" fill-opacity="1" /><path clip-path="url(#clip620)" d="M 0 0 M2077.11 1452.37 Q2073.5 1452.37 2071.67 1455.94 Q2069.87 1459.48 2069.87 1466.61 Q2069.87 1473.71 2071.67 1477.28 Q2073.5 1480.82 2077.11 1480.82 Q2080.75 1480.82 2082.55 1477.28 Q2084.38 1473.71 2084.38 1466.61 Q2084.38 1459.48 2082.55 1455.94 Q2080.75 1452.37 2077.11 1452.37 M2077.11 1448.67 Q2082.92 1448.67 2085.98 1453.27 Q2089.06 1457.86 2089.06 1466.61 Q2089.06 1475.33 2085.98 1479.94 Q2082.92 1484.52 2077.11 1484.52 Q2071.3 1484.52 2068.22 1479.94 Q2065.17 1475.33 2065.17 1466.61 Q2065.17 1457.86 2068.22 1453.27 Q2071.3 1448.67 2077.11 1448.67 Z" fill="#000000" fill-rule="evenodd" fill-opacity="1" /><path clip-path="url(#clip620)" d="M 0 0 M2330.49 1465.22 Q2333.84 1465.94 2335.72 1468.2 Q2337.62 1470.47 2337.62 1473.81 Q2337.62 1478.92 2334.1 1481.72 Q2330.58 1484.52 2324.1 1484.52 Q2321.92 1484.52 2319.61 1484.08 Q2317.32 1483.67 2314.86 1482.81 L2314.86 1478.3 Q2316.81 1479.43 2319.12 1480.01 Q2321.44 1480.59 2323.96 1480.59 Q2328.36 1480.59 2330.65 1478.85 Q2332.96 1477.12 2332.96 1473.81 Q2332.96 1470.75 2330.81 1469.04 Q2328.68 1467.3 2324.86 1467.3 L2320.83 1467.3 L2320.83 1463.46 L2325.05 1463.46 Q2328.5 1463.46 2330.33 1462.09 Q2332.15 1460.7 2332.15 1458.11 Q2332.15 1455.45 2330.26 1454.04 Q2328.38 1452.6 2324.86 1452.6 Q2322.94 1452.6 2320.74 1453.02 Q2318.54 1453.44 2315.9 1454.31 L2315.9 1450.15 Q2318.57 1449.41 2320.88 1449.04 Q2323.22 1448.67 2325.28 1448.67 Q2330.6 1448.67 2333.71 1451.1 Q2336.81 1453.5 2336.81 1457.63 Q2336.81 1460.5 2335.16 1462.49 Q2333.52 1464.45 2330.49 1465.22 Z" fill="#000000" fill-rule="evenodd" fill-opacity="1" /><path clip-path="url(#clip620)" d="M 0 0 M2342.73 1449.29 L2361.09 1449.29 L2361.09 1453.23 L2347.02 1453.23 L2347.02 1461.7 Q2348.03 1461.35 2349.05 1461.19 Q2350.07 1461 2351.09 1461 Q2356.88 1461 2360.26 1464.18 Q2363.64 1467.35 2363.64 1472.76 Q2363.64 1478.34 2360.16 1481.44 Q2356.69 1484.52 2350.37 1484.52 Q2348.2 1484.52 2345.93 1484.15 Q2343.68 1483.78 2341.27 1483.04 L2341.27 1478.34 Q2343.36 1479.48 2345.58 1480.03 Q2347.8 1480.59 2350.28 1480.59 Q2354.28 1480.59 2356.62 1478.48 Q2358.96 1476.38 2358.96 1472.76 Q2358.96 1469.15 2356.62 1467.05 Q2354.28 1464.94 2350.28 1464.94 Q2348.4 1464.94 2346.53 1465.36 Q2344.68 1465.77 2342.73 1466.65 L2342.73 1449.29 Z" fill="#000000" fill-rule="evenodd" fill-opacity="1" /><path clip-path="url(#clip620)" d="M 0 0 M2378.7 1452.37 Q2375.09 1452.37 2373.27 1455.94 Q2371.46 1459.48 2371.46 1466.61 Q2371.46 1473.71 2373.27 1477.28 Q2375.09 1480.82 2378.7 1480.82 Q2382.34 1480.82 2384.14 1477.28 Q2385.97 1473.71 2385.97 1466.61 Q2385.97 1459.48 2384.14 1455.94 Q2382.34 1452.37 2378.7 1452.37 M2378.7 1448.67 Q2384.51 1448.67 2387.57 1453.27 Q2390.65 1457.86 2390.65 1466.61 Q2390.65 1475.33 2387.57 1479.94 Q2384.51 1484.52 2378.7 1484.52 Q2372.89 1484.52 2369.82 1479.94 Q2366.76 1475.33 2366.76 1466.61 Q2366.76 1457.86 2369.82 1453.27 Q2372.89 1448.67 2378.7 1448.67 Z" fill="#000000" fill-rule="evenodd" fill-opacity="1" /><path clip-path="url(#clip620)" d="M 0 0 M1312.06 1520.4 L1299.17 1537.74 L1312.73 1556.04 L1305.82 1556.04 L1295.44 1542.04 L1285.07 1556.04 L1278.16 1556.04 L1292.01 1537.39 L1279.34 1520.4 L1286.24 1520.4 L1295.7 1533.1 L1305.15 1520.4 L1312.06 1520.4 Z" fill="#000000" fill-rule="evenodd" fill-opacity="1" /><polyline clip-path="url(#clip622)" style="stroke:#000000; stroke-width:2; stroke-opacity:0.1; fill:none" points="
  238.13,1316.93 2352.76,1316.93 
  "/>
<polyline clip-path="url(#clip622)" style="stroke:#000000; stroke-width:2; stroke-opacity:0.1; fill:none" points="
  238.13,1026.72 2352.76,1026.72 
  "/>
<polyline clip-path="url(#clip622)" style="stroke:#000000; stroke-width:2; stroke-opacity:0.1; fill:none" points="
  238.13,736.518 2352.76,736.518 
  "/>
<polyline clip-path="url(#clip622)" style="stroke:#000000; stroke-width:2; stroke-opacity:0.1; fill:none" points="
  238.13,446.311 2352.76,446.311 
  "/>
<polyline clip-path="url(#clip622)" style="stroke:#000000; stroke-width:2; stroke-opacity:0.1; fill:none" points="
  238.13,156.105 2352.76,156.105 
  "/>
<polyline clip-path="url(#clip620)" style="stroke:#000000; stroke-width:4; stroke-opacity:1; fill:none" points="
  238.13,1423.18 238.13,47.2441 
  "/>
<polyline clip-path="url(#clip620)" style="stroke:#000000; stroke-width:4; stroke-opacity:1; fill:none" points="
  238.13,1316.93 263.506,1316.93 
  "/>
<polyline clip-path="url(#clip620)" style="stroke:#000000; stroke-width:4; stroke-opacity:1; fill:none" points="
  238.13,1026.72 263.506,1026.72 
  "/>
<polyline clip-path="url(#clip620)" style="stroke:#000000; stroke-width:4; stroke-opacity:1; fill:none" points="
  238.13,736.518 263.506,736.518 
  "/>
<polyline clip-path="url(#clip620)" style="stroke:#000000; stroke-width:4; stroke-opacity:1; fill:none" points="
  238.13,446.311 263.506,446.311 
  "/>
<polyline clip-path="url(#clip620)" style="stroke:#000000; stroke-width:4; stroke-opacity:1; fill:none" points="
  238.13,156.105 263.506,156.105 
  "/>
<path clip-path="url(#clip620)" d="M 0 0 M126.205 1302.73 Q122.593 1302.73 120.765 1306.29 Q118.959 1309.84 118.959 1316.97 Q118.959 1324.07 120.765 1327.64 Q122.593 1331.18 126.205 1331.18 Q129.839 1331.18 131.644 1327.64 Q133.473 1324.07 133.473 1316.97 Q133.473 1309.84 131.644 1306.29 Q129.839 1302.73 126.205 1302.73 M126.205 1299.03 Q132.015 1299.03 135.07 1303.63 Q138.149 1308.22 138.149 1316.97 Q138.149 1325.69 135.07 1330.3 Q132.015 1334.88 126.205 1334.88 Q120.394 1334.88 117.316 1330.3 Q114.26 1325.69 114.26 1316.97 Q114.26 1308.22 117.316 1303.63 Q120.394 1299.03 126.205 1299.03 Z" fill="#000000" fill-rule="evenodd" fill-opacity="1" /><path clip-path="url(#clip620)" d="M 0 0 M143.218 1328.33 L148.103 1328.33 L148.103 1334.21 L143.218 1334.21 L143.218 1328.33 Z" fill="#000000" fill-rule="evenodd" fill-opacity="1" /><path clip-path="url(#clip620)" d="M 0 0 M163.172 1302.73 Q159.561 1302.73 157.732 1306.29 Q155.927 1309.84 155.927 1316.97 Q155.927 1324.07 157.732 1327.64 Q159.561 1331.18 163.172 1331.18 Q166.806 1331.18 168.612 1327.64 Q170.44 1324.07 170.44 1316.97 Q170.44 1309.84 168.612 1306.29 Q166.806 1302.73 163.172 1302.73 M163.172 1299.03 Q168.982 1299.03 172.038 1303.63 Q175.116 1308.22 175.116 1316.97 Q175.116 1325.69 172.038 1330.3 Q168.982 1334.88 163.172 1334.88 Q157.362 1334.88 154.283 1330.3 Q151.228 1325.69 151.228 1316.97 Q151.228 1308.22 154.283 1303.63 Q157.362 1299.03 163.172 1299.03 Z" fill="#000000" fill-rule="evenodd" fill-opacity="1" /><path clip-path="url(#clip620)" d="M 0 0 M190.186 1302.73 Q186.575 1302.73 184.746 1306.29 Q182.94 1309.84 182.94 1316.97 Q182.94 1324.07 184.746 1327.64 Q186.575 1331.18 190.186 1331.18 Q193.82 1331.18 195.625 1327.64 Q197.454 1324.07 197.454 1316.97 Q197.454 1309.84 195.625 1306.29 Q193.82 1302.73 190.186 1302.73 M190.186 1299.03 Q195.996 1299.03 199.051 1303.63 Q202.13 1308.22 202.13 1316.97 Q202.13 1325.69 199.051 1330.3 Q195.996 1334.88 190.186 1334.88 Q184.376 1334.88 181.297 1330.3 Q178.241 1325.69 178.241 1316.97 Q178.241 1308.22 181.297 1303.63 Q184.376 1299.03 190.186 1299.03 Z" fill="#000000" fill-rule="evenodd" fill-opacity="1" /><path clip-path="url(#clip620)" d="M 0 0 M128.797 1012.52 Q125.186 1012.52 123.357 1016.09 Q121.552 1019.63 121.552 1026.76 Q121.552 1033.87 123.357 1037.43 Q125.186 1040.97 128.797 1040.97 Q132.431 1040.97 134.237 1037.43 Q136.066 1033.87 136.066 1026.76 Q136.066 1019.63 134.237 1016.09 Q132.431 1012.52 128.797 1012.52 M128.797 1008.82 Q134.607 1008.82 137.663 1013.43 Q140.741 1018.01 140.741 1026.76 Q140.741 1035.49 137.663 1040.09 Q134.607 1044.68 128.797 1044.68 Q122.987 1044.68 119.908 1040.09 Q116.853 1035.49 116.853 1026.76 Q116.853 1018.01 119.908 1013.43 Q122.987 1008.82 128.797 1008.82 Z" fill="#000000" fill-rule="evenodd" fill-opacity="1" /><path clip-path="url(#clip620)" d="M 0 0 M145.811 1038.12 L150.695 1038.12 L150.695 1044 L145.811 1044 L145.811 1038.12 Z" fill="#000000" fill-rule="evenodd" fill-opacity="1" /><path clip-path="url(#clip620)" d="M 0 0 M159.792 1040.07 L176.112 1040.07 L176.112 1044 L154.167 1044 L154.167 1040.07 Q156.829 1037.31 161.413 1032.68 Q166.019 1028.03 167.2 1026.69 Q169.445 1024.17 170.325 1022.43 Q171.227 1020.67 171.227 1018.98 Q171.227 1016.23 169.283 1014.49 Q167.362 1012.75 164.26 1012.75 Q162.061 1012.75 159.607 1013.52 Q157.177 1014.28 154.399 1015.83 L154.399 1011.11 Q157.223 1009.98 159.677 1009.4 Q162.13 1008.82 164.167 1008.82 Q169.538 1008.82 172.732 1011.5 Q175.926 1014.19 175.926 1018.68 Q175.926 1020.81 175.116 1022.73 Q174.329 1024.63 172.223 1027.22 Q171.644 1027.89 168.542 1031.11 Q165.44 1034.31 159.792 1040.07 Z" fill="#000000" fill-rule="evenodd" fill-opacity="1" /><path clip-path="url(#clip620)" d="M 0 0 M181.227 1009.44 L199.584 1009.44 L199.584 1013.38 L185.51 1013.38 L185.51 1021.85 Q186.528 1021.5 187.547 1021.34 Q188.565 1021.16 189.584 1021.16 Q195.371 1021.16 198.75 1024.33 Q202.13 1027.5 202.13 1032.92 Q202.13 1038.5 198.658 1041.6 Q195.186 1044.68 188.866 1044.68 Q186.69 1044.68 184.422 1044.31 Q182.176 1043.93 179.769 1043.19 L179.769 1038.5 Q181.852 1039.63 184.075 1040.18 Q186.297 1040.74 188.774 1040.74 Q192.778 1040.74 195.116 1038.63 Q197.454 1036.53 197.454 1032.92 Q197.454 1029.31 195.116 1027.2 Q192.778 1025.09 188.774 1025.09 Q186.899 1025.09 185.024 1025.51 Q183.172 1025.93 181.227 1026.81 L181.227 1009.44 Z" fill="#000000" fill-rule="evenodd" fill-opacity="1" /><path clip-path="url(#clip620)" d="M 0 0 M127.2 722.317 Q123.589 722.317 121.76 725.881 Q119.955 729.423 119.955 736.553 Q119.955 743.659 121.76 747.224 Q123.589 750.765 127.2 750.765 Q130.834 750.765 132.64 747.224 Q134.468 743.659 134.468 736.553 Q134.468 729.423 132.64 725.881 Q130.834 722.317 127.2 722.317 M127.2 718.613 Q133.01 718.613 136.066 723.219 Q139.144 727.803 139.144 736.553 Q139.144 745.279 136.066 749.886 Q133.01 754.469 127.2 754.469 Q121.39 754.469 118.311 749.886 Q115.256 745.279 115.256 736.553 Q115.256 727.803 118.311 723.219 Q121.39 718.613 127.2 718.613 Z" fill="#000000" fill-rule="evenodd" fill-opacity="1" /><path clip-path="url(#clip620)" d="M 0 0 M144.214 747.918 L149.098 747.918 L149.098 753.798 L144.214 753.798 L144.214 747.918 Z" fill="#000000" fill-rule="evenodd" fill-opacity="1" /><path clip-path="url(#clip620)" d="M 0 0 M154.214 719.238 L172.57 719.238 L172.57 723.173 L158.496 723.173 L158.496 731.645 Q159.515 731.298 160.533 731.136 Q161.552 730.951 162.57 730.951 Q168.357 730.951 171.737 734.122 Q175.116 737.293 175.116 742.71 Q175.116 748.289 171.644 751.39 Q168.172 754.469 161.852 754.469 Q159.677 754.469 157.408 754.099 Q155.163 753.728 152.755 752.988 L152.755 748.289 Q154.839 749.423 157.061 749.978 Q159.283 750.534 161.76 750.534 Q165.765 750.534 168.102 748.427 Q170.44 746.321 170.44 742.71 Q170.44 739.099 168.102 736.992 Q165.765 734.886 161.76 734.886 Q159.885 734.886 158.01 735.303 Q156.158 735.719 154.214 736.599 L154.214 719.238 Z" fill="#000000" fill-rule="evenodd" fill-opacity="1" /><path clip-path="url(#clip620)" d="M 0 0 M190.186 722.317 Q186.575 722.317 184.746 725.881 Q182.94 729.423 182.94 736.553 Q182.94 743.659 184.746 747.224 Q186.575 750.765 190.186 750.765 Q193.82 750.765 195.625 747.224 Q197.454 743.659 197.454 736.553 Q197.454 729.423 195.625 725.881 Q193.82 722.317 190.186 722.317 M190.186 718.613 Q195.996 718.613 199.051 723.219 Q202.13 727.803 202.13 736.553 Q202.13 745.279 199.051 749.886 Q195.996 754.469 190.186 754.469 Q184.376 754.469 181.297 749.886 Q178.241 745.279 178.241 736.553 Q178.241 727.803 181.297 723.219 Q184.376 718.613 190.186 718.613 Z" fill="#000000" fill-rule="evenodd" fill-opacity="1" /><path clip-path="url(#clip620)" d="M 0 0 M128.103 432.11 Q124.492 432.11 122.663 435.675 Q120.857 439.216 120.857 446.346 Q120.857 453.453 122.663 457.017 Q124.492 460.559 128.103 460.559 Q131.737 460.559 133.542 457.017 Q135.371 453.453 135.371 446.346 Q135.371 439.216 133.542 435.675 Q131.737 432.11 128.103 432.11 M128.103 428.406 Q133.913 428.406 136.968 433.013 Q140.047 437.596 140.047 446.346 Q140.047 455.073 136.968 459.679 Q133.913 464.263 128.103 464.263 Q122.293 464.263 119.214 459.679 Q116.158 455.073 116.158 446.346 Q116.158 437.596 119.214 433.013 Q122.293 428.406 128.103 428.406 Z" fill="#000000" fill-rule="evenodd" fill-opacity="1" /><path clip-path="url(#clip620)" d="M 0 0 M145.116 457.712 L150.001 457.712 L150.001 463.591 L145.116 463.591 L145.116 457.712 Z" fill="#000000" fill-rule="evenodd" fill-opacity="1" /><path clip-path="url(#clip620)" d="M 0 0 M153.89 429.031 L176.112 429.031 L176.112 431.022 L163.565 463.591 L158.681 463.591 L170.487 432.967 L153.89 432.967 L153.89 429.031 Z" fill="#000000" fill-rule="evenodd" fill-opacity="1" /><path clip-path="url(#clip620)" d="M 0 0 M181.227 429.031 L199.584 429.031 L199.584 432.967 L185.51 432.967 L185.51 441.439 Q186.528 441.091 187.547 440.929 Q188.565 440.744 189.584 440.744 Q195.371 440.744 198.75 443.916 Q202.13 447.087 202.13 452.503 Q202.13 458.082 198.658 461.184 Q195.186 464.263 188.866 464.263 Q186.69 464.263 184.422 463.892 Q182.176 463.522 179.769 462.781 L179.769 458.082 Q181.852 459.216 184.075 459.772 Q186.297 460.327 188.774 460.327 Q192.778 460.327 195.116 458.221 Q197.454 456.115 197.454 452.503 Q197.454 448.892 195.116 446.786 Q192.778 444.679 188.774 444.679 Q186.899 444.679 185.024 445.096 Q183.172 445.513 181.227 446.392 L181.227 429.031 Z" fill="#000000" fill-rule="evenodd" fill-opacity="1" /><path clip-path="url(#clip620)" d="M 0 0 M118.242 169.45 L125.88 169.45 L125.88 143.084 L117.57 144.751 L117.57 140.492 L125.834 138.825 L130.51 138.825 L130.51 169.45 L138.149 169.45 L138.149 173.385 L118.242 173.385 L118.242 169.45 Z" fill="#000000" fill-rule="evenodd" fill-opacity="1" /><path clip-path="url(#clip620)" d="M 0 0 M143.218 167.505 L148.103 167.505 L148.103 173.385 L143.218 173.385 L143.218 167.505 Z" fill="#000000" fill-rule="evenodd" fill-opacity="1" /><path clip-path="url(#clip620)" d="M 0 0 M163.172 141.904 Q159.561 141.904 157.732 145.468 Q155.927 149.01 155.927 156.14 Q155.927 163.246 157.732 166.811 Q159.561 170.352 163.172 170.352 Q166.806 170.352 168.612 166.811 Q170.44 163.246 170.44 156.14 Q170.44 149.01 168.612 145.468 Q166.806 141.904 163.172 141.904 M163.172 138.2 Q168.982 138.2 172.038 142.806 Q175.116 147.39 175.116 156.14 Q175.116 164.866 172.038 169.473 Q168.982 174.056 163.172 174.056 Q157.362 174.056 154.283 169.473 Q151.228 164.866 151.228 156.14 Q151.228 147.39 154.283 142.806 Q157.362 138.2 163.172 138.2 Z" fill="#000000" fill-rule="evenodd" fill-opacity="1" /><path clip-path="url(#clip620)" d="M 0 0 M190.186 141.904 Q186.575 141.904 184.746 145.468 Q182.94 149.01 182.94 156.14 Q182.94 163.246 184.746 166.811 Q186.575 170.352 190.186 170.352 Q193.82 170.352 195.625 166.811 Q197.454 163.246 197.454 156.14 Q197.454 149.01 195.625 145.468 Q193.82 141.904 190.186 141.904 M190.186 138.2 Q195.996 138.2 199.051 142.806 Q202.13 147.39 202.13 156.14 Q202.13 164.866 199.051 169.473 Q195.996 174.056 190.186 174.056 Q184.376 174.056 181.297 169.473 Q178.241 164.866 178.241 156.14 Q178.241 147.39 181.297 142.806 Q184.376 138.2 190.186 138.2 Z" fill="#000000" fill-rule="evenodd" fill-opacity="1" /><path clip-path="url(#clip620)" d="M 0 0 M70.212 745.095 Q76.6732 745.095 80.3653 742.453 Q84.0256 739.779 84.0256 735.132 Q84.0256 730.485 80.3653 727.812 Q76.6732 725.138 70.212 725.138 Q63.7508 725.138 60.0905 727.812 Q56.3984 730.485 56.3984 735.132 Q56.3984 739.779 60.0905 742.453 Q63.7508 745.095 70.212 745.095 M82.657 725.138 Q85.8398 726.984 87.3994 729.817 Q88.9272 732.618 88.9272 736.565 Q88.9272 743.026 83.771 747.1 Q78.6147 751.142 70.212 751.142 Q61.8093 751.142 56.6531 747.1 Q51.4968 743.026 51.4968 736.565 Q51.4968 732.618 53.0564 729.817 Q54.5842 726.984 57.7671 725.138 L52.3562 725.138 L52.3562 719.282 L101.563 719.282 L101.563 725.138 L82.657 725.138 Z" fill="#000000" fill-rule="evenodd" fill-opacity="1" /><polyline clip-path="url(#clip622)" style="stroke:#009af9; stroke-width:4; stroke-opacity:1; fill:none" points="
  238.13,1316.93 240.983,1316.93 246.39,1316.93 251.798,1316.93 254.651,1316.93 257.503,1316.93 262.911,1316.93 268.318,1316.93 271.171,1316.93 
  274.024,1316.93 279.431,1316.93 284.839,1316.93 287.692,1316.93 290.544,1316.93 295.952,1316.93 301.359,1316.93 304.212,1316.93 
  307.065,1316.93 312.472,1316.93 317.88,1316.93 320.733,1316.93 323.585,1316.93 328.993,1316.93 334.4,1316.93 337.253,1316.93 
  340.106,1316.93 345.513,1316.93 350.921,1316.93 353.774,1316.93 356.626,1316.93 362.034,1316.93 367.442,1316.93 370.294,1316.93 
  373.147,1316.93 378.554,1316.93 383.962,1316.93 386.815,1316.93 389.667,1316.93 395.075,1316.93 400.483,1316.93 403.335,1316.93 
  406.188,1316.93 411.595,1316.93 417.003,1316.93 419.856,1316.93 422.708,1316.93 428.116,1316.93 433.524,1316.93 436.376,1316.93 
  439.229,1316.93 444.636,1316.93 450.044,1316.93 452.897,1316.93 455.749,1316.93 461.157,1316.93 466.565,1316.93 469.417,1316.93 
  472.27,1316.93 477.678,1316.93 483.085,1316.93 485.938,1316.93 488.79,1316.93 494.198,1316.93 499.606,1316.93 502.458,1316.93 
  505.311,1316.93 510.719,1316.93 516.126,1316.93 518.979,1316.93 521.831,1316.93 527.239,1316.93 532.647,1316.93 535.499,1316.93 
  538.352,1316.93 543.76,1316.93 549.167,1316.93 552.02,1316.93 554.872,1316.93 560.28,1316.93 565.688,1316.93 568.54,1316.93 
  571.393,1316.93 576.801,1316.93 582.208,1316.93 585.061,1316.93 587.914,1316.93 593.321,1316.93 598.729,1316.93 601.581,1316.93 
  604.434,1316.93 609.842,1316.93 615.249,1316.93 618.102,1316.93 620.955,1316.93 626.362,1316.93 631.77,1316.93 634.622,1316.93 
  637.475,1316.93 642.883,1316.93 648.29,1316.93 651.143,1316.93 653.996,1316.93 659.403,1316.93 664.811,1316.93 667.663,1316.93 
  670.516,1316.93 675.924,1316.93 681.331,1316.93 684.184,1316.93 687.037,1316.93 692.444,156.105 697.852,156.105 700.704,156.105 
  703.557,156.105 708.965,156.105 714.372,156.105 717.225,156.105 720.078,156.105 725.485,156.105 730.893,156.105 733.745,156.105 
  736.598,156.105 742.006,156.105 747.413,156.105 750.266,156.105 753.119,156.105 758.526,156.105 763.934,156.105 766.787,156.105 
  769.639,156.105 775.047,156.105 780.454,156.105 783.307,156.105 786.16,156.105 791.567,156.105 796.975,156.105 799.828,156.105 
  802.68,156.105 808.088,156.105 813.495,156.105 816.348,156.105 819.201,156.105 824.608,156.105 830.016,156.105 832.869,156.105 
  835.721,156.105 841.129,156.105 846.536,156.105 849.389,156.105 852.242,156.105 857.649,156.105 863.057,156.105 865.91,156.105 
  868.762,156.105 874.17,156.105 879.577,156.105 882.43,156.105 885.283,156.105 890.69,156.105 896.098,156.105 898.951,156.105 
  901.803,156.105 907.211,156.105 912.618,156.105 915.471,156.105 918.324,156.105 923.731,156.105 929.139,156.105 931.992,156.105 
  934.844,156.105 940.252,156.105 945.66,156.105 948.512,156.105 951.365,156.105 956.772,156.105 962.18,156.105 965.033,156.105 
  967.885,156.105 973.293,156.105 978.701,156.105 981.553,156.105 984.406,156.105 989.813,156.105 995.221,1316.93 998.074,1316.93 
  1000.93,1316.93 1006.33,1316.93 1011.74,1316.93 1014.59,1316.93 1017.45,1316.93 1022.85,1316.93 1028.26,1316.93 1031.11,1316.93 
  1033.97,1316.93 1039.38,1316.93 1044.78,1316.93 1047.64,1316.93 1050.49,1316.93 1055.9,1316.93 1061.3,1316.93 1064.16,1316.93 
  1067.01,1316.93 1072.42,1316.93 1077.82,1316.93 1080.68,1316.93 1083.53,1316.93 1088.94,1316.93 1094.34,1316.93 1097.2,1316.93 
  1100.05,1316.93 1105.46,1316.93 1110.86,1316.93 1113.72,1316.93 1116.57,1316.93 1121.98,1316.93 1127.39,1316.93 1130.24,1316.93 
  1133.09,1316.93 1138.5,1316.93 1143.91,1316.93 1146.76,1316.93 1149.61,1316.93 1155.02,1316.93 1160.43,1316.93 1163.28,1316.93 
  1166.13,1316.93 1171.54,1316.93 1176.95,1316.93 1179.8,1316.93 1182.65,1316.93 1188.06,1316.93 1193.47,1316.93 1196.32,1316.93 
  1199.17,1316.93 1204.58,1316.93 1209.99,1316.93 1212.84,1316.93 1215.69,1316.93 1221.1,1316.93 1226.51,1316.93 1229.36,1316.93 
  1232.21,1316.93 1237.62,1316.93 1243.03,1316.93 1245.88,1316.93 1248.73,1316.93 1254.14,1316.93 1259.55,1316.93 1262.4,1316.93 
  1265.25,1316.93 1270.66,1316.93 1276.07,1316.93 1278.92,1316.93 1281.78,1316.93 1287.18,1316.93 1292.59,1316.93 1295.44,1316.93 
  1298.3,1316.93 1303.7,1316.93 1309.11,1316.93 1311.96,1316.93 1314.82,1316.93 1320.22,1316.93 1325.63,1316.93 1328.48,1316.93 
  1331.34,1316.93 1336.74,1316.93 1342.15,1316.93 1345,1316.93 1347.86,1316.93 1353.26,1316.93 1358.67,1316.93 1361.53,1316.93 
  1364.38,1316.93 1369.79,1316.93 1375.19,1316.93 1378.05,1316.93 1380.9,1316.93 1386.31,1316.93 1391.71,1316.93 1394.57,1316.93 
  1397.42,1316.93 1402.83,1316.93 1408.23,1316.93 1411.09,1316.93 1413.94,1316.93 1419.35,1316.93 1424.75,1316.93 1427.61,1316.93 
  1430.46,1316.93 1435.87,1316.93 1441.27,1316.93 1444.13,1316.93 1446.98,1316.93 1452.39,1316.93 1457.8,1316.93 1460.65,1316.93 
  1463.5,1316.93 1468.91,1316.93 1474.32,1316.93 1477.17,1316.93 1480.02,1316.93 1485.43,1316.93 1490.84,1316.93 1493.69,1316.93 
  1496.54,1316.93 1501.95,1316.93 1507.36,1316.93 1510.21,1316.93 1513.06,1316.93 1518.47,1316.93 1523.88,1316.93 1526.73,1316.93 
  1529.58,1316.93 1534.99,1316.93 1540.4,1316.93 1543.25,1316.93 1546.1,1316.93 1551.51,1316.93 1556.92,1316.93 1559.77,1316.93 
  1562.62,1316.93 1568.03,1316.93 1573.44,1316.93 1576.29,1316.93 1579.14,1316.93 1584.55,1316.93 1589.96,1316.93 1592.81,1316.93 
  1595.66,1316.93 1601.07,1316.93 1606.48,1316.93 1609.33,1316.93 1612.19,1316.93 1617.59,1316.93 1623,1316.93 1625.85,1316.93 
  1628.71,1316.93 1634.11,1316.93 1639.52,1316.93 1642.37,1316.93 1645.23,1316.93 1650.63,1316.93 1656.04,1316.93 1658.89,1316.93 
  1661.75,1316.93 1667.15,1316.93 1672.56,1316.93 1675.41,1316.93 1678.27,1316.93 1683.68,1316.93 1689.08,1316.93 1691.94,1316.93 
  1694.79,1316.93 1700.2,1316.93 1705.6,1316.93 1708.46,1316.93 1711.31,1316.93 1716.72,1316.93 1722.12,1316.93 1724.98,1316.93 
  1727.83,1316.93 1733.24,1316.93 1738.64,1316.93 1741.5,1316.93 1744.35,1316.93 1749.76,1316.93 1755.16,1316.93 1758.02,1316.93 
  1760.87,1316.93 1766.28,1316.93 1771.69,1316.93 1774.54,1316.93 1777.39,1316.93 1782.8,1316.93 1788.21,1316.93 1791.06,1316.93 
  1793.91,1316.93 1799.32,1316.93 1804.73,1316.93 1807.58,1316.93 1810.43,1316.93 1815.84,1316.93 1821.25,1316.93 1824.1,1316.93 
  1826.95,1316.93 1832.36,1316.93 1837.77,1316.93 1840.62,1316.93 1843.47,1316.93 1848.88,1316.93 1854.29,1316.93 1857.14,1316.93 
  1859.99,1316.93 1865.4,1316.93 1870.81,1316.93 1873.66,1316.93 1876.51,1316.93 1881.92,1316.93 1887.33,1316.93 1890.18,1316.93 
  1893.03,1316.93 1898.44,1316.93 1903.85,1316.93 1906.7,1316.93 1909.55,1316.93 1914.96,1316.93 1920.37,1316.93 1923.22,1316.93 
  1926.08,1316.93 1931.48,1316.93 1936.89,1316.93 1939.74,1316.93 1942.6,1316.93 1948,1316.93 1953.41,1316.93 1956.26,1316.93 
  1959.12,1316.93 1964.52,1316.93 1969.93,1316.93 1972.78,1316.93 1975.64,1316.93 1981.04,1316.93 1986.45,1316.93 1989.3,1316.93 
  1992.16,1316.93 1997.56,1316.93 2002.97,1316.93 2005.83,1316.93 2008.68,1316.93 2014.09,1316.93 2019.49,1316.93 2022.35,1316.93 
  2025.2,1316.93 2030.61,1316.93 2036.01,1316.93 2038.87,1316.93 2041.72,1316.93 2047.13,1316.93 2052.53,1316.93 2055.39,1316.93 
  2058.24,1316.93 2063.65,1316.93 2069.05,1316.93 2071.91,1316.93 2074.76,1316.93 2080.17,1316.93 2085.58,1316.93 2088.43,1316.93 
  2091.28,1316.93 2096.69,1316.93 2102.1,1316.93 2104.95,1316.93 2107.8,1316.93 2113.21,1316.93 2118.62,1316.93 2121.47,1316.93 
  2124.32,1316.93 2129.73,1316.93 2135.14,1316.93 2137.99,1316.93 2140.84,1316.93 2146.25,1316.93 2151.66,1316.93 2154.51,1316.93 
  2157.36,1316.93 2162.77,1316.93 2168.18,1316.93 2171.03,1316.93 2173.88,1316.93 2179.29,1316.93 2184.7,1316.93 2187.55,1316.93 
  2190.4,1316.93 2195.81,1316.93 2201.22,1316.93 2204.07,1316.93 2206.92,1316.93 2212.33,1316.93 2217.74,1316.93 2220.59,1316.93 
  2223.44,1316.93 2228.85,1316.93 2234.26,1316.93 2237.11,1316.93 2239.96,1316.93 2245.37,1316.93 2250.78,1316.93 2253.63,1316.93 
  2256.49,1316.93 2261.89,1316.93 2267.3,1316.93 2270.15,1316.93 2273.01,1316.93 2278.41,1316.93 2283.82,1316.93 2286.67,1316.93 
  2289.53,1316.93 2294.93,1316.93 2300.34,1316.93 2303.19,1316.93 2306.05,1316.93 2311.45,1316.93 2316.86,1316.93 2319.71,1316.93 
  2322.57,1316.93 2327.98,1316.93 2333.38,1316.93 2336.24,1316.93 2339.09,1316.93 2344.5,1316.93 2349.9,1316.93 2352.76,1316.93 
  
  "/>
<polyline clip-path="url(#clip622)" style="stroke:#e26f46; stroke-width:4; stroke-opacity:1; fill:none" points="
  238.13,1316.93 240.983,1316.93 246.39,1316.93 251.798,1316.93 254.651,1316.93 257.503,1316.93 262.911,1316.93 268.318,1316.93 271.171,1316.93 
  274.024,1316.93 279.431,1316.93 284.839,1316.93 287.692,1316.93 290.544,1316.93 295.952,1316.93 301.359,1316.93 304.212,1316.93 
  307.065,1316.93 312.472,1316.93 317.88,1316.93 320.733,1316.93 323.585,1316.93 328.993,1316.93 334.4,1316.93 337.253,1316.93 
  340.106,1316.93 345.513,1316.93 350.921,1316.93 353.774,1316.93 356.626,1316.93 362.034,1316.93 367.442,1316.93 370.294,1316.93 
  373.147,1316.93 378.554,1316.93 383.962,1316.93 386.815,1316.93 389.667,1316.93 395.075,1316.93 400.483,1316.93 403.335,1316.93 
  406.188,1316.93 411.595,1316.93 417.003,1316.93 419.856,1316.93 422.708,1316.93 428.116,1316.93 433.524,1316.93 436.376,1316.93 
  439.229,1316.93 444.636,1316.93 450.044,1316.93 452.897,1316.93 455.749,1316.93 461.157,1316.93 466.565,1316.93 469.417,1316.93 
  472.27,1316.93 477.678,1316.93 483.085,1316.93 485.938,1316.93 488.79,1316.93 494.198,1316.93 499.606,1316.93 502.458,1316.93 
  505.311,1316.93 510.719,1316.93 516.126,1316.93 518.979,1316.93 521.831,1316.93 527.239,1316.93 532.647,1316.93 535.499,1316.93 
  538.352,1316.93 543.76,1316.93 549.167,1316.93 552.02,1316.93 554.872,1316.93 560.28,1316.93 565.688,1316.93 568.54,1316.93 
  571.393,1316.93 576.801,1316.93 582.208,1316.93 585.061,1316.93 587.914,1316.93 593.321,1316.93 598.729,1316.93 601.581,1316.93 
  604.434,1316.93 609.842,1316.93 615.249,1316.93 618.102,1316.93 620.955,1316.93 626.362,1316.93 631.77,1316.93 634.622,1316.93 
  637.475,1316.93 642.883,1316.93 648.29,1316.93 651.143,1316.93 653.996,1316.93 659.403,1316.93 664.811,1316.93 667.663,1316.93 
  670.516,1316.93 675.924,1316.93 681.331,1316.93 684.184,1316.93 687.037,1316.93 692.444,1316.93 697.852,1316.93 700.704,1316.93 
  703.557,1316.93 708.965,1316.93 714.372,1316.93 717.225,1316.93 720.078,1316.93 725.485,1316.93 730.893,1316.93 733.745,1316.93 
  736.598,1316.93 742.006,1316.93 747.413,1316.93 750.266,1316.93 753.119,1316.93 758.526,1316.93 763.934,1316.93 766.787,1316.93 
  766.787,1316.93 769.639,1316.93 775.047,1316.93 780.454,1316.93 783.307,1316.93 783.307,1316.93 786.16,1316.93 791.567,1316.93 796.975,1316.93 799.828,1316.93 
  799.828,1316.93 802.68,1316.93 808.088,1316.93 813.495,1316.93 816.348,1316.93 816.348,1316.93 819.201,1316.93 824.608,1316.93 830.016,1316.93 832.869,1316.93 
  832.869,1316.93 835.721,1316.93 841.129,1316.93 846.536,1316.93 849.389,1316.93 849.389,1316.93 852.242,1316.93 857.649,1316.93 863.057,1316.93 865.91,1316.93 
  865.91,1316.93 868.762,1316.93 874.17,1316.93 879.577,1316.93 882.43,1316.93 882.43,1316.93 885.283,1316.93 890.69,1316.93 896.098,1316.93 898.951,1316.93 
  898.951,1316.93 901.803,1316.93 907.211,1316.93 912.618,1316.93 915.471,1316.93 915.471,1316.93 918.324,1316.93 923.731,1316.93 929.139,1316.93 931.992,1316.93 
  931.992,1316.93 934.844,1316.93 940.252,1316.93 945.66,1316.93 948.512,1316.93 948.512,1316.93 951.365,1316.93 956.772,1316.93 962.18,1316.93 965.033,1316.93 
  965.033,1316.93 967.885,1316.93 973.293,1316.93 978.701,1316.93 981.553,1316.93 981.553,1316.93 984.406,1316.93 989.813,1316.93 995.221,1316.93 998.074,1316.93 
  998.074,1316.93 1000.93,1316.93 1006.33,1316.93 1011.74,1316.93 1014.59,1316.93 1014.59,1316.93 1017.45,1316.93 1022.85,1316.93 1028.26,1316.93 1031.11,1316.93 
  1031.11,1316.93 1033.97,1316.93 1039.38,1316.93 1044.78,1316.93 1047.64,1316.93 1047.64,1316.93 1050.49,1316.93 1055.9,1316.93 1061.3,1316.93 1064.16,1316.93 
  1064.16,1316.93 1067.01,1316.93 1072.42,1316.93 1077.82,1316.94 1080.68,1316.94 1080.68,1316.94 1083.53,1316.94 1088.94,1316.94 1094.34,1316.93 1097.2,1316.93 
  1097.2,1316.93 1100.05,1316.92 1105.46,1316.91 1110.86,1316.89 1113.72,1316.88 1113.72,1316.87 1116.57,1316.87 1121.98,1316.87 1127.39,1316.89 1130.24,1316.91 
  1130.24,1316.9 1133.09,1316.95 1138.5,1317.06 1143.91,1317.2 1146.76,1317.28 1146.76,1317.3 1149.61,1317.39 1155.02,1317.47 1160.43,1317.47 1163.28,1317.44 
  1163.28,1317.53 1166.13,1317.32 1171.54,1316.75 1176.95,1315.94 1179.8,1315.41 1179.8,1315.42 1182.65,1314.7 1188.06,1313.42 1193.47,1312.26 1196.32,1311.68 
  1196.32,1311.27 1199.17,1311.28 1204.58,1312.27 1209.99,1314.57 1212.84,1316.31 1212.84,1315.61 1215.69,1319.1 1221.1,1327 1226.51,1336.58 1229.36,1342.31 
  1229.36,1342.72 1232.21,1349.06 1237.62,1359.65 1243.03,1368.33 1245.88,1372.14 1245.88,1375.41 1248.73,1373.91 1254.14,1363.96 1259.55,1344.72 1262.4,1330.83 
  1262.4,1336.38 1265.25,1309.82 1270.66,1249.08 1276.07,1174.72 1278.92,1130.02 1278.92,1133.94 1281.78,1076.56 1287.18,961.957 1292.59,839.724 1295.44,772.173 
  1295.44,770.832 1298.3,701.565 1303.7,574.546 1309.11,453.139 1311.96,391.355 1311.96,385.778 1314.82,335.399 1320.22,250.671 1325.63,180.037 1328.48,148.451 
  1328.48,143.324 1331.34,126.368 1336.74,102.674 1342.15,90.03 1345,87.807 1345,86.1857 1347.86,91.2454 1353.26,102.708 1358.67,116.614 1361.53,124.934 
  1361.53,125.772 1364.38,133.332 1369.79,145.85 1375.19,155.995 1378.05,160.392 1378.05,161.25 1380.9,162.952 1386.31,164.862 1391.71,165.054 1394.57,164.463 
  1394.57,164.509 1397.42,163.161 1402.83,160.687 1408.23,158.323 1411.09,157.12 1411.09,156.915 1413.94,156.22 1419.35,155.244 1424.75,154.714 1427.61,154.614 
  1427.61,154.58 1430.46,154.741 1435.87,155.058 1441.27,155.389 1444.13,155.569 1444.13,155.609 1446.98,155.685 1452.39,155.777 1457.8,155.803 1460.65,155.79 
  1460.65,155.736 1463.5,155.756 1468.91,155.945 1474.32,156.33 1477.17,156.611 1477.17,156.534 1480.02,157.071 1485.43,158.195 1490.84,159.455 1493.69,160.175 
  1493.69,160.405 1496.54,160.945 1501.95,161.336 1507.36,160.899 1510.21,160.334 1510.21,161.018 1513.06,159.038 1518.47,153.872 1523.88,146.857 1526.73,142.413 
  1526.73,142.628 1529.58,136.673 1534.99,125.423 1540.4,114.219 1543.25,108.329 1543.25,106.19 1546.1,103.006 1551.51,101.969 1556.92,107.473 1559.77,113.01 
  1559.77,107.97 1562.62,123.925 1568.03,164.11 1573.44,217.3 1576.29,250.596 1576.29,245.555 1579.14,292.836 1584.55,390.89 1589.96,499.966 1592.81,561.943 
  1592.81,561.241 1595.66,629.762 1601.07,759.061 1606.48,887.584 1609.33,955.069 1609.33,959.582 1612.19,1019.69 1617.59,1124.22 1623,1216.44 1625.85,1260.13 
  1625.85,1265.96 1628.71,1294.67 1634.11,1338.93 1639.52,1369.89 1642.37,1380.88 1642.37,1383.82 1645.23,1384.24 1650.63,1380.86 1656.04,1372.02 1658.89,1365.16 
  1658.89,1364.91 1661.75,1356.49 1667.15,1341.62 1672.56,1328.13 1675.41,1321.58 1675.41,1320.53 1678.27,1316.69 1683.68,1311.2 1689.08,1308.05 1691.94,1307.33 
  1691.94,1307.02 1694.79,1307.85 1700.2,1309.75 1705.6,1312.08 1708.46,1313.48 1708.46,1313.67 1711.31,1314.8 1716.72,1316.56 1722.12,1317.82 1724.98,1318.29 
  1724.98,1318.4 1727.83,1318.42 1733.24,1318.31 1738.64,1318.01 1741.5,1317.78 1741.5,1317.75 1744.35,1317.51 1749.76,1317.14 1755.16,1316.85 1758.02,1316.73 
  1758.02,1316.71 1760.87,1316.69 1766.28,1316.69 1771.69,1316.73 1774.54,1316.77 1774.54,1316.78 1777.39,1316.82 1782.8,1316.9 1788.21,1316.95 1791.06,1316.97 
  1791.06,1316.97 1793.91,1316.98 1799.32,1316.97 1804.73,1316.96 1807.58,1316.95 1807.58,1316.95 1810.43,1316.94 1815.84,1316.93 1821.25,1316.92 1824.1,1316.92 
  1824.1,1316.92 1826.95,1316.92 1832.36,1316.92 1837.77,1316.93 1840.62,1316.93 1840.62,1316.93 1843.47,1316.93 1848.88,1316.93 1854.29,1316.93 1857.14,1316.93 
  1857.14,1316.93 1859.99,1316.93 1865.4,1316.93 1870.81,1316.93 1873.66,1316.93 1873.66,1316.93 1876.51,1316.93 1881.92,1316.93 1887.33,1316.93 1890.18,1316.93 
  1890.18,1316.93 1893.03,1316.93 1898.44,1316.93 1903.85,1316.93 1906.7,1316.93 1906.7,1316.93 1909.55,1316.93 1914.96,1316.93 1920.37,1316.93 1923.22,1316.93 
  1923.22,1316.93 1926.08,1316.93 1931.48,1316.93 1936.89,1316.93 1939.74,1316.93 1939.74,1316.93 1942.6,1316.93 1948,1316.93 1953.41,1316.93 1956.26,1316.93 
  1956.26,1316.93 1959.12,1316.93 1964.52,1316.93 1969.93,1316.93 1972.78,1316.93 1972.78,1316.93 1975.64,1316.93 1981.04,1316.93 1986.45,1316.93 1989.3,1316.93 
  1989.3,1316.93 1992.16,1316.93 1997.56,1316.93 2002.97,1316.93 2005.83,1316.93 2005.83,1316.93 2008.68,1316.93 2014.09,1316.93 2019.49,1316.93 2022.35,1316.93 
  2022.35,1316.93 2025.2,1316.93 2030.61,1316.93 2036.01,1316.93 2038.87,1316.93 2038.87,1316.93 2041.72,1316.93 2047.13,1316.93 2052.53,1316.93 2055.39,1316.93 
  2055.39,1316.93 2058.24,1316.93 2063.65,1316.93 2069.05,1316.93 2071.91,1316.93 2071.91,1316.93 2074.76,1316.93 2080.17,1316.93 2085.58,1316.93 2088.43,1316.93 
  2088.43,1316.93 2091.28,1316.93 2096.69,1316.93 2102.1,1316.93 2104.95,1316.93 2104.95,1316.93 2107.8,1316.93 2113.21,1316.93 2118.62,1316.93 2121.47,1316.93 
  2121.47,1316.93 2124.32,1316.93 2129.73,1316.93 2135.14,1316.93 2137.99,1316.93 2137.99,1316.93 2140.84,1316.93 2146.25,1316.93 2151.66,1316.93 2154.51,1316.93 
  2154.51,1316.93 2157.36,1316.93 2162.77,1316.93 2168.18,1316.93 2171.03,1316.93 2173.88,1316.93 2179.29,1316.93 2184.7,1316.93 2187.55,1316.93 
  2190.4,1316.93 2195.81,1316.93 2201.22,1316.93 2204.07,1316.93 2206.92,1316.93 2212.33,1316.93 2217.74,1316.93 2220.59,1316.93 
  2223.44,1316.93 2228.85,1316.93 2234.26,1316.93 2237.11,1316.93 2239.96,1316.93 2245.37,1316.93 2250.78,1316.93 2253.63,1316.93 
  2256.49,1316.93 2261.89,1316.93 2267.3,1316.93 2270.15,1316.93 2273.01,1316.93 2278.41,1316.93 2283.82,1316.93 2286.67,1316.93 
  2289.53,1316.93 2294.93,1316.93 2300.34,1316.93 2303.19,1316.93 2306.05,1316.93 2311.45,1316.93 2316.86,1316.93 2319.71,1316.93 
  2322.57,1316.93 2327.98,1316.93 2333.38,1316.93 2336.24,1316.93 2339.09,1316.93 2344.5,1316.93 2349.9,1316.93 2352.76,1316.93 
  
  "/>
<path clip-path="url(#clip620)" d="
M1786.57 274.549 L2282.27 274.549 L2282.27 93.1086 L1786.57 93.1086  Z
  " fill="#ffffff" fill-rule="evenodd" fill-opacity="1"/>
<polyline clip-path="url(#clip620)" style="stroke:#000000; stroke-width:4; stroke-opacity:1; fill:none" points="
  1786.57,274.549 2282.27,274.549 2282.27,93.1086 1786.57,93.1086 1786.57,274.549 
  "/>
<polyline clip-path="url(#clip620)" style="stroke:#009af9; stroke-width:4; stroke-opacity:1; fill:none" points="
  1810.07,153.589 1951.04,153.589 
  "/>
<path clip-path="url(#clip620)" d="M 0 0 M1981.94 137.582 L1981.94 144.943 L1990.72 144.943 L1990.72 148.253 L1981.94 148.253 L1981.94 162.327 Q1981.94 165.498 1982.8 166.401 Q1983.68 167.304 1986.34 167.304 L1990.72 167.304 L1990.72 170.869 L1986.34 170.869 Q1981.41 170.869 1979.54 169.04 Q1977.66 167.188 1977.66 162.327 L1977.66 148.253 L1974.54 148.253 L1974.54 144.943 L1977.66 144.943 L1977.66 137.582 L1981.94 137.582 Z" fill="#000000" fill-rule="evenodd" fill-opacity="1" /><path clip-path="url(#clip620)" d="M 0 0 M1995.74 149.341 L2025.42 149.341 L2025.42 153.23 L1995.74 153.23 L1995.74 149.341 M1995.74 158.785 L2025.42 158.785 L2025.42 162.721 L1995.74 162.721 L1995.74 158.785 Z" fill="#000000" fill-rule="evenodd" fill-opacity="1" /><path clip-path="url(#clip620)" d="M 0 0 M2040.49 139.387 Q2036.87 139.387 2035.05 142.952 Q2033.24 146.494 2033.24 153.623 Q2033.24 160.73 2035.05 164.295 Q2036.87 167.836 2040.49 167.836 Q2044.12 167.836 2045.93 164.295 Q2047.75 160.73 2047.75 153.623 Q2047.75 146.494 2045.93 142.952 Q2044.12 139.387 2040.49 139.387 M2040.49 135.684 Q2046.3 135.684 2049.35 140.29 Q2052.43 144.873 2052.43 153.623 Q2052.43 162.35 2049.35 166.957 Q2046.3 171.54 2040.49 171.54 Q2034.68 171.54 2031.6 166.957 Q2028.54 162.35 2028.54 153.623 Q2028.54 144.873 2031.6 140.29 Q2034.68 135.684 2040.49 135.684 Z" fill="#000000" fill-rule="evenodd" fill-opacity="1" /><path clip-path="url(#clip620)" d="M 0 0 M2057.5 164.989 L2062.38 164.989 L2062.38 170.869 L2057.5 170.869 L2057.5 164.989 Z" fill="#000000" fill-rule="evenodd" fill-opacity="1" /><path clip-path="url(#clip620)" d="M 0 0 M2077.45 139.387 Q2073.84 139.387 2072.01 142.952 Q2070.21 146.494 2070.21 153.623 Q2070.21 160.73 2072.01 164.295 Q2073.84 167.836 2077.45 167.836 Q2081.09 167.836 2082.89 164.295 Q2084.72 160.73 2084.72 153.623 Q2084.72 146.494 2082.89 142.952 Q2081.09 139.387 2077.45 139.387 M2077.45 135.684 Q2083.26 135.684 2086.32 140.29 Q2089.4 144.873 2089.4 153.623 Q2089.4 162.35 2086.32 166.957 Q2083.26 171.54 2077.45 171.54 Q2071.64 171.54 2068.56 166.957 Q2065.51 162.35 2065.51 153.623 Q2065.51 144.873 2068.56 140.29 Q2071.64 135.684 2077.45 135.684 Z" fill="#000000" fill-rule="evenodd" fill-opacity="1" /><path clip-path="url(#clip620)" d="M 0 0 M2108.54 134.85 L2118.36 134.85 L2118.36 138.16 L2112.8 138.16 L2112.8 173.808 L2118.36 173.808 L2118.36 177.119 L2108.54 177.119 L2108.54 134.85 Z" fill="#000000" fill-rule="evenodd" fill-opacity="1" /><path clip-path="url(#clip620)" d="M 0 0 M2139.35 145.707 L2139.35 149.734 Q2137.55 148.809 2135.6 148.346 Q2133.66 147.883 2131.57 147.883 Q2128.4 147.883 2126.81 148.855 Q2125.23 149.827 2125.23 151.771 Q2125.23 153.253 2126.37 154.109 Q2127.5 154.943 2130.93 155.707 L2132.38 156.031 Q2136.92 157.003 2138.82 158.785 Q2140.74 160.545 2140.74 163.716 Q2140.74 167.327 2137.87 169.433 Q2135.02 171.54 2130.02 171.54 Q2127.94 171.54 2125.67 171.123 Q2123.43 170.73 2120.93 169.92 L2120.93 165.521 Q2123.29 166.748 2125.58 167.373 Q2127.87 167.975 2130.12 167.975 Q2133.12 167.975 2134.74 166.957 Q2136.37 165.915 2136.37 164.04 Q2136.37 162.304 2135.18 161.378 Q2134.03 160.452 2130.07 159.596 L2128.59 159.248 Q2124.63 158.415 2122.87 156.702 Q2121.11 154.966 2121.11 151.957 Q2121.11 148.299 2123.7 146.309 Q2126.3 144.318 2131.06 144.318 Q2133.43 144.318 2135.51 144.665 Q2137.59 145.012 2139.35 145.707 Z" fill="#000000" fill-rule="evenodd" fill-opacity="1" /><path clip-path="url(#clip620)" d="M 0 0 M2155.16 134.85 L2155.16 177.119 L2145.35 177.119 L2145.35 173.808 L2150.88 173.808 L2150.88 138.16 L2145.35 138.16 L2145.35 134.85 L2155.16 134.85 Z" fill="#000000" fill-rule="evenodd" fill-opacity="1" /><polyline clip-path="url(#clip620)" style="stroke:#e26f46; stroke-width:4; stroke-opacity:1; fill:none" points="
  1810.07,214.069 1951.04,214.069 
  "/>
<path clip-path="url(#clip620)" d="M 0 0 M1981.94 198.062 L1981.94 205.423 L1990.72 205.423 L1990.72 208.733 L1981.94 208.733 L1981.94 222.807 Q1981.94 225.978 1982.8 226.881 Q1983.68 227.784 1986.34 227.784 L1990.72 227.784 L1990.72 231.349 L1986.34 231.349 Q1981.41 231.349 1979.54 229.52 Q1977.66 227.668 1977.66 222.807 L1977.66 208.733 L1974.54 208.733 L1974.54 205.423 L1977.66 205.423 L1977.66 198.062 L1981.94 198.062 Z" fill="#000000" fill-rule="evenodd" fill-opacity="1" /><path clip-path="url(#clip620)" d="M 0 0 M1995.74 209.821 L2025.42 209.821 L2025.42 213.71 L1995.74 213.71 L1995.74 209.821 M1995.74 219.265 L2025.42 219.265 L2025.42 223.201 L1995.74 223.201 L1995.74 219.265 Z" fill="#000000" fill-rule="evenodd" fill-opacity="1" /><path clip-path="url(#clip620)" d="M 0 0 M2043.33 200.863 L2031.53 219.312 L2043.33 219.312 L2043.33 200.863 M2042.11 196.789 L2047.99 196.789 L2047.99 219.312 L2052.92 219.312 L2052.92 223.201 L2047.99 223.201 L2047.99 231.349 L2043.33 231.349 L2043.33 223.201 L2027.73 223.201 L2027.73 218.687 L2042.11 196.789 Z" fill="#000000" fill-rule="evenodd" fill-opacity="1" /><path clip-path="url(#clip620)" d="M 0 0 M2058.03 196.789 L2076.39 196.789 L2076.39 200.724 L2062.31 200.724 L2062.31 209.196 Q2063.33 208.849 2064.35 208.687 Q2065.37 208.502 2066.39 208.502 Q2072.18 208.502 2075.56 211.673 Q2078.93 214.844 2078.93 220.261 Q2078.93 225.839 2075.46 228.941 Q2071.99 232.02 2065.67 232.02 Q2063.5 232.02 2061.23 231.65 Q2058.98 231.279 2056.57 230.538 L2056.57 225.839 Q2058.66 226.974 2060.88 227.529 Q2063.1 228.085 2065.58 228.085 Q2069.58 228.085 2071.92 225.978 Q2074.26 223.872 2074.26 220.261 Q2074.26 216.65 2071.92 214.543 Q2069.58 212.437 2065.58 212.437 Q2063.7 212.437 2061.83 212.853 Q2059.98 213.27 2058.03 214.15 L2058.03 196.789 Z" fill="#000000" fill-rule="evenodd" fill-opacity="1" /><path clip-path="url(#clip620)" d="M 0 0 M2094 199.867 Q2090.39 199.867 2088.56 203.432 Q2086.76 206.974 2086.76 214.103 Q2086.76 221.21 2088.56 224.775 Q2090.39 228.316 2094 228.316 Q2097.64 228.316 2099.44 224.775 Q2101.27 221.21 2101.27 214.103 Q2101.27 206.974 2099.44 203.432 Q2097.64 199.867 2094 199.867 M2094 196.164 Q2099.81 196.164 2102.87 200.77 Q2105.95 205.353 2105.95 214.103 Q2105.95 222.83 2102.87 227.437 Q2099.81 232.02 2094 232.02 Q2088.19 232.02 2085.12 227.437 Q2082.06 222.83 2082.06 214.103 Q2082.06 205.353 2085.12 200.77 Q2088.19 196.164 2094 196.164 Z" fill="#000000" fill-rule="evenodd" fill-opacity="1" /><path clip-path="url(#clip620)" d="M 0 0 M2111.02 225.469 L2115.9 225.469 L2115.9 231.349 L2111.02 231.349 L2111.02 225.469 Z" fill="#000000" fill-rule="evenodd" fill-opacity="1" /><path clip-path="url(#clip620)" d="M 0 0 M2133.82 200.863 L2122.01 219.312 L2133.82 219.312 L2133.82 200.863 M2132.59 196.789 L2138.47 196.789 L2138.47 219.312 L2143.4 219.312 L2143.4 223.201 L2138.47 223.201 L2138.47 231.349 L2133.82 231.349 L2133.82 223.201 L2118.22 223.201 L2118.22 218.687 L2132.59 196.789 Z" fill="#000000" fill-rule="evenodd" fill-opacity="1" /><path clip-path="url(#clip620)" d="M 0 0 M2147.29 196.789 L2169.51 196.789 L2169.51 198.779 L2156.97 231.349 L2152.08 231.349 L2163.89 200.724 L2147.29 200.724 L2147.29 196.789 Z" fill="#000000" fill-rule="evenodd" fill-opacity="1" /><path clip-path="url(#clip620)" d="M 0 0 M2188.66 195.33 L2198.47 195.33 L2198.47 198.64 L2192.92 198.64 L2192.92 234.288 L2198.47 234.288 L2198.47 237.599 L2188.66 237.599 L2188.66 195.33 Z" fill="#000000" fill-rule="evenodd" fill-opacity="1" /><path clip-path="url(#clip620)" d="M 0 0 M2219.47 206.187 L2219.47 210.214 Q2217.66 209.289 2215.72 208.826 Q2213.77 208.363 2211.69 208.363 Q2208.52 208.363 2206.92 209.335 Q2205.35 210.307 2205.35 212.251 Q2205.35 213.733 2206.48 214.589 Q2207.61 215.423 2211.04 216.187 L2212.5 216.511 Q2217.04 217.483 2218.93 219.265 Q2220.86 221.025 2220.86 224.196 Q2220.86 227.807 2217.99 229.913 Q2215.14 232.02 2210.14 232.02 Q2208.05 232.02 2205.79 231.603 Q2203.54 231.21 2201.04 230.4 L2201.04 226.001 Q2203.4 227.228 2205.69 227.853 Q2207.99 228.455 2210.23 228.455 Q2213.24 228.455 2214.86 227.437 Q2216.48 226.395 2216.48 224.52 Q2216.48 222.784 2215.3 221.858 Q2214.14 220.932 2210.18 220.076 L2208.7 219.728 Q2204.74 218.895 2202.99 217.182 Q2201.23 215.446 2201.23 212.437 Q2201.23 208.779 2203.82 206.789 Q2206.41 204.798 2211.18 204.798 Q2213.54 204.798 2215.62 205.145 Q2217.71 205.492 2219.47 206.187 Z" fill="#000000" fill-rule="evenodd" fill-opacity="1" /><path clip-path="url(#clip620)" d="M 0 0 M2235.28 195.33 L2235.28 237.599 L2225.46 237.599 L2225.46 234.288 L2230.99 234.288 L2230.99 198.64 L2225.46 198.64 L2225.46 195.33 L2235.28 195.33 Z" fill="#000000" fill-rule="evenodd" fill-opacity="1" /></svg>
