<?xml version="1.0" encoding="utf-8"?>
<svg xmlns="http://www.w3.org/2000/svg" xmlns:xlink="http://www.w3.org/1999/xlink" width="600" height="400" viewBox="0 0 2400 1600">
<defs>
  <clipPath id="clip600">
    <rect x="0" y="0" width="2400" height="1600"/>
  </clipPath>
</defs>
<path clip-path="url(#clip600)" d="
M0 1600 L2400 1600 L2400 0 L0 0  Z
  " fill="#ffffff" fill-rule="evenodd" fill-opacity="1"/>
<defs>
  <clipPath id="clip601">
    <rect x="480" y="0" width="1681" height="1600"/>
  </clipPath>
</defs>
<path clip-path="url(#clip600)" d="
M238.13 1423.18 L2352.76 1423.18 L2352.76 47.2441 L238.13 47.2441  Z
  " fill="#ffffff" fill-rule="evenodd" fill-opacity="1"/>
<defs>
  <clipPath id="clip602">
    <rect x="238" y="47" width="2116" height="1377"/>
  </clipPath>
</defs>
<polyline clip-path="url(#clip602)" style="stroke:#000000; stroke-width:2; stroke-opacity:0.1; fill:none" points="
  238.13,1423.18 238.13,47.2441 
  "/>
<polyline clip-path="url(#clip602)" style="stroke:#000000; stroke-width:2; stroke-opacity:0.1; fill:none" points="
  540.219,1423.18 540.219,47.2441 
  "/>
<polyline clip-path="url(#clip602)" style="stroke:#000000; stroke-width:2; stroke-opacity:0.1; fill:none" points="
  842.309,1423.18 842.309,47.2441 
  "/>
<polyline clip-path="url(#clip602)" style="stroke:#000000; stroke-width:2; stroke-opacity:0.1; fill:none" points="
  1144.4,1423.18 1144.4,47.2441 
  "/>
<polyline clip-path="url(#clip602)" style="stroke:#000000; stroke-width:2; stroke-opacity:0.1; fill:none" points="
  1446.49,1423.18 1446.49,47.2441 
  "/>
<polyline clip-path="url(#clip602)" style="stroke:#000000; stroke-width:2; stroke-opacity:0.1; fill:none" points="
  1748.58,1423.18 1748.58,47.2441 
  "/>
<polyline clip-path="url(#clip602)" style="stroke:#000000; stroke-width:2; stroke-opacity:0.1; fill:none" points="
  2050.67,1423.18 2050.67,47.2441 
  "/>
<polyline clip-path="url(#clip602)" style="stroke:#000000; stroke-width:2; stroke-opacity:0.1; fill:none" points="
  2352.76,1423.18 2352.76,47.2441 
  "/>
<polyline clip-path="url(#clip600)" style="stroke:#000000; stroke-width:4; stroke-opacity:1; fill:none" points="
  238.13,1423.18 2352.76,1423.18 
  "/>
<polyline clip-path="url(#clip600)" style="stroke:#000000; stroke-width:4; stroke-opacity:1; fill:none" points="
  238.13,1423.18 238.13,1406.67 
  "/>
<polyline clip-path="url(#clip600)" style="stroke:#000000; stroke-width:4; stroke-opacity:1; fill:none" points="
  540.219,1423.18 540.219,1406.67 
  "/>
<polyline clip-path="url(#clip600)" style="stroke:#000000; stroke-width:4; stroke-opacity:1; fill:none" points="
  842.309,1423.18 842.309,1406.67 
  "/>
<polyline clip-path="url(#clip600)" style="stroke:#000000; stroke-width:4; stroke-opacity:1; fill:none" points="
  1144.4,1423.18 1144.4,1406.67 
  "/>
<polyline clip-path="url(#clip600)" style="stroke:#000000; stroke-width:4; stroke-opacity:1; fill:none" points="
  1446.49,1423.18 1446.49,1406.67 
  "/>
<polyline clip-path="url(#clip600)" style="stroke:#000000; stroke-width:4; stroke-opacity:1; fill:none" points="
  1748.58,1423.18 1748.58,1406.67 
  "/>
<polyline clip-path="url(#clip600)" style="stroke:#000000; stroke-width:4; stroke-opacity:1; fill:none" points="
  2050.67,1423.18 2050.67,1406.67 
  "/>
<polyline clip-path="url(#clip600)" style="stroke:#000000; stroke-width:4; stroke-opacity:1; fill:none" points="
  2352.76,1423.18 2352.76,1406.67 
  "/>
<path clip-path="url(#clip600)" d="M 0 0 M238.13 1452.37 Q234.519 1452.37 232.69 1455.94 Q230.885 1459.48 230.885 1466.61 Q230.885 1473.71 232.69 1477.28 Q234.519 1480.82 238.13 1480.82 Q241.764 1480.82 243.57 1477.28 Q245.399 1473.71 245.399 1466.61 Q245.399 1459.48 243.57 1455.94 Q241.764 1452.37 238.13 1452.37 M238.13 1448.67 Q243.94 1448.67 246.996 1453.27 Q250.074 1457.86 250.074 1466.61 Q250.074 1475.33 246.996 1479.94 Q243.94 1484.52 238.13 1484.52 Q232.32 1484.52 229.241 1479.94 Q226.186 1475.33 226.186 1466.61 Q226.186 1457.86 229.241 1453.27 Q232.32 1448.67 238.13 1448.67 Z" fill="#000000" fill-rule="evenodd" fill-opacity="1" /><path clip-path="url(#clip600)" d="M 0 0 M516.99 1449.29 L535.347 1449.29 L535.347 1453.23 L521.273 1453.23 L521.273 1461.7 Q522.291 1461.35 523.31 1461.19 Q524.328 1461 525.347 1461 Q531.134 1461 534.513 1464.18 Q537.893 1467.35 537.893 1472.76 Q537.893 1478.34 534.421 1481.44 Q530.949 1484.52 524.629 1484.52 Q522.453 1484.52 520.185 1484.15 Q517.939 1483.78 515.532 1483.04 L515.532 1478.34 Q517.615 1479.48 519.838 1480.03 Q522.06 1480.59 524.537 1480.59 Q528.541 1480.59 530.879 1478.48 Q533.217 1476.38 533.217 1472.76 Q533.217 1469.15 530.879 1467.05 Q528.541 1464.94 524.537 1464.94 Q522.662 1464.94 520.787 1465.36 Q518.935 1465.77 516.99 1466.65 L516.99 1449.29 Z" fill="#000000" fill-rule="evenodd" fill-opacity="1" /><path clip-path="url(#clip600)" d="M 0 0 M552.962 1452.37 Q549.351 1452.37 547.523 1455.94 Q545.717 1459.48 545.717 1466.61 Q545.717 1473.71 547.523 1477.28 Q549.351 1480.82 552.962 1480.82 Q556.597 1480.82 558.402 1477.28 Q560.231 1473.71 560.231 1466.61 Q560.231 1459.48 558.402 1455.94 Q556.597 1452.37 552.962 1452.37 M552.962 1448.67 Q558.773 1448.67 561.828 1453.27 Q564.907 1457.86 564.907 1466.61 Q564.907 1475.33 561.828 1479.94 Q558.773 1484.52 552.962 1484.52 Q547.152 1484.52 544.074 1479.94 Q541.018 1475.33 541.018 1466.61 Q541.018 1457.86 544.074 1453.27 Q547.152 1448.67 552.962 1448.67 Z" fill="#000000" fill-rule="evenodd" fill-opacity="1" /><path clip-path="url(#clip600)" d="M 0 0 M805.677 1479.92 L813.316 1479.92 L813.316 1453.55 L805.006 1455.22 L805.006 1450.96 L813.27 1449.29 L817.946 1449.29 L817.946 1479.92 L825.584 1479.92 L825.584 1483.85 L805.677 1483.85 L805.677 1479.92 Z" fill="#000000" fill-rule="evenodd" fill-opacity="1" /><path clip-path="url(#clip600)" d="M 0 0 M840.654 1452.37 Q837.043 1452.37 835.214 1455.94 Q833.408 1459.48 833.408 1466.61 Q833.408 1473.71 835.214 1477.28 Q837.043 1480.82 840.654 1480.82 Q844.288 1480.82 846.094 1477.28 Q847.922 1473.71 847.922 1466.61 Q847.922 1459.48 846.094 1455.94 Q844.288 1452.37 840.654 1452.37 M840.654 1448.67 Q846.464 1448.67 849.519 1453.27 Q852.598 1457.86 852.598 1466.61 Q852.598 1475.33 849.519 1479.94 Q846.464 1484.52 840.654 1484.52 Q834.844 1484.52 831.765 1479.94 Q828.709 1475.33 828.709 1466.61 Q828.709 1457.86 831.765 1453.27 Q834.844 1448.67 840.654 1448.67 Z" fill="#000000" fill-rule="evenodd" fill-opacity="1" /><path clip-path="url(#clip600)" d="M 0 0 M867.668 1452.37 Q864.056 1452.37 862.228 1455.94 Q860.422 1459.48 860.422 1466.61 Q860.422 1473.71 862.228 1477.28 Q864.056 1480.82 867.668 1480.82 Q871.302 1480.82 873.107 1477.28 Q874.936 1473.71 874.936 1466.61 Q874.936 1459.48 873.107 1455.94 Q871.302 1452.37 867.668 1452.37 M867.668 1448.67 Q873.478 1448.67 876.533 1453.27 Q879.612 1457.86 879.612 1466.61 Q879.612 1475.33 876.533 1479.94 Q873.478 1484.52 867.668 1484.52 Q861.857 1484.52 858.779 1479.94 Q855.723 1475.33 855.723 1466.61 Q855.723 1457.86 858.779 1453.27 Q861.857 1448.67 867.668 1448.67 Z" fill="#000000" fill-rule="evenodd" fill-opacity="1" /><path clip-path="url(#clip600)" d="M 0 0 M1108.26 1479.92 L1115.9 1479.92 L1115.9 1453.55 L1107.59 1455.22 L1107.59 1450.96 L1115.86 1449.29 L1120.53 1449.29 L1120.53 1479.92 L1128.17 1479.92 L1128.17 1483.85 L1108.26 1483.85 L1108.26 1479.92 Z" fill="#000000" fill-rule="evenodd" fill-opacity="1" /><path clip-path="url(#clip600)" d="M 0 0 M1133.29 1449.29 L1151.64 1449.29 L1151.64 1453.23 L1137.57 1453.23 L1137.57 1461.7 Q1138.59 1461.35 1139.61 1461.19 Q1140.63 1461 1141.64 1461 Q1147.43 1461 1150.81 1464.18 Q1154.19 1467.35 1154.19 1472.76 Q1154.19 1478.34 1150.72 1481.44 Q1147.25 1484.52 1140.93 1484.52 Q1138.75 1484.52 1136.48 1484.15 Q1134.24 1483.78 1131.83 1483.04 L1131.83 1478.34 Q1133.91 1479.48 1136.13 1480.03 Q1138.36 1480.59 1140.83 1480.59 Q1144.84 1480.59 1147.18 1478.48 Q1149.51 1476.38 1149.51 1472.76 Q1149.51 1469.15 1147.18 1467.05 Q1144.84 1464.94 1140.83 1464.94 Q1138.96 1464.94 1137.08 1465.36 Q1135.23 1465.77 1133.29 1466.65 L1133.29 1449.29 Z" fill="#000000" fill-rule="evenodd" fill-opacity="1" /><path clip-path="url(#clip600)" d="M 0 0 M1169.26 1452.37 Q1165.65 1452.37 1163.82 1455.94 Q1162.01 1459.48 1162.01 1466.61 Q1162.01 1473.71 1163.82 1477.28 Q1165.65 1480.82 1169.26 1480.82 Q1172.89 1480.82 1174.7 1477.28 Q1176.53 1473.71 1176.53 1466.61 Q1176.53 1459.48 1174.7 1455.94 Q1172.89 1452.37 1169.26 1452.37 M1169.26 1448.67 Q1175.07 1448.67 1178.12 1453.27 Q1181.2 1457.86 1181.2 1466.61 Q1181.2 1475.33 1178.12 1479.94 Q1175.07 1484.52 1169.26 1484.52 Q1163.45 1484.52 1160.37 1479.94 Q1157.31 1475.33 1157.31 1466.61 Q1157.31 1457.86 1160.37 1453.27 Q1163.45 1448.67 1169.26 1448.67 Z" fill="#000000" fill-rule="evenodd" fill-opacity="1" /><path clip-path="url(#clip600)" d="M 0 0 M1414.13 1479.92 L1430.45 1479.92 L1430.45 1483.85 L1408.5 1483.85 L1408.5 1479.92 Q1411.16 1477.16 1415.75 1472.53 Q1420.35 1467.88 1421.53 1466.54 Q1423.78 1464.01 1424.66 1462.28 Q1425.56 1460.52 1425.56 1458.83 Q1425.56 1456.07 1423.62 1454.34 Q1421.7 1452.6 1418.59 1452.6 Q1416.4 1452.6 1413.94 1453.37 Q1411.51 1454.13 1408.73 1455.68 L1408.73 1450.96 Q1411.56 1449.82 1414.01 1449.25 Q1416.46 1448.67 1418.5 1448.67 Q1423.87 1448.67 1427.07 1451.35 Q1430.26 1454.04 1430.26 1458.53 Q1430.26 1460.66 1429.45 1462.58 Q1428.66 1464.48 1426.56 1467.07 Q1425.98 1467.74 1422.88 1470.96 Q1419.77 1474.15 1414.13 1479.92 Z" fill="#000000" fill-rule="evenodd" fill-opacity="1" /><path clip-path="url(#clip600)" d="M 0 0 M1445.52 1452.37 Q1441.9 1452.37 1440.08 1455.94 Q1438.27 1459.48 1438.27 1466.61 Q1438.27 1473.71 1440.08 1477.28 Q1441.9 1480.82 1445.52 1480.82 Q1449.15 1480.82 1450.96 1477.28 Q1452.78 1473.71 1452.78 1466.61 Q1452.78 1459.48 1450.96 1455.94 Q1449.15 1452.37 1445.52 1452.37 M1445.52 1448.67 Q1451.33 1448.67 1454.38 1453.27 Q1457.46 1457.86 1457.46 1466.61 Q1457.46 1475.33 1454.38 1479.94 Q1451.33 1484.52 1445.52 1484.52 Q1439.71 1484.52 1436.63 1479.94 Q1433.57 1475.33 1433.57 1466.61 Q1433.57 1457.86 1436.63 1453.27 Q1439.71 1448.67 1445.52 1448.67 Z" fill="#000000" fill-rule="evenodd" fill-opacity="1" /><path clip-path="url(#clip600)" d="M 0 0 M1472.53 1452.37 Q1468.92 1452.37 1467.09 1455.94 Q1465.28 1459.48 1465.28 1466.61 Q1465.28 1473.71 1467.09 1477.28 Q1468.92 1480.82 1472.53 1480.82 Q1476.16 1480.82 1477.97 1477.28 Q1479.8 1473.71 1479.8 1466.61 Q1479.8 1459.48 1477.97 1455.94 Q1476.16 1452.37 1472.53 1452.37 M1472.53 1448.67 Q1478.34 1448.67 1481.39 1453.27 Q1484.47 1457.86 1484.47 1466.61 Q1484.47 1475.33 1481.39 1479.94 Q1478.34 1484.52 1472.53 1484.52 Q1466.72 1484.52 1463.64 1479.94 Q1460.58 1475.33 1460.58 1466.61 Q1460.58 1457.86 1463.64 1453.27 Q1466.72 1448.67 1472.53 1448.67 Z" fill="#000000" fill-rule="evenodd" fill-opacity="1" /><path clip-path="url(#clip600)" d="M 0 0 M1716.71 1479.92 L1733.03 1479.92 L1733.03 1483.85 L1711.09 1483.85 L1711.09 1479.92 Q1713.75 1477.16 1718.33 1472.53 Q1722.94 1467.88 1724.12 1466.54 Q1726.37 1464.01 1727.25 1462.28 Q1728.15 1460.52 1728.15 1458.83 Q1728.15 1456.07 1726.2 1454.34 Q1724.28 1452.6 1721.18 1452.6 Q1718.98 1452.6 1716.53 1453.37 Q1714.1 1454.13 1711.32 1455.68 L1711.32 1450.96 Q1714.14 1449.82 1716.6 1449.25 Q1719.05 1448.67 1721.09 1448.67 Q1726.46 1448.67 1729.65 1451.35 Q1732.85 1454.04 1732.85 1458.53 Q1732.85 1460.66 1732.04 1462.58 Q1731.25 1464.48 1729.14 1467.07 Q1728.57 1467.74 1725.46 1470.96 Q1722.36 1474.15 1716.71 1479.92 Z" fill="#000000" fill-rule="evenodd" fill-opacity="1" /><path clip-path="url(#clip600)" d="M 0 0 M1738.15 1449.29 L1756.51 1449.29 L1756.51 1453.23 L1742.43 1453.23 L1742.43 1461.7 Q1743.45 1461.35 1744.47 1461.19 Q1745.49 1461 1746.51 1461 Q1752.29 1461 1755.67 1464.18 Q1759.05 1467.35 1759.05 1472.76 Q1759.05 1478.34 1755.58 1481.44 Q1752.11 1484.52 1745.79 1484.52 Q1743.61 1484.52 1741.34 1484.15 Q1739.1 1483.78 1736.69 1483.04 L1736.69 1478.34 Q1738.77 1479.48 1741 1480.03 Q1743.22 1480.59 1745.7 1480.59 Q1749.7 1480.59 1752.04 1478.48 Q1754.38 1476.38 1754.38 1472.76 Q1754.38 1469.15 1752.04 1467.05 Q1749.7 1464.94 1745.7 1464.94 Q1743.82 1464.94 1741.95 1465.36 Q1740.09 1465.77 1738.15 1466.65 L1738.15 1449.29 Z" fill="#000000" fill-rule="evenodd" fill-opacity="1" /><path clip-path="url(#clip600)" d="M 0 0 M1774.12 1452.37 Q1770.51 1452.37 1768.68 1455.94 Q1766.88 1459.48 1766.88 1466.61 Q1766.88 1473.71 1768.68 1477.28 Q1770.51 1480.82 1774.12 1480.82 Q1777.76 1480.82 1779.56 1477.28 Q1781.39 1473.71 1781.39 1466.61 Q1781.39 1459.48 1779.56 1455.94 Q1777.76 1452.37 1774.12 1452.37 M1774.12 1448.67 Q1779.93 1448.67 1782.99 1453.27 Q1786.07 1457.86 1786.07 1466.61 Q1786.07 1475.33 1782.99 1479.94 Q1779.93 1484.52 1774.12 1484.52 Q1768.31 1484.52 1765.23 1479.94 Q1762.18 1475.33 1762.18 1466.61 Q1762.18 1457.86 1765.23 1453.27 Q1768.31 1448.67 1774.12 1448.67 Z" fill="#000000" fill-rule="evenodd" fill-opacity="1" /><path clip-path="url(#clip600)" d="M 0 0 M2027.9 1465.22 Q2031.26 1465.94 2033.13 1468.2 Q2035.03 1470.47 2035.03 1473.81 Q2035.03 1478.92 2031.51 1481.72 Q2027.99 1484.52 2021.51 1484.52 Q2019.34 1484.52 2017.02 1484.08 Q2014.73 1483.67 2012.28 1482.81 L2012.28 1478.3 Q2014.22 1479.43 2016.53 1480.01 Q2018.85 1480.59 2021.37 1480.59 Q2025.77 1480.59 2028.06 1478.85 Q2030.38 1477.12 2030.38 1473.81 Q2030.38 1470.75 2028.22 1469.04 Q2026.09 1467.3 2022.28 1467.3 L2018.25 1467.3 L2018.25 1463.46 L2022.46 1463.46 Q2025.91 1463.46 2027.74 1462.09 Q2029.57 1460.7 2029.57 1458.11 Q2029.57 1455.45 2027.67 1454.04 Q2025.79 1452.6 2022.28 1452.6 Q2020.35 1452.6 2018.16 1453.02 Q2015.96 1453.44 2013.32 1454.31 L2013.32 1450.15 Q2015.98 1449.41 2018.29 1449.04 Q2020.63 1448.67 2022.69 1448.67 Q2028.02 1448.67 2031.12 1451.1 Q2034.22 1453.5 2034.22 1457.63 Q2034.22 1460.5 2032.58 1462.49 Q2030.93 1464.45 2027.9 1465.22 Z" fill="#000000" fill-rule="evenodd" fill-opacity="1" /><path clip-path="url(#clip600)" d="M 0 0 M2050.1 1452.37 Q2046.49 1452.37 2044.66 1455.94 Q2042.85 1459.48 2042.85 1466.61 Q2042.85 1473.71 2044.66 1477.28 Q2046.49 1480.82 2050.1 1480.82 Q2053.73 1480.82 2055.54 1477.28 Q2057.37 1473.71 2057.37 1466.61 Q2057.37 1459.48 2055.54 1455.94 Q2053.73 1452.37 2050.1 1452.37 M2050.1 1448.67 Q2055.91 1448.67 2058.97 1453.27 Q2062.04 1457.86 2062.04 1466.61 Q2062.04 1475.33 2058.97 1479.94 Q2055.91 1484.52 2050.1 1484.52 Q2044.29 1484.52 2041.21 1479.94 Q2038.15 1475.33 2038.15 1466.61 Q2038.15 1457.86 2041.21 1453.27 Q2044.29 1448.67 2050.1 1448.67 Z" fill="#000000" fill-rule="evenodd" fill-opacity="1" /><path clip-path="url(#clip600)" d="M 0 0 M2077.11 1452.37 Q2073.5 1452.37 2071.67 1455.94 Q2069.87 1459.48 2069.87 1466.61 Q2069.87 1473.71 2071.67 1477.28 Q2073.5 1480.82 2077.11 1480.82 Q2080.75 1480.82 2082.55 1477.28 Q2084.38 1473.71 2084.38 1466.61 Q2084.38 1459.48 2082.55 1455.94 Q2080.75 1452.37 2077.11 1452.37 M2077.11 1448.67 Q2082.92 1448.67 2085.98 1453.27 Q2089.06 1457.86 2089.06 1466.61 Q2089.06 1475.33 2085.98 1479.94 Q2082.92 1484.52 2077.11 1484.52 Q2071.3 1484.52 2068.22 1479.94 Q2065.17 1475.33 2065.17 1466.61 Q2065.17 1457.86 2068.22 1453.27 Q2071.3 1448.67 2077.11 1448.67 Z" fill="#000000" fill-rule="evenodd" fill-opacity="1" /><path clip-path="url(#clip600)" d="M 0 0 M2330.49 1465.22 Q2333.84 1465.94 2335.72 1468.2 Q2337.62 1470.47 2337.62 1473.81 Q2337.62 1478.92 2334.1 1481.72 Q2330.58 1484.52 2324.1 1484.52 Q2321.92 1484.52 2319.61 1484.08 Q2317.32 1483.67 2314.86 1482.81 L2314.86 1478.3 Q2316.81 1479.43 2319.12 1480.01 Q2321.44 1480.59 2323.96 1480.59 Q2328.36 1480.59 2330.65 1478.85 Q2332.96 1477.12 2332.96 1473.81 Q2332.96 1470.75 2330.81 1469.04 Q2328.68 1467.3 2324.86 1467.3 L2320.83 1467.3 L2320.83 1463.46 L2325.05 1463.46 Q2328.5 1463.46 2330.33 1462.09 Q2332.15 1460.7 2332.15 1458.11 Q2332.15 1455.45 2330.26 1454.04 Q2328.38 1452.6 2324.86 1452.6 Q2322.94 1452.6 2320.74 1453.02 Q2318.54 1453.44 2315.9 1454.31 L2315.9 1450.15 Q2318.57 1449.41 2320.88 1449.04 Q2323.22 1448.67 2325.28 1448.67 Q2330.6 1448.67 2333.71 1451.1 Q2336.81 1453.5 2336.81 1457.63 Q2336.81 1460.5 2335.16 1462.49 Q2333.52 1464.45 2330.49 1465.22 Z" fill="#000000" fill-rule="evenodd" fill-opacity="1" /><path clip-path="url(#clip600)" d="M 0 0 M2342.73 1449.29 L2361.09 1449.29 L2361.09 1453.23 L2347.02 1453.23 L2347.02 1461.7 Q2348.03 1461.35 2349.05 1461.19 Q2350.07 1461 2351.09 1461 Q2356.88 1461 2360.26 1464.18 Q2363.64 1467.35 2363.64 1472.76 Q2363.64 1478.34 2360.16 1481.44 Q2356.69 1484.52 2350.37 1484.52 Q2348.2 1484.52 2345.93 1484.15 Q2343.68 1483.78 2341.27 1483.04 L2341.27 1478.34 Q2343.36 1479.48 2345.58 1480.03 Q2347.8 1480.59 2350.28 1480.59 Q2354.28 1480.59 2356.62 1478.48 Q2358.96 1476.38 2358.96 1472.76 Q2358.96 1469.15 2356.62 1467.05 Q2354.28 1464.94 2350.28 1464.94 Q2348.4 1464.94 2346.53 1465.36 Q2344.68 1465.77 2342.73 1466.65 L2342.73 1449.29 Z" fill="#000000" fill-rule="evenodd" fill-opacity="1" /><path clip-path="url(#clip600)" d="M 0 0 M2378.7 1452.37 Q2375.09 1452.37 2373.27 1455.94 Q2371.46 1459.48 2371.46 1466.61 Q2371.46 1473.71 2373.27 1477.28 Q2375.09 1480.82 2378.7 1480.82 Q2382.34 1480.82 2384.14 1477.28 Q2385.97 1473.71 2385.97 1466.61 Q2385.97 1459.48 2384.14 1455.94 Q2382.34 1452.37 2378.7 1452.37 M2378.7 1448.67 Q2384.51 1448.67 2387.57 1453.27 Q2390.65 1457.86 2390.65 1466.61 Q2390.65 1475.33 2387.57 1479.94 Q2384.51 1484.52 2378.7 1484.52 Q2372.89 1484.52 2369.82 1479.94 Q2366.76 1475.33 2366.76 1466.61 Q2366.76 1457.86 2369.82 1453.27 Q2372.89 1448.67 2378.7 1448.67 Z" fill="#000000" fill-rule="evenodd" fill-opacity="1" /><path clip-path="url(#clip600)" d="M 0 0 M1312.06 1520.4 L1299.17 1537.74 L1312.73 1556.04 L1305.82 1556.04 L1295.44 1542.04 L1285.07 1556.04 L1278.16 1556.04 L1292.01 1537.39 L1279.34 1520.4 L1286.24 1520.4 L1295.7 1533.1 L1305.15 1520.4 L1312.06 1520.4 Z" fill="#000000" fill-rule="evenodd" fill-opacity="1" /><polyline clip-path="url(#clip602)" style="stroke:#000000; stroke-width:2; stroke-opacity:0.1; fill:none" points="
  238.13,1382.61 2352.76,1382.61 
  "/>
<polyline clip-path="url(#clip602)" style="stroke:#000000; stroke-width:2; stroke-opacity:0.1; fill:none" points="
  238.13,1077.09 2352.76,1077.09 
  "/>
<polyline clip-path="url(#clip602)" style="stroke:#000000; stroke-width:2; stroke-opacity:0.1; fill:none" points="
  238.13,771.572 2352.76,771.572 
  "/>
<polyline clip-path="url(#clip602)" style="stroke:#000000; stroke-width:2; stroke-opacity:0.1; fill:none" points="
  238.13,466.056 2352.76,466.056 
  "/>
<polyline clip-path="url(#clip602)" style="stroke:#000000; stroke-width:2; stroke-opacity:0.1; fill:none" points="
  238.13,160.539 2352.76,160.539 
  "/>
<polyline clip-path="url(#clip600)" style="stroke:#000000; stroke-width:4; stroke-opacity:1; fill:none" points="
  238.13,1423.18 238.13,47.2441 
  "/>
<polyline clip-path="url(#clip600)" style="stroke:#000000; stroke-width:4; stroke-opacity:1; fill:none" points="
  238.13,1382.61 263.506,1382.61 
  "/>
<polyline clip-path="url(#clip600)" style="stroke:#000000; stroke-width:4; stroke-opacity:1; fill:none" points="
  238.13,1077.09 263.506,1077.09 
  "/>
<polyline clip-path="url(#clip600)" style="stroke:#000000; stroke-width:4; stroke-opacity:1; fill:none" points="
  238.13,771.572 263.506,771.572 
  "/>
<polyline clip-path="url(#clip600)" style="stroke:#000000; stroke-width:4; stroke-opacity:1; fill:none" points="
  238.13,466.056 263.506,466.056 
  "/>
<polyline clip-path="url(#clip600)" style="stroke:#000000; stroke-width:4; stroke-opacity:1; fill:none" points="
  238.13,160.539 263.506,160.539 
  "/>
<path clip-path="url(#clip600)" d="M 0 0 M126.205 1368.4 Q122.593 1368.4 120.765 1371.97 Q118.959 1375.51 118.959 1382.64 Q118.959 1389.75 120.765 1393.31 Q122.593 1396.85 126.205 1396.85 Q129.839 1396.85 131.644 1393.31 Q133.473 1389.75 133.473 1382.64 Q133.473 1375.51 131.644 1371.97 Q129.839 1368.4 126.205 1368.4 M126.205 1364.7 Q132.015 1364.7 135.07 1369.31 Q138.149 1373.89 138.149 1382.64 Q138.149 1391.37 135.07 1395.97 Q132.015 1400.56 126.205 1400.56 Q120.394 1400.56 117.316 1395.97 Q114.26 1391.37 114.26 1382.64 Q114.26 1373.89 117.316 1369.31 Q120.394 1364.7 126.205 1364.7 Z" fill="#000000" fill-rule="evenodd" fill-opacity="1" /><path clip-path="url(#clip600)" d="M 0 0 M143.218 1394.01 L148.103 1394.01 L148.103 1399.89 L143.218 1399.89 L143.218 1394.01 Z" fill="#000000" fill-rule="evenodd" fill-opacity="1" /><path clip-path="url(#clip600)" d="M 0 0 M163.172 1368.4 Q159.561 1368.4 157.732 1371.97 Q155.927 1375.51 155.927 1382.64 Q155.927 1389.75 157.732 1393.31 Q159.561 1396.85 163.172 1396.85 Q166.806 1396.85 168.612 1393.31 Q170.44 1389.75 170.44 1382.64 Q170.44 1375.51 168.612 1371.97 Q166.806 1368.4 163.172 1368.4 M163.172 1364.7 Q168.982 1364.7 172.038 1369.31 Q175.116 1373.89 175.116 1382.64 Q175.116 1391.37 172.038 1395.97 Q168.982 1400.56 163.172 1400.56 Q157.362 1400.56 154.283 1395.97 Q151.228 1391.37 151.228 1382.64 Q151.228 1373.89 154.283 1369.31 Q157.362 1364.7 163.172 1364.7 Z" fill="#000000" fill-rule="evenodd" fill-opacity="1" /><path clip-path="url(#clip600)" d="M 0 0 M190.186 1368.4 Q186.575 1368.4 184.746 1371.97 Q182.94 1375.51 182.94 1382.64 Q182.94 1389.75 184.746 1393.31 Q186.575 1396.85 190.186 1396.85 Q193.82 1396.85 195.625 1393.31 Q197.454 1389.75 197.454 1382.64 Q197.454 1375.51 195.625 1371.97 Q193.82 1368.4 190.186 1368.4 M190.186 1364.7 Q195.996 1364.7 199.051 1369.31 Q202.13 1373.89 202.13 1382.64 Q202.13 1391.37 199.051 1395.97 Q195.996 1400.56 190.186 1400.56 Q184.376 1400.56 181.297 1395.97 Q178.241 1391.37 178.241 1382.64 Q178.241 1373.89 181.297 1369.31 Q184.376 1364.7 190.186 1364.7 Z" fill="#000000" fill-rule="evenodd" fill-opacity="1" /><path clip-path="url(#clip600)" d="M 0 0 M128.797 1062.89 Q125.186 1062.89 123.357 1066.45 Q121.552 1069.99 121.552 1077.12 Q121.552 1084.23 123.357 1087.79 Q125.186 1091.34 128.797 1091.34 Q132.431 1091.34 134.237 1087.79 Q136.066 1084.23 136.066 1077.12 Q136.066 1069.99 134.237 1066.45 Q132.431 1062.89 128.797 1062.89 M128.797 1059.18 Q134.607 1059.18 137.663 1063.79 Q140.741 1068.37 140.741 1077.12 Q140.741 1085.85 137.663 1090.46 Q134.607 1095.04 128.797 1095.04 Q122.987 1095.04 119.908 1090.46 Q116.853 1085.85 116.853 1077.12 Q116.853 1068.37 119.908 1063.79 Q122.987 1059.18 128.797 1059.18 Z" fill="#000000" fill-rule="evenodd" fill-opacity="1" /><path clip-path="url(#clip600)" d="M 0 0 M145.811 1088.49 L150.695 1088.49 L150.695 1094.37 L145.811 1094.37 L145.811 1088.49 Z" fill="#000000" fill-rule="evenodd" fill-opacity="1" /><path clip-path="url(#clip600)" d="M 0 0 M159.792 1090.43 L176.112 1090.43 L176.112 1094.37 L154.167 1094.37 L154.167 1090.43 Q156.829 1087.68 161.413 1083.05 Q166.019 1078.4 167.2 1077.05 Q169.445 1074.53 170.325 1072.79 Q171.227 1071.04 171.227 1069.35 Q171.227 1066.59 169.283 1064.86 Q167.362 1063.12 164.26 1063.12 Q162.061 1063.12 159.607 1063.88 Q157.177 1064.65 154.399 1066.2 L154.399 1061.48 Q157.223 1060.34 159.677 1059.76 Q162.13 1059.18 164.167 1059.18 Q169.538 1059.18 172.732 1061.87 Q175.926 1064.55 175.926 1069.04 Q175.926 1071.17 175.116 1073.1 Q174.329 1074.99 172.223 1077.59 Q171.644 1078.26 168.542 1081.48 Q165.44 1084.67 159.792 1090.43 Z" fill="#000000" fill-rule="evenodd" fill-opacity="1" /><path clip-path="url(#clip600)" d="M 0 0 M181.227 1059.81 L199.584 1059.81 L199.584 1063.74 L185.51 1063.74 L185.51 1072.22 Q186.528 1071.87 187.547 1071.71 Q188.565 1071.52 189.584 1071.52 Q195.371 1071.52 198.75 1074.69 Q202.13 1077.86 202.13 1083.28 Q202.13 1088.86 198.658 1091.96 Q195.186 1095.04 188.866 1095.04 Q186.69 1095.04 184.422 1094.67 Q182.176 1094.3 179.769 1093.56 L179.769 1088.86 Q181.852 1089.99 184.075 1090.55 Q186.297 1091.1 188.774 1091.1 Q192.778 1091.1 195.116 1089 Q197.454 1086.89 197.454 1083.28 Q197.454 1079.67 195.116 1077.56 Q192.778 1075.46 188.774 1075.46 Q186.899 1075.46 185.024 1075.87 Q183.172 1076.29 181.227 1077.17 L181.227 1059.81 Z" fill="#000000" fill-rule="evenodd" fill-opacity="1" /><path clip-path="url(#clip600)" d="M 0 0 M127.2 757.371 Q123.589 757.371 121.76 760.936 Q119.955 764.477 119.955 771.607 Q119.955 778.713 121.76 782.278 Q123.589 785.82 127.2 785.82 Q130.834 785.82 132.64 782.278 Q134.468 778.713 134.468 771.607 Q134.468 764.477 132.64 760.936 Q130.834 757.371 127.2 757.371 M127.2 753.667 Q133.01 753.667 136.066 758.274 Q139.144 762.857 139.144 771.607 Q139.144 780.334 136.066 784.94 Q133.01 789.524 127.2 789.524 Q121.39 789.524 118.311 784.94 Q115.256 780.334 115.256 771.607 Q115.256 762.857 118.311 758.274 Q121.39 753.667 127.2 753.667 Z" fill="#000000" fill-rule="evenodd" fill-opacity="1" /><path clip-path="url(#clip600)" d="M 0 0 M144.214 782.973 L149.098 782.973 L149.098 788.852 L144.214 788.852 L144.214 782.973 Z" fill="#000000" fill-rule="evenodd" fill-opacity="1" /><path clip-path="url(#clip600)" d="M 0 0 M154.214 754.292 L172.57 754.292 L172.57 758.227 L158.496 758.227 L158.496 766.7 Q159.515 766.352 160.533 766.19 Q161.552 766.005 162.57 766.005 Q168.357 766.005 171.737 769.176 Q175.116 772.348 175.116 777.764 Q175.116 783.343 171.644 786.445 Q168.172 789.524 161.852 789.524 Q159.677 789.524 157.408 789.153 Q155.163 788.783 152.755 788.042 L152.755 783.343 Q154.839 784.477 157.061 785.033 Q159.283 785.588 161.76 785.588 Q165.765 785.588 168.102 783.482 Q170.44 781.375 170.44 777.764 Q170.44 774.153 168.102 772.047 Q165.765 769.94 161.76 769.94 Q159.885 769.94 158.01 770.357 Q156.158 770.774 154.214 771.653 L154.214 754.292 Z" fill="#000000" fill-rule="evenodd" fill-opacity="1" /><path clip-path="url(#clip600)" d="M 0 0 M190.186 757.371 Q186.575 757.371 184.746 760.936 Q182.94 764.477 182.94 771.607 Q182.94 778.713 184.746 782.278 Q186.575 785.82 190.186 785.82 Q193.82 785.82 195.625 782.278 Q197.454 778.713 197.454 771.607 Q197.454 764.477 195.625 760.936 Q193.82 757.371 190.186 757.371 M190.186 753.667 Q195.996 753.667 199.051 758.274 Q202.13 762.857 202.13 771.607 Q202.13 780.334 199.051 784.94 Q195.996 789.524 190.186 789.524 Q184.376 789.524 181.297 784.94 Q178.241 780.334 178.241 771.607 Q178.241 762.857 181.297 758.274 Q184.376 753.667 190.186 753.667 Z" fill="#000000" fill-rule="evenodd" fill-opacity="1" /><path clip-path="url(#clip600)" d="M 0 0 M128.103 451.854 Q124.492 451.854 122.663 455.419 Q120.857 458.961 120.857 466.09 Q120.857 473.197 122.663 476.762 Q124.492 480.303 128.103 480.303 Q131.737 480.303 133.542 476.762 Q135.371 473.197 135.371 466.09 Q135.371 458.961 133.542 455.419 Q131.737 451.854 128.103 451.854 M128.103 448.151 Q133.913 448.151 136.968 452.757 Q140.047 457.34 140.047 466.09 Q140.047 474.817 136.968 479.424 Q133.913 484.007 128.103 484.007 Q122.293 484.007 119.214 479.424 Q116.158 474.817 116.158 466.09 Q116.158 457.34 119.214 452.757 Q122.293 448.151 128.103 448.151 Z" fill="#000000" fill-rule="evenodd" fill-opacity="1" /><path clip-path="url(#clip600)" d="M 0 0 M145.116 477.456 L150.001 477.456 L150.001 483.336 L145.116 483.336 L145.116 477.456 Z" fill="#000000" fill-rule="evenodd" fill-opacity="1" /><path clip-path="url(#clip600)" d="M 0 0 M153.89 448.776 L176.112 448.776 L176.112 450.766 L163.565 483.336 L158.681 483.336 L170.487 452.711 L153.89 452.711 L153.89 448.776 Z" fill="#000000" fill-rule="evenodd" fill-opacity="1" /><path clip-path="url(#clip600)" d="M 0 0 M181.227 448.776 L199.584 448.776 L199.584 452.711 L185.51 452.711 L185.51 461.183 Q186.528 460.836 187.547 460.674 Q188.565 460.488 189.584 460.488 Q195.371 460.488 198.75 463.66 Q202.13 466.831 202.13 472.248 Q202.13 477.826 198.658 480.928 Q195.186 484.007 188.866 484.007 Q186.69 484.007 184.422 483.637 Q182.176 483.266 179.769 482.525 L179.769 477.826 Q181.852 478.961 184.075 479.516 Q186.297 480.072 188.774 480.072 Q192.778 480.072 195.116 477.965 Q197.454 475.859 197.454 472.248 Q197.454 468.637 195.116 466.53 Q192.778 464.424 188.774 464.424 Q186.899 464.424 185.024 464.84 Q183.172 465.257 181.227 466.137 L181.227 448.776 Z" fill="#000000" fill-rule="evenodd" fill-opacity="1" /><path clip-path="url(#clip600)" d="M 0 0 M118.242 173.884 L125.88 173.884 L125.88 147.518 L117.57 149.185 L117.57 144.926 L125.834 143.259 L130.51 143.259 L130.51 173.884 L138.149 173.884 L138.149 177.819 L118.242 177.819 L118.242 173.884 Z" fill="#000000" fill-rule="evenodd" fill-opacity="1" /><path clip-path="url(#clip600)" d="M 0 0 M143.218 171.939 L148.103 171.939 L148.103 177.819 L143.218 177.819 L143.218 171.939 Z" fill="#000000" fill-rule="evenodd" fill-opacity="1" /><path clip-path="url(#clip600)" d="M 0 0 M163.172 146.338 Q159.561 146.338 157.732 149.902 Q155.927 153.444 155.927 160.574 Q155.927 167.68 157.732 171.245 Q159.561 174.787 163.172 174.787 Q166.806 174.787 168.612 171.245 Q170.44 167.68 170.44 160.574 Q170.44 153.444 168.612 149.902 Q166.806 146.338 163.172 146.338 M163.172 142.634 Q168.982 142.634 172.038 147.24 Q175.116 151.824 175.116 160.574 Q175.116 169.3 172.038 173.907 Q168.982 178.49 163.172 178.49 Q157.362 178.49 154.283 173.907 Q151.228 169.3 151.228 160.574 Q151.228 151.824 154.283 147.24 Q157.362 142.634 163.172 142.634 Z" fill="#000000" fill-rule="evenodd" fill-opacity="1" /><path clip-path="url(#clip600)" d="M 0 0 M190.186 146.338 Q186.575 146.338 184.746 149.902 Q182.94 153.444 182.94 160.574 Q182.94 167.68 184.746 171.245 Q186.575 174.787 190.186 174.787 Q193.82 174.787 195.625 171.245 Q197.454 167.68 197.454 160.574 Q197.454 153.444 195.625 149.902 Q193.82 146.338 190.186 146.338 M190.186 142.634 Q195.996 142.634 199.051 147.24 Q202.13 151.824 202.13 160.574 Q202.13 169.3 199.051 173.907 Q195.996 178.49 190.186 178.49 Q184.376 178.49 181.297 173.907 Q178.241 169.3 178.241 160.574 Q178.241 151.824 181.297 147.24 Q184.376 142.634 190.186 142.634 Z" fill="#000000" fill-rule="evenodd" fill-opacity="1" /><path clip-path="url(#clip600)" d="M 0 0 M70.212 745.095 Q76.6732 745.095 80.3653 742.453 Q84.0256 739.779 84.0256 735.132 Q84.0256 730.485 80.3653 727.812 Q76.6732 725.138 70.212 725.138 Q63.7508 725.138 60.0905 727.812 Q56.3984 730.485 56.3984 735.132 Q56.3984 739.779 60.0905 742.453 Q63.7508 745.095 70.212 745.095 M82.657 725.138 Q85.8398 726.984 87.3994 729.817 Q88.9272 732.618 88.9272 736.565 Q88.9272 743.026 83.771 747.1 Q78.6147 751.142 70.212 751.142 Q61.8093 751.142 56.6531 747.1 Q51.4968 743.026 51.4968 736.565 Q51.4968 732.618 53.0564 729.817 Q54.5842 726.984 57.7671 725.138 L52.3562 725.138 L52.3562 719.282 L101.563 719.282 L101.563 725.138 L82.657 725.138 Z" fill="#000000" fill-rule="evenodd" fill-opacity="1" /><polyline clip-path="url(#clip602)" style="stroke:#009af9; stroke-width:4; stroke-opacity:1; fill:none" points="
  238.13,1382.61 240.983,1382.61 246.39,1382.61 251.798,1382.61 254.651,1382.61 257.503,1382.61 262.911,1382.61 268.318,1382.61 271.171,1382.61 
  274.024,1382.61 279.431,1382.61 284.839,1382.61 287.692,1382.61 290.544,1382.61 295.952,1382.61 301.359,1382.61 304.212,1382.61 
  307.065,1382.61 312.472,1382.61 317.88,1382.61 320.733,1382.61 323.585,1382.61 328.993,1382.61 334.4,1382.61 337.253,1382.61 
  340.106,1382.61 345.513,1382.61 350.921,1382.61 353.774,1382.61 356.626,1382.61 362.034,1382.61 367.442,1382.61 370.294,1382.61 
  373.147,1382.61 378.554,1382.61 383.962,1382.61 386.815,1382.61 389.667,1382.61 395.075,1382.61 400.483,1382.61 403.335,1382.61 
  406.188,1382.61 411.595,1382.61 417.003,1382.61 419.856,1382.61 422.708,1382.61 428.116,1382.61 433.524,1382.61 436.376,1382.61 
  439.229,1382.61 444.636,1382.61 450.044,1382.61 452.897,1382.61 455.749,1382.61 461.157,1382.61 466.565,1382.61 469.417,1382.61 
  472.27,1382.61 477.678,1382.61 483.085,1382.61 485.938,1382.61 488.79,1382.61 494.198,1382.61 499.606,1382.61 502.458,1382.61 
  505.311,1382.61 510.719,1382.61 516.126,1382.61 518.979,1382.61 521.831,1382.61 527.239,1382.61 532.647,1382.61 535.499,1382.61 
  538.352,1382.61 543.76,1382.61 549.167,1382.61 552.02,1382.61 554.872,1382.61 560.28,1382.61 565.688,1382.61 568.54,1382.61 
  571.393,1382.61 576.801,1382.61 582.208,1382.61 585.061,1382.61 587.914,1382.61 593.321,1382.61 598.729,1382.61 601.581,1382.61 
  604.434,1382.61 609.842,1382.61 615.249,1382.61 618.102,1382.61 620.955,1382.61 626.362,1382.61 631.77,1382.61 634.622,1382.61 
  637.475,1382.61 642.883,1382.61 648.29,1382.61 651.143,1382.61 653.996,1382.61 659.403,1382.61 664.811,1382.61 667.663,1382.61 
  670.516,1382.61 675.924,1382.61 681.331,1382.61 684.184,1382.61 687.037,1382.61 692.444,160.539 697.852,160.539 700.704,160.539 
  703.557,160.539 708.965,160.539 714.372,160.539 717.225,160.539 720.078,160.539 725.485,160.539 730.893,160.539 733.745,160.539 
  736.598,160.539 742.006,160.539 747.413,160.539 750.266,160.539 753.119,160.539 758.526,160.539 763.934,160.539 766.787,160.539 
  769.639,160.539 775.047,160.539 780.454,160.539 783.307,160.539 786.16,160.539 791.567,160.539 796.975,160.539 799.828,160.539 
  802.68,160.539 808.088,160.539 813.495,160.539 816.348,160.539 819.201,160.539 824.608,160.539 830.016,160.539 832.869,160.539 
  835.721,160.539 841.129,160.539 846.536,160.539 849.389,160.539 852.242,160.539 857.649,160.539 863.057,160.539 865.91,160.539 
  868.762,160.539 874.17,160.539 879.577,160.539 882.43,160.539 885.283,160.539 890.69,160.539 896.098,160.539 898.951,160.539 
  901.803,160.539 907.211,160.539 912.618,160.539 915.471,160.539 918.324,160.539 923.731,160.539 929.139,160.539 931.992,160.539 
  934.844,160.539 940.252,160.539 945.66,160.539 948.512,160.539 951.365,160.539 956.772,160.539 962.18,160.539 965.033,160.539 
  967.885,160.539 973.293,160.539 978.701,160.539 981.553,160.539 984.406,160.539 989.813,160.539 995.221,1382.61 998.074,1382.61 
  1000.93,1382.61 1006.33,1382.61 1011.74,1382.61 1014.59,1382.61 1017.45,1382.61 1022.85,1382.61 1028.26,1382.61 1031.11,1382.61 
  1033.97,1382.61 1039.38,1382.61 1044.78,1382.61 1047.64,1382.61 1050.49,1382.61 1055.9,1382.61 1061.3,1382.61 1064.16,1382.61 
  1067.01,1382.61 1072.42,1382.61 1077.82,1382.61 1080.68,1382.61 1083.53,1382.61 1088.94,1382.61 1094.34,1382.61 1097.2,1382.61 
  1100.05,1382.61 1105.46,1382.61 1110.86,1382.61 1113.72,1382.61 1116.57,1382.61 1121.98,1382.61 1127.39,1382.61 1130.24,1382.61 
  1133.09,1382.61 1138.5,1382.61 1143.91,1382.61 1146.76,1382.61 1149.61,1382.61 1155.02,1382.61 1160.43,1382.61 1163.28,1382.61 
  1166.13,1382.61 1171.54,1382.61 1176.95,1382.61 1179.8,1382.61 1182.65,1382.61 1188.06,1382.61 1193.47,1382.61 1196.32,1382.61 
  1199.17,1382.61 1204.58,1382.61 1209.99,1382.61 1212.84,1382.61 1215.69,1382.61 1221.1,1382.61 1226.51,1382.61 1229.36,1382.61 
  1232.21,1382.61 1237.62,1382.61 1243.03,1382.61 1245.88,1382.61 1248.73,1382.61 1254.14,1382.61 1259.55,1382.61 1262.4,1382.61 
  1265.25,1382.61 1270.66,1382.61 1276.07,1382.61 1278.92,1382.61 1281.78,1382.61 1287.18,1382.61 1292.59,1382.61 1295.44,1382.61 
  1298.3,1382.61 1303.7,1382.61 1309.11,1382.61 1311.96,1382.61 1314.82,1382.61 1320.22,1382.61 1325.63,1382.61 1328.48,1382.61 
  1331.34,1382.61 1336.74,1382.61 1342.15,1382.61 1345,1382.61 1347.86,1382.61 1353.26,1382.61 1358.67,1382.61 1361.53,1382.61 
  1364.38,1382.61 1369.79,1382.61 1375.19,1382.61 1378.05,1382.61 1380.9,1382.61 1386.31,1382.61 1391.71,1382.61 1394.57,1382.61 
  1397.42,1382.61 1402.83,1382.61 1408.23,1382.61 1411.09,1382.61 1413.94,1382.61 1419.35,1382.61 1424.75,1382.61 1427.61,1382.61 
  1430.46,1382.61 1435.87,1382.61 1441.27,1382.61 1444.13,1382.61 1446.98,1382.61 1452.39,1382.61 1457.8,1382.61 1460.65,1382.61 
  1463.5,1382.61 1468.91,1382.61 1474.32,1382.61 1477.17,1382.61 1480.02,1382.61 1485.43,1382.61 1490.84,1382.61 1493.69,1382.61 
  1496.54,1382.61 1501.95,1382.61 1507.36,1382.61 1510.21,1382.61 1513.06,1382.61 1518.47,1382.61 1523.88,1382.61 1526.73,1382.61 
  1529.58,1382.61 1534.99,1382.61 1540.4,1382.61 1543.25,1382.61 1546.1,1382.61 1551.51,1382.61 1556.92,1382.61 1559.77,1382.61 
  1562.62,1382.61 1568.03,1382.61 1573.44,1382.61 1576.29,1382.61 1579.14,1382.61 1584.55,1382.61 1589.96,1382.61 1592.81,1382.61 
  1595.66,1382.61 1601.07,1382.61 1606.48,1382.61 1609.33,1382.61 1612.19,1382.61 1617.59,1382.61 1623,1382.61 1625.85,1382.61 
  1628.71,1382.61 1634.11,1382.61 1639.52,1382.61 1642.37,1382.61 1645.23,1382.61 1650.63,1382.61 1656.04,1382.61 1658.89,1382.61 
  1661.75,1382.61 1667.15,1382.61 1672.56,1382.61 1675.41,1382.61 1678.27,1382.61 1683.68,1382.61 1689.08,1382.61 1691.94,1382.61 
  1694.79,1382.61 1700.2,1382.61 1705.6,1382.61 1708.46,1382.61 1711.31,1382.61 1716.72,1382.61 1722.12,1382.61 1724.98,1382.61 
  1727.83,1382.61 1733.24,1382.61 1738.64,1382.61 1741.5,1382.61 1744.35,1382.61 1749.76,1382.61 1755.16,1382.61 1758.02,1382.61 
  1760.87,1382.61 1766.28,1382.61 1771.69,1382.61 1774.54,1382.61 1777.39,1382.61 1782.8,1382.61 1788.21,1382.61 1791.06,1382.61 
  1793.91,1382.61 1799.32,1382.61 1804.73,1382.61 1807.58,1382.61 1810.43,1382.61 1815.84,1382.61 1821.25,1382.61 1824.1,1382.61 
  1826.95,1382.61 1832.36,1382.61 1837.77,1382.61 1840.62,1382.61 1843.47,1382.61 1848.88,1382.61 1854.29,1382.61 1857.14,1382.61 
  1859.99,1382.61 1865.4,1382.61 1870.81,1382.61 1873.66,1382.61 1876.51,1382.61 1881.92,1382.61 1887.33,1382.61 1890.18,1382.61 
  1893.03,1382.61 1898.44,1382.61 1903.85,1382.61 1906.7,1382.61 1909.55,1382.61 1914.96,1382.61 1920.37,1382.61 1923.22,1382.61 
  1926.08,1382.61 1931.48,1382.61 1936.89,1382.61 1939.74,1382.61 1942.6,1382.61 1948,1382.61 1953.41,1382.61 1956.26,1382.61 
  1959.12,1382.61 1964.52,1382.61 1969.93,1382.61 1972.78,1382.61 1975.64,1382.61 1981.04,1382.61 1986.45,1382.61 1989.3,1382.61 
  1992.16,1382.61 1997.56,1382.61 2002.97,1382.61 2005.83,1382.61 2008.68,1382.61 2014.09,1382.61 2019.49,1382.61 2022.35,1382.61 
  2025.2,1382.61 2030.61,1382.61 2036.01,1382.61 2038.87,1382.61 2041.72,1382.61 2047.13,1382.61 2052.53,1382.61 2055.39,1382.61 
  2058.24,1382.61 2063.65,1382.61 2069.05,1382.61 2071.91,1382.61 2074.76,1382.61 2080.17,1382.61 2085.58,1382.61 2088.43,1382.61 
  2091.28,1382.61 2096.69,1382.61 2102.1,1382.61 2104.95,1382.61 2107.8,1382.61 2113.21,1382.61 2118.62,1382.61 2121.47,1382.61 
  2124.32,1382.61 2129.73,1382.61 2135.14,1382.61 2137.99,1382.61 2140.84,1382.61 2146.25,1382.61 2151.66,1382.61 2154.51,1382.61 
  2157.36,1382.61 2162.77,1382.61 2168.18,1382.61 2171.03,1382.61 2173.88,1382.61 2179.29,1382.61 2184.7,1382.61 2187.55,1382.61 
  2190.4,1382.61 2195.81,1382.61 2201.22,1382.61 2204.07,1382.61 2206.92,1382.61 2212.33,1382.61 2217.74,1382.61 2220.59,1382.61 
  2223.44,1382.61 2228.85,1382.61 2234.26,1382.61 2237.11,1382.61 2239.96,1382.61 2245.37,1382.61 2250.78,1382.61 2253.63,1382.61 
  2256.49,1382.61 2261.89,1382.61 2267.3,1382.61 2270.15,1382.61 2273.01,1382.61 2278.41,1382.61 2283.82,1382.61 2286.67,1382.61 
  2289.53,1382.61 2294.93,1382.61 2300.34,1382.61 2303.19,1382.61 2306.05,1382.61 2311.45,1382.61 2316.86,1382.61 2319.71,1382.61 
  2322.57,1382.61 2327.98,1382.61 2333.38,1382.61 2336.24,1382.61 2339.09,1382.61 2344.5,1382.61 2349.9,1382.61 2352.76,1382.61 
  
  "/>
<polyline clip-path="url(#clip602)" style="stroke:#e26f46; stroke-width:4; stroke-opacity:1; fill:none" points="
  238.13,1382.61 240.983,1382.61 246.39,1382.61 251.798,1382.61 254.651,1382.61 257.503,1382.61 262.911,1382.61 268.318,1382.61 271.171,1382.61 
  274.024,1382.61 279.431,1382.61 284.839,1382.61 287.692,1382.61 290.544,1382.61 295.952,1382.61 301.359,1382.61 304.212,1382.61 
  307.065,1382.61 312.472,1382.61 317.88,1382.61 320.733,1382.61 323.585,1382.61 328.993,1382.61 334.4,1382.61 337.253,1382.61 
  340.106,1382.61 345.513,1382.61 350.921,1382.61 353.774,1382.61 356.626,1382.61 362.034,1382.61 367.442,1382.61 370.294,1382.61 
  373.147,1382.61 378.554,1382.61 383.962,1382.61 386.815,1382.61 389.667,1382.61 395.075,1382.61 400.483,1382.61 403.335,1382.61 
  406.188,1382.61 411.595,1382.61 417.003,1382.61 419.856,1382.61 422.708,1382.61 428.116,1382.61 433.524,1382.61 436.376,1382.61 
  439.229,1382.61 444.636,1382.61 450.044,1382.61 452.897,1382.61 455.749,1382.61 461.157,1382.61 466.565,1382.61 469.417,1382.61 
  472.27,1382.61 477.678,1382.61 483.085,1382.61 485.938,1382.61 488.79,1382.61 494.198,1382.61 499.606,1382.61 502.458,1382.61 
  505.311,1382.61 510.719,1382.61 516.126,1382.61 518.979,1382.61 521.831,1382.61 527.239,1382.61 532.647,1382.61 535.499,1382.61 
  538.352,1382.61 543.76,1382.61 549.167,1382.61 552.02,1382.61 554.872,1382.61 560.28,1382.61 565.688,1382.61 568.54,1382.61 
  571.393,1382.61 576.801,1382.61 582.208,1382.61 585.061,1382.61 587.914,1382.61 593.321,1382.61 598.729,1382.61 601.581,1382.61 
  604.434,1382.61 609.842,1382.61 615.249,1382.61 618.102,1382.61 620.955,1382.61 626.362,1382.61 631.77,1382.61 634.622,1382.61 
  637.475,1382.61 642.883,1382.61 648.29,1382.61 651.143,1382.61 653.996,1382.61 659.403,1382.61 664.811,1382.61 667.663,1382.61 
  670.516,1382.61 675.924,1382.61 681.331,1382.61 684.184,1382.61 687.037,1382.61 692.444,1382.61 697.852,1382.61 700.704,1382.61 
  703.557,1382.61 708.965,1382.61 714.372,1382.61 717.225,1382.61 720.078,1382.61 725.485,1382.61 730.893,1382.61 733.745,1382.61 
  736.598,1382.61 742.006,1382.61 747.413,1382.61 750.266,1382.61 753.119,1382.61 758.526,1382.61 763.934,1382.61 766.787,1382.61 
  769.639,1382.61 775.047,1382.61 780.454,1382.61 783.307,1382.61 786.16,1382.61 791.567,1382.61 796.975,1382.61 799.828,1382.61 
  802.68,1382.61 808.088,1382.61 813.495,1382.61 816.348,1382.61 819.201,1382.61 824.608,1382.61 830.016,1382.61 832.869,1382.61 
  835.721,1382.61 841.129,1382.61 846.536,1382.61 849.389,1382.61 852.242,1382.61 857.649,1382.61 863.057,1382.61 865.91,1382.61 
  868.762,1382.61 874.17,1382.61 879.577,1382.61 882.43,1382.61 885.283,1382.61 890.69,1382.61 896.098,1382.61 898.951,1382.61 
  901.803,1382.61 907.211,1382.61 912.618,1382.61 915.471,1382.61 918.324,1382.61 923.731,1382.61 929.139,1382.61 931.992,1382.61 
  934.844,1382.61 940.252,1382.61 945.66,1382.61 948.512,1382.61 951.365,1382.61 956.772,1382.61 962.18,1382.61 965.033,1382.61 
  967.885,1382.61 973.293,1382.61 978.701,1382.61 981.553,1382.61 984.406,1382.61 989.813,1382.61 995.221,1382.61 998.074,1382.61 
  1000.93,1382.61 1006.33,1382.61 1011.74,1382.61 1014.59,1382.61 1014.59,1382.61 1017.45,1382.61 1022.85,1382.61 1028.26,1382.61 1031.11,1382.61 
  1031.11,1382.61 1033.97,1382.61 1039.38,1382.61 1044.78,1382.61 1047.64,1382.61 1047.64,1382.61 1050.49,1382.61 1055.9,1382.61 1061.3,1382.61 1064.16,1382.61 
  1064.16,1382.61 1067.01,1382.61 1072.42,1382.61 1077.82,1382.61 1080.68,1382.61 1080.68,1382.61 1083.53,1382.61 1088.94,1382.61 1094.34,1382.61 1097.2,1382.61 
  1097.2,1382.61 1100.05,1382.61 1105.46,1382.61 1110.86,1382.61 1113.72,1382.61 1113.72,1382.61 1116.57,1382.61 1121.98,1382.61 1127.39,1382.61 1130.24,1382.61 
  1130.24,1382.61 1133.09,1382.61 1138.5,1382.61 1143.91,1382.61 1146.76,1382.61 1146.76,1382.61 1149.61,1382.61 1155.02,1382.61 1160.43,1382.61 1163.28,1382.61 
  1163.28,1382.61 1166.13,1382.61 1171.54,1382.6 1176.95,1382.6 1179.8,1382.6 1179.8,1382.6 1182.65,1382.6 1188.06,1382.61 1193.47,1382.6 1196.32,1382.6 
  1196.32,1382.6 1199.17,1382.6 1204.58,1382.6 1209.99,1382.6 1212.84,1382.6 1212.84,1382.6 1215.69,1382.6 1221.1,1382.6 1226.51,1382.6 1229.36,1382.6 
  1229.36,1382.56 1232.21,1382.59 1237.62,1382.59 1243.03,1382.51 1245.88,1382.41 1245.88,1382.55 1248.73,1382.57 1254.14,1382.56 1259.55,1382.49 1262.4,1382.44 
  1262.4,1378.33 1265.25,1384.24 1270.66,1374.91 1276.07,1337.26 1278.92,1305.42 1278.92,1307.56 1281.78,1250.91 1287.18,1117.47 1292.59,951.506 1295.44,851.495 
  1295.44,856.041 1298.3,749.085 1303.7,560.114 1309.11,390.266 1311.96,308.808 1311.96,307.336 1314.82,243.922 1320.22,153.843 1325.63,102.249 1328.48,90.1466 
  1328.48,86.1857 1331.34,87.9301 1336.74,99.3369 1342.15,120.273 1345,134.724 1345,133.912 1347.86,145.8 1353.26,162.438 1358.67,171.485 1361.53,173.252 
  1361.53,174.015 1364.38,172.691 1369.79,169.167 1375.19,164.552 1378.05,161.776 1378.05,161.817 1380.9,160.143 1386.31,158.244 1391.71,157.932 1394.57,158.374 
  1394.57,158.243 1397.42,158.944 1402.83,160.05 1408.23,160.843 1411.09,161.127 1411.09,161.162 1413.94,161.159 1419.35,161.037 1424.75,160.783 1427.61,160.605 
  1427.61,160.609 1430.46,160.51 1435.87,160.401 1441.27,160.388 1444.13,160.417 1444.13,160.414 1446.98,160.445 1452.39,160.497 1457.8,160.541 1460.65,160.561 
  1460.65,160.554 1463.5,160.59 1468.91,160.658 1474.32,160.723 1477.17,160.755 1477.17,160.753 1480.02,160.742 1485.43,160.59 1490.84,160.263 1493.69,160.019 
  1493.69,160.096 1496.54,159.74 1501.95,159.421 1507.36,159.6 1510.21,159.909 1510.21,159.766 1513.06,160.706 1518.47,162.85 1523.88,165.421 1526.73,166.931 
  1526.73,166.629 1529.58,167.905 1534.99,167.074 1540.4,161.883 1543.25,157.346 1543.25,158.421 1546.1,149.918 1551.51,132.987 1556.92,115.367 1559.77,105.944 
  1559.77,107.592 1562.62,99.8755 1568.03,104.611 1573.44,135.147 1576.29,161.832 1576.29,159.441 1579.14,204.006 1584.55,316.208 1589.96,463.741 1592.81,555.414 
  1592.81,550.147 1595.66,654.717 1601.07,846.65 1606.48,1028.76 1609.33,1120.22 1609.33,1121.09 1612.19,1196.2 1617.59,1303.15 1623,1364.69 1625.85,1379.26 
  1625.85,1381.63 1628.71,1382.08 1634.11,1382.2 1639.52,1381.65 1642.37,1381.23 1642.37,1381.56 1645.23,1381.82 1650.63,1382.25 1656.04,1382.56 1658.89,1382.67 
  1658.89,1382.6 1661.75,1382.6 1667.15,1382.6 1672.56,1382.59 1675.41,1382.59 1675.41,1382.6 1678.27,1382.6 1683.68,1382.6 1689.08,1382.6 1691.94,1382.61 
  1691.94,1382.61 1694.79,1382.61 1700.2,1382.61 1705.6,1382.61 1708.46,1382.61 1708.46,1382.61 1711.31,1382.61 1716.72,1382.61 1722.12,1382.61 1724.98,1382.61 
  1724.98,1382.61 1727.83,1382.61 1733.24,1382.61 1738.64,1382.61 1741.5,1382.61 1741.5,1382.61 1744.35,1382.61 1749.76,1382.61 1755.16,1382.61 1758.02,1382.61 
  1758.02,1382.61 1760.87,1382.61 1766.28,1382.61 1771.69,1382.61 1774.54,1382.61 1774.54,1382.61 1777.39,1382.61 1782.8,1382.61 1788.21,1382.61 1791.06,1382.61 
  1791.06,1382.61 1793.91,1382.61 1799.32,1382.61 1804.73,1382.61 1807.58,1382.61 1807.58,1382.61 1810.43,1382.61 1815.84,1382.61 1821.25,1382.61 1824.1,1382.61 
  1824.1,1382.61 1826.95,1382.61 1832.36,1382.61 1837.77,1382.61 1840.62,1382.61 1840.62,1382.61 1843.47,1382.61 1848.88,1382.61 1854.29,1382.61 1857.14,1382.61 
  1859.99,1382.61 1865.4,1382.61 1870.81,1382.61 1873.66,1382.61 1876.51,1382.61 1881.92,1382.61 1887.33,1382.61 1890.18,1382.61 
  1893.03,1382.61 1898.44,1382.61 1903.85,1382.61 1906.7,1382.61 1909.55,1382.61 1914.96,1382.61 1920.37,1382.61 1923.22,1382.61 
  1926.08,1382.61 1931.48,1382.61 1936.89,1382.61 1939.74,1382.61 1942.6,1382.61 1948,1382.61 1953.41,1382.61 1956.26,1382.61 
  1959.12,1382.61 1964.52,1382.61 1969.93,1382.61 1972.78,1382.61 1975.64,1382.61 1981.04,1382.61 1986.45,1382.61 1989.3,1382.61 
  1992.16,1382.61 1997.56,1382.61 2002.97,1382.61 2005.83,1382.61 2008.68,1382.61 2014.09,1382.61 2019.49,1382.61 2022.35,1382.61 
  2025.2,1382.61 2030.61,1382.61 2036.01,1382.61 2038.87,1382.61 2041.72,1382.61 2047.13,1382.61 2052.53,1382.61 2055.39,1382.61 
  2058.24,1382.61 2063.65,1382.61 2069.05,1382.61 2071.91,1382.61 2074.76,1382.61 2080.17,1382.61 2085.58,1382.61 2088.43,1382.61 
  2091.28,1382.61 2096.69,1382.61 2102.1,1382.61 2104.95,1382.61 2107.8,1382.61 2113.21,1382.61 2118.62,1382.61 2121.47,1382.61 
  2124.32,1382.61 2129.73,1382.61 2135.14,1382.61 2137.99,1382.61 2140.84,1382.61 2146.25,1382.61 2151.66,1382.61 2154.51,1382.61 
  2157.36,1382.61 2162.77,1382.61 2168.18,1382.61 2171.03,1382.61 2173.88,1382.61 2179.29,1382.61 2184.7,1382.61 2187.55,1382.61 
  2190.4,1382.61 2195.81,1382.61 2201.22,1382.61 2204.07,1382.61 2206.92,1382.61 2212.33,1382.61 2217.74,1382.61 2220.59,1382.61 
  2223.44,1382.61 2228.85,1382.61 2234.26,1382.61 2237.11,1382.61 2239.96,1382.61 2245.37,1382.61 2250.78,1382.61 2253.63,1382.61 
  2256.49,1382.61 2261.89,1382.61 2267.3,1382.61 2270.15,1382.61 2273.01,1382.61 2278.41,1382.61 2283.82,1382.61 2286.67,1382.61 
  2289.53,1382.61 2294.93,1382.61 2300.34,1382.61 2303.19,1382.61 2306.05,1382.61 2311.45,1382.61 2316.86,1382.61 2319.71,1382.61 
  2322.57,1382.61 2327.98,1382.61 2333.38,1382.61 2336.24,1382.61 2339.09,1382.61 2344.5,1382.61 2349.9,1382.61 2352.76,1382.61 
  
  "/>
<path clip-path="url(#clip600)" d="
M1786.57 274.549 L2282.27 274.549 L2282.27 93.1086 L1786.57 93.1086  Z
  " fill="#ffffff" fill-rule="evenodd" fill-opacity="1"/>
<polyline clip-path="url(#clip600)" style="stroke:#000000; stroke-width:4; stroke-opacity:1; fill:none" points="
  1786.57,274.549 2282.27,274.549 2282.27,93.1086 1786.57,93.1086 1786.57,274.549 
  "/>
<polyline clip-path="url(#clip600)" style="stroke:#009af9; stroke-width:4; stroke-opacity:1; fill:none" points="
  1810.07,153.589 1951.04,153.589 
  "/>
<path clip-path="url(#clip600)" d="M 0 0 M1981.94 137.582 L1981.94 144.943 L1990.72 144.943 L1990.72 148.253 L1981.94 148.253 L1981.94 162.327 Q1981.94 165.498 1982.8 166.401 Q1983.68 167.304 1986.34 167.304 L1990.72 167.304 L1990.72 170.869 L1986.34 170.869 Q1981.41 170.869 1979.54 169.04 Q1977.66 167.188 1977.66 162.327 L1977.66 148.253 L1974.54 148.253 L1974.54 144.943 L1977.66 144.943 L1977.66 137.582 L1981.94 137.582 Z" fill="#000000" fill-rule="evenodd" fill-opacity="1" /><path clip-path="url(#clip600)" d="M 0 0 M1995.74 149.341 L2025.42 149.341 L2025.42 153.23 L1995.74 153.23 L1995.74 149.341 M1995.74 158.785 L2025.42 158.785 L2025.42 162.721 L1995.74 162.721 L1995.74 158.785 Z" fill="#000000" fill-rule="evenodd" fill-opacity="1" /><path clip-path="url(#clip600)" d="M 0 0 M2040.49 139.387 Q2036.87 139.387 2035.05 142.952 Q2033.24 146.494 2033.24 153.623 Q2033.24 160.73 2035.05 164.295 Q2036.87 167.836 2040.49 167.836 Q2044.12 167.836 2045.93 164.295 Q2047.75 160.73 2047.75 153.623 Q2047.75 146.494 2045.93 142.952 Q2044.12 139.387 2040.49 139.387 M2040.49 135.684 Q2046.3 135.684 2049.35 140.29 Q2052.43 144.873 2052.43 153.623 Q2052.43 162.35 2049.35 166.957 Q2046.3 171.54 2040.49 171.54 Q2034.68 171.54 2031.6 166.957 Q2028.54 162.35 2028.54 153.623 Q2028.54 144.873 2031.6 140.29 Q2034.68 135.684 2040.49 135.684 Z" fill="#000000" fill-rule="evenodd" fill-opacity="1" /><path clip-path="url(#clip600)" d="M 0 0 M2057.5 164.989 L2062.38 164.989 L2062.38 170.869 L2057.5 170.869 L2057.5 164.989 Z" fill="#000000" fill-rule="evenodd" fill-opacity="1" /><path clip-path="url(#clip600)" d="M 0 0 M2077.45 139.387 Q2073.84 139.387 2072.01 142.952 Q2070.21 146.494 2070.21 153.623 Q2070.21 160.73 2072.01 164.295 Q2073.84 167.836 2077.45 167.836 Q2081.09 167.836 2082.89 164.295 Q2084.72 160.73 2084.72 153.623 Q2084.72 146.494 2082.89 142.952 Q2081.09 139.387 2077.45 139.387 M2077.45 135.684 Q2083.26 135.684 2086.32 140.29 Q2089.4 144.873 2089.4 153.623 Q2089.4 162.35 2086.32 166.957 Q2083.26 171.54 2077.45 171.54 Q2071.64 171.54 2068.56 166.957 Q2065.51 162.35 2065.51 153.623 Q2065.51 144.873 2068.56 140.29 Q2071.64 135.684 2077.45 135.684 Z" fill="#000000" fill-rule="evenodd" fill-opacity="1" /><path clip-path="url(#clip600)" d="M 0 0 M2108.54 134.85 L2118.36 134.85 L2118.36 138.16 L2112.8 138.16 L2112.8 173.808 L2118.36 173.808 L2118.36 177.119 L2108.54 177.119 L2108.54 134.85 Z" fill="#000000" fill-rule="evenodd" fill-opacity="1" /><path clip-path="url(#clip600)" d="M 0 0 M2139.35 145.707 L2139.35 149.734 Q2137.55 148.809 2135.6 148.346 Q2133.66 147.883 2131.57 147.883 Q2128.4 147.883 2126.81 148.855 Q2125.23 149.827 2125.23 151.771 Q2125.23 153.253 2126.37 154.109 Q2127.5 154.943 2130.93 155.707 L2132.38 156.031 Q2136.92 157.003 2138.82 158.785 Q2140.74 160.545 2140.74 163.716 Q2140.74 167.327 2137.87 169.433 Q2135.02 171.54 2130.02 171.54 Q2127.94 171.54 2125.67 171.123 Q2123.43 170.73 2120.93 169.92 L2120.93 165.521 Q2123.29 166.748 2125.58 167.373 Q2127.87 167.975 2130.12 167.975 Q2133.12 167.975 2134.74 166.957 Q2136.37 165.915 2136.37 164.04 Q2136.37 162.304 2135.18 161.378 Q2134.03 160.452 2130.07 159.596 L2128.59 159.248 Q2124.63 158.415 2122.87 156.702 Q2121.11 154.966 2121.11 151.957 Q2121.11 148.299 2123.7 146.309 Q2126.3 144.318 2131.06 144.318 Q2133.43 144.318 2135.51 144.665 Q2137.59 145.012 2139.35 145.707 Z" fill="#000000" fill-rule="evenodd" fill-opacity="1" /><path clip-path="url(#clip600)" d="M 0 0 M2155.16 134.85 L2155.16 177.119 L2145.35 177.119 L2145.35 173.808 L2150.88 173.808 L2150.88 138.16 L2145.35 138.16 L2145.35 134.85 L2155.16 134.85 Z" fill="#000000" fill-rule="evenodd" fill-opacity="1" /><polyline clip-path="url(#clip600)" style="stroke:#e26f46; stroke-width:4; stroke-opacity:1; fill:none" points="
  1810.07,214.069 1951.04,214.069 
  "/>
<path clip-path="url(#clip600)" d="M 0 0 M1981.94 198.062 L1981.94 205.423 L1990.72 205.423 L1990.72 208.733 L1981.94 208.733 L1981.94 222.807 Q1981.94 225.978 1982.8 226.881 Q1983.68 227.784 1986.34 227.784 L1990.72 227.784 L1990.72 231.349 L1986.34 231.349 Q1981.41 231.349 1979.54 229.52 Q1977.66 227.668 1977.66 222.807 L1977.66 208.733 L1974.54 208.733 L1974.54 205.423 L1977.66 205.423 L1977.66 198.062 L1981.94 198.062 Z" fill="#000000" fill-rule="evenodd" fill-opacity="1" /><path clip-path="url(#clip600)" d="M 0 0 M1995.74 209.821 L2025.42 209.821 L2025.42 213.71 L1995.74 213.71 L1995.74 209.821 M1995.74 219.265 L2025.42 219.265 L2025.42 223.201 L1995.74 223.201 L1995.74 219.265 Z" fill="#000000" fill-rule="evenodd" fill-opacity="1" /><path clip-path="url(#clip600)" d="M 0 0 M2043.33 200.863 L2031.53 219.312 L2043.33 219.312 L2043.33 200.863 M2042.11 196.789 L2047.99 196.789 L2047.99 219.312 L2052.92 219.312 L2052.92 223.201 L2047.99 223.201 L2047.99 231.349 L2043.33 231.349 L2043.33 223.201 L2027.73 223.201 L2027.73 218.687 L2042.11 196.789 Z" fill="#000000" fill-rule="evenodd" fill-opacity="1" /><path clip-path="url(#clip600)" d="M 0 0 M2058.03 196.789 L2076.39 196.789 L2076.39 200.724 L2062.31 200.724 L2062.31 209.196 Q2063.33 208.849 2064.35 208.687 Q2065.37 208.502 2066.39 208.502 Q2072.18 208.502 2075.56 211.673 Q2078.93 214.844 2078.93 220.261 Q2078.93 225.839 2075.46 228.941 Q2071.99 232.02 2065.67 232.02 Q2063.5 232.02 2061.23 231.65 Q2058.98 231.279 2056.57 230.538 L2056.57 225.839 Q2058.66 226.974 2060.88 227.529 Q2063.1 228.085 2065.58 228.085 Q2069.58 228.085 2071.92 225.978 Q2074.26 223.872 2074.26 220.261 Q2074.26 216.65 2071.92 214.543 Q2069.58 212.437 2065.58 212.437 Q2063.7 212.437 2061.83 212.853 Q2059.98 213.27 2058.03 214.15 L2058.03 196.789 Z" fill="#000000" fill-rule="evenodd" fill-opacity="1" /><path clip-path="url(#clip600)" d="M 0 0 M2094 199.867 Q2090.39 199.867 2088.56 203.432 Q2086.76 206.974 2086.76 214.103 Q2086.76 221.21 2088.56 224.775 Q2090.39 228.316 2094 228.316 Q2097.64 228.316 2099.44 224.775 Q2101.27 221.21 2101.27 214.103 Q2101.27 206.974 2099.44 203.432 Q2097.64 199.867 2094 199.867 M2094 196.164 Q2099.81 196.164 2102.87 200.77 Q2105.95 205.353 2105.95 214.103 Q2105.95 222.83 2102.87 227.437 Q2099.81 232.02 2094 232.02 Q2088.19 232.02 2085.12 227.437 Q2082.06 222.83 2082.06 214.103 Q2082.06 205.353 2085.12 200.77 Q2088.19 196.164 2094 196.164 Z" fill="#000000" fill-rule="evenodd" fill-opacity="1" /><path clip-path="url(#clip600)" d="M 0 0 M2111.02 225.469 L2115.9 225.469 L2115.9 231.349 L2111.02 231.349 L2111.02 225.469 Z" fill="#000000" fill-rule="evenodd" fill-opacity="1" /><path clip-path="url(#clip600)" d="M 0 0 M2133.82 200.863 L2122.01 219.312 L2133.82 219.312 L2133.82 200.863 M2132.59 196.789 L2138.47 196.789 L2138.47 219.312 L2143.4 219.312 L2143.4 223.201 L2138.47 223.201 L2138.47 231.349 L2133.82 231.349 L2133.82 223.201 L2118.22 223.201 L2118.22 218.687 L2132.59 196.789 Z" fill="#000000" fill-rule="evenodd" fill-opacity="1" /><path clip-path="url(#clip600)" d="M 0 0 M2147.29 196.789 L2169.51 196.789 L2169.51 198.779 L2156.97 231.349 L2152.08 231.349 L2163.89 200.724 L2147.29 200.724 L2147.29 196.789 Z" fill="#000000" fill-rule="evenodd" fill-opacity="1" /><path clip-path="url(#clip600)" d="M 0 0 M2188.66 195.33 L2198.47 195.33 L2198.47 198.64 L2192.92 198.64 L2192.92 234.288 L2198.47 234.288 L2198.47 237.599 L2188.66 237.599 L2188.66 195.33 Z" fill="#000000" fill-rule="evenodd" fill-opacity="1" /><path clip-path="url(#clip600)" d="M 0 0 M2219.47 206.187 L2219.47 210.214 Q2217.66 209.289 2215.72 208.826 Q2213.77 208.363 2211.69 208.363 Q2208.52 208.363 2206.92 209.335 Q2205.35 210.307 2205.35 212.251 Q2205.35 213.733 2206.48 214.589 Q2207.61 215.423 2211.04 216.187 L2212.5 216.511 Q2217.04 217.483 2218.93 219.265 Q2220.86 221.025 2220.86 224.196 Q2220.86 227.807 2217.99 229.913 Q2215.14 232.02 2210.14 232.02 Q2208.05 232.02 2205.79 231.603 Q2203.54 231.21 2201.04 230.4 L2201.04 226.001 Q2203.4 227.228 2205.69 227.853 Q2207.99 228.455 2210.23 228.455 Q2213.24 228.455 2214.86 227.437 Q2216.48 226.395 2216.48 224.52 Q2216.48 222.784 2215.3 221.858 Q2214.14 220.932 2210.18 220.076 L2208.7 219.728 Q2204.74 218.895 2202.99 217.182 Q2201.23 215.446 2201.23 212.437 Q2201.23 208.779 2203.82 206.789 Q2206.41 204.798 2211.18 204.798 Q2213.54 204.798 2215.62 205.145 Q2217.71 205.492 2219.47 206.187 Z" fill="#000000" fill-rule="evenodd" fill-opacity="1" /><path clip-path="url(#clip600)" d="M 0 0 M2235.28 195.33 L2235.28 237.599 L2225.46 237.599 L2225.46 234.288 L2230.99 234.288 L2230.99 198.64 L2225.46 198.64 L2225.46 195.33 L2235.28 195.33 Z" fill="#000000" fill-rule="evenodd" fill-opacity="1" /></svg>
