<?xml version="1.0" encoding="utf-8"?>
<svg xmlns="http://www.w3.org/2000/svg" xmlns:xlink="http://www.w3.org/1999/xlink" width="600" height="400" viewBox="0 0 2400 1600">
<defs>
  <clipPath id="clip540">
    <rect x="0" y="0" width="2400" height="1600"/>
  </clipPath>
</defs>
<path clip-path="url(#clip540)" d="
M0 1600 L2400 1600 L2400 0 L0 0  Z
  " fill="#ffffff" fill-rule="evenodd" fill-opacity="1"/>
<defs>
  <clipPath id="clip541">
    <rect x="480" y="0" width="1681" height="1600"/>
  </clipPath>
</defs>
<path clip-path="url(#clip540)" d="
M238.13 1423.18 L2352.76 1423.18 L2352.76 47.2441 L238.13 47.2441  Z
  " fill="#ffffff" fill-rule="evenodd" fill-opacity="1"/>
<defs>
  <clipPath id="clip542">
    <rect x="238" y="47" width="2116" height="1377"/>
  </clipPath>
</defs>
<polyline clip-path="url(#clip542)" style="stroke:#000000; stroke-width:2; stroke-opacity:0.1; fill:none" points="
  238.13,1423.18 238.13,47.2441 
  "/>
<polyline clip-path="url(#clip542)" style="stroke:#000000; stroke-width:2; stroke-opacity:0.1; fill:none" points="
  540.219,1423.18 540.219,47.2441 
  "/>
<polyline clip-path="url(#clip542)" style="stroke:#000000; stroke-width:2; stroke-opacity:0.1; fill:none" points="
  842.309,1423.18 842.309,47.2441 
  "/>
<polyline clip-path="url(#clip542)" style="stroke:#000000; stroke-width:2; stroke-opacity:0.1; fill:none" points="
  1144.4,1423.18 1144.4,47.2441 
  "/>
<polyline clip-path="url(#clip542)" style="stroke:#000000; stroke-width:2; stroke-opacity:0.1; fill:none" points="
  1446.49,1423.18 1446.49,47.2441 
  "/>
<polyline clip-path="url(#clip542)" style="stroke:#000000; stroke-width:2; stroke-opacity:0.1; fill:none" points="
  1748.58,1423.18 1748.58,47.2441 
  "/>
<polyline clip-path="url(#clip542)" style="stroke:#000000; stroke-width:2; stroke-opacity:0.1; fill:none" points="
  2050.67,1423.18 2050.67,47.2441 
  "/>
<polyline clip-path="url(#clip542)" style="stroke:#000000; stroke-width:2; stroke-opacity:0.1; fill:none" points="
  2352.76,1423.18 2352.76,47.2441 
  "/>
<polyline clip-path="url(#clip540)" style="stroke:#000000; stroke-width:4; stroke-opacity:1; fill:none" points="
  238.13,1423.18 2352.76,1423.18 
  "/>
<polyline clip-path="url(#clip540)" style="stroke:#000000; stroke-width:4; stroke-opacity:1; fill:none" points="
  238.13,1423.18 238.13,1406.67 
  "/>
<polyline clip-path="url(#clip540)" style="stroke:#000000; stroke-width:4; stroke-opacity:1; fill:none" points="
  540.219,1423.18 540.219,1406.67 
  "/>
<polyline clip-path="url(#clip540)" style="stroke:#000000; stroke-width:4; stroke-opacity:1; fill:none" points="
  842.309,1423.18 842.309,1406.67 
  "/>
<polyline clip-path="url(#clip540)" style="stroke:#000000; stroke-width:4; stroke-opacity:1; fill:none" points="
  1144.4,1423.18 1144.4,1406.67 
  "/>
<polyline clip-path="url(#clip540)" style="stroke:#000000; stroke-width:4; stroke-opacity:1; fill:none" points="
  1446.49,1423.18 1446.49,1406.67 
  "/>
<polyline clip-path="url(#clip540)" style="stroke:#000000; stroke-width:4; stroke-opacity:1; fill:none" points="
  1748.58,1423.18 1748.58,1406.67 
  "/>
<polyline clip-path="url(#clip540)" style="stroke:#000000; stroke-width:4; stroke-opacity:1; fill:none" points="
  2050.67,1423.18 2050.67,1406.67 
  "/>
<polyline clip-path="url(#clip540)" style="stroke:#000000; stroke-width:4; stroke-opacity:1; fill:none" points="
  2352.76,1423.18 2352.76,1406.67 
  "/>
<path clip-path="url(#clip540)" d="M 0 0 M238.13 1452.37 Q234.519 1452.37 232.69 1455.94 Q230.885 1459.48 230.885 1466.61 Q230.885 1473.71 232.69 1477.28 Q234.519 1480.82 238.13 1480.82 Q241.764 1480.82 243.57 1477.28 Q245.399 1473.71 245.399 1466.61 Q245.399 1459.48 243.57 1455.94 Q241.764 1452.37 238.13 1452.37 M238.13 1448.67 Q243.94 1448.67 246.996 1453.27 Q250.074 1457.86 250.074 1466.61 Q250.074 1475.33 246.996 1479.94 Q243.94 1484.52 238.13 1484.52 Q232.32 1484.52 229.241 1479.94 Q226.186 1475.33 226.186 1466.61 Q226.186 1457.86 229.241 1453.27 Q232.32 1448.67 238.13 1448.67 Z" fill="#000000" fill-rule="evenodd" fill-opacity="1" /><path clip-path="url(#clip540)" d="M 0 0 M516.99 1449.29 L535.347 1449.29 L535.347 1453.23 L521.273 1453.23 L521.273 1461.7 Q522.291 1461.35 523.31 1461.19 Q524.328 1461 525.347 1461 Q531.134 1461 534.513 1464.18 Q537.893 1467.35 537.893 1472.76 Q537.893 1478.34 534.421 1481.44 Q530.949 1484.52 524.629 1484.52 Q522.453 1484.52 520.185 1484.15 Q517.939 1483.78 515.532 1483.04 L515.532 1478.34 Q517.615 1479.48 519.838 1480.03 Q522.06 1480.59 524.537 1480.59 Q528.541 1480.59 530.879 1478.48 Q533.217 1476.38 533.217 1472.76 Q533.217 1469.15 530.879 1467.05 Q528.541 1464.94 524.537 1464.94 Q522.662 1464.94 520.787 1465.36 Q518.935 1465.77 516.99 1466.65 L516.99 1449.29 Z" fill="#000000" fill-rule="evenodd" fill-opacity="1" /><path clip-path="url(#clip540)" d="M 0 0 M552.962 1452.37 Q549.351 1452.37 547.523 1455.94 Q545.717 1459.48 545.717 1466.61 Q545.717 1473.71 547.523 1477.28 Q549.351 1480.82 552.962 1480.82 Q556.597 1480.82 558.402 1477.28 Q560.231 1473.71 560.231 1466.61 Q560.231 1459.48 558.402 1455.94 Q556.597 1452.37 552.962 1452.37 M552.962 1448.67 Q558.773 1448.67 561.828 1453.27 Q564.907 1457.86 564.907 1466.61 Q564.907 1475.33 561.828 1479.94 Q558.773 1484.52 552.962 1484.52 Q547.152 1484.52 544.074 1479.94 Q541.018 1475.33 541.018 1466.61 Q541.018 1457.86 544.074 1453.27 Q547.152 1448.67 552.962 1448.67 Z" fill="#000000" fill-rule="evenodd" fill-opacity="1" /><path clip-path="url(#clip540)" d="M 0 0 M805.677 1479.92 L813.316 1479.92 L813.316 1453.55 L805.006 1455.22 L805.006 1450.96 L813.27 1449.29 L817.946 1449.29 L817.946 1479.92 L825.584 1479.92 L825.584 1483.85 L805.677 1483.85 L805.677 1479.92 Z" fill="#000000" fill-rule="evenodd" fill-opacity="1" /><path clip-path="url(#clip540)" d="M 0 0 M840.654 1452.37 Q837.043 1452.37 835.214 1455.94 Q833.408 1459.48 833.408 1466.61 Q833.408 1473.71 835.214 1477.28 Q837.043 1480.82 840.654 1480.82 Q844.288 1480.82 846.094 1477.28 Q847.922 1473.71 847.922 1466.61 Q847.922 1459.48 846.094 1455.94 Q844.288 1452.37 840.654 1452.37 M840.654 1448.67 Q846.464 1448.67 849.519 1453.27 Q852.598 1457.86 852.598 1466.61 Q852.598 1475.33 849.519 1479.94 Q846.464 1484.52 840.654 1484.52 Q834.844 1484.52 831.765 1479.94 Q828.709 1475.33 828.709 1466.61 Q828.709 1457.86 831.765 1453.27 Q834.844 1448.67 840.654 1448.67 Z" fill="#000000" fill-rule="evenodd" fill-opacity="1" /><path clip-path="url(#clip540)" d="M 0 0 M867.668 1452.37 Q864.056 1452.37 862.228 1455.94 Q860.422 1459.48 860.422 1466.61 Q860.422 1473.71 862.228 1477.28 Q864.056 1480.82 867.668 1480.82 Q871.302 1480.82 873.107 1477.28 Q874.936 1473.71 874.936 1466.61 Q874.936 1459.48 873.107 1455.94 Q871.302 1452.37 867.668 1452.37 M867.668 1448.67 Q873.478 1448.67 876.533 1453.27 Q879.612 1457.86 879.612 1466.61 Q879.612 1475.33 876.533 1479.94 Q873.478 1484.52 867.668 1484.52 Q861.857 1484.52 858.779 1479.94 Q855.723 1475.33 855.723 1466.61 Q855.723 1457.86 858.779 1453.27 Q861.857 1448.67 867.668 1448.67 Z" fill="#000000" fill-rule="evenodd" fill-opacity="1" /><path clip-path="url(#clip540)" d="M 0 0 M1108.26 1479.92 L1115.9 1479.92 L1115.9 1453.55 L1107.59 1455.22 L1107.59 1450.96 L1115.86 1449.29 L1120.53 1449.29 L1120.53 1479.92 L1128.17 1479.92 L1128.17 1483.85 L1108.26 1483.85 L1108.26 1479.92 Z" fill="#000000" fill-rule="evenodd" fill-opacity="1" /><path clip-path="url(#clip540)" d="M 0 0 M1133.29 1449.29 L1151.64 1449.29 L1151.64 1453.23 L1137.57 1453.23 L1137.57 1461.7 Q1138.59 1461.35 1139.61 1461.19 Q1140.63 1461 1141.64 1461 Q1147.43 1461 1150.81 1464.18 Q1154.19 1467.35 1154.19 1472.76 Q1154.19 1478.34 1150.72 1481.44 Q1147.25 1484.52 1140.93 1484.52 Q1138.75 1484.52 1136.48 1484.15 Q1134.24 1483.78 1131.83 1483.04 L1131.83 1478.34 Q1133.91 1479.48 1136.13 1480.03 Q1138.36 1480.59 1140.83 1480.59 Q1144.84 1480.59 1147.18 1478.48 Q1149.51 1476.38 1149.51 1472.76 Q1149.51 1469.15 1147.18 1467.05 Q1144.84 1464.94 1140.83 1464.94 Q1138.96 1464.94 1137.08 1465.36 Q1135.23 1465.77 1133.29 1466.65 L1133.29 1449.29 Z" fill="#000000" fill-rule="evenodd" fill-opacity="1" /><path clip-path="url(#clip540)" d="M 0 0 M1169.26 1452.37 Q1165.65 1452.37 1163.82 1455.94 Q1162.01 1459.48 1162.01 1466.61 Q1162.01 1473.71 1163.82 1477.28 Q1165.65 1480.82 1169.26 1480.82 Q1172.89 1480.82 1174.7 1477.28 Q1176.53 1473.71 1176.53 1466.61 Q1176.53 1459.48 1174.7 1455.94 Q1172.89 1452.37 1169.26 1452.37 M1169.26 1448.67 Q1175.07 1448.67 1178.12 1453.27 Q1181.2 1457.86 1181.2 1466.61 Q1181.2 1475.33 1178.12 1479.94 Q1175.07 1484.52 1169.26 1484.52 Q1163.45 1484.52 1160.37 1479.94 Q1157.31 1475.33 1157.31 1466.61 Q1157.31 1457.86 1160.37 1453.27 Q1163.45 1448.67 1169.26 1448.67 Z" fill="#000000" fill-rule="evenodd" fill-opacity="1" /><path clip-path="url(#clip540)" d="M 0 0 M1414.13 1479.92 L1430.45 1479.92 L1430.45 1483.85 L1408.5 1483.85 L1408.5 1479.92 Q1411.16 1477.16 1415.75 1472.53 Q1420.35 1467.88 1421.53 1466.54 Q1423.78 1464.01 1424.66 1462.28 Q1425.56 1460.52 1425.56 1458.83 Q1425.56 1456.07 1423.62 1454.34 Q1421.7 1452.6 1418.59 1452.6 Q1416.4 1452.6 1413.94 1453.37 Q1411.51 1454.13 1408.73 1455.68 L1408.73 1450.96 Q1411.56 1449.82 1414.01 1449.25 Q1416.46 1448.67 1418.5 1448.67 Q1423.87 1448.67 1427.07 1451.35 Q1430.26 1454.04 1430.26 1458.53 Q1430.26 1460.66 1429.45 1462.58 Q1428.66 1464.48 1426.56 1467.07 Q1425.98 1467.74 1422.88 1470.96 Q1419.77 1474.15 1414.13 1479.92 Z" fill="#000000" fill-rule="evenodd" fill-opacity="1" /><path clip-path="url(#clip540)" d="M 0 0 M1445.52 1452.37 Q1441.9 1452.37 1440.08 1455.94 Q1438.27 1459.48 1438.27 1466.61 Q1438.27 1473.71 1440.08 1477.28 Q1441.9 1480.82 1445.52 1480.82 Q1449.15 1480.82 1450.96 1477.28 Q1452.78 1473.71 1452.78 1466.61 Q1452.78 1459.48 1450.96 1455.94 Q1449.15 1452.37 1445.52 1452.37 M1445.52 1448.67 Q1451.33 1448.67 1454.38 1453.27 Q1457.46 1457.86 1457.46 1466.61 Q1457.46 1475.33 1454.38 1479.94 Q1451.33 1484.52 1445.52 1484.52 Q1439.71 1484.52 1436.63 1479.94 Q1433.57 1475.33 1433.57 1466.61 Q1433.57 1457.86 1436.63 1453.27 Q1439.71 1448.67 1445.52 1448.67 Z" fill="#000000" fill-rule="evenodd" fill-opacity="1" /><path clip-path="url(#clip540)" d="M 0 0 M1472.53 1452.37 Q1468.92 1452.37 1467.09 1455.94 Q1465.28 1459.48 1465.28 1466.61 Q1465.28 1473.71 1467.09 1477.28 Q1468.92 1480.82 1472.53 1480.82 Q1476.16 1480.82 1477.97 1477.28 Q1479.8 1473.71 1479.8 1466.61 Q1479.8 1459.48 1477.97 1455.94 Q1476.16 1452.37 1472.53 1452.37 M1472.53 1448.67 Q1478.34 1448.67 1481.39 1453.27 Q1484.47 1457.86 1484.47 1466.61 Q1484.47 1475.33 1481.39 1479.94 Q1478.34 1484.52 1472.53 1484.52 Q1466.72 1484.52 1463.64 1479.94 Q1460.58 1475.33 1460.58 1466.61 Q1460.58 1457.86 1463.64 1453.27 Q1466.72 1448.67 1472.53 1448.67 Z" fill="#000000" fill-rule="evenodd" fill-opacity="1" /><path clip-path="url(#clip540)" d="M 0 0 M1716.71 1479.92 L1733.03 1479.92 L1733.03 1483.85 L1711.09 1483.85 L1711.09 1479.92 Q1713.75 1477.16 1718.33 1472.53 Q1722.94 1467.88 1724.12 1466.54 Q1726.37 1464.01 1727.25 1462.28 Q1728.15 1460.52 1728.15 1458.83 Q1728.15 1456.07 1726.2 1454.34 Q1724.28 1452.6 1721.18 1452.6 Q1718.98 1452.6 1716.53 1453.37 Q1714.1 1454.13 1711.32 1455.68 L1711.32 1450.96 Q1714.14 1449.82 1716.6 1449.25 Q1719.05 1448.67 1721.09 1448.67 Q1726.46 1448.67 1729.65 1451.35 Q1732.85 1454.04 1732.85 1458.53 Q1732.85 1460.66 1732.04 1462.58 Q1731.25 1464.48 1729.14 1467.07 Q1728.57 1467.74 1725.46 1470.96 Q1722.36 1474.15 1716.71 1479.92 Z" fill="#000000" fill-rule="evenodd" fill-opacity="1" /><path clip-path="url(#clip540)" d="M 0 0 M1738.15 1449.29 L1756.51 1449.29 L1756.51 1453.23 L1742.43 1453.23 L1742.43 1461.7 Q1743.45 1461.35 1744.47 1461.19 Q1745.49 1461 1746.51 1461 Q1752.29 1461 1755.67 1464.18 Q1759.05 1467.35 1759.05 1472.76 Q1759.05 1478.34 1755.58 1481.44 Q1752.11 1484.52 1745.79 1484.52 Q1743.61 1484.52 1741.34 1484.15 Q1739.1 1483.78 1736.69 1483.04 L1736.69 1478.34 Q1738.77 1479.48 1741 1480.03 Q1743.22 1480.59 1745.7 1480.59 Q1749.7 1480.59 1752.04 1478.48 Q1754.38 1476.38 1754.38 1472.76 Q1754.38 1469.15 1752.04 1467.05 Q1749.7 1464.94 1745.7 1464.94 Q1743.82 1464.94 1741.95 1465.36 Q1740.09 1465.77 1738.15 1466.65 L1738.15 1449.29 Z" fill="#000000" fill-rule="evenodd" fill-opacity="1" /><path clip-path="url(#clip540)" d="M 0 0 M1774.12 1452.37 Q1770.51 1452.37 1768.68 1455.94 Q1766.88 1459.48 1766.88 1466.61 Q1766.88 1473.71 1768.68 1477.28 Q1770.51 1480.82 1774.12 1480.82 Q1777.76 1480.82 1779.56 1477.28 Q1781.39 1473.71 1781.39 1466.61 Q1781.39 1459.48 1779.56 1455.94 Q1777.76 1452.37 1774.12 1452.37 M1774.12 1448.67 Q1779.93 1448.67 1782.99 1453.27 Q1786.07 1457.86 1786.07 1466.61 Q1786.07 1475.33 1782.99 1479.94 Q1779.93 1484.52 1774.12 1484.52 Q1768.31 1484.52 1765.23 1479.94 Q1762.18 1475.33 1762.18 1466.61 Q1762.18 1457.86 1765.23 1453.27 Q1768.31 1448.67 1774.12 1448.67 Z" fill="#000000" fill-rule="evenodd" fill-opacity="1" /><path clip-path="url(#clip540)" d="M 0 0 M2027.9 1465.22 Q2031.26 1465.94 2033.13 1468.2 Q2035.03 1470.47 2035.03 1473.81 Q2035.03 1478.92 2031.51 1481.72 Q2027.99 1484.52 2021.51 1484.52 Q2019.34 1484.52 2017.02 1484.08 Q2014.73 1483.67 2012.28 1482.81 L2012.28 1478.3 Q2014.22 1479.43 2016.53 1480.01 Q2018.85 1480.59 2021.37 1480.59 Q2025.77 1480.59 2028.06 1478.85 Q2030.38 1477.12 2030.38 1473.81 Q2030.38 1470.75 2028.22 1469.04 Q2026.09 1467.3 2022.28 1467.3 L2018.25 1467.3 L2018.25 1463.46 L2022.46 1463.46 Q2025.91 1463.46 2027.74 1462.09 Q2029.57 1460.7 2029.57 1458.11 Q2029.57 1455.45 2027.67 1454.04 Q2025.79 1452.6 2022.28 1452.6 Q2020.35 1452.6 2018.16 1453.02 Q2015.96 1453.44 2013.32 1454.31 L2013.32 1450.15 Q2015.98 1449.41 2018.29 1449.04 Q2020.63 1448.67 2022.69 1448.67 Q2028.02 1448.67 2031.12 1451.1 Q2034.22 1453.5 2034.22 1457.63 Q2034.22 1460.5 2032.58 1462.49 Q2030.93 1464.45 2027.9 1465.22 Z" fill="#000000" fill-rule="evenodd" fill-opacity="1" /><path clip-path="url(#clip540)" d="M 0 0 M2050.1 1452.37 Q2046.49 1452.37 2044.66 1455.94 Q2042.85 1459.48 2042.85 1466.61 Q2042.85 1473.71 2044.66 1477.28 Q2046.49 1480.82 2050.1 1480.82 Q2053.73 1480.82 2055.54 1477.28 Q2057.37 1473.71 2057.37 1466.61 Q2057.37 1459.48 2055.54 1455.94 Q2053.73 1452.37 2050.1 1452.37 M2050.1 1448.67 Q2055.91 1448.67 2058.97 1453.27 Q2062.04 1457.86 2062.04 1466.61 Q2062.04 1475.33 2058.97 1479.94 Q2055.91 1484.52 2050.1 1484.52 Q2044.29 1484.52 2041.21 1479.94 Q2038.15 1475.33 2038.15 1466.61 Q2038.15 1457.86 2041.21 1453.27 Q2044.29 1448.67 2050.1 1448.67 Z" fill="#000000" fill-rule="evenodd" fill-opacity="1" /><path clip-path="url(#clip540)" d="M 0 0 M2077.11 1452.37 Q2073.5 1452.37 2071.67 1455.94 Q2069.87 1459.48 2069.87 1466.61 Q2069.87 1473.71 2071.67 1477.28 Q2073.5 1480.82 2077.11 1480.82 Q2080.75 1480.82 2082.55 1477.28 Q2084.38 1473.71 2084.38 1466.61 Q2084.38 1459.48 2082.55 1455.94 Q2080.75 1452.37 2077.11 1452.37 M2077.11 1448.67 Q2082.92 1448.67 2085.98 1453.27 Q2089.06 1457.86 2089.06 1466.61 Q2089.06 1475.33 2085.98 1479.94 Q2082.92 1484.52 2077.11 1484.52 Q2071.3 1484.52 2068.22 1479.94 Q2065.17 1475.33 2065.17 1466.61 Q2065.17 1457.86 2068.22 1453.27 Q2071.3 1448.67 2077.11 1448.67 Z" fill="#000000" fill-rule="evenodd" fill-opacity="1" /><path clip-path="url(#clip540)" d="M 0 0 M2330.49 1465.22 Q2333.84 1465.94 2335.72 1468.2 Q2337.62 1470.47 2337.62 1473.81 Q2337.62 1478.92 2334.1 1481.72 Q2330.58 1484.52 2324.1 1484.52 Q2321.92 1484.52 2319.61 1484.08 Q2317.32 1483.67 2314.86 1482.81 L2314.86 1478.3 Q2316.81 1479.43 2319.12 1480.01 Q2321.44 1480.59 2323.96 1480.59 Q2328.36 1480.59 2330.65 1478.85 Q2332.96 1477.12 2332.96 1473.81 Q2332.96 1470.75 2330.81 1469.04 Q2328.68 1467.3 2324.86 1467.3 L2320.83 1467.3 L2320.83 1463.46 L2325.05 1463.46 Q2328.5 1463.46 2330.33 1462.09 Q2332.15 1460.7 2332.15 1458.11 Q2332.15 1455.45 2330.26 1454.04 Q2328.38 1452.6 2324.86 1452.6 Q2322.94 1452.6 2320.74 1453.02 Q2318.54 1453.44 2315.9 1454.31 L2315.9 1450.15 Q2318.57 1449.41 2320.88 1449.04 Q2323.22 1448.67 2325.28 1448.67 Q2330.6 1448.67 2333.71 1451.1 Q2336.81 1453.5 2336.81 1457.63 Q2336.81 1460.5 2335.16 1462.49 Q2333.52 1464.45 2330.49 1465.22 Z" fill="#000000" fill-rule="evenodd" fill-opacity="1" /><path clip-path="url(#clip540)" d="M 0 0 M2342.73 1449.29 L2361.09 1449.29 L2361.09 1453.23 L2347.02 1453.23 L2347.02 1461.7 Q2348.03 1461.35 2349.05 1461.19 Q2350.07 1461 2351.09 1461 Q2356.88 1461 2360.26 1464.18 Q2363.64 1467.35 2363.64 1472.76 Q2363.64 1478.34 2360.16 1481.44 Q2356.69 1484.52 2350.37 1484.52 Q2348.2 1484.52 2345.93 1484.15 Q2343.68 1483.78 2341.27 1483.04 L2341.27 1478.34 Q2343.36 1479.48 2345.58 1480.03 Q2347.8 1480.59 2350.28 1480.59 Q2354.28 1480.59 2356.62 1478.48 Q2358.96 1476.38 2358.96 1472.76 Q2358.96 1469.15 2356.62 1467.05 Q2354.28 1464.94 2350.28 1464.94 Q2348.4 1464.94 2346.53 1465.36 Q2344.68 1465.77 2342.73 1466.65 L2342.73 1449.29 Z" fill="#000000" fill-rule="evenodd" fill-opacity="1" /><path clip-path="url(#clip540)" d="M 0 0 M2378.7 1452.37 Q2375.09 1452.37 2373.27 1455.94 Q2371.46 1459.48 2371.46 1466.61 Q2371.46 1473.71 2373.27 1477.28 Q2375.09 1480.82 2378.7 1480.82 Q2382.34 1480.82 2384.14 1477.28 Q2385.97 1473.71 2385.97 1466.61 Q2385.97 1459.48 2384.14 1455.94 Q2382.34 1452.37 2378.7 1452.37 M2378.7 1448.67 Q2384.51 1448.67 2387.57 1453.27 Q2390.65 1457.86 2390.65 1466.61 Q2390.65 1475.33 2387.57 1479.94 Q2384.51 1484.52 2378.7 1484.52 Q2372.89 1484.52 2369.82 1479.94 Q2366.76 1475.33 2366.76 1466.61 Q2366.76 1457.86 2369.82 1453.27 Q2372.89 1448.67 2378.7 1448.67 Z" fill="#000000" fill-rule="evenodd" fill-opacity="1" /><path clip-path="url(#clip540)" d="M 0 0 M1312.06 1520.4 L1299.17 1537.74 L1312.73 1556.04 L1305.82 1556.04 L1295.44 1542.04 L1285.07 1556.04 L1278.16 1556.04 L1292.01 1537.39 L1279.34 1520.4 L1286.24 1520.4 L1295.7 1533.1 L1305.15 1520.4 L1312.06 1520.4 Z" fill="#000000" fill-rule="evenodd" fill-opacity="1" /><polyline clip-path="url(#clip542)" style="stroke:#000000; stroke-width:2; stroke-opacity:0.1; fill:none" points="
  238.13,1287.9 2352.76,1287.9 
  "/>
<polyline clip-path="url(#clip542)" style="stroke:#000000; stroke-width:2; stroke-opacity:0.1; fill:none" points="
  238.13,1008.45 2352.76,1008.45 
  "/>
<polyline clip-path="url(#clip542)" style="stroke:#000000; stroke-width:2; stroke-opacity:0.1; fill:none" points="
  238.13,729.013 2352.76,729.013 
  "/>
<polyline clip-path="url(#clip542)" style="stroke:#000000; stroke-width:2; stroke-opacity:0.1; fill:none" points="
  238.13,449.571 2352.76,449.571 
  "/>
<polyline clip-path="url(#clip542)" style="stroke:#000000; stroke-width:2; stroke-opacity:0.1; fill:none" points="
  238.13,170.13 2352.76,170.13 
  "/>
<polyline clip-path="url(#clip540)" style="stroke:#000000; stroke-width:4; stroke-opacity:1; fill:none" points="
  238.13,1423.18 238.13,47.2441 
  "/>
<polyline clip-path="url(#clip540)" style="stroke:#000000; stroke-width:4; stroke-opacity:1; fill:none" points="
  238.13,1287.9 263.506,1287.9 
  "/>
<polyline clip-path="url(#clip540)" style="stroke:#000000; stroke-width:4; stroke-opacity:1; fill:none" points="
  238.13,1008.45 263.506,1008.45 
  "/>
<polyline clip-path="url(#clip540)" style="stroke:#000000; stroke-width:4; stroke-opacity:1; fill:none" points="
  238.13,729.013 263.506,729.013 
  "/>
<polyline clip-path="url(#clip540)" style="stroke:#000000; stroke-width:4; stroke-opacity:1; fill:none" points="
  238.13,449.571 263.506,449.571 
  "/>
<polyline clip-path="url(#clip540)" style="stroke:#000000; stroke-width:4; stroke-opacity:1; fill:none" points="
  238.13,170.13 263.506,170.13 
  "/>
<path clip-path="url(#clip540)" d="M 0 0 M126.205 1273.69 Q122.593 1273.69 120.765 1277.26 Q118.959 1280.8 118.959 1287.93 Q118.959 1295.04 120.765 1298.6 Q122.593 1302.14 126.205 1302.14 Q129.839 1302.14 131.644 1298.6 Q133.473 1295.04 133.473 1287.93 Q133.473 1280.8 131.644 1277.26 Q129.839 1273.69 126.205 1273.69 M126.205 1269.99 Q132.015 1269.99 135.07 1274.6 Q138.149 1279.18 138.149 1287.93 Q138.149 1296.66 135.07 1301.26 Q132.015 1305.85 126.205 1305.85 Q120.394 1305.85 117.316 1301.26 Q114.26 1296.66 114.26 1287.93 Q114.26 1279.18 117.316 1274.6 Q120.394 1269.99 126.205 1269.99 Z" fill="#000000" fill-rule="evenodd" fill-opacity="1" /><path clip-path="url(#clip540)" d="M 0 0 M143.218 1299.3 L148.103 1299.3 L148.103 1305.18 L143.218 1305.18 L143.218 1299.3 Z" fill="#000000" fill-rule="evenodd" fill-opacity="1" /><path clip-path="url(#clip540)" d="M 0 0 M163.172 1273.69 Q159.561 1273.69 157.732 1277.26 Q155.927 1280.8 155.927 1287.93 Q155.927 1295.04 157.732 1298.6 Q159.561 1302.14 163.172 1302.14 Q166.806 1302.14 168.612 1298.6 Q170.44 1295.04 170.44 1287.93 Q170.44 1280.8 168.612 1277.26 Q166.806 1273.69 163.172 1273.69 M163.172 1269.99 Q168.982 1269.99 172.038 1274.6 Q175.116 1279.18 175.116 1287.93 Q175.116 1296.66 172.038 1301.26 Q168.982 1305.85 163.172 1305.85 Q157.362 1305.85 154.283 1301.26 Q151.228 1296.66 151.228 1287.93 Q151.228 1279.18 154.283 1274.6 Q157.362 1269.99 163.172 1269.99 Z" fill="#000000" fill-rule="evenodd" fill-opacity="1" /><path clip-path="url(#clip540)" d="M 0 0 M190.186 1273.69 Q186.575 1273.69 184.746 1277.26 Q182.94 1280.8 182.94 1287.93 Q182.94 1295.04 184.746 1298.6 Q186.575 1302.14 190.186 1302.14 Q193.82 1302.14 195.625 1298.6 Q197.454 1295.04 197.454 1287.93 Q197.454 1280.8 195.625 1277.26 Q193.82 1273.69 190.186 1273.69 M190.186 1269.99 Q195.996 1269.99 199.051 1274.6 Q202.13 1279.18 202.13 1287.93 Q202.13 1296.66 199.051 1301.26 Q195.996 1305.85 190.186 1305.85 Q184.376 1305.85 181.297 1301.26 Q178.241 1296.66 178.241 1287.93 Q178.241 1279.18 181.297 1274.6 Q184.376 1269.99 190.186 1269.99 Z" fill="#000000" fill-rule="evenodd" fill-opacity="1" /><path clip-path="url(#clip540)" d="M 0 0 M128.797 994.253 Q125.186 994.253 123.357 997.817 Q121.552 1001.36 121.552 1008.49 Q121.552 1015.6 123.357 1019.16 Q125.186 1022.7 128.797 1022.7 Q132.431 1022.7 134.237 1019.16 Q136.066 1015.6 136.066 1008.49 Q136.066 1001.36 134.237 997.817 Q132.431 994.253 128.797 994.253 M128.797 990.549 Q134.607 990.549 137.663 995.155 Q140.741 999.739 140.741 1008.49 Q140.741 1017.22 137.663 1021.82 Q134.607 1026.41 128.797 1026.41 Q122.987 1026.41 119.908 1021.82 Q116.853 1017.22 116.853 1008.49 Q116.853 999.739 119.908 995.155 Q122.987 990.549 128.797 990.549 Z" fill="#000000" fill-rule="evenodd" fill-opacity="1" /><path clip-path="url(#clip540)" d="M 0 0 M145.811 1019.85 L150.695 1019.85 L150.695 1025.73 L145.811 1025.73 L145.811 1019.85 Z" fill="#000000" fill-rule="evenodd" fill-opacity="1" /><path clip-path="url(#clip540)" d="M 0 0 M159.792 1021.8 L176.112 1021.8 L176.112 1025.73 L154.167 1025.73 L154.167 1021.8 Q156.829 1019.04 161.413 1014.41 Q166.019 1009.76 167.2 1008.42 Q169.445 1005.9 170.325 1004.16 Q171.227 1002.4 171.227 1000.71 Q171.227 997.956 169.283 996.22 Q167.362 994.484 164.26 994.484 Q162.061 994.484 159.607 995.248 Q157.177 996.012 154.399 997.563 L154.399 992.841 Q157.223 991.706 159.677 991.128 Q162.13 990.549 164.167 990.549 Q169.538 990.549 172.732 993.234 Q175.926 995.919 175.926 1000.41 Q175.926 1002.54 175.116 1004.46 Q174.329 1006.36 172.223 1008.95 Q171.644 1009.62 168.542 1012.84 Q165.44 1016.03 159.792 1021.8 Z" fill="#000000" fill-rule="evenodd" fill-opacity="1" /><path clip-path="url(#clip540)" d="M 0 0 M181.227 991.174 L199.584 991.174 L199.584 995.109 L185.51 995.109 L185.51 1003.58 Q186.528 1003.23 187.547 1003.07 Q188.565 1002.89 189.584 1002.89 Q195.371 1002.89 198.75 1006.06 Q202.13 1009.23 202.13 1014.65 Q202.13 1020.22 198.658 1023.33 Q195.186 1026.41 188.866 1026.41 Q186.69 1026.41 184.422 1026.03 Q182.176 1025.66 179.769 1024.92 L179.769 1020.22 Q181.852 1021.36 184.075 1021.91 Q186.297 1022.47 188.774 1022.47 Q192.778 1022.47 195.116 1020.36 Q197.454 1018.26 197.454 1014.65 Q197.454 1011.03 195.116 1008.93 Q192.778 1006.82 188.774 1006.82 Q186.899 1006.82 185.024 1007.24 Q183.172 1007.66 181.227 1008.53 L181.227 991.174 Z" fill="#000000" fill-rule="evenodd" fill-opacity="1" /><path clip-path="url(#clip540)" d="M 0 0 M127.2 714.811 Q123.589 714.811 121.76 718.376 Q119.955 721.918 119.955 729.047 Q119.955 736.154 121.76 739.719 Q123.589 743.26 127.2 743.26 Q130.834 743.26 132.64 739.719 Q134.468 736.154 134.468 729.047 Q134.468 721.918 132.64 718.376 Q130.834 714.811 127.2 714.811 M127.2 711.108 Q133.01 711.108 136.066 715.714 Q139.144 720.297 139.144 729.047 Q139.144 737.774 136.066 742.381 Q133.01 746.964 127.2 746.964 Q121.39 746.964 118.311 742.381 Q115.256 737.774 115.256 729.047 Q115.256 720.297 118.311 715.714 Q121.39 711.108 127.2 711.108 Z" fill="#000000" fill-rule="evenodd" fill-opacity="1" /><path clip-path="url(#clip540)" d="M 0 0 M144.214 740.413 L149.098 740.413 L149.098 746.293 L144.214 746.293 L144.214 740.413 Z" fill="#000000" fill-rule="evenodd" fill-opacity="1" /><path clip-path="url(#clip540)" d="M 0 0 M154.214 711.733 L172.57 711.733 L172.57 715.668 L158.496 715.668 L158.496 724.14 Q159.515 723.793 160.533 723.631 Q161.552 723.446 162.57 723.446 Q168.357 723.446 171.737 726.617 Q175.116 729.788 175.116 735.205 Q175.116 740.783 171.644 743.885 Q168.172 746.964 161.852 746.964 Q159.677 746.964 157.408 746.594 Q155.163 746.223 152.755 745.482 L152.755 740.783 Q154.839 741.918 157.061 742.473 Q159.283 743.029 161.76 743.029 Q165.765 743.029 168.102 740.922 Q170.44 738.816 170.44 735.205 Q170.44 731.594 168.102 729.487 Q165.765 727.381 161.76 727.381 Q159.885 727.381 158.01 727.797 Q156.158 728.214 154.214 729.094 L154.214 711.733 Z" fill="#000000" fill-rule="evenodd" fill-opacity="1" /><path clip-path="url(#clip540)" d="M 0 0 M190.186 714.811 Q186.575 714.811 184.746 718.376 Q182.94 721.918 182.94 729.047 Q182.94 736.154 184.746 739.719 Q186.575 743.26 190.186 743.26 Q193.82 743.26 195.625 739.719 Q197.454 736.154 197.454 729.047 Q197.454 721.918 195.625 718.376 Q193.82 714.811 190.186 714.811 M190.186 711.108 Q195.996 711.108 199.051 715.714 Q202.13 720.297 202.13 729.047 Q202.13 737.774 199.051 742.381 Q195.996 746.964 190.186 746.964 Q184.376 746.964 181.297 742.381 Q178.241 737.774 178.241 729.047 Q178.241 720.297 181.297 715.714 Q184.376 711.108 190.186 711.108 Z" fill="#000000" fill-rule="evenodd" fill-opacity="1" /><path clip-path="url(#clip540)" d="M 0 0 M128.103 435.37 Q124.492 435.37 122.663 438.935 Q120.857 442.476 120.857 449.606 Q120.857 456.712 122.663 460.277 Q124.492 463.819 128.103 463.819 Q131.737 463.819 133.542 460.277 Q135.371 456.712 135.371 449.606 Q135.371 442.476 133.542 438.935 Q131.737 435.37 128.103 435.37 M128.103 431.666 Q133.913 431.666 136.968 436.273 Q140.047 440.856 140.047 449.606 Q140.047 458.333 136.968 462.939 Q133.913 467.523 128.103 467.523 Q122.293 467.523 119.214 462.939 Q116.158 458.333 116.158 449.606 Q116.158 440.856 119.214 436.273 Q122.293 431.666 128.103 431.666 Z" fill="#000000" fill-rule="evenodd" fill-opacity="1" /><path clip-path="url(#clip540)" d="M 0 0 M145.116 460.972 L150.001 460.972 L150.001 466.851 L145.116 466.851 L145.116 460.972 Z" fill="#000000" fill-rule="evenodd" fill-opacity="1" /><path clip-path="url(#clip540)" d="M 0 0 M153.89 432.291 L176.112 432.291 L176.112 434.282 L163.565 466.851 L158.681 466.851 L170.487 436.226 L153.89 436.226 L153.89 432.291 Z" fill="#000000" fill-rule="evenodd" fill-opacity="1" /><path clip-path="url(#clip540)" d="M 0 0 M181.227 432.291 L199.584 432.291 L199.584 436.226 L185.51 436.226 L185.51 444.699 Q186.528 444.351 187.547 444.189 Q188.565 444.004 189.584 444.004 Q195.371 444.004 198.75 447.175 Q202.13 450.347 202.13 455.763 Q202.13 461.342 198.658 464.444 Q195.186 467.523 188.866 467.523 Q186.69 467.523 184.422 467.152 Q182.176 466.782 179.769 466.041 L179.769 461.342 Q181.852 462.476 184.075 463.032 Q186.297 463.587 188.774 463.587 Q192.778 463.587 195.116 461.481 Q197.454 459.374 197.454 455.763 Q197.454 452.152 195.116 450.046 Q192.778 447.939 188.774 447.939 Q186.899 447.939 185.024 448.356 Q183.172 448.773 181.227 449.652 L181.227 432.291 Z" fill="#000000" fill-rule="evenodd" fill-opacity="1" /><path clip-path="url(#clip540)" d="M 0 0 M118.242 183.475 L125.88 183.475 L125.88 157.109 L117.57 158.776 L117.57 154.517 L125.834 152.85 L130.51 152.85 L130.51 183.475 L138.149 183.475 L138.149 187.41 L118.242 187.41 L118.242 183.475 Z" fill="#000000" fill-rule="evenodd" fill-opacity="1" /><path clip-path="url(#clip540)" d="M 0 0 M143.218 181.53 L148.103 181.53 L148.103 187.41 L143.218 187.41 L143.218 181.53 Z" fill="#000000" fill-rule="evenodd" fill-opacity="1" /><path clip-path="url(#clip540)" d="M 0 0 M163.172 155.929 Q159.561 155.929 157.732 159.493 Q155.927 163.035 155.927 170.165 Q155.927 177.271 157.732 180.836 Q159.561 184.378 163.172 184.378 Q166.806 184.378 168.612 180.836 Q170.44 177.271 170.44 170.165 Q170.44 163.035 168.612 159.493 Q166.806 155.929 163.172 155.929 M163.172 152.225 Q168.982 152.225 172.038 156.831 Q175.116 161.415 175.116 170.165 Q175.116 178.891 172.038 183.498 Q168.982 188.081 163.172 188.081 Q157.362 188.081 154.283 183.498 Q151.228 178.891 151.228 170.165 Q151.228 161.415 154.283 156.831 Q157.362 152.225 163.172 152.225 Z" fill="#000000" fill-rule="evenodd" fill-opacity="1" /><path clip-path="url(#clip540)" d="M 0 0 M190.186 155.929 Q186.575 155.929 184.746 159.493 Q182.94 163.035 182.94 170.165 Q182.94 177.271 184.746 180.836 Q186.575 184.378 190.186 184.378 Q193.82 184.378 195.625 180.836 Q197.454 177.271 197.454 170.165 Q197.454 163.035 195.625 159.493 Q193.82 155.929 190.186 155.929 M190.186 152.225 Q195.996 152.225 199.051 156.831 Q202.13 161.415 202.13 170.165 Q202.13 178.891 199.051 183.498 Q195.996 188.081 190.186 188.081 Q184.376 188.081 181.297 183.498 Q178.241 178.891 178.241 170.165 Q178.241 161.415 181.297 156.831 Q184.376 152.225 190.186 152.225 Z" fill="#000000" fill-rule="evenodd" fill-opacity="1" /><path clip-path="url(#clip540)" d="M 0 0 M70.212 745.095 Q76.6732 745.095 80.3653 742.453 Q84.0256 739.779 84.0256 735.132 Q84.0256 730.485 80.3653 727.812 Q76.6732 725.138 70.212 725.138 Q63.7508 725.138 60.0905 727.812 Q56.3984 730.485 56.3984 735.132 Q56.3984 739.779 60.0905 742.453 Q63.7508 745.095 70.212 745.095 M82.657 725.138 Q85.8398 726.984 87.3994 729.817 Q88.9272 732.618 88.9272 736.565 Q88.9272 743.026 83.771 747.1 Q78.6147 751.142 70.212 751.142 Q61.8093 751.142 56.6531 747.1 Q51.4968 743.026 51.4968 736.565 Q51.4968 732.618 53.0564 729.817 Q54.5842 726.984 57.7671 725.138 L52.3562 725.138 L52.3562 719.282 L101.563 719.282 L101.563 725.138 L82.657 725.138 Z" fill="#000000" fill-rule="evenodd" fill-opacity="1" /><polyline clip-path="url(#clip542)" style="stroke:#009af9; stroke-width:4; stroke-opacity:1; fill:none" points="
  238.13,1287.9 240.983,1287.9 246.39,1287.9 251.798,1287.9 254.651,1287.9 257.503,1287.9 262.911,1287.9 268.318,1287.9 271.171,1287.9 
  274.024,1287.9 279.431,1287.9 284.839,1287.9 287.692,1287.9 290.544,1287.9 295.952,1287.9 301.359,1287.9 304.212,1287.9 
  307.065,1287.9 312.472,1287.9 317.88,1287.9 320.733,1287.9 323.585,1287.9 328.993,1287.9 334.4,1287.9 337.253,1287.9 
  340.106,1287.9 345.513,1287.9 350.921,1287.9 353.774,1287.9 356.626,1287.9 362.034,1287.9 367.442,1287.9 370.294,1287.9 
  373.147,1287.9 378.554,1287.9 383.962,1287.9 386.815,1287.9 389.667,1287.9 395.075,1287.9 400.483,1287.9 403.335,1287.9 
  406.188,1287.9 411.595,1287.9 417.003,1287.9 419.856,1287.9 422.708,1287.9 428.116,1287.9 433.524,1287.9 436.376,1287.9 
  439.229,1287.9 444.636,1287.9 450.044,1287.9 452.897,1287.9 455.749,1287.9 461.157,1287.9 466.565,1287.9 469.417,1287.9 
  472.27,1287.9 477.678,1287.9 483.085,1287.9 485.938,1287.9 488.79,1287.9 494.198,1287.9 499.606,1287.9 502.458,1287.9 
  505.311,1287.9 510.719,1287.9 516.126,1287.9 518.979,1287.9 521.831,1287.9 527.239,1287.9 532.647,1287.9 535.499,1287.9 
  538.352,1287.9 543.76,1287.9 549.167,1287.9 552.02,1287.9 554.872,1287.9 560.28,1287.9 565.688,1287.9 568.54,1287.9 
  571.393,1287.9 576.801,1287.9 582.208,1287.9 585.061,1287.9 587.914,1287.9 593.321,1287.9 598.729,1287.9 601.581,1287.9 
  604.434,1287.9 609.842,1287.9 615.249,1287.9 618.102,1287.9 620.955,1287.9 626.362,1287.9 631.77,1287.9 634.622,1287.9 
  637.475,1287.9 642.883,1287.9 648.29,1287.9 651.143,1287.9 653.996,1287.9 659.403,1287.9 664.811,1287.9 667.663,1287.9 
  670.516,1287.9 675.924,1287.9 681.331,1287.9 684.184,1287.9 687.037,1287.9 692.444,170.13 697.852,170.13 700.704,170.13 
  703.557,170.13 708.965,170.13 714.372,170.13 717.225,170.13 720.078,170.13 725.485,170.13 730.893,170.13 733.745,170.13 
  736.598,170.13 742.006,170.13 747.413,170.13 750.266,170.13 753.119,170.13 758.526,170.13 763.934,170.13 766.787,170.13 
  769.639,170.13 775.047,170.13 780.454,170.13 783.307,170.13 786.16,170.13 791.567,170.13 796.975,170.13 799.828,170.13 
  802.68,170.13 808.088,170.13 813.495,170.13 816.348,170.13 819.201,170.13 824.608,170.13 830.016,170.13 832.869,170.13 
  835.721,170.13 841.129,170.13 846.536,170.13 849.389,170.13 852.242,170.13 857.649,170.13 863.057,170.13 865.91,170.13 
  868.762,170.13 874.17,170.13 879.577,170.13 882.43,170.13 885.283,170.13 890.69,170.13 896.098,170.13 898.951,170.13 
  901.803,170.13 907.211,170.13 912.618,170.13 915.471,170.13 918.324,170.13 923.731,170.13 929.139,170.13 931.992,170.13 
  934.844,170.13 940.252,170.13 945.66,170.13 948.512,170.13 951.365,170.13 956.772,170.13 962.18,170.13 965.033,170.13 
  967.885,170.13 973.293,170.13 978.701,170.13 981.553,170.13 984.406,170.13 989.813,170.13 995.221,1287.9 998.074,1287.9 
  1000.93,1287.9 1006.33,1287.9 1011.74,1287.9 1014.59,1287.9 1017.45,1287.9 1022.85,1287.9 1028.26,1287.9 1031.11,1287.9 
  1033.97,1287.9 1039.38,1287.9 1044.78,1287.9 1047.64,1287.9 1050.49,1287.9 1055.9,1287.9 1061.3,1287.9 1064.16,1287.9 
  1067.01,1287.9 1072.42,1287.9 1077.82,1287.9 1080.68,1287.9 1083.53,1287.9 1088.94,1287.9 1094.34,1287.9 1097.2,1287.9 
  1100.05,1287.9 1105.46,1287.9 1110.86,1287.9 1113.72,1287.9 1116.57,1287.9 1121.98,1287.9 1127.39,1287.9 1130.24,1287.9 
  1133.09,1287.9 1138.5,1287.9 1143.91,1287.9 1146.76,1287.9 1149.61,1287.9 1155.02,1287.9 1160.43,1287.9 1163.28,1287.9 
  1166.13,1287.9 1171.54,1287.9 1176.95,1287.9 1179.8,1287.9 1182.65,1287.9 1188.06,1287.9 1193.47,1287.9 1196.32,1287.9 
  1199.17,1287.9 1204.58,1287.9 1209.99,1287.9 1212.84,1287.9 1215.69,1287.9 1221.1,1287.9 1226.51,1287.9 1229.36,1287.9 
  1232.21,1287.9 1237.62,1287.9 1243.03,1287.9 1245.88,1287.9 1248.73,1287.9 1254.14,1287.9 1259.55,1287.9 1262.4,1287.9 
  1265.25,1287.9 1270.66,1287.9 1276.07,1287.9 1278.92,1287.9 1281.78,1287.9 1287.18,1287.9 1292.59,1287.9 1295.44,1287.9 
  1298.3,1287.9 1303.7,1287.9 1309.11,1287.9 1311.96,1287.9 1314.82,1287.9 1320.22,1287.9 1325.63,1287.9 1328.48,1287.9 
  1331.34,1287.9 1336.74,1287.9 1342.15,1287.9 1345,1287.9 1347.86,1287.9 1353.26,1287.9 1358.67,1287.9 1361.53,1287.9 
  1364.38,1287.9 1369.79,1287.9 1375.19,1287.9 1378.05,1287.9 1380.9,1287.9 1386.31,1287.9 1391.71,1287.9 1394.57,1287.9 
  1397.42,1287.9 1402.83,1287.9 1408.23,1287.9 1411.09,1287.9 1413.94,1287.9 1419.35,1287.9 1424.75,1287.9 1427.61,1287.9 
  1430.46,1287.9 1435.87,1287.9 1441.27,1287.9 1444.13,1287.9 1446.98,1287.9 1452.39,1287.9 1457.8,1287.9 1460.65,1287.9 
  1463.5,1287.9 1468.91,1287.9 1474.32,1287.9 1477.17,1287.9 1480.02,1287.9 1485.43,1287.9 1490.84,1287.9 1493.69,1287.9 
  1496.54,1287.9 1501.95,1287.9 1507.36,1287.9 1510.21,1287.9 1513.06,1287.9 1518.47,1287.9 1523.88,1287.9 1526.73,1287.9 
  1529.58,1287.9 1534.99,1287.9 1540.4,1287.9 1543.25,1287.9 1546.1,1287.9 1551.51,1287.9 1556.92,1287.9 1559.77,1287.9 
  1562.62,1287.9 1568.03,1287.9 1573.44,1287.9 1576.29,1287.9 1579.14,1287.9 1584.55,1287.9 1589.96,1287.9 1592.81,1287.9 
  1595.66,1287.9 1601.07,1287.9 1606.48,1287.9 1609.33,1287.9 1612.19,1287.9 1617.59,1287.9 1623,1287.9 1625.85,1287.9 
  1628.71,1287.9 1634.11,1287.9 1639.52,1287.9 1642.37,1287.9 1645.23,1287.9 1650.63,1287.9 1656.04,1287.9 1658.89,1287.9 
  1661.75,1287.9 1667.15,1287.9 1672.56,1287.9 1675.41,1287.9 1678.27,1287.9 1683.68,1287.9 1689.08,1287.9 1691.94,1287.9 
  1694.79,1287.9 1700.2,1287.9 1705.6,1287.9 1708.46,1287.9 1711.31,1287.9 1716.72,1287.9 1722.12,1287.9 1724.98,1287.9 
  1727.83,1287.9 1733.24,1287.9 1738.64,1287.9 1741.5,1287.9 1744.35,1287.9 1749.76,1287.9 1755.16,1287.9 1758.02,1287.9 
  1760.87,1287.9 1766.28,1287.9 1771.69,1287.9 1774.54,1287.9 1777.39,1287.9 1782.8,1287.9 1788.21,1287.9 1791.06,1287.9 
  1793.91,1287.9 1799.32,1287.9 1804.73,1287.9 1807.58,1287.9 1810.43,1287.9 1815.84,1287.9 1821.25,1287.9 1824.1,1287.9 
  1826.95,1287.9 1832.36,1287.9 1837.77,1287.9 1840.62,1287.9 1843.47,1287.9 1848.88,1287.9 1854.29,1287.9 1857.14,1287.9 
  1859.99,1287.9 1865.4,1287.9 1870.81,1287.9 1873.66,1287.9 1876.51,1287.9 1881.92,1287.9 1887.33,1287.9 1890.18,1287.9 
  1893.03,1287.9 1898.44,1287.9 1903.85,1287.9 1906.7,1287.9 1909.55,1287.9 1914.96,1287.9 1920.37,1287.9 1923.22,1287.9 
  1926.08,1287.9 1931.48,1287.9 1936.89,1287.9 1939.74,1287.9 1942.6,1287.9 1948,1287.9 1953.41,1287.9 1956.26,1287.9 
  1959.12,1287.9 1964.52,1287.9 1969.93,1287.9 1972.78,1287.9 1975.64,1287.9 1981.04,1287.9 1986.45,1287.9 1989.3,1287.9 
  1992.16,1287.9 1997.56,1287.9 2002.97,1287.9 2005.83,1287.9 2008.68,1287.9 2014.09,1287.9 2019.49,1287.9 2022.35,1287.9 
  2025.2,1287.9 2030.61,1287.9 2036.01,1287.9 2038.87,1287.9 2041.72,1287.9 2047.13,1287.9 2052.53,1287.9 2055.39,1287.9 
  2058.24,1287.9 2063.65,1287.9 2069.05,1287.9 2071.91,1287.9 2074.76,1287.9 2080.17,1287.9 2085.58,1287.9 2088.43,1287.9 
  2091.28,1287.9 2096.69,1287.9 2102.1,1287.9 2104.95,1287.9 2107.8,1287.9 2113.21,1287.9 2118.62,1287.9 2121.47,1287.9 
  2124.32,1287.9 2129.73,1287.9 2135.14,1287.9 2137.99,1287.9 2140.84,1287.9 2146.25,1287.9 2151.66,1287.9 2154.51,1287.9 
  2157.36,1287.9 2162.77,1287.9 2168.18,1287.9 2171.03,1287.9 2173.88,1287.9 2179.29,1287.9 2184.7,1287.9 2187.55,1287.9 
  2190.4,1287.9 2195.81,1287.9 2201.22,1287.9 2204.07,1287.9 2206.92,1287.9 2212.33,1287.9 2217.74,1287.9 2220.59,1287.9 
  2223.44,1287.9 2228.85,1287.9 2234.26,1287.9 2237.11,1287.9 2239.96,1287.9 2245.37,1287.9 2250.78,1287.9 2253.63,1287.9 
  2256.49,1287.9 2261.89,1287.9 2267.3,1287.9 2270.15,1287.9 2273.01,1287.9 2278.41,1287.9 2283.82,1287.9 2286.67,1287.9 
  2289.53,1287.9 2294.93,1287.9 2300.34,1287.9 2303.19,1287.9 2306.05,1287.9 2311.45,1287.9 2316.86,1287.9 2319.71,1287.9 
  2322.57,1287.9 2327.98,1287.9 2333.38,1287.9 2336.24,1287.9 2339.09,1287.9 2344.5,1287.9 2349.9,1287.9 2352.76,1287.9 
  
  "/>
<polyline clip-path="url(#clip542)" style="stroke:#e26f46; stroke-width:4; stroke-opacity:1; fill:none" points="
  238.13,1287.9 240.983,1287.9 246.39,1287.9 251.798,1287.9 254.651,1287.9 257.503,1287.9 262.911,1287.9 268.318,1287.9 271.171,1287.9 
  274.024,1287.9 279.431,1287.9 284.839,1287.9 287.692,1287.9 290.544,1287.9 295.952,1287.9 301.359,1287.9 304.212,1287.9 
  307.065,1287.9 312.472,1287.9 317.88,1287.9 320.733,1287.9 323.585,1287.9 328.993,1287.9 334.4,1287.9 337.253,1287.9 
  340.106,1287.9 345.513,1287.9 350.921,1287.9 353.774,1287.9 356.626,1287.9 362.034,1287.9 367.442,1287.9 370.294,1287.9 
  373.147,1287.9 378.554,1287.9 383.962,1287.9 386.815,1287.9 389.667,1287.9 395.075,1287.9 400.483,1287.9 403.335,1287.9 
  406.188,1287.9 411.595,1287.9 417.003,1287.9 419.856,1287.9 422.708,1287.9 428.116,1287.9 433.524,1287.9 436.376,1287.9 
  439.229,1287.9 444.636,1287.9 450.044,1287.9 452.897,1287.9 455.749,1287.9 461.157,1287.9 466.565,1287.9 469.417,1287.9 
  472.27,1287.9 477.678,1287.9 483.085,1287.9 485.938,1287.9 488.79,1287.9 494.198,1287.9 499.606,1287.9 502.458,1287.9 
  505.311,1287.9 510.719,1287.9 516.126,1287.9 518.979,1287.9 521.831,1287.9 527.239,1287.9 532.647,1287.9 535.499,1287.9 
  538.352,1287.9 543.76,1287.9 549.167,1287.9 552.02,1287.9 554.872,1287.9 560.28,1287.9 565.688,1287.9 568.54,1287.9 
  571.393,1287.9 576.801,1287.9 582.208,1287.9 585.061,1287.9 587.914,1287.9 593.321,1287.9 598.729,1287.9 601.581,1287.9 
  604.434,1287.9 609.842,1287.9 615.249,1287.9 618.102,1287.9 620.955,1287.9 626.362,1287.9 631.77,1287.9 634.622,1287.9 
  637.475,1287.9 642.883,1287.9 648.29,1287.9 651.143,1287.9 653.996,1287.9 659.403,1287.9 664.811,1287.9 667.663,1287.9 
  670.516,1287.9 675.924,1287.9 681.331,1287.9 684.184,1287.9 687.037,1287.9 692.444,1287.9 697.852,1287.9 700.704,1287.9 
  700.704,1287.9 703.557,1287.9 708.965,1287.9 714.372,1287.9 717.225,1287.9 717.225,1287.9 720.078,1287.9 725.485,1287.9 730.893,1287.9 733.745,1287.9 
  736.598,1287.9 742.006,1287.9 747.413,1287.9 750.266,1287.9 750.266,1287.9 753.119,1287.9 758.526,1287.9 763.934,1287.9 766.787,1287.9 
  766.787,1287.9 769.639,1287.9 775.047,1287.9 780.454,1287.9 783.307,1287.9 783.307,1287.9 786.16,1287.9 791.567,1287.9 796.975,1287.9 799.828,1287.9 
  799.828,1287.9 802.68,1287.9 808.088,1287.9 813.495,1287.9 816.348,1287.9 816.348,1287.9 819.201,1287.9 824.608,1287.9 830.016,1287.9 832.869,1287.9 
  832.869,1287.9 835.721,1287.9 841.129,1287.9 846.536,1287.9 849.389,1287.9 849.389,1287.9 852.242,1287.9 857.649,1287.9 863.057,1287.9 865.91,1287.9 
  865.91,1287.9 868.762,1287.9 874.17,1287.9 879.577,1287.9 882.43,1287.9 882.43,1287.9 885.283,1287.9 890.69,1287.9 896.098,1287.9 898.951,1287.9 
  898.951,1287.9 901.803,1287.9 907.211,1287.9 912.618,1287.9 915.471,1287.9 915.471,1287.9 918.324,1287.9 923.731,1287.9 929.139,1287.9 931.992,1287.9 
  931.992,1287.9 934.844,1287.9 940.252,1287.9 945.66,1287.9 948.512,1287.9 948.512,1287.9 951.365,1287.9 956.772,1287.9 962.18,1287.9 965.033,1287.9 
  965.033,1287.9 967.885,1287.9 973.293,1287.9 978.701,1287.9 981.553,1287.9 981.553,1287.9 984.406,1287.9 989.813,1287.9 995.221,1287.9 998.074,1287.9 
  998.074,1287.9 1000.93,1287.9 1006.33,1287.9 1011.74,1287.9 1014.59,1287.9 1014.59,1287.9 1017.45,1287.9 1022.85,1287.9 1028.26,1287.89 1031.11,1287.89 
  1031.11,1287.89 1033.97,1287.9 1039.38,1287.9 1044.78,1287.9 1047.64,1287.9 1047.64,1287.9 1050.49,1287.9 1055.9,1287.9 1061.3,1287.89 1064.16,1287.89 
  1064.16,1287.89 1067.01,1287.89 1072.42,1287.89 1077.82,1287.9 1080.68,1287.9 1080.68,1287.9 1083.53,1287.9 1088.94,1287.9 1094.34,1287.9 1097.2,1287.9 
  1097.2,1287.9 1100.05,1287.89 1105.46,1287.87 1110.86,1287.87 1113.72,1287.87 1113.72,1287.87 1116.57,1287.89 1121.98,1287.92 1127.39,1287.96 1130.24,1287.98 
  1130.24,1287.98 1133.09,1287.97 1138.5,1287.92 1143.91,1287.81 1146.76,1287.74 1146.76,1287.77 1149.61,1287.69 1155.02,1287.67 1160.43,1287.84 1163.28,1287.99 
  1163.28,1287.9 1166.13,1288.19 1171.54,1288.52 1176.95,1288.54 1179.8,1288.43 1179.8,1288.58 1182.65,1288.04 1188.06,1287.08 1193.47,1286.17 1196.32,1285.71 
  1196.32,1285.73 1199.17,1285.86 1204.58,1287.1 1209.99,1289.64 1212.84,1291.5 1212.84,1290.77 1215.69,1292.98 1221.1,1294.22 1226.51,1291.62 1229.36,1288.69 
  1229.36,1290.25 1232.21,1283.91 1237.62,1274.34 1243.03,1267.99 1245.88,1265.94 1245.88,1265.54 1248.73,1270.21 1254.14,1287.07 1259.55,1314.44 1262.4,1333.1 
  1262.4,1325.56 1265.25,1348.87 1270.66,1362.62 1276.07,1336.48 1278.92,1306.62 1278.92,1308.81 1281.78,1250.58 1287.18,1102.76 1292.59,905.902 1295.44,782.299 
  1295.44,794.317 1298.3,660.964 1303.7,440.243 1309.11,261.509 1311.96,184.139 1311.96,182.272 1314.82,136.017 1320.22,86.2686 1325.63,86.1857 1328.48,106.152 
  1328.48,99.1396 1331.34,124.607 1336.74,163.557 1342.15,190.294 1345,199.477 1345,200.879 1347.86,199.345 1353.26,192.083 1358.67,179.119 1361.53,169.982 
  1361.53,170.794 1364.38,165.563 1369.79,160.323 1375.19,161.205 1378.05,164.137 1378.05,163.366 1380.9,166.774 1386.31,171.42 1391.71,173.689 1394.57,173.93 
  1394.57,174.222 1397.42,173.161 1402.83,171.295 1408.23,169.621 1411.09,168.816 1411.09,168.782 1413.94,168.791 1419.35,169.092 1424.75,169.763 1427.61,170.267 
  1427.61,170.243 1430.46,170.429 1435.87,170.575 1441.27,170.451 1444.13,170.277 1444.13,170.275 1446.98,170.215 1452.39,170.153 1457.8,170.161 1460.65,170.193 
  1460.65,170.232 1463.5,170.129 1468.91,169.899 1474.32,169.621 1477.17,169.455 1477.17,169.461 1480.02,169.488 1485.43,169.903 1490.84,170.792 1493.69,171.452 
  1493.69,171.2 1496.54,171.949 1501.95,172.278 1507.36,171.176 1510.21,170.018 1510.21,170.699 1513.06,168.3 1518.47,165.131 1523.88,163.77 1526.73,163.779 
  1526.73,163.26 1529.58,166.124 1534.99,173.258 1540.4,182.623 1543.25,188.463 1543.25,186.853 1546.1,191.157 1551.51,189.258 1556.92,174.188 1559.77,160.932 
  1559.77,166.892 1562.62,143.012 1568.03,111.093 1573.44,96.6489 1576.29,96.0705 1576.29,99.5484 1579.14,116.865 1584.55,196.495 1589.96,337.405 1592.81,436.43 
  1592.81,425.046 1595.66,549.308 1601.07,778.031 1606.48,997.807 1609.33,1110.14 1609.33,1105.89 1612.19,1195.13 1617.59,1315.54 1623,1372.11 1625.85,1376.22 
  1625.85,1384.24 1628.71,1368.86 1634.11,1336.06 1639.52,1298.49 1642.37,1276.74 1642.37,1277.86 1645.23,1267.41 1650.63,1258.57 1656.04,1264.09 1658.89,1272.8 
  1658.89,1270.84 1661.75,1279.79 1667.15,1291.92 1672.56,1297.74 1675.41,1298.26 1675.41,1299.06 1678.27,1296.41 1683.68,1291.58 1689.08,1287.01 1691.94,1284.7 
  1691.94,1284.65 1694.79,1284.35 1700.2,1284.76 1705.6,1286.46 1708.46,1287.87 1708.46,1287.73 1711.31,1288.51 1716.72,1289.26 1722.12,1289.06 1724.98,1288.56 
  1724.98,1288.67 1727.83,1288.17 1733.24,1287.55 1738.64,1287.35 1741.5,1287.41 1741.5,1287.37 1744.35,1287.58 1749.76,1287.88 1755.16,1288.07 1758.02,1288.13 
  1758.02,1288.14 1760.87,1288.08 1766.28,1287.97 1771.69,1287.86 1774.54,1287.81 1774.54,1287.81 1777.39,1287.81 1782.8,1287.84 1788.21,1287.89 1791.06,1287.92 
  1791.06,1287.92 1793.91,1287.92 1799.32,1287.92 1804.73,1287.91 1807.58,1287.89 1807.58,1287.89 1810.43,1287.89 1815.84,1287.88 1821.25,1287.89 1824.1,1287.89 
  1824.1,1287.89 1826.95,1287.9 1832.36,1287.9 1837.77,1287.9 1840.62,1287.9 1840.62,1287.9 1843.47,1287.9 1848.88,1287.89 1854.29,1287.89 1857.14,1287.89 
  1857.14,1287.89 1859.99,1287.89 1865.4,1287.9 1870.81,1287.9 1873.66,1287.9 1873.66,1287.9 1876.51,1287.9 1881.92,1287.9 1887.33,1287.89 1890.18,1287.89 
  1890.18,1287.89 1893.03,1287.9 1898.44,1287.9 1903.85,1287.9 1906.7,1287.9 1906.7,1287.9 1909.55,1287.9 1914.96,1287.9 1920.37,1287.9 1923.22,1287.9 
  1923.22,1287.9 1926.08,1287.9 1931.48,1287.9 1936.89,1287.9 1939.74,1287.9 1939.74,1287.9 1942.6,1287.9 1948,1287.9 1953.41,1287.9 1956.26,1287.9 
  1956.26,1287.9 1959.12,1287.9 1964.52,1287.9 1969.93,1287.9 1972.78,1287.9 1972.78,1287.9 1975.64,1287.9 1981.04,1287.9 1986.45,1287.9 1989.3,1287.9 
  1989.3,1287.9 1992.16,1287.9 1997.56,1287.9 2002.97,1287.9 2005.83,1287.9 2005.83,1287.9 2008.68,1287.9 2014.09,1287.9 2019.49,1287.9 2022.35,1287.9 
  2022.35,1287.9 2025.2,1287.9 2030.61,1287.9 2036.01,1287.9 2038.87,1287.9 2038.87,1287.9 2041.72,1287.9 2047.13,1287.9 2052.53,1287.9 2055.39,1287.9 
  2055.39,1287.9 2058.24,1287.9 2063.65,1287.9 2069.05,1287.9 2071.91,1287.9 2071.91,1287.9 2074.76,1287.9 2080.17,1287.9 2085.58,1287.9 2088.43,1287.9 
  2088.43,1287.9 2091.28,1287.9 2096.69,1287.9 2102.1,1287.9 2104.95,1287.9 2104.95,1287.9 2107.8,1287.9 2113.21,1287.9 2118.62,1287.9 2121.47,1287.9 
  2121.47,1287.9 2124.32,1287.9 2129.73,1287.9 2135.14,1287.9 2137.99,1287.9 2137.99,1287.9 2140.84,1287.9 2146.25,1287.9 2151.66,1287.9 2154.51,1287.9 
  2154.51,1287.9 2157.36,1287.9 2162.77,1287.9 2168.18,1287.9 2171.03,1287.9 2171.03,1287.9 2173.88,1287.9 2179.29,1287.9 2184.7,1287.9 2187.55,1287.9 
  2187.55,1287.9 2190.4,1287.9 2195.81,1287.9 2201.22,1287.9 2204.07,1287.9 2204.07,1287.9 2206.92,1287.9 2212.33,1287.9 2217.74,1287.9 2220.59,1287.9 
  2223.44,1287.9 2228.85,1287.9 2234.26,1287.9 2237.11,1287.9 2239.96,1287.9 2245.37,1287.9 2250.78,1287.9 2253.63,1287.9 
  2256.49,1287.9 2261.89,1287.9 2267.3,1287.9 2270.15,1287.9 2273.01,1287.9 2278.41,1287.9 2283.82,1287.9 2286.67,1287.9 
  2289.53,1287.9 2294.93,1287.9 2300.34,1287.9 2303.19,1287.9 2306.05,1287.9 2311.45,1287.9 2316.86,1287.9 2319.71,1287.9 
  2322.57,1287.9 2327.98,1287.9 2333.38,1287.9 2336.24,1287.9 2339.09,1287.9 2344.5,1287.9 2349.9,1287.9 2352.76,1287.9 
  
  "/>
<path clip-path="url(#clip540)" d="
M1786.57 274.549 L2282.27 274.549 L2282.27 93.1086 L1786.57 93.1086  Z
  " fill="#ffffff" fill-rule="evenodd" fill-opacity="1"/>
<polyline clip-path="url(#clip540)" style="stroke:#000000; stroke-width:4; stroke-opacity:1; fill:none" points="
  1786.57,274.549 2282.27,274.549 2282.27,93.1086 1786.57,93.1086 1786.57,274.549 
  "/>
<polyline clip-path="url(#clip540)" style="stroke:#009af9; stroke-width:4; stroke-opacity:1; fill:none" points="
  1810.07,153.589 1951.04,153.589 
  "/>
<path clip-path="url(#clip540)" d="M 0 0 M1981.94 137.582 L1981.94 144.943 L1990.72 144.943 L1990.72 148.253 L1981.94 148.253 L1981.94 162.327 Q1981.94 165.498 1982.8 166.401 Q1983.68 167.304 1986.34 167.304 L1990.72 167.304 L1990.72 170.869 L1986.34 170.869 Q1981.41 170.869 1979.54 169.04 Q1977.66 167.188 1977.66 162.327 L1977.66 148.253 L1974.54 148.253 L1974.54 144.943 L1977.66 144.943 L1977.66 137.582 L1981.94 137.582 Z" fill="#000000" fill-rule="evenodd" fill-opacity="1" /><path clip-path="url(#clip540)" d="M 0 0 M1995.74 149.341 L2025.42 149.341 L2025.42 153.23 L1995.74 153.23 L1995.74 149.341 M1995.74 158.785 L2025.42 158.785 L2025.42 162.721 L1995.74 162.721 L1995.74 158.785 Z" fill="#000000" fill-rule="evenodd" fill-opacity="1" /><path clip-path="url(#clip540)" d="M 0 0 M2040.49 139.387 Q2036.87 139.387 2035.05 142.952 Q2033.24 146.494 2033.24 153.623 Q2033.24 160.73 2035.05 164.295 Q2036.87 167.836 2040.49 167.836 Q2044.12 167.836 2045.93 164.295 Q2047.75 160.73 2047.75 153.623 Q2047.75 146.494 2045.93 142.952 Q2044.12 139.387 2040.49 139.387 M2040.49 135.684 Q2046.3 135.684 2049.35 140.29 Q2052.43 144.873 2052.43 153.623 Q2052.43 162.35 2049.35 166.957 Q2046.3 171.54 2040.49 171.54 Q2034.68 171.54 2031.6 166.957 Q2028.54 162.35 2028.54 153.623 Q2028.54 144.873 2031.6 140.29 Q2034.68 135.684 2040.49 135.684 Z" fill="#000000" fill-rule="evenodd" fill-opacity="1" /><path clip-path="url(#clip540)" d="M 0 0 M2057.5 164.989 L2062.38 164.989 L2062.38 170.869 L2057.5 170.869 L2057.5 164.989 Z" fill="#000000" fill-rule="evenodd" fill-opacity="1" /><path clip-path="url(#clip540)" d="M 0 0 M2077.45 139.387 Q2073.84 139.387 2072.01 142.952 Q2070.21 146.494 2070.21 153.623 Q2070.21 160.73 2072.01 164.295 Q2073.84 167.836 2077.45 167.836 Q2081.09 167.836 2082.89 164.295 Q2084.72 160.73 2084.72 153.623 Q2084.72 146.494 2082.89 142.952 Q2081.09 139.387 2077.45 139.387 M2077.45 135.684 Q2083.26 135.684 2086.32 140.29 Q2089.4 144.873 2089.4 153.623 Q2089.4 162.35 2086.32 166.957 Q2083.26 171.54 2077.45 171.54 Q2071.64 171.54 2068.56 166.957 Q2065.51 162.35 2065.51 153.623 Q2065.51 144.873 2068.56 140.29 Q2071.64 135.684 2077.45 135.684 Z" fill="#000000" fill-rule="evenodd" fill-opacity="1" /><path clip-path="url(#clip540)" d="M 0 0 M2108.54 134.85 L2118.36 134.85 L2118.36 138.16 L2112.8 138.16 L2112.8 173.808 L2118.36 173.808 L2118.36 177.119 L2108.54 177.119 L2108.54 134.85 Z" fill="#000000" fill-rule="evenodd" fill-opacity="1" /><path clip-path="url(#clip540)" d="M 0 0 M2139.35 145.707 L2139.35 149.734 Q2137.55 148.809 2135.6 148.346 Q2133.66 147.883 2131.57 147.883 Q2128.4 147.883 2126.81 148.855 Q2125.23 149.827 2125.23 151.771 Q2125.23 153.253 2126.37 154.109 Q2127.5 154.943 2130.93 155.707 L2132.38 156.031 Q2136.92 157.003 2138.82 158.785 Q2140.74 160.545 2140.74 163.716 Q2140.74 167.327 2137.87 169.433 Q2135.02 171.54 2130.02 171.54 Q2127.94 171.54 2125.67 171.123 Q2123.43 170.73 2120.93 169.92 L2120.93 165.521 Q2123.29 166.748 2125.58 167.373 Q2127.87 167.975 2130.12 167.975 Q2133.12 167.975 2134.74 166.957 Q2136.37 165.915 2136.37 164.04 Q2136.37 162.304 2135.18 161.378 Q2134.03 160.452 2130.07 159.596 L2128.59 159.248 Q2124.63 158.415 2122.87 156.702 Q2121.11 154.966 2121.11 151.957 Q2121.11 148.299 2123.7 146.309 Q2126.3 144.318 2131.06 144.318 Q2133.43 144.318 2135.51 144.665 Q2137.59 145.012 2139.35 145.707 Z" fill="#000000" fill-rule="evenodd" fill-opacity="1" /><path clip-path="url(#clip540)" d="M 0 0 M2155.16 134.85 L2155.16 177.119 L2145.35 177.119 L2145.35 173.808 L2150.88 173.808 L2150.88 138.16 L2145.35 138.16 L2145.35 134.85 L2155.16 134.85 Z" fill="#000000" fill-rule="evenodd" fill-opacity="1" /><polyline clip-path="url(#clip540)" style="stroke:#e26f46; stroke-width:4; stroke-opacity:1; fill:none" points="
  1810.07,214.069 1951.04,214.069 
  "/>
<path clip-path="url(#clip540)" d="M 0 0 M1981.94 198.062 L1981.94 205.423 L1990.72 205.423 L1990.72 208.733 L1981.94 208.733 L1981.94 222.807 Q1981.94 225.978 1982.8 226.881 Q1983.68 227.784 1986.34 227.784 L1990.72 227.784 L1990.72 231.349 L1986.34 231.349 Q1981.41 231.349 1979.54 229.52 Q1977.66 227.668 1977.66 222.807 L1977.66 208.733 L1974.54 208.733 L1974.54 205.423 L1977.66 205.423 L1977.66 198.062 L1981.94 198.062 Z" fill="#000000" fill-rule="evenodd" fill-opacity="1" /><path clip-path="url(#clip540)" d="M 0 0 M1995.74 209.821 L2025.42 209.821 L2025.42 213.71 L1995.74 213.71 L1995.74 209.821 M1995.74 219.265 L2025.42 219.265 L2025.42 223.201 L1995.74 223.201 L1995.74 219.265 Z" fill="#000000" fill-rule="evenodd" fill-opacity="1" /><path clip-path="url(#clip540)" d="M 0 0 M2043.33 200.863 L2031.53 219.312 L2043.33 219.312 L2043.33 200.863 M2042.11 196.789 L2047.99 196.789 L2047.99 219.312 L2052.92 219.312 L2052.92 223.201 L2047.99 223.201 L2047.99 231.349 L2043.33 231.349 L2043.33 223.201 L2027.73 223.201 L2027.73 218.687 L2042.11 196.789 Z" fill="#000000" fill-rule="evenodd" fill-opacity="1" /><path clip-path="url(#clip540)" d="M 0 0 M2058.03 196.789 L2076.39 196.789 L2076.39 200.724 L2062.31 200.724 L2062.31 209.196 Q2063.33 208.849 2064.35 208.687 Q2065.37 208.502 2066.39 208.502 Q2072.18 208.502 2075.56 211.673 Q2078.93 214.844 2078.93 220.261 Q2078.93 225.839 2075.46 228.941 Q2071.99 232.02 2065.67 232.02 Q2063.5 232.02 2061.23 231.65 Q2058.98 231.279 2056.57 230.538 L2056.57 225.839 Q2058.66 226.974 2060.88 227.529 Q2063.1 228.085 2065.58 228.085 Q2069.58 228.085 2071.92 225.978 Q2074.26 223.872 2074.26 220.261 Q2074.26 216.65 2071.92 214.543 Q2069.58 212.437 2065.58 212.437 Q2063.7 212.437 2061.83 212.853 Q2059.98 213.27 2058.03 214.15 L2058.03 196.789 Z" fill="#000000" fill-rule="evenodd" fill-opacity="1" /><path clip-path="url(#clip540)" d="M 0 0 M2094 199.867 Q2090.39 199.867 2088.56 203.432 Q2086.76 206.974 2086.76 214.103 Q2086.76 221.21 2088.56 224.775 Q2090.39 228.316 2094 228.316 Q2097.64 228.316 2099.44 224.775 Q2101.27 221.21 2101.27 214.103 Q2101.27 206.974 2099.44 203.432 Q2097.64 199.867 2094 199.867 M2094 196.164 Q2099.81 196.164 2102.87 200.77 Q2105.95 205.353 2105.95 214.103 Q2105.95 222.83 2102.87 227.437 Q2099.81 232.02 2094 232.02 Q2088.19 232.02 2085.12 227.437 Q2082.06 222.83 2082.06 214.103 Q2082.06 205.353 2085.12 200.77 Q2088.19 196.164 2094 196.164 Z" fill="#000000" fill-rule="evenodd" fill-opacity="1" /><path clip-path="url(#clip540)" d="M 0 0 M2111.02 225.469 L2115.9 225.469 L2115.9 231.349 L2111.02 231.349 L2111.02 225.469 Z" fill="#000000" fill-rule="evenodd" fill-opacity="1" /><path clip-path="url(#clip540)" d="M 0 0 M2133.82 200.863 L2122.01 219.312 L2133.82 219.312 L2133.82 200.863 M2132.59 196.789 L2138.47 196.789 L2138.47 219.312 L2143.4 219.312 L2143.4 223.201 L2138.47 223.201 L2138.47 231.349 L2133.82 231.349 L2133.82 223.201 L2118.22 223.201 L2118.22 218.687 L2132.59 196.789 Z" fill="#000000" fill-rule="evenodd" fill-opacity="1" /><path clip-path="url(#clip540)" d="M 0 0 M2147.29 196.789 L2169.51 196.789 L2169.51 198.779 L2156.97 231.349 L2152.08 231.349 L2163.89 200.724 L2147.29 200.724 L2147.29 196.789 Z" fill="#000000" fill-rule="evenodd" fill-opacity="1" /><path clip-path="url(#clip540)" d="M 0 0 M2188.66 195.33 L2198.47 195.33 L2198.47 198.64 L2192.92 198.64 L2192.92 234.288 L2198.47 234.288 L2198.47 237.599 L2188.66 237.599 L2188.66 195.33 Z" fill="#000000" fill-rule="evenodd" fill-opacity="1" /><path clip-path="url(#clip540)" d="M 0 0 M2219.47 206.187 L2219.47 210.214 Q2217.66 209.289 2215.72 208.826 Q2213.77 208.363 2211.69 208.363 Q2208.52 208.363 2206.92 209.335 Q2205.35 210.307 2205.35 212.251 Q2205.35 213.733 2206.48 214.589 Q2207.61 215.423 2211.04 216.187 L2212.5 216.511 Q2217.04 217.483 2218.93 219.265 Q2220.86 221.025 2220.86 224.196 Q2220.86 227.807 2217.99 229.913 Q2215.14 232.02 2210.14 232.02 Q2208.05 232.02 2205.79 231.603 Q2203.54 231.21 2201.04 230.4 L2201.04 226.001 Q2203.4 227.228 2205.69 227.853 Q2207.99 228.455 2210.23 228.455 Q2213.24 228.455 2214.86 227.437 Q2216.48 226.395 2216.48 224.52 Q2216.48 222.784 2215.3 221.858 Q2214.14 220.932 2210.18 220.076 L2208.7 219.728 Q2204.74 218.895 2202.99 217.182 Q2201.23 215.446 2201.23 212.437 Q2201.23 208.779 2203.82 206.789 Q2206.41 204.798 2211.18 204.798 Q2213.54 204.798 2215.62 205.145 Q2217.71 205.492 2219.47 206.187 Z" fill="#000000" fill-rule="evenodd" fill-opacity="1" /><path clip-path="url(#clip540)" d="M 0 0 M2235.28 195.33 L2235.28 237.599 L2225.46 237.599 L2225.46 234.288 L2230.99 234.288 L2230.99 198.64 L2225.46 198.64 L2225.46 195.33 L2235.28 195.33 Z" fill="#000000" fill-rule="evenodd" fill-opacity="1" /></svg>
