<?xml version="1.0" encoding="utf-8"?>
<svg xmlns="http://www.w3.org/2000/svg" xmlns:xlink="http://www.w3.org/1999/xlink" width="600" height="400" viewBox="0 0 2400 1600">
<defs>
  <clipPath id="clip010">
    <rect x="0" y="0" width="2400" height="1600"/>
  </clipPath>
</defs>
<path clip-path="url(#clip010)" d="
M0 1600 L2400 1600 L2400 0 L0 0  Z
  " fill="#ffffff" fill-rule="evenodd" fill-opacity="1"/>
<defs>
  <clipPath id="clip011">
    <rect x="480" y="0" width="1681" height="1600"/>
  </clipPath>
</defs>
<path clip-path="url(#clip010)" d="
M199.218 1423.18 L1152.76 1423.18 L1152.76 123.472 L199.218 123.472  Z
  " fill="#ffffff" fill-rule="evenodd" fill-opacity="1"/>
<defs>
  <clipPath id="clip012">
    <rect x="199" y="123" width="955" height="1301"/>
  </clipPath>
</defs>
<polyline clip-path="url(#clip012)" style="stroke:#000000; stroke-width:2; stroke-opacity:0.1; fill:none" points="
  226.205,1423.18 226.205,123.472 
  "/>
<polyline clip-path="url(#clip012)" style="stroke:#000000; stroke-width:2; stroke-opacity:0.1; fill:none" points="
  451.096,1423.18 451.096,123.472 
  "/>
<polyline clip-path="url(#clip012)" style="stroke:#000000; stroke-width:2; stroke-opacity:0.1; fill:none" points="
  675.987,1423.18 675.987,123.472 
  "/>
<polyline clip-path="url(#clip012)" style="stroke:#000000; stroke-width:2; stroke-opacity:0.1; fill:none" points="
  900.878,1423.18 900.878,123.472 
  "/>
<polyline clip-path="url(#clip012)" style="stroke:#000000; stroke-width:2; stroke-opacity:0.1; fill:none" points="
  1125.77,1423.18 1125.77,123.472 
  "/>
<polyline clip-path="url(#clip010)" style="stroke:#000000; stroke-width:4; stroke-opacity:1; fill:none" points="
  199.218,1423.18 1152.76,1423.18 
  "/>
<polyline clip-path="url(#clip010)" style="stroke:#000000; stroke-width:4; stroke-opacity:1; fill:none" points="
  226.205,1423.18 226.205,1407.58 
  "/>
<polyline clip-path="url(#clip010)" style="stroke:#000000; stroke-width:4; stroke-opacity:1; fill:none" points="
  451.096,1423.18 451.096,1407.58 
  "/>
<polyline clip-path="url(#clip010)" style="stroke:#000000; stroke-width:4; stroke-opacity:1; fill:none" points="
  675.987,1423.18 675.987,1407.58 
  "/>
<polyline clip-path="url(#clip010)" style="stroke:#000000; stroke-width:4; stroke-opacity:1; fill:none" points="
  900.878,1423.18 900.878,1407.58 
  "/>
<polyline clip-path="url(#clip010)" style="stroke:#000000; stroke-width:4; stroke-opacity:1; fill:none" points="
  1125.77,1423.18 1125.77,1407.58 
  "/>
<path clip-path="url(#clip010)" d="M 0 0 M161.946 1479.92 L178.266 1479.92 L178.266 1483.85 L156.321 1483.85 L156.321 1479.92 Q158.983 1477.16 163.567 1472.53 Q168.173 1467.88 169.354 1466.54 Q171.599 1464.01 172.479 1462.28 Q173.381 1460.52 173.381 1458.83 Q173.381 1456.07 171.437 1454.34 Q169.516 1452.6 166.414 1452.6 Q164.215 1452.6 161.761 1453.37 Q159.331 1454.13 156.553 1455.68 L156.553 1450.96 Q159.377 1449.82 161.83 1449.25 Q164.284 1448.67 166.321 1448.67 Q171.692 1448.67 174.886 1451.35 Q178.08 1454.04 178.08 1458.53 Q178.08 1460.66 177.27 1462.58 Q176.483 1464.48 174.377 1467.07 Q173.798 1467.74 170.696 1470.96 Q167.594 1474.15 161.946 1479.92 Z" fill="#000000" fill-rule="evenodd" fill-opacity="1" /><path clip-path="url(#clip010)" d="M 0 0 M183.474 1483.13 L183.474 1478.88 Q185.233 1479.71 187.039 1480.15 Q188.844 1480.59 190.58 1480.59 Q195.21 1480.59 197.64 1477.49 Q200.094 1474.36 200.441 1468.02 Q199.099 1470.01 197.039 1471.07 Q194.978 1472.14 192.478 1472.14 Q187.293 1472.14 184.261 1469.01 Q181.252 1465.87 181.252 1460.43 Q181.252 1455.1 184.4 1451.88 Q187.548 1448.67 192.779 1448.67 Q198.775 1448.67 201.923 1453.27 Q205.094 1457.86 205.094 1466.61 Q205.094 1474.78 201.205 1479.66 Q197.34 1484.52 190.789 1484.52 Q189.029 1484.52 187.224 1484.18 Q185.418 1483.83 183.474 1483.13 M192.779 1468.48 Q195.928 1468.48 197.756 1466.33 Q199.608 1464.18 199.608 1460.43 Q199.608 1456.7 197.756 1454.55 Q195.928 1452.37 192.779 1452.37 Q189.631 1452.37 187.779 1454.55 Q185.951 1456.7 185.951 1460.43 Q185.951 1464.18 187.779 1466.33 Q189.631 1468.48 192.779 1468.48 Z" fill="#000000" fill-rule="evenodd" fill-opacity="1" /><path clip-path="url(#clip010)" d="M 0 0 M220.164 1452.37 Q216.552 1452.37 214.724 1455.94 Q212.918 1459.48 212.918 1466.61 Q212.918 1473.71 214.724 1477.28 Q216.552 1480.82 220.164 1480.82 Q223.798 1480.82 225.603 1477.28 Q227.432 1473.71 227.432 1466.61 Q227.432 1459.48 225.603 1455.94 Q223.798 1452.37 220.164 1452.37 M220.164 1448.67 Q225.974 1448.67 229.029 1453.27 Q232.108 1457.86 232.108 1466.61 Q232.108 1475.33 229.029 1479.94 Q225.974 1484.52 220.164 1484.52 Q214.353 1484.52 211.275 1479.94 Q208.219 1475.33 208.219 1466.61 Q208.219 1457.86 211.275 1453.27 Q214.353 1448.67 220.164 1448.67 Z" fill="#000000" fill-rule="evenodd" fill-opacity="1" /><path clip-path="url(#clip010)" d="M 0 0 M237.177 1477.97 L242.062 1477.97 L242.062 1483.85 L237.177 1483.85 L237.177 1477.97 Z" fill="#000000" fill-rule="evenodd" fill-opacity="1" /><path clip-path="url(#clip010)" d="M 0 0 M257.131 1452.37 Q253.52 1452.37 251.691 1455.94 Q249.886 1459.48 249.886 1466.61 Q249.886 1473.71 251.691 1477.28 Q253.52 1480.82 257.131 1480.82 Q260.765 1480.82 262.571 1477.28 Q264.399 1473.71 264.399 1466.61 Q264.399 1459.48 262.571 1455.94 Q260.765 1452.37 257.131 1452.37 M257.131 1448.67 Q262.941 1448.67 265.997 1453.27 Q269.075 1457.86 269.075 1466.61 Q269.075 1475.33 265.997 1479.94 Q262.941 1484.52 257.131 1484.52 Q251.321 1484.52 248.242 1479.94 Q245.187 1475.33 245.187 1466.61 Q245.187 1457.86 248.242 1453.27 Q251.321 1448.67 257.131 1448.67 Z" fill="#000000" fill-rule="evenodd" fill-opacity="1" /><path clip-path="url(#clip010)" d="M 0 0 M284.145 1452.37 Q280.534 1452.37 278.705 1455.94 Q276.899 1459.48 276.899 1466.61 Q276.899 1473.71 278.705 1477.28 Q280.534 1480.82 284.145 1480.82 Q287.779 1480.82 289.584 1477.28 Q291.413 1473.71 291.413 1466.61 Q291.413 1459.48 289.584 1455.94 Q287.779 1452.37 284.145 1452.37 M284.145 1448.67 Q289.955 1448.67 293.01 1453.27 Q296.089 1457.86 296.089 1466.61 Q296.089 1475.33 293.01 1479.94 Q289.955 1484.52 284.145 1484.52 Q278.334 1484.52 275.256 1479.94 Q272.2 1475.33 272.2 1466.61 Q272.2 1457.86 275.256 1453.27 Q278.334 1448.67 284.145 1448.67 Z" fill="#000000" fill-rule="evenodd" fill-opacity="1" /><path clip-path="url(#clip010)" d="M 0 0 M388.133 1479.92 L404.453 1479.92 L404.453 1483.85 L382.509 1483.85 L382.509 1479.92 Q385.171 1477.16 389.754 1472.53 Q394.36 1467.88 395.541 1466.54 Q397.786 1464.01 398.666 1462.28 Q399.569 1460.52 399.569 1458.83 Q399.569 1456.07 397.624 1454.34 Q395.703 1452.6 392.601 1452.6 Q390.402 1452.6 387.948 1453.37 Q385.518 1454.13 382.74 1455.68 L382.74 1450.96 Q385.564 1449.82 388.018 1449.25 Q390.471 1448.67 392.508 1448.67 Q397.879 1448.67 401.073 1451.35 Q404.268 1454.04 404.268 1458.53 Q404.268 1460.66 403.457 1462.58 Q402.67 1464.48 400.564 1467.07 Q399.985 1467.74 396.883 1470.96 Q393.782 1474.15 388.133 1479.92 Z" fill="#000000" fill-rule="evenodd" fill-opacity="1" /><path clip-path="url(#clip010)" d="M 0 0 M409.661 1483.13 L409.661 1478.88 Q411.42 1479.71 413.226 1480.15 Q415.031 1480.59 416.768 1480.59 Q421.397 1480.59 423.828 1477.49 Q426.281 1474.36 426.629 1468.02 Q425.286 1470.01 423.226 1471.07 Q421.166 1472.14 418.666 1472.14 Q413.481 1472.14 410.448 1469.01 Q407.439 1465.87 407.439 1460.43 Q407.439 1455.1 410.587 1451.88 Q413.735 1448.67 418.967 1448.67 Q424.962 1448.67 428.11 1453.27 Q431.281 1457.86 431.281 1466.61 Q431.281 1474.78 427.393 1479.66 Q423.527 1484.52 416.976 1484.52 Q415.217 1484.52 413.411 1484.18 Q411.606 1483.83 409.661 1483.13 M418.967 1468.48 Q422.115 1468.48 423.943 1466.33 Q425.795 1464.18 425.795 1460.43 Q425.795 1456.7 423.943 1454.55 Q422.115 1452.37 418.967 1452.37 Q415.819 1452.37 413.967 1454.55 Q412.138 1456.7 412.138 1460.43 Q412.138 1464.18 413.967 1466.33 Q415.819 1468.48 418.967 1468.48 Z" fill="#000000" fill-rule="evenodd" fill-opacity="1" /><path clip-path="url(#clip010)" d="M 0 0 M446.351 1452.37 Q442.74 1452.37 440.911 1455.94 Q439.105 1459.48 439.105 1466.61 Q439.105 1473.71 440.911 1477.28 Q442.74 1480.82 446.351 1480.82 Q449.985 1480.82 451.791 1477.28 Q453.619 1473.71 453.619 1466.61 Q453.619 1459.48 451.791 1455.94 Q449.985 1452.37 446.351 1452.37 M446.351 1448.67 Q452.161 1448.67 455.216 1453.27 Q458.295 1457.86 458.295 1466.61 Q458.295 1475.33 455.216 1479.94 Q452.161 1484.52 446.351 1484.52 Q440.541 1484.52 437.462 1479.94 Q434.406 1475.33 434.406 1466.61 Q434.406 1457.86 437.462 1453.27 Q440.541 1448.67 446.351 1448.67 Z" fill="#000000" fill-rule="evenodd" fill-opacity="1" /><path clip-path="url(#clip010)" d="M 0 0 M463.365 1477.97 L468.249 1477.97 L468.249 1483.85 L463.365 1483.85 L463.365 1477.97 Z" fill="#000000" fill-rule="evenodd" fill-opacity="1" /><path clip-path="url(#clip010)" d="M 0 0 M477.346 1479.92 L493.665 1479.92 L493.665 1483.85 L471.721 1483.85 L471.721 1479.92 Q474.383 1477.16 478.966 1472.53 Q483.573 1467.88 484.753 1466.54 Q486.999 1464.01 487.878 1462.28 Q488.781 1460.52 488.781 1458.83 Q488.781 1456.07 486.837 1454.34 Q484.915 1452.6 481.814 1452.6 Q479.614 1452.6 477.161 1453.37 Q474.73 1454.13 471.952 1455.68 L471.952 1450.96 Q474.777 1449.82 477.23 1449.25 Q479.684 1448.67 481.721 1448.67 Q487.091 1448.67 490.286 1451.35 Q493.48 1454.04 493.48 1458.53 Q493.48 1460.66 492.67 1462.58 Q491.883 1464.48 489.776 1467.07 Q489.198 1467.74 486.096 1470.96 Q482.994 1474.15 477.346 1479.92 Z" fill="#000000" fill-rule="evenodd" fill-opacity="1" /><path clip-path="url(#clip010)" d="M 0 0 M498.781 1449.29 L517.137 1449.29 L517.137 1453.23 L503.063 1453.23 L503.063 1461.7 Q504.082 1461.35 505.1 1461.19 Q506.119 1461 507.137 1461 Q512.924 1461 516.304 1464.18 Q519.684 1467.35 519.684 1472.76 Q519.684 1478.34 516.211 1481.44 Q512.739 1484.52 506.42 1484.52 Q504.244 1484.52 501.975 1484.15 Q499.73 1483.78 497.323 1483.04 L497.323 1478.34 Q499.406 1479.48 501.628 1480.03 Q503.85 1480.59 506.327 1480.59 Q510.332 1480.59 512.67 1478.48 Q515.008 1476.38 515.008 1472.76 Q515.008 1469.15 512.67 1467.05 Q510.332 1464.94 506.327 1464.94 Q504.452 1464.94 502.577 1465.36 Q500.725 1465.77 498.781 1466.65 L498.781 1449.29 Z" fill="#000000" fill-rule="evenodd" fill-opacity="1" /><path clip-path="url(#clip010)" d="M 0 0 M612.226 1479.92 L628.545 1479.92 L628.545 1483.85 L606.601 1483.85 L606.601 1479.92 Q609.263 1477.16 613.846 1472.53 Q618.453 1467.88 619.633 1466.54 Q621.879 1464.01 622.758 1462.28 Q623.661 1460.52 623.661 1458.83 Q623.661 1456.07 621.717 1454.34 Q619.795 1452.6 616.693 1452.6 Q614.494 1452.6 612.041 1453.37 Q609.61 1454.13 606.832 1455.68 L606.832 1450.96 Q609.656 1449.82 612.11 1449.25 Q614.564 1448.67 616.601 1448.67 Q621.971 1448.67 625.166 1451.35 Q628.36 1454.04 628.36 1458.53 Q628.36 1460.66 627.55 1462.58 Q626.763 1464.48 624.656 1467.07 Q624.078 1467.74 620.976 1470.96 Q617.874 1474.15 612.226 1479.92 Z" fill="#000000" fill-rule="evenodd" fill-opacity="1" /><path clip-path="url(#clip010)" d="M 0 0 M633.753 1483.13 L633.753 1478.88 Q635.513 1479.71 637.318 1480.15 Q639.124 1480.59 640.86 1480.59 Q645.49 1480.59 647.92 1477.49 Q650.374 1474.36 650.721 1468.02 Q649.378 1470.01 647.318 1471.07 Q645.258 1472.14 642.758 1472.14 Q637.573 1472.14 634.541 1469.01 Q631.531 1465.87 631.531 1460.43 Q631.531 1455.1 634.679 1451.88 Q637.828 1448.67 643.059 1448.67 Q649.054 1448.67 652.202 1453.27 Q655.374 1457.86 655.374 1466.61 Q655.374 1474.78 651.485 1479.66 Q647.619 1484.52 641.068 1484.52 Q639.309 1484.52 637.503 1484.18 Q635.698 1483.83 633.753 1483.13 M643.059 1468.48 Q646.207 1468.48 648.036 1466.33 Q649.888 1464.18 649.888 1460.43 Q649.888 1456.7 648.036 1454.55 Q646.207 1452.37 643.059 1452.37 Q639.911 1452.37 638.059 1454.55 Q636.23 1456.7 636.23 1460.43 Q636.23 1464.18 638.059 1466.33 Q639.911 1468.48 643.059 1468.48 Z" fill="#000000" fill-rule="evenodd" fill-opacity="1" /><path clip-path="url(#clip010)" d="M 0 0 M670.443 1452.37 Q666.832 1452.37 665.003 1455.94 Q663.198 1459.48 663.198 1466.61 Q663.198 1473.71 665.003 1477.28 Q666.832 1480.82 670.443 1480.82 Q674.077 1480.82 675.883 1477.28 Q677.712 1473.71 677.712 1466.61 Q677.712 1459.48 675.883 1455.94 Q674.077 1452.37 670.443 1452.37 M670.443 1448.67 Q676.253 1448.67 679.309 1453.27 Q682.387 1457.86 682.387 1466.61 Q682.387 1475.33 679.309 1479.94 Q676.253 1484.52 670.443 1484.52 Q664.633 1484.52 661.554 1479.94 Q658.499 1475.33 658.499 1466.61 Q658.499 1457.86 661.554 1453.27 Q664.633 1448.67 670.443 1448.67 Z" fill="#000000" fill-rule="evenodd" fill-opacity="1" /><path clip-path="url(#clip010)" d="M 0 0 M687.457 1477.97 L692.341 1477.97 L692.341 1483.85 L687.457 1483.85 L687.457 1477.97 Z" fill="#000000" fill-rule="evenodd" fill-opacity="1" /><path clip-path="url(#clip010)" d="M 0 0 M697.457 1449.29 L715.813 1449.29 L715.813 1453.23 L701.739 1453.23 L701.739 1461.7 Q702.758 1461.35 703.776 1461.19 Q704.795 1461 705.813 1461 Q711.6 1461 714.98 1464.18 Q718.36 1467.35 718.36 1472.76 Q718.36 1478.34 714.887 1481.44 Q711.415 1484.52 705.096 1484.52 Q702.92 1484.52 700.651 1484.15 Q698.406 1483.78 695.999 1483.04 L695.999 1478.34 Q698.082 1479.48 700.304 1480.03 Q702.526 1480.59 705.003 1480.59 Q709.008 1480.59 711.346 1478.48 Q713.684 1476.38 713.684 1472.76 Q713.684 1469.15 711.346 1467.05 Q709.008 1464.94 705.003 1464.94 Q703.128 1464.94 701.253 1465.36 Q699.401 1465.77 697.457 1466.65 L697.457 1449.29 Z" fill="#000000" fill-rule="evenodd" fill-opacity="1" /><path clip-path="url(#clip010)" d="M 0 0 M733.429 1452.37 Q729.818 1452.37 727.989 1455.94 Q726.184 1459.48 726.184 1466.61 Q726.184 1473.71 727.989 1477.28 Q729.818 1480.82 733.429 1480.82 Q737.063 1480.82 738.869 1477.28 Q740.697 1473.71 740.697 1466.61 Q740.697 1459.48 738.869 1455.94 Q737.063 1452.37 733.429 1452.37 M733.429 1448.67 Q739.239 1448.67 742.295 1453.27 Q745.373 1457.86 745.373 1466.61 Q745.373 1475.33 742.295 1479.94 Q739.239 1484.52 733.429 1484.52 Q727.619 1484.52 724.54 1479.94 Q721.485 1475.33 721.485 1466.61 Q721.485 1457.86 724.54 1453.27 Q727.619 1448.67 733.429 1448.67 Z" fill="#000000" fill-rule="evenodd" fill-opacity="1" /><path clip-path="url(#clip010)" d="M 0 0 M837.568 1479.92 L853.888 1479.92 L853.888 1483.85 L831.943 1483.85 L831.943 1479.92 Q834.605 1477.16 839.189 1472.53 Q843.795 1467.88 844.976 1466.54 Q847.221 1464.01 848.101 1462.28 Q849.003 1460.52 849.003 1458.83 Q849.003 1456.07 847.059 1454.34 Q845.138 1452.6 842.036 1452.6 Q839.837 1452.6 837.383 1453.37 Q834.952 1454.13 832.175 1455.68 L832.175 1450.96 Q834.999 1449.82 837.452 1449.25 Q839.906 1448.67 841.943 1448.67 Q847.314 1448.67 850.508 1451.35 Q853.702 1454.04 853.702 1458.53 Q853.702 1460.66 852.892 1462.58 Q852.105 1464.48 849.999 1467.07 Q849.42 1467.74 846.318 1470.96 Q843.216 1474.15 837.568 1479.92 Z" fill="#000000" fill-rule="evenodd" fill-opacity="1" /><path clip-path="url(#clip010)" d="M 0 0 M859.096 1483.13 L859.096 1478.88 Q860.855 1479.71 862.661 1480.15 Q864.466 1480.59 866.202 1480.59 Q870.832 1480.59 873.262 1477.49 Q875.716 1474.36 876.063 1468.02 Q874.721 1470.01 872.661 1471.07 Q870.6 1472.14 868.1 1472.14 Q862.915 1472.14 859.883 1469.01 Q856.874 1465.87 856.874 1460.43 Q856.874 1455.1 860.022 1451.88 Q863.17 1448.67 868.401 1448.67 Q874.397 1448.67 877.545 1453.27 Q880.716 1457.86 880.716 1466.61 Q880.716 1474.78 876.827 1479.66 Q872.962 1484.52 866.411 1484.52 Q864.651 1484.52 862.846 1484.18 Q861.04 1483.83 859.096 1483.13 M868.401 1468.48 Q871.549 1468.48 873.378 1466.33 Q875.23 1464.18 875.23 1460.43 Q875.23 1456.7 873.378 1454.55 Q871.549 1452.37 868.401 1452.37 Q865.253 1452.37 863.401 1454.55 Q861.573 1456.7 861.573 1460.43 Q861.573 1464.18 863.401 1466.33 Q865.253 1468.48 868.401 1468.48 Z" fill="#000000" fill-rule="evenodd" fill-opacity="1" /><path clip-path="url(#clip010)" d="M 0 0 M895.785 1452.37 Q892.174 1452.37 890.346 1455.94 Q888.54 1459.48 888.54 1466.61 Q888.54 1473.71 890.346 1477.28 Q892.174 1480.82 895.785 1480.82 Q899.42 1480.82 901.225 1477.28 Q903.054 1473.71 903.054 1466.61 Q903.054 1459.48 901.225 1455.94 Q899.42 1452.37 895.785 1452.37 M895.785 1448.67 Q901.596 1448.67 904.651 1453.27 Q907.73 1457.86 907.73 1466.61 Q907.73 1475.33 904.651 1479.94 Q901.596 1484.52 895.785 1484.52 Q889.975 1484.52 886.897 1479.94 Q883.841 1475.33 883.841 1466.61 Q883.841 1457.86 886.897 1453.27 Q889.975 1448.67 895.785 1448.67 Z" fill="#000000" fill-rule="evenodd" fill-opacity="1" /><path clip-path="url(#clip010)" d="M 0 0 M912.799 1477.97 L917.683 1477.97 L917.683 1483.85 L912.799 1483.85 L912.799 1477.97 Z" fill="#000000" fill-rule="evenodd" fill-opacity="1" /><path clip-path="url(#clip010)" d="M 0 0 M921.572 1449.29 L943.794 1449.29 L943.794 1451.28 L931.248 1483.85 L926.364 1483.85 L938.169 1453.23 L921.572 1453.23 L921.572 1449.29 Z" fill="#000000" fill-rule="evenodd" fill-opacity="1" /><path clip-path="url(#clip010)" d="M 0 0 M948.91 1449.29 L967.267 1449.29 L967.267 1453.23 L953.193 1453.23 L953.193 1461.7 Q954.211 1461.35 955.23 1461.19 Q956.248 1461 957.267 1461 Q963.054 1461 966.433 1464.18 Q969.813 1467.35 969.813 1472.76 Q969.813 1478.34 966.341 1481.44 Q962.868 1484.52 956.549 1484.52 Q954.373 1484.52 952.105 1484.15 Q949.859 1483.78 947.452 1483.04 L947.452 1478.34 Q949.535 1479.48 951.757 1480.03 Q953.98 1480.59 956.456 1480.59 Q960.461 1480.59 962.799 1478.48 Q965.137 1476.38 965.137 1472.76 Q965.137 1469.15 962.799 1467.05 Q960.461 1464.94 956.456 1464.94 Q954.581 1464.94 952.706 1465.36 Q950.855 1465.77 948.91 1466.65 L948.91 1449.29 Z" fill="#000000" fill-rule="evenodd" fill-opacity="1" /><path clip-path="url(#clip010)" d="M 0 0 M1062.12 1479.92 L1078.44 1479.92 L1078.44 1483.85 L1056.5 1483.85 L1056.5 1479.92 Q1059.16 1477.16 1063.74 1472.53 Q1068.35 1467.88 1069.53 1466.54 Q1071.78 1464.01 1072.66 1462.28 Q1073.56 1460.52 1073.56 1458.83 Q1073.56 1456.07 1071.61 1454.34 Q1069.69 1452.6 1066.59 1452.6 Q1064.39 1452.6 1061.94 1453.37 Q1059.51 1454.13 1056.73 1455.68 L1056.73 1450.96 Q1059.55 1449.82 1062.01 1449.25 Q1064.46 1448.67 1066.5 1448.67 Q1071.87 1448.67 1075.06 1451.35 Q1078.26 1454.04 1078.26 1458.53 Q1078.26 1460.66 1077.45 1462.58 Q1076.66 1464.48 1074.55 1467.07 Q1073.98 1467.74 1070.87 1470.96 Q1067.77 1474.15 1062.12 1479.92 Z" fill="#000000" fill-rule="evenodd" fill-opacity="1" /><path clip-path="url(#clip010)" d="M 0 0 M1083.65 1483.13 L1083.65 1478.88 Q1085.41 1479.71 1087.22 1480.15 Q1089.02 1480.59 1090.76 1480.59 Q1095.39 1480.59 1097.82 1477.49 Q1100.27 1474.36 1100.62 1468.02 Q1099.28 1470.01 1097.22 1471.07 Q1095.16 1472.14 1092.66 1472.14 Q1087.47 1472.14 1084.44 1469.01 Q1081.43 1465.87 1081.43 1460.43 Q1081.43 1455.1 1084.58 1451.88 Q1087.73 1448.67 1092.96 1448.67 Q1098.95 1448.67 1102.1 1453.27 Q1105.27 1457.86 1105.27 1466.61 Q1105.27 1474.78 1101.38 1479.66 Q1097.52 1484.52 1090.97 1484.52 Q1089.21 1484.52 1087.4 1484.18 Q1085.6 1483.83 1083.65 1483.13 M1092.96 1468.48 Q1096.1 1468.48 1097.93 1466.33 Q1099.79 1464.18 1099.79 1460.43 Q1099.79 1456.7 1097.93 1454.55 Q1096.1 1452.37 1092.96 1452.37 Q1089.81 1452.37 1087.96 1454.55 Q1086.13 1456.7 1086.13 1460.43 Q1086.13 1464.18 1087.96 1466.33 Q1089.81 1468.48 1092.96 1468.48 Z" fill="#000000" fill-rule="evenodd" fill-opacity="1" /><path clip-path="url(#clip010)" d="M 0 0 M1111.15 1479.92 L1118.79 1479.92 L1118.79 1453.55 L1110.48 1455.22 L1110.48 1450.96 L1118.74 1449.29 L1123.42 1449.29 L1123.42 1479.92 L1131.06 1479.92 L1131.06 1483.85 L1111.15 1483.85 L1111.15 1479.92 Z" fill="#000000" fill-rule="evenodd" fill-opacity="1" /><path clip-path="url(#clip010)" d="M 0 0 M1136.13 1477.97 L1141.01 1477.97 L1141.01 1483.85 L1136.13 1483.85 L1136.13 1477.97 Z" fill="#000000" fill-rule="evenodd" fill-opacity="1" /><path clip-path="url(#clip010)" d="M 0 0 M1156.08 1452.37 Q1152.47 1452.37 1150.64 1455.94 Q1148.84 1459.48 1148.84 1466.61 Q1148.84 1473.71 1150.64 1477.28 Q1152.47 1480.82 1156.08 1480.82 Q1159.72 1480.82 1161.52 1477.28 Q1163.35 1473.71 1163.35 1466.61 Q1163.35 1459.48 1161.52 1455.94 Q1159.72 1452.37 1156.08 1452.37 M1156.08 1448.67 Q1161.89 1448.67 1164.95 1453.27 Q1168.03 1457.86 1168.03 1466.61 Q1168.03 1475.33 1164.95 1479.94 Q1161.89 1484.52 1156.08 1484.52 Q1150.27 1484.52 1147.19 1479.94 Q1144.14 1475.33 1144.14 1466.61 Q1144.14 1457.86 1147.19 1453.27 Q1150.27 1448.67 1156.08 1448.67 Z" fill="#000000" fill-rule="evenodd" fill-opacity="1" /><path clip-path="url(#clip010)" d="M 0 0 M1183.1 1452.37 Q1179.48 1452.37 1177.66 1455.94 Q1175.85 1459.48 1175.85 1466.61 Q1175.85 1473.71 1177.66 1477.28 Q1179.48 1480.82 1183.1 1480.82 Q1186.73 1480.82 1188.53 1477.28 Q1190.36 1473.71 1190.36 1466.61 Q1190.36 1459.48 1188.53 1455.94 Q1186.73 1452.37 1183.1 1452.37 M1183.1 1448.67 Q1188.91 1448.67 1191.96 1453.27 Q1195.04 1457.86 1195.04 1466.61 Q1195.04 1475.33 1191.96 1479.94 Q1188.91 1484.52 1183.1 1484.52 Q1177.28 1484.52 1174.21 1479.94 Q1171.15 1475.33 1171.15 1466.61 Q1171.15 1457.86 1174.21 1453.27 Q1177.28 1448.67 1183.1 1448.67 Z" fill="#000000" fill-rule="evenodd" fill-opacity="1" /><path clip-path="url(#clip010)" d="M 0 0 M433.915 1508.52 L474.115 1508.52 L474.115 1513.93 L457.245 1513.93 L457.245 1556.04 L450.784 1556.04 L450.784 1513.93 L433.915 1513.93 L433.915 1508.52 Z" fill="#000000" fill-rule="evenodd" fill-opacity="1" /><path clip-path="url(#clip010)" d="M 0 0 M499.673 1536.76 L499.673 1539.62 L472.746 1539.62 Q473.128 1545.67 476.374 1548.85 Q479.653 1552 485.477 1552 Q488.851 1552 492.002 1551.17 Q495.185 1550.35 498.304 1548.69 L498.304 1554.23 Q495.153 1555.57 491.843 1556.27 Q488.533 1556.97 485.127 1556.97 Q476.597 1556.97 471.6 1552 Q466.635 1547.04 466.635 1538.57 Q466.635 1529.82 471.346 1524.69 Q476.088 1519.54 484.109 1519.54 Q491.302 1519.54 495.472 1524.18 Q499.673 1528.8 499.673 1536.76 M493.816 1535.04 Q493.753 1530.23 491.111 1527.37 Q488.501 1524.5 484.172 1524.5 Q479.271 1524.5 476.311 1527.27 Q473.383 1530.04 472.937 1535.07 L493.816 1535.04 Z" fill="#000000" fill-rule="evenodd" fill-opacity="1" /><path clip-path="url(#clip010)" d="M 0 0 M533.57 1527.24 Q535.766 1523.29 538.822 1521.41 Q541.878 1519.54 546.015 1519.54 Q551.585 1519.54 554.609 1523.45 Q557.633 1527.33 557.633 1534.53 L557.633 1556.04 L551.744 1556.04 L551.744 1534.72 Q551.744 1529.59 549.93 1527.11 Q548.116 1524.63 544.392 1524.63 Q539.841 1524.63 537.199 1527.65 Q534.557 1530.68 534.557 1535.9 L534.557 1556.04 L528.669 1556.04 L528.669 1534.72 Q528.669 1529.56 526.854 1527.11 Q525.04 1524.63 521.253 1524.63 Q516.765 1524.63 514.123 1527.68 Q511.481 1530.71 511.481 1535.9 L511.481 1556.04 L505.593 1556.04 L505.593 1520.4 L511.481 1520.4 L511.481 1525.93 Q513.486 1522.66 516.287 1521.1 Q519.088 1519.54 522.94 1519.54 Q526.823 1519.54 529.528 1521.51 Q532.265 1523.48 533.57 1527.24 Z" fill="#000000" fill-rule="evenodd" fill-opacity="1" /><path clip-path="url(#clip010)" d="M 0 0 M569.441 1550.7 L569.441 1569.6 L563.553 1569.6 L563.553 1520.4 L569.441 1520.4 L569.441 1525.81 Q571.287 1522.62 574.088 1521.1 Q576.921 1519.54 580.836 1519.54 Q587.329 1519.54 591.371 1524.69 Q595.445 1529.85 595.445 1538.25 Q595.445 1546.65 591.371 1551.81 Q587.329 1556.97 580.836 1556.97 Q576.921 1556.97 574.088 1555.44 Q571.287 1553.88 569.441 1550.7 M589.366 1538.25 Q589.366 1531.79 586.692 1528.13 Q584.05 1524.44 579.403 1524.44 Q574.756 1524.44 572.083 1528.13 Q569.441 1531.79 569.441 1538.25 Q569.441 1544.71 572.083 1548.4 Q574.756 1552.07 579.403 1552.07 Q584.05 1552.07 586.692 1548.4 Q589.366 1544.71 589.366 1538.25 Z" fill="#000000" fill-rule="evenodd" fill-opacity="1" /><path clip-path="url(#clip010)" d="M 0 0 M632.08 1536.76 L632.08 1539.62 L605.153 1539.62 Q605.535 1545.67 608.781 1548.85 Q612.059 1552 617.884 1552 Q621.258 1552 624.409 1551.17 Q627.592 1550.35 630.711 1548.69 L630.711 1554.23 Q627.56 1555.57 624.25 1556.27 Q620.94 1556.97 617.534 1556.97 Q609.004 1556.97 604.007 1552 Q599.042 1547.04 599.042 1538.57 Q599.042 1529.82 603.752 1524.69 Q608.495 1519.54 616.515 1519.54 Q623.709 1519.54 627.878 1524.18 Q632.08 1528.8 632.08 1536.76 M626.223 1535.04 Q626.159 1530.23 623.518 1527.37 Q620.908 1524.5 616.579 1524.5 Q611.678 1524.5 608.717 1527.27 Q605.789 1530.04 605.344 1535.07 L626.223 1535.04 Z" fill="#000000" fill-rule="evenodd" fill-opacity="1" /><path clip-path="url(#clip010)" d="M 0 0 M658.879 1525.87 Q657.893 1525.3 656.715 1525.04 Q655.569 1524.76 654.169 1524.76 Q649.203 1524.76 646.53 1528 Q643.888 1531.22 643.888 1537.27 L643.888 1556.04 L638 1556.04 L638 1520.4 L643.888 1520.4 L643.888 1525.93 Q645.734 1522.69 648.694 1521.13 Q651.654 1519.54 655.887 1519.54 Q656.492 1519.54 657.224 1519.63 Q657.956 1519.7 658.847 1519.85 L658.879 1525.87 Z" fill="#000000" fill-rule="evenodd" fill-opacity="1" /><path clip-path="url(#clip010)" d="M 0 0 M681.223 1538.12 Q674.125 1538.12 671.388 1539.75 Q668.651 1541.37 668.651 1545.29 Q668.651 1548.4 670.688 1550.25 Q672.756 1552.07 676.289 1552.07 Q681.159 1552.07 684.087 1548.63 Q687.047 1545.16 687.047 1539.43 L687.047 1538.12 L681.223 1538.12 M692.904 1535.71 L692.904 1556.04 L687.047 1556.04 L687.047 1550.63 Q685.042 1553.88 682.05 1555.44 Q679.059 1556.97 674.73 1556.97 Q669.255 1556.97 666.009 1553.91 Q662.794 1550.82 662.794 1545.67 Q662.794 1539.65 666.805 1536.6 Q670.847 1533.54 678.836 1533.54 L687.047 1533.54 L687.047 1532.97 Q687.047 1528.93 684.374 1526.73 Q681.732 1524.5 676.926 1524.5 Q673.87 1524.5 670.974 1525.23 Q668.078 1525.97 665.404 1527.43 L665.404 1522.02 Q668.619 1520.78 671.642 1520.17 Q674.666 1519.54 677.531 1519.54 Q685.265 1519.54 689.085 1523.55 Q692.904 1527.56 692.904 1535.71 Z" fill="#000000" fill-rule="evenodd" fill-opacity="1" /><path clip-path="url(#clip010)" d="M 0 0 M704.84 1510.27 L704.84 1520.4 L716.903 1520.4 L716.903 1524.95 L704.84 1524.95 L704.84 1544.3 Q704.84 1548.66 706.017 1549.9 Q707.227 1551.14 710.887 1551.14 L716.903 1551.14 L716.903 1556.04 L710.887 1556.04 Q704.108 1556.04 701.529 1553.53 Q698.951 1550.98 698.951 1544.3 L698.951 1524.95 L694.655 1524.95 L694.655 1520.4 L698.951 1520.4 L698.951 1510.27 L704.84 1510.27 Z" fill="#000000" fill-rule="evenodd" fill-opacity="1" /><path clip-path="url(#clip010)" d="M 0 0 M722.441 1541.98 L722.441 1520.4 L728.297 1520.4 L728.297 1541.75 Q728.297 1546.81 730.271 1549.36 Q732.244 1551.87 736.191 1551.87 Q740.933 1551.87 743.67 1548.85 Q746.44 1545.83 746.44 1540.61 L746.44 1520.4 L752.296 1520.4 L752.296 1556.04 L746.44 1556.04 L746.44 1550.57 Q744.307 1553.82 741.474 1555.41 Q738.673 1556.97 734.949 1556.97 Q728.807 1556.97 725.624 1553.15 Q722.441 1549.33 722.441 1541.98 M737.177 1519.54 L737.177 1519.54 Z" fill="#000000" fill-rule="evenodd" fill-opacity="1" /><path clip-path="url(#clip010)" d="M 0 0 M779.096 1525.87 Q778.109 1525.3 776.931 1525.04 Q775.785 1524.76 774.385 1524.76 Q769.42 1524.76 766.746 1528 Q764.104 1531.22 764.104 1537.27 L764.104 1556.04 L758.216 1556.04 L758.216 1520.4 L764.104 1520.4 L764.104 1525.93 Q765.95 1522.69 768.91 1521.13 Q771.871 1519.54 776.104 1519.54 Q776.708 1519.54 777.441 1519.63 Q778.173 1519.7 779.064 1519.85 L779.096 1525.87 Z" fill="#000000" fill-rule="evenodd" fill-opacity="1" /><path clip-path="url(#clip010)" d="M 0 0 M814.298 1536.76 L814.298 1539.62 L787.371 1539.62 Q787.753 1545.67 790.999 1548.85 Q794.278 1552 800.102 1552 Q803.476 1552 806.627 1551.17 Q809.81 1550.35 812.929 1548.69 L812.929 1554.23 Q809.778 1555.57 806.468 1556.27 Q803.158 1556.97 799.752 1556.97 Q791.222 1556.97 786.225 1552 Q781.26 1547.04 781.26 1538.57 Q781.26 1529.82 785.971 1524.69 Q790.713 1519.54 798.734 1519.54 Q805.927 1519.54 810.097 1524.18 Q814.298 1528.8 814.298 1536.76 M808.442 1535.04 Q808.378 1530.23 805.736 1527.37 Q803.126 1524.5 798.797 1524.5 Q793.896 1524.5 790.936 1527.27 Q788.008 1530.04 787.562 1535.07 L808.442 1535.04 Z" fill="#000000" fill-rule="evenodd" fill-opacity="1" /><path clip-path="url(#clip010)" d="M 0 0 M840.62 1506.52 L854.115 1506.52 L854.115 1511.07 L846.477 1511.07 L846.477 1560.09 L854.115 1560.09 L854.115 1564.64 L840.62 1564.64 L840.62 1506.52 Z" fill="#000000" fill-rule="evenodd" fill-opacity="1" /><path clip-path="url(#clip010)" d="M 0 0 M860.513 1508.52 L866.942 1508.52 L866.942 1528.61 L888.267 1508.52 L896.543 1508.52 L872.958 1530.68 L898.23 1556.04 L889.763 1556.04 L866.942 1533.16 L866.942 1556.04 L860.513 1556.04 L860.513 1508.52 Z" fill="#000000" fill-rule="evenodd" fill-opacity="1" /><path clip-path="url(#clip010)" d="M 0 0 M918.059 1506.52 L918.059 1564.64 L904.564 1564.64 L904.564 1560.09 L912.171 1560.09 L912.171 1511.07 L904.564 1511.07 L904.564 1506.52 L918.059 1506.52 Z" fill="#000000" fill-rule="evenodd" fill-opacity="1" /><polyline clip-path="url(#clip012)" style="stroke:#000000; stroke-width:2; stroke-opacity:0.1; fill:none" points="
  199.218,1386.4 1152.76,1386.4 
  "/>
<polyline clip-path="url(#clip012)" style="stroke:#000000; stroke-width:2; stroke-opacity:0.1; fill:none" points="
  199.218,1141.17 1152.76,1141.17 
  "/>
<polyline clip-path="url(#clip012)" style="stroke:#000000; stroke-width:2; stroke-opacity:0.1; fill:none" points="
  199.218,895.94 1152.76,895.94 
  "/>
<polyline clip-path="url(#clip012)" style="stroke:#000000; stroke-width:2; stroke-opacity:0.1; fill:none" points="
  199.218,650.712 1152.76,650.712 
  "/>
<polyline clip-path="url(#clip012)" style="stroke:#000000; stroke-width:2; stroke-opacity:0.1; fill:none" points="
  199.218,405.484 1152.76,405.484 
  "/>
<polyline clip-path="url(#clip012)" style="stroke:#000000; stroke-width:2; stroke-opacity:0.1; fill:none" points="
  199.218,160.256 1152.76,160.256 
  "/>
<polyline clip-path="url(#clip010)" style="stroke:#000000; stroke-width:4; stroke-opacity:1; fill:none" points="
  199.218,1423.18 199.218,123.472 
  "/>
<polyline clip-path="url(#clip010)" style="stroke:#000000; stroke-width:4; stroke-opacity:1; fill:none" points="
  199.218,1386.4 210.661,1386.4 
  "/>
<polyline clip-path="url(#clip010)" style="stroke:#000000; stroke-width:4; stroke-opacity:1; fill:none" points="
  199.218,1141.17 210.661,1141.17 
  "/>
<polyline clip-path="url(#clip010)" style="stroke:#000000; stroke-width:4; stroke-opacity:1; fill:none" points="
  199.218,895.94 210.661,895.94 
  "/>
<polyline clip-path="url(#clip010)" style="stroke:#000000; stroke-width:4; stroke-opacity:1; fill:none" points="
  199.218,650.712 210.661,650.712 
  "/>
<polyline clip-path="url(#clip010)" style="stroke:#000000; stroke-width:4; stroke-opacity:1; fill:none" points="
  199.218,405.484 210.661,405.484 
  "/>
<polyline clip-path="url(#clip010)" style="stroke:#000000; stroke-width:4; stroke-opacity:1; fill:none" points="
  199.218,160.256 210.661,160.256 
  "/>
<path clip-path="url(#clip010)" d="M 0 0 M151.274 1372.19 Q147.663 1372.19 145.834 1375.76 Q144.029 1379.3 144.029 1386.43 Q144.029 1393.54 145.834 1397.1 Q147.663 1400.64 151.274 1400.64 Q154.908 1400.64 156.714 1397.1 Q158.542 1393.54 158.542 1386.43 Q158.542 1379.3 156.714 1375.76 Q154.908 1372.19 151.274 1372.19 M151.274 1368.49 Q157.084 1368.49 160.14 1373.1 Q163.218 1377.68 163.218 1386.43 Q163.218 1395.16 160.14 1399.76 Q157.084 1404.35 151.274 1404.35 Q145.464 1404.35 142.385 1399.76 Q139.329 1395.16 139.329 1386.43 Q139.329 1377.68 142.385 1373.1 Q145.464 1368.49 151.274 1368.49 Z" fill="#000000" fill-rule="evenodd" fill-opacity="1" /><path clip-path="url(#clip010)" d="M 0 0 M142.316 1123.89 L160.672 1123.89 L160.672 1127.82 L146.598 1127.82 L146.598 1136.3 Q147.616 1135.95 148.635 1135.79 Q149.653 1135.6 150.672 1135.6 Q156.459 1135.6 159.839 1138.77 Q163.218 1141.94 163.218 1147.36 Q163.218 1152.94 159.746 1156.04 Q156.274 1159.12 149.954 1159.12 Q147.778 1159.12 145.51 1158.75 Q143.265 1158.38 140.857 1157.64 L140.857 1152.94 Q142.941 1154.07 145.163 1154.63 Q147.385 1155.18 149.862 1155.18 Q153.866 1155.18 156.204 1153.08 Q158.542 1150.97 158.542 1147.36 Q158.542 1143.75 156.204 1141.64 Q153.866 1139.54 149.862 1139.54 Q147.987 1139.54 146.112 1139.95 Q144.26 1140.37 142.316 1141.25 L142.316 1123.89 Z" fill="#000000" fill-rule="evenodd" fill-opacity="1" /><path clip-path="url(#clip010)" d="M 0 0 M116.297 909.285 L123.936 909.285 L123.936 882.919 L115.626 884.586 L115.626 880.327 L123.89 878.66 L128.566 878.66 L128.566 909.285 L136.204 909.285 L136.204 913.22 L116.297 913.22 L116.297 909.285 Z" fill="#000000" fill-rule="evenodd" fill-opacity="1" /><path clip-path="url(#clip010)" d="M 0 0 M151.274 881.739 Q147.663 881.739 145.834 885.303 Q144.029 888.845 144.029 895.975 Q144.029 903.081 145.834 906.646 Q147.663 910.188 151.274 910.188 Q154.908 910.188 156.714 906.646 Q158.542 903.081 158.542 895.975 Q158.542 888.845 156.714 885.303 Q154.908 881.739 151.274 881.739 M151.274 878.035 Q157.084 878.035 160.14 882.641 Q163.218 887.225 163.218 895.975 Q163.218 904.701 160.14 909.308 Q157.084 913.891 151.274 913.891 Q145.464 913.891 142.385 909.308 Q139.329 904.701 139.329 895.975 Q139.329 887.225 142.385 882.641 Q145.464 878.035 151.274 878.035 Z" fill="#000000" fill-rule="evenodd" fill-opacity="1" /><path clip-path="url(#clip010)" d="M 0 0 M117.293 664.057 L124.931 664.057 L124.931 637.691 L116.621 639.358 L116.621 635.099 L124.885 633.432 L129.561 633.432 L129.561 664.057 L137.2 664.057 L137.2 667.992 L117.293 667.992 L117.293 664.057 Z" fill="#000000" fill-rule="evenodd" fill-opacity="1" /><path clip-path="url(#clip010)" d="M 0 0 M142.316 633.432 L160.672 633.432 L160.672 637.367 L146.598 637.367 L146.598 645.839 Q147.616 645.492 148.635 645.33 Q149.653 645.145 150.672 645.145 Q156.459 645.145 159.839 648.316 Q163.218 651.488 163.218 656.904 Q163.218 662.483 159.746 665.585 Q156.274 668.663 149.954 668.663 Q147.778 668.663 145.51 668.293 Q143.265 667.923 140.857 667.182 L140.857 662.483 Q142.941 663.617 145.163 664.173 Q147.385 664.728 149.862 664.728 Q153.866 664.728 156.204 662.622 Q158.542 660.515 158.542 656.904 Q158.542 653.293 156.204 651.187 Q153.866 649.08 149.862 649.08 Q147.987 649.08 146.112 649.497 Q144.26 649.913 142.316 650.793 L142.316 633.432 Z" fill="#000000" fill-rule="evenodd" fill-opacity="1" /><path clip-path="url(#clip010)" d="M 0 0 M119.885 418.829 L136.204 418.829 L136.204 422.764 L114.26 422.764 L114.26 418.829 Q116.922 416.074 121.505 411.445 Q126.112 406.792 127.292 405.449 Q129.538 402.926 130.417 401.19 Q131.32 399.431 131.32 397.741 Q131.32 394.987 129.376 393.25 Q127.455 391.514 124.353 391.514 Q122.154 391.514 119.7 392.278 Q117.269 393.042 114.492 394.593 L114.492 389.871 Q117.316 388.737 119.769 388.158 Q122.223 387.579 124.26 387.579 Q129.63 387.579 132.825 390.264 Q136.019 392.95 136.019 397.44 Q136.019 399.57 135.209 401.491 Q134.422 403.389 132.316 405.982 Q131.737 406.653 128.635 409.871 Q125.533 413.065 119.885 418.829 Z" fill="#000000" fill-rule="evenodd" fill-opacity="1" /><path clip-path="url(#clip010)" d="M 0 0 M151.274 391.283 Q147.663 391.283 145.834 394.848 Q144.029 398.389 144.029 405.519 Q144.029 412.625 145.834 416.19 Q147.663 419.732 151.274 419.732 Q154.908 419.732 156.714 416.19 Q158.542 412.625 158.542 405.519 Q158.542 398.389 156.714 394.848 Q154.908 391.283 151.274 391.283 M151.274 387.579 Q157.084 387.579 160.14 392.186 Q163.218 396.769 163.218 405.519 Q163.218 414.246 160.14 418.852 Q157.084 423.435 151.274 423.435 Q145.464 423.435 142.385 418.852 Q139.329 414.246 139.329 405.519 Q139.329 396.769 142.385 392.186 Q145.464 387.579 151.274 387.579 Z" fill="#000000" fill-rule="evenodd" fill-opacity="1" /><path clip-path="url(#clip010)" d="M 0 0 M120.88 173.601 L137.2 173.601 L137.2 177.536 L115.256 177.536 L115.256 173.601 Q117.918 170.847 122.501 166.217 Q127.107 161.564 128.288 160.222 Q130.533 157.698 131.413 155.962 Q132.316 154.203 132.316 152.513 Q132.316 149.759 130.371 148.023 Q128.45 146.286 125.348 146.286 Q123.149 146.286 120.695 147.05 Q118.265 147.814 115.487 149.365 L115.487 144.643 Q118.311 143.509 120.765 142.93 Q123.218 142.351 125.255 142.351 Q130.626 142.351 133.82 145.036 Q137.015 147.722 137.015 152.212 Q137.015 154.342 136.204 156.263 Q135.417 158.161 133.311 160.754 Q132.732 161.425 129.63 164.643 Q126.529 167.837 120.88 173.601 Z" fill="#000000" fill-rule="evenodd" fill-opacity="1" /><path clip-path="url(#clip010)" d="M 0 0 M142.316 142.976 L160.672 142.976 L160.672 146.911 L146.598 146.911 L146.598 155.384 Q147.616 155.036 148.635 154.874 Q149.653 154.689 150.672 154.689 Q156.459 154.689 159.839 157.86 Q163.218 161.032 163.218 166.448 Q163.218 172.027 159.746 175.129 Q156.274 178.208 149.954 178.208 Q147.778 178.208 145.51 177.837 Q143.265 177.467 140.857 176.726 L140.857 172.027 Q142.941 173.161 145.163 173.717 Q147.385 174.272 149.862 174.272 Q153.866 174.272 156.204 172.166 Q158.542 170.059 158.542 166.448 Q158.542 162.837 156.204 160.731 Q153.866 158.624 149.862 158.624 Q147.987 158.624 146.112 159.041 Q144.26 159.458 142.316 160.337 L142.316 142.976 Z" fill="#000000" fill-rule="evenodd" fill-opacity="1" /><path clip-path="url(#clip010)" d="M 0 0 M52.3562 864.419 L52.3562 836.601 L57.7034 836.601 L83.3254 858.626 L83.3254 836.601 L88.0042 836.601 L88.0042 865.215 L82.657 865.215 L57.035 843.19 L57.035 864.419 L52.3562 864.419 Z" fill="#000000" fill-rule="evenodd" fill-opacity="1" /><path clip-path="url(#clip010)" d="M 0 0 M38.479 810.279 L38.479 796.784 L43.0304 796.784 L43.0304 804.422 L92.0464 804.422 L92.0464 796.784 L96.5979 796.784 L96.5979 810.279 L38.479 810.279 Z" fill="#000000" fill-rule="evenodd" fill-opacity="1" /><path clip-path="url(#clip010)" d="M 0 0 M38.479 790.864 L38.479 784.975 L67.7294 784.975 L52.3562 767.501 L52.3562 760.022 L69.0344 778.928 L88.0042 759.226 L88.0042 766.865 L70.5939 784.975 L88.0042 784.975 L88.0042 790.864 L38.479 790.864 Z" fill="#000000" fill-rule="evenodd" fill-opacity="1" /><path clip-path="url(#clip010)" d="M 0 0 M59.1993 725.329 Q55.2526 723.132 53.3747 720.077 Q51.4968 717.021 51.4968 712.884 Q51.4968 707.314 55.4117 704.29 Q59.2948 701.266 66.4881 701.266 L88.0042 701.266 L88.0042 707.154 L66.679 707.154 Q61.5546 707.154 59.072 708.969 Q56.5894 710.783 56.5894 714.507 Q56.5894 719.058 59.6131 721.7 Q62.6368 724.342 67.8567 724.342 L88.0042 724.342 L88.0042 730.23 L66.679 730.23 Q61.5228 730.23 59.072 732.044 Q56.5894 733.859 56.5894 737.646 Q56.5894 742.134 59.6449 744.776 Q62.6686 747.418 67.8567 747.418 L88.0042 747.418 L88.0042 753.306 L52.3562 753.306 L52.3562 747.418 L57.8944 747.418 Q54.616 745.412 53.0564 742.611 Q51.4968 739.811 51.4968 735.959 Q51.4968 732.076 53.4702 729.371 Q55.4436 726.634 59.1993 725.329 Z" fill="#000000" fill-rule="evenodd" fill-opacity="1" /><path clip-path="url(#clip010)" d="M 0 0 M38.479 681.437 L96.5979 681.437 L96.5979 694.932 L92.0464 694.932 L92.0464 687.325 L43.0304 687.325 L43.0304 694.932 L38.479 694.932 L38.479 681.437 Z" fill="#000000" fill-rule="evenodd" fill-opacity="1" /><path clip-path="url(#clip010)" d="M 0 0 M485.352 12.096 L493.534 12.096 L493.534 72.576 L485.352 72.576 L485.352 12.096 Z" fill="#000000" fill-rule="evenodd" fill-opacity="1" /><path clip-path="url(#clip010)" d="M 0 0 M530.276 28.5427 L530.276 35.5912 Q527.116 33.9709 523.714 33.1607 Q520.311 32.3505 516.665 32.3505 Q511.115 32.3505 508.32 34.0519 Q505.566 35.7533 505.566 39.156 Q505.566 41.7486 507.55 43.2475 Q509.535 44.7058 515.531 46.0426 L518.083 46.6097 Q526.023 48.3111 529.344 51.4303 Q532.707 54.509 532.707 60.0587 Q532.707 66.3781 527.683 70.0644 Q522.701 73.7508 513.951 73.7508 Q510.305 73.7508 506.335 73.0216 Q502.406 72.3329 498.031 70.9151 L498.031 63.2184 Q502.163 65.3654 506.173 66.4591 Q510.184 67.5124 514.113 67.5124 Q519.379 67.5124 522.215 65.73 Q525.05 63.9071 525.05 60.6258 Q525.05 57.5877 522.984 55.9673 Q520.959 54.3469 514.032 52.8481 L511.439 52.2405 Q504.512 50.7821 501.434 47.7845 Q498.355 44.7463 498.355 39.4801 Q498.355 33.0797 502.892 29.5959 Q507.429 26.1121 515.774 26.1121 Q519.906 26.1121 523.552 26.7198 Q527.197 27.3274 530.276 28.5427 Z" fill="#000000" fill-rule="evenodd" fill-opacity="1" /><path clip-path="url(#clip010)" d="M 0 0 M558.106 32.4315 Q552.11 32.4315 548.627 37.1306 Q545.143 41.7891 545.143 49.9314 Q545.143 58.0738 548.586 62.7728 Q552.07 67.4314 558.106 67.4314 Q564.061 67.4314 567.544 62.7323 Q571.028 58.0333 571.028 49.9314 Q571.028 41.8701 567.544 37.1711 Q564.061 32.4315 558.106 32.4315 M558.106 26.1121 Q567.828 26.1121 573.378 32.4315 Q578.927 38.7509 578.927 49.9314 Q578.927 61.0714 573.378 67.4314 Q567.828 73.7508 558.106 73.7508 Q548.343 73.7508 542.793 67.4314 Q537.284 61.0714 537.284 49.9314 Q537.284 38.7509 542.793 32.4315 Q548.343 26.1121 558.106 26.1121 Z" fill="#000000" fill-rule="evenodd" fill-opacity="1" /><path clip-path="url(#clip010)" d="M 0 0 M594.118 14.324 L594.118 27.2059 L609.471 27.2059 L609.471 32.9987 L594.118 32.9987 L594.118 57.6282 Q594.118 63.1779 595.617 64.7578 Q597.156 66.3376 601.815 66.3376 L609.471 66.3376 L609.471 72.576 L601.815 72.576 Q593.187 72.576 589.905 69.3758 Q586.624 66.1351 586.624 57.6282 L586.624 32.9987 L581.155 32.9987 L581.155 27.2059 L586.624 27.2059 L586.624 14.324 L594.118 14.324 Z" fill="#000000" fill-rule="evenodd" fill-opacity="1" /><path clip-path="url(#clip010)" d="M 0 0 M655.003 45.1919 L655.003 72.576 L647.55 72.576 L647.55 45.4349 Q647.55 38.994 645.038 35.7938 Q642.527 32.5936 637.503 32.5936 Q631.468 32.5936 627.984 36.4419 Q624.5 40.2903 624.5 46.9338 L624.5 72.576 L617.006 72.576 L617.006 9.54393 L624.5 9.54393 L624.5 34.2544 Q627.174 30.163 630.779 28.1376 Q634.425 26.1121 639.164 26.1121 Q646.983 26.1121 650.993 30.9732 Q655.003 35.7938 655.003 45.1919 Z" fill="#000000" fill-rule="evenodd" fill-opacity="1" /><path clip-path="url(#clip010)" d="M 0 0 M701.629 48.0275 L701.629 51.6733 L667.359 51.6733 Q667.845 59.3701 671.977 63.421 Q676.149 67.4314 683.562 67.4314 Q687.856 67.4314 691.867 66.3781 Q695.918 65.3249 699.887 63.2184 L699.887 70.267 Q695.877 71.9684 691.664 72.8596 Q687.451 73.7508 683.117 73.7508 Q672.26 73.7508 665.9 67.4314 Q659.581 61.1119 659.581 50.3365 Q659.581 39.1965 665.576 32.6746 Q671.612 26.1121 681.82 26.1121 Q690.975 26.1121 696.282 32.0264 Q701.629 37.9003 701.629 48.0275 M694.176 45.84 Q694.095 39.7232 690.732 36.0774 Q687.411 32.4315 681.901 32.4315 Q675.663 32.4315 671.896 35.9558 Q668.169 39.4801 667.602 45.8805 L694.176 45.84 Z" fill="#000000" fill-rule="evenodd" fill-opacity="1" /><path clip-path="url(#clip010)" d="M 0 0 M735.738 34.1734 Q734.482 33.4443 732.983 33.1202 Q731.525 32.7556 729.743 32.7556 Q723.423 32.7556 720.02 36.8875 Q716.658 40.9789 716.658 48.6757 L716.658 72.576 L709.164 72.576 L709.164 27.2059 L716.658 27.2059 L716.658 34.2544 Q719.008 30.1225 722.775 28.1376 Q726.542 26.1121 731.93 26.1121 Q732.7 26.1121 733.631 26.2337 Q734.563 26.3147 735.697 26.5172 L735.738 34.1734 Z" fill="#000000" fill-rule="evenodd" fill-opacity="1" /><path clip-path="url(#clip010)" d="M 0 0 M777.422 35.9153 Q780.217 30.8922 784.106 28.5022 Q787.995 26.1121 793.261 26.1121 Q800.35 26.1121 804.198 31.0947 Q808.047 36.0368 808.047 45.1919 L808.047 72.576 L800.552 72.576 L800.552 45.4349 Q800.552 38.913 798.243 35.7533 Q795.934 32.5936 791.195 32.5936 Q785.402 32.5936 782.04 36.4419 Q778.677 40.2903 778.677 46.9338 L778.677 72.576 L771.183 72.576 L771.183 45.4349 Q771.183 38.8725 768.874 35.7533 Q766.565 32.5936 761.745 32.5936 Q756.033 32.5936 752.671 36.4824 Q749.308 40.3308 749.308 46.9338 L749.308 72.576 L741.814 72.576 L741.814 27.2059 L749.308 27.2059 L749.308 34.2544 Q751.861 30.082 755.425 28.0971 Q758.99 26.1121 763.892 26.1121 Q768.834 26.1121 772.277 28.6237 Q775.761 31.1352 777.422 35.9153 Z" fill="#000000" fill-rule="evenodd" fill-opacity="1" /><path clip-path="url(#clip010)" d="M 0 0 M836.484 49.7694 Q827.45 49.7694 823.967 51.8354 Q820.483 53.9013 820.483 58.8839 Q820.483 62.8538 823.075 65.2034 Q825.708 67.5124 830.205 67.5124 Q836.403 67.5124 840.13 63.1374 Q843.897 58.7219 843.897 51.4303 L843.897 49.7694 L836.484 49.7694 M851.351 46.6907 L851.351 72.576 L843.897 72.576 L843.897 65.6895 Q841.345 69.8214 837.537 71.8063 Q833.729 73.7508 828.22 73.7508 Q821.252 73.7508 817.121 69.8619 Q813.029 65.9325 813.029 59.3701 Q813.029 51.7138 818.133 47.825 Q823.278 43.9361 833.446 43.9361 L843.897 43.9361 L843.897 43.2069 Q843.897 38.0623 840.494 35.2672 Q837.132 32.4315 831.015 32.4315 Q827.126 32.4315 823.44 33.3632 Q819.754 34.295 816.351 36.1584 L816.351 29.2718 Q820.442 27.692 824.291 26.9223 Q828.139 26.1121 831.785 26.1121 Q841.629 26.1121 846.49 31.2163 Q851.351 36.3204 851.351 46.6907 Z" fill="#000000" fill-rule="evenodd" fill-opacity="1" /><path clip-path="url(#clip010)" d="M 0 0 M859.169 9.54393 L866.623 9.54393 L866.623 72.576 L859.169 72.576 L859.169 9.54393 Z" fill="#000000" fill-rule="evenodd" fill-opacity="1" /><polyline clip-path="url(#clip012)" style="stroke:#009af9; stroke-width:4; stroke-opacity:1; fill:none" points="
  226.205,1386.4 226.205,1361.37 226.205,1336.35 226.205,1311.33 226.205,1286.3 226.205,1261.28 226.205,1236.26 226.205,1211.23 226.205,1186.21 226.205,1161.19 
  226.205,1136.16 226.205,1111.14 226.205,1086.12 226.205,1061.09 226.205,1036.07 226.205,1011.05 226.205,986.024 226.205,961 226.205,935.977 226.205,910.954 
  226.205,885.931 226.205,860.907 226.205,835.884 226.205,810.861 226.205,785.838 226.205,760.814 226.205,735.791 226.205,710.768 226.205,685.745 226.205,660.721 
  226.205,635.698 226.205,610.675 226.205,585.652 226.205,560.628 226.205,535.605 226.205,510.582 226.205,485.559 226.205,460.535 226.205,435.512 226.205,410.489 
  226.205,385.466 226.205,360.442 226.205,335.419 226.205,310.396 226.205,285.373 226.205,260.349 226.205,235.326 226.205,210.303 226.205,185.28 226.205,160.256 
  
  "/>
<path clip-path="url(#clip010)" d="
M964.004 287.756 L1120.97 287.756 L1120.97 166.796 L964.004 166.796  Z
  " fill="#ffffff" fill-rule="evenodd" fill-opacity="1"/>
<polyline clip-path="url(#clip010)" style="stroke:#000000; stroke-width:4; stroke-opacity:1; fill:none" points="
  964.004,287.756 1120.97,287.756 1120.97,166.796 964.004,166.796 964.004,287.756 
  "/>
<polyline clip-path="url(#clip010)" style="stroke:#009af9; stroke-width:4; stroke-opacity:1; fill:none" points="
  974.599,227.276 1038.17,227.276 
  "/>
<path clip-path="url(#clip010)" d="M 0 0 M1062.61 246.963 Q1060.8 251.593 1059.09 253.005 Q1057.37 254.417 1054.5 254.417 L1051.1 254.417 L1051.1 250.852 L1053.6 250.852 Q1055.36 250.852 1056.33 250.019 Q1057.3 249.185 1058.49 246.083 L1059.25 244.139 L1048.76 218.63 L1053.28 218.63 L1061.38 238.908 L1069.48 218.63 L1073.99 218.63 L1062.61 246.963 Z" fill="#000000" fill-rule="evenodd" fill-opacity="1" /><path clip-path="url(#clip010)" d="M 0 0 M1079.87 240.621 L1087.51 240.621 L1087.51 214.255 L1079.2 215.922 L1079.2 211.662 L1087.47 209.996 L1092.14 209.996 L1092.14 240.621 L1099.78 240.621 L1099.78 244.556 L1079.87 244.556 L1079.87 240.621 Z" fill="#000000" fill-rule="evenodd" fill-opacity="1" /><path clip-path="url(#clip010)" d="
M1399.22 1423.18 L2352.76 1423.18 L2352.76 123.472 L1399.22 123.472  Z
  " fill="#ffffff" fill-rule="evenodd" fill-opacity="1"/>
<defs>
  <clipPath id="clip013">
    <rect x="1399" y="123" width="955" height="1301"/>
  </clipPath>
</defs>
<polyline clip-path="url(#clip013)" style="stroke:#000000; stroke-width:2; stroke-opacity:0.1; fill:none" points="
  1563.75,1423.18 1563.75,123.472 
  "/>
<polyline clip-path="url(#clip013)" style="stroke:#000000; stroke-width:2; stroke-opacity:0.1; fill:none" points="
  1751.15,1423.18 1751.15,123.472 
  "/>
<polyline clip-path="url(#clip013)" style="stroke:#000000; stroke-width:2; stroke-opacity:0.1; fill:none" points="
  1938.55,1423.18 1938.55,123.472 
  "/>
<polyline clip-path="url(#clip013)" style="stroke:#000000; stroke-width:2; stroke-opacity:0.1; fill:none" points="
  2125.95,1423.18 2125.95,123.472 
  "/>
<polyline clip-path="url(#clip013)" style="stroke:#000000; stroke-width:2; stroke-opacity:0.1; fill:none" points="
  2313.35,1423.18 2313.35,123.472 
  "/>
<polyline clip-path="url(#clip010)" style="stroke:#000000; stroke-width:4; stroke-opacity:1; fill:none" points="
  1399.22,1423.18 2352.76,1423.18 
  "/>
<polyline clip-path="url(#clip010)" style="stroke:#000000; stroke-width:4; stroke-opacity:1; fill:none" points="
  1563.75,1423.18 1563.75,1407.58 
  "/>
<polyline clip-path="url(#clip010)" style="stroke:#000000; stroke-width:4; stroke-opacity:1; fill:none" points="
  1751.15,1423.18 1751.15,1407.58 
  "/>
<polyline clip-path="url(#clip010)" style="stroke:#000000; stroke-width:4; stroke-opacity:1; fill:none" points="
  1938.55,1423.18 1938.55,1407.58 
  "/>
<polyline clip-path="url(#clip010)" style="stroke:#000000; stroke-width:4; stroke-opacity:1; fill:none" points="
  2125.95,1423.18 2125.95,1407.58 
  "/>
<polyline clip-path="url(#clip010)" style="stroke:#000000; stroke-width:4; stroke-opacity:1; fill:none" points="
  2313.35,1423.18 2313.35,1407.58 
  "/>
<path clip-path="url(#clip010)" d="M 0 0 M1544.89 1479.92 L1561.21 1479.92 L1561.21 1483.85 L1539.27 1483.85 L1539.27 1479.92 Q1541.93 1477.16 1546.51 1472.53 Q1551.12 1467.88 1552.3 1466.54 Q1554.55 1464.01 1555.42 1462.28 Q1556.33 1460.52 1556.33 1458.83 Q1556.33 1456.07 1554.38 1454.34 Q1552.46 1452.6 1549.36 1452.6 Q1547.16 1452.6 1544.71 1453.37 Q1542.28 1454.13 1539.5 1455.68 L1539.5 1450.96 Q1542.32 1449.82 1544.78 1449.25 Q1547.23 1448.67 1549.27 1448.67 Q1554.64 1448.67 1557.83 1451.35 Q1561.03 1454.04 1561.03 1458.53 Q1561.03 1460.66 1560.22 1462.58 Q1559.43 1464.48 1557.32 1467.07 Q1556.74 1467.74 1553.64 1470.96 Q1550.54 1474.15 1544.89 1479.92 Z" fill="#000000" fill-rule="evenodd" fill-opacity="1" /><path clip-path="url(#clip010)" d="M 0 0 M1576.28 1452.37 Q1572.67 1452.37 1570.84 1455.94 Q1569.04 1459.48 1569.04 1466.61 Q1569.04 1473.71 1570.84 1477.28 Q1572.67 1480.82 1576.28 1480.82 Q1579.92 1480.82 1581.72 1477.28 Q1583.55 1473.71 1583.55 1466.61 Q1583.55 1459.48 1581.72 1455.94 Q1579.92 1452.37 1576.28 1452.37 M1576.28 1448.67 Q1582.09 1448.67 1585.15 1453.27 Q1588.23 1457.86 1588.23 1466.61 Q1588.23 1475.33 1585.15 1479.94 Q1582.09 1484.52 1576.28 1484.52 Q1570.47 1484.52 1567.39 1479.94 Q1564.34 1475.33 1564.34 1466.61 Q1564.34 1457.86 1567.39 1453.27 Q1570.47 1448.67 1576.28 1448.67 Z" fill="#000000" fill-rule="evenodd" fill-opacity="1" /><path clip-path="url(#clip010)" d="M 0 0 M1740.65 1453.37 L1728.85 1471.81 L1740.65 1471.81 L1740.65 1453.37 M1739.42 1449.29 L1745.3 1449.29 L1745.3 1471.81 L1750.23 1471.81 L1750.23 1475.7 L1745.3 1475.7 L1745.3 1483.85 L1740.65 1483.85 L1740.65 1475.7 L1725.05 1475.7 L1725.05 1471.19 L1739.42 1449.29 Z" fill="#000000" fill-rule="evenodd" fill-opacity="1" /><path clip-path="url(#clip010)" d="M 0 0 M1765.3 1452.37 Q1761.69 1452.37 1759.86 1455.94 Q1758.06 1459.48 1758.06 1466.61 Q1758.06 1473.71 1759.86 1477.28 Q1761.69 1480.82 1765.3 1480.82 Q1768.94 1480.82 1770.74 1477.28 Q1772.57 1473.71 1772.57 1466.61 Q1772.57 1459.48 1770.74 1455.94 Q1768.94 1452.37 1765.3 1452.37 M1765.3 1448.67 Q1771.11 1448.67 1774.17 1453.27 Q1777.25 1457.86 1777.25 1466.61 Q1777.25 1475.33 1774.17 1479.94 Q1771.11 1484.52 1765.3 1484.52 Q1759.49 1484.52 1756.41 1479.94 Q1753.36 1475.33 1753.36 1466.61 Q1753.36 1457.86 1756.41 1453.27 Q1759.49 1448.67 1765.3 1448.67 Z" fill="#000000" fill-rule="evenodd" fill-opacity="1" /><path clip-path="url(#clip010)" d="M 0 0 M1925.45 1464.71 Q1922.3 1464.71 1920.45 1466.86 Q1918.62 1469.01 1918.62 1472.76 Q1918.62 1476.49 1920.45 1478.67 Q1922.3 1480.82 1925.45 1480.82 Q1928.6 1480.82 1930.43 1478.67 Q1932.28 1476.49 1932.28 1472.76 Q1932.28 1469.01 1930.43 1466.86 Q1928.6 1464.71 1925.45 1464.71 M1934.73 1450.06 L1934.73 1454.31 Q1932.97 1453.48 1931.17 1453.04 Q1929.38 1452.6 1927.62 1452.6 Q1922.99 1452.6 1920.54 1455.73 Q1918.11 1458.85 1917.76 1465.17 Q1919.13 1463.16 1921.19 1462.09 Q1923.25 1461 1925.73 1461 Q1930.93 1461 1933.94 1464.18 Q1936.98 1467.32 1936.98 1472.76 Q1936.98 1478.09 1933.83 1481.31 Q1930.68 1484.52 1925.45 1484.52 Q1919.45 1484.52 1916.28 1479.94 Q1913.11 1475.33 1913.11 1466.61 Q1913.11 1458.41 1917 1453.55 Q1920.89 1448.67 1927.44 1448.67 Q1929.2 1448.67 1930.98 1449.01 Q1932.79 1449.36 1934.73 1450.06 Z" fill="#000000" fill-rule="evenodd" fill-opacity="1" /><path clip-path="url(#clip010)" d="M 0 0 M1952.05 1452.37 Q1948.43 1452.37 1946.61 1455.94 Q1944.8 1459.48 1944.8 1466.61 Q1944.8 1473.71 1946.61 1477.28 Q1948.43 1480.82 1952.05 1480.82 Q1955.68 1480.82 1957.49 1477.28 Q1959.31 1473.71 1959.31 1466.61 Q1959.31 1459.48 1957.49 1455.94 Q1955.68 1452.37 1952.05 1452.37 M1952.05 1448.67 Q1957.86 1448.67 1960.91 1453.27 Q1963.99 1457.86 1963.99 1466.61 Q1963.99 1475.33 1960.91 1479.94 Q1957.86 1484.52 1952.05 1484.52 Q1946.24 1484.52 1943.16 1479.94 Q1940.1 1475.33 1940.1 1466.61 Q1940.1 1457.86 1943.16 1453.27 Q1946.24 1448.67 1952.05 1448.67 Z" fill="#000000" fill-rule="evenodd" fill-opacity="1" /><path clip-path="url(#clip010)" d="M 0 0 M2112.44 1467.44 Q2109.11 1467.44 2107.19 1469.22 Q2105.29 1471 2105.29 1474.13 Q2105.29 1477.25 2107.19 1479.04 Q2109.11 1480.82 2112.44 1480.82 Q2115.78 1480.82 2117.7 1479.04 Q2119.62 1477.23 2119.62 1474.13 Q2119.62 1471 2117.7 1469.22 Q2115.8 1467.44 2112.44 1467.44 M2107.77 1465.45 Q2104.76 1464.71 2103.07 1462.65 Q2101.4 1460.59 2101.4 1457.63 Q2101.4 1453.48 2104.34 1451.07 Q2107.31 1448.67 2112.44 1448.67 Q2117.61 1448.67 2120.55 1451.07 Q2123.49 1453.48 2123.49 1457.63 Q2123.49 1460.59 2121.8 1462.65 Q2120.13 1464.71 2117.14 1465.45 Q2120.52 1466.24 2122.4 1468.53 Q2124.3 1470.82 2124.3 1474.13 Q2124.3 1479.15 2121.22 1481.84 Q2118.16 1484.52 2112.44 1484.52 Q2106.73 1484.52 2103.65 1481.84 Q2100.59 1479.15 2100.59 1474.13 Q2100.59 1470.82 2102.49 1468.53 Q2104.39 1466.24 2107.77 1465.45 M2106.06 1458.06 Q2106.06 1460.75 2107.72 1462.25 Q2109.41 1463.76 2112.44 1463.76 Q2115.45 1463.76 2117.14 1462.25 Q2118.86 1460.75 2118.86 1458.06 Q2118.86 1455.38 2117.14 1453.88 Q2115.45 1452.37 2112.44 1452.37 Q2109.41 1452.37 2107.72 1453.88 Q2106.06 1455.38 2106.06 1458.06 Z" fill="#000000" fill-rule="evenodd" fill-opacity="1" /><path clip-path="url(#clip010)" d="M 0 0 M2139.37 1452.37 Q2135.76 1452.37 2133.93 1455.94 Q2132.12 1459.48 2132.12 1466.61 Q2132.12 1473.71 2133.93 1477.28 Q2135.76 1480.82 2139.37 1480.82 Q2143 1480.82 2144.81 1477.28 Q2146.63 1473.71 2146.63 1466.61 Q2146.63 1459.48 2144.81 1455.94 Q2143 1452.37 2139.37 1452.37 M2139.37 1448.67 Q2145.18 1448.67 2148.23 1453.27 Q2151.31 1457.86 2151.31 1466.61 Q2151.31 1475.33 2148.23 1479.94 Q2145.18 1484.52 2139.37 1484.52 Q2133.56 1484.52 2130.48 1479.94 Q2127.42 1475.33 2127.42 1466.61 Q2127.42 1457.86 2130.48 1453.27 Q2133.56 1448.67 2139.37 1448.67 Z" fill="#000000" fill-rule="evenodd" fill-opacity="1" /><path clip-path="url(#clip010)" d="M 0 0 M2276.72 1479.92 L2284.36 1479.92 L2284.36 1453.55 L2276.05 1455.22 L2276.05 1450.96 L2284.31 1449.29 L2288.99 1449.29 L2288.99 1479.92 L2296.63 1479.92 L2296.63 1483.85 L2276.72 1483.85 L2276.72 1479.92 Z" fill="#000000" fill-rule="evenodd" fill-opacity="1" /><path clip-path="url(#clip010)" d="M 0 0 M2311.7 1452.37 Q2308.09 1452.37 2306.26 1455.94 Q2304.45 1459.48 2304.45 1466.61 Q2304.45 1473.71 2306.26 1477.28 Q2308.09 1480.82 2311.7 1480.82 Q2315.33 1480.82 2317.14 1477.28 Q2318.97 1473.71 2318.97 1466.61 Q2318.97 1459.48 2317.14 1455.94 Q2315.33 1452.37 2311.7 1452.37 M2311.7 1448.67 Q2317.51 1448.67 2320.56 1453.27 Q2323.64 1457.86 2323.64 1466.61 Q2323.64 1475.33 2320.56 1479.94 Q2317.51 1484.52 2311.7 1484.52 Q2305.89 1484.52 2302.81 1479.94 Q2299.75 1475.33 2299.75 1466.61 Q2299.75 1457.86 2302.81 1453.27 Q2305.89 1448.67 2311.7 1448.67 Z" fill="#000000" fill-rule="evenodd" fill-opacity="1" /><path clip-path="url(#clip010)" d="M 0 0 M2338.71 1452.37 Q2335.1 1452.37 2333.27 1455.94 Q2331.47 1459.48 2331.47 1466.61 Q2331.47 1473.71 2333.27 1477.28 Q2335.1 1480.82 2338.71 1480.82 Q2342.35 1480.82 2344.15 1477.28 Q2345.98 1473.71 2345.98 1466.61 Q2345.98 1459.48 2344.15 1455.94 Q2342.35 1452.37 2338.71 1452.37 M2338.71 1448.67 Q2344.52 1448.67 2347.58 1453.27 Q2350.66 1457.86 2350.66 1466.61 Q2350.66 1475.33 2347.58 1479.94 Q2344.52 1484.52 2338.71 1484.52 Q2332.9 1484.52 2329.82 1479.94 Q2326.77 1475.33 2326.77 1466.61 Q2326.77 1457.86 2329.82 1453.27 Q2332.9 1448.67 2338.71 1448.67 Z" fill="#000000" fill-rule="evenodd" fill-opacity="1" /><path clip-path="url(#clip010)" d="M 0 0 M1674.48 1513.81 L1674.48 1531.66 L1682.57 1531.66 Q1687.05 1531.66 1689.5 1529.34 Q1691.95 1527.02 1691.95 1522.72 Q1691.95 1518.45 1689.5 1516.13 Q1687.05 1513.81 1682.57 1513.81 L1674.48 1513.81 M1668.05 1508.52 L1682.57 1508.52 Q1690.55 1508.52 1694.63 1512.15 Q1698.73 1515.75 1698.73 1522.72 Q1698.73 1529.75 1694.63 1533.35 Q1690.55 1536.95 1682.57 1536.95 L1674.48 1536.95 L1674.48 1556.04 L1668.05 1556.04 L1668.05 1508.52 Z" fill="#000000" fill-rule="evenodd" fill-opacity="1" /><path clip-path="url(#clip010)" d="M 0 0 M1724.39 1525.87 Q1723.4 1525.3 1722.22 1525.04 Q1721.08 1524.76 1719.68 1524.76 Q1714.71 1524.76 1712.04 1528 Q1709.4 1531.22 1709.4 1537.27 L1709.4 1556.04 L1703.51 1556.04 L1703.51 1520.4 L1709.4 1520.4 L1709.4 1525.93 Q1711.24 1522.69 1714.2 1521.13 Q1717.16 1519.54 1721.4 1519.54 Q1722 1519.54 1722.73 1519.63 Q1723.46 1519.7 1724.36 1519.85 L1724.39 1525.87 Z" fill="#000000" fill-rule="evenodd" fill-opacity="1" /><path clip-path="url(#clip010)" d="M 0 0 M1759.59 1536.76 L1759.59 1539.62 L1732.66 1539.62 Q1733.05 1545.67 1736.29 1548.85 Q1739.57 1552 1745.39 1552 Q1748.77 1552 1751.92 1551.17 Q1755.1 1550.35 1758.22 1548.69 L1758.22 1554.23 Q1755.07 1555.57 1751.76 1556.27 Q1748.45 1556.97 1745.04 1556.97 Q1736.51 1556.97 1731.52 1552 Q1726.55 1547.04 1726.55 1538.57 Q1726.55 1529.82 1731.26 1524.69 Q1736.01 1519.54 1744.03 1519.54 Q1751.22 1519.54 1755.39 1524.18 Q1759.59 1528.8 1759.59 1536.76 M1753.73 1535.04 Q1753.67 1530.23 1751.03 1527.37 Q1748.42 1524.5 1744.09 1524.5 Q1739.19 1524.5 1736.23 1527.27 Q1733.3 1530.04 1732.85 1535.07 L1753.73 1535.04 Z" fill="#000000" fill-rule="evenodd" fill-opacity="1" /><path clip-path="url(#clip010)" d="M 0 0 M1788.46 1521.45 L1788.46 1526.98 Q1785.98 1525.71 1783.3 1525.07 Q1780.63 1524.44 1777.76 1524.44 Q1773.4 1524.44 1771.21 1525.77 Q1769.04 1527.11 1769.04 1529.79 Q1769.04 1531.82 1770.6 1533 Q1772.16 1534.15 1776.87 1535.2 L1778.88 1535.64 Q1785.12 1536.98 1787.73 1539.43 Q1790.37 1541.85 1790.37 1546.21 Q1790.37 1551.17 1786.42 1554.07 Q1782.51 1556.97 1775.63 1556.97 Q1772.77 1556.97 1769.65 1556.39 Q1766.56 1555.85 1763.12 1554.74 L1763.12 1548.69 Q1766.37 1550.38 1769.52 1551.24 Q1772.67 1552.07 1775.76 1552.07 Q1779.9 1552.07 1782.12 1550.66 Q1784.35 1549.23 1784.35 1546.65 Q1784.35 1544.27 1782.73 1542.99 Q1781.14 1541.72 1775.7 1540.54 L1773.66 1540.07 Q1768.22 1538.92 1765.8 1536.56 Q1763.38 1534.18 1763.38 1530.04 Q1763.38 1525.01 1766.94 1522.27 Q1770.51 1519.54 1777.06 1519.54 Q1780.31 1519.54 1783.18 1520.01 Q1786.04 1520.49 1788.46 1521.45 Z" fill="#000000" fill-rule="evenodd" fill-opacity="1" /><path clip-path="url(#clip010)" d="M 0 0 M1819.24 1521.45 L1819.24 1526.98 Q1816.75 1525.71 1814.08 1525.07 Q1811.41 1524.44 1808.54 1524.44 Q1804.18 1524.44 1801.99 1525.77 Q1799.82 1527.11 1799.82 1529.79 Q1799.82 1531.82 1801.38 1533 Q1802.94 1534.15 1807.65 1535.2 L1809.66 1535.64 Q1815.89 1536.98 1818.5 1539.43 Q1821.15 1541.85 1821.15 1546.21 Q1821.15 1551.17 1817.2 1554.07 Q1813.28 1556.97 1806.41 1556.97 Q1803.55 1556.97 1800.43 1556.39 Q1797.34 1555.85 1793.9 1554.74 L1793.9 1548.69 Q1797.15 1550.38 1800.3 1551.24 Q1803.45 1552.07 1806.54 1552.07 Q1810.67 1552.07 1812.9 1550.66 Q1815.13 1549.23 1815.13 1546.65 Q1815.13 1544.27 1813.51 1542.99 Q1811.92 1541.72 1806.47 1540.54 L1804.44 1540.07 Q1798.99 1538.92 1796.57 1536.56 Q1794.16 1534.18 1794.16 1530.04 Q1794.16 1525.01 1797.72 1522.27 Q1801.29 1519.54 1807.84 1519.54 Q1811.09 1519.54 1813.95 1520.01 Q1816.82 1520.49 1819.24 1521.45 Z" fill="#000000" fill-rule="evenodd" fill-opacity="1" /><path clip-path="url(#clip010)" d="M 0 0 M1826.68 1541.98 L1826.68 1520.4 L1832.54 1520.4 L1832.54 1541.75 Q1832.54 1546.81 1834.51 1549.36 Q1836.49 1551.87 1840.43 1551.87 Q1845.18 1551.87 1847.91 1548.85 Q1850.68 1545.83 1850.68 1540.61 L1850.68 1520.4 L1856.54 1520.4 L1856.54 1556.04 L1850.68 1556.04 L1850.68 1550.57 Q1848.55 1553.82 1845.72 1555.41 Q1842.92 1556.97 1839.19 1556.97 Q1833.05 1556.97 1829.87 1553.15 Q1826.68 1549.33 1826.68 1541.98 M1841.42 1519.54 L1841.42 1519.54 Z" fill="#000000" fill-rule="evenodd" fill-opacity="1" /><path clip-path="url(#clip010)" d="M 0 0 M1883.34 1525.87 Q1882.35 1525.3 1881.18 1525.04 Q1880.03 1524.76 1878.63 1524.76 Q1873.66 1524.76 1870.99 1528 Q1868.35 1531.22 1868.35 1537.27 L1868.35 1556.04 L1862.46 1556.04 L1862.46 1520.4 L1868.35 1520.4 L1868.35 1525.93 Q1870.19 1522.69 1873.15 1521.13 Q1876.11 1519.54 1880.35 1519.54 Q1880.95 1519.54 1881.68 1519.63 Q1882.42 1519.7 1883.31 1519.85 L1883.34 1525.87 Z" fill="#000000" fill-rule="evenodd" fill-opacity="1" /><path clip-path="url(#clip010)" d="M 0 0 M1918.54 1536.76 L1918.54 1539.62 L1891.61 1539.62 Q1892 1545.67 1895.24 1548.85 Q1898.52 1552 1904.35 1552 Q1907.72 1552 1910.87 1551.17 Q1914.05 1550.35 1917.17 1548.69 L1917.17 1554.23 Q1914.02 1555.57 1910.71 1556.27 Q1907.4 1556.97 1904 1556.97 Q1895.47 1556.97 1890.47 1552 Q1885.5 1547.04 1885.5 1538.57 Q1885.5 1529.82 1890.21 1524.69 Q1894.96 1519.54 1902.98 1519.54 Q1910.17 1519.54 1914.34 1524.18 Q1918.54 1528.8 1918.54 1536.76 M1912.69 1535.04 Q1912.62 1530.23 1909.98 1527.37 Q1907.37 1524.5 1903.04 1524.5 Q1898.14 1524.5 1895.18 1527.27 Q1892.25 1530.04 1891.81 1535.07 L1912.69 1535.04 Z" fill="#000000" fill-rule="evenodd" fill-opacity="1" /><path clip-path="url(#clip010)" d="M 0 0 M1944.86 1506.52 L1958.36 1506.52 L1958.36 1511.07 L1950.72 1511.07 L1950.72 1560.09 L1958.36 1560.09 L1958.36 1564.64 L1944.86 1564.64 L1944.86 1506.52 Z" fill="#000000" fill-rule="evenodd" fill-opacity="1" /><path clip-path="url(#clip010)" d="M 0 0 M1964.28 1506.52 L1970.17 1506.52 L1970.17 1535.77 L1987.64 1520.4 L1995.12 1520.4 L1976.22 1537.07 L1995.92 1556.04 L1988.28 1556.04 L1970.17 1538.63 L1970.17 1556.04 L1964.28 1556.04 L1964.28 1506.52 Z" fill="#000000" fill-rule="evenodd" fill-opacity="1" /><path clip-path="url(#clip010)" d="M 0 0 M2008.74 1513.81 L2008.74 1531.66 L2016.83 1531.66 Q2021.32 1531.66 2023.77 1529.34 Q2026.22 1527.02 2026.22 1522.72 Q2026.22 1518.45 2023.77 1516.13 Q2021.32 1513.81 2016.83 1513.81 L2008.74 1513.81 M2002.31 1508.52 L2016.83 1508.52 Q2024.82 1508.52 2028.89 1512.15 Q2033 1515.75 2033 1522.72 Q2033 1529.75 2028.89 1533.35 Q2024.82 1536.95 2016.83 1536.95 L2008.74 1536.95 L2008.74 1556.04 L2002.31 1556.04 L2002.31 1508.52 Z" fill="#000000" fill-rule="evenodd" fill-opacity="1" /><path clip-path="url(#clip010)" d="M 0 0 M2052.41 1538.12 Q2045.31 1538.12 2042.58 1539.75 Q2039.84 1541.37 2039.84 1545.29 Q2039.84 1548.4 2041.88 1550.25 Q2043.95 1552.07 2047.48 1552.07 Q2052.35 1552.07 2055.28 1548.63 Q2058.24 1545.16 2058.24 1539.43 L2058.24 1538.12 L2052.41 1538.12 M2064.09 1535.71 L2064.09 1556.04 L2058.24 1556.04 L2058.24 1550.63 Q2056.23 1553.88 2053.24 1555.44 Q2050.25 1556.97 2045.92 1556.97 Q2040.45 1556.97 2037.2 1553.91 Q2033.98 1550.82 2033.98 1545.67 Q2033.98 1539.65 2037.99 1536.6 Q2042.04 1533.54 2050.03 1533.54 L2058.24 1533.54 L2058.24 1532.97 Q2058.24 1528.93 2055.56 1526.73 Q2052.92 1524.5 2048.12 1524.5 Q2045.06 1524.5 2042.16 1525.23 Q2039.27 1525.97 2036.59 1527.43 L2036.59 1522.02 Q2039.81 1520.78 2042.83 1520.17 Q2045.86 1519.54 2048.72 1519.54 Q2056.45 1519.54 2060.27 1523.55 Q2064.09 1527.56 2064.09 1535.71 Z" fill="#000000" fill-rule="evenodd" fill-opacity="1" /><path clip-path="url(#clip010)" d="M 0 0 M2083.92 1506.52 L2083.92 1564.64 L2070.43 1564.64 L2070.43 1560.09 L2078.03 1560.09 L2078.03 1511.07 L2070.43 1511.07 L2070.43 1506.52 L2083.92 1506.52 Z" fill="#000000" fill-rule="evenodd" fill-opacity="1" /><polyline clip-path="url(#clip013)" style="stroke:#000000; stroke-width:2; stroke-opacity:0.1; fill:none" points="
  1399.22,1386.4 2352.76,1386.4 
  "/>
<polyline clip-path="url(#clip013)" style="stroke:#000000; stroke-width:2; stroke-opacity:0.1; fill:none" points="
  1399.22,1141.17 2352.76,1141.17 
  "/>
<polyline clip-path="url(#clip013)" style="stroke:#000000; stroke-width:2; stroke-opacity:0.1; fill:none" points="
  1399.22,895.94 2352.76,895.94 
  "/>
<polyline clip-path="url(#clip013)" style="stroke:#000000; stroke-width:2; stroke-opacity:0.1; fill:none" points="
  1399.22,650.712 2352.76,650.712 
  "/>
<polyline clip-path="url(#clip013)" style="stroke:#000000; stroke-width:2; stroke-opacity:0.1; fill:none" points="
  1399.22,405.484 2352.76,405.484 
  "/>
<polyline clip-path="url(#clip013)" style="stroke:#000000; stroke-width:2; stroke-opacity:0.1; fill:none" points="
  1399.22,160.256 2352.76,160.256 
  "/>
<polyline clip-path="url(#clip010)" style="stroke:#000000; stroke-width:4; stroke-opacity:1; fill:none" points="
  1399.22,1423.18 1399.22,123.472 
  "/>
<polyline clip-path="url(#clip010)" style="stroke:#000000; stroke-width:4; stroke-opacity:1; fill:none" points="
  1399.22,1386.4 1410.66,1386.4 
  "/>
<polyline clip-path="url(#clip010)" style="stroke:#000000; stroke-width:4; stroke-opacity:1; fill:none" points="
  1399.22,1141.17 1410.66,1141.17 
  "/>
<polyline clip-path="url(#clip010)" style="stroke:#000000; stroke-width:4; stroke-opacity:1; fill:none" points="
  1399.22,895.94 1410.66,895.94 
  "/>
<polyline clip-path="url(#clip010)" style="stroke:#000000; stroke-width:4; stroke-opacity:1; fill:none" points="
  1399.22,650.712 1410.66,650.712 
  "/>
<polyline clip-path="url(#clip010)" style="stroke:#000000; stroke-width:4; stroke-opacity:1; fill:none" points="
  1399.22,405.484 1410.66,405.484 
  "/>
<polyline clip-path="url(#clip010)" style="stroke:#000000; stroke-width:4; stroke-opacity:1; fill:none" points="
  1399.22,160.256 1410.66,160.256 
  "/>
<path clip-path="url(#clip010)" d="M 0 0 M1351.27 1372.19 Q1347.66 1372.19 1345.83 1375.76 Q1344.03 1379.3 1344.03 1386.43 Q1344.03 1393.54 1345.83 1397.1 Q1347.66 1400.64 1351.27 1400.64 Q1354.91 1400.64 1356.71 1397.1 Q1358.54 1393.54 1358.54 1386.43 Q1358.54 1379.3 1356.71 1375.76 Q1354.91 1372.19 1351.27 1372.19 M1351.27 1368.49 Q1357.08 1368.49 1360.14 1373.1 Q1363.22 1377.68 1363.22 1386.43 Q1363.22 1395.16 1360.14 1399.76 Q1357.08 1404.35 1351.27 1404.35 Q1345.46 1404.35 1342.39 1399.76 Q1339.33 1395.16 1339.33 1386.43 Q1339.33 1377.68 1342.39 1373.1 Q1345.46 1368.49 1351.27 1368.49 Z" fill="#000000" fill-rule="evenodd" fill-opacity="1" /><path clip-path="url(#clip010)" d="M 0 0 M1342.32 1123.89 L1360.67 1123.89 L1360.67 1127.82 L1346.6 1127.82 L1346.6 1136.3 Q1347.62 1135.95 1348.63 1135.79 Q1349.65 1135.6 1350.67 1135.6 Q1356.46 1135.6 1359.84 1138.77 Q1363.22 1141.94 1363.22 1147.36 Q1363.22 1152.94 1359.75 1156.04 Q1356.27 1159.12 1349.95 1159.12 Q1347.78 1159.12 1345.51 1158.75 Q1343.26 1158.38 1340.86 1157.64 L1340.86 1152.94 Q1342.94 1154.07 1345.16 1154.63 Q1347.38 1155.18 1349.86 1155.18 Q1353.87 1155.18 1356.2 1153.08 Q1358.54 1150.97 1358.54 1147.36 Q1358.54 1143.75 1356.2 1141.64 Q1353.87 1139.54 1349.86 1139.54 Q1347.99 1139.54 1346.11 1139.95 Q1344.26 1140.37 1342.32 1141.25 L1342.32 1123.89 Z" fill="#000000" fill-rule="evenodd" fill-opacity="1" /><path clip-path="url(#clip010)" d="M 0 0 M1316.3 909.285 L1323.94 909.285 L1323.94 882.919 L1315.63 884.586 L1315.63 880.327 L1323.89 878.66 L1328.57 878.66 L1328.57 909.285 L1336.2 909.285 L1336.2 913.22 L1316.3 913.22 L1316.3 909.285 Z" fill="#000000" fill-rule="evenodd" fill-opacity="1" /><path clip-path="url(#clip010)" d="M 0 0 M1351.27 881.739 Q1347.66 881.739 1345.83 885.303 Q1344.03 888.845 1344.03 895.975 Q1344.03 903.081 1345.83 906.646 Q1347.66 910.188 1351.27 910.188 Q1354.91 910.188 1356.71 906.646 Q1358.54 903.081 1358.54 895.975 Q1358.54 888.845 1356.71 885.303 Q1354.91 881.739 1351.27 881.739 M1351.27 878.035 Q1357.08 878.035 1360.14 882.641 Q1363.22 887.225 1363.22 895.975 Q1363.22 904.701 1360.14 909.308 Q1357.08 913.891 1351.27 913.891 Q1345.46 913.891 1342.39 909.308 Q1339.33 904.701 1339.33 895.975 Q1339.33 887.225 1342.39 882.641 Q1345.46 878.035 1351.27 878.035 Z" fill="#000000" fill-rule="evenodd" fill-opacity="1" /><path clip-path="url(#clip010)" d="M 0 0 M1317.29 664.057 L1324.93 664.057 L1324.93 637.691 L1316.62 639.358 L1316.62 635.099 L1324.89 633.432 L1329.56 633.432 L1329.56 664.057 L1337.2 664.057 L1337.2 667.992 L1317.29 667.992 L1317.29 664.057 Z" fill="#000000" fill-rule="evenodd" fill-opacity="1" /><path clip-path="url(#clip010)" d="M 0 0 M1342.32 633.432 L1360.67 633.432 L1360.67 637.367 L1346.6 637.367 L1346.6 645.839 Q1347.62 645.492 1348.63 645.33 Q1349.65 645.145 1350.67 645.145 Q1356.46 645.145 1359.84 648.316 Q1363.22 651.488 1363.22 656.904 Q1363.22 662.483 1359.75 665.585 Q1356.27 668.663 1349.95 668.663 Q1347.78 668.663 1345.51 668.293 Q1343.26 667.923 1340.86 667.182 L1340.86 662.483 Q1342.94 663.617 1345.16 664.173 Q1347.38 664.728 1349.86 664.728 Q1353.87 664.728 1356.2 662.622 Q1358.54 660.515 1358.54 656.904 Q1358.54 653.293 1356.2 651.187 Q1353.87 649.08 1349.86 649.08 Q1347.99 649.08 1346.11 649.497 Q1344.26 649.913 1342.32 650.793 L1342.32 633.432 Z" fill="#000000" fill-rule="evenodd" fill-opacity="1" /><path clip-path="url(#clip010)" d="M 0 0 M1319.89 418.829 L1336.2 418.829 L1336.2 422.764 L1314.26 422.764 L1314.26 418.829 Q1316.92 416.074 1321.51 411.445 Q1326.11 406.792 1327.29 405.449 Q1329.54 402.926 1330.42 401.19 Q1331.32 399.431 1331.32 397.741 Q1331.32 394.987 1329.38 393.25 Q1327.45 391.514 1324.35 391.514 Q1322.15 391.514 1319.7 392.278 Q1317.27 393.042 1314.49 394.593 L1314.49 389.871 Q1317.32 388.737 1319.77 388.158 Q1322.22 387.579 1324.26 387.579 Q1329.63 387.579 1332.82 390.264 Q1336.02 392.95 1336.02 397.44 Q1336.02 399.57 1335.21 401.491 Q1334.42 403.389 1332.32 405.982 Q1331.74 406.653 1328.64 409.871 Q1325.53 413.065 1319.89 418.829 Z" fill="#000000" fill-rule="evenodd" fill-opacity="1" /><path clip-path="url(#clip010)" d="M 0 0 M1351.27 391.283 Q1347.66 391.283 1345.83 394.848 Q1344.03 398.389 1344.03 405.519 Q1344.03 412.625 1345.83 416.19 Q1347.66 419.732 1351.27 419.732 Q1354.91 419.732 1356.71 416.19 Q1358.54 412.625 1358.54 405.519 Q1358.54 398.389 1356.71 394.848 Q1354.91 391.283 1351.27 391.283 M1351.27 387.579 Q1357.08 387.579 1360.14 392.186 Q1363.22 396.769 1363.22 405.519 Q1363.22 414.246 1360.14 418.852 Q1357.08 423.435 1351.27 423.435 Q1345.46 423.435 1342.39 418.852 Q1339.33 414.246 1339.33 405.519 Q1339.33 396.769 1342.39 392.186 Q1345.46 387.579 1351.27 387.579 Z" fill="#000000" fill-rule="evenodd" fill-opacity="1" /><path clip-path="url(#clip010)" d="M 0 0 M1320.88 173.601 L1337.2 173.601 L1337.2 177.536 L1315.26 177.536 L1315.26 173.601 Q1317.92 170.847 1322.5 166.217 Q1327.11 161.564 1328.29 160.222 Q1330.53 157.698 1331.41 155.962 Q1332.32 154.203 1332.32 152.513 Q1332.32 149.759 1330.37 148.023 Q1328.45 146.286 1325.35 146.286 Q1323.15 146.286 1320.7 147.05 Q1318.26 147.814 1315.49 149.365 L1315.49 144.643 Q1318.31 143.509 1320.76 142.93 Q1323.22 142.351 1325.26 142.351 Q1330.63 142.351 1333.82 145.036 Q1337.01 147.722 1337.01 152.212 Q1337.01 154.342 1336.2 156.263 Q1335.42 158.161 1333.31 160.754 Q1332.73 161.425 1329.63 164.643 Q1326.53 167.837 1320.88 173.601 Z" fill="#000000" fill-rule="evenodd" fill-opacity="1" /><path clip-path="url(#clip010)" d="M 0 0 M1342.32 142.976 L1360.67 142.976 L1360.67 146.911 L1346.6 146.911 L1346.6 155.384 Q1347.62 155.036 1348.63 154.874 Q1349.65 154.689 1350.67 154.689 Q1356.46 154.689 1359.84 157.86 Q1363.22 161.032 1363.22 166.448 Q1363.22 172.027 1359.75 175.129 Q1356.27 178.208 1349.95 178.208 Q1347.78 178.208 1345.51 177.837 Q1343.26 177.467 1340.86 176.726 L1340.86 172.027 Q1342.94 173.161 1345.16 173.717 Q1347.38 174.272 1349.86 174.272 Q1353.87 174.272 1356.2 172.166 Q1358.54 170.059 1358.54 166.448 Q1358.54 162.837 1356.2 160.731 Q1353.87 158.624 1349.86 158.624 Q1347.99 158.624 1346.11 159.041 Q1344.26 159.458 1342.32 160.337 L1342.32 142.976 Z" fill="#000000" fill-rule="evenodd" fill-opacity="1" /><path clip-path="url(#clip010)" d="M 0 0 M1252.36 864.419 L1252.36 836.601 L1257.7 836.601 L1283.33 858.626 L1283.33 836.601 L1288 836.601 L1288 865.215 L1282.66 865.215 L1257.03 843.19 L1257.03 864.419 L1252.36 864.419 Z" fill="#000000" fill-rule="evenodd" fill-opacity="1" /><path clip-path="url(#clip010)" d="M 0 0 M1238.48 810.279 L1238.48 796.784 L1243.03 796.784 L1243.03 804.422 L1292.05 804.422 L1292.05 796.784 L1296.6 796.784 L1296.6 810.279 L1238.48 810.279 Z" fill="#000000" fill-rule="evenodd" fill-opacity="1" /><path clip-path="url(#clip010)" d="M 0 0 M1238.48 790.864 L1238.48 784.975 L1267.73 784.975 L1252.36 767.501 L1252.36 760.022 L1269.03 778.928 L1288 759.226 L1288 766.865 L1270.59 784.975 L1288 784.975 L1288 790.864 L1238.48 790.864 Z" fill="#000000" fill-rule="evenodd" fill-opacity="1" /><path clip-path="url(#clip010)" d="M 0 0 M1259.2 725.329 Q1255.25 723.132 1253.37 720.077 Q1251.5 717.021 1251.5 712.884 Q1251.5 707.314 1255.41 704.29 Q1259.29 701.266 1266.49 701.266 L1288 701.266 L1288 707.154 L1266.68 707.154 Q1261.55 707.154 1259.07 708.969 Q1256.59 710.783 1256.59 714.507 Q1256.59 719.058 1259.61 721.7 Q1262.64 724.342 1267.86 724.342 L1288 724.342 L1288 730.23 L1266.68 730.23 Q1261.52 730.23 1259.07 732.044 Q1256.59 733.859 1256.59 737.646 Q1256.59 742.134 1259.64 744.776 Q1262.67 747.418 1267.86 747.418 L1288 747.418 L1288 753.306 L1252.36 753.306 L1252.36 747.418 L1257.89 747.418 Q1254.62 745.412 1253.06 742.611 Q1251.5 739.811 1251.5 735.959 Q1251.5 732.076 1253.47 729.371 Q1255.44 726.634 1259.2 725.329 Z" fill="#000000" fill-rule="evenodd" fill-opacity="1" /><path clip-path="url(#clip010)" d="M 0 0 M1238.48 681.437 L1296.6 681.437 L1296.6 694.932 L1292.05 694.932 L1292.05 687.325 L1243.03 687.325 L1243.03 694.932 L1238.48 694.932 L1238.48 681.437 Z" fill="#000000" fill-rule="evenodd" fill-opacity="1" /><path clip-path="url(#clip010)" d="M 0 0 M1685.35 12.096 L1693.53 12.096 L1693.53 72.576 L1685.35 72.576 L1685.35 12.096 Z" fill="#000000" fill-rule="evenodd" fill-opacity="1" /><path clip-path="url(#clip010)" d="M 0 0 M1730.28 28.5427 L1730.28 35.5912 Q1727.12 33.9709 1723.71 33.1607 Q1720.31 32.3505 1716.67 32.3505 Q1711.12 32.3505 1708.32 34.0519 Q1705.57 35.7533 1705.57 39.156 Q1705.57 41.7486 1707.55 43.2475 Q1709.54 44.7058 1715.53 46.0426 L1718.08 46.6097 Q1726.02 48.3111 1729.34 51.4303 Q1732.71 54.509 1732.71 60.0587 Q1732.71 66.3781 1727.68 70.0644 Q1722.7 73.7508 1713.95 73.7508 Q1710.31 73.7508 1706.34 73.0216 Q1702.41 72.3329 1698.03 70.9151 L1698.03 63.2184 Q1702.16 65.3654 1706.17 66.4591 Q1710.18 67.5124 1714.11 67.5124 Q1719.38 67.5124 1722.21 65.73 Q1725.05 63.9071 1725.05 60.6258 Q1725.05 57.5877 1722.98 55.9673 Q1720.96 54.3469 1714.03 52.8481 L1711.44 52.2405 Q1704.51 50.7821 1701.43 47.7845 Q1698.35 44.7463 1698.35 39.4801 Q1698.35 33.0797 1702.89 29.5959 Q1707.43 26.1121 1715.77 26.1121 Q1719.91 26.1121 1723.55 26.7198 Q1727.2 27.3274 1730.28 28.5427 Z" fill="#000000" fill-rule="evenodd" fill-opacity="1" /><path clip-path="url(#clip010)" d="M 0 0 M1758.11 32.4315 Q1752.11 32.4315 1748.63 37.1306 Q1745.14 41.7891 1745.14 49.9314 Q1745.14 58.0738 1748.59 62.7728 Q1752.07 67.4314 1758.11 67.4314 Q1764.06 67.4314 1767.54 62.7323 Q1771.03 58.0333 1771.03 49.9314 Q1771.03 41.8701 1767.54 37.1711 Q1764.06 32.4315 1758.11 32.4315 M1758.11 26.1121 Q1767.83 26.1121 1773.38 32.4315 Q1778.93 38.7509 1778.93 49.9314 Q1778.93 61.0714 1773.38 67.4314 Q1767.83 73.7508 1758.11 73.7508 Q1748.34 73.7508 1742.79 67.4314 Q1737.28 61.0714 1737.28 49.9314 Q1737.28 38.7509 1742.79 32.4315 Q1748.34 26.1121 1758.11 26.1121 Z" fill="#000000" fill-rule="evenodd" fill-opacity="1" /><path clip-path="url(#clip010)" d="M 0 0 M1794.12 14.324 L1794.12 27.2059 L1809.47 27.2059 L1809.47 32.9987 L1794.12 32.9987 L1794.12 57.6282 Q1794.12 63.1779 1795.62 64.7578 Q1797.16 66.3376 1801.82 66.3376 L1809.47 66.3376 L1809.47 72.576 L1801.82 72.576 Q1793.19 72.576 1789.91 69.3758 Q1786.62 66.1351 1786.62 57.6282 L1786.62 32.9987 L1781.16 32.9987 L1781.16 27.2059 L1786.62 27.2059 L1786.62 14.324 L1794.12 14.324 Z" fill="#000000" fill-rule="evenodd" fill-opacity="1" /><path clip-path="url(#clip010)" d="M 0 0 M1855 45.1919 L1855 72.576 L1847.55 72.576 L1847.55 45.4349 Q1847.55 38.994 1845.04 35.7938 Q1842.53 32.5936 1837.5 32.5936 Q1831.47 32.5936 1827.98 36.4419 Q1824.5 40.2903 1824.5 46.9338 L1824.5 72.576 L1817.01 72.576 L1817.01 9.54393 L1824.5 9.54393 L1824.5 34.2544 Q1827.17 30.163 1830.78 28.1376 Q1834.42 26.1121 1839.16 26.1121 Q1846.98 26.1121 1850.99 30.9732 Q1855 35.7938 1855 45.1919 Z" fill="#000000" fill-rule="evenodd" fill-opacity="1" /><path clip-path="url(#clip010)" d="M 0 0 M1901.63 48.0275 L1901.63 51.6733 L1867.36 51.6733 Q1867.84 59.3701 1871.98 63.421 Q1876.15 67.4314 1883.56 67.4314 Q1887.86 67.4314 1891.87 66.3781 Q1895.92 65.3249 1899.89 63.2184 L1899.89 70.267 Q1895.88 71.9684 1891.66 72.8596 Q1887.45 73.7508 1883.12 73.7508 Q1872.26 73.7508 1865.9 67.4314 Q1859.58 61.1119 1859.58 50.3365 Q1859.58 39.1965 1865.58 32.6746 Q1871.61 26.1121 1881.82 26.1121 Q1890.98 26.1121 1896.28 32.0264 Q1901.63 37.9003 1901.63 48.0275 M1894.18 45.84 Q1894.09 39.7232 1890.73 36.0774 Q1887.41 32.4315 1881.9 32.4315 Q1875.66 32.4315 1871.9 35.9558 Q1868.17 39.4801 1867.6 45.8805 L1894.18 45.84 Z" fill="#000000" fill-rule="evenodd" fill-opacity="1" /><path clip-path="url(#clip010)" d="M 0 0 M1935.74 34.1734 Q1934.48 33.4443 1932.98 33.1202 Q1931.52 32.7556 1929.74 32.7556 Q1923.42 32.7556 1920.02 36.8875 Q1916.66 40.9789 1916.66 48.6757 L1916.66 72.576 L1909.16 72.576 L1909.16 27.2059 L1916.66 27.2059 L1916.66 34.2544 Q1919.01 30.1225 1922.78 28.1376 Q1926.54 26.1121 1931.93 26.1121 Q1932.7 26.1121 1933.63 26.2337 Q1934.56 26.3147 1935.7 26.5172 L1935.74 34.1734 Z" fill="#000000" fill-rule="evenodd" fill-opacity="1" /><path clip-path="url(#clip010)" d="M 0 0 M1977.42 35.9153 Q1980.22 30.8922 1984.11 28.5022 Q1987.99 26.1121 1993.26 26.1121 Q2000.35 26.1121 2004.2 31.0947 Q2008.05 36.0368 2008.05 45.1919 L2008.05 72.576 L2000.55 72.576 L2000.55 45.4349 Q2000.55 38.913 1998.24 35.7533 Q1995.93 32.5936 1991.19 32.5936 Q1985.4 32.5936 1982.04 36.4419 Q1978.68 40.2903 1978.68 46.9338 L1978.68 72.576 L1971.18 72.576 L1971.18 45.4349 Q1971.18 38.8725 1968.87 35.7533 Q1966.57 32.5936 1961.74 32.5936 Q1956.03 32.5936 1952.67 36.4824 Q1949.31 40.3308 1949.31 46.9338 L1949.31 72.576 L1941.81 72.576 L1941.81 27.2059 L1949.31 27.2059 L1949.31 34.2544 Q1951.86 30.082 1955.43 28.0971 Q1958.99 26.1121 1963.89 26.1121 Q1968.83 26.1121 1972.28 28.6237 Q1975.76 31.1352 1977.42 35.9153 Z" fill="#000000" fill-rule="evenodd" fill-opacity="1" /><path clip-path="url(#clip010)" d="M 0 0 M2036.48 49.7694 Q2027.45 49.7694 2023.97 51.8354 Q2020.48 53.9013 2020.48 58.8839 Q2020.48 62.8538 2023.08 65.2034 Q2025.71 67.5124 2030.2 67.5124 Q2036.4 67.5124 2040.13 63.1374 Q2043.9 58.7219 2043.9 51.4303 L2043.9 49.7694 L2036.48 49.7694 M2051.35 46.6907 L2051.35 72.576 L2043.9 72.576 L2043.9 65.6895 Q2041.34 69.8214 2037.54 71.8063 Q2033.73 73.7508 2028.22 73.7508 Q2021.25 73.7508 2017.12 69.8619 Q2013.03 65.9325 2013.03 59.3701 Q2013.03 51.7138 2018.13 47.825 Q2023.28 43.9361 2033.45 43.9361 L2043.9 43.9361 L2043.9 43.2069 Q2043.9 38.0623 2040.49 35.2672 Q2037.13 32.4315 2031.02 32.4315 Q2027.13 32.4315 2023.44 33.3632 Q2019.75 34.295 2016.35 36.1584 L2016.35 29.2718 Q2020.44 27.692 2024.29 26.9223 Q2028.14 26.1121 2031.78 26.1121 Q2041.63 26.1121 2046.49 31.2163 Q2051.35 36.3204 2051.35 46.6907 Z" fill="#000000" fill-rule="evenodd" fill-opacity="1" /><path clip-path="url(#clip010)" d="M 0 0 M2059.17 9.54393 L2066.62 9.54393 L2066.62 72.576 L2059.17 72.576 L2059.17 9.54393 Z" fill="#000000" fill-rule="evenodd" fill-opacity="1" /><polyline clip-path="url(#clip013)" style="stroke:#009af9; stroke-width:4; stroke-opacity:1; fill:none" points="
  2325.77,1386.4 2270.36,1361.37 2218.18,1336.35 2169.05,1311.33 2122.78,1286.3 2079.22,1261.28 2038.2,1236.26 1999.57,1211.23 1963.2,1186.21 1928.95,1161.19 
  1896.7,1136.16 1866.33,1111.14 1837.73,1086.12 1810.8,1061.09 1785.45,1036.07 1761.57,1011.05 1739.09,986.024 1717.92,961 1697.98,935.977 1679.21,910.954 
  1661.53,885.931 1644.89,860.907 1629.22,835.884 1614.46,810.861 1600.56,785.838 1587.47,760.814 1575.15,735.791 1563.55,710.768 1552.62,685.745 1542.34,660.721 
  1532.65,635.698 1523.53,610.675 1514.94,585.652 1506.85,560.628 1499.23,535.605 1492.06,510.582 1485.31,485.559 1478.95,460.535 1472.96,435.512 1467.32,410.489 
  1462.01,385.466 1457.01,360.442 1452.3,335.419 1447.87,310.396 1443.69,285.373 1439.76,260.349 1436.06,235.326 1432.58,210.303 1429.3,185.28 1426.21,160.256 
  
  "/>
<path clip-path="url(#clip010)" d="
M2164 287.756 L2320.97 287.756 L2320.97 166.796 L2164 166.796  Z
  " fill="#ffffff" fill-rule="evenodd" fill-opacity="1"/>
<polyline clip-path="url(#clip010)" style="stroke:#000000; stroke-width:4; stroke-opacity:1; fill:none" points="
  2164,287.756 2320.97,287.756 2320.97,166.796 2164,166.796 2164,287.756 
  "/>
<polyline clip-path="url(#clip010)" style="stroke:#009af9; stroke-width:4; stroke-opacity:1; fill:none" points="
  2174.6,227.276 2238.17,227.276 
  "/>
<path clip-path="url(#clip010)" d="M 0 0 M2262.61 246.963 Q2260.8 251.593 2259.09 253.005 Q2257.37 254.417 2254.5 254.417 L2251.1 254.417 L2251.1 250.852 L2253.6 250.852 Q2255.36 250.852 2256.33 250.019 Q2257.3 249.185 2258.49 246.083 L2259.25 244.139 L2248.76 218.63 L2253.28 218.63 L2261.38 238.908 L2269.48 218.63 L2273.99 218.63 L2262.61 246.963 Z" fill="#000000" fill-rule="evenodd" fill-opacity="1" /><path clip-path="url(#clip010)" d="M 0 0 M2279.87 240.621 L2287.51 240.621 L2287.51 214.255 L2279.2 215.922 L2279.2 211.662 L2287.47 209.996 L2292.14 209.996 L2292.14 240.621 L2299.78 240.621 L2299.78 244.556 L2279.87 244.556 L2279.87 240.621 Z" fill="#000000" fill-rule="evenodd" fill-opacity="1" /></svg>
