<?xml version="1.0" encoding="utf-8"?>
<svg xmlns="http://www.w3.org/2000/svg" xmlns:xlink="http://www.w3.org/1999/xlink" width="600" height="400" viewBox="0 0 2400 1600">
<defs>
  <clipPath id="clip830">
    <rect x="0" y="0" width="2400" height="1600"/>
  </clipPath>
</defs>
<path clip-path="url(#clip830)" d="
M0 1600 L2400 1600 L2400 0 L0 0  Z
  " fill="#ffffff" fill-rule="evenodd" fill-opacity="1"/>
<defs>
  <clipPath id="clip831">
    <rect x="480" y="0" width="1681" height="1600"/>
  </clipPath>
</defs>
<path clip-path="url(#clip830)" d="
M238.13 1423.18 L2352.76 1423.18 L2352.76 47.2441 L238.13 47.2441  Z
  " fill="#ffffff" fill-rule="evenodd" fill-opacity="1"/>
<defs>
  <clipPath id="clip832">
    <rect x="238" y="47" width="2116" height="1377"/>
  </clipPath>
</defs>
<polyline clip-path="url(#clip832)" style="stroke:#000000; stroke-width:2; stroke-opacity:0.1; fill:none" points="
  297.978,1423.18 297.978,47.2441 
  "/>
<polyline clip-path="url(#clip832)" style="stroke:#000000; stroke-width:2; stroke-opacity:0.1; fill:none" points="
  867.958,1423.18 867.958,47.2441 
  "/>
<polyline clip-path="url(#clip832)" style="stroke:#000000; stroke-width:2; stroke-opacity:0.1; fill:none" points="
  1437.94,1423.18 1437.94,47.2441 
  "/>
<polyline clip-path="url(#clip832)" style="stroke:#000000; stroke-width:2; stroke-opacity:0.1; fill:none" points="
  2007.92,1423.18 2007.92,47.2441 
  "/>
<polyline clip-path="url(#clip832)" style="stroke:#000000; stroke-width:2; stroke-opacity:0.1; fill:none" points="
  238.13,1294.96 2352.76,1294.96 
  "/>
<polyline clip-path="url(#clip832)" style="stroke:#000000; stroke-width:2; stroke-opacity:0.1; fill:none" points="
  238.13,1013.33 2352.76,1013.33 
  "/>
<polyline clip-path="url(#clip832)" style="stroke:#000000; stroke-width:2; stroke-opacity:0.1; fill:none" points="
  238.13,731.706 2352.76,731.706 
  "/>
<polyline clip-path="url(#clip832)" style="stroke:#000000; stroke-width:2; stroke-opacity:0.1; fill:none" points="
  238.13,450.079 2352.76,450.079 
  "/>
<polyline clip-path="url(#clip832)" style="stroke:#000000; stroke-width:2; stroke-opacity:0.1; fill:none" points="
  238.13,168.451 2352.76,168.451 
  "/>
<polyline clip-path="url(#clip830)" style="stroke:#000000; stroke-width:4; stroke-opacity:1; fill:none" points="
  238.13,1423.18 2352.76,1423.18 
  "/>
<polyline clip-path="url(#clip830)" style="stroke:#000000; stroke-width:4; stroke-opacity:1; fill:none" points="
  238.13,1423.18 238.13,47.2441 
  "/>
<polyline clip-path="url(#clip830)" style="stroke:#000000; stroke-width:4; stroke-opacity:1; fill:none" points="
  297.978,1423.18 297.978,1406.67 
  "/>
<polyline clip-path="url(#clip830)" style="stroke:#000000; stroke-width:4; stroke-opacity:1; fill:none" points="
  867.958,1423.18 867.958,1406.67 
  "/>
<polyline clip-path="url(#clip830)" style="stroke:#000000; stroke-width:4; stroke-opacity:1; fill:none" points="
  1437.94,1423.18 1437.94,1406.67 
  "/>
<polyline clip-path="url(#clip830)" style="stroke:#000000; stroke-width:4; stroke-opacity:1; fill:none" points="
  2007.92,1423.18 2007.92,1406.67 
  "/>
<polyline clip-path="url(#clip830)" style="stroke:#000000; stroke-width:4; stroke-opacity:1; fill:none" points="
  238.13,1294.96 263.506,1294.96 
  "/>
<polyline clip-path="url(#clip830)" style="stroke:#000000; stroke-width:4; stroke-opacity:1; fill:none" points="
  238.13,1013.33 263.506,1013.33 
  "/>
<polyline clip-path="url(#clip830)" style="stroke:#000000; stroke-width:4; stroke-opacity:1; fill:none" points="
  238.13,731.706 263.506,731.706 
  "/>
<polyline clip-path="url(#clip830)" style="stroke:#000000; stroke-width:4; stroke-opacity:1; fill:none" points="
  238.13,450.079 263.506,450.079 
  "/>
<polyline clip-path="url(#clip830)" style="stroke:#000000; stroke-width:4; stroke-opacity:1; fill:none" points="
  238.13,168.451 263.506,168.451 
  "/>
<path clip-path="url(#clip830)" d="M 0 0 M297.978 1445.17 Q294.367 1445.17 292.538 1448.74 Q290.733 1452.28 290.733 1459.41 Q290.733 1466.51 292.538 1470.08 Q294.367 1473.62 297.978 1473.62 Q301.612 1473.62 303.418 1470.08 Q305.246 1466.51 305.246 1459.41 Q305.246 1452.28 303.418 1448.74 Q301.612 1445.17 297.978 1445.17 M297.978 1441.47 Q303.788 1441.47 306.844 1446.07 Q309.922 1450.66 309.922 1459.41 Q309.922 1468.13 306.844 1472.74 Q303.788 1477.32 297.978 1477.32 Q292.168 1477.32 289.089 1472.74 Q286.034 1468.13 286.034 1459.41 Q286.034 1450.66 289.089 1446.07 Q292.168 1441.47 297.978 1441.47 Z" fill="#000000" fill-rule="evenodd" fill-opacity="1" /><path clip-path="url(#clip830)" d="M 0 0 M831.326 1472.72 L838.965 1472.72 L838.965 1446.35 L830.655 1448.02 L830.655 1443.76 L838.919 1442.09 L843.595 1442.09 L843.595 1472.72 L851.234 1472.72 L851.234 1476.65 L831.326 1476.65 L831.326 1472.72 Z" fill="#000000" fill-rule="evenodd" fill-opacity="1" /><path clip-path="url(#clip830)" d="M 0 0 M866.303 1445.17 Q862.692 1445.17 860.863 1448.74 Q859.058 1452.28 859.058 1459.41 Q859.058 1466.51 860.863 1470.08 Q862.692 1473.62 866.303 1473.62 Q869.937 1473.62 871.743 1470.08 Q873.571 1466.51 873.571 1459.41 Q873.571 1452.28 871.743 1448.74 Q869.937 1445.17 866.303 1445.17 M866.303 1441.47 Q872.113 1441.47 875.169 1446.07 Q878.247 1450.66 878.247 1459.41 Q878.247 1468.13 875.169 1472.74 Q872.113 1477.32 866.303 1477.32 Q860.493 1477.32 857.414 1472.74 Q854.359 1468.13 854.359 1459.41 Q854.359 1450.66 857.414 1446.07 Q860.493 1441.47 866.303 1441.47 Z" fill="#000000" fill-rule="evenodd" fill-opacity="1" /><path clip-path="url(#clip830)" d="M 0 0 M893.317 1445.17 Q889.706 1445.17 887.877 1448.74 Q886.071 1452.28 886.071 1459.41 Q886.071 1466.51 887.877 1470.08 Q889.706 1473.62 893.317 1473.62 Q896.951 1473.62 898.756 1470.08 Q900.585 1466.51 900.585 1459.41 Q900.585 1452.28 898.756 1448.74 Q896.951 1445.17 893.317 1445.17 M893.317 1441.47 Q899.127 1441.47 902.182 1446.07 Q905.261 1450.66 905.261 1459.41 Q905.261 1468.13 902.182 1472.74 Q899.127 1477.32 893.317 1477.32 Q887.506 1477.32 884.428 1472.74 Q881.372 1468.13 881.372 1459.41 Q881.372 1450.66 884.428 1446.07 Q887.506 1441.47 893.317 1441.47 Z" fill="#000000" fill-rule="evenodd" fill-opacity="1" /><path clip-path="url(#clip830)" d="M 0 0 M1405.58 1472.72 L1421.9 1472.72 L1421.9 1476.65 L1399.95 1476.65 L1399.95 1472.72 Q1402.61 1469.96 1407.2 1465.33 Q1411.8 1460.68 1412.98 1459.34 Q1415.23 1456.81 1416.11 1455.08 Q1417.01 1453.32 1417.01 1451.63 Q1417.01 1448.87 1415.07 1447.14 Q1413.15 1445.4 1410.04 1445.4 Q1407.85 1445.4 1405.39 1446.17 Q1402.96 1446.93 1400.18 1448.48 L1400.18 1443.76 Q1403.01 1442.62 1405.46 1442.05 Q1407.91 1441.47 1409.95 1441.47 Q1415.32 1441.47 1418.52 1444.15 Q1421.71 1446.84 1421.71 1451.33 Q1421.71 1453.46 1420.9 1455.38 Q1420.11 1457.28 1418.01 1459.87 Q1417.43 1460.54 1414.33 1463.76 Q1411.23 1466.95 1405.58 1472.72 Z" fill="#000000" fill-rule="evenodd" fill-opacity="1" /><path clip-path="url(#clip830)" d="M 0 0 M1436.97 1445.17 Q1433.35 1445.17 1431.53 1448.74 Q1429.72 1452.28 1429.72 1459.41 Q1429.72 1466.51 1431.53 1470.08 Q1433.35 1473.62 1436.97 1473.62 Q1440.6 1473.62 1442.41 1470.08 Q1444.23 1466.51 1444.23 1459.41 Q1444.23 1452.28 1442.41 1448.74 Q1440.6 1445.17 1436.97 1445.17 M1436.97 1441.47 Q1442.78 1441.47 1445.83 1446.07 Q1448.91 1450.66 1448.91 1459.41 Q1448.91 1468.13 1445.83 1472.74 Q1442.78 1477.32 1436.97 1477.32 Q1431.16 1477.32 1428.08 1472.74 Q1425.02 1468.13 1425.02 1459.41 Q1425.02 1450.66 1428.08 1446.07 Q1431.16 1441.47 1436.97 1441.47 Z" fill="#000000" fill-rule="evenodd" fill-opacity="1" /><path clip-path="url(#clip830)" d="M 0 0 M1463.98 1445.17 Q1460.37 1445.17 1458.54 1448.74 Q1456.73 1452.28 1456.73 1459.41 Q1456.73 1466.51 1458.54 1470.08 Q1460.37 1473.62 1463.98 1473.62 Q1467.61 1473.62 1469.42 1470.08 Q1471.25 1466.51 1471.25 1459.41 Q1471.25 1452.28 1469.42 1448.74 Q1467.61 1445.17 1463.98 1445.17 M1463.98 1441.47 Q1469.79 1441.47 1472.85 1446.07 Q1475.92 1450.66 1475.92 1459.41 Q1475.92 1468.13 1472.85 1472.74 Q1469.79 1477.32 1463.98 1477.32 Q1458.17 1477.32 1455.09 1472.74 Q1452.04 1468.13 1452.04 1459.41 Q1452.04 1450.66 1455.09 1446.07 Q1458.17 1441.47 1463.98 1441.47 Z" fill="#000000" fill-rule="evenodd" fill-opacity="1" /><path clip-path="url(#clip830)" d="M 0 0 M1985.15 1458.02 Q1988.51 1458.74 1990.38 1461 Q1992.28 1463.27 1992.28 1466.61 Q1992.28 1471.72 1988.76 1474.52 Q1985.24 1477.32 1978.76 1477.32 Q1976.59 1477.32 1974.27 1476.88 Q1971.98 1476.47 1969.53 1475.61 L1969.53 1471.1 Q1971.47 1472.23 1973.79 1472.81 Q1976.1 1473.39 1978.62 1473.39 Q1983.02 1473.39 1985.31 1471.65 Q1987.63 1469.92 1987.63 1466.61 Q1987.63 1463.55 1985.48 1461.84 Q1983.35 1460.1 1979.53 1460.1 L1975.5 1460.1 L1975.5 1456.26 L1979.71 1456.26 Q1983.16 1456.26 1984.99 1454.89 Q1986.82 1453.5 1986.82 1450.91 Q1986.82 1448.25 1984.92 1446.84 Q1983.05 1445.4 1979.53 1445.4 Q1977.61 1445.4 1975.41 1445.82 Q1973.21 1446.24 1970.57 1447.11 L1970.57 1442.95 Q1973.23 1442.21 1975.55 1441.84 Q1977.88 1441.47 1979.94 1441.47 Q1985.27 1441.47 1988.37 1443.9 Q1991.47 1446.3 1991.47 1450.43 Q1991.47 1453.3 1989.83 1455.29 Q1988.18 1457.25 1985.15 1458.02 Z" fill="#000000" fill-rule="evenodd" fill-opacity="1" /><path clip-path="url(#clip830)" d="M 0 0 M2007.35 1445.17 Q2003.74 1445.17 2001.91 1448.74 Q2000.11 1452.28 2000.11 1459.41 Q2000.11 1466.51 2001.91 1470.08 Q2003.74 1473.62 2007.35 1473.62 Q2010.99 1473.62 2012.79 1470.08 Q2014.62 1466.51 2014.62 1459.41 Q2014.62 1452.28 2012.79 1448.74 Q2010.99 1445.17 2007.35 1445.17 M2007.35 1441.47 Q2013.16 1441.47 2016.22 1446.07 Q2019.3 1450.66 2019.3 1459.41 Q2019.3 1468.13 2016.22 1472.74 Q2013.16 1477.32 2007.35 1477.32 Q2001.54 1477.32 1998.46 1472.74 Q1995.41 1468.13 1995.41 1459.41 Q1995.41 1450.66 1998.46 1446.07 Q2001.54 1441.47 2007.35 1441.47 Z" fill="#000000" fill-rule="evenodd" fill-opacity="1" /><path clip-path="url(#clip830)" d="M 0 0 M2034.36 1445.17 Q2030.75 1445.17 2028.92 1448.74 Q2027.12 1452.28 2027.12 1459.41 Q2027.12 1466.51 2028.92 1470.08 Q2030.75 1473.62 2034.36 1473.62 Q2038 1473.62 2039.8 1470.08 Q2041.63 1466.51 2041.63 1459.41 Q2041.63 1452.28 2039.8 1448.74 Q2038 1445.17 2034.36 1445.17 M2034.36 1441.47 Q2040.17 1441.47 2043.23 1446.07 Q2046.31 1450.66 2046.31 1459.41 Q2046.31 1468.13 2043.23 1472.74 Q2040.17 1477.32 2034.36 1477.32 Q2028.55 1477.32 2025.48 1472.74 Q2022.42 1468.13 2022.42 1459.41 Q2022.42 1450.66 2025.48 1446.07 Q2028.55 1441.47 2034.36 1441.47 Z" fill="#000000" fill-rule="evenodd" fill-opacity="1" /><path clip-path="url(#clip830)" d="M 0 0 M138.205 1280.76 Q134.593 1280.76 132.765 1284.33 Q130.959 1287.87 130.959 1295 Q130.959 1302.1 132.765 1305.67 Q134.593 1309.21 138.205 1309.21 Q141.839 1309.21 143.644 1305.67 Q145.473 1302.1 145.473 1295 Q145.473 1287.87 143.644 1284.33 Q141.839 1280.76 138.205 1280.76 M138.205 1277.06 Q144.015 1277.06 147.07 1281.66 Q150.149 1286.25 150.149 1295 Q150.149 1303.72 147.07 1308.33 Q144.015 1312.91 138.205 1312.91 Q132.394 1312.91 129.316 1308.33 Q126.26 1303.72 126.26 1295 Q126.26 1286.25 129.316 1281.66 Q132.394 1277.06 138.205 1277.06 Z" fill="#000000" fill-rule="evenodd" fill-opacity="1" /><path clip-path="url(#clip830)" d="M 0 0 M155.218 1306.36 L160.103 1306.36 L160.103 1312.24 L155.218 1312.24 L155.218 1306.36 Z" fill="#000000" fill-rule="evenodd" fill-opacity="1" /><path clip-path="url(#clip830)" d="M 0 0 M175.172 1280.76 Q171.561 1280.76 169.732 1284.33 Q167.927 1287.87 167.927 1295 Q167.927 1302.1 169.732 1305.67 Q171.561 1309.21 175.172 1309.21 Q178.806 1309.21 180.612 1305.67 Q182.44 1302.1 182.44 1295 Q182.44 1287.87 180.612 1284.33 Q178.806 1280.76 175.172 1280.76 M175.172 1277.06 Q180.982 1277.06 184.038 1281.66 Q187.116 1286.25 187.116 1295 Q187.116 1303.72 184.038 1308.33 Q180.982 1312.91 175.172 1312.91 Q169.362 1312.91 166.283 1308.33 Q163.228 1303.72 163.228 1295 Q163.228 1286.25 166.283 1281.66 Q169.362 1277.06 175.172 1277.06 Z" fill="#000000" fill-rule="evenodd" fill-opacity="1" /><path clip-path="url(#clip830)" d="M 0 0 M202.186 1280.76 Q198.575 1280.76 196.746 1284.33 Q194.94 1287.87 194.94 1295 Q194.94 1302.1 196.746 1305.67 Q198.575 1309.21 202.186 1309.21 Q205.82 1309.21 207.625 1305.67 Q209.454 1302.1 209.454 1295 Q209.454 1287.87 207.625 1284.33 Q205.82 1280.76 202.186 1280.76 M202.186 1277.06 Q207.996 1277.06 211.051 1281.66 Q214.13 1286.25 214.13 1295 Q214.13 1303.72 211.051 1308.33 Q207.996 1312.91 202.186 1312.91 Q196.376 1312.91 193.297 1308.33 Q190.241 1303.72 190.241 1295 Q190.241 1286.25 193.297 1281.66 Q196.376 1277.06 202.186 1277.06 Z" fill="#000000" fill-rule="evenodd" fill-opacity="1" /><path clip-path="url(#clip830)" d="M 0 0 M140.797 999.133 Q137.186 999.133 135.357 1002.7 Q133.552 1006.24 133.552 1013.37 Q133.552 1020.48 135.357 1024.04 Q137.186 1027.58 140.797 1027.58 Q144.431 1027.58 146.237 1024.04 Q148.066 1020.48 148.066 1013.37 Q148.066 1006.24 146.237 1002.7 Q144.431 999.133 140.797 999.133 M140.797 995.429 Q146.607 995.429 149.663 1000.04 Q152.741 1004.62 152.741 1013.37 Q152.741 1022.1 149.663 1026.7 Q146.607 1031.29 140.797 1031.29 Q134.987 1031.29 131.908 1026.7 Q128.853 1022.1 128.853 1013.37 Q128.853 1004.62 131.908 1000.04 Q134.987 995.429 140.797 995.429 Z" fill="#000000" fill-rule="evenodd" fill-opacity="1" /><path clip-path="url(#clip830)" d="M 0 0 M157.811 1024.73 L162.695 1024.73 L162.695 1030.61 L157.811 1030.61 L157.811 1024.73 Z" fill="#000000" fill-rule="evenodd" fill-opacity="1" /><path clip-path="url(#clip830)" d="M 0 0 M171.792 1026.68 L188.112 1026.68 L188.112 1030.61 L166.167 1030.61 L166.167 1026.68 Q168.829 1023.92 173.413 1019.29 Q178.019 1014.64 179.2 1013.3 Q181.445 1010.78 182.325 1009.04 Q183.227 1007.28 183.227 1005.59 Q183.227 1002.84 181.283 1001.1 Q179.362 999.364 176.26 999.364 Q174.061 999.364 171.607 1000.13 Q169.177 1000.89 166.399 1002.44 L166.399 997.721 Q169.223 996.587 171.677 996.008 Q174.13 995.429 176.167 995.429 Q181.538 995.429 184.732 998.114 Q187.926 1000.8 187.926 1005.29 Q187.926 1007.42 187.116 1009.34 Q186.329 1011.24 184.223 1013.83 Q183.644 1014.5 180.542 1017.72 Q177.44 1020.92 171.792 1026.68 Z" fill="#000000" fill-rule="evenodd" fill-opacity="1" /><path clip-path="url(#clip830)" d="M 0 0 M193.227 996.054 L211.584 996.054 L211.584 999.989 L197.51 999.989 L197.51 1008.46 Q198.528 1008.11 199.547 1007.95 Q200.565 1007.77 201.584 1007.77 Q207.371 1007.77 210.75 1010.94 Q214.13 1014.11 214.13 1019.53 Q214.13 1025.1 210.658 1028.21 Q207.186 1031.29 200.866 1031.29 Q198.69 1031.29 196.422 1030.92 Q194.176 1030.54 191.769 1029.8 L191.769 1025.1 Q193.852 1026.24 196.075 1026.79 Q198.297 1027.35 200.774 1027.35 Q204.778 1027.35 207.116 1025.24 Q209.454 1023.14 209.454 1019.53 Q209.454 1015.92 207.116 1013.81 Q204.778 1011.7 200.774 1011.7 Q198.899 1011.7 197.024 1012.12 Q195.172 1012.54 193.227 1013.42 L193.227 996.054 Z" fill="#000000" fill-rule="evenodd" fill-opacity="1" /><path clip-path="url(#clip830)" d="M 0 0 M139.2 717.505 Q135.589 717.505 133.76 721.07 Q131.955 724.612 131.955 731.741 Q131.955 738.848 133.76 742.412 Q135.589 745.954 139.2 745.954 Q142.834 745.954 144.64 742.412 Q146.468 738.848 146.468 731.741 Q146.468 724.612 144.64 721.07 Q142.834 717.505 139.2 717.505 M139.2 713.801 Q145.01 713.801 148.066 718.408 Q151.144 722.991 151.144 731.741 Q151.144 740.468 148.066 745.074 Q145.01 749.658 139.2 749.658 Q133.39 749.658 130.311 745.074 Q127.256 740.468 127.256 731.741 Q127.256 722.991 130.311 718.408 Q133.39 713.801 139.2 713.801 Z" fill="#000000" fill-rule="evenodd" fill-opacity="1" /><path clip-path="url(#clip830)" d="M 0 0 M156.214 743.107 L161.098 743.107 L161.098 748.986 L156.214 748.986 L156.214 743.107 Z" fill="#000000" fill-rule="evenodd" fill-opacity="1" /><path clip-path="url(#clip830)" d="M 0 0 M166.214 714.426 L184.57 714.426 L184.57 718.362 L170.496 718.362 L170.496 726.834 Q171.515 726.487 172.533 726.325 Q173.552 726.139 174.57 726.139 Q180.357 726.139 183.737 729.311 Q187.116 732.482 187.116 737.899 Q187.116 743.477 183.644 746.579 Q180.172 749.658 173.852 749.658 Q171.677 749.658 169.408 749.287 Q167.163 748.917 164.755 748.176 L164.755 743.477 Q166.839 744.611 169.061 745.167 Q171.283 745.723 173.76 745.723 Q177.765 745.723 180.102 743.616 Q182.44 741.51 182.44 737.899 Q182.44 734.287 180.102 732.181 Q177.765 730.074 173.76 730.074 Q171.885 730.074 170.01 730.491 Q168.158 730.908 166.214 731.787 L166.214 714.426 Z" fill="#000000" fill-rule="evenodd" fill-opacity="1" /><path clip-path="url(#clip830)" d="M 0 0 M202.186 717.505 Q198.575 717.505 196.746 721.07 Q194.94 724.612 194.94 731.741 Q194.94 738.848 196.746 742.412 Q198.575 745.954 202.186 745.954 Q205.82 745.954 207.625 742.412 Q209.454 738.848 209.454 731.741 Q209.454 724.612 207.625 721.07 Q205.82 717.505 202.186 717.505 M202.186 713.801 Q207.996 713.801 211.051 718.408 Q214.13 722.991 214.13 731.741 Q214.13 740.468 211.051 745.074 Q207.996 749.658 202.186 749.658 Q196.376 749.658 193.297 745.074 Q190.241 740.468 190.241 731.741 Q190.241 722.991 193.297 718.408 Q196.376 713.801 202.186 713.801 Z" fill="#000000" fill-rule="evenodd" fill-opacity="1" /><path clip-path="url(#clip830)" d="M 0 0 M140.103 435.877 Q136.492 435.877 134.663 439.442 Q132.857 442.984 132.857 450.113 Q132.857 457.22 134.663 460.785 Q136.492 464.326 140.103 464.326 Q143.737 464.326 145.542 460.785 Q147.371 457.22 147.371 450.113 Q147.371 442.984 145.542 439.442 Q143.737 435.877 140.103 435.877 M140.103 432.174 Q145.913 432.174 148.968 436.78 Q152.047 441.363 152.047 450.113 Q152.047 458.84 148.968 463.447 Q145.913 468.03 140.103 468.03 Q134.293 468.03 131.214 463.447 Q128.158 458.84 128.158 450.113 Q128.158 441.363 131.214 436.78 Q134.293 432.174 140.103 432.174 Z" fill="#000000" fill-rule="evenodd" fill-opacity="1" /><path clip-path="url(#clip830)" d="M 0 0 M157.116 461.479 L162.001 461.479 L162.001 467.359 L157.116 467.359 L157.116 461.479 Z" fill="#000000" fill-rule="evenodd" fill-opacity="1" /><path clip-path="url(#clip830)" d="M 0 0 M165.89 432.799 L188.112 432.799 L188.112 434.789 L175.565 467.359 L170.681 467.359 L182.487 436.734 L165.89 436.734 L165.89 432.799 Z" fill="#000000" fill-rule="evenodd" fill-opacity="1" /><path clip-path="url(#clip830)" d="M 0 0 M193.227 432.799 L211.584 432.799 L211.584 436.734 L197.51 436.734 L197.51 445.206 Q198.528 444.859 199.547 444.697 Q200.565 444.512 201.584 444.512 Q207.371 444.512 210.75 447.683 Q214.13 450.854 214.13 456.271 Q214.13 461.849 210.658 464.951 Q207.186 468.03 200.866 468.03 Q198.69 468.03 196.422 467.66 Q194.176 467.289 191.769 466.548 L191.769 461.849 Q193.852 462.984 196.075 463.539 Q198.297 464.095 200.774 464.095 Q204.778 464.095 207.116 461.988 Q209.454 459.882 209.454 456.271 Q209.454 452.66 207.116 450.553 Q204.778 448.447 200.774 448.447 Q198.899 448.447 197.024 448.863 Q195.172 449.28 193.227 450.16 L193.227 432.799 Z" fill="#000000" fill-rule="evenodd" fill-opacity="1" /><path clip-path="url(#clip830)" d="M 0 0 M130.242 181.796 L137.88 181.796 L137.88 155.43 L129.57 157.097 L129.57 152.838 L137.834 151.171 L142.51 151.171 L142.51 181.796 L150.149 181.796 L150.149 185.731 L130.242 185.731 L130.242 181.796 Z" fill="#000000" fill-rule="evenodd" fill-opacity="1" /><path clip-path="url(#clip830)" d="M 0 0 M155.218 179.851 L160.103 179.851 L160.103 185.731 L155.218 185.731 L155.218 179.851 Z" fill="#000000" fill-rule="evenodd" fill-opacity="1" /><path clip-path="url(#clip830)" d="M 0 0 M175.172 154.25 Q171.561 154.25 169.732 157.814 Q167.927 161.356 167.927 168.486 Q167.927 175.592 169.732 179.157 Q171.561 182.699 175.172 182.699 Q178.806 182.699 180.612 179.157 Q182.44 175.592 182.44 168.486 Q182.44 161.356 180.612 157.814 Q178.806 154.25 175.172 154.25 M175.172 150.546 Q180.982 150.546 184.038 155.152 Q187.116 159.736 187.116 168.486 Q187.116 177.212 184.038 181.819 Q180.982 186.402 175.172 186.402 Q169.362 186.402 166.283 181.819 Q163.228 177.212 163.228 168.486 Q163.228 159.736 166.283 155.152 Q169.362 150.546 175.172 150.546 Z" fill="#000000" fill-rule="evenodd" fill-opacity="1" /><path clip-path="url(#clip830)" d="M 0 0 M202.186 154.25 Q198.575 154.25 196.746 157.814 Q194.94 161.356 194.94 168.486 Q194.94 175.592 196.746 179.157 Q198.575 182.699 202.186 182.699 Q205.82 182.699 207.625 179.157 Q209.454 175.592 209.454 168.486 Q209.454 161.356 207.625 157.814 Q205.82 154.25 202.186 154.25 M202.186 150.546 Q207.996 150.546 211.051 155.152 Q214.13 159.736 214.13 168.486 Q214.13 177.212 211.051 181.819 Q207.996 186.402 202.186 186.402 Q196.376 186.402 193.297 181.819 Q190.241 177.212 190.241 168.486 Q190.241 159.736 193.297 155.152 Q196.376 150.546 202.186 150.546 Z" fill="#000000" fill-rule="evenodd" fill-opacity="1" /><path clip-path="url(#clip830)" d="M 0 0 M1312.06 1520.4 L1299.17 1537.74 L1312.73 1556.04 L1305.82 1556.04 L1295.44 1542.04 L1285.07 1556.04 L1278.16 1556.04 L1292.01 1537.39 L1279.34 1520.4 L1286.24 1520.4 L1295.7 1533.1 L1305.15 1520.4 L1312.06 1520.4 Z" fill="#000000" fill-rule="evenodd" fill-opacity="1" /><path clip-path="url(#clip830)" d="M 0 0 M70.212 745.095 Q76.6732 745.095 80.3653 742.453 Q84.0256 739.779 84.0256 735.132 Q84.0256 730.485 80.3653 727.812 Q76.6732 725.138 70.212 725.138 Q63.7508 725.138 60.0905 727.812 Q56.3984 730.485 56.3984 735.132 Q56.3984 739.779 60.0905 742.453 Q63.7508 745.095 70.212 745.095 M82.657 725.138 Q85.8398 726.984 87.3994 729.817 Q88.9272 732.618 88.9272 736.565 Q88.9272 743.026 83.771 747.1 Q78.6147 751.142 70.212 751.142 Q61.8093 751.142 56.6531 747.1 Q51.4968 743.026 51.4968 736.565 Q51.4968 732.618 53.0564 729.817 Q54.5842 726.984 57.7671 725.138 L52.3562 725.138 L52.3562 719.282 L101.563 719.282 L101.563 725.138 L82.657 725.138 Z" fill="#000000" fill-rule="evenodd" fill-opacity="1" /><polyline clip-path="url(#clip832)" style="stroke:#009af9; stroke-width:4; stroke-opacity:1; fill:none" points="
  297.978,1294.96 300.669,1294.96 305.771,1294.96 310.872,1294.96 313.563,1294.96 316.255,1294.96 321.356,1294.96 326.458,1294.96 329.149,1294.96 
  331.84,1294.96 336.941,1294.96 342.043,1294.96 344.734,1294.96 347.425,1294.96 352.527,1294.96 357.628,1294.96 360.32,1294.96 
  363.011,1294.96 368.112,1294.96 373.214,1294.96 375.905,1294.96 378.596,1294.96 383.698,1294.96 388.799,1294.96 391.49,1294.96 
  394.181,1294.96 399.283,1294.96 404.385,1294.96 407.076,1294.96 409.767,1294.96 414.868,1294.96 419.97,1294.96 422.661,1294.96 
  425.352,1294.96 430.454,1294.96 435.555,1294.96 438.246,1294.96 440.938,1294.96 446.039,1294.96 451.141,1294.96 453.832,1294.96 
  456.523,1294.96 461.625,1294.96 466.726,1294.96 469.417,1294.96 472.108,1294.96 477.21,1294.96 482.311,1294.96 485.003,1294.96 
  487.694,1294.96 492.795,1294.96 497.897,1294.96 500.588,1294.96 503.279,1294.96 508.381,1294.96 513.482,1294.96 516.173,1294.96 
  518.865,1294.96 523.966,1294.96 529.068,1294.96 531.759,1294.96 534.45,1294.96 539.552,1294.96 544.653,1294.96 547.344,1294.96 
  550.035,1294.96 555.137,1294.96 560.238,1294.96 562.93,1294.96 565.621,1294.96 570.722,1294.96 575.824,1294.96 578.515,1294.96 
  581.206,1294.96 586.308,1294.96 591.409,1294.96 594.1,1294.96 596.792,1294.96 601.893,1294.96 606.995,1294.96 609.686,1294.96 
  612.377,1294.96 617.478,1294.96 622.58,1294.96 625.271,1294.96 627.962,1294.96 633.064,1294.96 638.165,1294.96 640.857,1294.96 
  643.548,1294.96 648.649,1294.96 653.751,1294.96 656.442,1294.96 659.133,1294.96 664.235,1294.96 669.336,1294.96 672.027,1294.96 
  674.719,1294.96 679.82,1294.96 684.922,1294.96 687.613,1294.96 690.304,1294.96 695.405,1294.96 700.507,1294.96 703.198,1294.96 
  705.889,1294.96 710.991,1294.96 716.092,1294.96 718.784,1294.96 721.475,1294.96 726.576,168.451 731.678,168.451 734.369,168.451 
  737.06,168.451 742.162,168.451 747.263,168.451 749.954,168.451 752.645,168.451 757.747,168.451 762.849,168.451 765.54,168.451 
  768.231,168.451 773.332,168.451 778.434,168.451 781.125,168.451 783.816,168.451 788.918,168.451 794.019,168.451 796.71,168.451 
  799.402,168.451 804.503,168.451 809.605,168.451 812.296,168.451 814.987,168.451 820.089,168.451 825.19,168.451 827.881,168.451 
  830.572,168.451 835.674,168.451 840.775,168.451 843.467,168.451 846.158,168.451 851.259,168.451 856.361,168.451 859.052,168.451 
  861.743,168.451 866.845,168.451 871.946,168.451 874.637,168.451 877.329,168.451 882.43,168.451 887.532,168.451 890.223,168.451 
  892.914,168.451 898.016,168.451 903.117,168.451 905.808,168.451 908.499,168.451 913.601,168.451 918.702,168.451 921.394,168.451 
  924.085,168.451 929.186,168.451 934.288,168.451 936.979,168.451 939.67,168.451 944.772,168.451 949.873,168.451 952.564,168.451 
  955.256,168.451 960.357,168.451 965.459,168.451 968.15,168.451 970.841,168.451 975.942,168.451 981.044,168.451 983.735,168.451 
  986.426,168.451 991.528,168.451 996.629,168.451 999.321,168.451 1002.01,168.451 1007.11,168.451 1012.21,1294.96 1014.91,1294.96 
  1017.6,1294.96 1022.7,1294.96 1027.8,1294.96 1030.49,1294.96 1033.18,1294.96 1038.28,1294.96 1043.39,1294.96 1046.08,1294.96 
  1048.77,1294.96 1053.87,1294.96 1058.97,1294.96 1061.66,1294.96 1064.35,1294.96 1069.45,1294.96 1074.56,1294.96 1077.25,1294.96 
  1079.94,1294.96 1085.04,1294.96 1090.14,1294.96 1092.83,1294.96 1095.52,1294.96 1100.63,1294.96 1105.73,1294.96 1108.42,1294.96 
  1111.11,1294.96 1116.21,1294.96 1121.31,1294.96 1124,1294.96 1126.69,1294.96 1131.8,1294.96 1136.9,1294.96 1139.59,1294.96 
  1142.28,1294.96 1147.38,1294.96 1152.48,1294.96 1155.17,1294.96 1157.87,1294.96 1162.97,1294.96 1168.07,1294.96 1170.76,1294.96 
  1173.45,1294.96 1178.55,1294.96 1183.65,1294.96 1186.35,1294.96 1189.04,1294.96 1194.14,1294.96 1199.24,1294.96 1201.93,1294.96 
  1204.62,1294.96 1209.72,1294.96 1214.82,1294.96 1217.52,1294.96 1220.21,1294.96 1225.31,1294.96 1230.41,1294.96 1233.1,1294.96 
  1235.79,1294.96 1240.89,1294.96 1246,1294.96 1248.69,1294.96 1251.38,1294.96 1256.48,1294.96 1261.58,1294.96 1264.27,1294.96 
  1266.96,1294.96 1272.06,1294.96 1277.17,1294.96 1279.86,1294.96 1282.55,1294.96 1287.65,1294.96 1292.75,1294.96 1295.44,1294.96 
  1298.13,1294.96 1303.24,1294.96 1308.34,1294.96 1311.03,1294.96 1313.72,1294.96 1318.82,1294.96 1323.92,1294.96 1326.61,1294.96 
  1329.3,1294.96 1334.41,1294.96 1339.51,1294.96 1342.2,1294.96 1344.89,1294.96 1349.99,1294.96 1355.09,1294.96 1357.78,1294.96 
  1360.48,1294.96 1365.58,1294.96 1370.68,1294.96 1373.37,1294.96 1376.06,1294.96 1381.16,1294.96 1386.26,1294.96 1388.96,1294.96 
  1391.65,1294.96 1396.75,1294.96 1401.85,1294.96 1404.54,1294.96 1407.23,1294.96 1412.33,1294.96 1417.43,1294.96 1420.13,1294.96 
  1422.82,1294.96 1427.92,1294.96 1433.02,1294.96 1435.71,1294.96 1438.4,1294.96 1443.5,1294.96 1448.61,1294.96 1451.3,1294.96 
  1453.99,1294.96 1459.09,1294.96 1464.19,1294.96 1466.88,1294.96 1469.57,1294.96 1474.67,1294.96 1479.78,1294.96 1482.47,1294.96 
  1485.16,1294.96 1490.26,1294.96 1495.36,1294.96 1498.05,1294.96 1500.74,1294.96 1505.85,1294.96 1510.95,1294.96 1513.64,1294.96 
  1516.33,1294.96 1521.43,1294.96 1526.53,1294.96 1529.22,1294.96 1531.92,1294.96 1537.02,1294.96 1542.12,1294.96 1544.81,1294.96 
  1547.5,1294.96 1552.6,1294.96 1557.7,1294.96 1560.39,1294.96 1563.09,1294.96 1568.19,1294.96 1573.29,1294.96 1575.98,1294.96 
  1578.67,1294.96 1583.77,1294.96 1588.87,1294.96 1591.57,1294.96 1594.26,1294.96 1599.36,1294.96 1604.46,1294.96 1607.15,1294.96 
  1609.84,1294.96 1614.94,1294.96 1620.05,1294.96 1622.74,1294.96 1625.43,1294.96 1630.53,1294.96 1635.63,1294.96 1638.32,1294.96 
  1641.01,1294.96 1646.11,1294.96 1651.22,1294.96 1653.91,1294.96 1656.6,1294.96 1661.7,1294.96 1666.8,1294.96 1669.49,1294.96 
  1672.18,1294.96 1677.29,1294.96 1682.39,1294.96 1685.08,1294.96 1687.77,1294.96 1692.87,1294.96 1697.97,1294.96 1700.66,1294.96 
  1703.35,1294.96 1708.46,1294.96 1713.56,1294.96 1716.25,1294.96 1718.94,1294.96 1724.04,1294.96 1729.14,1294.96 1731.83,1294.96 
  1734.53,1294.96 1739.63,1294.96 1744.73,1294.96 1747.42,1294.96 1750.11,1294.96 1755.21,1294.96 1760.31,1294.96 1763,1294.96 
  1765.7,1294.96 1770.8,1294.96 1775.9,1294.96 1778.59,1294.96 1781.28,1294.96 1786.38,1294.96 1791.48,1294.96 1794.18,1294.96 
  1796.87,1294.96 1801.97,1294.96 1807.07,1294.96 1809.76,1294.96 1812.45,1294.96 1817.55,1294.96 1822.66,1294.96 1825.35,1294.96 
  1828.04,1294.96 1833.14,1294.96 1838.24,1294.96 1840.93,1294.96 1843.62,1294.96 1848.72,1294.96 1853.83,1294.96 1856.52,1294.96 
  1859.21,1294.96 1864.31,1294.96 1869.41,1294.96 1872.1,1294.96 1874.79,1294.96 1879.9,1294.96 1885,1294.96 1887.69,1294.96 
  1890.38,1294.96 1895.48,1294.96 1900.58,1294.96 1903.27,1294.96 1905.96,1294.96 1911.07,1294.96 1916.17,1294.96 1918.86,1294.96 
  1921.55,1294.96 1926.65,1294.96 1931.75,1294.96 1934.44,1294.96 1937.14,1294.96 1942.24,1294.96 1947.34,1294.96 1950.03,1294.96 
  1952.72,1294.96 1957.82,1294.96 1962.92,1294.96 1965.61,1294.96 1968.31,1294.96 1973.41,1294.96 1978.51,1294.96 1981.2,1294.96 
  1983.89,1294.96 1988.99,1294.96 1994.09,1294.96 1996.79,1294.96 1999.48,1294.96 2004.58,1294.96 2009.68,1294.96 2012.37,1294.96 
  2015.06,1294.96 2020.16,1294.96 2025.27,1294.96 2027.96,1294.96 2030.65,1294.96 2035.75,1294.96 2040.85,1294.96 2043.54,1294.96 
  2046.23,1294.96 2051.33,1294.96 2056.44,1294.96 2059.13,1294.96 2061.82,1294.96 2066.92,1294.96 2072.02,1294.96 2074.71,1294.96 
  2077.4,1294.96 2082.51,1294.96 2087.61,1294.96 2090.3,1294.96 2092.99,1294.96 2098.09,1294.96 2103.19,1294.96 2105.88,1294.96 
  2108.57,1294.96 2113.68,1294.96 2118.78,1294.96 2121.47,1294.96 2124.16,1294.96 2129.26,1294.96 2134.36,1294.96 2137.05,1294.96 
  2139.75,1294.96 2144.85,1294.96 2149.95,1294.96 2152.64,1294.96 2155.33,1294.96 2160.43,1294.96 2165.53,1294.96 2168.22,1294.96 
  2170.92,1294.96 2176.02,1294.96 2181.12,1294.96 2183.81,1294.96 2186.5,1294.96 2191.6,1294.96 2196.7,1294.96 2199.4,1294.96 
  2202.09,1294.96 2207.19,1294.96 2212.29,1294.96 2214.98,1294.96 2217.67,1294.96 2222.77,1294.96 2227.88,1294.96 2230.57,1294.96 
  2233.26,1294.96 2238.36,1294.96 2243.46,1294.96 2246.15,1294.96 2248.84,1294.96 2253.94,1294.96 2259.05,1294.96 2261.74,1294.96 
  2264.43,1294.96 2269.53,1294.96 2274.63,1294.96 2277.32,1294.96 2280.01,1294.96 2285.12,1294.96 2290.22,1294.96 2292.91,1294.96 
  
  "/>
<polyline clip-path="url(#clip832)" style="stroke:#e26f46; stroke-width:4; stroke-opacity:1; fill:none" points="
  297.978,1294.96 300.669,1294.96 305.771,1294.96 310.872,1294.96 313.563,1294.96 316.255,1294.96 321.356,1294.96 326.458,1294.96 329.149,1294.96 
  331.84,1294.96 336.941,1294.96 342.043,1294.96 344.734,1294.96 347.425,1294.96 352.527,1294.96 357.628,1294.96 360.32,1294.96 
  363.011,1294.96 368.112,1294.96 373.214,1294.96 375.905,1294.96 378.596,1294.96 383.698,1294.96 388.799,1294.96 391.49,1294.96 
  394.181,1294.96 399.283,1294.96 404.385,1294.96 407.076,1294.96 409.767,1294.96 414.868,1294.96 419.97,1294.96 422.661,1294.96 
  425.352,1294.96 430.454,1294.96 435.555,1294.96 438.246,1294.96 440.938,1294.96 446.039,1294.96 451.141,1294.96 453.832,1294.96 
  456.523,1294.96 461.625,1294.96 466.726,1294.96 469.417,1294.96 472.108,1294.96 477.21,1294.96 482.311,1294.96 485.003,1294.96 
  487.694,1294.96 492.795,1294.96 497.897,1294.96 500.588,1294.96 503.279,1294.96 508.381,1294.96 513.482,1294.96 516.173,1294.96 
  518.865,1294.96 523.966,1294.96 529.068,1294.96 531.759,1294.96 534.45,1294.96 539.552,1294.96 544.653,1294.96 547.344,1294.96 
  550.035,1294.96 555.137,1294.96 560.238,1294.96 562.93,1294.96 565.621,1294.96 570.722,1294.96 575.824,1294.96 578.515,1294.96 
  581.206,1294.96 586.308,1294.96 591.409,1294.96 594.1,1294.96 596.792,1294.96 601.893,1294.96 606.995,1294.96 609.686,1294.96 
  612.377,1294.96 617.478,1294.96 622.58,1294.96 625.271,1294.96 627.962,1294.96 633.064,1294.96 638.165,1294.96 640.857,1294.96 
  643.548,1294.96 648.649,1294.96 653.751,1294.96 656.442,1294.96 659.133,1294.96 664.235,1294.96 669.336,1294.96 672.027,1294.96 
  674.719,1294.96 679.82,1294.96 684.922,1294.96 687.613,1294.96 690.304,1294.96 695.405,1294.96 700.507,1294.96 703.198,1294.96 
  705.889,1294.96 710.991,1294.96 716.092,1294.96 718.784,1294.96 721.475,1294.96 726.576,1294.96 731.678,1294.96 734.369,1294.96 
  737.06,1294.96 742.162,1294.96 747.263,1294.96 749.954,1294.96 752.645,1294.96 757.747,1294.96 762.849,1294.96 765.54,1294.96 
  768.231,1294.96 773.332,1294.96 778.434,1294.96 781.125,1294.96 781.125,1294.96 783.816,1294.96 788.918,1294.96 794.019,1294.96 796.71,1294.96 
  799.402,1294.96 804.503,1294.96 809.605,1294.96 812.296,1294.96 812.296,1294.96 814.987,1294.96 820.089,1294.96 825.19,1294.96 827.881,1294.96 
  827.881,1294.96 830.572,1294.96 835.674,1294.96 840.775,1294.96 843.467,1294.96 843.467,1294.96 846.158,1294.96 851.259,1294.96 856.361,1294.96 859.052,1294.96 
  859.052,1294.96 861.743,1294.96 866.845,1294.96 871.946,1294.96 874.637,1294.96 874.637,1294.96 877.329,1294.96 882.43,1294.96 887.532,1294.96 890.223,1294.96 
  890.223,1294.96 892.914,1294.96 898.016,1294.96 903.117,1294.96 905.808,1294.96 905.808,1294.96 908.499,1294.96 913.601,1294.96 918.702,1294.96 921.394,1294.96 
  921.394,1294.96 924.085,1294.96 929.186,1294.96 934.288,1294.96 936.979,1294.96 936.979,1294.96 939.67,1294.96 944.772,1294.96 949.873,1294.96 952.564,1294.96 
  952.564,1294.96 955.256,1294.96 960.357,1294.96 965.459,1294.96 968.15,1294.96 968.15,1294.96 970.841,1294.96 975.942,1294.96 981.044,1294.96 983.735,1294.96 
  983.735,1294.96 986.426,1294.96 991.528,1294.96 996.629,1294.96 999.321,1294.96 999.321,1294.96 1002.01,1294.96 1007.11,1294.96 1012.21,1294.96 1014.91,1294.96 
  1014.91,1294.96 1017.6,1294.96 1022.7,1294.96 1027.8,1294.96 1030.49,1294.96 1030.49,1294.96 1033.18,1294.96 1038.28,1294.96 1043.39,1294.96 1046.08,1294.96 
  1046.08,1294.96 1048.77,1294.96 1053.87,1294.96 1058.97,1294.96 1061.66,1294.96 1061.66,1294.96 1064.35,1294.96 1069.45,1294.96 1074.56,1294.96 1077.25,1294.96 
  1077.25,1294.96 1079.94,1294.96 1085.04,1294.96 1090.14,1294.96 1092.83,1294.96 1092.83,1294.96 1095.52,1294.96 1100.63,1294.96 1105.73,1294.96 1108.42,1294.97 
  1108.42,1294.96 1111.11,1294.97 1116.21,1294.97 1121.31,1294.96 1124,1294.96 1124,1294.96 1126.69,1294.95 1131.8,1294.95 1136.9,1294.96 1139.59,1294.97 
  1139.59,1294.96 1142.28,1294.98 1147.38,1295 1152.48,1295 1155.17,1294.98 1155.17,1294.99 1157.87,1294.95 1162.97,1294.87 1168.07,1294.82 1170.76,1294.82 
  1170.76,1294.8 1173.45,1294.88 1178.55,1295.09 1183.65,1295.32 1186.35,1295.44 1186.35,1295.44 1189.04,1295.42 1194.14,1295.09 1199.24,1294.4 1201.93,1293.91 
  1201.93,1294.04 1204.62,1293.57 1209.72,1293.53 1214.82,1294.72 1217.52,1295.89 1217.52,1295.42 1220.21,1297.3 1225.31,1299.56 1230.41,1299.47 1233.1,1298.22 
  1233.1,1299 1235.79,1295.1 1240.89,1287.11 1246,1279.53 1248.69,1276.18 1248.69,1276.52 1251.38,1277.48 1256.48,1289.33 1261.58,1313.68 1264.27,1331.31 
  1264.27,1325.56 1266.96,1348.29 1272.06,1366.76 1277.17,1347.45 1279.86,1319.8 1279.86,1320.94 1282.55,1266.59 1287.65,1117.72 1292.75,914.012 1295.44,786.558 
  1295.44,796.079 1298.13,659.769 1303.24,431.564 1308.34,249.546 1311.03,174.82 1311.03,172.833 1313.72,128.271 1318.82,86.1857 1323.92,93.3891 1326.61,114.546 
  1326.61,109.556 1329.3,133.673 1334.41,169.261 1339.51,190.082 1342.2,194.509 1342.2,195.843 1344.89,192.346 1349.99,182.554 1355.09,170.684 1357.78,164.418 
  1357.78,164.595 1360.48,161.979 1365.58,160.825 1370.68,163.749 1373.37,166.569 1373.37,166.231 1376.06,168.41 1381.16,170.768 1386.26,170.971 1388.96,170.277 
  1388.96,170.455 1391.65,169.485 1396.75,168.153 1401.85,167.543 1404.54,167.537 1404.54,167.474 1407.23,167.78 1412.33,168.309 1417.43,168.695 1420.13,168.81 
  1420.13,168.828 1422.82,168.758 1427.92,168.578 1433.02,168.383 1435.71,168.294 1435.71,168.29 1438.4,168.298 1443.5,168.382 1448.61,168.525 1451.3,168.612 
  1451.3,168.604 1453.99,168.638 1459.09,168.578 1464.19,168.364 1466.88,168.193 1466.88,168.244 1469.57,168.056 1474.67,167.958 1479.78,168.254 1482.47,168.592 
  1482.47,168.438 1485.16,169.042 1490.26,169.836 1495.36,169.949 1498.05,169.644 1498.05,169.909 1500.74,168.734 1505.85,166.285 1510.95,164.012 1513.64,163.07 
  1513.64,163.067 1516.33,163.646 1521.43,167.687 1526.53,175.312 1529.22,180.67 1529.22,179.218 1531.92,184.654 1537.02,186.648 1542.12,176.571 1544.81,165.912 
  1544.81,169.902 1547.5,149.782 1552.6,117.588 1557.7,98.2709 1560.39,95.3209 1560.39,98.6756 1563.09,111.591 1568.19,186.724 1573.29,327.972 1575.98,429.042 
  1575.98,420.13 1578.67,545.526 1583.77,783.362 1588.87,1011.99 1591.57,1125.11 1591.57,1122.13 1594.26,1211.92 1599.36,1328.58 1604.46,1377.93 1607.15,1377.98 
  1607.15,1384.24 1609.84,1367.83 1614.94,1332.72 1620.05,1297.16 1622.74,1280.15 1622.74,1280.39 1625.43,1273.41 1630.53,1270.67 1635.63,1279.28 1638.32,1287.44 
  1638.32,1286.39 1641.01,1293.16 1646.11,1301.1 1651.22,1302.91 1653.91,1301.52 1653.91,1302.06 1656.6,1299.39 1661.7,1295.27 1666.8,1292.72 1669.49,1292.15 
  1669.49,1292 1672.18,1292.53 1677.29,1293.81 1682.39,1295.15 1685.08,1295.77 1685.08,1295.77 1687.77,1295.86 1692.87,1295.67 1697.97,1295.17 1700.66,1294.85 
  1700.66,1294.86 1703.35,1294.72 1708.46,1294.65 1713.56,1294.79 1716.25,1294.92 1716.25,1294.91 1718.94,1295 1724.04,1295.07 1729.14,1295.05 1731.83,1295 
  1731.83,1295.01 1734.53,1294.97 1739.63,1294.93 1744.73,1294.92 1747.42,1294.94 1747.42,1294.94 1750.11,1294.95 1755.21,1294.97 1760.31,1294.98 1763,1294.97 
  1763,1294.97 1765.7,1294.97 1770.8,1294.96 1775.9,1294.96 1778.59,1294.96 1778.59,1294.96 1781.28,1294.96 1786.38,1294.96 1791.48,1294.96 1794.18,1294.96 
  1794.18,1294.96 1796.87,1294.96 1801.97,1294.96 1807.07,1294.96 1809.76,1294.96 1809.76,1294.96 1812.45,1294.96 1817.55,1294.96 1822.66,1294.96 1825.35,1294.96 
  1825.35,1294.96 1828.04,1294.96 1833.14,1294.96 1838.24,1294.96 1840.93,1294.96 1840.93,1294.96 1843.62,1294.96 1848.72,1294.96 1853.83,1294.96 1856.52,1294.96 
  1856.52,1294.96 1859.21,1294.96 1864.31,1294.96 1869.41,1294.96 1872.1,1294.96 1872.1,1294.96 1874.79,1294.96 1879.9,1294.96 1885,1294.96 1887.69,1294.96 
  1887.69,1294.96 1890.38,1294.96 1895.48,1294.96 1900.58,1294.96 1903.27,1294.96 1903.27,1294.96 1905.96,1294.96 1911.07,1294.96 1916.17,1294.96 1918.86,1294.96 
  1918.86,1294.96 1921.55,1294.96 1926.65,1294.96 1931.75,1294.96 1934.44,1294.96 1934.44,1294.96 1937.14,1294.96 1942.24,1294.96 1947.34,1294.96 1950.03,1294.96 
  1950.03,1294.96 1952.72,1294.96 1957.82,1294.96 1962.92,1294.96 1965.61,1294.96 1965.61,1294.96 1968.31,1294.96 1973.41,1294.96 1978.51,1294.96 1981.2,1294.96 
  1981.2,1294.96 1983.89,1294.96 1988.99,1294.96 1994.09,1294.96 1996.79,1294.96 1996.79,1294.96 1999.48,1294.96 2004.58,1294.96 2009.68,1294.96 2012.37,1294.96 
  2012.37,1294.96 2015.06,1294.96 2020.16,1294.96 2025.27,1294.96 2027.96,1294.96 2027.96,1294.96 2030.65,1294.96 2035.75,1294.96 2040.85,1294.96 2043.54,1294.96 
  2043.54,1294.96 2046.23,1294.96 2051.33,1294.96 2056.44,1294.96 2059.13,1294.96 2061.82,1294.96 2066.92,1294.96 2072.02,1294.96 2074.71,1294.96 
  2077.4,1294.96 2082.51,1294.96 2087.61,1294.96 2090.3,1294.96 2092.99,1294.96 2098.09,1294.96 2103.19,1294.96 2105.88,1294.96 
  2108.57,1294.96 2113.68,1294.96 2118.78,1294.96 2121.47,1294.96 2124.16,1294.96 2129.26,1294.96 2134.36,1294.96 2137.05,1294.96 
  2139.75,1294.96 2144.85,1294.96 2149.95,1294.96 2152.64,1294.96 2155.33,1294.96 2160.43,1294.96 2165.53,1294.96 2168.22,1294.96 
  2170.92,1294.96 2176.02,1294.96 2181.12,1294.96 2183.81,1294.96 2186.5,1294.96 2191.6,1294.96 2196.7,1294.96 2199.4,1294.96 
  2202.09,1294.96 2207.19,1294.96 2212.29,1294.96 2214.98,1294.96 2217.67,1294.96 2222.77,1294.96 2227.88,1294.96 2230.57,1294.96 
  2233.26,1294.96 2238.36,1294.96 2243.46,1294.96 2246.15,1294.96 2248.84,1294.96 2253.94,1294.96 2259.05,1294.96 2261.74,1294.96 
  2264.43,1294.96 2269.53,1294.96 2274.63,1294.96 2277.32,1294.96 2280.01,1294.96 2285.12,1294.96 2290.22,1294.96 2292.91,1294.96 
  
  "/>
<path clip-path="url(#clip830)" d="
M1802.38 274.549 L2282.27 274.549 L2282.27 93.1086 L1802.38 93.1086  Z
  " fill="#ffffff" fill-rule="evenodd" fill-opacity="1"/>
<polyline clip-path="url(#clip830)" style="stroke:#000000; stroke-width:4; stroke-opacity:1; fill:none" points="
  1802.38,274.549 2282.27,274.549 2282.27,93.1086 1802.38,93.1086 1802.38,274.549 
  "/>
<polyline clip-path="url(#clip830)" style="stroke:#009af9; stroke-width:4; stroke-opacity:1; fill:none" points="
  1825.88,153.589 1966.85,153.589 
  "/>
<path clip-path="url(#clip830)" d="M 0 0 M1994.75 157.929 Q1994.75 162.628 1996.67 165.313 Q1998.61 167.975 2001.99 167.975 Q2005.37 167.975 2007.31 165.313 Q2009.26 162.628 2009.26 157.929 Q2009.26 153.23 2007.31 150.568 Q2005.37 147.883 2001.99 147.883 Q1998.61 147.883 1996.67 150.568 Q1994.75 153.23 1994.75 157.929 M2009.26 166.98 Q2007.92 169.295 2005.86 170.429 Q2003.82 171.54 2000.95 171.54 Q1996.25 171.54 1993.29 167.79 Q1990.35 164.04 1990.35 157.929 Q1990.35 151.818 1993.29 148.068 Q1996.25 144.318 2000.95 144.318 Q2003.82 144.318 2005.86 145.452 Q2007.92 146.563 2009.26 148.878 L2009.26 144.943 L2013.52 144.943 L2013.52 180.73 L2009.26 180.73 L2009.26 166.98 Z" fill="#000000" fill-rule="evenodd" fill-opacity="1" /><path clip-path="url(#clip830)" d="M 0 0 M2019.07 164.989 L2023.96 164.989 L2023.96 168.97 L2020.16 176.378 L2017.18 176.378 L2019.07 168.97 L2019.07 164.989 Z" fill="#000000" fill-rule="evenodd" fill-opacity="1" /><path clip-path="url(#clip830)" d="M 0 0 M2047.71 137.582 L2047.71 144.943 L2056.48 144.943 L2056.48 148.253 L2047.71 148.253 L2047.71 162.327 Q2047.71 165.498 2048.56 166.401 Q2049.44 167.304 2052.11 167.304 L2056.48 167.304 L2056.48 170.869 L2052.11 170.869 Q2047.18 170.869 2045.3 169.04 Q2043.43 167.188 2043.43 162.327 L2043.43 148.253 L2040.3 148.253 L2040.3 144.943 L2043.43 144.943 L2043.43 137.582 L2047.71 137.582 Z" fill="#000000" fill-rule="evenodd" fill-opacity="1" /><path clip-path="url(#clip830)" d="M 0 0 M2061.5 149.341 L2091.18 149.341 L2091.18 153.23 L2061.5 153.23 L2061.5 149.341 M2061.5 158.785 L2091.18 158.785 L2091.18 162.721 L2061.5 162.721 L2061.5 158.785 Z" fill="#000000" fill-rule="evenodd" fill-opacity="1" /><path clip-path="url(#clip830)" d="M 0 0 M2106.25 139.387 Q2102.64 139.387 2100.81 142.952 Q2099 146.494 2099 153.623 Q2099 160.73 2100.81 164.295 Q2102.64 167.836 2106.25 167.836 Q2109.88 167.836 2111.69 164.295 Q2113.52 160.73 2113.52 153.623 Q2113.52 146.494 2111.69 142.952 Q2109.88 139.387 2106.25 139.387 M2106.25 135.684 Q2112.06 135.684 2115.12 140.29 Q2118.19 144.873 2118.19 153.623 Q2118.19 162.35 2115.12 166.957 Q2112.06 171.54 2106.25 171.54 Q2100.44 171.54 2097.36 166.957 Q2094.31 162.35 2094.31 153.623 Q2094.31 144.873 2097.36 140.29 Q2100.44 135.684 2106.25 135.684 Z" fill="#000000" fill-rule="evenodd" fill-opacity="1" /><path clip-path="url(#clip830)" d="M 0 0 M2123.26 164.989 L2128.15 164.989 L2128.15 170.869 L2123.26 170.869 L2123.26 164.989 Z" fill="#000000" fill-rule="evenodd" fill-opacity="1" /><path clip-path="url(#clip830)" d="M 0 0 M2143.22 139.387 Q2139.61 139.387 2137.78 142.952 Q2135.97 146.494 2135.97 153.623 Q2135.97 160.73 2137.78 164.295 Q2139.61 167.836 2143.22 167.836 Q2146.85 167.836 2148.66 164.295 Q2150.49 160.73 2150.49 153.623 Q2150.49 146.494 2148.66 142.952 Q2146.85 139.387 2143.22 139.387 M2143.22 135.684 Q2149.03 135.684 2152.08 140.29 Q2155.16 144.873 2155.16 153.623 Q2155.16 162.35 2152.08 166.957 Q2149.03 171.54 2143.22 171.54 Q2137.41 171.54 2134.33 166.957 Q2131.27 162.35 2131.27 153.623 Q2131.27 144.873 2134.33 140.29 Q2137.41 135.684 2143.22 135.684 Z" fill="#000000" fill-rule="evenodd" fill-opacity="1" /><polyline clip-path="url(#clip830)" style="stroke:#e26f46; stroke-width:4; stroke-opacity:1; fill:none" points="
  1825.88,214.069 1966.85,214.069 
  "/>
<path clip-path="url(#clip830)" d="M 0 0 M1994.75 218.409 Q1994.75 223.108 1996.67 225.793 Q1998.61 228.455 2001.99 228.455 Q2005.37 228.455 2007.31 225.793 Q2009.26 223.108 2009.26 218.409 Q2009.26 213.71 2007.31 211.048 Q2005.37 208.363 2001.99 208.363 Q1998.61 208.363 1996.67 211.048 Q1994.75 213.71 1994.75 218.409 M2009.26 227.46 Q2007.92 229.775 2005.86 230.909 Q2003.82 232.02 2000.95 232.02 Q1996.25 232.02 1993.29 228.27 Q1990.35 224.52 1990.35 218.409 Q1990.35 212.298 1993.29 208.548 Q1996.25 204.798 2000.95 204.798 Q2003.82 204.798 2005.86 205.932 Q2007.92 207.043 2009.26 209.358 L2009.26 205.423 L2013.52 205.423 L2013.52 241.21 L2009.26 241.21 L2009.26 227.46 Z" fill="#000000" fill-rule="evenodd" fill-opacity="1" /><path clip-path="url(#clip830)" d="M 0 0 M2019.07 225.469 L2023.96 225.469 L2023.96 229.45 L2020.16 236.858 L2017.18 236.858 L2019.07 229.45 L2019.07 225.469 Z" fill="#000000" fill-rule="evenodd" fill-opacity="1" /><path clip-path="url(#clip830)" d="M 0 0 M2047.71 198.062 L2047.71 205.423 L2056.48 205.423 L2056.48 208.733 L2047.71 208.733 L2047.71 222.807 Q2047.71 225.978 2048.56 226.881 Q2049.44 227.784 2052.11 227.784 L2056.48 227.784 L2056.48 231.349 L2052.11 231.349 Q2047.18 231.349 2045.3 229.52 Q2043.43 227.668 2043.43 222.807 L2043.43 208.733 L2040.3 208.733 L2040.3 205.423 L2043.43 205.423 L2043.43 198.062 L2047.71 198.062 Z" fill="#000000" fill-rule="evenodd" fill-opacity="1" /><path clip-path="url(#clip830)" d="M 0 0 M2061.5 209.821 L2091.18 209.821 L2091.18 213.71 L2061.5 213.71 L2061.5 209.821 M2061.5 219.265 L2091.18 219.265 L2091.18 223.201 L2061.5 223.201 L2061.5 219.265 Z" fill="#000000" fill-rule="evenodd" fill-opacity="1" /><path clip-path="url(#clip830)" d="M 0 0 M2109.1 200.863 L2097.29 219.312 L2109.1 219.312 L2109.1 200.863 M2107.87 196.789 L2113.75 196.789 L2113.75 219.312 L2118.68 219.312 L2118.68 223.201 L2113.75 223.201 L2113.75 231.349 L2109.1 231.349 L2109.1 223.201 L2093.5 223.201 L2093.5 218.687 L2107.87 196.789 Z" fill="#000000" fill-rule="evenodd" fill-opacity="1" /><path clip-path="url(#clip830)" d="M 0 0 M2123.8 196.789 L2142.15 196.789 L2142.15 200.724 L2128.08 200.724 L2128.08 209.196 Q2129.1 208.849 2130.12 208.687 Q2131.13 208.502 2132.15 208.502 Q2137.94 208.502 2141.32 211.673 Q2144.7 214.844 2144.7 220.261 Q2144.7 225.839 2141.23 228.941 Q2137.75 232.02 2131.43 232.02 Q2129.26 232.02 2126.99 231.65 Q2124.74 231.279 2122.34 230.538 L2122.34 225.839 Q2124.42 226.974 2126.64 227.529 Q2128.87 228.085 2131.34 228.085 Q2135.35 228.085 2137.68 225.978 Q2140.02 223.872 2140.02 220.261 Q2140.02 216.65 2137.68 214.543 Q2135.35 212.437 2131.34 212.437 Q2129.47 212.437 2127.59 212.853 Q2125.74 213.27 2123.8 214.15 L2123.8 196.789 Z" fill="#000000" fill-rule="evenodd" fill-opacity="1" /><path clip-path="url(#clip830)" d="M 0 0 M2159.77 199.867 Q2156.16 199.867 2154.33 203.432 Q2152.52 206.974 2152.52 214.103 Q2152.52 221.21 2154.33 224.775 Q2156.16 228.316 2159.77 228.316 Q2163.4 228.316 2165.21 224.775 Q2167.04 221.21 2167.04 214.103 Q2167.04 206.974 2165.21 203.432 Q2163.4 199.867 2159.77 199.867 M2159.77 196.164 Q2165.58 196.164 2168.63 200.77 Q2171.71 205.353 2171.71 214.103 Q2171.71 222.83 2168.63 227.437 Q2165.58 232.02 2159.77 232.02 Q2153.96 232.02 2150.88 227.437 Q2147.82 222.83 2147.82 214.103 Q2147.82 205.353 2150.88 200.77 Q2153.96 196.164 2159.77 196.164 Z" fill="#000000" fill-rule="evenodd" fill-opacity="1" /><path clip-path="url(#clip830)" d="M 0 0 M2176.78 225.469 L2181.67 225.469 L2181.67 231.349 L2176.78 231.349 L2176.78 225.469 Z" fill="#000000" fill-rule="evenodd" fill-opacity="1" /><path clip-path="url(#clip830)" d="M 0 0 M2199.58 200.863 L2187.78 219.312 L2199.58 219.312 L2199.58 200.863 M2198.36 196.789 L2204.24 196.789 L2204.24 219.312 L2209.17 219.312 L2209.17 223.201 L2204.24 223.201 L2204.24 231.349 L2199.58 231.349 L2199.58 223.201 L2183.98 223.201 L2183.98 218.687 L2198.36 196.789 Z" fill="#000000" fill-rule="evenodd" fill-opacity="1" /><path clip-path="url(#clip830)" d="M 0 0 M2213.05 196.789 L2235.28 196.789 L2235.28 198.779 L2222.73 231.349 L2217.85 231.349 L2229.65 200.724 L2213.05 200.724 L2213.05 196.789 Z" fill="#000000" fill-rule="evenodd" fill-opacity="1" /></svg>
