<?xml version="1.0" encoding="utf-8"?>
<svg xmlns="http://www.w3.org/2000/svg" xmlns:xlink="http://www.w3.org/1999/xlink" width="600" height="400" viewBox="0 0 2400 1600">
<defs>
  <clipPath id="clip770">
    <rect x="0" y="0" width="2400" height="1600"/>
  </clipPath>
</defs>
<path clip-path="url(#clip770)" d="
M0 1600 L2400 1600 L2400 0 L0 0  Z
  " fill="#ffffff" fill-rule="evenodd" fill-opacity="1"/>
<defs>
  <clipPath id="clip771">
    <rect x="480" y="0" width="1681" height="1600"/>
  </clipPath>
</defs>
<path clip-path="url(#clip770)" d="
M238.13 1423.18 L2352.76 1423.18 L2352.76 47.2441 L238.13 47.2441  Z
  " fill="#ffffff" fill-rule="evenodd" fill-opacity="1"/>
<defs>
  <clipPath id="clip772">
    <rect x="238" y="47" width="2116" height="1377"/>
  </clipPath>
</defs>
<polyline clip-path="url(#clip772)" style="stroke:#000000; stroke-width:2; stroke-opacity:0.1; fill:none" points="
  297.978,1423.18 297.978,47.2441 
  "/>
<polyline clip-path="url(#clip772)" style="stroke:#000000; stroke-width:2; stroke-opacity:0.1; fill:none" points="
  867.958,1423.18 867.958,47.2441 
  "/>
<polyline clip-path="url(#clip772)" style="stroke:#000000; stroke-width:2; stroke-opacity:0.1; fill:none" points="
  1437.94,1423.18 1437.94,47.2441 
  "/>
<polyline clip-path="url(#clip772)" style="stroke:#000000; stroke-width:2; stroke-opacity:0.1; fill:none" points="
  2007.92,1423.18 2007.92,47.2441 
  "/>
<polyline clip-path="url(#clip772)" style="stroke:#000000; stroke-width:2; stroke-opacity:0.1; fill:none" points="
  238.13,1287.9 2352.76,1287.9 
  "/>
<polyline clip-path="url(#clip772)" style="stroke:#000000; stroke-width:2; stroke-opacity:0.1; fill:none" points="
  238.13,1008.45 2352.76,1008.45 
  "/>
<polyline clip-path="url(#clip772)" style="stroke:#000000; stroke-width:2; stroke-opacity:0.1; fill:none" points="
  238.13,729.013 2352.76,729.013 
  "/>
<polyline clip-path="url(#clip772)" style="stroke:#000000; stroke-width:2; stroke-opacity:0.1; fill:none" points="
  238.13,449.571 2352.76,449.571 
  "/>
<polyline clip-path="url(#clip772)" style="stroke:#000000; stroke-width:2; stroke-opacity:0.1; fill:none" points="
  238.13,170.13 2352.76,170.13 
  "/>
<polyline clip-path="url(#clip770)" style="stroke:#000000; stroke-width:4; stroke-opacity:1; fill:none" points="
  238.13,1423.18 2352.76,1423.18 
  "/>
<polyline clip-path="url(#clip770)" style="stroke:#000000; stroke-width:4; stroke-opacity:1; fill:none" points="
  238.13,1423.18 238.13,47.2441 
  "/>
<polyline clip-path="url(#clip770)" style="stroke:#000000; stroke-width:4; stroke-opacity:1; fill:none" points="
  297.978,1423.18 297.978,1406.67 
  "/>
<polyline clip-path="url(#clip770)" style="stroke:#000000; stroke-width:4; stroke-opacity:1; fill:none" points="
  867.958,1423.18 867.958,1406.67 
  "/>
<polyline clip-path="url(#clip770)" style="stroke:#000000; stroke-width:4; stroke-opacity:1; fill:none" points="
  1437.94,1423.18 1437.94,1406.67 
  "/>
<polyline clip-path="url(#clip770)" style="stroke:#000000; stroke-width:4; stroke-opacity:1; fill:none" points="
  2007.92,1423.18 2007.92,1406.67 
  "/>
<polyline clip-path="url(#clip770)" style="stroke:#000000; stroke-width:4; stroke-opacity:1; fill:none" points="
  238.13,1287.9 263.506,1287.9 
  "/>
<polyline clip-path="url(#clip770)" style="stroke:#000000; stroke-width:4; stroke-opacity:1; fill:none" points="
  238.13,1008.45 263.506,1008.45 
  "/>
<polyline clip-path="url(#clip770)" style="stroke:#000000; stroke-width:4; stroke-opacity:1; fill:none" points="
  238.13,729.013 263.506,729.013 
  "/>
<polyline clip-path="url(#clip770)" style="stroke:#000000; stroke-width:4; stroke-opacity:1; fill:none" points="
  238.13,449.571 263.506,449.571 
  "/>
<polyline clip-path="url(#clip770)" style="stroke:#000000; stroke-width:4; stroke-opacity:1; fill:none" points="
  238.13,170.13 263.506,170.13 
  "/>
<path clip-path="url(#clip770)" d="M 0 0 M297.978 1445.17 Q294.367 1445.17 292.538 1448.74 Q290.733 1452.28 290.733 1459.41 Q290.733 1466.51 292.538 1470.08 Q294.367 1473.62 297.978 1473.62 Q301.612 1473.62 303.418 1470.08 Q305.246 1466.51 305.246 1459.41 Q305.246 1452.28 303.418 1448.74 Q301.612 1445.17 297.978 1445.17 M297.978 1441.47 Q303.788 1441.47 306.844 1446.07 Q309.922 1450.66 309.922 1459.41 Q309.922 1468.13 306.844 1472.74 Q303.788 1477.32 297.978 1477.32 Q292.168 1477.32 289.089 1472.74 Q286.034 1468.13 286.034 1459.41 Q286.034 1450.66 289.089 1446.07 Q292.168 1441.47 297.978 1441.47 Z" fill="#000000" fill-rule="evenodd" fill-opacity="1" /><path clip-path="url(#clip770)" d="M 0 0 M831.326 1472.72 L838.965 1472.72 L838.965 1446.35 L830.655 1448.02 L830.655 1443.76 L838.919 1442.09 L843.595 1442.09 L843.595 1472.72 L851.234 1472.72 L851.234 1476.65 L831.326 1476.65 L831.326 1472.72 Z" fill="#000000" fill-rule="evenodd" fill-opacity="1" /><path clip-path="url(#clip770)" d="M 0 0 M866.303 1445.17 Q862.692 1445.17 860.863 1448.74 Q859.058 1452.28 859.058 1459.41 Q859.058 1466.51 860.863 1470.08 Q862.692 1473.62 866.303 1473.62 Q869.937 1473.62 871.743 1470.08 Q873.571 1466.51 873.571 1459.41 Q873.571 1452.28 871.743 1448.74 Q869.937 1445.17 866.303 1445.17 M866.303 1441.47 Q872.113 1441.47 875.169 1446.07 Q878.247 1450.66 878.247 1459.41 Q878.247 1468.13 875.169 1472.74 Q872.113 1477.32 866.303 1477.32 Q860.493 1477.32 857.414 1472.74 Q854.359 1468.13 854.359 1459.41 Q854.359 1450.66 857.414 1446.07 Q860.493 1441.47 866.303 1441.47 Z" fill="#000000" fill-rule="evenodd" fill-opacity="1" /><path clip-path="url(#clip770)" d="M 0 0 M893.317 1445.17 Q889.706 1445.17 887.877 1448.74 Q886.071 1452.28 886.071 1459.41 Q886.071 1466.51 887.877 1470.08 Q889.706 1473.62 893.317 1473.62 Q896.951 1473.62 898.756 1470.08 Q900.585 1466.51 900.585 1459.41 Q900.585 1452.28 898.756 1448.74 Q896.951 1445.17 893.317 1445.17 M893.317 1441.47 Q899.127 1441.47 902.182 1446.07 Q905.261 1450.66 905.261 1459.41 Q905.261 1468.13 902.182 1472.74 Q899.127 1477.32 893.317 1477.32 Q887.506 1477.32 884.428 1472.74 Q881.372 1468.13 881.372 1459.41 Q881.372 1450.66 884.428 1446.07 Q887.506 1441.47 893.317 1441.47 Z" fill="#000000" fill-rule="evenodd" fill-opacity="1" /><path clip-path="url(#clip770)" d="M 0 0 M1405.58 1472.72 L1421.9 1472.72 L1421.9 1476.65 L1399.95 1476.65 L1399.95 1472.72 Q1402.61 1469.96 1407.2 1465.33 Q1411.8 1460.68 1412.98 1459.34 Q1415.23 1456.81 1416.11 1455.08 Q1417.01 1453.32 1417.01 1451.63 Q1417.01 1448.87 1415.07 1447.14 Q1413.15 1445.4 1410.04 1445.4 Q1407.85 1445.4 1405.39 1446.17 Q1402.96 1446.93 1400.18 1448.48 L1400.18 1443.76 Q1403.01 1442.62 1405.46 1442.05 Q1407.91 1441.47 1409.95 1441.47 Q1415.32 1441.47 1418.52 1444.15 Q1421.71 1446.84 1421.71 1451.33 Q1421.71 1453.46 1420.9 1455.38 Q1420.11 1457.28 1418.01 1459.87 Q1417.43 1460.54 1414.33 1463.76 Q1411.23 1466.95 1405.58 1472.72 Z" fill="#000000" fill-rule="evenodd" fill-opacity="1" /><path clip-path="url(#clip770)" d="M 0 0 M1436.97 1445.17 Q1433.35 1445.17 1431.53 1448.74 Q1429.72 1452.28 1429.72 1459.41 Q1429.72 1466.51 1431.53 1470.08 Q1433.35 1473.62 1436.97 1473.62 Q1440.6 1473.62 1442.41 1470.08 Q1444.23 1466.51 1444.23 1459.41 Q1444.23 1452.28 1442.41 1448.74 Q1440.6 1445.17 1436.97 1445.17 M1436.97 1441.47 Q1442.78 1441.47 1445.83 1446.07 Q1448.91 1450.66 1448.91 1459.41 Q1448.91 1468.13 1445.83 1472.74 Q1442.78 1477.32 1436.97 1477.32 Q1431.16 1477.32 1428.08 1472.74 Q1425.02 1468.13 1425.02 1459.41 Q1425.02 1450.66 1428.08 1446.07 Q1431.16 1441.47 1436.97 1441.47 Z" fill="#000000" fill-rule="evenodd" fill-opacity="1" /><path clip-path="url(#clip770)" d="M 0 0 M1463.98 1445.17 Q1460.37 1445.17 1458.54 1448.74 Q1456.73 1452.28 1456.73 1459.41 Q1456.73 1466.51 1458.54 1470.08 Q1460.37 1473.62 1463.98 1473.62 Q1467.61 1473.62 1469.42 1470.08 Q1471.25 1466.51 1471.25 1459.41 Q1471.25 1452.28 1469.42 1448.74 Q1467.61 1445.17 1463.98 1445.17 M1463.98 1441.47 Q1469.79 1441.47 1472.85 1446.07 Q1475.92 1450.66 1475.92 1459.41 Q1475.92 1468.13 1472.85 1472.74 Q1469.79 1477.32 1463.98 1477.32 Q1458.17 1477.32 1455.09 1472.74 Q1452.04 1468.13 1452.04 1459.41 Q1452.04 1450.66 1455.09 1446.07 Q1458.17 1441.47 1463.98 1441.47 Z" fill="#000000" fill-rule="evenodd" fill-opacity="1" /><path clip-path="url(#clip770)" d="M 0 0 M1985.15 1458.02 Q1988.51 1458.74 1990.38 1461 Q1992.28 1463.27 1992.28 1466.61 Q1992.28 1471.72 1988.76 1474.52 Q1985.24 1477.32 1978.76 1477.32 Q1976.59 1477.32 1974.27 1476.88 Q1971.98 1476.47 1969.53 1475.61 L1969.53 1471.1 Q1971.47 1472.23 1973.79 1472.81 Q1976.1 1473.39 1978.62 1473.39 Q1983.02 1473.39 1985.31 1471.65 Q1987.63 1469.92 1987.63 1466.61 Q1987.63 1463.55 1985.48 1461.84 Q1983.35 1460.1 1979.53 1460.1 L1975.5 1460.1 L1975.5 1456.26 L1979.71 1456.26 Q1983.16 1456.26 1984.99 1454.89 Q1986.82 1453.5 1986.82 1450.91 Q1986.82 1448.25 1984.92 1446.84 Q1983.05 1445.4 1979.53 1445.4 Q1977.61 1445.4 1975.41 1445.82 Q1973.21 1446.24 1970.57 1447.11 L1970.57 1442.95 Q1973.23 1442.21 1975.55 1441.84 Q1977.88 1441.47 1979.94 1441.47 Q1985.27 1441.47 1988.37 1443.9 Q1991.47 1446.3 1991.47 1450.43 Q1991.47 1453.3 1989.83 1455.29 Q1988.18 1457.25 1985.15 1458.02 Z" fill="#000000" fill-rule="evenodd" fill-opacity="1" /><path clip-path="url(#clip770)" d="M 0 0 M2007.35 1445.17 Q2003.74 1445.17 2001.91 1448.74 Q2000.11 1452.28 2000.11 1459.41 Q2000.11 1466.51 2001.91 1470.08 Q2003.74 1473.62 2007.35 1473.62 Q2010.99 1473.62 2012.79 1470.08 Q2014.62 1466.51 2014.62 1459.41 Q2014.62 1452.28 2012.79 1448.74 Q2010.99 1445.17 2007.35 1445.17 M2007.35 1441.47 Q2013.16 1441.47 2016.22 1446.07 Q2019.3 1450.66 2019.3 1459.41 Q2019.3 1468.13 2016.22 1472.74 Q2013.16 1477.32 2007.35 1477.32 Q2001.54 1477.32 1998.46 1472.74 Q1995.41 1468.13 1995.41 1459.41 Q1995.41 1450.66 1998.46 1446.07 Q2001.54 1441.47 2007.35 1441.47 Z" fill="#000000" fill-rule="evenodd" fill-opacity="1" /><path clip-path="url(#clip770)" d="M 0 0 M2034.36 1445.17 Q2030.75 1445.17 2028.92 1448.74 Q2027.12 1452.28 2027.12 1459.41 Q2027.12 1466.51 2028.92 1470.08 Q2030.75 1473.62 2034.36 1473.62 Q2038 1473.62 2039.8 1470.08 Q2041.63 1466.51 2041.63 1459.41 Q2041.63 1452.28 2039.8 1448.74 Q2038 1445.17 2034.36 1445.17 M2034.36 1441.47 Q2040.17 1441.47 2043.23 1446.07 Q2046.31 1450.66 2046.31 1459.41 Q2046.31 1468.13 2043.23 1472.74 Q2040.17 1477.32 2034.36 1477.32 Q2028.55 1477.32 2025.48 1472.74 Q2022.42 1468.13 2022.42 1459.41 Q2022.42 1450.66 2025.48 1446.07 Q2028.55 1441.47 2034.36 1441.47 Z" fill="#000000" fill-rule="evenodd" fill-opacity="1" /><path clip-path="url(#clip770)" d="M 0 0 M138.205 1273.69 Q134.593 1273.69 132.765 1277.26 Q130.959 1280.8 130.959 1287.93 Q130.959 1295.04 132.765 1298.6 Q134.593 1302.14 138.205 1302.14 Q141.839 1302.14 143.644 1298.6 Q145.473 1295.04 145.473 1287.93 Q145.473 1280.8 143.644 1277.26 Q141.839 1273.69 138.205 1273.69 M138.205 1269.99 Q144.015 1269.99 147.07 1274.6 Q150.149 1279.18 150.149 1287.93 Q150.149 1296.66 147.07 1301.26 Q144.015 1305.85 138.205 1305.85 Q132.394 1305.85 129.316 1301.26 Q126.26 1296.66 126.26 1287.93 Q126.26 1279.18 129.316 1274.6 Q132.394 1269.99 138.205 1269.99 Z" fill="#000000" fill-rule="evenodd" fill-opacity="1" /><path clip-path="url(#clip770)" d="M 0 0 M155.218 1299.3 L160.103 1299.3 L160.103 1305.18 L155.218 1305.18 L155.218 1299.3 Z" fill="#000000" fill-rule="evenodd" fill-opacity="1" /><path clip-path="url(#clip770)" d="M 0 0 M175.172 1273.69 Q171.561 1273.69 169.732 1277.26 Q167.927 1280.8 167.927 1287.93 Q167.927 1295.04 169.732 1298.6 Q171.561 1302.14 175.172 1302.14 Q178.806 1302.14 180.612 1298.6 Q182.44 1295.04 182.44 1287.93 Q182.44 1280.8 180.612 1277.26 Q178.806 1273.69 175.172 1273.69 M175.172 1269.99 Q180.982 1269.99 184.038 1274.6 Q187.116 1279.18 187.116 1287.93 Q187.116 1296.66 184.038 1301.26 Q180.982 1305.85 175.172 1305.85 Q169.362 1305.85 166.283 1301.26 Q163.228 1296.66 163.228 1287.93 Q163.228 1279.18 166.283 1274.6 Q169.362 1269.99 175.172 1269.99 Z" fill="#000000" fill-rule="evenodd" fill-opacity="1" /><path clip-path="url(#clip770)" d="M 0 0 M202.186 1273.69 Q198.575 1273.69 196.746 1277.26 Q194.94 1280.8 194.94 1287.93 Q194.94 1295.04 196.746 1298.6 Q198.575 1302.14 202.186 1302.14 Q205.82 1302.14 207.625 1298.6 Q209.454 1295.04 209.454 1287.93 Q209.454 1280.8 207.625 1277.26 Q205.82 1273.69 202.186 1273.69 M202.186 1269.99 Q207.996 1269.99 211.051 1274.6 Q214.13 1279.18 214.13 1287.93 Q214.13 1296.66 211.051 1301.26 Q207.996 1305.85 202.186 1305.85 Q196.376 1305.85 193.297 1301.26 Q190.241 1296.66 190.241 1287.93 Q190.241 1279.18 193.297 1274.6 Q196.376 1269.99 202.186 1269.99 Z" fill="#000000" fill-rule="evenodd" fill-opacity="1" /><path clip-path="url(#clip770)" d="M 0 0 M140.797 994.253 Q137.186 994.253 135.357 997.817 Q133.552 1001.36 133.552 1008.49 Q133.552 1015.6 135.357 1019.16 Q137.186 1022.7 140.797 1022.7 Q144.431 1022.7 146.237 1019.16 Q148.066 1015.6 148.066 1008.49 Q148.066 1001.36 146.237 997.817 Q144.431 994.253 140.797 994.253 M140.797 990.549 Q146.607 990.549 149.663 995.155 Q152.741 999.739 152.741 1008.49 Q152.741 1017.22 149.663 1021.82 Q146.607 1026.41 140.797 1026.41 Q134.987 1026.41 131.908 1021.82 Q128.853 1017.22 128.853 1008.49 Q128.853 999.739 131.908 995.155 Q134.987 990.549 140.797 990.549 Z" fill="#000000" fill-rule="evenodd" fill-opacity="1" /><path clip-path="url(#clip770)" d="M 0 0 M157.811 1019.85 L162.695 1019.85 L162.695 1025.73 L157.811 1025.73 L157.811 1019.85 Z" fill="#000000" fill-rule="evenodd" fill-opacity="1" /><path clip-path="url(#clip770)" d="M 0 0 M171.792 1021.8 L188.112 1021.8 L188.112 1025.73 L166.167 1025.73 L166.167 1021.8 Q168.829 1019.04 173.413 1014.41 Q178.019 1009.76 179.2 1008.42 Q181.445 1005.9 182.325 1004.16 Q183.227 1002.4 183.227 1000.71 Q183.227 997.956 181.283 996.22 Q179.362 994.484 176.26 994.484 Q174.061 994.484 171.607 995.248 Q169.177 996.012 166.399 997.563 L166.399 992.841 Q169.223 991.706 171.677 991.128 Q174.13 990.549 176.167 990.549 Q181.538 990.549 184.732 993.234 Q187.926 995.919 187.926 1000.41 Q187.926 1002.54 187.116 1004.46 Q186.329 1006.36 184.223 1008.95 Q183.644 1009.62 180.542 1012.84 Q177.44 1016.03 171.792 1021.8 Z" fill="#000000" fill-rule="evenodd" fill-opacity="1" /><path clip-path="url(#clip770)" d="M 0 0 M193.227 991.174 L211.584 991.174 L211.584 995.109 L197.51 995.109 L197.51 1003.58 Q198.528 1003.23 199.547 1003.07 Q200.565 1002.89 201.584 1002.89 Q207.371 1002.89 210.75 1006.06 Q214.13 1009.23 214.13 1014.65 Q214.13 1020.22 210.658 1023.33 Q207.186 1026.41 200.866 1026.41 Q198.69 1026.41 196.422 1026.03 Q194.176 1025.66 191.769 1024.92 L191.769 1020.22 Q193.852 1021.36 196.075 1021.91 Q198.297 1022.47 200.774 1022.47 Q204.778 1022.47 207.116 1020.36 Q209.454 1018.26 209.454 1014.65 Q209.454 1011.03 207.116 1008.93 Q204.778 1006.82 200.774 1006.82 Q198.899 1006.82 197.024 1007.24 Q195.172 1007.66 193.227 1008.53 L193.227 991.174 Z" fill="#000000" fill-rule="evenodd" fill-opacity="1" /><path clip-path="url(#clip770)" d="M 0 0 M139.2 714.811 Q135.589 714.811 133.76 718.376 Q131.955 721.918 131.955 729.047 Q131.955 736.154 133.76 739.719 Q135.589 743.26 139.2 743.26 Q142.834 743.26 144.64 739.719 Q146.468 736.154 146.468 729.047 Q146.468 721.918 144.64 718.376 Q142.834 714.811 139.2 714.811 M139.2 711.108 Q145.01 711.108 148.066 715.714 Q151.144 720.297 151.144 729.047 Q151.144 737.774 148.066 742.381 Q145.01 746.964 139.2 746.964 Q133.39 746.964 130.311 742.381 Q127.256 737.774 127.256 729.047 Q127.256 720.297 130.311 715.714 Q133.39 711.108 139.2 711.108 Z" fill="#000000" fill-rule="evenodd" fill-opacity="1" /><path clip-path="url(#clip770)" d="M 0 0 M156.214 740.413 L161.098 740.413 L161.098 746.293 L156.214 746.293 L156.214 740.413 Z" fill="#000000" fill-rule="evenodd" fill-opacity="1" /><path clip-path="url(#clip770)" d="M 0 0 M166.214 711.733 L184.57 711.733 L184.57 715.668 L170.496 715.668 L170.496 724.14 Q171.515 723.793 172.533 723.631 Q173.552 723.446 174.57 723.446 Q180.357 723.446 183.737 726.617 Q187.116 729.788 187.116 735.205 Q187.116 740.783 183.644 743.885 Q180.172 746.964 173.852 746.964 Q171.677 746.964 169.408 746.594 Q167.163 746.223 164.755 745.482 L164.755 740.783 Q166.839 741.918 169.061 742.473 Q171.283 743.029 173.76 743.029 Q177.765 743.029 180.102 740.922 Q182.44 738.816 182.44 735.205 Q182.44 731.594 180.102 729.487 Q177.765 727.381 173.76 727.381 Q171.885 727.381 170.01 727.797 Q168.158 728.214 166.214 729.094 L166.214 711.733 Z" fill="#000000" fill-rule="evenodd" fill-opacity="1" /><path clip-path="url(#clip770)" d="M 0 0 M202.186 714.811 Q198.575 714.811 196.746 718.376 Q194.94 721.918 194.94 729.047 Q194.94 736.154 196.746 739.719 Q198.575 743.26 202.186 743.26 Q205.82 743.26 207.625 739.719 Q209.454 736.154 209.454 729.047 Q209.454 721.918 207.625 718.376 Q205.82 714.811 202.186 714.811 M202.186 711.108 Q207.996 711.108 211.051 715.714 Q214.13 720.297 214.13 729.047 Q214.13 737.774 211.051 742.381 Q207.996 746.964 202.186 746.964 Q196.376 746.964 193.297 742.381 Q190.241 737.774 190.241 729.047 Q190.241 720.297 193.297 715.714 Q196.376 711.108 202.186 711.108 Z" fill="#000000" fill-rule="evenodd" fill-opacity="1" /><path clip-path="url(#clip770)" d="M 0 0 M140.103 435.37 Q136.492 435.37 134.663 438.935 Q132.857 442.476 132.857 449.606 Q132.857 456.712 134.663 460.277 Q136.492 463.819 140.103 463.819 Q143.737 463.819 145.542 460.277 Q147.371 456.712 147.371 449.606 Q147.371 442.476 145.542 438.935 Q143.737 435.37 140.103 435.37 M140.103 431.666 Q145.913 431.666 148.968 436.273 Q152.047 440.856 152.047 449.606 Q152.047 458.333 148.968 462.939 Q145.913 467.523 140.103 467.523 Q134.293 467.523 131.214 462.939 Q128.158 458.333 128.158 449.606 Q128.158 440.856 131.214 436.273 Q134.293 431.666 140.103 431.666 Z" fill="#000000" fill-rule="evenodd" fill-opacity="1" /><path clip-path="url(#clip770)" d="M 0 0 M157.116 460.972 L162.001 460.972 L162.001 466.851 L157.116 466.851 L157.116 460.972 Z" fill="#000000" fill-rule="evenodd" fill-opacity="1" /><path clip-path="url(#clip770)" d="M 0 0 M165.89 432.291 L188.112 432.291 L188.112 434.282 L175.565 466.851 L170.681 466.851 L182.487 436.226 L165.89 436.226 L165.89 432.291 Z" fill="#000000" fill-rule="evenodd" fill-opacity="1" /><path clip-path="url(#clip770)" d="M 0 0 M193.227 432.291 L211.584 432.291 L211.584 436.226 L197.51 436.226 L197.51 444.699 Q198.528 444.351 199.547 444.189 Q200.565 444.004 201.584 444.004 Q207.371 444.004 210.75 447.175 Q214.13 450.347 214.13 455.763 Q214.13 461.342 210.658 464.444 Q207.186 467.523 200.866 467.523 Q198.69 467.523 196.422 467.152 Q194.176 466.782 191.769 466.041 L191.769 461.342 Q193.852 462.476 196.075 463.032 Q198.297 463.587 200.774 463.587 Q204.778 463.587 207.116 461.481 Q209.454 459.374 209.454 455.763 Q209.454 452.152 207.116 450.046 Q204.778 447.939 200.774 447.939 Q198.899 447.939 197.024 448.356 Q195.172 448.773 193.227 449.652 L193.227 432.291 Z" fill="#000000" fill-rule="evenodd" fill-opacity="1" /><path clip-path="url(#clip770)" d="M 0 0 M130.242 183.475 L137.88 183.475 L137.88 157.109 L129.57 158.776 L129.57 154.517 L137.834 152.85 L142.51 152.85 L142.51 183.475 L150.149 183.475 L150.149 187.41 L130.242 187.41 L130.242 183.475 Z" fill="#000000" fill-rule="evenodd" fill-opacity="1" /><path clip-path="url(#clip770)" d="M 0 0 M155.218 181.53 L160.103 181.53 L160.103 187.41 L155.218 187.41 L155.218 181.53 Z" fill="#000000" fill-rule="evenodd" fill-opacity="1" /><path clip-path="url(#clip770)" d="M 0 0 M175.172 155.929 Q171.561 155.929 169.732 159.493 Q167.927 163.035 167.927 170.165 Q167.927 177.271 169.732 180.836 Q171.561 184.378 175.172 184.378 Q178.806 184.378 180.612 180.836 Q182.44 177.271 182.44 170.165 Q182.44 163.035 180.612 159.493 Q178.806 155.929 175.172 155.929 M175.172 152.225 Q180.982 152.225 184.038 156.831 Q187.116 161.415 187.116 170.165 Q187.116 178.891 184.038 183.498 Q180.982 188.081 175.172 188.081 Q169.362 188.081 166.283 183.498 Q163.228 178.891 163.228 170.165 Q163.228 161.415 166.283 156.831 Q169.362 152.225 175.172 152.225 Z" fill="#000000" fill-rule="evenodd" fill-opacity="1" /><path clip-path="url(#clip770)" d="M 0 0 M202.186 155.929 Q198.575 155.929 196.746 159.493 Q194.94 163.035 194.94 170.165 Q194.94 177.271 196.746 180.836 Q198.575 184.378 202.186 184.378 Q205.82 184.378 207.625 180.836 Q209.454 177.271 209.454 170.165 Q209.454 163.035 207.625 159.493 Q205.82 155.929 202.186 155.929 M202.186 152.225 Q207.996 152.225 211.051 156.831 Q214.13 161.415 214.13 170.165 Q214.13 178.891 211.051 183.498 Q207.996 188.081 202.186 188.081 Q196.376 188.081 193.297 183.498 Q190.241 178.891 190.241 170.165 Q190.241 161.415 193.297 156.831 Q196.376 152.225 202.186 152.225 Z" fill="#000000" fill-rule="evenodd" fill-opacity="1" /><path clip-path="url(#clip770)" d="M 0 0 M1312.06 1520.4 L1299.17 1537.74 L1312.73 1556.04 L1305.82 1556.04 L1295.44 1542.04 L1285.07 1556.04 L1278.16 1556.04 L1292.01 1537.39 L1279.34 1520.4 L1286.24 1520.4 L1295.7 1533.1 L1305.15 1520.4 L1312.06 1520.4 Z" fill="#000000" fill-rule="evenodd" fill-opacity="1" /><path clip-path="url(#clip770)" d="M 0 0 M70.212 745.095 Q76.6732 745.095 80.3653 742.453 Q84.0256 739.779 84.0256 735.132 Q84.0256 730.485 80.3653 727.812 Q76.6732 725.138 70.212 725.138 Q63.7508 725.138 60.0905 727.812 Q56.3984 730.485 56.3984 735.132 Q56.3984 739.779 60.0905 742.453 Q63.7508 745.095 70.212 745.095 M82.657 725.138 Q85.8398 726.984 87.3994 729.817 Q88.9272 732.618 88.9272 736.565 Q88.9272 743.026 83.771 747.1 Q78.6147 751.142 70.212 751.142 Q61.8093 751.142 56.6531 747.1 Q51.4968 743.026 51.4968 736.565 Q51.4968 732.618 53.0564 729.817 Q54.5842 726.984 57.7671 725.138 L52.3562 725.138 L52.3562 719.282 L101.563 719.282 L101.563 725.138 L82.657 725.138 Z" fill="#000000" fill-rule="evenodd" fill-opacity="1" /><polyline clip-path="url(#clip772)" style="stroke:#009af9; stroke-width:4; stroke-opacity:1; fill:none" points="
  297.978,1287.9 300.669,1287.9 305.771,1287.9 310.872,1287.9 313.563,1287.9 316.255,1287.9 321.356,1287.9 326.458,1287.9 329.149,1287.9 
  331.84,1287.9 336.941,1287.9 342.043,1287.9 344.734,1287.9 347.425,1287.9 352.527,1287.9 357.628,1287.9 360.32,1287.9 
  363.011,1287.9 368.112,1287.9 373.214,1287.9 375.905,1287.9 378.596,1287.9 383.698,1287.9 388.799,1287.9 391.49,1287.9 
  394.181,1287.9 399.283,1287.9 404.385,1287.9 407.076,1287.9 409.767,1287.9 414.868,1287.9 419.97,1287.9 422.661,1287.9 
  425.352,1287.9 430.454,1287.9 435.555,1287.9 438.246,1287.9 440.938,1287.9 446.039,1287.9 451.141,1287.9 453.832,1287.9 
  456.523,1287.9 461.625,1287.9 466.726,1287.9 469.417,1287.9 472.108,1287.9 477.21,1287.9 482.311,1287.9 485.003,1287.9 
  487.694,1287.9 492.795,1287.9 497.897,1287.9 500.588,1287.9 503.279,1287.9 508.381,1287.9 513.482,1287.9 516.173,1287.9 
  518.865,1287.9 523.966,1287.9 529.068,1287.9 531.759,1287.9 534.45,1287.9 539.552,1287.9 544.653,1287.9 547.344,1287.9 
  550.035,1287.9 555.137,1287.9 560.238,1287.9 562.93,1287.9 565.621,1287.9 570.722,1287.9 575.824,1287.9 578.515,1287.9 
  581.206,1287.9 586.308,1287.9 591.409,1287.9 594.1,1287.9 596.792,1287.9 601.893,1287.9 606.995,1287.9 609.686,1287.9 
  612.377,1287.9 617.478,1287.9 622.58,1287.9 625.271,1287.9 627.962,1287.9 633.064,1287.9 638.165,1287.9 640.857,1287.9 
  643.548,1287.9 648.649,1287.9 653.751,1287.9 656.442,1287.9 659.133,1287.9 664.235,1287.9 669.336,1287.9 672.027,1287.9 
  674.719,1287.9 679.82,1287.9 684.922,1287.9 687.613,1287.9 690.304,1287.9 695.405,1287.9 700.507,1287.9 703.198,1287.9 
  705.889,1287.9 710.991,1287.9 716.092,1287.9 718.784,1287.9 721.475,1287.9 726.576,170.13 731.678,170.13 734.369,170.13 
  737.06,170.13 742.162,170.13 747.263,170.13 749.954,170.13 752.645,170.13 757.747,170.13 762.849,170.13 765.54,170.13 
  768.231,170.13 773.332,170.13 778.434,170.13 781.125,170.13 783.816,170.13 788.918,170.13 794.019,170.13 796.71,170.13 
  799.402,170.13 804.503,170.13 809.605,170.13 812.296,170.13 814.987,170.13 820.089,170.13 825.19,170.13 827.881,170.13 
  830.572,170.13 835.674,170.13 840.775,170.13 843.467,170.13 846.158,170.13 851.259,170.13 856.361,170.13 859.052,170.13 
  861.743,170.13 866.845,170.13 871.946,170.13 874.637,170.13 877.329,170.13 882.43,170.13 887.532,170.13 890.223,170.13 
  892.914,170.13 898.016,170.13 903.117,170.13 905.808,170.13 908.499,170.13 913.601,170.13 918.702,170.13 921.394,170.13 
  924.085,170.13 929.186,170.13 934.288,170.13 936.979,170.13 939.67,170.13 944.772,170.13 949.873,170.13 952.564,170.13 
  955.256,170.13 960.357,170.13 965.459,170.13 968.15,170.13 970.841,170.13 975.942,170.13 981.044,170.13 983.735,170.13 
  986.426,170.13 991.528,170.13 996.629,170.13 999.321,170.13 1002.01,170.13 1007.11,170.13 1012.21,1287.9 1014.91,1287.9 
  1017.6,1287.9 1022.7,1287.9 1027.8,1287.9 1030.49,1287.9 1033.18,1287.9 1038.28,1287.9 1043.39,1287.9 1046.08,1287.9 
  1048.77,1287.9 1053.87,1287.9 1058.97,1287.9 1061.66,1287.9 1064.35,1287.9 1069.45,1287.9 1074.56,1287.9 1077.25,1287.9 
  1079.94,1287.9 1085.04,1287.9 1090.14,1287.9 1092.83,1287.9 1095.52,1287.9 1100.63,1287.9 1105.73,1287.9 1108.42,1287.9 
  1111.11,1287.9 1116.21,1287.9 1121.31,1287.9 1124,1287.9 1126.69,1287.9 1131.8,1287.9 1136.9,1287.9 1139.59,1287.9 
  1142.28,1287.9 1147.38,1287.9 1152.48,1287.9 1155.17,1287.9 1157.87,1287.9 1162.97,1287.9 1168.07,1287.9 1170.76,1287.9 
  1173.45,1287.9 1178.55,1287.9 1183.65,1287.9 1186.35,1287.9 1189.04,1287.9 1194.14,1287.9 1199.24,1287.9 1201.93,1287.9 
  1204.62,1287.9 1209.72,1287.9 1214.82,1287.9 1217.52,1287.9 1220.21,1287.9 1225.31,1287.9 1230.41,1287.9 1233.1,1287.9 
  1235.79,1287.9 1240.89,1287.9 1246,1287.9 1248.69,1287.9 1251.38,1287.9 1256.48,1287.9 1261.58,1287.9 1264.27,1287.9 
  1266.96,1287.9 1272.06,1287.9 1277.17,1287.9 1279.86,1287.9 1282.55,1287.9 1287.65,1287.9 1292.75,1287.9 1295.44,1287.9 
  1298.13,1287.9 1303.24,1287.9 1308.34,1287.9 1311.03,1287.9 1313.72,1287.9 1318.82,1287.9 1323.92,1287.9 1326.61,1287.9 
  1329.3,1287.9 1334.41,1287.9 1339.51,1287.9 1342.2,1287.9 1344.89,1287.9 1349.99,1287.9 1355.09,1287.9 1357.78,1287.9 
  1360.48,1287.9 1365.58,1287.9 1370.68,1287.9 1373.37,1287.9 1376.06,1287.9 1381.16,1287.9 1386.26,1287.9 1388.96,1287.9 
  1391.65,1287.9 1396.75,1287.9 1401.85,1287.9 1404.54,1287.9 1407.23,1287.9 1412.33,1287.9 1417.43,1287.9 1420.13,1287.9 
  1422.82,1287.9 1427.92,1287.9 1433.02,1287.9 1435.71,1287.9 1438.4,1287.9 1443.5,1287.9 1448.61,1287.9 1451.3,1287.9 
  1453.99,1287.9 1459.09,1287.9 1464.19,1287.9 1466.88,1287.9 1469.57,1287.9 1474.67,1287.9 1479.78,1287.9 1482.47,1287.9 
  1485.16,1287.9 1490.26,1287.9 1495.36,1287.9 1498.05,1287.9 1500.74,1287.9 1505.85,1287.9 1510.95,1287.9 1513.64,1287.9 
  1516.33,1287.9 1521.43,1287.9 1526.53,1287.9 1529.22,1287.9 1531.92,1287.9 1537.02,1287.9 1542.12,1287.9 1544.81,1287.9 
  1547.5,1287.9 1552.6,1287.9 1557.7,1287.9 1560.39,1287.9 1563.09,1287.9 1568.19,1287.9 1573.29,1287.9 1575.98,1287.9 
  1578.67,1287.9 1583.77,1287.9 1588.87,1287.9 1591.57,1287.9 1594.26,1287.9 1599.36,1287.9 1604.46,1287.9 1607.15,1287.9 
  1609.84,1287.9 1614.94,1287.9 1620.05,1287.9 1622.74,1287.9 1625.43,1287.9 1630.53,1287.9 1635.63,1287.9 1638.32,1287.9 
  1641.01,1287.9 1646.11,1287.9 1651.22,1287.9 1653.91,1287.9 1656.6,1287.9 1661.7,1287.9 1666.8,1287.9 1669.49,1287.9 
  1672.18,1287.9 1677.29,1287.9 1682.39,1287.9 1685.08,1287.9 1687.77,1287.9 1692.87,1287.9 1697.97,1287.9 1700.66,1287.9 
  1703.35,1287.9 1708.46,1287.9 1713.56,1287.9 1716.25,1287.9 1718.94,1287.9 1724.04,1287.9 1729.14,1287.9 1731.83,1287.9 
  1734.53,1287.9 1739.63,1287.9 1744.73,1287.9 1747.42,1287.9 1750.11,1287.9 1755.21,1287.9 1760.31,1287.9 1763,1287.9 
  1765.7,1287.9 1770.8,1287.9 1775.9,1287.9 1778.59,1287.9 1781.28,1287.9 1786.38,1287.9 1791.48,1287.9 1794.18,1287.9 
  1796.87,1287.9 1801.97,1287.9 1807.07,1287.9 1809.76,1287.9 1812.45,1287.9 1817.55,1287.9 1822.66,1287.9 1825.35,1287.9 
  1828.04,1287.9 1833.14,1287.9 1838.24,1287.9 1840.93,1287.9 1843.62,1287.9 1848.72,1287.9 1853.83,1287.9 1856.52,1287.9 
  1859.21,1287.9 1864.31,1287.9 1869.41,1287.9 1872.1,1287.9 1874.79,1287.9 1879.9,1287.9 1885,1287.9 1887.69,1287.9 
  1890.38,1287.9 1895.48,1287.9 1900.58,1287.9 1903.27,1287.9 1905.96,1287.9 1911.07,1287.9 1916.17,1287.9 1918.86,1287.9 
  1921.55,1287.9 1926.65,1287.9 1931.75,1287.9 1934.44,1287.9 1937.14,1287.9 1942.24,1287.9 1947.34,1287.9 1950.03,1287.9 
  1952.72,1287.9 1957.82,1287.9 1962.92,1287.9 1965.61,1287.9 1968.31,1287.9 1973.41,1287.9 1978.51,1287.9 1981.2,1287.9 
  1983.89,1287.9 1988.99,1287.9 1994.09,1287.9 1996.79,1287.9 1999.48,1287.9 2004.58,1287.9 2009.68,1287.9 2012.37,1287.9 
  2015.06,1287.9 2020.16,1287.9 2025.27,1287.9 2027.96,1287.9 2030.65,1287.9 2035.75,1287.9 2040.85,1287.9 2043.54,1287.9 
  2046.23,1287.9 2051.33,1287.9 2056.44,1287.9 2059.13,1287.9 2061.82,1287.9 2066.92,1287.9 2072.02,1287.9 2074.71,1287.9 
  2077.4,1287.9 2082.51,1287.9 2087.61,1287.9 2090.3,1287.9 2092.99,1287.9 2098.09,1287.9 2103.19,1287.9 2105.88,1287.9 
  2108.57,1287.9 2113.68,1287.9 2118.78,1287.9 2121.47,1287.9 2124.16,1287.9 2129.26,1287.9 2134.36,1287.9 2137.05,1287.9 
  2139.75,1287.9 2144.85,1287.9 2149.95,1287.9 2152.64,1287.9 2155.33,1287.9 2160.43,1287.9 2165.53,1287.9 2168.22,1287.9 
  2170.92,1287.9 2176.02,1287.9 2181.12,1287.9 2183.81,1287.9 2186.5,1287.9 2191.6,1287.9 2196.7,1287.9 2199.4,1287.9 
  2202.09,1287.9 2207.19,1287.9 2212.29,1287.9 2214.98,1287.9 2217.67,1287.9 2222.77,1287.9 2227.88,1287.9 2230.57,1287.9 
  2233.26,1287.9 2238.36,1287.9 2243.46,1287.9 2246.15,1287.9 2248.84,1287.9 2253.94,1287.9 2259.05,1287.9 2261.74,1287.9 
  2264.43,1287.9 2269.53,1287.9 2274.63,1287.9 2277.32,1287.9 2280.01,1287.9 2285.12,1287.9 2290.22,1287.9 2292.91,1287.9 
  
  "/>
<polyline clip-path="url(#clip772)" style="stroke:#e26f46; stroke-width:4; stroke-opacity:1; fill:none" points="
  297.978,1287.9 300.669,1287.9 305.771,1287.9 310.872,1287.9 313.563,1287.9 316.255,1287.9 321.356,1287.9 326.458,1287.9 329.149,1287.9 
  331.84,1287.9 336.941,1287.9 342.043,1287.9 344.734,1287.9 347.425,1287.9 352.527,1287.9 357.628,1287.9 360.32,1287.9 
  363.011,1287.9 368.112,1287.9 373.214,1287.9 375.905,1287.9 378.596,1287.9 383.698,1287.9 388.799,1287.9 391.49,1287.9 
  394.181,1287.9 399.283,1287.9 404.385,1287.9 407.076,1287.9 409.767,1287.9 414.868,1287.9 419.97,1287.9 422.661,1287.9 
  425.352,1287.9 430.454,1287.9 435.555,1287.9 438.246,1287.9 440.938,1287.9 446.039,1287.9 451.141,1287.9 453.832,1287.9 
  456.523,1287.9 461.625,1287.9 466.726,1287.9 469.417,1287.9 472.108,1287.9 477.21,1287.9 482.311,1287.9 485.003,1287.9 
  487.694,1287.9 492.795,1287.9 497.897,1287.9 500.588,1287.9 503.279,1287.9 508.381,1287.9 513.482,1287.9 516.173,1287.9 
  518.865,1287.9 523.966,1287.9 529.068,1287.9 531.759,1287.9 534.45,1287.9 539.552,1287.9 544.653,1287.9 547.344,1287.9 
  550.035,1287.9 555.137,1287.9 560.238,1287.9 562.93,1287.9 565.621,1287.9 570.722,1287.9 575.824,1287.9 578.515,1287.9 
  581.206,1287.9 586.308,1287.9 591.409,1287.9 594.1,1287.9 596.792,1287.9 601.893,1287.9 606.995,1287.9 609.686,1287.9 
  612.377,1287.9 617.478,1287.9 622.58,1287.9 625.271,1287.9 627.962,1287.9 633.064,1287.9 638.165,1287.9 640.857,1287.9 
  643.548,1287.9 648.649,1287.9 653.751,1287.9 656.442,1287.9 659.133,1287.9 664.235,1287.9 669.336,1287.9 672.027,1287.9 
  674.719,1287.9 679.82,1287.9 684.922,1287.9 687.613,1287.9 690.304,1287.9 695.405,1287.9 700.507,1287.9 703.198,1287.9 
  705.889,1287.9 710.991,1287.9 716.092,1287.9 718.784,1287.9 718.784,1287.9 721.475,1287.9 726.576,1287.9 731.678,1287.9 734.369,1287.9 
  734.369,1287.9 737.06,1287.9 742.162,1287.9 747.263,1287.9 749.954,1287.9 749.954,1287.9 752.645,1287.9 757.747,1287.9 762.849,1287.9 765.54,1287.9 
  765.54,1287.9 768.231,1287.9 773.332,1287.9 778.434,1287.9 781.125,1287.9 781.125,1287.9 783.816,1287.9 788.918,1287.9 794.019,1287.9 796.71,1287.9 
  796.71,1287.9 799.402,1287.9 804.503,1287.9 809.605,1287.9 812.296,1287.9 812.296,1287.9 814.987,1287.9 820.089,1287.9 825.19,1287.9 827.881,1287.9 
  827.881,1287.9 830.572,1287.9 835.674,1287.9 840.775,1287.9 843.467,1287.9 843.467,1287.9 846.158,1287.9 851.259,1287.9 856.361,1287.9 859.052,1287.9 
  859.052,1287.9 861.743,1287.9 866.845,1287.9 871.946,1287.9 874.637,1287.9 874.637,1287.9 877.329,1287.9 882.43,1287.9 887.532,1287.9 890.223,1287.9 
  890.223,1287.9 892.914,1287.9 898.016,1287.9 903.117,1287.9 905.808,1287.9 905.808,1287.9 908.499,1287.9 913.601,1287.9 918.702,1287.9 921.394,1287.9 
  921.394,1287.9 924.085,1287.9 929.186,1287.9 934.288,1287.9 936.979,1287.9 936.979,1287.9 939.67,1287.9 944.772,1287.9 949.873,1287.9 952.564,1287.9 
  952.564,1287.9 955.256,1287.9 960.357,1287.9 965.459,1287.9 968.15,1287.9 968.15,1287.9 970.841,1287.9 975.942,1287.9 981.044,1287.9 983.735,1287.9 
  983.735,1287.9 986.426,1287.9 991.528,1287.9 996.629,1287.9 999.321,1287.9 999.321,1287.9 1002.01,1287.9 1007.11,1287.9 1012.21,1287.9 1014.91,1287.9 
  1014.91,1287.9 1017.6,1287.9 1022.7,1287.9 1027.8,1287.9 1030.49,1287.9 1030.49,1287.9 1033.18,1287.9 1038.28,1287.9 1043.39,1287.89 1046.08,1287.89 
  1046.08,1287.89 1048.77,1287.9 1053.87,1287.9 1058.97,1287.9 1061.66,1287.9 1061.66,1287.9 1064.35,1287.9 1069.45,1287.9 1074.56,1287.89 1077.25,1287.89 
  1077.25,1287.89 1079.94,1287.89 1085.04,1287.89 1090.14,1287.9 1092.83,1287.9 1092.83,1287.9 1095.52,1287.9 1100.63,1287.9 1105.73,1287.9 1108.42,1287.9 
  1108.42,1287.9 1111.11,1287.89 1116.21,1287.87 1121.31,1287.87 1124,1287.87 1124,1287.87 1126.69,1287.89 1131.8,1287.92 1136.9,1287.96 1139.59,1287.98 
  1139.59,1287.98 1142.28,1287.97 1147.38,1287.92 1152.48,1287.81 1155.17,1287.74 1155.17,1287.77 1157.87,1287.69 1162.97,1287.67 1168.07,1287.84 1170.76,1287.99 
  1170.76,1287.9 1173.45,1288.19 1178.55,1288.52 1183.65,1288.54 1186.35,1288.43 1186.35,1288.58 1189.04,1288.04 1194.14,1287.08 1199.24,1286.17 1201.93,1285.71 
  1201.93,1285.73 1204.62,1285.86 1209.72,1287.1 1214.82,1289.64 1217.52,1291.5 1217.52,1290.77 1220.21,1292.98 1225.31,1294.22 1230.41,1291.62 1233.1,1288.69 
  1233.1,1290.25 1235.79,1283.91 1240.89,1274.34 1246,1267.99 1248.69,1265.94 1248.69,1265.54 1251.38,1270.21 1256.48,1287.07 1261.58,1314.44 1264.27,1333.1 
  1264.27,1325.56 1266.96,1348.87 1272.06,1362.62 1277.17,1336.48 1279.86,1306.62 1279.86,1308.81 1282.55,1250.58 1287.65,1102.76 1292.75,905.902 1295.44,782.299 
  1295.44,794.317 1298.13,660.964 1303.24,440.243 1308.34,261.509 1311.03,184.139 1311.03,182.272 1313.72,136.017 1318.82,86.2686 1323.92,86.1857 1326.61,106.152 
  1326.61,99.1396 1329.3,124.607 1334.41,163.557 1339.51,190.294 1342.2,199.477 1342.2,200.879 1344.89,199.345 1349.99,192.083 1355.09,179.119 1357.78,169.982 
  1357.78,170.794 1360.48,165.563 1365.58,160.323 1370.68,161.205 1373.37,164.137 1373.37,163.366 1376.06,166.774 1381.16,171.42 1386.26,173.689 1388.96,173.93 
  1388.96,174.222 1391.65,173.161 1396.75,171.295 1401.85,169.621 1404.54,168.816 1404.54,168.782 1407.23,168.791 1412.33,169.092 1417.43,169.763 1420.13,170.267 
  1420.13,170.243 1422.82,170.429 1427.92,170.575 1433.02,170.451 1435.71,170.277 1435.71,170.275 1438.4,170.215 1443.5,170.153 1448.61,170.161 1451.3,170.193 
  1451.3,170.232 1453.99,170.129 1459.09,169.899 1464.19,169.621 1466.88,169.455 1466.88,169.461 1469.57,169.488 1474.67,169.903 1479.78,170.792 1482.47,171.452 
  1482.47,171.2 1485.16,171.949 1490.26,172.278 1495.36,171.176 1498.05,170.018 1498.05,170.699 1500.74,168.3 1505.85,165.131 1510.95,163.77 1513.64,163.779 
  1513.64,163.26 1516.33,166.124 1521.43,173.258 1526.53,182.623 1529.22,188.463 1529.22,186.853 1531.92,191.157 1537.02,189.258 1542.12,174.188 1544.81,160.932 
  1544.81,166.892 1547.5,143.012 1552.6,111.093 1557.7,96.6489 1560.39,96.0705 1560.39,99.5484 1563.09,116.865 1568.19,196.495 1573.29,337.405 1575.98,436.43 
  1575.98,425.046 1578.67,549.308 1583.77,778.031 1588.87,997.807 1591.57,1110.14 1591.57,1105.89 1594.26,1195.13 1599.36,1315.54 1604.46,1372.11 1607.15,1376.22 
  1607.15,1384.24 1609.84,1368.86 1614.94,1336.06 1620.05,1298.49 1622.74,1276.74 1622.74,1277.86 1625.43,1267.41 1630.53,1258.57 1635.63,1264.09 1638.32,1272.8 
  1638.32,1270.84 1641.01,1279.79 1646.11,1291.92 1651.22,1297.74 1653.91,1298.26 1653.91,1299.06 1656.6,1296.41 1661.7,1291.58 1666.8,1287.01 1669.49,1284.7 
  1669.49,1284.65 1672.18,1284.35 1677.29,1284.76 1682.39,1286.46 1685.08,1287.87 1685.08,1287.73 1687.77,1288.51 1692.87,1289.26 1697.97,1289.06 1700.66,1288.56 
  1700.66,1288.67 1703.35,1288.17 1708.46,1287.55 1713.56,1287.35 1716.25,1287.41 1716.25,1287.37 1718.94,1287.58 1724.04,1287.88 1729.14,1288.07 1731.83,1288.13 
  1731.83,1288.14 1734.53,1288.08 1739.63,1287.97 1744.73,1287.86 1747.42,1287.81 1747.42,1287.81 1750.11,1287.81 1755.21,1287.84 1760.31,1287.89 1763,1287.92 
  1763,1287.92 1765.7,1287.92 1770.8,1287.92 1775.9,1287.91 1778.59,1287.89 1778.59,1287.89 1781.28,1287.89 1786.38,1287.88 1791.48,1287.89 1794.18,1287.89 
  1794.18,1287.89 1796.87,1287.9 1801.97,1287.9 1807.07,1287.9 1809.76,1287.9 1809.76,1287.9 1812.45,1287.9 1817.55,1287.89 1822.66,1287.89 1825.35,1287.89 
  1825.35,1287.89 1828.04,1287.89 1833.14,1287.9 1838.24,1287.9 1840.93,1287.9 1840.93,1287.9 1843.62,1287.9 1848.72,1287.9 1853.83,1287.89 1856.52,1287.89 
  1856.52,1287.89 1859.21,1287.9 1864.31,1287.9 1869.41,1287.9 1872.1,1287.9 1872.1,1287.9 1874.79,1287.9 1879.9,1287.9 1885,1287.9 1887.69,1287.9 
  1887.69,1287.9 1890.38,1287.9 1895.48,1287.9 1900.58,1287.9 1903.27,1287.9 1903.27,1287.9 1905.96,1287.9 1911.07,1287.9 1916.17,1287.9 1918.86,1287.9 
  1918.86,1287.9 1921.55,1287.9 1926.65,1287.9 1931.75,1287.9 1934.44,1287.9 1934.44,1287.9 1937.14,1287.9 1942.24,1287.9 1947.34,1287.9 1950.03,1287.9 
  1950.03,1287.9 1952.72,1287.9 1957.82,1287.9 1962.92,1287.9 1965.61,1287.9 1965.61,1287.9 1968.31,1287.9 1973.41,1287.9 1978.51,1287.9 1981.2,1287.9 
  1981.2,1287.9 1983.89,1287.9 1988.99,1287.9 1994.09,1287.9 1996.79,1287.9 1996.79,1287.9 1999.48,1287.9 2004.58,1287.9 2009.68,1287.9 2012.37,1287.9 
  2012.37,1287.9 2015.06,1287.9 2020.16,1287.9 2025.27,1287.9 2027.96,1287.9 2027.96,1287.9 2030.65,1287.9 2035.75,1287.9 2040.85,1287.9 2043.54,1287.9 
  2043.54,1287.9 2046.23,1287.9 2051.33,1287.9 2056.44,1287.9 2059.13,1287.9 2059.13,1287.9 2061.82,1287.9 2066.92,1287.9 2072.02,1287.9 2074.71,1287.9 
  2074.71,1287.9 2077.4,1287.9 2082.51,1287.9 2087.61,1287.9 2090.3,1287.9 2090.3,1287.9 2092.99,1287.9 2098.09,1287.9 2103.19,1287.9 2105.88,1287.9 
  2105.88,1287.9 2108.57,1287.9 2113.68,1287.9 2118.78,1287.9 2121.47,1287.9 2121.47,1287.9 2124.16,1287.9 2129.26,1287.9 2134.36,1287.9 2137.05,1287.9 
  2137.05,1287.9 2139.75,1287.9 2144.85,1287.9 2149.95,1287.9 2152.64,1287.9 2152.64,1287.9 2155.33,1287.9 2160.43,1287.9 2165.53,1287.9 2168.22,1287.9 
  2170.92,1287.9 2176.02,1287.9 2181.12,1287.9 2183.81,1287.9 2186.5,1287.9 2191.6,1287.9 2196.7,1287.9 2199.4,1287.9 
  2202.09,1287.9 2207.19,1287.9 2212.29,1287.9 2214.98,1287.9 2217.67,1287.9 2222.77,1287.9 2227.88,1287.9 2230.57,1287.9 
  2233.26,1287.9 2238.36,1287.9 2243.46,1287.9 2246.15,1287.9 2248.84,1287.9 2253.94,1287.9 2259.05,1287.9 2261.74,1287.9 
  2264.43,1287.9 2269.53,1287.9 2274.63,1287.9 2277.32,1287.9 2280.01,1287.9 2285.12,1287.9 2290.22,1287.9 2292.91,1287.9 
  
  "/>
<path clip-path="url(#clip770)" d="
M1802.38 274.549 L2282.27 274.549 L2282.27 93.1086 L1802.38 93.1086  Z
  " fill="#ffffff" fill-rule="evenodd" fill-opacity="1"/>
<polyline clip-path="url(#clip770)" style="stroke:#000000; stroke-width:4; stroke-opacity:1; fill:none" points="
  1802.38,274.549 2282.27,274.549 2282.27,93.1086 1802.38,93.1086 1802.38,274.549 
  "/>
<polyline clip-path="url(#clip770)" style="stroke:#009af9; stroke-width:4; stroke-opacity:1; fill:none" points="
  1825.88,153.589 1966.85,153.589 
  "/>
<path clip-path="url(#clip770)" d="M 0 0 M1994.75 157.929 Q1994.75 162.628 1996.67 165.313 Q1998.61 167.975 2001.99 167.975 Q2005.37 167.975 2007.31 165.313 Q2009.26 162.628 2009.26 157.929 Q2009.26 153.23 2007.31 150.568 Q2005.37 147.883 2001.99 147.883 Q1998.61 147.883 1996.67 150.568 Q1994.75 153.23 1994.75 157.929 M2009.26 166.98 Q2007.92 169.295 2005.86 170.429 Q2003.82 171.54 2000.95 171.54 Q1996.25 171.54 1993.29 167.79 Q1990.35 164.04 1990.35 157.929 Q1990.35 151.818 1993.29 148.068 Q1996.25 144.318 2000.95 144.318 Q2003.82 144.318 2005.86 145.452 Q2007.92 146.563 2009.26 148.878 L2009.26 144.943 L2013.52 144.943 L2013.52 180.73 L2009.26 180.73 L2009.26 166.98 Z" fill="#000000" fill-rule="evenodd" fill-opacity="1" /><path clip-path="url(#clip770)" d="M 0 0 M2019.07 164.989 L2023.96 164.989 L2023.96 168.97 L2020.16 176.378 L2017.18 176.378 L2019.07 168.97 L2019.07 164.989 Z" fill="#000000" fill-rule="evenodd" fill-opacity="1" /><path clip-path="url(#clip770)" d="M 0 0 M2047.71 137.582 L2047.71 144.943 L2056.48 144.943 L2056.48 148.253 L2047.71 148.253 L2047.71 162.327 Q2047.71 165.498 2048.56 166.401 Q2049.44 167.304 2052.11 167.304 L2056.48 167.304 L2056.48 170.869 L2052.11 170.869 Q2047.18 170.869 2045.3 169.04 Q2043.43 167.188 2043.43 162.327 L2043.43 148.253 L2040.3 148.253 L2040.3 144.943 L2043.43 144.943 L2043.43 137.582 L2047.71 137.582 Z" fill="#000000" fill-rule="evenodd" fill-opacity="1" /><path clip-path="url(#clip770)" d="M 0 0 M2061.5 149.341 L2091.18 149.341 L2091.18 153.23 L2061.5 153.23 L2061.5 149.341 M2061.5 158.785 L2091.18 158.785 L2091.18 162.721 L2061.5 162.721 L2061.5 158.785 Z" fill="#000000" fill-rule="evenodd" fill-opacity="1" /><path clip-path="url(#clip770)" d="M 0 0 M2106.25 139.387 Q2102.64 139.387 2100.81 142.952 Q2099 146.494 2099 153.623 Q2099 160.73 2100.81 164.295 Q2102.64 167.836 2106.25 167.836 Q2109.88 167.836 2111.69 164.295 Q2113.52 160.73 2113.52 153.623 Q2113.52 146.494 2111.69 142.952 Q2109.88 139.387 2106.25 139.387 M2106.25 135.684 Q2112.06 135.684 2115.12 140.29 Q2118.19 144.873 2118.19 153.623 Q2118.19 162.35 2115.12 166.957 Q2112.06 171.54 2106.25 171.54 Q2100.44 171.54 2097.36 166.957 Q2094.31 162.35 2094.31 153.623 Q2094.31 144.873 2097.36 140.29 Q2100.44 135.684 2106.25 135.684 Z" fill="#000000" fill-rule="evenodd" fill-opacity="1" /><path clip-path="url(#clip770)" d="M 0 0 M2123.26 164.989 L2128.15 164.989 L2128.15 170.869 L2123.26 170.869 L2123.26 164.989 Z" fill="#000000" fill-rule="evenodd" fill-opacity="1" /><path clip-path="url(#clip770)" d="M 0 0 M2143.22 139.387 Q2139.61 139.387 2137.78 142.952 Q2135.97 146.494 2135.97 153.623 Q2135.97 160.73 2137.78 164.295 Q2139.61 167.836 2143.22 167.836 Q2146.85 167.836 2148.66 164.295 Q2150.49 160.73 2150.49 153.623 Q2150.49 146.494 2148.66 142.952 Q2146.85 139.387 2143.22 139.387 M2143.22 135.684 Q2149.03 135.684 2152.08 140.29 Q2155.16 144.873 2155.16 153.623 Q2155.16 162.35 2152.08 166.957 Q2149.03 171.54 2143.22 171.54 Q2137.41 171.54 2134.33 166.957 Q2131.27 162.35 2131.27 153.623 Q2131.27 144.873 2134.33 140.29 Q2137.41 135.684 2143.22 135.684 Z" fill="#000000" fill-rule="evenodd" fill-opacity="1" /><polyline clip-path="url(#clip770)" style="stroke:#e26f46; stroke-width:4; stroke-opacity:1; fill:none" points="
  1825.88,214.069 1966.85,214.069 
  "/>
<path clip-path="url(#clip770)" d="M 0 0 M1994.75 218.409 Q1994.75 223.108 1996.67 225.793 Q1998.61 228.455 2001.99 228.455 Q2005.37 228.455 2007.31 225.793 Q2009.26 223.108 2009.26 218.409 Q2009.26 213.71 2007.31 211.048 Q2005.37 208.363 2001.99 208.363 Q1998.61 208.363 1996.67 211.048 Q1994.75 213.71 1994.75 218.409 M2009.26 227.46 Q2007.92 229.775 2005.86 230.909 Q2003.82 232.02 2000.95 232.02 Q1996.25 232.02 1993.29 228.27 Q1990.35 224.52 1990.35 218.409 Q1990.35 212.298 1993.29 208.548 Q1996.25 204.798 2000.95 204.798 Q2003.82 204.798 2005.86 205.932 Q2007.92 207.043 2009.26 209.358 L2009.26 205.423 L2013.52 205.423 L2013.52 241.21 L2009.26 241.21 L2009.26 227.46 Z" fill="#000000" fill-rule="evenodd" fill-opacity="1" /><path clip-path="url(#clip770)" d="M 0 0 M2019.07 225.469 L2023.96 225.469 L2023.96 229.45 L2020.16 236.858 L2017.18 236.858 L2019.07 229.45 L2019.07 225.469 Z" fill="#000000" fill-rule="evenodd" fill-opacity="1" /><path clip-path="url(#clip770)" d="M 0 0 M2047.71 198.062 L2047.71 205.423 L2056.48 205.423 L2056.48 208.733 L2047.71 208.733 L2047.71 222.807 Q2047.71 225.978 2048.56 226.881 Q2049.44 227.784 2052.11 227.784 L2056.48 227.784 L2056.48 231.349 L2052.11 231.349 Q2047.18 231.349 2045.3 229.52 Q2043.43 227.668 2043.43 222.807 L2043.43 208.733 L2040.3 208.733 L2040.3 205.423 L2043.43 205.423 L2043.43 198.062 L2047.71 198.062 Z" fill="#000000" fill-rule="evenodd" fill-opacity="1" /><path clip-path="url(#clip770)" d="M 0 0 M2061.5 209.821 L2091.18 209.821 L2091.18 213.71 L2061.5 213.71 L2061.5 209.821 M2061.5 219.265 L2091.18 219.265 L2091.18 223.201 L2061.5 223.201 L2061.5 219.265 Z" fill="#000000" fill-rule="evenodd" fill-opacity="1" /><path clip-path="url(#clip770)" d="M 0 0 M2109.1 200.863 L2097.29 219.312 L2109.1 219.312 L2109.1 200.863 M2107.87 196.789 L2113.75 196.789 L2113.75 219.312 L2118.68 219.312 L2118.68 223.201 L2113.75 223.201 L2113.75 231.349 L2109.1 231.349 L2109.1 223.201 L2093.5 223.201 L2093.5 218.687 L2107.87 196.789 Z" fill="#000000" fill-rule="evenodd" fill-opacity="1" /><path clip-path="url(#clip770)" d="M 0 0 M2123.8 196.789 L2142.15 196.789 L2142.15 200.724 L2128.08 200.724 L2128.08 209.196 Q2129.1 208.849 2130.12 208.687 Q2131.13 208.502 2132.15 208.502 Q2137.94 208.502 2141.32 211.673 Q2144.7 214.844 2144.7 220.261 Q2144.7 225.839 2141.23 228.941 Q2137.75 232.02 2131.43 232.02 Q2129.26 232.02 2126.99 231.65 Q2124.74 231.279 2122.34 230.538 L2122.34 225.839 Q2124.42 226.974 2126.64 227.529 Q2128.87 228.085 2131.34 228.085 Q2135.35 228.085 2137.68 225.978 Q2140.02 223.872 2140.02 220.261 Q2140.02 216.65 2137.68 214.543 Q2135.35 212.437 2131.34 212.437 Q2129.47 212.437 2127.59 212.853 Q2125.74 213.27 2123.8 214.15 L2123.8 196.789 Z" fill="#000000" fill-rule="evenodd" fill-opacity="1" /><path clip-path="url(#clip770)" d="M 0 0 M2159.77 199.867 Q2156.16 199.867 2154.33 203.432 Q2152.52 206.974 2152.52 214.103 Q2152.52 221.21 2154.33 224.775 Q2156.16 228.316 2159.77 228.316 Q2163.4 228.316 2165.21 224.775 Q2167.04 221.21 2167.04 214.103 Q2167.04 206.974 2165.21 203.432 Q2163.4 199.867 2159.77 199.867 M2159.77 196.164 Q2165.58 196.164 2168.63 200.77 Q2171.71 205.353 2171.71 214.103 Q2171.71 222.83 2168.63 227.437 Q2165.58 232.02 2159.77 232.02 Q2153.96 232.02 2150.88 227.437 Q2147.82 222.83 2147.82 214.103 Q2147.82 205.353 2150.88 200.77 Q2153.96 196.164 2159.77 196.164 Z" fill="#000000" fill-rule="evenodd" fill-opacity="1" /><path clip-path="url(#clip770)" d="M 0 0 M2176.78 225.469 L2181.67 225.469 L2181.67 231.349 L2176.78 231.349 L2176.78 225.469 Z" fill="#000000" fill-rule="evenodd" fill-opacity="1" /><path clip-path="url(#clip770)" d="M 0 0 M2199.58 200.863 L2187.78 219.312 L2199.58 219.312 L2199.58 200.863 M2198.36 196.789 L2204.24 196.789 L2204.24 219.312 L2209.17 219.312 L2209.17 223.201 L2204.24 223.201 L2204.24 231.349 L2199.58 231.349 L2199.58 223.201 L2183.98 223.201 L2183.98 218.687 L2198.36 196.789 Z" fill="#000000" fill-rule="evenodd" fill-opacity="1" /><path clip-path="url(#clip770)" d="M 0 0 M2213.05 196.789 L2235.28 196.789 L2235.28 198.779 L2222.73 231.349 L2217.85 231.349 L2229.65 200.724 L2213.05 200.724 L2213.05 196.789 Z" fill="#000000" fill-rule="evenodd" fill-opacity="1" /></svg>
