<?xml version="1.0" encoding="utf-8"?>
<svg xmlns="http://www.w3.org/2000/svg" xmlns:xlink="http://www.w3.org/1999/xlink" width="600" height="400" viewBox="0 0 2400 1600">
<defs>
  <clipPath id="clip950">
    <rect x="0" y="0" width="2400" height="1600"/>
  </clipPath>
</defs>
<path clip-path="url(#clip950)" d="
M0 1600 L2400 1600 L2400 0 L0 0  Z
  " fill="#ffffff" fill-rule="evenodd" fill-opacity="1"/>
<defs>
  <clipPath id="clip951">
    <rect x="480" y="0" width="1681" height="1600"/>
  </clipPath>
</defs>
<path clip-path="url(#clip950)" d="
M238.13 1423.18 L2352.76 1423.18 L2352.76 47.2441 L238.13 47.2441  Z
  " fill="#ffffff" fill-rule="evenodd" fill-opacity="1"/>
<defs>
  <clipPath id="clip952">
    <rect x="238" y="47" width="2116" height="1377"/>
  </clipPath>
</defs>
<polyline clip-path="url(#clip952)" style="stroke:#000000; stroke-width:2; stroke-opacity:0.1; fill:none" points="
  297.978,1423.18 297.978,47.2441 
  "/>
<polyline clip-path="url(#clip952)" style="stroke:#000000; stroke-width:2; stroke-opacity:0.1; fill:none" points="
  867.958,1423.18 867.958,47.2441 
  "/>
<polyline clip-path="url(#clip952)" style="stroke:#000000; stroke-width:2; stroke-opacity:0.1; fill:none" points="
  1437.94,1423.18 1437.94,47.2441 
  "/>
<polyline clip-path="url(#clip952)" style="stroke:#000000; stroke-width:2; stroke-opacity:0.1; fill:none" points="
  2007.92,1423.18 2007.92,47.2441 
  "/>
<polyline clip-path="url(#clip952)" style="stroke:#000000; stroke-width:2; stroke-opacity:0.1; fill:none" points="
  238.13,1289.4 2352.76,1289.4 
  "/>
<polyline clip-path="url(#clip952)" style="stroke:#000000; stroke-width:2; stroke-opacity:0.1; fill:none" points="
  238.13,1009.57 2352.76,1009.57 
  "/>
<polyline clip-path="url(#clip952)" style="stroke:#000000; stroke-width:2; stroke-opacity:0.1; fill:none" points="
  238.13,729.746 2352.76,729.746 
  "/>
<polyline clip-path="url(#clip952)" style="stroke:#000000; stroke-width:2; stroke-opacity:0.1; fill:none" points="
  238.13,449.921 2352.76,449.921 
  "/>
<polyline clip-path="url(#clip952)" style="stroke:#000000; stroke-width:2; stroke-opacity:0.1; fill:none" points="
  238.13,170.096 2352.76,170.096 
  "/>
<polyline clip-path="url(#clip950)" style="stroke:#000000; stroke-width:4; stroke-opacity:1; fill:none" points="
  238.13,1423.18 2352.76,1423.18 
  "/>
<polyline clip-path="url(#clip950)" style="stroke:#000000; stroke-width:4; stroke-opacity:1; fill:none" points="
  238.13,1423.18 238.13,47.2441 
  "/>
<polyline clip-path="url(#clip950)" style="stroke:#000000; stroke-width:4; stroke-opacity:1; fill:none" points="
  297.978,1423.18 297.978,1406.67 
  "/>
<polyline clip-path="url(#clip950)" style="stroke:#000000; stroke-width:4; stroke-opacity:1; fill:none" points="
  867.958,1423.18 867.958,1406.67 
  "/>
<polyline clip-path="url(#clip950)" style="stroke:#000000; stroke-width:4; stroke-opacity:1; fill:none" points="
  1437.94,1423.18 1437.94,1406.67 
  "/>
<polyline clip-path="url(#clip950)" style="stroke:#000000; stroke-width:4; stroke-opacity:1; fill:none" points="
  2007.92,1423.18 2007.92,1406.67 
  "/>
<polyline clip-path="url(#clip950)" style="stroke:#000000; stroke-width:4; stroke-opacity:1; fill:none" points="
  238.13,1289.4 263.506,1289.4 
  "/>
<polyline clip-path="url(#clip950)" style="stroke:#000000; stroke-width:4; stroke-opacity:1; fill:none" points="
  238.13,1009.57 263.506,1009.57 
  "/>
<polyline clip-path="url(#clip950)" style="stroke:#000000; stroke-width:4; stroke-opacity:1; fill:none" points="
  238.13,729.746 263.506,729.746 
  "/>
<polyline clip-path="url(#clip950)" style="stroke:#000000; stroke-width:4; stroke-opacity:1; fill:none" points="
  238.13,449.921 263.506,449.921 
  "/>
<polyline clip-path="url(#clip950)" style="stroke:#000000; stroke-width:4; stroke-opacity:1; fill:none" points="
  238.13,170.096 263.506,170.096 
  "/>
<path clip-path="url(#clip950)" d="M 0 0 M297.978 1445.17 Q294.367 1445.17 292.538 1448.74 Q290.733 1452.28 290.733 1459.41 Q290.733 1466.51 292.538 1470.08 Q294.367 1473.62 297.978 1473.62 Q301.612 1473.62 303.418 1470.08 Q305.246 1466.51 305.246 1459.41 Q305.246 1452.28 303.418 1448.74 Q301.612 1445.17 297.978 1445.17 M297.978 1441.47 Q303.788 1441.47 306.844 1446.07 Q309.922 1450.66 309.922 1459.41 Q309.922 1468.13 306.844 1472.74 Q303.788 1477.32 297.978 1477.32 Q292.168 1477.32 289.089 1472.74 Q286.034 1468.13 286.034 1459.41 Q286.034 1450.66 289.089 1446.07 Q292.168 1441.47 297.978 1441.47 Z" fill="#000000" fill-rule="evenodd" fill-opacity="1" /><path clip-path="url(#clip950)" d="M 0 0 M831.326 1472.72 L838.965 1472.72 L838.965 1446.35 L830.655 1448.02 L830.655 1443.76 L838.919 1442.09 L843.595 1442.09 L843.595 1472.72 L851.234 1472.72 L851.234 1476.65 L831.326 1476.65 L831.326 1472.72 Z" fill="#000000" fill-rule="evenodd" fill-opacity="1" /><path clip-path="url(#clip950)" d="M 0 0 M866.303 1445.17 Q862.692 1445.17 860.863 1448.74 Q859.058 1452.28 859.058 1459.41 Q859.058 1466.51 860.863 1470.08 Q862.692 1473.62 866.303 1473.62 Q869.937 1473.62 871.743 1470.08 Q873.571 1466.51 873.571 1459.41 Q873.571 1452.28 871.743 1448.74 Q869.937 1445.17 866.303 1445.17 M866.303 1441.47 Q872.113 1441.47 875.169 1446.07 Q878.247 1450.66 878.247 1459.41 Q878.247 1468.13 875.169 1472.74 Q872.113 1477.32 866.303 1477.32 Q860.493 1477.32 857.414 1472.74 Q854.359 1468.13 854.359 1459.41 Q854.359 1450.66 857.414 1446.07 Q860.493 1441.47 866.303 1441.47 Z" fill="#000000" fill-rule="evenodd" fill-opacity="1" /><path clip-path="url(#clip950)" d="M 0 0 M893.317 1445.17 Q889.706 1445.17 887.877 1448.74 Q886.071 1452.28 886.071 1459.41 Q886.071 1466.51 887.877 1470.08 Q889.706 1473.62 893.317 1473.62 Q896.951 1473.62 898.756 1470.08 Q900.585 1466.51 900.585 1459.41 Q900.585 1452.28 898.756 1448.74 Q896.951 1445.17 893.317 1445.17 M893.317 1441.47 Q899.127 1441.47 902.182 1446.07 Q905.261 1450.66 905.261 1459.41 Q905.261 1468.13 902.182 1472.74 Q899.127 1477.32 893.317 1477.32 Q887.506 1477.32 884.428 1472.74 Q881.372 1468.13 881.372 1459.41 Q881.372 1450.66 884.428 1446.07 Q887.506 1441.47 893.317 1441.47 Z" fill="#000000" fill-rule="evenodd" fill-opacity="1" /><path clip-path="url(#clip950)" d="M 0 0 M1405.58 1472.72 L1421.9 1472.72 L1421.9 1476.65 L1399.95 1476.65 L1399.95 1472.72 Q1402.61 1469.96 1407.2 1465.33 Q1411.8 1460.68 1412.98 1459.34 Q1415.23 1456.81 1416.11 1455.08 Q1417.01 1453.32 1417.01 1451.63 Q1417.01 1448.87 1415.07 1447.14 Q1413.15 1445.4 1410.04 1445.4 Q1407.85 1445.4 1405.39 1446.17 Q1402.96 1446.93 1400.18 1448.48 L1400.18 1443.76 Q1403.01 1442.62 1405.46 1442.05 Q1407.91 1441.47 1409.95 1441.47 Q1415.32 1441.47 1418.52 1444.15 Q1421.71 1446.84 1421.71 1451.33 Q1421.71 1453.46 1420.9 1455.38 Q1420.11 1457.28 1418.01 1459.87 Q1417.43 1460.54 1414.33 1463.76 Q1411.23 1466.95 1405.58 1472.72 Z" fill="#000000" fill-rule="evenodd" fill-opacity="1" /><path clip-path="url(#clip950)" d="M 0 0 M1436.97 1445.17 Q1433.35 1445.17 1431.53 1448.74 Q1429.72 1452.28 1429.72 1459.41 Q1429.72 1466.51 1431.53 1470.08 Q1433.35 1473.62 1436.97 1473.62 Q1440.6 1473.62 1442.41 1470.08 Q1444.23 1466.51 1444.23 1459.41 Q1444.23 1452.28 1442.41 1448.74 Q1440.6 1445.17 1436.97 1445.17 M1436.97 1441.47 Q1442.78 1441.47 1445.83 1446.07 Q1448.91 1450.66 1448.91 1459.41 Q1448.91 1468.13 1445.83 1472.74 Q1442.78 1477.32 1436.97 1477.32 Q1431.16 1477.32 1428.08 1472.74 Q1425.02 1468.13 1425.02 1459.41 Q1425.02 1450.66 1428.08 1446.07 Q1431.16 1441.47 1436.97 1441.47 Z" fill="#000000" fill-rule="evenodd" fill-opacity="1" /><path clip-path="url(#clip950)" d="M 0 0 M1463.98 1445.17 Q1460.37 1445.17 1458.54 1448.74 Q1456.73 1452.28 1456.73 1459.41 Q1456.73 1466.51 1458.54 1470.08 Q1460.37 1473.62 1463.98 1473.62 Q1467.61 1473.62 1469.42 1470.08 Q1471.25 1466.51 1471.25 1459.41 Q1471.25 1452.28 1469.42 1448.74 Q1467.61 1445.17 1463.98 1445.17 M1463.98 1441.47 Q1469.79 1441.47 1472.85 1446.07 Q1475.92 1450.66 1475.92 1459.41 Q1475.92 1468.13 1472.85 1472.74 Q1469.79 1477.32 1463.98 1477.32 Q1458.17 1477.32 1455.09 1472.74 Q1452.04 1468.13 1452.04 1459.41 Q1452.04 1450.66 1455.09 1446.07 Q1458.17 1441.47 1463.98 1441.47 Z" fill="#000000" fill-rule="evenodd" fill-opacity="1" /><path clip-path="url(#clip950)" d="M 0 0 M1985.15 1458.02 Q1988.51 1458.74 1990.38 1461 Q1992.28 1463.27 1992.28 1466.61 Q1992.28 1471.72 1988.76 1474.52 Q1985.24 1477.32 1978.76 1477.32 Q1976.59 1477.32 1974.27 1476.88 Q1971.98 1476.47 1969.53 1475.61 L1969.53 1471.1 Q1971.47 1472.23 1973.79 1472.81 Q1976.1 1473.39 1978.62 1473.39 Q1983.02 1473.39 1985.31 1471.65 Q1987.63 1469.92 1987.63 1466.61 Q1987.63 1463.55 1985.48 1461.84 Q1983.35 1460.1 1979.53 1460.1 L1975.5 1460.1 L1975.5 1456.26 L1979.71 1456.26 Q1983.16 1456.26 1984.99 1454.89 Q1986.82 1453.5 1986.82 1450.91 Q1986.82 1448.25 1984.92 1446.84 Q1983.05 1445.4 1979.53 1445.4 Q1977.61 1445.4 1975.41 1445.82 Q1973.21 1446.24 1970.57 1447.11 L1970.57 1442.95 Q1973.23 1442.21 1975.55 1441.84 Q1977.88 1441.47 1979.94 1441.47 Q1985.27 1441.47 1988.37 1443.9 Q1991.47 1446.3 1991.47 1450.43 Q1991.47 1453.3 1989.83 1455.29 Q1988.18 1457.25 1985.15 1458.02 Z" fill="#000000" fill-rule="evenodd" fill-opacity="1" /><path clip-path="url(#clip950)" d="M 0 0 M2007.35 1445.17 Q2003.74 1445.17 2001.91 1448.74 Q2000.11 1452.28 2000.11 1459.41 Q2000.11 1466.51 2001.91 1470.08 Q2003.74 1473.62 2007.35 1473.62 Q2010.99 1473.62 2012.79 1470.08 Q2014.62 1466.51 2014.62 1459.41 Q2014.62 1452.28 2012.79 1448.74 Q2010.99 1445.17 2007.35 1445.17 M2007.35 1441.47 Q2013.16 1441.47 2016.22 1446.07 Q2019.3 1450.66 2019.3 1459.41 Q2019.3 1468.13 2016.22 1472.74 Q2013.16 1477.32 2007.35 1477.32 Q2001.54 1477.32 1998.46 1472.74 Q1995.41 1468.13 1995.41 1459.41 Q1995.41 1450.66 1998.46 1446.07 Q2001.54 1441.47 2007.35 1441.47 Z" fill="#000000" fill-rule="evenodd" fill-opacity="1" /><path clip-path="url(#clip950)" d="M 0 0 M2034.36 1445.17 Q2030.75 1445.17 2028.92 1448.74 Q2027.12 1452.28 2027.12 1459.41 Q2027.12 1466.51 2028.92 1470.08 Q2030.75 1473.62 2034.36 1473.62 Q2038 1473.62 2039.8 1470.08 Q2041.63 1466.51 2041.63 1459.41 Q2041.63 1452.28 2039.8 1448.74 Q2038 1445.17 2034.36 1445.17 M2034.36 1441.47 Q2040.17 1441.47 2043.23 1446.07 Q2046.31 1450.66 2046.31 1459.41 Q2046.31 1468.13 2043.23 1472.74 Q2040.17 1477.32 2034.36 1477.32 Q2028.55 1477.32 2025.48 1472.74 Q2022.42 1468.13 2022.42 1459.41 Q2022.42 1450.66 2025.48 1446.07 Q2028.55 1441.47 2034.36 1441.47 Z" fill="#000000" fill-rule="evenodd" fill-opacity="1" /><path clip-path="url(#clip950)" d="M 0 0 M138.205 1275.19 Q134.593 1275.19 132.765 1278.76 Q130.959 1282.3 130.959 1289.43 Q130.959 1296.54 132.765 1300.1 Q134.593 1303.64 138.205 1303.64 Q141.839 1303.64 143.644 1300.1 Q145.473 1296.54 145.473 1289.43 Q145.473 1282.3 143.644 1278.76 Q141.839 1275.19 138.205 1275.19 M138.205 1271.49 Q144.015 1271.49 147.07 1276.1 Q150.149 1280.68 150.149 1289.43 Q150.149 1298.16 147.07 1302.76 Q144.015 1307.35 138.205 1307.35 Q132.394 1307.35 129.316 1302.76 Q126.26 1298.16 126.26 1289.43 Q126.26 1280.68 129.316 1276.1 Q132.394 1271.49 138.205 1271.49 Z" fill="#000000" fill-rule="evenodd" fill-opacity="1" /><path clip-path="url(#clip950)" d="M 0 0 M155.218 1300.8 L160.103 1300.8 L160.103 1306.68 L155.218 1306.68 L155.218 1300.8 Z" fill="#000000" fill-rule="evenodd" fill-opacity="1" /><path clip-path="url(#clip950)" d="M 0 0 M175.172 1275.19 Q171.561 1275.19 169.732 1278.76 Q167.927 1282.3 167.927 1289.43 Q167.927 1296.54 169.732 1300.1 Q171.561 1303.64 175.172 1303.64 Q178.806 1303.64 180.612 1300.1 Q182.44 1296.54 182.44 1289.43 Q182.44 1282.3 180.612 1278.76 Q178.806 1275.19 175.172 1275.19 M175.172 1271.49 Q180.982 1271.49 184.038 1276.1 Q187.116 1280.68 187.116 1289.43 Q187.116 1298.16 184.038 1302.76 Q180.982 1307.35 175.172 1307.35 Q169.362 1307.35 166.283 1302.76 Q163.228 1298.16 163.228 1289.43 Q163.228 1280.68 166.283 1276.1 Q169.362 1271.49 175.172 1271.49 Z" fill="#000000" fill-rule="evenodd" fill-opacity="1" /><path clip-path="url(#clip950)" d="M 0 0 M202.186 1275.19 Q198.575 1275.19 196.746 1278.76 Q194.94 1282.3 194.94 1289.43 Q194.94 1296.54 196.746 1300.1 Q198.575 1303.64 202.186 1303.64 Q205.82 1303.64 207.625 1300.1 Q209.454 1296.54 209.454 1289.43 Q209.454 1282.3 207.625 1278.76 Q205.82 1275.19 202.186 1275.19 M202.186 1271.49 Q207.996 1271.49 211.051 1276.1 Q214.13 1280.68 214.13 1289.43 Q214.13 1298.16 211.051 1302.76 Q207.996 1307.35 202.186 1307.35 Q196.376 1307.35 193.297 1302.76 Q190.241 1298.16 190.241 1289.43 Q190.241 1280.68 193.297 1276.1 Q196.376 1271.49 202.186 1271.49 Z" fill="#000000" fill-rule="evenodd" fill-opacity="1" /><path clip-path="url(#clip950)" d="M 0 0 M140.797 995.369 Q137.186 995.369 135.357 998.934 Q133.552 1002.48 133.552 1009.61 Q133.552 1016.71 135.357 1020.28 Q137.186 1023.82 140.797 1023.82 Q144.431 1023.82 146.237 1020.28 Q148.066 1016.71 148.066 1009.61 Q148.066 1002.48 146.237 998.934 Q144.431 995.369 140.797 995.369 M140.797 991.665 Q146.607 991.665 149.663 996.272 Q152.741 1000.86 152.741 1009.61 Q152.741 1018.33 149.663 1022.94 Q146.607 1027.52 140.797 1027.52 Q134.987 1027.52 131.908 1022.94 Q128.853 1018.33 128.853 1009.61 Q128.853 1000.86 131.908 996.272 Q134.987 991.665 140.797 991.665 Z" fill="#000000" fill-rule="evenodd" fill-opacity="1" /><path clip-path="url(#clip950)" d="M 0 0 M157.811 1020.97 L162.695 1020.97 L162.695 1026.85 L157.811 1026.85 L157.811 1020.97 Z" fill="#000000" fill-rule="evenodd" fill-opacity="1" /><path clip-path="url(#clip950)" d="M 0 0 M171.792 1022.92 L188.112 1022.92 L188.112 1026.85 L166.167 1026.85 L166.167 1022.92 Q168.829 1020.16 173.413 1015.53 Q178.019 1010.88 179.2 1009.54 Q181.445 1007.01 182.325 1005.28 Q183.227 1003.52 183.227 1001.83 Q183.227 999.073 181.283 997.337 Q179.362 995.601 176.26 995.601 Q174.061 995.601 171.607 996.364 Q169.177 997.128 166.399 998.679 L166.399 993.957 Q169.223 992.823 171.677 992.244 Q174.13 991.665 176.167 991.665 Q181.538 991.665 184.732 994.351 Q187.926 997.036 187.926 1001.53 Q187.926 1003.66 187.116 1005.58 Q186.329 1007.48 184.223 1010.07 Q183.644 1010.74 180.542 1013.96 Q177.44 1017.15 171.792 1022.92 Z" fill="#000000" fill-rule="evenodd" fill-opacity="1" /><path clip-path="url(#clip950)" d="M 0 0 M193.227 992.29 L211.584 992.29 L211.584 996.226 L197.51 996.226 L197.51 1004.7 Q198.528 1004.35 199.547 1004.19 Q200.565 1004 201.584 1004 Q207.371 1004 210.75 1007.17 Q214.13 1010.35 214.13 1015.76 Q214.13 1021.34 210.658 1024.44 Q207.186 1027.52 200.866 1027.52 Q198.69 1027.52 196.422 1027.15 Q194.176 1026.78 191.769 1026.04 L191.769 1021.34 Q193.852 1022.48 196.075 1023.03 Q198.297 1023.59 200.774 1023.59 Q204.778 1023.59 207.116 1021.48 Q209.454 1019.37 209.454 1015.76 Q209.454 1012.15 207.116 1010.04 Q204.778 1007.94 200.774 1007.94 Q198.899 1007.94 197.024 1008.36 Q195.172 1008.77 193.227 1009.65 L193.227 992.29 Z" fill="#000000" fill-rule="evenodd" fill-opacity="1" /><path clip-path="url(#clip950)" d="M 0 0 M139.2 715.544 Q135.589 715.544 133.76 719.109 Q131.955 722.651 131.955 729.78 Q131.955 736.887 133.76 740.451 Q135.589 743.993 139.2 743.993 Q142.834 743.993 144.64 740.451 Q146.468 736.887 146.468 729.78 Q146.468 722.651 144.64 719.109 Q142.834 715.544 139.2 715.544 M139.2 711.841 Q145.01 711.841 148.066 716.447 Q151.144 721.03 151.144 729.78 Q151.144 738.507 148.066 743.114 Q145.01 747.697 139.2 747.697 Q133.39 747.697 130.311 743.114 Q127.256 738.507 127.256 729.78 Q127.256 721.03 130.311 716.447 Q133.39 711.841 139.2 711.841 Z" fill="#000000" fill-rule="evenodd" fill-opacity="1" /><path clip-path="url(#clip950)" d="M 0 0 M156.214 741.146 L161.098 741.146 L161.098 747.026 L156.214 747.026 L156.214 741.146 Z" fill="#000000" fill-rule="evenodd" fill-opacity="1" /><path clip-path="url(#clip950)" d="M 0 0 M166.214 712.466 L184.57 712.466 L184.57 716.401 L170.496 716.401 L170.496 724.873 Q171.515 724.526 172.533 724.364 Q173.552 724.178 174.57 724.178 Q180.357 724.178 183.737 727.35 Q187.116 730.521 187.116 735.938 Q187.116 741.516 183.644 744.618 Q180.172 747.697 173.852 747.697 Q171.677 747.697 169.408 747.326 Q167.163 746.956 164.755 746.215 L164.755 741.516 Q166.839 742.651 169.061 743.206 Q171.283 743.762 173.76 743.762 Q177.765 743.762 180.102 741.655 Q182.44 739.549 182.44 735.938 Q182.44 732.327 180.102 730.22 Q177.765 728.114 173.76 728.114 Q171.885 728.114 170.01 728.53 Q168.158 728.947 166.214 729.827 L166.214 712.466 Z" fill="#000000" fill-rule="evenodd" fill-opacity="1" /><path clip-path="url(#clip950)" d="M 0 0 M202.186 715.544 Q198.575 715.544 196.746 719.109 Q194.94 722.651 194.94 729.78 Q194.94 736.887 196.746 740.451 Q198.575 743.993 202.186 743.993 Q205.82 743.993 207.625 740.451 Q209.454 736.887 209.454 729.78 Q209.454 722.651 207.625 719.109 Q205.82 715.544 202.186 715.544 M202.186 711.841 Q207.996 711.841 211.051 716.447 Q214.13 721.03 214.13 729.78 Q214.13 738.507 211.051 743.114 Q207.996 747.697 202.186 747.697 Q196.376 747.697 193.297 743.114 Q190.241 738.507 190.241 729.78 Q190.241 721.03 193.297 716.447 Q196.376 711.841 202.186 711.841 Z" fill="#000000" fill-rule="evenodd" fill-opacity="1" /><path clip-path="url(#clip950)" d="M 0 0 M140.103 435.719 Q136.492 435.719 134.663 439.284 Q132.857 442.826 132.857 449.955 Q132.857 457.062 134.663 460.627 Q136.492 464.168 140.103 464.168 Q143.737 464.168 145.542 460.627 Q147.371 457.062 147.371 449.955 Q147.371 442.826 145.542 439.284 Q143.737 435.719 140.103 435.719 M140.103 432.016 Q145.913 432.016 148.968 436.622 Q152.047 441.205 152.047 449.955 Q152.047 458.682 148.968 463.289 Q145.913 467.872 140.103 467.872 Q134.293 467.872 131.214 463.289 Q128.158 458.682 128.158 449.955 Q128.158 441.205 131.214 436.622 Q134.293 432.016 140.103 432.016 Z" fill="#000000" fill-rule="evenodd" fill-opacity="1" /><path clip-path="url(#clip950)" d="M 0 0 M157.116 461.321 L162.001 461.321 L162.001 467.201 L157.116 467.201 L157.116 461.321 Z" fill="#000000" fill-rule="evenodd" fill-opacity="1" /><path clip-path="url(#clip950)" d="M 0 0 M165.89 432.641 L188.112 432.641 L188.112 434.631 L175.565 467.201 L170.681 467.201 L182.487 436.576 L165.89 436.576 L165.89 432.641 Z" fill="#000000" fill-rule="evenodd" fill-opacity="1" /><path clip-path="url(#clip950)" d="M 0 0 M193.227 432.641 L211.584 432.641 L211.584 436.576 L197.51 436.576 L197.51 445.048 Q198.528 444.701 199.547 444.539 Q200.565 444.354 201.584 444.354 Q207.371 444.354 210.75 447.525 Q214.13 450.696 214.13 456.113 Q214.13 461.691 210.658 464.793 Q207.186 467.872 200.866 467.872 Q198.69 467.872 196.422 467.502 Q194.176 467.131 191.769 466.39 L191.769 461.691 Q193.852 462.826 196.075 463.381 Q198.297 463.937 200.774 463.937 Q204.778 463.937 207.116 461.83 Q209.454 459.724 209.454 456.113 Q209.454 452.502 207.116 450.395 Q204.778 448.289 200.774 448.289 Q198.899 448.289 197.024 448.705 Q195.172 449.122 193.227 450.002 L193.227 432.641 Z" fill="#000000" fill-rule="evenodd" fill-opacity="1" /><path clip-path="url(#clip950)" d="M 0 0 M130.242 183.441 L137.88 183.441 L137.88 157.075 L129.57 158.742 L129.57 154.482 L137.834 152.816 L142.51 152.816 L142.51 183.441 L150.149 183.441 L150.149 187.376 L130.242 187.376 L130.242 183.441 Z" fill="#000000" fill-rule="evenodd" fill-opacity="1" /><path clip-path="url(#clip950)" d="M 0 0 M155.218 181.496 L160.103 181.496 L160.103 187.376 L155.218 187.376 L155.218 181.496 Z" fill="#000000" fill-rule="evenodd" fill-opacity="1" /><path clip-path="url(#clip950)" d="M 0 0 M175.172 155.894 Q171.561 155.894 169.732 159.459 Q167.927 163.001 167.927 170.131 Q167.927 177.237 169.732 180.802 Q171.561 184.343 175.172 184.343 Q178.806 184.343 180.612 180.802 Q182.44 177.237 182.44 170.131 Q182.44 163.001 180.612 159.459 Q178.806 155.894 175.172 155.894 M175.172 152.191 Q180.982 152.191 184.038 156.797 Q187.116 161.381 187.116 170.131 Q187.116 178.857 184.038 183.464 Q180.982 188.047 175.172 188.047 Q169.362 188.047 166.283 183.464 Q163.228 178.857 163.228 170.131 Q163.228 161.381 166.283 156.797 Q169.362 152.191 175.172 152.191 Z" fill="#000000" fill-rule="evenodd" fill-opacity="1" /><path clip-path="url(#clip950)" d="M 0 0 M202.186 155.894 Q198.575 155.894 196.746 159.459 Q194.94 163.001 194.94 170.131 Q194.94 177.237 196.746 180.802 Q198.575 184.343 202.186 184.343 Q205.82 184.343 207.625 180.802 Q209.454 177.237 209.454 170.131 Q209.454 163.001 207.625 159.459 Q205.82 155.894 202.186 155.894 M202.186 152.191 Q207.996 152.191 211.051 156.797 Q214.13 161.381 214.13 170.131 Q214.13 178.857 211.051 183.464 Q207.996 188.047 202.186 188.047 Q196.376 188.047 193.297 183.464 Q190.241 178.857 190.241 170.131 Q190.241 161.381 193.297 156.797 Q196.376 152.191 202.186 152.191 Z" fill="#000000" fill-rule="evenodd" fill-opacity="1" /><path clip-path="url(#clip950)" d="M 0 0 M1312.06 1520.4 L1299.17 1537.74 L1312.73 1556.04 L1305.82 1556.04 L1295.44 1542.04 L1285.07 1556.04 L1278.16 1556.04 L1292.01 1537.39 L1279.34 1520.4 L1286.24 1520.4 L1295.7 1533.1 L1305.15 1520.4 L1312.06 1520.4 Z" fill="#000000" fill-rule="evenodd" fill-opacity="1" /><path clip-path="url(#clip950)" d="M 0 0 M70.212 745.095 Q76.6732 745.095 80.3653 742.453 Q84.0256 739.779 84.0256 735.132 Q84.0256 730.485 80.3653 727.812 Q76.6732 725.138 70.212 725.138 Q63.7508 725.138 60.0905 727.812 Q56.3984 730.485 56.3984 735.132 Q56.3984 739.779 60.0905 742.453 Q63.7508 745.095 70.212 745.095 M82.657 725.138 Q85.8398 726.984 87.3994 729.817 Q88.9272 732.618 88.9272 736.565 Q88.9272 743.026 83.771 747.1 Q78.6147 751.142 70.212 751.142 Q61.8093 751.142 56.6531 747.1 Q51.4968 743.026 51.4968 736.565 Q51.4968 732.618 53.0564 729.817 Q54.5842 726.984 57.7671 725.138 L52.3562 725.138 L52.3562 719.282 L101.563 719.282 L101.563 725.138 L82.657 725.138 Z" fill="#000000" fill-rule="evenodd" fill-opacity="1" /><polyline clip-path="url(#clip952)" style="stroke:#009af9; stroke-width:4; stroke-opacity:1; fill:none" points="
  297.978,1289.4 300.669,1289.4 305.771,1289.4 310.872,1289.4 313.563,1289.4 316.255,1289.4 321.356,1289.4 326.458,1289.4 329.149,1289.4 
  331.84,1289.4 336.941,1289.4 342.043,1289.4 344.734,1289.4 347.425,1289.4 352.527,1289.4 357.628,1289.4 360.32,1289.4 
  363.011,1289.4 368.112,1289.4 373.214,1289.4 375.905,1289.4 378.596,1289.4 383.698,1289.4 388.799,1289.4 391.49,1289.4 
  394.181,1289.4 399.283,1289.4 404.385,1289.4 407.076,1289.4 409.767,1289.4 414.868,1289.4 419.97,1289.4 422.661,1289.4 
  425.352,1289.4 430.454,1289.4 435.555,1289.4 438.246,1289.4 440.938,1289.4 446.039,1289.4 451.141,1289.4 453.832,1289.4 
  456.523,1289.4 461.625,1289.4 466.726,1289.4 469.417,1289.4 472.108,1289.4 477.21,1289.4 482.311,1289.4 485.003,1289.4 
  487.694,1289.4 492.795,1289.4 497.897,1289.4 500.588,1289.4 503.279,1289.4 508.381,1289.4 513.482,1289.4 516.173,1289.4 
  518.865,1289.4 523.966,1289.4 529.068,1289.4 531.759,1289.4 534.45,1289.4 539.552,1289.4 544.653,1289.4 547.344,1289.4 
  550.035,1289.4 555.137,1289.4 560.238,1289.4 562.93,1289.4 565.621,1289.4 570.722,1289.4 575.824,1289.4 578.515,1289.4 
  581.206,1289.4 586.308,1289.4 591.409,1289.4 594.1,1289.4 596.792,1289.4 601.893,1289.4 606.995,1289.4 609.686,1289.4 
  612.377,1289.4 617.478,1289.4 622.58,1289.4 625.271,1289.4 627.962,1289.4 633.064,1289.4 638.165,1289.4 640.857,1289.4 
  643.548,1289.4 648.649,1289.4 653.751,1289.4 656.442,1289.4 659.133,1289.4 664.235,1289.4 669.336,1289.4 672.027,1289.4 
  674.719,1289.4 679.82,1289.4 684.922,1289.4 687.613,1289.4 690.304,1289.4 695.405,1289.4 700.507,1289.4 703.198,1289.4 
  705.889,1289.4 710.991,1289.4 716.092,1289.4 718.784,1289.4 721.475,1289.4 726.576,170.096 731.678,170.096 734.369,170.096 
  737.06,170.096 742.162,170.096 747.263,170.096 749.954,170.096 752.645,170.096 757.747,170.096 762.849,170.096 765.54,170.096 
  768.231,170.096 773.332,170.096 778.434,170.096 781.125,170.096 783.816,170.096 788.918,170.096 794.019,170.096 796.71,170.096 
  799.402,170.096 804.503,170.096 809.605,170.096 812.296,170.096 814.987,170.096 820.089,170.096 825.19,170.096 827.881,170.096 
  830.572,170.096 835.674,170.096 840.775,170.096 843.467,170.096 846.158,170.096 851.259,170.096 856.361,170.096 859.052,170.096 
  861.743,170.096 866.845,170.096 871.946,170.096 874.637,170.096 877.329,170.096 882.43,170.096 887.532,170.096 890.223,170.096 
  892.914,170.096 898.016,170.096 903.117,170.096 905.808,170.096 908.499,170.096 913.601,170.096 918.702,170.096 921.394,170.096 
  924.085,170.096 929.186,170.096 934.288,170.096 936.979,170.096 939.67,170.096 944.772,170.096 949.873,170.096 952.564,170.096 
  955.256,170.096 960.357,170.096 965.459,170.096 968.15,170.096 970.841,170.096 975.942,170.096 981.044,170.096 983.735,170.096 
  986.426,170.096 991.528,170.096 996.629,170.096 999.321,170.096 1002.01,170.096 1007.11,170.096 1012.21,1289.4 1014.91,1289.4 
  1017.6,1289.4 1022.7,1289.4 1027.8,1289.4 1030.49,1289.4 1033.18,1289.4 1038.28,1289.4 1043.39,1289.4 1046.08,1289.4 
  1048.77,1289.4 1053.87,1289.4 1058.97,1289.4 1061.66,1289.4 1064.35,1289.4 1069.45,1289.4 1074.56,1289.4 1077.25,1289.4 
  1079.94,1289.4 1085.04,1289.4 1090.14,1289.4 1092.83,1289.4 1095.52,1289.4 1100.63,1289.4 1105.73,1289.4 1108.42,1289.4 
  1111.11,1289.4 1116.21,1289.4 1121.31,1289.4 1124,1289.4 1126.69,1289.4 1131.8,1289.4 1136.9,1289.4 1139.59,1289.4 
  1142.28,1289.4 1147.38,1289.4 1152.48,1289.4 1155.17,1289.4 1157.87,1289.4 1162.97,1289.4 1168.07,1289.4 1170.76,1289.4 
  1173.45,1289.4 1178.55,1289.4 1183.65,1289.4 1186.35,1289.4 1189.04,1289.4 1194.14,1289.4 1199.24,1289.4 1201.93,1289.4 
  1204.62,1289.4 1209.72,1289.4 1214.82,1289.4 1217.52,1289.4 1220.21,1289.4 1225.31,1289.4 1230.41,1289.4 1233.1,1289.4 
  1235.79,1289.4 1240.89,1289.4 1246,1289.4 1248.69,1289.4 1251.38,1289.4 1256.48,1289.4 1261.58,1289.4 1264.27,1289.4 
  1266.96,1289.4 1272.06,1289.4 1277.17,1289.4 1279.86,1289.4 1282.55,1289.4 1287.65,1289.4 1292.75,1289.4 1295.44,1289.4 
  1298.13,1289.4 1303.24,1289.4 1308.34,1289.4 1311.03,1289.4 1313.72,1289.4 1318.82,1289.4 1323.92,1289.4 1326.61,1289.4 
  1329.3,1289.4 1334.41,1289.4 1339.51,1289.4 1342.2,1289.4 1344.89,1289.4 1349.99,1289.4 1355.09,1289.4 1357.78,1289.4 
  1360.48,1289.4 1365.58,1289.4 1370.68,1289.4 1373.37,1289.4 1376.06,1289.4 1381.16,1289.4 1386.26,1289.4 1388.96,1289.4 
  1391.65,1289.4 1396.75,1289.4 1401.85,1289.4 1404.54,1289.4 1407.23,1289.4 1412.33,1289.4 1417.43,1289.4 1420.13,1289.4 
  1422.82,1289.4 1427.92,1289.4 1433.02,1289.4 1435.71,1289.4 1438.4,1289.4 1443.5,1289.4 1448.61,1289.4 1451.3,1289.4 
  1453.99,1289.4 1459.09,1289.4 1464.19,1289.4 1466.88,1289.4 1469.57,1289.4 1474.67,1289.4 1479.78,1289.4 1482.47,1289.4 
  1485.16,1289.4 1490.26,1289.4 1495.36,1289.4 1498.05,1289.4 1500.74,1289.4 1505.85,1289.4 1510.95,1289.4 1513.64,1289.4 
  1516.33,1289.4 1521.43,1289.4 1526.53,1289.4 1529.22,1289.4 1531.92,1289.4 1537.02,1289.4 1542.12,1289.4 1544.81,1289.4 
  1547.5,1289.4 1552.6,1289.4 1557.7,1289.4 1560.39,1289.4 1563.09,1289.4 1568.19,1289.4 1573.29,1289.4 1575.98,1289.4 
  1578.67,1289.4 1583.77,1289.4 1588.87,1289.4 1591.57,1289.4 1594.26,1289.4 1599.36,1289.4 1604.46,1289.4 1607.15,1289.4 
  1609.84,1289.4 1614.94,1289.4 1620.05,1289.4 1622.74,1289.4 1625.43,1289.4 1630.53,1289.4 1635.63,1289.4 1638.32,1289.4 
  1641.01,1289.4 1646.11,1289.4 1651.22,1289.4 1653.91,1289.4 1656.6,1289.4 1661.7,1289.4 1666.8,1289.4 1669.49,1289.4 
  1672.18,1289.4 1677.29,1289.4 1682.39,1289.4 1685.08,1289.4 1687.77,1289.4 1692.87,1289.4 1697.97,1289.4 1700.66,1289.4 
  1703.35,1289.4 1708.46,1289.4 1713.56,1289.4 1716.25,1289.4 1718.94,1289.4 1724.04,1289.4 1729.14,1289.4 1731.83,1289.4 
  1734.53,1289.4 1739.63,1289.4 1744.73,1289.4 1747.42,1289.4 1750.11,1289.4 1755.21,1289.4 1760.31,1289.4 1763,1289.4 
  1765.7,1289.4 1770.8,1289.4 1775.9,1289.4 1778.59,1289.4 1781.28,1289.4 1786.38,1289.4 1791.48,1289.4 1794.18,1289.4 
  1796.87,1289.4 1801.97,1289.4 1807.07,1289.4 1809.76,1289.4 1812.45,1289.4 1817.55,1289.4 1822.66,1289.4 1825.35,1289.4 
  1828.04,1289.4 1833.14,1289.4 1838.24,1289.4 1840.93,1289.4 1843.62,1289.4 1848.72,1289.4 1853.83,1289.4 1856.52,1289.4 
  1859.21,1289.4 1864.31,1289.4 1869.41,1289.4 1872.1,1289.4 1874.79,1289.4 1879.9,1289.4 1885,1289.4 1887.69,1289.4 
  1890.38,1289.4 1895.48,1289.4 1900.58,1289.4 1903.27,1289.4 1905.96,1289.4 1911.07,1289.4 1916.17,1289.4 1918.86,1289.4 
  1921.55,1289.4 1926.65,1289.4 1931.75,1289.4 1934.44,1289.4 1937.14,1289.4 1942.24,1289.4 1947.34,1289.4 1950.03,1289.4 
  1952.72,1289.4 1957.82,1289.4 1962.92,1289.4 1965.61,1289.4 1968.31,1289.4 1973.41,1289.4 1978.51,1289.4 1981.2,1289.4 
  1983.89,1289.4 1988.99,1289.4 1994.09,1289.4 1996.79,1289.4 1999.48,1289.4 2004.58,1289.4 2009.68,1289.4 2012.37,1289.4 
  2015.06,1289.4 2020.16,1289.4 2025.27,1289.4 2027.96,1289.4 2030.65,1289.4 2035.75,1289.4 2040.85,1289.4 2043.54,1289.4 
  2046.23,1289.4 2051.33,1289.4 2056.44,1289.4 2059.13,1289.4 2061.82,1289.4 2066.92,1289.4 2072.02,1289.4 2074.71,1289.4 
  2077.4,1289.4 2082.51,1289.4 2087.61,1289.4 2090.3,1289.4 2092.99,1289.4 2098.09,1289.4 2103.19,1289.4 2105.88,1289.4 
  2108.57,1289.4 2113.68,1289.4 2118.78,1289.4 2121.47,1289.4 2124.16,1289.4 2129.26,1289.4 2134.36,1289.4 2137.05,1289.4 
  2139.75,1289.4 2144.85,1289.4 2149.95,1289.4 2152.64,1289.4 2155.33,1289.4 2160.43,1289.4 2165.53,1289.4 2168.22,1289.4 
  2170.92,1289.4 2176.02,1289.4 2181.12,1289.4 2183.81,1289.4 2186.5,1289.4 2191.6,1289.4 2196.7,1289.4 2199.4,1289.4 
  2202.09,1289.4 2207.19,1289.4 2212.29,1289.4 2214.98,1289.4 2217.67,1289.4 2222.77,1289.4 2227.88,1289.4 2230.57,1289.4 
  2233.26,1289.4 2238.36,1289.4 2243.46,1289.4 2246.15,1289.4 2248.84,1289.4 2253.94,1289.4 2259.05,1289.4 2261.74,1289.4 
  2264.43,1289.4 2269.53,1289.4 2274.63,1289.4 2277.32,1289.4 2280.01,1289.4 2285.12,1289.4 2290.22,1289.4 2292.91,1289.4 
  
  "/>
<polyline clip-path="url(#clip952)" style="stroke:#e26f46; stroke-width:4; stroke-opacity:1; fill:none" points="
  297.978,1289.4 300.669,1289.4 305.771,1289.4 310.872,1289.4 313.563,1289.4 316.255,1289.4 321.356,1289.4 326.458,1289.4 329.149,1289.4 
  331.84,1289.4 336.941,1289.4 342.043,1289.4 344.734,1289.4 347.425,1289.4 352.527,1289.4 357.628,1289.4 360.32,1289.4 
  363.011,1289.4 368.112,1289.4 373.214,1289.4 375.905,1289.4 378.596,1289.4 383.698,1289.4 388.799,1289.4 391.49,1289.4 
  394.181,1289.4 399.283,1289.4 404.385,1289.4 407.076,1289.4 409.767,1289.4 414.868,1289.4 419.97,1289.4 422.661,1289.4 
  425.352,1289.4 430.454,1289.4 435.555,1289.4 438.246,1289.4 440.938,1289.4 446.039,1289.4 451.141,1289.4 453.832,1289.4 
  456.523,1289.4 461.625,1289.4 466.726,1289.4 469.417,1289.4 472.108,1289.4 477.21,1289.4 482.311,1289.4 485.003,1289.4 
  487.694,1289.4 492.795,1289.4 497.897,1289.4 500.588,1289.4 503.279,1289.4 508.381,1289.4 513.482,1289.4 516.173,1289.4 
  518.865,1289.4 523.966,1289.4 529.068,1289.4 531.759,1289.4 534.45,1289.4 539.552,1289.4 544.653,1289.4 547.344,1289.4 
  550.035,1289.4 555.137,1289.4 560.238,1289.4 562.93,1289.4 565.621,1289.4 570.722,1289.4 575.824,1289.4 578.515,1289.4 
  581.206,1289.4 586.308,1289.4 591.409,1289.4 594.1,1289.4 596.792,1289.4 601.893,1289.4 606.995,1289.4 609.686,1289.4 
  612.377,1289.4 617.478,1289.4 622.58,1289.4 625.271,1289.4 627.962,1289.4 633.064,1289.4 638.165,1289.4 640.857,1289.4 
  643.548,1289.4 648.649,1289.4 653.751,1289.4 656.442,1289.4 659.133,1289.4 664.235,1289.4 669.336,1289.4 672.027,1289.4 
  674.719,1289.4 679.82,1289.4 684.922,1289.4 687.613,1289.4 690.304,1289.4 695.405,1289.4 700.507,1289.4 703.198,1289.4 
  705.889,1289.4 710.991,1289.4 716.092,1289.4 718.784,1289.4 718.784,1289.4 721.475,1289.4 726.576,1289.4 731.678,1289.4 734.369,1289.4 
  734.369,1289.4 737.06,1289.4 742.162,1289.4 747.263,1289.4 749.954,1289.4 749.954,1289.4 752.645,1289.4 757.747,1289.4 762.849,1289.4 765.54,1289.4 
  765.54,1289.4 768.231,1289.4 773.332,1289.4 778.434,1289.4 781.125,1289.4 781.125,1289.4 783.816,1289.4 788.918,1289.4 794.019,1289.4 796.71,1289.4 
  796.71,1289.4 799.402,1289.4 804.503,1289.4 809.605,1289.4 812.296,1289.4 812.296,1289.4 814.987,1289.4 820.089,1289.4 825.19,1289.4 827.881,1289.4 
  827.881,1289.4 830.572,1289.4 835.674,1289.4 840.775,1289.4 843.467,1289.4 843.467,1289.4 846.158,1289.4 851.259,1289.4 856.361,1289.4 859.052,1289.4 
  859.052,1289.4 861.743,1289.4 866.845,1289.4 871.946,1289.4 874.637,1289.4 874.637,1289.4 877.329,1289.4 882.43,1289.4 887.532,1289.4 890.223,1289.4 
  890.223,1289.4 892.914,1289.4 898.016,1289.4 903.117,1289.4 905.808,1289.4 905.808,1289.4 908.499,1289.4 913.601,1289.4 918.702,1289.4 921.394,1289.4 
  921.394,1289.4 924.085,1289.4 929.186,1289.4 934.288,1289.4 936.979,1289.4 936.979,1289.4 939.67,1289.4 944.772,1289.4 949.873,1289.4 952.564,1289.4 
  952.564,1289.4 955.256,1289.4 960.357,1289.4 965.459,1289.4 968.15,1289.4 968.15,1289.4 970.841,1289.4 975.942,1289.4 981.044,1289.4 983.735,1289.4 
  983.735,1289.4 986.426,1289.4 991.528,1289.4 996.629,1289.4 999.321,1289.4 999.321,1289.4 1002.01,1289.4 1007.11,1289.4 1012.21,1289.4 1014.91,1289.4 
  1014.91,1289.4 1017.6,1289.4 1022.7,1289.4 1027.8,1289.4 1030.49,1289.4 1030.49,1289.4 1033.18,1289.4 1038.28,1289.4 1043.39,1289.4 1046.08,1289.4 
  1046.08,1289.39 1048.77,1289.4 1053.87,1289.4 1058.97,1289.4 1061.66,1289.4 1061.66,1289.4 1064.35,1289.4 1069.45,1289.4 1074.56,1289.39 1077.25,1289.39 
  1077.25,1289.39 1079.94,1289.39 1085.04,1289.39 1090.14,1289.4 1092.83,1289.4 1092.83,1289.4 1095.52,1289.4 1100.63,1289.4 1105.73,1289.4 1108.42,1289.39 
  1108.42,1289.4 1111.11,1289.39 1116.21,1289.38 1121.31,1289.37 1124,1289.38 1124,1289.37 1126.69,1289.39 1131.8,1289.42 1136.9,1289.45 1139.59,1289.47 
  1139.59,1289.47 1142.28,1289.46 1147.38,1289.4 1152.48,1289.31 1155.17,1289.24 1155.17,1289.26 1157.87,1289.2 1162.97,1289.21 1168.07,1289.37 1170.76,1289.52 
  1170.76,1289.44 1173.45,1289.7 1178.55,1289.98 1183.65,1289.95 1186.35,1289.81 1186.35,1289.96 1189.04,1289.43 1194.14,1288.53 1199.24,1287.75 1201.93,1287.38 
  1201.93,1287.37 1204.62,1287.61 1209.72,1288.91 1214.82,1291.33 1217.52,1293.06 1217.52,1292.42 1220.21,1294.34 1225.31,1295.16 1230.41,1292.31 1233.1,1289.32 
  1233.1,1290.83 1235.79,1284.69 1240.89,1275.76 1246,1270.4 1248.69,1269.01 1248.69,1268.44 1251.38,1273.74 1256.48,1291.11 1261.58,1318.02 1264.27,1336.05 
  1264.27,1328.87 1266.96,1350.84 1272.06,1362.32 1277.17,1334.22 1279.86,1303.43 1279.86,1305.74 1282.55,1247.2 1287.65,1099.81 1292.75,904.809 1295.44,782.786 
  1295.44,794.305 1298.13,662.806 1303.24,444.477 1308.34,266.745 1311.03,189.376 1311.03,187.612 1313.72,140.483 1318.82,88.7489 1323.92,86.1857 1326.61,104.618 
  1326.61,97.792 1329.3,122.301 1334.41,160.398 1339.51,187.516 1342.2,197.385 1342.2,198.605 1344.89,198.023 1349.99,192.17 1355.09,180.128 1357.78,171.294 
  1357.78,172.153 1360.48,166.768 1365.58,161.096 1370.68,161.352 1373.37,163.873 1373.37,163.135 1376.06,166.348 1381.16,170.847 1386.26,173.259 1388.96,173.69 
  1388.96,173.945 1391.65,173.066 1396.75,171.424 1401.85,169.818 1404.54,168.986 1404.54,168.971 1407.23,168.894 1412.33,169.065 1417.43,169.652 1420.13,170.127 
  1420.13,170.096 1422.82,170.308 1427.92,170.505 1433.02,170.435 1435.71,170.291 1435.71,170.291 1438.4,170.225 1443.5,170.139 1448.61,170.108 1451.3,170.112 
  1451.3,170.151 1453.99,170.044 1459.09,169.832 1464.19,169.609 1466.88,169.487 1466.88,169.478 1469.57,169.55 1474.67,169.989 1479.78,170.822 1482.47,171.42 
  1482.47,171.206 1485.16,171.831 1490.26,171.997 1495.36,170.827 1498.05,169.671 1498.05,170.314 1500.74,168.059 1505.85,165.213 1510.95,164.247 1513.64,164.498 
  1513.64,163.923 1516.33,166.939 1521.43,173.986 1526.53,182.763 1529.22,188.086 1529.22,186.686 1531.92,190.188 1537.02,187.204 1542.12,171.613 1544.81,158.305 
  1544.81,164.091 1547.5,140.839 1552.6,110.476 1557.7,98.1363 1560.39,98.913 1560.39,102.018 1563.09,120.626 1568.19,201.478 1573.29,341.995 1575.98,440.156 
  1575.98,429.186 1578.67,551.799 1583.77,777.794 1588.87,995.256 1591.57,1106.49 1591.57,1102.41 1594.26,1191.36 1599.36,1312.29 1604.46,1370.8 1607.15,1376.52 
  1607.15,1384.24 1609.84,1370.46 1614.94,1339.75 1620.05,1303.12 1622.74,1281.43 1622.74,1282.68 1625.43,1271.59 1630.53,1261.48 1635.63,1265.61 1638.32,1273.52 
  1638.32,1271.62 1641.01,1280.22 1646.11,1292.15 1651.22,1298.35 1653.91,1299.3 1653.91,1300.02 1656.6,1297.77 1661.7,1293.46 1666.8,1289.06 1669.49,1286.71 
  1669.49,1286.71 1672.18,1286.22 1677.29,1286.34 1682.39,1287.81 1685.08,1289.13 1685.08,1288.98 1687.77,1289.78 1692.87,1290.61 1697.97,1290.53 1700.66,1290.12 
  1700.66,1290.22 1703.35,1289.75 1708.46,1289.14 1713.56,1288.91 1716.25,1288.93 1716.25,1288.89 1718.94,1289.07 1724.04,1289.35 1729.14,1289.54 1731.83,1289.6 
  1731.83,1289.61 1734.53,1289.57 1739.63,1289.48 1744.73,1289.38 1747.42,1289.32 1747.42,1289.32 1750.11,1289.32 1755.21,1289.34 1760.31,1289.38 1763,1289.41 
  1763,1289.41 1765.7,1289.42 1770.8,1289.42 1775.9,1289.41 1778.59,1289.4 1778.59,1289.4 1781.28,1289.39 1786.38,1289.38 1791.48,1289.39 1794.18,1289.39 
  1794.18,1289.39 1796.87,1289.4 1801.97,1289.4 1807.07,1289.4 1809.76,1289.4 1809.76,1289.4 1812.45,1289.4 1817.55,1289.39 1822.66,1289.39 1825.35,1289.39 
  1825.35,1289.39 1828.04,1289.39 1833.14,1289.4 1838.24,1289.4 1840.93,1289.4 1840.93,1289.4 1843.62,1289.4 1848.72,1289.4 1853.83,1289.39 1856.52,1289.39 
  1856.52,1289.39 1859.21,1289.4 1864.31,1289.4 1869.41,1289.4 1872.1,1289.4 1872.1,1289.4 1874.79,1289.4 1879.9,1289.4 1885,1289.4 1887.69,1289.4 
  1887.69,1289.4 1890.38,1289.4 1895.48,1289.4 1900.58,1289.4 1903.27,1289.4 1903.27,1289.4 1905.96,1289.4 1911.07,1289.4 1916.17,1289.4 1918.86,1289.4 
  1918.86,1289.4 1921.55,1289.4 1926.65,1289.4 1931.75,1289.4 1934.44,1289.4 1934.44,1289.4 1937.14,1289.4 1942.24,1289.4 1947.34,1289.4 1950.03,1289.4 
  1950.03,1289.4 1952.72,1289.4 1957.82,1289.4 1962.92,1289.4 1965.61,1289.4 1965.61,1289.4 1968.31,1289.4 1973.41,1289.4 1978.51,1289.4 1981.2,1289.4 
  1981.2,1289.4 1983.89,1289.4 1988.99,1289.4 1994.09,1289.4 1996.79,1289.4 1996.79,1289.4 1999.48,1289.4 2004.58,1289.4 2009.68,1289.4 2012.37,1289.4 
  2012.37,1289.4 2015.06,1289.4 2020.16,1289.4 2025.27,1289.4 2027.96,1289.4 2027.96,1289.4 2030.65,1289.4 2035.75,1289.4 2040.85,1289.4 2043.54,1289.4 
  2043.54,1289.4 2046.23,1289.4 2051.33,1289.4 2056.44,1289.4 2059.13,1289.4 2059.13,1289.4 2061.82,1289.4 2066.92,1289.4 2072.02,1289.4 2074.71,1289.4 
  2074.71,1289.4 2077.4,1289.4 2082.51,1289.4 2087.61,1289.4 2090.3,1289.4 2090.3,1289.4 2092.99,1289.4 2098.09,1289.4 2103.19,1289.4 2105.88,1289.4 
  2105.88,1289.4 2108.57,1289.4 2113.68,1289.4 2118.78,1289.4 2121.47,1289.4 2121.47,1289.4 2124.16,1289.4 2129.26,1289.4 2134.36,1289.4 2137.05,1289.4 
  2137.05,1289.4 2139.75,1289.4 2144.85,1289.4 2149.95,1289.4 2152.64,1289.4 2152.64,1289.4 2155.33,1289.4 2160.43,1289.4 2165.53,1289.4 2168.22,1289.4 
  2170.92,1289.4 2176.02,1289.4 2181.12,1289.4 2183.81,1289.4 2186.5,1289.4 2191.6,1289.4 2196.7,1289.4 2199.4,1289.4 
  2202.09,1289.4 2207.19,1289.4 2212.29,1289.4 2214.98,1289.4 2217.67,1289.4 2222.77,1289.4 2227.88,1289.4 2230.57,1289.4 
  2233.26,1289.4 2238.36,1289.4 2243.46,1289.4 2246.15,1289.4 2248.84,1289.4 2253.94,1289.4 2259.05,1289.4 2261.74,1289.4 
  2264.43,1289.4 2269.53,1289.4 2274.63,1289.4 2277.32,1289.4 2280.01,1289.4 2285.12,1289.4 2290.22,1289.4 2292.91,1289.4 
  
  "/>
<path clip-path="url(#clip950)" d="
M1802.38 274.549 L2282.27 274.549 L2282.27 93.1086 L1802.38 93.1086  Z
  " fill="#ffffff" fill-rule="evenodd" fill-opacity="1"/>
<polyline clip-path="url(#clip950)" style="stroke:#000000; stroke-width:4; stroke-opacity:1; fill:none" points="
  1802.38,274.549 2282.27,274.549 2282.27,93.1086 1802.38,93.1086 1802.38,274.549 
  "/>
<polyline clip-path="url(#clip950)" style="stroke:#009af9; stroke-width:4; stroke-opacity:1; fill:none" points="
  1825.88,153.589 1966.85,153.589 
  "/>
<path clip-path="url(#clip950)" d="M 0 0 M1994.75 157.929 Q1994.75 162.628 1996.67 165.313 Q1998.61 167.975 2001.99 167.975 Q2005.37 167.975 2007.31 165.313 Q2009.26 162.628 2009.26 157.929 Q2009.26 153.23 2007.31 150.568 Q2005.37 147.883 2001.99 147.883 Q1998.61 147.883 1996.67 150.568 Q1994.75 153.23 1994.75 157.929 M2009.26 166.98 Q2007.92 169.295 2005.86 170.429 Q2003.82 171.54 2000.95 171.54 Q1996.25 171.54 1993.29 167.79 Q1990.35 164.04 1990.35 157.929 Q1990.35 151.818 1993.29 148.068 Q1996.25 144.318 2000.95 144.318 Q2003.82 144.318 2005.86 145.452 Q2007.92 146.563 2009.26 148.878 L2009.26 144.943 L2013.52 144.943 L2013.52 180.73 L2009.26 180.73 L2009.26 166.98 Z" fill="#000000" fill-rule="evenodd" fill-opacity="1" /><path clip-path="url(#clip950)" d="M 0 0 M2019.07 164.989 L2023.96 164.989 L2023.96 168.97 L2020.16 176.378 L2017.18 176.378 L2019.07 168.97 L2019.07 164.989 Z" fill="#000000" fill-rule="evenodd" fill-opacity="1" /><path clip-path="url(#clip950)" d="M 0 0 M2047.71 137.582 L2047.71 144.943 L2056.48 144.943 L2056.48 148.253 L2047.71 148.253 L2047.71 162.327 Q2047.71 165.498 2048.56 166.401 Q2049.44 167.304 2052.11 167.304 L2056.48 167.304 L2056.48 170.869 L2052.11 170.869 Q2047.18 170.869 2045.3 169.04 Q2043.43 167.188 2043.43 162.327 L2043.43 148.253 L2040.3 148.253 L2040.3 144.943 L2043.43 144.943 L2043.43 137.582 L2047.71 137.582 Z" fill="#000000" fill-rule="evenodd" fill-opacity="1" /><path clip-path="url(#clip950)" d="M 0 0 M2061.5 149.341 L2091.18 149.341 L2091.18 153.23 L2061.5 153.23 L2061.5 149.341 M2061.5 158.785 L2091.18 158.785 L2091.18 162.721 L2061.5 162.721 L2061.5 158.785 Z" fill="#000000" fill-rule="evenodd" fill-opacity="1" /><path clip-path="url(#clip950)" d="M 0 0 M2106.25 139.387 Q2102.64 139.387 2100.81 142.952 Q2099 146.494 2099 153.623 Q2099 160.73 2100.81 164.295 Q2102.64 167.836 2106.25 167.836 Q2109.88 167.836 2111.69 164.295 Q2113.52 160.73 2113.52 153.623 Q2113.52 146.494 2111.69 142.952 Q2109.88 139.387 2106.25 139.387 M2106.25 135.684 Q2112.06 135.684 2115.12 140.29 Q2118.19 144.873 2118.19 153.623 Q2118.19 162.35 2115.12 166.957 Q2112.06 171.54 2106.25 171.54 Q2100.44 171.54 2097.36 166.957 Q2094.31 162.35 2094.31 153.623 Q2094.31 144.873 2097.36 140.29 Q2100.44 135.684 2106.25 135.684 Z" fill="#000000" fill-rule="evenodd" fill-opacity="1" /><path clip-path="url(#clip950)" d="M 0 0 M2123.26 164.989 L2128.15 164.989 L2128.15 170.869 L2123.26 170.869 L2123.26 164.989 Z" fill="#000000" fill-rule="evenodd" fill-opacity="1" /><path clip-path="url(#clip950)" d="M 0 0 M2143.22 139.387 Q2139.61 139.387 2137.78 142.952 Q2135.97 146.494 2135.97 153.623 Q2135.97 160.73 2137.78 164.295 Q2139.61 167.836 2143.22 167.836 Q2146.85 167.836 2148.66 164.295 Q2150.49 160.73 2150.49 153.623 Q2150.49 146.494 2148.66 142.952 Q2146.85 139.387 2143.22 139.387 M2143.22 135.684 Q2149.03 135.684 2152.08 140.29 Q2155.16 144.873 2155.16 153.623 Q2155.16 162.35 2152.08 166.957 Q2149.03 171.54 2143.22 171.54 Q2137.41 171.54 2134.33 166.957 Q2131.27 162.35 2131.27 153.623 Q2131.27 144.873 2134.33 140.29 Q2137.41 135.684 2143.22 135.684 Z" fill="#000000" fill-rule="evenodd" fill-opacity="1" /><polyline clip-path="url(#clip950)" style="stroke:#e26f46; stroke-width:4; stroke-opacity:1; fill:none" points="
  1825.88,214.069 1966.85,214.069 
  "/>
<path clip-path="url(#clip950)" d="M 0 0 M1994.75 218.409 Q1994.75 223.108 1996.67 225.793 Q1998.61 228.455 2001.99 228.455 Q2005.37 228.455 2007.31 225.793 Q2009.26 223.108 2009.26 218.409 Q2009.26 213.71 2007.31 211.048 Q2005.37 208.363 2001.99 208.363 Q1998.61 208.363 1996.67 211.048 Q1994.75 213.71 1994.75 218.409 M2009.26 227.46 Q2007.92 229.775 2005.86 230.909 Q2003.82 232.02 2000.95 232.02 Q1996.25 232.02 1993.29 228.27 Q1990.35 224.52 1990.35 218.409 Q1990.35 212.298 1993.29 208.548 Q1996.25 204.798 2000.95 204.798 Q2003.82 204.798 2005.86 205.932 Q2007.92 207.043 2009.26 209.358 L2009.26 205.423 L2013.52 205.423 L2013.52 241.21 L2009.26 241.21 L2009.26 227.46 Z" fill="#000000" fill-rule="evenodd" fill-opacity="1" /><path clip-path="url(#clip950)" d="M 0 0 M2019.07 225.469 L2023.96 225.469 L2023.96 229.45 L2020.16 236.858 L2017.18 236.858 L2019.07 229.45 L2019.07 225.469 Z" fill="#000000" fill-rule="evenodd" fill-opacity="1" /><path clip-path="url(#clip950)" d="M 0 0 M2047.71 198.062 L2047.71 205.423 L2056.48 205.423 L2056.48 208.733 L2047.71 208.733 L2047.71 222.807 Q2047.71 225.978 2048.56 226.881 Q2049.44 227.784 2052.11 227.784 L2056.48 227.784 L2056.48 231.349 L2052.11 231.349 Q2047.18 231.349 2045.3 229.52 Q2043.43 227.668 2043.43 222.807 L2043.43 208.733 L2040.3 208.733 L2040.3 205.423 L2043.43 205.423 L2043.43 198.062 L2047.71 198.062 Z" fill="#000000" fill-rule="evenodd" fill-opacity="1" /><path clip-path="url(#clip950)" d="M 0 0 M2061.5 209.821 L2091.18 209.821 L2091.18 213.71 L2061.5 213.71 L2061.5 209.821 M2061.5 219.265 L2091.18 219.265 L2091.18 223.201 L2061.5 223.201 L2061.5 219.265 Z" fill="#000000" fill-rule="evenodd" fill-opacity="1" /><path clip-path="url(#clip950)" d="M 0 0 M2109.1 200.863 L2097.29 219.312 L2109.1 219.312 L2109.1 200.863 M2107.87 196.789 L2113.75 196.789 L2113.75 219.312 L2118.68 219.312 L2118.68 223.201 L2113.75 223.201 L2113.75 231.349 L2109.1 231.349 L2109.1 223.201 L2093.5 223.201 L2093.5 218.687 L2107.87 196.789 Z" fill="#000000" fill-rule="evenodd" fill-opacity="1" /><path clip-path="url(#clip950)" d="M 0 0 M2123.8 196.789 L2142.15 196.789 L2142.15 200.724 L2128.08 200.724 L2128.08 209.196 Q2129.1 208.849 2130.12 208.687 Q2131.13 208.502 2132.15 208.502 Q2137.94 208.502 2141.32 211.673 Q2144.7 214.844 2144.7 220.261 Q2144.7 225.839 2141.23 228.941 Q2137.75 232.02 2131.43 232.02 Q2129.26 232.02 2126.99 231.65 Q2124.74 231.279 2122.34 230.538 L2122.34 225.839 Q2124.42 226.974 2126.64 227.529 Q2128.87 228.085 2131.34 228.085 Q2135.35 228.085 2137.68 225.978 Q2140.02 223.872 2140.02 220.261 Q2140.02 216.65 2137.68 214.543 Q2135.35 212.437 2131.34 212.437 Q2129.47 212.437 2127.59 212.853 Q2125.74 213.27 2123.8 214.15 L2123.8 196.789 Z" fill="#000000" fill-rule="evenodd" fill-opacity="1" /><path clip-path="url(#clip950)" d="M 0 0 M2159.77 199.867 Q2156.16 199.867 2154.33 203.432 Q2152.52 206.974 2152.52 214.103 Q2152.52 221.21 2154.33 224.775 Q2156.16 228.316 2159.77 228.316 Q2163.4 228.316 2165.21 224.775 Q2167.04 221.21 2167.04 214.103 Q2167.04 206.974 2165.21 203.432 Q2163.4 199.867 2159.77 199.867 M2159.77 196.164 Q2165.58 196.164 2168.63 200.77 Q2171.71 205.353 2171.71 214.103 Q2171.71 222.83 2168.63 227.437 Q2165.58 232.02 2159.77 232.02 Q2153.96 232.02 2150.88 227.437 Q2147.82 222.83 2147.82 214.103 Q2147.82 205.353 2150.88 200.77 Q2153.96 196.164 2159.77 196.164 Z" fill="#000000" fill-rule="evenodd" fill-opacity="1" /><path clip-path="url(#clip950)" d="M 0 0 M2176.78 225.469 L2181.67 225.469 L2181.67 231.349 L2176.78 231.349 L2176.78 225.469 Z" fill="#000000" fill-rule="evenodd" fill-opacity="1" /><path clip-path="url(#clip950)" d="M 0 0 M2199.58 200.863 L2187.78 219.312 L2199.58 219.312 L2199.58 200.863 M2198.36 196.789 L2204.24 196.789 L2204.24 219.312 L2209.17 219.312 L2209.17 223.201 L2204.24 223.201 L2204.24 231.349 L2199.58 231.349 L2199.58 223.201 L2183.98 223.201 L2183.98 218.687 L2198.36 196.789 Z" fill="#000000" fill-rule="evenodd" fill-opacity="1" /><path clip-path="url(#clip950)" d="M 0 0 M2213.05 196.789 L2235.28 196.789 L2235.28 198.779 L2222.73 231.349 L2217.85 231.349 L2229.65 200.724 L2213.05 200.724 L2213.05 196.789 Z" fill="#000000" fill-rule="evenodd" fill-opacity="1" /></svg>
