<?xml version="1.0" encoding="utf-8"?>
<svg xmlns="http://www.w3.org/2000/svg" xmlns:xlink="http://www.w3.org/1999/xlink" width="600" height="400" viewBox="0 0 2400 1600">
<defs>
  <clipPath id="clip800">
    <rect x="0" y="0" width="2400" height="1600"/>
  </clipPath>
</defs>
<path clip-path="url(#clip800)" d="
M0 1600 L2400 1600 L2400 0 L0 0  Z
  " fill="#ffffff" fill-rule="evenodd" fill-opacity="1"/>
<defs>
  <clipPath id="clip801">
    <rect x="480" y="0" width="1681" height="1600"/>
  </clipPath>
</defs>
<path clip-path="url(#clip800)" d="
M238.13 1423.18 L2352.76 1423.18 L2352.76 47.2441 L238.13 47.2441  Z
  " fill="#ffffff" fill-rule="evenodd" fill-opacity="1"/>
<defs>
  <clipPath id="clip802">
    <rect x="238" y="47" width="2116" height="1377"/>
  </clipPath>
</defs>
<polyline clip-path="url(#clip802)" style="stroke:#000000; stroke-width:2; stroke-opacity:0.1; fill:none" points="
  297.978,1423.18 297.978,47.2441 
  "/>
<polyline clip-path="url(#clip802)" style="stroke:#000000; stroke-width:2; stroke-opacity:0.1; fill:none" points="
  867.958,1423.18 867.958,47.2441 
  "/>
<polyline clip-path="url(#clip802)" style="stroke:#000000; stroke-width:2; stroke-opacity:0.1; fill:none" points="
  1437.94,1423.18 1437.94,47.2441 
  "/>
<polyline clip-path="url(#clip802)" style="stroke:#000000; stroke-width:2; stroke-opacity:0.1; fill:none" points="
  2007.92,1423.18 2007.92,47.2441 
  "/>
<polyline clip-path="url(#clip802)" style="stroke:#000000; stroke-width:2; stroke-opacity:0.1; fill:none" points="
  238.13,1316.93 2352.76,1316.93 
  "/>
<polyline clip-path="url(#clip802)" style="stroke:#000000; stroke-width:2; stroke-opacity:0.1; fill:none" points="
  238.13,1026.72 2352.76,1026.72 
  "/>
<polyline clip-path="url(#clip802)" style="stroke:#000000; stroke-width:2; stroke-opacity:0.1; fill:none" points="
  238.13,736.518 2352.76,736.518 
  "/>
<polyline clip-path="url(#clip802)" style="stroke:#000000; stroke-width:2; stroke-opacity:0.1; fill:none" points="
  238.13,446.311 2352.76,446.311 
  "/>
<polyline clip-path="url(#clip802)" style="stroke:#000000; stroke-width:2; stroke-opacity:0.1; fill:none" points="
  238.13,156.105 2352.76,156.105 
  "/>
<polyline clip-path="url(#clip800)" style="stroke:#000000; stroke-width:4; stroke-opacity:1; fill:none" points="
  238.13,1423.18 2352.76,1423.18 
  "/>
<polyline clip-path="url(#clip800)" style="stroke:#000000; stroke-width:4; stroke-opacity:1; fill:none" points="
  238.13,1423.18 238.13,47.2441 
  "/>
<polyline clip-path="url(#clip800)" style="stroke:#000000; stroke-width:4; stroke-opacity:1; fill:none" points="
  297.978,1423.18 297.978,1406.67 
  "/>
<polyline clip-path="url(#clip800)" style="stroke:#000000; stroke-width:4; stroke-opacity:1; fill:none" points="
  867.958,1423.18 867.958,1406.67 
  "/>
<polyline clip-path="url(#clip800)" style="stroke:#000000; stroke-width:4; stroke-opacity:1; fill:none" points="
  1437.94,1423.18 1437.94,1406.67 
  "/>
<polyline clip-path="url(#clip800)" style="stroke:#000000; stroke-width:4; stroke-opacity:1; fill:none" points="
  2007.92,1423.18 2007.92,1406.67 
  "/>
<polyline clip-path="url(#clip800)" style="stroke:#000000; stroke-width:4; stroke-opacity:1; fill:none" points="
  238.13,1316.93 263.506,1316.93 
  "/>
<polyline clip-path="url(#clip800)" style="stroke:#000000; stroke-width:4; stroke-opacity:1; fill:none" points="
  238.13,1026.72 263.506,1026.72 
  "/>
<polyline clip-path="url(#clip800)" style="stroke:#000000; stroke-width:4; stroke-opacity:1; fill:none" points="
  238.13,736.518 263.506,736.518 
  "/>
<polyline clip-path="url(#clip800)" style="stroke:#000000; stroke-width:4; stroke-opacity:1; fill:none" points="
  238.13,446.311 263.506,446.311 
  "/>
<polyline clip-path="url(#clip800)" style="stroke:#000000; stroke-width:4; stroke-opacity:1; fill:none" points="
  238.13,156.105 263.506,156.105 
  "/>
<path clip-path="url(#clip800)" d="M 0 0 M297.978 1445.17 Q294.367 1445.17 292.538 1448.74 Q290.733 1452.28 290.733 1459.41 Q290.733 1466.51 292.538 1470.08 Q294.367 1473.62 297.978 1473.62 Q301.612 1473.62 303.418 1470.08 Q305.246 1466.51 305.246 1459.41 Q305.246 1452.28 303.418 1448.74 Q301.612 1445.17 297.978 1445.17 M297.978 1441.47 Q303.788 1441.47 306.844 1446.07 Q309.922 1450.66 309.922 1459.41 Q309.922 1468.13 306.844 1472.74 Q303.788 1477.32 297.978 1477.32 Q292.168 1477.32 289.089 1472.74 Q286.034 1468.13 286.034 1459.41 Q286.034 1450.66 289.089 1446.07 Q292.168 1441.47 297.978 1441.47 Z" fill="#000000" fill-rule="evenodd" fill-opacity="1" /><path clip-path="url(#clip800)" d="M 0 0 M831.326 1472.72 L838.965 1472.72 L838.965 1446.35 L830.655 1448.02 L830.655 1443.76 L838.919 1442.09 L843.595 1442.09 L843.595 1472.72 L851.234 1472.72 L851.234 1476.65 L831.326 1476.65 L831.326 1472.72 Z" fill="#000000" fill-rule="evenodd" fill-opacity="1" /><path clip-path="url(#clip800)" d="M 0 0 M866.303 1445.17 Q862.692 1445.17 860.863 1448.74 Q859.058 1452.28 859.058 1459.41 Q859.058 1466.51 860.863 1470.08 Q862.692 1473.62 866.303 1473.62 Q869.937 1473.62 871.743 1470.08 Q873.571 1466.51 873.571 1459.41 Q873.571 1452.28 871.743 1448.74 Q869.937 1445.17 866.303 1445.17 M866.303 1441.47 Q872.113 1441.47 875.169 1446.07 Q878.247 1450.66 878.247 1459.41 Q878.247 1468.13 875.169 1472.74 Q872.113 1477.32 866.303 1477.32 Q860.493 1477.32 857.414 1472.74 Q854.359 1468.13 854.359 1459.41 Q854.359 1450.66 857.414 1446.07 Q860.493 1441.47 866.303 1441.47 Z" fill="#000000" fill-rule="evenodd" fill-opacity="1" /><path clip-path="url(#clip800)" d="M 0 0 M893.317 1445.17 Q889.706 1445.17 887.877 1448.74 Q886.071 1452.28 886.071 1459.41 Q886.071 1466.51 887.877 1470.08 Q889.706 1473.62 893.317 1473.62 Q896.951 1473.62 898.756 1470.08 Q900.585 1466.51 900.585 1459.41 Q900.585 1452.28 898.756 1448.74 Q896.951 1445.17 893.317 1445.17 M893.317 1441.47 Q899.127 1441.47 902.182 1446.07 Q905.261 1450.66 905.261 1459.41 Q905.261 1468.13 902.182 1472.74 Q899.127 1477.32 893.317 1477.32 Q887.506 1477.32 884.428 1472.74 Q881.372 1468.13 881.372 1459.41 Q881.372 1450.66 884.428 1446.07 Q887.506 1441.47 893.317 1441.47 Z" fill="#000000" fill-rule="evenodd" fill-opacity="1" /><path clip-path="url(#clip800)" d="M 0 0 M1405.58 1472.72 L1421.9 1472.72 L1421.9 1476.65 L1399.95 1476.65 L1399.95 1472.72 Q1402.61 1469.96 1407.2 1465.33 Q1411.8 1460.68 1412.98 1459.34 Q1415.23 1456.81 1416.11 1455.08 Q1417.01 1453.32 1417.01 1451.63 Q1417.01 1448.87 1415.07 1447.14 Q1413.15 1445.4 1410.04 1445.4 Q1407.85 1445.4 1405.39 1446.17 Q1402.96 1446.93 1400.18 1448.48 L1400.18 1443.76 Q1403.01 1442.62 1405.46 1442.05 Q1407.91 1441.47 1409.95 1441.47 Q1415.32 1441.47 1418.52 1444.15 Q1421.71 1446.84 1421.71 1451.33 Q1421.71 1453.46 1420.9 1455.38 Q1420.11 1457.28 1418.01 1459.87 Q1417.43 1460.54 1414.33 1463.76 Q1411.23 1466.95 1405.58 1472.72 Z" fill="#000000" fill-rule="evenodd" fill-opacity="1" /><path clip-path="url(#clip800)" d="M 0 0 M1436.97 1445.17 Q1433.35 1445.17 1431.53 1448.74 Q1429.72 1452.28 1429.72 1459.41 Q1429.72 1466.51 1431.53 1470.08 Q1433.35 1473.62 1436.97 1473.62 Q1440.6 1473.62 1442.41 1470.08 Q1444.23 1466.51 1444.23 1459.41 Q1444.23 1452.28 1442.41 1448.74 Q1440.6 1445.17 1436.97 1445.17 M1436.97 1441.47 Q1442.78 1441.47 1445.83 1446.07 Q1448.91 1450.66 1448.91 1459.41 Q1448.91 1468.13 1445.83 1472.74 Q1442.78 1477.32 1436.97 1477.32 Q1431.16 1477.32 1428.08 1472.74 Q1425.02 1468.13 1425.02 1459.41 Q1425.02 1450.66 1428.08 1446.07 Q1431.16 1441.47 1436.97 1441.47 Z" fill="#000000" fill-rule="evenodd" fill-opacity="1" /><path clip-path="url(#clip800)" d="M 0 0 M1463.98 1445.17 Q1460.37 1445.17 1458.54 1448.74 Q1456.73 1452.28 1456.73 1459.41 Q1456.73 1466.51 1458.54 1470.08 Q1460.37 1473.62 1463.98 1473.62 Q1467.61 1473.62 1469.42 1470.08 Q1471.25 1466.51 1471.25 1459.41 Q1471.25 1452.28 1469.42 1448.74 Q1467.61 1445.17 1463.98 1445.17 M1463.98 1441.47 Q1469.79 1441.47 1472.85 1446.07 Q1475.92 1450.66 1475.92 1459.41 Q1475.92 1468.13 1472.85 1472.74 Q1469.79 1477.32 1463.98 1477.32 Q1458.17 1477.32 1455.09 1472.74 Q1452.04 1468.13 1452.04 1459.41 Q1452.04 1450.66 1455.09 1446.07 Q1458.17 1441.47 1463.98 1441.47 Z" fill="#000000" fill-rule="evenodd" fill-opacity="1" /><path clip-path="url(#clip800)" d="M 0 0 M1985.15 1458.02 Q1988.51 1458.74 1990.38 1461 Q1992.28 1463.27 1992.28 1466.61 Q1992.28 1471.72 1988.76 1474.52 Q1985.24 1477.32 1978.76 1477.32 Q1976.59 1477.32 1974.27 1476.88 Q1971.98 1476.47 1969.53 1475.61 L1969.53 1471.1 Q1971.47 1472.23 1973.79 1472.81 Q1976.1 1473.39 1978.62 1473.39 Q1983.02 1473.39 1985.31 1471.65 Q1987.63 1469.92 1987.63 1466.61 Q1987.63 1463.55 1985.48 1461.84 Q1983.35 1460.1 1979.53 1460.1 L1975.5 1460.1 L1975.5 1456.26 L1979.71 1456.26 Q1983.16 1456.26 1984.99 1454.89 Q1986.82 1453.5 1986.82 1450.91 Q1986.82 1448.25 1984.92 1446.84 Q1983.05 1445.4 1979.53 1445.4 Q1977.61 1445.4 1975.41 1445.82 Q1973.21 1446.24 1970.57 1447.11 L1970.57 1442.95 Q1973.23 1442.21 1975.55 1441.84 Q1977.88 1441.47 1979.94 1441.47 Q1985.27 1441.47 1988.37 1443.9 Q1991.47 1446.3 1991.47 1450.43 Q1991.47 1453.3 1989.83 1455.29 Q1988.18 1457.25 1985.15 1458.02 Z" fill="#000000" fill-rule="evenodd" fill-opacity="1" /><path clip-path="url(#clip800)" d="M 0 0 M2007.35 1445.17 Q2003.74 1445.17 2001.91 1448.74 Q2000.11 1452.28 2000.11 1459.41 Q2000.11 1466.51 2001.91 1470.08 Q2003.74 1473.62 2007.35 1473.62 Q2010.99 1473.62 2012.79 1470.08 Q2014.62 1466.51 2014.62 1459.41 Q2014.62 1452.28 2012.79 1448.74 Q2010.99 1445.17 2007.35 1445.17 M2007.35 1441.47 Q2013.16 1441.47 2016.22 1446.07 Q2019.3 1450.66 2019.3 1459.41 Q2019.3 1468.13 2016.22 1472.74 Q2013.16 1477.32 2007.35 1477.32 Q2001.54 1477.32 1998.46 1472.74 Q1995.41 1468.13 1995.41 1459.41 Q1995.41 1450.66 1998.46 1446.07 Q2001.54 1441.47 2007.35 1441.47 Z" fill="#000000" fill-rule="evenodd" fill-opacity="1" /><path clip-path="url(#clip800)" d="M 0 0 M2034.36 1445.17 Q2030.75 1445.17 2028.92 1448.74 Q2027.12 1452.28 2027.12 1459.41 Q2027.12 1466.51 2028.92 1470.08 Q2030.75 1473.62 2034.36 1473.62 Q2038 1473.62 2039.8 1470.08 Q2041.63 1466.51 2041.63 1459.41 Q2041.63 1452.28 2039.8 1448.74 Q2038 1445.17 2034.36 1445.17 M2034.36 1441.47 Q2040.17 1441.47 2043.23 1446.07 Q2046.31 1450.66 2046.31 1459.41 Q2046.31 1468.13 2043.23 1472.74 Q2040.17 1477.32 2034.36 1477.32 Q2028.55 1477.32 2025.48 1472.74 Q2022.42 1468.13 2022.42 1459.41 Q2022.42 1450.66 2025.48 1446.07 Q2028.55 1441.47 2034.36 1441.47 Z" fill="#000000" fill-rule="evenodd" fill-opacity="1" /><path clip-path="url(#clip800)" d="M 0 0 M138.205 1302.73 Q134.593 1302.73 132.765 1306.29 Q130.959 1309.84 130.959 1316.97 Q130.959 1324.07 132.765 1327.64 Q134.593 1331.18 138.205 1331.18 Q141.839 1331.18 143.644 1327.64 Q145.473 1324.07 145.473 1316.97 Q145.473 1309.84 143.644 1306.29 Q141.839 1302.73 138.205 1302.73 M138.205 1299.03 Q144.015 1299.03 147.07 1303.63 Q150.149 1308.22 150.149 1316.97 Q150.149 1325.69 147.07 1330.3 Q144.015 1334.88 138.205 1334.88 Q132.394 1334.88 129.316 1330.3 Q126.26 1325.69 126.26 1316.97 Q126.26 1308.22 129.316 1303.63 Q132.394 1299.03 138.205 1299.03 Z" fill="#000000" fill-rule="evenodd" fill-opacity="1" /><path clip-path="url(#clip800)" d="M 0 0 M155.218 1328.33 L160.103 1328.33 L160.103 1334.21 L155.218 1334.21 L155.218 1328.33 Z" fill="#000000" fill-rule="evenodd" fill-opacity="1" /><path clip-path="url(#clip800)" d="M 0 0 M175.172 1302.73 Q171.561 1302.73 169.732 1306.29 Q167.927 1309.84 167.927 1316.97 Q167.927 1324.07 169.732 1327.64 Q171.561 1331.18 175.172 1331.18 Q178.806 1331.18 180.612 1327.64 Q182.44 1324.07 182.44 1316.97 Q182.44 1309.84 180.612 1306.29 Q178.806 1302.73 175.172 1302.73 M175.172 1299.03 Q180.982 1299.03 184.038 1303.63 Q187.116 1308.22 187.116 1316.97 Q187.116 1325.69 184.038 1330.3 Q180.982 1334.88 175.172 1334.88 Q169.362 1334.88 166.283 1330.3 Q163.228 1325.69 163.228 1316.97 Q163.228 1308.22 166.283 1303.63 Q169.362 1299.03 175.172 1299.03 Z" fill="#000000" fill-rule="evenodd" fill-opacity="1" /><path clip-path="url(#clip800)" d="M 0 0 M202.186 1302.73 Q198.575 1302.73 196.746 1306.29 Q194.94 1309.84 194.94 1316.97 Q194.94 1324.07 196.746 1327.64 Q198.575 1331.18 202.186 1331.18 Q205.82 1331.18 207.625 1327.64 Q209.454 1324.07 209.454 1316.97 Q209.454 1309.84 207.625 1306.29 Q205.82 1302.73 202.186 1302.73 M202.186 1299.03 Q207.996 1299.03 211.051 1303.63 Q214.13 1308.22 214.13 1316.97 Q214.13 1325.69 211.051 1330.3 Q207.996 1334.88 202.186 1334.88 Q196.376 1334.88 193.297 1330.3 Q190.241 1325.69 190.241 1316.97 Q190.241 1308.22 193.297 1303.63 Q196.376 1299.03 202.186 1299.03 Z" fill="#000000" fill-rule="evenodd" fill-opacity="1" /><path clip-path="url(#clip800)" d="M 0 0 M140.797 1012.52 Q137.186 1012.52 135.357 1016.09 Q133.552 1019.63 133.552 1026.76 Q133.552 1033.87 135.357 1037.43 Q137.186 1040.97 140.797 1040.97 Q144.431 1040.97 146.237 1037.43 Q148.066 1033.87 148.066 1026.76 Q148.066 1019.63 146.237 1016.09 Q144.431 1012.52 140.797 1012.52 M140.797 1008.82 Q146.607 1008.82 149.663 1013.43 Q152.741 1018.01 152.741 1026.76 Q152.741 1035.49 149.663 1040.09 Q146.607 1044.68 140.797 1044.68 Q134.987 1044.68 131.908 1040.09 Q128.853 1035.49 128.853 1026.76 Q128.853 1018.01 131.908 1013.43 Q134.987 1008.82 140.797 1008.82 Z" fill="#000000" fill-rule="evenodd" fill-opacity="1" /><path clip-path="url(#clip800)" d="M 0 0 M157.811 1038.12 L162.695 1038.12 L162.695 1044 L157.811 1044 L157.811 1038.12 Z" fill="#000000" fill-rule="evenodd" fill-opacity="1" /><path clip-path="url(#clip800)" d="M 0 0 M171.792 1040.07 L188.112 1040.07 L188.112 1044 L166.167 1044 L166.167 1040.07 Q168.829 1037.31 173.413 1032.68 Q178.019 1028.03 179.2 1026.69 Q181.445 1024.17 182.325 1022.43 Q183.227 1020.67 183.227 1018.98 Q183.227 1016.23 181.283 1014.49 Q179.362 1012.75 176.26 1012.75 Q174.061 1012.75 171.607 1013.52 Q169.177 1014.28 166.399 1015.83 L166.399 1011.11 Q169.223 1009.98 171.677 1009.4 Q174.13 1008.82 176.167 1008.82 Q181.538 1008.82 184.732 1011.5 Q187.926 1014.19 187.926 1018.68 Q187.926 1020.81 187.116 1022.73 Q186.329 1024.63 184.223 1027.22 Q183.644 1027.89 180.542 1031.11 Q177.44 1034.31 171.792 1040.07 Z" fill="#000000" fill-rule="evenodd" fill-opacity="1" /><path clip-path="url(#clip800)" d="M 0 0 M193.227 1009.44 L211.584 1009.44 L211.584 1013.38 L197.51 1013.38 L197.51 1021.85 Q198.528 1021.5 199.547 1021.34 Q200.565 1021.16 201.584 1021.16 Q207.371 1021.16 210.75 1024.33 Q214.13 1027.5 214.13 1032.92 Q214.13 1038.5 210.658 1041.6 Q207.186 1044.68 200.866 1044.68 Q198.69 1044.68 196.422 1044.31 Q194.176 1043.93 191.769 1043.19 L191.769 1038.5 Q193.852 1039.63 196.075 1040.18 Q198.297 1040.74 200.774 1040.74 Q204.778 1040.74 207.116 1038.63 Q209.454 1036.53 209.454 1032.92 Q209.454 1029.31 207.116 1027.2 Q204.778 1025.09 200.774 1025.09 Q198.899 1025.09 197.024 1025.51 Q195.172 1025.93 193.227 1026.81 L193.227 1009.44 Z" fill="#000000" fill-rule="evenodd" fill-opacity="1" /><path clip-path="url(#clip800)" d="M 0 0 M139.2 722.317 Q135.589 722.317 133.76 725.881 Q131.955 729.423 131.955 736.553 Q131.955 743.659 133.76 747.224 Q135.589 750.765 139.2 750.765 Q142.834 750.765 144.64 747.224 Q146.468 743.659 146.468 736.553 Q146.468 729.423 144.64 725.881 Q142.834 722.317 139.2 722.317 M139.2 718.613 Q145.01 718.613 148.066 723.219 Q151.144 727.803 151.144 736.553 Q151.144 745.279 148.066 749.886 Q145.01 754.469 139.2 754.469 Q133.39 754.469 130.311 749.886 Q127.256 745.279 127.256 736.553 Q127.256 727.803 130.311 723.219 Q133.39 718.613 139.2 718.613 Z" fill="#000000" fill-rule="evenodd" fill-opacity="1" /><path clip-path="url(#clip800)" d="M 0 0 M156.214 747.918 L161.098 747.918 L161.098 753.798 L156.214 753.798 L156.214 747.918 Z" fill="#000000" fill-rule="evenodd" fill-opacity="1" /><path clip-path="url(#clip800)" d="M 0 0 M166.214 719.238 L184.57 719.238 L184.57 723.173 L170.496 723.173 L170.496 731.645 Q171.515 731.298 172.533 731.136 Q173.552 730.951 174.57 730.951 Q180.357 730.951 183.737 734.122 Q187.116 737.293 187.116 742.71 Q187.116 748.289 183.644 751.39 Q180.172 754.469 173.852 754.469 Q171.677 754.469 169.408 754.099 Q167.163 753.728 164.755 752.988 L164.755 748.289 Q166.839 749.423 169.061 749.978 Q171.283 750.534 173.76 750.534 Q177.765 750.534 180.102 748.427 Q182.44 746.321 182.44 742.71 Q182.44 739.099 180.102 736.992 Q177.765 734.886 173.76 734.886 Q171.885 734.886 170.01 735.303 Q168.158 735.719 166.214 736.599 L166.214 719.238 Z" fill="#000000" fill-rule="evenodd" fill-opacity="1" /><path clip-path="url(#clip800)" d="M 0 0 M202.186 722.317 Q198.575 722.317 196.746 725.881 Q194.94 729.423 194.94 736.553 Q194.94 743.659 196.746 747.224 Q198.575 750.765 202.186 750.765 Q205.82 750.765 207.625 747.224 Q209.454 743.659 209.454 736.553 Q209.454 729.423 207.625 725.881 Q205.82 722.317 202.186 722.317 M202.186 718.613 Q207.996 718.613 211.051 723.219 Q214.13 727.803 214.13 736.553 Q214.13 745.279 211.051 749.886 Q207.996 754.469 202.186 754.469 Q196.376 754.469 193.297 749.886 Q190.241 745.279 190.241 736.553 Q190.241 727.803 193.297 723.219 Q196.376 718.613 202.186 718.613 Z" fill="#000000" fill-rule="evenodd" fill-opacity="1" /><path clip-path="url(#clip800)" d="M 0 0 M140.103 432.11 Q136.492 432.11 134.663 435.675 Q132.857 439.216 132.857 446.346 Q132.857 453.453 134.663 457.017 Q136.492 460.559 140.103 460.559 Q143.737 460.559 145.542 457.017 Q147.371 453.453 147.371 446.346 Q147.371 439.216 145.542 435.675 Q143.737 432.11 140.103 432.11 M140.103 428.406 Q145.913 428.406 148.968 433.013 Q152.047 437.596 152.047 446.346 Q152.047 455.073 148.968 459.679 Q145.913 464.263 140.103 464.263 Q134.293 464.263 131.214 459.679 Q128.158 455.073 128.158 446.346 Q128.158 437.596 131.214 433.013 Q134.293 428.406 140.103 428.406 Z" fill="#000000" fill-rule="evenodd" fill-opacity="1" /><path clip-path="url(#clip800)" d="M 0 0 M157.116 457.712 L162.001 457.712 L162.001 463.591 L157.116 463.591 L157.116 457.712 Z" fill="#000000" fill-rule="evenodd" fill-opacity="1" /><path clip-path="url(#clip800)" d="M 0 0 M165.89 429.031 L188.112 429.031 L188.112 431.022 L175.565 463.591 L170.681 463.591 L182.487 432.967 L165.89 432.967 L165.89 429.031 Z" fill="#000000" fill-rule="evenodd" fill-opacity="1" /><path clip-path="url(#clip800)" d="M 0 0 M193.227 429.031 L211.584 429.031 L211.584 432.967 L197.51 432.967 L197.51 441.439 Q198.528 441.091 199.547 440.929 Q200.565 440.744 201.584 440.744 Q207.371 440.744 210.75 443.916 Q214.13 447.087 214.13 452.503 Q214.13 458.082 210.658 461.184 Q207.186 464.263 200.866 464.263 Q198.69 464.263 196.422 463.892 Q194.176 463.522 191.769 462.781 L191.769 458.082 Q193.852 459.216 196.075 459.772 Q198.297 460.327 200.774 460.327 Q204.778 460.327 207.116 458.221 Q209.454 456.115 209.454 452.503 Q209.454 448.892 207.116 446.786 Q204.778 444.679 200.774 444.679 Q198.899 444.679 197.024 445.096 Q195.172 445.513 193.227 446.392 L193.227 429.031 Z" fill="#000000" fill-rule="evenodd" fill-opacity="1" /><path clip-path="url(#clip800)" d="M 0 0 M130.242 169.45 L137.88 169.45 L137.88 143.084 L129.57 144.751 L129.57 140.492 L137.834 138.825 L142.51 138.825 L142.51 169.45 L150.149 169.45 L150.149 173.385 L130.242 173.385 L130.242 169.45 Z" fill="#000000" fill-rule="evenodd" fill-opacity="1" /><path clip-path="url(#clip800)" d="M 0 0 M155.218 167.505 L160.103 167.505 L160.103 173.385 L155.218 173.385 L155.218 167.505 Z" fill="#000000" fill-rule="evenodd" fill-opacity="1" /><path clip-path="url(#clip800)" d="M 0 0 M175.172 141.904 Q171.561 141.904 169.732 145.468 Q167.927 149.01 167.927 156.14 Q167.927 163.246 169.732 166.811 Q171.561 170.352 175.172 170.352 Q178.806 170.352 180.612 166.811 Q182.44 163.246 182.44 156.14 Q182.44 149.01 180.612 145.468 Q178.806 141.904 175.172 141.904 M175.172 138.2 Q180.982 138.2 184.038 142.806 Q187.116 147.39 187.116 156.14 Q187.116 164.866 184.038 169.473 Q180.982 174.056 175.172 174.056 Q169.362 174.056 166.283 169.473 Q163.228 164.866 163.228 156.14 Q163.228 147.39 166.283 142.806 Q169.362 138.2 175.172 138.2 Z" fill="#000000" fill-rule="evenodd" fill-opacity="1" /><path clip-path="url(#clip800)" d="M 0 0 M202.186 141.904 Q198.575 141.904 196.746 145.468 Q194.94 149.01 194.94 156.14 Q194.94 163.246 196.746 166.811 Q198.575 170.352 202.186 170.352 Q205.82 170.352 207.625 166.811 Q209.454 163.246 209.454 156.14 Q209.454 149.01 207.625 145.468 Q205.82 141.904 202.186 141.904 M202.186 138.2 Q207.996 138.2 211.051 142.806 Q214.13 147.39 214.13 156.14 Q214.13 164.866 211.051 169.473 Q207.996 174.056 202.186 174.056 Q196.376 174.056 193.297 169.473 Q190.241 164.866 190.241 156.14 Q190.241 147.39 193.297 142.806 Q196.376 138.2 202.186 138.2 Z" fill="#000000" fill-rule="evenodd" fill-opacity="1" /><path clip-path="url(#clip800)" d="M 0 0 M1312.06 1520.4 L1299.17 1537.74 L1312.73 1556.04 L1305.82 1556.04 L1295.44 1542.04 L1285.07 1556.04 L1278.16 1556.04 L1292.01 1537.39 L1279.34 1520.4 L1286.24 1520.4 L1295.7 1533.1 L1305.15 1520.4 L1312.06 1520.4 Z" fill="#000000" fill-rule="evenodd" fill-opacity="1" /><path clip-path="url(#clip800)" d="M 0 0 M70.212 745.095 Q76.6732 745.095 80.3653 742.453 Q84.0256 739.779 84.0256 735.132 Q84.0256 730.485 80.3653 727.812 Q76.6732 725.138 70.212 725.138 Q63.7508 725.138 60.0905 727.812 Q56.3984 730.485 56.3984 735.132 Q56.3984 739.779 60.0905 742.453 Q63.7508 745.095 70.212 745.095 M82.657 725.138 Q85.8398 726.984 87.3994 729.817 Q88.9272 732.618 88.9272 736.565 Q88.9272 743.026 83.771 747.1 Q78.6147 751.142 70.212 751.142 Q61.8093 751.142 56.6531 747.1 Q51.4968 743.026 51.4968 736.565 Q51.4968 732.618 53.0564 729.817 Q54.5842 726.984 57.7671 725.138 L52.3562 725.138 L52.3562 719.282 L101.563 719.282 L101.563 725.138 L82.657 725.138 Z" fill="#000000" fill-rule="evenodd" fill-opacity="1" /><polyline clip-path="url(#clip802)" style="stroke:#009af9; stroke-width:4; stroke-opacity:1; fill:none" points="
  297.978,1316.93 300.669,1316.93 305.771,1316.93 310.872,1316.93 313.563,1316.93 316.255,1316.93 321.356,1316.93 326.458,1316.93 329.149,1316.93 
  331.84,1316.93 336.941,1316.93 342.043,1316.93 344.734,1316.93 347.425,1316.93 352.527,1316.93 357.628,1316.93 360.32,1316.93 
  363.011,1316.93 368.112,1316.93 373.214,1316.93 375.905,1316.93 378.596,1316.93 383.698,1316.93 388.799,1316.93 391.49,1316.93 
  394.181,1316.93 399.283,1316.93 404.385,1316.93 407.076,1316.93 409.767,1316.93 414.868,1316.93 419.97,1316.93 422.661,1316.93 
  425.352,1316.93 430.454,1316.93 435.555,1316.93 438.246,1316.93 440.938,1316.93 446.039,1316.93 451.141,1316.93 453.832,1316.93 
  456.523,1316.93 461.625,1316.93 466.726,1316.93 469.417,1316.93 472.108,1316.93 477.21,1316.93 482.311,1316.93 485.003,1316.93 
  487.694,1316.93 492.795,1316.93 497.897,1316.93 500.588,1316.93 503.279,1316.93 508.381,1316.93 513.482,1316.93 516.173,1316.93 
  518.865,1316.93 523.966,1316.93 529.068,1316.93 531.759,1316.93 534.45,1316.93 539.552,1316.93 544.653,1316.93 547.344,1316.93 
  550.035,1316.93 555.137,1316.93 560.238,1316.93 562.93,1316.93 565.621,1316.93 570.722,1316.93 575.824,1316.93 578.515,1316.93 
  581.206,1316.93 586.308,1316.93 591.409,1316.93 594.1,1316.93 596.792,1316.93 601.893,1316.93 606.995,1316.93 609.686,1316.93 
  612.377,1316.93 617.478,1316.93 622.58,1316.93 625.271,1316.93 627.962,1316.93 633.064,1316.93 638.165,1316.93 640.857,1316.93 
  643.548,1316.93 648.649,1316.93 653.751,1316.93 656.442,1316.93 659.133,1316.93 664.235,1316.93 669.336,1316.93 672.027,1316.93 
  674.719,1316.93 679.82,1316.93 684.922,1316.93 687.613,1316.93 690.304,1316.93 695.405,1316.93 700.507,1316.93 703.198,1316.93 
  705.889,1316.93 710.991,1316.93 716.092,1316.93 718.784,1316.93 721.475,1316.93 726.576,156.105 731.678,156.105 734.369,156.105 
  737.06,156.105 742.162,156.105 747.263,156.105 749.954,156.105 752.645,156.105 757.747,156.105 762.849,156.105 765.54,156.105 
  768.231,156.105 773.332,156.105 778.434,156.105 781.125,156.105 783.816,156.105 788.918,156.105 794.019,156.105 796.71,156.105 
  799.402,156.105 804.503,156.105 809.605,156.105 812.296,156.105 814.987,156.105 820.089,156.105 825.19,156.105 827.881,156.105 
  830.572,156.105 835.674,156.105 840.775,156.105 843.467,156.105 846.158,156.105 851.259,156.105 856.361,156.105 859.052,156.105 
  861.743,156.105 866.845,156.105 871.946,156.105 874.637,156.105 877.329,156.105 882.43,156.105 887.532,156.105 890.223,156.105 
  892.914,156.105 898.016,156.105 903.117,156.105 905.808,156.105 908.499,156.105 913.601,156.105 918.702,156.105 921.394,156.105 
  924.085,156.105 929.186,156.105 934.288,156.105 936.979,156.105 939.67,156.105 944.772,156.105 949.873,156.105 952.564,156.105 
  955.256,156.105 960.357,156.105 965.459,156.105 968.15,156.105 970.841,156.105 975.942,156.105 981.044,156.105 983.735,156.105 
  986.426,156.105 991.528,156.105 996.629,156.105 999.321,156.105 1002.01,156.105 1007.11,156.105 1012.21,1316.93 1014.91,1316.93 
  1017.6,1316.93 1022.7,1316.93 1027.8,1316.93 1030.49,1316.93 1033.18,1316.93 1038.28,1316.93 1043.39,1316.93 1046.08,1316.93 
  1048.77,1316.93 1053.87,1316.93 1058.97,1316.93 1061.66,1316.93 1064.35,1316.93 1069.45,1316.93 1074.56,1316.93 1077.25,1316.93 
  1079.94,1316.93 1085.04,1316.93 1090.14,1316.93 1092.83,1316.93 1095.52,1316.93 1100.63,1316.93 1105.73,1316.93 1108.42,1316.93 
  1111.11,1316.93 1116.21,1316.93 1121.31,1316.93 1124,1316.93 1126.69,1316.93 1131.8,1316.93 1136.9,1316.93 1139.59,1316.93 
  1142.28,1316.93 1147.38,1316.93 1152.48,1316.93 1155.17,1316.93 1157.87,1316.93 1162.97,1316.93 1168.07,1316.93 1170.76,1316.93 
  1173.45,1316.93 1178.55,1316.93 1183.65,1316.93 1186.35,1316.93 1189.04,1316.93 1194.14,1316.93 1199.24,1316.93 1201.93,1316.93 
  1204.62,1316.93 1209.72,1316.93 1214.82,1316.93 1217.52,1316.93 1220.21,1316.93 1225.31,1316.93 1230.41,1316.93 1233.1,1316.93 
  1235.79,1316.93 1240.89,1316.93 1246,1316.93 1248.69,1316.93 1251.38,1316.93 1256.48,1316.93 1261.58,1316.93 1264.27,1316.93 
  1266.96,1316.93 1272.06,1316.93 1277.17,1316.93 1279.86,1316.93 1282.55,1316.93 1287.65,1316.93 1292.75,1316.93 1295.44,1316.93 
  1298.13,1316.93 1303.24,1316.93 1308.34,1316.93 1311.03,1316.93 1313.72,1316.93 1318.82,1316.93 1323.92,1316.93 1326.61,1316.93 
  1329.3,1316.93 1334.41,1316.93 1339.51,1316.93 1342.2,1316.93 1344.89,1316.93 1349.99,1316.93 1355.09,1316.93 1357.78,1316.93 
  1360.48,1316.93 1365.58,1316.93 1370.68,1316.93 1373.37,1316.93 1376.06,1316.93 1381.16,1316.93 1386.26,1316.93 1388.96,1316.93 
  1391.65,1316.93 1396.75,1316.93 1401.85,1316.93 1404.54,1316.93 1407.23,1316.93 1412.33,1316.93 1417.43,1316.93 1420.13,1316.93 
  1422.82,1316.93 1427.92,1316.93 1433.02,1316.93 1435.71,1316.93 1438.4,1316.93 1443.5,1316.93 1448.61,1316.93 1451.3,1316.93 
  1453.99,1316.93 1459.09,1316.93 1464.19,1316.93 1466.88,1316.93 1469.57,1316.93 1474.67,1316.93 1479.78,1316.93 1482.47,1316.93 
  1485.16,1316.93 1490.26,1316.93 1495.36,1316.93 1498.05,1316.93 1500.74,1316.93 1505.85,1316.93 1510.95,1316.93 1513.64,1316.93 
  1516.33,1316.93 1521.43,1316.93 1526.53,1316.93 1529.22,1316.93 1531.92,1316.93 1537.02,1316.93 1542.12,1316.93 1544.81,1316.93 
  1547.5,1316.93 1552.6,1316.93 1557.7,1316.93 1560.39,1316.93 1563.09,1316.93 1568.19,1316.93 1573.29,1316.93 1575.98,1316.93 
  1578.67,1316.93 1583.77,1316.93 1588.87,1316.93 1591.57,1316.93 1594.26,1316.93 1599.36,1316.93 1604.46,1316.93 1607.15,1316.93 
  1609.84,1316.93 1614.94,1316.93 1620.05,1316.93 1622.74,1316.93 1625.43,1316.93 1630.53,1316.93 1635.63,1316.93 1638.32,1316.93 
  1641.01,1316.93 1646.11,1316.93 1651.22,1316.93 1653.91,1316.93 1656.6,1316.93 1661.7,1316.93 1666.8,1316.93 1669.49,1316.93 
  1672.18,1316.93 1677.29,1316.93 1682.39,1316.93 1685.08,1316.93 1687.77,1316.93 1692.87,1316.93 1697.97,1316.93 1700.66,1316.93 
  1703.35,1316.93 1708.46,1316.93 1713.56,1316.93 1716.25,1316.93 1718.94,1316.93 1724.04,1316.93 1729.14,1316.93 1731.83,1316.93 
  1734.53,1316.93 1739.63,1316.93 1744.73,1316.93 1747.42,1316.93 1750.11,1316.93 1755.21,1316.93 1760.31,1316.93 1763,1316.93 
  1765.7,1316.93 1770.8,1316.93 1775.9,1316.93 1778.59,1316.93 1781.28,1316.93 1786.38,1316.93 1791.48,1316.93 1794.18,1316.93 
  1796.87,1316.93 1801.97,1316.93 1807.07,1316.93 1809.76,1316.93 1812.45,1316.93 1817.55,1316.93 1822.66,1316.93 1825.35,1316.93 
  1828.04,1316.93 1833.14,1316.93 1838.24,1316.93 1840.93,1316.93 1843.62,1316.93 1848.72,1316.93 1853.83,1316.93 1856.52,1316.93 
  1859.21,1316.93 1864.31,1316.93 1869.41,1316.93 1872.1,1316.93 1874.79,1316.93 1879.9,1316.93 1885,1316.93 1887.69,1316.93 
  1890.38,1316.93 1895.48,1316.93 1900.58,1316.93 1903.27,1316.93 1905.96,1316.93 1911.07,1316.93 1916.17,1316.93 1918.86,1316.93 
  1921.55,1316.93 1926.65,1316.93 1931.75,1316.93 1934.44,1316.93 1937.14,1316.93 1942.24,1316.93 1947.34,1316.93 1950.03,1316.93 
  1952.72,1316.93 1957.82,1316.93 1962.92,1316.93 1965.61,1316.93 1968.31,1316.93 1973.41,1316.93 1978.51,1316.93 1981.2,1316.93 
  1983.89,1316.93 1988.99,1316.93 1994.09,1316.93 1996.79,1316.93 1999.48,1316.93 2004.58,1316.93 2009.68,1316.93 2012.37,1316.93 
  2015.06,1316.93 2020.16,1316.93 2025.27,1316.93 2027.96,1316.93 2030.65,1316.93 2035.75,1316.93 2040.85,1316.93 2043.54,1316.93 
  2046.23,1316.93 2051.33,1316.93 2056.44,1316.93 2059.13,1316.93 2061.82,1316.93 2066.92,1316.93 2072.02,1316.93 2074.71,1316.93 
  2077.4,1316.93 2082.51,1316.93 2087.61,1316.93 2090.3,1316.93 2092.99,1316.93 2098.09,1316.93 2103.19,1316.93 2105.88,1316.93 
  2108.57,1316.93 2113.68,1316.93 2118.78,1316.93 2121.47,1316.93 2124.16,1316.93 2129.26,1316.93 2134.36,1316.93 2137.05,1316.93 
  2139.75,1316.93 2144.85,1316.93 2149.95,1316.93 2152.64,1316.93 2155.33,1316.93 2160.43,1316.93 2165.53,1316.93 2168.22,1316.93 
  2170.92,1316.93 2176.02,1316.93 2181.12,1316.93 2183.81,1316.93 2186.5,1316.93 2191.6,1316.93 2196.7,1316.93 2199.4,1316.93 
  2202.09,1316.93 2207.19,1316.93 2212.29,1316.93 2214.98,1316.93 2217.67,1316.93 2222.77,1316.93 2227.88,1316.93 2230.57,1316.93 
  2233.26,1316.93 2238.36,1316.93 2243.46,1316.93 2246.15,1316.93 2248.84,1316.93 2253.94,1316.93 2259.05,1316.93 2261.74,1316.93 
  2264.43,1316.93 2269.53,1316.93 2274.63,1316.93 2277.32,1316.93 2280.01,1316.93 2285.12,1316.93 2290.22,1316.93 2292.91,1316.93 
  
  "/>
<polyline clip-path="url(#clip802)" style="stroke:#e26f46; stroke-width:4; stroke-opacity:1; fill:none" points="
  297.978,1316.93 300.669,1316.93 305.771,1316.93 310.872,1316.93 313.563,1316.93 316.255,1316.93 321.356,1316.93 326.458,1316.93 329.149,1316.93 
  331.84,1316.93 336.941,1316.93 342.043,1316.93 344.734,1316.93 347.425,1316.93 352.527,1316.93 357.628,1316.93 360.32,1316.93 
  363.011,1316.93 368.112,1316.93 373.214,1316.93 375.905,1316.93 378.596,1316.93 383.698,1316.93 388.799,1316.93 391.49,1316.93 
  394.181,1316.93 399.283,1316.93 404.385,1316.93 407.076,1316.93 409.767,1316.93 414.868,1316.93 419.97,1316.93 422.661,1316.93 
  425.352,1316.93 430.454,1316.93 435.555,1316.93 438.246,1316.93 440.938,1316.93 446.039,1316.93 451.141,1316.93 453.832,1316.93 
  456.523,1316.93 461.625,1316.93 466.726,1316.93 469.417,1316.93 472.108,1316.93 477.21,1316.93 482.311,1316.93 485.003,1316.93 
  487.694,1316.93 492.795,1316.93 497.897,1316.93 500.588,1316.93 503.279,1316.93 508.381,1316.93 513.482,1316.93 516.173,1316.93 
  518.865,1316.93 523.966,1316.93 529.068,1316.93 531.759,1316.93 534.45,1316.93 539.552,1316.93 544.653,1316.93 547.344,1316.93 
  550.035,1316.93 555.137,1316.93 560.238,1316.93 562.93,1316.93 565.621,1316.93 570.722,1316.93 575.824,1316.93 578.515,1316.93 
  581.206,1316.93 586.308,1316.93 591.409,1316.93 594.1,1316.93 596.792,1316.93 601.893,1316.93 606.995,1316.93 609.686,1316.93 
  612.377,1316.93 617.478,1316.93 622.58,1316.93 625.271,1316.93 627.962,1316.93 633.064,1316.93 638.165,1316.93 640.857,1316.93 
  643.548,1316.93 648.649,1316.93 653.751,1316.93 656.442,1316.93 659.133,1316.93 664.235,1316.93 669.336,1316.93 672.027,1316.93 
  674.719,1316.93 679.82,1316.93 684.922,1316.93 687.613,1316.93 690.304,1316.93 695.405,1316.93 700.507,1316.93 703.198,1316.93 
  705.889,1316.93 710.991,1316.93 716.092,1316.93 718.784,1316.93 721.475,1316.93 726.576,1316.93 731.678,1316.93 734.369,1316.93 
  737.06,1316.93 742.162,1316.93 747.263,1316.93 749.954,1316.93 752.645,1316.93 757.747,1316.93 762.849,1316.93 765.54,1316.93 
  768.231,1316.93 773.332,1316.93 778.434,1316.93 781.125,1316.93 783.816,1316.93 788.918,1316.93 794.019,1316.93 796.71,1316.93 
  799.402,1316.93 804.503,1316.93 809.605,1316.93 812.296,1316.93 812.296,1316.93 814.987,1316.93 820.089,1316.93 825.19,1316.93 827.881,1316.93 
  827.881,1316.93 830.572,1316.93 835.674,1316.93 840.775,1316.93 843.467,1316.93 843.467,1316.93 846.158,1316.93 851.259,1316.93 856.361,1316.93 859.052,1316.93 
  859.052,1316.93 861.743,1316.93 866.845,1316.93 871.946,1316.93 874.637,1316.93 874.637,1316.93 877.329,1316.93 882.43,1316.93 887.532,1316.93 890.223,1316.93 
  890.223,1316.93 892.914,1316.93 898.016,1316.93 903.117,1316.93 905.808,1316.93 905.808,1316.93 908.499,1316.93 913.601,1316.93 918.702,1316.93 921.394,1316.93 
  921.394,1316.93 924.085,1316.93 929.186,1316.93 934.288,1316.93 936.979,1316.93 936.979,1316.93 939.67,1316.93 944.772,1316.93 949.873,1316.93 952.564,1316.93 
  952.564,1316.93 955.256,1316.93 960.357,1316.93 965.459,1316.93 968.15,1316.93 968.15,1316.93 970.841,1316.93 975.942,1316.93 981.044,1316.93 983.735,1316.93 
  983.735,1316.93 986.426,1316.93 991.528,1316.93 996.629,1316.93 999.321,1316.93 999.321,1316.93 1002.01,1316.93 1007.11,1316.93 1012.21,1316.93 1014.91,1316.93 
  1014.91,1316.93 1017.6,1316.93 1022.7,1316.93 1027.8,1316.93 1030.49,1316.93 1030.49,1316.93 1033.18,1316.93 1038.28,1316.93 1043.39,1316.93 1046.08,1316.93 
  1046.08,1316.93 1048.77,1316.93 1053.87,1316.93 1058.97,1316.93 1061.66,1316.93 1061.66,1316.93 1064.35,1316.93 1069.45,1316.93 1074.56,1316.93 1077.25,1316.93 
  1077.25,1316.93 1079.94,1316.93 1085.04,1316.93 1090.14,1316.94 1092.83,1316.94 1092.83,1316.94 1095.52,1316.94 1100.63,1316.94 1105.73,1316.93 1108.42,1316.93 
  1108.42,1316.93 1111.11,1316.92 1116.21,1316.91 1121.31,1316.89 1124,1316.88 1124,1316.87 1126.69,1316.87 1131.8,1316.87 1136.9,1316.89 1139.59,1316.91 
  1139.59,1316.9 1142.28,1316.95 1147.38,1317.06 1152.48,1317.2 1155.17,1317.28 1155.17,1317.3 1157.87,1317.39 1162.97,1317.47 1168.07,1317.47 1170.76,1317.44 
  1170.76,1317.53 1173.45,1317.32 1178.55,1316.75 1183.65,1315.94 1186.35,1315.41 1186.35,1315.42 1189.04,1314.7 1194.14,1313.42 1199.24,1312.26 1201.93,1311.68 
  1201.93,1311.27 1204.62,1311.28 1209.72,1312.27 1214.82,1314.57 1217.52,1316.31 1217.52,1315.61 1220.21,1319.1 1225.31,1327 1230.41,1336.58 1233.1,1342.31 
  1233.1,1342.72 1235.79,1349.06 1240.89,1359.65 1246,1368.33 1248.69,1372.14 1248.69,1375.41 1251.38,1373.91 1256.48,1363.96 1261.58,1344.72 1264.27,1330.83 
  1264.27,1336.38 1266.96,1309.82 1272.06,1249.08 1277.17,1174.72 1279.86,1130.02 1279.86,1133.94 1282.55,1076.56 1287.65,961.957 1292.75,839.724 1295.44,772.173 
  1295.44,770.832 1298.13,701.565 1303.24,574.546 1308.34,453.139 1311.03,391.355 1311.03,385.778 1313.72,335.399 1318.82,250.671 1323.92,180.037 1326.61,148.451 
  1326.61,143.324 1329.3,126.368 1334.41,102.674 1339.51,90.03 1342.2,87.807 1342.2,86.1857 1344.89,91.2454 1349.99,102.708 1355.09,116.614 1357.78,124.934 
  1357.78,125.772 1360.48,133.332 1365.58,145.85 1370.68,155.995 1373.37,160.392 1373.37,161.25 1376.06,162.952 1381.16,164.862 1386.26,165.054 1388.96,164.463 
  1388.96,164.509 1391.65,163.161 1396.75,160.687 1401.85,158.323 1404.54,157.12 1404.54,156.915 1407.23,156.22 1412.33,155.244 1417.43,154.714 1420.13,154.614 
  1420.13,154.58 1422.82,154.741 1427.92,155.058 1433.02,155.389 1435.71,155.569 1435.71,155.609 1438.4,155.685 1443.5,155.777 1448.61,155.803 1451.3,155.79 
  1451.3,155.736 1453.99,155.756 1459.09,155.945 1464.19,156.33 1466.88,156.611 1466.88,156.534 1469.57,157.071 1474.67,158.195 1479.78,159.455 1482.47,160.175 
  1482.47,160.405 1485.16,160.945 1490.26,161.336 1495.36,160.899 1498.05,160.334 1498.05,161.018 1500.74,159.038 1505.85,153.872 1510.95,146.857 1513.64,142.413 
  1513.64,142.628 1516.33,136.673 1521.43,125.423 1526.53,114.219 1529.22,108.329 1529.22,106.19 1531.92,103.006 1537.02,101.969 1542.12,107.473 1544.81,113.01 
  1544.81,107.97 1547.5,123.925 1552.6,164.11 1557.7,217.3 1560.39,250.596 1560.39,245.555 1563.09,292.836 1568.19,390.89 1573.29,499.966 1575.98,561.943 
  1575.98,561.241 1578.67,629.762 1583.77,759.061 1588.87,887.584 1591.57,955.069 1591.57,959.582 1594.26,1019.69 1599.36,1124.22 1604.46,1216.44 1607.15,1260.13 
  1607.15,1265.96 1609.84,1294.67 1614.94,1338.93 1620.05,1369.89 1622.74,1380.88 1622.74,1383.82 1625.43,1384.24 1630.53,1380.86 1635.63,1372.02 1638.32,1365.16 
  1638.32,1364.91 1641.01,1356.49 1646.11,1341.62 1651.22,1328.13 1653.91,1321.58 1653.91,1320.53 1656.6,1316.69 1661.7,1311.2 1666.8,1308.05 1669.49,1307.33 
  1669.49,1307.02 1672.18,1307.85 1677.29,1309.75 1682.39,1312.08 1685.08,1313.48 1685.08,1313.67 1687.77,1314.8 1692.87,1316.56 1697.97,1317.82 1700.66,1318.29 
  1700.66,1318.4 1703.35,1318.42 1708.46,1318.31 1713.56,1318.01 1716.25,1317.78 1716.25,1317.75 1718.94,1317.51 1724.04,1317.14 1729.14,1316.85 1731.83,1316.73 
  1731.83,1316.71 1734.53,1316.69 1739.63,1316.69 1744.73,1316.73 1747.42,1316.77 1747.42,1316.78 1750.11,1316.82 1755.21,1316.9 1760.31,1316.95 1763,1316.97 
  1763,1316.97 1765.7,1316.98 1770.8,1316.97 1775.9,1316.96 1778.59,1316.95 1778.59,1316.95 1781.28,1316.94 1786.38,1316.93 1791.48,1316.92 1794.18,1316.92 
  1794.18,1316.92 1796.87,1316.92 1801.97,1316.92 1807.07,1316.93 1809.76,1316.93 1809.76,1316.93 1812.45,1316.93 1817.55,1316.93 1822.66,1316.93 1825.35,1316.93 
  1825.35,1316.93 1828.04,1316.93 1833.14,1316.93 1838.24,1316.93 1840.93,1316.93 1840.93,1316.93 1843.62,1316.93 1848.72,1316.93 1853.83,1316.93 1856.52,1316.93 
  1856.52,1316.93 1859.21,1316.93 1864.31,1316.93 1869.41,1316.93 1872.1,1316.93 1872.1,1316.93 1874.79,1316.93 1879.9,1316.93 1885,1316.93 1887.69,1316.93 
  1887.69,1316.93 1890.38,1316.93 1895.48,1316.93 1900.58,1316.93 1903.27,1316.93 1903.27,1316.93 1905.96,1316.93 1911.07,1316.93 1916.17,1316.93 1918.86,1316.93 
  1918.86,1316.93 1921.55,1316.93 1926.65,1316.93 1931.75,1316.93 1934.44,1316.93 1934.44,1316.93 1937.14,1316.93 1942.24,1316.93 1947.34,1316.93 1950.03,1316.93 
  1950.03,1316.93 1952.72,1316.93 1957.82,1316.93 1962.92,1316.93 1965.61,1316.93 1965.61,1316.93 1968.31,1316.93 1973.41,1316.93 1978.51,1316.93 1981.2,1316.93 
  1981.2,1316.93 1983.89,1316.93 1988.99,1316.93 1994.09,1316.93 1996.79,1316.93 1996.79,1316.93 1999.48,1316.93 2004.58,1316.93 2009.68,1316.93 2012.37,1316.93 
  2012.37,1316.93 2015.06,1316.93 2020.16,1316.93 2025.27,1316.93 2027.96,1316.93 2027.96,1316.93 2030.65,1316.93 2035.75,1316.93 2040.85,1316.93 2043.54,1316.93 
  2043.54,1316.93 2046.23,1316.93 2051.33,1316.93 2056.44,1316.93 2059.13,1316.93 2059.13,1316.93 2061.82,1316.93 2066.92,1316.93 2072.02,1316.93 2074.71,1316.93 
  2074.71,1316.93 2077.4,1316.93 2082.51,1316.93 2087.61,1316.93 2090.3,1316.93 2090.3,1316.93 2092.99,1316.93 2098.09,1316.93 2103.19,1316.93 2105.88,1316.93 
  2105.88,1316.93 2108.57,1316.93 2113.68,1316.93 2118.78,1316.93 2121.47,1316.93 2124.16,1316.93 2129.26,1316.93 2134.36,1316.93 2137.05,1316.93 
  2139.75,1316.93 2144.85,1316.93 2149.95,1316.93 2152.64,1316.93 2155.33,1316.93 2160.43,1316.93 2165.53,1316.93 2168.22,1316.93 
  2170.92,1316.93 2176.02,1316.93 2181.12,1316.93 2183.81,1316.93 2186.5,1316.93 2191.6,1316.93 2196.7,1316.93 2199.4,1316.93 
  2202.09,1316.93 2207.19,1316.93 2212.29,1316.93 2214.98,1316.93 2217.67,1316.93 2222.77,1316.93 2227.88,1316.93 2230.57,1316.93 
  2233.26,1316.93 2238.36,1316.93 2243.46,1316.93 2246.15,1316.93 2248.84,1316.93 2253.94,1316.93 2259.05,1316.93 2261.74,1316.93 
  2264.43,1316.93 2269.53,1316.93 2274.63,1316.93 2277.32,1316.93 2280.01,1316.93 2285.12,1316.93 2290.22,1316.93 2292.91,1316.93 
  
  "/>
<path clip-path="url(#clip800)" d="
M1802.38 274.549 L2282.27 274.549 L2282.27 93.1086 L1802.38 93.1086  Z
  " fill="#ffffff" fill-rule="evenodd" fill-opacity="1"/>
<polyline clip-path="url(#clip800)" style="stroke:#000000; stroke-width:4; stroke-opacity:1; fill:none" points="
  1802.38,274.549 2282.27,274.549 2282.27,93.1086 1802.38,93.1086 1802.38,274.549 
  "/>
<polyline clip-path="url(#clip800)" style="stroke:#009af9; stroke-width:4; stroke-opacity:1; fill:none" points="
  1825.88,153.589 1966.85,153.589 
  "/>
<path clip-path="url(#clip800)" d="M 0 0 M1994.75 157.929 Q1994.75 162.628 1996.67 165.313 Q1998.61 167.975 2001.99 167.975 Q2005.37 167.975 2007.31 165.313 Q2009.26 162.628 2009.26 157.929 Q2009.26 153.23 2007.31 150.568 Q2005.37 147.883 2001.99 147.883 Q1998.61 147.883 1996.67 150.568 Q1994.75 153.23 1994.75 157.929 M2009.26 166.98 Q2007.92 169.295 2005.86 170.429 Q2003.82 171.54 2000.95 171.54 Q1996.25 171.54 1993.29 167.79 Q1990.35 164.04 1990.35 157.929 Q1990.35 151.818 1993.29 148.068 Q1996.25 144.318 2000.95 144.318 Q2003.82 144.318 2005.86 145.452 Q2007.92 146.563 2009.26 148.878 L2009.26 144.943 L2013.52 144.943 L2013.52 180.73 L2009.26 180.73 L2009.26 166.98 Z" fill="#000000" fill-rule="evenodd" fill-opacity="1" /><path clip-path="url(#clip800)" d="M 0 0 M2019.07 164.989 L2023.96 164.989 L2023.96 168.97 L2020.16 176.378 L2017.18 176.378 L2019.07 168.97 L2019.07 164.989 Z" fill="#000000" fill-rule="evenodd" fill-opacity="1" /><path clip-path="url(#clip800)" d="M 0 0 M2047.71 137.582 L2047.71 144.943 L2056.48 144.943 L2056.48 148.253 L2047.71 148.253 L2047.71 162.327 Q2047.71 165.498 2048.56 166.401 Q2049.44 167.304 2052.11 167.304 L2056.48 167.304 L2056.48 170.869 L2052.11 170.869 Q2047.18 170.869 2045.3 169.04 Q2043.43 167.188 2043.43 162.327 L2043.43 148.253 L2040.3 148.253 L2040.3 144.943 L2043.43 144.943 L2043.43 137.582 L2047.71 137.582 Z" fill="#000000" fill-rule="evenodd" fill-opacity="1" /><path clip-path="url(#clip800)" d="M 0 0 M2061.5 149.341 L2091.18 149.341 L2091.18 153.23 L2061.5 153.23 L2061.5 149.341 M2061.5 158.785 L2091.18 158.785 L2091.18 162.721 L2061.5 162.721 L2061.5 158.785 Z" fill="#000000" fill-rule="evenodd" fill-opacity="1" /><path clip-path="url(#clip800)" d="M 0 0 M2106.25 139.387 Q2102.64 139.387 2100.81 142.952 Q2099 146.494 2099 153.623 Q2099 160.73 2100.81 164.295 Q2102.64 167.836 2106.25 167.836 Q2109.88 167.836 2111.69 164.295 Q2113.52 160.73 2113.52 153.623 Q2113.52 146.494 2111.69 142.952 Q2109.88 139.387 2106.25 139.387 M2106.25 135.684 Q2112.06 135.684 2115.12 140.29 Q2118.19 144.873 2118.19 153.623 Q2118.19 162.35 2115.12 166.957 Q2112.06 171.54 2106.25 171.54 Q2100.44 171.54 2097.36 166.957 Q2094.31 162.35 2094.31 153.623 Q2094.31 144.873 2097.36 140.29 Q2100.44 135.684 2106.25 135.684 Z" fill="#000000" fill-rule="evenodd" fill-opacity="1" /><path clip-path="url(#clip800)" d="M 0 0 M2123.26 164.989 L2128.15 164.989 L2128.15 170.869 L2123.26 170.869 L2123.26 164.989 Z" fill="#000000" fill-rule="evenodd" fill-opacity="1" /><path clip-path="url(#clip800)" d="M 0 0 M2143.22 139.387 Q2139.61 139.387 2137.78 142.952 Q2135.97 146.494 2135.97 153.623 Q2135.97 160.73 2137.78 164.295 Q2139.61 167.836 2143.22 167.836 Q2146.85 167.836 2148.66 164.295 Q2150.49 160.73 2150.49 153.623 Q2150.49 146.494 2148.66 142.952 Q2146.85 139.387 2143.22 139.387 M2143.22 135.684 Q2149.03 135.684 2152.08 140.29 Q2155.16 144.873 2155.16 153.623 Q2155.16 162.35 2152.08 166.957 Q2149.03 171.54 2143.22 171.54 Q2137.41 171.54 2134.33 166.957 Q2131.27 162.35 2131.27 153.623 Q2131.27 144.873 2134.33 140.29 Q2137.41 135.684 2143.22 135.684 Z" fill="#000000" fill-rule="evenodd" fill-opacity="1" /><polyline clip-path="url(#clip800)" style="stroke:#e26f46; stroke-width:4; stroke-opacity:1; fill:none" points="
  1825.88,214.069 1966.85,214.069 
  "/>
<path clip-path="url(#clip800)" d="M 0 0 M1994.75 218.409 Q1994.75 223.108 1996.67 225.793 Q1998.61 228.455 2001.99 228.455 Q2005.37 228.455 2007.31 225.793 Q2009.26 223.108 2009.26 218.409 Q2009.26 213.71 2007.31 211.048 Q2005.37 208.363 2001.99 208.363 Q1998.61 208.363 1996.67 211.048 Q1994.75 213.71 1994.75 218.409 M2009.26 227.46 Q2007.92 229.775 2005.86 230.909 Q2003.82 232.02 2000.95 232.02 Q1996.25 232.02 1993.29 228.27 Q1990.35 224.52 1990.35 218.409 Q1990.35 212.298 1993.29 208.548 Q1996.25 204.798 2000.95 204.798 Q2003.82 204.798 2005.86 205.932 Q2007.92 207.043 2009.26 209.358 L2009.26 205.423 L2013.52 205.423 L2013.52 241.21 L2009.26 241.21 L2009.26 227.46 Z" fill="#000000" fill-rule="evenodd" fill-opacity="1" /><path clip-path="url(#clip800)" d="M 0 0 M2019.07 225.469 L2023.96 225.469 L2023.96 229.45 L2020.16 236.858 L2017.18 236.858 L2019.07 229.45 L2019.07 225.469 Z" fill="#000000" fill-rule="evenodd" fill-opacity="1" /><path clip-path="url(#clip800)" d="M 0 0 M2047.71 198.062 L2047.71 205.423 L2056.48 205.423 L2056.48 208.733 L2047.71 208.733 L2047.71 222.807 Q2047.71 225.978 2048.56 226.881 Q2049.44 227.784 2052.11 227.784 L2056.48 227.784 L2056.48 231.349 L2052.11 231.349 Q2047.18 231.349 2045.3 229.52 Q2043.43 227.668 2043.43 222.807 L2043.43 208.733 L2040.3 208.733 L2040.3 205.423 L2043.43 205.423 L2043.43 198.062 L2047.71 198.062 Z" fill="#000000" fill-rule="evenodd" fill-opacity="1" /><path clip-path="url(#clip800)" d="M 0 0 M2061.5 209.821 L2091.18 209.821 L2091.18 213.71 L2061.5 213.71 L2061.5 209.821 M2061.5 219.265 L2091.18 219.265 L2091.18 223.201 L2061.5 223.201 L2061.5 219.265 Z" fill="#000000" fill-rule="evenodd" fill-opacity="1" /><path clip-path="url(#clip800)" d="M 0 0 M2109.1 200.863 L2097.29 219.312 L2109.1 219.312 L2109.1 200.863 M2107.87 196.789 L2113.75 196.789 L2113.75 219.312 L2118.68 219.312 L2118.68 223.201 L2113.75 223.201 L2113.75 231.349 L2109.1 231.349 L2109.1 223.201 L2093.5 223.201 L2093.5 218.687 L2107.87 196.789 Z" fill="#000000" fill-rule="evenodd" fill-opacity="1" /><path clip-path="url(#clip800)" d="M 0 0 M2123.8 196.789 L2142.15 196.789 L2142.15 200.724 L2128.08 200.724 L2128.08 209.196 Q2129.1 208.849 2130.12 208.687 Q2131.13 208.502 2132.15 208.502 Q2137.94 208.502 2141.32 211.673 Q2144.7 214.844 2144.7 220.261 Q2144.7 225.839 2141.23 228.941 Q2137.75 232.02 2131.43 232.02 Q2129.26 232.02 2126.99 231.65 Q2124.74 231.279 2122.34 230.538 L2122.34 225.839 Q2124.42 226.974 2126.64 227.529 Q2128.87 228.085 2131.34 228.085 Q2135.35 228.085 2137.68 225.978 Q2140.02 223.872 2140.02 220.261 Q2140.02 216.65 2137.68 214.543 Q2135.35 212.437 2131.34 212.437 Q2129.47 212.437 2127.59 212.853 Q2125.74 213.27 2123.8 214.15 L2123.8 196.789 Z" fill="#000000" fill-rule="evenodd" fill-opacity="1" /><path clip-path="url(#clip800)" d="M 0 0 M2159.77 199.867 Q2156.16 199.867 2154.33 203.432 Q2152.52 206.974 2152.52 214.103 Q2152.52 221.21 2154.33 224.775 Q2156.16 228.316 2159.77 228.316 Q2163.4 228.316 2165.21 224.775 Q2167.04 221.21 2167.04 214.103 Q2167.04 206.974 2165.21 203.432 Q2163.4 199.867 2159.77 199.867 M2159.77 196.164 Q2165.58 196.164 2168.63 200.77 Q2171.71 205.353 2171.71 214.103 Q2171.71 222.83 2168.63 227.437 Q2165.58 232.02 2159.77 232.02 Q2153.96 232.02 2150.88 227.437 Q2147.82 222.83 2147.82 214.103 Q2147.82 205.353 2150.88 200.77 Q2153.96 196.164 2159.77 196.164 Z" fill="#000000" fill-rule="evenodd" fill-opacity="1" /><path clip-path="url(#clip800)" d="M 0 0 M2176.78 225.469 L2181.67 225.469 L2181.67 231.349 L2176.78 231.349 L2176.78 225.469 Z" fill="#000000" fill-rule="evenodd" fill-opacity="1" /><path clip-path="url(#clip800)" d="M 0 0 M2199.58 200.863 L2187.78 219.312 L2199.58 219.312 L2199.58 200.863 M2198.36 196.789 L2204.24 196.789 L2204.24 219.312 L2209.17 219.312 L2209.17 223.201 L2204.24 223.201 L2204.24 231.349 L2199.58 231.349 L2199.58 223.201 L2183.98 223.201 L2183.98 218.687 L2198.36 196.789 Z" fill="#000000" fill-rule="evenodd" fill-opacity="1" /><path clip-path="url(#clip800)" d="M 0 0 M2213.05 196.789 L2235.28 196.789 L2235.28 198.779 L2222.73 231.349 L2217.85 231.349 L2229.65 200.724 L2213.05 200.724 L2213.05 196.789 Z" fill="#000000" fill-rule="evenodd" fill-opacity="1" /></svg>
