<?xml version="1.0" encoding="utf-8"?>
<svg xmlns="http://www.w3.org/2000/svg" xmlns:xlink="http://www.w3.org/1999/xlink" width="600" height="400" viewBox="0 0 2400 1600">
<defs>
  <clipPath id="clip570">
    <rect x="0" y="0" width="2400" height="1600"/>
  </clipPath>
</defs>
<path clip-path="url(#clip570)" d="
M0 1600 L2400 1600 L2400 0 L0 0  Z
  " fill="#ffffff" fill-rule="evenodd" fill-opacity="1"/>
<defs>
  <clipPath id="clip571">
    <rect x="480" y="0" width="1681" height="1600"/>
  </clipPath>
</defs>
<path clip-path="url(#clip570)" d="
M175.445 1423.18 L2352.76 1423.18 L2352.76 47.2441 L175.445 47.2441  Z
  " fill="#ffffff" fill-rule="evenodd" fill-opacity="1"/>
<defs>
  <clipPath id="clip572">
    <rect x="175" y="47" width="2178" height="1377"/>
  </clipPath>
</defs>
<polyline clip-path="url(#clip572)" style="stroke:#000000; stroke-width:2; stroke-opacity:0.1; fill:none" points="
  237.063,1423.18 237.063,47.2441 
  "/>
<polyline clip-path="url(#clip572)" style="stroke:#000000; stroke-width:2; stroke-opacity:0.1; fill:none" points="
  647.877,1423.18 647.877,47.2441 
  "/>
<polyline clip-path="url(#clip572)" style="stroke:#000000; stroke-width:2; stroke-opacity:0.1; fill:none" points="
  1058.69,1423.18 1058.69,47.2441 
  "/>
<polyline clip-path="url(#clip572)" style="stroke:#000000; stroke-width:2; stroke-opacity:0.1; fill:none" points="
  1469.51,1423.18 1469.51,47.2441 
  "/>
<polyline clip-path="url(#clip572)" style="stroke:#000000; stroke-width:2; stroke-opacity:0.1; fill:none" points="
  1880.32,1423.18 1880.32,47.2441 
  "/>
<polyline clip-path="url(#clip572)" style="stroke:#000000; stroke-width:2; stroke-opacity:0.1; fill:none" points="
  2291.13,1423.18 2291.13,47.2441 
  "/>
<polyline clip-path="url(#clip570)" style="stroke:#000000; stroke-width:4; stroke-opacity:1; fill:none" points="
  175.445,1423.18 2352.76,1423.18 
  "/>
<polyline clip-path="url(#clip570)" style="stroke:#000000; stroke-width:4; stroke-opacity:1; fill:none" points="
  237.063,1423.18 237.063,1406.67 
  "/>
<polyline clip-path="url(#clip570)" style="stroke:#000000; stroke-width:4; stroke-opacity:1; fill:none" points="
  647.877,1423.18 647.877,1406.67 
  "/>
<polyline clip-path="url(#clip570)" style="stroke:#000000; stroke-width:4; stroke-opacity:1; fill:none" points="
  1058.69,1423.18 1058.69,1406.67 
  "/>
<polyline clip-path="url(#clip570)" style="stroke:#000000; stroke-width:4; stroke-opacity:1; fill:none" points="
  1469.51,1423.18 1469.51,1406.67 
  "/>
<polyline clip-path="url(#clip570)" style="stroke:#000000; stroke-width:4; stroke-opacity:1; fill:none" points="
  1880.32,1423.18 1880.32,1406.67 
  "/>
<polyline clip-path="url(#clip570)" style="stroke:#000000; stroke-width:4; stroke-opacity:1; fill:none" points="
  2291.13,1423.18 2291.13,1406.67 
  "/>
<path clip-path="url(#clip570)" d="M 0 0 M237.063 1452.37 Q233.452 1452.37 231.623 1455.94 Q229.818 1459.48 229.818 1466.61 Q229.818 1473.71 231.623 1477.28 Q233.452 1480.82 237.063 1480.82 Q240.697 1480.82 242.503 1477.28 Q244.332 1473.71 244.332 1466.61 Q244.332 1459.48 242.503 1455.94 Q240.697 1452.37 237.063 1452.37 M237.063 1448.67 Q242.873 1448.67 245.929 1453.27 Q249.007 1457.86 249.007 1466.61 Q249.007 1475.33 245.929 1479.94 Q242.873 1484.52 237.063 1484.52 Q231.253 1484.52 228.174 1479.94 Q225.119 1475.33 225.119 1466.61 Q225.119 1457.86 228.174 1453.27 Q231.253 1448.67 237.063 1448.67 Z" fill="#000000" fill-rule="evenodd" fill-opacity="1" /><path clip-path="url(#clip570)" d="M 0 0 M638.259 1479.92 L645.898 1479.92 L645.898 1453.55 L637.588 1455.22 L637.588 1450.96 L645.852 1449.29 L650.528 1449.29 L650.528 1479.92 L658.167 1479.92 L658.167 1483.85 L638.259 1483.85 L638.259 1479.92 Z" fill="#000000" fill-rule="evenodd" fill-opacity="1" /><path clip-path="url(#clip570)" d="M 0 0 M1053.34 1479.92 L1069.66 1479.92 L1069.66 1483.85 L1047.72 1483.85 L1047.72 1479.92 Q1050.38 1477.16 1054.96 1472.53 Q1059.57 1467.88 1060.75 1466.54 Q1063 1464.01 1063.88 1462.28 Q1064.78 1460.52 1064.78 1458.83 Q1064.78 1456.07 1062.83 1454.34 Q1060.91 1452.6 1057.81 1452.6 Q1055.61 1452.6 1053.16 1453.37 Q1050.73 1454.13 1047.95 1455.68 L1047.95 1450.96 Q1050.77 1449.82 1053.23 1449.25 Q1055.68 1448.67 1057.72 1448.67 Q1063.09 1448.67 1066.28 1451.35 Q1069.48 1454.04 1069.48 1458.53 Q1069.48 1460.66 1068.67 1462.58 Q1067.88 1464.48 1065.77 1467.07 Q1065.2 1467.74 1062.09 1470.96 Q1058.99 1474.15 1053.34 1479.92 Z" fill="#000000" fill-rule="evenodd" fill-opacity="1" /><path clip-path="url(#clip570)" d="M 0 0 M1473.75 1465.22 Q1477.11 1465.94 1478.98 1468.2 Q1480.88 1470.47 1480.88 1473.81 Q1480.88 1478.92 1477.36 1481.72 Q1473.85 1484.52 1467.36 1484.52 Q1465.19 1484.52 1462.87 1484.08 Q1460.58 1483.67 1458.13 1482.81 L1458.13 1478.3 Q1460.07 1479.43 1462.39 1480.01 Q1464.7 1480.59 1467.23 1480.59 Q1471.62 1480.59 1473.92 1478.85 Q1476.23 1477.12 1476.23 1473.81 Q1476.23 1470.75 1474.08 1469.04 Q1471.95 1467.3 1468.13 1467.3 L1464.1 1467.3 L1464.1 1463.46 L1468.31 1463.46 Q1471.76 1463.46 1473.59 1462.09 Q1475.42 1460.7 1475.42 1458.11 Q1475.42 1455.45 1473.52 1454.04 Q1471.65 1452.6 1468.13 1452.6 Q1466.21 1452.6 1464.01 1453.02 Q1461.81 1453.44 1459.17 1454.31 L1459.17 1450.15 Q1461.83 1449.41 1464.15 1449.04 Q1466.48 1448.67 1468.54 1448.67 Q1473.87 1448.67 1476.97 1451.1 Q1480.07 1453.5 1480.07 1457.63 Q1480.07 1460.5 1478.43 1462.49 Q1476.79 1464.45 1473.75 1465.22 Z" fill="#000000" fill-rule="evenodd" fill-opacity="1" /><path clip-path="url(#clip570)" d="M 0 0 M1883.33 1453.37 L1871.52 1471.81 L1883.33 1471.81 L1883.33 1453.37 M1882.1 1449.29 L1887.98 1449.29 L1887.98 1471.81 L1892.91 1471.81 L1892.91 1475.7 L1887.98 1475.7 L1887.98 1483.85 L1883.33 1483.85 L1883.33 1475.7 L1867.73 1475.7 L1867.73 1471.19 L1882.1 1449.29 Z" fill="#000000" fill-rule="evenodd" fill-opacity="1" /><path clip-path="url(#clip570)" d="M 0 0 M2281.41 1449.29 L2299.77 1449.29 L2299.77 1453.23 L2285.69 1453.23 L2285.69 1461.7 Q2286.71 1461.35 2287.73 1461.19 Q2288.75 1461 2289.77 1461 Q2295.56 1461 2298.93 1464.18 Q2302.31 1467.35 2302.31 1472.76 Q2302.31 1478.34 2298.84 1481.44 Q2295.37 1484.52 2289.05 1484.52 Q2286.87 1484.52 2284.61 1484.15 Q2282.36 1483.78 2279.95 1483.04 L2279.95 1478.34 Q2282.04 1479.48 2284.26 1480.03 Q2286.48 1480.59 2288.96 1480.59 Q2292.96 1480.59 2295.3 1478.48 Q2297.64 1476.38 2297.64 1472.76 Q2297.64 1469.15 2295.3 1467.05 Q2292.96 1464.94 2288.96 1464.94 Q2287.08 1464.94 2285.21 1465.36 Q2283.36 1465.77 2281.41 1466.65 L2281.41 1449.29 Z" fill="#000000" fill-rule="evenodd" fill-opacity="1" /><path clip-path="url(#clip570)" d="M 0 0 M924.92 1550.25 Q924.92 1556.71 927.562 1560.4 Q930.235 1564.07 934.882 1564.07 Q939.529 1564.07 942.203 1560.4 Q944.876 1556.71 944.876 1550.25 Q944.876 1543.79 942.203 1540.13 Q939.529 1536.44 934.882 1536.44 Q930.235 1536.44 927.562 1540.13 Q924.92 1543.79 924.92 1550.25 M944.876 1562.7 Q943.03 1565.88 940.197 1567.44 Q937.397 1568.97 933.45 1568.97 Q926.989 1568.97 922.915 1563.81 Q918.872 1558.65 918.872 1550.25 Q918.872 1541.85 922.915 1536.69 Q926.989 1531.54 933.45 1531.54 Q937.397 1531.54 940.197 1533.1 Q943.03 1534.62 944.876 1537.81 L944.876 1532.4 L950.733 1532.4 L950.733 1581.6 L944.876 1581.6 L944.876 1562.7 Z" fill="#000000" fill-rule="evenodd" fill-opacity="1" /><path clip-path="url(#clip570)" d="M 0 0 M983.962 1578.87 L983.962 1583.42 L950.096 1583.42 L950.096 1578.87 L983.962 1578.87 Z" fill="#000000" fill-rule="evenodd" fill-opacity="1" /><path clip-path="url(#clip570)" d="M 0 0 M1010.76 1537.87 Q1009.77 1537.3 1008.6 1537.04 Q1007.45 1536.76 1006.05 1536.76 Q1001.09 1536.76 998.412 1540 Q995.77 1543.22 995.77 1549.27 L995.77 1568.04 L989.882 1568.04 L989.882 1532.4 L995.77 1532.4 L995.77 1537.93 Q997.616 1534.69 1000.58 1533.13 Q1003.54 1531.54 1007.77 1531.54 Q1008.37 1531.54 1009.11 1531.63 Q1009.84 1531.7 1010.73 1531.85 L1010.76 1537.87 Z" fill="#000000" fill-rule="evenodd" fill-opacity="1" /><path clip-path="url(#clip570)" d="M 0 0 M1033.1 1550.12 Q1026.01 1550.12 1023.27 1551.75 Q1020.53 1553.37 1020.53 1557.29 Q1020.53 1560.4 1022.57 1562.25 Q1024.64 1564.07 1028.17 1564.07 Q1033.04 1564.07 1035.97 1560.63 Q1038.93 1557.16 1038.93 1551.43 L1038.93 1550.12 L1033.1 1550.12 M1044.79 1547.71 L1044.79 1568.04 L1038.93 1568.04 L1038.93 1562.63 Q1036.92 1565.88 1033.93 1567.44 Q1030.94 1568.97 1026.61 1568.97 Q1021.14 1568.97 1017.89 1565.91 Q1014.68 1562.82 1014.68 1557.67 Q1014.68 1551.65 1018.69 1548.6 Q1022.73 1545.54 1030.72 1545.54 L1038.93 1545.54 L1038.93 1544.97 Q1038.93 1540.93 1036.26 1538.73 Q1033.61 1536.5 1028.81 1536.5 Q1025.75 1536.5 1022.86 1537.23 Q1019.96 1537.97 1017.29 1539.43 L1017.29 1534.02 Q1020.5 1532.78 1023.52 1532.17 Q1026.55 1531.54 1029.41 1531.54 Q1037.15 1531.54 1040.97 1535.55 Q1044.79 1539.56 1044.79 1547.71 Z" fill="#000000" fill-rule="evenodd" fill-opacity="1" /><path clip-path="url(#clip570)" d="M 0 0 M1050.93 1532.4 L1056.79 1532.4 L1056.79 1568.04 L1050.93 1568.04 L1050.93 1532.4 M1050.93 1518.52 L1056.79 1518.52 L1056.79 1525.93 L1050.93 1525.93 L1050.93 1518.52 Z" fill="#000000" fill-rule="evenodd" fill-opacity="1" /><path clip-path="url(#clip570)" d="M 0 0 M1092.56 1546.53 L1092.56 1568.04 L1086.7 1568.04 L1086.7 1546.72 Q1086.7 1541.66 1084.73 1539.14 Q1082.76 1536.63 1078.81 1536.63 Q1074.07 1536.63 1071.33 1539.65 Q1068.59 1542.68 1068.59 1547.9 L1068.59 1568.04 L1062.71 1568.04 L1062.71 1532.4 L1068.59 1532.4 L1068.59 1537.93 Q1070.69 1534.72 1073.53 1533.13 Q1076.39 1531.54 1080.12 1531.54 Q1086.26 1531.54 1089.41 1535.36 Q1092.56 1539.14 1092.56 1546.53 Z" fill="#000000" fill-rule="evenodd" fill-opacity="1" /><path clip-path="url(#clip570)" d="M 0 0 M1133.24 1536.5 Q1128.53 1536.5 1125.79 1540.19 Q1123.05 1543.85 1123.05 1550.25 Q1123.05 1556.65 1125.76 1560.34 Q1128.5 1564 1133.24 1564 Q1137.92 1564 1140.65 1560.31 Q1143.39 1556.62 1143.39 1550.25 Q1143.39 1543.92 1140.65 1540.23 Q1137.92 1536.5 1133.24 1536.5 M1133.24 1531.54 Q1140.88 1531.54 1145.24 1536.5 Q1149.6 1541.47 1149.6 1550.25 Q1149.6 1559 1145.24 1564 Q1140.88 1568.97 1133.24 1568.97 Q1125.57 1568.97 1121.21 1564 Q1116.88 1559 1116.88 1550.25 Q1116.88 1541.47 1121.21 1536.5 Q1125.57 1531.54 1133.24 1531.54 Z" fill="#000000" fill-rule="evenodd" fill-opacity="1" /><path clip-path="url(#clip570)" d="M 0 0 M1176.4 1537.87 Q1175.41 1537.3 1174.23 1537.04 Q1173.09 1536.76 1171.69 1536.76 Q1166.72 1536.76 1164.05 1540 Q1161.41 1543.22 1161.41 1549.27 L1161.41 1568.04 L1155.52 1568.04 L1155.52 1532.4 L1161.41 1532.4 L1161.41 1537.93 Q1163.25 1534.69 1166.21 1533.13 Q1169.17 1531.54 1173.41 1531.54 Q1174.01 1531.54 1174.74 1531.63 Q1175.47 1531.7 1176.37 1531.85 L1176.4 1537.87 Z" fill="#000000" fill-rule="evenodd" fill-opacity="1" /><path clip-path="url(#clip570)" d="M 0 0 M1206.76 1550.25 Q1206.76 1556.71 1209.4 1560.4 Q1212.08 1564.07 1216.72 1564.07 Q1221.37 1564.07 1224.04 1560.4 Q1226.72 1556.71 1226.72 1550.25 Q1226.72 1543.79 1224.04 1540.13 Q1221.37 1536.44 1216.72 1536.44 Q1212.08 1536.44 1209.4 1540.13 Q1206.76 1543.79 1206.76 1550.25 M1226.72 1562.7 Q1224.87 1565.88 1222.04 1567.44 Q1219.24 1568.97 1215.29 1568.97 Q1208.83 1568.97 1204.76 1563.81 Q1200.71 1558.65 1200.71 1550.25 Q1200.71 1541.85 1204.76 1536.69 Q1208.83 1531.54 1215.29 1531.54 Q1219.24 1531.54 1222.04 1533.1 Q1224.87 1534.62 1226.72 1537.81 L1226.72 1532.4 L1232.57 1532.4 L1232.57 1581.6 L1226.72 1581.6 L1226.72 1562.7 Z" fill="#000000" fill-rule="evenodd" fill-opacity="1" /><path clip-path="url(#clip570)" d="M 0 0 M1265.8 1578.87 L1265.8 1583.42 L1231.94 1583.42 L1231.94 1578.87 L1265.8 1578.87 Z" fill="#000000" fill-rule="evenodd" fill-opacity="1" /><path clip-path="url(#clip570)" d="M 0 0 M1294.67 1533.45 L1294.67 1538.98 Q1292.19 1537.71 1289.52 1537.07 Q1286.84 1536.44 1283.98 1536.44 Q1279.62 1536.44 1277.42 1537.77 Q1275.26 1539.11 1275.26 1541.79 Q1275.26 1543.82 1276.82 1545 Q1278.38 1546.15 1283.09 1547.2 L1285.09 1547.64 Q1291.33 1548.98 1293.94 1551.43 Q1296.58 1553.85 1296.58 1558.21 Q1296.58 1563.17 1292.63 1566.07 Q1288.72 1568.97 1281.84 1568.97 Q1278.98 1568.97 1275.86 1568.39 Q1272.77 1567.85 1269.34 1566.74 L1269.34 1560.69 Q1272.58 1562.38 1275.73 1563.24 Q1278.88 1564.07 1281.97 1564.07 Q1286.11 1564.07 1288.34 1562.66 Q1290.57 1561.23 1290.57 1558.65 Q1290.57 1556.27 1288.94 1554.99 Q1287.35 1553.72 1281.91 1552.54 L1279.87 1552.07 Q1274.43 1550.92 1272.01 1548.56 Q1269.59 1546.18 1269.59 1542.04 Q1269.59 1537.01 1273.16 1534.27 Q1276.72 1531.54 1283.28 1531.54 Q1286.52 1531.54 1289.39 1532.01 Q1292.25 1532.49 1294.67 1533.45 Z" fill="#000000" fill-rule="evenodd" fill-opacity="1" /><path clip-path="url(#clip570)" d="M 0 0 M1332.36 1546.53 L1332.36 1568.04 L1326.5 1568.04 L1326.5 1546.72 Q1326.5 1541.66 1324.53 1539.14 Q1322.55 1536.63 1318.61 1536.63 Q1313.86 1536.63 1311.13 1539.65 Q1308.39 1542.68 1308.39 1547.9 L1308.39 1568.04 L1302.5 1568.04 L1302.5 1532.4 L1308.39 1532.4 L1308.39 1537.93 Q1310.49 1534.72 1313.32 1533.13 Q1316.19 1531.54 1319.91 1531.54 Q1326.05 1531.54 1329.21 1535.36 Q1332.36 1539.14 1332.36 1546.53 Z" fill="#000000" fill-rule="evenodd" fill-opacity="1" /><path clip-path="url(#clip570)" d="M 0 0 M1352.31 1536.5 Q1347.6 1536.5 1344.87 1540.19 Q1342.13 1543.85 1342.13 1550.25 Q1342.13 1556.65 1344.83 1560.34 Q1347.57 1564 1352.31 1564 Q1356.99 1564 1359.73 1560.31 Q1362.47 1556.62 1362.47 1550.25 Q1362.47 1543.92 1359.73 1540.23 Q1356.99 1536.5 1352.31 1536.5 M1352.31 1531.54 Q1359.95 1531.54 1364.31 1536.5 Q1368.67 1541.47 1368.67 1550.25 Q1368.67 1559 1364.31 1564 Q1359.95 1568.97 1352.31 1568.97 Q1344.64 1568.97 1340.28 1564 Q1335.95 1559 1335.95 1550.25 Q1335.95 1541.47 1340.28 1536.5 Q1344.64 1531.54 1352.31 1531.54 Z" fill="#000000" fill-rule="evenodd" fill-opacity="1" /><path clip-path="url(#clip570)" d="M 0 0 M1371.41 1532.4 L1377.27 1532.4 L1384.59 1560.21 L1391.88 1532.4 L1398.78 1532.4 L1406.1 1560.21 L1413.39 1532.4 L1419.25 1532.4 L1409.92 1568.04 L1403.02 1568.04 L1395.35 1538.83 L1387.64 1568.04 L1380.74 1568.04 L1371.41 1532.4 Z" fill="#000000" fill-rule="evenodd" fill-opacity="1" /><path clip-path="url(#clip570)" d="M 0 0 M1445.57 1518.52 L1459.07 1518.52 L1459.07 1523.07 L1451.43 1523.07 L1451.43 1572.09 L1459.07 1572.09 L1459.07 1576.64 L1445.57 1576.64 L1445.57 1518.52 Z" fill="#000000" fill-rule="evenodd" fill-opacity="1" /><path clip-path="url(#clip570)" d="M 0 0 M1488.67 1549.81 Q1488.67 1543.44 1486.03 1539.94 Q1483.42 1536.44 1478.67 1536.44 Q1473.96 1536.44 1471.32 1539.94 Q1468.71 1543.44 1468.71 1549.81 Q1468.71 1556.14 1471.32 1559.64 Q1473.96 1563.14 1478.67 1563.14 Q1483.42 1563.14 1486.03 1559.64 Q1488.67 1556.14 1488.67 1549.81 M1494.52 1563.62 Q1494.52 1572.72 1490.48 1577.15 Q1486.44 1581.6 1478.1 1581.6 Q1475.01 1581.6 1472.28 1581.13 Q1469.54 1580.68 1466.96 1579.72 L1466.96 1574.03 Q1469.54 1575.43 1472.05 1576.1 Q1474.57 1576.76 1477.18 1576.76 Q1482.94 1576.76 1485.8 1573.74 Q1488.67 1570.75 1488.67 1564.67 L1488.67 1561.77 Q1486.85 1564.92 1484.02 1566.48 Q1481.19 1568.04 1477.24 1568.04 Q1470.68 1568.04 1466.67 1563.05 Q1462.66 1558.05 1462.66 1549.81 Q1462.66 1541.53 1466.67 1536.53 Q1470.68 1531.54 1477.24 1531.54 Q1481.19 1531.54 1484.02 1533.1 Q1486.85 1534.66 1488.67 1537.81 L1488.67 1532.4 L1494.52 1532.4 L1494.52 1563.62 Z" fill="#000000" fill-rule="evenodd" fill-opacity="1" /><path clip-path="url(#clip570)" d="M 0 0 M1511.07 1520.52 L1516.48 1520.52 L1499.93 1574.09 L1494.52 1574.09 L1511.07 1520.52 Z" fill="#000000" fill-rule="evenodd" fill-opacity="1" /><path clip-path="url(#clip570)" d="M 0 0 M1522.41 1518.52 L1528.29 1518.52 L1528.29 1547.77 L1545.77 1532.4 L1553.25 1532.4 L1534.34 1549.07 L1554.04 1568.04 L1546.4 1568.04 L1528.29 1550.63 L1528.29 1568.04 L1522.41 1568.04 L1522.41 1518.52 Z" fill="#000000" fill-rule="evenodd" fill-opacity="1" /><path clip-path="url(#clip570)" d="M 0 0 M1583.64 1549.81 Q1583.64 1543.44 1581 1539.94 Q1578.39 1536.44 1573.65 1536.44 Q1568.94 1536.44 1566.3 1539.94 Q1563.69 1543.44 1563.69 1549.81 Q1563.69 1556.14 1566.3 1559.64 Q1568.94 1563.14 1573.65 1563.14 Q1578.39 1563.14 1581 1559.64 Q1583.64 1556.14 1583.64 1549.81 M1589.5 1563.62 Q1589.5 1572.72 1585.46 1577.15 Q1581.42 1581.6 1573.08 1581.6 Q1569.99 1581.6 1567.25 1581.13 Q1564.51 1580.68 1561.94 1579.72 L1561.94 1574.03 Q1564.51 1575.43 1567.03 1576.1 Q1569.54 1576.76 1572.15 1576.76 Q1577.91 1576.76 1580.78 1573.74 Q1583.64 1570.75 1583.64 1564.67 L1583.64 1561.77 Q1581.83 1564.92 1579 1566.48 Q1576.16 1568.04 1572.22 1568.04 Q1565.66 1568.04 1561.65 1563.05 Q1557.64 1558.05 1557.64 1549.81 Q1557.64 1541.53 1561.65 1536.53 Q1565.66 1531.54 1572.22 1531.54 Q1576.16 1531.54 1579 1533.1 Q1581.83 1534.66 1583.64 1537.81 L1583.64 1532.4 L1589.5 1532.4 L1589.5 1563.62 Z" fill="#000000" fill-rule="evenodd" fill-opacity="1" /><path clip-path="url(#clip570)" d="M 0 0 M1609.33 1518.52 L1609.33 1576.64 L1595.83 1576.64 L1595.83 1572.09 L1603.44 1572.09 L1603.44 1523.07 L1595.83 1523.07 L1595.83 1518.52 L1609.33 1518.52 Z" fill="#000000" fill-rule="evenodd" fill-opacity="1" /><polyline clip-path="url(#clip572)" style="stroke:#000000; stroke-width:2; stroke-opacity:0.1; fill:none" points="
  175.445,1310.47 2352.76,1310.47 
  "/>
<polyline clip-path="url(#clip572)" style="stroke:#000000; stroke-width:2; stroke-opacity:0.1; fill:none" points="
  175.445,1115.59 2352.76,1115.59 
  "/>
<polyline clip-path="url(#clip572)" style="stroke:#000000; stroke-width:2; stroke-opacity:0.1; fill:none" points="
  175.445,920.705 2352.76,920.705 
  "/>
<polyline clip-path="url(#clip572)" style="stroke:#000000; stroke-width:2; stroke-opacity:0.1; fill:none" points="
  175.445,725.821 2352.76,725.821 
  "/>
<polyline clip-path="url(#clip572)" style="stroke:#000000; stroke-width:2; stroke-opacity:0.1; fill:none" points="
  175.445,530.937 2352.76,530.937 
  "/>
<polyline clip-path="url(#clip572)" style="stroke:#000000; stroke-width:2; stroke-opacity:0.1; fill:none" points="
  175.445,336.053 2352.76,336.053 
  "/>
<polyline clip-path="url(#clip572)" style="stroke:#000000; stroke-width:2; stroke-opacity:0.1; fill:none" points="
  175.445,141.169 2352.76,141.169 
  "/>
<polyline clip-path="url(#clip570)" style="stroke:#000000; stroke-width:4; stroke-opacity:1; fill:none" points="
  175.445,1423.18 175.445,47.2441 
  "/>
<polyline clip-path="url(#clip570)" style="stroke:#000000; stroke-width:4; stroke-opacity:1; fill:none" points="
  175.445,1310.47 201.573,1310.47 
  "/>
<polyline clip-path="url(#clip570)" style="stroke:#000000; stroke-width:4; stroke-opacity:1; fill:none" points="
  175.445,1115.59 201.573,1115.59 
  "/>
<polyline clip-path="url(#clip570)" style="stroke:#000000; stroke-width:4; stroke-opacity:1; fill:none" points="
  175.445,920.705 201.573,920.705 
  "/>
<polyline clip-path="url(#clip570)" style="stroke:#000000; stroke-width:4; stroke-opacity:1; fill:none" points="
  175.445,725.821 201.573,725.821 
  "/>
<polyline clip-path="url(#clip570)" style="stroke:#000000; stroke-width:4; stroke-opacity:1; fill:none" points="
  175.445,530.937 201.573,530.937 
  "/>
<polyline clip-path="url(#clip570)" style="stroke:#000000; stroke-width:4; stroke-opacity:1; fill:none" points="
  175.445,336.053 201.573,336.053 
  "/>
<polyline clip-path="url(#clip570)" style="stroke:#000000; stroke-width:4; stroke-opacity:1; fill:none" points="
  175.445,141.169 201.573,141.169 
  "/>
<path clip-path="url(#clip570)" d="M 0 0 M119.538 1323.82 L127.177 1323.82 L127.177 1297.45 L118.867 1299.12 L118.867 1294.86 L127.13 1293.19 L131.806 1293.19 L131.806 1323.82 L139.445 1323.82 L139.445 1327.75 L119.538 1327.75 L119.538 1323.82 Z" fill="#000000" fill-rule="evenodd" fill-opacity="1" /><path clip-path="url(#clip570)" d="M 0 0 M123.126 1128.93 L139.445 1128.93 L139.445 1132.87 L117.501 1132.87 L117.501 1128.93 Q120.163 1126.18 124.746 1121.55 Q129.353 1116.9 130.533 1115.55 Q132.779 1113.03 133.658 1111.29 Q134.561 1109.54 134.561 1107.85 Q134.561 1105.09 132.617 1103.35 Q130.695 1101.62 127.593 1101.62 Q125.394 1101.62 122.941 1102.38 Q120.51 1103.15 117.732 1104.7 L117.732 1099.98 Q120.556 1098.84 123.01 1098.26 Q125.464 1097.68 127.501 1097.68 Q132.871 1097.68 136.066 1100.37 Q139.26 1103.05 139.26 1107.54 Q139.26 1109.67 138.45 1111.6 Q137.663 1113.49 135.556 1116.09 Q134.978 1116.76 131.876 1119.97 Q128.774 1123.17 123.126 1128.93 Z" fill="#000000" fill-rule="evenodd" fill-opacity="1" /><path clip-path="url(#clip570)" d="M 0 0 M132.316 919.35 Q135.672 920.068 137.547 922.336 Q139.445 924.605 139.445 927.938 Q139.445 933.054 135.927 935.855 Q132.408 938.656 125.927 938.656 Q123.751 938.656 121.436 938.216 Q119.144 937.799 116.691 936.943 L116.691 932.429 Q118.635 933.563 120.95 934.142 Q123.265 934.721 125.788 934.721 Q130.186 934.721 132.478 932.985 Q134.792 931.248 134.792 927.938 Q134.792 924.883 132.64 923.17 Q130.51 921.434 126.691 921.434 L122.663 921.434 L122.663 917.591 L126.876 917.591 Q130.325 917.591 132.154 916.225 Q133.982 914.836 133.982 912.244 Q133.982 909.582 132.084 908.17 Q130.209 906.735 126.691 906.735 Q124.769 906.735 122.57 907.151 Q120.371 907.568 117.732 908.448 L117.732 904.281 Q120.394 903.54 122.709 903.17 Q125.047 902.8 127.107 902.8 Q132.431 902.8 135.533 905.23 Q138.635 907.637 138.635 911.758 Q138.635 914.628 136.992 916.619 Q135.348 918.586 132.316 919.35 Z" fill="#000000" fill-rule="evenodd" fill-opacity="1" /><path clip-path="url(#clip570)" d="M 0 0 M129.862 712.615 L118.056 731.064 L129.862 731.064 L129.862 712.615 M128.635 708.541 L134.515 708.541 L134.515 731.064 L139.445 731.064 L139.445 734.952 L134.515 734.952 L134.515 743.101 L129.862 743.101 L129.862 734.952 L114.26 734.952 L114.26 730.439 L128.635 708.541 Z" fill="#000000" fill-rule="evenodd" fill-opacity="1" /><path clip-path="url(#clip570)" d="M 0 0 M118.543 513.657 L136.899 513.657 L136.899 517.592 L122.825 517.592 L122.825 526.064 Q123.843 525.717 124.862 525.555 Q125.88 525.37 126.899 525.37 Q132.686 525.37 136.066 528.541 Q139.445 531.712 139.445 537.129 Q139.445 542.707 135.973 545.809 Q132.501 548.888 126.181 548.888 Q124.005 548.888 121.737 548.518 Q119.492 548.147 117.084 547.406 L117.084 542.707 Q119.168 543.842 121.39 544.397 Q123.612 544.953 126.089 544.953 Q130.093 544.953 132.431 542.846 Q134.769 540.74 134.769 537.129 Q134.769 533.518 132.431 531.411 Q130.093 529.305 126.089 529.305 Q124.214 529.305 122.339 529.721 Q120.487 530.138 118.543 531.018 L118.543 513.657 Z" fill="#000000" fill-rule="evenodd" fill-opacity="1" /><path clip-path="url(#clip570)" d="M 0 0 M127.917 334.189 Q124.769 334.189 122.918 336.342 Q121.089 338.495 121.089 342.245 Q121.089 345.972 122.918 348.148 Q124.769 350.3 127.917 350.3 Q131.066 350.3 132.894 348.148 Q134.746 345.972 134.746 342.245 Q134.746 338.495 132.894 336.342 Q131.066 334.189 127.917 334.189 M137.2 319.537 L137.2 323.796 Q135.441 322.962 133.635 322.523 Q131.853 322.083 130.093 322.083 Q125.464 322.083 123.01 325.208 Q120.58 328.333 120.232 334.652 Q121.598 332.638 123.658 331.574 Q125.718 330.486 128.195 330.486 Q133.404 330.486 136.413 333.657 Q139.445 336.805 139.445 342.245 Q139.445 347.569 136.297 350.786 Q133.149 354.004 127.917 354.004 Q121.922 354.004 118.751 349.421 Q115.58 344.814 115.58 336.087 Q115.58 327.893 119.468 323.032 Q123.357 318.148 129.908 318.148 Q131.667 318.148 133.45 318.495 Q135.255 318.842 137.2 319.537 Z" fill="#000000" fill-rule="evenodd" fill-opacity="1" /><path clip-path="url(#clip570)" d="M 0 0 M117.223 123.889 L139.445 123.889 L139.445 125.879 L126.899 158.449 L122.015 158.449 L133.82 127.824 L117.223 127.824 L117.223 123.889 Z" fill="#000000" fill-rule="evenodd" fill-opacity="1" /><path clip-path="url(#clip570)" d="M 0 0 M18.2347 1051.71 L28.3562 1051.71 L28.3562 1039.65 L32.9077 1039.65 L32.9077 1051.71 L52.2594 1051.71 Q56.6199 1051.71 57.8613 1050.54 Q59.1026 1049.33 59.1026 1045.67 L59.1026 1039.65 L64.0042 1039.65 L64.0042 1045.67 Q64.0042 1052.45 61.4897 1055.03 Q58.9434 1057.6 52.2594 1057.6 L32.9077 1057.6 L32.9077 1061.9 L28.3562 1061.9 L28.3562 1057.6 L18.2347 1057.6 L18.2347 1051.71 Z" fill="#000000" fill-rule="evenodd" fill-opacity="1" /><path clip-path="url(#clip570)" d="M 0 0 M44.7161 1003.02 L47.5806 1003.02 L47.5806 1029.94 Q53.6281 1029.56 56.8109 1026.32 Q59.9619 1023.04 59.9619 1017.21 Q59.9619 1013.84 59.1344 1010.69 Q58.3069 1007.51 56.6518 1004.39 L62.1899 1004.39 Q63.5267 1007.54 64.227 1010.85 Q64.9272 1014.16 64.9272 1017.56 Q64.9272 1026.09 59.9619 1031.09 Q54.9967 1036.06 46.5303 1036.06 Q37.7774 1036.06 32.6531 1031.34 Q27.4968 1026.6 27.4968 1018.58 Q27.4968 1011.39 32.1438 1007.22 Q36.7589 1003.02 44.7161 1003.02 M42.9973 1008.87 Q38.1912 1008.94 35.3266 1011.58 Q32.4621 1014.19 32.4621 1018.52 Q32.4621 1023.42 35.2312 1026.38 Q38.0002 1029.31 43.0292 1029.75 L42.9973 1008.87 Z" fill="#000000" fill-rule="evenodd" fill-opacity="1" /><path clip-path="url(#clip570)" d="M 0 0 M33.8307 976.218 Q33.2578 977.204 33.0032 978.382 Q32.7167 979.528 32.7167 980.928 Q32.7167 985.893 35.9632 988.567 Q39.1779 991.209 45.2253 991.209 L64.0042 991.209 L64.0042 997.097 L28.3562 997.097 L28.3562 991.209 L33.8944 991.209 Q30.6479 989.363 29.0883 986.403 Q27.4968 983.443 27.4968 979.21 Q27.4968 978.605 27.5923 977.873 Q27.656 977.141 27.8151 976.249 L33.8307 976.218 Z" fill="#000000" fill-rule="evenodd" fill-opacity="1" /><path clip-path="url(#clip570)" d="M 0 0 M35.1993 943.466 Q31.2526 941.27 29.3747 938.214 Q27.4968 935.159 27.4968 931.021 Q27.4968 925.451 31.4117 922.427 Q35.2948 919.404 42.4881 919.404 L64.0042 919.404 L64.0042 925.292 L42.679 925.292 Q37.5546 925.292 35.072 927.106 Q32.5894 928.92 32.5894 932.644 Q32.5894 937.196 35.6131 939.838 Q38.6368 942.479 43.8567 942.479 L64.0042 942.479 L64.0042 948.368 L42.679 948.368 Q37.5228 948.368 35.072 950.182 Q32.5894 951.996 32.5894 955.784 Q32.5894 960.272 35.6449 962.913 Q38.6686 965.555 43.8567 965.555 L64.0042 965.555 L64.0042 971.443 L28.3562 971.443 L28.3562 965.555 L33.8944 965.555 Q30.616 963.55 29.0564 960.749 Q27.4968 957.948 27.4968 954.097 Q27.4968 950.214 29.4702 947.508 Q31.4436 944.771 35.1993 943.466 Z" fill="#000000" fill-rule="evenodd" fill-opacity="1" /><path clip-path="url(#clip570)" d="M 0 0 M28.3562 913.261 L28.3562 907.404 L64.0042 907.404 L64.0042 913.261 L28.3562 913.261 M14.479 913.261 L14.479 907.404 L21.895 907.404 L21.895 913.261 L14.479 913.261 Z" fill="#000000" fill-rule="evenodd" fill-opacity="1" /><path clip-path="url(#clip570)" d="M 0 0 M42.4881 871.629 L64.0042 871.629 L64.0042 877.486 L42.679 877.486 Q37.6183 877.486 35.1038 879.459 Q32.5894 881.432 32.5894 885.379 Q32.5894 890.121 35.6131 892.859 Q38.6368 895.596 43.8567 895.596 L64.0042 895.596 L64.0042 901.484 L28.3562 901.484 L28.3562 895.596 L33.8944 895.596 Q30.6797 893.495 29.0883 890.663 Q27.4968 887.798 27.4968 884.074 Q27.4968 877.931 31.3163 874.78 Q35.1038 871.629 42.4881 871.629 Z" fill="#000000" fill-rule="evenodd" fill-opacity="1" /><path clip-path="url(#clip570)" d="M 0 0 M46.0847 849.285 Q46.0847 856.383 47.7079 859.12 Q49.3312 861.858 53.2461 861.858 Q56.3653 861.858 58.2114 859.821 Q60.0256 857.752 60.0256 854.219 Q60.0256 849.349 56.5881 846.421 Q53.1188 843.461 47.3897 843.461 L46.0847 843.461 L46.0847 849.285 M43.6657 837.604 L64.0042 837.604 L64.0042 843.461 L58.5933 843.461 Q61.8398 845.466 63.3994 848.458 Q64.9272 851.45 64.9272 855.778 Q64.9272 861.253 61.8716 864.499 Q58.7843 867.714 53.6281 867.714 Q47.6125 867.714 44.5569 863.704 Q41.5014 859.662 41.5014 851.673 L41.5014 843.461 L40.9285 843.461 Q36.8862 843.461 34.6901 846.134 Q32.4621 848.776 32.4621 853.582 Q32.4621 856.638 33.1941 859.534 Q33.9262 862.431 35.3903 865.104 L29.9795 865.104 Q28.7381 861.89 28.1334 858.866 Q27.4968 855.842 27.4968 852.978 Q27.4968 845.243 31.5072 841.424 Q35.5176 837.604 43.6657 837.604 Z" fill="#000000" fill-rule="evenodd" fill-opacity="1" /><path clip-path="url(#clip570)" d="M 0 0 M14.479 831.461 L14.479 825.605 L64.0042 825.605 L64.0042 831.461 L14.479 831.461 Z" fill="#000000" fill-rule="evenodd" fill-opacity="1" /><path clip-path="url(#clip570)" d="M 0 0 M28.3562 802.943 L28.3562 796.737 L58.275 785.597 L28.3562 774.457 L28.3562 768.25 L64.0042 781.618 L64.0042 789.575 L28.3562 802.943 Z" fill="#000000" fill-rule="evenodd" fill-opacity="1" /><path clip-path="url(#clip570)" d="M 0 0 M44.7161 731.615 L47.5806 731.615 L47.5806 758.542 Q53.6281 758.16 56.8109 754.914 Q59.9619 751.635 59.9619 745.811 Q59.9619 742.437 59.1344 739.286 Q58.3069 736.103 56.6518 732.984 L62.1899 732.984 Q63.5267 736.135 64.227 739.445 Q64.9272 742.755 64.9272 746.161 Q64.9272 754.691 59.9619 759.688 Q54.9967 764.653 46.5303 764.653 Q37.7774 764.653 32.6531 759.943 Q27.4968 755.2 27.4968 747.179 Q27.4968 739.986 32.1438 735.817 Q36.7589 731.615 44.7161 731.615 M42.9973 737.472 Q38.1912 737.535 35.3266 740.177 Q32.4621 742.787 32.4621 747.116 Q32.4621 752.017 35.2312 754.977 Q38.0002 757.906 43.0292 758.351 L42.9973 737.472 Z" fill="#000000" fill-rule="evenodd" fill-opacity="1" /><path clip-path="url(#clip570)" d="M 0 0 M14.479 725.472 L14.479 719.616 L64.0042 719.616 L64.0042 725.472 L14.479 725.472 Z" fill="#000000" fill-rule="evenodd" fill-opacity="1" /><path clip-path="url(#clip570)" d="M 0 0 M32.4621 699.659 Q32.4621 704.37 36.1542 707.107 Q39.8145 709.845 46.212 709.845 Q52.6095 709.845 56.3017 707.139 Q59.9619 704.402 59.9619 699.659 Q59.9619 694.981 56.2698 692.243 Q52.5777 689.506 46.212 689.506 Q39.8781 689.506 36.186 692.243 Q32.4621 694.981 32.4621 699.659 M27.4968 699.659 Q27.4968 692.021 32.4621 687.66 Q37.4273 683.3 46.212 683.3 Q54.9649 683.3 59.9619 687.66 Q64.9272 692.021 64.9272 699.659 Q64.9272 707.33 59.9619 711.691 Q54.9649 716.019 46.212 716.019 Q37.4273 716.019 32.4621 711.691 Q27.4968 707.33 27.4968 699.659 Z" fill="#000000" fill-rule="evenodd" fill-opacity="1" /><path clip-path="url(#clip570)" d="M 0 0 M29.7248 651.503 L35.1993 651.503 Q33.8307 653.986 33.1623 656.5 Q32.4621 658.983 32.4621 661.529 Q32.4621 667.226 36.0905 670.377 Q39.6872 673.528 46.212 673.528 Q52.7369 673.528 56.3653 670.377 Q59.9619 667.226 59.9619 661.529 Q59.9619 658.983 59.2935 656.5 Q58.5933 653.986 57.2247 651.503 L62.6355 651.503 Q63.7814 653.954 64.3543 656.595 Q64.9272 659.205 64.9272 662.165 Q64.9272 670.218 59.8664 674.961 Q54.8057 679.703 46.212 679.703 Q37.491 679.703 32.4939 674.929 Q27.4968 670.123 27.4968 661.784 Q27.4968 659.078 28.0697 656.5 Q28.6108 653.922 29.7248 651.503 Z" fill="#000000" fill-rule="evenodd" fill-opacity="1" /><path clip-path="url(#clip570)" d="M 0 0 M28.3562 645.36 L28.3562 639.504 L64.0042 639.504 L64.0042 645.36 L28.3562 645.36 M14.479 645.36 L14.479 639.504 L21.895 639.504 L21.895 645.36 L14.479 645.36 Z" fill="#000000" fill-rule="evenodd" fill-opacity="1" /><path clip-path="url(#clip570)" d="M 0 0 M18.2347 627.568 L28.3562 627.568 L28.3562 615.505 L32.9077 615.505 L32.9077 627.568 L52.2594 627.568 Q56.6199 627.568 57.8613 626.39 Q59.1026 625.181 59.1026 621.52 L59.1026 615.505 L64.0042 615.505 L64.0042 621.52 Q64.0042 628.3 61.4897 630.878 Q58.9434 633.456 52.2594 633.456 L32.9077 633.456 L32.9077 637.753 L28.3562 637.753 L28.3562 633.456 L18.2347 633.456 L18.2347 627.568 Z" fill="#000000" fill-rule="evenodd" fill-opacity="1" /><path clip-path="url(#clip570)" d="M 0 0 M67.3143 594.53 Q73.68 597.012 75.6216 599.368 Q77.5631 601.723 77.5631 605.67 L77.5631 610.349 L72.6615 610.349 L72.6615 606.911 Q72.6615 604.492 71.5157 603.155 Q70.3699 601.819 66.1048 600.195 L63.4312 599.145 L28.3562 613.563 L28.3562 607.357 L56.238 596.217 L28.3562 585.077 L28.3562 578.87 L67.3143 594.53 Z" fill="#000000" fill-rule="evenodd" fill-opacity="1" /><path clip-path="url(#clip570)" d="M 0 0 M14.479 552.548 L14.479 539.053 L19.0304 539.053 L19.0304 546.692 L68.0464 546.692 L68.0464 539.053 L72.5979 539.053 L72.5979 552.548 L14.479 552.548 Z" fill="#000000" fill-rule="evenodd" fill-opacity="1" /><path clip-path="url(#clip570)" d="M 0 0 M35.1993 505.155 Q31.2526 502.959 29.3747 499.904 Q27.4968 496.848 27.4968 492.71 Q27.4968 487.14 31.4117 484.117 Q35.2948 481.093 42.4881 481.093 L64.0042 481.093 L64.0042 486.981 L42.679 486.981 Q37.5546 486.981 35.072 488.795 Q32.5894 490.61 32.5894 494.334 Q32.5894 498.885 35.6131 501.527 Q38.6368 504.169 43.8567 504.169 L64.0042 504.169 L64.0042 510.057 L42.679 510.057 Q37.5228 510.057 35.072 511.871 Q32.5894 513.685 32.5894 517.473 Q32.5894 521.961 35.6449 524.603 Q38.6686 527.244 43.8567 527.244 L64.0042 527.244 L64.0042 533.133 L28.3562 533.133 L28.3562 527.244 L33.8944 527.244 Q30.616 525.239 29.0564 522.438 Q27.4968 519.637 27.4968 515.786 Q27.4968 511.903 29.4702 509.198 Q31.4436 506.46 35.1993 505.155 Z" fill="#000000" fill-rule="evenodd" fill-opacity="1" /><path clip-path="url(#clip570)" d="M 0 0 M16.4842 464.542 L16.4842 459.131 L70.0516 475.682 L70.0516 481.093 L16.4842 464.542 Z" fill="#000000" fill-rule="evenodd" fill-opacity="1" /><path clip-path="url(#clip570)" d="M 0 0 M29.4065 430.263 L34.9447 430.263 Q33.6716 432.745 33.035 435.419 Q32.3984 438.093 32.3984 440.957 Q32.3984 445.318 33.7352 447.514 Q35.072 449.678 37.7456 449.678 Q39.7826 449.678 40.9603 448.119 Q42.1061 446.559 43.1565 441.848 L43.6021 439.843 Q44.9389 433.605 47.3897 430.995 Q49.8086 428.353 54.1691 428.353 Q59.1344 428.353 62.0308 432.3 Q64.9272 436.215 64.9272 443.09 Q64.9272 445.954 64.3543 449.073 Q63.8132 452.161 62.6992 455.598 L56.6518 455.598 Q58.3387 452.352 59.198 449.201 Q60.0256 446.05 60.0256 442.962 Q60.0256 438.825 58.6251 436.597 Q57.1929 434.369 54.6147 434.369 Q52.2276 434.369 50.9545 435.992 Q49.6813 437.583 48.5037 443.026 L48.0262 445.063 Q46.8804 450.506 44.5251 452.925 Q42.138 455.344 38.0002 455.344 Q32.9713 455.344 30.2341 451.779 Q27.4968 448.214 27.4968 441.657 Q27.4968 438.411 27.9743 435.546 Q28.4517 432.682 29.4065 430.263 Z" fill="#000000" fill-rule="evenodd" fill-opacity="1" /><path clip-path="url(#clip570)" d="M 0 0 M14.479 408.524 L72.5979 408.524 L72.5979 422.019 L68.0464 422.019 L68.0464 414.412 L19.0304 414.412 L19.0304 422.019 L14.479 422.019 L14.479 408.524 Z" fill="#000000" fill-rule="evenodd" fill-opacity="1" /><polyline clip-path="url(#clip572)" style="stroke:#009af9; stroke-width:12; stroke-opacity:1; fill:none" points="
  237.067,1232.83 257.815,714.067 278.564,642.46 299.312,597.602 320.06,564.367 340.808,537.751 361.556,515.447 382.304,496.188 403.052,479.203 423.801,463.984 
  444.549,450.178 465.297,437.532 486.045,425.855 506.793,415 527.541,404.853 548.289,395.321 569.038,386.33 589.786,377.818 610.534,369.733 631.282,362.032 
  652.03,354.678 672.778,347.639 693.526,340.887 714.275,334.399 735.023,328.153 755.771,322.131 776.519,316.316 797.267,310.693 818.015,305.25 838.764,299.974 
  859.512,294.855 880.26,289.884 901.008,285.05 921.756,280.348 942.504,275.768 963.252,271.304 984.001,266.951 1004.75,262.703 1025.5,258.553 1046.24,254.498 
  1066.99,250.534 1087.74,246.654 1108.49,242.857 1129.24,239.138 1149.99,235.494 1170.73,231.922 1191.48,228.419 1212.23,224.982 1232.98,221.608 1253.73,218.295 
  1274.47,215.04 1295.22,211.842 1315.97,208.699 1336.72,205.608 1357.47,202.567 1378.22,199.576 1398.96,196.632 1419.71,193.733 1440.46,190.878 1461.21,188.067 
  1481.96,185.296 1502.7,182.566 1523.45,179.875 1544.2,177.221 1564.95,174.604 1585.7,172.022 1606.45,169.475 1627.19,166.962 1647.94,164.481 1668.69,162.032 
  1689.44,159.614 1710.19,157.225 1730.93,154.866 1751.68,152.536 1772.43,150.233 1793.18,147.958 1813.93,145.708 1834.67,143.485 1855.42,141.286 1876.17,139.113 
  1896.92,136.963 1917.67,134.836 1938.42,132.733 1959.16,130.651 1979.91,128.592 2000.66,126.554 2021.41,124.536 2042.16,122.539 2062.9,120.563 2083.65,118.605 
  2104.4,116.667 2125.15,114.748 2145.9,112.847 2166.65,110.964 2187.39,109.098 2208.14,107.25 2228.89,105.419 2249.64,103.604 2270.39,101.806 2291.13,100.024 
  
  "/>
<polyline clip-path="url(#clip572)" style="stroke:#e26f46; stroke-width:12; stroke-opacity:1; fill:none" points="
  237.067,1384.24 257.815,1347.81 278.564,1344.41 299.312,1342.39 320.06,1340.93 340.808,1339.8 361.556,1338.87 382.304,1338.07 403.052,1337.38 423.801,1336.77 
  444.549,1336.22 465.297,1335.73 486.045,1335.27 506.793,1334.85 527.541,1334.46 548.289,1334.1 569.038,1333.75 589.786,1333.43 610.534,1333.13 631.282,1332.84 
  652.03,1332.57 672.778,1332.31 693.526,1332.06 714.275,1331.82 735.023,1331.6 755.771,1331.38 776.519,1331.17 797.267,1330.96 818.015,1330.77 838.764,1330.58 
  859.512,1330.4 880.26,1330.22 901.008,1330.05 921.756,1329.88 942.504,1329.72 963.252,1329.56 984.001,1329.41 1004.75,1329.26 1025.5,1329.12 1046.24,1328.97 
  1066.99,1328.84 1087.74,1328.7 1108.49,1328.57 1129.24,1328.44 1149.99,1328.32 1170.73,1328.19 1191.48,1328.07 1212.23,1327.96 1232.98,1327.84 1253.73,1327.73 
  1274.47,1327.62 1295.22,1327.51 1315.97,1327.4 1336.72,1327.3 1357.47,1327.2 1378.22,1327.1 1398.96,1327 1419.71,1326.9 1440.46,1326.8 1461.21,1326.71 
  1481.96,1326.62 1502.7,1326.53 1523.45,1326.44 1544.2,1326.35 1564.95,1326.26 1585.7,1326.17 1606.45,1326.09 1627.19,1326.01 1647.94,1325.93 1668.69,1325.84 
  1689.44,1325.76 1710.19,1325.69 1730.93,1325.61 1751.68,1325.53 1772.43,1325.46 1793.18,1325.38 1813.93,1325.31 1834.67,1325.24 1855.42,1325.16 1876.17,1325.09 
  1896.92,1325.02 1917.67,1324.95 1938.42,1324.89 1959.16,1324.82 1979.91,1324.75 2000.66,1324.69 2021.41,1324.62 2042.16,1324.56 2062.9,1324.49 2083.65,1324.43 
  2104.4,1324.37 2125.15,1324.31 2145.9,1324.25 2166.65,1324.18 2187.39,1324.13 2208.14,1324.07 2228.89,1324.01 2249.64,1323.95 2270.39,1323.89 2291.13,1323.84 
  
  "/>
<polyline clip-path="url(#clip572)" style="stroke:#3da44d; stroke-width:12; stroke-opacity:1; fill:none" points="
  237.067,1262.72 257.815,740.758 278.564,666 299.312,618.922 320.06,583.927 340.808,555.833 361.556,532.244 382.304,511.843 403.052,493.825 423.801,477.661 
  444.549,462.983 465.297,449.525 486.045,437.087 506.793,425.516 527.541,414.691 548.289,404.515 569.038,394.911 589.786,385.812 610.534,377.166 631.282,368.926 
  652.03,361.053 672.778,353.513 693.526,346.278 714.275,339.323 735.023,332.624 755.771,326.162 776.519,319.921 797.267,313.884 818.015,308.037 838.764,302.369 
  859.512,296.867 880.26,291.521 901.008,286.323 921.756,281.264 942.504,276.335 963.252,271.53 984.001,266.843 1004.75,262.267 1025.5,257.797 1046.24,253.428 
  1066.99,249.154 1087.74,244.972 1108.49,240.877 1129.24,236.866 1149.99,232.935 1170.73,229.08 1191.48,225.299 1212.23,221.588 1232.98,217.945 1253.73,214.367 
  1274.47,210.852 1295.22,207.397 1315.97,204 1336.72,200.659 1357.47,197.372 1378.22,194.138 1398.96,190.954 1419.71,187.819 1440.46,184.731 1461.21,181.689 
  1481.96,178.691 1502.7,175.736 1523.45,172.823 1544.2,169.95 1564.95,167.116 1585.7,164.321 1606.45,161.562 1627.19,158.839 1647.94,156.152 1668.69,153.498 
  1689.44,150.877 1710.19,148.289 1730.93,145.731 1751.68,143.205 1772.43,140.708 1793.18,138.24 1813.93,135.801 1834.67,133.389 1855.42,131.004 1876.17,128.645 
  1896.92,126.313 1917.67,124.005 1938.42,121.721 1959.16,119.462 1979.91,117.226 2000.66,115.013 2021.41,112.823 2042.16,110.654 2062.9,108.507 2083.65,106.381 
  2104.4,104.276 2125.15,102.19 2145.9,100.125 2166.65,98.0782 2187.39,96.0508 2208.14,94.0421 2228.89,92.0515 2249.64,90.0788 2270.39,88.1237 2291.13,86.1857 
  
  "/>
<path clip-path="url(#clip570)" d="
M1747.98 335.029 L2280.18 335.029 L2280.18 93.1086 L1747.98 93.1086  Z
  " fill="#ffffff" fill-rule="evenodd" fill-opacity="1"/>
<polyline clip-path="url(#clip570)" style="stroke:#000000; stroke-width:4; stroke-opacity:1; fill:none" points="
  1747.98,335.029 2280.18,335.029 2280.18,93.1086 1747.98,93.1086 1747.98,335.029 
  "/>
<polyline clip-path="url(#clip570)" style="stroke:#009af9; stroke-width:4; stroke-opacity:1; fill:none" points="
  1772.17,153.589 1917.33,153.589 
  "/>
<path clip-path="url(#clip570)" d="M 0 0 M1957.91 154.665 Q1959.41 155.174 1960.82 156.841 Q1962.26 158.508 1963.69 161.424 L1968.44 170.869 L1963.42 170.869 L1958.99 162.003 Q1957.28 158.531 1955.66 157.396 Q1954.06 156.262 1951.29 156.262 L1946.19 156.262 L1946.19 170.869 L1941.52 170.869 L1941.52 136.309 L1952.07 136.309 Q1958 136.309 1960.92 138.785 Q1963.83 141.262 1963.83 146.262 Q1963.83 149.526 1962.3 151.679 Q1960.8 153.832 1957.91 154.665 M1946.19 140.151 L1946.19 152.42 L1952.07 152.42 Q1955.45 152.42 1957.17 150.869 Q1958.9 149.295 1958.9 146.262 Q1958.9 143.23 1957.17 141.702 Q1955.45 140.151 1952.07 140.151 L1946.19 140.151 Z" fill="#000000" fill-rule="evenodd" fill-opacity="1" /><path clip-path="url(#clip570)" d="M 0 0 M1983.65 157.836 Q1978.49 157.836 1976.49 159.017 Q1974.5 160.197 1974.5 163.045 Q1974.5 165.313 1975.99 166.656 Q1977.49 167.975 1980.06 167.975 Q1983.6 167.975 1985.73 165.475 Q1987.88 162.952 1987.88 158.785 L1987.88 157.836 L1983.65 157.836 M1992.14 156.077 L1992.14 170.869 L1987.88 170.869 L1987.88 166.933 Q1986.43 169.295 1984.25 170.429 Q1982.07 171.54 1978.93 171.54 Q1974.94 171.54 1972.58 169.318 Q1970.24 167.072 1970.24 163.322 Q1970.24 158.947 1973.16 156.725 Q1976.1 154.503 1981.91 154.503 L1987.88 154.503 L1987.88 154.086 Q1987.88 151.147 1985.94 149.549 Q1984.02 147.929 1980.52 147.929 Q1978.3 147.929 1976.19 148.461 Q1974.09 148.994 1972.14 150.059 L1972.14 146.123 Q1974.48 145.221 1976.68 144.781 Q1978.88 144.318 1980.96 144.318 Q1986.59 144.318 1989.36 147.234 Q1992.14 150.151 1992.14 156.077 Z" fill="#000000" fill-rule="evenodd" fill-opacity="1" /><path clip-path="url(#clip570)" d="M 0 0 M1996.61 144.943 L2000.87 144.943 L2000.87 170.869 L1996.61 170.869 L1996.61 144.943 M1996.61 134.85 L2000.87 134.85 L2000.87 140.244 L1996.61 140.244 L1996.61 134.85 Z" fill="#000000" fill-rule="evenodd" fill-opacity="1" /><path clip-path="url(#clip570)" d="M 0 0 M2026.89 155.221 L2026.89 170.869 L2022.63 170.869 L2022.63 155.359 Q2022.63 151.679 2021.19 149.85 Q2019.76 148.022 2016.89 148.022 Q2013.44 148.022 2011.45 150.221 Q2009.46 152.42 2009.46 156.216 L2009.46 170.869 L2005.18 170.869 L2005.18 144.943 L2009.46 144.943 L2009.46 148.971 Q2010.99 146.633 2013.05 145.475 Q2015.13 144.318 2017.84 144.318 Q2022.3 144.318 2024.6 147.096 Q2026.89 149.85 2026.89 155.221 Z" fill="#000000" fill-rule="evenodd" fill-opacity="1" /><path clip-path="url(#clip570)" d="M 0 0 M2029.2 155.984 L2041.68 155.984 L2041.68 159.781 L2029.2 159.781 L2029.2 155.984 Z" fill="#000000" fill-rule="evenodd" fill-opacity="1" /><path clip-path="url(#clip570)" d="M 0 0 M2072.21 138.971 L2072.21 143.901 Q2069.85 141.702 2067.17 140.614 Q2064.5 139.526 2061.49 139.526 Q2055.57 139.526 2052.42 143.16 Q2049.27 146.772 2049.27 153.623 Q2049.27 160.452 2052.42 164.086 Q2055.57 167.697 2061.49 167.697 Q2064.5 167.697 2067.17 166.609 Q2069.85 165.521 2072.21 163.322 L2072.21 168.207 Q2069.76 169.873 2067 170.707 Q2064.27 171.54 2061.22 171.54 Q2053.37 171.54 2048.86 166.748 Q2044.34 161.933 2044.34 153.623 Q2044.34 145.29 2048.86 140.498 Q2053.37 135.684 2061.22 135.684 Q2064.32 135.684 2067.05 136.517 Q2069.8 137.327 2072.21 138.971 Z" fill="#000000" fill-rule="evenodd" fill-opacity="1" /><path clip-path="url(#clip570)" d="M 0 0 M2076.86 136.309 L2081.54 136.309 L2081.54 166.933 L2098.37 166.933 L2098.37 170.869 L2076.86 170.869 L2076.86 136.309 Z" fill="#000000" fill-rule="evenodd" fill-opacity="1" /><path clip-path="url(#clip570)" d="M 0 0 M2103.02 136.309 L2107.7 136.309 L2107.7 170.869 L2103.02 170.869 L2103.02 136.309 Z" fill="#000000" fill-rule="evenodd" fill-opacity="1" /><path clip-path="url(#clip570)" d="M 0 0 M2112.35 136.309 L2119.32 136.309 L2128.14 159.827 L2137 136.309 L2143.97 136.309 L2143.97 170.869 L2139.41 170.869 L2139.41 140.522 L2130.5 164.225 L2125.8 164.225 L2116.89 140.522 L2116.89 170.869 L2112.35 170.869 L2112.35 136.309 Z" fill="#000000" fill-rule="evenodd" fill-opacity="1" /><path clip-path="url(#clip570)" d="M 0 0 M2160.17 140.915 L2153.83 158.114 L2166.54 158.114 L2160.17 140.915 M2157.54 136.309 L2162.84 136.309 L2176.01 170.869 L2171.15 170.869 L2168 162.003 L2152.42 162.003 L2149.27 170.869 L2144.34 170.869 L2157.54 136.309 Z" fill="#000000" fill-rule="evenodd" fill-opacity="1" /><polyline clip-path="url(#clip570)" style="stroke:#e26f46; stroke-width:4; stroke-opacity:1; fill:none" points="
  1772.17,214.069 1917.33,214.069 
  "/>
<path clip-path="url(#clip570)" d="M 0 0 M1963.76 197.923 L1963.76 202.483 Q1961.1 201.21 1958.74 200.585 Q1956.38 199.96 1954.18 199.96 Q1950.36 199.96 1948.28 201.441 Q1946.22 202.923 1946.22 205.654 Q1946.22 207.946 1947.58 209.127 Q1948.97 210.284 1952.81 211.002 L1955.64 211.58 Q1960.87 212.576 1963.35 215.099 Q1965.85 217.599 1965.85 221.812 Q1965.85 226.835 1962.47 229.427 Q1959.11 232.02 1952.61 232.02 Q1950.15 232.02 1947.37 231.464 Q1944.62 230.909 1941.66 229.821 L1941.66 225.006 Q1944.5 226.603 1947.24 227.413 Q1949.97 228.224 1952.61 228.224 Q1956.61 228.224 1958.79 226.65 Q1960.96 225.076 1960.96 222.159 Q1960.96 219.613 1959.39 218.177 Q1957.84 216.742 1954.27 216.025 L1951.43 215.469 Q1946.19 214.427 1943.86 212.205 Q1941.52 209.983 1941.52 206.025 Q1941.52 201.441 1944.74 198.802 Q1947.98 196.164 1953.65 196.164 Q1956.08 196.164 1958.6 196.603 Q1961.12 197.043 1963.76 197.923 Z" fill="#000000" fill-rule="evenodd" fill-opacity="1" /><path clip-path="url(#clip570)" d="M 0 0 M1991.86 215.701 L1991.86 231.349 L1987.61 231.349 L1987.61 215.839 Q1987.61 212.159 1986.17 210.33 Q1984.74 208.502 1981.86 208.502 Q1978.42 208.502 1976.43 210.701 Q1974.43 212.9 1974.43 216.696 L1974.43 231.349 L1970.15 231.349 L1970.15 205.423 L1974.43 205.423 L1974.43 209.451 Q1975.96 207.113 1978.02 205.955 Q1980.11 204.798 1982.81 204.798 Q1987.28 204.798 1989.57 207.576 Q1991.86 210.33 1991.86 215.701 Z" fill="#000000" fill-rule="evenodd" fill-opacity="1" /><path clip-path="url(#clip570)" d="M 0 0 M2006.38 208.409 Q2002.95 208.409 2000.96 211.094 Q1998.97 213.756 1998.97 218.409 Q1998.97 223.062 2000.94 225.747 Q2002.93 228.409 2006.38 228.409 Q2009.78 228.409 2011.77 225.724 Q2013.76 223.038 2013.76 218.409 Q2013.76 213.802 2011.77 211.117 Q2009.78 208.409 2006.38 208.409 M2006.38 204.798 Q2011.93 204.798 2015.11 208.409 Q2018.28 212.02 2018.28 218.409 Q2018.28 224.775 2015.11 228.409 Q2011.93 232.02 2006.38 232.02 Q2000.8 232.02 1997.63 228.409 Q1994.48 224.775 1994.48 218.409 Q1994.48 212.02 1997.63 208.409 Q2000.8 204.798 2006.38 204.798 Z" fill="#000000" fill-rule="evenodd" fill-opacity="1" /><path clip-path="url(#clip570)" d="M 0 0 M2020.27 205.423 L2024.53 205.423 L2029.85 225.654 L2035.15 205.423 L2040.17 205.423 L2045.5 225.654 L2050.8 205.423 L2055.06 205.423 L2048.28 231.349 L2043.25 231.349 L2037.67 210.099 L2032.07 231.349 L2027.05 231.349 L2020.27 205.423 Z" fill="#000000" fill-rule="evenodd" fill-opacity="1" /><path clip-path="url(#clip570)" d="M 0 0 M2057.37 216.464 L2069.85 216.464 L2069.85 220.261 L2057.37 220.261 L2057.37 216.464 Z" fill="#000000" fill-rule="evenodd" fill-opacity="1" /><path clip-path="url(#clip570)" d="M 0 0 M2100.38 199.451 L2100.38 204.381 Q2098.02 202.182 2095.34 201.094 Q2092.67 200.006 2089.67 200.006 Q2083.74 200.006 2080.59 203.64 Q2077.44 207.252 2077.44 214.103 Q2077.44 220.932 2080.59 224.566 Q2083.74 228.177 2089.67 228.177 Q2092.67 228.177 2095.34 227.089 Q2098.02 226.001 2100.38 223.802 L2100.38 228.687 Q2097.93 230.353 2095.17 231.187 Q2092.44 232.02 2089.39 232.02 Q2081.54 232.02 2077.03 227.228 Q2072.51 222.413 2072.51 214.103 Q2072.51 205.77 2077.03 200.978 Q2081.54 196.164 2089.39 196.164 Q2092.49 196.164 2095.22 196.997 Q2097.98 197.807 2100.38 199.451 Z" fill="#000000" fill-rule="evenodd" fill-opacity="1" /><path clip-path="url(#clip570)" d="M 0 0 M2105.04 196.789 L2109.71 196.789 L2109.71 227.413 L2126.54 227.413 L2126.54 231.349 L2105.04 231.349 L2105.04 196.789 Z" fill="#000000" fill-rule="evenodd" fill-opacity="1" /><path clip-path="url(#clip570)" d="M 0 0 M2131.19 196.789 L2135.87 196.789 L2135.87 231.349 L2131.19 231.349 L2131.19 196.789 Z" fill="#000000" fill-rule="evenodd" fill-opacity="1" /><path clip-path="url(#clip570)" d="M 0 0 M2140.52 196.789 L2147.49 196.789 L2156.31 220.307 L2165.17 196.789 L2172.14 196.789 L2172.14 231.349 L2167.58 231.349 L2167.58 201.002 L2158.67 224.705 L2153.97 224.705 L2145.06 201.002 L2145.06 231.349 L2140.52 231.349 L2140.52 196.789 Z" fill="#000000" fill-rule="evenodd" fill-opacity="1" /><path clip-path="url(#clip570)" d="M 0 0 M2188.35 201.395 L2182 218.594 L2194.71 218.594 L2188.35 201.395 M2185.71 196.789 L2191.01 196.789 L2204.18 231.349 L2199.32 231.349 L2196.17 222.483 L2180.59 222.483 L2177.44 231.349 L2172.51 231.349 L2185.71 196.789 Z" fill="#000000" fill-rule="evenodd" fill-opacity="1" /><polyline clip-path="url(#clip570)" style="stroke:#3da44d; stroke-width:4; stroke-opacity:1; fill:none" points="
  1772.17,274.549 1917.33,274.549 
  "/>
<path clip-path="url(#clip570)" d="M 0 0 M1957.91 275.625 Q1959.41 276.134 1960.82 277.801 Q1962.26 279.468 1963.69 282.384 L1968.44 291.829 L1963.42 291.829 L1958.99 282.963 Q1957.28 279.491 1955.66 278.356 Q1954.06 277.222 1951.29 277.222 L1946.19 277.222 L1946.19 291.829 L1941.52 291.829 L1941.52 257.269 L1952.07 257.269 Q1958 257.269 1960.92 259.745 Q1963.83 262.222 1963.83 267.222 Q1963.83 270.486 1962.3 272.639 Q1960.8 274.792 1957.91 275.625 M1946.19 261.111 L1946.19 273.38 L1952.07 273.38 Q1955.45 273.38 1957.17 271.829 Q1958.9 270.255 1958.9 267.222 Q1958.9 264.19 1957.17 262.662 Q1955.45 261.111 1952.07 261.111 L1946.19 261.111 Z" fill="#000000" fill-rule="evenodd" fill-opacity="1" /><path clip-path="url(#clip570)" d="M 0 0 M1983.65 278.796 Q1978.49 278.796 1976.49 279.977 Q1974.5 281.157 1974.5 284.005 Q1974.5 286.273 1975.99 287.616 Q1977.49 288.935 1980.06 288.935 Q1983.6 288.935 1985.73 286.435 Q1987.88 283.912 1987.88 279.745 L1987.88 278.796 L1983.65 278.796 M1992.14 277.037 L1992.14 291.829 L1987.88 291.829 L1987.88 287.893 Q1986.43 290.255 1984.25 291.389 Q1982.07 292.5 1978.93 292.5 Q1974.94 292.5 1972.58 290.278 Q1970.24 288.032 1970.24 284.282 Q1970.24 279.907 1973.16 277.685 Q1976.1 275.463 1981.91 275.463 L1987.88 275.463 L1987.88 275.046 Q1987.88 272.107 1985.94 270.509 Q1984.02 268.889 1980.52 268.889 Q1978.3 268.889 1976.19 269.421 Q1974.09 269.954 1972.14 271.019 L1972.14 267.083 Q1974.48 266.181 1976.68 265.741 Q1978.88 265.278 1980.96 265.278 Q1986.59 265.278 1989.36 268.194 Q1992.14 271.111 1992.14 277.037 Z" fill="#000000" fill-rule="evenodd" fill-opacity="1" /><path clip-path="url(#clip570)" d="M 0 0 M1996.61 265.903 L2000.87 265.903 L2000.87 291.829 L1996.61 291.829 L1996.61 265.903 M1996.61 255.81 L2000.87 255.81 L2000.87 261.204 L1996.61 261.204 L1996.61 255.81 Z" fill="#000000" fill-rule="evenodd" fill-opacity="1" /><path clip-path="url(#clip570)" d="M 0 0 M2026.89 276.181 L2026.89 291.829 L2022.63 291.829 L2022.63 276.319 Q2022.63 272.639 2021.19 270.81 Q2019.76 268.982 2016.89 268.982 Q2013.44 268.982 2011.45 271.181 Q2009.46 273.38 2009.46 277.176 L2009.46 291.829 L2005.18 291.829 L2005.18 265.903 L2009.46 265.903 L2009.46 269.931 Q2010.99 267.593 2013.05 266.435 Q2015.13 265.278 2017.84 265.278 Q2022.3 265.278 2024.6 268.056 Q2026.89 270.81 2026.89 276.181 Z" fill="#000000" fill-rule="evenodd" fill-opacity="1" /><path clip-path="url(#clip570)" d="M 0 0 M2029.2 276.944 L2041.68 276.944 L2041.68 280.741 L2029.2 280.741 L2029.2 276.944 Z" fill="#000000" fill-rule="evenodd" fill-opacity="1" /><path clip-path="url(#clip570)" d="M 0 0 M2046.33 257.269 L2068.18 257.269 L2068.18 261.204 L2051.01 261.204 L2051.01 271.435 L2067.47 271.435 L2067.47 275.37 L2051.01 275.37 L2051.01 287.893 L2068.6 287.893 L2068.6 291.829 L2046.33 291.829 L2046.33 257.269 Z" fill="#000000" fill-rule="evenodd" fill-opacity="1" /><path clip-path="url(#clip570)" d="M 0 0 M2093.25 270.88 Q2094.85 268.009 2097.07 266.644 Q2099.29 265.278 2102.3 265.278 Q2106.36 265.278 2108.55 268.125 Q2110.75 270.949 2110.75 276.181 L2110.75 291.829 L2106.47 291.829 L2106.47 276.319 Q2106.47 272.593 2105.15 270.787 Q2103.83 268.982 2101.12 268.982 Q2097.81 268.982 2095.89 271.181 Q2093.97 273.38 2093.97 277.176 L2093.97 291.829 L2089.69 291.829 L2089.69 276.319 Q2089.69 272.569 2088.37 270.787 Q2087.05 268.982 2084.29 268.982 Q2081.03 268.982 2079.11 271.204 Q2077.19 273.403 2077.19 277.176 L2077.19 291.829 L2072.91 291.829 L2072.91 265.903 L2077.19 265.903 L2077.19 269.931 Q2078.65 267.546 2080.68 266.412 Q2082.72 265.278 2085.52 265.278 Q2088.35 265.278 2090.31 266.713 Q2092.3 268.148 2093.25 270.88 Z" fill="#000000" fill-rule="evenodd" fill-opacity="1" /><path clip-path="url(#clip570)" d="M 0 0 M2119.34 287.94 L2119.34 301.69 L2115.06 301.69 L2115.06 265.903 L2119.34 265.903 L2119.34 269.838 Q2120.68 267.523 2122.72 266.412 Q2124.78 265.278 2127.63 265.278 Q2132.35 265.278 2135.29 269.028 Q2138.25 272.778 2138.25 278.889 Q2138.25 285 2135.29 288.75 Q2132.35 292.5 2127.63 292.5 Q2124.78 292.5 2122.72 291.389 Q2120.68 290.255 2119.34 287.94 M2133.83 278.889 Q2133.83 274.19 2131.89 271.528 Q2129.97 268.843 2126.59 268.843 Q2123.21 268.843 2121.26 271.528 Q2119.34 274.19 2119.34 278.889 Q2119.34 283.588 2121.26 286.273 Q2123.21 288.935 2126.59 288.935 Q2129.97 288.935 2131.89 286.273 Q2133.83 283.588 2133.83 278.889 Z" fill="#000000" fill-rule="evenodd" fill-opacity="1" /><path clip-path="url(#clip570)" d="M 0 0 M2142.72 265.903 L2146.98 265.903 L2146.98 291.829 L2142.72 291.829 L2142.72 265.903 M2142.72 255.81 L2146.98 255.81 L2146.98 261.204 L2142.72 261.204 L2142.72 255.81 Z" fill="#000000" fill-rule="evenodd" fill-opacity="1" /><path clip-path="url(#clip570)" d="M 0 0 M2166.47 269.884 Q2165.75 269.468 2164.9 269.282 Q2164.06 269.074 2163.04 269.074 Q2159.43 269.074 2157.49 271.435 Q2155.57 273.773 2155.57 278.171 L2155.57 291.829 L2151.29 291.829 L2151.29 265.903 L2155.57 265.903 L2155.57 269.931 Q2156.91 267.569 2159.06 266.435 Q2161.22 265.278 2164.29 265.278 Q2164.73 265.278 2165.27 265.347 Q2165.8 265.394 2166.45 265.509 L2166.47 269.884 Z" fill="#000000" fill-rule="evenodd" fill-opacity="1" /><path clip-path="url(#clip570)" d="M 0 0 M2170.94 265.903 L2175.2 265.903 L2175.2 291.829 L2170.94 291.829 L2170.94 265.903 M2170.94 255.81 L2175.2 255.81 L2175.2 261.204 L2170.94 261.204 L2170.94 255.81 Z" fill="#000000" fill-rule="evenodd" fill-opacity="1" /><path clip-path="url(#clip570)" d="M 0 0 M2198.32 266.898 L2198.32 270.88 Q2196.52 269.884 2194.69 269.398 Q2192.88 268.889 2191.03 268.889 Q2186.89 268.889 2184.6 271.528 Q2182.3 274.144 2182.3 278.889 Q2182.3 283.634 2184.6 286.273 Q2186.89 288.889 2191.03 288.889 Q2192.88 288.889 2194.69 288.403 Q2196.52 287.893 2198.32 286.898 L2198.32 290.833 Q2196.54 291.667 2194.62 292.083 Q2192.72 292.5 2190.57 292.5 Q2184.71 292.5 2181.26 288.819 Q2177.81 285.139 2177.81 278.889 Q2177.81 272.546 2181.29 268.912 Q2184.78 265.278 2190.85 265.278 Q2192.81 265.278 2194.69 265.695 Q2196.56 266.088 2198.32 266.898 Z" fill="#000000" fill-rule="evenodd" fill-opacity="1" /><path clip-path="url(#clip570)" d="M 0 0 M2214.57 278.796 Q2209.41 278.796 2207.42 279.977 Q2205.43 281.157 2205.43 284.005 Q2205.43 286.273 2206.91 287.616 Q2208.41 288.935 2210.98 288.935 Q2214.53 288.935 2216.66 286.435 Q2218.81 283.912 2218.81 279.745 L2218.81 278.796 L2214.57 278.796 M2223.07 277.037 L2223.07 291.829 L2218.81 291.829 L2218.81 287.893 Q2217.35 290.255 2215.17 291.389 Q2213 292.5 2209.85 292.5 Q2205.87 292.5 2203.51 290.278 Q2201.17 288.032 2201.17 284.282 Q2201.17 279.907 2204.09 277.685 Q2207.03 275.463 2212.84 275.463 L2218.81 275.463 L2218.81 275.046 Q2218.81 272.107 2216.86 270.509 Q2214.94 268.889 2211.45 268.889 Q2209.22 268.889 2207.12 269.421 Q2205.01 269.954 2203.07 271.019 L2203.07 267.083 Q2205.41 266.181 2207.6 265.741 Q2209.8 265.278 2211.89 265.278 Q2217.51 265.278 2220.29 268.194 Q2223.07 271.111 2223.07 277.037 Z" fill="#000000" fill-rule="evenodd" fill-opacity="1" /><path clip-path="url(#clip570)" d="M 0 0 M2227.53 255.81 L2231.79 255.81 L2231.79 291.829 L2227.53 291.829 L2227.53 255.81 Z" fill="#000000" fill-rule="evenodd" fill-opacity="1" /></svg>
