<?xml version="1.0" encoding="utf-8"?>
<svg xmlns="http://www.w3.org/2000/svg" xmlns:xlink="http://www.w3.org/1999/xlink" width="600" height="400" viewBox="0 0 2400 1600">
<defs>
  <clipPath id="clip160">
    <rect x="0" y="0" width="2400" height="1600"/>
  </clipPath>
</defs>
<path clip-path="url(#clip160)" d="
M0 1600 L2400 1600 L2400 0 L0 0  Z
  " fill="#ffffff" fill-rule="evenodd" fill-opacity="1"/>
<defs>
  <clipPath id="clip161">
    <rect x="480" y="0" width="1681" height="1600"/>
  </clipPath>
</defs>
<path clip-path="url(#clip160)" d="
M238.13 1423.18 L2352.76 1423.18 L2352.76 47.2441 L238.13 47.2441  Z
  " fill="#ffffff" fill-rule="evenodd" fill-opacity="1"/>
<defs>
  <clipPath id="clip162">
    <rect x="238" y="47" width="2116" height="1377"/>
  </clipPath>
</defs>
<polyline clip-path="url(#clip162)" style="stroke:#000000; stroke-width:2; stroke-opacity:0.1; fill:none" points="
  297.978,1423.18 297.978,47.2441 
  "/>
<polyline clip-path="url(#clip162)" style="stroke:#000000; stroke-width:2; stroke-opacity:0.1; fill:none" points="
  867.958,1423.18 867.958,47.2441 
  "/>
<polyline clip-path="url(#clip162)" style="stroke:#000000; stroke-width:2; stroke-opacity:0.1; fill:none" points="
  1437.94,1423.18 1437.94,47.2441 
  "/>
<polyline clip-path="url(#clip162)" style="stroke:#000000; stroke-width:2; stroke-opacity:0.1; fill:none" points="
  2007.92,1423.18 2007.92,47.2441 
  "/>
<polyline clip-path="url(#clip160)" style="stroke:#000000; stroke-width:4; stroke-opacity:1; fill:none" points="
  238.13,1423.18 2352.76,1423.18 
  "/>
<polyline clip-path="url(#clip160)" style="stroke:#000000; stroke-width:4; stroke-opacity:1; fill:none" points="
  297.978,1423.18 297.978,1406.67 
  "/>
<polyline clip-path="url(#clip160)" style="stroke:#000000; stroke-width:4; stroke-opacity:1; fill:none" points="
  867.958,1423.18 867.958,1406.67 
  "/>
<polyline clip-path="url(#clip160)" style="stroke:#000000; stroke-width:4; stroke-opacity:1; fill:none" points="
  1437.94,1423.18 1437.94,1406.67 
  "/>
<polyline clip-path="url(#clip160)" style="stroke:#000000; stroke-width:4; stroke-opacity:1; fill:none" points="
  2007.92,1423.18 2007.92,1406.67 
  "/>
<path clip-path="url(#clip160)" d="M 0 0 M297.978 1452.37 Q294.367 1452.37 292.538 1455.94 Q290.733 1459.48 290.733 1466.61 Q290.733 1473.71 292.538 1477.28 Q294.367 1480.82 297.978 1480.82 Q301.612 1480.82 303.418 1477.28 Q305.246 1473.71 305.246 1466.61 Q305.246 1459.48 303.418 1455.94 Q301.612 1452.37 297.978 1452.37 M297.978 1448.67 Q303.788 1448.67 306.844 1453.27 Q309.922 1457.86 309.922 1466.61 Q309.922 1475.33 306.844 1479.94 Q303.788 1484.52 297.978 1484.52 Q292.168 1484.52 289.089 1479.94 Q286.034 1475.33 286.034 1466.61 Q286.034 1457.86 289.089 1453.27 Q292.168 1448.67 297.978 1448.67 Z" fill="#000000" fill-rule="evenodd" fill-opacity="1" /><path clip-path="url(#clip160)" d="M 0 0 M831.326 1479.92 L838.965 1479.92 L838.965 1453.55 L830.655 1455.22 L830.655 1450.96 L838.919 1449.29 L843.595 1449.29 L843.595 1479.92 L851.234 1479.92 L851.234 1483.85 L831.326 1483.85 L831.326 1479.92 Z" fill="#000000" fill-rule="evenodd" fill-opacity="1" /><path clip-path="url(#clip160)" d="M 0 0 M866.303 1452.37 Q862.692 1452.37 860.863 1455.94 Q859.058 1459.48 859.058 1466.61 Q859.058 1473.71 860.863 1477.28 Q862.692 1480.82 866.303 1480.82 Q869.937 1480.82 871.743 1477.28 Q873.571 1473.71 873.571 1466.61 Q873.571 1459.48 871.743 1455.94 Q869.937 1452.37 866.303 1452.37 M866.303 1448.67 Q872.113 1448.67 875.169 1453.27 Q878.247 1457.86 878.247 1466.61 Q878.247 1475.33 875.169 1479.94 Q872.113 1484.52 866.303 1484.52 Q860.493 1484.52 857.414 1479.94 Q854.359 1475.33 854.359 1466.61 Q854.359 1457.86 857.414 1453.27 Q860.493 1448.67 866.303 1448.67 Z" fill="#000000" fill-rule="evenodd" fill-opacity="1" /><path clip-path="url(#clip160)" d="M 0 0 M893.317 1452.37 Q889.706 1452.37 887.877 1455.94 Q886.071 1459.48 886.071 1466.61 Q886.071 1473.71 887.877 1477.28 Q889.706 1480.82 893.317 1480.82 Q896.951 1480.82 898.756 1477.28 Q900.585 1473.71 900.585 1466.61 Q900.585 1459.48 898.756 1455.94 Q896.951 1452.37 893.317 1452.37 M893.317 1448.67 Q899.127 1448.67 902.182 1453.27 Q905.261 1457.86 905.261 1466.61 Q905.261 1475.33 902.182 1479.94 Q899.127 1484.52 893.317 1484.52 Q887.506 1484.52 884.428 1479.94 Q881.372 1475.33 881.372 1466.61 Q881.372 1457.86 884.428 1453.27 Q887.506 1448.67 893.317 1448.67 Z" fill="#000000" fill-rule="evenodd" fill-opacity="1" /><path clip-path="url(#clip160)" d="M 0 0 M1405.58 1479.92 L1421.9 1479.92 L1421.9 1483.85 L1399.95 1483.85 L1399.95 1479.92 Q1402.61 1477.16 1407.2 1472.53 Q1411.8 1467.88 1412.98 1466.54 Q1415.23 1464.01 1416.11 1462.28 Q1417.01 1460.52 1417.01 1458.83 Q1417.01 1456.07 1415.07 1454.34 Q1413.15 1452.6 1410.04 1452.6 Q1407.85 1452.6 1405.39 1453.37 Q1402.96 1454.13 1400.18 1455.68 L1400.18 1450.96 Q1403.01 1449.82 1405.46 1449.25 Q1407.91 1448.67 1409.95 1448.67 Q1415.32 1448.67 1418.52 1451.35 Q1421.71 1454.04 1421.71 1458.53 Q1421.71 1460.66 1420.9 1462.58 Q1420.11 1464.48 1418.01 1467.07 Q1417.43 1467.74 1414.33 1470.96 Q1411.23 1474.15 1405.58 1479.92 Z" fill="#000000" fill-rule="evenodd" fill-opacity="1" /><path clip-path="url(#clip160)" d="M 0 0 M1436.97 1452.37 Q1433.35 1452.37 1431.53 1455.94 Q1429.72 1459.48 1429.72 1466.61 Q1429.72 1473.71 1431.53 1477.28 Q1433.35 1480.82 1436.97 1480.82 Q1440.6 1480.82 1442.41 1477.28 Q1444.23 1473.71 1444.23 1466.61 Q1444.23 1459.48 1442.41 1455.94 Q1440.6 1452.37 1436.97 1452.37 M1436.97 1448.67 Q1442.78 1448.67 1445.83 1453.27 Q1448.91 1457.86 1448.91 1466.61 Q1448.91 1475.33 1445.83 1479.94 Q1442.78 1484.52 1436.97 1484.52 Q1431.16 1484.52 1428.08 1479.94 Q1425.02 1475.33 1425.02 1466.61 Q1425.02 1457.86 1428.08 1453.27 Q1431.16 1448.67 1436.97 1448.67 Z" fill="#000000" fill-rule="evenodd" fill-opacity="1" /><path clip-path="url(#clip160)" d="M 0 0 M1463.98 1452.37 Q1460.37 1452.37 1458.54 1455.94 Q1456.73 1459.48 1456.73 1466.61 Q1456.73 1473.71 1458.54 1477.28 Q1460.37 1480.82 1463.98 1480.82 Q1467.61 1480.82 1469.42 1477.28 Q1471.25 1473.71 1471.25 1466.61 Q1471.25 1459.48 1469.42 1455.94 Q1467.61 1452.37 1463.98 1452.37 M1463.98 1448.67 Q1469.79 1448.67 1472.85 1453.27 Q1475.92 1457.86 1475.92 1466.61 Q1475.92 1475.33 1472.85 1479.94 Q1469.79 1484.52 1463.98 1484.52 Q1458.17 1484.52 1455.09 1479.94 Q1452.04 1475.33 1452.04 1466.61 Q1452.04 1457.86 1455.09 1453.27 Q1458.17 1448.67 1463.98 1448.67 Z" fill="#000000" fill-rule="evenodd" fill-opacity="1" /><path clip-path="url(#clip160)" d="M 0 0 M1985.15 1465.22 Q1988.51 1465.94 1990.38 1468.2 Q1992.28 1470.47 1992.28 1473.81 Q1992.28 1478.92 1988.76 1481.72 Q1985.24 1484.52 1978.76 1484.52 Q1976.59 1484.52 1974.27 1484.08 Q1971.98 1483.67 1969.53 1482.81 L1969.53 1478.3 Q1971.47 1479.43 1973.79 1480.01 Q1976.1 1480.59 1978.62 1480.59 Q1983.02 1480.59 1985.31 1478.85 Q1987.63 1477.12 1987.63 1473.81 Q1987.63 1470.75 1985.48 1469.04 Q1983.35 1467.3 1979.53 1467.3 L1975.5 1467.3 L1975.5 1463.46 L1979.71 1463.46 Q1983.16 1463.46 1984.99 1462.09 Q1986.82 1460.7 1986.82 1458.11 Q1986.82 1455.45 1984.92 1454.04 Q1983.05 1452.6 1979.53 1452.6 Q1977.61 1452.6 1975.41 1453.02 Q1973.21 1453.44 1970.57 1454.31 L1970.57 1450.15 Q1973.23 1449.41 1975.55 1449.04 Q1977.88 1448.67 1979.94 1448.67 Q1985.27 1448.67 1988.37 1451.1 Q1991.47 1453.5 1991.47 1457.63 Q1991.47 1460.5 1989.83 1462.49 Q1988.18 1464.45 1985.15 1465.22 Z" fill="#000000" fill-rule="evenodd" fill-opacity="1" /><path clip-path="url(#clip160)" d="M 0 0 M2007.35 1452.37 Q2003.74 1452.37 2001.91 1455.94 Q2000.11 1459.48 2000.11 1466.61 Q2000.11 1473.71 2001.91 1477.28 Q2003.74 1480.82 2007.35 1480.82 Q2010.99 1480.82 2012.79 1477.28 Q2014.62 1473.71 2014.62 1466.61 Q2014.62 1459.48 2012.79 1455.94 Q2010.99 1452.37 2007.35 1452.37 M2007.35 1448.67 Q2013.16 1448.67 2016.22 1453.27 Q2019.3 1457.86 2019.3 1466.61 Q2019.3 1475.33 2016.22 1479.94 Q2013.16 1484.52 2007.35 1484.52 Q2001.54 1484.52 1998.46 1479.94 Q1995.41 1475.33 1995.41 1466.61 Q1995.41 1457.86 1998.46 1453.27 Q2001.54 1448.67 2007.35 1448.67 Z" fill="#000000" fill-rule="evenodd" fill-opacity="1" /><path clip-path="url(#clip160)" d="M 0 0 M2034.36 1452.37 Q2030.75 1452.37 2028.92 1455.94 Q2027.12 1459.48 2027.12 1466.61 Q2027.12 1473.71 2028.92 1477.28 Q2030.75 1480.82 2034.36 1480.82 Q2038 1480.82 2039.8 1477.28 Q2041.63 1473.71 2041.63 1466.61 Q2041.63 1459.48 2039.8 1455.94 Q2038 1452.37 2034.36 1452.37 M2034.36 1448.67 Q2040.17 1448.67 2043.23 1453.27 Q2046.31 1457.86 2046.31 1466.61 Q2046.31 1475.33 2043.23 1479.94 Q2040.17 1484.52 2034.36 1484.52 Q2028.55 1484.52 2025.48 1479.94 Q2022.42 1475.33 2022.42 1466.61 Q2022.42 1457.86 2025.48 1453.27 Q2028.55 1448.67 2034.36 1448.67 Z" fill="#000000" fill-rule="evenodd" fill-opacity="1" /><path clip-path="url(#clip160)" d="M 0 0 M1312.06 1520.4 L1299.17 1537.74 L1312.73 1556.04 L1305.82 1556.04 L1295.44 1542.04 L1285.07 1556.04 L1278.16 1556.04 L1292.01 1537.39 L1279.34 1520.4 L1286.24 1520.4 L1295.7 1533.1 L1305.15 1520.4 L1312.06 1520.4 Z" fill="#000000" fill-rule="evenodd" fill-opacity="1" /><polyline clip-path="url(#clip162)" style="stroke:#000000; stroke-width:2; stroke-opacity:0.1; fill:none" points="
  238.13,1384.24 2352.76,1384.24 
  "/>
<polyline clip-path="url(#clip162)" style="stroke:#000000; stroke-width:2; stroke-opacity:0.1; fill:none" points="
  238.13,1091.26 2352.76,1091.26 
  "/>
<polyline clip-path="url(#clip162)" style="stroke:#000000; stroke-width:2; stroke-opacity:0.1; fill:none" points="
  238.13,798.291 2352.76,798.291 
  "/>
<polyline clip-path="url(#clip162)" style="stroke:#000000; stroke-width:2; stroke-opacity:0.1; fill:none" points="
  238.13,505.317 2352.76,505.317 
  "/>
<polyline clip-path="url(#clip162)" style="stroke:#000000; stroke-width:2; stroke-opacity:0.1; fill:none" points="
  238.13,212.343 2352.76,212.343 
  "/>
<polyline clip-path="url(#clip160)" style="stroke:#000000; stroke-width:4; stroke-opacity:1; fill:none" points="
  238.13,1423.18 238.13,47.2441 
  "/>
<polyline clip-path="url(#clip160)" style="stroke:#000000; stroke-width:4; stroke-opacity:1; fill:none" points="
  238.13,1384.24 263.506,1384.24 
  "/>
<polyline clip-path="url(#clip160)" style="stroke:#000000; stroke-width:4; stroke-opacity:1; fill:none" points="
  238.13,1091.26 263.506,1091.26 
  "/>
<polyline clip-path="url(#clip160)" style="stroke:#000000; stroke-width:4; stroke-opacity:1; fill:none" points="
  238.13,798.291 263.506,798.291 
  "/>
<polyline clip-path="url(#clip160)" style="stroke:#000000; stroke-width:4; stroke-opacity:1; fill:none" points="
  238.13,505.317 263.506,505.317 
  "/>
<polyline clip-path="url(#clip160)" style="stroke:#000000; stroke-width:4; stroke-opacity:1; fill:none" points="
  238.13,212.343 263.506,212.343 
  "/>
<path clip-path="url(#clip160)" d="M 0 0 M126.205 1370.04 Q122.593 1370.04 120.765 1373.6 Q118.959 1377.14 118.959 1384.27 Q118.959 1391.38 120.765 1394.94 Q122.593 1398.49 126.205 1398.49 Q129.839 1398.49 131.644 1394.94 Q133.473 1391.38 133.473 1384.27 Q133.473 1377.14 131.644 1373.6 Q129.839 1370.04 126.205 1370.04 M126.205 1366.33 Q132.015 1366.33 135.07 1370.94 Q138.149 1375.52 138.149 1384.27 Q138.149 1393 135.07 1397.61 Q132.015 1402.19 126.205 1402.19 Q120.394 1402.19 117.316 1397.61 Q114.26 1393 114.26 1384.27 Q114.26 1375.52 117.316 1370.94 Q120.394 1366.33 126.205 1366.33 Z" fill="#000000" fill-rule="evenodd" fill-opacity="1" /><path clip-path="url(#clip160)" d="M 0 0 M143.218 1395.64 L148.103 1395.64 L148.103 1401.52 L143.218 1401.52 L143.218 1395.64 Z" fill="#000000" fill-rule="evenodd" fill-opacity="1" /><path clip-path="url(#clip160)" d="M 0 0 M163.172 1370.04 Q159.561 1370.04 157.732 1373.6 Q155.927 1377.14 155.927 1384.27 Q155.927 1391.38 157.732 1394.94 Q159.561 1398.49 163.172 1398.49 Q166.806 1398.49 168.612 1394.94 Q170.44 1391.38 170.44 1384.27 Q170.44 1377.14 168.612 1373.6 Q166.806 1370.04 163.172 1370.04 M163.172 1366.33 Q168.982 1366.33 172.038 1370.94 Q175.116 1375.52 175.116 1384.27 Q175.116 1393 172.038 1397.61 Q168.982 1402.19 163.172 1402.19 Q157.362 1402.19 154.283 1397.61 Q151.228 1393 151.228 1384.27 Q151.228 1375.52 154.283 1370.94 Q157.362 1366.33 163.172 1366.33 Z" fill="#000000" fill-rule="evenodd" fill-opacity="1" /><path clip-path="url(#clip160)" d="M 0 0 M190.186 1370.04 Q186.575 1370.04 184.746 1373.6 Q182.94 1377.14 182.94 1384.27 Q182.94 1391.38 184.746 1394.94 Q186.575 1398.49 190.186 1398.49 Q193.82 1398.49 195.625 1394.94 Q197.454 1391.38 197.454 1384.27 Q197.454 1377.14 195.625 1373.6 Q193.82 1370.04 190.186 1370.04 M190.186 1366.33 Q195.996 1366.33 199.051 1370.94 Q202.13 1375.52 202.13 1384.27 Q202.13 1393 199.051 1397.61 Q195.996 1402.19 190.186 1402.19 Q184.376 1402.19 181.297 1397.61 Q178.241 1393 178.241 1384.27 Q178.241 1375.52 181.297 1370.94 Q184.376 1366.33 190.186 1366.33 Z" fill="#000000" fill-rule="evenodd" fill-opacity="1" /><path clip-path="url(#clip160)" d="M 0 0 M128.797 1077.06 Q125.186 1077.06 123.357 1080.63 Q121.552 1084.17 121.552 1091.3 Q121.552 1098.41 123.357 1101.97 Q125.186 1105.51 128.797 1105.51 Q132.431 1105.51 134.237 1101.97 Q136.066 1098.41 136.066 1091.3 Q136.066 1084.17 134.237 1080.63 Q132.431 1077.06 128.797 1077.06 M128.797 1073.36 Q134.607 1073.36 137.663 1077.97 Q140.741 1082.55 140.741 1091.3 Q140.741 1100.03 137.663 1104.63 Q134.607 1109.22 128.797 1109.22 Q122.987 1109.22 119.908 1104.63 Q116.853 1100.03 116.853 1091.3 Q116.853 1082.55 119.908 1077.97 Q122.987 1073.36 128.797 1073.36 Z" fill="#000000" fill-rule="evenodd" fill-opacity="1" /><path clip-path="url(#clip160)" d="M 0 0 M145.811 1102.66 L150.695 1102.66 L150.695 1108.54 L145.811 1108.54 L145.811 1102.66 Z" fill="#000000" fill-rule="evenodd" fill-opacity="1" /><path clip-path="url(#clip160)" d="M 0 0 M159.792 1104.61 L176.112 1104.61 L176.112 1108.54 L154.167 1108.54 L154.167 1104.61 Q156.829 1101.85 161.413 1097.23 Q166.019 1092.57 167.2 1091.23 Q169.445 1088.71 170.325 1086.97 Q171.227 1085.21 171.227 1083.52 Q171.227 1080.77 169.283 1079.03 Q167.362 1077.29 164.26 1077.29 Q162.061 1077.29 159.607 1078.06 Q157.177 1078.82 154.399 1080.37 L154.399 1075.65 Q157.223 1074.52 159.677 1073.94 Q162.13 1073.36 164.167 1073.36 Q169.538 1073.36 172.732 1076.04 Q175.926 1078.73 175.926 1083.22 Q175.926 1085.35 175.116 1087.27 Q174.329 1089.17 172.223 1091.76 Q171.644 1092.43 168.542 1095.65 Q165.44 1098.85 159.792 1104.61 Z" fill="#000000" fill-rule="evenodd" fill-opacity="1" /><path clip-path="url(#clip160)" d="M 0 0 M181.227 1073.98 L199.584 1073.98 L199.584 1077.92 L185.51 1077.92 L185.51 1086.39 Q186.528 1086.04 187.547 1085.88 Q188.565 1085.7 189.584 1085.7 Q195.371 1085.7 198.75 1088.87 Q202.13 1092.04 202.13 1097.46 Q202.13 1103.04 198.658 1106.14 Q195.186 1109.22 188.866 1109.22 Q186.69 1109.22 184.422 1108.85 Q182.176 1108.48 179.769 1107.73 L179.769 1103.04 Q181.852 1104.17 184.075 1104.73 Q186.297 1105.28 188.774 1105.28 Q192.778 1105.28 195.116 1103.17 Q197.454 1101.07 197.454 1097.46 Q197.454 1093.85 195.116 1091.74 Q192.778 1089.63 188.774 1089.63 Q186.899 1089.63 185.024 1090.05 Q183.172 1090.47 181.227 1091.35 L181.227 1073.98 Z" fill="#000000" fill-rule="evenodd" fill-opacity="1" /><path clip-path="url(#clip160)" d="M 0 0 M127.2 784.089 Q123.589 784.089 121.76 787.654 Q119.955 791.196 119.955 798.325 Q119.955 805.432 121.76 808.997 Q123.589 812.538 127.2 812.538 Q130.834 812.538 132.64 808.997 Q134.468 805.432 134.468 798.325 Q134.468 791.196 132.64 787.654 Q130.834 784.089 127.2 784.089 M127.2 780.386 Q133.01 780.386 136.066 784.992 Q139.144 789.575 139.144 798.325 Q139.144 807.052 136.066 811.659 Q133.01 816.242 127.2 816.242 Q121.39 816.242 118.311 811.659 Q115.256 807.052 115.256 798.325 Q115.256 789.575 118.311 784.992 Q121.39 780.386 127.2 780.386 Z" fill="#000000" fill-rule="evenodd" fill-opacity="1" /><path clip-path="url(#clip160)" d="M 0 0 M144.214 809.691 L149.098 809.691 L149.098 815.571 L144.214 815.571 L144.214 809.691 Z" fill="#000000" fill-rule="evenodd" fill-opacity="1" /><path clip-path="url(#clip160)" d="M 0 0 M154.214 781.011 L172.57 781.011 L172.57 784.946 L158.496 784.946 L158.496 793.418 Q159.515 793.071 160.533 792.909 Q161.552 792.724 162.57 792.724 Q168.357 792.724 171.737 795.895 Q175.116 799.066 175.116 804.483 Q175.116 810.061 171.644 813.163 Q168.172 816.242 161.852 816.242 Q159.677 816.242 157.408 815.872 Q155.163 815.501 152.755 814.76 L152.755 810.061 Q154.839 811.196 157.061 811.751 Q159.283 812.307 161.76 812.307 Q165.765 812.307 168.102 810.2 Q170.44 808.094 170.44 804.483 Q170.44 800.872 168.102 798.765 Q165.765 796.659 161.76 796.659 Q159.885 796.659 158.01 797.075 Q156.158 797.492 154.214 798.372 L154.214 781.011 Z" fill="#000000" fill-rule="evenodd" fill-opacity="1" /><path clip-path="url(#clip160)" d="M 0 0 M190.186 784.089 Q186.575 784.089 184.746 787.654 Q182.94 791.196 182.94 798.325 Q182.94 805.432 184.746 808.997 Q186.575 812.538 190.186 812.538 Q193.82 812.538 195.625 808.997 Q197.454 805.432 197.454 798.325 Q197.454 791.196 195.625 787.654 Q193.82 784.089 190.186 784.089 M190.186 780.386 Q195.996 780.386 199.051 784.992 Q202.13 789.575 202.13 798.325 Q202.13 807.052 199.051 811.659 Q195.996 816.242 190.186 816.242 Q184.376 816.242 181.297 811.659 Q178.241 807.052 178.241 798.325 Q178.241 789.575 181.297 784.992 Q184.376 780.386 190.186 780.386 Z" fill="#000000" fill-rule="evenodd" fill-opacity="1" /><path clip-path="url(#clip160)" d="M 0 0 M128.103 491.116 Q124.492 491.116 122.663 494.68 Q120.857 498.222 120.857 505.352 Q120.857 512.458 122.663 516.023 Q124.492 519.564 128.103 519.564 Q131.737 519.564 133.542 516.023 Q135.371 512.458 135.371 505.352 Q135.371 498.222 133.542 494.68 Q131.737 491.116 128.103 491.116 M128.103 487.412 Q133.913 487.412 136.968 492.018 Q140.047 496.602 140.047 505.352 Q140.047 514.078 136.968 518.685 Q133.913 523.268 128.103 523.268 Q122.293 523.268 119.214 518.685 Q116.158 514.078 116.158 505.352 Q116.158 496.602 119.214 492.018 Q122.293 487.412 128.103 487.412 Z" fill="#000000" fill-rule="evenodd" fill-opacity="1" /><path clip-path="url(#clip160)" d="M 0 0 M145.116 516.717 L150.001 516.717 L150.001 522.597 L145.116 522.597 L145.116 516.717 Z" fill="#000000" fill-rule="evenodd" fill-opacity="1" /><path clip-path="url(#clip160)" d="M 0 0 M153.89 488.037 L176.112 488.037 L176.112 490.028 L163.565 522.597 L158.681 522.597 L170.487 491.972 L153.89 491.972 L153.89 488.037 Z" fill="#000000" fill-rule="evenodd" fill-opacity="1" /><path clip-path="url(#clip160)" d="M 0 0 M181.227 488.037 L199.584 488.037 L199.584 491.972 L185.51 491.972 L185.51 500.444 Q186.528 500.097 187.547 499.935 Q188.565 499.75 189.584 499.75 Q195.371 499.75 198.75 502.921 Q202.13 506.092 202.13 511.509 Q202.13 517.088 198.658 520.189 Q195.186 523.268 188.866 523.268 Q186.69 523.268 184.422 522.898 Q182.176 522.527 179.769 521.787 L179.769 517.088 Q181.852 518.222 184.075 518.777 Q186.297 519.333 188.774 519.333 Q192.778 519.333 195.116 517.226 Q197.454 515.12 197.454 511.509 Q197.454 507.898 195.116 505.791 Q192.778 503.685 188.774 503.685 Q186.899 503.685 185.024 504.102 Q183.172 504.518 181.227 505.398 L181.227 488.037 Z" fill="#000000" fill-rule="evenodd" fill-opacity="1" /><path clip-path="url(#clip160)" d="M 0 0 M118.242 225.688 L125.88 225.688 L125.88 199.322 L117.57 200.989 L117.57 196.73 L125.834 195.063 L130.51 195.063 L130.51 225.688 L138.149 225.688 L138.149 229.623 L118.242 229.623 L118.242 225.688 Z" fill="#000000" fill-rule="evenodd" fill-opacity="1" /><path clip-path="url(#clip160)" d="M 0 0 M143.218 223.743 L148.103 223.743 L148.103 229.623 L143.218 229.623 L143.218 223.743 Z" fill="#000000" fill-rule="evenodd" fill-opacity="1" /><path clip-path="url(#clip160)" d="M 0 0 M163.172 198.142 Q159.561 198.142 157.732 201.707 Q155.927 205.248 155.927 212.378 Q155.927 219.484 157.732 223.049 Q159.561 226.591 163.172 226.591 Q166.806 226.591 168.612 223.049 Q170.44 219.484 170.44 212.378 Q170.44 205.248 168.612 201.707 Q166.806 198.142 163.172 198.142 M163.172 194.438 Q168.982 194.438 172.038 199.044 Q175.116 203.628 175.116 212.378 Q175.116 221.105 172.038 225.711 Q168.982 230.294 163.172 230.294 Q157.362 230.294 154.283 225.711 Q151.228 221.105 151.228 212.378 Q151.228 203.628 154.283 199.044 Q157.362 194.438 163.172 194.438 Z" fill="#000000" fill-rule="evenodd" fill-opacity="1" /><path clip-path="url(#clip160)" d="M 0 0 M190.186 198.142 Q186.575 198.142 184.746 201.707 Q182.94 205.248 182.94 212.378 Q182.94 219.484 184.746 223.049 Q186.575 226.591 190.186 226.591 Q193.82 226.591 195.625 223.049 Q197.454 219.484 197.454 212.378 Q197.454 205.248 195.625 201.707 Q193.82 198.142 190.186 198.142 M190.186 194.438 Q195.996 194.438 199.051 199.044 Q202.13 203.628 202.13 212.378 Q202.13 221.105 199.051 225.711 Q195.996 230.294 190.186 230.294 Q184.376 230.294 181.297 225.711 Q178.241 221.105 178.241 212.378 Q178.241 203.628 181.297 199.044 Q184.376 194.438 190.186 194.438 Z" fill="#000000" fill-rule="evenodd" fill-opacity="1" /><path clip-path="url(#clip160)" d="M 0 0 M70.212 745.095 Q76.6732 745.095 80.3653 742.453 Q84.0256 739.779 84.0256 735.132 Q84.0256 730.485 80.3653 727.812 Q76.6732 725.138 70.212 725.138 Q63.7508 725.138 60.0905 727.812 Q56.3984 730.485 56.3984 735.132 Q56.3984 739.779 60.0905 742.453 Q63.7508 745.095 70.212 745.095 M82.657 725.138 Q85.8398 726.984 87.3994 729.817 Q88.9272 732.618 88.9272 736.565 Q88.9272 743.026 83.771 747.1 Q78.6147 751.142 70.212 751.142 Q61.8093 751.142 56.6531 747.1 Q51.4968 743.026 51.4968 736.565 Q51.4968 732.618 53.0564 729.817 Q54.5842 726.984 57.7671 725.138 L52.3562 725.138 L52.3562 719.282 L101.563 719.282 L101.563 725.138 L82.657 725.138 Z" fill="#000000" fill-rule="evenodd" fill-opacity="1" /><polyline clip-path="url(#clip162)" style="stroke:#009af9; stroke-width:4; stroke-opacity:1; fill:none" points="
  297.978,1384.24 300.669,1384.24 305.771,1384.24 310.872,1384.24 313.563,1384.24 316.255,1384.24 321.356,1384.24 326.458,1384.24 329.149,1384.24 
  331.84,1384.24 336.941,1384.24 342.043,1384.24 344.734,1384.24 347.425,1384.24 352.527,1384.24 357.628,1384.24 360.32,1384.24 
  363.011,1384.24 368.112,1384.24 373.214,1384.24 375.905,1384.24 378.596,1384.24 383.698,1384.24 388.799,1384.24 391.49,1384.24 
  394.181,1384.24 399.283,1384.24 404.385,1384.24 407.076,1384.24 409.767,1384.24 414.868,1384.24 419.97,1384.24 422.661,1384.24 
  425.352,1384.24 430.454,1384.24 435.555,1384.24 438.246,1384.24 440.938,1384.24 446.039,1384.24 451.141,1384.24 453.832,1384.24 
  456.523,1384.24 461.625,1384.24 466.726,1384.24 469.417,1384.24 472.108,1384.24 477.21,1384.24 482.311,1384.24 485.003,1384.24 
  487.694,1384.24 492.795,1384.24 497.897,1384.24 500.588,1384.24 503.279,1384.24 508.381,1384.24 513.482,1384.24 516.173,1384.24 
  518.865,1384.24 523.966,1384.24 529.068,1384.24 531.759,1384.24 534.45,1384.24 539.552,1384.24 544.653,1384.24 547.344,1384.24 
  550.035,1384.24 555.137,1384.24 560.238,1384.24 562.93,1384.24 565.621,1384.24 570.722,1384.24 575.824,1384.24 578.515,1384.24 
  581.206,1384.24 586.308,1384.24 591.409,1384.24 594.1,1384.24 596.792,1384.24 601.893,1384.24 606.995,1384.24 609.686,1384.24 
  612.377,1384.24 617.478,1384.24 622.58,1384.24 625.271,1384.24 627.962,1384.24 633.064,1384.24 638.165,1384.24 640.857,1384.24 
  643.548,1384.24 648.649,1384.24 653.751,1384.24 656.442,1384.24 659.133,1384.24 664.235,1384.24 669.336,1384.24 672.027,1384.24 
  674.719,1384.24 679.82,1384.24 684.922,1384.24 687.613,1384.24 690.304,1384.24 695.405,1384.24 700.507,1384.24 703.198,1384.24 
  705.889,1384.24 710.991,1384.24 716.092,1384.24 718.784,1384.24 721.475,1384.24 726.576,212.343 731.678,212.343 734.369,212.343 
  737.06,212.343 742.162,212.343 747.263,212.343 749.954,212.343 752.645,212.343 757.747,212.343 762.849,212.343 765.54,212.343 
  768.231,212.343 773.332,212.343 778.434,212.343 781.125,212.343 783.816,212.343 788.918,212.343 794.019,212.343 796.71,212.343 
  799.402,212.343 804.503,212.343 809.605,212.343 812.296,212.343 814.987,212.343 820.089,212.343 825.19,212.343 827.881,212.343 
  830.572,212.343 835.674,212.343 840.775,212.343 843.467,212.343 846.158,212.343 851.259,212.343 856.361,212.343 859.052,212.343 
  861.743,212.343 866.845,212.343 871.946,212.343 874.637,212.343 877.329,212.343 882.43,212.343 887.532,212.343 890.223,212.343 
  892.914,212.343 898.016,212.343 903.117,212.343 905.808,212.343 908.499,212.343 913.601,212.343 918.702,212.343 921.394,212.343 
  924.085,212.343 929.186,212.343 934.288,212.343 936.979,212.343 939.67,212.343 944.772,212.343 949.873,212.343 952.564,212.343 
  955.256,212.343 960.357,212.343 965.459,212.343 968.15,212.343 970.841,212.343 975.942,212.343 981.044,212.343 983.735,212.343 
  986.426,212.343 991.528,212.343 996.629,212.343 999.321,212.343 1002.01,212.343 1007.11,212.343 1012.21,1384.24 1014.91,1384.24 
  1017.6,1384.24 1022.7,1384.24 1027.8,1384.24 1030.49,1384.24 1033.18,1384.24 1038.28,1384.24 1043.39,1384.24 1046.08,1384.24 
  1048.77,1384.24 1053.87,1384.24 1058.97,1384.24 1061.66,1384.24 1064.35,1384.24 1069.45,1384.24 1074.56,1384.24 1077.25,1384.24 
  1079.94,1384.24 1085.04,1384.24 1090.14,1384.24 1092.83,1384.24 1095.52,1384.24 1100.63,1384.24 1105.73,1384.24 1108.42,1384.24 
  1111.11,1384.24 1116.21,1384.24 1121.31,1384.24 1124,1384.24 1126.69,1384.24 1131.8,1384.24 1136.9,1384.24 1139.59,1384.24 
  1142.28,1384.24 1147.38,1384.24 1152.48,1384.24 1155.17,1384.24 1157.87,1384.24 1162.97,1384.24 1168.07,1384.24 1170.76,1384.24 
  1173.45,1384.24 1178.55,1384.24 1183.65,1384.24 1186.35,1384.24 1189.04,1384.24 1194.14,1384.24 1199.24,1384.24 1201.93,1384.24 
  1204.62,1384.24 1209.72,1384.24 1214.82,1384.24 1217.52,1384.24 1220.21,1384.24 1225.31,1384.24 1230.41,1384.24 1233.1,1384.24 
  1235.79,1384.24 1240.89,1384.24 1246,1384.24 1248.69,1384.24 1251.38,1384.24 1256.48,1384.24 1261.58,1384.24 1264.27,1384.24 
  1266.96,1384.24 1272.06,1384.24 1277.17,1384.24 1279.86,1384.24 1282.55,1384.24 1287.65,1384.24 1292.75,1384.24 1295.44,1384.24 
  1298.13,1384.24 1303.24,1384.24 1308.34,1384.24 1311.03,1384.24 1313.72,1384.24 1318.82,1384.24 1323.92,1384.24 1326.61,1384.24 
  1329.3,1384.24 1334.41,1384.24 1339.51,1384.24 1342.2,1384.24 1344.89,1384.24 1349.99,1384.24 1355.09,1384.24 1357.78,1384.24 
  1360.48,1384.24 1365.58,1384.24 1370.68,1384.24 1373.37,1384.24 1376.06,1384.24 1381.16,1384.24 1386.26,1384.24 1388.96,1384.24 
  1391.65,1384.24 1396.75,1384.24 1401.85,1384.24 1404.54,1384.24 1407.23,1384.24 1412.33,1384.24 1417.43,1384.24 1420.13,1384.24 
  1422.82,1384.24 1427.92,1384.24 1433.02,1384.24 1435.71,1384.24 1438.4,1384.24 1443.5,1384.24 1448.61,1384.24 1451.3,1384.24 
  1453.99,1384.24 1459.09,1384.24 1464.19,1384.24 1466.88,1384.24 1469.57,1384.24 1474.67,1384.24 1479.78,1384.24 1482.47,1384.24 
  1485.16,1384.24 1490.26,1384.24 1495.36,1384.24 1498.05,1384.24 1500.74,1384.24 1505.85,1384.24 1510.95,1384.24 1513.64,1384.24 
  1516.33,1384.24 1521.43,1384.24 1526.53,1384.24 1529.22,1384.24 1531.92,1384.24 1537.02,1384.24 1542.12,1384.24 1544.81,1384.24 
  1547.5,1384.24 1552.6,1384.24 1557.7,1384.24 1560.39,1384.24 1563.09,1384.24 1568.19,1384.24 1573.29,1384.24 1575.98,1384.24 
  1578.67,1384.24 1583.77,1384.24 1588.87,1384.24 1591.57,1384.24 1594.26,1384.24 1599.36,1384.24 1604.46,1384.24 1607.15,1384.24 
  1609.84,1384.24 1614.94,1384.24 1620.05,1384.24 1622.74,1384.24 1625.43,1384.24 1630.53,1384.24 1635.63,1384.24 1638.32,1384.24 
  1641.01,1384.24 1646.11,1384.24 1651.22,1384.24 1653.91,1384.24 1656.6,1384.24 1661.7,1384.24 1666.8,1384.24 1669.49,1384.24 
  1672.18,1384.24 1677.29,1384.24 1682.39,1384.24 1685.08,1384.24 1687.77,1384.24 1692.87,1384.24 1697.97,1384.24 1700.66,1384.24 
  1703.35,1384.24 1708.46,1384.24 1713.56,1384.24 1716.25,1384.24 1718.94,1384.24 1724.04,1384.24 1729.14,1384.24 1731.83,1384.24 
  1734.53,1384.24 1739.63,1384.24 1744.73,1384.24 1747.42,1384.24 1750.11,1384.24 1755.21,1384.24 1760.31,1384.24 1763,1384.24 
  1765.7,1384.24 1770.8,1384.24 1775.9,1384.24 1778.59,1384.24 1781.28,1384.24 1786.38,1384.24 1791.48,1384.24 1794.18,1384.24 
  1796.87,1384.24 1801.97,1384.24 1807.07,1384.24 1809.76,1384.24 1812.45,1384.24 1817.55,1384.24 1822.66,1384.24 1825.35,1384.24 
  1828.04,1384.24 1833.14,1384.24 1838.24,1384.24 1840.93,1384.24 1843.62,1384.24 1848.72,1384.24 1853.83,1384.24 1856.52,1384.24 
  1859.21,1384.24 1864.31,1384.24 1869.41,1384.24 1872.1,1384.24 1874.79,1384.24 1879.9,1384.24 1885,1384.24 1887.69,1384.24 
  1890.38,1384.24 1895.48,1384.24 1900.58,1384.24 1903.27,1384.24 1905.96,1384.24 1911.07,1384.24 1916.17,1384.24 1918.86,1384.24 
  1921.55,1384.24 1926.65,1384.24 1931.75,1384.24 1934.44,1384.24 1937.14,1384.24 1942.24,1384.24 1947.34,1384.24 1950.03,1384.24 
  1952.72,1384.24 1957.82,1384.24 1962.92,1384.24 1965.61,1384.24 1968.31,1384.24 1973.41,1384.24 1978.51,1384.24 1981.2,1384.24 
  1983.89,1384.24 1988.99,1384.24 1994.09,1384.24 1996.79,1384.24 1999.48,1384.24 2004.58,1384.24 2009.68,1384.24 2012.37,1384.24 
  2015.06,1384.24 2020.16,1384.24 2025.27,1384.24 2027.96,1384.24 2030.65,1384.24 2035.75,1384.24 2040.85,1384.24 2043.54,1384.24 
  2046.23,1384.24 2051.33,1384.24 2056.44,1384.24 2059.13,1384.24 2061.82,1384.24 2066.92,1384.24 2072.02,1384.24 2074.71,1384.24 
  2077.4,1384.24 2082.51,1384.24 2087.61,1384.24 2090.3,1384.24 2092.99,1384.24 2098.09,1384.24 2103.19,1384.24 2105.88,1384.24 
  2108.57,1384.24 2113.68,1384.24 2118.78,1384.24 2121.47,1384.24 2124.16,1384.24 2129.26,1384.24 2134.36,1384.24 2137.05,1384.24 
  2139.75,1384.24 2144.85,1384.24 2149.95,1384.24 2152.64,1384.24 2155.33,1384.24 2160.43,1384.24 2165.53,1384.24 2168.22,1384.24 
  2170.92,1384.24 2176.02,1384.24 2181.12,1384.24 2183.81,1384.24 2186.5,1384.24 2191.6,1384.24 2196.7,1384.24 2199.4,1384.24 
  2202.09,1384.24 2207.19,1384.24 2212.29,1384.24 2214.98,1384.24 2217.67,1384.24 2222.77,1384.24 2227.88,1384.24 2230.57,1384.24 
  2233.26,1384.24 2238.36,1384.24 2243.46,1384.24 2246.15,1384.24 2248.84,1384.24 2253.94,1384.24 2259.05,1384.24 2261.74,1384.24 
  2264.43,1384.24 2269.53,1384.24 2274.63,1384.24 2277.32,1384.24 2280.01,1384.24 2285.12,1384.24 2290.22,1384.24 2292.91,1384.24 
  
  "/>
<polyline clip-path="url(#clip162)" style="stroke:#e26f46; stroke-width:4; stroke-opacity:1; fill:none" points="
  297.978,1384.24 300.669,1384.24 305.771,1384.24 310.872,1384.24 313.563,1384.24 316.255,1384.24 321.356,1384.24 326.458,1384.24 329.149,1384.24 
  331.84,1384.24 336.941,1384.24 342.043,1384.24 344.734,1384.24 347.425,1384.24 352.527,1384.24 357.628,1384.24 360.32,1384.24 
  363.011,1384.24 368.112,1384.24 373.214,1384.24 375.905,1384.24 378.596,1384.24 383.698,1384.24 388.799,1384.24 391.49,1384.24 
  394.181,1384.24 399.283,1384.24 404.385,1384.24 407.076,1384.24 409.767,1384.24 414.868,1384.24 419.97,1384.24 422.661,1384.24 
  425.352,1384.24 430.454,1384.24 435.555,1384.24 438.246,1384.24 440.938,1384.24 446.039,1384.24 451.141,1384.24 453.832,1384.24 
  456.523,1384.24 461.625,1384.24 466.726,1384.24 469.417,1384.24 472.108,1384.24 477.21,1384.24 482.311,1384.24 485.003,1384.24 
  487.694,1384.24 492.795,1384.24 497.897,1384.24 500.588,1384.24 503.279,1384.24 508.381,1384.24 513.482,1384.24 516.173,1384.24 
  518.865,1384.24 523.966,1384.24 529.068,1384.24 531.759,1384.24 534.45,1384.24 539.552,1384.24 544.653,1384.24 547.344,1384.24 
  550.035,1384.24 555.137,1384.24 560.238,1384.24 562.93,1384.24 565.621,1384.24 570.722,1384.24 575.824,1384.24 578.515,1384.24 
  581.206,1384.24 586.308,1384.24 591.409,1384.24 594.1,1384.24 596.792,1384.24 601.893,1384.24 606.995,1384.24 609.686,1384.24 
  612.377,1384.24 617.478,1384.24 622.58,1384.24 625.271,1384.24 627.962,1384.24 633.064,1384.24 638.165,1384.24 640.857,1384.24 
  643.548,1384.24 648.649,1384.24 653.751,1384.24 656.442,1384.24 659.133,1384.24 664.235,1384.24 669.336,1384.24 672.027,1384.24 
  674.719,1384.24 679.82,1384.24 684.922,1384.24 687.613,1384.24 690.304,1384.24 695.405,1384.24 700.507,1384.24 703.198,1384.24 
  705.889,1384.24 710.991,1384.24 716.092,1384.24 718.784,1384.24 721.475,1384.24 726.576,1384.24 731.678,1384.24 734.369,1384.24 
  737.06,1384.24 742.162,1384.24 747.263,1384.24 749.954,1384.24 752.645,1384.24 757.747,1384.24 762.849,1384.24 765.54,1384.24 
  768.231,1384.24 773.332,1384.24 778.434,1384.24 781.125,1384.24 783.816,1384.24 788.918,1384.24 794.019,1384.24 796.71,1384.24 
  799.402,1384.24 804.503,1384.24 809.605,1384.24 812.296,1384.24 814.987,1384.24 820.089,1384.24 825.19,1384.24 827.881,1384.24 
  830.572,1384.24 835.674,1384.24 840.775,1384.24 843.467,1384.24 846.158,1384.24 851.259,1384.24 856.361,1384.24 859.052,1384.24 
  861.743,1384.24 866.845,1384.24 871.946,1384.24 874.637,1384.24 877.329,1384.24 882.43,1384.24 887.532,1384.24 890.223,1384.24 
  892.914,1384.24 898.016,1384.24 903.117,1384.24 905.808,1384.24 908.499,1384.24 913.601,1384.24 918.702,1384.24 921.394,1384.24 
  924.085,1384.24 929.186,1384.24 934.288,1384.24 936.979,1384.24 936.979,1384.24 939.67,1384.24 944.772,1384.24 949.873,1384.24 952.564,1384.24 
  952.564,1384.24 955.256,1384.24 960.357,1384.24 965.459,1384.24 968.15,1384.24 968.15,1384.24 970.841,1384.24 975.942,1384.24 981.044,1384.24 983.735,1384.24 
  983.735,1384.24 986.426,1384.24 991.528,1384.24 996.629,1384.24 999.321,1384.24 999.321,1384.24 1002.01,1384.24 1007.11,1384.24 1012.21,1384.24 1014.91,1384.24 
  1014.91,1384.24 1017.6,1384.24 1022.7,1384.24 1027.8,1384.24 1030.49,1384.24 1030.49,1384.24 1033.18,1384.24 1038.28,1384.24 1043.39,1384.24 1046.08,1384.24 
  1046.08,1384.24 1048.77,1384.24 1053.87,1384.24 1058.97,1384.24 1061.66,1384.24 1061.66,1384.24 1064.35,1384.24 1069.45,1384.24 1074.56,1384.24 1077.25,1384.24 
  1077.25,1384.24 1079.94,1384.24 1085.04,1384.24 1090.14,1384.24 1092.83,1384.24 1092.83,1384.24 1095.52,1384.24 1100.63,1384.24 1105.73,1384.24 1108.42,1384.24 
  1108.42,1384.24 1111.11,1384.24 1116.21,1384.24 1121.31,1384.24 1124,1384.24 1124,1384.24 1126.69,1384.24 1131.8,1384.24 1136.9,1384.24 1139.59,1384.24 
  1139.59,1384.24 1142.28,1384.24 1147.38,1384.24 1152.48,1384.24 1155.17,1384.21 1155.17,1384.24 1157.87,1384.24 1162.97,1384.24 1168.07,1384.23 1170.76,1384.24 
  1170.76,1384.11 1173.45,1384.24 1178.55,1384.15 1183.65,1384.24 1186.35,1383.81 1186.35,1384.24 1189.04,1383.99 1194.14,1384.24 1199.24,1383.84 1201.93,1384.24 
  1201.93,1382.5 1204.62,1384.24 1209.72,1382.61 1214.82,1382.89 1217.52,1381.41 1217.52,1382.54 1220.21,1381.59 1225.31,1382.55 1230.41,1383.51 1233.1,1381.72 
  1233.1,1384.24 1235.79,1382.57 1240.89,1383.52 1246,1378.84 1248.69,1381.96 1248.69,1375.54 1251.38,1379.33 1256.48,1378.29 1261.58,1382.95 1264.27,1377.42 
  1264.27,1384.24 1266.96,1381.22 1272.06,1384.24 1277.17,1380.05 1279.86,1384.24 1279.86,1370.67 1282.55,1384.24 1287.65,1318.48 1292.75,1086.84 1295.44,885.467 
  1295.44,902.82 1298.13,691.376 1303.24,380.11 1308.34,196.456 1311.03,165.279 1311.03,159.606 1313.72,160.883 1318.82,198.411 1323.92,221.988 1326.61,214.627 
  1326.61,217.923 1329.3,209.526 1334.41,217.203 1339.51,238.062 1342.2,226.242 1342.2,237.541 1344.89,215.635 1349.99,198.087 1355.09,200.435 1357.78,216.678 
  1357.78,202.782 1360.48,212.238 1365.58,196.284 1370.68,214.723 1373.37,226.669 1373.37,232.77 1376.06,239.237 1381.16,228.145 1386.26,196.578 1388.96,202 
  1388.96,193.099 1391.65,206.636 1396.75,211.373 1401.85,194.215 1404.54,192.276 1404.54,190.482 1407.23,202.409 1412.33,236.338 1417.43,241.465 1420.13,211.583 
  1420.13,228.124 1422.82,198.796 1427.92,204.277 1433.02,215.459 1435.71,218.286 1435.71,207.756 1438.4,201.105 1443.5,183.047 1448.61,224.713 1451.3,241.137 
  1451.3,248.644 1453.99,249.325 1459.09,218.945 1464.19,187.996 1466.88,205.276 1466.88,193.766 1469.57,217.953 1474.67,219.494 1479.78,183.345 1482.47,177.238 
  1482.47,174.335 1485.16,190.604 1490.26,244.878 1495.36,259.731 1498.05,216.305 1498.05,237.825 1500.74,189.319 1505.85,183.689 1510.95,222.583 1513.64,248.354 
  1513.64,231.307 1516.33,232.561 1521.43,171.273 1526.53,178.16 1529.22,217.065 1529.22,218.684 1531.92,263.29 1537.02,280.7 1542.12,187.757 1544.81,139.729 
  1544.81,142.391 1547.5,129.914 1552.6,214.573 1557.7,298.822 1560.39,280.515 1560.39,282.2 1563.09,218.448 1568.19,86.1857 1573.29,151.886 1575.98,311.213 
  1575.98,307.205 1578.67,528.377 1583.77,970.258 1588.87,1269.49 1591.57,1341.68 1591.57,1345.53 1594.26,1375.3 1599.36,1382.74 1604.46,1378.35 1607.15,1379.77 
  1607.15,1379.29 1609.84,1381.45 1614.94,1383.83 1620.05,1384.23 1622.74,1384.1 1622.74,1384.12 1625.43,1384.07 1630.53,1384.14 1635.63,1384.22 1638.32,1384.24 
  1638.32,1384.24 1641.01,1384.24 1646.11,1384.23 1651.22,1384.24 1653.91,1384.24 1653.91,1384.24 1656.6,1384.24 1661.7,1384.24 1666.8,1384.24 1669.49,1384.24 
  1669.49,1384.24 1672.18,1384.24 1677.29,1384.24 1682.39,1384.24 1685.08,1384.24 1685.08,1384.24 1687.77,1384.24 1692.87,1384.24 1697.97,1384.24 1700.66,1384.24 
  1700.66,1384.24 1703.35,1384.24 1708.46,1384.24 1713.56,1384.24 1716.25,1384.24 1716.25,1384.24 1718.94,1384.24 1724.04,1384.24 1729.14,1384.24 1731.83,1384.24 
  1731.83,1384.24 1734.53,1384.24 1739.63,1384.24 1744.73,1384.24 1747.42,1384.24 1747.42,1384.24 1750.11,1384.24 1755.21,1384.24 1760.31,1384.24 1763,1384.24 
  1763,1384.24 1765.7,1384.24 1770.8,1384.24 1775.9,1384.24 1778.59,1384.24 1778.59,1384.24 1781.28,1384.24 1786.38,1384.24 1791.48,1384.24 1794.18,1384.24 
  1796.87,1384.24 1801.97,1384.24 1807.07,1384.24 1809.76,1384.24 1812.45,1384.24 1817.55,1384.24 1822.66,1384.24 1825.35,1384.24 
  1828.04,1384.24 1833.14,1384.24 1838.24,1384.24 1840.93,1384.24 1843.62,1384.24 1848.72,1384.24 1853.83,1384.24 1856.52,1384.24 
  1859.21,1384.24 1864.31,1384.24 1869.41,1384.24 1872.1,1384.24 1874.79,1384.24 1879.9,1384.24 1885,1384.24 1887.69,1384.24 
  1890.38,1384.24 1895.48,1384.24 1900.58,1384.24 1903.27,1384.24 1905.96,1384.24 1911.07,1384.24 1916.17,1384.24 1918.86,1384.24 
  1921.55,1384.24 1926.65,1384.24 1931.75,1384.24 1934.44,1384.24 1937.14,1384.24 1942.24,1384.24 1947.34,1384.24 1950.03,1384.24 
  1952.72,1384.24 1957.82,1384.24 1962.92,1384.24 1965.61,1384.24 1968.31,1384.24 1973.41,1384.24 1978.51,1384.24 1981.2,1384.24 
  1983.89,1384.24 1988.99,1384.24 1994.09,1384.24 1996.79,1384.24 1999.48,1384.24 2004.58,1384.24 2009.68,1384.24 2012.37,1384.24 
  2015.06,1384.24 2020.16,1384.24 2025.27,1384.24 2027.96,1384.24 2030.65,1384.24 2035.75,1384.24 2040.85,1384.24 2043.54,1384.24 
  2046.23,1384.24 2051.33,1384.24 2056.44,1384.24 2059.13,1384.24 2061.82,1384.24 2066.92,1384.24 2072.02,1384.24 2074.71,1384.24 
  2077.4,1384.24 2082.51,1384.24 2087.61,1384.24 2090.3,1384.24 2092.99,1384.24 2098.09,1384.24 2103.19,1384.24 2105.88,1384.24 
  2108.57,1384.24 2113.68,1384.24 2118.78,1384.24 2121.47,1384.24 2124.16,1384.24 2129.26,1384.24 2134.36,1384.24 2137.05,1384.24 
  2139.75,1384.24 2144.85,1384.24 2149.95,1384.24 2152.64,1384.24 2155.33,1384.24 2160.43,1384.24 2165.53,1384.24 2168.22,1384.24 
  2170.92,1384.24 2176.02,1384.24 2181.12,1384.24 2183.81,1384.24 2186.5,1384.24 2191.6,1384.24 2196.7,1384.24 2199.4,1384.24 
  2202.09,1384.24 2207.19,1384.24 2212.29,1384.24 2214.98,1384.24 2217.67,1384.24 2222.77,1384.24 2227.88,1384.24 2230.57,1384.24 
  2233.26,1384.24 2238.36,1384.24 2243.46,1384.24 2246.15,1384.24 2248.84,1384.24 2253.94,1384.24 2259.05,1384.24 2261.74,1384.24 
  2264.43,1384.24 2269.53,1384.24 2274.63,1384.24 2277.32,1384.24 2280.01,1384.24 2285.12,1384.24 2290.22,1384.24 2292.91,1384.24 
  
  "/>
<path clip-path="url(#clip160)" d="
M1802.38 274.549 L2282.27 274.549 L2282.27 93.1086 L1802.38 93.1086  Z
  " fill="#ffffff" fill-rule="evenodd" fill-opacity="1"/>
<polyline clip-path="url(#clip160)" style="stroke:#000000; stroke-width:4; stroke-opacity:1; fill:none" points="
  1802.38,274.549 2282.27,274.549 2282.27,93.1086 1802.38,93.1086 1802.38,274.549 
  "/>
<polyline clip-path="url(#clip160)" style="stroke:#009af9; stroke-width:4; stroke-opacity:1; fill:none" points="
  1825.88,153.589 1966.85,153.589 
  "/>
<path clip-path="url(#clip160)" d="M 0 0 M1994.75 157.929 Q1994.75 162.628 1996.67 165.313 Q1998.61 167.975 2001.99 167.975 Q2005.37 167.975 2007.31 165.313 Q2009.26 162.628 2009.26 157.929 Q2009.26 153.23 2007.31 150.568 Q2005.37 147.883 2001.99 147.883 Q1998.61 147.883 1996.67 150.568 Q1994.75 153.23 1994.75 157.929 M2009.26 166.98 Q2007.92 169.295 2005.86 170.429 Q2003.82 171.54 2000.95 171.54 Q1996.25 171.54 1993.29 167.79 Q1990.35 164.04 1990.35 157.929 Q1990.35 151.818 1993.29 148.068 Q1996.25 144.318 2000.95 144.318 Q2003.82 144.318 2005.86 145.452 Q2007.92 146.563 2009.26 148.878 L2009.26 144.943 L2013.52 144.943 L2013.52 180.73 L2009.26 180.73 L2009.26 166.98 Z" fill="#000000" fill-rule="evenodd" fill-opacity="1" /><path clip-path="url(#clip160)" d="M 0 0 M2019.07 164.989 L2023.96 164.989 L2023.96 168.97 L2020.16 176.378 L2017.18 176.378 L2019.07 168.97 L2019.07 164.989 Z" fill="#000000" fill-rule="evenodd" fill-opacity="1" /><path clip-path="url(#clip160)" d="M 0 0 M2047.71 137.582 L2047.71 144.943 L2056.48 144.943 L2056.48 148.253 L2047.71 148.253 L2047.71 162.327 Q2047.71 165.498 2048.56 166.401 Q2049.44 167.304 2052.11 167.304 L2056.48 167.304 L2056.48 170.869 L2052.11 170.869 Q2047.18 170.869 2045.3 169.04 Q2043.43 167.188 2043.43 162.327 L2043.43 148.253 L2040.3 148.253 L2040.3 144.943 L2043.43 144.943 L2043.43 137.582 L2047.71 137.582 Z" fill="#000000" fill-rule="evenodd" fill-opacity="1" /><path clip-path="url(#clip160)" d="M 0 0 M2061.5 149.341 L2091.18 149.341 L2091.18 153.23 L2061.5 153.23 L2061.5 149.341 M2061.5 158.785 L2091.18 158.785 L2091.18 162.721 L2061.5 162.721 L2061.5 158.785 Z" fill="#000000" fill-rule="evenodd" fill-opacity="1" /><path clip-path="url(#clip160)" d="M 0 0 M2106.25 139.387 Q2102.64 139.387 2100.81 142.952 Q2099 146.494 2099 153.623 Q2099 160.73 2100.81 164.295 Q2102.64 167.836 2106.25 167.836 Q2109.88 167.836 2111.69 164.295 Q2113.52 160.73 2113.52 153.623 Q2113.52 146.494 2111.69 142.952 Q2109.88 139.387 2106.25 139.387 M2106.25 135.684 Q2112.06 135.684 2115.12 140.29 Q2118.19 144.873 2118.19 153.623 Q2118.19 162.35 2115.12 166.957 Q2112.06 171.54 2106.25 171.54 Q2100.44 171.54 2097.36 166.957 Q2094.31 162.35 2094.31 153.623 Q2094.31 144.873 2097.36 140.29 Q2100.44 135.684 2106.25 135.684 Z" fill="#000000" fill-rule="evenodd" fill-opacity="1" /><path clip-path="url(#clip160)" d="M 0 0 M2123.26 164.989 L2128.15 164.989 L2128.15 170.869 L2123.26 170.869 L2123.26 164.989 Z" fill="#000000" fill-rule="evenodd" fill-opacity="1" /><path clip-path="url(#clip160)" d="M 0 0 M2143.22 139.387 Q2139.61 139.387 2137.78 142.952 Q2135.97 146.494 2135.97 153.623 Q2135.97 160.73 2137.78 164.295 Q2139.61 167.836 2143.22 167.836 Q2146.85 167.836 2148.66 164.295 Q2150.49 160.73 2150.49 153.623 Q2150.49 146.494 2148.66 142.952 Q2146.85 139.387 2143.22 139.387 M2143.22 135.684 Q2149.03 135.684 2152.08 140.29 Q2155.16 144.873 2155.16 153.623 Q2155.16 162.35 2152.08 166.957 Q2149.03 171.54 2143.22 171.54 Q2137.41 171.54 2134.33 166.957 Q2131.27 162.35 2131.27 153.623 Q2131.27 144.873 2134.33 140.29 Q2137.41 135.684 2143.22 135.684 Z" fill="#000000" fill-rule="evenodd" fill-opacity="1" /><polyline clip-path="url(#clip160)" style="stroke:#e26f46; stroke-width:4; stroke-opacity:1; fill:none" points="
  1825.88,214.069 1966.85,214.069 
  "/>
<path clip-path="url(#clip160)" d="M 0 0 M1994.75 218.409 Q1994.75 223.108 1996.67 225.793 Q1998.61 228.455 2001.99 228.455 Q2005.37 228.455 2007.31 225.793 Q2009.26 223.108 2009.26 218.409 Q2009.26 213.71 2007.31 211.048 Q2005.37 208.363 2001.99 208.363 Q1998.61 208.363 1996.67 211.048 Q1994.75 213.71 1994.75 218.409 M2009.26 227.46 Q2007.92 229.775 2005.86 230.909 Q2003.82 232.02 2000.95 232.02 Q1996.25 232.02 1993.29 228.27 Q1990.35 224.52 1990.35 218.409 Q1990.35 212.298 1993.29 208.548 Q1996.25 204.798 2000.95 204.798 Q2003.82 204.798 2005.86 205.932 Q2007.92 207.043 2009.26 209.358 L2009.26 205.423 L2013.52 205.423 L2013.52 241.21 L2009.26 241.21 L2009.26 227.46 Z" fill="#000000" fill-rule="evenodd" fill-opacity="1" /><path clip-path="url(#clip160)" d="M 0 0 M2019.07 225.469 L2023.96 225.469 L2023.96 229.45 L2020.16 236.858 L2017.18 236.858 L2019.07 229.45 L2019.07 225.469 Z" fill="#000000" fill-rule="evenodd" fill-opacity="1" /><path clip-path="url(#clip160)" d="M 0 0 M2047.71 198.062 L2047.71 205.423 L2056.48 205.423 L2056.48 208.733 L2047.71 208.733 L2047.71 222.807 Q2047.71 225.978 2048.56 226.881 Q2049.44 227.784 2052.11 227.784 L2056.48 227.784 L2056.48 231.349 L2052.11 231.349 Q2047.18 231.349 2045.3 229.52 Q2043.43 227.668 2043.43 222.807 L2043.43 208.733 L2040.3 208.733 L2040.3 205.423 L2043.43 205.423 L2043.43 198.062 L2047.71 198.062 Z" fill="#000000" fill-rule="evenodd" fill-opacity="1" /><path clip-path="url(#clip160)" d="M 0 0 M2061.5 209.821 L2091.18 209.821 L2091.18 213.71 L2061.5 213.71 L2061.5 209.821 M2061.5 219.265 L2091.18 219.265 L2091.18 223.201 L2061.5 223.201 L2061.5 219.265 Z" fill="#000000" fill-rule="evenodd" fill-opacity="1" /><path clip-path="url(#clip160)" d="M 0 0 M2109.1 200.863 L2097.29 219.312 L2109.1 219.312 L2109.1 200.863 M2107.87 196.789 L2113.75 196.789 L2113.75 219.312 L2118.68 219.312 L2118.68 223.201 L2113.75 223.201 L2113.75 231.349 L2109.1 231.349 L2109.1 223.201 L2093.5 223.201 L2093.5 218.687 L2107.87 196.789 Z" fill="#000000" fill-rule="evenodd" fill-opacity="1" /><path clip-path="url(#clip160)" d="M 0 0 M2123.8 196.789 L2142.15 196.789 L2142.15 200.724 L2128.08 200.724 L2128.08 209.196 Q2129.1 208.849 2130.12 208.687 Q2131.13 208.502 2132.15 208.502 Q2137.94 208.502 2141.32 211.673 Q2144.7 214.844 2144.7 220.261 Q2144.7 225.839 2141.23 228.941 Q2137.75 232.02 2131.43 232.02 Q2129.26 232.02 2126.99 231.65 Q2124.74 231.279 2122.34 230.538 L2122.34 225.839 Q2124.42 226.974 2126.64 227.529 Q2128.87 228.085 2131.34 228.085 Q2135.35 228.085 2137.68 225.978 Q2140.02 223.872 2140.02 220.261 Q2140.02 216.65 2137.68 214.543 Q2135.35 212.437 2131.34 212.437 Q2129.47 212.437 2127.59 212.853 Q2125.74 213.27 2123.8 214.15 L2123.8 196.789 Z" fill="#000000" fill-rule="evenodd" fill-opacity="1" /><path clip-path="url(#clip160)" d="M 0 0 M2159.77 199.867 Q2156.16 199.867 2154.33 203.432 Q2152.52 206.974 2152.52 214.103 Q2152.52 221.21 2154.33 224.775 Q2156.16 228.316 2159.77 228.316 Q2163.4 228.316 2165.21 224.775 Q2167.04 221.21 2167.04 214.103 Q2167.04 206.974 2165.21 203.432 Q2163.4 199.867 2159.77 199.867 M2159.77 196.164 Q2165.58 196.164 2168.63 200.77 Q2171.71 205.353 2171.71 214.103 Q2171.71 222.83 2168.63 227.437 Q2165.58 232.02 2159.77 232.02 Q2153.96 232.02 2150.88 227.437 Q2147.82 222.83 2147.82 214.103 Q2147.82 205.353 2150.88 200.77 Q2153.96 196.164 2159.77 196.164 Z" fill="#000000" fill-rule="evenodd" fill-opacity="1" /><path clip-path="url(#clip160)" d="M 0 0 M2176.78 225.469 L2181.67 225.469 L2181.67 231.349 L2176.78 231.349 L2176.78 225.469 Z" fill="#000000" fill-rule="evenodd" fill-opacity="1" /><path clip-path="url(#clip160)" d="M 0 0 M2199.58 200.863 L2187.78 219.312 L2199.58 219.312 L2199.58 200.863 M2198.36 196.789 L2204.24 196.789 L2204.24 219.312 L2209.17 219.312 L2209.17 223.201 L2204.24 223.201 L2204.24 231.349 L2199.58 231.349 L2199.58 223.201 L2183.98 223.201 L2183.98 218.687 L2198.36 196.789 Z" fill="#000000" fill-rule="evenodd" fill-opacity="1" /><path clip-path="url(#clip160)" d="M 0 0 M2213.05 196.789 L2235.28 196.789 L2235.28 198.779 L2222.73 231.349 L2217.85 231.349 L2229.65 200.724 L2213.05 200.724 L2213.05 196.789 Z" fill="#000000" fill-rule="evenodd" fill-opacity="1" /></svg>
