<?xml version="1.0" encoding="utf-8"?>
<svg xmlns="http://www.w3.org/2000/svg" xmlns:xlink="http://www.w3.org/1999/xlink" width="600" height="400" viewBox="0 0 2400 1600">
<defs>
  <clipPath id="clip310">
    <rect x="0" y="0" width="2400" height="1600"/>
  </clipPath>
</defs>
<path clip-path="url(#clip310)" d="
M0 1600 L2400 1600 L2400 0 L0 0  Z
  " fill="#ffffff" fill-rule="evenodd" fill-opacity="1"/>
<defs>
  <clipPath id="clip311">
    <rect x="480" y="0" width="1681" height="1600"/>
  </clipPath>
</defs>
<path clip-path="url(#clip310)" d="
M238.13 1423.18 L2352.76 1423.18 L2352.76 47.2441 L238.13 47.2441  Z
  " fill="#ffffff" fill-rule="evenodd" fill-opacity="1"/>
<defs>
  <clipPath id="clip312">
    <rect x="238" y="47" width="2116" height="1377"/>
  </clipPath>
</defs>
<polyline clip-path="url(#clip312)" style="stroke:#000000; stroke-width:2; stroke-opacity:0.1; fill:none" points="
  297.978,1423.18 297.978,47.2441 
  "/>
<polyline clip-path="url(#clip312)" style="stroke:#000000; stroke-width:2; stroke-opacity:0.1; fill:none" points="
  867.958,1423.18 867.958,47.2441 
  "/>
<polyline clip-path="url(#clip312)" style="stroke:#000000; stroke-width:2; stroke-opacity:0.1; fill:none" points="
  1437.94,1423.18 1437.94,47.2441 
  "/>
<polyline clip-path="url(#clip312)" style="stroke:#000000; stroke-width:2; stroke-opacity:0.1; fill:none" points="
  2007.92,1423.18 2007.92,47.2441 
  "/>
<polyline clip-path="url(#clip310)" style="stroke:#000000; stroke-width:4; stroke-opacity:1; fill:none" points="
  238.13,1423.18 2352.76,1423.18 
  "/>
<polyline clip-path="url(#clip310)" style="stroke:#000000; stroke-width:4; stroke-opacity:1; fill:none" points="
  297.978,1423.18 297.978,1406.67 
  "/>
<polyline clip-path="url(#clip310)" style="stroke:#000000; stroke-width:4; stroke-opacity:1; fill:none" points="
  867.958,1423.18 867.958,1406.67 
  "/>
<polyline clip-path="url(#clip310)" style="stroke:#000000; stroke-width:4; stroke-opacity:1; fill:none" points="
  1437.94,1423.18 1437.94,1406.67 
  "/>
<polyline clip-path="url(#clip310)" style="stroke:#000000; stroke-width:4; stroke-opacity:1; fill:none" points="
  2007.92,1423.18 2007.92,1406.67 
  "/>
<path clip-path="url(#clip310)" d="M 0 0 M297.978 1452.37 Q294.367 1452.37 292.538 1455.94 Q290.733 1459.48 290.733 1466.61 Q290.733 1473.71 292.538 1477.28 Q294.367 1480.82 297.978 1480.82 Q301.612 1480.82 303.418 1477.28 Q305.246 1473.71 305.246 1466.61 Q305.246 1459.48 303.418 1455.94 Q301.612 1452.37 297.978 1452.37 M297.978 1448.67 Q303.788 1448.67 306.844 1453.27 Q309.922 1457.86 309.922 1466.61 Q309.922 1475.33 306.844 1479.94 Q303.788 1484.52 297.978 1484.52 Q292.168 1484.52 289.089 1479.94 Q286.034 1475.33 286.034 1466.61 Q286.034 1457.86 289.089 1453.27 Q292.168 1448.67 297.978 1448.67 Z" fill="#000000" fill-rule="evenodd" fill-opacity="1" /><path clip-path="url(#clip310)" d="M 0 0 M831.326 1479.92 L838.965 1479.92 L838.965 1453.55 L830.655 1455.22 L830.655 1450.96 L838.919 1449.29 L843.595 1449.29 L843.595 1479.92 L851.234 1479.92 L851.234 1483.85 L831.326 1483.85 L831.326 1479.92 Z" fill="#000000" fill-rule="evenodd" fill-opacity="1" /><path clip-path="url(#clip310)" d="M 0 0 M866.303 1452.37 Q862.692 1452.37 860.863 1455.94 Q859.058 1459.48 859.058 1466.61 Q859.058 1473.71 860.863 1477.28 Q862.692 1480.82 866.303 1480.82 Q869.937 1480.82 871.743 1477.28 Q873.571 1473.71 873.571 1466.61 Q873.571 1459.48 871.743 1455.94 Q869.937 1452.37 866.303 1452.37 M866.303 1448.67 Q872.113 1448.67 875.169 1453.27 Q878.247 1457.86 878.247 1466.61 Q878.247 1475.33 875.169 1479.94 Q872.113 1484.52 866.303 1484.52 Q860.493 1484.52 857.414 1479.94 Q854.359 1475.33 854.359 1466.61 Q854.359 1457.86 857.414 1453.27 Q860.493 1448.67 866.303 1448.67 Z" fill="#000000" fill-rule="evenodd" fill-opacity="1" /><path clip-path="url(#clip310)" d="M 0 0 M893.317 1452.37 Q889.706 1452.37 887.877 1455.94 Q886.071 1459.48 886.071 1466.61 Q886.071 1473.71 887.877 1477.28 Q889.706 1480.82 893.317 1480.82 Q896.951 1480.82 898.756 1477.28 Q900.585 1473.71 900.585 1466.61 Q900.585 1459.48 898.756 1455.94 Q896.951 1452.37 893.317 1452.37 M893.317 1448.67 Q899.127 1448.67 902.182 1453.27 Q905.261 1457.86 905.261 1466.61 Q905.261 1475.33 902.182 1479.94 Q899.127 1484.52 893.317 1484.52 Q887.506 1484.52 884.428 1479.94 Q881.372 1475.33 881.372 1466.61 Q881.372 1457.86 884.428 1453.27 Q887.506 1448.67 893.317 1448.67 Z" fill="#000000" fill-rule="evenodd" fill-opacity="1" /><path clip-path="url(#clip310)" d="M 0 0 M1405.58 1479.92 L1421.9 1479.92 L1421.9 1483.85 L1399.95 1483.85 L1399.95 1479.92 Q1402.61 1477.16 1407.2 1472.53 Q1411.8 1467.88 1412.98 1466.54 Q1415.23 1464.01 1416.11 1462.28 Q1417.01 1460.52 1417.01 1458.83 Q1417.01 1456.07 1415.07 1454.34 Q1413.15 1452.6 1410.04 1452.6 Q1407.85 1452.6 1405.39 1453.37 Q1402.96 1454.13 1400.18 1455.68 L1400.18 1450.96 Q1403.01 1449.82 1405.46 1449.25 Q1407.91 1448.67 1409.95 1448.67 Q1415.32 1448.67 1418.52 1451.35 Q1421.71 1454.04 1421.71 1458.53 Q1421.71 1460.66 1420.9 1462.58 Q1420.11 1464.48 1418.01 1467.07 Q1417.43 1467.74 1414.33 1470.96 Q1411.23 1474.15 1405.58 1479.92 Z" fill="#000000" fill-rule="evenodd" fill-opacity="1" /><path clip-path="url(#clip310)" d="M 0 0 M1436.97 1452.37 Q1433.35 1452.37 1431.53 1455.94 Q1429.72 1459.48 1429.72 1466.61 Q1429.72 1473.71 1431.53 1477.28 Q1433.35 1480.82 1436.97 1480.82 Q1440.6 1480.82 1442.41 1477.28 Q1444.23 1473.71 1444.23 1466.61 Q1444.23 1459.48 1442.41 1455.94 Q1440.6 1452.37 1436.97 1452.37 M1436.97 1448.67 Q1442.78 1448.67 1445.83 1453.27 Q1448.91 1457.86 1448.91 1466.61 Q1448.91 1475.33 1445.83 1479.94 Q1442.78 1484.52 1436.97 1484.52 Q1431.16 1484.52 1428.08 1479.94 Q1425.02 1475.33 1425.02 1466.61 Q1425.02 1457.86 1428.08 1453.27 Q1431.16 1448.67 1436.97 1448.67 Z" fill="#000000" fill-rule="evenodd" fill-opacity="1" /><path clip-path="url(#clip310)" d="M 0 0 M1463.98 1452.37 Q1460.37 1452.37 1458.54 1455.94 Q1456.73 1459.48 1456.73 1466.61 Q1456.73 1473.71 1458.54 1477.28 Q1460.37 1480.82 1463.98 1480.82 Q1467.61 1480.82 1469.42 1477.28 Q1471.25 1473.71 1471.25 1466.61 Q1471.25 1459.48 1469.42 1455.94 Q1467.61 1452.37 1463.98 1452.37 M1463.98 1448.67 Q1469.79 1448.67 1472.85 1453.27 Q1475.92 1457.86 1475.92 1466.61 Q1475.92 1475.33 1472.85 1479.94 Q1469.79 1484.52 1463.98 1484.52 Q1458.17 1484.52 1455.09 1479.94 Q1452.04 1475.33 1452.04 1466.61 Q1452.04 1457.86 1455.09 1453.27 Q1458.17 1448.67 1463.98 1448.67 Z" fill="#000000" fill-rule="evenodd" fill-opacity="1" /><path clip-path="url(#clip310)" d="M 0 0 M1985.15 1465.22 Q1988.51 1465.94 1990.38 1468.2 Q1992.28 1470.47 1992.28 1473.81 Q1992.28 1478.92 1988.76 1481.72 Q1985.24 1484.52 1978.76 1484.52 Q1976.59 1484.52 1974.27 1484.08 Q1971.98 1483.67 1969.53 1482.81 L1969.53 1478.3 Q1971.47 1479.43 1973.79 1480.01 Q1976.1 1480.59 1978.62 1480.59 Q1983.02 1480.59 1985.31 1478.85 Q1987.63 1477.12 1987.63 1473.81 Q1987.63 1470.75 1985.48 1469.04 Q1983.35 1467.3 1979.53 1467.3 L1975.5 1467.3 L1975.5 1463.46 L1979.71 1463.46 Q1983.16 1463.46 1984.99 1462.09 Q1986.82 1460.7 1986.82 1458.11 Q1986.82 1455.45 1984.92 1454.04 Q1983.05 1452.6 1979.53 1452.6 Q1977.61 1452.6 1975.41 1453.02 Q1973.21 1453.44 1970.57 1454.31 L1970.57 1450.15 Q1973.23 1449.41 1975.55 1449.04 Q1977.88 1448.67 1979.94 1448.67 Q1985.27 1448.67 1988.37 1451.1 Q1991.47 1453.5 1991.47 1457.63 Q1991.47 1460.5 1989.83 1462.49 Q1988.18 1464.45 1985.15 1465.22 Z" fill="#000000" fill-rule="evenodd" fill-opacity="1" /><path clip-path="url(#clip310)" d="M 0 0 M2007.35 1452.37 Q2003.74 1452.37 2001.91 1455.94 Q2000.11 1459.48 2000.11 1466.61 Q2000.11 1473.71 2001.91 1477.28 Q2003.74 1480.82 2007.35 1480.82 Q2010.99 1480.82 2012.79 1477.28 Q2014.62 1473.71 2014.62 1466.61 Q2014.62 1459.48 2012.79 1455.94 Q2010.99 1452.37 2007.35 1452.37 M2007.35 1448.67 Q2013.16 1448.67 2016.22 1453.27 Q2019.3 1457.86 2019.3 1466.61 Q2019.3 1475.33 2016.22 1479.94 Q2013.16 1484.52 2007.35 1484.52 Q2001.54 1484.52 1998.46 1479.94 Q1995.41 1475.33 1995.41 1466.61 Q1995.41 1457.86 1998.46 1453.27 Q2001.54 1448.67 2007.35 1448.67 Z" fill="#000000" fill-rule="evenodd" fill-opacity="1" /><path clip-path="url(#clip310)" d="M 0 0 M2034.36 1452.37 Q2030.75 1452.37 2028.92 1455.94 Q2027.12 1459.48 2027.12 1466.61 Q2027.12 1473.71 2028.92 1477.28 Q2030.75 1480.82 2034.36 1480.82 Q2038 1480.82 2039.8 1477.28 Q2041.63 1473.71 2041.63 1466.61 Q2041.63 1459.48 2039.8 1455.94 Q2038 1452.37 2034.36 1452.37 M2034.36 1448.67 Q2040.17 1448.67 2043.23 1453.27 Q2046.31 1457.86 2046.31 1466.61 Q2046.31 1475.33 2043.23 1479.94 Q2040.17 1484.52 2034.36 1484.52 Q2028.55 1484.52 2025.48 1479.94 Q2022.42 1475.33 2022.42 1466.61 Q2022.42 1457.86 2025.48 1453.27 Q2028.55 1448.67 2034.36 1448.67 Z" fill="#000000" fill-rule="evenodd" fill-opacity="1" /><path clip-path="url(#clip310)" d="M 0 0 M1312.06 1520.4 L1299.17 1537.74 L1312.73 1556.04 L1305.82 1556.04 L1295.44 1542.04 L1285.07 1556.04 L1278.16 1556.04 L1292.01 1537.39 L1279.34 1520.4 L1286.24 1520.4 L1295.7 1533.1 L1305.15 1520.4 L1312.06 1520.4 Z" fill="#000000" fill-rule="evenodd" fill-opacity="1" /><polyline clip-path="url(#clip312)" style="stroke:#000000; stroke-width:2; stroke-opacity:0.1; fill:none" points="
  238.13,1294.96 2352.76,1294.96 
  "/>
<polyline clip-path="url(#clip312)" style="stroke:#000000; stroke-width:2; stroke-opacity:0.1; fill:none" points="
  238.13,1013.33 2352.76,1013.33 
  "/>
<polyline clip-path="url(#clip312)" style="stroke:#000000; stroke-width:2; stroke-opacity:0.1; fill:none" points="
  238.13,731.706 2352.76,731.706 
  "/>
<polyline clip-path="url(#clip312)" style="stroke:#000000; stroke-width:2; stroke-opacity:0.1; fill:none" points="
  238.13,450.079 2352.76,450.079 
  "/>
<polyline clip-path="url(#clip312)" style="stroke:#000000; stroke-width:2; stroke-opacity:0.1; fill:none" points="
  238.13,168.451 2352.76,168.451 
  "/>
<polyline clip-path="url(#clip310)" style="stroke:#000000; stroke-width:4; stroke-opacity:1; fill:none" points="
  238.13,1423.18 238.13,47.2441 
  "/>
<polyline clip-path="url(#clip310)" style="stroke:#000000; stroke-width:4; stroke-opacity:1; fill:none" points="
  238.13,1294.96 263.506,1294.96 
  "/>
<polyline clip-path="url(#clip310)" style="stroke:#000000; stroke-width:4; stroke-opacity:1; fill:none" points="
  238.13,1013.33 263.506,1013.33 
  "/>
<polyline clip-path="url(#clip310)" style="stroke:#000000; stroke-width:4; stroke-opacity:1; fill:none" points="
  238.13,731.706 263.506,731.706 
  "/>
<polyline clip-path="url(#clip310)" style="stroke:#000000; stroke-width:4; stroke-opacity:1; fill:none" points="
  238.13,450.079 263.506,450.079 
  "/>
<polyline clip-path="url(#clip310)" style="stroke:#000000; stroke-width:4; stroke-opacity:1; fill:none" points="
  238.13,168.451 263.506,168.451 
  "/>
<path clip-path="url(#clip310)" d="M 0 0 M126.205 1280.76 Q122.593 1280.76 120.765 1284.33 Q118.959 1287.87 118.959 1295 Q118.959 1302.1 120.765 1305.67 Q122.593 1309.21 126.205 1309.21 Q129.839 1309.21 131.644 1305.67 Q133.473 1302.1 133.473 1295 Q133.473 1287.87 131.644 1284.33 Q129.839 1280.76 126.205 1280.76 M126.205 1277.06 Q132.015 1277.06 135.07 1281.66 Q138.149 1286.25 138.149 1295 Q138.149 1303.72 135.07 1308.33 Q132.015 1312.91 126.205 1312.91 Q120.394 1312.91 117.316 1308.33 Q114.26 1303.72 114.26 1295 Q114.26 1286.25 117.316 1281.66 Q120.394 1277.06 126.205 1277.06 Z" fill="#000000" fill-rule="evenodd" fill-opacity="1" /><path clip-path="url(#clip310)" d="M 0 0 M143.218 1306.36 L148.103 1306.36 L148.103 1312.24 L143.218 1312.24 L143.218 1306.36 Z" fill="#000000" fill-rule="evenodd" fill-opacity="1" /><path clip-path="url(#clip310)" d="M 0 0 M163.172 1280.76 Q159.561 1280.76 157.732 1284.33 Q155.927 1287.87 155.927 1295 Q155.927 1302.1 157.732 1305.67 Q159.561 1309.21 163.172 1309.21 Q166.806 1309.21 168.612 1305.67 Q170.44 1302.1 170.44 1295 Q170.44 1287.87 168.612 1284.33 Q166.806 1280.76 163.172 1280.76 M163.172 1277.06 Q168.982 1277.06 172.038 1281.66 Q175.116 1286.25 175.116 1295 Q175.116 1303.72 172.038 1308.33 Q168.982 1312.91 163.172 1312.91 Q157.362 1312.91 154.283 1308.33 Q151.228 1303.72 151.228 1295 Q151.228 1286.25 154.283 1281.66 Q157.362 1277.06 163.172 1277.06 Z" fill="#000000" fill-rule="evenodd" fill-opacity="1" /><path clip-path="url(#clip310)" d="M 0 0 M190.186 1280.76 Q186.575 1280.76 184.746 1284.33 Q182.94 1287.87 182.94 1295 Q182.94 1302.1 184.746 1305.67 Q186.575 1309.21 190.186 1309.21 Q193.82 1309.21 195.625 1305.67 Q197.454 1302.1 197.454 1295 Q197.454 1287.87 195.625 1284.33 Q193.82 1280.76 190.186 1280.76 M190.186 1277.06 Q195.996 1277.06 199.051 1281.66 Q202.13 1286.25 202.13 1295 Q202.13 1303.72 199.051 1308.33 Q195.996 1312.91 190.186 1312.91 Q184.376 1312.91 181.297 1308.33 Q178.241 1303.72 178.241 1295 Q178.241 1286.25 181.297 1281.66 Q184.376 1277.06 190.186 1277.06 Z" fill="#000000" fill-rule="evenodd" fill-opacity="1" /><path clip-path="url(#clip310)" d="M 0 0 M128.797 999.133 Q125.186 999.133 123.357 1002.7 Q121.552 1006.24 121.552 1013.37 Q121.552 1020.48 123.357 1024.04 Q125.186 1027.58 128.797 1027.58 Q132.431 1027.58 134.237 1024.04 Q136.066 1020.48 136.066 1013.37 Q136.066 1006.24 134.237 1002.7 Q132.431 999.133 128.797 999.133 M128.797 995.429 Q134.607 995.429 137.663 1000.04 Q140.741 1004.62 140.741 1013.37 Q140.741 1022.1 137.663 1026.7 Q134.607 1031.29 128.797 1031.29 Q122.987 1031.29 119.908 1026.7 Q116.853 1022.1 116.853 1013.37 Q116.853 1004.62 119.908 1000.04 Q122.987 995.429 128.797 995.429 Z" fill="#000000" fill-rule="evenodd" fill-opacity="1" /><path clip-path="url(#clip310)" d="M 0 0 M145.811 1024.73 L150.695 1024.73 L150.695 1030.61 L145.811 1030.61 L145.811 1024.73 Z" fill="#000000" fill-rule="evenodd" fill-opacity="1" /><path clip-path="url(#clip310)" d="M 0 0 M159.792 1026.68 L176.112 1026.68 L176.112 1030.61 L154.167 1030.61 L154.167 1026.68 Q156.829 1023.92 161.413 1019.29 Q166.019 1014.64 167.2 1013.3 Q169.445 1010.78 170.325 1009.04 Q171.227 1007.28 171.227 1005.59 Q171.227 1002.84 169.283 1001.1 Q167.362 999.364 164.26 999.364 Q162.061 999.364 159.607 1000.13 Q157.177 1000.89 154.399 1002.44 L154.399 997.721 Q157.223 996.587 159.677 996.008 Q162.13 995.429 164.167 995.429 Q169.538 995.429 172.732 998.114 Q175.926 1000.8 175.926 1005.29 Q175.926 1007.42 175.116 1009.34 Q174.329 1011.24 172.223 1013.83 Q171.644 1014.5 168.542 1017.72 Q165.44 1020.92 159.792 1026.68 Z" fill="#000000" fill-rule="evenodd" fill-opacity="1" /><path clip-path="url(#clip310)" d="M 0 0 M181.227 996.054 L199.584 996.054 L199.584 999.989 L185.51 999.989 L185.51 1008.46 Q186.528 1008.11 187.547 1007.95 Q188.565 1007.77 189.584 1007.77 Q195.371 1007.77 198.75 1010.94 Q202.13 1014.11 202.13 1019.53 Q202.13 1025.1 198.658 1028.21 Q195.186 1031.29 188.866 1031.29 Q186.69 1031.29 184.422 1030.92 Q182.176 1030.54 179.769 1029.8 L179.769 1025.1 Q181.852 1026.24 184.075 1026.79 Q186.297 1027.35 188.774 1027.35 Q192.778 1027.35 195.116 1025.24 Q197.454 1023.14 197.454 1019.53 Q197.454 1015.92 195.116 1013.81 Q192.778 1011.7 188.774 1011.7 Q186.899 1011.7 185.024 1012.12 Q183.172 1012.54 181.227 1013.42 L181.227 996.054 Z" fill="#000000" fill-rule="evenodd" fill-opacity="1" /><path clip-path="url(#clip310)" d="M 0 0 M127.2 717.505 Q123.589 717.505 121.76 721.07 Q119.955 724.612 119.955 731.741 Q119.955 738.848 121.76 742.412 Q123.589 745.954 127.2 745.954 Q130.834 745.954 132.64 742.412 Q134.468 738.848 134.468 731.741 Q134.468 724.612 132.64 721.07 Q130.834 717.505 127.2 717.505 M127.2 713.801 Q133.01 713.801 136.066 718.408 Q139.144 722.991 139.144 731.741 Q139.144 740.468 136.066 745.074 Q133.01 749.658 127.2 749.658 Q121.39 749.658 118.311 745.074 Q115.256 740.468 115.256 731.741 Q115.256 722.991 118.311 718.408 Q121.39 713.801 127.2 713.801 Z" fill="#000000" fill-rule="evenodd" fill-opacity="1" /><path clip-path="url(#clip310)" d="M 0 0 M144.214 743.107 L149.098 743.107 L149.098 748.986 L144.214 748.986 L144.214 743.107 Z" fill="#000000" fill-rule="evenodd" fill-opacity="1" /><path clip-path="url(#clip310)" d="M 0 0 M154.214 714.426 L172.57 714.426 L172.57 718.362 L158.496 718.362 L158.496 726.834 Q159.515 726.487 160.533 726.325 Q161.552 726.139 162.57 726.139 Q168.357 726.139 171.737 729.311 Q175.116 732.482 175.116 737.899 Q175.116 743.477 171.644 746.579 Q168.172 749.658 161.852 749.658 Q159.677 749.658 157.408 749.287 Q155.163 748.917 152.755 748.176 L152.755 743.477 Q154.839 744.611 157.061 745.167 Q159.283 745.723 161.76 745.723 Q165.765 745.723 168.102 743.616 Q170.44 741.51 170.44 737.899 Q170.44 734.287 168.102 732.181 Q165.765 730.074 161.76 730.074 Q159.885 730.074 158.01 730.491 Q156.158 730.908 154.214 731.787 L154.214 714.426 Z" fill="#000000" fill-rule="evenodd" fill-opacity="1" /><path clip-path="url(#clip310)" d="M 0 0 M190.186 717.505 Q186.575 717.505 184.746 721.07 Q182.94 724.612 182.94 731.741 Q182.94 738.848 184.746 742.412 Q186.575 745.954 190.186 745.954 Q193.82 745.954 195.625 742.412 Q197.454 738.848 197.454 731.741 Q197.454 724.612 195.625 721.07 Q193.82 717.505 190.186 717.505 M190.186 713.801 Q195.996 713.801 199.051 718.408 Q202.13 722.991 202.13 731.741 Q202.13 740.468 199.051 745.074 Q195.996 749.658 190.186 749.658 Q184.376 749.658 181.297 745.074 Q178.241 740.468 178.241 731.741 Q178.241 722.991 181.297 718.408 Q184.376 713.801 190.186 713.801 Z" fill="#000000" fill-rule="evenodd" fill-opacity="1" /><path clip-path="url(#clip310)" d="M 0 0 M128.103 435.877 Q124.492 435.877 122.663 439.442 Q120.857 442.984 120.857 450.113 Q120.857 457.22 122.663 460.785 Q124.492 464.326 128.103 464.326 Q131.737 464.326 133.542 460.785 Q135.371 457.22 135.371 450.113 Q135.371 442.984 133.542 439.442 Q131.737 435.877 128.103 435.877 M128.103 432.174 Q133.913 432.174 136.968 436.78 Q140.047 441.363 140.047 450.113 Q140.047 458.84 136.968 463.447 Q133.913 468.03 128.103 468.03 Q122.293 468.03 119.214 463.447 Q116.158 458.84 116.158 450.113 Q116.158 441.363 119.214 436.78 Q122.293 432.174 128.103 432.174 Z" fill="#000000" fill-rule="evenodd" fill-opacity="1" /><path clip-path="url(#clip310)" d="M 0 0 M145.116 461.479 L150.001 461.479 L150.001 467.359 L145.116 467.359 L145.116 461.479 Z" fill="#000000" fill-rule="evenodd" fill-opacity="1" /><path clip-path="url(#clip310)" d="M 0 0 M153.89 432.799 L176.112 432.799 L176.112 434.789 L163.565 467.359 L158.681 467.359 L170.487 436.734 L153.89 436.734 L153.89 432.799 Z" fill="#000000" fill-rule="evenodd" fill-opacity="1" /><path clip-path="url(#clip310)" d="M 0 0 M181.227 432.799 L199.584 432.799 L199.584 436.734 L185.51 436.734 L185.51 445.206 Q186.528 444.859 187.547 444.697 Q188.565 444.512 189.584 444.512 Q195.371 444.512 198.75 447.683 Q202.13 450.854 202.13 456.271 Q202.13 461.849 198.658 464.951 Q195.186 468.03 188.866 468.03 Q186.69 468.03 184.422 467.66 Q182.176 467.289 179.769 466.548 L179.769 461.849 Q181.852 462.984 184.075 463.539 Q186.297 464.095 188.774 464.095 Q192.778 464.095 195.116 461.988 Q197.454 459.882 197.454 456.271 Q197.454 452.66 195.116 450.553 Q192.778 448.447 188.774 448.447 Q186.899 448.447 185.024 448.863 Q183.172 449.28 181.227 450.16 L181.227 432.799 Z" fill="#000000" fill-rule="evenodd" fill-opacity="1" /><path clip-path="url(#clip310)" d="M 0 0 M118.242 181.796 L125.88 181.796 L125.88 155.43 L117.57 157.097 L117.57 152.838 L125.834 151.171 L130.51 151.171 L130.51 181.796 L138.149 181.796 L138.149 185.731 L118.242 185.731 L118.242 181.796 Z" fill="#000000" fill-rule="evenodd" fill-opacity="1" /><path clip-path="url(#clip310)" d="M 0 0 M143.218 179.851 L148.103 179.851 L148.103 185.731 L143.218 185.731 L143.218 179.851 Z" fill="#000000" fill-rule="evenodd" fill-opacity="1" /><path clip-path="url(#clip310)" d="M 0 0 M163.172 154.25 Q159.561 154.25 157.732 157.814 Q155.927 161.356 155.927 168.486 Q155.927 175.592 157.732 179.157 Q159.561 182.699 163.172 182.699 Q166.806 182.699 168.612 179.157 Q170.44 175.592 170.44 168.486 Q170.44 161.356 168.612 157.814 Q166.806 154.25 163.172 154.25 M163.172 150.546 Q168.982 150.546 172.038 155.152 Q175.116 159.736 175.116 168.486 Q175.116 177.212 172.038 181.819 Q168.982 186.402 163.172 186.402 Q157.362 186.402 154.283 181.819 Q151.228 177.212 151.228 168.486 Q151.228 159.736 154.283 155.152 Q157.362 150.546 163.172 150.546 Z" fill="#000000" fill-rule="evenodd" fill-opacity="1" /><path clip-path="url(#clip310)" d="M 0 0 M190.186 154.25 Q186.575 154.25 184.746 157.814 Q182.94 161.356 182.94 168.486 Q182.94 175.592 184.746 179.157 Q186.575 182.699 190.186 182.699 Q193.82 182.699 195.625 179.157 Q197.454 175.592 197.454 168.486 Q197.454 161.356 195.625 157.814 Q193.82 154.25 190.186 154.25 M190.186 150.546 Q195.996 150.546 199.051 155.152 Q202.13 159.736 202.13 168.486 Q202.13 177.212 199.051 181.819 Q195.996 186.402 190.186 186.402 Q184.376 186.402 181.297 181.819 Q178.241 177.212 178.241 168.486 Q178.241 159.736 181.297 155.152 Q184.376 150.546 190.186 150.546 Z" fill="#000000" fill-rule="evenodd" fill-opacity="1" /><path clip-path="url(#clip310)" d="M 0 0 M70.212 745.095 Q76.6732 745.095 80.3653 742.453 Q84.0256 739.779 84.0256 735.132 Q84.0256 730.485 80.3653 727.812 Q76.6732 725.138 70.212 725.138 Q63.7508 725.138 60.0905 727.812 Q56.3984 730.485 56.3984 735.132 Q56.3984 739.779 60.0905 742.453 Q63.7508 745.095 70.212 745.095 M82.657 725.138 Q85.8398 726.984 87.3994 729.817 Q88.9272 732.618 88.9272 736.565 Q88.9272 743.026 83.771 747.1 Q78.6147 751.142 70.212 751.142 Q61.8093 751.142 56.6531 747.1 Q51.4968 743.026 51.4968 736.565 Q51.4968 732.618 53.0564 729.817 Q54.5842 726.984 57.7671 725.138 L52.3562 725.138 L52.3562 719.282 L101.563 719.282 L101.563 725.138 L82.657 725.138 Z" fill="#000000" fill-rule="evenodd" fill-opacity="1" /><polyline clip-path="url(#clip312)" style="stroke:#009af9; stroke-width:4; stroke-opacity:1; fill:none" points="
  297.978,1294.96 300.669,1294.96 305.771,1294.96 310.872,1294.96 313.563,1294.96 316.255,1294.96 321.356,1294.96 326.458,1294.96 329.149,1294.96 
  331.84,1294.96 336.941,1294.96 342.043,1294.96 344.734,1294.96 347.425,1294.96 352.527,1294.96 357.628,1294.96 360.32,1294.96 
  363.011,1294.96 368.112,1294.96 373.214,1294.96 375.905,1294.96 378.596,1294.96 383.698,1294.96 388.799,1294.96 391.49,1294.96 
  394.181,1294.96 399.283,1294.96 404.385,1294.96 407.076,1294.96 409.767,1294.96 414.868,1294.96 419.97,1294.96 422.661,1294.96 
  425.352,1294.96 430.454,1294.96 435.555,1294.96 438.246,1294.96 440.938,1294.96 446.039,1294.96 451.141,1294.96 453.832,1294.96 
  456.523,1294.96 461.625,1294.96 466.726,1294.96 469.417,1294.96 472.108,1294.96 477.21,1294.96 482.311,1294.96 485.003,1294.96 
  487.694,1294.96 492.795,1294.96 497.897,1294.96 500.588,1294.96 503.279,1294.96 508.381,1294.96 513.482,1294.96 516.173,1294.96 
  518.865,1294.96 523.966,1294.96 529.068,1294.96 531.759,1294.96 534.45,1294.96 539.552,1294.96 544.653,1294.96 547.344,1294.96 
  550.035,1294.96 555.137,1294.96 560.238,1294.96 562.93,1294.96 565.621,1294.96 570.722,1294.96 575.824,1294.96 578.515,1294.96 
  581.206,1294.96 586.308,1294.96 591.409,1294.96 594.1,1294.96 596.792,1294.96 601.893,1294.96 606.995,1294.96 609.686,1294.96 
  612.377,1294.96 617.478,1294.96 622.58,1294.96 625.271,1294.96 627.962,1294.96 633.064,1294.96 638.165,1294.96 640.857,1294.96 
  643.548,1294.96 648.649,1294.96 653.751,1294.96 656.442,1294.96 659.133,1294.96 664.235,1294.96 669.336,1294.96 672.027,1294.96 
  674.719,1294.96 679.82,1294.96 684.922,1294.96 687.613,1294.96 690.304,1294.96 695.405,1294.96 700.507,1294.96 703.198,1294.96 
  705.889,1294.96 710.991,1294.96 716.092,1294.96 718.784,1294.96 721.475,1294.96 726.576,168.451 731.678,168.451 734.369,168.451 
  737.06,168.451 742.162,168.451 747.263,168.451 749.954,168.451 752.645,168.451 757.747,168.451 762.849,168.451 765.54,168.451 
  768.231,168.451 773.332,168.451 778.434,168.451 781.125,168.451 783.816,168.451 788.918,168.451 794.019,168.451 796.71,168.451 
  799.402,168.451 804.503,168.451 809.605,168.451 812.296,168.451 814.987,168.451 820.089,168.451 825.19,168.451 827.881,168.451 
  830.572,168.451 835.674,168.451 840.775,168.451 843.467,168.451 846.158,168.451 851.259,168.451 856.361,168.451 859.052,168.451 
  861.743,168.451 866.845,168.451 871.946,168.451 874.637,168.451 877.329,168.451 882.43,168.451 887.532,168.451 890.223,168.451 
  892.914,168.451 898.016,168.451 903.117,168.451 905.808,168.451 908.499,168.451 913.601,168.451 918.702,168.451 921.394,168.451 
  924.085,168.451 929.186,168.451 934.288,168.451 936.979,168.451 939.67,168.451 944.772,168.451 949.873,168.451 952.564,168.451 
  955.256,168.451 960.357,168.451 965.459,168.451 968.15,168.451 970.841,168.451 975.942,168.451 981.044,168.451 983.735,168.451 
  986.426,168.451 991.528,168.451 996.629,168.451 999.321,168.451 1002.01,168.451 1007.11,168.451 1012.21,1294.96 1014.91,1294.96 
  1017.6,1294.96 1022.7,1294.96 1027.8,1294.96 1030.49,1294.96 1033.18,1294.96 1038.28,1294.96 1043.39,1294.96 1046.08,1294.96 
  1048.77,1294.96 1053.87,1294.96 1058.97,1294.96 1061.66,1294.96 1064.35,1294.96 1069.45,1294.96 1074.56,1294.96 1077.25,1294.96 
  1079.94,1294.96 1085.04,1294.96 1090.14,1294.96 1092.83,1294.96 1095.52,1294.96 1100.63,1294.96 1105.73,1294.96 1108.42,1294.96 
  1111.11,1294.96 1116.21,1294.96 1121.31,1294.96 1124,1294.96 1126.69,1294.96 1131.8,1294.96 1136.9,1294.96 1139.59,1294.96 
  1142.28,1294.96 1147.38,1294.96 1152.48,1294.96 1155.17,1294.96 1157.87,1294.96 1162.97,1294.96 1168.07,1294.96 1170.76,1294.96 
  1173.45,1294.96 1178.55,1294.96 1183.65,1294.96 1186.35,1294.96 1189.04,1294.96 1194.14,1294.96 1199.24,1294.96 1201.93,1294.96 
  1204.62,1294.96 1209.72,1294.96 1214.82,1294.96 1217.52,1294.96 1220.21,1294.96 1225.31,1294.96 1230.41,1294.96 1233.1,1294.96 
  1235.79,1294.96 1240.89,1294.96 1246,1294.96 1248.69,1294.96 1251.38,1294.96 1256.48,1294.96 1261.58,1294.96 1264.27,1294.96 
  1266.96,1294.96 1272.06,1294.96 1277.17,1294.96 1279.86,1294.96 1282.55,1294.96 1287.65,1294.96 1292.75,1294.96 1295.44,1294.96 
  1298.13,1294.96 1303.24,1294.96 1308.34,1294.96 1311.03,1294.96 1313.72,1294.96 1318.82,1294.96 1323.92,1294.96 1326.61,1294.96 
  1329.3,1294.96 1334.41,1294.96 1339.51,1294.96 1342.2,1294.96 1344.89,1294.96 1349.99,1294.96 1355.09,1294.96 1357.78,1294.96 
  1360.48,1294.96 1365.58,1294.96 1370.68,1294.96 1373.37,1294.96 1376.06,1294.96 1381.16,1294.96 1386.26,1294.96 1388.96,1294.96 
  1391.65,1294.96 1396.75,1294.96 1401.85,1294.96 1404.54,1294.96 1407.23,1294.96 1412.33,1294.96 1417.43,1294.96 1420.13,1294.96 
  1422.82,1294.96 1427.92,1294.96 1433.02,1294.96 1435.71,1294.96 1438.4,1294.96 1443.5,1294.96 1448.61,1294.96 1451.3,1294.96 
  1453.99,1294.96 1459.09,1294.96 1464.19,1294.96 1466.88,1294.96 1469.57,1294.96 1474.67,1294.96 1479.78,1294.96 1482.47,1294.96 
  1485.16,1294.96 1490.26,1294.96 1495.36,1294.96 1498.05,1294.96 1500.74,1294.96 1505.85,1294.96 1510.95,1294.96 1513.64,1294.96 
  1516.33,1294.96 1521.43,1294.96 1526.53,1294.96 1529.22,1294.96 1531.92,1294.96 1537.02,1294.96 1542.12,1294.96 1544.81,1294.96 
  1547.5,1294.96 1552.6,1294.96 1557.7,1294.96 1560.39,1294.96 1563.09,1294.96 1568.19,1294.96 1573.29,1294.96 1575.98,1294.96 
  1578.67,1294.96 1583.77,1294.96 1588.87,1294.96 1591.57,1294.96 1594.26,1294.96 1599.36,1294.96 1604.46,1294.96 1607.15,1294.96 
  1609.84,1294.96 1614.94,1294.96 1620.05,1294.96 1622.74,1294.96 1625.43,1294.96 1630.53,1294.96 1635.63,1294.96 1638.32,1294.96 
  1641.01,1294.96 1646.11,1294.96 1651.22,1294.96 1653.91,1294.96 1656.6,1294.96 1661.7,1294.96 1666.8,1294.96 1669.49,1294.96 
  1672.18,1294.96 1677.29,1294.96 1682.39,1294.96 1685.08,1294.96 1687.77,1294.96 1692.87,1294.96 1697.97,1294.96 1700.66,1294.96 
  1703.35,1294.96 1708.46,1294.96 1713.56,1294.96 1716.25,1294.96 1718.94,1294.96 1724.04,1294.96 1729.14,1294.96 1731.83,1294.96 
  1734.53,1294.96 1739.63,1294.96 1744.73,1294.96 1747.42,1294.96 1750.11,1294.96 1755.21,1294.96 1760.31,1294.96 1763,1294.96 
  1765.7,1294.96 1770.8,1294.96 1775.9,1294.96 1778.59,1294.96 1781.28,1294.96 1786.38,1294.96 1791.48,1294.96 1794.18,1294.96 
  1796.87,1294.96 1801.97,1294.96 1807.07,1294.96 1809.76,1294.96 1812.45,1294.96 1817.55,1294.96 1822.66,1294.96 1825.35,1294.96 
  1828.04,1294.96 1833.14,1294.96 1838.24,1294.96 1840.93,1294.96 1843.62,1294.96 1848.72,1294.96 1853.83,1294.96 1856.52,1294.96 
  1859.21,1294.96 1864.31,1294.96 1869.41,1294.96 1872.1,1294.96 1874.79,1294.96 1879.9,1294.96 1885,1294.96 1887.69,1294.96 
  1890.38,1294.96 1895.48,1294.96 1900.58,1294.96 1903.27,1294.96 1905.96,1294.96 1911.07,1294.96 1916.17,1294.96 1918.86,1294.96 
  1921.55,1294.96 1926.65,1294.96 1931.75,1294.96 1934.44,1294.96 1937.14,1294.96 1942.24,1294.96 1947.34,1294.96 1950.03,1294.96 
  1952.72,1294.96 1957.82,1294.96 1962.92,1294.96 1965.61,1294.96 1968.31,1294.96 1973.41,1294.96 1978.51,1294.96 1981.2,1294.96 
  1983.89,1294.96 1988.99,1294.96 1994.09,1294.96 1996.79,1294.96 1999.48,1294.96 2004.58,1294.96 2009.68,1294.96 2012.37,1294.96 
  2015.06,1294.96 2020.16,1294.96 2025.27,1294.96 2027.96,1294.96 2030.65,1294.96 2035.75,1294.96 2040.85,1294.96 2043.54,1294.96 
  2046.23,1294.96 2051.33,1294.96 2056.44,1294.96 2059.13,1294.96 2061.82,1294.96 2066.92,1294.96 2072.02,1294.96 2074.71,1294.96 
  2077.4,1294.96 2082.51,1294.96 2087.61,1294.96 2090.3,1294.96 2092.99,1294.96 2098.09,1294.96 2103.19,1294.96 2105.88,1294.96 
  2108.57,1294.96 2113.68,1294.96 2118.78,1294.96 2121.47,1294.96 2124.16,1294.96 2129.26,1294.96 2134.36,1294.96 2137.05,1294.96 
  2139.75,1294.96 2144.85,1294.96 2149.95,1294.96 2152.64,1294.96 2155.33,1294.96 2160.43,1294.96 2165.53,1294.96 2168.22,1294.96 
  2170.92,1294.96 2176.02,1294.96 2181.12,1294.96 2183.81,1294.96 2186.5,1294.96 2191.6,1294.96 2196.7,1294.96 2199.4,1294.96 
  2202.09,1294.96 2207.19,1294.96 2212.29,1294.96 2214.98,1294.96 2217.67,1294.96 2222.77,1294.96 2227.88,1294.96 2230.57,1294.96 
  2233.26,1294.96 2238.36,1294.96 2243.46,1294.96 2246.15,1294.96 2248.84,1294.96 2253.94,1294.96 2259.05,1294.96 2261.74,1294.96 
  2264.43,1294.96 2269.53,1294.96 2274.63,1294.96 2277.32,1294.96 2280.01,1294.96 2285.12,1294.96 2290.22,1294.96 2292.91,1294.96 
  
  "/>
<polyline clip-path="url(#clip312)" style="stroke:#e26f46; stroke-width:4; stroke-opacity:1; fill:none" points="
  297.978,1294.96 300.669,1294.96 305.771,1294.96 310.872,1294.96 313.563,1294.96 316.255,1294.96 321.356,1294.96 326.458,1294.96 329.149,1294.96 
  331.84,1294.96 336.941,1294.96 342.043,1294.96 344.734,1294.96 347.425,1294.96 352.527,1294.96 357.628,1294.96 360.32,1294.96 
  363.011,1294.96 368.112,1294.96 373.214,1294.96 375.905,1294.96 378.596,1294.96 383.698,1294.96 388.799,1294.96 391.49,1294.96 
  394.181,1294.96 399.283,1294.96 404.385,1294.96 407.076,1294.96 409.767,1294.96 414.868,1294.96 419.97,1294.96 422.661,1294.96 
  425.352,1294.96 430.454,1294.96 435.555,1294.96 438.246,1294.96 440.938,1294.96 446.039,1294.96 451.141,1294.96 453.832,1294.96 
  456.523,1294.96 461.625,1294.96 466.726,1294.96 469.417,1294.96 472.108,1294.96 477.21,1294.96 482.311,1294.96 485.003,1294.96 
  487.694,1294.96 492.795,1294.96 497.897,1294.96 500.588,1294.96 503.279,1294.96 508.381,1294.96 513.482,1294.96 516.173,1294.96 
  518.865,1294.96 523.966,1294.96 529.068,1294.96 531.759,1294.96 534.45,1294.96 539.552,1294.96 544.653,1294.96 547.344,1294.96 
  550.035,1294.96 555.137,1294.96 560.238,1294.96 562.93,1294.96 565.621,1294.96 570.722,1294.96 575.824,1294.96 578.515,1294.96 
  581.206,1294.96 586.308,1294.96 591.409,1294.96 594.1,1294.96 596.792,1294.96 601.893,1294.96 606.995,1294.96 609.686,1294.96 
  612.377,1294.96 617.478,1294.96 622.58,1294.96 625.271,1294.96 627.962,1294.96 633.064,1294.96 638.165,1294.96 640.857,1294.96 
  643.548,1294.96 648.649,1294.96 653.751,1294.96 656.442,1294.96 659.133,1294.96 664.235,1294.96 669.336,1294.96 672.027,1294.96 
  674.719,1294.96 679.82,1294.96 684.922,1294.96 687.613,1294.96 690.304,1294.96 695.405,1294.96 700.507,1294.96 703.198,1294.96 
  705.889,1294.96 710.991,1294.96 716.092,1294.96 718.784,1294.96 721.475,1294.96 726.576,1294.96 731.678,1294.96 734.369,1294.96 
  737.06,1294.96 742.162,1294.96 747.263,1294.96 749.954,1294.96 752.645,1294.96 757.747,1294.96 762.849,1294.96 765.54,1294.96 
  768.231,1294.96 773.332,1294.96 778.434,1294.96 781.125,1294.96 781.125,1294.96 783.816,1294.96 788.918,1294.96 794.019,1294.96 796.71,1294.96 
  799.402,1294.96 804.503,1294.96 809.605,1294.96 812.296,1294.96 812.296,1294.96 814.987,1294.96 820.089,1294.96 825.19,1294.96 827.881,1294.96 
  827.881,1294.96 830.572,1294.96 835.674,1294.96 840.775,1294.96 843.467,1294.96 843.467,1294.96 846.158,1294.96 851.259,1294.96 856.361,1294.96 859.052,1294.96 
  859.052,1294.96 861.743,1294.96 866.845,1294.96 871.946,1294.96 874.637,1294.96 874.637,1294.96 877.329,1294.96 882.43,1294.96 887.532,1294.96 890.223,1294.96 
  890.223,1294.96 892.914,1294.96 898.016,1294.96 903.117,1294.96 905.808,1294.96 905.808,1294.96 908.499,1294.96 913.601,1294.96 918.702,1294.96 921.394,1294.96 
  921.394,1294.96 924.085,1294.96 929.186,1294.96 934.288,1294.96 936.979,1294.96 936.979,1294.96 939.67,1294.96 944.772,1294.96 949.873,1294.96 952.564,1294.96 
  952.564,1294.96 955.256,1294.96 960.357,1294.96 965.459,1294.96 968.15,1294.96 968.15,1294.96 970.841,1294.96 975.942,1294.96 981.044,1294.96 983.735,1294.96 
  983.735,1294.96 986.426,1294.96 991.528,1294.96 996.629,1294.96 999.321,1294.96 999.321,1294.96 1002.01,1294.96 1007.11,1294.96 1012.21,1294.96 1014.91,1294.96 
  1014.91,1294.96 1017.6,1294.96 1022.7,1294.96 1027.8,1294.96 1030.49,1294.96 1030.49,1294.96 1033.18,1294.96 1038.28,1294.96 1043.39,1294.96 1046.08,1294.96 
  1046.08,1294.96 1048.77,1294.96 1053.87,1294.96 1058.97,1294.96 1061.66,1294.96 1061.66,1294.96 1064.35,1294.96 1069.45,1294.96 1074.56,1294.96 1077.25,1294.96 
  1077.25,1294.96 1079.94,1294.96 1085.04,1294.96 1090.14,1294.96 1092.83,1294.96 1092.83,1294.96 1095.52,1294.96 1100.63,1294.96 1105.73,1294.96 1108.42,1294.97 
  1108.42,1294.96 1111.11,1294.97 1116.21,1294.97 1121.31,1294.96 1124,1294.96 1124,1294.96 1126.69,1294.95 1131.8,1294.95 1136.9,1294.96 1139.59,1294.97 
  1139.59,1294.96 1142.28,1294.98 1147.38,1295 1152.48,1295 1155.17,1294.98 1155.17,1294.99 1157.87,1294.95 1162.97,1294.87 1168.07,1294.82 1170.76,1294.82 
  1170.76,1294.8 1173.45,1294.88 1178.55,1295.09 1183.65,1295.32 1186.35,1295.44 1186.35,1295.44 1189.04,1295.42 1194.14,1295.09 1199.24,1294.4 1201.93,1293.91 
  1201.93,1294.04 1204.62,1293.57 1209.72,1293.53 1214.82,1294.72 1217.52,1295.89 1217.52,1295.42 1220.21,1297.3 1225.31,1299.56 1230.41,1299.47 1233.1,1298.22 
  1233.1,1299 1235.79,1295.1 1240.89,1287.11 1246,1279.53 1248.69,1276.18 1248.69,1276.52 1251.38,1277.48 1256.48,1289.33 1261.58,1313.68 1264.27,1331.31 
  1264.27,1325.56 1266.96,1348.29 1272.06,1366.76 1277.17,1347.45 1279.86,1319.8 1279.86,1320.94 1282.55,1266.59 1287.65,1117.72 1292.75,914.012 1295.44,786.558 
  1295.44,796.079 1298.13,659.769 1303.24,431.564 1308.34,249.546 1311.03,174.82 1311.03,172.833 1313.72,128.271 1318.82,86.1857 1323.92,93.3891 1326.61,114.546 
  1326.61,109.556 1329.3,133.673 1334.41,169.261 1339.51,190.082 1342.2,194.509 1342.2,195.843 1344.89,192.346 1349.99,182.554 1355.09,170.684 1357.78,164.418 
  1357.78,164.595 1360.48,161.979 1365.58,160.825 1370.68,163.749 1373.37,166.569 1373.37,166.231 1376.06,168.41 1381.16,170.768 1386.26,170.971 1388.96,170.277 
  1388.96,170.455 1391.65,169.485 1396.75,168.153 1401.85,167.543 1404.54,167.537 1404.54,167.474 1407.23,167.78 1412.33,168.309 1417.43,168.695 1420.13,168.81 
  1420.13,168.828 1422.82,168.758 1427.92,168.578 1433.02,168.383 1435.71,168.294 1435.71,168.29 1438.4,168.298 1443.5,168.382 1448.61,168.525 1451.3,168.612 
  1451.3,168.604 1453.99,168.638 1459.09,168.578 1464.19,168.364 1466.88,168.193 1466.88,168.244 1469.57,168.056 1474.67,167.958 1479.78,168.254 1482.47,168.592 
  1482.47,168.438 1485.16,169.042 1490.26,169.836 1495.36,169.949 1498.05,169.644 1498.05,169.909 1500.74,168.734 1505.85,166.285 1510.95,164.012 1513.64,163.07 
  1513.64,163.067 1516.33,163.646 1521.43,167.687 1526.53,175.312 1529.22,180.67 1529.22,179.218 1531.92,184.654 1537.02,186.648 1542.12,176.571 1544.81,165.912 
  1544.81,169.902 1547.5,149.782 1552.6,117.588 1557.7,98.2709 1560.39,95.3209 1560.39,98.6756 1563.09,111.591 1568.19,186.724 1573.29,327.972 1575.98,429.042 
  1575.98,420.13 1578.67,545.526 1583.77,783.362 1588.87,1011.99 1591.57,1125.11 1591.57,1122.13 1594.26,1211.92 1599.36,1328.58 1604.46,1377.93 1607.15,1377.98 
  1607.15,1384.24 1609.84,1367.83 1614.94,1332.72 1620.05,1297.16 1622.74,1280.15 1622.74,1280.39 1625.43,1273.41 1630.53,1270.67 1635.63,1279.28 1638.32,1287.44 
  1638.32,1286.39 1641.01,1293.16 1646.11,1301.1 1651.22,1302.91 1653.91,1301.52 1653.91,1302.06 1656.6,1299.39 1661.7,1295.27 1666.8,1292.72 1669.49,1292.15 
  1669.49,1292 1672.18,1292.53 1677.29,1293.81 1682.39,1295.15 1685.08,1295.77 1685.08,1295.77 1687.77,1295.86 1692.87,1295.67 1697.97,1295.17 1700.66,1294.85 
  1700.66,1294.86 1703.35,1294.72 1708.46,1294.65 1713.56,1294.79 1716.25,1294.92 1716.25,1294.91 1718.94,1295 1724.04,1295.07 1729.14,1295.05 1731.83,1295 
  1731.83,1295.01 1734.53,1294.97 1739.63,1294.93 1744.73,1294.92 1747.42,1294.94 1747.42,1294.94 1750.11,1294.95 1755.21,1294.97 1760.31,1294.98 1763,1294.97 
  1763,1294.97 1765.7,1294.97 1770.8,1294.96 1775.9,1294.96 1778.59,1294.96 1778.59,1294.96 1781.28,1294.96 1786.38,1294.96 1791.48,1294.96 1794.18,1294.96 
  1794.18,1294.96 1796.87,1294.96 1801.97,1294.96 1807.07,1294.96 1809.76,1294.96 1809.76,1294.96 1812.45,1294.96 1817.55,1294.96 1822.66,1294.96 1825.35,1294.96 
  1825.35,1294.96 1828.04,1294.96 1833.14,1294.96 1838.24,1294.96 1840.93,1294.96 1840.93,1294.96 1843.62,1294.96 1848.72,1294.96 1853.83,1294.96 1856.52,1294.96 
  1856.52,1294.96 1859.21,1294.96 1864.31,1294.96 1869.41,1294.96 1872.1,1294.96 1872.1,1294.96 1874.79,1294.96 1879.9,1294.96 1885,1294.96 1887.69,1294.96 
  1887.69,1294.96 1890.38,1294.96 1895.48,1294.96 1900.58,1294.96 1903.27,1294.96 1903.27,1294.96 1905.96,1294.96 1911.07,1294.96 1916.17,1294.96 1918.86,1294.96 
  1918.86,1294.96 1921.55,1294.96 1926.65,1294.96 1931.75,1294.96 1934.44,1294.96 1934.44,1294.96 1937.14,1294.96 1942.24,1294.96 1947.34,1294.96 1950.03,1294.96 
  1950.03,1294.96 1952.72,1294.96 1957.82,1294.96 1962.92,1294.96 1965.61,1294.96 1965.61,1294.96 1968.31,1294.96 1973.41,1294.96 1978.51,1294.96 1981.2,1294.96 
  1981.2,1294.96 1983.89,1294.96 1988.99,1294.96 1994.09,1294.96 1996.79,1294.96 1996.79,1294.96 1999.48,1294.96 2004.58,1294.96 2009.68,1294.96 2012.37,1294.96 
  2012.37,1294.96 2015.06,1294.96 2020.16,1294.96 2025.27,1294.96 2027.96,1294.96 2027.96,1294.96 2030.65,1294.96 2035.75,1294.96 2040.85,1294.96 2043.54,1294.96 
  2043.54,1294.96 2046.23,1294.96 2051.33,1294.96 2056.44,1294.96 2059.13,1294.96 2061.82,1294.96 2066.92,1294.96 2072.02,1294.96 2074.71,1294.96 
  2077.4,1294.96 2082.51,1294.96 2087.61,1294.96 2090.3,1294.96 2092.99,1294.96 2098.09,1294.96 2103.19,1294.96 2105.88,1294.96 
  2108.57,1294.96 2113.68,1294.96 2118.78,1294.96 2121.47,1294.96 2124.16,1294.96 2129.26,1294.96 2134.36,1294.96 2137.05,1294.96 
  2139.75,1294.96 2144.85,1294.96 2149.95,1294.96 2152.64,1294.96 2155.33,1294.96 2160.43,1294.96 2165.53,1294.96 2168.22,1294.96 
  2170.92,1294.96 2176.02,1294.96 2181.12,1294.96 2183.81,1294.96 2186.5,1294.96 2191.6,1294.96 2196.7,1294.96 2199.4,1294.96 
  2202.09,1294.96 2207.19,1294.96 2212.29,1294.96 2214.98,1294.96 2217.67,1294.96 2222.77,1294.96 2227.88,1294.96 2230.57,1294.96 
  2233.26,1294.96 2238.36,1294.96 2243.46,1294.96 2246.15,1294.96 2248.84,1294.96 2253.94,1294.96 2259.05,1294.96 2261.74,1294.96 
  2264.43,1294.96 2269.53,1294.96 2274.63,1294.96 2277.32,1294.96 2280.01,1294.96 2285.12,1294.96 2290.22,1294.96 2292.91,1294.96 
  
  "/>
<path clip-path="url(#clip310)" d="
M1802.38 274.549 L2282.27 274.549 L2282.27 93.1086 L1802.38 93.1086  Z
  " fill="#ffffff" fill-rule="evenodd" fill-opacity="1"/>
<polyline clip-path="url(#clip310)" style="stroke:#000000; stroke-width:4; stroke-opacity:1; fill:none" points="
  1802.38,274.549 2282.27,274.549 2282.27,93.1086 1802.38,93.1086 1802.38,274.549 
  "/>
<polyline clip-path="url(#clip310)" style="stroke:#009af9; stroke-width:4; stroke-opacity:1; fill:none" points="
  1825.88,153.589 1966.85,153.589 
  "/>
<path clip-path="url(#clip310)" d="M 0 0 M1994.75 157.929 Q1994.75 162.628 1996.67 165.313 Q1998.61 167.975 2001.99 167.975 Q2005.37 167.975 2007.31 165.313 Q2009.26 162.628 2009.26 157.929 Q2009.26 153.23 2007.31 150.568 Q2005.37 147.883 2001.99 147.883 Q1998.61 147.883 1996.67 150.568 Q1994.75 153.23 1994.75 157.929 M2009.26 166.98 Q2007.92 169.295 2005.86 170.429 Q2003.82 171.54 2000.95 171.54 Q1996.25 171.54 1993.29 167.79 Q1990.35 164.04 1990.35 157.929 Q1990.35 151.818 1993.29 148.068 Q1996.25 144.318 2000.95 144.318 Q2003.82 144.318 2005.86 145.452 Q2007.92 146.563 2009.26 148.878 L2009.26 144.943 L2013.52 144.943 L2013.52 180.73 L2009.26 180.73 L2009.26 166.98 Z" fill="#000000" fill-rule="evenodd" fill-opacity="1" /><path clip-path="url(#clip310)" d="M 0 0 M2019.07 164.989 L2023.96 164.989 L2023.96 168.97 L2020.16 176.378 L2017.18 176.378 L2019.07 168.97 L2019.07 164.989 Z" fill="#000000" fill-rule="evenodd" fill-opacity="1" /><path clip-path="url(#clip310)" d="M 0 0 M2047.71 137.582 L2047.71 144.943 L2056.48 144.943 L2056.48 148.253 L2047.71 148.253 L2047.71 162.327 Q2047.71 165.498 2048.56 166.401 Q2049.44 167.304 2052.11 167.304 L2056.48 167.304 L2056.48 170.869 L2052.11 170.869 Q2047.18 170.869 2045.3 169.04 Q2043.43 167.188 2043.43 162.327 L2043.43 148.253 L2040.3 148.253 L2040.3 144.943 L2043.43 144.943 L2043.43 137.582 L2047.71 137.582 Z" fill="#000000" fill-rule="evenodd" fill-opacity="1" /><path clip-path="url(#clip310)" d="M 0 0 M2061.5 149.341 L2091.18 149.341 L2091.18 153.23 L2061.5 153.23 L2061.5 149.341 M2061.5 158.785 L2091.18 158.785 L2091.18 162.721 L2061.5 162.721 L2061.5 158.785 Z" fill="#000000" fill-rule="evenodd" fill-opacity="1" /><path clip-path="url(#clip310)" d="M 0 0 M2106.25 139.387 Q2102.64 139.387 2100.81 142.952 Q2099 146.494 2099 153.623 Q2099 160.73 2100.81 164.295 Q2102.64 167.836 2106.25 167.836 Q2109.88 167.836 2111.69 164.295 Q2113.52 160.73 2113.52 153.623 Q2113.52 146.494 2111.69 142.952 Q2109.88 139.387 2106.25 139.387 M2106.25 135.684 Q2112.06 135.684 2115.12 140.29 Q2118.19 144.873 2118.19 153.623 Q2118.19 162.35 2115.12 166.957 Q2112.06 171.54 2106.25 171.54 Q2100.44 171.54 2097.36 166.957 Q2094.31 162.35 2094.31 153.623 Q2094.31 144.873 2097.36 140.29 Q2100.44 135.684 2106.25 135.684 Z" fill="#000000" fill-rule="evenodd" fill-opacity="1" /><path clip-path="url(#clip310)" d="M 0 0 M2123.26 164.989 L2128.15 164.989 L2128.15 170.869 L2123.26 170.869 L2123.26 164.989 Z" fill="#000000" fill-rule="evenodd" fill-opacity="1" /><path clip-path="url(#clip310)" d="M 0 0 M2143.22 139.387 Q2139.61 139.387 2137.78 142.952 Q2135.97 146.494 2135.97 153.623 Q2135.97 160.73 2137.78 164.295 Q2139.61 167.836 2143.22 167.836 Q2146.85 167.836 2148.66 164.295 Q2150.49 160.73 2150.49 153.623 Q2150.49 146.494 2148.66 142.952 Q2146.85 139.387 2143.22 139.387 M2143.22 135.684 Q2149.03 135.684 2152.08 140.29 Q2155.16 144.873 2155.16 153.623 Q2155.16 162.35 2152.08 166.957 Q2149.03 171.54 2143.22 171.54 Q2137.41 171.54 2134.33 166.957 Q2131.27 162.35 2131.27 153.623 Q2131.27 144.873 2134.33 140.29 Q2137.41 135.684 2143.22 135.684 Z" fill="#000000" fill-rule="evenodd" fill-opacity="1" /><polyline clip-path="url(#clip310)" style="stroke:#e26f46; stroke-width:4; stroke-opacity:1; fill:none" points="
  1825.88,214.069 1966.85,214.069 
  "/>
<path clip-path="url(#clip310)" d="M 0 0 M1994.75 218.409 Q1994.75 223.108 1996.67 225.793 Q1998.61 228.455 2001.99 228.455 Q2005.37 228.455 2007.31 225.793 Q2009.26 223.108 2009.26 218.409 Q2009.26 213.71 2007.31 211.048 Q2005.37 208.363 2001.99 208.363 Q1998.61 208.363 1996.67 211.048 Q1994.75 213.71 1994.75 218.409 M2009.26 227.46 Q2007.92 229.775 2005.86 230.909 Q2003.82 232.02 2000.95 232.02 Q1996.25 232.02 1993.29 228.27 Q1990.35 224.52 1990.35 218.409 Q1990.35 212.298 1993.29 208.548 Q1996.25 204.798 2000.95 204.798 Q2003.82 204.798 2005.86 205.932 Q2007.92 207.043 2009.26 209.358 L2009.26 205.423 L2013.52 205.423 L2013.52 241.21 L2009.26 241.21 L2009.26 227.46 Z" fill="#000000" fill-rule="evenodd" fill-opacity="1" /><path clip-path="url(#clip310)" d="M 0 0 M2019.07 225.469 L2023.96 225.469 L2023.96 229.45 L2020.16 236.858 L2017.18 236.858 L2019.07 229.45 L2019.07 225.469 Z" fill="#000000" fill-rule="evenodd" fill-opacity="1" /><path clip-path="url(#clip310)" d="M 0 0 M2047.71 198.062 L2047.71 205.423 L2056.48 205.423 L2056.48 208.733 L2047.71 208.733 L2047.71 222.807 Q2047.71 225.978 2048.56 226.881 Q2049.44 227.784 2052.11 227.784 L2056.48 227.784 L2056.48 231.349 L2052.11 231.349 Q2047.18 231.349 2045.3 229.52 Q2043.43 227.668 2043.43 222.807 L2043.43 208.733 L2040.3 208.733 L2040.3 205.423 L2043.43 205.423 L2043.43 198.062 L2047.71 198.062 Z" fill="#000000" fill-rule="evenodd" fill-opacity="1" /><path clip-path="url(#clip310)" d="M 0 0 M2061.5 209.821 L2091.18 209.821 L2091.18 213.71 L2061.5 213.71 L2061.5 209.821 M2061.5 219.265 L2091.18 219.265 L2091.18 223.201 L2061.5 223.201 L2061.5 219.265 Z" fill="#000000" fill-rule="evenodd" fill-opacity="1" /><path clip-path="url(#clip310)" d="M 0 0 M2109.1 200.863 L2097.29 219.312 L2109.1 219.312 L2109.1 200.863 M2107.87 196.789 L2113.75 196.789 L2113.75 219.312 L2118.68 219.312 L2118.68 223.201 L2113.75 223.201 L2113.75 231.349 L2109.1 231.349 L2109.1 223.201 L2093.5 223.201 L2093.5 218.687 L2107.87 196.789 Z" fill="#000000" fill-rule="evenodd" fill-opacity="1" /><path clip-path="url(#clip310)" d="M 0 0 M2123.8 196.789 L2142.15 196.789 L2142.15 200.724 L2128.08 200.724 L2128.08 209.196 Q2129.1 208.849 2130.12 208.687 Q2131.13 208.502 2132.15 208.502 Q2137.94 208.502 2141.32 211.673 Q2144.7 214.844 2144.7 220.261 Q2144.7 225.839 2141.23 228.941 Q2137.75 232.02 2131.43 232.02 Q2129.26 232.02 2126.99 231.65 Q2124.74 231.279 2122.34 230.538 L2122.34 225.839 Q2124.42 226.974 2126.64 227.529 Q2128.87 228.085 2131.34 228.085 Q2135.35 228.085 2137.68 225.978 Q2140.02 223.872 2140.02 220.261 Q2140.02 216.65 2137.68 214.543 Q2135.35 212.437 2131.34 212.437 Q2129.47 212.437 2127.59 212.853 Q2125.74 213.27 2123.8 214.15 L2123.8 196.789 Z" fill="#000000" fill-rule="evenodd" fill-opacity="1" /><path clip-path="url(#clip310)" d="M 0 0 M2159.77 199.867 Q2156.16 199.867 2154.33 203.432 Q2152.52 206.974 2152.52 214.103 Q2152.52 221.21 2154.33 224.775 Q2156.16 228.316 2159.77 228.316 Q2163.4 228.316 2165.21 224.775 Q2167.04 221.21 2167.04 214.103 Q2167.04 206.974 2165.21 203.432 Q2163.4 199.867 2159.77 199.867 M2159.77 196.164 Q2165.58 196.164 2168.63 200.77 Q2171.71 205.353 2171.71 214.103 Q2171.71 222.83 2168.63 227.437 Q2165.58 232.02 2159.77 232.02 Q2153.96 232.02 2150.88 227.437 Q2147.82 222.83 2147.82 214.103 Q2147.82 205.353 2150.88 200.77 Q2153.96 196.164 2159.77 196.164 Z" fill="#000000" fill-rule="evenodd" fill-opacity="1" /><path clip-path="url(#clip310)" d="M 0 0 M2176.78 225.469 L2181.67 225.469 L2181.67 231.349 L2176.78 231.349 L2176.78 225.469 Z" fill="#000000" fill-rule="evenodd" fill-opacity="1" /><path clip-path="url(#clip310)" d="M 0 0 M2199.58 200.863 L2187.78 219.312 L2199.58 219.312 L2199.58 200.863 M2198.36 196.789 L2204.24 196.789 L2204.24 219.312 L2209.17 219.312 L2209.17 223.201 L2204.24 223.201 L2204.24 231.349 L2199.58 231.349 L2199.58 223.201 L2183.98 223.201 L2183.98 218.687 L2198.36 196.789 Z" fill="#000000" fill-rule="evenodd" fill-opacity="1" /><path clip-path="url(#clip310)" d="M 0 0 M2213.05 196.789 L2235.28 196.789 L2235.28 198.779 L2222.73 231.349 L2217.85 231.349 L2229.65 200.724 L2213.05 200.724 L2213.05 196.789 Z" fill="#000000" fill-rule="evenodd" fill-opacity="1" /></svg>
