<?xml version="1.0" encoding="utf-8"?>
<svg xmlns="http://www.w3.org/2000/svg" xmlns:xlink="http://www.w3.org/1999/xlink" width="600" height="400" viewBox="0 0 2400 1600">
<defs>
  <clipPath id="clip580">
    <rect x="0" y="0" width="2400" height="1600"/>
  </clipPath>
</defs>
<path clip-path="url(#clip580)" d="
M0 1600 L2400 1600 L2400 0 L0 0  Z
  " fill="#ffffff" fill-rule="evenodd" fill-opacity="1"/>
<defs>
  <clipPath id="clip581">
    <rect x="480" y="0" width="1681" height="1600"/>
  </clipPath>
</defs>
<path clip-path="url(#clip580)" d="
M238.13 1423.18 L2352.76 1423.18 L2352.76 47.2441 L238.13 47.2441  Z
  " fill="#ffffff" fill-rule="evenodd" fill-opacity="1"/>
<defs>
  <clipPath id="clip582">
    <rect x="238" y="47" width="2116" height="1377"/>
  </clipPath>
</defs>
<polyline clip-path="url(#clip582)" style="stroke:#000000; stroke-width:2; stroke-opacity:0.1; fill:none" points="
  297.978,1423.18 297.978,47.2441 
  "/>
<polyline clip-path="url(#clip582)" style="stroke:#000000; stroke-width:2; stroke-opacity:0.1; fill:none" points="
  867.958,1423.18 867.958,47.2441 
  "/>
<polyline clip-path="url(#clip582)" style="stroke:#000000; stroke-width:2; stroke-opacity:0.1; fill:none" points="
  1437.94,1423.18 1437.94,47.2441 
  "/>
<polyline clip-path="url(#clip582)" style="stroke:#000000; stroke-width:2; stroke-opacity:0.1; fill:none" points="
  2007.92,1423.18 2007.92,47.2441 
  "/>
<polyline clip-path="url(#clip580)" style="stroke:#000000; stroke-width:4; stroke-opacity:1; fill:none" points="
  238.13,1423.18 2352.76,1423.18 
  "/>
<polyline clip-path="url(#clip580)" style="stroke:#000000; stroke-width:4; stroke-opacity:1; fill:none" points="
  297.978,1423.18 297.978,1406.67 
  "/>
<polyline clip-path="url(#clip580)" style="stroke:#000000; stroke-width:4; stroke-opacity:1; fill:none" points="
  867.958,1423.18 867.958,1406.67 
  "/>
<polyline clip-path="url(#clip580)" style="stroke:#000000; stroke-width:4; stroke-opacity:1; fill:none" points="
  1437.94,1423.18 1437.94,1406.67 
  "/>
<polyline clip-path="url(#clip580)" style="stroke:#000000; stroke-width:4; stroke-opacity:1; fill:none" points="
  2007.92,1423.18 2007.92,1406.67 
  "/>
<path clip-path="url(#clip580)" d="M 0 0 M297.978 1452.37 Q294.367 1452.37 292.538 1455.94 Q290.733 1459.48 290.733 1466.61 Q290.733 1473.71 292.538 1477.28 Q294.367 1480.82 297.978 1480.82 Q301.612 1480.82 303.418 1477.28 Q305.246 1473.71 305.246 1466.61 Q305.246 1459.48 303.418 1455.94 Q301.612 1452.37 297.978 1452.37 M297.978 1448.67 Q303.788 1448.67 306.844 1453.27 Q309.922 1457.86 309.922 1466.61 Q309.922 1475.33 306.844 1479.94 Q303.788 1484.52 297.978 1484.52 Q292.168 1484.52 289.089 1479.94 Q286.034 1475.33 286.034 1466.61 Q286.034 1457.86 289.089 1453.27 Q292.168 1448.67 297.978 1448.67 Z" fill="#000000" fill-rule="evenodd" fill-opacity="1" /><path clip-path="url(#clip580)" d="M 0 0 M831.326 1479.92 L838.965 1479.92 L838.965 1453.55 L830.655 1455.22 L830.655 1450.96 L838.919 1449.29 L843.595 1449.29 L843.595 1479.92 L851.234 1479.92 L851.234 1483.85 L831.326 1483.85 L831.326 1479.92 Z" fill="#000000" fill-rule="evenodd" fill-opacity="1" /><path clip-path="url(#clip580)" d="M 0 0 M866.303 1452.37 Q862.692 1452.37 860.863 1455.94 Q859.058 1459.48 859.058 1466.61 Q859.058 1473.71 860.863 1477.28 Q862.692 1480.82 866.303 1480.82 Q869.937 1480.82 871.743 1477.28 Q873.571 1473.71 873.571 1466.61 Q873.571 1459.48 871.743 1455.94 Q869.937 1452.37 866.303 1452.37 M866.303 1448.67 Q872.113 1448.67 875.169 1453.27 Q878.247 1457.86 878.247 1466.61 Q878.247 1475.33 875.169 1479.94 Q872.113 1484.52 866.303 1484.52 Q860.493 1484.52 857.414 1479.94 Q854.359 1475.33 854.359 1466.61 Q854.359 1457.86 857.414 1453.27 Q860.493 1448.67 866.303 1448.67 Z" fill="#000000" fill-rule="evenodd" fill-opacity="1" /><path clip-path="url(#clip580)" d="M 0 0 M893.317 1452.37 Q889.706 1452.37 887.877 1455.94 Q886.071 1459.48 886.071 1466.61 Q886.071 1473.71 887.877 1477.28 Q889.706 1480.82 893.317 1480.82 Q896.951 1480.82 898.756 1477.28 Q900.585 1473.71 900.585 1466.61 Q900.585 1459.48 898.756 1455.94 Q896.951 1452.37 893.317 1452.37 M893.317 1448.67 Q899.127 1448.67 902.182 1453.27 Q905.261 1457.86 905.261 1466.61 Q905.261 1475.33 902.182 1479.94 Q899.127 1484.52 893.317 1484.52 Q887.506 1484.52 884.428 1479.94 Q881.372 1475.33 881.372 1466.61 Q881.372 1457.86 884.428 1453.27 Q887.506 1448.67 893.317 1448.67 Z" fill="#000000" fill-rule="evenodd" fill-opacity="1" /><path clip-path="url(#clip580)" d="M 0 0 M1405.58 1479.92 L1421.9 1479.92 L1421.9 1483.85 L1399.95 1483.85 L1399.95 1479.92 Q1402.61 1477.16 1407.2 1472.53 Q1411.8 1467.88 1412.98 1466.54 Q1415.23 1464.01 1416.11 1462.28 Q1417.01 1460.52 1417.01 1458.83 Q1417.01 1456.07 1415.07 1454.34 Q1413.15 1452.6 1410.04 1452.6 Q1407.85 1452.6 1405.39 1453.37 Q1402.96 1454.13 1400.18 1455.68 L1400.18 1450.96 Q1403.01 1449.82 1405.46 1449.25 Q1407.91 1448.67 1409.95 1448.67 Q1415.32 1448.67 1418.52 1451.35 Q1421.71 1454.04 1421.71 1458.53 Q1421.71 1460.66 1420.9 1462.58 Q1420.11 1464.48 1418.01 1467.07 Q1417.43 1467.74 1414.33 1470.96 Q1411.23 1474.15 1405.58 1479.92 Z" fill="#000000" fill-rule="evenodd" fill-opacity="1" /><path clip-path="url(#clip580)" d="M 0 0 M1436.97 1452.37 Q1433.35 1452.37 1431.53 1455.94 Q1429.72 1459.48 1429.72 1466.61 Q1429.72 1473.71 1431.53 1477.28 Q1433.35 1480.82 1436.97 1480.82 Q1440.6 1480.82 1442.41 1477.28 Q1444.23 1473.71 1444.23 1466.61 Q1444.23 1459.48 1442.41 1455.94 Q1440.6 1452.37 1436.97 1452.37 M1436.97 1448.67 Q1442.78 1448.67 1445.83 1453.27 Q1448.91 1457.86 1448.91 1466.61 Q1448.91 1475.33 1445.83 1479.94 Q1442.78 1484.52 1436.97 1484.52 Q1431.16 1484.52 1428.08 1479.94 Q1425.02 1475.33 1425.02 1466.61 Q1425.02 1457.86 1428.08 1453.27 Q1431.16 1448.67 1436.97 1448.67 Z" fill="#000000" fill-rule="evenodd" fill-opacity="1" /><path clip-path="url(#clip580)" d="M 0 0 M1463.98 1452.37 Q1460.37 1452.37 1458.54 1455.94 Q1456.73 1459.48 1456.73 1466.61 Q1456.73 1473.71 1458.54 1477.28 Q1460.37 1480.82 1463.98 1480.82 Q1467.61 1480.82 1469.42 1477.28 Q1471.25 1473.71 1471.25 1466.61 Q1471.25 1459.48 1469.42 1455.94 Q1467.61 1452.37 1463.98 1452.37 M1463.98 1448.67 Q1469.79 1448.67 1472.85 1453.27 Q1475.92 1457.86 1475.92 1466.61 Q1475.92 1475.33 1472.85 1479.94 Q1469.79 1484.52 1463.98 1484.52 Q1458.17 1484.52 1455.09 1479.94 Q1452.04 1475.33 1452.04 1466.61 Q1452.04 1457.86 1455.09 1453.27 Q1458.17 1448.67 1463.98 1448.67 Z" fill="#000000" fill-rule="evenodd" fill-opacity="1" /><path clip-path="url(#clip580)" d="M 0 0 M1985.15 1465.22 Q1988.51 1465.94 1990.38 1468.2 Q1992.28 1470.47 1992.28 1473.81 Q1992.28 1478.92 1988.76 1481.72 Q1985.24 1484.52 1978.76 1484.52 Q1976.59 1484.52 1974.27 1484.08 Q1971.98 1483.67 1969.53 1482.81 L1969.53 1478.3 Q1971.47 1479.43 1973.79 1480.01 Q1976.1 1480.59 1978.62 1480.59 Q1983.02 1480.59 1985.31 1478.85 Q1987.63 1477.12 1987.63 1473.81 Q1987.63 1470.75 1985.48 1469.04 Q1983.35 1467.3 1979.53 1467.3 L1975.5 1467.3 L1975.5 1463.46 L1979.71 1463.46 Q1983.16 1463.46 1984.99 1462.09 Q1986.82 1460.7 1986.82 1458.11 Q1986.82 1455.45 1984.92 1454.04 Q1983.05 1452.6 1979.53 1452.6 Q1977.61 1452.6 1975.41 1453.02 Q1973.21 1453.44 1970.57 1454.31 L1970.57 1450.15 Q1973.23 1449.41 1975.55 1449.04 Q1977.88 1448.67 1979.94 1448.67 Q1985.27 1448.67 1988.37 1451.1 Q1991.47 1453.5 1991.47 1457.63 Q1991.47 1460.5 1989.83 1462.49 Q1988.18 1464.45 1985.15 1465.22 Z" fill="#000000" fill-rule="evenodd" fill-opacity="1" /><path clip-path="url(#clip580)" d="M 0 0 M2007.35 1452.37 Q2003.74 1452.37 2001.91 1455.94 Q2000.11 1459.48 2000.11 1466.61 Q2000.11 1473.71 2001.91 1477.28 Q2003.74 1480.82 2007.35 1480.82 Q2010.99 1480.82 2012.79 1477.28 Q2014.62 1473.71 2014.62 1466.61 Q2014.62 1459.48 2012.79 1455.94 Q2010.99 1452.37 2007.35 1452.37 M2007.35 1448.67 Q2013.16 1448.67 2016.22 1453.27 Q2019.3 1457.86 2019.3 1466.61 Q2019.3 1475.33 2016.22 1479.94 Q2013.16 1484.52 2007.35 1484.52 Q2001.54 1484.52 1998.46 1479.94 Q1995.41 1475.33 1995.41 1466.61 Q1995.41 1457.86 1998.46 1453.27 Q2001.54 1448.67 2007.35 1448.67 Z" fill="#000000" fill-rule="evenodd" fill-opacity="1" /><path clip-path="url(#clip580)" d="M 0 0 M2034.36 1452.37 Q2030.75 1452.37 2028.92 1455.94 Q2027.12 1459.48 2027.12 1466.61 Q2027.12 1473.71 2028.92 1477.28 Q2030.75 1480.82 2034.36 1480.82 Q2038 1480.82 2039.8 1477.28 Q2041.63 1473.71 2041.63 1466.61 Q2041.63 1459.48 2039.8 1455.94 Q2038 1452.37 2034.36 1452.37 M2034.36 1448.67 Q2040.17 1448.67 2043.23 1453.27 Q2046.31 1457.86 2046.31 1466.61 Q2046.31 1475.33 2043.23 1479.94 Q2040.17 1484.52 2034.36 1484.52 Q2028.55 1484.52 2025.48 1479.94 Q2022.42 1475.33 2022.42 1466.61 Q2022.42 1457.86 2025.48 1453.27 Q2028.55 1448.67 2034.36 1448.67 Z" fill="#000000" fill-rule="evenodd" fill-opacity="1" /><path clip-path="url(#clip580)" d="M 0 0 M1312.06 1520.4 L1299.17 1537.74 L1312.73 1556.04 L1305.82 1556.04 L1295.44 1542.04 L1285.07 1556.04 L1278.16 1556.04 L1292.01 1537.39 L1279.34 1520.4 L1286.24 1520.4 L1295.7 1533.1 L1305.15 1520.4 L1312.06 1520.4 Z" fill="#000000" fill-rule="evenodd" fill-opacity="1" /><polyline clip-path="url(#clip582)" style="stroke:#000000; stroke-width:2; stroke-opacity:0.1; fill:none" points="
  238.13,1316.93 2352.76,1316.93 
  "/>
<polyline clip-path="url(#clip582)" style="stroke:#000000; stroke-width:2; stroke-opacity:0.1; fill:none" points="
  238.13,1026.72 2352.76,1026.72 
  "/>
<polyline clip-path="url(#clip582)" style="stroke:#000000; stroke-width:2; stroke-opacity:0.1; fill:none" points="
  238.13,736.518 2352.76,736.518 
  "/>
<polyline clip-path="url(#clip582)" style="stroke:#000000; stroke-width:2; stroke-opacity:0.1; fill:none" points="
  238.13,446.311 2352.76,446.311 
  "/>
<polyline clip-path="url(#clip582)" style="stroke:#000000; stroke-width:2; stroke-opacity:0.1; fill:none" points="
  238.13,156.105 2352.76,156.105 
  "/>
<polyline clip-path="url(#clip580)" style="stroke:#000000; stroke-width:4; stroke-opacity:1; fill:none" points="
  238.13,1423.18 238.13,47.2441 
  "/>
<polyline clip-path="url(#clip580)" style="stroke:#000000; stroke-width:4; stroke-opacity:1; fill:none" points="
  238.13,1316.93 263.506,1316.93 
  "/>
<polyline clip-path="url(#clip580)" style="stroke:#000000; stroke-width:4; stroke-opacity:1; fill:none" points="
  238.13,1026.72 263.506,1026.72 
  "/>
<polyline clip-path="url(#clip580)" style="stroke:#000000; stroke-width:4; stroke-opacity:1; fill:none" points="
  238.13,736.518 263.506,736.518 
  "/>
<polyline clip-path="url(#clip580)" style="stroke:#000000; stroke-width:4; stroke-opacity:1; fill:none" points="
  238.13,446.311 263.506,446.311 
  "/>
<polyline clip-path="url(#clip580)" style="stroke:#000000; stroke-width:4; stroke-opacity:1; fill:none" points="
  238.13,156.105 263.506,156.105 
  "/>
<path clip-path="url(#clip580)" d="M 0 0 M126.205 1302.73 Q122.593 1302.73 120.765 1306.29 Q118.959 1309.84 118.959 1316.97 Q118.959 1324.07 120.765 1327.64 Q122.593 1331.18 126.205 1331.18 Q129.839 1331.18 131.644 1327.64 Q133.473 1324.07 133.473 1316.97 Q133.473 1309.84 131.644 1306.29 Q129.839 1302.73 126.205 1302.73 M126.205 1299.03 Q132.015 1299.03 135.07 1303.63 Q138.149 1308.22 138.149 1316.97 Q138.149 1325.69 135.07 1330.3 Q132.015 1334.88 126.205 1334.88 Q120.394 1334.88 117.316 1330.3 Q114.26 1325.69 114.26 1316.97 Q114.26 1308.22 117.316 1303.63 Q120.394 1299.03 126.205 1299.03 Z" fill="#000000" fill-rule="evenodd" fill-opacity="1" /><path clip-path="url(#clip580)" d="M 0 0 M143.218 1328.33 L148.103 1328.33 L148.103 1334.21 L143.218 1334.21 L143.218 1328.33 Z" fill="#000000" fill-rule="evenodd" fill-opacity="1" /><path clip-path="url(#clip580)" d="M 0 0 M163.172 1302.73 Q159.561 1302.73 157.732 1306.29 Q155.927 1309.84 155.927 1316.97 Q155.927 1324.07 157.732 1327.64 Q159.561 1331.18 163.172 1331.18 Q166.806 1331.18 168.612 1327.64 Q170.44 1324.07 170.44 1316.97 Q170.44 1309.84 168.612 1306.29 Q166.806 1302.73 163.172 1302.73 M163.172 1299.03 Q168.982 1299.03 172.038 1303.63 Q175.116 1308.22 175.116 1316.97 Q175.116 1325.69 172.038 1330.3 Q168.982 1334.88 163.172 1334.88 Q157.362 1334.88 154.283 1330.3 Q151.228 1325.69 151.228 1316.97 Q151.228 1308.22 154.283 1303.63 Q157.362 1299.03 163.172 1299.03 Z" fill="#000000" fill-rule="evenodd" fill-opacity="1" /><path clip-path="url(#clip580)" d="M 0 0 M190.186 1302.73 Q186.575 1302.73 184.746 1306.29 Q182.94 1309.84 182.94 1316.97 Q182.94 1324.07 184.746 1327.64 Q186.575 1331.18 190.186 1331.18 Q193.82 1331.18 195.625 1327.64 Q197.454 1324.07 197.454 1316.97 Q197.454 1309.84 195.625 1306.29 Q193.82 1302.73 190.186 1302.73 M190.186 1299.03 Q195.996 1299.03 199.051 1303.63 Q202.13 1308.22 202.13 1316.97 Q202.13 1325.69 199.051 1330.3 Q195.996 1334.88 190.186 1334.88 Q184.376 1334.88 181.297 1330.3 Q178.241 1325.69 178.241 1316.97 Q178.241 1308.22 181.297 1303.63 Q184.376 1299.03 190.186 1299.03 Z" fill="#000000" fill-rule="evenodd" fill-opacity="1" /><path clip-path="url(#clip580)" d="M 0 0 M128.797 1012.52 Q125.186 1012.52 123.357 1016.09 Q121.552 1019.63 121.552 1026.76 Q121.552 1033.87 123.357 1037.43 Q125.186 1040.97 128.797 1040.97 Q132.431 1040.97 134.237 1037.43 Q136.066 1033.87 136.066 1026.76 Q136.066 1019.63 134.237 1016.09 Q132.431 1012.52 128.797 1012.52 M128.797 1008.82 Q134.607 1008.82 137.663 1013.43 Q140.741 1018.01 140.741 1026.76 Q140.741 1035.49 137.663 1040.09 Q134.607 1044.68 128.797 1044.68 Q122.987 1044.68 119.908 1040.09 Q116.853 1035.49 116.853 1026.76 Q116.853 1018.01 119.908 1013.43 Q122.987 1008.82 128.797 1008.82 Z" fill="#000000" fill-rule="evenodd" fill-opacity="1" /><path clip-path="url(#clip580)" d="M 0 0 M145.811 1038.12 L150.695 1038.12 L150.695 1044 L145.811 1044 L145.811 1038.12 Z" fill="#000000" fill-rule="evenodd" fill-opacity="1" /><path clip-path="url(#clip580)" d="M 0 0 M159.792 1040.07 L176.112 1040.07 L176.112 1044 L154.167 1044 L154.167 1040.07 Q156.829 1037.31 161.413 1032.68 Q166.019 1028.03 167.2 1026.69 Q169.445 1024.17 170.325 1022.43 Q171.227 1020.67 171.227 1018.98 Q171.227 1016.23 169.283 1014.49 Q167.362 1012.75 164.26 1012.75 Q162.061 1012.75 159.607 1013.52 Q157.177 1014.28 154.399 1015.83 L154.399 1011.11 Q157.223 1009.98 159.677 1009.4 Q162.13 1008.82 164.167 1008.82 Q169.538 1008.82 172.732 1011.5 Q175.926 1014.19 175.926 1018.68 Q175.926 1020.81 175.116 1022.73 Q174.329 1024.63 172.223 1027.22 Q171.644 1027.89 168.542 1031.11 Q165.44 1034.31 159.792 1040.07 Z" fill="#000000" fill-rule="evenodd" fill-opacity="1" /><path clip-path="url(#clip580)" d="M 0 0 M181.227 1009.44 L199.584 1009.44 L199.584 1013.38 L185.51 1013.38 L185.51 1021.85 Q186.528 1021.5 187.547 1021.34 Q188.565 1021.16 189.584 1021.16 Q195.371 1021.16 198.75 1024.33 Q202.13 1027.5 202.13 1032.92 Q202.13 1038.5 198.658 1041.6 Q195.186 1044.68 188.866 1044.68 Q186.69 1044.68 184.422 1044.31 Q182.176 1043.93 179.769 1043.19 L179.769 1038.5 Q181.852 1039.63 184.075 1040.18 Q186.297 1040.74 188.774 1040.74 Q192.778 1040.74 195.116 1038.63 Q197.454 1036.53 197.454 1032.92 Q197.454 1029.31 195.116 1027.2 Q192.778 1025.09 188.774 1025.09 Q186.899 1025.09 185.024 1025.51 Q183.172 1025.93 181.227 1026.81 L181.227 1009.44 Z" fill="#000000" fill-rule="evenodd" fill-opacity="1" /><path clip-path="url(#clip580)" d="M 0 0 M127.2 722.317 Q123.589 722.317 121.76 725.881 Q119.955 729.423 119.955 736.553 Q119.955 743.659 121.76 747.224 Q123.589 750.765 127.2 750.765 Q130.834 750.765 132.64 747.224 Q134.468 743.659 134.468 736.553 Q134.468 729.423 132.64 725.881 Q130.834 722.317 127.2 722.317 M127.2 718.613 Q133.01 718.613 136.066 723.219 Q139.144 727.803 139.144 736.553 Q139.144 745.279 136.066 749.886 Q133.01 754.469 127.2 754.469 Q121.39 754.469 118.311 749.886 Q115.256 745.279 115.256 736.553 Q115.256 727.803 118.311 723.219 Q121.39 718.613 127.2 718.613 Z" fill="#000000" fill-rule="evenodd" fill-opacity="1" /><path clip-path="url(#clip580)" d="M 0 0 M144.214 747.918 L149.098 747.918 L149.098 753.798 L144.214 753.798 L144.214 747.918 Z" fill="#000000" fill-rule="evenodd" fill-opacity="1" /><path clip-path="url(#clip580)" d="M 0 0 M154.214 719.238 L172.57 719.238 L172.57 723.173 L158.496 723.173 L158.496 731.645 Q159.515 731.298 160.533 731.136 Q161.552 730.951 162.57 730.951 Q168.357 730.951 171.737 734.122 Q175.116 737.293 175.116 742.71 Q175.116 748.289 171.644 751.39 Q168.172 754.469 161.852 754.469 Q159.677 754.469 157.408 754.099 Q155.163 753.728 152.755 752.988 L152.755 748.289 Q154.839 749.423 157.061 749.978 Q159.283 750.534 161.76 750.534 Q165.765 750.534 168.102 748.427 Q170.44 746.321 170.44 742.71 Q170.44 739.099 168.102 736.992 Q165.765 734.886 161.76 734.886 Q159.885 734.886 158.01 735.303 Q156.158 735.719 154.214 736.599 L154.214 719.238 Z" fill="#000000" fill-rule="evenodd" fill-opacity="1" /><path clip-path="url(#clip580)" d="M 0 0 M190.186 722.317 Q186.575 722.317 184.746 725.881 Q182.94 729.423 182.94 736.553 Q182.94 743.659 184.746 747.224 Q186.575 750.765 190.186 750.765 Q193.82 750.765 195.625 747.224 Q197.454 743.659 197.454 736.553 Q197.454 729.423 195.625 725.881 Q193.82 722.317 190.186 722.317 M190.186 718.613 Q195.996 718.613 199.051 723.219 Q202.13 727.803 202.13 736.553 Q202.13 745.279 199.051 749.886 Q195.996 754.469 190.186 754.469 Q184.376 754.469 181.297 749.886 Q178.241 745.279 178.241 736.553 Q178.241 727.803 181.297 723.219 Q184.376 718.613 190.186 718.613 Z" fill="#000000" fill-rule="evenodd" fill-opacity="1" /><path clip-path="url(#clip580)" d="M 0 0 M128.103 432.11 Q124.492 432.11 122.663 435.675 Q120.857 439.216 120.857 446.346 Q120.857 453.453 122.663 457.017 Q124.492 460.559 128.103 460.559 Q131.737 460.559 133.542 457.017 Q135.371 453.453 135.371 446.346 Q135.371 439.216 133.542 435.675 Q131.737 432.11 128.103 432.11 M128.103 428.406 Q133.913 428.406 136.968 433.013 Q140.047 437.596 140.047 446.346 Q140.047 455.073 136.968 459.679 Q133.913 464.263 128.103 464.263 Q122.293 464.263 119.214 459.679 Q116.158 455.073 116.158 446.346 Q116.158 437.596 119.214 433.013 Q122.293 428.406 128.103 428.406 Z" fill="#000000" fill-rule="evenodd" fill-opacity="1" /><path clip-path="url(#clip580)" d="M 0 0 M145.116 457.712 L150.001 457.712 L150.001 463.591 L145.116 463.591 L145.116 457.712 Z" fill="#000000" fill-rule="evenodd" fill-opacity="1" /><path clip-path="url(#clip580)" d="M 0 0 M153.89 429.031 L176.112 429.031 L176.112 431.022 L163.565 463.591 L158.681 463.591 L170.487 432.967 L153.89 432.967 L153.89 429.031 Z" fill="#000000" fill-rule="evenodd" fill-opacity="1" /><path clip-path="url(#clip580)" d="M 0 0 M181.227 429.031 L199.584 429.031 L199.584 432.967 L185.51 432.967 L185.51 441.439 Q186.528 441.091 187.547 440.929 Q188.565 440.744 189.584 440.744 Q195.371 440.744 198.75 443.916 Q202.13 447.087 202.13 452.503 Q202.13 458.082 198.658 461.184 Q195.186 464.263 188.866 464.263 Q186.69 464.263 184.422 463.892 Q182.176 463.522 179.769 462.781 L179.769 458.082 Q181.852 459.216 184.075 459.772 Q186.297 460.327 188.774 460.327 Q192.778 460.327 195.116 458.221 Q197.454 456.115 197.454 452.503 Q197.454 448.892 195.116 446.786 Q192.778 444.679 188.774 444.679 Q186.899 444.679 185.024 445.096 Q183.172 445.513 181.227 446.392 L181.227 429.031 Z" fill="#000000" fill-rule="evenodd" fill-opacity="1" /><path clip-path="url(#clip580)" d="M 0 0 M118.242 169.45 L125.88 169.45 L125.88 143.084 L117.57 144.751 L117.57 140.492 L125.834 138.825 L130.51 138.825 L130.51 169.45 L138.149 169.45 L138.149 173.385 L118.242 173.385 L118.242 169.45 Z" fill="#000000" fill-rule="evenodd" fill-opacity="1" /><path clip-path="url(#clip580)" d="M 0 0 M143.218 167.505 L148.103 167.505 L148.103 173.385 L143.218 173.385 L143.218 167.505 Z" fill="#000000" fill-rule="evenodd" fill-opacity="1" /><path clip-path="url(#clip580)" d="M 0 0 M163.172 141.904 Q159.561 141.904 157.732 145.468 Q155.927 149.01 155.927 156.14 Q155.927 163.246 157.732 166.811 Q159.561 170.352 163.172 170.352 Q166.806 170.352 168.612 166.811 Q170.44 163.246 170.44 156.14 Q170.44 149.01 168.612 145.468 Q166.806 141.904 163.172 141.904 M163.172 138.2 Q168.982 138.2 172.038 142.806 Q175.116 147.39 175.116 156.14 Q175.116 164.866 172.038 169.473 Q168.982 174.056 163.172 174.056 Q157.362 174.056 154.283 169.473 Q151.228 164.866 151.228 156.14 Q151.228 147.39 154.283 142.806 Q157.362 138.2 163.172 138.2 Z" fill="#000000" fill-rule="evenodd" fill-opacity="1" /><path clip-path="url(#clip580)" d="M 0 0 M190.186 141.904 Q186.575 141.904 184.746 145.468 Q182.94 149.01 182.94 156.14 Q182.94 163.246 184.746 166.811 Q186.575 170.352 190.186 170.352 Q193.82 170.352 195.625 166.811 Q197.454 163.246 197.454 156.14 Q197.454 149.01 195.625 145.468 Q193.82 141.904 190.186 141.904 M190.186 138.2 Q195.996 138.2 199.051 142.806 Q202.13 147.39 202.13 156.14 Q202.13 164.866 199.051 169.473 Q195.996 174.056 190.186 174.056 Q184.376 174.056 181.297 169.473 Q178.241 164.866 178.241 156.14 Q178.241 147.39 181.297 142.806 Q184.376 138.2 190.186 138.2 Z" fill="#000000" fill-rule="evenodd" fill-opacity="1" /><path clip-path="url(#clip580)" d="M 0 0 M70.212 745.095 Q76.6732 745.095 80.3653 742.453 Q84.0256 739.779 84.0256 735.132 Q84.0256 730.485 80.3653 727.812 Q76.6732 725.138 70.212 725.138 Q63.7508 725.138 60.0905 727.812 Q56.3984 730.485 56.3984 735.132 Q56.3984 739.779 60.0905 742.453 Q63.7508 745.095 70.212 745.095 M82.657 725.138 Q85.8398 726.984 87.3994 729.817 Q88.9272 732.618 88.9272 736.565 Q88.9272 743.026 83.771 747.1 Q78.6147 751.142 70.212 751.142 Q61.8093 751.142 56.6531 747.1 Q51.4968 743.026 51.4968 736.565 Q51.4968 732.618 53.0564 729.817 Q54.5842 726.984 57.7671 725.138 L52.3562 725.138 L52.3562 719.282 L101.563 719.282 L101.563 725.138 L82.657 725.138 Z" fill="#000000" fill-rule="evenodd" fill-opacity="1" /><polyline clip-path="url(#clip582)" style="stroke:#009af9; stroke-width:4; stroke-opacity:1; fill:none" points="
  297.978,1316.93 300.669,1316.93 305.771,1316.93 310.872,1316.93 313.563,1316.93 316.255,1316.93 321.356,1316.93 326.458,1316.93 329.149,1316.93 
  331.84,1316.93 336.941,1316.93 342.043,1316.93 344.734,1316.93 347.425,1316.93 352.527,1316.93 357.628,1316.93 360.32,1316.93 
  363.011,1316.93 368.112,1316.93 373.214,1316.93 375.905,1316.93 378.596,1316.93 383.698,1316.93 388.799,1316.93 391.49,1316.93 
  394.181,1316.93 399.283,1316.93 404.385,1316.93 407.076,1316.93 409.767,1316.93 414.868,1316.93 419.97,1316.93 422.661,1316.93 
  425.352,1316.93 430.454,1316.93 435.555,1316.93 438.246,1316.93 440.938,1316.93 446.039,1316.93 451.141,1316.93 453.832,1316.93 
  456.523,1316.93 461.625,1316.93 466.726,1316.93 469.417,1316.93 472.108,1316.93 477.21,1316.93 482.311,1316.93 485.003,1316.93 
  487.694,1316.93 492.795,1316.93 497.897,1316.93 500.588,1316.93 503.279,1316.93 508.381,1316.93 513.482,1316.93 516.173,1316.93 
  518.865,1316.93 523.966,1316.93 529.068,1316.93 531.759,1316.93 534.45,1316.93 539.552,1316.93 544.653,1316.93 547.344,1316.93 
  550.035,1316.93 555.137,1316.93 560.238,1316.93 562.93,1316.93 565.621,1316.93 570.722,1316.93 575.824,1316.93 578.515,1316.93 
  581.206,1316.93 586.308,1316.93 591.409,1316.93 594.1,1316.93 596.792,1316.93 601.893,1316.93 606.995,1316.93 609.686,1316.93 
  612.377,1316.93 617.478,1316.93 622.58,1316.93 625.271,1316.93 627.962,1316.93 633.064,1316.93 638.165,1316.93 640.857,1316.93 
  643.548,1316.93 648.649,1316.93 653.751,1316.93 656.442,1316.93 659.133,1316.93 664.235,1316.93 669.336,1316.93 672.027,1316.93 
  674.719,1316.93 679.82,1316.93 684.922,1316.93 687.613,1316.93 690.304,1316.93 695.405,1316.93 700.507,1316.93 703.198,1316.93 
  705.889,1316.93 710.991,1316.93 716.092,1316.93 718.784,1316.93 721.475,1316.93 726.576,156.105 731.678,156.105 734.369,156.105 
  737.06,156.105 742.162,156.105 747.263,156.105 749.954,156.105 752.645,156.105 757.747,156.105 762.849,156.105 765.54,156.105 
  768.231,156.105 773.332,156.105 778.434,156.105 781.125,156.105 783.816,156.105 788.918,156.105 794.019,156.105 796.71,156.105 
  799.402,156.105 804.503,156.105 809.605,156.105 812.296,156.105 814.987,156.105 820.089,156.105 825.19,156.105 827.881,156.105 
  830.572,156.105 835.674,156.105 840.775,156.105 843.467,156.105 846.158,156.105 851.259,156.105 856.361,156.105 859.052,156.105 
  861.743,156.105 866.845,156.105 871.946,156.105 874.637,156.105 877.329,156.105 882.43,156.105 887.532,156.105 890.223,156.105 
  892.914,156.105 898.016,156.105 903.117,156.105 905.808,156.105 908.499,156.105 913.601,156.105 918.702,156.105 921.394,156.105 
  924.085,156.105 929.186,156.105 934.288,156.105 936.979,156.105 939.67,156.105 944.772,156.105 949.873,156.105 952.564,156.105 
  955.256,156.105 960.357,156.105 965.459,156.105 968.15,156.105 970.841,156.105 975.942,156.105 981.044,156.105 983.735,156.105 
  986.426,156.105 991.528,156.105 996.629,156.105 999.321,156.105 1002.01,156.105 1007.11,156.105 1012.21,1316.93 1014.91,1316.93 
  1017.6,1316.93 1022.7,1316.93 1027.8,1316.93 1030.49,1316.93 1033.18,1316.93 1038.28,1316.93 1043.39,1316.93 1046.08,1316.93 
  1048.77,1316.93 1053.87,1316.93 1058.97,1316.93 1061.66,1316.93 1064.35,1316.93 1069.45,1316.93 1074.56,1316.93 1077.25,1316.93 
  1079.94,1316.93 1085.04,1316.93 1090.14,1316.93 1092.83,1316.93 1095.52,1316.93 1100.63,1316.93 1105.73,1316.93 1108.42,1316.93 
  1111.11,1316.93 1116.21,1316.93 1121.31,1316.93 1124,1316.93 1126.69,1316.93 1131.8,1316.93 1136.9,1316.93 1139.59,1316.93 
  1142.28,1316.93 1147.38,1316.93 1152.48,1316.93 1155.17,1316.93 1157.87,1316.93 1162.97,1316.93 1168.07,1316.93 1170.76,1316.93 
  1173.45,1316.93 1178.55,1316.93 1183.65,1316.93 1186.35,1316.93 1189.04,1316.93 1194.14,1316.93 1199.24,1316.93 1201.93,1316.93 
  1204.62,1316.93 1209.72,1316.93 1214.82,1316.93 1217.52,1316.93 1220.21,1316.93 1225.31,1316.93 1230.41,1316.93 1233.1,1316.93 
  1235.79,1316.93 1240.89,1316.93 1246,1316.93 1248.69,1316.93 1251.38,1316.93 1256.48,1316.93 1261.58,1316.93 1264.27,1316.93 
  1266.96,1316.93 1272.06,1316.93 1277.17,1316.93 1279.86,1316.93 1282.55,1316.93 1287.65,1316.93 1292.75,1316.93 1295.44,1316.93 
  1298.13,1316.93 1303.24,1316.93 1308.34,1316.93 1311.03,1316.93 1313.72,1316.93 1318.82,1316.93 1323.92,1316.93 1326.61,1316.93 
  1329.3,1316.93 1334.41,1316.93 1339.51,1316.93 1342.2,1316.93 1344.89,1316.93 1349.99,1316.93 1355.09,1316.93 1357.78,1316.93 
  1360.48,1316.93 1365.58,1316.93 1370.68,1316.93 1373.37,1316.93 1376.06,1316.93 1381.16,1316.93 1386.26,1316.93 1388.96,1316.93 
  1391.65,1316.93 1396.75,1316.93 1401.85,1316.93 1404.54,1316.93 1407.23,1316.93 1412.33,1316.93 1417.43,1316.93 1420.13,1316.93 
  1422.82,1316.93 1427.92,1316.93 1433.02,1316.93 1435.71,1316.93 1438.4,1316.93 1443.5,1316.93 1448.61,1316.93 1451.3,1316.93 
  1453.99,1316.93 1459.09,1316.93 1464.19,1316.93 1466.88,1316.93 1469.57,1316.93 1474.67,1316.93 1479.78,1316.93 1482.47,1316.93 
  1485.16,1316.93 1490.26,1316.93 1495.36,1316.93 1498.05,1316.93 1500.74,1316.93 1505.85,1316.93 1510.95,1316.93 1513.64,1316.93 
  1516.33,1316.93 1521.43,1316.93 1526.53,1316.93 1529.22,1316.93 1531.92,1316.93 1537.02,1316.93 1542.12,1316.93 1544.81,1316.93 
  1547.5,1316.93 1552.6,1316.93 1557.7,1316.93 1560.39,1316.93 1563.09,1316.93 1568.19,1316.93 1573.29,1316.93 1575.98,1316.93 
  1578.67,1316.93 1583.77,1316.93 1588.87,1316.93 1591.57,1316.93 1594.26,1316.93 1599.36,1316.93 1604.46,1316.93 1607.15,1316.93 
  1609.84,1316.93 1614.94,1316.93 1620.05,1316.93 1622.74,1316.93 1625.43,1316.93 1630.53,1316.93 1635.63,1316.93 1638.32,1316.93 
  1641.01,1316.93 1646.11,1316.93 1651.22,1316.93 1653.91,1316.93 1656.6,1316.93 1661.7,1316.93 1666.8,1316.93 1669.49,1316.93 
  1672.18,1316.93 1677.29,1316.93 1682.39,1316.93 1685.08,1316.93 1687.77,1316.93 1692.87,1316.93 1697.97,1316.93 1700.66,1316.93 
  1703.35,1316.93 1708.46,1316.93 1713.56,1316.93 1716.25,1316.93 1718.94,1316.93 1724.04,1316.93 1729.14,1316.93 1731.83,1316.93 
  1734.53,1316.93 1739.63,1316.93 1744.73,1316.93 1747.42,1316.93 1750.11,1316.93 1755.21,1316.93 1760.31,1316.93 1763,1316.93 
  1765.7,1316.93 1770.8,1316.93 1775.9,1316.93 1778.59,1316.93 1781.28,1316.93 1786.38,1316.93 1791.48,1316.93 1794.18,1316.93 
  1796.87,1316.93 1801.97,1316.93 1807.07,1316.93 1809.76,1316.93 1812.45,1316.93 1817.55,1316.93 1822.66,1316.93 1825.35,1316.93 
  1828.04,1316.93 1833.14,1316.93 1838.24,1316.93 1840.93,1316.93 1843.62,1316.93 1848.72,1316.93 1853.83,1316.93 1856.52,1316.93 
  1859.21,1316.93 1864.31,1316.93 1869.41,1316.93 1872.1,1316.93 1874.79,1316.93 1879.9,1316.93 1885,1316.93 1887.69,1316.93 
  1890.38,1316.93 1895.48,1316.93 1900.58,1316.93 1903.27,1316.93 1905.96,1316.93 1911.07,1316.93 1916.17,1316.93 1918.86,1316.93 
  1921.55,1316.93 1926.65,1316.93 1931.75,1316.93 1934.44,1316.93 1937.14,1316.93 1942.24,1316.93 1947.34,1316.93 1950.03,1316.93 
  1952.72,1316.93 1957.82,1316.93 1962.92,1316.93 1965.61,1316.93 1968.31,1316.93 1973.41,1316.93 1978.51,1316.93 1981.2,1316.93 
  1983.89,1316.93 1988.99,1316.93 1994.09,1316.93 1996.79,1316.93 1999.48,1316.93 2004.58,1316.93 2009.68,1316.93 2012.37,1316.93 
  2015.06,1316.93 2020.16,1316.93 2025.27,1316.93 2027.96,1316.93 2030.65,1316.93 2035.75,1316.93 2040.85,1316.93 2043.54,1316.93 
  2046.23,1316.93 2051.33,1316.93 2056.44,1316.93 2059.13,1316.93 2061.82,1316.93 2066.92,1316.93 2072.02,1316.93 2074.71,1316.93 
  2077.4,1316.93 2082.51,1316.93 2087.61,1316.93 2090.3,1316.93 2092.99,1316.93 2098.09,1316.93 2103.19,1316.93 2105.88,1316.93 
  2108.57,1316.93 2113.68,1316.93 2118.78,1316.93 2121.47,1316.93 2124.16,1316.93 2129.26,1316.93 2134.36,1316.93 2137.05,1316.93 
  2139.75,1316.93 2144.85,1316.93 2149.95,1316.93 2152.64,1316.93 2155.33,1316.93 2160.43,1316.93 2165.53,1316.93 2168.22,1316.93 
  2170.92,1316.93 2176.02,1316.93 2181.12,1316.93 2183.81,1316.93 2186.5,1316.93 2191.6,1316.93 2196.7,1316.93 2199.4,1316.93 
  2202.09,1316.93 2207.19,1316.93 2212.29,1316.93 2214.98,1316.93 2217.67,1316.93 2222.77,1316.93 2227.88,1316.93 2230.57,1316.93 
  2233.26,1316.93 2238.36,1316.93 2243.46,1316.93 2246.15,1316.93 2248.84,1316.93 2253.94,1316.93 2259.05,1316.93 2261.74,1316.93 
  2264.43,1316.93 2269.53,1316.93 2274.63,1316.93 2277.32,1316.93 2280.01,1316.93 2285.12,1316.93 2290.22,1316.93 2292.91,1316.93 
  
  "/>
<polyline clip-path="url(#clip582)" style="stroke:#e26f46; stroke-width:4; stroke-opacity:1; fill:none" points="
  297.978,1316.93 300.669,1316.93 305.771,1316.93 310.872,1316.93 313.563,1316.93 316.255,1316.93 321.356,1316.93 326.458,1316.93 329.149,1316.93 
  331.84,1316.93 336.941,1316.93 342.043,1316.93 344.734,1316.93 347.425,1316.93 352.527,1316.93 357.628,1316.93 360.32,1316.93 
  363.011,1316.93 368.112,1316.93 373.214,1316.93 375.905,1316.93 378.596,1316.93 383.698,1316.93 388.799,1316.93 391.49,1316.93 
  394.181,1316.93 399.283,1316.93 404.385,1316.93 407.076,1316.93 409.767,1316.93 414.868,1316.93 419.97,1316.93 422.661,1316.93 
  425.352,1316.93 430.454,1316.93 435.555,1316.93 438.246,1316.93 440.938,1316.93 446.039,1316.93 451.141,1316.93 453.832,1316.93 
  456.523,1316.93 461.625,1316.93 466.726,1316.93 469.417,1316.93 472.108,1316.93 477.21,1316.93 482.311,1316.93 485.003,1316.93 
  487.694,1316.93 492.795,1316.93 497.897,1316.93 500.588,1316.93 503.279,1316.93 508.381,1316.93 513.482,1316.93 516.173,1316.93 
  518.865,1316.93 523.966,1316.93 529.068,1316.93 531.759,1316.93 534.45,1316.93 539.552,1316.93 544.653,1316.93 547.344,1316.93 
  550.035,1316.93 555.137,1316.93 560.238,1316.93 562.93,1316.93 565.621,1316.93 570.722,1316.93 575.824,1316.93 578.515,1316.93 
  581.206,1316.93 586.308,1316.93 591.409,1316.93 594.1,1316.93 596.792,1316.93 601.893,1316.93 606.995,1316.93 609.686,1316.93 
  612.377,1316.93 617.478,1316.93 622.58,1316.93 625.271,1316.93 627.962,1316.93 633.064,1316.93 638.165,1316.93 640.857,1316.93 
  643.548,1316.93 648.649,1316.93 653.751,1316.93 656.442,1316.93 659.133,1316.93 664.235,1316.93 669.336,1316.93 672.027,1316.93 
  674.719,1316.93 679.82,1316.93 684.922,1316.93 687.613,1316.93 690.304,1316.93 695.405,1316.93 700.507,1316.93 703.198,1316.93 
  705.889,1316.93 710.991,1316.93 716.092,1316.93 718.784,1316.93 721.475,1316.93 726.576,1316.93 731.678,1316.93 734.369,1316.93 
  737.06,1316.93 742.162,1316.93 747.263,1316.93 749.954,1316.93 752.645,1316.93 757.747,1316.93 762.849,1316.93 765.54,1316.93 
  768.231,1316.93 773.332,1316.93 778.434,1316.93 781.125,1316.93 783.816,1316.93 788.918,1316.93 794.019,1316.93 796.71,1316.93 
  799.402,1316.93 804.503,1316.93 809.605,1316.93 812.296,1316.93 812.296,1316.93 814.987,1316.93 820.089,1316.93 825.19,1316.93 827.881,1316.93 
  827.881,1316.93 830.572,1316.93 835.674,1316.93 840.775,1316.93 843.467,1316.93 843.467,1316.93 846.158,1316.93 851.259,1316.93 856.361,1316.93 859.052,1316.93 
  859.052,1316.93 861.743,1316.93 866.845,1316.93 871.946,1316.93 874.637,1316.93 874.637,1316.93 877.329,1316.93 882.43,1316.93 887.532,1316.93 890.223,1316.93 
  890.223,1316.93 892.914,1316.93 898.016,1316.93 903.117,1316.93 905.808,1316.93 905.808,1316.93 908.499,1316.93 913.601,1316.93 918.702,1316.93 921.394,1316.93 
  921.394,1316.93 924.085,1316.93 929.186,1316.93 934.288,1316.93 936.979,1316.93 936.979,1316.93 939.67,1316.93 944.772,1316.93 949.873,1316.93 952.564,1316.93 
  952.564,1316.93 955.256,1316.93 960.357,1316.93 965.459,1316.93 968.15,1316.93 968.15,1316.93 970.841,1316.93 975.942,1316.93 981.044,1316.93 983.735,1316.93 
  983.735,1316.93 986.426,1316.93 991.528,1316.93 996.629,1316.93 999.321,1316.93 999.321,1316.93 1002.01,1316.93 1007.11,1316.93 1012.21,1316.93 1014.91,1316.93 
  1014.91,1316.93 1017.6,1316.93 1022.7,1316.93 1027.8,1316.93 1030.49,1316.93 1030.49,1316.93 1033.18,1316.93 1038.28,1316.93 1043.39,1316.93 1046.08,1316.93 
  1046.08,1316.93 1048.77,1316.93 1053.87,1316.93 1058.97,1316.93 1061.66,1316.93 1061.66,1316.93 1064.35,1316.93 1069.45,1316.93 1074.56,1316.93 1077.25,1316.93 
  1077.25,1316.93 1079.94,1316.93 1085.04,1316.93 1090.14,1316.94 1092.83,1316.94 1092.83,1316.94 1095.52,1316.94 1100.63,1316.94 1105.73,1316.93 1108.42,1316.93 
  1108.42,1316.93 1111.11,1316.92 1116.21,1316.91 1121.31,1316.89 1124,1316.88 1124,1316.87 1126.69,1316.87 1131.8,1316.87 1136.9,1316.89 1139.59,1316.91 
  1139.59,1316.9 1142.28,1316.95 1147.38,1317.06 1152.48,1317.2 1155.17,1317.28 1155.17,1317.3 1157.87,1317.39 1162.97,1317.47 1168.07,1317.47 1170.76,1317.44 
  1170.76,1317.53 1173.45,1317.32 1178.55,1316.75 1183.65,1315.94 1186.35,1315.41 1186.35,1315.42 1189.04,1314.7 1194.14,1313.42 1199.24,1312.26 1201.93,1311.68 
  1201.93,1311.27 1204.62,1311.28 1209.72,1312.27 1214.82,1314.57 1217.52,1316.31 1217.52,1315.61 1220.21,1319.1 1225.31,1327 1230.41,1336.58 1233.1,1342.31 
  1233.1,1342.72 1235.79,1349.06 1240.89,1359.65 1246,1368.33 1248.69,1372.14 1248.69,1375.41 1251.38,1373.91 1256.48,1363.96 1261.58,1344.72 1264.27,1330.83 
  1264.27,1336.38 1266.96,1309.82 1272.06,1249.08 1277.17,1174.72 1279.86,1130.02 1279.86,1133.94 1282.55,1076.56 1287.65,961.957 1292.75,839.724 1295.44,772.173 
  1295.44,770.832 1298.13,701.565 1303.24,574.546 1308.34,453.139 1311.03,391.355 1311.03,385.778 1313.72,335.399 1318.82,250.671 1323.92,180.037 1326.61,148.451 
  1326.61,143.324 1329.3,126.368 1334.41,102.674 1339.51,90.03 1342.2,87.807 1342.2,86.1857 1344.89,91.2454 1349.99,102.708 1355.09,116.614 1357.78,124.934 
  1357.78,125.772 1360.48,133.332 1365.58,145.85 1370.68,155.995 1373.37,160.392 1373.37,161.25 1376.06,162.952 1381.16,164.862 1386.26,165.054 1388.96,164.463 
  1388.96,164.509 1391.65,163.161 1396.75,160.687 1401.85,158.323 1404.54,157.12 1404.54,156.915 1407.23,156.22 1412.33,155.244 1417.43,154.714 1420.13,154.614 
  1420.13,154.58 1422.82,154.741 1427.92,155.058 1433.02,155.389 1435.71,155.569 1435.71,155.609 1438.4,155.685 1443.5,155.777 1448.61,155.803 1451.3,155.79 
  1451.3,155.736 1453.99,155.756 1459.09,155.945 1464.19,156.33 1466.88,156.611 1466.88,156.534 1469.57,157.071 1474.67,158.195 1479.78,159.455 1482.47,160.175 
  1482.47,160.405 1485.16,160.945 1490.26,161.336 1495.36,160.899 1498.05,160.334 1498.05,161.018 1500.74,159.038 1505.85,153.872 1510.95,146.857 1513.64,142.413 
  1513.64,142.628 1516.33,136.673 1521.43,125.423 1526.53,114.219 1529.22,108.329 1529.22,106.19 1531.92,103.006 1537.02,101.969 1542.12,107.473 1544.81,113.01 
  1544.81,107.97 1547.5,123.925 1552.6,164.11 1557.7,217.3 1560.39,250.596 1560.39,245.555 1563.09,292.836 1568.19,390.89 1573.29,499.966 1575.98,561.943 
  1575.98,561.241 1578.67,629.762 1583.77,759.061 1588.87,887.584 1591.57,955.069 1591.57,959.582 1594.26,1019.69 1599.36,1124.22 1604.46,1216.44 1607.15,1260.13 
  1607.15,1265.96 1609.84,1294.67 1614.94,1338.93 1620.05,1369.89 1622.74,1380.88 1622.74,1383.82 1625.43,1384.24 1630.53,1380.86 1635.63,1372.02 1638.32,1365.16 
  1638.32,1364.91 1641.01,1356.49 1646.11,1341.62 1651.22,1328.13 1653.91,1321.58 1653.91,1320.53 1656.6,1316.69 1661.7,1311.2 1666.8,1308.05 1669.49,1307.33 
  1669.49,1307.02 1672.18,1307.85 1677.29,1309.75 1682.39,1312.08 1685.08,1313.48 1685.08,1313.67 1687.77,1314.8 1692.87,1316.56 1697.97,1317.82 1700.66,1318.29 
  1700.66,1318.4 1703.35,1318.42 1708.46,1318.31 1713.56,1318.01 1716.25,1317.78 1716.25,1317.75 1718.94,1317.51 1724.04,1317.14 1729.14,1316.85 1731.83,1316.73 
  1731.83,1316.71 1734.53,1316.69 1739.63,1316.69 1744.73,1316.73 1747.42,1316.77 1747.42,1316.78 1750.11,1316.82 1755.21,1316.9 1760.31,1316.95 1763,1316.97 
  1763,1316.97 1765.7,1316.98 1770.8,1316.97 1775.9,1316.96 1778.59,1316.95 1778.59,1316.95 1781.28,1316.94 1786.38,1316.93 1791.48,1316.92 1794.18,1316.92 
  1794.18,1316.92 1796.87,1316.92 1801.97,1316.92 1807.07,1316.93 1809.76,1316.93 1809.76,1316.93 1812.45,1316.93 1817.55,1316.93 1822.66,1316.93 1825.35,1316.93 
  1825.35,1316.93 1828.04,1316.93 1833.14,1316.93 1838.24,1316.93 1840.93,1316.93 1840.93,1316.93 1843.62,1316.93 1848.72,1316.93 1853.83,1316.93 1856.52,1316.93 
  1856.52,1316.93 1859.21,1316.93 1864.31,1316.93 1869.41,1316.93 1872.1,1316.93 1872.1,1316.93 1874.79,1316.93 1879.9,1316.93 1885,1316.93 1887.69,1316.93 
  1887.69,1316.93 1890.38,1316.93 1895.48,1316.93 1900.58,1316.93 1903.27,1316.93 1903.27,1316.93 1905.96,1316.93 1911.07,1316.93 1916.17,1316.93 1918.86,1316.93 
  1918.86,1316.93 1921.55,1316.93 1926.65,1316.93 1931.75,1316.93 1934.44,1316.93 1934.44,1316.93 1937.14,1316.93 1942.24,1316.93 1947.34,1316.93 1950.03,1316.93 
  1950.03,1316.93 1952.72,1316.93 1957.82,1316.93 1962.92,1316.93 1965.61,1316.93 1965.61,1316.93 1968.31,1316.93 1973.41,1316.93 1978.51,1316.93 1981.2,1316.93 
  1981.2,1316.93 1983.89,1316.93 1988.99,1316.93 1994.09,1316.93 1996.79,1316.93 1996.79,1316.93 1999.48,1316.93 2004.58,1316.93 2009.68,1316.93 2012.37,1316.93 
  2012.37,1316.93 2015.06,1316.93 2020.16,1316.93 2025.27,1316.93 2027.96,1316.93 2027.96,1316.93 2030.65,1316.93 2035.75,1316.93 2040.85,1316.93 2043.54,1316.93 
  2043.54,1316.93 2046.23,1316.93 2051.33,1316.93 2056.44,1316.93 2059.13,1316.93 2059.13,1316.93 2061.82,1316.93 2066.92,1316.93 2072.02,1316.93 2074.71,1316.93 
  2074.71,1316.93 2077.4,1316.93 2082.51,1316.93 2087.61,1316.93 2090.3,1316.93 2090.3,1316.93 2092.99,1316.93 2098.09,1316.93 2103.19,1316.93 2105.88,1316.93 
  2105.88,1316.93 2108.57,1316.93 2113.68,1316.93 2118.78,1316.93 2121.47,1316.93 2124.16,1316.93 2129.26,1316.93 2134.36,1316.93 2137.05,1316.93 
  2139.75,1316.93 2144.85,1316.93 2149.95,1316.93 2152.64,1316.93 2155.33,1316.93 2160.43,1316.93 2165.53,1316.93 2168.22,1316.93 
  2170.92,1316.93 2176.02,1316.93 2181.12,1316.93 2183.81,1316.93 2186.5,1316.93 2191.6,1316.93 2196.7,1316.93 2199.4,1316.93 
  2202.09,1316.93 2207.19,1316.93 2212.29,1316.93 2214.98,1316.93 2217.67,1316.93 2222.77,1316.93 2227.88,1316.93 2230.57,1316.93 
  2233.26,1316.93 2238.36,1316.93 2243.46,1316.93 2246.15,1316.93 2248.84,1316.93 2253.94,1316.93 2259.05,1316.93 2261.74,1316.93 
  2264.43,1316.93 2269.53,1316.93 2274.63,1316.93 2277.32,1316.93 2280.01,1316.93 2285.12,1316.93 2290.22,1316.93 2292.91,1316.93 
  
  "/>
<path clip-path="url(#clip580)" d="
M1786.57 274.549 L2282.27 274.549 L2282.27 93.1086 L1786.57 93.1086  Z
  " fill="#ffffff" fill-rule="evenodd" fill-opacity="1"/>
<polyline clip-path="url(#clip580)" style="stroke:#000000; stroke-width:4; stroke-opacity:1; fill:none" points="
  1786.57,274.549 2282.27,274.549 2282.27,93.1086 1786.57,93.1086 1786.57,274.549 
  "/>
<polyline clip-path="url(#clip580)" style="stroke:#009af9; stroke-width:4; stroke-opacity:1; fill:none" points="
  1810.07,153.589 1951.04,153.589 
  "/>
<path clip-path="url(#clip580)" d="M 0 0 M1981.94 137.582 L1981.94 144.943 L1990.72 144.943 L1990.72 148.253 L1981.94 148.253 L1981.94 162.327 Q1981.94 165.498 1982.8 166.401 Q1983.68 167.304 1986.34 167.304 L1990.72 167.304 L1990.72 170.869 L1986.34 170.869 Q1981.41 170.869 1979.54 169.04 Q1977.66 167.188 1977.66 162.327 L1977.66 148.253 L1974.54 148.253 L1974.54 144.943 L1977.66 144.943 L1977.66 137.582 L1981.94 137.582 Z" fill="#000000" fill-rule="evenodd" fill-opacity="1" /><path clip-path="url(#clip580)" d="M 0 0 M1995.74 149.341 L2025.42 149.341 L2025.42 153.23 L1995.74 153.23 L1995.74 149.341 M1995.74 158.785 L2025.42 158.785 L2025.42 162.721 L1995.74 162.721 L1995.74 158.785 Z" fill="#000000" fill-rule="evenodd" fill-opacity="1" /><path clip-path="url(#clip580)" d="M 0 0 M2040.49 139.387 Q2036.87 139.387 2035.05 142.952 Q2033.24 146.494 2033.24 153.623 Q2033.24 160.73 2035.05 164.295 Q2036.87 167.836 2040.49 167.836 Q2044.12 167.836 2045.93 164.295 Q2047.75 160.73 2047.75 153.623 Q2047.75 146.494 2045.93 142.952 Q2044.12 139.387 2040.49 139.387 M2040.49 135.684 Q2046.3 135.684 2049.35 140.29 Q2052.43 144.873 2052.43 153.623 Q2052.43 162.35 2049.35 166.957 Q2046.3 171.54 2040.49 171.54 Q2034.68 171.54 2031.6 166.957 Q2028.54 162.35 2028.54 153.623 Q2028.54 144.873 2031.6 140.29 Q2034.68 135.684 2040.49 135.684 Z" fill="#000000" fill-rule="evenodd" fill-opacity="1" /><path clip-path="url(#clip580)" d="M 0 0 M2057.5 164.989 L2062.38 164.989 L2062.38 170.869 L2057.5 170.869 L2057.5 164.989 Z" fill="#000000" fill-rule="evenodd" fill-opacity="1" /><path clip-path="url(#clip580)" d="M 0 0 M2077.45 139.387 Q2073.84 139.387 2072.01 142.952 Q2070.21 146.494 2070.21 153.623 Q2070.21 160.73 2072.01 164.295 Q2073.84 167.836 2077.45 167.836 Q2081.09 167.836 2082.89 164.295 Q2084.72 160.73 2084.72 153.623 Q2084.72 146.494 2082.89 142.952 Q2081.09 139.387 2077.45 139.387 M2077.45 135.684 Q2083.26 135.684 2086.32 140.29 Q2089.4 144.873 2089.4 153.623 Q2089.4 162.35 2086.32 166.957 Q2083.26 171.54 2077.45 171.54 Q2071.64 171.54 2068.56 166.957 Q2065.51 162.35 2065.51 153.623 Q2065.51 144.873 2068.56 140.29 Q2071.64 135.684 2077.45 135.684 Z" fill="#000000" fill-rule="evenodd" fill-opacity="1" /><path clip-path="url(#clip580)" d="M 0 0 M2108.54 134.85 L2118.36 134.85 L2118.36 138.16 L2112.8 138.16 L2112.8 173.808 L2118.36 173.808 L2118.36 177.119 L2108.54 177.119 L2108.54 134.85 Z" fill="#000000" fill-rule="evenodd" fill-opacity="1" /><path clip-path="url(#clip580)" d="M 0 0 M2139.35 145.707 L2139.35 149.734 Q2137.55 148.809 2135.6 148.346 Q2133.66 147.883 2131.57 147.883 Q2128.4 147.883 2126.81 148.855 Q2125.23 149.827 2125.23 151.771 Q2125.23 153.253 2126.37 154.109 Q2127.5 154.943 2130.93 155.707 L2132.38 156.031 Q2136.92 157.003 2138.82 158.785 Q2140.74 160.545 2140.74 163.716 Q2140.74 167.327 2137.87 169.433 Q2135.02 171.54 2130.02 171.54 Q2127.94 171.54 2125.67 171.123 Q2123.43 170.73 2120.93 169.92 L2120.93 165.521 Q2123.29 166.748 2125.58 167.373 Q2127.87 167.975 2130.12 167.975 Q2133.12 167.975 2134.74 166.957 Q2136.37 165.915 2136.37 164.04 Q2136.37 162.304 2135.18 161.378 Q2134.03 160.452 2130.07 159.596 L2128.59 159.248 Q2124.63 158.415 2122.87 156.702 Q2121.11 154.966 2121.11 151.957 Q2121.11 148.299 2123.7 146.309 Q2126.3 144.318 2131.06 144.318 Q2133.43 144.318 2135.51 144.665 Q2137.59 145.012 2139.35 145.707 Z" fill="#000000" fill-rule="evenodd" fill-opacity="1" /><path clip-path="url(#clip580)" d="M 0 0 M2155.16 134.85 L2155.16 177.119 L2145.35 177.119 L2145.35 173.808 L2150.88 173.808 L2150.88 138.16 L2145.35 138.16 L2145.35 134.85 L2155.16 134.85 Z" fill="#000000" fill-rule="evenodd" fill-opacity="1" /><polyline clip-path="url(#clip580)" style="stroke:#e26f46; stroke-width:4; stroke-opacity:1; fill:none" points="
  1810.07,214.069 1951.04,214.069 
  "/>
<path clip-path="url(#clip580)" d="M 0 0 M1981.94 198.062 L1981.94 205.423 L1990.72 205.423 L1990.72 208.733 L1981.94 208.733 L1981.94 222.807 Q1981.94 225.978 1982.8 226.881 Q1983.68 227.784 1986.34 227.784 L1990.72 227.784 L1990.72 231.349 L1986.34 231.349 Q1981.41 231.349 1979.54 229.52 Q1977.66 227.668 1977.66 222.807 L1977.66 208.733 L1974.54 208.733 L1974.54 205.423 L1977.66 205.423 L1977.66 198.062 L1981.94 198.062 Z" fill="#000000" fill-rule="evenodd" fill-opacity="1" /><path clip-path="url(#clip580)" d="M 0 0 M1995.74 209.821 L2025.42 209.821 L2025.42 213.71 L1995.74 213.71 L1995.74 209.821 M1995.74 219.265 L2025.42 219.265 L2025.42 223.201 L1995.74 223.201 L1995.74 219.265 Z" fill="#000000" fill-rule="evenodd" fill-opacity="1" /><path clip-path="url(#clip580)" d="M 0 0 M2043.33 200.863 L2031.53 219.312 L2043.33 219.312 L2043.33 200.863 M2042.11 196.789 L2047.99 196.789 L2047.99 219.312 L2052.92 219.312 L2052.92 223.201 L2047.99 223.201 L2047.99 231.349 L2043.33 231.349 L2043.33 223.201 L2027.73 223.201 L2027.73 218.687 L2042.11 196.789 Z" fill="#000000" fill-rule="evenodd" fill-opacity="1" /><path clip-path="url(#clip580)" d="M 0 0 M2058.03 196.789 L2076.39 196.789 L2076.39 200.724 L2062.31 200.724 L2062.31 209.196 Q2063.33 208.849 2064.35 208.687 Q2065.37 208.502 2066.39 208.502 Q2072.18 208.502 2075.56 211.673 Q2078.93 214.844 2078.93 220.261 Q2078.93 225.839 2075.46 228.941 Q2071.99 232.02 2065.67 232.02 Q2063.5 232.02 2061.23 231.65 Q2058.98 231.279 2056.57 230.538 L2056.57 225.839 Q2058.66 226.974 2060.88 227.529 Q2063.1 228.085 2065.58 228.085 Q2069.58 228.085 2071.92 225.978 Q2074.26 223.872 2074.26 220.261 Q2074.26 216.65 2071.92 214.543 Q2069.58 212.437 2065.58 212.437 Q2063.7 212.437 2061.83 212.853 Q2059.98 213.27 2058.03 214.15 L2058.03 196.789 Z" fill="#000000" fill-rule="evenodd" fill-opacity="1" /><path clip-path="url(#clip580)" d="M 0 0 M2094 199.867 Q2090.39 199.867 2088.56 203.432 Q2086.76 206.974 2086.76 214.103 Q2086.76 221.21 2088.56 224.775 Q2090.39 228.316 2094 228.316 Q2097.64 228.316 2099.44 224.775 Q2101.27 221.21 2101.27 214.103 Q2101.27 206.974 2099.44 203.432 Q2097.64 199.867 2094 199.867 M2094 196.164 Q2099.81 196.164 2102.87 200.77 Q2105.95 205.353 2105.95 214.103 Q2105.95 222.83 2102.87 227.437 Q2099.81 232.02 2094 232.02 Q2088.19 232.02 2085.12 227.437 Q2082.06 222.83 2082.06 214.103 Q2082.06 205.353 2085.12 200.77 Q2088.19 196.164 2094 196.164 Z" fill="#000000" fill-rule="evenodd" fill-opacity="1" /><path clip-path="url(#clip580)" d="M 0 0 M2111.02 225.469 L2115.9 225.469 L2115.9 231.349 L2111.02 231.349 L2111.02 225.469 Z" fill="#000000" fill-rule="evenodd" fill-opacity="1" /><path clip-path="url(#clip580)" d="M 0 0 M2133.82 200.863 L2122.01 219.312 L2133.82 219.312 L2133.82 200.863 M2132.59 196.789 L2138.47 196.789 L2138.47 219.312 L2143.4 219.312 L2143.4 223.201 L2138.47 223.201 L2138.47 231.349 L2133.82 231.349 L2133.82 223.201 L2118.22 223.201 L2118.22 218.687 L2132.59 196.789 Z" fill="#000000" fill-rule="evenodd" fill-opacity="1" /><path clip-path="url(#clip580)" d="M 0 0 M2147.29 196.789 L2169.51 196.789 L2169.51 198.779 L2156.97 231.349 L2152.08 231.349 L2163.89 200.724 L2147.29 200.724 L2147.29 196.789 Z" fill="#000000" fill-rule="evenodd" fill-opacity="1" /><path clip-path="url(#clip580)" d="M 0 0 M2188.66 195.33 L2198.47 195.33 L2198.47 198.64 L2192.92 198.64 L2192.92 234.288 L2198.47 234.288 L2198.47 237.599 L2188.66 237.599 L2188.66 195.33 Z" fill="#000000" fill-rule="evenodd" fill-opacity="1" /><path clip-path="url(#clip580)" d="M 0 0 M2219.47 206.187 L2219.47 210.214 Q2217.66 209.289 2215.72 208.826 Q2213.77 208.363 2211.69 208.363 Q2208.52 208.363 2206.92 209.335 Q2205.35 210.307 2205.35 212.251 Q2205.35 213.733 2206.48 214.589 Q2207.61 215.423 2211.04 216.187 L2212.5 216.511 Q2217.04 217.483 2218.93 219.265 Q2220.86 221.025 2220.86 224.196 Q2220.86 227.807 2217.99 229.913 Q2215.14 232.02 2210.14 232.02 Q2208.05 232.02 2205.79 231.603 Q2203.54 231.21 2201.04 230.4 L2201.04 226.001 Q2203.4 227.228 2205.69 227.853 Q2207.99 228.455 2210.23 228.455 Q2213.24 228.455 2214.86 227.437 Q2216.48 226.395 2216.48 224.52 Q2216.48 222.784 2215.3 221.858 Q2214.14 220.932 2210.18 220.076 L2208.7 219.728 Q2204.74 218.895 2202.99 217.182 Q2201.23 215.446 2201.23 212.437 Q2201.23 208.779 2203.82 206.789 Q2206.41 204.798 2211.18 204.798 Q2213.54 204.798 2215.62 205.145 Q2217.71 205.492 2219.47 206.187 Z" fill="#000000" fill-rule="evenodd" fill-opacity="1" /><path clip-path="url(#clip580)" d="M 0 0 M2235.28 195.33 L2235.28 237.599 L2225.46 237.599 L2225.46 234.288 L2230.99 234.288 L2230.99 198.64 L2225.46 198.64 L2225.46 195.33 L2235.28 195.33 Z" fill="#000000" fill-rule="evenodd" fill-opacity="1" /></svg>
