<?xml version="1.0" encoding="utf-8"?>
<svg xmlns="http://www.w3.org/2000/svg" xmlns:xlink="http://www.w3.org/1999/xlink" width="600" height="400" viewBox="0 0 2400 1600">
<defs>
  <clipPath id="clip620">
    <rect x="0" y="0" width="2400" height="1600"/>
  </clipPath>
</defs>
<path clip-path="url(#clip620)" d="
M0 1600 L2400 1600 L2400 0 L0 0  Z
  " fill="#ffffff" fill-rule="evenodd" fill-opacity="1"/>
<defs>
  <clipPath id="clip621">
    <rect x="480" y="0" width="1681" height="1600"/>
  </clipPath>
</defs>
<path clip-path="url(#clip620)" d="
M319.171 1423.18 L2352.76 1423.18 L2352.76 47.2441 L319.171 47.2441  Z
  " fill="#ffffff" fill-rule="evenodd" fill-opacity="1"/>
<defs>
  <clipPath id="clip622">
    <rect x="319" y="47" width="2035" height="1377"/>
  </clipPath>
</defs>
<polyline clip-path="url(#clip622)" style="stroke:#000000; stroke-width:2; stroke-opacity:0.1; fill:none" points="
  376.722,1423.18 376.722,47.2441 
  "/>
<polyline clip-path="url(#clip622)" style="stroke:#000000; stroke-width:2; stroke-opacity:0.1; fill:none" points="
  760.418,1423.18 760.418,47.2441 
  "/>
<polyline clip-path="url(#clip622)" style="stroke:#000000; stroke-width:2; stroke-opacity:0.1; fill:none" points="
  1144.11,1423.18 1144.11,47.2441 
  "/>
<polyline clip-path="url(#clip622)" style="stroke:#000000; stroke-width:2; stroke-opacity:0.1; fill:none" points="
  1527.81,1423.18 1527.81,47.2441 
  "/>
<polyline clip-path="url(#clip622)" style="stroke:#000000; stroke-width:2; stroke-opacity:0.1; fill:none" points="
  1911.51,1423.18 1911.51,47.2441 
  "/>
<polyline clip-path="url(#clip622)" style="stroke:#000000; stroke-width:2; stroke-opacity:0.1; fill:none" points="
  2295.2,1423.18 2295.2,47.2441 
  "/>
<polyline clip-path="url(#clip620)" style="stroke:#000000; stroke-width:4; stroke-opacity:1; fill:none" points="
  319.171,1423.18 2352.76,1423.18 
  "/>
<polyline clip-path="url(#clip620)" style="stroke:#000000; stroke-width:4; stroke-opacity:1; fill:none" points="
  376.722,1423.18 376.722,1406.67 
  "/>
<polyline clip-path="url(#clip620)" style="stroke:#000000; stroke-width:4; stroke-opacity:1; fill:none" points="
  760.418,1423.18 760.418,1406.67 
  "/>
<polyline clip-path="url(#clip620)" style="stroke:#000000; stroke-width:4; stroke-opacity:1; fill:none" points="
  1144.11,1423.18 1144.11,1406.67 
  "/>
<polyline clip-path="url(#clip620)" style="stroke:#000000; stroke-width:4; stroke-opacity:1; fill:none" points="
  1527.81,1423.18 1527.81,1406.67 
  "/>
<polyline clip-path="url(#clip620)" style="stroke:#000000; stroke-width:4; stroke-opacity:1; fill:none" points="
  1911.51,1423.18 1911.51,1406.67 
  "/>
<polyline clip-path="url(#clip620)" style="stroke:#000000; stroke-width:4; stroke-opacity:1; fill:none" points="
  2295.2,1423.18 2295.2,1406.67 
  "/>
<path clip-path="url(#clip620)" d="M 0 0 M376.722 1452.37 Q373.111 1452.37 371.282 1455.94 Q369.476 1459.48 369.476 1466.61 Q369.476 1473.71 371.282 1477.28 Q373.111 1480.82 376.722 1480.82 Q380.356 1480.82 382.162 1477.28 Q383.99 1473.71 383.99 1466.61 Q383.99 1459.48 382.162 1455.94 Q380.356 1452.37 376.722 1452.37 M376.722 1448.67 Q382.532 1448.67 385.587 1453.27 Q388.666 1457.86 388.666 1466.61 Q388.666 1475.33 385.587 1479.94 Q382.532 1484.52 376.722 1484.52 Q370.912 1484.52 367.833 1479.94 Q364.777 1475.33 364.777 1466.61 Q364.777 1457.86 367.833 1453.27 Q370.912 1448.67 376.722 1448.67 Z" fill="#000000" fill-rule="evenodd" fill-opacity="1" /><path clip-path="url(#clip620)" d="M 0 0 M750.8 1479.92 L758.439 1479.92 L758.439 1453.55 L750.128 1455.22 L750.128 1450.96 L758.392 1449.29 L763.068 1449.29 L763.068 1479.92 L770.707 1479.92 L770.707 1483.85 L750.8 1483.85 L750.8 1479.92 Z" fill="#000000" fill-rule="evenodd" fill-opacity="1" /><path clip-path="url(#clip620)" d="M 0 0 M1138.77 1479.92 L1155.09 1479.92 L1155.09 1483.85 L1133.14 1483.85 L1133.14 1479.92 Q1135.8 1477.16 1140.39 1472.53 Q1144.99 1467.88 1146.17 1466.54 Q1148.42 1464.01 1149.3 1462.28 Q1150.2 1460.52 1150.2 1458.83 Q1150.2 1456.07 1148.26 1454.34 Q1146.34 1452.6 1143.23 1452.6 Q1141.04 1452.6 1138.58 1453.37 Q1136.15 1454.13 1133.37 1455.68 L1133.37 1450.96 Q1136.2 1449.82 1138.65 1449.25 Q1141.1 1448.67 1143.14 1448.67 Q1148.51 1448.67 1151.71 1451.35 Q1154.9 1454.04 1154.9 1458.53 Q1154.9 1460.66 1154.09 1462.58 Q1153.3 1464.48 1151.2 1467.07 Q1150.62 1467.74 1147.52 1470.96 Q1144.41 1474.15 1138.77 1479.92 Z" fill="#000000" fill-rule="evenodd" fill-opacity="1" /><path clip-path="url(#clip620)" d="M 0 0 M1532.06 1465.22 Q1535.41 1465.94 1537.29 1468.2 Q1539.19 1470.47 1539.19 1473.81 Q1539.19 1478.92 1535.67 1481.72 Q1532.15 1484.52 1525.67 1484.52 Q1523.49 1484.52 1521.18 1484.08 Q1518.89 1483.67 1516.43 1482.81 L1516.43 1478.3 Q1518.38 1479.43 1520.69 1480.01 Q1523.01 1480.59 1525.53 1480.59 Q1529.93 1480.59 1532.22 1478.85 Q1534.53 1477.12 1534.53 1473.81 Q1534.53 1470.75 1532.38 1469.04 Q1530.25 1467.3 1526.43 1467.3 L1522.4 1467.3 L1522.4 1463.46 L1526.62 1463.46 Q1530.07 1463.46 1531.9 1462.09 Q1533.72 1460.7 1533.72 1458.11 Q1533.72 1455.45 1531.83 1454.04 Q1529.95 1452.6 1526.43 1452.6 Q1524.51 1452.6 1522.31 1453.02 Q1520.11 1453.44 1517.47 1454.31 L1517.47 1450.15 Q1520.14 1449.41 1522.45 1449.04 Q1524.79 1448.67 1526.85 1448.67 Q1532.17 1448.67 1535.27 1451.1 Q1538.38 1453.5 1538.38 1457.63 Q1538.38 1460.5 1536.73 1462.49 Q1535.09 1464.45 1532.06 1465.22 Z" fill="#000000" fill-rule="evenodd" fill-opacity="1" /><path clip-path="url(#clip620)" d="M 0 0 M1914.51 1453.37 L1902.71 1471.81 L1914.51 1471.81 L1914.51 1453.37 M1913.29 1449.29 L1919.17 1449.29 L1919.17 1471.81 L1924.1 1471.81 L1924.1 1475.7 L1919.17 1475.7 L1919.17 1483.85 L1914.51 1483.85 L1914.51 1475.7 L1898.91 1475.7 L1898.91 1471.19 L1913.29 1449.29 Z" fill="#000000" fill-rule="evenodd" fill-opacity="1" /><path clip-path="url(#clip620)" d="M 0 0 M2285.48 1449.29 L2303.84 1449.29 L2303.84 1453.23 L2289.76 1453.23 L2289.76 1461.7 Q2290.78 1461.35 2291.8 1461.19 Q2292.82 1461 2293.84 1461 Q2299.62 1461 2303 1464.18 Q2306.38 1467.35 2306.38 1472.76 Q2306.38 1478.34 2302.91 1481.44 Q2299.44 1484.52 2293.12 1484.52 Q2290.94 1484.52 2288.67 1484.15 Q2286.43 1483.78 2284.02 1483.04 L2284.02 1478.34 Q2286.1 1479.48 2288.33 1480.03 Q2290.55 1480.59 2293.03 1480.59 Q2297.03 1480.59 2299.37 1478.48 Q2301.71 1476.38 2301.71 1472.76 Q2301.71 1469.15 2299.37 1467.05 Q2297.03 1464.94 2293.03 1464.94 Q2291.15 1464.94 2289.28 1465.36 Q2287.42 1465.77 2285.48 1466.65 L2285.48 1449.29 Z" fill="#000000" fill-rule="evenodd" fill-opacity="1" /><path clip-path="url(#clip620)" d="M 0 0 M1137.7 1538.25 Q1137.7 1544.71 1140.35 1548.4 Q1143.02 1552.07 1147.67 1552.07 Q1152.31 1552.07 1154.99 1548.4 Q1157.66 1544.71 1157.66 1538.25 Q1157.66 1531.79 1154.99 1528.13 Q1152.31 1524.44 1147.67 1524.44 Q1143.02 1524.44 1140.35 1528.13 Q1137.7 1531.79 1137.7 1538.25 M1157.66 1550.7 Q1155.81 1553.88 1152.98 1555.44 Q1150.18 1556.97 1146.23 1556.97 Q1139.77 1556.97 1135.7 1551.81 Q1131.66 1546.65 1131.66 1538.25 Q1131.66 1529.85 1135.7 1524.69 Q1139.77 1519.54 1146.23 1519.54 Q1150.18 1519.54 1152.98 1521.1 Q1155.81 1522.62 1157.66 1525.81 L1157.66 1520.4 L1163.52 1520.4 L1163.52 1569.6 L1157.66 1569.6 L1157.66 1550.7 Z" fill="#000000" fill-rule="evenodd" fill-opacity="1" /><path clip-path="url(#clip620)" d="M 0 0 M1196.75 1566.87 L1196.75 1571.42 L1162.88 1571.42 L1162.88 1566.87 L1196.75 1566.87 Z" fill="#000000" fill-rule="evenodd" fill-opacity="1" /><path clip-path="url(#clip620)" d="M 0 0 M1225.61 1521.45 L1225.61 1526.98 Q1223.13 1525.71 1220.46 1525.07 Q1217.78 1524.44 1214.92 1524.44 Q1210.56 1524.44 1208.36 1525.77 Q1206.2 1527.11 1206.2 1529.79 Q1206.2 1531.82 1207.76 1533 Q1209.32 1534.15 1214.03 1535.2 L1216.03 1535.64 Q1222.27 1536.98 1224.88 1539.43 Q1227.52 1541.85 1227.52 1546.21 Q1227.52 1551.17 1223.58 1554.07 Q1219.66 1556.97 1212.79 1556.97 Q1209.92 1556.97 1206.8 1556.39 Q1203.72 1555.85 1200.28 1554.74 L1200.28 1548.69 Q1203.53 1550.38 1206.68 1551.24 Q1209.83 1552.07 1212.91 1552.07 Q1217.05 1552.07 1219.28 1550.66 Q1221.51 1549.23 1221.51 1546.65 Q1221.51 1544.27 1219.88 1542.99 Q1218.29 1541.72 1212.85 1540.54 L1210.81 1540.07 Q1205.37 1538.92 1202.95 1536.56 Q1200.53 1534.18 1200.53 1530.04 Q1200.53 1525.01 1204.1 1522.27 Q1207.66 1519.54 1214.22 1519.54 Q1217.47 1519.54 1220.33 1520.01 Q1223.2 1520.49 1225.61 1521.45 Z" fill="#000000" fill-rule="evenodd" fill-opacity="1" /><path clip-path="url(#clip620)" d="M 0 0 M1263.3 1534.53 L1263.3 1556.04 L1257.44 1556.04 L1257.44 1534.72 Q1257.44 1529.66 1255.47 1527.14 Q1253.5 1524.63 1249.55 1524.63 Q1244.81 1524.63 1242.07 1527.65 Q1239.33 1530.68 1239.33 1535.9 L1239.33 1556.04 L1233.44 1556.04 L1233.44 1520.4 L1239.33 1520.4 L1239.33 1525.93 Q1241.43 1522.72 1244.27 1521.13 Q1247.13 1519.54 1250.85 1519.54 Q1257 1519.54 1260.15 1523.36 Q1263.3 1527.14 1263.3 1534.53 Z" fill="#000000" fill-rule="evenodd" fill-opacity="1" /><path clip-path="url(#clip620)" d="M 0 0 M1283.26 1524.5 Q1278.54 1524.5 1275.81 1528.19 Q1273.07 1531.85 1273.07 1538.25 Q1273.07 1544.65 1275.78 1548.34 Q1278.51 1552 1283.26 1552 Q1287.93 1552 1290.67 1548.31 Q1293.41 1544.62 1293.41 1538.25 Q1293.41 1531.92 1290.67 1528.23 Q1287.93 1524.5 1283.26 1524.5 M1283.26 1519.54 Q1290.89 1519.54 1295.25 1524.5 Q1299.62 1529.47 1299.62 1538.25 Q1299.62 1547 1295.25 1552 Q1290.89 1556.97 1283.26 1556.97 Q1275.58 1556.97 1271.22 1552 Q1266.9 1547 1266.9 1538.25 Q1266.9 1529.47 1271.22 1524.5 Q1275.58 1519.54 1283.26 1519.54 Z" fill="#000000" fill-rule="evenodd" fill-opacity="1" /><path clip-path="url(#clip620)" d="M 0 0 M1302.35 1520.4 L1308.21 1520.4 L1315.53 1548.21 L1322.82 1520.4 L1329.73 1520.4 L1337.05 1548.21 L1344.33 1520.4 L1350.19 1520.4 L1340.87 1556.04 L1333.96 1556.04 L1326.29 1526.83 L1318.59 1556.04 L1311.68 1556.04 L1302.35 1520.4 Z" fill="#000000" fill-rule="evenodd" fill-opacity="1" /><path clip-path="url(#clip620)" d="M 0 0 M1376.51 1506.52 L1390.01 1506.52 L1390.01 1511.07 L1382.37 1511.07 L1382.37 1560.09 L1390.01 1560.09 L1390.01 1564.64 L1376.51 1564.64 L1376.51 1506.52 Z" fill="#000000" fill-rule="evenodd" fill-opacity="1" /><path clip-path="url(#clip620)" d="M 0 0 M1419.61 1537.81 Q1419.61 1531.44 1416.97 1527.94 Q1414.36 1524.44 1409.61 1524.44 Q1404.9 1524.44 1402.26 1527.94 Q1399.65 1531.44 1399.65 1537.81 Q1399.65 1544.14 1402.26 1547.64 Q1404.9 1551.14 1409.61 1551.14 Q1414.36 1551.14 1416.97 1547.64 Q1419.61 1544.14 1419.61 1537.81 M1425.47 1551.62 Q1425.47 1560.72 1421.42 1565.15 Q1417.38 1569.6 1409.04 1569.6 Q1405.95 1569.6 1403.22 1569.13 Q1400.48 1568.68 1397.9 1567.72 L1397.9 1562.03 Q1400.48 1563.43 1402.99 1564.1 Q1405.51 1564.76 1408.12 1564.76 Q1413.88 1564.76 1416.74 1561.74 Q1419.61 1558.75 1419.61 1552.67 L1419.61 1549.77 Q1417.79 1552.92 1414.96 1554.48 Q1412.13 1556.04 1408.18 1556.04 Q1401.63 1556.04 1397.62 1551.05 Q1393.61 1546.05 1393.61 1537.81 Q1393.61 1529.53 1397.62 1524.53 Q1401.63 1519.54 1408.18 1519.54 Q1412.13 1519.54 1414.96 1521.1 Q1417.79 1522.66 1419.61 1525.81 L1419.61 1520.4 L1425.47 1520.4 L1425.47 1551.62 Z" fill="#000000" fill-rule="evenodd" fill-opacity="1" /><path clip-path="url(#clip620)" d="M 0 0 M1442.02 1508.52 L1447.43 1508.52 L1430.88 1562.09 L1425.47 1562.09 L1442.02 1508.52 Z" fill="#000000" fill-rule="evenodd" fill-opacity="1" /><path clip-path="url(#clip620)" d="M 0 0 M1453.35 1506.52 L1459.24 1506.52 L1459.24 1535.77 L1476.71 1520.4 L1484.19 1520.4 L1465.28 1537.07 L1484.98 1556.04 L1477.35 1556.04 L1459.24 1538.63 L1459.24 1556.04 L1453.35 1556.04 L1453.35 1506.52 Z" fill="#000000" fill-rule="evenodd" fill-opacity="1" /><path clip-path="url(#clip620)" d="M 0 0 M1514.59 1537.81 Q1514.59 1531.44 1511.94 1527.94 Q1509.33 1524.44 1504.59 1524.44 Q1499.88 1524.44 1497.24 1527.94 Q1494.63 1531.44 1494.63 1537.81 Q1494.63 1544.14 1497.24 1547.64 Q1499.88 1551.14 1504.59 1551.14 Q1509.33 1551.14 1511.94 1547.64 Q1514.59 1544.14 1514.59 1537.81 M1520.44 1551.62 Q1520.44 1560.72 1516.4 1565.15 Q1512.36 1569.6 1504.02 1569.6 Q1500.93 1569.6 1498.19 1569.13 Q1495.46 1568.68 1492.88 1567.72 L1492.88 1562.03 Q1495.46 1563.43 1497.97 1564.1 Q1500.49 1564.76 1503.1 1564.76 Q1508.86 1564.76 1511.72 1561.74 Q1514.59 1558.75 1514.59 1552.67 L1514.59 1549.77 Q1512.77 1552.92 1509.94 1554.48 Q1507.11 1556.04 1503.16 1556.04 Q1496.6 1556.04 1492.59 1551.05 Q1488.58 1546.05 1488.58 1537.81 Q1488.58 1529.53 1492.59 1524.53 Q1496.6 1519.54 1503.16 1519.54 Q1507.11 1519.54 1509.94 1521.1 Q1512.77 1522.66 1514.59 1525.81 L1514.59 1520.4 L1520.44 1520.4 L1520.44 1551.62 Z" fill="#000000" fill-rule="evenodd" fill-opacity="1" /><path clip-path="url(#clip620)" d="M 0 0 M1540.27 1506.52 L1540.27 1564.64 L1526.78 1564.64 L1526.78 1560.09 L1534.38 1560.09 L1534.38 1511.07 L1526.78 1511.07 L1526.78 1506.52 L1540.27 1506.52 Z" fill="#000000" fill-rule="evenodd" fill-opacity="1" /><polyline clip-path="url(#clip622)" style="stroke:#000000; stroke-width:2; stroke-opacity:0.1; fill:none" points="
  319.171,1384.24 2352.76,1384.24 
  "/>
<polyline clip-path="url(#clip622)" style="stroke:#000000; stroke-width:2; stroke-opacity:0.1; fill:none" points="
  319.171,989.829 2352.76,989.829 
  "/>
<polyline clip-path="url(#clip622)" style="stroke:#000000; stroke-width:2; stroke-opacity:0.1; fill:none" points="
  319.171,595.42 2352.76,595.42 
  "/>
<polyline clip-path="url(#clip622)" style="stroke:#000000; stroke-width:2; stroke-opacity:0.1; fill:none" points="
  319.171,201.011 2352.76,201.011 
  "/>
<polyline clip-path="url(#clip620)" style="stroke:#000000; stroke-width:4; stroke-opacity:1; fill:none" points="
  319.171,1423.18 319.171,47.2441 
  "/>
<polyline clip-path="url(#clip620)" style="stroke:#000000; stroke-width:4; stroke-opacity:1; fill:none" points="
  319.171,1384.24 343.574,1384.24 
  "/>
<polyline clip-path="url(#clip620)" style="stroke:#000000; stroke-width:4; stroke-opacity:1; fill:none" points="
  319.171,989.829 343.574,989.829 
  "/>
<polyline clip-path="url(#clip620)" style="stroke:#000000; stroke-width:4; stroke-opacity:1; fill:none" points="
  319.171,595.42 343.574,595.42 
  "/>
<polyline clip-path="url(#clip620)" style="stroke:#000000; stroke-width:4; stroke-opacity:1; fill:none" points="
  319.171,201.011 343.574,201.011 
  "/>
<path clip-path="url(#clip620)" d="M 0 0 M126.205 1370.04 Q122.593 1370.04 120.765 1373.6 Q118.959 1377.14 118.959 1384.27 Q118.959 1391.38 120.765 1394.94 Q122.593 1398.49 126.205 1398.49 Q129.839 1398.49 131.644 1394.94 Q133.473 1391.38 133.473 1384.27 Q133.473 1377.14 131.644 1373.6 Q129.839 1370.04 126.205 1370.04 M126.205 1366.33 Q132.015 1366.33 135.07 1370.94 Q138.149 1375.52 138.149 1384.27 Q138.149 1393 135.07 1397.61 Q132.015 1402.19 126.205 1402.19 Q120.394 1402.19 117.316 1397.61 Q114.26 1393 114.26 1384.27 Q114.26 1375.52 117.316 1370.94 Q120.394 1366.33 126.205 1366.33 Z" fill="#000000" fill-rule="evenodd" fill-opacity="1" /><path clip-path="url(#clip620)" d="M 0 0 M143.218 1395.64 L148.103 1395.64 L148.103 1401.52 L143.218 1401.52 L143.218 1395.64 Z" fill="#000000" fill-rule="evenodd" fill-opacity="1" /><path clip-path="url(#clip620)" d="M 0 0 M163.172 1370.04 Q159.561 1370.04 157.732 1373.6 Q155.927 1377.14 155.927 1384.27 Q155.927 1391.38 157.732 1394.94 Q159.561 1398.49 163.172 1398.49 Q166.806 1398.49 168.612 1394.94 Q170.44 1391.38 170.44 1384.27 Q170.44 1377.14 168.612 1373.6 Q166.806 1370.04 163.172 1370.04 M163.172 1366.33 Q168.982 1366.33 172.038 1370.94 Q175.116 1375.52 175.116 1384.27 Q175.116 1393 172.038 1397.61 Q168.982 1402.19 163.172 1402.19 Q157.362 1402.19 154.283 1397.61 Q151.228 1393 151.228 1384.27 Q151.228 1375.52 154.283 1370.94 Q157.362 1366.33 163.172 1366.33 Z" fill="#000000" fill-rule="evenodd" fill-opacity="1" /><path clip-path="url(#clip620)" d="M 0 0 M190.186 1370.04 Q186.575 1370.04 184.746 1373.6 Q182.94 1377.14 182.94 1384.27 Q182.94 1391.38 184.746 1394.94 Q186.575 1398.49 190.186 1398.49 Q193.82 1398.49 195.625 1394.94 Q197.454 1391.38 197.454 1384.27 Q197.454 1377.14 195.625 1373.6 Q193.82 1370.04 190.186 1370.04 M190.186 1366.33 Q195.996 1366.33 199.051 1370.94 Q202.13 1375.52 202.13 1384.27 Q202.13 1393 199.051 1397.61 Q195.996 1402.19 190.186 1402.19 Q184.376 1402.19 181.297 1397.61 Q178.241 1393 178.241 1384.27 Q178.241 1375.52 181.297 1370.94 Q184.376 1366.33 190.186 1366.33 Z" fill="#000000" fill-rule="evenodd" fill-opacity="1" /><path clip-path="url(#clip620)" d="M 0 0 M217.199 1370.04 Q213.588 1370.04 211.76 1373.6 Q209.954 1377.14 209.954 1384.27 Q209.954 1391.38 211.76 1394.94 Q213.588 1398.49 217.199 1398.49 Q220.834 1398.49 222.639 1394.94 Q224.468 1391.38 224.468 1384.27 Q224.468 1377.14 222.639 1373.6 Q220.834 1370.04 217.199 1370.04 M217.199 1366.33 Q223.01 1366.33 226.065 1370.94 Q229.144 1375.52 229.144 1384.27 Q229.144 1393 226.065 1397.61 Q223.01 1402.19 217.199 1402.19 Q211.389 1402.19 208.311 1397.61 Q205.255 1393 205.255 1384.27 Q205.255 1375.52 208.311 1370.94 Q211.389 1366.33 217.199 1366.33 Z" fill="#000000" fill-rule="evenodd" fill-opacity="1" /><path clip-path="url(#clip620)" d="M 0 0 M244.213 1370.04 Q240.602 1370.04 238.773 1373.6 Q236.968 1377.14 236.968 1384.27 Q236.968 1391.38 238.773 1394.94 Q240.602 1398.49 244.213 1398.49 Q247.847 1398.49 249.653 1394.94 Q251.482 1391.38 251.482 1384.27 Q251.482 1377.14 249.653 1373.6 Q247.847 1370.04 244.213 1370.04 M244.213 1366.33 Q250.023 1366.33 253.079 1370.94 Q256.158 1375.52 256.158 1384.27 Q256.158 1393 253.079 1397.61 Q250.023 1402.19 244.213 1402.19 Q238.403 1402.19 235.324 1397.61 Q232.269 1393 232.269 1384.27 Q232.269 1375.52 235.324 1370.94 Q238.403 1366.33 244.213 1366.33 Z" fill="#000000" fill-rule="evenodd" fill-opacity="1" /><path clip-path="url(#clip620)" d="M 0 0 M271.227 1370.04 Q267.616 1370.04 265.787 1373.6 Q263.982 1377.14 263.982 1384.27 Q263.982 1391.38 265.787 1394.94 Q267.616 1398.49 271.227 1398.49 Q274.861 1398.49 276.667 1394.94 Q278.495 1391.38 278.495 1384.27 Q278.495 1377.14 276.667 1373.6 Q274.861 1370.04 271.227 1370.04 M271.227 1366.33 Q277.037 1366.33 280.093 1370.94 Q283.171 1375.52 283.171 1384.27 Q283.171 1393 280.093 1397.61 Q277.037 1402.19 271.227 1402.19 Q265.417 1402.19 262.338 1397.61 Q259.283 1393 259.283 1384.27 Q259.283 1375.52 262.338 1370.94 Q265.417 1366.33 271.227 1366.33 Z" fill="#000000" fill-rule="evenodd" fill-opacity="1" /><path clip-path="url(#clip620)" d="M 0 0 M127.2 975.628 Q123.589 975.628 121.76 979.193 Q119.955 982.734 119.955 989.864 Q119.955 996.97 121.76 1000.54 Q123.589 1004.08 127.2 1004.08 Q130.834 1004.08 132.64 1000.54 Q134.468 996.97 134.468 989.864 Q134.468 982.734 132.64 979.193 Q130.834 975.628 127.2 975.628 M127.2 971.924 Q133.01 971.924 136.066 976.531 Q139.144 981.114 139.144 989.864 Q139.144 998.591 136.066 1003.2 Q133.01 1007.78 127.2 1007.78 Q121.39 1007.78 118.311 1003.2 Q115.256 998.591 115.256 989.864 Q115.256 981.114 118.311 976.531 Q121.39 971.924 127.2 971.924 Z" fill="#000000" fill-rule="evenodd" fill-opacity="1" /><path clip-path="url(#clip620)" d="M 0 0 M144.214 1001.23 L149.098 1001.23 L149.098 1007.11 L144.214 1007.11 L144.214 1001.23 Z" fill="#000000" fill-rule="evenodd" fill-opacity="1" /><path clip-path="url(#clip620)" d="M 0 0 M164.167 975.628 Q160.556 975.628 158.728 979.193 Q156.922 982.734 156.922 989.864 Q156.922 996.97 158.728 1000.54 Q160.556 1004.08 164.167 1004.08 Q167.802 1004.08 169.607 1000.54 Q171.436 996.97 171.436 989.864 Q171.436 982.734 169.607 979.193 Q167.802 975.628 164.167 975.628 M164.167 971.924 Q169.977 971.924 173.033 976.531 Q176.112 981.114 176.112 989.864 Q176.112 998.591 173.033 1003.2 Q169.977 1007.78 164.167 1007.78 Q158.357 1007.78 155.278 1003.2 Q152.223 998.591 152.223 989.864 Q152.223 981.114 155.278 976.531 Q158.357 971.924 164.167 971.924 Z" fill="#000000" fill-rule="evenodd" fill-opacity="1" /><path clip-path="url(#clip620)" d="M 0 0 M191.181 975.628 Q187.57 975.628 185.741 979.193 Q183.936 982.734 183.936 989.864 Q183.936 996.97 185.741 1000.54 Q187.57 1004.08 191.181 1004.08 Q194.815 1004.08 196.621 1000.54 Q198.45 996.97 198.45 989.864 Q198.45 982.734 196.621 979.193 Q194.815 975.628 191.181 975.628 M191.181 971.924 Q196.991 971.924 200.047 976.531 Q203.125 981.114 203.125 989.864 Q203.125 998.591 200.047 1003.2 Q196.991 1007.78 191.181 1007.78 Q185.371 1007.78 182.292 1003.2 Q179.237 998.591 179.237 989.864 Q179.237 981.114 182.292 976.531 Q185.371 971.924 191.181 971.924 Z" fill="#000000" fill-rule="evenodd" fill-opacity="1" /><path clip-path="url(#clip620)" d="M 0 0 M218.195 975.628 Q214.584 975.628 212.755 979.193 Q210.949 982.734 210.949 989.864 Q210.949 996.97 212.755 1000.54 Q214.584 1004.08 218.195 1004.08 Q221.829 1004.08 223.635 1000.54 Q225.463 996.97 225.463 989.864 Q225.463 982.734 223.635 979.193 Q221.829 975.628 218.195 975.628 M218.195 971.924 Q224.005 971.924 227.06 976.531 Q230.139 981.114 230.139 989.864 Q230.139 998.591 227.06 1003.2 Q224.005 1007.78 218.195 1007.78 Q212.385 1007.78 209.306 1003.2 Q206.25 998.591 206.25 989.864 Q206.25 981.114 209.306 976.531 Q212.385 971.924 218.195 971.924 Z" fill="#000000" fill-rule="evenodd" fill-opacity="1" /><path clip-path="url(#clip620)" d="M 0 0 M245.209 975.628 Q241.597 975.628 239.769 979.193 Q237.963 982.734 237.963 989.864 Q237.963 996.97 239.769 1000.54 Q241.597 1004.08 245.209 1004.08 Q248.843 1004.08 250.648 1000.54 Q252.477 996.97 252.477 989.864 Q252.477 982.734 250.648 979.193 Q248.843 975.628 245.209 975.628 M245.209 971.924 Q251.019 971.924 254.074 976.531 Q257.153 981.114 257.153 989.864 Q257.153 998.591 254.074 1003.2 Q251.019 1007.78 245.209 1007.78 Q239.398 1007.78 236.32 1003.2 Q233.264 998.591 233.264 989.864 Q233.264 981.114 236.32 976.531 Q239.398 971.924 245.209 971.924 Z" fill="#000000" fill-rule="evenodd" fill-opacity="1" /><path clip-path="url(#clip620)" d="M 0 0 M262.269 972.549 L280.625 972.549 L280.625 976.484 L266.551 976.484 L266.551 984.956 Q267.57 984.609 268.588 984.447 Q269.607 984.262 270.625 984.262 Q276.412 984.262 279.792 987.433 Q283.171 990.605 283.171 996.021 Q283.171 1001.6 279.699 1004.7 Q276.227 1007.78 269.907 1007.78 Q267.732 1007.78 265.463 1007.41 Q263.218 1007.04 260.81 1006.3 L260.81 1001.6 Q262.894 1002.73 265.116 1003.29 Q267.338 1003.85 269.815 1003.85 Q273.819 1003.85 276.157 1001.74 Q278.495 999.632 278.495 996.021 Q278.495 992.41 276.157 990.304 Q273.819 988.197 269.815 988.197 Q267.94 988.197 266.065 988.614 Q264.213 989.03 262.269 989.91 L262.269 972.549 Z" fill="#000000" fill-rule="evenodd" fill-opacity="1" /><path clip-path="url(#clip620)" d="M 0 0 M127.431 581.219 Q123.82 581.219 121.992 584.783 Q120.186 588.325 120.186 595.455 Q120.186 602.561 121.992 606.126 Q123.82 609.668 127.431 609.668 Q131.066 609.668 132.871 606.126 Q134.7 602.561 134.7 595.455 Q134.7 588.325 132.871 584.783 Q131.066 581.219 127.431 581.219 M127.431 577.515 Q133.242 577.515 136.297 582.121 Q139.376 586.705 139.376 595.455 Q139.376 604.181 136.297 608.788 Q133.242 613.371 127.431 613.371 Q121.621 613.371 118.543 608.788 Q115.487 604.181 115.487 595.455 Q115.487 586.705 118.543 582.121 Q121.621 577.515 127.431 577.515 Z" fill="#000000" fill-rule="evenodd" fill-opacity="1" /><path clip-path="url(#clip620)" d="M 0 0 M144.445 606.82 L149.329 606.82 L149.329 612.7 L144.445 612.7 L144.445 606.82 Z" fill="#000000" fill-rule="evenodd" fill-opacity="1" /><path clip-path="url(#clip620)" d="M 0 0 M164.399 581.219 Q160.788 581.219 158.959 584.783 Q157.153 588.325 157.153 595.455 Q157.153 602.561 158.959 606.126 Q160.788 609.668 164.399 609.668 Q168.033 609.668 169.839 606.126 Q171.667 602.561 171.667 595.455 Q171.667 588.325 169.839 584.783 Q168.033 581.219 164.399 581.219 M164.399 577.515 Q170.209 577.515 173.264 582.121 Q176.343 586.705 176.343 595.455 Q176.343 604.181 173.264 608.788 Q170.209 613.371 164.399 613.371 Q158.589 613.371 155.51 608.788 Q152.454 604.181 152.454 595.455 Q152.454 586.705 155.51 582.121 Q158.589 577.515 164.399 577.515 Z" fill="#000000" fill-rule="evenodd" fill-opacity="1" /><path clip-path="url(#clip620)" d="M 0 0 M191.413 581.219 Q187.801 581.219 185.973 584.783 Q184.167 588.325 184.167 595.455 Q184.167 602.561 185.973 606.126 Q187.801 609.668 191.413 609.668 Q195.047 609.668 196.852 606.126 Q198.681 602.561 198.681 595.455 Q198.681 588.325 196.852 584.783 Q195.047 581.219 191.413 581.219 M191.413 577.515 Q197.223 577.515 200.278 582.121 Q203.357 586.705 203.357 595.455 Q203.357 604.181 200.278 608.788 Q197.223 613.371 191.413 613.371 Q185.602 613.371 182.524 608.788 Q179.468 604.181 179.468 595.455 Q179.468 586.705 182.524 582.121 Q185.602 577.515 191.413 577.515 Z" fill="#000000" fill-rule="evenodd" fill-opacity="1" /><path clip-path="url(#clip620)" d="M 0 0 M218.426 581.219 Q214.815 581.219 212.986 584.783 Q211.181 588.325 211.181 595.455 Q211.181 602.561 212.986 606.126 Q214.815 609.668 218.426 609.668 Q222.061 609.668 223.866 606.126 Q225.695 602.561 225.695 595.455 Q225.695 588.325 223.866 584.783 Q222.061 581.219 218.426 581.219 M218.426 577.515 Q224.236 577.515 227.292 582.121 Q230.371 586.705 230.371 595.455 Q230.371 604.181 227.292 608.788 Q224.236 613.371 218.426 613.371 Q212.616 613.371 209.537 608.788 Q206.482 604.181 206.482 595.455 Q206.482 586.705 209.537 582.121 Q212.616 577.515 218.426 577.515 Z" fill="#000000" fill-rule="evenodd" fill-opacity="1" /><path clip-path="url(#clip620)" d="M 0 0 M236.25 608.765 L243.889 608.765 L243.889 582.399 L235.579 584.066 L235.579 579.807 L243.843 578.14 L248.519 578.14 L248.519 608.765 L256.158 608.765 L256.158 612.7 L236.25 612.7 L236.25 608.765 Z" fill="#000000" fill-rule="evenodd" fill-opacity="1" /><path clip-path="url(#clip620)" d="M 0 0 M271.227 581.219 Q267.616 581.219 265.787 584.783 Q263.982 588.325 263.982 595.455 Q263.982 602.561 265.787 606.126 Q267.616 609.668 271.227 609.668 Q274.861 609.668 276.667 606.126 Q278.495 602.561 278.495 595.455 Q278.495 588.325 276.667 584.783 Q274.861 581.219 271.227 581.219 M271.227 577.515 Q277.037 577.515 280.093 582.121 Q283.171 586.705 283.171 595.455 Q283.171 604.181 280.093 608.788 Q277.037 613.371 271.227 613.371 Q265.417 613.371 262.338 608.788 Q259.283 604.181 259.283 595.455 Q259.283 586.705 262.338 582.121 Q265.417 577.515 271.227 577.515 Z" fill="#000000" fill-rule="evenodd" fill-opacity="1" /><path clip-path="url(#clip620)" d="M 0 0 M128.427 186.809 Q124.816 186.809 122.987 190.374 Q121.181 193.916 121.181 201.045 Q121.181 208.152 122.987 211.717 Q124.816 215.258 128.427 215.258 Q132.061 215.258 133.867 211.717 Q135.695 208.152 135.695 201.045 Q135.695 193.916 133.867 190.374 Q132.061 186.809 128.427 186.809 M128.427 183.106 Q134.237 183.106 137.292 187.712 Q140.371 192.295 140.371 201.045 Q140.371 209.772 137.292 214.379 Q134.237 218.962 128.427 218.962 Q122.617 218.962 119.538 214.379 Q116.482 209.772 116.482 201.045 Q116.482 192.295 119.538 187.712 Q122.617 183.106 128.427 183.106 Z" fill="#000000" fill-rule="evenodd" fill-opacity="1" /><path clip-path="url(#clip620)" d="M 0 0 M145.441 212.411 L150.325 212.411 L150.325 218.291 L145.441 218.291 L145.441 212.411 Z" fill="#000000" fill-rule="evenodd" fill-opacity="1" /><path clip-path="url(#clip620)" d="M 0 0 M165.394 186.809 Q161.783 186.809 159.954 190.374 Q158.149 193.916 158.149 201.045 Q158.149 208.152 159.954 211.717 Q161.783 215.258 165.394 215.258 Q169.028 215.258 170.834 211.717 Q172.663 208.152 172.663 201.045 Q172.663 193.916 170.834 190.374 Q169.028 186.809 165.394 186.809 M165.394 183.106 Q171.204 183.106 174.26 187.712 Q177.339 192.295 177.339 201.045 Q177.339 209.772 174.26 214.379 Q171.204 218.962 165.394 218.962 Q159.584 218.962 156.505 214.379 Q153.45 209.772 153.45 201.045 Q153.45 192.295 156.505 187.712 Q159.584 183.106 165.394 183.106 Z" fill="#000000" fill-rule="evenodd" fill-opacity="1" /><path clip-path="url(#clip620)" d="M 0 0 M192.408 186.809 Q188.797 186.809 186.968 190.374 Q185.163 193.916 185.163 201.045 Q185.163 208.152 186.968 211.717 Q188.797 215.258 192.408 215.258 Q196.042 215.258 197.848 211.717 Q199.676 208.152 199.676 201.045 Q199.676 193.916 197.848 190.374 Q196.042 186.809 192.408 186.809 M192.408 183.106 Q198.218 183.106 201.274 187.712 Q204.352 192.295 204.352 201.045 Q204.352 209.772 201.274 214.379 Q198.218 218.962 192.408 218.962 Q186.598 218.962 183.519 214.379 Q180.464 209.772 180.464 201.045 Q180.464 192.295 183.519 187.712 Q186.598 183.106 192.408 183.106 Z" fill="#000000" fill-rule="evenodd" fill-opacity="1" /><path clip-path="url(#clip620)" d="M 0 0 M219.422 186.809 Q215.811 186.809 213.982 190.374 Q212.176 193.916 212.176 201.045 Q212.176 208.152 213.982 211.717 Q215.811 215.258 219.422 215.258 Q223.056 215.258 224.861 211.717 Q226.69 208.152 226.69 201.045 Q226.69 193.916 224.861 190.374 Q223.056 186.809 219.422 186.809 M219.422 183.106 Q225.232 183.106 228.287 187.712 Q231.366 192.295 231.366 201.045 Q231.366 209.772 228.287 214.379 Q225.232 218.962 219.422 218.962 Q213.611 218.962 210.533 214.379 Q207.477 209.772 207.477 201.045 Q207.477 192.295 210.533 187.712 Q213.611 183.106 219.422 183.106 Z" fill="#000000" fill-rule="evenodd" fill-opacity="1" /><path clip-path="url(#clip620)" d="M 0 0 M237.246 214.356 L244.884 214.356 L244.884 187.99 L236.574 189.657 L236.574 185.397 L244.838 183.731 L249.514 183.731 L249.514 214.356 L257.153 214.356 L257.153 218.291 L237.246 218.291 L237.246 214.356 Z" fill="#000000" fill-rule="evenodd" fill-opacity="1" /><path clip-path="url(#clip620)" d="M 0 0 M262.269 183.731 L280.625 183.731 L280.625 187.666 L266.551 187.666 L266.551 196.138 Q267.57 195.791 268.588 195.629 Q269.607 195.444 270.625 195.444 Q276.412 195.444 279.792 198.615 Q283.171 201.786 283.171 207.203 Q283.171 212.781 279.699 215.883 Q276.227 218.962 269.907 218.962 Q267.732 218.962 265.463 218.592 Q263.218 218.221 260.81 217.481 L260.81 212.781 Q262.894 213.916 265.116 214.471 Q267.338 215.027 269.815 215.027 Q273.819 215.027 276.157 212.92 Q278.495 210.814 278.495 207.203 Q278.495 203.592 276.157 201.485 Q273.819 199.379 269.815 199.379 Q267.94 199.379 266.065 199.795 Q264.213 200.212 262.269 201.092 L262.269 183.731 Z" fill="#000000" fill-rule="evenodd" fill-opacity="1" /><path clip-path="url(#clip620)" d="M 0 0 M53.4065 1211.32 L58.9447 1211.32 Q57.6716 1213.8 57.035 1216.48 Q56.3984 1219.15 56.3984 1222.01 Q56.3984 1226.37 57.7352 1228.57 Q59.072 1230.73 61.7456 1230.73 Q63.7826 1230.73 64.9603 1229.17 Q66.1061 1227.62 67.1565 1222.9 L67.6021 1220.9 Q68.9389 1214.66 71.3897 1212.05 Q73.8086 1209.41 78.1691 1209.41 Q83.1344 1209.41 86.0308 1213.36 Q88.9272 1217.27 88.9272 1224.15 Q88.9272 1227.01 88.3543 1230.13 Q87.8132 1233.22 86.6992 1236.65 L80.6518 1236.65 Q82.3387 1233.41 83.198 1230.26 Q84.0256 1227.11 84.0256 1224.02 Q84.0256 1219.88 82.6251 1217.65 Q81.1929 1215.42 78.6147 1215.42 Q76.2276 1215.42 74.9545 1217.05 Q73.6813 1218.64 72.5037 1224.08 L72.0262 1226.12 Q70.8804 1231.56 68.5251 1233.98 Q66.138 1236.4 62.0002 1236.4 Q56.9713 1236.4 54.2341 1232.84 Q51.4968 1229.27 51.4968 1222.71 Q51.4968 1219.47 51.9743 1216.6 Q52.4517 1213.74 53.4065 1211.32 Z" fill="#000000" fill-rule="evenodd" fill-opacity="1" /><path clip-path="url(#clip620)" d="M 0 0 M66.4881 1173.63 L88.0042 1173.63 L88.0042 1179.49 L66.679 1179.49 Q61.6183 1179.49 59.1038 1181.46 Q56.5894 1183.44 56.5894 1187.38 Q56.5894 1192.13 59.6131 1194.86 Q62.6368 1197.6 67.8567 1197.6 L88.0042 1197.6 L88.0042 1203.49 L52.3562 1203.49 L52.3562 1197.6 L57.8944 1197.6 Q54.6797 1195.5 53.0883 1192.67 Q51.4968 1189.8 51.4968 1186.08 Q51.4968 1179.94 55.3163 1176.79 Q59.1038 1173.63 66.4881 1173.63 Z" fill="#000000" fill-rule="evenodd" fill-opacity="1" /><path clip-path="url(#clip620)" d="M 0 0 M56.4621 1153.68 Q56.4621 1158.39 60.1542 1161.13 Q63.8145 1163.86 70.212 1163.86 Q76.6095 1163.86 80.3017 1161.16 Q83.9619 1158.42 83.9619 1153.68 Q83.9619 1149 80.2698 1146.26 Q76.5777 1143.52 70.212 1143.52 Q63.8781 1143.52 60.186 1146.26 Q56.4621 1149 56.4621 1153.68 M51.4968 1153.68 Q51.4968 1146.04 56.4621 1141.68 Q61.4273 1137.32 70.212 1137.32 Q78.9649 1137.32 83.9619 1141.68 Q88.9272 1146.04 88.9272 1153.68 Q88.9272 1161.35 83.9619 1165.71 Q78.9649 1170.04 70.212 1170.04 Q61.4273 1170.04 56.4621 1165.71 Q51.4968 1161.35 51.4968 1153.68 Z" fill="#000000" fill-rule="evenodd" fill-opacity="1" /><path clip-path="url(#clip620)" d="M 0 0 M52.3562 1134.58 L52.3562 1128.72 L80.1743 1121.4 L52.3562 1114.11 L52.3562 1107.21 L80.1743 1099.89 L52.3562 1092.6 L52.3562 1086.74 L88.0042 1096.07 L88.0042 1102.97 L58.7856 1110.65 L88.0042 1118.35 L88.0042 1125.25 L52.3562 1134.58 Z" fill="#000000" fill-rule="evenodd" fill-opacity="1" /><path clip-path="url(#clip620)" d="M 0 0 M67.5384 1083.56 L67.5384 1066.4 L72.7583 1066.4 L72.7583 1083.56 L67.5384 1083.56 Z" fill="#000000" fill-rule="evenodd" fill-opacity="1" /><path clip-path="url(#clip620)" d="M 0 0 M57.8307 1039.6 Q57.2578 1040.59 57.0032 1041.77 Q56.7167 1042.91 56.7167 1044.31 Q56.7167 1049.28 59.9632 1051.95 Q63.1779 1054.6 69.2253 1054.6 L88.0042 1054.6 L88.0042 1060.48 L52.3562 1060.48 L52.3562 1054.6 L57.8944 1054.6 Q54.6479 1052.75 53.0883 1049.79 Q51.4968 1046.83 51.4968 1042.6 Q51.4968 1041.99 51.5923 1041.26 Q51.656 1040.53 51.8151 1039.64 L57.8307 1039.6 Z" fill="#000000" fill-rule="evenodd" fill-opacity="1" /><path clip-path="url(#clip620)" d="M 0 0 M70.0847 1017.26 Q70.0847 1024.36 71.7079 1027.1 Q73.3312 1029.83 77.2461 1029.83 Q80.3653 1029.83 82.2114 1027.8 Q84.0256 1025.73 84.0256 1022.19 Q84.0256 1017.32 80.5881 1014.4 Q77.1188 1011.44 71.3897 1011.44 L70.0847 1011.44 L70.0847 1017.26 M67.6657 1005.58 L88.0042 1005.58 L88.0042 1011.44 L82.5933 1011.44 Q85.8398 1013.44 87.3994 1016.43 Q88.9272 1019.42 88.9272 1023.75 Q88.9272 1029.23 85.8716 1032.47 Q82.7843 1035.69 77.6281 1035.69 Q71.6125 1035.69 68.5569 1031.68 Q65.5014 1027.64 65.5014 1019.65 L65.5014 1011.44 L64.9285 1011.44 Q60.8862 1011.44 58.6901 1014.11 Q56.4621 1016.75 56.4621 1021.56 Q56.4621 1024.61 57.1941 1027.51 Q57.9262 1030.41 59.3903 1033.08 L53.9795 1033.08 Q52.7381 1029.86 52.1334 1026.84 Q51.4968 1023.82 51.4968 1020.95 Q51.4968 1013.22 55.5072 1009.4 Q59.5176 1005.58 67.6657 1005.58 Z" fill="#000000" fill-rule="evenodd" fill-opacity="1" /><path clip-path="url(#clip620)" d="M 0 0 M52.3562 999.437 L52.3562 993.58 L88.0042 993.58 L88.0042 999.437 L52.3562 999.437 M38.479 999.437 L38.479 993.58 L45.895 993.58 L45.895 999.437 L38.479 999.437 Z" fill="#000000" fill-rule="evenodd" fill-opacity="1" /><path clip-path="url(#clip620)" d="M 0 0 M66.4881 957.805 L88.0042 957.805 L88.0042 963.661 L66.679 963.661 Q61.6183 963.661 59.1038 965.635 Q56.5894 967.608 56.5894 971.555 Q56.5894 976.297 59.6131 979.034 Q62.6368 981.772 67.8567 981.772 L88.0042 981.772 L88.0042 987.66 L52.3562 987.66 L52.3562 981.772 L57.8944 981.772 Q54.6797 979.671 53.0883 976.838 Q51.4968 973.974 51.4968 970.25 Q51.4968 964.107 55.3163 960.956 Q59.1038 957.805 66.4881 957.805 Z" fill="#000000" fill-rule="evenodd" fill-opacity="1" /><path clip-path="url(#clip620)" d="M 0 0 M70.0847 914.741 Q70.0847 921.839 71.7079 924.576 Q73.3312 927.313 77.2461 927.313 Q80.3653 927.313 82.2114 925.276 Q84.0256 923.207 84.0256 919.674 Q84.0256 914.804 80.5881 911.876 Q77.1188 908.916 71.3897 908.916 L70.0847 908.916 L70.0847 914.741 M67.6657 903.06 L88.0042 903.06 L88.0042 908.916 L82.5933 908.916 Q85.8398 910.921 87.3994 913.913 Q88.9272 916.905 88.9272 921.234 Q88.9272 926.708 85.8716 929.955 Q82.7843 933.17 77.6281 933.17 Q71.6125 933.17 68.5569 929.159 Q65.5014 925.117 65.5014 917.128 L65.5014 908.916 L64.9285 908.916 Q60.8862 908.916 58.6901 911.59 Q56.4621 914.232 56.4621 919.038 Q56.4621 922.093 57.1941 924.99 Q57.9262 927.886 59.3903 930.56 L53.9795 930.56 Q52.7381 927.345 52.1334 924.321 Q51.4968 921.297 51.4968 918.433 Q51.4968 910.699 55.5072 906.879 Q59.5176 903.06 67.6657 903.06 Z" fill="#000000" fill-rule="evenodd" fill-opacity="1" /><path clip-path="url(#clip620)" d="M 0 0 M53.7248 871.263 L59.1993 871.263 Q57.8307 873.746 57.1623 876.26 Q56.4621 878.743 56.4621 881.289 Q56.4621 886.986 60.0905 890.137 Q63.6872 893.288 70.212 893.288 Q76.7369 893.288 80.3653 890.137 Q83.9619 886.986 83.9619 881.289 Q83.9619 878.743 83.2935 876.26 Q82.5933 873.746 81.2247 871.263 L86.6355 871.263 Q87.7814 873.714 88.3543 876.356 Q88.9272 878.966 88.9272 881.926 Q88.9272 889.978 83.8664 894.721 Q78.8057 899.463 70.212 899.463 Q61.491 899.463 56.4939 894.689 Q51.4968 889.883 51.4968 881.544 Q51.4968 878.838 52.0697 876.26 Q52.6108 873.682 53.7248 871.263 Z" fill="#000000" fill-rule="evenodd" fill-opacity="1" /><path clip-path="url(#clip620)" d="M 0 0 M53.7248 839.466 L59.1993 839.466 Q57.8307 841.949 57.1623 844.463 Q56.4621 846.946 56.4621 849.492 Q56.4621 855.19 60.0905 858.341 Q63.6872 861.492 70.212 861.492 Q76.7369 861.492 80.3653 858.341 Q83.9619 855.19 83.9619 849.492 Q83.9619 846.946 83.2935 844.463 Q82.5933 841.949 81.2247 839.466 L86.6355 839.466 Q87.7814 841.917 88.3543 844.559 Q88.9272 847.169 88.9272 850.129 Q88.9272 858.182 83.8664 862.924 Q78.8057 867.666 70.212 867.666 Q61.491 867.666 56.4939 862.892 Q51.4968 858.086 51.4968 849.747 Q51.4968 847.042 52.0697 844.463 Q52.6108 841.885 53.7248 839.466 Z" fill="#000000" fill-rule="evenodd" fill-opacity="1" /><path clip-path="url(#clip620)" d="M 0 0 M57.8307 812.667 Q57.2578 813.653 57.0032 814.831 Q56.7167 815.977 56.7167 817.377 Q56.7167 822.343 59.9632 825.016 Q63.1779 827.658 69.2253 827.658 L88.0042 827.658 L88.0042 833.546 L52.3562 833.546 L52.3562 827.658 L57.8944 827.658 Q54.6479 825.812 53.0883 822.852 Q51.4968 819.892 51.4968 815.659 Q51.4968 815.054 51.5923 814.322 Q51.656 813.59 51.8151 812.699 L57.8307 812.667 Z" fill="#000000" fill-rule="evenodd" fill-opacity="1" /><path clip-path="url(#clip620)" d="M 0 0 M68.7161 777.464 L71.5806 777.464 L71.5806 804.391 Q77.6281 804.009 80.8109 800.763 Q83.9619 797.484 83.9619 791.66 Q83.9619 788.286 83.1344 785.135 Q82.3069 781.952 80.6518 778.833 L86.1899 778.833 Q87.5267 781.984 88.227 785.294 Q88.9272 788.604 88.9272 792.01 Q88.9272 800.54 83.9619 805.537 Q78.9967 810.502 70.5303 810.502 Q61.7774 810.502 56.6531 805.792 Q51.4968 801.049 51.4968 793.028 Q51.4968 785.835 56.1438 781.666 Q60.7589 777.464 68.7161 777.464 M66.9973 783.321 Q62.1912 783.384 59.3266 786.026 Q56.4621 788.636 56.4621 792.965 Q56.4621 797.866 59.2312 800.826 Q62.0002 803.755 67.0292 804.2 L66.9973 783.321 Z" fill="#000000" fill-rule="evenodd" fill-opacity="1" /><path clip-path="url(#clip620)" d="M 0 0 M42.2347 765.529 L52.3562 765.529 L52.3562 753.466 L56.9077 753.466 L56.9077 765.529 L76.2594 765.529 Q80.6199 765.529 81.8613 764.351 Q83.1026 763.142 83.1026 759.481 L83.1026 753.466 L88.0042 753.466 L88.0042 759.481 Q88.0042 766.261 85.4897 768.839 Q82.9434 771.417 76.2594 771.417 L56.9077 771.417 L56.9077 775.714 L52.3562 775.714 L52.3562 771.417 L42.2347 771.417 L42.2347 765.529 Z" fill="#000000" fill-rule="evenodd" fill-opacity="1" /><path clip-path="url(#clip620)" d="M 0 0 M52.3562 747.323 L52.3562 741.466 L88.0042 741.466 L88.0042 747.323 L52.3562 747.323 M38.479 747.323 L38.479 741.466 L45.895 741.466 L45.895 747.323 L38.479 747.323 Z" fill="#000000" fill-rule="evenodd" fill-opacity="1" /><path clip-path="url(#clip620)" d="M 0 0 M56.4621 721.51 Q56.4621 726.22 60.1542 728.958 Q63.8145 731.695 70.212 731.695 Q76.6095 731.695 80.3017 728.989 Q83.9619 726.252 83.9619 721.51 Q83.9619 716.831 80.2698 714.094 Q76.5777 711.356 70.212 711.356 Q63.8781 711.356 60.186 714.094 Q56.4621 716.831 56.4621 721.51 M51.4968 721.51 Q51.4968 713.871 56.4621 709.51 Q61.4273 705.15 70.212 705.15 Q78.9649 705.15 83.9619 709.51 Q88.9272 713.871 88.9272 721.51 Q88.9272 729.18 83.9619 733.541 Q78.9649 737.87 70.212 737.87 Q61.4273 737.87 56.4621 733.541 Q51.4968 729.18 51.4968 721.51 Z" fill="#000000" fill-rule="evenodd" fill-opacity="1" /><path clip-path="url(#clip620)" d="M 0 0 M66.4881 669.375 L88.0042 669.375 L88.0042 675.231 L66.679 675.231 Q61.6183 675.231 59.1038 677.204 Q56.5894 679.178 56.5894 683.125 Q56.5894 687.867 59.6131 690.604 Q62.6368 693.342 67.8567 693.342 L88.0042 693.342 L88.0042 699.23 L52.3562 699.23 L52.3562 693.342 L57.8944 693.342 Q54.6797 691.241 53.0883 688.408 Q51.4968 685.544 51.4968 681.82 Q51.4968 675.677 55.3163 672.526 Q59.1038 669.375 66.4881 669.375 Z" fill="#000000" fill-rule="evenodd" fill-opacity="1" /><path clip-path="url(#clip620)" d="M 0 0 M57.8307 621.855 Q57.2578 622.841 57.0032 624.019 Q56.7167 625.165 56.7167 626.565 Q56.7167 631.531 59.9632 634.204 Q63.1779 636.846 69.2253 636.846 L88.0042 636.846 L88.0042 642.734 L52.3562 642.734 L52.3562 636.846 L57.8944 636.846 Q54.6479 635 53.0883 632.04 Q51.4968 629.08 51.4968 624.847 Q51.4968 624.242 51.5923 623.51 Q51.656 622.778 51.8151 621.886 L57.8307 621.855 Z" fill="#000000" fill-rule="evenodd" fill-opacity="1" /><path clip-path="url(#clip620)" d="M 0 0 M70.0847 599.511 Q70.0847 606.609 71.7079 609.346 Q73.3312 612.083 77.2461 612.083 Q80.3653 612.083 82.2114 610.046 Q84.0256 607.977 84.0256 604.444 Q84.0256 599.575 80.5881 596.646 Q77.1188 593.686 71.3897 593.686 L70.0847 593.686 L70.0847 599.511 M67.6657 587.83 L88.0042 587.83 L88.0042 593.686 L82.5933 593.686 Q85.8398 595.692 87.3994 598.683 Q88.9272 601.675 88.9272 606.004 Q88.9272 611.479 85.8716 614.725 Q82.7843 617.94 77.6281 617.94 Q71.6125 617.94 68.5569 613.929 Q65.5014 609.887 65.5014 601.898 L65.5014 593.686 L64.9285 593.686 Q60.8862 593.686 58.6901 596.36 Q56.4621 599.002 56.4621 603.808 Q56.4621 606.863 57.1941 609.76 Q57.9262 612.656 59.3903 615.33 L53.9795 615.33 Q52.7381 612.115 52.1334 609.091 Q51.4968 606.068 51.4968 603.203 Q51.4968 595.469 55.5072 591.649 Q59.5176 587.83 67.6657 587.83 Z" fill="#000000" fill-rule="evenodd" fill-opacity="1" /><path clip-path="url(#clip620)" d="M 0 0 M42.2347 575.894 L52.3562 575.894 L52.3562 563.831 L56.9077 563.831 L56.9077 575.894 L76.2594 575.894 Q80.6199 575.894 81.8613 574.717 Q83.1026 573.507 83.1026 569.847 L83.1026 563.831 L88.0042 563.831 L88.0042 569.847 Q88.0042 576.626 85.4897 579.204 Q82.9434 581.783 76.2594 581.783 L56.9077 581.783 L56.9077 586.079 L52.3562 586.079 L52.3562 581.783 L42.2347 581.783 L42.2347 575.894 Z" fill="#000000" fill-rule="evenodd" fill-opacity="1" /><path clip-path="url(#clip620)" d="M 0 0 M68.7161 527.197 L71.5806 527.197 L71.5806 554.124 Q77.6281 553.742 80.8109 550.495 Q83.9619 547.217 83.9619 541.392 Q83.9619 538.018 83.1344 534.867 Q82.3069 531.684 80.6518 528.565 L86.1899 528.565 Q87.5267 531.716 88.227 535.026 Q88.9272 538.337 88.9272 541.742 Q88.9272 550.272 83.9619 555.269 Q78.9967 560.235 70.5303 560.235 Q61.7774 560.235 56.6531 555.524 Q51.4968 550.782 51.4968 542.761 Q51.4968 535.567 56.1438 531.398 Q60.7589 527.197 68.7161 527.197 M66.9973 533.053 Q62.1912 533.117 59.3266 535.758 Q56.4621 538.368 56.4621 542.697 Q56.4621 547.599 59.2312 550.559 Q62.0002 553.487 67.0292 553.933 L66.9973 533.053 Z" fill="#000000" fill-rule="evenodd" fill-opacity="1" /><path clip-path="url(#clip620)" d="M 0 0 M38.479 500.874 L38.479 487.379 L43.0304 487.379 L43.0304 495.018 L92.0464 495.018 L92.0464 487.379 L96.5979 487.379 L96.5979 500.874 L38.479 500.874 Z" fill="#000000" fill-rule="evenodd" fill-opacity="1" /><path clip-path="url(#clip620)" d="M 0 0 M82.5933 479.295 L82.5933 468.791 L46.3406 468.791 L48.6323 480.218 L42.7758 480.218 L40.4842 468.855 L40.4842 462.426 L82.5933 462.426 L82.5933 451.922 L88.0042 451.922 L88.0042 479.295 L82.5933 479.295 Z" fill="#000000" fill-rule="evenodd" fill-opacity="1" /><path clip-path="url(#clip620)" d="M 0 0 M40.4842 435.371 L40.4842 429.96 L94.0516 446.511 L94.0516 451.922 L40.4842 435.371 Z" fill="#000000" fill-rule="evenodd" fill-opacity="1" /><path clip-path="url(#clip620)" d="M 0 0 M53.4065 401.092 L58.9447 401.092 Q57.6716 403.575 57.035 406.248 Q56.3984 408.922 56.3984 411.786 Q56.3984 416.147 57.7352 418.343 Q59.072 420.507 61.7456 420.507 Q63.7826 420.507 64.9603 418.948 Q66.1061 417.388 67.1565 412.678 L67.6021 410.672 Q68.9389 404.434 71.3897 401.824 Q73.8086 399.182 78.1691 399.182 Q83.1344 399.182 86.0308 403.129 Q88.9272 407.044 88.9272 413.919 Q88.9272 416.783 88.3543 419.903 Q87.8132 422.99 86.6992 426.427 L80.6518 426.427 Q82.3387 423.181 83.198 420.03 Q84.0256 416.879 84.0256 413.792 Q84.0256 409.654 82.6251 407.426 Q81.1929 405.198 78.6147 405.198 Q76.2276 405.198 74.9545 406.821 Q73.6813 408.413 72.5037 413.855 L72.0262 415.892 Q70.8804 421.335 68.5251 423.754 Q66.138 426.173 62.0002 426.173 Q56.9713 426.173 54.2341 422.608 Q51.4968 419.043 51.4968 412.487 Q51.4968 409.24 51.9743 406.375 Q52.4517 403.511 53.4065 401.092 Z" fill="#000000" fill-rule="evenodd" fill-opacity="1" /><path clip-path="url(#clip620)" d="M 0 0 M38.479 379.353 L96.5979 379.353 L96.5979 392.848 L92.0464 392.848 L92.0464 385.241 L43.0304 385.241 L43.0304 392.848 L38.479 392.848 L38.479 379.353 Z" fill="#000000" fill-rule="evenodd" fill-opacity="1" /><path clip-path="url(#clip620)" d="M 0 0 M40.4842 358.824 L40.4842 318.624 L45.895 318.624 L45.895 335.493 L88.0042 335.493 L88.0042 341.955 L45.895 341.955 L45.895 358.824 L40.4842 358.824 Z" fill="#000000" fill-rule="evenodd" fill-opacity="1" /><path clip-path="url(#clip620)" d="M 0 0 M55.921 270.913 L67.6021 303.76 L79.2195 270.913 L85.0123 270.913 L70.212 311.717 L64.9285 311.717 L50.1282 270.913 L55.921 270.913 Z" fill="#000000" fill-rule="evenodd" fill-opacity="1" /><path clip-path="url(#clip620)" d="M 0 0 M44.7174 250.193 Q44.7174 255.158 49.6189 257.673 Q54.4887 260.155 64.2919 260.155 Q74.0633 260.155 78.9649 257.673 Q83.8346 255.158 83.8346 250.193 Q83.8346 245.196 78.9649 242.713 Q74.0633 240.199 64.2919 240.199 Q54.4887 240.199 49.6189 242.713 Q44.7174 245.196 44.7174 250.193 M39.6248 250.193 Q39.6248 242.204 45.9587 238.003 Q52.2607 233.769 64.2919 233.769 Q76.2913 233.769 82.6251 238.003 Q88.9272 242.204 88.9272 250.193 Q88.9272 258.182 82.6251 262.415 Q76.2913 266.616 64.2919 266.616 Q52.2607 266.616 45.9587 262.415 Q39.6248 258.182 39.6248 250.193 Z" fill="#000000" fill-rule="evenodd" fill-opacity="1" /><polyline clip-path="url(#clip622)" style="stroke:#009af9; stroke-width:12; stroke-opacity:1; fill:none" points="
  376.726,1384.24 396.104,1384.2 415.483,1384.16 434.861,1384.12 454.24,1384.08 473.618,1384.05 492.997,1384.01 512.375,1383.98 531.754,1383.94 551.132,1383.91 
  570.511,1383.88 589.89,1383.84 609.268,1383.81 628.647,1383.77 648.025,1383.74 667.404,1383.71 686.782,1383.67 706.161,1383.64 725.539,1383.61 744.918,1383.58 
  764.296,1383.54 783.675,1383.51 803.054,1383.48 822.432,1383.45 841.811,1383.41 861.189,1383.38 880.568,1383.35 899.946,1383.32 919.325,1383.29 938.703,1383.25 
  958.082,1383.22 977.46,1383.19 996.839,1383.16 1016.22,1383.13 1035.6,1383.09 1054.97,1383.06 1074.35,1383.03 1093.73,1383 1113.11,1382.97 1132.49,1382.94 
  1151.87,1382.91 1171.25,1382.87 1190.62,1382.84 1210,1382.81 1229.38,1382.78 1248.76,1382.75 1268.14,1382.72 1287.52,1382.69 1306.9,1382.66 1326.27,1382.62 
  1345.65,1382.59 1365.03,1382.56 1384.41,1382.53 1403.79,1382.5 1423.17,1382.47 1442.55,1382.44 1461.92,1382.41 1481.3,1382.38 1500.68,1382.35 1520.06,1382.32 
  1539.44,1382.29 1558.82,1382.25 1578.2,1382.22 1597.57,1382.19 1616.95,1382.16 1636.33,1382.13 1655.71,1382.1 1675.09,1382.07 1694.47,1382.04 1713.85,1382.01 
  1733.22,1381.98 1752.6,1381.95 1771.98,1381.92 1791.36,1381.89 1810.74,1381.86 1830.12,1381.83 1849.5,1381.8 1868.87,1381.77 1888.25,1381.74 1907.63,1381.71 
  1927.01,1381.68 1946.39,1381.65 1965.77,1381.62 1985.14,1381.59 2004.52,1381.56 2023.9,1381.53 2043.28,1381.5 2062.66,1381.47 2082.04,1381.44 2101.42,1381.41 
  2120.79,1381.38 2140.17,1381.35 2159.55,1381.32 2178.93,1381.29 2198.31,1381.26 2217.69,1381.23 2237.07,1381.2 2256.44,1381.17 2275.82,1381.14 2295.2,1381.11 
  
  "/>
<polyline clip-path="url(#clip622)" style="stroke:#e26f46; stroke-width:12; stroke-opacity:1; fill:none" points="
  376.726,1384.24 396.104,1383.3 415.483,1382.5 434.861,1381.74 454.24,1381 473.618,1380.28 492.997,1379.58 512.375,1378.88 531.754,1378.19 551.132,1377.51 
  570.511,1376.83 589.89,1376.16 609.268,1375.5 628.647,1374.84 648.025,1374.18 667.404,1373.53 686.782,1372.88 706.161,1372.23 725.539,1371.59 744.918,1370.95 
  764.296,1370.31 783.675,1369.68 803.054,1369.05 822.432,1368.42 841.811,1367.79 861.189,1367.16 880.568,1366.54 899.946,1365.92 919.325,1365.3 938.703,1364.68 
  958.082,1364.06 977.46,1363.45 996.839,1362.83 1016.22,1362.22 1035.6,1361.61 1054.97,1361 1074.35,1360.39 1093.73,1359.79 1113.11,1359.18 1132.49,1358.58 
  1151.87,1357.97 1171.25,1357.37 1190.62,1356.77 1210,1356.17 1229.38,1355.57 1248.76,1354.97 1268.14,1354.37 1287.52,1353.78 1306.9,1353.18 1326.27,1352.59 
  1345.65,1352 1365.03,1351.4 1384.41,1350.81 1403.79,1350.22 1423.17,1349.63 1442.55,1349.04 1461.92,1348.45 1481.3,1347.86 1500.68,1347.28 1520.06,1346.69 
  1539.44,1346.11 1558.82,1345.52 1578.2,1344.94 1597.57,1344.35 1616.95,1343.77 1636.33,1343.19 1655.71,1342.61 1675.09,1342.02 1694.47,1341.44 1713.85,1340.86 
  1733.22,1340.29 1752.6,1339.71 1771.98,1339.13 1791.36,1338.55 1810.74,1337.97 1830.12,1337.4 1849.5,1336.82 1868.87,1336.25 1888.25,1335.67 1907.63,1335.1 
  1927.01,1334.52 1946.39,1333.95 1965.77,1333.38 1985.14,1332.81 2004.52,1332.24 2023.9,1331.66 2043.28,1331.09 2062.66,1330.52 2082.04,1329.95 2101.42,1329.38 
  2120.79,1328.81 2140.17,1328.25 2159.55,1327.68 2178.93,1327.11 2198.31,1326.54 2217.69,1325.98 2237.07,1325.41 2256.44,1324.84 2275.82,1324.28 2295.2,1323.71 
  
  "/>
<polyline clip-path="url(#clip622)" style="stroke:#3da44d; stroke-width:12; stroke-opacity:1; fill:none" points="
  376.726,1384.22 396.104,1360.39 415.483,1341.18 434.861,1323.28 454.24,1306.17 473.618,1289.6 492.997,1273.44 512.375,1257.62 531.754,1242.08 551.132,1226.77 
  570.511,1211.66 589.89,1196.74 609.268,1181.97 628.647,1167.35 648.025,1152.86 667.404,1138.49 686.782,1124.24 706.161,1110.08 725.539,1096.02 744.918,1082.05 
  764.296,1068.17 783.675,1054.36 803.054,1040.63 822.432,1026.96 841.811,1013.37 861.189,999.836 880.568,986.363 899.946,972.949 919.325,959.589 938.703,946.282 
  958.082,933.025 977.46,919.817 996.839,906.656 1016.22,893.539 1035.6,880.466 1054.97,867.435 1074.35,854.445 1093.73,841.493 1113.11,828.579 1132.49,815.702 
  1151.87,802.861 1171.25,790.054 1190.62,777.28 1210,764.539 1229.38,751.83 1248.76,739.152 1268.14,726.503 1287.52,713.884 1306.9,701.293 1326.27,688.73 
  1345.65,676.195 1365.03,663.685 1384.41,651.202 1403.79,638.743 1423.17,626.31 1442.55,613.901 1461.92,601.515 1481.3,589.152 1500.68,576.812 1520.06,564.495 
  1539.44,552.199 1558.82,539.924 1578.2,527.671 1597.57,515.437 1616.95,503.224 1636.33,491.031 1655.71,478.857 1675.09,466.702 1694.47,454.566 1713.85,442.448 
  1733.22,430.349 1752.6,418.267 1771.98,406.202 1791.36,394.155 1810.74,382.125 1830.12,370.111 1849.5,358.114 1868.87,346.132 1888.25,334.167 1907.63,322.217 
  1927.01,310.283 1946.39,298.364 1965.77,286.46 1985.14,274.57 2004.52,262.695 2023.9,250.834 2043.28,238.988 2062.66,227.155 2082.04,215.336 2101.42,203.531 
  2120.79,191.739 2140.17,179.96 2159.55,168.195 2178.93,156.442 2198.31,144.702 2217.69,132.974 2237.07,121.259 2256.44,109.556 2275.82,97.8647 2295.2,86.1857 
  
  "/>
<path clip-path="url(#clip620)" d="
M1803.28 335.029 L2284.97 335.029 L2284.97 93.1086 L1803.28 93.1086  Z
  " fill="#ffffff" fill-rule="evenodd" fill-opacity="1"/>
<polyline clip-path="url(#clip620)" style="stroke:#000000; stroke-width:4; stroke-opacity:1; fill:none" points="
  1803.28,335.029 2284.97,335.029 2284.97,93.1086 1803.28,93.1086 1803.28,335.029 
  "/>
<polyline clip-path="url(#clip620)" style="stroke:#009af9; stroke-width:4; stroke-opacity:1; fill:none" points="
  1825.87,153.589 1961.44,153.589 
  "/>
<path clip-path="url(#clip620)" d="M 0 0 M1988.44 157.929 Q1988.44 162.628 1990.36 165.313 Q1992.3 167.975 1995.68 167.975 Q1999.06 167.975 2001.01 165.313 Q2002.95 162.628 2002.95 157.929 Q2002.95 153.23 2001.01 150.568 Q1999.06 147.883 1995.68 147.883 Q1992.3 147.883 1990.36 150.568 Q1988.44 153.23 1988.44 157.929 M2002.95 166.98 Q2001.61 169.295 1999.55 170.429 Q1997.51 171.54 1994.64 171.54 Q1989.94 171.54 1986.98 167.79 Q1984.04 164.04 1984.04 157.929 Q1984.04 151.818 1986.98 148.068 Q1989.94 144.318 1994.64 144.318 Q1997.51 144.318 1999.55 145.452 Q2001.61 146.563 2002.95 148.878 L2002.95 144.943 L2007.21 144.943 L2007.21 180.73 L2002.95 180.73 L2002.95 166.98 Z" fill="#000000" fill-rule="evenodd" fill-opacity="1" /><path clip-path="url(#clip620)" d="M 0 0 M2031.38 178.739 L2031.38 182.049 L2006.75 182.049 L2006.75 178.739 L2031.38 178.739 Z" fill="#000000" fill-rule="evenodd" fill-opacity="1" /><path clip-path="url(#clip620)" d="M 0 0 M2050.87 148.924 Q2050.15 148.508 2049.29 148.322 Q2048.46 148.114 2047.44 148.114 Q2043.83 148.114 2041.89 150.475 Q2039.97 152.813 2039.97 157.211 L2039.97 170.869 L2035.68 170.869 L2035.68 144.943 L2039.97 144.943 L2039.97 148.971 Q2041.31 146.609 2043.46 145.475 Q2045.61 144.318 2048.69 144.318 Q2049.13 144.318 2049.66 144.387 Q2050.2 144.434 2050.84 144.549 L2050.87 148.924 Z" fill="#000000" fill-rule="evenodd" fill-opacity="1" /><path clip-path="url(#clip620)" d="M 0 0 M2067.12 157.836 Q2061.96 157.836 2059.97 159.017 Q2057.97 160.197 2057.97 163.045 Q2057.97 165.313 2059.46 166.656 Q2060.96 167.975 2063.53 167.975 Q2067.07 167.975 2069.2 165.475 Q2071.35 162.952 2071.35 158.785 L2071.35 157.836 L2067.12 157.836 M2075.61 156.077 L2075.61 170.869 L2071.35 170.869 L2071.35 166.933 Q2069.9 169.295 2067.72 170.429 Q2065.54 171.54 2062.4 171.54 Q2058.41 171.54 2056.05 169.318 Q2053.72 167.072 2053.72 163.322 Q2053.72 158.947 2056.63 156.725 Q2059.57 154.503 2065.38 154.503 L2071.35 154.503 L2071.35 154.086 Q2071.35 151.147 2069.41 149.549 Q2067.49 147.929 2063.99 147.929 Q2061.77 147.929 2059.66 148.461 Q2057.56 148.994 2055.61 150.059 L2055.61 146.123 Q2057.95 145.221 2060.15 144.781 Q2062.35 144.318 2064.43 144.318 Q2070.06 144.318 2072.84 147.234 Q2075.61 150.151 2075.61 156.077 Z" fill="#000000" fill-rule="evenodd" fill-opacity="1" /><path clip-path="url(#clip620)" d="M 0 0 M2080.08 144.943 L2084.34 144.943 L2084.34 170.869 L2080.08 170.869 L2080.08 144.943 M2080.08 134.85 L2084.34 134.85 L2084.34 140.244 L2080.08 140.244 L2080.08 134.85 Z" fill="#000000" fill-rule="evenodd" fill-opacity="1" /><path clip-path="url(#clip620)" d="M 0 0 M2110.36 155.221 L2110.36 170.869 L2106.1 170.869 L2106.1 155.359 Q2106.1 151.679 2104.66 149.85 Q2103.23 148.022 2100.36 148.022 Q2096.91 148.022 2094.92 150.221 Q2092.93 152.42 2092.93 156.216 L2092.93 170.869 L2088.65 170.869 L2088.65 144.943 L2092.93 144.943 L2092.93 148.971 Q2094.46 146.633 2096.52 145.475 Q2098.6 144.318 2101.31 144.318 Q2105.78 144.318 2108.07 147.096 Q2110.36 149.85 2110.36 155.221 Z" fill="#000000" fill-rule="evenodd" fill-opacity="1" /><path clip-path="url(#clip620)" d="M 0 0 M2115.38 149.341 L2145.06 149.341 L2145.06 153.23 L2115.38 153.23 L2115.38 149.341 M2115.38 158.785 L2145.06 158.785 L2145.06 162.721 L2115.38 162.721 L2115.38 158.785 Z" fill="#000000" fill-rule="evenodd" fill-opacity="1" /><path clip-path="url(#clip620)" d="M 0 0 M2150.94 166.933 L2158.58 166.933 L2158.58 140.568 L2150.27 142.235 L2150.27 137.975 L2158.53 136.309 L2163.21 136.309 L2163.21 166.933 L2170.84 166.933 L2170.84 170.869 L2150.94 170.869 L2150.94 166.933 Z" fill="#000000" fill-rule="evenodd" fill-opacity="1" /><path clip-path="url(#clip620)" d="M 0 0 M2197.49 156.841 L2197.49 158.924 L2177.9 158.924 Q2178.18 163.322 2180.54 165.637 Q2182.93 167.929 2187.16 167.929 Q2189.62 167.929 2191.91 167.327 Q2194.22 166.725 2196.49 165.521 L2196.49 169.549 Q2194.2 170.521 2191.79 171.031 Q2189.39 171.54 2186.91 171.54 Q2180.71 171.54 2177.07 167.929 Q2173.46 164.318 2173.46 158.16 Q2173.46 151.795 2176.89 148.068 Q2180.33 144.318 2186.17 144.318 Q2191.4 144.318 2194.43 147.697 Q2197.49 151.054 2197.49 156.841 M2193.23 155.591 Q2193.18 152.096 2191.26 150.012 Q2189.36 147.929 2186.21 147.929 Q2182.65 147.929 2180.5 149.943 Q2178.37 151.957 2178.04 155.614 L2193.23 155.591 Z" fill="#000000" fill-rule="evenodd" fill-opacity="1" /><path clip-path="url(#clip620)" d="M 0 0 M2199.8 155.984 L2212.28 155.984 L2212.28 159.781 L2199.8 159.781 L2199.8 155.984 Z" fill="#000000" fill-rule="evenodd" fill-opacity="1" /><path clip-path="url(#clip620)" d="M 0 0 M2227.93 151.725 Q2224.78 151.725 2222.93 153.878 Q2221.1 156.031 2221.1 159.781 Q2221.1 163.508 2222.93 165.683 Q2224.78 167.836 2227.93 167.836 Q2231.08 167.836 2232.9 165.683 Q2234.76 163.508 2234.76 159.781 Q2234.76 156.031 2232.9 153.878 Q2231.08 151.725 2227.93 151.725 M2237.21 137.073 L2237.21 141.332 Q2235.45 140.498 2233.64 140.059 Q2231.86 139.619 2230.1 139.619 Q2225.47 139.619 2223.02 142.744 Q2220.59 145.869 2220.24 152.188 Q2221.61 150.174 2223.67 149.109 Q2225.73 148.022 2228.2 148.022 Q2233.41 148.022 2236.42 151.193 Q2239.45 154.341 2239.45 159.781 Q2239.45 165.105 2236.31 168.322 Q2233.16 171.54 2227.93 171.54 Q2221.93 171.54 2218.76 166.957 Q2215.59 162.35 2215.59 153.623 Q2215.59 145.429 2219.48 140.568 Q2223.37 135.684 2229.92 135.684 Q2231.68 135.684 2233.46 136.031 Q2235.27 136.378 2237.21 137.073 Z" fill="#000000" fill-rule="evenodd" fill-opacity="1" /><polyline clip-path="url(#clip620)" style="stroke:#e26f46; stroke-width:4; stroke-opacity:1; fill:none" points="
  1825.87,214.069 1961.44,214.069 
  "/>
<path clip-path="url(#clip620)" d="M 0 0 M1988.44 218.409 Q1988.44 223.108 1990.36 225.793 Q1992.3 228.455 1995.68 228.455 Q1999.06 228.455 2001.01 225.793 Q2002.95 223.108 2002.95 218.409 Q2002.95 213.71 2001.01 211.048 Q1999.06 208.363 1995.68 208.363 Q1992.3 208.363 1990.36 211.048 Q1988.44 213.71 1988.44 218.409 M2002.95 227.46 Q2001.61 229.775 1999.55 230.909 Q1997.51 232.02 1994.64 232.02 Q1989.94 232.02 1986.98 228.27 Q1984.04 224.52 1984.04 218.409 Q1984.04 212.298 1986.98 208.548 Q1989.94 204.798 1994.64 204.798 Q1997.51 204.798 1999.55 205.932 Q2001.61 207.043 2002.95 209.358 L2002.95 205.423 L2007.21 205.423 L2007.21 241.21 L2002.95 241.21 L2002.95 227.46 Z" fill="#000000" fill-rule="evenodd" fill-opacity="1" /><path clip-path="url(#clip620)" d="M 0 0 M2031.38 239.219 L2031.38 242.529 L2006.75 242.529 L2006.75 239.219 L2031.38 239.219 Z" fill="#000000" fill-rule="evenodd" fill-opacity="1" /><path clip-path="url(#clip620)" d="M 0 0 M2050.87 209.404 Q2050.15 208.988 2049.29 208.802 Q2048.46 208.594 2047.44 208.594 Q2043.83 208.594 2041.89 210.955 Q2039.97 213.293 2039.97 217.691 L2039.97 231.349 L2035.68 231.349 L2035.68 205.423 L2039.97 205.423 L2039.97 209.451 Q2041.31 207.089 2043.46 205.955 Q2045.61 204.798 2048.69 204.798 Q2049.13 204.798 2049.66 204.867 Q2050.2 204.914 2050.84 205.029 L2050.87 209.404 Z" fill="#000000" fill-rule="evenodd" fill-opacity="1" /><path clip-path="url(#clip620)" d="M 0 0 M2067.12 218.316 Q2061.96 218.316 2059.97 219.497 Q2057.97 220.677 2057.97 223.525 Q2057.97 225.793 2059.46 227.136 Q2060.96 228.455 2063.53 228.455 Q2067.07 228.455 2069.2 225.955 Q2071.35 223.432 2071.35 219.265 L2071.35 218.316 L2067.12 218.316 M2075.61 216.557 L2075.61 231.349 L2071.35 231.349 L2071.35 227.413 Q2069.9 229.775 2067.72 230.909 Q2065.54 232.02 2062.4 232.02 Q2058.41 232.02 2056.05 229.798 Q2053.72 227.552 2053.72 223.802 Q2053.72 219.427 2056.63 217.205 Q2059.57 214.983 2065.38 214.983 L2071.35 214.983 L2071.35 214.566 Q2071.35 211.627 2069.41 210.029 Q2067.49 208.409 2063.99 208.409 Q2061.77 208.409 2059.66 208.941 Q2057.56 209.474 2055.61 210.539 L2055.61 206.603 Q2057.95 205.701 2060.15 205.261 Q2062.35 204.798 2064.43 204.798 Q2070.06 204.798 2072.84 207.714 Q2075.61 210.631 2075.61 216.557 Z" fill="#000000" fill-rule="evenodd" fill-opacity="1" /><path clip-path="url(#clip620)" d="M 0 0 M2080.08 205.423 L2084.34 205.423 L2084.34 231.349 L2080.08 231.349 L2080.08 205.423 M2080.08 195.33 L2084.34 195.33 L2084.34 200.724 L2080.08 200.724 L2080.08 195.33 Z" fill="#000000" fill-rule="evenodd" fill-opacity="1" /><path clip-path="url(#clip620)" d="M 0 0 M2110.36 215.701 L2110.36 231.349 L2106.1 231.349 L2106.1 215.839 Q2106.1 212.159 2104.66 210.33 Q2103.23 208.502 2100.36 208.502 Q2096.91 208.502 2094.92 210.701 Q2092.93 212.9 2092.93 216.696 L2092.93 231.349 L2088.65 231.349 L2088.65 205.423 L2092.93 205.423 L2092.93 209.451 Q2094.46 207.113 2096.52 205.955 Q2098.6 204.798 2101.31 204.798 Q2105.78 204.798 2108.07 207.576 Q2110.36 210.33 2110.36 215.701 Z" fill="#000000" fill-rule="evenodd" fill-opacity="1" /><path clip-path="url(#clip620)" d="M 0 0 M2115.38 209.821 L2145.06 209.821 L2145.06 213.71 L2115.38 213.71 L2115.38 209.821 M2115.38 219.265 L2145.06 219.265 L2145.06 223.201 L2115.38 223.201 L2115.38 219.265 Z" fill="#000000" fill-rule="evenodd" fill-opacity="1" /><path clip-path="url(#clip620)" d="M 0 0 M2150.94 227.413 L2158.58 227.413 L2158.58 201.048 L2150.27 202.715 L2150.27 198.455 L2158.53 196.789 L2163.21 196.789 L2163.21 227.413 L2170.84 227.413 L2170.84 231.349 L2150.94 231.349 L2150.94 227.413 Z" fill="#000000" fill-rule="evenodd" fill-opacity="1" /><path clip-path="url(#clip620)" d="M 0 0 M2197.49 217.321 L2197.49 219.404 L2177.9 219.404 Q2178.18 223.802 2180.54 226.117 Q2182.93 228.409 2187.16 228.409 Q2189.62 228.409 2191.91 227.807 Q2194.22 227.205 2196.49 226.001 L2196.49 230.029 Q2194.2 231.001 2191.79 231.511 Q2189.39 232.02 2186.91 232.02 Q2180.71 232.02 2177.07 228.409 Q2173.46 224.798 2173.46 218.64 Q2173.46 212.275 2176.89 208.548 Q2180.33 204.798 2186.17 204.798 Q2191.4 204.798 2194.43 208.177 Q2197.49 211.534 2197.49 217.321 M2193.23 216.071 Q2193.18 212.576 2191.26 210.492 Q2189.36 208.409 2186.21 208.409 Q2182.65 208.409 2180.5 210.423 Q2178.37 212.437 2178.04 216.094 L2193.23 216.071 Z" fill="#000000" fill-rule="evenodd" fill-opacity="1" /><path clip-path="url(#clip620)" d="M 0 0 M2199.8 216.464 L2212.28 216.464 L2212.28 220.261 L2199.8 220.261 L2199.8 216.464 Z" fill="#000000" fill-rule="evenodd" fill-opacity="1" /><path clip-path="url(#clip620)" d="M 0 0 M2217.39 196.789 L2235.75 196.789 L2235.75 200.724 L2221.68 200.724 L2221.68 209.196 Q2222.7 208.849 2223.71 208.687 Q2224.73 208.502 2225.75 208.502 Q2231.54 208.502 2234.92 211.673 Q2238.3 214.844 2238.3 220.261 Q2238.3 225.839 2234.83 228.941 Q2231.35 232.02 2225.03 232.02 Q2222.86 232.02 2220.59 231.65 Q2218.34 231.279 2215.94 230.538 L2215.94 225.839 Q2218.02 226.974 2220.24 227.529 Q2222.46 228.085 2224.94 228.085 Q2228.95 228.085 2231.28 225.978 Q2233.62 223.872 2233.62 220.261 Q2233.62 216.65 2231.28 214.543 Q2228.95 212.437 2224.94 212.437 Q2223.07 212.437 2221.19 212.853 Q2219.34 213.27 2217.39 214.15 L2217.39 196.789 Z" fill="#000000" fill-rule="evenodd" fill-opacity="1" /><polyline clip-path="url(#clip620)" style="stroke:#3da44d; stroke-width:4; stroke-opacity:1; fill:none" points="
  1825.87,274.549 1961.44,274.549 
  "/>
<path clip-path="url(#clip620)" d="M 0 0 M1988.44 278.889 Q1988.44 283.588 1990.36 286.273 Q1992.3 288.935 1995.68 288.935 Q1999.06 288.935 2001.01 286.273 Q2002.95 283.588 2002.95 278.889 Q2002.95 274.19 2001.01 271.528 Q1999.06 268.843 1995.68 268.843 Q1992.3 268.843 1990.36 271.528 Q1988.44 274.19 1988.44 278.889 M2002.95 287.94 Q2001.61 290.255 1999.55 291.389 Q1997.51 292.5 1994.64 292.5 Q1989.94 292.5 1986.98 288.75 Q1984.04 285 1984.04 278.889 Q1984.04 272.778 1986.98 269.028 Q1989.94 265.278 1994.64 265.278 Q1997.51 265.278 1999.55 266.412 Q2001.61 267.523 2002.95 269.838 L2002.95 265.903 L2007.21 265.903 L2007.21 301.69 L2002.95 301.69 L2002.95 287.94 Z" fill="#000000" fill-rule="evenodd" fill-opacity="1" /><path clip-path="url(#clip620)" d="M 0 0 M2031.38 299.699 L2031.38 303.009 L2006.75 303.009 L2006.75 299.699 L2031.38 299.699 Z" fill="#000000" fill-rule="evenodd" fill-opacity="1" /><path clip-path="url(#clip620)" d="M 0 0 M2050.87 269.884 Q2050.15 269.468 2049.29 269.282 Q2048.46 269.074 2047.44 269.074 Q2043.83 269.074 2041.89 271.435 Q2039.97 273.773 2039.97 278.171 L2039.97 291.829 L2035.68 291.829 L2035.68 265.903 L2039.97 265.903 L2039.97 269.931 Q2041.31 267.569 2043.46 266.435 Q2045.61 265.278 2048.69 265.278 Q2049.13 265.278 2049.66 265.347 Q2050.2 265.394 2050.84 265.509 L2050.87 269.884 Z" fill="#000000" fill-rule="evenodd" fill-opacity="1" /><path clip-path="url(#clip620)" d="M 0 0 M2067.12 278.796 Q2061.96 278.796 2059.97 279.977 Q2057.97 281.157 2057.97 284.005 Q2057.97 286.273 2059.46 287.616 Q2060.96 288.935 2063.53 288.935 Q2067.07 288.935 2069.2 286.435 Q2071.35 283.912 2071.35 279.745 L2071.35 278.796 L2067.12 278.796 M2075.61 277.037 L2075.61 291.829 L2071.35 291.829 L2071.35 287.893 Q2069.9 290.255 2067.72 291.389 Q2065.54 292.5 2062.4 292.5 Q2058.41 292.5 2056.05 290.278 Q2053.72 288.032 2053.72 284.282 Q2053.72 279.907 2056.63 277.685 Q2059.57 275.463 2065.38 275.463 L2071.35 275.463 L2071.35 275.046 Q2071.35 272.107 2069.41 270.509 Q2067.49 268.889 2063.99 268.889 Q2061.77 268.889 2059.66 269.421 Q2057.56 269.954 2055.61 271.019 L2055.61 267.083 Q2057.95 266.181 2060.15 265.741 Q2062.35 265.278 2064.43 265.278 Q2070.06 265.278 2072.84 268.194 Q2075.61 271.111 2075.61 277.037 Z" fill="#000000" fill-rule="evenodd" fill-opacity="1" /><path clip-path="url(#clip620)" d="M 0 0 M2080.08 265.903 L2084.34 265.903 L2084.34 291.829 L2080.08 291.829 L2080.08 265.903 M2080.08 255.81 L2084.34 255.81 L2084.34 261.204 L2080.08 261.204 L2080.08 255.81 Z" fill="#000000" fill-rule="evenodd" fill-opacity="1" /><path clip-path="url(#clip620)" d="M 0 0 M2110.36 276.181 L2110.36 291.829 L2106.1 291.829 L2106.1 276.319 Q2106.1 272.639 2104.66 270.81 Q2103.23 268.982 2100.36 268.982 Q2096.91 268.982 2094.92 271.181 Q2092.93 273.38 2092.93 277.176 L2092.93 291.829 L2088.65 291.829 L2088.65 265.903 L2092.93 265.903 L2092.93 269.931 Q2094.46 267.593 2096.52 266.435 Q2098.6 265.278 2101.31 265.278 Q2105.78 265.278 2108.07 268.056 Q2110.36 270.81 2110.36 276.181 Z" fill="#000000" fill-rule="evenodd" fill-opacity="1" /><path clip-path="url(#clip620)" d="M 0 0 M2115.38 270.301 L2145.06 270.301 L2145.06 274.19 L2115.38 274.19 L2115.38 270.301 M2115.38 279.745 L2145.06 279.745 L2145.06 283.681 L2115.38 283.681 L2115.38 279.745 Z" fill="#000000" fill-rule="evenodd" fill-opacity="1" /><path clip-path="url(#clip620)" d="M 0 0 M2150.94 287.893 L2158.58 287.893 L2158.58 261.528 L2150.27 263.195 L2150.27 258.935 L2158.53 257.269 L2163.21 257.269 L2163.21 287.893 L2170.84 287.893 L2170.84 291.829 L2150.94 291.829 L2150.94 287.893 Z" fill="#000000" fill-rule="evenodd" fill-opacity="1" /><path clip-path="url(#clip620)" d="M 0 0 M2197.49 277.801 L2197.49 279.884 L2177.9 279.884 Q2178.18 284.282 2180.54 286.597 Q2182.93 288.889 2187.16 288.889 Q2189.62 288.889 2191.91 288.287 Q2194.22 287.685 2196.49 286.481 L2196.49 290.509 Q2194.2 291.481 2191.79 291.991 Q2189.39 292.5 2186.91 292.5 Q2180.71 292.5 2177.07 288.889 Q2173.46 285.278 2173.46 279.12 Q2173.46 272.755 2176.89 269.028 Q2180.33 265.278 2186.17 265.278 Q2191.4 265.278 2194.43 268.657 Q2197.49 272.014 2197.49 277.801 M2193.23 276.551 Q2193.18 273.056 2191.26 270.972 Q2189.36 268.889 2186.21 268.889 Q2182.65 268.889 2180.5 270.903 Q2178.37 272.917 2178.04 276.574 L2193.23 276.551 Z" fill="#000000" fill-rule="evenodd" fill-opacity="1" /><path clip-path="url(#clip620)" d="M 0 0 M2199.8 276.944 L2212.28 276.944 L2212.28 280.741 L2199.8 280.741 L2199.8 276.944 Z" fill="#000000" fill-rule="evenodd" fill-opacity="1" /><path clip-path="url(#clip620)" d="M 0 0 M2230.2 261.343 L2218.39 279.792 L2230.2 279.792 L2230.2 261.343 M2228.97 257.269 L2234.85 257.269 L2234.85 279.792 L2239.78 279.792 L2239.78 283.681 L2234.85 283.681 L2234.85 291.829 L2230.2 291.829 L2230.2 283.681 L2214.59 283.681 L2214.59 279.167 L2228.97 257.269 Z" fill="#000000" fill-rule="evenodd" fill-opacity="1" /></svg>
