<?xml version="1.0" encoding="utf-8"?>
<svg xmlns="http://www.w3.org/2000/svg" xmlns:xlink="http://www.w3.org/1999/xlink" width="600" height="400" viewBox="0 0 2400 1600">
<defs>
  <clipPath id="clip400">
    <rect x="0" y="0" width="2400" height="1600"/>
  </clipPath>
</defs>
<path clip-path="url(#clip400)" d="
M0 1600 L2400 1600 L2400 0 L0 0  Z
  " fill="#ffffff" fill-rule="evenodd" fill-opacity="1"/>
<defs>
  <clipPath id="clip401">
    <rect x="480" y="0" width="1681" height="1600"/>
  </clipPath>
</defs>
<path clip-path="url(#clip400)" d="
M238.13 1423.18 L2352.76 1423.18 L2352.76 47.2441 L238.13 47.2441  Z
  " fill="#ffffff" fill-rule="evenodd" fill-opacity="1"/>
<defs>
  <clipPath id="clip402">
    <rect x="238" y="47" width="2116" height="1377"/>
  </clipPath>
</defs>
<polyline clip-path="url(#clip402)" style="stroke:#000000; stroke-width:2; stroke-opacity:0.1; fill:none" points="
  238.13,1423.18 238.13,47.2441 
  "/>
<polyline clip-path="url(#clip402)" style="stroke:#000000; stroke-width:2; stroke-opacity:0.1; fill:none" points="
  540.219,1423.18 540.219,47.2441 
  "/>
<polyline clip-path="url(#clip402)" style="stroke:#000000; stroke-width:2; stroke-opacity:0.1; fill:none" points="
  842.309,1423.18 842.309,47.2441 
  "/>
<polyline clip-path="url(#clip402)" style="stroke:#000000; stroke-width:2; stroke-opacity:0.1; fill:none" points="
  1144.4,1423.18 1144.4,47.2441 
  "/>
<polyline clip-path="url(#clip402)" style="stroke:#000000; stroke-width:2; stroke-opacity:0.1; fill:none" points="
  1446.49,1423.18 1446.49,47.2441 
  "/>
<polyline clip-path="url(#clip402)" style="stroke:#000000; stroke-width:2; stroke-opacity:0.1; fill:none" points="
  1748.58,1423.18 1748.58,47.2441 
  "/>
<polyline clip-path="url(#clip402)" style="stroke:#000000; stroke-width:2; stroke-opacity:0.1; fill:none" points="
  2050.67,1423.18 2050.67,47.2441 
  "/>
<polyline clip-path="url(#clip402)" style="stroke:#000000; stroke-width:2; stroke-opacity:0.1; fill:none" points="
  2352.76,1423.18 2352.76,47.2441 
  "/>
<polyline clip-path="url(#clip400)" style="stroke:#000000; stroke-width:4; stroke-opacity:1; fill:none" points="
  238.13,1423.18 2352.76,1423.18 
  "/>
<polyline clip-path="url(#clip400)" style="stroke:#000000; stroke-width:4; stroke-opacity:1; fill:none" points="
  238.13,1423.18 238.13,1406.67 
  "/>
<polyline clip-path="url(#clip400)" style="stroke:#000000; stroke-width:4; stroke-opacity:1; fill:none" points="
  540.219,1423.18 540.219,1406.67 
  "/>
<polyline clip-path="url(#clip400)" style="stroke:#000000; stroke-width:4; stroke-opacity:1; fill:none" points="
  842.309,1423.18 842.309,1406.67 
  "/>
<polyline clip-path="url(#clip400)" style="stroke:#000000; stroke-width:4; stroke-opacity:1; fill:none" points="
  1144.4,1423.18 1144.4,1406.67 
  "/>
<polyline clip-path="url(#clip400)" style="stroke:#000000; stroke-width:4; stroke-opacity:1; fill:none" points="
  1446.49,1423.18 1446.49,1406.67 
  "/>
<polyline clip-path="url(#clip400)" style="stroke:#000000; stroke-width:4; stroke-opacity:1; fill:none" points="
  1748.58,1423.18 1748.58,1406.67 
  "/>
<polyline clip-path="url(#clip400)" style="stroke:#000000; stroke-width:4; stroke-opacity:1; fill:none" points="
  2050.67,1423.18 2050.67,1406.67 
  "/>
<polyline clip-path="url(#clip400)" style="stroke:#000000; stroke-width:4; stroke-opacity:1; fill:none" points="
  2352.76,1423.18 2352.76,1406.67 
  "/>
<path clip-path="url(#clip400)" d="M 0 0 M238.13 1452.37 Q234.519 1452.37 232.69 1455.94 Q230.885 1459.48 230.885 1466.61 Q230.885 1473.71 232.69 1477.28 Q234.519 1480.82 238.13 1480.82 Q241.764 1480.82 243.57 1477.28 Q245.399 1473.71 245.399 1466.61 Q245.399 1459.48 243.57 1455.94 Q241.764 1452.37 238.13 1452.37 M238.13 1448.67 Q243.94 1448.67 246.996 1453.27 Q250.074 1457.86 250.074 1466.61 Q250.074 1475.33 246.996 1479.94 Q243.94 1484.52 238.13 1484.52 Q232.32 1484.52 229.241 1479.94 Q226.186 1475.33 226.186 1466.61 Q226.186 1457.86 229.241 1453.27 Q232.32 1448.67 238.13 1448.67 Z" fill="#000000" fill-rule="evenodd" fill-opacity="1" /><path clip-path="url(#clip400)" d="M 0 0 M516.99 1449.29 L535.347 1449.29 L535.347 1453.23 L521.273 1453.23 L521.273 1461.7 Q522.291 1461.35 523.31 1461.19 Q524.328 1461 525.347 1461 Q531.134 1461 534.513 1464.18 Q537.893 1467.35 537.893 1472.76 Q537.893 1478.34 534.421 1481.44 Q530.949 1484.52 524.629 1484.52 Q522.453 1484.52 520.185 1484.15 Q517.939 1483.78 515.532 1483.04 L515.532 1478.34 Q517.615 1479.48 519.838 1480.03 Q522.06 1480.59 524.537 1480.59 Q528.541 1480.59 530.879 1478.48 Q533.217 1476.38 533.217 1472.76 Q533.217 1469.15 530.879 1467.05 Q528.541 1464.94 524.537 1464.94 Q522.662 1464.94 520.787 1465.36 Q518.935 1465.77 516.99 1466.65 L516.99 1449.29 Z" fill="#000000" fill-rule="evenodd" fill-opacity="1" /><path clip-path="url(#clip400)" d="M 0 0 M552.962 1452.37 Q549.351 1452.37 547.523 1455.94 Q545.717 1459.48 545.717 1466.61 Q545.717 1473.71 547.523 1477.28 Q549.351 1480.82 552.962 1480.82 Q556.597 1480.82 558.402 1477.28 Q560.231 1473.71 560.231 1466.61 Q560.231 1459.48 558.402 1455.94 Q556.597 1452.37 552.962 1452.37 M552.962 1448.67 Q558.773 1448.67 561.828 1453.27 Q564.907 1457.86 564.907 1466.61 Q564.907 1475.33 561.828 1479.94 Q558.773 1484.52 552.962 1484.52 Q547.152 1484.52 544.074 1479.94 Q541.018 1475.33 541.018 1466.61 Q541.018 1457.86 544.074 1453.27 Q547.152 1448.67 552.962 1448.67 Z" fill="#000000" fill-rule="evenodd" fill-opacity="1" /><path clip-path="url(#clip400)" d="M 0 0 M805.677 1479.92 L813.316 1479.92 L813.316 1453.55 L805.006 1455.22 L805.006 1450.96 L813.27 1449.29 L817.946 1449.29 L817.946 1479.92 L825.584 1479.92 L825.584 1483.85 L805.677 1483.85 L805.677 1479.92 Z" fill="#000000" fill-rule="evenodd" fill-opacity="1" /><path clip-path="url(#clip400)" d="M 0 0 M840.654 1452.37 Q837.043 1452.37 835.214 1455.94 Q833.408 1459.48 833.408 1466.61 Q833.408 1473.71 835.214 1477.28 Q837.043 1480.82 840.654 1480.82 Q844.288 1480.82 846.094 1477.28 Q847.922 1473.71 847.922 1466.61 Q847.922 1459.48 846.094 1455.94 Q844.288 1452.37 840.654 1452.37 M840.654 1448.67 Q846.464 1448.67 849.519 1453.27 Q852.598 1457.86 852.598 1466.61 Q852.598 1475.33 849.519 1479.94 Q846.464 1484.52 840.654 1484.52 Q834.844 1484.52 831.765 1479.94 Q828.709 1475.33 828.709 1466.61 Q828.709 1457.86 831.765 1453.27 Q834.844 1448.67 840.654 1448.67 Z" fill="#000000" fill-rule="evenodd" fill-opacity="1" /><path clip-path="url(#clip400)" d="M 0 0 M867.668 1452.37 Q864.056 1452.37 862.228 1455.94 Q860.422 1459.48 860.422 1466.61 Q860.422 1473.71 862.228 1477.28 Q864.056 1480.82 867.668 1480.82 Q871.302 1480.82 873.107 1477.28 Q874.936 1473.71 874.936 1466.61 Q874.936 1459.48 873.107 1455.94 Q871.302 1452.37 867.668 1452.37 M867.668 1448.67 Q873.478 1448.67 876.533 1453.27 Q879.612 1457.86 879.612 1466.61 Q879.612 1475.33 876.533 1479.94 Q873.478 1484.52 867.668 1484.52 Q861.857 1484.52 858.779 1479.94 Q855.723 1475.33 855.723 1466.61 Q855.723 1457.86 858.779 1453.27 Q861.857 1448.67 867.668 1448.67 Z" fill="#000000" fill-rule="evenodd" fill-opacity="1" /><path clip-path="url(#clip400)" d="M 0 0 M1108.26 1479.92 L1115.9 1479.92 L1115.9 1453.55 L1107.59 1455.22 L1107.59 1450.96 L1115.86 1449.29 L1120.53 1449.29 L1120.53 1479.92 L1128.17 1479.92 L1128.17 1483.85 L1108.26 1483.85 L1108.26 1479.92 Z" fill="#000000" fill-rule="evenodd" fill-opacity="1" /><path clip-path="url(#clip400)" d="M 0 0 M1133.29 1449.29 L1151.64 1449.29 L1151.64 1453.23 L1137.57 1453.23 L1137.57 1461.7 Q1138.59 1461.35 1139.61 1461.19 Q1140.63 1461 1141.64 1461 Q1147.43 1461 1150.81 1464.18 Q1154.19 1467.35 1154.19 1472.76 Q1154.19 1478.34 1150.72 1481.44 Q1147.25 1484.52 1140.93 1484.52 Q1138.75 1484.52 1136.48 1484.15 Q1134.24 1483.78 1131.83 1483.04 L1131.83 1478.34 Q1133.91 1479.48 1136.13 1480.03 Q1138.36 1480.59 1140.83 1480.59 Q1144.84 1480.59 1147.18 1478.48 Q1149.51 1476.38 1149.51 1472.76 Q1149.51 1469.15 1147.18 1467.05 Q1144.84 1464.94 1140.83 1464.94 Q1138.96 1464.94 1137.08 1465.36 Q1135.23 1465.77 1133.29 1466.65 L1133.29 1449.29 Z" fill="#000000" fill-rule="evenodd" fill-opacity="1" /><path clip-path="url(#clip400)" d="M 0 0 M1169.26 1452.37 Q1165.65 1452.37 1163.82 1455.94 Q1162.01 1459.48 1162.01 1466.61 Q1162.01 1473.71 1163.82 1477.28 Q1165.65 1480.82 1169.26 1480.82 Q1172.89 1480.82 1174.7 1477.28 Q1176.53 1473.71 1176.53 1466.61 Q1176.53 1459.48 1174.7 1455.94 Q1172.89 1452.37 1169.26 1452.37 M1169.26 1448.67 Q1175.07 1448.67 1178.12 1453.27 Q1181.2 1457.86 1181.2 1466.61 Q1181.2 1475.33 1178.12 1479.94 Q1175.07 1484.52 1169.26 1484.52 Q1163.45 1484.52 1160.37 1479.94 Q1157.31 1475.33 1157.31 1466.61 Q1157.31 1457.86 1160.37 1453.27 Q1163.45 1448.67 1169.26 1448.67 Z" fill="#000000" fill-rule="evenodd" fill-opacity="1" /><path clip-path="url(#clip400)" d="M 0 0 M1414.13 1479.92 L1430.45 1479.92 L1430.45 1483.85 L1408.5 1483.85 L1408.5 1479.92 Q1411.16 1477.16 1415.75 1472.53 Q1420.35 1467.88 1421.53 1466.54 Q1423.78 1464.01 1424.66 1462.28 Q1425.56 1460.52 1425.56 1458.83 Q1425.56 1456.07 1423.62 1454.34 Q1421.7 1452.6 1418.59 1452.6 Q1416.4 1452.6 1413.94 1453.37 Q1411.51 1454.13 1408.73 1455.68 L1408.73 1450.96 Q1411.56 1449.82 1414.01 1449.25 Q1416.46 1448.67 1418.5 1448.67 Q1423.87 1448.67 1427.07 1451.35 Q1430.26 1454.04 1430.26 1458.53 Q1430.26 1460.66 1429.45 1462.58 Q1428.66 1464.48 1426.56 1467.07 Q1425.98 1467.74 1422.88 1470.96 Q1419.77 1474.15 1414.13 1479.92 Z" fill="#000000" fill-rule="evenodd" fill-opacity="1" /><path clip-path="url(#clip400)" d="M 0 0 M1445.52 1452.37 Q1441.9 1452.37 1440.08 1455.94 Q1438.27 1459.48 1438.27 1466.61 Q1438.27 1473.71 1440.08 1477.28 Q1441.9 1480.82 1445.52 1480.82 Q1449.15 1480.82 1450.96 1477.28 Q1452.78 1473.71 1452.78 1466.61 Q1452.78 1459.48 1450.96 1455.94 Q1449.15 1452.37 1445.52 1452.37 M1445.52 1448.67 Q1451.33 1448.67 1454.38 1453.27 Q1457.46 1457.86 1457.46 1466.61 Q1457.46 1475.33 1454.38 1479.94 Q1451.33 1484.52 1445.52 1484.52 Q1439.71 1484.52 1436.63 1479.94 Q1433.57 1475.33 1433.57 1466.61 Q1433.57 1457.86 1436.63 1453.27 Q1439.71 1448.67 1445.52 1448.67 Z" fill="#000000" fill-rule="evenodd" fill-opacity="1" /><path clip-path="url(#clip400)" d="M 0 0 M1472.53 1452.37 Q1468.92 1452.37 1467.09 1455.94 Q1465.28 1459.48 1465.28 1466.61 Q1465.28 1473.71 1467.09 1477.28 Q1468.92 1480.82 1472.53 1480.82 Q1476.16 1480.82 1477.97 1477.28 Q1479.8 1473.71 1479.8 1466.61 Q1479.8 1459.48 1477.97 1455.94 Q1476.16 1452.37 1472.53 1452.37 M1472.53 1448.67 Q1478.34 1448.67 1481.39 1453.27 Q1484.47 1457.86 1484.47 1466.61 Q1484.47 1475.33 1481.39 1479.94 Q1478.34 1484.52 1472.53 1484.52 Q1466.72 1484.52 1463.64 1479.94 Q1460.58 1475.33 1460.58 1466.61 Q1460.58 1457.86 1463.64 1453.27 Q1466.72 1448.67 1472.53 1448.67 Z" fill="#000000" fill-rule="evenodd" fill-opacity="1" /><path clip-path="url(#clip400)" d="M 0 0 M1716.71 1479.92 L1733.03 1479.92 L1733.03 1483.85 L1711.09 1483.85 L1711.09 1479.92 Q1713.75 1477.16 1718.33 1472.53 Q1722.94 1467.88 1724.12 1466.54 Q1726.37 1464.01 1727.25 1462.28 Q1728.15 1460.52 1728.15 1458.83 Q1728.15 1456.07 1726.2 1454.34 Q1724.28 1452.6 1721.18 1452.6 Q1718.98 1452.6 1716.53 1453.37 Q1714.1 1454.13 1711.32 1455.68 L1711.32 1450.96 Q1714.14 1449.82 1716.6 1449.25 Q1719.05 1448.67 1721.09 1448.67 Q1726.46 1448.67 1729.65 1451.35 Q1732.85 1454.04 1732.85 1458.53 Q1732.85 1460.66 1732.04 1462.58 Q1731.25 1464.48 1729.14 1467.07 Q1728.57 1467.74 1725.46 1470.96 Q1722.36 1474.15 1716.71 1479.92 Z" fill="#000000" fill-rule="evenodd" fill-opacity="1" /><path clip-path="url(#clip400)" d="M 0 0 M1738.15 1449.29 L1756.51 1449.29 L1756.51 1453.23 L1742.43 1453.23 L1742.43 1461.7 Q1743.45 1461.35 1744.47 1461.19 Q1745.49 1461 1746.51 1461 Q1752.29 1461 1755.67 1464.18 Q1759.05 1467.35 1759.05 1472.76 Q1759.05 1478.34 1755.58 1481.44 Q1752.11 1484.52 1745.79 1484.52 Q1743.61 1484.52 1741.34 1484.15 Q1739.1 1483.78 1736.69 1483.04 L1736.69 1478.34 Q1738.77 1479.48 1741 1480.03 Q1743.22 1480.59 1745.7 1480.59 Q1749.7 1480.59 1752.04 1478.48 Q1754.38 1476.38 1754.38 1472.76 Q1754.38 1469.15 1752.04 1467.05 Q1749.7 1464.94 1745.7 1464.94 Q1743.82 1464.94 1741.95 1465.36 Q1740.09 1465.77 1738.15 1466.65 L1738.15 1449.29 Z" fill="#000000" fill-rule="evenodd" fill-opacity="1" /><path clip-path="url(#clip400)" d="M 0 0 M1774.12 1452.37 Q1770.51 1452.37 1768.68 1455.94 Q1766.88 1459.48 1766.88 1466.61 Q1766.88 1473.71 1768.68 1477.28 Q1770.51 1480.82 1774.12 1480.82 Q1777.76 1480.82 1779.56 1477.28 Q1781.39 1473.71 1781.39 1466.61 Q1781.39 1459.48 1779.56 1455.94 Q1777.76 1452.37 1774.12 1452.37 M1774.12 1448.67 Q1779.93 1448.67 1782.99 1453.27 Q1786.07 1457.86 1786.07 1466.61 Q1786.07 1475.33 1782.99 1479.94 Q1779.93 1484.52 1774.12 1484.52 Q1768.31 1484.52 1765.23 1479.94 Q1762.18 1475.33 1762.18 1466.61 Q1762.18 1457.86 1765.23 1453.27 Q1768.31 1448.67 1774.12 1448.67 Z" fill="#000000" fill-rule="evenodd" fill-opacity="1" /><path clip-path="url(#clip400)" d="M 0 0 M2027.9 1465.22 Q2031.26 1465.94 2033.13 1468.2 Q2035.03 1470.47 2035.03 1473.81 Q2035.03 1478.92 2031.51 1481.72 Q2027.99 1484.52 2021.51 1484.52 Q2019.34 1484.52 2017.02 1484.08 Q2014.73 1483.67 2012.28 1482.81 L2012.28 1478.3 Q2014.22 1479.43 2016.53 1480.01 Q2018.85 1480.59 2021.37 1480.59 Q2025.77 1480.59 2028.06 1478.85 Q2030.38 1477.12 2030.38 1473.81 Q2030.38 1470.75 2028.22 1469.04 Q2026.09 1467.3 2022.28 1467.3 L2018.25 1467.3 L2018.25 1463.46 L2022.46 1463.46 Q2025.91 1463.46 2027.74 1462.09 Q2029.57 1460.7 2029.57 1458.11 Q2029.57 1455.45 2027.67 1454.04 Q2025.79 1452.6 2022.28 1452.6 Q2020.35 1452.6 2018.16 1453.02 Q2015.96 1453.44 2013.32 1454.31 L2013.32 1450.15 Q2015.98 1449.41 2018.29 1449.04 Q2020.63 1448.67 2022.69 1448.67 Q2028.02 1448.67 2031.12 1451.1 Q2034.22 1453.5 2034.22 1457.63 Q2034.22 1460.5 2032.58 1462.49 Q2030.93 1464.45 2027.9 1465.22 Z" fill="#000000" fill-rule="evenodd" fill-opacity="1" /><path clip-path="url(#clip400)" d="M 0 0 M2050.1 1452.37 Q2046.49 1452.37 2044.66 1455.94 Q2042.85 1459.48 2042.85 1466.61 Q2042.85 1473.71 2044.66 1477.28 Q2046.49 1480.82 2050.1 1480.82 Q2053.73 1480.82 2055.54 1477.28 Q2057.37 1473.71 2057.37 1466.61 Q2057.37 1459.48 2055.54 1455.94 Q2053.73 1452.37 2050.1 1452.37 M2050.1 1448.67 Q2055.91 1448.67 2058.97 1453.27 Q2062.04 1457.86 2062.04 1466.61 Q2062.04 1475.33 2058.97 1479.94 Q2055.91 1484.52 2050.1 1484.52 Q2044.29 1484.52 2041.21 1479.94 Q2038.15 1475.33 2038.15 1466.61 Q2038.15 1457.86 2041.21 1453.27 Q2044.29 1448.67 2050.1 1448.67 Z" fill="#000000" fill-rule="evenodd" fill-opacity="1" /><path clip-path="url(#clip400)" d="M 0 0 M2077.11 1452.37 Q2073.5 1452.37 2071.67 1455.94 Q2069.87 1459.48 2069.87 1466.61 Q2069.87 1473.71 2071.67 1477.28 Q2073.5 1480.82 2077.11 1480.82 Q2080.75 1480.82 2082.55 1477.28 Q2084.38 1473.71 2084.38 1466.61 Q2084.38 1459.48 2082.55 1455.94 Q2080.75 1452.37 2077.11 1452.37 M2077.11 1448.67 Q2082.92 1448.67 2085.98 1453.27 Q2089.06 1457.86 2089.06 1466.61 Q2089.06 1475.33 2085.98 1479.94 Q2082.92 1484.52 2077.11 1484.52 Q2071.3 1484.52 2068.22 1479.94 Q2065.17 1475.33 2065.17 1466.61 Q2065.17 1457.86 2068.22 1453.27 Q2071.3 1448.67 2077.11 1448.67 Z" fill="#000000" fill-rule="evenodd" fill-opacity="1" /><path clip-path="url(#clip400)" d="M 0 0 M2330.49 1465.22 Q2333.84 1465.94 2335.72 1468.2 Q2337.62 1470.47 2337.62 1473.81 Q2337.62 1478.92 2334.1 1481.72 Q2330.58 1484.52 2324.1 1484.52 Q2321.92 1484.52 2319.61 1484.08 Q2317.32 1483.67 2314.86 1482.81 L2314.86 1478.3 Q2316.81 1479.43 2319.12 1480.01 Q2321.44 1480.59 2323.96 1480.59 Q2328.36 1480.59 2330.65 1478.85 Q2332.96 1477.12 2332.96 1473.81 Q2332.96 1470.75 2330.81 1469.04 Q2328.68 1467.3 2324.86 1467.3 L2320.83 1467.3 L2320.83 1463.46 L2325.05 1463.46 Q2328.5 1463.46 2330.33 1462.09 Q2332.15 1460.7 2332.15 1458.11 Q2332.15 1455.45 2330.26 1454.04 Q2328.38 1452.6 2324.86 1452.6 Q2322.94 1452.6 2320.74 1453.02 Q2318.54 1453.44 2315.9 1454.31 L2315.9 1450.15 Q2318.57 1449.41 2320.88 1449.04 Q2323.22 1448.67 2325.28 1448.67 Q2330.6 1448.67 2333.71 1451.1 Q2336.81 1453.5 2336.81 1457.63 Q2336.81 1460.5 2335.16 1462.49 Q2333.52 1464.45 2330.49 1465.22 Z" fill="#000000" fill-rule="evenodd" fill-opacity="1" /><path clip-path="url(#clip400)" d="M 0 0 M2342.73 1449.29 L2361.09 1449.29 L2361.09 1453.23 L2347.02 1453.23 L2347.02 1461.7 Q2348.03 1461.35 2349.05 1461.19 Q2350.07 1461 2351.09 1461 Q2356.88 1461 2360.26 1464.18 Q2363.64 1467.35 2363.64 1472.76 Q2363.64 1478.34 2360.16 1481.44 Q2356.69 1484.52 2350.37 1484.52 Q2348.2 1484.52 2345.93 1484.15 Q2343.68 1483.78 2341.27 1483.04 L2341.27 1478.34 Q2343.36 1479.48 2345.58 1480.03 Q2347.8 1480.59 2350.28 1480.59 Q2354.28 1480.59 2356.62 1478.48 Q2358.96 1476.38 2358.96 1472.76 Q2358.96 1469.15 2356.62 1467.05 Q2354.28 1464.94 2350.28 1464.94 Q2348.4 1464.94 2346.53 1465.36 Q2344.68 1465.77 2342.73 1466.65 L2342.73 1449.29 Z" fill="#000000" fill-rule="evenodd" fill-opacity="1" /><path clip-path="url(#clip400)" d="M 0 0 M2378.7 1452.37 Q2375.09 1452.37 2373.27 1455.94 Q2371.46 1459.48 2371.46 1466.61 Q2371.46 1473.71 2373.27 1477.28 Q2375.09 1480.82 2378.7 1480.82 Q2382.34 1480.82 2384.14 1477.28 Q2385.97 1473.71 2385.97 1466.61 Q2385.97 1459.48 2384.14 1455.94 Q2382.34 1452.37 2378.7 1452.37 M2378.7 1448.67 Q2384.51 1448.67 2387.57 1453.27 Q2390.65 1457.86 2390.65 1466.61 Q2390.65 1475.33 2387.57 1479.94 Q2384.51 1484.52 2378.7 1484.52 Q2372.89 1484.52 2369.82 1479.94 Q2366.76 1475.33 2366.76 1466.61 Q2366.76 1457.86 2369.82 1453.27 Q2372.89 1448.67 2378.7 1448.67 Z" fill="#000000" fill-rule="evenodd" fill-opacity="1" /><path clip-path="url(#clip400)" d="M 0 0 M1312.06 1520.4 L1299.17 1537.74 L1312.73 1556.04 L1305.82 1556.04 L1295.44 1542.04 L1285.07 1556.04 L1278.16 1556.04 L1292.01 1537.39 L1279.34 1520.4 L1286.24 1520.4 L1295.7 1533.1 L1305.15 1520.4 L1312.06 1520.4 Z" fill="#000000" fill-rule="evenodd" fill-opacity="1" /><polyline clip-path="url(#clip402)" style="stroke:#000000; stroke-width:2; stroke-opacity:0.1; fill:none" points="
  238.13,1314.03 2352.76,1314.03 
  "/>
<polyline clip-path="url(#clip402)" style="stroke:#000000; stroke-width:2; stroke-opacity:0.1; fill:none" points="
  238.13,1025.73 2352.76,1025.73 
  "/>
<polyline clip-path="url(#clip402)" style="stroke:#000000; stroke-width:2; stroke-opacity:0.1; fill:none" points="
  238.13,737.425 2352.76,737.425 
  "/>
<polyline clip-path="url(#clip402)" style="stroke:#000000; stroke-width:2; stroke-opacity:0.1; fill:none" points="
  238.13,449.123 2352.76,449.123 
  "/>
<polyline clip-path="url(#clip402)" style="stroke:#000000; stroke-width:2; stroke-opacity:0.1; fill:none" points="
  238.13,160.821 2352.76,160.821 
  "/>
<polyline clip-path="url(#clip400)" style="stroke:#000000; stroke-width:4; stroke-opacity:1; fill:none" points="
  238.13,1423.18 238.13,47.2441 
  "/>
<polyline clip-path="url(#clip400)" style="stroke:#000000; stroke-width:4; stroke-opacity:1; fill:none" points="
  238.13,1314.03 263.506,1314.03 
  "/>
<polyline clip-path="url(#clip400)" style="stroke:#000000; stroke-width:4; stroke-opacity:1; fill:none" points="
  238.13,1025.73 263.506,1025.73 
  "/>
<polyline clip-path="url(#clip400)" style="stroke:#000000; stroke-width:4; stroke-opacity:1; fill:none" points="
  238.13,737.425 263.506,737.425 
  "/>
<polyline clip-path="url(#clip400)" style="stroke:#000000; stroke-width:4; stroke-opacity:1; fill:none" points="
  238.13,449.123 263.506,449.123 
  "/>
<polyline clip-path="url(#clip400)" style="stroke:#000000; stroke-width:4; stroke-opacity:1; fill:none" points="
  238.13,160.821 263.506,160.821 
  "/>
<path clip-path="url(#clip400)" d="M 0 0 M126.205 1299.83 Q122.593 1299.83 120.765 1303.39 Q118.959 1306.93 118.959 1314.06 Q118.959 1321.17 120.765 1324.73 Q122.593 1328.28 126.205 1328.28 Q129.839 1328.28 131.644 1324.73 Q133.473 1321.17 133.473 1314.06 Q133.473 1306.93 131.644 1303.39 Q129.839 1299.83 126.205 1299.83 M126.205 1296.12 Q132.015 1296.12 135.07 1300.73 Q138.149 1305.31 138.149 1314.06 Q138.149 1322.79 135.07 1327.4 Q132.015 1331.98 126.205 1331.98 Q120.394 1331.98 117.316 1327.4 Q114.26 1322.79 114.26 1314.06 Q114.26 1305.31 117.316 1300.73 Q120.394 1296.12 126.205 1296.12 Z" fill="#000000" fill-rule="evenodd" fill-opacity="1" /><path clip-path="url(#clip400)" d="M 0 0 M143.218 1325.43 L148.103 1325.43 L148.103 1331.31 L143.218 1331.31 L143.218 1325.43 Z" fill="#000000" fill-rule="evenodd" fill-opacity="1" /><path clip-path="url(#clip400)" d="M 0 0 M163.172 1299.83 Q159.561 1299.83 157.732 1303.39 Q155.927 1306.93 155.927 1314.06 Q155.927 1321.17 157.732 1324.73 Q159.561 1328.28 163.172 1328.28 Q166.806 1328.28 168.612 1324.73 Q170.44 1321.17 170.44 1314.06 Q170.44 1306.93 168.612 1303.39 Q166.806 1299.83 163.172 1299.83 M163.172 1296.12 Q168.982 1296.12 172.038 1300.73 Q175.116 1305.31 175.116 1314.06 Q175.116 1322.79 172.038 1327.4 Q168.982 1331.98 163.172 1331.98 Q157.362 1331.98 154.283 1327.4 Q151.228 1322.79 151.228 1314.06 Q151.228 1305.31 154.283 1300.73 Q157.362 1296.12 163.172 1296.12 Z" fill="#000000" fill-rule="evenodd" fill-opacity="1" /><path clip-path="url(#clip400)" d="M 0 0 M190.186 1299.83 Q186.575 1299.83 184.746 1303.39 Q182.94 1306.93 182.94 1314.06 Q182.94 1321.17 184.746 1324.73 Q186.575 1328.28 190.186 1328.28 Q193.82 1328.28 195.625 1324.73 Q197.454 1321.17 197.454 1314.06 Q197.454 1306.93 195.625 1303.39 Q193.82 1299.83 190.186 1299.83 M190.186 1296.12 Q195.996 1296.12 199.051 1300.73 Q202.13 1305.31 202.13 1314.06 Q202.13 1322.79 199.051 1327.4 Q195.996 1331.98 190.186 1331.98 Q184.376 1331.98 181.297 1327.4 Q178.241 1322.79 178.241 1314.06 Q178.241 1305.31 181.297 1300.73 Q184.376 1296.12 190.186 1296.12 Z" fill="#000000" fill-rule="evenodd" fill-opacity="1" /><path clip-path="url(#clip400)" d="M 0 0 M128.797 1011.53 Q125.186 1011.53 123.357 1015.09 Q121.552 1018.63 121.552 1025.76 Q121.552 1032.87 123.357 1036.43 Q125.186 1039.97 128.797 1039.97 Q132.431 1039.97 134.237 1036.43 Q136.066 1032.87 136.066 1025.76 Q136.066 1018.63 134.237 1015.09 Q132.431 1011.53 128.797 1011.53 M128.797 1007.82 Q134.607 1007.82 137.663 1012.43 Q140.741 1017.01 140.741 1025.76 Q140.741 1034.49 137.663 1039.09 Q134.607 1043.68 128.797 1043.68 Q122.987 1043.68 119.908 1039.09 Q116.853 1034.49 116.853 1025.76 Q116.853 1017.01 119.908 1012.43 Q122.987 1007.82 128.797 1007.82 Z" fill="#000000" fill-rule="evenodd" fill-opacity="1" /><path clip-path="url(#clip400)" d="M 0 0 M145.811 1037.13 L150.695 1037.13 L150.695 1043.01 L145.811 1043.01 L145.811 1037.13 Z" fill="#000000" fill-rule="evenodd" fill-opacity="1" /><path clip-path="url(#clip400)" d="M 0 0 M159.792 1039.07 L176.112 1039.07 L176.112 1043.01 L154.167 1043.01 L154.167 1039.07 Q156.829 1036.32 161.413 1031.69 Q166.019 1027.03 167.2 1025.69 Q169.445 1023.17 170.325 1021.43 Q171.227 1019.67 171.227 1017.98 Q171.227 1015.23 169.283 1013.49 Q167.362 1011.76 164.26 1011.76 Q162.061 1011.76 159.607 1012.52 Q157.177 1013.28 154.399 1014.84 L154.399 1010.11 Q157.223 1008.98 159.677 1008.4 Q162.13 1007.82 164.167 1007.82 Q169.538 1007.82 172.732 1010.51 Q175.926 1013.19 175.926 1017.68 Q175.926 1019.81 175.116 1021.73 Q174.329 1023.63 172.223 1026.22 Q171.644 1026.9 168.542 1030.11 Q165.44 1033.31 159.792 1039.07 Z" fill="#000000" fill-rule="evenodd" fill-opacity="1" /><path clip-path="url(#clip400)" d="M 0 0 M181.227 1008.45 L199.584 1008.45 L199.584 1012.38 L185.51 1012.38 L185.51 1020.85 Q186.528 1020.51 187.547 1020.34 Q188.565 1020.16 189.584 1020.16 Q195.371 1020.16 198.75 1023.33 Q202.13 1026.5 202.13 1031.92 Q202.13 1037.5 198.658 1040.6 Q195.186 1043.68 188.866 1043.68 Q186.69 1043.68 184.422 1043.31 Q182.176 1042.94 179.769 1042.2 L179.769 1037.5 Q181.852 1038.63 184.075 1039.19 Q186.297 1039.74 188.774 1039.74 Q192.778 1039.74 195.116 1037.64 Q197.454 1035.53 197.454 1031.92 Q197.454 1028.31 195.116 1026.2 Q192.778 1024.09 188.774 1024.09 Q186.899 1024.09 185.024 1024.51 Q183.172 1024.93 181.227 1025.81 L181.227 1008.45 Z" fill="#000000" fill-rule="evenodd" fill-opacity="1" /><path clip-path="url(#clip400)" d="M 0 0 M127.2 723.223 Q123.589 723.223 121.76 726.788 Q119.955 730.33 119.955 737.459 Q119.955 744.566 121.76 748.131 Q123.589 751.672 127.2 751.672 Q130.834 751.672 132.64 748.131 Q134.468 744.566 134.468 737.459 Q134.468 730.33 132.64 726.788 Q130.834 723.223 127.2 723.223 M127.2 719.52 Q133.01 719.52 136.066 724.126 Q139.144 728.71 139.144 737.459 Q139.144 746.186 136.066 750.793 Q133.01 755.376 127.2 755.376 Q121.39 755.376 118.311 750.793 Q115.256 746.186 115.256 737.459 Q115.256 728.71 118.311 724.126 Q121.39 719.52 127.2 719.52 Z" fill="#000000" fill-rule="evenodd" fill-opacity="1" /><path clip-path="url(#clip400)" d="M 0 0 M144.214 748.825 L149.098 748.825 L149.098 754.705 L144.214 754.705 L144.214 748.825 Z" fill="#000000" fill-rule="evenodd" fill-opacity="1" /><path clip-path="url(#clip400)" d="M 0 0 M154.214 720.145 L172.57 720.145 L172.57 724.08 L158.496 724.08 L158.496 732.552 Q159.515 732.205 160.533 732.043 Q161.552 731.858 162.57 731.858 Q168.357 731.858 171.737 735.029 Q175.116 738.2 175.116 743.617 Q175.116 749.196 171.644 752.297 Q168.172 755.376 161.852 755.376 Q159.677 755.376 157.408 755.006 Q155.163 754.635 152.755 753.895 L152.755 749.196 Q154.839 750.33 157.061 750.885 Q159.283 751.441 161.76 751.441 Q165.765 751.441 168.102 749.334 Q170.44 747.228 170.44 743.617 Q170.44 740.006 168.102 737.899 Q165.765 735.793 161.76 735.793 Q159.885 735.793 158.01 736.209 Q156.158 736.626 154.214 737.506 L154.214 720.145 Z" fill="#000000" fill-rule="evenodd" fill-opacity="1" /><path clip-path="url(#clip400)" d="M 0 0 M190.186 723.223 Q186.575 723.223 184.746 726.788 Q182.94 730.33 182.94 737.459 Q182.94 744.566 184.746 748.131 Q186.575 751.672 190.186 751.672 Q193.82 751.672 195.625 748.131 Q197.454 744.566 197.454 737.459 Q197.454 730.33 195.625 726.788 Q193.82 723.223 190.186 723.223 M190.186 719.52 Q195.996 719.52 199.051 724.126 Q202.13 728.71 202.13 737.459 Q202.13 746.186 199.051 750.793 Q195.996 755.376 190.186 755.376 Q184.376 755.376 181.297 750.793 Q178.241 746.186 178.241 737.459 Q178.241 728.71 181.297 724.126 Q184.376 719.52 190.186 719.52 Z" fill="#000000" fill-rule="evenodd" fill-opacity="1" /><path clip-path="url(#clip400)" d="M 0 0 M128.103 434.922 Q124.492 434.922 122.663 438.487 Q120.857 442.028 120.857 449.158 Q120.857 456.264 122.663 459.829 Q124.492 463.371 128.103 463.371 Q131.737 463.371 133.542 459.829 Q135.371 456.264 135.371 449.158 Q135.371 442.028 133.542 438.487 Q131.737 434.922 128.103 434.922 M128.103 431.218 Q133.913 431.218 136.968 435.825 Q140.047 440.408 140.047 449.158 Q140.047 457.885 136.968 462.491 Q133.913 467.074 128.103 467.074 Q122.293 467.074 119.214 462.491 Q116.158 457.885 116.158 449.158 Q116.158 440.408 119.214 435.825 Q122.293 431.218 128.103 431.218 Z" fill="#000000" fill-rule="evenodd" fill-opacity="1" /><path clip-path="url(#clip400)" d="M 0 0 M145.116 460.523 L150.001 460.523 L150.001 466.403 L145.116 466.403 L145.116 460.523 Z" fill="#000000" fill-rule="evenodd" fill-opacity="1" /><path clip-path="url(#clip400)" d="M 0 0 M153.89 431.843 L176.112 431.843 L176.112 433.834 L163.565 466.403 L158.681 466.403 L170.487 435.778 L153.89 435.778 L153.89 431.843 Z" fill="#000000" fill-rule="evenodd" fill-opacity="1" /><path clip-path="url(#clip400)" d="M 0 0 M181.227 431.843 L199.584 431.843 L199.584 435.778 L185.51 435.778 L185.51 444.25 Q186.528 443.903 187.547 443.741 Q188.565 443.556 189.584 443.556 Q195.371 443.556 198.75 446.727 Q202.13 449.899 202.13 455.315 Q202.13 460.894 198.658 463.996 Q195.186 467.074 188.866 467.074 Q186.69 467.074 184.422 466.704 Q182.176 466.334 179.769 465.593 L179.769 460.894 Q181.852 462.028 184.075 462.584 Q186.297 463.139 188.774 463.139 Q192.778 463.139 195.116 461.033 Q197.454 458.926 197.454 455.315 Q197.454 451.704 195.116 449.598 Q192.778 447.491 188.774 447.491 Q186.899 447.491 185.024 447.908 Q183.172 448.324 181.227 449.204 L181.227 431.843 Z" fill="#000000" fill-rule="evenodd" fill-opacity="1" /><path clip-path="url(#clip400)" d="M 0 0 M118.242 174.166 L125.88 174.166 L125.88 147.801 L117.57 149.467 L117.57 145.208 L125.834 143.541 L130.51 143.541 L130.51 174.166 L138.149 174.166 L138.149 178.101 L118.242 178.101 L118.242 174.166 Z" fill="#000000" fill-rule="evenodd" fill-opacity="1" /><path clip-path="url(#clip400)" d="M 0 0 M143.218 172.222 L148.103 172.222 L148.103 178.101 L143.218 178.101 L143.218 172.222 Z" fill="#000000" fill-rule="evenodd" fill-opacity="1" /><path clip-path="url(#clip400)" d="M 0 0 M163.172 146.62 Q159.561 146.62 157.732 150.185 Q155.927 153.727 155.927 160.856 Q155.927 167.963 157.732 171.527 Q159.561 175.069 163.172 175.069 Q166.806 175.069 168.612 171.527 Q170.44 167.963 170.44 160.856 Q170.44 153.727 168.612 150.185 Q166.806 146.62 163.172 146.62 M163.172 142.916 Q168.982 142.916 172.038 147.523 Q175.116 152.106 175.116 160.856 Q175.116 169.583 172.038 174.189 Q168.982 178.773 163.172 178.773 Q157.362 178.773 154.283 174.189 Q151.228 169.583 151.228 160.856 Q151.228 152.106 154.283 147.523 Q157.362 142.916 163.172 142.916 Z" fill="#000000" fill-rule="evenodd" fill-opacity="1" /><path clip-path="url(#clip400)" d="M 0 0 M190.186 146.62 Q186.575 146.62 184.746 150.185 Q182.94 153.727 182.94 160.856 Q182.94 167.963 184.746 171.527 Q186.575 175.069 190.186 175.069 Q193.82 175.069 195.625 171.527 Q197.454 167.963 197.454 160.856 Q197.454 153.727 195.625 150.185 Q193.82 146.62 190.186 146.62 M190.186 142.916 Q195.996 142.916 199.051 147.523 Q202.13 152.106 202.13 160.856 Q202.13 169.583 199.051 174.189 Q195.996 178.773 190.186 178.773 Q184.376 178.773 181.297 174.189 Q178.241 169.583 178.241 160.856 Q178.241 152.106 181.297 147.523 Q184.376 142.916 190.186 142.916 Z" fill="#000000" fill-rule="evenodd" fill-opacity="1" /><path clip-path="url(#clip400)" d="M 0 0 M70.212 745.095 Q76.6732 745.095 80.3653 742.453 Q84.0256 739.779 84.0256 735.132 Q84.0256 730.485 80.3653 727.812 Q76.6732 725.138 70.212 725.138 Q63.7508 725.138 60.0905 727.812 Q56.3984 730.485 56.3984 735.132 Q56.3984 739.779 60.0905 742.453 Q63.7508 745.095 70.212 745.095 M82.657 725.138 Q85.8398 726.984 87.3994 729.817 Q88.9272 732.618 88.9272 736.565 Q88.9272 743.026 83.771 747.1 Q78.6147 751.142 70.212 751.142 Q61.8093 751.142 56.6531 747.1 Q51.4968 743.026 51.4968 736.565 Q51.4968 732.618 53.0564 729.817 Q54.5842 726.984 57.7671 725.138 L52.3562 725.138 L52.3562 719.282 L101.563 719.282 L101.563 725.138 L82.657 725.138 Z" fill="#000000" fill-rule="evenodd" fill-opacity="1" /><polyline clip-path="url(#clip402)" style="stroke:#009af9; stroke-width:4; stroke-opacity:1; fill:none" points="
  238.13,1314.03 240.983,1314.03 246.39,1314.03 251.798,1314.03 254.651,1314.03 257.503,1314.03 262.911,1314.03 268.318,1314.03 271.171,1314.03 
  274.024,1314.03 279.431,1314.03 284.839,1314.03 287.692,1314.03 290.544,1314.03 295.952,1314.03 301.359,1314.03 304.212,1314.03 
  307.065,1314.03 312.472,1314.03 317.88,1314.03 320.733,1314.03 323.585,1314.03 328.993,1314.03 334.4,1314.03 337.253,1314.03 
  340.106,1314.03 345.513,1314.03 350.921,1314.03 353.774,1314.03 356.626,1314.03 362.034,1314.03 367.442,1314.03 370.294,1314.03 
  373.147,1314.03 378.554,1314.03 383.962,1314.03 386.815,1314.03 389.667,1314.03 395.075,1314.03 400.483,1314.03 403.335,1314.03 
  406.188,1314.03 411.595,1314.03 417.003,1314.03 419.856,1314.03 422.708,1314.03 428.116,1314.03 433.524,1314.03 436.376,1314.03 
  439.229,1314.03 444.636,1314.03 450.044,1314.03 452.897,1314.03 455.749,1314.03 461.157,1314.03 466.565,1314.03 469.417,1314.03 
  472.27,1314.03 477.678,1314.03 483.085,1314.03 485.938,1314.03 488.79,1314.03 494.198,1314.03 499.606,1314.03 502.458,1314.03 
  505.311,1314.03 510.719,1314.03 516.126,1314.03 518.979,1314.03 521.831,1314.03 527.239,1314.03 532.647,1314.03 535.499,1314.03 
  538.352,1314.03 543.76,1314.03 549.167,1314.03 552.02,1314.03 554.872,1314.03 560.28,1314.03 565.688,1314.03 568.54,1314.03 
  571.393,1314.03 576.801,1314.03 582.208,1314.03 585.061,1314.03 587.914,1314.03 593.321,1314.03 598.729,1314.03 601.581,1314.03 
  604.434,1314.03 609.842,1314.03 615.249,1314.03 618.102,1314.03 620.955,1314.03 626.362,1314.03 631.77,1314.03 634.622,1314.03 
  637.475,1314.03 642.883,1314.03 648.29,1314.03 651.143,1314.03 653.996,1314.03 659.403,1314.03 664.811,1314.03 667.663,1314.03 
  670.516,1314.03 675.924,1314.03 681.331,1314.03 684.184,1314.03 687.037,1314.03 692.444,160.821 697.852,160.821 700.704,160.821 
  703.557,160.821 708.965,160.821 714.372,160.821 717.225,160.821 720.078,160.821 725.485,160.821 730.893,160.821 733.745,160.821 
  736.598,160.821 742.006,160.821 747.413,160.821 750.266,160.821 753.119,160.821 758.526,160.821 763.934,160.821 766.787,160.821 
  769.639,160.821 775.047,160.821 780.454,160.821 783.307,160.821 786.16,160.821 791.567,160.821 796.975,160.821 799.828,160.821 
  802.68,160.821 808.088,160.821 813.495,160.821 816.348,160.821 819.201,160.821 824.608,160.821 830.016,160.821 832.869,160.821 
  835.721,160.821 841.129,160.821 846.536,160.821 849.389,160.821 852.242,160.821 857.649,160.821 863.057,160.821 865.91,160.821 
  868.762,160.821 874.17,160.821 879.577,160.821 882.43,160.821 885.283,160.821 890.69,160.821 896.098,160.821 898.951,160.821 
  901.803,160.821 907.211,160.821 912.618,160.821 915.471,160.821 918.324,160.821 923.731,160.821 929.139,160.821 931.992,160.821 
  934.844,160.821 940.252,160.821 945.66,160.821 948.512,160.821 951.365,160.821 956.772,160.821 962.18,160.821 965.033,160.821 
  967.885,160.821 973.293,160.821 978.701,160.821 981.553,160.821 984.406,160.821 989.813,160.821 995.221,1314.03 998.074,1314.03 
  1000.93,1314.03 1006.33,1314.03 1011.74,1314.03 1014.59,1314.03 1017.45,1314.03 1022.85,1314.03 1028.26,1314.03 1031.11,1314.03 
  1033.97,1314.03 1039.38,1314.03 1044.78,1314.03 1047.64,1314.03 1050.49,1314.03 1055.9,1314.03 1061.3,1314.03 1064.16,1314.03 
  1067.01,1314.03 1072.42,1314.03 1077.82,1314.03 1080.68,1314.03 1083.53,1314.03 1088.94,1314.03 1094.34,1314.03 1097.2,1314.03 
  1100.05,1314.03 1105.46,1314.03 1110.86,1314.03 1113.72,1314.03 1116.57,1314.03 1121.98,1314.03 1127.39,1314.03 1130.24,1314.03 
  1133.09,1314.03 1138.5,1314.03 1143.91,1314.03 1146.76,1314.03 1149.61,1314.03 1155.02,1314.03 1160.43,1314.03 1163.28,1314.03 
  1166.13,1314.03 1171.54,1314.03 1176.95,1314.03 1179.8,1314.03 1182.65,1314.03 1188.06,1314.03 1193.47,1314.03 1196.32,1314.03 
  1199.17,1314.03 1204.58,1314.03 1209.99,1314.03 1212.84,1314.03 1215.69,1314.03 1221.1,1314.03 1226.51,1314.03 1229.36,1314.03 
  1232.21,1314.03 1237.62,1314.03 1243.03,1314.03 1245.88,1314.03 1248.73,1314.03 1254.14,1314.03 1259.55,1314.03 1262.4,1314.03 
  1265.25,1314.03 1270.66,1314.03 1276.07,1314.03 1278.92,1314.03 1281.78,1314.03 1287.18,1314.03 1292.59,1314.03 1295.44,1314.03 
  1298.3,1314.03 1303.7,1314.03 1309.11,1314.03 1311.96,1314.03 1314.82,1314.03 1320.22,1314.03 1325.63,1314.03 1328.48,1314.03 
  1331.34,1314.03 1336.74,1314.03 1342.15,1314.03 1345,1314.03 1347.86,1314.03 1353.26,1314.03 1358.67,1314.03 1361.53,1314.03 
  1364.38,1314.03 1369.79,1314.03 1375.19,1314.03 1378.05,1314.03 1380.9,1314.03 1386.31,1314.03 1391.71,1314.03 1394.57,1314.03 
  1397.42,1314.03 1402.83,1314.03 1408.23,1314.03 1411.09,1314.03 1413.94,1314.03 1419.35,1314.03 1424.75,1314.03 1427.61,1314.03 
  1430.46,1314.03 1435.87,1314.03 1441.27,1314.03 1444.13,1314.03 1446.98,1314.03 1452.39,1314.03 1457.8,1314.03 1460.65,1314.03 
  1463.5,1314.03 1468.91,1314.03 1474.32,1314.03 1477.17,1314.03 1480.02,1314.03 1485.43,1314.03 1490.84,1314.03 1493.69,1314.03 
  1496.54,1314.03 1501.95,1314.03 1507.36,1314.03 1510.21,1314.03 1513.06,1314.03 1518.47,1314.03 1523.88,1314.03 1526.73,1314.03 
  1529.58,1314.03 1534.99,1314.03 1540.4,1314.03 1543.25,1314.03 1546.1,1314.03 1551.51,1314.03 1556.92,1314.03 1559.77,1314.03 
  1562.62,1314.03 1568.03,1314.03 1573.44,1314.03 1576.29,1314.03 1579.14,1314.03 1584.55,1314.03 1589.96,1314.03 1592.81,1314.03 
  1595.66,1314.03 1601.07,1314.03 1606.48,1314.03 1609.33,1314.03 1612.19,1314.03 1617.59,1314.03 1623,1314.03 1625.85,1314.03 
  1628.71,1314.03 1634.11,1314.03 1639.52,1314.03 1642.37,1314.03 1645.23,1314.03 1650.63,1314.03 1656.04,1314.03 1658.89,1314.03 
  1661.75,1314.03 1667.15,1314.03 1672.56,1314.03 1675.41,1314.03 1678.27,1314.03 1683.68,1314.03 1689.08,1314.03 1691.94,1314.03 
  1694.79,1314.03 1700.2,1314.03 1705.6,1314.03 1708.46,1314.03 1711.31,1314.03 1716.72,1314.03 1722.12,1314.03 1724.98,1314.03 
  1727.83,1314.03 1733.24,1314.03 1738.64,1314.03 1741.5,1314.03 1744.35,1314.03 1749.76,1314.03 1755.16,1314.03 1758.02,1314.03 
  1760.87,1314.03 1766.28,1314.03 1771.69,1314.03 1774.54,1314.03 1777.39,1314.03 1782.8,1314.03 1788.21,1314.03 1791.06,1314.03 
  1793.91,1314.03 1799.32,1314.03 1804.73,1314.03 1807.58,1314.03 1810.43,1314.03 1815.84,1314.03 1821.25,1314.03 1824.1,1314.03 
  1826.95,1314.03 1832.36,1314.03 1837.77,1314.03 1840.62,1314.03 1843.47,1314.03 1848.88,1314.03 1854.29,1314.03 1857.14,1314.03 
  1859.99,1314.03 1865.4,1314.03 1870.81,1314.03 1873.66,1314.03 1876.51,1314.03 1881.92,1314.03 1887.33,1314.03 1890.18,1314.03 
  1893.03,1314.03 1898.44,1314.03 1903.85,1314.03 1906.7,1314.03 1909.55,1314.03 1914.96,1314.03 1920.37,1314.03 1923.22,1314.03 
  1926.08,1314.03 1931.48,1314.03 1936.89,1314.03 1939.74,1314.03 1942.6,1314.03 1948,1314.03 1953.41,1314.03 1956.26,1314.03 
  1959.12,1314.03 1964.52,1314.03 1969.93,1314.03 1972.78,1314.03 1975.64,1314.03 1981.04,1314.03 1986.45,1314.03 1989.3,1314.03 
  1992.16,1314.03 1997.56,1314.03 2002.97,1314.03 2005.83,1314.03 2008.68,1314.03 2014.09,1314.03 2019.49,1314.03 2022.35,1314.03 
  2025.2,1314.03 2030.61,1314.03 2036.01,1314.03 2038.87,1314.03 2041.72,1314.03 2047.13,1314.03 2052.53,1314.03 2055.39,1314.03 
  2058.24,1314.03 2063.65,1314.03 2069.05,1314.03 2071.91,1314.03 2074.76,1314.03 2080.17,1314.03 2085.58,1314.03 2088.43,1314.03 
  2091.28,1314.03 2096.69,1314.03 2102.1,1314.03 2104.95,1314.03 2107.8,1314.03 2113.21,1314.03 2118.62,1314.03 2121.47,1314.03 
  2124.32,1314.03 2129.73,1314.03 2135.14,1314.03 2137.99,1314.03 2140.84,1314.03 2146.25,1314.03 2151.66,1314.03 2154.51,1314.03 
  2157.36,1314.03 2162.77,1314.03 2168.18,1314.03 2171.03,1314.03 2173.88,1314.03 2179.29,1314.03 2184.7,1314.03 2187.55,1314.03 
  2190.4,1314.03 2195.81,1314.03 2201.22,1314.03 2204.07,1314.03 2206.92,1314.03 2212.33,1314.03 2217.74,1314.03 2220.59,1314.03 
  2223.44,1314.03 2228.85,1314.03 2234.26,1314.03 2237.11,1314.03 2239.96,1314.03 2245.37,1314.03 2250.78,1314.03 2253.63,1314.03 
  2256.49,1314.03 2261.89,1314.03 2267.3,1314.03 2270.15,1314.03 2273.01,1314.03 2278.41,1314.03 2283.82,1314.03 2286.67,1314.03 
  2289.53,1314.03 2294.93,1314.03 2300.34,1314.03 2303.19,1314.03 2306.05,1314.03 2311.45,1314.03 2316.86,1314.03 2319.71,1314.03 
  2322.57,1314.03 2327.98,1314.03 2333.38,1314.03 2336.24,1314.03 2339.09,1314.03 2344.5,1314.03 2349.9,1314.03 2352.76,1314.03 
  
  "/>
<polyline clip-path="url(#clip402)" style="stroke:#e26f46; stroke-width:4; stroke-opacity:1; fill:none" points="
  238.13,1314.03 240.983,1314.03 246.39,1314.03 251.798,1314.03 254.651,1314.03 257.503,1314.03 262.911,1314.03 268.318,1314.03 271.171,1314.03 
  274.024,1314.03 279.431,1314.03 284.839,1314.03 287.692,1314.03 290.544,1314.03 295.952,1314.03 301.359,1314.03 304.212,1314.03 
  307.065,1314.03 312.472,1314.03 317.88,1314.03 320.733,1314.03 323.585,1314.03 328.993,1314.03 334.4,1314.03 337.253,1314.03 
  340.106,1314.03 345.513,1314.03 350.921,1314.03 353.774,1314.03 356.626,1314.03 362.034,1314.03 367.442,1314.03 370.294,1314.03 
  373.147,1314.03 378.554,1314.03 383.962,1314.03 386.815,1314.03 389.667,1314.03 395.075,1314.03 400.483,1314.03 403.335,1314.03 
  406.188,1314.03 411.595,1314.03 417.003,1314.03 419.856,1314.03 422.708,1314.03 428.116,1314.03 433.524,1314.03 436.376,1314.03 
  439.229,1314.03 444.636,1314.03 450.044,1314.03 452.897,1314.03 455.749,1314.03 461.157,1314.03 466.565,1314.03 469.417,1314.03 
  472.27,1314.03 477.678,1314.03 483.085,1314.03 485.938,1314.03 488.79,1314.03 494.198,1314.03 499.606,1314.03 502.458,1314.03 
  505.311,1314.03 510.719,1314.03 516.126,1314.03 518.979,1314.03 521.831,1314.03 527.239,1314.03 532.647,1314.03 535.499,1314.03 
  538.352,1314.03 543.76,1314.03 549.167,1314.03 552.02,1314.03 554.872,1314.03 560.28,1314.03 565.688,1314.03 568.54,1314.03 
  571.393,1314.03 576.801,1314.03 582.208,1314.03 585.061,1314.03 587.914,1314.03 593.321,1314.03 598.729,1314.03 601.581,1314.03 
  604.434,1314.03 609.842,1314.03 615.249,1314.03 618.102,1314.03 620.955,1314.03 626.362,1314.03 631.77,1314.03 634.622,1314.03 
  637.475,1314.03 642.883,1314.03 648.29,1314.03 651.143,1314.03 653.996,1314.03 659.403,1314.03 664.811,1314.03 667.663,1314.03 
  670.516,1314.03 675.924,1314.03 681.331,1314.03 684.184,1314.03 687.037,1314.03 692.444,1314.03 697.852,1314.03 700.704,1314.03 
  703.557,1314.03 708.965,1314.03 714.372,1314.03 717.225,1314.03 720.078,1314.03 725.485,1314.03 730.893,1314.03 733.745,1314.03 
  736.598,1314.03 742.006,1314.03 747.413,1314.03 750.266,1314.03 753.119,1314.03 758.526,1314.03 763.934,1314.03 766.787,1314.03 
  769.639,1314.03 775.047,1314.03 780.454,1314.03 783.307,1314.03 783.307,1314.03 786.16,1314.03 791.567,1314.03 796.975,1314.03 799.828,1314.03 
  799.828,1314.03 802.68,1314.03 808.088,1314.03 813.495,1314.03 816.348,1314.03 816.348,1314.03 819.201,1314.03 824.608,1314.03 830.016,1314.03 832.869,1314.03 
  832.869,1314.03 835.721,1314.03 841.129,1314.03 846.536,1314.03 849.389,1314.03 849.389,1314.03 852.242,1314.03 857.649,1314.03 863.057,1314.03 865.91,1314.03 
  865.91,1314.03 868.762,1314.03 874.17,1314.03 879.577,1314.03 882.43,1314.03 882.43,1314.03 885.283,1314.03 890.69,1314.03 896.098,1314.03 898.951,1314.03 
  898.951,1314.03 901.803,1314.03 907.211,1314.03 912.618,1314.03 915.471,1314.03 915.471,1314.03 918.324,1314.03 923.731,1314.03 929.139,1314.03 931.992,1314.03 
  931.992,1314.03 934.844,1314.03 940.252,1314.03 945.66,1314.03 948.512,1314.03 948.512,1314.03 951.365,1314.03 956.772,1314.03 962.18,1314.03 965.033,1314.03 
  965.033,1314.03 967.885,1314.03 973.293,1314.03 978.701,1314.03 981.553,1314.03 981.553,1314.03 984.406,1314.03 989.813,1314.03 995.221,1314.03 998.074,1314.03 
  998.074,1314.03 1000.93,1314.03 1006.33,1314.03 1011.74,1314.03 1014.59,1314.03 1014.59,1314.03 1017.45,1314.03 1022.85,1314.03 1028.26,1314.03 1031.11,1314.03 
  1031.11,1314.03 1033.97,1314.03 1039.38,1314.03 1044.78,1314.03 1047.64,1314.03 1047.64,1314.03 1050.49,1314.03 1055.9,1314.03 1061.3,1314.03 1064.16,1314.03 
  1064.16,1314.03 1067.01,1314.03 1072.42,1314.03 1077.82,1314.03 1080.68,1314.03 1080.68,1314.03 1083.53,1314.03 1088.94,1314.03 1094.34,1314.03 1097.2,1314.03 
  1097.2,1314.03 1100.05,1314.03 1105.46,1314.03 1110.86,1314.03 1113.72,1314.03 1113.72,1314.03 1116.57,1314.03 1121.98,1314.02 1127.39,1314.02 1130.24,1314.02 
  1130.24,1314.02 1133.09,1314.02 1138.5,1314.03 1143.91,1314.05 1146.76,1314.06 1146.76,1314.06 1149.61,1314.07 1155.02,1314.06 1160.43,1314.02 1163.28,1313.99 
  1163.28,1314 1166.13,1313.93 1171.54,1313.85 1176.95,1313.84 1179.8,1313.86 1179.8,1313.83 1182.65,1313.96 1188.06,1314.28 1193.47,1314.69 1196.32,1314.94 
  1196.32,1314.89 1199.17,1315.1 1204.58,1314.94 1209.99,1314.01 1212.84,1313.21 1212.84,1313.47 1215.69,1311.95 1221.1,1309.47 1226.51,1307.59 1229.36,1306.88 
  1229.36,1306.94 1232.21,1307.52 1237.62,1312.42 1243.03,1322.33 1245.88,1329.58 1245.88,1328.09 1248.73,1339.03 1254.14,1356.22 1259.55,1368.28 1262.4,1372.37 
  1262.4,1371.56 1265.25,1369.54 1270.66,1342.01 1276.07,1283.3 1278.92,1239.71 1278.92,1243.24 1281.78,1181.13 1287.18,1043.03 1292.59,879.55 1295.44,783.601 
  1295.44,787.48 1298.3,686.454 1303.7,509.679 1309.11,353.11 1311.96,279.026 1311.96,277.337 1314.82,220.745 1320.22,141.666 1325.63,98.5433 1328.48,89.8927 
  1328.48,86.1857 1331.34,90.0236 1336.74,103.878 1342.15,125.36 1345,139.368 1345,138.746 1347.86,149.809 1353.26,164.932 1358.67,172.562 1361.53,173.636 
  1361.53,174.381 1364.38,172.662 1369.79,168.702 1375.19,164.045 1378.05,161.396 1378.05,161.401 1380.9,159.916 1386.31,158.325 1391.71,158.251 1394.57,158.789 
  1394.57,158.667 1397.42,159.39 1402.83,160.493 1408.23,161.23 1411.09,161.466 1411.09,161.505 1413.94,161.464 1419.35,161.294 1424.75,161.022 1427.61,160.846 
  1427.61,160.848 1430.46,160.76 1435.87,160.671 1441.27,160.675 1444.13,160.713 1444.13,160.71 1446.98,160.743 1452.39,160.792 1457.8,160.827 1460.65,160.84 
  1460.65,160.834 1463.5,160.862 1468.91,160.92 1474.32,160.984 1477.17,161.02 1477.17,161.015 1480.02,161.019 1485.43,160.901 1490.84,160.616 1493.69,160.397 
  1493.69,160.469 1496.54,160.13 1501.95,159.786 1507.36,159.862 1510.21,160.084 1510.21,159.968 1513.06,160.751 1518.47,162.655 1523.88,165.07 1526.73,166.536 
  1526.73,166.231 1529.58,167.616 1534.99,167.365 1540.4,163.24 1543.25,159.461 1543.25,160.379 1546.1,152.972 1551.51,137.599 1556.92,120.804 1559.77,111.503 
  1559.77,113.115 1562.62,104.73 1568.03,105.755 1573.44,129.385 1576.29,151.142 1576.29,149.197 1579.14,186.947 1584.55,285.055 1589.96,417.089 1592.81,500.073 
  1592.81,495.38 1595.66,591.514 1601.07,772.159 1606.48,949.358 1609.33,1040.89 1609.33,1040.48 1612.19,1120.47 1617.59,1243.31 1623,1328.85 1625.85,1359.1 
  1625.85,1362.94 1628.71,1375.66 1634.11,1384.24 1639.52,1373.75 1642.37,1361.04 1642.37,1362.87 1645.23,1348.96 1650.63,1326.95 1656.04,1310.83 1658.89,1304.76 
  1658.89,1304.1 1661.75,1302.4 1667.15,1302.16 1672.56,1305.5 1675.41,1308.57 1675.41,1308.29 1678.27,1310.96 1683.68,1314.63 1689.08,1316.53 1691.94,1316.82 
  1691.94,1316.99 1694.79,1316.53 1700.2,1315.55 1705.6,1314.46 1708.46,1313.87 1708.46,1313.86 1711.31,1313.61 1716.72,1313.4 1722.12,1313.51 1724.98,1313.7 
  1724.98,1313.68 1727.83,1313.85 1733.24,1314.08 1738.64,1314.19 1741.5,1314.2 1741.5,1314.21 1744.35,1314.16 1749.76,1314.09 1755.16,1314.02 1758.02,1313.99 
  1758.02,1313.99 1760.87,1313.99 1766.28,1313.99 1771.69,1314.01 1774.54,1314.02 1774.54,1314.02 1777.39,1314.03 1782.8,1314.04 1788.21,1314.04 1791.06,1314.03 
  1791.06,1314.03 1793.91,1314.03 1799.32,1314.03 1804.73,1314.02 1807.58,1314.02 1807.58,1314.02 1810.43,1314.03 1815.84,1314.03 1821.25,1314.03 1824.1,1314.03 
  1824.1,1314.03 1826.95,1314.03 1832.36,1314.03 1837.77,1314.03 1840.62,1314.03 1840.62,1314.03 1843.47,1314.03 1848.88,1314.03 1854.29,1314.03 1857.14,1314.03 
  1857.14,1314.03 1859.99,1314.03 1865.4,1314.03 1870.81,1314.03 1873.66,1314.03 1873.66,1314.03 1876.51,1314.03 1881.92,1314.03 1887.33,1314.03 1890.18,1314.03 
  1890.18,1314.03 1893.03,1314.03 1898.44,1314.03 1903.85,1314.03 1906.7,1314.03 1906.7,1314.03 1909.55,1314.03 1914.96,1314.03 1920.37,1314.03 1923.22,1314.03 
  1923.22,1314.03 1926.08,1314.03 1931.48,1314.03 1936.89,1314.03 1939.74,1314.03 1939.74,1314.03 1942.6,1314.03 1948,1314.03 1953.41,1314.03 1956.26,1314.03 
  1956.26,1314.03 1959.12,1314.03 1964.52,1314.03 1969.93,1314.03 1972.78,1314.03 1972.78,1314.03 1975.64,1314.03 1981.04,1314.03 1986.45,1314.03 1989.3,1314.03 
  1989.3,1314.03 1992.16,1314.03 1997.56,1314.03 2002.97,1314.03 2005.83,1314.03 2005.83,1314.03 2008.68,1314.03 2014.09,1314.03 2019.49,1314.03 2022.35,1314.03 
  2022.35,1314.03 2025.2,1314.03 2030.61,1314.03 2036.01,1314.03 2038.87,1314.03 2038.87,1314.03 2041.72,1314.03 2047.13,1314.03 2052.53,1314.03 2055.39,1314.03 
  2055.39,1314.03 2058.24,1314.03 2063.65,1314.03 2069.05,1314.03 2071.91,1314.03 2071.91,1314.03 2074.76,1314.03 2080.17,1314.03 2085.58,1314.03 2088.43,1314.03 
  2088.43,1314.03 2091.28,1314.03 2096.69,1314.03 2102.1,1314.03 2104.95,1314.03 2104.95,1314.03 2107.8,1314.03 2113.21,1314.03 2118.62,1314.03 2121.47,1314.03 
  2124.32,1314.03 2129.73,1314.03 2135.14,1314.03 2137.99,1314.03 2137.99,1314.03 2140.84,1314.03 2146.25,1314.03 2151.66,1314.03 2154.51,1314.03 
  2157.36,1314.03 2162.77,1314.03 2168.18,1314.03 2171.03,1314.03 2173.88,1314.03 2179.29,1314.03 2184.7,1314.03 2187.55,1314.03 
  2190.4,1314.03 2195.81,1314.03 2201.22,1314.03 2204.07,1314.03 2206.92,1314.03 2212.33,1314.03 2217.74,1314.03 2220.59,1314.03 
  2223.44,1314.03 2228.85,1314.03 2234.26,1314.03 2237.11,1314.03 2239.96,1314.03 2245.37,1314.03 2250.78,1314.03 2253.63,1314.03 
  2256.49,1314.03 2261.89,1314.03 2267.3,1314.03 2270.15,1314.03 2273.01,1314.03 2278.41,1314.03 2283.82,1314.03 2286.67,1314.03 
  2289.53,1314.03 2294.93,1314.03 2300.34,1314.03 2303.19,1314.03 2306.05,1314.03 2311.45,1314.03 2316.86,1314.03 2319.71,1314.03 
  2322.57,1314.03 2327.98,1314.03 2333.38,1314.03 2336.24,1314.03 2339.09,1314.03 2344.5,1314.03 2349.9,1314.03 2352.76,1314.03 
  
  "/>
<path clip-path="url(#clip400)" d="
M1786.57 274.549 L2282.27 274.549 L2282.27 93.1086 L1786.57 93.1086  Z
  " fill="#ffffff" fill-rule="evenodd" fill-opacity="1"/>
<polyline clip-path="url(#clip400)" style="stroke:#000000; stroke-width:4; stroke-opacity:1; fill:none" points="
  1786.57,274.549 2282.27,274.549 2282.27,93.1086 1786.57,93.1086 1786.57,274.549 
  "/>
<polyline clip-path="url(#clip400)" style="stroke:#009af9; stroke-width:4; stroke-opacity:1; fill:none" points="
  1810.07,153.589 1951.04,153.589 
  "/>
<path clip-path="url(#clip400)" d="M 0 0 M1981.94 137.582 L1981.94 144.943 L1990.72 144.943 L1990.72 148.253 L1981.94 148.253 L1981.94 162.327 Q1981.94 165.498 1982.8 166.401 Q1983.68 167.304 1986.34 167.304 L1990.72 167.304 L1990.72 170.869 L1986.34 170.869 Q1981.41 170.869 1979.54 169.04 Q1977.66 167.188 1977.66 162.327 L1977.66 148.253 L1974.54 148.253 L1974.54 144.943 L1977.66 144.943 L1977.66 137.582 L1981.94 137.582 Z" fill="#000000" fill-rule="evenodd" fill-opacity="1" /><path clip-path="url(#clip400)" d="M 0 0 M1995.74 149.341 L2025.42 149.341 L2025.42 153.23 L1995.74 153.23 L1995.74 149.341 M1995.74 158.785 L2025.42 158.785 L2025.42 162.721 L1995.74 162.721 L1995.74 158.785 Z" fill="#000000" fill-rule="evenodd" fill-opacity="1" /><path clip-path="url(#clip400)" d="M 0 0 M2040.49 139.387 Q2036.87 139.387 2035.05 142.952 Q2033.24 146.494 2033.24 153.623 Q2033.24 160.73 2035.05 164.295 Q2036.87 167.836 2040.49 167.836 Q2044.12 167.836 2045.93 164.295 Q2047.75 160.73 2047.75 153.623 Q2047.75 146.494 2045.93 142.952 Q2044.12 139.387 2040.49 139.387 M2040.49 135.684 Q2046.3 135.684 2049.35 140.29 Q2052.43 144.873 2052.43 153.623 Q2052.43 162.35 2049.35 166.957 Q2046.3 171.54 2040.49 171.54 Q2034.68 171.54 2031.6 166.957 Q2028.54 162.35 2028.54 153.623 Q2028.54 144.873 2031.6 140.29 Q2034.68 135.684 2040.49 135.684 Z" fill="#000000" fill-rule="evenodd" fill-opacity="1" /><path clip-path="url(#clip400)" d="M 0 0 M2057.5 164.989 L2062.38 164.989 L2062.38 170.869 L2057.5 170.869 L2057.5 164.989 Z" fill="#000000" fill-rule="evenodd" fill-opacity="1" /><path clip-path="url(#clip400)" d="M 0 0 M2077.45 139.387 Q2073.84 139.387 2072.01 142.952 Q2070.21 146.494 2070.21 153.623 Q2070.21 160.73 2072.01 164.295 Q2073.84 167.836 2077.45 167.836 Q2081.09 167.836 2082.89 164.295 Q2084.72 160.73 2084.72 153.623 Q2084.72 146.494 2082.89 142.952 Q2081.09 139.387 2077.45 139.387 M2077.45 135.684 Q2083.26 135.684 2086.32 140.29 Q2089.4 144.873 2089.4 153.623 Q2089.4 162.35 2086.32 166.957 Q2083.26 171.54 2077.45 171.54 Q2071.64 171.54 2068.56 166.957 Q2065.51 162.35 2065.51 153.623 Q2065.51 144.873 2068.56 140.29 Q2071.64 135.684 2077.45 135.684 Z" fill="#000000" fill-rule="evenodd" fill-opacity="1" /><path clip-path="url(#clip400)" d="M 0 0 M2108.54 134.85 L2118.36 134.85 L2118.36 138.16 L2112.8 138.16 L2112.8 173.808 L2118.36 173.808 L2118.36 177.119 L2108.54 177.119 L2108.54 134.85 Z" fill="#000000" fill-rule="evenodd" fill-opacity="1" /><path clip-path="url(#clip400)" d="M 0 0 M2139.35 145.707 L2139.35 149.734 Q2137.55 148.809 2135.6 148.346 Q2133.66 147.883 2131.57 147.883 Q2128.4 147.883 2126.81 148.855 Q2125.23 149.827 2125.23 151.771 Q2125.23 153.253 2126.37 154.109 Q2127.5 154.943 2130.93 155.707 L2132.38 156.031 Q2136.92 157.003 2138.82 158.785 Q2140.74 160.545 2140.74 163.716 Q2140.74 167.327 2137.87 169.433 Q2135.02 171.54 2130.02 171.54 Q2127.94 171.54 2125.67 171.123 Q2123.43 170.73 2120.93 169.92 L2120.93 165.521 Q2123.29 166.748 2125.58 167.373 Q2127.87 167.975 2130.12 167.975 Q2133.12 167.975 2134.74 166.957 Q2136.37 165.915 2136.37 164.04 Q2136.37 162.304 2135.18 161.378 Q2134.03 160.452 2130.07 159.596 L2128.59 159.248 Q2124.63 158.415 2122.87 156.702 Q2121.11 154.966 2121.11 151.957 Q2121.11 148.299 2123.7 146.309 Q2126.3 144.318 2131.06 144.318 Q2133.43 144.318 2135.51 144.665 Q2137.59 145.012 2139.35 145.707 Z" fill="#000000" fill-rule="evenodd" fill-opacity="1" /><path clip-path="url(#clip400)" d="M 0 0 M2155.16 134.85 L2155.16 177.119 L2145.35 177.119 L2145.35 173.808 L2150.88 173.808 L2150.88 138.16 L2145.35 138.16 L2145.35 134.85 L2155.16 134.85 Z" fill="#000000" fill-rule="evenodd" fill-opacity="1" /><polyline clip-path="url(#clip400)" style="stroke:#e26f46; stroke-width:4; stroke-opacity:1; fill:none" points="
  1810.07,214.069 1951.04,214.069 
  "/>
<path clip-path="url(#clip400)" d="M 0 0 M1981.94 198.062 L1981.94 205.423 L1990.72 205.423 L1990.72 208.733 L1981.94 208.733 L1981.94 222.807 Q1981.94 225.978 1982.8 226.881 Q1983.68 227.784 1986.34 227.784 L1990.72 227.784 L1990.72 231.349 L1986.34 231.349 Q1981.41 231.349 1979.54 229.52 Q1977.66 227.668 1977.66 222.807 L1977.66 208.733 L1974.54 208.733 L1974.54 205.423 L1977.66 205.423 L1977.66 198.062 L1981.94 198.062 Z" fill="#000000" fill-rule="evenodd" fill-opacity="1" /><path clip-path="url(#clip400)" d="M 0 0 M1995.74 209.821 L2025.42 209.821 L2025.42 213.71 L1995.74 213.71 L1995.74 209.821 M1995.74 219.265 L2025.42 219.265 L2025.42 223.201 L1995.74 223.201 L1995.74 219.265 Z" fill="#000000" fill-rule="evenodd" fill-opacity="1" /><path clip-path="url(#clip400)" d="M 0 0 M2043.33 200.863 L2031.53 219.312 L2043.33 219.312 L2043.33 200.863 M2042.11 196.789 L2047.99 196.789 L2047.99 219.312 L2052.92 219.312 L2052.92 223.201 L2047.99 223.201 L2047.99 231.349 L2043.33 231.349 L2043.33 223.201 L2027.73 223.201 L2027.73 218.687 L2042.11 196.789 Z" fill="#000000" fill-rule="evenodd" fill-opacity="1" /><path clip-path="url(#clip400)" d="M 0 0 M2058.03 196.789 L2076.39 196.789 L2076.39 200.724 L2062.31 200.724 L2062.31 209.196 Q2063.33 208.849 2064.35 208.687 Q2065.37 208.502 2066.39 208.502 Q2072.18 208.502 2075.56 211.673 Q2078.93 214.844 2078.93 220.261 Q2078.93 225.839 2075.46 228.941 Q2071.99 232.02 2065.67 232.02 Q2063.5 232.02 2061.23 231.65 Q2058.98 231.279 2056.57 230.538 L2056.57 225.839 Q2058.66 226.974 2060.88 227.529 Q2063.1 228.085 2065.58 228.085 Q2069.58 228.085 2071.92 225.978 Q2074.26 223.872 2074.26 220.261 Q2074.26 216.65 2071.92 214.543 Q2069.58 212.437 2065.58 212.437 Q2063.7 212.437 2061.83 212.853 Q2059.98 213.27 2058.03 214.15 L2058.03 196.789 Z" fill="#000000" fill-rule="evenodd" fill-opacity="1" /><path clip-path="url(#clip400)" d="M 0 0 M2094 199.867 Q2090.39 199.867 2088.56 203.432 Q2086.76 206.974 2086.76 214.103 Q2086.76 221.21 2088.56 224.775 Q2090.39 228.316 2094 228.316 Q2097.64 228.316 2099.44 224.775 Q2101.27 221.21 2101.27 214.103 Q2101.27 206.974 2099.44 203.432 Q2097.64 199.867 2094 199.867 M2094 196.164 Q2099.81 196.164 2102.87 200.77 Q2105.95 205.353 2105.95 214.103 Q2105.95 222.83 2102.87 227.437 Q2099.81 232.02 2094 232.02 Q2088.19 232.02 2085.12 227.437 Q2082.06 222.83 2082.06 214.103 Q2082.06 205.353 2085.12 200.77 Q2088.19 196.164 2094 196.164 Z" fill="#000000" fill-rule="evenodd" fill-opacity="1" /><path clip-path="url(#clip400)" d="M 0 0 M2111.02 225.469 L2115.9 225.469 L2115.9 231.349 L2111.02 231.349 L2111.02 225.469 Z" fill="#000000" fill-rule="evenodd" fill-opacity="1" /><path clip-path="url(#clip400)" d="M 0 0 M2133.82 200.863 L2122.01 219.312 L2133.82 219.312 L2133.82 200.863 M2132.59 196.789 L2138.47 196.789 L2138.47 219.312 L2143.4 219.312 L2143.4 223.201 L2138.47 223.201 L2138.47 231.349 L2133.82 231.349 L2133.82 223.201 L2118.22 223.201 L2118.22 218.687 L2132.59 196.789 Z" fill="#000000" fill-rule="evenodd" fill-opacity="1" /><path clip-path="url(#clip400)" d="M 0 0 M2147.29 196.789 L2169.51 196.789 L2169.51 198.779 L2156.97 231.349 L2152.08 231.349 L2163.89 200.724 L2147.29 200.724 L2147.29 196.789 Z" fill="#000000" fill-rule="evenodd" fill-opacity="1" /><path clip-path="url(#clip400)" d="M 0 0 M2188.66 195.33 L2198.47 195.33 L2198.47 198.64 L2192.92 198.64 L2192.92 234.288 L2198.47 234.288 L2198.47 237.599 L2188.66 237.599 L2188.66 195.33 Z" fill="#000000" fill-rule="evenodd" fill-opacity="1" /><path clip-path="url(#clip400)" d="M 0 0 M2219.47 206.187 L2219.47 210.214 Q2217.66 209.289 2215.72 208.826 Q2213.77 208.363 2211.69 208.363 Q2208.52 208.363 2206.92 209.335 Q2205.35 210.307 2205.35 212.251 Q2205.35 213.733 2206.48 214.589 Q2207.61 215.423 2211.04 216.187 L2212.5 216.511 Q2217.04 217.483 2218.93 219.265 Q2220.86 221.025 2220.86 224.196 Q2220.86 227.807 2217.99 229.913 Q2215.14 232.02 2210.14 232.02 Q2208.05 232.02 2205.79 231.603 Q2203.54 231.21 2201.04 230.4 L2201.04 226.001 Q2203.4 227.228 2205.69 227.853 Q2207.99 228.455 2210.23 228.455 Q2213.24 228.455 2214.86 227.437 Q2216.48 226.395 2216.48 224.52 Q2216.48 222.784 2215.3 221.858 Q2214.14 220.932 2210.18 220.076 L2208.7 219.728 Q2204.74 218.895 2202.99 217.182 Q2201.23 215.446 2201.23 212.437 Q2201.23 208.779 2203.82 206.789 Q2206.41 204.798 2211.18 204.798 Q2213.54 204.798 2215.62 205.145 Q2217.71 205.492 2219.47 206.187 Z" fill="#000000" fill-rule="evenodd" fill-opacity="1" /><path clip-path="url(#clip400)" d="M 0 0 M2235.28 195.33 L2235.28 237.599 L2225.46 237.599 L2225.46 234.288 L2230.99 234.288 L2230.99 198.64 L2225.46 198.64 L2225.46 195.33 L2235.28 195.33 Z" fill="#000000" fill-rule="evenodd" fill-opacity="1" /></svg>
