<?xml version="1.0" encoding="utf-8"?>
<svg xmlns="http://www.w3.org/2000/svg" xmlns:xlink="http://www.w3.org/1999/xlink" width="600" height="400" viewBox="0 0 2400 1600">
<defs>
  <clipPath id="clip100">
    <rect x="0" y="0" width="2400" height="1600"/>
  </clipPath>
</defs>
<path clip-path="url(#clip100)" d="
M0 1600 L2400 1600 L2400 0 L0 0  Z
  " fill="#ffffff" fill-rule="evenodd" fill-opacity="1"/>
<defs>
  <clipPath id="clip101">
    <rect x="480" y="0" width="1681" height="1600"/>
  </clipPath>
</defs>
<path clip-path="url(#clip100)" d="
M238.13 1423.18 L2352.76 1423.18 L2352.76 47.2441 L238.13 47.2441  Z
  " fill="#ffffff" fill-rule="evenodd" fill-opacity="1"/>
<defs>
  <clipPath id="clip102">
    <rect x="238" y="47" width="2116" height="1377"/>
  </clipPath>
</defs>
<polyline clip-path="url(#clip102)" style="stroke:#000000; stroke-width:2; stroke-opacity:0.1; fill:none" points="
  238.13,1423.18 238.13,47.2441 
  "/>
<polyline clip-path="url(#clip102)" style="stroke:#000000; stroke-width:2; stroke-opacity:0.1; fill:none" points="
  540.219,1423.18 540.219,47.2441 
  "/>
<polyline clip-path="url(#clip102)" style="stroke:#000000; stroke-width:2; stroke-opacity:0.1; fill:none" points="
  842.309,1423.18 842.309,47.2441 
  "/>
<polyline clip-path="url(#clip102)" style="stroke:#000000; stroke-width:2; stroke-opacity:0.1; fill:none" points="
  1144.4,1423.18 1144.4,47.2441 
  "/>
<polyline clip-path="url(#clip102)" style="stroke:#000000; stroke-width:2; stroke-opacity:0.1; fill:none" points="
  1446.49,1423.18 1446.49,47.2441 
  "/>
<polyline clip-path="url(#clip102)" style="stroke:#000000; stroke-width:2; stroke-opacity:0.1; fill:none" points="
  1748.58,1423.18 1748.58,47.2441 
  "/>
<polyline clip-path="url(#clip102)" style="stroke:#000000; stroke-width:2; stroke-opacity:0.1; fill:none" points="
  2050.67,1423.18 2050.67,47.2441 
  "/>
<polyline clip-path="url(#clip102)" style="stroke:#000000; stroke-width:2; stroke-opacity:0.1; fill:none" points="
  2352.76,1423.18 2352.76,47.2441 
  "/>
<polyline clip-path="url(#clip100)" style="stroke:#000000; stroke-width:4; stroke-opacity:1; fill:none" points="
  238.13,1423.18 2352.76,1423.18 
  "/>
<polyline clip-path="url(#clip100)" style="stroke:#000000; stroke-width:4; stroke-opacity:1; fill:none" points="
  238.13,1423.18 238.13,1406.67 
  "/>
<polyline clip-path="url(#clip100)" style="stroke:#000000; stroke-width:4; stroke-opacity:1; fill:none" points="
  540.219,1423.18 540.219,1406.67 
  "/>
<polyline clip-path="url(#clip100)" style="stroke:#000000; stroke-width:4; stroke-opacity:1; fill:none" points="
  842.309,1423.18 842.309,1406.67 
  "/>
<polyline clip-path="url(#clip100)" style="stroke:#000000; stroke-width:4; stroke-opacity:1; fill:none" points="
  1144.4,1423.18 1144.4,1406.67 
  "/>
<polyline clip-path="url(#clip100)" style="stroke:#000000; stroke-width:4; stroke-opacity:1; fill:none" points="
  1446.49,1423.18 1446.49,1406.67 
  "/>
<polyline clip-path="url(#clip100)" style="stroke:#000000; stroke-width:4; stroke-opacity:1; fill:none" points="
  1748.58,1423.18 1748.58,1406.67 
  "/>
<polyline clip-path="url(#clip100)" style="stroke:#000000; stroke-width:4; stroke-opacity:1; fill:none" points="
  2050.67,1423.18 2050.67,1406.67 
  "/>
<polyline clip-path="url(#clip100)" style="stroke:#000000; stroke-width:4; stroke-opacity:1; fill:none" points="
  2352.76,1423.18 2352.76,1406.67 
  "/>
<path clip-path="url(#clip100)" d="M 0 0 M238.13 1452.37 Q234.519 1452.37 232.69 1455.94 Q230.885 1459.48 230.885 1466.61 Q230.885 1473.71 232.69 1477.28 Q234.519 1480.82 238.13 1480.82 Q241.764 1480.82 243.57 1477.28 Q245.399 1473.71 245.399 1466.61 Q245.399 1459.48 243.57 1455.94 Q241.764 1452.37 238.13 1452.37 M238.13 1448.67 Q243.94 1448.67 246.996 1453.27 Q250.074 1457.86 250.074 1466.61 Q250.074 1475.33 246.996 1479.94 Q243.94 1484.52 238.13 1484.52 Q232.32 1484.52 229.241 1479.94 Q226.186 1475.33 226.186 1466.61 Q226.186 1457.86 229.241 1453.27 Q232.32 1448.67 238.13 1448.67 Z" fill="#000000" fill-rule="evenodd" fill-opacity="1" /><path clip-path="url(#clip100)" d="M 0 0 M516.99 1449.29 L535.347 1449.29 L535.347 1453.23 L521.273 1453.23 L521.273 1461.7 Q522.291 1461.35 523.31 1461.19 Q524.328 1461 525.347 1461 Q531.134 1461 534.513 1464.18 Q537.893 1467.35 537.893 1472.76 Q537.893 1478.34 534.421 1481.44 Q530.949 1484.52 524.629 1484.52 Q522.453 1484.52 520.185 1484.15 Q517.939 1483.78 515.532 1483.04 L515.532 1478.34 Q517.615 1479.48 519.838 1480.03 Q522.06 1480.59 524.537 1480.59 Q528.541 1480.59 530.879 1478.48 Q533.217 1476.38 533.217 1472.76 Q533.217 1469.15 530.879 1467.05 Q528.541 1464.94 524.537 1464.94 Q522.662 1464.94 520.787 1465.36 Q518.935 1465.77 516.99 1466.65 L516.99 1449.29 Z" fill="#000000" fill-rule="evenodd" fill-opacity="1" /><path clip-path="url(#clip100)" d="M 0 0 M552.962 1452.37 Q549.351 1452.37 547.523 1455.94 Q545.717 1459.48 545.717 1466.61 Q545.717 1473.71 547.523 1477.28 Q549.351 1480.82 552.962 1480.82 Q556.597 1480.82 558.402 1477.28 Q560.231 1473.71 560.231 1466.61 Q560.231 1459.48 558.402 1455.94 Q556.597 1452.37 552.962 1452.37 M552.962 1448.67 Q558.773 1448.67 561.828 1453.27 Q564.907 1457.86 564.907 1466.61 Q564.907 1475.33 561.828 1479.94 Q558.773 1484.52 552.962 1484.52 Q547.152 1484.52 544.074 1479.94 Q541.018 1475.33 541.018 1466.61 Q541.018 1457.86 544.074 1453.27 Q547.152 1448.67 552.962 1448.67 Z" fill="#000000" fill-rule="evenodd" fill-opacity="1" /><path clip-path="url(#clip100)" d="M 0 0 M805.677 1479.92 L813.316 1479.92 L813.316 1453.55 L805.006 1455.22 L805.006 1450.96 L813.27 1449.29 L817.946 1449.29 L817.946 1479.92 L825.584 1479.92 L825.584 1483.85 L805.677 1483.85 L805.677 1479.92 Z" fill="#000000" fill-rule="evenodd" fill-opacity="1" /><path clip-path="url(#clip100)" d="M 0 0 M840.654 1452.37 Q837.043 1452.37 835.214 1455.94 Q833.408 1459.48 833.408 1466.61 Q833.408 1473.71 835.214 1477.28 Q837.043 1480.82 840.654 1480.82 Q844.288 1480.82 846.094 1477.28 Q847.922 1473.71 847.922 1466.61 Q847.922 1459.48 846.094 1455.94 Q844.288 1452.37 840.654 1452.37 M840.654 1448.67 Q846.464 1448.67 849.519 1453.27 Q852.598 1457.86 852.598 1466.61 Q852.598 1475.33 849.519 1479.94 Q846.464 1484.52 840.654 1484.52 Q834.844 1484.52 831.765 1479.94 Q828.709 1475.33 828.709 1466.61 Q828.709 1457.86 831.765 1453.27 Q834.844 1448.67 840.654 1448.67 Z" fill="#000000" fill-rule="evenodd" fill-opacity="1" /><path clip-path="url(#clip100)" d="M 0 0 M867.668 1452.37 Q864.056 1452.37 862.228 1455.94 Q860.422 1459.48 860.422 1466.61 Q860.422 1473.71 862.228 1477.28 Q864.056 1480.82 867.668 1480.82 Q871.302 1480.82 873.107 1477.28 Q874.936 1473.71 874.936 1466.61 Q874.936 1459.48 873.107 1455.94 Q871.302 1452.37 867.668 1452.37 M867.668 1448.67 Q873.478 1448.67 876.533 1453.27 Q879.612 1457.86 879.612 1466.61 Q879.612 1475.33 876.533 1479.94 Q873.478 1484.52 867.668 1484.52 Q861.857 1484.52 858.779 1479.94 Q855.723 1475.33 855.723 1466.61 Q855.723 1457.86 858.779 1453.27 Q861.857 1448.67 867.668 1448.67 Z" fill="#000000" fill-rule="evenodd" fill-opacity="1" /><path clip-path="url(#clip100)" d="M 0 0 M1108.26 1479.92 L1115.9 1479.92 L1115.9 1453.55 L1107.59 1455.22 L1107.59 1450.96 L1115.86 1449.29 L1120.53 1449.29 L1120.53 1479.92 L1128.17 1479.92 L1128.17 1483.85 L1108.26 1483.85 L1108.26 1479.92 Z" fill="#000000" fill-rule="evenodd" fill-opacity="1" /><path clip-path="url(#clip100)" d="M 0 0 M1133.29 1449.29 L1151.64 1449.29 L1151.64 1453.23 L1137.57 1453.23 L1137.57 1461.7 Q1138.59 1461.35 1139.61 1461.19 Q1140.63 1461 1141.64 1461 Q1147.43 1461 1150.81 1464.18 Q1154.19 1467.35 1154.19 1472.76 Q1154.19 1478.34 1150.72 1481.44 Q1147.25 1484.52 1140.93 1484.52 Q1138.75 1484.52 1136.48 1484.15 Q1134.24 1483.78 1131.83 1483.04 L1131.83 1478.34 Q1133.91 1479.48 1136.13 1480.03 Q1138.36 1480.59 1140.83 1480.59 Q1144.84 1480.59 1147.18 1478.48 Q1149.51 1476.38 1149.51 1472.76 Q1149.51 1469.15 1147.18 1467.05 Q1144.84 1464.94 1140.83 1464.94 Q1138.96 1464.94 1137.08 1465.36 Q1135.23 1465.77 1133.29 1466.65 L1133.29 1449.29 Z" fill="#000000" fill-rule="evenodd" fill-opacity="1" /><path clip-path="url(#clip100)" d="M 0 0 M1169.26 1452.37 Q1165.65 1452.37 1163.82 1455.94 Q1162.01 1459.48 1162.01 1466.61 Q1162.01 1473.71 1163.82 1477.28 Q1165.65 1480.82 1169.26 1480.82 Q1172.89 1480.82 1174.7 1477.28 Q1176.53 1473.71 1176.53 1466.61 Q1176.53 1459.48 1174.7 1455.94 Q1172.89 1452.37 1169.26 1452.37 M1169.26 1448.67 Q1175.07 1448.67 1178.12 1453.27 Q1181.2 1457.86 1181.2 1466.61 Q1181.2 1475.33 1178.12 1479.94 Q1175.07 1484.52 1169.26 1484.52 Q1163.45 1484.52 1160.37 1479.94 Q1157.31 1475.33 1157.31 1466.61 Q1157.31 1457.86 1160.37 1453.27 Q1163.45 1448.67 1169.26 1448.67 Z" fill="#000000" fill-rule="evenodd" fill-opacity="1" /><path clip-path="url(#clip100)" d="M 0 0 M1414.13 1479.92 L1430.45 1479.92 L1430.45 1483.85 L1408.5 1483.85 L1408.5 1479.92 Q1411.16 1477.16 1415.75 1472.53 Q1420.35 1467.88 1421.53 1466.54 Q1423.78 1464.01 1424.66 1462.28 Q1425.56 1460.52 1425.56 1458.83 Q1425.56 1456.07 1423.62 1454.34 Q1421.7 1452.6 1418.59 1452.6 Q1416.4 1452.6 1413.94 1453.37 Q1411.51 1454.13 1408.73 1455.68 L1408.73 1450.96 Q1411.56 1449.82 1414.01 1449.25 Q1416.46 1448.67 1418.5 1448.67 Q1423.87 1448.67 1427.07 1451.35 Q1430.26 1454.04 1430.26 1458.53 Q1430.26 1460.66 1429.45 1462.58 Q1428.66 1464.48 1426.56 1467.07 Q1425.98 1467.74 1422.88 1470.96 Q1419.77 1474.15 1414.13 1479.92 Z" fill="#000000" fill-rule="evenodd" fill-opacity="1" /><path clip-path="url(#clip100)" d="M 0 0 M1445.52 1452.37 Q1441.9 1452.37 1440.08 1455.94 Q1438.27 1459.48 1438.27 1466.61 Q1438.27 1473.71 1440.08 1477.28 Q1441.9 1480.82 1445.52 1480.82 Q1449.15 1480.82 1450.96 1477.28 Q1452.78 1473.71 1452.78 1466.61 Q1452.78 1459.48 1450.96 1455.94 Q1449.15 1452.37 1445.52 1452.37 M1445.52 1448.67 Q1451.33 1448.67 1454.38 1453.27 Q1457.46 1457.86 1457.46 1466.61 Q1457.46 1475.33 1454.38 1479.94 Q1451.33 1484.52 1445.52 1484.52 Q1439.71 1484.52 1436.63 1479.94 Q1433.57 1475.33 1433.57 1466.61 Q1433.57 1457.86 1436.63 1453.27 Q1439.71 1448.67 1445.52 1448.67 Z" fill="#000000" fill-rule="evenodd" fill-opacity="1" /><path clip-path="url(#clip100)" d="M 0 0 M1472.53 1452.37 Q1468.92 1452.37 1467.09 1455.94 Q1465.28 1459.48 1465.28 1466.61 Q1465.28 1473.71 1467.09 1477.28 Q1468.92 1480.82 1472.53 1480.82 Q1476.16 1480.82 1477.97 1477.28 Q1479.8 1473.71 1479.8 1466.61 Q1479.8 1459.48 1477.97 1455.94 Q1476.16 1452.37 1472.53 1452.37 M1472.53 1448.67 Q1478.34 1448.67 1481.39 1453.27 Q1484.47 1457.86 1484.47 1466.61 Q1484.47 1475.33 1481.39 1479.94 Q1478.34 1484.52 1472.53 1484.52 Q1466.72 1484.52 1463.64 1479.94 Q1460.58 1475.33 1460.58 1466.61 Q1460.58 1457.86 1463.64 1453.27 Q1466.72 1448.67 1472.53 1448.67 Z" fill="#000000" fill-rule="evenodd" fill-opacity="1" /><path clip-path="url(#clip100)" d="M 0 0 M1716.71 1479.92 L1733.03 1479.92 L1733.03 1483.85 L1711.09 1483.85 L1711.09 1479.92 Q1713.75 1477.16 1718.33 1472.53 Q1722.94 1467.88 1724.12 1466.54 Q1726.37 1464.01 1727.25 1462.28 Q1728.15 1460.52 1728.15 1458.83 Q1728.15 1456.07 1726.2 1454.34 Q1724.28 1452.6 1721.18 1452.6 Q1718.98 1452.6 1716.53 1453.37 Q1714.1 1454.13 1711.32 1455.68 L1711.32 1450.96 Q1714.14 1449.82 1716.6 1449.25 Q1719.05 1448.67 1721.09 1448.67 Q1726.46 1448.67 1729.65 1451.35 Q1732.85 1454.04 1732.85 1458.53 Q1732.85 1460.66 1732.04 1462.58 Q1731.25 1464.48 1729.14 1467.07 Q1728.57 1467.74 1725.46 1470.96 Q1722.36 1474.15 1716.71 1479.92 Z" fill="#000000" fill-rule="evenodd" fill-opacity="1" /><path clip-path="url(#clip100)" d="M 0 0 M1738.15 1449.29 L1756.51 1449.29 L1756.51 1453.23 L1742.43 1453.23 L1742.43 1461.7 Q1743.45 1461.35 1744.47 1461.19 Q1745.49 1461 1746.51 1461 Q1752.29 1461 1755.67 1464.18 Q1759.05 1467.35 1759.05 1472.76 Q1759.05 1478.34 1755.58 1481.44 Q1752.11 1484.52 1745.79 1484.52 Q1743.61 1484.52 1741.34 1484.15 Q1739.1 1483.78 1736.69 1483.04 L1736.69 1478.34 Q1738.77 1479.48 1741 1480.03 Q1743.22 1480.59 1745.7 1480.59 Q1749.7 1480.59 1752.04 1478.48 Q1754.38 1476.38 1754.38 1472.76 Q1754.38 1469.15 1752.04 1467.05 Q1749.7 1464.94 1745.7 1464.94 Q1743.82 1464.94 1741.95 1465.36 Q1740.09 1465.77 1738.15 1466.65 L1738.15 1449.29 Z" fill="#000000" fill-rule="evenodd" fill-opacity="1" /><path clip-path="url(#clip100)" d="M 0 0 M1774.12 1452.37 Q1770.51 1452.37 1768.68 1455.94 Q1766.88 1459.48 1766.88 1466.61 Q1766.88 1473.71 1768.68 1477.28 Q1770.51 1480.82 1774.12 1480.82 Q1777.76 1480.82 1779.56 1477.28 Q1781.39 1473.71 1781.39 1466.61 Q1781.39 1459.48 1779.56 1455.94 Q1777.76 1452.37 1774.12 1452.37 M1774.12 1448.67 Q1779.93 1448.67 1782.99 1453.27 Q1786.07 1457.86 1786.07 1466.61 Q1786.07 1475.33 1782.99 1479.94 Q1779.93 1484.52 1774.12 1484.52 Q1768.31 1484.52 1765.23 1479.94 Q1762.18 1475.33 1762.18 1466.61 Q1762.18 1457.86 1765.23 1453.27 Q1768.31 1448.67 1774.12 1448.67 Z" fill="#000000" fill-rule="evenodd" fill-opacity="1" /><path clip-path="url(#clip100)" d="M 0 0 M2027.9 1465.22 Q2031.26 1465.94 2033.13 1468.2 Q2035.03 1470.47 2035.03 1473.81 Q2035.03 1478.92 2031.51 1481.72 Q2027.99 1484.52 2021.51 1484.52 Q2019.34 1484.52 2017.02 1484.08 Q2014.73 1483.67 2012.28 1482.81 L2012.28 1478.3 Q2014.22 1479.43 2016.53 1480.01 Q2018.85 1480.59 2021.37 1480.59 Q2025.77 1480.59 2028.06 1478.85 Q2030.38 1477.12 2030.38 1473.81 Q2030.38 1470.75 2028.22 1469.04 Q2026.09 1467.3 2022.28 1467.3 L2018.25 1467.3 L2018.25 1463.46 L2022.46 1463.46 Q2025.91 1463.46 2027.74 1462.09 Q2029.57 1460.7 2029.57 1458.11 Q2029.57 1455.45 2027.67 1454.04 Q2025.79 1452.6 2022.28 1452.6 Q2020.35 1452.6 2018.16 1453.02 Q2015.96 1453.44 2013.32 1454.31 L2013.32 1450.15 Q2015.98 1449.41 2018.29 1449.04 Q2020.63 1448.67 2022.69 1448.67 Q2028.02 1448.67 2031.12 1451.1 Q2034.22 1453.5 2034.22 1457.63 Q2034.22 1460.5 2032.58 1462.49 Q2030.93 1464.45 2027.9 1465.22 Z" fill="#000000" fill-rule="evenodd" fill-opacity="1" /><path clip-path="url(#clip100)" d="M 0 0 M2050.1 1452.37 Q2046.49 1452.37 2044.66 1455.94 Q2042.85 1459.48 2042.85 1466.61 Q2042.85 1473.71 2044.66 1477.28 Q2046.49 1480.82 2050.1 1480.82 Q2053.73 1480.82 2055.54 1477.28 Q2057.37 1473.71 2057.37 1466.61 Q2057.37 1459.48 2055.54 1455.94 Q2053.73 1452.37 2050.1 1452.37 M2050.1 1448.67 Q2055.91 1448.67 2058.97 1453.27 Q2062.04 1457.86 2062.04 1466.61 Q2062.04 1475.33 2058.97 1479.94 Q2055.91 1484.52 2050.1 1484.52 Q2044.29 1484.52 2041.21 1479.94 Q2038.15 1475.33 2038.15 1466.61 Q2038.15 1457.86 2041.21 1453.27 Q2044.29 1448.67 2050.1 1448.67 Z" fill="#000000" fill-rule="evenodd" fill-opacity="1" /><path clip-path="url(#clip100)" d="M 0 0 M2077.11 1452.37 Q2073.5 1452.37 2071.67 1455.94 Q2069.87 1459.48 2069.87 1466.61 Q2069.87 1473.71 2071.67 1477.28 Q2073.5 1480.82 2077.11 1480.82 Q2080.75 1480.82 2082.55 1477.28 Q2084.38 1473.71 2084.38 1466.61 Q2084.38 1459.48 2082.55 1455.94 Q2080.75 1452.37 2077.11 1452.37 M2077.11 1448.67 Q2082.92 1448.67 2085.98 1453.27 Q2089.06 1457.86 2089.06 1466.61 Q2089.06 1475.33 2085.98 1479.94 Q2082.92 1484.52 2077.11 1484.52 Q2071.3 1484.52 2068.22 1479.94 Q2065.17 1475.33 2065.17 1466.61 Q2065.17 1457.86 2068.22 1453.27 Q2071.3 1448.67 2077.11 1448.67 Z" fill="#000000" fill-rule="evenodd" fill-opacity="1" /><path clip-path="url(#clip100)" d="M 0 0 M2330.49 1465.22 Q2333.84 1465.94 2335.72 1468.2 Q2337.62 1470.47 2337.62 1473.81 Q2337.62 1478.92 2334.1 1481.72 Q2330.58 1484.52 2324.1 1484.52 Q2321.92 1484.52 2319.61 1484.08 Q2317.32 1483.67 2314.86 1482.81 L2314.86 1478.3 Q2316.81 1479.43 2319.12 1480.01 Q2321.44 1480.59 2323.96 1480.59 Q2328.36 1480.59 2330.65 1478.85 Q2332.96 1477.12 2332.96 1473.81 Q2332.96 1470.75 2330.81 1469.04 Q2328.68 1467.3 2324.86 1467.3 L2320.83 1467.3 L2320.83 1463.46 L2325.05 1463.46 Q2328.5 1463.46 2330.33 1462.09 Q2332.15 1460.7 2332.15 1458.11 Q2332.15 1455.45 2330.26 1454.04 Q2328.38 1452.6 2324.86 1452.6 Q2322.94 1452.6 2320.74 1453.02 Q2318.54 1453.44 2315.9 1454.31 L2315.9 1450.15 Q2318.57 1449.41 2320.88 1449.04 Q2323.22 1448.67 2325.28 1448.67 Q2330.6 1448.67 2333.71 1451.1 Q2336.81 1453.5 2336.81 1457.63 Q2336.81 1460.5 2335.16 1462.49 Q2333.52 1464.45 2330.49 1465.22 Z" fill="#000000" fill-rule="evenodd" fill-opacity="1" /><path clip-path="url(#clip100)" d="M 0 0 M2342.73 1449.29 L2361.09 1449.29 L2361.09 1453.23 L2347.02 1453.23 L2347.02 1461.7 Q2348.03 1461.35 2349.05 1461.19 Q2350.07 1461 2351.09 1461 Q2356.88 1461 2360.26 1464.18 Q2363.64 1467.35 2363.64 1472.76 Q2363.64 1478.34 2360.16 1481.44 Q2356.69 1484.52 2350.37 1484.52 Q2348.2 1484.52 2345.93 1484.15 Q2343.68 1483.78 2341.27 1483.04 L2341.27 1478.34 Q2343.36 1479.48 2345.58 1480.03 Q2347.8 1480.59 2350.28 1480.59 Q2354.28 1480.59 2356.62 1478.48 Q2358.96 1476.38 2358.96 1472.76 Q2358.96 1469.15 2356.62 1467.05 Q2354.28 1464.94 2350.28 1464.94 Q2348.4 1464.94 2346.53 1465.36 Q2344.68 1465.77 2342.73 1466.65 L2342.73 1449.29 Z" fill="#000000" fill-rule="evenodd" fill-opacity="1" /><path clip-path="url(#clip100)" d="M 0 0 M2378.7 1452.37 Q2375.09 1452.37 2373.27 1455.94 Q2371.46 1459.48 2371.46 1466.61 Q2371.46 1473.71 2373.27 1477.28 Q2375.09 1480.82 2378.7 1480.82 Q2382.34 1480.82 2384.14 1477.28 Q2385.97 1473.71 2385.97 1466.61 Q2385.97 1459.48 2384.14 1455.94 Q2382.34 1452.37 2378.7 1452.37 M2378.7 1448.67 Q2384.51 1448.67 2387.57 1453.27 Q2390.65 1457.86 2390.65 1466.61 Q2390.65 1475.33 2387.57 1479.94 Q2384.51 1484.52 2378.7 1484.52 Q2372.89 1484.52 2369.82 1479.94 Q2366.76 1475.33 2366.76 1466.61 Q2366.76 1457.86 2369.82 1453.27 Q2372.89 1448.67 2378.7 1448.67 Z" fill="#000000" fill-rule="evenodd" fill-opacity="1" /><path clip-path="url(#clip100)" d="M 0 0 M1312.06 1520.4 L1299.17 1537.74 L1312.73 1556.04 L1305.82 1556.04 L1295.44 1542.04 L1285.07 1556.04 L1278.16 1556.04 L1292.01 1537.39 L1279.34 1520.4 L1286.24 1520.4 L1295.7 1533.1 L1305.15 1520.4 L1312.06 1520.4 Z" fill="#000000" fill-rule="evenodd" fill-opacity="1" /><polyline clip-path="url(#clip102)" style="stroke:#000000; stroke-width:2; stroke-opacity:0.1; fill:none" points="
  238.13,1274.07 2352.76,1274.07 
  "/>
<polyline clip-path="url(#clip102)" style="stroke:#000000; stroke-width:2; stroke-opacity:0.1; fill:none" points="
  238.13,1003.55 2352.76,1003.55 
  "/>
<polyline clip-path="url(#clip102)" style="stroke:#000000; stroke-width:2; stroke-opacity:0.1; fill:none" points="
  238.13,733.043 2352.76,733.043 
  "/>
<polyline clip-path="url(#clip102)" style="stroke:#000000; stroke-width:2; stroke-opacity:0.1; fill:none" points="
  238.13,462.531 2352.76,462.531 
  "/>
<polyline clip-path="url(#clip102)" style="stroke:#000000; stroke-width:2; stroke-opacity:0.1; fill:none" points="
  238.13,192.019 2352.76,192.019 
  "/>
<polyline clip-path="url(#clip100)" style="stroke:#000000; stroke-width:4; stroke-opacity:1; fill:none" points="
  238.13,1423.18 238.13,47.2441 
  "/>
<polyline clip-path="url(#clip100)" style="stroke:#000000; stroke-width:4; stroke-opacity:1; fill:none" points="
  238.13,1274.07 263.506,1274.07 
  "/>
<polyline clip-path="url(#clip100)" style="stroke:#000000; stroke-width:4; stroke-opacity:1; fill:none" points="
  238.13,1003.55 263.506,1003.55 
  "/>
<polyline clip-path="url(#clip100)" style="stroke:#000000; stroke-width:4; stroke-opacity:1; fill:none" points="
  238.13,733.043 263.506,733.043 
  "/>
<polyline clip-path="url(#clip100)" style="stroke:#000000; stroke-width:4; stroke-opacity:1; fill:none" points="
  238.13,462.531 263.506,462.531 
  "/>
<polyline clip-path="url(#clip100)" style="stroke:#000000; stroke-width:4; stroke-opacity:1; fill:none" points="
  238.13,192.019 263.506,192.019 
  "/>
<path clip-path="url(#clip100)" d="M 0 0 M126.205 1259.86 Q122.593 1259.86 120.765 1263.43 Q118.959 1266.97 118.959 1274.1 Q118.959 1281.21 120.765 1284.77 Q122.593 1288.31 126.205 1288.31 Q129.839 1288.31 131.644 1284.77 Q133.473 1281.21 133.473 1274.1 Q133.473 1266.97 131.644 1263.43 Q129.839 1259.86 126.205 1259.86 M126.205 1256.16 Q132.015 1256.16 135.07 1260.77 Q138.149 1265.35 138.149 1274.1 Q138.149 1282.83 135.07 1287.43 Q132.015 1292.02 126.205 1292.02 Q120.394 1292.02 117.316 1287.43 Q114.26 1282.83 114.26 1274.1 Q114.26 1265.35 117.316 1260.77 Q120.394 1256.16 126.205 1256.16 Z" fill="#000000" fill-rule="evenodd" fill-opacity="1" /><path clip-path="url(#clip100)" d="M 0 0 M143.218 1285.47 L148.103 1285.47 L148.103 1291.35 L143.218 1291.35 L143.218 1285.47 Z" fill="#000000" fill-rule="evenodd" fill-opacity="1" /><path clip-path="url(#clip100)" d="M 0 0 M163.172 1259.86 Q159.561 1259.86 157.732 1263.43 Q155.927 1266.97 155.927 1274.1 Q155.927 1281.21 157.732 1284.77 Q159.561 1288.31 163.172 1288.31 Q166.806 1288.31 168.612 1284.77 Q170.44 1281.21 170.44 1274.1 Q170.44 1266.97 168.612 1263.43 Q166.806 1259.86 163.172 1259.86 M163.172 1256.16 Q168.982 1256.16 172.038 1260.77 Q175.116 1265.35 175.116 1274.1 Q175.116 1282.83 172.038 1287.43 Q168.982 1292.02 163.172 1292.02 Q157.362 1292.02 154.283 1287.43 Q151.228 1282.83 151.228 1274.1 Q151.228 1265.35 154.283 1260.77 Q157.362 1256.16 163.172 1256.16 Z" fill="#000000" fill-rule="evenodd" fill-opacity="1" /><path clip-path="url(#clip100)" d="M 0 0 M190.186 1259.86 Q186.575 1259.86 184.746 1263.43 Q182.94 1266.97 182.94 1274.1 Q182.94 1281.21 184.746 1284.77 Q186.575 1288.31 190.186 1288.31 Q193.82 1288.31 195.625 1284.77 Q197.454 1281.21 197.454 1274.1 Q197.454 1266.97 195.625 1263.43 Q193.82 1259.86 190.186 1259.86 M190.186 1256.16 Q195.996 1256.16 199.051 1260.77 Q202.13 1265.35 202.13 1274.1 Q202.13 1282.83 199.051 1287.43 Q195.996 1292.02 190.186 1292.02 Q184.376 1292.02 181.297 1287.43 Q178.241 1282.83 178.241 1274.1 Q178.241 1265.35 181.297 1260.77 Q184.376 1256.16 190.186 1256.16 Z" fill="#000000" fill-rule="evenodd" fill-opacity="1" /><path clip-path="url(#clip100)" d="M 0 0 M128.797 989.353 Q125.186 989.353 123.357 992.918 Q121.552 996.459 121.552 1003.59 Q121.552 1010.7 123.357 1014.26 Q125.186 1017.8 128.797 1017.8 Q132.431 1017.8 134.237 1014.26 Q136.066 1010.7 136.066 1003.59 Q136.066 996.459 134.237 992.918 Q132.431 989.353 128.797 989.353 M128.797 985.649 Q134.607 985.649 137.663 990.256 Q140.741 994.839 140.741 1003.59 Q140.741 1012.32 137.663 1016.92 Q134.607 1021.51 128.797 1021.51 Q122.987 1021.51 119.908 1016.92 Q116.853 1012.32 116.853 1003.59 Q116.853 994.839 119.908 990.256 Q122.987 985.649 128.797 985.649 Z" fill="#000000" fill-rule="evenodd" fill-opacity="1" /><path clip-path="url(#clip100)" d="M 0 0 M145.811 1014.95 L150.695 1014.95 L150.695 1020.83 L145.811 1020.83 L145.811 1014.95 Z" fill="#000000" fill-rule="evenodd" fill-opacity="1" /><path clip-path="url(#clip100)" d="M 0 0 M159.792 1016.9 L176.112 1016.9 L176.112 1020.83 L154.167 1020.83 L154.167 1016.9 Q156.829 1014.14 161.413 1009.51 Q166.019 1004.86 167.2 1003.52 Q169.445 1001 170.325 999.26 Q171.227 997.501 171.227 995.811 Q171.227 993.057 169.283 991.32 Q167.362 989.584 164.26 989.584 Q162.061 989.584 159.607 990.348 Q157.177 991.112 154.399 992.663 L154.399 987.941 Q157.223 986.807 159.677 986.228 Q162.13 985.649 164.167 985.649 Q169.538 985.649 172.732 988.334 Q175.926 991.02 175.926 995.51 Q175.926 997.64 175.116 999.561 Q174.329 1001.46 172.223 1004.05 Q171.644 1004.72 168.542 1007.94 Q165.44 1011.14 159.792 1016.9 Z" fill="#000000" fill-rule="evenodd" fill-opacity="1" /><path clip-path="url(#clip100)" d="M 0 0 M181.227 986.274 L199.584 986.274 L199.584 990.209 L185.51 990.209 L185.51 998.682 Q186.528 998.334 187.547 998.172 Q188.565 997.987 189.584 997.987 Q195.371 997.987 198.75 1001.16 Q202.13 1004.33 202.13 1009.75 Q202.13 1015.32 198.658 1018.43 Q195.186 1021.51 188.866 1021.51 Q186.69 1021.51 184.422 1021.14 Q182.176 1020.76 179.769 1020.02 L179.769 1015.32 Q181.852 1016.46 184.075 1017.01 Q186.297 1017.57 188.774 1017.57 Q192.778 1017.57 195.116 1015.46 Q197.454 1013.36 197.454 1009.75 Q197.454 1006.14 195.116 1004.03 Q192.778 1001.92 188.774 1001.92 Q186.899 1001.92 185.024 1002.34 Q183.172 1002.76 181.227 1003.64 L181.227 986.274 Z" fill="#000000" fill-rule="evenodd" fill-opacity="1" /><path clip-path="url(#clip100)" d="M 0 0 M127.2 718.841 Q123.589 718.841 121.76 722.406 Q119.955 725.948 119.955 733.077 Q119.955 740.184 121.76 743.748 Q123.589 747.29 127.2 747.29 Q130.834 747.29 132.64 743.748 Q134.468 740.184 134.468 733.077 Q134.468 725.948 132.64 722.406 Q130.834 718.841 127.2 718.841 M127.2 715.138 Q133.01 715.138 136.066 719.744 Q139.144 724.327 139.144 733.077 Q139.144 741.804 136.066 746.411 Q133.01 750.994 127.2 750.994 Q121.39 750.994 118.311 746.411 Q115.256 741.804 115.256 733.077 Q115.256 724.327 118.311 719.744 Q121.39 715.138 127.2 715.138 Z" fill="#000000" fill-rule="evenodd" fill-opacity="1" /><path clip-path="url(#clip100)" d="M 0 0 M144.214 744.443 L149.098 744.443 L149.098 750.323 L144.214 750.323 L144.214 744.443 Z" fill="#000000" fill-rule="evenodd" fill-opacity="1" /><path clip-path="url(#clip100)" d="M 0 0 M154.214 715.763 L172.57 715.763 L172.57 719.698 L158.496 719.698 L158.496 728.17 Q159.515 727.823 160.533 727.661 Q161.552 727.475 162.57 727.475 Q168.357 727.475 171.737 730.647 Q175.116 733.818 175.116 739.235 Q175.116 744.813 171.644 747.915 Q168.172 750.994 161.852 750.994 Q159.677 750.994 157.408 750.623 Q155.163 750.253 152.755 749.512 L152.755 744.813 Q154.839 745.948 157.061 746.503 Q159.283 747.059 161.76 747.059 Q165.765 747.059 168.102 744.952 Q170.44 742.846 170.44 739.235 Q170.44 735.624 168.102 733.517 Q165.765 731.411 161.76 731.411 Q159.885 731.411 158.01 731.827 Q156.158 732.244 154.214 733.124 L154.214 715.763 Z" fill="#000000" fill-rule="evenodd" fill-opacity="1" /><path clip-path="url(#clip100)" d="M 0 0 M190.186 718.841 Q186.575 718.841 184.746 722.406 Q182.94 725.948 182.94 733.077 Q182.94 740.184 184.746 743.748 Q186.575 747.29 190.186 747.29 Q193.82 747.29 195.625 743.748 Q197.454 740.184 197.454 733.077 Q197.454 725.948 195.625 722.406 Q193.82 718.841 190.186 718.841 M190.186 715.138 Q195.996 715.138 199.051 719.744 Q202.13 724.327 202.13 733.077 Q202.13 741.804 199.051 746.411 Q195.996 750.994 190.186 750.994 Q184.376 750.994 181.297 746.411 Q178.241 741.804 178.241 733.077 Q178.241 724.327 181.297 719.744 Q184.376 715.138 190.186 715.138 Z" fill="#000000" fill-rule="evenodd" fill-opacity="1" /><path clip-path="url(#clip100)" d="M 0 0 M128.103 448.33 Q124.492 448.33 122.663 451.894 Q120.857 455.436 120.857 462.566 Q120.857 469.672 122.663 473.237 Q124.492 476.779 128.103 476.779 Q131.737 476.779 133.542 473.237 Q135.371 469.672 135.371 462.566 Q135.371 455.436 133.542 451.894 Q131.737 448.33 128.103 448.33 M128.103 444.626 Q133.913 444.626 136.968 449.232 Q140.047 453.816 140.047 462.566 Q140.047 471.292 136.968 475.899 Q133.913 480.482 128.103 480.482 Q122.293 480.482 119.214 475.899 Q116.158 471.292 116.158 462.566 Q116.158 453.816 119.214 449.232 Q122.293 444.626 128.103 444.626 Z" fill="#000000" fill-rule="evenodd" fill-opacity="1" /><path clip-path="url(#clip100)" d="M 0 0 M145.116 473.931 L150.001 473.931 L150.001 479.811 L145.116 479.811 L145.116 473.931 Z" fill="#000000" fill-rule="evenodd" fill-opacity="1" /><path clip-path="url(#clip100)" d="M 0 0 M153.89 445.251 L176.112 445.251 L176.112 447.242 L163.565 479.811 L158.681 479.811 L170.487 449.186 L153.89 449.186 L153.89 445.251 Z" fill="#000000" fill-rule="evenodd" fill-opacity="1" /><path clip-path="url(#clip100)" d="M 0 0 M181.227 445.251 L199.584 445.251 L199.584 449.186 L185.51 449.186 L185.51 457.658 Q186.528 457.311 187.547 457.149 Q188.565 456.964 189.584 456.964 Q195.371 456.964 198.75 460.135 Q202.13 463.306 202.13 468.723 Q202.13 474.302 198.658 477.404 Q195.186 480.482 188.866 480.482 Q186.69 480.482 184.422 480.112 Q182.176 479.741 179.769 479.001 L179.769 474.302 Q181.852 475.436 184.075 475.991 Q186.297 476.547 188.774 476.547 Q192.778 476.547 195.116 474.441 Q197.454 472.334 197.454 468.723 Q197.454 465.112 195.116 463.005 Q192.778 460.899 188.774 460.899 Q186.899 460.899 185.024 461.316 Q183.172 461.732 181.227 462.612 L181.227 445.251 Z" fill="#000000" fill-rule="evenodd" fill-opacity="1" /><path clip-path="url(#clip100)" d="M 0 0 M118.242 205.364 L125.88 205.364 L125.88 178.999 L117.57 180.665 L117.57 176.406 L125.834 174.739 L130.51 174.739 L130.51 205.364 L138.149 205.364 L138.149 209.299 L118.242 209.299 L118.242 205.364 Z" fill="#000000" fill-rule="evenodd" fill-opacity="1" /><path clip-path="url(#clip100)" d="M 0 0 M143.218 203.42 L148.103 203.42 L148.103 209.299 L143.218 209.299 L143.218 203.42 Z" fill="#000000" fill-rule="evenodd" fill-opacity="1" /><path clip-path="url(#clip100)" d="M 0 0 M163.172 177.818 Q159.561 177.818 157.732 181.383 Q155.927 184.924 155.927 192.054 Q155.927 199.16 157.732 202.725 Q159.561 206.267 163.172 206.267 Q166.806 206.267 168.612 202.725 Q170.44 199.16 170.44 192.054 Q170.44 184.924 168.612 181.383 Q166.806 177.818 163.172 177.818 M163.172 174.114 Q168.982 174.114 172.038 178.721 Q175.116 183.304 175.116 192.054 Q175.116 200.781 172.038 205.387 Q168.982 209.971 163.172 209.971 Q157.362 209.971 154.283 205.387 Q151.228 200.781 151.228 192.054 Q151.228 183.304 154.283 178.721 Q157.362 174.114 163.172 174.114 Z" fill="#000000" fill-rule="evenodd" fill-opacity="1" /><path clip-path="url(#clip100)" d="M 0 0 M190.186 177.818 Q186.575 177.818 184.746 181.383 Q182.94 184.924 182.94 192.054 Q182.94 199.16 184.746 202.725 Q186.575 206.267 190.186 206.267 Q193.82 206.267 195.625 202.725 Q197.454 199.16 197.454 192.054 Q197.454 184.924 195.625 181.383 Q193.82 177.818 190.186 177.818 M190.186 174.114 Q195.996 174.114 199.051 178.721 Q202.13 183.304 202.13 192.054 Q202.13 200.781 199.051 205.387 Q195.996 209.971 190.186 209.971 Q184.376 209.971 181.297 205.387 Q178.241 200.781 178.241 192.054 Q178.241 183.304 181.297 178.721 Q184.376 174.114 190.186 174.114 Z" fill="#000000" fill-rule="evenodd" fill-opacity="1" /><path clip-path="url(#clip100)" d="M 0 0 M70.212 745.095 Q76.6732 745.095 80.3653 742.453 Q84.0256 739.779 84.0256 735.132 Q84.0256 730.485 80.3653 727.812 Q76.6732 725.138 70.212 725.138 Q63.7508 725.138 60.0905 727.812 Q56.3984 730.485 56.3984 735.132 Q56.3984 739.779 60.0905 742.453 Q63.7508 745.095 70.212 745.095 M82.657 725.138 Q85.8398 726.984 87.3994 729.817 Q88.9272 732.618 88.9272 736.565 Q88.9272 743.026 83.771 747.1 Q78.6147 751.142 70.212 751.142 Q61.8093 751.142 56.6531 747.1 Q51.4968 743.026 51.4968 736.565 Q51.4968 732.618 53.0564 729.817 Q54.5842 726.984 57.7671 725.138 L52.3562 725.138 L52.3562 719.282 L101.563 719.282 L101.563 725.138 L82.657 725.138 Z" fill="#000000" fill-rule="evenodd" fill-opacity="1" /><polyline clip-path="url(#clip102)" style="stroke:#009af9; stroke-width:4; stroke-opacity:1; fill:none" points="
  238.13,1274.07 240.983,1274.07 246.39,1274.07 251.798,1274.07 254.651,1274.07 257.503,1274.07 262.911,1274.07 268.318,1274.07 271.171,1274.07 
  274.024,1274.07 279.431,1274.07 284.839,1274.07 287.692,1274.07 290.544,1274.07 295.952,1274.07 301.359,1274.07 304.212,1274.07 
  307.065,1274.07 312.472,1274.07 317.88,1274.07 320.733,1274.07 323.585,1274.07 328.993,1274.07 334.4,1274.07 337.253,1274.07 
  340.106,1274.07 345.513,1274.07 350.921,1274.07 353.774,1274.07 356.626,1274.07 362.034,1274.07 367.442,1274.07 370.294,1274.07 
  373.147,1274.07 378.554,1274.07 383.962,1274.07 386.815,1274.07 389.667,1274.07 395.075,1274.07 400.483,1274.07 403.335,1274.07 
  406.188,1274.07 411.595,1274.07 417.003,1274.07 419.856,1274.07 422.708,1274.07 428.116,1274.07 433.524,1274.07 436.376,1274.07 
  439.229,1274.07 444.636,1274.07 450.044,1274.07 452.897,1274.07 455.749,1274.07 461.157,1274.07 466.565,1274.07 469.417,1274.07 
  472.27,1274.07 477.678,1274.07 483.085,1274.07 485.938,1274.07 488.79,1274.07 494.198,1274.07 499.606,1274.07 502.458,1274.07 
  505.311,1274.07 510.719,1274.07 516.126,1274.07 518.979,1274.07 521.831,1274.07 527.239,1274.07 532.647,1274.07 535.499,1274.07 
  538.352,1274.07 543.76,1274.07 549.167,1274.07 552.02,1274.07 554.872,1274.07 560.28,1274.07 565.688,1274.07 568.54,1274.07 
  571.393,1274.07 576.801,1274.07 582.208,1274.07 585.061,1274.07 587.914,1274.07 593.321,1274.07 598.729,1274.07 601.581,1274.07 
  604.434,1274.07 609.842,1274.07 615.249,1274.07 618.102,1274.07 620.955,1274.07 626.362,1274.07 631.77,1274.07 634.622,1274.07 
  637.475,1274.07 642.883,1274.07 648.29,1274.07 651.143,1274.07 653.996,1274.07 659.403,1274.07 664.811,1274.07 667.663,1274.07 
  670.516,1274.07 675.924,1274.07 681.331,1274.07 684.184,1274.07 687.037,1274.07 692.444,192.019 697.852,192.019 700.704,192.019 
  703.557,192.019 708.965,192.019 714.372,192.019 717.225,192.019 720.078,192.019 725.485,192.019 730.893,192.019 733.745,192.019 
  736.598,192.019 742.006,192.019 747.413,192.019 750.266,192.019 753.119,192.019 758.526,192.019 763.934,192.019 766.787,192.019 
  769.639,192.019 775.047,192.019 780.454,192.019 783.307,192.019 786.16,192.019 791.567,192.019 796.975,192.019 799.828,192.019 
  802.68,192.019 808.088,192.019 813.495,192.019 816.348,192.019 819.201,192.019 824.608,192.019 830.016,192.019 832.869,192.019 
  835.721,192.019 841.129,192.019 846.536,192.019 849.389,192.019 852.242,192.019 857.649,192.019 863.057,192.019 865.91,192.019 
  868.762,192.019 874.17,192.019 879.577,192.019 882.43,192.019 885.283,192.019 890.69,192.019 896.098,192.019 898.951,192.019 
  901.803,192.019 907.211,192.019 912.618,192.019 915.471,192.019 918.324,192.019 923.731,192.019 929.139,192.019 931.992,192.019 
  934.844,192.019 940.252,192.019 945.66,192.019 948.512,192.019 951.365,192.019 956.772,192.019 962.18,192.019 965.033,192.019 
  967.885,192.019 973.293,192.019 978.701,192.019 981.553,192.019 984.406,192.019 989.813,192.019 995.221,1274.07 998.074,1274.07 
  1000.93,1274.07 1006.33,1274.07 1011.74,1274.07 1014.59,1274.07 1017.45,1274.07 1022.85,1274.07 1028.26,1274.07 1031.11,1274.07 
  1033.97,1274.07 1039.38,1274.07 1044.78,1274.07 1047.64,1274.07 1050.49,1274.07 1055.9,1274.07 1061.3,1274.07 1064.16,1274.07 
  1067.01,1274.07 1072.42,1274.07 1077.82,1274.07 1080.68,1274.07 1083.53,1274.07 1088.94,1274.07 1094.34,1274.07 1097.2,1274.07 
  1100.05,1274.07 1105.46,1274.07 1110.86,1274.07 1113.72,1274.07 1116.57,1274.07 1121.98,1274.07 1127.39,1274.07 1130.24,1274.07 
  1133.09,1274.07 1138.5,1274.07 1143.91,1274.07 1146.76,1274.07 1149.61,1274.07 1155.02,1274.07 1160.43,1274.07 1163.28,1274.07 
  1166.13,1274.07 1171.54,1274.07 1176.95,1274.07 1179.8,1274.07 1182.65,1274.07 1188.06,1274.07 1193.47,1274.07 1196.32,1274.07 
  1199.17,1274.07 1204.58,1274.07 1209.99,1274.07 1212.84,1274.07 1215.69,1274.07 1221.1,1274.07 1226.51,1274.07 1229.36,1274.07 
  1232.21,1274.07 1237.62,1274.07 1243.03,1274.07 1245.88,1274.07 1248.73,1274.07 1254.14,1274.07 1259.55,1274.07 1262.4,1274.07 
  1265.25,1274.07 1270.66,1274.07 1276.07,1274.07 1278.92,1274.07 1281.78,1274.07 1287.18,1274.07 1292.59,1274.07 1295.44,1274.07 
  1298.3,1274.07 1303.7,1274.07 1309.11,1274.07 1311.96,1274.07 1314.82,1274.07 1320.22,1274.07 1325.63,1274.07 1328.48,1274.07 
  1331.34,1274.07 1336.74,1274.07 1342.15,1274.07 1345,1274.07 1347.86,1274.07 1353.26,1274.07 1358.67,1274.07 1361.53,1274.07 
  1364.38,1274.07 1369.79,1274.07 1375.19,1274.07 1378.05,1274.07 1380.9,1274.07 1386.31,1274.07 1391.71,1274.07 1394.57,1274.07 
  1397.42,1274.07 1402.83,1274.07 1408.23,1274.07 1411.09,1274.07 1413.94,1274.07 1419.35,1274.07 1424.75,1274.07 1427.61,1274.07 
  1430.46,1274.07 1435.87,1274.07 1441.27,1274.07 1444.13,1274.07 1446.98,1274.07 1452.39,1274.07 1457.8,1274.07 1460.65,1274.07 
  1463.5,1274.07 1468.91,1274.07 1474.32,1274.07 1477.17,1274.07 1480.02,1274.07 1485.43,1274.07 1490.84,1274.07 1493.69,1274.07 
  1496.54,1274.07 1501.95,1274.07 1507.36,1274.07 1510.21,1274.07 1513.06,1274.07 1518.47,1274.07 1523.88,1274.07 1526.73,1274.07 
  1529.58,1274.07 1534.99,1274.07 1540.4,1274.07 1543.25,1274.07 1546.1,1274.07 1551.51,1274.07 1556.92,1274.07 1559.77,1274.07 
  1562.62,1274.07 1568.03,1274.07 1573.44,1274.07 1576.29,1274.07 1579.14,1274.07 1584.55,1274.07 1589.96,1274.07 1592.81,1274.07 
  1595.66,1274.07 1601.07,1274.07 1606.48,1274.07 1609.33,1274.07 1612.19,1274.07 1617.59,1274.07 1623,1274.07 1625.85,1274.07 
  1628.71,1274.07 1634.11,1274.07 1639.52,1274.07 1642.37,1274.07 1645.23,1274.07 1650.63,1274.07 1656.04,1274.07 1658.89,1274.07 
  1661.75,1274.07 1667.15,1274.07 1672.56,1274.07 1675.41,1274.07 1678.27,1274.07 1683.68,1274.07 1689.08,1274.07 1691.94,1274.07 
  1694.79,1274.07 1700.2,1274.07 1705.6,1274.07 1708.46,1274.07 1711.31,1274.07 1716.72,1274.07 1722.12,1274.07 1724.98,1274.07 
  1727.83,1274.07 1733.24,1274.07 1738.64,1274.07 1741.5,1274.07 1744.35,1274.07 1749.76,1274.07 1755.16,1274.07 1758.02,1274.07 
  1760.87,1274.07 1766.28,1274.07 1771.69,1274.07 1774.54,1274.07 1777.39,1274.07 1782.8,1274.07 1788.21,1274.07 1791.06,1274.07 
  1793.91,1274.07 1799.32,1274.07 1804.73,1274.07 1807.58,1274.07 1810.43,1274.07 1815.84,1274.07 1821.25,1274.07 1824.1,1274.07 
  1826.95,1274.07 1832.36,1274.07 1837.77,1274.07 1840.62,1274.07 1843.47,1274.07 1848.88,1274.07 1854.29,1274.07 1857.14,1274.07 
  1859.99,1274.07 1865.4,1274.07 1870.81,1274.07 1873.66,1274.07 1876.51,1274.07 1881.92,1274.07 1887.33,1274.07 1890.18,1274.07 
  1893.03,1274.07 1898.44,1274.07 1903.85,1274.07 1906.7,1274.07 1909.55,1274.07 1914.96,1274.07 1920.37,1274.07 1923.22,1274.07 
  1926.08,1274.07 1931.48,1274.07 1936.89,1274.07 1939.74,1274.07 1942.6,1274.07 1948,1274.07 1953.41,1274.07 1956.26,1274.07 
  1959.12,1274.07 1964.52,1274.07 1969.93,1274.07 1972.78,1274.07 1975.64,1274.07 1981.04,1274.07 1986.45,1274.07 1989.3,1274.07 
  1992.16,1274.07 1997.56,1274.07 2002.97,1274.07 2005.83,1274.07 2008.68,1274.07 2014.09,1274.07 2019.49,1274.07 2022.35,1274.07 
  2025.2,1274.07 2030.61,1274.07 2036.01,1274.07 2038.87,1274.07 2041.72,1274.07 2047.13,1274.07 2052.53,1274.07 2055.39,1274.07 
  2058.24,1274.07 2063.65,1274.07 2069.05,1274.07 2071.91,1274.07 2074.76,1274.07 2080.17,1274.07 2085.58,1274.07 2088.43,1274.07 
  2091.28,1274.07 2096.69,1274.07 2102.1,1274.07 2104.95,1274.07 2107.8,1274.07 2113.21,1274.07 2118.62,1274.07 2121.47,1274.07 
  2124.32,1274.07 2129.73,1274.07 2135.14,1274.07 2137.99,1274.07 2140.84,1274.07 2146.25,1274.07 2151.66,1274.07 2154.51,1274.07 
  2157.36,1274.07 2162.77,1274.07 2168.18,1274.07 2171.03,1274.07 2173.88,1274.07 2179.29,1274.07 2184.7,1274.07 2187.55,1274.07 
  2190.4,1274.07 2195.81,1274.07 2201.22,1274.07 2204.07,1274.07 2206.92,1274.07 2212.33,1274.07 2217.74,1274.07 2220.59,1274.07 
  2223.44,1274.07 2228.85,1274.07 2234.26,1274.07 2237.11,1274.07 2239.96,1274.07 2245.37,1274.07 2250.78,1274.07 2253.63,1274.07 
  2256.49,1274.07 2261.89,1274.07 2267.3,1274.07 2270.15,1274.07 2273.01,1274.07 2278.41,1274.07 2283.82,1274.07 2286.67,1274.07 
  2289.53,1274.07 2294.93,1274.07 2300.34,1274.07 2303.19,1274.07 2306.05,1274.07 2311.45,1274.07 2316.86,1274.07 2319.71,1274.07 
  2322.57,1274.07 2327.98,1274.07 2333.38,1274.07 2336.24,1274.07 2339.09,1274.07 2344.5,1274.07 2349.9,1274.07 2352.76,1274.07 
  
  "/>
<polyline clip-path="url(#clip102)" style="stroke:#e26f46; stroke-width:4; stroke-opacity:1; fill:none" points="
  238.13,1299.07 240.983,1250.32 246.39,1279.82 251.798,1252.82 254.651,1309.27 254.651,1243.05 257.503,1297.09 262.911,1273.87 268.318,1285.58 271.171,1274.36 
  271.171,1289.48 274.024,1277.13 279.431,1262.71 284.839,1266.57 287.692,1261.07 287.692,1273.6 290.544,1265.7 295.952,1277.11 301.359,1278.32 304.212,1296.12 
  304.212,1274.58 307.065,1290.57 312.472,1274 317.88,1276 320.733,1249.34 320.733,1284.38 323.585,1257.93 328.993,1272.35 334.4,1256.07 337.253,1302.51 
  337.253,1251.99 340.106,1294.5 345.513,1274.38 350.921,1288.68 353.774,1283.25 353.774,1282.26 356.626,1279.25 362.034,1258.02 367.442,1280.1 370.294,1208.59 
  370.294,1312.51 373.147,1239.29 378.554,1305.26 383.962,1239.61 386.815,1370.61 386.815,1199.67 389.667,1329.26 395.075,1247.75 400.483,1300.99 403.335,1210.14 
  403.335,1332.74 406.188,1243.69 411.595,1276.72 417.003,1255.14 419.856,1300.95 419.856,1247.68 422.708,1288.15 428.116,1280.04 433.524,1285.68 436.376,1278.51 
  436.376,1286.29 439.229,1278.68 444.636,1266.22 450.044,1263.04 452.897,1264.59 452.897,1260.83 455.749,1265.42 461.157,1271.44 466.565,1287.27 469.417,1264.98 
  469.417,1300.64 472.27,1276.7 477.678,1294.51 483.085,1256.74 485.938,1295.65 485.938,1236.65 488.79,1278.44 494.198,1252.05 499.606,1276.06 502.458,1252.2 
  502.458,1294.15 505.311,1271 510.719,1292.01 516.126,1279.72 518.979,1299.22 518.979,1265.66 521.831,1284.03 527.239,1261.78 532.647,1270.83 535.499,1235.02 
  535.499,1282.71 538.352,1250.64 543.76,1284.19 549.167,1270.31 552.02,1310.45 552.02,1258.89 554.872,1298.15 560.28,1275.71 565.688,1282.82 568.54,1247.12 
  568.54,1288.99 571.393,1254.32 576.801,1266.68 582.208,1259.16 585.061,1294.44 585.061,1252.63 587.914,1285.79 593.321,1276.21 598.729,1301.35 601.581,1270.07 
  601.581,1301.3 604.434,1270.43 609.842,1268.86 615.249,1267.97 618.102,1236.58 618.102,1280.55 620.955,1246.77 626.362,1285.84 631.77,1259.43 634.622,1351.3 
  634.622,1230.89 637.475,1319.22 642.883,1253.59 648.29,1311.53 651.143,1211.69 651.143,1334.81 653.996,1235.63 659.403,1272.75 664.811,1256.43 667.663,1280.28 
  667.663,1259.28 670.516,1276.19 675.924,1291.78 681.331,1272.29 684.184,1332.51 684.184,1250.18 687.037,1308.65 692.444,1242.99 697.852,1284.34 700.704,1212.79 
  700.704,1317.9 703.557,1241.87 708.965,1282.83 714.372,1258.64 717.225,1343.33 717.225,1239.13 720.078,1316.71 725.485,1264.47 730.893,1295.37 733.745,1224.67 
  733.745,1321.5 736.598,1248.61 742.006,1274.29 747.413,1236.2 750.266,1321.18 750.266,1216.8 753.119,1302.42 758.526,1267.76 763.934,1307 766.787,1234.48 
  766.787,1337.89 769.639,1264.87 775.047,1293.94 780.454,1228.31 783.307,1305.3 783.307,1201.62 786.16,1283.04 791.567,1254.76 796.975,1289.93 799.828,1255.66 
  799.828,1310.99 802.68,1281.23 808.088,1300.18 813.495,1272.54 816.348,1268.23 816.348,1261.09 819.201,1259.67 824.608,1264.5 830.016,1254.38 832.869,1271.34 
  832.869,1249.66 835.721,1274.63 841.129,1285.88 846.536,1302.49 849.389,1269.86 849.389,1303.94 852.242,1272.48 857.649,1279.69 863.057,1256.67 865.91,1257.92 
  865.91,1249 868.762,1253.07 874.17,1265.85 879.577,1277.71 882.43,1305.1 882.43,1278.07 885.283,1300.51 890.69,1279.75 896.098,1291.55 898.951,1266.67 
  898.951,1287.48 901.803,1261.27 907.211,1250.66 912.618,1262.72 915.471,1243.81 915.471,1284.78 918.324,1263.52 923.731,1301.74 929.139,1268.27 931.992,1339.04 
  931.992,1245.88 934.844,1315.02 940.252,1256.35 945.66,1271.48 948.512,1213.64 948.512,1287.46 951.365,1238.75 956.772,1279.02 962.18,1269.94 965.033,1289.36 
  965.033,1266.11 967.885,1288.65 973.293,1302.12 978.701,1284.26 981.553,1260.87 981.553,1269.03 984.406,1253.18 989.813,1259.01 995.221,1262.84 998.074,1265.24 
  998.074,1259.4 1000.93,1263.16 1006.33,1279.92 1011.74,1312.46 1014.59,1301.13 1014.59,1308.22 1017.45,1285.56 1022.85,1259.22 1028.26,1272.25 1031.11,1255.97 
  1031.11,1279.39 1033.97,1252.52 1039.38,1252.47 1044.78,1268.37 1047.64,1324.73 1047.64,1274.89 1050.49,1320.24 1055.9,1278.15 1061.3,1285.1 1064.16,1245.5 
  1064.16,1303.38 1067.01,1263.79 1072.42,1271.91 1077.82,1222.49 1080.68,1275.47 1080.68,1217.33 1083.53,1281.38 1088.94,1294.72 1094.34,1296.65 1097.2,1278.37 
  1097.2,1290.59 1100.05,1280.64 1105.46,1281.72 1110.86,1273.03 1113.72,1236.92 1113.72,1264.63 1116.57,1231.36 1121.98,1257.34 1127.39,1279.95 1130.24,1318.06 
  1130.24,1282.85 1133.09,1309.17 1138.5,1277.86 1143.91,1286 1146.76,1274.88 1146.76,1295.86 1149.61,1280.24 1155.02,1258.06 1160.43,1224.69 1163.28,1244.23 
  1163.28,1232.23 1166.13,1268.74 1171.54,1313.55 1176.95,1294.23 1179.8,1266.79 1179.8,1276.84 1182.65,1263.23 1188.06,1292.75 1193.47,1289.61 1196.32,1265.05 
  1196.32,1256.84 1199.17,1227.81 1204.58,1217.1 1209.99,1309.69 1212.84,1321.24 1212.84,1342.38 1215.69,1321.71 1221.1,1270.84 1226.51,1252.83 1229.36,1282.06 
  1229.36,1273.41 1232.21,1301.51 1237.62,1289.63 1243.03,1215.56 1245.88,1212.12 1245.88,1192.17 1248.73,1220.98 1254.14,1300.45 1259.55,1375.87 1262.4,1333.07 
  1262.4,1363.14 1265.25,1285.45 1270.66,1191.83 1276.07,1217.56 1278.92,1316.68 1278.92,1288.44 1281.78,1384.24 1287.18,1351.68 1292.59,1030.38 1295.44,775.722 
  1295.44,797.35 1298.3,554.988 1303.7,261.917 1309.11,132.549 1311.96,137.992 1311.96,117.862 1314.82,146.041 1320.22,181.471 1325.63,208.723 1328.48,184.508 
  1328.48,210.001 1331.34,185.43 1336.74,202.95 1342.15,213.642 1345,220.812 1345,208.174 1347.86,203.153 1353.26,170.318 1358.67,175.438 1361.53,189.975 
  1361.53,181.808 1364.38,191.547 1369.79,178.319 1375.19,197.872 1378.05,202.786 1378.05,219.716 1380.9,219.171 1386.31,215.203 1391.71,168.994 1394.57,187.362 
  1394.57,156.545 1397.42,185.117 1402.83,183.166 1408.23,180.58 1411.09,165.103 1411.09,183.117 1413.94,179.852 1419.35,220.29 1424.75,224.572 1427.61,204.681 
  1427.61,207.046 1430.46,183.108 1435.87,173.501 1441.27,192.517 1444.13,193.787 1444.13,189.793 1446.98,180.572 1452.39,163.034 1457.8,206.523 1460.65,220.207 
  1460.65,233.815 1463.5,232.057 1468.91,207.076 1474.32,162.962 1477.17,180.723 1477.17,161.02 1480.02,189.549 1485.43,195.443 1490.84,168.958 1493.69,154.803 
  1493.69,159.838 1496.54,167.249 1501.95,225.59 1507.36,248.459 1510.21,205.112 1510.21,225.701 1513.06,173.44 1518.47,155.857 1523.88,191.9 1526.73,215.481 
  1526.73,208.354 1529.58,210.11 1534.99,163.097 1540.4,151.884 1543.25,201.83 1543.25,182.66 1546.1,244.086 1551.51,264.608 1556.92,182.842 1559.77,112.261 
  1559.77,134.877 1562.62,97.1812 1568.03,176.724 1573.44,269.834 1576.29,273.342 1576.29,268.047 1579.14,222.772 1584.55,86.1857 1589.96,101.737 1592.81,243.716 
  1592.81,226.833 1595.66,440.526 1601.07,875.684 1606.48,1209.83 1609.33,1277.65 1609.33,1303.96 1612.19,1318.03 1617.59,1309.97 1623,1262.8 1625.85,1287.57 
  1625.85,1248.28 1628.71,1279.25 1634.11,1268.01 1639.52,1284.4 1642.37,1257.85 1642.37,1290.83 1645.23,1264.04 1650.63,1271.75 1656.04,1266.52 1658.89,1281.08 
  1658.89,1267.05 1661.75,1279.22 1667.15,1278.82 1672.56,1278.08 1675.41,1285.84 1675.41,1271.94 1678.27,1280.45 1683.68,1264.92 1689.08,1276.49 1691.94,1246.08 
  1691.94,1290.85 1694.79,1258.71 1700.2,1283.71 1705.6,1262.8 1708.46,1318.14 1708.46,1244.98 1711.31,1298.24 1716.72,1261.45 1722.12,1293.06 1724.98,1238.22 
  1724.98,1307.03 1727.83,1253.94 1733.24,1276.82 1738.64,1264.96 1741.5,1276.85 1741.5,1266.66 1744.35,1274.43 1749.76,1284.17 1755.16,1269.48 1758.02,1312.45 
  1758.02,1249.35 1760.87,1293.98 1766.28,1252.61 1771.69,1293.93 1774.54,1215.82 1774.54,1319.76 1777.39,1242.38 1782.8,1292.17 1788.21,1258.83 1791.06,1313.39 
  1791.06,1240.49 1793.91,1293.15 1799.32,1271.77 1804.73,1280.69 1807.58,1261.84 1807.58,1282.34 1810.43,1267.74 1815.84,1267.36 1821.25,1272.55 1824.1,1261.49 
  1824.1,1281.74 1826.95,1268.18 1832.36,1286.12 1837.77,1270.68 1840.62,1307.42 1840.62,1251.78 1843.47,1290.4 1848.88,1259.17 1854.29,1287.83 1857.14,1219.4 
  1857.14,1311.82 1859.99,1245.16 1865.4,1292.46 1870.81,1252.52 1873.66,1323.92 1873.66,1232.12 1876.51,1300.84 1881.92,1266.14 1887.33,1286.24 1890.18,1261.28 
  1890.18,1288.42 1893.03,1267.72 1898.44,1264.11 1903.85,1279.44 1906.7,1240.66 1906.7,1297.7 1909.55,1256.18 1914.96,1296.86 1920.37,1258.01 1923.22,1328.48 
  1923.22,1229.7 1926.08,1301.49 1931.48,1254.63 1936.89,1289.57 1939.74,1222.34 1939.74,1311.94 1942.6,1248.57 1948,1285.45 1953.41,1261.76 1956.26,1299.35 
  1956.26,1254.62 1959.12,1288.37 1964.52,1278.44 1969.93,1272.85 1972.78,1286.31 1972.78,1264.43 1975.64,1280.08 1981.04,1257.05 1986.45,1281.19 1989.3,1244.48 
  1989.3,1298.25 1992.16,1259.84 1997.56,1288.35 2002.97,1270.88 2005.83,1305.11 2005.83,1254.63 2008.68,1288.64 2014.09,1265.7 2019.49,1280.12 2022.35,1237.28 
  2022.35,1294.19 2025.2,1253.88 2030.61,1282.48 2036.01,1260.1 2038.87,1307.62 2038.87,1248.48 2041.72,1293.86 2047.13,1271.44 2052.53,1285.65 2055.39,1265 
  2055.39,1285.16 2058.24,1268.31 2063.65,1265.73 2069.05,1275.34 2071.91,1240.25 2071.91,1292.54 2074.76,1256.55 2080.17,1296.2 2085.58,1256.84 2088.43,1330.02 
  2088.43,1231.97 2091.28,1304.82 2096.69,1256.09 2102.1,1286.7 2104.95,1235.21 2104.95,1303.08 2107.8,1254.17 2113.21,1275.65 2118.62,1270.64 2121.47,1283.36 
  2121.47,1269.75 2124.32,1279.75 2129.73,1284.24 2135.14,1274.77 2137.99,1279.55 2137.99,1267.66 2140.84,1275.5 2146.25,1265.38 2151.66,1268.41 2154.51,1256.06 
  2154.51,1279.72 2157.36,1266.88 2162.77,1284.31 2168.18,1269.61 2171.03,1314 2171.03,1252.8 2173.88,1296.8 2179.29,1260.33 2184.7,1289.17 2187.55,1223.11 
  2187.55,1308.25 2190.4,1245.51 2195.81,1285.25 2201.22,1256.75 2204.07,1297.73 2204.07,1250.37 2206.92,1289.35 2212.33,1282.28 2217.74,1271.46 2220.59,1293.84 
  2220.59,1260.96 2223.44,1286.39 2228.85,1254.74 2234.26,1278.94 2237.11,1235.57 2237.11,1301.24 2239.96,1256.57 2245.37,1289.8 2250.78,1264.66 2253.63,1317.3 
  2253.63,1250.07 2256.49,1298.5 2261.89,1264.91 2267.3,1278.24 2270.15,1254.83 2270.15,1283.68 2273.01,1262.45 2278.41,1266.53 2283.82,1275.28 2286.67,1269.72 
  2286.67,1282.57 2289.53,1275.39 2294.93,1288.72 2300.34,1273.3 2303.19,1284.19 2303.19,1267.05 2306.05,1278.44 2311.45,1266.47 2316.86,1260.61 2319.71,1268.91 
  2319.71,1266 2322.57,1274.1 2327.98,1274.94 2333.38,1277.87 2336.24,1300.47 2336.24,1272.48 2339.09,1293.09 2344.5,1266.91 2349.9,1283.19 2352.76,1234.71 
  
  "/>
<path clip-path="url(#clip100)" d="
M1786.57 274.549 L2282.27 274.549 L2282.27 93.1086 L1786.57 93.1086  Z
  " fill="#ffffff" fill-rule="evenodd" fill-opacity="1"/>
<polyline clip-path="url(#clip100)" style="stroke:#000000; stroke-width:4; stroke-opacity:1; fill:none" points="
  1786.57,274.549 2282.27,274.549 2282.27,93.1086 1786.57,93.1086 1786.57,274.549 
  "/>
<polyline clip-path="url(#clip100)" style="stroke:#009af9; stroke-width:4; stroke-opacity:1; fill:none" points="
  1810.07,153.589 1951.04,153.589 
  "/>
<path clip-path="url(#clip100)" d="M 0 0 M1981.94 137.582 L1981.94 144.943 L1990.72 144.943 L1990.72 148.253 L1981.94 148.253 L1981.94 162.327 Q1981.94 165.498 1982.8 166.401 Q1983.68 167.304 1986.34 167.304 L1990.72 167.304 L1990.72 170.869 L1986.34 170.869 Q1981.41 170.869 1979.54 169.04 Q1977.66 167.188 1977.66 162.327 L1977.66 148.253 L1974.54 148.253 L1974.54 144.943 L1977.66 144.943 L1977.66 137.582 L1981.94 137.582 Z" fill="#000000" fill-rule="evenodd" fill-opacity="1" /><path clip-path="url(#clip100)" d="M 0 0 M1995.74 149.341 L2025.42 149.341 L2025.42 153.23 L1995.74 153.23 L1995.74 149.341 M1995.74 158.785 L2025.42 158.785 L2025.42 162.721 L1995.74 162.721 L1995.74 158.785 Z" fill="#000000" fill-rule="evenodd" fill-opacity="1" /><path clip-path="url(#clip100)" d="M 0 0 M2040.49 139.387 Q2036.87 139.387 2035.05 142.952 Q2033.24 146.494 2033.24 153.623 Q2033.24 160.73 2035.05 164.295 Q2036.87 167.836 2040.49 167.836 Q2044.12 167.836 2045.93 164.295 Q2047.75 160.73 2047.75 153.623 Q2047.75 146.494 2045.93 142.952 Q2044.12 139.387 2040.49 139.387 M2040.49 135.684 Q2046.3 135.684 2049.35 140.29 Q2052.43 144.873 2052.43 153.623 Q2052.43 162.35 2049.35 166.957 Q2046.3 171.54 2040.49 171.54 Q2034.68 171.54 2031.6 166.957 Q2028.54 162.35 2028.54 153.623 Q2028.54 144.873 2031.6 140.29 Q2034.68 135.684 2040.49 135.684 Z" fill="#000000" fill-rule="evenodd" fill-opacity="1" /><path clip-path="url(#clip100)" d="M 0 0 M2057.5 164.989 L2062.38 164.989 L2062.38 170.869 L2057.5 170.869 L2057.5 164.989 Z" fill="#000000" fill-rule="evenodd" fill-opacity="1" /><path clip-path="url(#clip100)" d="M 0 0 M2077.45 139.387 Q2073.84 139.387 2072.01 142.952 Q2070.21 146.494 2070.21 153.623 Q2070.21 160.73 2072.01 164.295 Q2073.84 167.836 2077.45 167.836 Q2081.09 167.836 2082.89 164.295 Q2084.72 160.73 2084.72 153.623 Q2084.72 146.494 2082.89 142.952 Q2081.09 139.387 2077.45 139.387 M2077.45 135.684 Q2083.26 135.684 2086.32 140.29 Q2089.4 144.873 2089.4 153.623 Q2089.4 162.35 2086.32 166.957 Q2083.26 171.54 2077.45 171.54 Q2071.64 171.54 2068.56 166.957 Q2065.51 162.35 2065.51 153.623 Q2065.51 144.873 2068.56 140.29 Q2071.64 135.684 2077.45 135.684 Z" fill="#000000" fill-rule="evenodd" fill-opacity="1" /><path clip-path="url(#clip100)" d="M 0 0 M2108.54 134.85 L2118.36 134.85 L2118.36 138.16 L2112.8 138.16 L2112.8 173.808 L2118.36 173.808 L2118.36 177.119 L2108.54 177.119 L2108.54 134.85 Z" fill="#000000" fill-rule="evenodd" fill-opacity="1" /><path clip-path="url(#clip100)" d="M 0 0 M2139.35 145.707 L2139.35 149.734 Q2137.55 148.809 2135.6 148.346 Q2133.66 147.883 2131.57 147.883 Q2128.4 147.883 2126.81 148.855 Q2125.23 149.827 2125.23 151.771 Q2125.23 153.253 2126.37 154.109 Q2127.5 154.943 2130.93 155.707 L2132.38 156.031 Q2136.92 157.003 2138.82 158.785 Q2140.74 160.545 2140.74 163.716 Q2140.74 167.327 2137.87 169.433 Q2135.02 171.54 2130.02 171.54 Q2127.94 171.54 2125.67 171.123 Q2123.43 170.73 2120.93 169.92 L2120.93 165.521 Q2123.29 166.748 2125.58 167.373 Q2127.87 167.975 2130.12 167.975 Q2133.12 167.975 2134.74 166.957 Q2136.37 165.915 2136.37 164.04 Q2136.37 162.304 2135.18 161.378 Q2134.03 160.452 2130.07 159.596 L2128.59 159.248 Q2124.63 158.415 2122.87 156.702 Q2121.11 154.966 2121.11 151.957 Q2121.11 148.299 2123.7 146.309 Q2126.3 144.318 2131.06 144.318 Q2133.43 144.318 2135.51 144.665 Q2137.59 145.012 2139.35 145.707 Z" fill="#000000" fill-rule="evenodd" fill-opacity="1" /><path clip-path="url(#clip100)" d="M 0 0 M2155.16 134.85 L2155.16 177.119 L2145.35 177.119 L2145.35 173.808 L2150.88 173.808 L2150.88 138.16 L2145.35 138.16 L2145.35 134.85 L2155.16 134.85 Z" fill="#000000" fill-rule="evenodd" fill-opacity="1" /><polyline clip-path="url(#clip100)" style="stroke:#e26f46; stroke-width:4; stroke-opacity:1; fill:none" points="
  1810.07,214.069 1951.04,214.069 
  "/>
<path clip-path="url(#clip100)" d="M 0 0 M1981.94 198.062 L1981.94 205.423 L1990.72 205.423 L1990.72 208.733 L1981.94 208.733 L1981.94 222.807 Q1981.94 225.978 1982.8 226.881 Q1983.68 227.784 1986.34 227.784 L1990.72 227.784 L1990.72 231.349 L1986.34 231.349 Q1981.41 231.349 1979.54 229.52 Q1977.66 227.668 1977.66 222.807 L1977.66 208.733 L1974.54 208.733 L1974.54 205.423 L1977.66 205.423 L1977.66 198.062 L1981.94 198.062 Z" fill="#000000" fill-rule="evenodd" fill-opacity="1" /><path clip-path="url(#clip100)" d="M 0 0 M1995.74 209.821 L2025.42 209.821 L2025.42 213.71 L1995.74 213.71 L1995.74 209.821 M1995.74 219.265 L2025.42 219.265 L2025.42 223.201 L1995.74 223.201 L1995.74 219.265 Z" fill="#000000" fill-rule="evenodd" fill-opacity="1" /><path clip-path="url(#clip100)" d="M 0 0 M2043.33 200.863 L2031.53 219.312 L2043.33 219.312 L2043.33 200.863 M2042.11 196.789 L2047.99 196.789 L2047.99 219.312 L2052.92 219.312 L2052.92 223.201 L2047.99 223.201 L2047.99 231.349 L2043.33 231.349 L2043.33 223.201 L2027.73 223.201 L2027.73 218.687 L2042.11 196.789 Z" fill="#000000" fill-rule="evenodd" fill-opacity="1" /><path clip-path="url(#clip100)" d="M 0 0 M2058.03 196.789 L2076.39 196.789 L2076.39 200.724 L2062.31 200.724 L2062.31 209.196 Q2063.33 208.849 2064.35 208.687 Q2065.37 208.502 2066.39 208.502 Q2072.18 208.502 2075.56 211.673 Q2078.93 214.844 2078.93 220.261 Q2078.93 225.839 2075.46 228.941 Q2071.99 232.02 2065.67 232.02 Q2063.5 232.02 2061.23 231.65 Q2058.98 231.279 2056.57 230.538 L2056.57 225.839 Q2058.66 226.974 2060.88 227.529 Q2063.1 228.085 2065.58 228.085 Q2069.58 228.085 2071.92 225.978 Q2074.26 223.872 2074.26 220.261 Q2074.26 216.65 2071.92 214.543 Q2069.58 212.437 2065.58 212.437 Q2063.7 212.437 2061.83 212.853 Q2059.98 213.27 2058.03 214.15 L2058.03 196.789 Z" fill="#000000" fill-rule="evenodd" fill-opacity="1" /><path clip-path="url(#clip100)" d="M 0 0 M2094 199.867 Q2090.39 199.867 2088.56 203.432 Q2086.76 206.974 2086.76 214.103 Q2086.76 221.21 2088.56 224.775 Q2090.39 228.316 2094 228.316 Q2097.64 228.316 2099.44 224.775 Q2101.27 221.21 2101.27 214.103 Q2101.27 206.974 2099.44 203.432 Q2097.64 199.867 2094 199.867 M2094 196.164 Q2099.81 196.164 2102.87 200.77 Q2105.95 205.353 2105.95 214.103 Q2105.95 222.83 2102.87 227.437 Q2099.81 232.02 2094 232.02 Q2088.19 232.02 2085.12 227.437 Q2082.06 222.83 2082.06 214.103 Q2082.06 205.353 2085.12 200.77 Q2088.19 196.164 2094 196.164 Z" fill="#000000" fill-rule="evenodd" fill-opacity="1" /><path clip-path="url(#clip100)" d="M 0 0 M2111.02 225.469 L2115.9 225.469 L2115.9 231.349 L2111.02 231.349 L2111.02 225.469 Z" fill="#000000" fill-rule="evenodd" fill-opacity="1" /><path clip-path="url(#clip100)" d="M 0 0 M2133.82 200.863 L2122.01 219.312 L2133.82 219.312 L2133.82 200.863 M2132.59 196.789 L2138.47 196.789 L2138.47 219.312 L2143.4 219.312 L2143.4 223.201 L2138.47 223.201 L2138.47 231.349 L2133.82 231.349 L2133.82 223.201 L2118.22 223.201 L2118.22 218.687 L2132.59 196.789 Z" fill="#000000" fill-rule="evenodd" fill-opacity="1" /><path clip-path="url(#clip100)" d="M 0 0 M2147.29 196.789 L2169.51 196.789 L2169.51 198.779 L2156.97 231.349 L2152.08 231.349 L2163.89 200.724 L2147.29 200.724 L2147.29 196.789 Z" fill="#000000" fill-rule="evenodd" fill-opacity="1" /><path clip-path="url(#clip100)" d="M 0 0 M2188.66 195.33 L2198.47 195.33 L2198.47 198.64 L2192.92 198.64 L2192.92 234.288 L2198.47 234.288 L2198.47 237.599 L2188.66 237.599 L2188.66 195.33 Z" fill="#000000" fill-rule="evenodd" fill-opacity="1" /><path clip-path="url(#clip100)" d="M 0 0 M2219.47 206.187 L2219.47 210.214 Q2217.66 209.289 2215.72 208.826 Q2213.77 208.363 2211.69 208.363 Q2208.52 208.363 2206.92 209.335 Q2205.35 210.307 2205.35 212.251 Q2205.35 213.733 2206.48 214.589 Q2207.61 215.423 2211.04 216.187 L2212.5 216.511 Q2217.04 217.483 2218.93 219.265 Q2220.86 221.025 2220.86 224.196 Q2220.86 227.807 2217.99 229.913 Q2215.14 232.02 2210.14 232.02 Q2208.05 232.02 2205.79 231.603 Q2203.54 231.21 2201.04 230.4 L2201.04 226.001 Q2203.4 227.228 2205.69 227.853 Q2207.99 228.455 2210.23 228.455 Q2213.24 228.455 2214.86 227.437 Q2216.48 226.395 2216.48 224.52 Q2216.48 222.784 2215.3 221.858 Q2214.14 220.932 2210.18 220.076 L2208.7 219.728 Q2204.74 218.895 2202.99 217.182 Q2201.23 215.446 2201.23 212.437 Q2201.23 208.779 2203.82 206.789 Q2206.41 204.798 2211.18 204.798 Q2213.54 204.798 2215.62 205.145 Q2217.71 205.492 2219.47 206.187 Z" fill="#000000" fill-rule="evenodd" fill-opacity="1" /><path clip-path="url(#clip100)" d="M 0 0 M2235.28 195.33 L2235.28 237.599 L2225.46 237.599 L2225.46 234.288 L2230.99 234.288 L2230.99 198.64 L2225.46 198.64 L2225.46 195.33 L2235.28 195.33 Z" fill="#000000" fill-rule="evenodd" fill-opacity="1" /></svg>
