<?xml version="1.0" encoding="utf-8"?>
<svg xmlns="http://www.w3.org/2000/svg" xmlns:xlink="http://www.w3.org/1999/xlink" width="600" height="400" viewBox="0 0 2400 1600">
<defs>
  <clipPath id="clip970">
    <rect x="0" y="0" width="2400" height="1600"/>
  </clipPath>
</defs>
<path clip-path="url(#clip970)" d="
M0 1600 L2400 1600 L2400 0 L0 0  Z
  " fill="#ffffff" fill-rule="evenodd" fill-opacity="1"/>
<defs>
  <clipPath id="clip971">
    <rect x="480" y="0" width="1681" height="1600"/>
  </clipPath>
</defs>
<path clip-path="url(#clip970)" d="
M238.13 1423.18 L2352.76 1423.18 L2352.76 47.2441 L238.13 47.2441  Z
  " fill="#ffffff" fill-rule="evenodd" fill-opacity="1"/>
<defs>
  <clipPath id="clip972">
    <rect x="238" y="47" width="2116" height="1377"/>
  </clipPath>
</defs>
<polyline clip-path="url(#clip972)" style="stroke:#000000; stroke-width:2; stroke-opacity:0.1; fill:none" points="
  297.978,1423.18 297.978,47.2441 
  "/>
<polyline clip-path="url(#clip972)" style="stroke:#000000; stroke-width:2; stroke-opacity:0.1; fill:none" points="
  867.958,1423.18 867.958,47.2441 
  "/>
<polyline clip-path="url(#clip972)" style="stroke:#000000; stroke-width:2; stroke-opacity:0.1; fill:none" points="
  1437.94,1423.18 1437.94,47.2441 
  "/>
<polyline clip-path="url(#clip972)" style="stroke:#000000; stroke-width:2; stroke-opacity:0.1; fill:none" points="
  2007.92,1423.18 2007.92,47.2441 
  "/>
<polyline clip-path="url(#clip970)" style="stroke:#000000; stroke-width:4; stroke-opacity:1; fill:none" points="
  238.13,1423.18 2352.76,1423.18 
  "/>
<polyline clip-path="url(#clip970)" style="stroke:#000000; stroke-width:4; stroke-opacity:1; fill:none" points="
  297.978,1423.18 297.978,1406.67 
  "/>
<polyline clip-path="url(#clip970)" style="stroke:#000000; stroke-width:4; stroke-opacity:1; fill:none" points="
  867.958,1423.18 867.958,1406.67 
  "/>
<polyline clip-path="url(#clip970)" style="stroke:#000000; stroke-width:4; stroke-opacity:1; fill:none" points="
  1437.94,1423.18 1437.94,1406.67 
  "/>
<polyline clip-path="url(#clip970)" style="stroke:#000000; stroke-width:4; stroke-opacity:1; fill:none" points="
  2007.92,1423.18 2007.92,1406.67 
  "/>
<path clip-path="url(#clip970)" d="M 0 0 M297.978 1452.37 Q294.367 1452.37 292.538 1455.94 Q290.733 1459.48 290.733 1466.61 Q290.733 1473.71 292.538 1477.28 Q294.367 1480.82 297.978 1480.82 Q301.612 1480.82 303.418 1477.28 Q305.246 1473.71 305.246 1466.61 Q305.246 1459.48 303.418 1455.94 Q301.612 1452.37 297.978 1452.37 M297.978 1448.67 Q303.788 1448.67 306.844 1453.27 Q309.922 1457.86 309.922 1466.61 Q309.922 1475.33 306.844 1479.94 Q303.788 1484.52 297.978 1484.52 Q292.168 1484.52 289.089 1479.94 Q286.034 1475.33 286.034 1466.61 Q286.034 1457.86 289.089 1453.27 Q292.168 1448.67 297.978 1448.67 Z" fill="#000000" fill-rule="evenodd" fill-opacity="1" /><path clip-path="url(#clip970)" d="M 0 0 M831.326 1479.92 L838.965 1479.92 L838.965 1453.55 L830.655 1455.22 L830.655 1450.96 L838.919 1449.29 L843.595 1449.29 L843.595 1479.92 L851.234 1479.92 L851.234 1483.85 L831.326 1483.85 L831.326 1479.92 Z" fill="#000000" fill-rule="evenodd" fill-opacity="1" /><path clip-path="url(#clip970)" d="M 0 0 M866.303 1452.37 Q862.692 1452.37 860.863 1455.94 Q859.058 1459.48 859.058 1466.61 Q859.058 1473.71 860.863 1477.28 Q862.692 1480.82 866.303 1480.82 Q869.937 1480.82 871.743 1477.28 Q873.571 1473.71 873.571 1466.61 Q873.571 1459.48 871.743 1455.94 Q869.937 1452.37 866.303 1452.37 M866.303 1448.67 Q872.113 1448.67 875.169 1453.27 Q878.247 1457.86 878.247 1466.61 Q878.247 1475.33 875.169 1479.94 Q872.113 1484.52 866.303 1484.52 Q860.493 1484.52 857.414 1479.94 Q854.359 1475.33 854.359 1466.61 Q854.359 1457.86 857.414 1453.27 Q860.493 1448.67 866.303 1448.67 Z" fill="#000000" fill-rule="evenodd" fill-opacity="1" /><path clip-path="url(#clip970)" d="M 0 0 M893.317 1452.37 Q889.706 1452.37 887.877 1455.94 Q886.071 1459.48 886.071 1466.61 Q886.071 1473.71 887.877 1477.28 Q889.706 1480.82 893.317 1480.82 Q896.951 1480.82 898.756 1477.28 Q900.585 1473.71 900.585 1466.61 Q900.585 1459.48 898.756 1455.94 Q896.951 1452.37 893.317 1452.37 M893.317 1448.67 Q899.127 1448.67 902.182 1453.27 Q905.261 1457.86 905.261 1466.61 Q905.261 1475.33 902.182 1479.94 Q899.127 1484.52 893.317 1484.52 Q887.506 1484.52 884.428 1479.94 Q881.372 1475.33 881.372 1466.61 Q881.372 1457.86 884.428 1453.27 Q887.506 1448.67 893.317 1448.67 Z" fill="#000000" fill-rule="evenodd" fill-opacity="1" /><path clip-path="url(#clip970)" d="M 0 0 M1405.58 1479.92 L1421.9 1479.92 L1421.9 1483.85 L1399.95 1483.85 L1399.95 1479.92 Q1402.61 1477.16 1407.2 1472.53 Q1411.8 1467.88 1412.98 1466.54 Q1415.23 1464.01 1416.11 1462.28 Q1417.01 1460.52 1417.01 1458.83 Q1417.01 1456.07 1415.07 1454.34 Q1413.15 1452.6 1410.04 1452.6 Q1407.85 1452.6 1405.39 1453.37 Q1402.96 1454.13 1400.18 1455.68 L1400.18 1450.96 Q1403.01 1449.82 1405.46 1449.25 Q1407.91 1448.67 1409.95 1448.67 Q1415.32 1448.67 1418.52 1451.35 Q1421.71 1454.04 1421.71 1458.53 Q1421.71 1460.66 1420.9 1462.58 Q1420.11 1464.48 1418.01 1467.07 Q1417.43 1467.74 1414.33 1470.96 Q1411.23 1474.15 1405.58 1479.92 Z" fill="#000000" fill-rule="evenodd" fill-opacity="1" /><path clip-path="url(#clip970)" d="M 0 0 M1436.97 1452.37 Q1433.35 1452.37 1431.53 1455.94 Q1429.72 1459.48 1429.72 1466.61 Q1429.72 1473.71 1431.53 1477.28 Q1433.35 1480.82 1436.97 1480.82 Q1440.6 1480.82 1442.41 1477.28 Q1444.23 1473.71 1444.23 1466.61 Q1444.23 1459.48 1442.41 1455.94 Q1440.6 1452.37 1436.97 1452.37 M1436.97 1448.67 Q1442.78 1448.67 1445.83 1453.27 Q1448.91 1457.86 1448.91 1466.61 Q1448.91 1475.33 1445.83 1479.94 Q1442.78 1484.52 1436.97 1484.52 Q1431.16 1484.52 1428.08 1479.94 Q1425.02 1475.33 1425.02 1466.61 Q1425.02 1457.86 1428.08 1453.27 Q1431.16 1448.67 1436.97 1448.67 Z" fill="#000000" fill-rule="evenodd" fill-opacity="1" /><path clip-path="url(#clip970)" d="M 0 0 M1463.98 1452.37 Q1460.37 1452.37 1458.54 1455.94 Q1456.73 1459.48 1456.73 1466.61 Q1456.73 1473.71 1458.54 1477.28 Q1460.37 1480.82 1463.98 1480.82 Q1467.61 1480.82 1469.42 1477.28 Q1471.25 1473.71 1471.25 1466.61 Q1471.25 1459.48 1469.42 1455.94 Q1467.61 1452.37 1463.98 1452.37 M1463.98 1448.67 Q1469.79 1448.67 1472.85 1453.27 Q1475.92 1457.86 1475.92 1466.61 Q1475.92 1475.33 1472.85 1479.94 Q1469.79 1484.52 1463.98 1484.52 Q1458.17 1484.52 1455.09 1479.94 Q1452.04 1475.33 1452.04 1466.61 Q1452.04 1457.86 1455.09 1453.27 Q1458.17 1448.67 1463.98 1448.67 Z" fill="#000000" fill-rule="evenodd" fill-opacity="1" /><path clip-path="url(#clip970)" d="M 0 0 M1985.15 1465.22 Q1988.51 1465.94 1990.38 1468.2 Q1992.28 1470.47 1992.28 1473.81 Q1992.28 1478.92 1988.76 1481.72 Q1985.24 1484.52 1978.76 1484.52 Q1976.59 1484.52 1974.27 1484.08 Q1971.98 1483.67 1969.53 1482.81 L1969.53 1478.3 Q1971.47 1479.43 1973.79 1480.01 Q1976.1 1480.59 1978.62 1480.59 Q1983.02 1480.59 1985.31 1478.85 Q1987.63 1477.12 1987.63 1473.81 Q1987.63 1470.75 1985.48 1469.04 Q1983.35 1467.3 1979.53 1467.3 L1975.5 1467.3 L1975.5 1463.46 L1979.71 1463.46 Q1983.16 1463.46 1984.99 1462.09 Q1986.82 1460.7 1986.82 1458.11 Q1986.82 1455.45 1984.92 1454.04 Q1983.05 1452.6 1979.53 1452.6 Q1977.61 1452.6 1975.41 1453.02 Q1973.21 1453.44 1970.57 1454.31 L1970.57 1450.15 Q1973.23 1449.41 1975.55 1449.04 Q1977.88 1448.67 1979.94 1448.67 Q1985.27 1448.67 1988.37 1451.1 Q1991.47 1453.5 1991.47 1457.63 Q1991.47 1460.5 1989.83 1462.49 Q1988.18 1464.45 1985.15 1465.22 Z" fill="#000000" fill-rule="evenodd" fill-opacity="1" /><path clip-path="url(#clip970)" d="M 0 0 M2007.35 1452.37 Q2003.74 1452.37 2001.91 1455.94 Q2000.11 1459.48 2000.11 1466.61 Q2000.11 1473.71 2001.91 1477.28 Q2003.74 1480.82 2007.35 1480.82 Q2010.99 1480.82 2012.79 1477.28 Q2014.62 1473.71 2014.62 1466.61 Q2014.62 1459.48 2012.79 1455.94 Q2010.99 1452.37 2007.35 1452.37 M2007.35 1448.67 Q2013.16 1448.67 2016.22 1453.27 Q2019.3 1457.86 2019.3 1466.61 Q2019.3 1475.33 2016.22 1479.94 Q2013.16 1484.52 2007.35 1484.52 Q2001.54 1484.52 1998.46 1479.94 Q1995.41 1475.33 1995.41 1466.61 Q1995.41 1457.86 1998.46 1453.27 Q2001.54 1448.67 2007.35 1448.67 Z" fill="#000000" fill-rule="evenodd" fill-opacity="1" /><path clip-path="url(#clip970)" d="M 0 0 M2034.36 1452.37 Q2030.75 1452.37 2028.92 1455.94 Q2027.12 1459.48 2027.12 1466.61 Q2027.12 1473.71 2028.92 1477.28 Q2030.75 1480.82 2034.36 1480.82 Q2038 1480.82 2039.8 1477.28 Q2041.63 1473.71 2041.63 1466.61 Q2041.63 1459.48 2039.8 1455.94 Q2038 1452.37 2034.36 1452.37 M2034.36 1448.67 Q2040.17 1448.67 2043.23 1453.27 Q2046.31 1457.86 2046.31 1466.61 Q2046.31 1475.33 2043.23 1479.94 Q2040.17 1484.52 2034.36 1484.52 Q2028.55 1484.52 2025.48 1479.94 Q2022.42 1475.33 2022.42 1466.61 Q2022.42 1457.86 2025.48 1453.27 Q2028.55 1448.67 2034.36 1448.67 Z" fill="#000000" fill-rule="evenodd" fill-opacity="1" /><path clip-path="url(#clip970)" d="M 0 0 M1312.06 1520.4 L1299.17 1537.74 L1312.73 1556.04 L1305.82 1556.04 L1295.44 1542.04 L1285.07 1556.04 L1278.16 1556.04 L1292.01 1537.39 L1279.34 1520.4 L1286.24 1520.4 L1295.7 1533.1 L1305.15 1520.4 L1312.06 1520.4 Z" fill="#000000" fill-rule="evenodd" fill-opacity="1" /><polyline clip-path="url(#clip972)" style="stroke:#000000; stroke-width:2; stroke-opacity:0.1; fill:none" points="
  238.13,1274.07 2352.76,1274.07 
  "/>
<polyline clip-path="url(#clip972)" style="stroke:#000000; stroke-width:2; stroke-opacity:0.1; fill:none" points="
  238.13,1003.55 2352.76,1003.55 
  "/>
<polyline clip-path="url(#clip972)" style="stroke:#000000; stroke-width:2; stroke-opacity:0.1; fill:none" points="
  238.13,733.043 2352.76,733.043 
  "/>
<polyline clip-path="url(#clip972)" style="stroke:#000000; stroke-width:2; stroke-opacity:0.1; fill:none" points="
  238.13,462.531 2352.76,462.531 
  "/>
<polyline clip-path="url(#clip972)" style="stroke:#000000; stroke-width:2; stroke-opacity:0.1; fill:none" points="
  238.13,192.019 2352.76,192.019 
  "/>
<polyline clip-path="url(#clip970)" style="stroke:#000000; stroke-width:4; stroke-opacity:1; fill:none" points="
  238.13,1423.18 238.13,47.2441 
  "/>
<polyline clip-path="url(#clip970)" style="stroke:#000000; stroke-width:4; stroke-opacity:1; fill:none" points="
  238.13,1274.07 263.506,1274.07 
  "/>
<polyline clip-path="url(#clip970)" style="stroke:#000000; stroke-width:4; stroke-opacity:1; fill:none" points="
  238.13,1003.55 263.506,1003.55 
  "/>
<polyline clip-path="url(#clip970)" style="stroke:#000000; stroke-width:4; stroke-opacity:1; fill:none" points="
  238.13,733.043 263.506,733.043 
  "/>
<polyline clip-path="url(#clip970)" style="stroke:#000000; stroke-width:4; stroke-opacity:1; fill:none" points="
  238.13,462.531 263.506,462.531 
  "/>
<polyline clip-path="url(#clip970)" style="stroke:#000000; stroke-width:4; stroke-opacity:1; fill:none" points="
  238.13,192.019 263.506,192.019 
  "/>
<path clip-path="url(#clip970)" d="M 0 0 M126.205 1259.86 Q122.593 1259.86 120.765 1263.43 Q118.959 1266.97 118.959 1274.1 Q118.959 1281.21 120.765 1284.77 Q122.593 1288.31 126.205 1288.31 Q129.839 1288.31 131.644 1284.77 Q133.473 1281.21 133.473 1274.1 Q133.473 1266.97 131.644 1263.43 Q129.839 1259.86 126.205 1259.86 M126.205 1256.16 Q132.015 1256.16 135.07 1260.77 Q138.149 1265.35 138.149 1274.1 Q138.149 1282.83 135.07 1287.43 Q132.015 1292.02 126.205 1292.02 Q120.394 1292.02 117.316 1287.43 Q114.26 1282.83 114.26 1274.1 Q114.26 1265.35 117.316 1260.77 Q120.394 1256.16 126.205 1256.16 Z" fill="#000000" fill-rule="evenodd" fill-opacity="1" /><path clip-path="url(#clip970)" d="M 0 0 M143.218 1285.47 L148.103 1285.47 L148.103 1291.35 L143.218 1291.35 L143.218 1285.47 Z" fill="#000000" fill-rule="evenodd" fill-opacity="1" /><path clip-path="url(#clip970)" d="M 0 0 M163.172 1259.86 Q159.561 1259.86 157.732 1263.43 Q155.927 1266.97 155.927 1274.1 Q155.927 1281.21 157.732 1284.77 Q159.561 1288.31 163.172 1288.31 Q166.806 1288.31 168.612 1284.77 Q170.44 1281.21 170.44 1274.1 Q170.44 1266.97 168.612 1263.43 Q166.806 1259.86 163.172 1259.86 M163.172 1256.16 Q168.982 1256.16 172.038 1260.77 Q175.116 1265.35 175.116 1274.1 Q175.116 1282.83 172.038 1287.43 Q168.982 1292.02 163.172 1292.02 Q157.362 1292.02 154.283 1287.43 Q151.228 1282.83 151.228 1274.1 Q151.228 1265.35 154.283 1260.77 Q157.362 1256.16 163.172 1256.16 Z" fill="#000000" fill-rule="evenodd" fill-opacity="1" /><path clip-path="url(#clip970)" d="M 0 0 M190.186 1259.86 Q186.575 1259.86 184.746 1263.43 Q182.94 1266.97 182.94 1274.1 Q182.94 1281.21 184.746 1284.77 Q186.575 1288.31 190.186 1288.31 Q193.82 1288.31 195.625 1284.77 Q197.454 1281.21 197.454 1274.1 Q197.454 1266.97 195.625 1263.43 Q193.82 1259.86 190.186 1259.86 M190.186 1256.16 Q195.996 1256.16 199.051 1260.77 Q202.13 1265.35 202.13 1274.1 Q202.13 1282.83 199.051 1287.43 Q195.996 1292.02 190.186 1292.02 Q184.376 1292.02 181.297 1287.43 Q178.241 1282.83 178.241 1274.1 Q178.241 1265.35 181.297 1260.77 Q184.376 1256.16 190.186 1256.16 Z" fill="#000000" fill-rule="evenodd" fill-opacity="1" /><path clip-path="url(#clip970)" d="M 0 0 M128.797 989.353 Q125.186 989.353 123.357 992.918 Q121.552 996.459 121.552 1003.59 Q121.552 1010.7 123.357 1014.26 Q125.186 1017.8 128.797 1017.8 Q132.431 1017.8 134.237 1014.26 Q136.066 1010.7 136.066 1003.59 Q136.066 996.459 134.237 992.918 Q132.431 989.353 128.797 989.353 M128.797 985.649 Q134.607 985.649 137.663 990.256 Q140.741 994.839 140.741 1003.59 Q140.741 1012.32 137.663 1016.92 Q134.607 1021.51 128.797 1021.51 Q122.987 1021.51 119.908 1016.92 Q116.853 1012.32 116.853 1003.59 Q116.853 994.839 119.908 990.256 Q122.987 985.649 128.797 985.649 Z" fill="#000000" fill-rule="evenodd" fill-opacity="1" /><path clip-path="url(#clip970)" d="M 0 0 M145.811 1014.95 L150.695 1014.95 L150.695 1020.83 L145.811 1020.83 L145.811 1014.95 Z" fill="#000000" fill-rule="evenodd" fill-opacity="1" /><path clip-path="url(#clip970)" d="M 0 0 M159.792 1016.9 L176.112 1016.9 L176.112 1020.83 L154.167 1020.83 L154.167 1016.9 Q156.829 1014.14 161.413 1009.51 Q166.019 1004.86 167.2 1003.52 Q169.445 1001 170.325 999.26 Q171.227 997.501 171.227 995.811 Q171.227 993.057 169.283 991.32 Q167.362 989.584 164.26 989.584 Q162.061 989.584 159.607 990.348 Q157.177 991.112 154.399 992.663 L154.399 987.941 Q157.223 986.807 159.677 986.228 Q162.13 985.649 164.167 985.649 Q169.538 985.649 172.732 988.334 Q175.926 991.02 175.926 995.51 Q175.926 997.64 175.116 999.561 Q174.329 1001.46 172.223 1004.05 Q171.644 1004.72 168.542 1007.94 Q165.44 1011.14 159.792 1016.9 Z" fill="#000000" fill-rule="evenodd" fill-opacity="1" /><path clip-path="url(#clip970)" d="M 0 0 M181.227 986.274 L199.584 986.274 L199.584 990.209 L185.51 990.209 L185.51 998.682 Q186.528 998.334 187.547 998.172 Q188.565 997.987 189.584 997.987 Q195.371 997.987 198.75 1001.16 Q202.13 1004.33 202.13 1009.75 Q202.13 1015.32 198.658 1018.43 Q195.186 1021.51 188.866 1021.51 Q186.69 1021.51 184.422 1021.14 Q182.176 1020.76 179.769 1020.02 L179.769 1015.32 Q181.852 1016.46 184.075 1017.01 Q186.297 1017.57 188.774 1017.57 Q192.778 1017.57 195.116 1015.46 Q197.454 1013.36 197.454 1009.75 Q197.454 1006.14 195.116 1004.03 Q192.778 1001.92 188.774 1001.92 Q186.899 1001.92 185.024 1002.34 Q183.172 1002.76 181.227 1003.64 L181.227 986.274 Z" fill="#000000" fill-rule="evenodd" fill-opacity="1" /><path clip-path="url(#clip970)" d="M 0 0 M127.2 718.841 Q123.589 718.841 121.76 722.406 Q119.955 725.948 119.955 733.077 Q119.955 740.184 121.76 743.748 Q123.589 747.29 127.2 747.29 Q130.834 747.29 132.64 743.748 Q134.468 740.184 134.468 733.077 Q134.468 725.948 132.64 722.406 Q130.834 718.841 127.2 718.841 M127.2 715.138 Q133.01 715.138 136.066 719.744 Q139.144 724.327 139.144 733.077 Q139.144 741.804 136.066 746.411 Q133.01 750.994 127.2 750.994 Q121.39 750.994 118.311 746.411 Q115.256 741.804 115.256 733.077 Q115.256 724.327 118.311 719.744 Q121.39 715.138 127.2 715.138 Z" fill="#000000" fill-rule="evenodd" fill-opacity="1" /><path clip-path="url(#clip970)" d="M 0 0 M144.214 744.443 L149.098 744.443 L149.098 750.323 L144.214 750.323 L144.214 744.443 Z" fill="#000000" fill-rule="evenodd" fill-opacity="1" /><path clip-path="url(#clip970)" d="M 0 0 M154.214 715.763 L172.57 715.763 L172.57 719.698 L158.496 719.698 L158.496 728.17 Q159.515 727.823 160.533 727.661 Q161.552 727.475 162.57 727.475 Q168.357 727.475 171.737 730.647 Q175.116 733.818 175.116 739.235 Q175.116 744.813 171.644 747.915 Q168.172 750.994 161.852 750.994 Q159.677 750.994 157.408 750.623 Q155.163 750.253 152.755 749.512 L152.755 744.813 Q154.839 745.948 157.061 746.503 Q159.283 747.059 161.76 747.059 Q165.765 747.059 168.102 744.952 Q170.44 742.846 170.44 739.235 Q170.44 735.624 168.102 733.517 Q165.765 731.411 161.76 731.411 Q159.885 731.411 158.01 731.827 Q156.158 732.244 154.214 733.124 L154.214 715.763 Z" fill="#000000" fill-rule="evenodd" fill-opacity="1" /><path clip-path="url(#clip970)" d="M 0 0 M190.186 718.841 Q186.575 718.841 184.746 722.406 Q182.94 725.948 182.94 733.077 Q182.94 740.184 184.746 743.748 Q186.575 747.29 190.186 747.29 Q193.82 747.29 195.625 743.748 Q197.454 740.184 197.454 733.077 Q197.454 725.948 195.625 722.406 Q193.82 718.841 190.186 718.841 M190.186 715.138 Q195.996 715.138 199.051 719.744 Q202.13 724.327 202.13 733.077 Q202.13 741.804 199.051 746.411 Q195.996 750.994 190.186 750.994 Q184.376 750.994 181.297 746.411 Q178.241 741.804 178.241 733.077 Q178.241 724.327 181.297 719.744 Q184.376 715.138 190.186 715.138 Z" fill="#000000" fill-rule="evenodd" fill-opacity="1" /><path clip-path="url(#clip970)" d="M 0 0 M128.103 448.33 Q124.492 448.33 122.663 451.894 Q120.857 455.436 120.857 462.566 Q120.857 469.672 122.663 473.237 Q124.492 476.779 128.103 476.779 Q131.737 476.779 133.542 473.237 Q135.371 469.672 135.371 462.566 Q135.371 455.436 133.542 451.894 Q131.737 448.33 128.103 448.33 M128.103 444.626 Q133.913 444.626 136.968 449.232 Q140.047 453.816 140.047 462.566 Q140.047 471.292 136.968 475.899 Q133.913 480.482 128.103 480.482 Q122.293 480.482 119.214 475.899 Q116.158 471.292 116.158 462.566 Q116.158 453.816 119.214 449.232 Q122.293 444.626 128.103 444.626 Z" fill="#000000" fill-rule="evenodd" fill-opacity="1" /><path clip-path="url(#clip970)" d="M 0 0 M145.116 473.931 L150.001 473.931 L150.001 479.811 L145.116 479.811 L145.116 473.931 Z" fill="#000000" fill-rule="evenodd" fill-opacity="1" /><path clip-path="url(#clip970)" d="M 0 0 M153.89 445.251 L176.112 445.251 L176.112 447.242 L163.565 479.811 L158.681 479.811 L170.487 449.186 L153.89 449.186 L153.89 445.251 Z" fill="#000000" fill-rule="evenodd" fill-opacity="1" /><path clip-path="url(#clip970)" d="M 0 0 M181.227 445.251 L199.584 445.251 L199.584 449.186 L185.51 449.186 L185.51 457.658 Q186.528 457.311 187.547 457.149 Q188.565 456.964 189.584 456.964 Q195.371 456.964 198.75 460.135 Q202.13 463.306 202.13 468.723 Q202.13 474.302 198.658 477.404 Q195.186 480.482 188.866 480.482 Q186.69 480.482 184.422 480.112 Q182.176 479.741 179.769 479.001 L179.769 474.302 Q181.852 475.436 184.075 475.991 Q186.297 476.547 188.774 476.547 Q192.778 476.547 195.116 474.441 Q197.454 472.334 197.454 468.723 Q197.454 465.112 195.116 463.005 Q192.778 460.899 188.774 460.899 Q186.899 460.899 185.024 461.316 Q183.172 461.732 181.227 462.612 L181.227 445.251 Z" fill="#000000" fill-rule="evenodd" fill-opacity="1" /><path clip-path="url(#clip970)" d="M 0 0 M118.242 205.364 L125.88 205.364 L125.88 178.999 L117.57 180.665 L117.57 176.406 L125.834 174.739 L130.51 174.739 L130.51 205.364 L138.149 205.364 L138.149 209.299 L118.242 209.299 L118.242 205.364 Z" fill="#000000" fill-rule="evenodd" fill-opacity="1" /><path clip-path="url(#clip970)" d="M 0 0 M143.218 203.42 L148.103 203.42 L148.103 209.299 L143.218 209.299 L143.218 203.42 Z" fill="#000000" fill-rule="evenodd" fill-opacity="1" /><path clip-path="url(#clip970)" d="M 0 0 M163.172 177.818 Q159.561 177.818 157.732 181.383 Q155.927 184.924 155.927 192.054 Q155.927 199.16 157.732 202.725 Q159.561 206.267 163.172 206.267 Q166.806 206.267 168.612 202.725 Q170.44 199.16 170.44 192.054 Q170.44 184.924 168.612 181.383 Q166.806 177.818 163.172 177.818 M163.172 174.114 Q168.982 174.114 172.038 178.721 Q175.116 183.304 175.116 192.054 Q175.116 200.781 172.038 205.387 Q168.982 209.971 163.172 209.971 Q157.362 209.971 154.283 205.387 Q151.228 200.781 151.228 192.054 Q151.228 183.304 154.283 178.721 Q157.362 174.114 163.172 174.114 Z" fill="#000000" fill-rule="evenodd" fill-opacity="1" /><path clip-path="url(#clip970)" d="M 0 0 M190.186 177.818 Q186.575 177.818 184.746 181.383 Q182.94 184.924 182.94 192.054 Q182.94 199.16 184.746 202.725 Q186.575 206.267 190.186 206.267 Q193.82 206.267 195.625 202.725 Q197.454 199.16 197.454 192.054 Q197.454 184.924 195.625 181.383 Q193.82 177.818 190.186 177.818 M190.186 174.114 Q195.996 174.114 199.051 178.721 Q202.13 183.304 202.13 192.054 Q202.13 200.781 199.051 205.387 Q195.996 209.971 190.186 209.971 Q184.376 209.971 181.297 205.387 Q178.241 200.781 178.241 192.054 Q178.241 183.304 181.297 178.721 Q184.376 174.114 190.186 174.114 Z" fill="#000000" fill-rule="evenodd" fill-opacity="1" /><path clip-path="url(#clip970)" d="M 0 0 M70.212 745.095 Q76.6732 745.095 80.3653 742.453 Q84.0256 739.779 84.0256 735.132 Q84.0256 730.485 80.3653 727.812 Q76.6732 725.138 70.212 725.138 Q63.7508 725.138 60.0905 727.812 Q56.3984 730.485 56.3984 735.132 Q56.3984 739.779 60.0905 742.453 Q63.7508 745.095 70.212 745.095 M82.657 725.138 Q85.8398 726.984 87.3994 729.817 Q88.9272 732.618 88.9272 736.565 Q88.9272 743.026 83.771 747.1 Q78.6147 751.142 70.212 751.142 Q61.8093 751.142 56.6531 747.1 Q51.4968 743.026 51.4968 736.565 Q51.4968 732.618 53.0564 729.817 Q54.5842 726.984 57.7671 725.138 L52.3562 725.138 L52.3562 719.282 L101.563 719.282 L101.563 725.138 L82.657 725.138 Z" fill="#000000" fill-rule="evenodd" fill-opacity="1" /><polyline clip-path="url(#clip972)" style="stroke:#009af9; stroke-width:4; stroke-opacity:1; fill:none" points="
  297.978,1274.07 300.669,1274.07 305.771,1274.07 310.872,1274.07 313.563,1274.07 316.255,1274.07 321.356,1274.07 326.458,1274.07 329.149,1274.07 
  331.84,1274.07 336.941,1274.07 342.043,1274.07 344.734,1274.07 347.425,1274.07 352.527,1274.07 357.628,1274.07 360.32,1274.07 
  363.011,1274.07 368.112,1274.07 373.214,1274.07 375.905,1274.07 378.596,1274.07 383.698,1274.07 388.799,1274.07 391.49,1274.07 
  394.181,1274.07 399.283,1274.07 404.385,1274.07 407.076,1274.07 409.767,1274.07 414.868,1274.07 419.97,1274.07 422.661,1274.07 
  425.352,1274.07 430.454,1274.07 435.555,1274.07 438.246,1274.07 440.938,1274.07 446.039,1274.07 451.141,1274.07 453.832,1274.07 
  456.523,1274.07 461.625,1274.07 466.726,1274.07 469.417,1274.07 472.108,1274.07 477.21,1274.07 482.311,1274.07 485.003,1274.07 
  487.694,1274.07 492.795,1274.07 497.897,1274.07 500.588,1274.07 503.279,1274.07 508.381,1274.07 513.482,1274.07 516.173,1274.07 
  518.865,1274.07 523.966,1274.07 529.068,1274.07 531.759,1274.07 534.45,1274.07 539.552,1274.07 544.653,1274.07 547.344,1274.07 
  550.035,1274.07 555.137,1274.07 560.238,1274.07 562.93,1274.07 565.621,1274.07 570.722,1274.07 575.824,1274.07 578.515,1274.07 
  581.206,1274.07 586.308,1274.07 591.409,1274.07 594.1,1274.07 596.792,1274.07 601.893,1274.07 606.995,1274.07 609.686,1274.07 
  612.377,1274.07 617.478,1274.07 622.58,1274.07 625.271,1274.07 627.962,1274.07 633.064,1274.07 638.165,1274.07 640.857,1274.07 
  643.548,1274.07 648.649,1274.07 653.751,1274.07 656.442,1274.07 659.133,1274.07 664.235,1274.07 669.336,1274.07 672.027,1274.07 
  674.719,1274.07 679.82,1274.07 684.922,1274.07 687.613,1274.07 690.304,1274.07 695.405,1274.07 700.507,1274.07 703.198,1274.07 
  705.889,1274.07 710.991,1274.07 716.092,1274.07 718.784,1274.07 721.475,1274.07 726.576,192.019 731.678,192.019 734.369,192.019 
  737.06,192.019 742.162,192.019 747.263,192.019 749.954,192.019 752.645,192.019 757.747,192.019 762.849,192.019 765.54,192.019 
  768.231,192.019 773.332,192.019 778.434,192.019 781.125,192.019 783.816,192.019 788.918,192.019 794.019,192.019 796.71,192.019 
  799.402,192.019 804.503,192.019 809.605,192.019 812.296,192.019 814.987,192.019 820.089,192.019 825.19,192.019 827.881,192.019 
  830.572,192.019 835.674,192.019 840.775,192.019 843.467,192.019 846.158,192.019 851.259,192.019 856.361,192.019 859.052,192.019 
  861.743,192.019 866.845,192.019 871.946,192.019 874.637,192.019 877.329,192.019 882.43,192.019 887.532,192.019 890.223,192.019 
  892.914,192.019 898.016,192.019 903.117,192.019 905.808,192.019 908.499,192.019 913.601,192.019 918.702,192.019 921.394,192.019 
  924.085,192.019 929.186,192.019 934.288,192.019 936.979,192.019 939.67,192.019 944.772,192.019 949.873,192.019 952.564,192.019 
  955.256,192.019 960.357,192.019 965.459,192.019 968.15,192.019 970.841,192.019 975.942,192.019 981.044,192.019 983.735,192.019 
  986.426,192.019 991.528,192.019 996.629,192.019 999.321,192.019 1002.01,192.019 1007.11,192.019 1012.21,1274.07 1014.91,1274.07 
  1017.6,1274.07 1022.7,1274.07 1027.8,1274.07 1030.49,1274.07 1033.18,1274.07 1038.28,1274.07 1043.39,1274.07 1046.08,1274.07 
  1048.77,1274.07 1053.87,1274.07 1058.97,1274.07 1061.66,1274.07 1064.35,1274.07 1069.45,1274.07 1074.56,1274.07 1077.25,1274.07 
  1079.94,1274.07 1085.04,1274.07 1090.14,1274.07 1092.83,1274.07 1095.52,1274.07 1100.63,1274.07 1105.73,1274.07 1108.42,1274.07 
  1111.11,1274.07 1116.21,1274.07 1121.31,1274.07 1124,1274.07 1126.69,1274.07 1131.8,1274.07 1136.9,1274.07 1139.59,1274.07 
  1142.28,1274.07 1147.38,1274.07 1152.48,1274.07 1155.17,1274.07 1157.87,1274.07 1162.97,1274.07 1168.07,1274.07 1170.76,1274.07 
  1173.45,1274.07 1178.55,1274.07 1183.65,1274.07 1186.35,1274.07 1189.04,1274.07 1194.14,1274.07 1199.24,1274.07 1201.93,1274.07 
  1204.62,1274.07 1209.72,1274.07 1214.82,1274.07 1217.52,1274.07 1220.21,1274.07 1225.31,1274.07 1230.41,1274.07 1233.1,1274.07 
  1235.79,1274.07 1240.89,1274.07 1246,1274.07 1248.69,1274.07 1251.38,1274.07 1256.48,1274.07 1261.58,1274.07 1264.27,1274.07 
  1266.96,1274.07 1272.06,1274.07 1277.17,1274.07 1279.86,1274.07 1282.55,1274.07 1287.65,1274.07 1292.75,1274.07 1295.44,1274.07 
  1298.13,1274.07 1303.24,1274.07 1308.34,1274.07 1311.03,1274.07 1313.72,1274.07 1318.82,1274.07 1323.92,1274.07 1326.61,1274.07 
  1329.3,1274.07 1334.41,1274.07 1339.51,1274.07 1342.2,1274.07 1344.89,1274.07 1349.99,1274.07 1355.09,1274.07 1357.78,1274.07 
  1360.48,1274.07 1365.58,1274.07 1370.68,1274.07 1373.37,1274.07 1376.06,1274.07 1381.16,1274.07 1386.26,1274.07 1388.96,1274.07 
  1391.65,1274.07 1396.75,1274.07 1401.85,1274.07 1404.54,1274.07 1407.23,1274.07 1412.33,1274.07 1417.43,1274.07 1420.13,1274.07 
  1422.82,1274.07 1427.92,1274.07 1433.02,1274.07 1435.71,1274.07 1438.4,1274.07 1443.5,1274.07 1448.61,1274.07 1451.3,1274.07 
  1453.99,1274.07 1459.09,1274.07 1464.19,1274.07 1466.88,1274.07 1469.57,1274.07 1474.67,1274.07 1479.78,1274.07 1482.47,1274.07 
  1485.16,1274.07 1490.26,1274.07 1495.36,1274.07 1498.05,1274.07 1500.74,1274.07 1505.85,1274.07 1510.95,1274.07 1513.64,1274.07 
  1516.33,1274.07 1521.43,1274.07 1526.53,1274.07 1529.22,1274.07 1531.92,1274.07 1537.02,1274.07 1542.12,1274.07 1544.81,1274.07 
  1547.5,1274.07 1552.6,1274.07 1557.7,1274.07 1560.39,1274.07 1563.09,1274.07 1568.19,1274.07 1573.29,1274.07 1575.98,1274.07 
  1578.67,1274.07 1583.77,1274.07 1588.87,1274.07 1591.57,1274.07 1594.26,1274.07 1599.36,1274.07 1604.46,1274.07 1607.15,1274.07 
  1609.84,1274.07 1614.94,1274.07 1620.05,1274.07 1622.74,1274.07 1625.43,1274.07 1630.53,1274.07 1635.63,1274.07 1638.32,1274.07 
  1641.01,1274.07 1646.11,1274.07 1651.22,1274.07 1653.91,1274.07 1656.6,1274.07 1661.7,1274.07 1666.8,1274.07 1669.49,1274.07 
  1672.18,1274.07 1677.29,1274.07 1682.39,1274.07 1685.08,1274.07 1687.77,1274.07 1692.87,1274.07 1697.97,1274.07 1700.66,1274.07 
  1703.35,1274.07 1708.46,1274.07 1713.56,1274.07 1716.25,1274.07 1718.94,1274.07 1724.04,1274.07 1729.14,1274.07 1731.83,1274.07 
  1734.53,1274.07 1739.63,1274.07 1744.73,1274.07 1747.42,1274.07 1750.11,1274.07 1755.21,1274.07 1760.31,1274.07 1763,1274.07 
  1765.7,1274.07 1770.8,1274.07 1775.9,1274.07 1778.59,1274.07 1781.28,1274.07 1786.38,1274.07 1791.48,1274.07 1794.18,1274.07 
  1796.87,1274.07 1801.97,1274.07 1807.07,1274.07 1809.76,1274.07 1812.45,1274.07 1817.55,1274.07 1822.66,1274.07 1825.35,1274.07 
  1828.04,1274.07 1833.14,1274.07 1838.24,1274.07 1840.93,1274.07 1843.62,1274.07 1848.72,1274.07 1853.83,1274.07 1856.52,1274.07 
  1859.21,1274.07 1864.31,1274.07 1869.41,1274.07 1872.1,1274.07 1874.79,1274.07 1879.9,1274.07 1885,1274.07 1887.69,1274.07 
  1890.38,1274.07 1895.48,1274.07 1900.58,1274.07 1903.27,1274.07 1905.96,1274.07 1911.07,1274.07 1916.17,1274.07 1918.86,1274.07 
  1921.55,1274.07 1926.65,1274.07 1931.75,1274.07 1934.44,1274.07 1937.14,1274.07 1942.24,1274.07 1947.34,1274.07 1950.03,1274.07 
  1952.72,1274.07 1957.82,1274.07 1962.92,1274.07 1965.61,1274.07 1968.31,1274.07 1973.41,1274.07 1978.51,1274.07 1981.2,1274.07 
  1983.89,1274.07 1988.99,1274.07 1994.09,1274.07 1996.79,1274.07 1999.48,1274.07 2004.58,1274.07 2009.68,1274.07 2012.37,1274.07 
  2015.06,1274.07 2020.16,1274.07 2025.27,1274.07 2027.96,1274.07 2030.65,1274.07 2035.75,1274.07 2040.85,1274.07 2043.54,1274.07 
  2046.23,1274.07 2051.33,1274.07 2056.44,1274.07 2059.13,1274.07 2061.82,1274.07 2066.92,1274.07 2072.02,1274.07 2074.71,1274.07 
  2077.4,1274.07 2082.51,1274.07 2087.61,1274.07 2090.3,1274.07 2092.99,1274.07 2098.09,1274.07 2103.19,1274.07 2105.88,1274.07 
  2108.57,1274.07 2113.68,1274.07 2118.78,1274.07 2121.47,1274.07 2124.16,1274.07 2129.26,1274.07 2134.36,1274.07 2137.05,1274.07 
  2139.75,1274.07 2144.85,1274.07 2149.95,1274.07 2152.64,1274.07 2155.33,1274.07 2160.43,1274.07 2165.53,1274.07 2168.22,1274.07 
  2170.92,1274.07 2176.02,1274.07 2181.12,1274.07 2183.81,1274.07 2186.5,1274.07 2191.6,1274.07 2196.7,1274.07 2199.4,1274.07 
  2202.09,1274.07 2207.19,1274.07 2212.29,1274.07 2214.98,1274.07 2217.67,1274.07 2222.77,1274.07 2227.88,1274.07 2230.57,1274.07 
  2233.26,1274.07 2238.36,1274.07 2243.46,1274.07 2246.15,1274.07 2248.84,1274.07 2253.94,1274.07 2259.05,1274.07 2261.74,1274.07 
  2264.43,1274.07 2269.53,1274.07 2274.63,1274.07 2277.32,1274.07 2280.01,1274.07 2285.12,1274.07 2290.22,1274.07 2292.91,1274.07 
  
  "/>
<polyline clip-path="url(#clip972)" style="stroke:#e26f46; stroke-width:4; stroke-opacity:1; fill:none" points="
  297.978,1299.07 300.669,1250.32 305.771,1279.82 310.872,1252.82 313.563,1309.27 313.563,1243.05 316.255,1297.09 321.356,1273.87 326.458,1285.58 329.149,1274.36 
  329.149,1289.48 331.84,1277.13 336.941,1262.71 342.043,1266.57 344.734,1261.07 344.734,1273.6 347.425,1265.7 352.527,1277.11 357.628,1278.32 360.32,1296.12 
  360.32,1274.58 363.011,1290.57 368.112,1274 373.214,1276 375.905,1249.34 375.905,1284.38 378.596,1257.93 383.698,1272.35 388.799,1256.07 391.49,1302.51 
  391.49,1251.99 394.181,1294.5 399.283,1274.38 404.385,1288.68 407.076,1283.25 407.076,1282.26 409.767,1279.25 414.868,1258.02 419.97,1280.1 422.661,1208.59 
  422.661,1312.51 425.352,1239.29 430.454,1305.26 435.555,1239.61 438.246,1370.61 438.246,1199.67 440.938,1329.26 446.039,1247.75 451.141,1300.99 453.832,1210.14 
  453.832,1332.74 456.523,1243.69 461.625,1276.72 466.726,1255.14 469.417,1300.95 469.417,1247.68 472.108,1288.15 477.21,1280.04 482.311,1285.68 485.003,1278.51 
  485.003,1286.29 487.694,1278.68 492.795,1266.22 497.897,1263.04 500.588,1264.59 500.588,1260.83 503.279,1265.42 508.381,1271.44 513.482,1287.27 516.173,1264.98 
  516.173,1300.64 518.865,1276.7 523.966,1294.51 529.068,1256.74 531.759,1295.65 531.759,1236.65 534.45,1278.44 539.552,1252.05 544.653,1276.06 547.344,1252.2 
  547.344,1294.15 550.035,1271 555.137,1292.01 560.238,1279.72 562.93,1299.22 562.93,1265.66 565.621,1284.03 570.722,1261.78 575.824,1270.83 578.515,1235.02 
  578.515,1282.71 581.206,1250.64 586.308,1284.19 591.409,1270.31 594.1,1310.45 594.1,1258.89 596.792,1298.15 601.893,1275.71 606.995,1282.82 609.686,1247.12 
  609.686,1288.99 612.377,1254.32 617.478,1266.68 622.58,1259.16 625.271,1294.44 625.271,1252.63 627.962,1285.79 633.064,1276.21 638.165,1301.35 640.857,1270.07 
  640.857,1301.3 643.548,1270.43 648.649,1268.86 653.751,1267.97 656.442,1236.58 656.442,1280.55 659.133,1246.77 664.235,1285.84 669.336,1259.43 672.027,1351.3 
  672.027,1230.89 674.719,1319.22 679.82,1253.59 684.922,1311.53 687.613,1211.69 687.613,1334.81 690.304,1235.63 695.405,1272.75 700.507,1256.43 703.198,1280.28 
  703.198,1259.28 705.889,1276.19 710.991,1291.78 716.092,1272.29 718.784,1332.51 718.784,1250.18 721.475,1308.65 726.576,1242.99 731.678,1284.34 734.369,1212.79 
  734.369,1317.9 737.06,1241.87 742.162,1282.83 747.263,1258.64 749.954,1343.33 749.954,1239.13 752.645,1316.71 757.747,1264.47 762.849,1295.37 765.54,1224.67 
  765.54,1321.5 768.231,1248.61 773.332,1274.29 778.434,1236.2 781.125,1321.18 781.125,1216.8 783.816,1302.42 788.918,1267.76 794.019,1307 796.71,1234.48 
  796.71,1337.89 799.402,1264.87 804.503,1293.94 809.605,1228.31 812.296,1305.3 812.296,1201.62 814.987,1283.04 820.089,1254.76 825.19,1289.93 827.881,1255.66 
  827.881,1310.99 830.572,1281.23 835.674,1300.18 840.775,1272.54 843.467,1268.23 843.467,1261.09 846.158,1259.67 851.259,1264.5 856.361,1254.38 859.052,1271.34 
  859.052,1249.66 861.743,1274.63 866.845,1285.88 871.946,1302.49 874.637,1269.86 874.637,1303.94 877.329,1272.48 882.43,1279.69 887.532,1256.67 890.223,1257.92 
  890.223,1249 892.914,1253.07 898.016,1265.85 903.117,1277.71 905.808,1305.1 905.808,1278.07 908.499,1300.51 913.601,1279.75 918.702,1291.55 921.394,1266.67 
  921.394,1287.48 924.085,1261.27 929.186,1250.66 934.288,1262.72 936.979,1243.81 936.979,1284.78 939.67,1263.52 944.772,1301.74 949.873,1268.27 952.564,1339.04 
  952.564,1245.88 955.256,1315.02 960.357,1256.35 965.459,1271.48 968.15,1213.64 968.15,1287.46 970.841,1238.75 975.942,1279.02 981.044,1269.94 983.735,1289.36 
  983.735,1266.11 986.426,1288.65 991.528,1302.12 996.629,1284.26 999.321,1260.87 999.321,1269.03 1002.01,1253.18 1007.11,1259.01 1012.21,1262.84 1014.91,1265.24 
  1014.91,1259.4 1017.6,1263.16 1022.7,1279.92 1027.8,1312.46 1030.49,1301.13 1030.49,1308.22 1033.18,1285.56 1038.28,1259.22 1043.39,1272.25 1046.08,1255.97 
  1046.08,1279.39 1048.77,1252.52 1053.87,1252.47 1058.97,1268.37 1061.66,1324.73 1061.66,1274.89 1064.35,1320.24 1069.45,1278.15 1074.56,1285.1 1077.25,1245.5 
  1077.25,1303.38 1079.94,1263.79 1085.04,1271.91 1090.14,1222.49 1092.83,1275.47 1092.83,1217.33 1095.52,1281.38 1100.63,1294.72 1105.73,1296.65 1108.42,1278.37 
  1108.42,1290.59 1111.11,1280.64 1116.21,1281.72 1121.31,1273.03 1124,1236.92 1124,1264.63 1126.69,1231.36 1131.8,1257.34 1136.9,1279.95 1139.59,1318.06 
  1139.59,1282.85 1142.28,1309.17 1147.38,1277.86 1152.48,1286 1155.17,1274.88 1155.17,1295.86 1157.87,1280.24 1162.97,1258.06 1168.07,1224.69 1170.76,1244.23 
  1170.76,1232.23 1173.45,1268.74 1178.55,1313.55 1183.65,1294.23 1186.35,1266.79 1186.35,1276.84 1189.04,1263.23 1194.14,1292.75 1199.24,1289.61 1201.93,1265.05 
  1201.93,1256.84 1204.62,1227.81 1209.72,1217.1 1214.82,1309.69 1217.52,1321.24 1217.52,1342.38 1220.21,1321.71 1225.31,1270.84 1230.41,1252.83 1233.1,1282.06 
  1233.1,1273.41 1235.79,1301.51 1240.89,1289.63 1246,1215.56 1248.69,1212.12 1248.69,1192.17 1251.38,1220.98 1256.48,1300.45 1261.58,1375.87 1264.27,1333.07 
  1264.27,1363.14 1266.96,1285.45 1272.06,1191.83 1277.17,1217.56 1279.86,1316.68 1279.86,1288.44 1282.55,1384.24 1287.65,1351.68 1292.75,1030.38 1295.44,775.722 
  1295.44,797.35 1298.13,554.988 1303.24,261.917 1308.34,132.549 1311.03,137.992 1311.03,117.862 1313.72,146.041 1318.82,181.471 1323.92,208.723 1326.61,184.508 
  1326.61,210.001 1329.3,185.43 1334.41,202.95 1339.51,213.642 1342.2,220.812 1342.2,208.174 1344.89,203.153 1349.99,170.318 1355.09,175.438 1357.78,189.975 
  1357.78,181.808 1360.48,191.547 1365.58,178.319 1370.68,197.872 1373.37,202.786 1373.37,219.716 1376.06,219.171 1381.16,215.203 1386.26,168.994 1388.96,187.362 
  1388.96,156.545 1391.65,185.117 1396.75,183.166 1401.85,180.58 1404.54,165.103 1404.54,183.117 1407.23,179.852 1412.33,220.29 1417.43,224.572 1420.13,204.681 
  1420.13,207.046 1422.82,183.108 1427.92,173.501 1433.02,192.517 1435.71,193.787 1435.71,189.793 1438.4,180.572 1443.5,163.034 1448.61,206.523 1451.3,220.207 
  1451.3,233.815 1453.99,232.057 1459.09,207.076 1464.19,162.962 1466.88,180.723 1466.88,161.02 1469.57,189.549 1474.67,195.443 1479.78,168.958 1482.47,154.803 
  1482.47,159.838 1485.16,167.249 1490.26,225.59 1495.36,248.459 1498.05,205.112 1498.05,225.701 1500.74,173.44 1505.85,155.857 1510.95,191.9 1513.64,215.481 
  1513.64,208.354 1516.33,210.11 1521.43,163.097 1526.53,151.884 1529.22,201.83 1529.22,182.66 1531.92,244.086 1537.02,264.608 1542.12,182.842 1544.81,112.261 
  1544.81,134.877 1547.5,97.1812 1552.6,176.724 1557.7,269.834 1560.39,273.342 1560.39,268.047 1563.09,222.772 1568.19,86.1857 1573.29,101.737 1575.98,243.716 
  1575.98,226.833 1578.67,440.526 1583.77,875.684 1588.87,1209.83 1591.57,1277.65 1591.57,1303.96 1594.26,1318.03 1599.36,1309.97 1604.46,1262.8 1607.15,1287.57 
  1607.15,1248.28 1609.84,1279.25 1614.94,1268.01 1620.05,1284.4 1622.74,1257.85 1622.74,1290.83 1625.43,1264.04 1630.53,1271.75 1635.63,1266.52 1638.32,1281.08 
  1638.32,1267.05 1641.01,1279.22 1646.11,1278.82 1651.22,1278.08 1653.91,1285.84 1653.91,1271.94 1656.6,1280.45 1661.7,1264.92 1666.8,1276.49 1669.49,1246.08 
  1669.49,1290.85 1672.18,1258.71 1677.29,1283.71 1682.39,1262.8 1685.08,1318.14 1685.08,1244.98 1687.77,1298.24 1692.87,1261.45 1697.97,1293.06 1700.66,1238.22 
  1700.66,1307.03 1703.35,1253.94 1708.46,1276.82 1713.56,1264.96 1716.25,1276.85 1716.25,1266.66 1718.94,1274.43 1724.04,1284.17 1729.14,1269.48 1731.83,1312.45 
  1731.83,1249.35 1734.53,1293.98 1739.63,1252.61 1744.73,1293.93 1747.42,1215.82 1747.42,1319.76 1750.11,1242.38 1755.21,1292.17 1760.31,1258.83 1763,1313.39 
  1763,1240.49 1765.7,1293.15 1770.8,1271.77 1775.9,1280.69 1778.59,1261.84 1778.59,1282.34 1781.28,1267.74 1786.38,1267.36 1791.48,1272.55 1794.18,1261.49 
  1794.18,1281.74 1796.87,1268.18 1801.97,1286.12 1807.07,1270.68 1809.76,1307.42 1809.76,1251.78 1812.45,1290.4 1817.55,1259.17 1822.66,1287.83 1825.35,1219.4 
  1825.35,1311.82 1828.04,1245.16 1833.14,1292.46 1838.24,1252.52 1840.93,1323.92 1840.93,1232.12 1843.62,1300.84 1848.72,1266.14 1853.83,1286.24 1856.52,1261.28 
  1856.52,1288.42 1859.21,1267.72 1864.31,1264.11 1869.41,1279.44 1872.1,1240.66 1872.1,1297.7 1874.79,1256.18 1879.9,1296.86 1885,1258.01 1887.69,1328.48 
  1887.69,1229.7 1890.38,1301.49 1895.48,1254.63 1900.58,1289.57 1903.27,1222.34 1903.27,1311.94 1905.96,1248.57 1911.07,1285.45 1916.17,1261.76 1918.86,1299.35 
  1918.86,1254.62 1921.55,1288.37 1926.65,1278.44 1931.75,1272.85 1934.44,1286.31 1934.44,1264.43 1937.14,1280.08 1942.24,1257.05 1947.34,1281.19 1950.03,1244.48 
  1950.03,1298.25 1952.72,1259.84 1957.82,1288.35 1962.92,1270.88 1965.61,1305.11 1965.61,1254.63 1968.31,1288.64 1973.41,1265.7 1978.51,1280.12 1981.2,1237.28 
  1981.2,1294.19 1983.89,1253.88 1988.99,1282.48 1994.09,1260.1 1996.79,1307.62 1996.79,1248.48 1999.48,1293.86 2004.58,1271.44 2009.68,1285.65 2012.37,1265 
  2012.37,1285.16 2015.06,1268.31 2020.16,1265.73 2025.27,1275.34 2027.96,1240.25 2027.96,1292.54 2030.65,1256.55 2035.75,1296.2 2040.85,1256.84 2043.54,1330.02 
  2043.54,1231.97 2046.23,1304.82 2051.33,1256.09 2056.44,1286.7 2059.13,1235.21 2059.13,1303.08 2061.82,1254.17 2066.92,1275.65 2072.02,1270.64 2074.71,1283.36 
  2074.71,1269.75 2077.4,1279.75 2082.51,1284.24 2087.61,1274.77 2090.3,1279.55 2090.3,1267.66 2092.99,1275.5 2098.09,1265.38 2103.19,1268.41 2105.88,1256.06 
  2105.88,1279.72 2108.57,1266.88 2113.68,1284.31 2118.78,1269.61 2121.47,1314 2121.47,1252.8 2124.16,1296.8 2129.26,1260.33 2134.36,1289.17 2137.05,1223.11 
  2137.05,1308.25 2139.75,1245.51 2144.85,1285.25 2149.95,1256.75 2152.64,1297.73 2152.64,1250.37 2155.33,1289.35 2160.43,1282.28 2165.53,1271.46 2168.22,1293.84 
  2168.22,1260.96 2170.92,1286.39 2176.02,1254.74 2181.12,1278.94 2183.81,1235.57 2183.81,1301.24 2186.5,1256.57 2191.6,1289.8 2196.7,1264.66 2199.4,1317.3 
  2199.4,1250.07 2202.09,1298.5 2207.19,1264.91 2212.29,1278.24 2214.98,1254.83 2214.98,1283.68 2217.67,1262.45 2222.77,1266.53 2227.88,1275.28 2230.57,1269.72 
  2230.57,1282.57 2233.26,1275.39 2238.36,1288.72 2243.46,1273.3 2246.15,1284.19 2246.15,1267.05 2248.84,1278.44 2253.94,1266.47 2259.05,1260.61 2261.74,1268.91 
  2261.74,1266 2264.43,1274.1 2269.53,1274.94 2274.63,1277.87 2277.32,1300.47 2277.32,1272.48 2280.01,1293.09 2285.12,1266.91 2290.22,1283.19 2292.91,1234.71 
  
  "/>
<path clip-path="url(#clip970)" d="
M1786.57 274.549 L2282.27 274.549 L2282.27 93.1086 L1786.57 93.1086  Z
  " fill="#ffffff" fill-rule="evenodd" fill-opacity="1"/>
<polyline clip-path="url(#clip970)" style="stroke:#000000; stroke-width:4; stroke-opacity:1; fill:none" points="
  1786.57,274.549 2282.27,274.549 2282.27,93.1086 1786.57,93.1086 1786.57,274.549 
  "/>
<polyline clip-path="url(#clip970)" style="stroke:#009af9; stroke-width:4; stroke-opacity:1; fill:none" points="
  1810.07,153.589 1951.04,153.589 
  "/>
<path clip-path="url(#clip970)" d="M 0 0 M1981.94 137.582 L1981.94 144.943 L1990.72 144.943 L1990.72 148.253 L1981.94 148.253 L1981.94 162.327 Q1981.94 165.498 1982.8 166.401 Q1983.68 167.304 1986.34 167.304 L1990.72 167.304 L1990.72 170.869 L1986.34 170.869 Q1981.41 170.869 1979.54 169.04 Q1977.66 167.188 1977.66 162.327 L1977.66 148.253 L1974.54 148.253 L1974.54 144.943 L1977.66 144.943 L1977.66 137.582 L1981.94 137.582 Z" fill="#000000" fill-rule="evenodd" fill-opacity="1" /><path clip-path="url(#clip970)" d="M 0 0 M1995.74 149.341 L2025.42 149.341 L2025.42 153.23 L1995.74 153.23 L1995.74 149.341 M1995.74 158.785 L2025.42 158.785 L2025.42 162.721 L1995.74 162.721 L1995.74 158.785 Z" fill="#000000" fill-rule="evenodd" fill-opacity="1" /><path clip-path="url(#clip970)" d="M 0 0 M2040.49 139.387 Q2036.87 139.387 2035.05 142.952 Q2033.24 146.494 2033.24 153.623 Q2033.24 160.73 2035.05 164.295 Q2036.87 167.836 2040.49 167.836 Q2044.12 167.836 2045.93 164.295 Q2047.75 160.73 2047.75 153.623 Q2047.75 146.494 2045.93 142.952 Q2044.12 139.387 2040.49 139.387 M2040.49 135.684 Q2046.3 135.684 2049.35 140.29 Q2052.43 144.873 2052.43 153.623 Q2052.43 162.35 2049.35 166.957 Q2046.3 171.54 2040.49 171.54 Q2034.68 171.54 2031.6 166.957 Q2028.54 162.35 2028.54 153.623 Q2028.54 144.873 2031.6 140.29 Q2034.68 135.684 2040.49 135.684 Z" fill="#000000" fill-rule="evenodd" fill-opacity="1" /><path clip-path="url(#clip970)" d="M 0 0 M2057.5 164.989 L2062.38 164.989 L2062.38 170.869 L2057.5 170.869 L2057.5 164.989 Z" fill="#000000" fill-rule="evenodd" fill-opacity="1" /><path clip-path="url(#clip970)" d="M 0 0 M2077.45 139.387 Q2073.84 139.387 2072.01 142.952 Q2070.21 146.494 2070.21 153.623 Q2070.21 160.73 2072.01 164.295 Q2073.84 167.836 2077.45 167.836 Q2081.09 167.836 2082.89 164.295 Q2084.72 160.73 2084.72 153.623 Q2084.72 146.494 2082.89 142.952 Q2081.09 139.387 2077.45 139.387 M2077.45 135.684 Q2083.26 135.684 2086.32 140.29 Q2089.4 144.873 2089.4 153.623 Q2089.4 162.35 2086.32 166.957 Q2083.26 171.54 2077.45 171.54 Q2071.64 171.54 2068.56 166.957 Q2065.51 162.35 2065.51 153.623 Q2065.51 144.873 2068.56 140.29 Q2071.64 135.684 2077.45 135.684 Z" fill="#000000" fill-rule="evenodd" fill-opacity="1" /><path clip-path="url(#clip970)" d="M 0 0 M2108.54 134.85 L2118.36 134.85 L2118.36 138.16 L2112.8 138.16 L2112.8 173.808 L2118.36 173.808 L2118.36 177.119 L2108.54 177.119 L2108.54 134.85 Z" fill="#000000" fill-rule="evenodd" fill-opacity="1" /><path clip-path="url(#clip970)" d="M 0 0 M2139.35 145.707 L2139.35 149.734 Q2137.55 148.809 2135.6 148.346 Q2133.66 147.883 2131.57 147.883 Q2128.4 147.883 2126.81 148.855 Q2125.23 149.827 2125.23 151.771 Q2125.23 153.253 2126.37 154.109 Q2127.5 154.943 2130.93 155.707 L2132.38 156.031 Q2136.92 157.003 2138.82 158.785 Q2140.74 160.545 2140.74 163.716 Q2140.74 167.327 2137.87 169.433 Q2135.02 171.54 2130.02 171.54 Q2127.94 171.54 2125.67 171.123 Q2123.43 170.73 2120.93 169.92 L2120.93 165.521 Q2123.29 166.748 2125.58 167.373 Q2127.87 167.975 2130.12 167.975 Q2133.12 167.975 2134.74 166.957 Q2136.37 165.915 2136.37 164.04 Q2136.37 162.304 2135.18 161.378 Q2134.03 160.452 2130.07 159.596 L2128.59 159.248 Q2124.63 158.415 2122.87 156.702 Q2121.11 154.966 2121.11 151.957 Q2121.11 148.299 2123.7 146.309 Q2126.3 144.318 2131.06 144.318 Q2133.43 144.318 2135.51 144.665 Q2137.59 145.012 2139.35 145.707 Z" fill="#000000" fill-rule="evenodd" fill-opacity="1" /><path clip-path="url(#clip970)" d="M 0 0 M2155.16 134.85 L2155.16 177.119 L2145.35 177.119 L2145.35 173.808 L2150.88 173.808 L2150.88 138.16 L2145.35 138.16 L2145.35 134.85 L2155.16 134.85 Z" fill="#000000" fill-rule="evenodd" fill-opacity="1" /><polyline clip-path="url(#clip970)" style="stroke:#e26f46; stroke-width:4; stroke-opacity:1; fill:none" points="
  1810.07,214.069 1951.04,214.069 
  "/>
<path clip-path="url(#clip970)" d="M 0 0 M1981.94 198.062 L1981.94 205.423 L1990.72 205.423 L1990.72 208.733 L1981.94 208.733 L1981.94 222.807 Q1981.94 225.978 1982.8 226.881 Q1983.68 227.784 1986.34 227.784 L1990.72 227.784 L1990.72 231.349 L1986.34 231.349 Q1981.41 231.349 1979.54 229.52 Q1977.66 227.668 1977.66 222.807 L1977.66 208.733 L1974.54 208.733 L1974.54 205.423 L1977.66 205.423 L1977.66 198.062 L1981.94 198.062 Z" fill="#000000" fill-rule="evenodd" fill-opacity="1" /><path clip-path="url(#clip970)" d="M 0 0 M1995.74 209.821 L2025.42 209.821 L2025.42 213.71 L1995.74 213.71 L1995.74 209.821 M1995.74 219.265 L2025.42 219.265 L2025.42 223.201 L1995.74 223.201 L1995.74 219.265 Z" fill="#000000" fill-rule="evenodd" fill-opacity="1" /><path clip-path="url(#clip970)" d="M 0 0 M2043.33 200.863 L2031.53 219.312 L2043.33 219.312 L2043.33 200.863 M2042.11 196.789 L2047.99 196.789 L2047.99 219.312 L2052.92 219.312 L2052.92 223.201 L2047.99 223.201 L2047.99 231.349 L2043.33 231.349 L2043.33 223.201 L2027.73 223.201 L2027.73 218.687 L2042.11 196.789 Z" fill="#000000" fill-rule="evenodd" fill-opacity="1" /><path clip-path="url(#clip970)" d="M 0 0 M2058.03 196.789 L2076.39 196.789 L2076.39 200.724 L2062.31 200.724 L2062.31 209.196 Q2063.33 208.849 2064.35 208.687 Q2065.37 208.502 2066.39 208.502 Q2072.18 208.502 2075.56 211.673 Q2078.93 214.844 2078.93 220.261 Q2078.93 225.839 2075.46 228.941 Q2071.99 232.02 2065.67 232.02 Q2063.5 232.02 2061.23 231.65 Q2058.98 231.279 2056.57 230.538 L2056.57 225.839 Q2058.66 226.974 2060.88 227.529 Q2063.1 228.085 2065.58 228.085 Q2069.58 228.085 2071.92 225.978 Q2074.26 223.872 2074.26 220.261 Q2074.26 216.65 2071.92 214.543 Q2069.58 212.437 2065.58 212.437 Q2063.7 212.437 2061.83 212.853 Q2059.98 213.27 2058.03 214.15 L2058.03 196.789 Z" fill="#000000" fill-rule="evenodd" fill-opacity="1" /><path clip-path="url(#clip970)" d="M 0 0 M2094 199.867 Q2090.39 199.867 2088.56 203.432 Q2086.76 206.974 2086.76 214.103 Q2086.76 221.21 2088.56 224.775 Q2090.39 228.316 2094 228.316 Q2097.64 228.316 2099.44 224.775 Q2101.27 221.21 2101.27 214.103 Q2101.27 206.974 2099.44 203.432 Q2097.64 199.867 2094 199.867 M2094 196.164 Q2099.81 196.164 2102.87 200.77 Q2105.95 205.353 2105.95 214.103 Q2105.95 222.83 2102.87 227.437 Q2099.81 232.02 2094 232.02 Q2088.19 232.02 2085.12 227.437 Q2082.06 222.83 2082.06 214.103 Q2082.06 205.353 2085.12 200.77 Q2088.19 196.164 2094 196.164 Z" fill="#000000" fill-rule="evenodd" fill-opacity="1" /><path clip-path="url(#clip970)" d="M 0 0 M2111.02 225.469 L2115.9 225.469 L2115.9 231.349 L2111.02 231.349 L2111.02 225.469 Z" fill="#000000" fill-rule="evenodd" fill-opacity="1" /><path clip-path="url(#clip970)" d="M 0 0 M2133.82 200.863 L2122.01 219.312 L2133.82 219.312 L2133.82 200.863 M2132.59 196.789 L2138.47 196.789 L2138.47 219.312 L2143.4 219.312 L2143.4 223.201 L2138.47 223.201 L2138.47 231.349 L2133.82 231.349 L2133.82 223.201 L2118.22 223.201 L2118.22 218.687 L2132.59 196.789 Z" fill="#000000" fill-rule="evenodd" fill-opacity="1" /><path clip-path="url(#clip970)" d="M 0 0 M2147.29 196.789 L2169.51 196.789 L2169.51 198.779 L2156.97 231.349 L2152.08 231.349 L2163.89 200.724 L2147.29 200.724 L2147.29 196.789 Z" fill="#000000" fill-rule="evenodd" fill-opacity="1" /><path clip-path="url(#clip970)" d="M 0 0 M2188.66 195.33 L2198.47 195.33 L2198.47 198.64 L2192.92 198.64 L2192.92 234.288 L2198.47 234.288 L2198.47 237.599 L2188.66 237.599 L2188.66 195.33 Z" fill="#000000" fill-rule="evenodd" fill-opacity="1" /><path clip-path="url(#clip970)" d="M 0 0 M2219.47 206.187 L2219.47 210.214 Q2217.66 209.289 2215.72 208.826 Q2213.77 208.363 2211.69 208.363 Q2208.52 208.363 2206.92 209.335 Q2205.35 210.307 2205.35 212.251 Q2205.35 213.733 2206.48 214.589 Q2207.61 215.423 2211.04 216.187 L2212.5 216.511 Q2217.04 217.483 2218.93 219.265 Q2220.86 221.025 2220.86 224.196 Q2220.86 227.807 2217.99 229.913 Q2215.14 232.02 2210.14 232.02 Q2208.05 232.02 2205.79 231.603 Q2203.54 231.21 2201.04 230.4 L2201.04 226.001 Q2203.4 227.228 2205.69 227.853 Q2207.99 228.455 2210.23 228.455 Q2213.24 228.455 2214.86 227.437 Q2216.48 226.395 2216.48 224.52 Q2216.48 222.784 2215.3 221.858 Q2214.14 220.932 2210.18 220.076 L2208.7 219.728 Q2204.74 218.895 2202.99 217.182 Q2201.23 215.446 2201.23 212.437 Q2201.23 208.779 2203.82 206.789 Q2206.41 204.798 2211.18 204.798 Q2213.54 204.798 2215.62 205.145 Q2217.71 205.492 2219.47 206.187 Z" fill="#000000" fill-rule="evenodd" fill-opacity="1" /><path clip-path="url(#clip970)" d="M 0 0 M2235.28 195.33 L2235.28 237.599 L2225.46 237.599 L2225.46 234.288 L2230.99 234.288 L2230.99 198.64 L2225.46 198.64 L2225.46 195.33 L2235.28 195.33 Z" fill="#000000" fill-rule="evenodd" fill-opacity="1" /></svg>
