<?xml version="1.0" encoding="utf-8"?>
<svg xmlns="http://www.w3.org/2000/svg" xmlns:xlink="http://www.w3.org/1999/xlink" width="600" height="400" viewBox="0 0 2400 1600">
<defs>
  <clipPath id="clip390">
    <rect x="0" y="0" width="2400" height="1600"/>
  </clipPath>
</defs>
<path clip-path="url(#clip390)" d="
M0 1600 L2400 1600 L2400 0 L0 0  Z
  " fill="#ffffff" fill-rule="evenodd" fill-opacity="1"/>
<defs>
  <clipPath id="clip391">
    <rect x="480" y="0" width="1681" height="1600"/>
  </clipPath>
</defs>
<path clip-path="url(#clip390)" d="
M238.13 1423.18 L2352.76 1423.18 L2352.76 47.2441 L238.13 47.2441  Z
  " fill="#ffffff" fill-rule="evenodd" fill-opacity="1"/>
<defs>
  <clipPath id="clip392">
    <rect x="238" y="47" width="2116" height="1377"/>
  </clipPath>
</defs>
<polyline clip-path="url(#clip392)" style="stroke:#000000; stroke-width:2; stroke-opacity:0.1; fill:none" points="
  238.13,1423.18 238.13,47.2441 
  "/>
<polyline clip-path="url(#clip392)" style="stroke:#000000; stroke-width:2; stroke-opacity:0.1; fill:none" points="
  540.219,1423.18 540.219,47.2441 
  "/>
<polyline clip-path="url(#clip392)" style="stroke:#000000; stroke-width:2; stroke-opacity:0.1; fill:none" points="
  842.309,1423.18 842.309,47.2441 
  "/>
<polyline clip-path="url(#clip392)" style="stroke:#000000; stroke-width:2; stroke-opacity:0.1; fill:none" points="
  1144.4,1423.18 1144.4,47.2441 
  "/>
<polyline clip-path="url(#clip392)" style="stroke:#000000; stroke-width:2; stroke-opacity:0.1; fill:none" points="
  1446.49,1423.18 1446.49,47.2441 
  "/>
<polyline clip-path="url(#clip392)" style="stroke:#000000; stroke-width:2; stroke-opacity:0.1; fill:none" points="
  1748.58,1423.18 1748.58,47.2441 
  "/>
<polyline clip-path="url(#clip392)" style="stroke:#000000; stroke-width:2; stroke-opacity:0.1; fill:none" points="
  2050.67,1423.18 2050.67,47.2441 
  "/>
<polyline clip-path="url(#clip392)" style="stroke:#000000; stroke-width:2; stroke-opacity:0.1; fill:none" points="
  2352.76,1423.18 2352.76,47.2441 
  "/>
<polyline clip-path="url(#clip390)" style="stroke:#000000; stroke-width:4; stroke-opacity:1; fill:none" points="
  238.13,1423.18 2352.76,1423.18 
  "/>
<polyline clip-path="url(#clip390)" style="stroke:#000000; stroke-width:4; stroke-opacity:1; fill:none" points="
  238.13,1423.18 238.13,1406.67 
  "/>
<polyline clip-path="url(#clip390)" style="stroke:#000000; stroke-width:4; stroke-opacity:1; fill:none" points="
  540.219,1423.18 540.219,1406.67 
  "/>
<polyline clip-path="url(#clip390)" style="stroke:#000000; stroke-width:4; stroke-opacity:1; fill:none" points="
  842.309,1423.18 842.309,1406.67 
  "/>
<polyline clip-path="url(#clip390)" style="stroke:#000000; stroke-width:4; stroke-opacity:1; fill:none" points="
  1144.4,1423.18 1144.4,1406.67 
  "/>
<polyline clip-path="url(#clip390)" style="stroke:#000000; stroke-width:4; stroke-opacity:1; fill:none" points="
  1446.49,1423.18 1446.49,1406.67 
  "/>
<polyline clip-path="url(#clip390)" style="stroke:#000000; stroke-width:4; stroke-opacity:1; fill:none" points="
  1748.58,1423.18 1748.58,1406.67 
  "/>
<polyline clip-path="url(#clip390)" style="stroke:#000000; stroke-width:4; stroke-opacity:1; fill:none" points="
  2050.67,1423.18 2050.67,1406.67 
  "/>
<polyline clip-path="url(#clip390)" style="stroke:#000000; stroke-width:4; stroke-opacity:1; fill:none" points="
  2352.76,1423.18 2352.76,1406.67 
  "/>
<path clip-path="url(#clip390)" d="M 0 0 M238.13 1452.37 Q234.519 1452.37 232.69 1455.94 Q230.885 1459.48 230.885 1466.61 Q230.885 1473.71 232.69 1477.28 Q234.519 1480.82 238.13 1480.82 Q241.764 1480.82 243.57 1477.28 Q245.399 1473.71 245.399 1466.61 Q245.399 1459.48 243.57 1455.94 Q241.764 1452.37 238.13 1452.37 M238.13 1448.67 Q243.94 1448.67 246.996 1453.27 Q250.074 1457.86 250.074 1466.61 Q250.074 1475.33 246.996 1479.94 Q243.94 1484.52 238.13 1484.52 Q232.32 1484.52 229.241 1479.94 Q226.186 1475.33 226.186 1466.61 Q226.186 1457.86 229.241 1453.27 Q232.32 1448.67 238.13 1448.67 Z" fill="#000000" fill-rule="evenodd" fill-opacity="1" /><path clip-path="url(#clip390)" d="M 0 0 M516.99 1449.29 L535.347 1449.29 L535.347 1453.23 L521.273 1453.23 L521.273 1461.7 Q522.291 1461.35 523.31 1461.19 Q524.328 1461 525.347 1461 Q531.134 1461 534.513 1464.18 Q537.893 1467.35 537.893 1472.76 Q537.893 1478.34 534.421 1481.44 Q530.949 1484.52 524.629 1484.52 Q522.453 1484.52 520.185 1484.15 Q517.939 1483.78 515.532 1483.04 L515.532 1478.34 Q517.615 1479.48 519.838 1480.03 Q522.06 1480.59 524.537 1480.59 Q528.541 1480.59 530.879 1478.48 Q533.217 1476.38 533.217 1472.76 Q533.217 1469.15 530.879 1467.05 Q528.541 1464.94 524.537 1464.94 Q522.662 1464.94 520.787 1465.36 Q518.935 1465.77 516.99 1466.65 L516.99 1449.29 Z" fill="#000000" fill-rule="evenodd" fill-opacity="1" /><path clip-path="url(#clip390)" d="M 0 0 M552.962 1452.37 Q549.351 1452.37 547.523 1455.94 Q545.717 1459.48 545.717 1466.61 Q545.717 1473.71 547.523 1477.28 Q549.351 1480.82 552.962 1480.82 Q556.597 1480.82 558.402 1477.28 Q560.231 1473.71 560.231 1466.61 Q560.231 1459.48 558.402 1455.94 Q556.597 1452.37 552.962 1452.37 M552.962 1448.67 Q558.773 1448.67 561.828 1453.27 Q564.907 1457.86 564.907 1466.61 Q564.907 1475.33 561.828 1479.94 Q558.773 1484.52 552.962 1484.52 Q547.152 1484.52 544.074 1479.94 Q541.018 1475.33 541.018 1466.61 Q541.018 1457.86 544.074 1453.27 Q547.152 1448.67 552.962 1448.67 Z" fill="#000000" fill-rule="evenodd" fill-opacity="1" /><path clip-path="url(#clip390)" d="M 0 0 M805.677 1479.92 L813.316 1479.92 L813.316 1453.55 L805.006 1455.22 L805.006 1450.96 L813.27 1449.29 L817.946 1449.29 L817.946 1479.92 L825.584 1479.92 L825.584 1483.85 L805.677 1483.85 L805.677 1479.92 Z" fill="#000000" fill-rule="evenodd" fill-opacity="1" /><path clip-path="url(#clip390)" d="M 0 0 M840.654 1452.37 Q837.043 1452.37 835.214 1455.94 Q833.408 1459.48 833.408 1466.61 Q833.408 1473.71 835.214 1477.28 Q837.043 1480.82 840.654 1480.82 Q844.288 1480.82 846.094 1477.28 Q847.922 1473.71 847.922 1466.61 Q847.922 1459.48 846.094 1455.94 Q844.288 1452.37 840.654 1452.37 M840.654 1448.67 Q846.464 1448.67 849.519 1453.27 Q852.598 1457.86 852.598 1466.61 Q852.598 1475.33 849.519 1479.94 Q846.464 1484.52 840.654 1484.52 Q834.844 1484.52 831.765 1479.94 Q828.709 1475.33 828.709 1466.61 Q828.709 1457.86 831.765 1453.27 Q834.844 1448.67 840.654 1448.67 Z" fill="#000000" fill-rule="evenodd" fill-opacity="1" /><path clip-path="url(#clip390)" d="M 0 0 M867.668 1452.37 Q864.056 1452.37 862.228 1455.94 Q860.422 1459.48 860.422 1466.61 Q860.422 1473.71 862.228 1477.28 Q864.056 1480.82 867.668 1480.82 Q871.302 1480.82 873.107 1477.28 Q874.936 1473.71 874.936 1466.61 Q874.936 1459.48 873.107 1455.94 Q871.302 1452.37 867.668 1452.37 M867.668 1448.67 Q873.478 1448.67 876.533 1453.27 Q879.612 1457.86 879.612 1466.61 Q879.612 1475.33 876.533 1479.94 Q873.478 1484.52 867.668 1484.52 Q861.857 1484.52 858.779 1479.94 Q855.723 1475.33 855.723 1466.61 Q855.723 1457.86 858.779 1453.27 Q861.857 1448.67 867.668 1448.67 Z" fill="#000000" fill-rule="evenodd" fill-opacity="1" /><path clip-path="url(#clip390)" d="M 0 0 M1108.26 1479.92 L1115.9 1479.92 L1115.9 1453.55 L1107.59 1455.22 L1107.59 1450.96 L1115.86 1449.29 L1120.53 1449.29 L1120.53 1479.92 L1128.17 1479.92 L1128.17 1483.85 L1108.26 1483.85 L1108.26 1479.92 Z" fill="#000000" fill-rule="evenodd" fill-opacity="1" /><path clip-path="url(#clip390)" d="M 0 0 M1133.29 1449.29 L1151.64 1449.29 L1151.64 1453.23 L1137.57 1453.23 L1137.57 1461.7 Q1138.59 1461.35 1139.61 1461.19 Q1140.63 1461 1141.64 1461 Q1147.43 1461 1150.81 1464.18 Q1154.19 1467.35 1154.19 1472.76 Q1154.19 1478.34 1150.72 1481.44 Q1147.25 1484.52 1140.93 1484.52 Q1138.75 1484.52 1136.48 1484.15 Q1134.24 1483.78 1131.83 1483.04 L1131.83 1478.34 Q1133.91 1479.48 1136.13 1480.03 Q1138.36 1480.59 1140.83 1480.59 Q1144.84 1480.59 1147.18 1478.48 Q1149.51 1476.38 1149.51 1472.76 Q1149.51 1469.15 1147.18 1467.05 Q1144.84 1464.94 1140.83 1464.94 Q1138.96 1464.94 1137.08 1465.36 Q1135.23 1465.77 1133.29 1466.65 L1133.29 1449.29 Z" fill="#000000" fill-rule="evenodd" fill-opacity="1" /><path clip-path="url(#clip390)" d="M 0 0 M1169.26 1452.37 Q1165.65 1452.37 1163.82 1455.94 Q1162.01 1459.48 1162.01 1466.61 Q1162.01 1473.71 1163.82 1477.28 Q1165.65 1480.82 1169.26 1480.82 Q1172.89 1480.82 1174.7 1477.28 Q1176.53 1473.71 1176.53 1466.61 Q1176.53 1459.48 1174.7 1455.94 Q1172.89 1452.37 1169.26 1452.37 M1169.26 1448.67 Q1175.07 1448.67 1178.12 1453.27 Q1181.2 1457.86 1181.2 1466.61 Q1181.2 1475.33 1178.12 1479.94 Q1175.07 1484.52 1169.26 1484.52 Q1163.45 1484.52 1160.37 1479.94 Q1157.31 1475.33 1157.31 1466.61 Q1157.31 1457.86 1160.37 1453.27 Q1163.45 1448.67 1169.26 1448.67 Z" fill="#000000" fill-rule="evenodd" fill-opacity="1" /><path clip-path="url(#clip390)" d="M 0 0 M1414.13 1479.92 L1430.45 1479.92 L1430.45 1483.85 L1408.5 1483.85 L1408.5 1479.92 Q1411.16 1477.16 1415.75 1472.53 Q1420.35 1467.88 1421.53 1466.54 Q1423.78 1464.01 1424.66 1462.28 Q1425.56 1460.52 1425.56 1458.83 Q1425.56 1456.07 1423.62 1454.34 Q1421.7 1452.6 1418.59 1452.6 Q1416.4 1452.6 1413.94 1453.37 Q1411.51 1454.13 1408.73 1455.68 L1408.73 1450.96 Q1411.56 1449.82 1414.01 1449.25 Q1416.46 1448.67 1418.5 1448.67 Q1423.87 1448.67 1427.07 1451.35 Q1430.26 1454.04 1430.26 1458.53 Q1430.26 1460.66 1429.45 1462.58 Q1428.66 1464.48 1426.56 1467.07 Q1425.98 1467.74 1422.88 1470.96 Q1419.77 1474.15 1414.13 1479.92 Z" fill="#000000" fill-rule="evenodd" fill-opacity="1" /><path clip-path="url(#clip390)" d="M 0 0 M1445.52 1452.37 Q1441.9 1452.37 1440.08 1455.94 Q1438.27 1459.48 1438.27 1466.61 Q1438.27 1473.71 1440.08 1477.28 Q1441.9 1480.82 1445.52 1480.82 Q1449.15 1480.82 1450.96 1477.28 Q1452.78 1473.71 1452.78 1466.61 Q1452.78 1459.48 1450.96 1455.94 Q1449.15 1452.37 1445.52 1452.37 M1445.52 1448.67 Q1451.33 1448.67 1454.38 1453.27 Q1457.46 1457.86 1457.46 1466.61 Q1457.46 1475.33 1454.38 1479.94 Q1451.33 1484.52 1445.52 1484.52 Q1439.71 1484.52 1436.63 1479.94 Q1433.57 1475.33 1433.57 1466.61 Q1433.57 1457.86 1436.63 1453.27 Q1439.71 1448.67 1445.52 1448.67 Z" fill="#000000" fill-rule="evenodd" fill-opacity="1" /><path clip-path="url(#clip390)" d="M 0 0 M1472.53 1452.37 Q1468.92 1452.37 1467.09 1455.94 Q1465.28 1459.48 1465.28 1466.61 Q1465.28 1473.71 1467.09 1477.28 Q1468.92 1480.82 1472.53 1480.82 Q1476.16 1480.82 1477.97 1477.28 Q1479.8 1473.71 1479.8 1466.61 Q1479.8 1459.48 1477.97 1455.94 Q1476.16 1452.37 1472.53 1452.37 M1472.53 1448.67 Q1478.34 1448.67 1481.39 1453.27 Q1484.47 1457.86 1484.47 1466.61 Q1484.47 1475.33 1481.39 1479.94 Q1478.34 1484.52 1472.53 1484.52 Q1466.72 1484.52 1463.64 1479.94 Q1460.58 1475.33 1460.58 1466.61 Q1460.58 1457.86 1463.64 1453.27 Q1466.72 1448.67 1472.53 1448.67 Z" fill="#000000" fill-rule="evenodd" fill-opacity="1" /><path clip-path="url(#clip390)" d="M 0 0 M1716.71 1479.92 L1733.03 1479.92 L1733.03 1483.85 L1711.09 1483.85 L1711.09 1479.92 Q1713.75 1477.16 1718.33 1472.53 Q1722.94 1467.88 1724.12 1466.54 Q1726.37 1464.01 1727.25 1462.28 Q1728.15 1460.52 1728.15 1458.83 Q1728.15 1456.07 1726.2 1454.34 Q1724.28 1452.6 1721.18 1452.6 Q1718.98 1452.6 1716.53 1453.37 Q1714.1 1454.13 1711.32 1455.68 L1711.32 1450.96 Q1714.14 1449.82 1716.6 1449.25 Q1719.05 1448.67 1721.09 1448.67 Q1726.46 1448.67 1729.65 1451.35 Q1732.85 1454.04 1732.85 1458.53 Q1732.85 1460.66 1732.04 1462.58 Q1731.25 1464.48 1729.14 1467.07 Q1728.57 1467.74 1725.46 1470.96 Q1722.36 1474.15 1716.71 1479.92 Z" fill="#000000" fill-rule="evenodd" fill-opacity="1" /><path clip-path="url(#clip390)" d="M 0 0 M1738.15 1449.29 L1756.51 1449.29 L1756.51 1453.23 L1742.43 1453.23 L1742.43 1461.7 Q1743.45 1461.35 1744.47 1461.19 Q1745.49 1461 1746.51 1461 Q1752.29 1461 1755.67 1464.18 Q1759.05 1467.35 1759.05 1472.76 Q1759.05 1478.34 1755.58 1481.44 Q1752.11 1484.52 1745.79 1484.52 Q1743.61 1484.52 1741.34 1484.15 Q1739.1 1483.78 1736.69 1483.04 L1736.69 1478.34 Q1738.77 1479.48 1741 1480.03 Q1743.22 1480.59 1745.7 1480.59 Q1749.7 1480.59 1752.04 1478.48 Q1754.38 1476.38 1754.38 1472.76 Q1754.38 1469.15 1752.04 1467.05 Q1749.7 1464.94 1745.7 1464.94 Q1743.82 1464.94 1741.95 1465.36 Q1740.09 1465.77 1738.15 1466.65 L1738.15 1449.29 Z" fill="#000000" fill-rule="evenodd" fill-opacity="1" /><path clip-path="url(#clip390)" d="M 0 0 M1774.12 1452.37 Q1770.51 1452.37 1768.68 1455.94 Q1766.88 1459.48 1766.88 1466.61 Q1766.88 1473.71 1768.68 1477.28 Q1770.51 1480.82 1774.12 1480.82 Q1777.76 1480.82 1779.56 1477.28 Q1781.39 1473.71 1781.39 1466.61 Q1781.39 1459.48 1779.56 1455.94 Q1777.76 1452.37 1774.12 1452.37 M1774.12 1448.67 Q1779.93 1448.67 1782.99 1453.27 Q1786.07 1457.86 1786.07 1466.61 Q1786.07 1475.33 1782.99 1479.94 Q1779.93 1484.52 1774.12 1484.52 Q1768.31 1484.52 1765.23 1479.94 Q1762.18 1475.33 1762.18 1466.61 Q1762.18 1457.86 1765.23 1453.27 Q1768.31 1448.67 1774.12 1448.67 Z" fill="#000000" fill-rule="evenodd" fill-opacity="1" /><path clip-path="url(#clip390)" d="M 0 0 M2027.9 1465.22 Q2031.26 1465.94 2033.13 1468.2 Q2035.03 1470.47 2035.03 1473.81 Q2035.03 1478.92 2031.51 1481.72 Q2027.99 1484.52 2021.51 1484.52 Q2019.34 1484.52 2017.02 1484.08 Q2014.73 1483.67 2012.28 1482.81 L2012.28 1478.3 Q2014.22 1479.43 2016.53 1480.01 Q2018.85 1480.59 2021.37 1480.59 Q2025.77 1480.59 2028.06 1478.85 Q2030.38 1477.12 2030.38 1473.81 Q2030.38 1470.75 2028.22 1469.04 Q2026.09 1467.3 2022.28 1467.3 L2018.25 1467.3 L2018.25 1463.46 L2022.46 1463.46 Q2025.91 1463.46 2027.74 1462.09 Q2029.57 1460.7 2029.57 1458.11 Q2029.57 1455.45 2027.67 1454.04 Q2025.79 1452.6 2022.28 1452.6 Q2020.35 1452.6 2018.16 1453.02 Q2015.96 1453.44 2013.32 1454.31 L2013.32 1450.15 Q2015.98 1449.41 2018.29 1449.04 Q2020.63 1448.67 2022.69 1448.67 Q2028.02 1448.67 2031.12 1451.1 Q2034.22 1453.5 2034.22 1457.63 Q2034.22 1460.5 2032.58 1462.49 Q2030.93 1464.45 2027.9 1465.22 Z" fill="#000000" fill-rule="evenodd" fill-opacity="1" /><path clip-path="url(#clip390)" d="M 0 0 M2050.1 1452.37 Q2046.49 1452.37 2044.66 1455.94 Q2042.85 1459.48 2042.85 1466.61 Q2042.85 1473.71 2044.66 1477.28 Q2046.49 1480.82 2050.1 1480.82 Q2053.73 1480.82 2055.54 1477.28 Q2057.37 1473.71 2057.37 1466.61 Q2057.37 1459.48 2055.54 1455.94 Q2053.73 1452.37 2050.1 1452.37 M2050.1 1448.67 Q2055.91 1448.67 2058.97 1453.27 Q2062.04 1457.86 2062.04 1466.61 Q2062.04 1475.33 2058.97 1479.94 Q2055.91 1484.52 2050.1 1484.52 Q2044.29 1484.52 2041.21 1479.94 Q2038.15 1475.33 2038.15 1466.61 Q2038.15 1457.86 2041.21 1453.27 Q2044.29 1448.67 2050.1 1448.67 Z" fill="#000000" fill-rule="evenodd" fill-opacity="1" /><path clip-path="url(#clip390)" d="M 0 0 M2077.11 1452.37 Q2073.5 1452.37 2071.67 1455.94 Q2069.87 1459.48 2069.87 1466.61 Q2069.87 1473.71 2071.67 1477.28 Q2073.5 1480.82 2077.11 1480.82 Q2080.75 1480.82 2082.55 1477.28 Q2084.38 1473.71 2084.38 1466.61 Q2084.38 1459.48 2082.55 1455.94 Q2080.75 1452.37 2077.11 1452.37 M2077.11 1448.67 Q2082.92 1448.67 2085.98 1453.27 Q2089.06 1457.86 2089.06 1466.61 Q2089.06 1475.33 2085.98 1479.94 Q2082.92 1484.52 2077.11 1484.52 Q2071.3 1484.52 2068.22 1479.94 Q2065.17 1475.33 2065.17 1466.61 Q2065.17 1457.86 2068.22 1453.27 Q2071.3 1448.67 2077.11 1448.67 Z" fill="#000000" fill-rule="evenodd" fill-opacity="1" /><path clip-path="url(#clip390)" d="M 0 0 M2330.49 1465.22 Q2333.84 1465.94 2335.72 1468.2 Q2337.62 1470.47 2337.62 1473.81 Q2337.62 1478.92 2334.1 1481.72 Q2330.58 1484.52 2324.1 1484.52 Q2321.92 1484.52 2319.61 1484.08 Q2317.32 1483.67 2314.86 1482.81 L2314.86 1478.3 Q2316.81 1479.43 2319.12 1480.01 Q2321.44 1480.59 2323.96 1480.59 Q2328.36 1480.59 2330.65 1478.85 Q2332.96 1477.12 2332.96 1473.81 Q2332.96 1470.75 2330.81 1469.04 Q2328.68 1467.3 2324.86 1467.3 L2320.83 1467.3 L2320.83 1463.46 L2325.05 1463.46 Q2328.5 1463.46 2330.33 1462.09 Q2332.15 1460.7 2332.15 1458.11 Q2332.15 1455.45 2330.26 1454.04 Q2328.38 1452.6 2324.86 1452.6 Q2322.94 1452.6 2320.74 1453.02 Q2318.54 1453.44 2315.9 1454.31 L2315.9 1450.15 Q2318.57 1449.41 2320.88 1449.04 Q2323.22 1448.67 2325.28 1448.67 Q2330.6 1448.67 2333.71 1451.1 Q2336.81 1453.5 2336.81 1457.63 Q2336.81 1460.5 2335.16 1462.49 Q2333.52 1464.45 2330.49 1465.22 Z" fill="#000000" fill-rule="evenodd" fill-opacity="1" /><path clip-path="url(#clip390)" d="M 0 0 M2342.73 1449.29 L2361.09 1449.29 L2361.09 1453.23 L2347.02 1453.23 L2347.02 1461.7 Q2348.03 1461.35 2349.05 1461.19 Q2350.07 1461 2351.09 1461 Q2356.88 1461 2360.26 1464.18 Q2363.64 1467.35 2363.64 1472.76 Q2363.64 1478.34 2360.16 1481.44 Q2356.69 1484.52 2350.37 1484.52 Q2348.2 1484.52 2345.93 1484.15 Q2343.68 1483.78 2341.27 1483.04 L2341.27 1478.34 Q2343.36 1479.48 2345.58 1480.03 Q2347.8 1480.59 2350.28 1480.59 Q2354.28 1480.59 2356.62 1478.48 Q2358.96 1476.38 2358.96 1472.76 Q2358.96 1469.15 2356.62 1467.05 Q2354.28 1464.94 2350.28 1464.94 Q2348.4 1464.94 2346.53 1465.36 Q2344.68 1465.77 2342.73 1466.65 L2342.73 1449.29 Z" fill="#000000" fill-rule="evenodd" fill-opacity="1" /><path clip-path="url(#clip390)" d="M 0 0 M2378.7 1452.37 Q2375.09 1452.37 2373.27 1455.94 Q2371.46 1459.48 2371.46 1466.61 Q2371.46 1473.71 2373.27 1477.28 Q2375.09 1480.82 2378.7 1480.82 Q2382.34 1480.82 2384.14 1477.28 Q2385.97 1473.71 2385.97 1466.61 Q2385.97 1459.48 2384.14 1455.94 Q2382.34 1452.37 2378.7 1452.37 M2378.7 1448.67 Q2384.51 1448.67 2387.57 1453.27 Q2390.65 1457.86 2390.65 1466.61 Q2390.65 1475.33 2387.57 1479.94 Q2384.51 1484.52 2378.7 1484.52 Q2372.89 1484.52 2369.82 1479.94 Q2366.76 1475.33 2366.76 1466.61 Q2366.76 1457.86 2369.82 1453.27 Q2372.89 1448.67 2378.7 1448.67 Z" fill="#000000" fill-rule="evenodd" fill-opacity="1" /><path clip-path="url(#clip390)" d="M 0 0 M1312.06 1520.4 L1299.17 1537.74 L1312.73 1556.04 L1305.82 1556.04 L1295.44 1542.04 L1285.07 1556.04 L1278.16 1556.04 L1292.01 1537.39 L1279.34 1520.4 L1286.24 1520.4 L1295.7 1533.1 L1305.15 1520.4 L1312.06 1520.4 Z" fill="#000000" fill-rule="evenodd" fill-opacity="1" /><polyline clip-path="url(#clip392)" style="stroke:#000000; stroke-width:2; stroke-opacity:0.1; fill:none" points="
  238.13,1382.77 2352.76,1382.77 
  "/>
<polyline clip-path="url(#clip392)" style="stroke:#000000; stroke-width:2; stroke-opacity:0.1; fill:none" points="
  238.13,1078.98 2352.76,1078.98 
  "/>
<polyline clip-path="url(#clip392)" style="stroke:#000000; stroke-width:2; stroke-opacity:0.1; fill:none" points="
  238.13,775.184 2352.76,775.184 
  "/>
<polyline clip-path="url(#clip392)" style="stroke:#000000; stroke-width:2; stroke-opacity:0.1; fill:none" points="
  238.13,471.391 2352.76,471.391 
  "/>
<polyline clip-path="url(#clip392)" style="stroke:#000000; stroke-width:2; stroke-opacity:0.1; fill:none" points="
  238.13,167.598 2352.76,167.598 
  "/>
<polyline clip-path="url(#clip390)" style="stroke:#000000; stroke-width:4; stroke-opacity:1; fill:none" points="
  238.13,1423.18 238.13,47.2441 
  "/>
<polyline clip-path="url(#clip390)" style="stroke:#000000; stroke-width:4; stroke-opacity:1; fill:none" points="
  238.13,1382.77 263.506,1382.77 
  "/>
<polyline clip-path="url(#clip390)" style="stroke:#000000; stroke-width:4; stroke-opacity:1; fill:none" points="
  238.13,1078.98 263.506,1078.98 
  "/>
<polyline clip-path="url(#clip390)" style="stroke:#000000; stroke-width:4; stroke-opacity:1; fill:none" points="
  238.13,775.184 263.506,775.184 
  "/>
<polyline clip-path="url(#clip390)" style="stroke:#000000; stroke-width:4; stroke-opacity:1; fill:none" points="
  238.13,471.391 263.506,471.391 
  "/>
<polyline clip-path="url(#clip390)" style="stroke:#000000; stroke-width:4; stroke-opacity:1; fill:none" points="
  238.13,167.598 263.506,167.598 
  "/>
<path clip-path="url(#clip390)" d="M 0 0 M126.205 1368.57 Q122.593 1368.57 120.765 1372.13 Q118.959 1375.68 118.959 1382.81 Q118.959 1389.91 120.765 1393.48 Q122.593 1397.02 126.205 1397.02 Q129.839 1397.02 131.644 1393.48 Q133.473 1389.91 133.473 1382.81 Q133.473 1375.68 131.644 1372.13 Q129.839 1368.57 126.205 1368.57 M126.205 1364.87 Q132.015 1364.87 135.07 1369.47 Q138.149 1374.06 138.149 1382.81 Q138.149 1391.53 135.07 1396.14 Q132.015 1400.72 126.205 1400.72 Q120.394 1400.72 117.316 1396.14 Q114.26 1391.53 114.26 1382.81 Q114.26 1374.06 117.316 1369.47 Q120.394 1364.87 126.205 1364.87 Z" fill="#000000" fill-rule="evenodd" fill-opacity="1" /><path clip-path="url(#clip390)" d="M 0 0 M143.218 1394.17 L148.103 1394.17 L148.103 1400.05 L143.218 1400.05 L143.218 1394.17 Z" fill="#000000" fill-rule="evenodd" fill-opacity="1" /><path clip-path="url(#clip390)" d="M 0 0 M163.172 1368.57 Q159.561 1368.57 157.732 1372.13 Q155.927 1375.68 155.927 1382.81 Q155.927 1389.91 157.732 1393.48 Q159.561 1397.02 163.172 1397.02 Q166.806 1397.02 168.612 1393.48 Q170.44 1389.91 170.44 1382.81 Q170.44 1375.68 168.612 1372.13 Q166.806 1368.57 163.172 1368.57 M163.172 1364.87 Q168.982 1364.87 172.038 1369.47 Q175.116 1374.06 175.116 1382.81 Q175.116 1391.53 172.038 1396.14 Q168.982 1400.72 163.172 1400.72 Q157.362 1400.72 154.283 1396.14 Q151.228 1391.53 151.228 1382.81 Q151.228 1374.06 154.283 1369.47 Q157.362 1364.87 163.172 1364.87 Z" fill="#000000" fill-rule="evenodd" fill-opacity="1" /><path clip-path="url(#clip390)" d="M 0 0 M190.186 1368.57 Q186.575 1368.57 184.746 1372.13 Q182.94 1375.68 182.94 1382.81 Q182.94 1389.91 184.746 1393.48 Q186.575 1397.02 190.186 1397.02 Q193.82 1397.02 195.625 1393.48 Q197.454 1389.91 197.454 1382.81 Q197.454 1375.68 195.625 1372.13 Q193.82 1368.57 190.186 1368.57 M190.186 1364.87 Q195.996 1364.87 199.051 1369.47 Q202.13 1374.06 202.13 1382.81 Q202.13 1391.53 199.051 1396.14 Q195.996 1400.72 190.186 1400.72 Q184.376 1400.72 181.297 1396.14 Q178.241 1391.53 178.241 1382.81 Q178.241 1374.06 181.297 1369.47 Q184.376 1364.87 190.186 1364.87 Z" fill="#000000" fill-rule="evenodd" fill-opacity="1" /><path clip-path="url(#clip390)" d="M 0 0 M128.797 1064.78 Q125.186 1064.78 123.357 1068.34 Q121.552 1071.88 121.552 1079.01 Q121.552 1086.12 123.357 1089.68 Q125.186 1093.22 128.797 1093.22 Q132.431 1093.22 134.237 1089.68 Q136.066 1086.12 136.066 1079.01 Q136.066 1071.88 134.237 1068.34 Q132.431 1064.78 128.797 1064.78 M128.797 1061.07 Q134.607 1061.07 137.663 1065.68 Q140.741 1070.26 140.741 1079.01 Q140.741 1087.74 137.663 1092.35 Q134.607 1096.93 128.797 1096.93 Q122.987 1096.93 119.908 1092.35 Q116.853 1087.74 116.853 1079.01 Q116.853 1070.26 119.908 1065.68 Q122.987 1061.07 128.797 1061.07 Z" fill="#000000" fill-rule="evenodd" fill-opacity="1" /><path clip-path="url(#clip390)" d="M 0 0 M145.811 1090.38 L150.695 1090.38 L150.695 1096.26 L145.811 1096.26 L145.811 1090.38 Z" fill="#000000" fill-rule="evenodd" fill-opacity="1" /><path clip-path="url(#clip390)" d="M 0 0 M159.792 1092.32 L176.112 1092.32 L176.112 1096.26 L154.167 1096.26 L154.167 1092.32 Q156.829 1089.57 161.413 1084.94 Q166.019 1080.29 167.2 1078.94 Q169.445 1076.42 170.325 1074.68 Q171.227 1072.92 171.227 1071.23 Q171.227 1068.48 169.283 1066.74 Q167.362 1065.01 164.26 1065.01 Q162.061 1065.01 159.607 1065.77 Q157.177 1066.54 154.399 1068.09 L154.399 1063.36 Q157.223 1062.23 159.677 1061.65 Q162.13 1061.07 164.167 1061.07 Q169.538 1061.07 172.732 1063.76 Q175.926 1066.44 175.926 1070.93 Q175.926 1073.06 175.116 1074.98 Q174.329 1076.88 172.223 1079.47 Q171.644 1080.15 168.542 1083.36 Q165.44 1086.56 159.792 1092.32 Z" fill="#000000" fill-rule="evenodd" fill-opacity="1" /><path clip-path="url(#clip390)" d="M 0 0 M181.227 1061.7 L199.584 1061.7 L199.584 1065.63 L185.51 1065.63 L185.51 1074.1 Q186.528 1073.76 187.547 1073.6 Q188.565 1073.41 189.584 1073.41 Q195.371 1073.41 198.75 1076.58 Q202.13 1079.75 202.13 1085.17 Q202.13 1090.75 198.658 1093.85 Q195.186 1096.93 188.866 1096.93 Q186.69 1096.93 184.422 1096.56 Q182.176 1096.19 179.769 1095.45 L179.769 1090.75 Q181.852 1091.88 184.075 1092.44 Q186.297 1092.99 188.774 1092.99 Q192.778 1092.99 195.116 1090.89 Q197.454 1088.78 197.454 1085.17 Q197.454 1081.56 195.116 1079.45 Q192.778 1077.35 188.774 1077.35 Q186.899 1077.35 185.024 1077.76 Q183.172 1078.18 181.227 1079.06 L181.227 1061.7 Z" fill="#000000" fill-rule="evenodd" fill-opacity="1" /><path clip-path="url(#clip390)" d="M 0 0 M127.2 760.983 Q123.589 760.983 121.76 764.547 Q119.955 768.089 119.955 775.219 Q119.955 782.325 121.76 785.89 Q123.589 789.432 127.2 789.432 Q130.834 789.432 132.64 785.89 Q134.468 782.325 134.468 775.219 Q134.468 768.089 132.64 764.547 Q130.834 760.983 127.2 760.983 M127.2 757.279 Q133.01 757.279 136.066 761.885 Q139.144 766.469 139.144 775.219 Q139.144 783.946 136.066 788.552 Q133.01 793.135 127.2 793.135 Q121.39 793.135 118.311 788.552 Q115.256 783.946 115.256 775.219 Q115.256 766.469 118.311 761.885 Q121.39 757.279 127.2 757.279 Z" fill="#000000" fill-rule="evenodd" fill-opacity="1" /><path clip-path="url(#clip390)" d="M 0 0 M144.214 786.584 L149.098 786.584 L149.098 792.464 L144.214 792.464 L144.214 786.584 Z" fill="#000000" fill-rule="evenodd" fill-opacity="1" /><path clip-path="url(#clip390)" d="M 0 0 M154.214 757.904 L172.57 757.904 L172.57 761.839 L158.496 761.839 L158.496 770.311 Q159.515 769.964 160.533 769.802 Q161.552 769.617 162.57 769.617 Q168.357 769.617 171.737 772.788 Q175.116 775.959 175.116 781.376 Q175.116 786.955 171.644 790.057 Q168.172 793.135 161.852 793.135 Q159.677 793.135 157.408 792.765 Q155.163 792.395 152.755 791.654 L152.755 786.955 Q154.839 788.089 157.061 788.645 Q159.283 789.2 161.76 789.2 Q165.765 789.2 168.102 787.094 Q170.44 784.987 170.44 781.376 Q170.44 777.765 168.102 775.659 Q165.765 773.552 161.76 773.552 Q159.885 773.552 158.01 773.969 Q156.158 774.385 154.214 775.265 L154.214 757.904 Z" fill="#000000" fill-rule="evenodd" fill-opacity="1" /><path clip-path="url(#clip390)" d="M 0 0 M190.186 760.983 Q186.575 760.983 184.746 764.547 Q182.94 768.089 182.94 775.219 Q182.94 782.325 184.746 785.89 Q186.575 789.432 190.186 789.432 Q193.82 789.432 195.625 785.89 Q197.454 782.325 197.454 775.219 Q197.454 768.089 195.625 764.547 Q193.82 760.983 190.186 760.983 M190.186 757.279 Q195.996 757.279 199.051 761.885 Q202.13 766.469 202.13 775.219 Q202.13 783.946 199.051 788.552 Q195.996 793.135 190.186 793.135 Q184.376 793.135 181.297 788.552 Q178.241 783.946 178.241 775.219 Q178.241 766.469 181.297 761.885 Q184.376 757.279 190.186 757.279 Z" fill="#000000" fill-rule="evenodd" fill-opacity="1" /><path clip-path="url(#clip390)" d="M 0 0 M128.103 457.189 Q124.492 457.189 122.663 460.754 Q120.857 464.296 120.857 471.426 Q120.857 478.532 122.663 482.097 Q124.492 485.638 128.103 485.638 Q131.737 485.638 133.542 482.097 Q135.371 478.532 135.371 471.426 Q135.371 464.296 133.542 460.754 Q131.737 457.189 128.103 457.189 M128.103 453.486 Q133.913 453.486 136.968 458.092 Q140.047 462.676 140.047 471.426 Q140.047 480.152 136.968 484.759 Q133.913 489.342 128.103 489.342 Q122.293 489.342 119.214 484.759 Q116.158 480.152 116.158 471.426 Q116.158 462.676 119.214 458.092 Q122.293 453.486 128.103 453.486 Z" fill="#000000" fill-rule="evenodd" fill-opacity="1" /><path clip-path="url(#clip390)" d="M 0 0 M145.116 482.791 L150.001 482.791 L150.001 488.671 L145.116 488.671 L145.116 482.791 Z" fill="#000000" fill-rule="evenodd" fill-opacity="1" /><path clip-path="url(#clip390)" d="M 0 0 M153.89 454.111 L176.112 454.111 L176.112 456.102 L163.565 488.671 L158.681 488.671 L170.487 458.046 L153.89 458.046 L153.89 454.111 Z" fill="#000000" fill-rule="evenodd" fill-opacity="1" /><path clip-path="url(#clip390)" d="M 0 0 M181.227 454.111 L199.584 454.111 L199.584 458.046 L185.51 458.046 L185.51 466.518 Q186.528 466.171 187.547 466.009 Q188.565 465.824 189.584 465.824 Q195.371 465.824 198.75 468.995 Q202.13 472.166 202.13 477.583 Q202.13 483.162 198.658 486.263 Q195.186 489.342 188.866 489.342 Q186.69 489.342 184.422 488.972 Q182.176 488.601 179.769 487.861 L179.769 483.162 Q181.852 484.296 184.075 484.851 Q186.297 485.407 188.774 485.407 Q192.778 485.407 195.116 483.3 Q197.454 481.194 197.454 477.583 Q197.454 473.972 195.116 471.865 Q192.778 469.759 188.774 469.759 Q186.899 469.759 185.024 470.176 Q183.172 470.592 181.227 471.472 L181.227 454.111 Z" fill="#000000" fill-rule="evenodd" fill-opacity="1" /><path clip-path="url(#clip390)" d="M 0 0 M118.242 180.942 L125.88 180.942 L125.88 154.577 L117.57 156.244 L117.57 151.984 L125.834 150.318 L130.51 150.318 L130.51 180.942 L138.149 180.942 L138.149 184.878 L118.242 184.878 L118.242 180.942 Z" fill="#000000" fill-rule="evenodd" fill-opacity="1" /><path clip-path="url(#clip390)" d="M 0 0 M143.218 178.998 L148.103 178.998 L148.103 184.878 L143.218 184.878 L143.218 178.998 Z" fill="#000000" fill-rule="evenodd" fill-opacity="1" /><path clip-path="url(#clip390)" d="M 0 0 M163.172 153.396 Q159.561 153.396 157.732 156.961 Q155.927 160.503 155.927 167.632 Q155.927 174.739 157.732 178.304 Q159.561 181.845 163.172 181.845 Q166.806 181.845 168.612 178.304 Q170.44 174.739 170.44 167.632 Q170.44 160.503 168.612 156.961 Q166.806 153.396 163.172 153.396 M163.172 149.693 Q168.982 149.693 172.038 154.299 Q175.116 158.882 175.116 167.632 Q175.116 176.359 172.038 180.966 Q168.982 185.549 163.172 185.549 Q157.362 185.549 154.283 180.966 Q151.228 176.359 151.228 167.632 Q151.228 158.882 154.283 154.299 Q157.362 149.693 163.172 149.693 Z" fill="#000000" fill-rule="evenodd" fill-opacity="1" /><path clip-path="url(#clip390)" d="M 0 0 M190.186 153.396 Q186.575 153.396 184.746 156.961 Q182.94 160.503 182.94 167.632 Q182.94 174.739 184.746 178.304 Q186.575 181.845 190.186 181.845 Q193.82 181.845 195.625 178.304 Q197.454 174.739 197.454 167.632 Q197.454 160.503 195.625 156.961 Q193.82 153.396 190.186 153.396 M190.186 149.693 Q195.996 149.693 199.051 154.299 Q202.13 158.882 202.13 167.632 Q202.13 176.359 199.051 180.966 Q195.996 185.549 190.186 185.549 Q184.376 185.549 181.297 180.966 Q178.241 176.359 178.241 167.632 Q178.241 158.882 181.297 154.299 Q184.376 149.693 190.186 149.693 Z" fill="#000000" fill-rule="evenodd" fill-opacity="1" /><path clip-path="url(#clip390)" d="M 0 0 M70.212 745.095 Q76.6732 745.095 80.3653 742.453 Q84.0256 739.779 84.0256 735.132 Q84.0256 730.485 80.3653 727.812 Q76.6732 725.138 70.212 725.138 Q63.7508 725.138 60.0905 727.812 Q56.3984 730.485 56.3984 735.132 Q56.3984 739.779 60.0905 742.453 Q63.7508 745.095 70.212 745.095 M82.657 725.138 Q85.8398 726.984 87.3994 729.817 Q88.9272 732.618 88.9272 736.565 Q88.9272 743.026 83.771 747.1 Q78.6147 751.142 70.212 751.142 Q61.8093 751.142 56.6531 747.1 Q51.4968 743.026 51.4968 736.565 Q51.4968 732.618 53.0564 729.817 Q54.5842 726.984 57.7671 725.138 L52.3562 725.138 L52.3562 719.282 L101.563 719.282 L101.563 725.138 L82.657 725.138 Z" fill="#000000" fill-rule="evenodd" fill-opacity="1" /><polyline clip-path="url(#clip392)" style="stroke:#009af9; stroke-width:4; stroke-opacity:1; fill:none" points="
  238.13,1382.77 240.983,1382.77 246.39,1382.77 251.798,1382.77 254.651,1382.77 257.503,1382.77 262.911,1382.77 268.318,1382.77 271.171,1382.77 
  274.024,1382.77 279.431,1382.77 284.839,1382.77 287.692,1382.77 290.544,1382.77 295.952,1382.77 301.359,1382.77 304.212,1382.77 
  307.065,1382.77 312.472,1382.77 317.88,1382.77 320.733,1382.77 323.585,1382.77 328.993,1382.77 334.4,1382.77 337.253,1382.77 
  340.106,1382.77 345.513,1382.77 350.921,1382.77 353.774,1382.77 356.626,1382.77 362.034,1382.77 367.442,1382.77 370.294,1382.77 
  373.147,1382.77 378.554,1382.77 383.962,1382.77 386.815,1382.77 389.667,1382.77 395.075,1382.77 400.483,1382.77 403.335,1382.77 
  406.188,1382.77 411.595,1382.77 417.003,1382.77 419.856,1382.77 422.708,1382.77 428.116,1382.77 433.524,1382.77 436.376,1382.77 
  439.229,1382.77 444.636,1382.77 450.044,1382.77 452.897,1382.77 455.749,1382.77 461.157,1382.77 466.565,1382.77 469.417,1382.77 
  472.27,1382.77 477.678,1382.77 483.085,1382.77 485.938,1382.77 488.79,1382.77 494.198,1382.77 499.606,1382.77 502.458,1382.77 
  505.311,1382.77 510.719,1382.77 516.126,1382.77 518.979,1382.77 521.831,1382.77 527.239,1382.77 532.647,1382.77 535.499,1382.77 
  538.352,1382.77 543.76,1382.77 549.167,1382.77 552.02,1382.77 554.872,1382.77 560.28,1382.77 565.688,1382.77 568.54,1382.77 
  571.393,1382.77 576.801,1382.77 582.208,1382.77 585.061,1382.77 587.914,1382.77 593.321,1382.77 598.729,1382.77 601.581,1382.77 
  604.434,1382.77 609.842,1382.77 615.249,1382.77 618.102,1382.77 620.955,1382.77 626.362,1382.77 631.77,1382.77 634.622,1382.77 
  637.475,1382.77 642.883,1382.77 648.29,1382.77 651.143,1382.77 653.996,1382.77 659.403,1382.77 664.811,1382.77 667.663,1382.77 
  670.516,1382.77 675.924,1382.77 681.331,1382.77 684.184,1382.77 687.037,1382.77 692.444,167.598 697.852,167.598 700.704,167.598 
  703.557,167.598 708.965,167.598 714.372,167.598 717.225,167.598 720.078,167.598 725.485,167.598 730.893,167.598 733.745,167.598 
  736.598,167.598 742.006,167.598 747.413,167.598 750.266,167.598 753.119,167.598 758.526,167.598 763.934,167.598 766.787,167.598 
  769.639,167.598 775.047,167.598 780.454,167.598 783.307,167.598 786.16,167.598 791.567,167.598 796.975,167.598 799.828,167.598 
  802.68,167.598 808.088,167.598 813.495,167.598 816.348,167.598 819.201,167.598 824.608,167.598 830.016,167.598 832.869,167.598 
  835.721,167.598 841.129,167.598 846.536,167.598 849.389,167.598 852.242,167.598 857.649,167.598 863.057,167.598 865.91,167.598 
  868.762,167.598 874.17,167.598 879.577,167.598 882.43,167.598 885.283,167.598 890.69,167.598 896.098,167.598 898.951,167.598 
  901.803,167.598 907.211,167.598 912.618,167.598 915.471,167.598 918.324,167.598 923.731,167.598 929.139,167.598 931.992,167.598 
  934.844,167.598 940.252,167.598 945.66,167.598 948.512,167.598 951.365,167.598 956.772,167.598 962.18,167.598 965.033,167.598 
  967.885,167.598 973.293,167.598 978.701,167.598 981.553,167.598 984.406,167.598 989.813,167.598 995.221,1382.77 998.074,1382.77 
  1000.93,1382.77 1006.33,1382.77 1011.74,1382.77 1014.59,1382.77 1017.45,1382.77 1022.85,1382.77 1028.26,1382.77 1031.11,1382.77 
  1033.97,1382.77 1039.38,1382.77 1044.78,1382.77 1047.64,1382.77 1050.49,1382.77 1055.9,1382.77 1061.3,1382.77 1064.16,1382.77 
  1067.01,1382.77 1072.42,1382.77 1077.82,1382.77 1080.68,1382.77 1083.53,1382.77 1088.94,1382.77 1094.34,1382.77 1097.2,1382.77 
  1100.05,1382.77 1105.46,1382.77 1110.86,1382.77 1113.72,1382.77 1116.57,1382.77 1121.98,1382.77 1127.39,1382.77 1130.24,1382.77 
  1133.09,1382.77 1138.5,1382.77 1143.91,1382.77 1146.76,1382.77 1149.61,1382.77 1155.02,1382.77 1160.43,1382.77 1163.28,1382.77 
  1166.13,1382.77 1171.54,1382.77 1176.95,1382.77 1179.8,1382.77 1182.65,1382.77 1188.06,1382.77 1193.47,1382.77 1196.32,1382.77 
  1199.17,1382.77 1204.58,1382.77 1209.99,1382.77 1212.84,1382.77 1215.69,1382.77 1221.1,1382.77 1226.51,1382.77 1229.36,1382.77 
  1232.21,1382.77 1237.62,1382.77 1243.03,1382.77 1245.88,1382.77 1248.73,1382.77 1254.14,1382.77 1259.55,1382.77 1262.4,1382.77 
  1265.25,1382.77 1270.66,1382.77 1276.07,1382.77 1278.92,1382.77 1281.78,1382.77 1287.18,1382.77 1292.59,1382.77 1295.44,1382.77 
  1298.3,1382.77 1303.7,1382.77 1309.11,1382.77 1311.96,1382.77 1314.82,1382.77 1320.22,1382.77 1325.63,1382.77 1328.48,1382.77 
  1331.34,1382.77 1336.74,1382.77 1342.15,1382.77 1345,1382.77 1347.86,1382.77 1353.26,1382.77 1358.67,1382.77 1361.53,1382.77 
  1364.38,1382.77 1369.79,1382.77 1375.19,1382.77 1378.05,1382.77 1380.9,1382.77 1386.31,1382.77 1391.71,1382.77 1394.57,1382.77 
  1397.42,1382.77 1402.83,1382.77 1408.23,1382.77 1411.09,1382.77 1413.94,1382.77 1419.35,1382.77 1424.75,1382.77 1427.61,1382.77 
  1430.46,1382.77 1435.87,1382.77 1441.27,1382.77 1444.13,1382.77 1446.98,1382.77 1452.39,1382.77 1457.8,1382.77 1460.65,1382.77 
  1463.5,1382.77 1468.91,1382.77 1474.32,1382.77 1477.17,1382.77 1480.02,1382.77 1485.43,1382.77 1490.84,1382.77 1493.69,1382.77 
  1496.54,1382.77 1501.95,1382.77 1507.36,1382.77 1510.21,1382.77 1513.06,1382.77 1518.47,1382.77 1523.88,1382.77 1526.73,1382.77 
  1529.58,1382.77 1534.99,1382.77 1540.4,1382.77 1543.25,1382.77 1546.1,1382.77 1551.51,1382.77 1556.92,1382.77 1559.77,1382.77 
  1562.62,1382.77 1568.03,1382.77 1573.44,1382.77 1576.29,1382.77 1579.14,1382.77 1584.55,1382.77 1589.96,1382.77 1592.81,1382.77 
  1595.66,1382.77 1601.07,1382.77 1606.48,1382.77 1609.33,1382.77 1612.19,1382.77 1617.59,1382.77 1623,1382.77 1625.85,1382.77 
  1628.71,1382.77 1634.11,1382.77 1639.52,1382.77 1642.37,1382.77 1645.23,1382.77 1650.63,1382.77 1656.04,1382.77 1658.89,1382.77 
  1661.75,1382.77 1667.15,1382.77 1672.56,1382.77 1675.41,1382.77 1678.27,1382.77 1683.68,1382.77 1689.08,1382.77 1691.94,1382.77 
  1694.79,1382.77 1700.2,1382.77 1705.6,1382.77 1708.46,1382.77 1711.31,1382.77 1716.72,1382.77 1722.12,1382.77 1724.98,1382.77 
  1727.83,1382.77 1733.24,1382.77 1738.64,1382.77 1741.5,1382.77 1744.35,1382.77 1749.76,1382.77 1755.16,1382.77 1758.02,1382.77 
  1760.87,1382.77 1766.28,1382.77 1771.69,1382.77 1774.54,1382.77 1777.39,1382.77 1782.8,1382.77 1788.21,1382.77 1791.06,1382.77 
  1793.91,1382.77 1799.32,1382.77 1804.73,1382.77 1807.58,1382.77 1810.43,1382.77 1815.84,1382.77 1821.25,1382.77 1824.1,1382.77 
  1826.95,1382.77 1832.36,1382.77 1837.77,1382.77 1840.62,1382.77 1843.47,1382.77 1848.88,1382.77 1854.29,1382.77 1857.14,1382.77 
  1859.99,1382.77 1865.4,1382.77 1870.81,1382.77 1873.66,1382.77 1876.51,1382.77 1881.92,1382.77 1887.33,1382.77 1890.18,1382.77 
  1893.03,1382.77 1898.44,1382.77 1903.85,1382.77 1906.7,1382.77 1909.55,1382.77 1914.96,1382.77 1920.37,1382.77 1923.22,1382.77 
  1926.08,1382.77 1931.48,1382.77 1936.89,1382.77 1939.74,1382.77 1942.6,1382.77 1948,1382.77 1953.41,1382.77 1956.26,1382.77 
  1959.12,1382.77 1964.52,1382.77 1969.93,1382.77 1972.78,1382.77 1975.64,1382.77 1981.04,1382.77 1986.45,1382.77 1989.3,1382.77 
  1992.16,1382.77 1997.56,1382.77 2002.97,1382.77 2005.83,1382.77 2008.68,1382.77 2014.09,1382.77 2019.49,1382.77 2022.35,1382.77 
  2025.2,1382.77 2030.61,1382.77 2036.01,1382.77 2038.87,1382.77 2041.72,1382.77 2047.13,1382.77 2052.53,1382.77 2055.39,1382.77 
  2058.24,1382.77 2063.65,1382.77 2069.05,1382.77 2071.91,1382.77 2074.76,1382.77 2080.17,1382.77 2085.58,1382.77 2088.43,1382.77 
  2091.28,1382.77 2096.69,1382.77 2102.1,1382.77 2104.95,1382.77 2107.8,1382.77 2113.21,1382.77 2118.62,1382.77 2121.47,1382.77 
  2124.32,1382.77 2129.73,1382.77 2135.14,1382.77 2137.99,1382.77 2140.84,1382.77 2146.25,1382.77 2151.66,1382.77 2154.51,1382.77 
  2157.36,1382.77 2162.77,1382.77 2168.18,1382.77 2171.03,1382.77 2173.88,1382.77 2179.29,1382.77 2184.7,1382.77 2187.55,1382.77 
  2190.4,1382.77 2195.81,1382.77 2201.22,1382.77 2204.07,1382.77 2206.92,1382.77 2212.33,1382.77 2217.74,1382.77 2220.59,1382.77 
  2223.44,1382.77 2228.85,1382.77 2234.26,1382.77 2237.11,1382.77 2239.96,1382.77 2245.37,1382.77 2250.78,1382.77 2253.63,1382.77 
  2256.49,1382.77 2261.89,1382.77 2267.3,1382.77 2270.15,1382.77 2273.01,1382.77 2278.41,1382.77 2283.82,1382.77 2286.67,1382.77 
  2289.53,1382.77 2294.93,1382.77 2300.34,1382.77 2303.19,1382.77 2306.05,1382.77 2311.45,1382.77 2316.86,1382.77 2319.71,1382.77 
  2322.57,1382.77 2327.98,1382.77 2333.38,1382.77 2336.24,1382.77 2339.09,1382.77 2344.5,1382.77 2349.9,1382.77 2352.76,1382.77 
  
  "/>
<polyline clip-path="url(#clip392)" style="stroke:#e26f46; stroke-width:4; stroke-opacity:1; fill:none" points="
  238.13,1382.77 240.983,1382.77 246.39,1382.77 251.798,1382.77 254.651,1382.77 257.503,1382.77 262.911,1382.77 268.318,1382.77 271.171,1382.77 
  274.024,1382.77 279.431,1382.77 284.839,1382.77 287.692,1382.77 290.544,1382.77 295.952,1382.77 301.359,1382.77 304.212,1382.77 
  307.065,1382.77 312.472,1382.77 317.88,1382.77 320.733,1382.77 323.585,1382.77 328.993,1382.77 334.4,1382.77 337.253,1382.77 
  340.106,1382.77 345.513,1382.77 350.921,1382.77 353.774,1382.77 356.626,1382.77 362.034,1382.77 367.442,1382.77 370.294,1382.77 
  373.147,1382.77 378.554,1382.77 383.962,1382.77 386.815,1382.77 389.667,1382.77 395.075,1382.77 400.483,1382.77 403.335,1382.77 
  406.188,1382.77 411.595,1382.77 417.003,1382.77 419.856,1382.77 422.708,1382.77 428.116,1382.77 433.524,1382.77 436.376,1382.77 
  439.229,1382.77 444.636,1382.77 450.044,1382.77 452.897,1382.77 455.749,1382.77 461.157,1382.77 466.565,1382.77 469.417,1382.77 
  472.27,1382.77 477.678,1382.77 483.085,1382.77 485.938,1382.77 488.79,1382.77 494.198,1382.77 499.606,1382.77 502.458,1382.77 
  505.311,1382.77 510.719,1382.77 516.126,1382.77 518.979,1382.77 521.831,1382.77 527.239,1382.77 532.647,1382.77 535.499,1382.77 
  538.352,1382.77 543.76,1382.77 549.167,1382.77 552.02,1382.77 554.872,1382.77 560.28,1382.77 565.688,1382.77 568.54,1382.77 
  571.393,1382.77 576.801,1382.77 582.208,1382.77 585.061,1382.77 587.914,1382.77 593.321,1382.77 598.729,1382.77 601.581,1382.77 
  604.434,1382.77 609.842,1382.77 615.249,1382.77 618.102,1382.77 620.955,1382.77 626.362,1382.77 631.77,1382.77 634.622,1382.77 
  637.475,1382.77 642.883,1382.77 648.29,1382.77 651.143,1382.77 653.996,1382.77 659.403,1382.77 664.811,1382.77 667.663,1382.77 
  670.516,1382.77 675.924,1382.77 681.331,1382.77 684.184,1382.77 687.037,1382.77 692.444,1382.77 697.852,1382.77 700.704,1382.77 
  703.557,1382.77 708.965,1382.77 714.372,1382.77 717.225,1382.77 720.078,1382.77 725.485,1382.77 730.893,1382.77 733.745,1382.77 
  736.598,1382.77 742.006,1382.77 747.413,1382.77 750.266,1382.77 753.119,1382.77 758.526,1382.77 763.934,1382.77 766.787,1382.77 
  769.639,1382.77 775.047,1382.77 780.454,1382.77 783.307,1382.77 786.16,1382.77 791.567,1382.77 796.975,1382.77 799.828,1382.77 
  802.68,1382.77 808.088,1382.77 813.495,1382.77 816.348,1382.77 819.201,1382.77 824.608,1382.77 830.016,1382.77 832.869,1382.77 
  835.721,1382.77 841.129,1382.77 846.536,1382.77 849.389,1382.77 852.242,1382.77 857.649,1382.77 863.057,1382.77 865.91,1382.77 
  868.762,1382.77 874.17,1382.77 879.577,1382.77 882.43,1382.77 885.283,1382.77 890.69,1382.77 896.098,1382.77 898.951,1382.77 
  901.803,1382.77 907.211,1382.77 912.618,1382.77 915.471,1382.77 918.324,1382.77 923.731,1382.77 929.139,1382.77 931.992,1382.77 
  934.844,1382.77 940.252,1382.77 945.66,1382.77 948.512,1382.77 951.365,1382.77 956.772,1382.77 962.18,1382.77 965.033,1382.77 
  967.885,1382.77 973.293,1382.77 978.701,1382.77 981.553,1382.77 984.406,1382.77 989.813,1382.77 995.221,1382.77 998.074,1382.77 
  1000.93,1382.77 1006.33,1382.77 1011.74,1382.77 1014.59,1382.77 1014.59,1382.77 1017.45,1382.77 1022.85,1382.77 1028.26,1382.77 1031.11,1382.77 
  1031.11,1382.77 1033.97,1382.77 1039.38,1382.77 1044.78,1382.77 1047.64,1382.77 1047.64,1382.77 1050.49,1382.77 1055.9,1382.77 1061.3,1382.77 1064.16,1382.77 
  1064.16,1382.77 1067.01,1382.77 1072.42,1382.77 1077.82,1382.77 1080.68,1382.77 1080.68,1382.77 1083.53,1382.77 1088.94,1382.77 1094.34,1382.77 1097.2,1382.77 
  1097.2,1382.77 1100.05,1382.77 1105.46,1382.77 1110.86,1382.77 1113.72,1382.77 1113.72,1382.77 1116.57,1382.77 1121.98,1382.77 1127.39,1382.77 1130.24,1382.77 
  1130.24,1382.77 1133.09,1382.77 1138.5,1382.77 1143.91,1382.77 1146.76,1382.77 1146.76,1382.77 1149.61,1382.77 1155.02,1382.77 1160.43,1382.77 1163.28,1382.77 
  1163.28,1382.77 1166.13,1382.77 1171.54,1382.77 1176.95,1382.77 1179.8,1382.77 1179.8,1382.77 1182.65,1382.77 1188.06,1382.77 1193.47,1382.77 1196.32,1382.77 
  1196.32,1382.77 1199.17,1382.77 1204.58,1382.74 1209.99,1382.68 1212.84,1382.64 1212.84,1382.65 1215.69,1382.6 1221.1,1382.56 1226.51,1382.57 1229.36,1382.58 
  1229.36,1382.54 1232.21,1382.62 1237.62,1382.69 1243.03,1382.46 1245.88,1382.11 1245.88,1381.93 1248.73,1382.26 1254.14,1382.4 1259.55,1382.03 1262.4,1381.69 
  1262.4,1379.06 1265.25,1381.43 1270.66,1382.96 1276.07,1375.65 1278.92,1366.25 1278.92,1364.85 1281.78,1327.3 1287.18,1200.15 1292.59,1004.31 1295.44,875.185 
  1295.44,885.632 1298.3,741.639 1303.7,494.629 1309.11,289.837 1311.96,202.132 1311.96,201.003 1314.82,145.296 1320.22,87.5547 1325.63,86.1857 1328.48,105.641 
  1328.48,100.044 1331.34,124.684 1336.74,162.619 1342.15,186.983 1345,193.529 1345,194.721 1347.86,192.511 1353.26,183.938 1358.67,171.864 1361.53,164.985 
  1361.53,165.296 1364.38,161.974 1369.79,159.826 1375.19,162.241 1378.05,165.003 1378.05,164.621 1380.9,166.961 1386.31,169.653 1391.71,170.173 1394.57,169.618 
  1394.57,169.799 1397.42,168.85 1402.83,167.479 1408.23,166.756 1411.09,166.672 1411.09,166.614 1413.94,166.882 1419.35,167.383 1424.75,167.791 1427.61,167.934 
  1427.61,167.949 1430.46,167.9 1435.87,167.742 1441.27,167.55 1444.13,167.456 1444.13,167.451 1446.98,167.457 1452.39,167.539 1457.8,167.682 1460.65,167.769 
  1460.65,167.764 1463.5,167.787 1468.91,167.699 1474.32,167.455 1477.17,167.271 1477.17,167.32 1480.02,167.141 1485.43,167.103 1490.84,167.508 1493.69,167.919 
  1493.69,167.748 1496.54,168.41 1501.95,169.178 1507.36,169.069 1510.21,168.564 1510.21,168.905 1513.06,167.437 1518.47,164.685 1523.88,162.535 1526.73,161.87 
  1526.73,161.719 1529.58,162.999 1534.99,168.335 1540.4,176.997 1543.25,182.71 1543.25,181.27 1546.1,186.23 1551.51,185.848 1556.92,171.631 1559.77,158.145 
  1559.77,163.019 1562.62,139.692 1568.03,105.893 1573.44,91.6153 1576.29,94.3186 1576.29,96.8274 1579.14,120.08 1584.55,218.898 1589.96,387.784 1592.81,504.461 
  1592.81,493.685 1595.66,632.717 1601.07,883.534 1606.48,1107.08 1609.33,1209.75 1609.33,1212.63 1612.19,1281.02 1617.59,1360.94 1623,1384.24 1625.85,1377.13 
  1625.85,1382.51 1628.71,1376.75 1634.11,1370.01 1639.52,1368.67 1642.37,1370.1 1642.37,1369.54 1645.23,1372.81 1650.63,1378.05 1656.04,1381.62 1658.89,1382.67 
  1658.89,1382.7 1661.75,1382.72 1667.15,1382.59 1672.56,1382.36 1675.41,1382.26 1675.41,1382.26 1678.27,1382.33 1683.68,1382.51 1689.08,1382.68 1691.94,1382.75 
  1691.94,1382.76 1694.79,1382.77 1700.2,1382.77 1705.6,1382.76 1708.46,1382.75 1708.46,1382.76 1711.31,1382.76 1716.72,1382.76 1722.12,1382.77 1724.98,1382.77 
  1724.98,1382.77 1727.83,1382.77 1733.24,1382.77 1738.64,1382.77 1741.5,1382.77 1741.5,1382.77 1744.35,1382.77 1749.76,1382.77 1755.16,1382.77 1758.02,1382.77 
  1758.02,1382.77 1760.87,1382.77 1766.28,1382.77 1771.69,1382.77 1774.54,1382.77 1774.54,1382.77 1777.39,1382.77 1782.8,1382.77 1788.21,1382.77 1791.06,1382.77 
  1791.06,1382.77 1793.91,1382.77 1799.32,1382.77 1804.73,1382.77 1807.58,1382.77 1807.58,1382.77 1810.43,1382.77 1815.84,1382.77 1821.25,1382.77 1824.1,1382.77 
  1824.1,1382.77 1826.95,1382.77 1832.36,1382.77 1837.77,1382.77 1840.62,1382.77 1840.62,1382.77 1843.47,1382.77 1848.88,1382.77 1854.29,1382.77 1857.14,1382.77 
  1857.14,1382.77 1859.99,1382.77 1865.4,1382.77 1870.81,1382.77 1873.66,1382.77 1873.66,1382.77 1876.51,1382.77 1881.92,1382.77 1887.33,1382.77 1890.18,1382.77 
  1890.18,1382.77 1893.03,1382.77 1898.44,1382.77 1903.85,1382.77 1906.7,1382.77 1909.55,1382.77 1914.96,1382.77 1920.37,1382.77 1923.22,1382.77 
  1926.08,1382.77 1931.48,1382.77 1936.89,1382.77 1939.74,1382.77 1942.6,1382.77 1948,1382.77 1953.41,1382.77 1956.26,1382.77 
  1959.12,1382.77 1964.52,1382.77 1969.93,1382.77 1972.78,1382.77 1975.64,1382.77 1981.04,1382.77 1986.45,1382.77 1989.3,1382.77 
  1992.16,1382.77 1997.56,1382.77 2002.97,1382.77 2005.83,1382.77 2008.68,1382.77 2014.09,1382.77 2019.49,1382.77 2022.35,1382.77 
  2025.2,1382.77 2030.61,1382.77 2036.01,1382.77 2038.87,1382.77 2041.72,1382.77 2047.13,1382.77 2052.53,1382.77 2055.39,1382.77 
  2058.24,1382.77 2063.65,1382.77 2069.05,1382.77 2071.91,1382.77 2074.76,1382.77 2080.17,1382.77 2085.58,1382.77 2088.43,1382.77 
  2091.28,1382.77 2096.69,1382.77 2102.1,1382.77 2104.95,1382.77 2107.8,1382.77 2113.21,1382.77 2118.62,1382.77 2121.47,1382.77 
  2124.32,1382.77 2129.73,1382.77 2135.14,1382.77 2137.99,1382.77 2140.84,1382.77 2146.25,1382.77 2151.66,1382.77 2154.51,1382.77 
  2157.36,1382.77 2162.77,1382.77 2168.18,1382.77 2171.03,1382.77 2173.88,1382.77 2179.29,1382.77 2184.7,1382.77 2187.55,1382.77 
  2190.4,1382.77 2195.81,1382.77 2201.22,1382.77 2204.07,1382.77 2206.92,1382.77 2212.33,1382.77 2217.74,1382.77 2220.59,1382.77 
  2223.44,1382.77 2228.85,1382.77 2234.26,1382.77 2237.11,1382.77 2239.96,1382.77 2245.37,1382.77 2250.78,1382.77 2253.63,1382.77 
  2256.49,1382.77 2261.89,1382.77 2267.3,1382.77 2270.15,1382.77 2273.01,1382.77 2278.41,1382.77 2283.82,1382.77 2286.67,1382.77 
  2289.53,1382.77 2294.93,1382.77 2300.34,1382.77 2303.19,1382.77 2306.05,1382.77 2311.45,1382.77 2316.86,1382.77 2319.71,1382.77 
  2322.57,1382.77 2327.98,1382.77 2333.38,1382.77 2336.24,1382.77 2339.09,1382.77 2344.5,1382.77 2349.9,1382.77 2352.76,1382.77 
  
  "/>
<path clip-path="url(#clip390)" d="
M1786.57 274.549 L2282.27 274.549 L2282.27 93.1086 L1786.57 93.1086  Z
  " fill="#ffffff" fill-rule="evenodd" fill-opacity="1"/>
<polyline clip-path="url(#clip390)" style="stroke:#000000; stroke-width:4; stroke-opacity:1; fill:none" points="
  1786.57,274.549 2282.27,274.549 2282.27,93.1086 1786.57,93.1086 1786.57,274.549 
  "/>
<polyline clip-path="url(#clip390)" style="stroke:#009af9; stroke-width:4; stroke-opacity:1; fill:none" points="
  1810.07,153.589 1951.04,153.589 
  "/>
<path clip-path="url(#clip390)" d="M 0 0 M1981.94 137.582 L1981.94 144.943 L1990.72 144.943 L1990.72 148.253 L1981.94 148.253 L1981.94 162.327 Q1981.94 165.498 1982.8 166.401 Q1983.68 167.304 1986.34 167.304 L1990.72 167.304 L1990.72 170.869 L1986.34 170.869 Q1981.41 170.869 1979.54 169.04 Q1977.66 167.188 1977.66 162.327 L1977.66 148.253 L1974.54 148.253 L1974.54 144.943 L1977.66 144.943 L1977.66 137.582 L1981.94 137.582 Z" fill="#000000" fill-rule="evenodd" fill-opacity="1" /><path clip-path="url(#clip390)" d="M 0 0 M1995.74 149.341 L2025.42 149.341 L2025.42 153.23 L1995.74 153.23 L1995.74 149.341 M1995.74 158.785 L2025.42 158.785 L2025.42 162.721 L1995.74 162.721 L1995.74 158.785 Z" fill="#000000" fill-rule="evenodd" fill-opacity="1" /><path clip-path="url(#clip390)" d="M 0 0 M2040.49 139.387 Q2036.87 139.387 2035.05 142.952 Q2033.24 146.494 2033.24 153.623 Q2033.24 160.73 2035.05 164.295 Q2036.87 167.836 2040.49 167.836 Q2044.12 167.836 2045.93 164.295 Q2047.75 160.73 2047.75 153.623 Q2047.75 146.494 2045.93 142.952 Q2044.12 139.387 2040.49 139.387 M2040.49 135.684 Q2046.3 135.684 2049.35 140.29 Q2052.43 144.873 2052.43 153.623 Q2052.43 162.35 2049.35 166.957 Q2046.3 171.54 2040.49 171.54 Q2034.68 171.54 2031.6 166.957 Q2028.54 162.35 2028.54 153.623 Q2028.54 144.873 2031.6 140.29 Q2034.68 135.684 2040.49 135.684 Z" fill="#000000" fill-rule="evenodd" fill-opacity="1" /><path clip-path="url(#clip390)" d="M 0 0 M2057.5 164.989 L2062.38 164.989 L2062.38 170.869 L2057.5 170.869 L2057.5 164.989 Z" fill="#000000" fill-rule="evenodd" fill-opacity="1" /><path clip-path="url(#clip390)" d="M 0 0 M2077.45 139.387 Q2073.84 139.387 2072.01 142.952 Q2070.21 146.494 2070.21 153.623 Q2070.21 160.73 2072.01 164.295 Q2073.84 167.836 2077.45 167.836 Q2081.09 167.836 2082.89 164.295 Q2084.72 160.73 2084.72 153.623 Q2084.72 146.494 2082.89 142.952 Q2081.09 139.387 2077.45 139.387 M2077.45 135.684 Q2083.26 135.684 2086.32 140.29 Q2089.4 144.873 2089.4 153.623 Q2089.4 162.35 2086.32 166.957 Q2083.26 171.54 2077.45 171.54 Q2071.64 171.54 2068.56 166.957 Q2065.51 162.35 2065.51 153.623 Q2065.51 144.873 2068.56 140.29 Q2071.64 135.684 2077.45 135.684 Z" fill="#000000" fill-rule="evenodd" fill-opacity="1" /><path clip-path="url(#clip390)" d="M 0 0 M2108.54 134.85 L2118.36 134.85 L2118.36 138.16 L2112.8 138.16 L2112.8 173.808 L2118.36 173.808 L2118.36 177.119 L2108.54 177.119 L2108.54 134.85 Z" fill="#000000" fill-rule="evenodd" fill-opacity="1" /><path clip-path="url(#clip390)" d="M 0 0 M2139.35 145.707 L2139.35 149.734 Q2137.55 148.809 2135.6 148.346 Q2133.66 147.883 2131.57 147.883 Q2128.4 147.883 2126.81 148.855 Q2125.23 149.827 2125.23 151.771 Q2125.23 153.253 2126.37 154.109 Q2127.5 154.943 2130.93 155.707 L2132.38 156.031 Q2136.92 157.003 2138.82 158.785 Q2140.74 160.545 2140.74 163.716 Q2140.74 167.327 2137.87 169.433 Q2135.02 171.54 2130.02 171.54 Q2127.94 171.54 2125.67 171.123 Q2123.43 170.73 2120.93 169.92 L2120.93 165.521 Q2123.29 166.748 2125.58 167.373 Q2127.87 167.975 2130.12 167.975 Q2133.12 167.975 2134.74 166.957 Q2136.37 165.915 2136.37 164.04 Q2136.37 162.304 2135.18 161.378 Q2134.03 160.452 2130.07 159.596 L2128.59 159.248 Q2124.63 158.415 2122.87 156.702 Q2121.11 154.966 2121.11 151.957 Q2121.11 148.299 2123.7 146.309 Q2126.3 144.318 2131.06 144.318 Q2133.43 144.318 2135.51 144.665 Q2137.59 145.012 2139.35 145.707 Z" fill="#000000" fill-rule="evenodd" fill-opacity="1" /><path clip-path="url(#clip390)" d="M 0 0 M2155.16 134.85 L2155.16 177.119 L2145.35 177.119 L2145.35 173.808 L2150.88 173.808 L2150.88 138.16 L2145.35 138.16 L2145.35 134.85 L2155.16 134.85 Z" fill="#000000" fill-rule="evenodd" fill-opacity="1" /><polyline clip-path="url(#clip390)" style="stroke:#e26f46; stroke-width:4; stroke-opacity:1; fill:none" points="
  1810.07,214.069 1951.04,214.069 
  "/>
<path clip-path="url(#clip390)" d="M 0 0 M1981.94 198.062 L1981.94 205.423 L1990.72 205.423 L1990.72 208.733 L1981.94 208.733 L1981.94 222.807 Q1981.94 225.978 1982.8 226.881 Q1983.68 227.784 1986.34 227.784 L1990.72 227.784 L1990.72 231.349 L1986.34 231.349 Q1981.41 231.349 1979.54 229.52 Q1977.66 227.668 1977.66 222.807 L1977.66 208.733 L1974.54 208.733 L1974.54 205.423 L1977.66 205.423 L1977.66 198.062 L1981.94 198.062 Z" fill="#000000" fill-rule="evenodd" fill-opacity="1" /><path clip-path="url(#clip390)" d="M 0 0 M1995.74 209.821 L2025.42 209.821 L2025.42 213.71 L1995.74 213.71 L1995.74 209.821 M1995.74 219.265 L2025.42 219.265 L2025.42 223.201 L1995.74 223.201 L1995.74 219.265 Z" fill="#000000" fill-rule="evenodd" fill-opacity="1" /><path clip-path="url(#clip390)" d="M 0 0 M2043.33 200.863 L2031.53 219.312 L2043.33 219.312 L2043.33 200.863 M2042.11 196.789 L2047.99 196.789 L2047.99 219.312 L2052.92 219.312 L2052.92 223.201 L2047.99 223.201 L2047.99 231.349 L2043.33 231.349 L2043.33 223.201 L2027.73 223.201 L2027.73 218.687 L2042.11 196.789 Z" fill="#000000" fill-rule="evenodd" fill-opacity="1" /><path clip-path="url(#clip390)" d="M 0 0 M2058.03 196.789 L2076.39 196.789 L2076.39 200.724 L2062.31 200.724 L2062.31 209.196 Q2063.33 208.849 2064.35 208.687 Q2065.37 208.502 2066.39 208.502 Q2072.18 208.502 2075.56 211.673 Q2078.93 214.844 2078.93 220.261 Q2078.93 225.839 2075.46 228.941 Q2071.99 232.02 2065.67 232.02 Q2063.5 232.02 2061.23 231.65 Q2058.98 231.279 2056.57 230.538 L2056.57 225.839 Q2058.66 226.974 2060.88 227.529 Q2063.1 228.085 2065.58 228.085 Q2069.58 228.085 2071.92 225.978 Q2074.26 223.872 2074.26 220.261 Q2074.26 216.65 2071.92 214.543 Q2069.58 212.437 2065.58 212.437 Q2063.7 212.437 2061.83 212.853 Q2059.98 213.27 2058.03 214.15 L2058.03 196.789 Z" fill="#000000" fill-rule="evenodd" fill-opacity="1" /><path clip-path="url(#clip390)" d="M 0 0 M2094 199.867 Q2090.39 199.867 2088.56 203.432 Q2086.76 206.974 2086.76 214.103 Q2086.76 221.21 2088.56 224.775 Q2090.39 228.316 2094 228.316 Q2097.64 228.316 2099.44 224.775 Q2101.27 221.21 2101.27 214.103 Q2101.27 206.974 2099.44 203.432 Q2097.64 199.867 2094 199.867 M2094 196.164 Q2099.81 196.164 2102.87 200.77 Q2105.95 205.353 2105.95 214.103 Q2105.95 222.83 2102.87 227.437 Q2099.81 232.02 2094 232.02 Q2088.19 232.02 2085.12 227.437 Q2082.06 222.83 2082.06 214.103 Q2082.06 205.353 2085.12 200.77 Q2088.19 196.164 2094 196.164 Z" fill="#000000" fill-rule="evenodd" fill-opacity="1" /><path clip-path="url(#clip390)" d="M 0 0 M2111.02 225.469 L2115.9 225.469 L2115.9 231.349 L2111.02 231.349 L2111.02 225.469 Z" fill="#000000" fill-rule="evenodd" fill-opacity="1" /><path clip-path="url(#clip390)" d="M 0 0 M2133.82 200.863 L2122.01 219.312 L2133.82 219.312 L2133.82 200.863 M2132.59 196.789 L2138.47 196.789 L2138.47 219.312 L2143.4 219.312 L2143.4 223.201 L2138.47 223.201 L2138.47 231.349 L2133.82 231.349 L2133.82 223.201 L2118.22 223.201 L2118.22 218.687 L2132.59 196.789 Z" fill="#000000" fill-rule="evenodd" fill-opacity="1" /><path clip-path="url(#clip390)" d="M 0 0 M2147.29 196.789 L2169.51 196.789 L2169.51 198.779 L2156.97 231.349 L2152.08 231.349 L2163.89 200.724 L2147.29 200.724 L2147.29 196.789 Z" fill="#000000" fill-rule="evenodd" fill-opacity="1" /><path clip-path="url(#clip390)" d="M 0 0 M2188.66 195.33 L2198.47 195.33 L2198.47 198.64 L2192.92 198.64 L2192.92 234.288 L2198.47 234.288 L2198.47 237.599 L2188.66 237.599 L2188.66 195.33 Z" fill="#000000" fill-rule="evenodd" fill-opacity="1" /><path clip-path="url(#clip390)" d="M 0 0 M2219.47 206.187 L2219.47 210.214 Q2217.66 209.289 2215.72 208.826 Q2213.77 208.363 2211.69 208.363 Q2208.52 208.363 2206.92 209.335 Q2205.35 210.307 2205.35 212.251 Q2205.35 213.733 2206.48 214.589 Q2207.61 215.423 2211.04 216.187 L2212.5 216.511 Q2217.04 217.483 2218.93 219.265 Q2220.86 221.025 2220.86 224.196 Q2220.86 227.807 2217.99 229.913 Q2215.14 232.02 2210.14 232.02 Q2208.05 232.02 2205.79 231.603 Q2203.54 231.21 2201.04 230.4 L2201.04 226.001 Q2203.4 227.228 2205.69 227.853 Q2207.99 228.455 2210.23 228.455 Q2213.24 228.455 2214.86 227.437 Q2216.48 226.395 2216.48 224.52 Q2216.48 222.784 2215.3 221.858 Q2214.14 220.932 2210.18 220.076 L2208.7 219.728 Q2204.74 218.895 2202.99 217.182 Q2201.23 215.446 2201.23 212.437 Q2201.23 208.779 2203.82 206.789 Q2206.41 204.798 2211.18 204.798 Q2213.54 204.798 2215.62 205.145 Q2217.71 205.492 2219.47 206.187 Z" fill="#000000" fill-rule="evenodd" fill-opacity="1" /><path clip-path="url(#clip390)" d="M 0 0 M2235.28 195.33 L2235.28 237.599 L2225.46 237.599 L2225.46 234.288 L2230.99 234.288 L2230.99 198.64 L2225.46 198.64 L2225.46 195.33 L2235.28 195.33 Z" fill="#000000" fill-rule="evenodd" fill-opacity="1" /></svg>
