<?xml version="1.0" encoding="utf-8"?>
<svg xmlns="http://www.w3.org/2000/svg" xmlns:xlink="http://www.w3.org/1999/xlink" width="600" height="400" viewBox="0 0 2400 1600">
<defs>
  <clipPath id="clip300">
    <rect x="0" y="0" width="2400" height="1600"/>
  </clipPath>
</defs>
<path clip-path="url(#clip300)" d="
M0 1600 L2400 1600 L2400 0 L0 0  Z
  " fill="#ffffff" fill-rule="evenodd" fill-opacity="1"/>
<defs>
  <clipPath id="clip301">
    <rect x="480" y="0" width="1681" height="1600"/>
  </clipPath>
</defs>
<path clip-path="url(#clip300)" d="
M238.13 1423.18 L2352.76 1423.18 L2352.76 47.2441 L238.13 47.2441  Z
  " fill="#ffffff" fill-rule="evenodd" fill-opacity="1"/>
<defs>
  <clipPath id="clip302">
    <rect x="238" y="47" width="2116" height="1377"/>
  </clipPath>
</defs>
<polyline clip-path="url(#clip302)" style="stroke:#000000; stroke-width:2; stroke-opacity:0.1; fill:none" points="
  238.13,1423.18 238.13,47.2441 
  "/>
<polyline clip-path="url(#clip302)" style="stroke:#000000; stroke-width:2; stroke-opacity:0.1; fill:none" points="
  540.219,1423.18 540.219,47.2441 
  "/>
<polyline clip-path="url(#clip302)" style="stroke:#000000; stroke-width:2; stroke-opacity:0.1; fill:none" points="
  842.309,1423.18 842.309,47.2441 
  "/>
<polyline clip-path="url(#clip302)" style="stroke:#000000; stroke-width:2; stroke-opacity:0.1; fill:none" points="
  1144.4,1423.18 1144.4,47.2441 
  "/>
<polyline clip-path="url(#clip302)" style="stroke:#000000; stroke-width:2; stroke-opacity:0.1; fill:none" points="
  1446.49,1423.18 1446.49,47.2441 
  "/>
<polyline clip-path="url(#clip302)" style="stroke:#000000; stroke-width:2; stroke-opacity:0.1; fill:none" points="
  1748.58,1423.18 1748.58,47.2441 
  "/>
<polyline clip-path="url(#clip302)" style="stroke:#000000; stroke-width:2; stroke-opacity:0.1; fill:none" points="
  2050.67,1423.18 2050.67,47.2441 
  "/>
<polyline clip-path="url(#clip302)" style="stroke:#000000; stroke-width:2; stroke-opacity:0.1; fill:none" points="
  2352.76,1423.18 2352.76,47.2441 
  "/>
<polyline clip-path="url(#clip300)" style="stroke:#000000; stroke-width:4; stroke-opacity:1; fill:none" points="
  238.13,1423.18 2352.76,1423.18 
  "/>
<polyline clip-path="url(#clip300)" style="stroke:#000000; stroke-width:4; stroke-opacity:1; fill:none" points="
  238.13,1423.18 238.13,1406.67 
  "/>
<polyline clip-path="url(#clip300)" style="stroke:#000000; stroke-width:4; stroke-opacity:1; fill:none" points="
  540.219,1423.18 540.219,1406.67 
  "/>
<polyline clip-path="url(#clip300)" style="stroke:#000000; stroke-width:4; stroke-opacity:1; fill:none" points="
  842.309,1423.18 842.309,1406.67 
  "/>
<polyline clip-path="url(#clip300)" style="stroke:#000000; stroke-width:4; stroke-opacity:1; fill:none" points="
  1144.4,1423.18 1144.4,1406.67 
  "/>
<polyline clip-path="url(#clip300)" style="stroke:#000000; stroke-width:4; stroke-opacity:1; fill:none" points="
  1446.49,1423.18 1446.49,1406.67 
  "/>
<polyline clip-path="url(#clip300)" style="stroke:#000000; stroke-width:4; stroke-opacity:1; fill:none" points="
  1748.58,1423.18 1748.58,1406.67 
  "/>
<polyline clip-path="url(#clip300)" style="stroke:#000000; stroke-width:4; stroke-opacity:1; fill:none" points="
  2050.67,1423.18 2050.67,1406.67 
  "/>
<polyline clip-path="url(#clip300)" style="stroke:#000000; stroke-width:4; stroke-opacity:1; fill:none" points="
  2352.76,1423.18 2352.76,1406.67 
  "/>
<path clip-path="url(#clip300)" d="M 0 0 M238.13 1452.37 Q234.519 1452.37 232.69 1455.94 Q230.885 1459.48 230.885 1466.61 Q230.885 1473.71 232.69 1477.28 Q234.519 1480.82 238.13 1480.82 Q241.764 1480.82 243.57 1477.28 Q245.399 1473.71 245.399 1466.61 Q245.399 1459.48 243.57 1455.94 Q241.764 1452.37 238.13 1452.37 M238.13 1448.67 Q243.94 1448.67 246.996 1453.27 Q250.074 1457.86 250.074 1466.61 Q250.074 1475.33 246.996 1479.94 Q243.94 1484.52 238.13 1484.52 Q232.32 1484.52 229.241 1479.94 Q226.186 1475.33 226.186 1466.61 Q226.186 1457.86 229.241 1453.27 Q232.32 1448.67 238.13 1448.67 Z" fill="#000000" fill-rule="evenodd" fill-opacity="1" /><path clip-path="url(#clip300)" d="M 0 0 M516.99 1449.29 L535.347 1449.29 L535.347 1453.23 L521.273 1453.23 L521.273 1461.7 Q522.291 1461.35 523.31 1461.19 Q524.328 1461 525.347 1461 Q531.134 1461 534.513 1464.18 Q537.893 1467.35 537.893 1472.76 Q537.893 1478.34 534.421 1481.44 Q530.949 1484.52 524.629 1484.52 Q522.453 1484.52 520.185 1484.15 Q517.939 1483.78 515.532 1483.04 L515.532 1478.34 Q517.615 1479.48 519.838 1480.03 Q522.06 1480.59 524.537 1480.59 Q528.541 1480.59 530.879 1478.48 Q533.217 1476.38 533.217 1472.76 Q533.217 1469.15 530.879 1467.05 Q528.541 1464.94 524.537 1464.94 Q522.662 1464.94 520.787 1465.36 Q518.935 1465.77 516.99 1466.65 L516.99 1449.29 Z" fill="#000000" fill-rule="evenodd" fill-opacity="1" /><path clip-path="url(#clip300)" d="M 0 0 M552.962 1452.37 Q549.351 1452.37 547.523 1455.94 Q545.717 1459.48 545.717 1466.61 Q545.717 1473.71 547.523 1477.28 Q549.351 1480.82 552.962 1480.82 Q556.597 1480.82 558.402 1477.28 Q560.231 1473.71 560.231 1466.61 Q560.231 1459.48 558.402 1455.94 Q556.597 1452.37 552.962 1452.37 M552.962 1448.67 Q558.773 1448.67 561.828 1453.27 Q564.907 1457.86 564.907 1466.61 Q564.907 1475.33 561.828 1479.94 Q558.773 1484.52 552.962 1484.52 Q547.152 1484.52 544.074 1479.94 Q541.018 1475.33 541.018 1466.61 Q541.018 1457.86 544.074 1453.27 Q547.152 1448.67 552.962 1448.67 Z" fill="#000000" fill-rule="evenodd" fill-opacity="1" /><path clip-path="url(#clip300)" d="M 0 0 M805.677 1479.92 L813.316 1479.92 L813.316 1453.55 L805.006 1455.22 L805.006 1450.96 L813.27 1449.29 L817.946 1449.29 L817.946 1479.92 L825.584 1479.92 L825.584 1483.85 L805.677 1483.85 L805.677 1479.92 Z" fill="#000000" fill-rule="evenodd" fill-opacity="1" /><path clip-path="url(#clip300)" d="M 0 0 M840.654 1452.37 Q837.043 1452.37 835.214 1455.94 Q833.408 1459.48 833.408 1466.61 Q833.408 1473.71 835.214 1477.28 Q837.043 1480.82 840.654 1480.82 Q844.288 1480.82 846.094 1477.28 Q847.922 1473.71 847.922 1466.61 Q847.922 1459.48 846.094 1455.94 Q844.288 1452.37 840.654 1452.37 M840.654 1448.67 Q846.464 1448.67 849.519 1453.27 Q852.598 1457.86 852.598 1466.61 Q852.598 1475.33 849.519 1479.94 Q846.464 1484.52 840.654 1484.52 Q834.844 1484.52 831.765 1479.94 Q828.709 1475.33 828.709 1466.61 Q828.709 1457.86 831.765 1453.27 Q834.844 1448.67 840.654 1448.67 Z" fill="#000000" fill-rule="evenodd" fill-opacity="1" /><path clip-path="url(#clip300)" d="M 0 0 M867.668 1452.37 Q864.056 1452.37 862.228 1455.94 Q860.422 1459.48 860.422 1466.61 Q860.422 1473.71 862.228 1477.28 Q864.056 1480.82 867.668 1480.82 Q871.302 1480.82 873.107 1477.28 Q874.936 1473.71 874.936 1466.61 Q874.936 1459.48 873.107 1455.94 Q871.302 1452.37 867.668 1452.37 M867.668 1448.67 Q873.478 1448.67 876.533 1453.27 Q879.612 1457.86 879.612 1466.61 Q879.612 1475.33 876.533 1479.94 Q873.478 1484.52 867.668 1484.52 Q861.857 1484.52 858.779 1479.94 Q855.723 1475.33 855.723 1466.61 Q855.723 1457.86 858.779 1453.27 Q861.857 1448.67 867.668 1448.67 Z" fill="#000000" fill-rule="evenodd" fill-opacity="1" /><path clip-path="url(#clip300)" d="M 0 0 M1108.26 1479.92 L1115.9 1479.92 L1115.9 1453.55 L1107.59 1455.22 L1107.59 1450.96 L1115.86 1449.29 L1120.53 1449.29 L1120.53 1479.92 L1128.17 1479.92 L1128.17 1483.85 L1108.26 1483.85 L1108.26 1479.92 Z" fill="#000000" fill-rule="evenodd" fill-opacity="1" /><path clip-path="url(#clip300)" d="M 0 0 M1133.29 1449.29 L1151.64 1449.29 L1151.64 1453.23 L1137.57 1453.23 L1137.57 1461.7 Q1138.59 1461.35 1139.61 1461.19 Q1140.63 1461 1141.64 1461 Q1147.43 1461 1150.81 1464.18 Q1154.19 1467.35 1154.19 1472.76 Q1154.19 1478.34 1150.72 1481.44 Q1147.25 1484.52 1140.93 1484.52 Q1138.75 1484.52 1136.48 1484.15 Q1134.24 1483.78 1131.83 1483.04 L1131.83 1478.34 Q1133.91 1479.48 1136.13 1480.03 Q1138.36 1480.59 1140.83 1480.59 Q1144.84 1480.59 1147.18 1478.48 Q1149.51 1476.38 1149.51 1472.76 Q1149.51 1469.15 1147.18 1467.05 Q1144.84 1464.94 1140.83 1464.94 Q1138.96 1464.94 1137.08 1465.36 Q1135.23 1465.77 1133.29 1466.65 L1133.29 1449.29 Z" fill="#000000" fill-rule="evenodd" fill-opacity="1" /><path clip-path="url(#clip300)" d="M 0 0 M1169.26 1452.37 Q1165.65 1452.37 1163.82 1455.94 Q1162.01 1459.48 1162.01 1466.61 Q1162.01 1473.71 1163.82 1477.28 Q1165.65 1480.82 1169.26 1480.82 Q1172.89 1480.82 1174.7 1477.28 Q1176.53 1473.71 1176.53 1466.61 Q1176.53 1459.48 1174.7 1455.94 Q1172.89 1452.37 1169.26 1452.37 M1169.26 1448.67 Q1175.07 1448.67 1178.12 1453.27 Q1181.2 1457.86 1181.2 1466.61 Q1181.2 1475.33 1178.12 1479.94 Q1175.07 1484.52 1169.26 1484.52 Q1163.45 1484.52 1160.37 1479.94 Q1157.31 1475.33 1157.31 1466.61 Q1157.31 1457.86 1160.37 1453.27 Q1163.45 1448.67 1169.26 1448.67 Z" fill="#000000" fill-rule="evenodd" fill-opacity="1" /><path clip-path="url(#clip300)" d="M 0 0 M1414.13 1479.92 L1430.45 1479.92 L1430.45 1483.85 L1408.5 1483.85 L1408.5 1479.92 Q1411.16 1477.16 1415.75 1472.53 Q1420.35 1467.88 1421.53 1466.54 Q1423.78 1464.01 1424.66 1462.28 Q1425.56 1460.52 1425.56 1458.83 Q1425.56 1456.07 1423.62 1454.34 Q1421.7 1452.6 1418.59 1452.6 Q1416.4 1452.6 1413.94 1453.37 Q1411.51 1454.13 1408.73 1455.68 L1408.73 1450.96 Q1411.56 1449.82 1414.01 1449.25 Q1416.46 1448.67 1418.5 1448.67 Q1423.87 1448.67 1427.07 1451.35 Q1430.26 1454.04 1430.26 1458.53 Q1430.26 1460.66 1429.45 1462.58 Q1428.66 1464.48 1426.56 1467.07 Q1425.98 1467.74 1422.88 1470.96 Q1419.77 1474.15 1414.13 1479.92 Z" fill="#000000" fill-rule="evenodd" fill-opacity="1" /><path clip-path="url(#clip300)" d="M 0 0 M1445.52 1452.37 Q1441.9 1452.37 1440.08 1455.94 Q1438.27 1459.48 1438.27 1466.61 Q1438.27 1473.71 1440.08 1477.28 Q1441.9 1480.82 1445.52 1480.82 Q1449.15 1480.82 1450.96 1477.28 Q1452.78 1473.71 1452.78 1466.61 Q1452.78 1459.48 1450.96 1455.94 Q1449.15 1452.37 1445.52 1452.37 M1445.52 1448.67 Q1451.33 1448.67 1454.38 1453.27 Q1457.46 1457.86 1457.46 1466.61 Q1457.46 1475.33 1454.38 1479.94 Q1451.33 1484.52 1445.52 1484.52 Q1439.71 1484.52 1436.63 1479.94 Q1433.57 1475.33 1433.57 1466.61 Q1433.57 1457.86 1436.63 1453.27 Q1439.71 1448.67 1445.52 1448.67 Z" fill="#000000" fill-rule="evenodd" fill-opacity="1" /><path clip-path="url(#clip300)" d="M 0 0 M1472.53 1452.37 Q1468.92 1452.37 1467.09 1455.94 Q1465.28 1459.48 1465.28 1466.61 Q1465.28 1473.71 1467.09 1477.28 Q1468.92 1480.82 1472.53 1480.82 Q1476.16 1480.82 1477.97 1477.28 Q1479.8 1473.71 1479.8 1466.61 Q1479.8 1459.48 1477.97 1455.94 Q1476.16 1452.37 1472.53 1452.37 M1472.53 1448.67 Q1478.34 1448.67 1481.39 1453.27 Q1484.47 1457.86 1484.47 1466.61 Q1484.47 1475.33 1481.39 1479.94 Q1478.34 1484.52 1472.53 1484.52 Q1466.72 1484.52 1463.64 1479.94 Q1460.58 1475.33 1460.58 1466.61 Q1460.58 1457.86 1463.64 1453.27 Q1466.72 1448.67 1472.53 1448.67 Z" fill="#000000" fill-rule="evenodd" fill-opacity="1" /><path clip-path="url(#clip300)" d="M 0 0 M1716.71 1479.92 L1733.03 1479.92 L1733.03 1483.85 L1711.09 1483.85 L1711.09 1479.92 Q1713.75 1477.16 1718.33 1472.53 Q1722.94 1467.88 1724.12 1466.54 Q1726.37 1464.01 1727.25 1462.28 Q1728.15 1460.52 1728.15 1458.83 Q1728.15 1456.07 1726.2 1454.34 Q1724.28 1452.6 1721.18 1452.6 Q1718.98 1452.6 1716.53 1453.37 Q1714.1 1454.13 1711.32 1455.68 L1711.32 1450.96 Q1714.14 1449.82 1716.6 1449.25 Q1719.05 1448.67 1721.09 1448.67 Q1726.46 1448.67 1729.65 1451.35 Q1732.85 1454.04 1732.85 1458.53 Q1732.85 1460.66 1732.04 1462.58 Q1731.25 1464.48 1729.14 1467.07 Q1728.57 1467.74 1725.46 1470.96 Q1722.36 1474.15 1716.71 1479.92 Z" fill="#000000" fill-rule="evenodd" fill-opacity="1" /><path clip-path="url(#clip300)" d="M 0 0 M1738.15 1449.29 L1756.51 1449.29 L1756.51 1453.23 L1742.43 1453.23 L1742.43 1461.7 Q1743.45 1461.35 1744.47 1461.19 Q1745.49 1461 1746.51 1461 Q1752.29 1461 1755.67 1464.18 Q1759.05 1467.35 1759.05 1472.76 Q1759.05 1478.34 1755.58 1481.44 Q1752.11 1484.52 1745.79 1484.52 Q1743.61 1484.52 1741.34 1484.15 Q1739.1 1483.78 1736.69 1483.04 L1736.69 1478.34 Q1738.77 1479.48 1741 1480.03 Q1743.22 1480.59 1745.7 1480.59 Q1749.7 1480.59 1752.04 1478.48 Q1754.38 1476.38 1754.38 1472.76 Q1754.38 1469.15 1752.04 1467.05 Q1749.7 1464.94 1745.7 1464.94 Q1743.82 1464.94 1741.95 1465.36 Q1740.09 1465.77 1738.15 1466.65 L1738.15 1449.29 Z" fill="#000000" fill-rule="evenodd" fill-opacity="1" /><path clip-path="url(#clip300)" d="M 0 0 M1774.12 1452.37 Q1770.51 1452.37 1768.68 1455.94 Q1766.88 1459.48 1766.88 1466.61 Q1766.88 1473.71 1768.68 1477.28 Q1770.51 1480.82 1774.12 1480.82 Q1777.76 1480.82 1779.56 1477.28 Q1781.39 1473.71 1781.39 1466.61 Q1781.39 1459.48 1779.56 1455.94 Q1777.76 1452.37 1774.12 1452.37 M1774.12 1448.67 Q1779.93 1448.67 1782.99 1453.27 Q1786.07 1457.86 1786.07 1466.61 Q1786.07 1475.33 1782.99 1479.94 Q1779.93 1484.52 1774.12 1484.52 Q1768.31 1484.52 1765.23 1479.94 Q1762.18 1475.33 1762.18 1466.61 Q1762.18 1457.86 1765.23 1453.27 Q1768.31 1448.67 1774.12 1448.67 Z" fill="#000000" fill-rule="evenodd" fill-opacity="1" /><path clip-path="url(#clip300)" d="M 0 0 M2027.9 1465.22 Q2031.26 1465.94 2033.13 1468.2 Q2035.03 1470.47 2035.03 1473.81 Q2035.03 1478.92 2031.51 1481.72 Q2027.99 1484.52 2021.51 1484.52 Q2019.34 1484.52 2017.02 1484.08 Q2014.73 1483.67 2012.28 1482.81 L2012.28 1478.3 Q2014.22 1479.43 2016.53 1480.01 Q2018.85 1480.59 2021.37 1480.59 Q2025.77 1480.59 2028.06 1478.85 Q2030.38 1477.12 2030.38 1473.81 Q2030.38 1470.75 2028.22 1469.04 Q2026.09 1467.3 2022.28 1467.3 L2018.25 1467.3 L2018.25 1463.46 L2022.46 1463.46 Q2025.91 1463.46 2027.74 1462.09 Q2029.57 1460.7 2029.57 1458.11 Q2029.57 1455.45 2027.67 1454.04 Q2025.79 1452.6 2022.28 1452.6 Q2020.35 1452.6 2018.16 1453.02 Q2015.96 1453.44 2013.32 1454.31 L2013.32 1450.15 Q2015.98 1449.41 2018.29 1449.04 Q2020.63 1448.67 2022.69 1448.67 Q2028.02 1448.67 2031.12 1451.1 Q2034.22 1453.5 2034.22 1457.63 Q2034.22 1460.5 2032.58 1462.49 Q2030.93 1464.45 2027.9 1465.22 Z" fill="#000000" fill-rule="evenodd" fill-opacity="1" /><path clip-path="url(#clip300)" d="M 0 0 M2050.1 1452.37 Q2046.49 1452.37 2044.66 1455.94 Q2042.85 1459.48 2042.85 1466.61 Q2042.85 1473.71 2044.66 1477.28 Q2046.49 1480.82 2050.1 1480.82 Q2053.73 1480.82 2055.54 1477.28 Q2057.37 1473.71 2057.37 1466.61 Q2057.37 1459.48 2055.54 1455.94 Q2053.73 1452.37 2050.1 1452.37 M2050.1 1448.67 Q2055.91 1448.67 2058.97 1453.27 Q2062.04 1457.86 2062.04 1466.61 Q2062.04 1475.33 2058.97 1479.94 Q2055.91 1484.52 2050.1 1484.52 Q2044.29 1484.52 2041.21 1479.94 Q2038.15 1475.33 2038.15 1466.61 Q2038.15 1457.86 2041.21 1453.27 Q2044.29 1448.67 2050.1 1448.67 Z" fill="#000000" fill-rule="evenodd" fill-opacity="1" /><path clip-path="url(#clip300)" d="M 0 0 M2077.11 1452.37 Q2073.5 1452.37 2071.67 1455.94 Q2069.87 1459.48 2069.87 1466.61 Q2069.87 1473.71 2071.67 1477.28 Q2073.5 1480.82 2077.11 1480.82 Q2080.75 1480.82 2082.55 1477.28 Q2084.38 1473.71 2084.38 1466.61 Q2084.38 1459.48 2082.55 1455.94 Q2080.75 1452.37 2077.11 1452.37 M2077.11 1448.67 Q2082.92 1448.67 2085.98 1453.27 Q2089.06 1457.86 2089.06 1466.61 Q2089.06 1475.33 2085.98 1479.94 Q2082.92 1484.52 2077.11 1484.52 Q2071.3 1484.52 2068.22 1479.94 Q2065.17 1475.33 2065.17 1466.61 Q2065.17 1457.86 2068.22 1453.27 Q2071.3 1448.67 2077.11 1448.67 Z" fill="#000000" fill-rule="evenodd" fill-opacity="1" /><path clip-path="url(#clip300)" d="M 0 0 M2330.49 1465.22 Q2333.84 1465.94 2335.72 1468.2 Q2337.62 1470.47 2337.62 1473.81 Q2337.62 1478.92 2334.1 1481.72 Q2330.58 1484.52 2324.1 1484.52 Q2321.92 1484.52 2319.61 1484.08 Q2317.32 1483.67 2314.86 1482.81 L2314.86 1478.3 Q2316.81 1479.43 2319.12 1480.01 Q2321.44 1480.59 2323.96 1480.59 Q2328.36 1480.59 2330.65 1478.85 Q2332.96 1477.12 2332.96 1473.81 Q2332.96 1470.75 2330.81 1469.04 Q2328.68 1467.3 2324.86 1467.3 L2320.83 1467.3 L2320.83 1463.46 L2325.05 1463.46 Q2328.5 1463.46 2330.33 1462.09 Q2332.15 1460.7 2332.15 1458.11 Q2332.15 1455.45 2330.26 1454.04 Q2328.38 1452.6 2324.86 1452.6 Q2322.94 1452.6 2320.74 1453.02 Q2318.54 1453.44 2315.9 1454.31 L2315.9 1450.15 Q2318.57 1449.41 2320.88 1449.04 Q2323.22 1448.67 2325.28 1448.67 Q2330.6 1448.67 2333.71 1451.1 Q2336.81 1453.5 2336.81 1457.63 Q2336.81 1460.5 2335.16 1462.49 Q2333.52 1464.45 2330.49 1465.22 Z" fill="#000000" fill-rule="evenodd" fill-opacity="1" /><path clip-path="url(#clip300)" d="M 0 0 M2342.73 1449.29 L2361.09 1449.29 L2361.09 1453.23 L2347.02 1453.23 L2347.02 1461.7 Q2348.03 1461.35 2349.05 1461.19 Q2350.07 1461 2351.09 1461 Q2356.88 1461 2360.26 1464.18 Q2363.64 1467.35 2363.64 1472.76 Q2363.64 1478.34 2360.16 1481.44 Q2356.69 1484.52 2350.37 1484.52 Q2348.2 1484.52 2345.93 1484.15 Q2343.68 1483.78 2341.27 1483.04 L2341.27 1478.34 Q2343.36 1479.48 2345.58 1480.03 Q2347.8 1480.59 2350.28 1480.59 Q2354.28 1480.59 2356.62 1478.48 Q2358.96 1476.38 2358.96 1472.76 Q2358.96 1469.15 2356.62 1467.05 Q2354.28 1464.94 2350.28 1464.94 Q2348.4 1464.94 2346.53 1465.36 Q2344.68 1465.77 2342.73 1466.65 L2342.73 1449.29 Z" fill="#000000" fill-rule="evenodd" fill-opacity="1" /><path clip-path="url(#clip300)" d="M 0 0 M2378.7 1452.37 Q2375.09 1452.37 2373.27 1455.94 Q2371.46 1459.48 2371.46 1466.61 Q2371.46 1473.71 2373.27 1477.28 Q2375.09 1480.82 2378.7 1480.82 Q2382.34 1480.82 2384.14 1477.28 Q2385.97 1473.71 2385.97 1466.61 Q2385.97 1459.48 2384.14 1455.94 Q2382.34 1452.37 2378.7 1452.37 M2378.7 1448.67 Q2384.51 1448.67 2387.57 1453.27 Q2390.65 1457.86 2390.65 1466.61 Q2390.65 1475.33 2387.57 1479.94 Q2384.51 1484.52 2378.7 1484.52 Q2372.89 1484.52 2369.82 1479.94 Q2366.76 1475.33 2366.76 1466.61 Q2366.76 1457.86 2369.82 1453.27 Q2372.89 1448.67 2378.7 1448.67 Z" fill="#000000" fill-rule="evenodd" fill-opacity="1" /><path clip-path="url(#clip300)" d="M 0 0 M1312.06 1520.4 L1299.17 1537.74 L1312.73 1556.04 L1305.82 1556.04 L1295.44 1542.04 L1285.07 1556.04 L1278.16 1556.04 L1292.01 1537.39 L1279.34 1520.4 L1286.24 1520.4 L1295.7 1533.1 L1305.15 1520.4 L1312.06 1520.4 Z" fill="#000000" fill-rule="evenodd" fill-opacity="1" /><polyline clip-path="url(#clip302)" style="stroke:#000000; stroke-width:2; stroke-opacity:0.1; fill:none" points="
  238.13,1316.66 2352.76,1316.66 
  "/>
<polyline clip-path="url(#clip302)" style="stroke:#000000; stroke-width:2; stroke-opacity:0.1; fill:none" points="
  238.13,1025.64 2352.76,1025.64 
  "/>
<polyline clip-path="url(#clip302)" style="stroke:#000000; stroke-width:2; stroke-opacity:0.1; fill:none" points="
  238.13,734.614 2352.76,734.614 
  "/>
<polyline clip-path="url(#clip302)" style="stroke:#000000; stroke-width:2; stroke-opacity:0.1; fill:none" points="
  238.13,443.591 2352.76,443.591 
  "/>
<polyline clip-path="url(#clip302)" style="stroke:#000000; stroke-width:2; stroke-opacity:0.1; fill:none" points="
  238.13,152.568 2352.76,152.568 
  "/>
<polyline clip-path="url(#clip300)" style="stroke:#000000; stroke-width:4; stroke-opacity:1; fill:none" points="
  238.13,1423.18 238.13,47.2441 
  "/>
<polyline clip-path="url(#clip300)" style="stroke:#000000; stroke-width:4; stroke-opacity:1; fill:none" points="
  238.13,1316.66 263.506,1316.66 
  "/>
<polyline clip-path="url(#clip300)" style="stroke:#000000; stroke-width:4; stroke-opacity:1; fill:none" points="
  238.13,1025.64 263.506,1025.64 
  "/>
<polyline clip-path="url(#clip300)" style="stroke:#000000; stroke-width:4; stroke-opacity:1; fill:none" points="
  238.13,734.614 263.506,734.614 
  "/>
<polyline clip-path="url(#clip300)" style="stroke:#000000; stroke-width:4; stroke-opacity:1; fill:none" points="
  238.13,443.591 263.506,443.591 
  "/>
<polyline clip-path="url(#clip300)" style="stroke:#000000; stroke-width:4; stroke-opacity:1; fill:none" points="
  238.13,152.568 263.506,152.568 
  "/>
<path clip-path="url(#clip300)" d="M 0 0 M126.205 1302.46 Q122.593 1302.46 120.765 1306.02 Q118.959 1309.57 118.959 1316.69 Q118.959 1323.8 120.765 1327.37 Q122.593 1330.91 126.205 1330.91 Q129.839 1330.91 131.644 1327.37 Q133.473 1323.8 133.473 1316.69 Q133.473 1309.57 131.644 1306.02 Q129.839 1302.46 126.205 1302.46 M126.205 1298.76 Q132.015 1298.76 135.07 1303.36 Q138.149 1307.94 138.149 1316.69 Q138.149 1325.42 135.07 1330.03 Q132.015 1334.61 126.205 1334.61 Q120.394 1334.61 117.316 1330.03 Q114.26 1325.42 114.26 1316.69 Q114.26 1307.94 117.316 1303.36 Q120.394 1298.76 126.205 1298.76 Z" fill="#000000" fill-rule="evenodd" fill-opacity="1" /><path clip-path="url(#clip300)" d="M 0 0 M143.218 1328.06 L148.103 1328.06 L148.103 1333.94 L143.218 1333.94 L143.218 1328.06 Z" fill="#000000" fill-rule="evenodd" fill-opacity="1" /><path clip-path="url(#clip300)" d="M 0 0 M163.172 1302.46 Q159.561 1302.46 157.732 1306.02 Q155.927 1309.57 155.927 1316.69 Q155.927 1323.8 157.732 1327.37 Q159.561 1330.91 163.172 1330.91 Q166.806 1330.91 168.612 1327.37 Q170.44 1323.8 170.44 1316.69 Q170.44 1309.57 168.612 1306.02 Q166.806 1302.46 163.172 1302.46 M163.172 1298.76 Q168.982 1298.76 172.038 1303.36 Q175.116 1307.94 175.116 1316.69 Q175.116 1325.42 172.038 1330.03 Q168.982 1334.61 163.172 1334.61 Q157.362 1334.61 154.283 1330.03 Q151.228 1325.42 151.228 1316.69 Q151.228 1307.94 154.283 1303.36 Q157.362 1298.76 163.172 1298.76 Z" fill="#000000" fill-rule="evenodd" fill-opacity="1" /><path clip-path="url(#clip300)" d="M 0 0 M190.186 1302.46 Q186.575 1302.46 184.746 1306.02 Q182.94 1309.57 182.94 1316.69 Q182.94 1323.8 184.746 1327.37 Q186.575 1330.91 190.186 1330.91 Q193.82 1330.91 195.625 1327.37 Q197.454 1323.8 197.454 1316.69 Q197.454 1309.57 195.625 1306.02 Q193.82 1302.46 190.186 1302.46 M190.186 1298.76 Q195.996 1298.76 199.051 1303.36 Q202.13 1307.94 202.13 1316.69 Q202.13 1325.42 199.051 1330.03 Q195.996 1334.61 190.186 1334.61 Q184.376 1334.61 181.297 1330.03 Q178.241 1325.42 178.241 1316.69 Q178.241 1307.94 181.297 1303.36 Q184.376 1298.76 190.186 1298.76 Z" fill="#000000" fill-rule="evenodd" fill-opacity="1" /><path clip-path="url(#clip300)" d="M 0 0 M128.797 1011.44 Q125.186 1011.44 123.357 1015 Q121.552 1018.54 121.552 1025.67 Q121.552 1032.78 123.357 1036.34 Q125.186 1039.88 128.797 1039.88 Q132.431 1039.88 134.237 1036.34 Q136.066 1032.78 136.066 1025.67 Q136.066 1018.54 134.237 1015 Q132.431 1011.44 128.797 1011.44 M128.797 1007.73 Q134.607 1007.73 137.663 1012.34 Q140.741 1016.92 140.741 1025.67 Q140.741 1034.4 137.663 1039.01 Q134.607 1043.59 128.797 1043.59 Q122.987 1043.59 119.908 1039.01 Q116.853 1034.4 116.853 1025.67 Q116.853 1016.92 119.908 1012.34 Q122.987 1007.73 128.797 1007.73 Z" fill="#000000" fill-rule="evenodd" fill-opacity="1" /><path clip-path="url(#clip300)" d="M 0 0 M145.811 1037.04 L150.695 1037.04 L150.695 1042.92 L145.811 1042.92 L145.811 1037.04 Z" fill="#000000" fill-rule="evenodd" fill-opacity="1" /><path clip-path="url(#clip300)" d="M 0 0 M159.792 1038.98 L176.112 1038.98 L176.112 1042.92 L154.167 1042.92 L154.167 1038.98 Q156.829 1036.23 161.413 1031.6 Q166.019 1026.95 167.2 1025.6 Q169.445 1023.08 170.325 1021.34 Q171.227 1019.58 171.227 1017.89 Q171.227 1015.14 169.283 1013.4 Q167.362 1011.67 164.26 1011.67 Q162.061 1011.67 159.607 1012.43 Q157.177 1013.2 154.399 1014.75 L154.399 1010.02 Q157.223 1008.89 159.677 1008.31 Q162.13 1007.73 164.167 1007.73 Q169.538 1007.73 172.732 1010.42 Q175.926 1013.1 175.926 1017.59 Q175.926 1019.72 175.116 1021.64 Q174.329 1023.54 172.223 1026.13 Q171.644 1026.81 168.542 1030.02 Q165.44 1033.22 159.792 1038.98 Z" fill="#000000" fill-rule="evenodd" fill-opacity="1" /><path clip-path="url(#clip300)" d="M 0 0 M181.227 1008.36 L199.584 1008.36 L199.584 1012.29 L185.51 1012.29 L185.51 1020.76 Q186.528 1020.42 187.547 1020.26 Q188.565 1020.07 189.584 1020.07 Q195.371 1020.07 198.75 1023.24 Q202.13 1026.41 202.13 1031.83 Q202.13 1037.41 198.658 1040.51 Q195.186 1043.59 188.866 1043.59 Q186.69 1043.59 184.422 1043.22 Q182.176 1042.85 179.769 1042.11 L179.769 1037.41 Q181.852 1038.54 184.075 1039.1 Q186.297 1039.65 188.774 1039.65 Q192.778 1039.65 195.116 1037.55 Q197.454 1035.44 197.454 1031.83 Q197.454 1028.22 195.116 1026.11 Q192.778 1024.01 188.774 1024.01 Q186.899 1024.01 185.024 1024.42 Q183.172 1024.84 181.227 1025.72 L181.227 1008.36 Z" fill="#000000" fill-rule="evenodd" fill-opacity="1" /><path clip-path="url(#clip300)" d="M 0 0 M127.2 720.413 Q123.589 720.413 121.76 723.978 Q119.955 727.519 119.955 734.649 Q119.955 741.755 121.76 745.32 Q123.589 748.862 127.2 748.862 Q130.834 748.862 132.64 745.32 Q134.468 741.755 134.468 734.649 Q134.468 727.519 132.64 723.978 Q130.834 720.413 127.2 720.413 M127.2 716.709 Q133.01 716.709 136.066 721.316 Q139.144 725.899 139.144 734.649 Q139.144 743.376 136.066 747.982 Q133.01 752.566 127.2 752.566 Q121.39 752.566 118.311 747.982 Q115.256 743.376 115.256 734.649 Q115.256 725.899 118.311 721.316 Q121.39 716.709 127.2 716.709 Z" fill="#000000" fill-rule="evenodd" fill-opacity="1" /><path clip-path="url(#clip300)" d="M 0 0 M144.214 746.015 L149.098 746.015 L149.098 751.894 L144.214 751.894 L144.214 746.015 Z" fill="#000000" fill-rule="evenodd" fill-opacity="1" /><path clip-path="url(#clip300)" d="M 0 0 M154.214 717.334 L172.57 717.334 L172.57 721.269 L158.496 721.269 L158.496 729.742 Q159.515 729.394 160.533 729.232 Q161.552 729.047 162.57 729.047 Q168.357 729.047 171.737 732.218 Q175.116 735.39 175.116 740.806 Q175.116 746.385 171.644 749.487 Q168.172 752.566 161.852 752.566 Q159.677 752.566 157.408 752.195 Q155.163 751.825 152.755 751.084 L152.755 746.385 Q154.839 747.519 157.061 748.075 Q159.283 748.63 161.76 748.63 Q165.765 748.63 168.102 746.524 Q170.44 744.417 170.44 740.806 Q170.44 737.195 168.102 735.089 Q165.765 732.982 161.76 732.982 Q159.885 732.982 158.01 733.399 Q156.158 733.816 154.214 734.695 L154.214 717.334 Z" fill="#000000" fill-rule="evenodd" fill-opacity="1" /><path clip-path="url(#clip300)" d="M 0 0 M190.186 720.413 Q186.575 720.413 184.746 723.978 Q182.94 727.519 182.94 734.649 Q182.94 741.755 184.746 745.32 Q186.575 748.862 190.186 748.862 Q193.82 748.862 195.625 745.32 Q197.454 741.755 197.454 734.649 Q197.454 727.519 195.625 723.978 Q193.82 720.413 190.186 720.413 M190.186 716.709 Q195.996 716.709 199.051 721.316 Q202.13 725.899 202.13 734.649 Q202.13 743.376 199.051 747.982 Q195.996 752.566 190.186 752.566 Q184.376 752.566 181.297 747.982 Q178.241 743.376 178.241 734.649 Q178.241 725.899 181.297 721.316 Q184.376 716.709 190.186 716.709 Z" fill="#000000" fill-rule="evenodd" fill-opacity="1" /><path clip-path="url(#clip300)" d="M 0 0 M128.103 429.39 Q124.492 429.39 122.663 432.955 Q120.857 436.496 120.857 443.626 Q120.857 450.732 122.663 454.297 Q124.492 457.839 128.103 457.839 Q131.737 457.839 133.542 454.297 Q135.371 450.732 135.371 443.626 Q135.371 436.496 133.542 432.955 Q131.737 429.39 128.103 429.39 M128.103 425.686 Q133.913 425.686 136.968 430.293 Q140.047 434.876 140.047 443.626 Q140.047 452.353 136.968 456.959 Q133.913 461.543 128.103 461.543 Q122.293 461.543 119.214 456.959 Q116.158 452.353 116.158 443.626 Q116.158 434.876 119.214 430.293 Q122.293 425.686 128.103 425.686 Z" fill="#000000" fill-rule="evenodd" fill-opacity="1" /><path clip-path="url(#clip300)" d="M 0 0 M145.116 454.992 L150.001 454.992 L150.001 460.871 L145.116 460.871 L145.116 454.992 Z" fill="#000000" fill-rule="evenodd" fill-opacity="1" /><path clip-path="url(#clip300)" d="M 0 0 M153.89 426.311 L176.112 426.311 L176.112 428.302 L163.565 460.871 L158.681 460.871 L170.487 430.246 L153.89 430.246 L153.89 426.311 Z" fill="#000000" fill-rule="evenodd" fill-opacity="1" /><path clip-path="url(#clip300)" d="M 0 0 M181.227 426.311 L199.584 426.311 L199.584 430.246 L185.51 430.246 L185.51 438.719 Q186.528 438.371 187.547 438.209 Q188.565 438.024 189.584 438.024 Q195.371 438.024 198.75 441.195 Q202.13 444.367 202.13 449.783 Q202.13 455.362 198.658 458.464 Q195.186 461.543 188.866 461.543 Q186.69 461.543 184.422 461.172 Q182.176 460.802 179.769 460.061 L179.769 455.362 Q181.852 456.496 184.075 457.052 Q186.297 457.607 188.774 457.607 Q192.778 457.607 195.116 455.501 Q197.454 453.395 197.454 449.783 Q197.454 446.172 195.116 444.066 Q192.778 441.959 188.774 441.959 Q186.899 441.959 185.024 442.376 Q183.172 442.793 181.227 443.672 L181.227 426.311 Z" fill="#000000" fill-rule="evenodd" fill-opacity="1" /><path clip-path="url(#clip300)" d="M 0 0 M118.242 165.913 L125.88 165.913 L125.88 139.548 L117.57 141.214 L117.57 136.955 L125.834 135.288 L130.51 135.288 L130.51 165.913 L138.149 165.913 L138.149 169.848 L118.242 169.848 L118.242 165.913 Z" fill="#000000" fill-rule="evenodd" fill-opacity="1" /><path clip-path="url(#clip300)" d="M 0 0 M143.218 163.969 L148.103 163.969 L148.103 169.848 L143.218 169.848 L143.218 163.969 Z" fill="#000000" fill-rule="evenodd" fill-opacity="1" /><path clip-path="url(#clip300)" d="M 0 0 M163.172 138.367 Q159.561 138.367 157.732 141.932 Q155.927 145.474 155.927 152.603 Q155.927 159.71 157.732 163.274 Q159.561 166.816 163.172 166.816 Q166.806 166.816 168.612 163.274 Q170.44 159.71 170.44 152.603 Q170.44 145.474 168.612 141.932 Q166.806 138.367 163.172 138.367 M163.172 134.663 Q168.982 134.663 172.038 139.27 Q175.116 143.853 175.116 152.603 Q175.116 161.33 172.038 165.936 Q168.982 170.52 163.172 170.52 Q157.362 170.52 154.283 165.936 Q151.228 161.33 151.228 152.603 Q151.228 143.853 154.283 139.27 Q157.362 134.663 163.172 134.663 Z" fill="#000000" fill-rule="evenodd" fill-opacity="1" /><path clip-path="url(#clip300)" d="M 0 0 M190.186 138.367 Q186.575 138.367 184.746 141.932 Q182.94 145.474 182.94 152.603 Q182.94 159.71 184.746 163.274 Q186.575 166.816 190.186 166.816 Q193.82 166.816 195.625 163.274 Q197.454 159.71 197.454 152.603 Q197.454 145.474 195.625 141.932 Q193.82 138.367 190.186 138.367 M190.186 134.663 Q195.996 134.663 199.051 139.27 Q202.13 143.853 202.13 152.603 Q202.13 161.33 199.051 165.936 Q195.996 170.52 190.186 170.52 Q184.376 170.52 181.297 165.936 Q178.241 161.33 178.241 152.603 Q178.241 143.853 181.297 139.27 Q184.376 134.663 190.186 134.663 Z" fill="#000000" fill-rule="evenodd" fill-opacity="1" /><path clip-path="url(#clip300)" d="M 0 0 M70.212 745.095 Q76.6732 745.095 80.3653 742.453 Q84.0256 739.779 84.0256 735.132 Q84.0256 730.485 80.3653 727.812 Q76.6732 725.138 70.212 725.138 Q63.7508 725.138 60.0905 727.812 Q56.3984 730.485 56.3984 735.132 Q56.3984 739.779 60.0905 742.453 Q63.7508 745.095 70.212 745.095 M82.657 725.138 Q85.8398 726.984 87.3994 729.817 Q88.9272 732.618 88.9272 736.565 Q88.9272 743.026 83.771 747.1 Q78.6147 751.142 70.212 751.142 Q61.8093 751.142 56.6531 747.1 Q51.4968 743.026 51.4968 736.565 Q51.4968 732.618 53.0564 729.817 Q54.5842 726.984 57.7671 725.138 L52.3562 725.138 L52.3562 719.282 L101.563 719.282 L101.563 725.138 L82.657 725.138 Z" fill="#000000" fill-rule="evenodd" fill-opacity="1" /><polyline clip-path="url(#clip302)" style="stroke:#009af9; stroke-width:4; stroke-opacity:1; fill:none" points="
  238.13,1316.66 240.983,1316.66 246.39,1316.66 251.798,1316.66 254.651,1316.66 257.503,1316.66 262.911,1316.66 268.318,1316.66 271.171,1316.66 
  274.024,1316.66 279.431,1316.66 284.839,1316.66 287.692,1316.66 290.544,1316.66 295.952,1316.66 301.359,1316.66 304.212,1316.66 
  307.065,1316.66 312.472,1316.66 317.88,1316.66 320.733,1316.66 323.585,1316.66 328.993,1316.66 334.4,1316.66 337.253,1316.66 
  340.106,1316.66 345.513,1316.66 350.921,1316.66 353.774,1316.66 356.626,1316.66 362.034,1316.66 367.442,1316.66 370.294,1316.66 
  373.147,1316.66 378.554,1316.66 383.962,1316.66 386.815,1316.66 389.667,1316.66 395.075,1316.66 400.483,1316.66 403.335,1316.66 
  406.188,1316.66 411.595,1316.66 417.003,1316.66 419.856,1316.66 422.708,1316.66 428.116,1316.66 433.524,1316.66 436.376,1316.66 
  439.229,1316.66 444.636,1316.66 450.044,1316.66 452.897,1316.66 455.749,1316.66 461.157,1316.66 466.565,1316.66 469.417,1316.66 
  472.27,1316.66 477.678,1316.66 483.085,1316.66 485.938,1316.66 488.79,1316.66 494.198,1316.66 499.606,1316.66 502.458,1316.66 
  505.311,1316.66 510.719,1316.66 516.126,1316.66 518.979,1316.66 521.831,1316.66 527.239,1316.66 532.647,1316.66 535.499,1316.66 
  538.352,1316.66 543.76,1316.66 549.167,1316.66 552.02,1316.66 554.872,1316.66 560.28,1316.66 565.688,1316.66 568.54,1316.66 
  571.393,1316.66 576.801,1316.66 582.208,1316.66 585.061,1316.66 587.914,1316.66 593.321,1316.66 598.729,1316.66 601.581,1316.66 
  604.434,1316.66 609.842,1316.66 615.249,1316.66 618.102,1316.66 620.955,1316.66 626.362,1316.66 631.77,1316.66 634.622,1316.66 
  637.475,1316.66 642.883,1316.66 648.29,1316.66 651.143,1316.66 653.996,1316.66 659.403,1316.66 664.811,1316.66 667.663,1316.66 
  670.516,1316.66 675.924,1316.66 681.331,1316.66 684.184,1316.66 687.037,1316.66 692.444,152.568 697.852,152.568 700.704,152.568 
  703.557,152.568 708.965,152.568 714.372,152.568 717.225,152.568 720.078,152.568 725.485,152.568 730.893,152.568 733.745,152.568 
  736.598,152.568 742.006,152.568 747.413,152.568 750.266,152.568 753.119,152.568 758.526,152.568 763.934,152.568 766.787,152.568 
  769.639,152.568 775.047,152.568 780.454,152.568 783.307,152.568 786.16,152.568 791.567,152.568 796.975,152.568 799.828,152.568 
  802.68,152.568 808.088,152.568 813.495,152.568 816.348,152.568 819.201,152.568 824.608,152.568 830.016,152.568 832.869,152.568 
  835.721,152.568 841.129,152.568 846.536,152.568 849.389,152.568 852.242,152.568 857.649,152.568 863.057,152.568 865.91,152.568 
  868.762,152.568 874.17,152.568 879.577,152.568 882.43,152.568 885.283,152.568 890.69,152.568 896.098,152.568 898.951,152.568 
  901.803,152.568 907.211,152.568 912.618,152.568 915.471,152.568 918.324,152.568 923.731,152.568 929.139,152.568 931.992,152.568 
  934.844,152.568 940.252,152.568 945.66,152.568 948.512,152.568 951.365,152.568 956.772,152.568 962.18,152.568 965.033,152.568 
  967.885,152.568 973.293,152.568 978.701,152.568 981.553,152.568 984.406,152.568 989.813,152.568 995.221,1316.66 998.074,1316.66 
  1000.93,1316.66 1006.33,1316.66 1011.74,1316.66 1014.59,1316.66 1017.45,1316.66 1022.85,1316.66 1028.26,1316.66 1031.11,1316.66 
  1033.97,1316.66 1039.38,1316.66 1044.78,1316.66 1047.64,1316.66 1050.49,1316.66 1055.9,1316.66 1061.3,1316.66 1064.16,1316.66 
  1067.01,1316.66 1072.42,1316.66 1077.82,1316.66 1080.68,1316.66 1083.53,1316.66 1088.94,1316.66 1094.34,1316.66 1097.2,1316.66 
  1100.05,1316.66 1105.46,1316.66 1110.86,1316.66 1113.72,1316.66 1116.57,1316.66 1121.98,1316.66 1127.39,1316.66 1130.24,1316.66 
  1133.09,1316.66 1138.5,1316.66 1143.91,1316.66 1146.76,1316.66 1149.61,1316.66 1155.02,1316.66 1160.43,1316.66 1163.28,1316.66 
  1166.13,1316.66 1171.54,1316.66 1176.95,1316.66 1179.8,1316.66 1182.65,1316.66 1188.06,1316.66 1193.47,1316.66 1196.32,1316.66 
  1199.17,1316.66 1204.58,1316.66 1209.99,1316.66 1212.84,1316.66 1215.69,1316.66 1221.1,1316.66 1226.51,1316.66 1229.36,1316.66 
  1232.21,1316.66 1237.62,1316.66 1243.03,1316.66 1245.88,1316.66 1248.73,1316.66 1254.14,1316.66 1259.55,1316.66 1262.4,1316.66 
  1265.25,1316.66 1270.66,1316.66 1276.07,1316.66 1278.92,1316.66 1281.78,1316.66 1287.18,1316.66 1292.59,1316.66 1295.44,1316.66 
  1298.3,1316.66 1303.7,1316.66 1309.11,1316.66 1311.96,1316.66 1314.82,1316.66 1320.22,1316.66 1325.63,1316.66 1328.48,1316.66 
  1331.34,1316.66 1336.74,1316.66 1342.15,1316.66 1345,1316.66 1347.86,1316.66 1353.26,1316.66 1358.67,1316.66 1361.53,1316.66 
  1364.38,1316.66 1369.79,1316.66 1375.19,1316.66 1378.05,1316.66 1380.9,1316.66 1386.31,1316.66 1391.71,1316.66 1394.57,1316.66 
  1397.42,1316.66 1402.83,1316.66 1408.23,1316.66 1411.09,1316.66 1413.94,1316.66 1419.35,1316.66 1424.75,1316.66 1427.61,1316.66 
  1430.46,1316.66 1435.87,1316.66 1441.27,1316.66 1444.13,1316.66 1446.98,1316.66 1452.39,1316.66 1457.8,1316.66 1460.65,1316.66 
  1463.5,1316.66 1468.91,1316.66 1474.32,1316.66 1477.17,1316.66 1480.02,1316.66 1485.43,1316.66 1490.84,1316.66 1493.69,1316.66 
  1496.54,1316.66 1501.95,1316.66 1507.36,1316.66 1510.21,1316.66 1513.06,1316.66 1518.47,1316.66 1523.88,1316.66 1526.73,1316.66 
  1529.58,1316.66 1534.99,1316.66 1540.4,1316.66 1543.25,1316.66 1546.1,1316.66 1551.51,1316.66 1556.92,1316.66 1559.77,1316.66 
  1562.62,1316.66 1568.03,1316.66 1573.44,1316.66 1576.29,1316.66 1579.14,1316.66 1584.55,1316.66 1589.96,1316.66 1592.81,1316.66 
  1595.66,1316.66 1601.07,1316.66 1606.48,1316.66 1609.33,1316.66 1612.19,1316.66 1617.59,1316.66 1623,1316.66 1625.85,1316.66 
  1628.71,1316.66 1634.11,1316.66 1639.52,1316.66 1642.37,1316.66 1645.23,1316.66 1650.63,1316.66 1656.04,1316.66 1658.89,1316.66 
  1661.75,1316.66 1667.15,1316.66 1672.56,1316.66 1675.41,1316.66 1678.27,1316.66 1683.68,1316.66 1689.08,1316.66 1691.94,1316.66 
  1694.79,1316.66 1700.2,1316.66 1705.6,1316.66 1708.46,1316.66 1711.31,1316.66 1716.72,1316.66 1722.12,1316.66 1724.98,1316.66 
  1727.83,1316.66 1733.24,1316.66 1738.64,1316.66 1741.5,1316.66 1744.35,1316.66 1749.76,1316.66 1755.16,1316.66 1758.02,1316.66 
  1760.87,1316.66 1766.28,1316.66 1771.69,1316.66 1774.54,1316.66 1777.39,1316.66 1782.8,1316.66 1788.21,1316.66 1791.06,1316.66 
  1793.91,1316.66 1799.32,1316.66 1804.73,1316.66 1807.58,1316.66 1810.43,1316.66 1815.84,1316.66 1821.25,1316.66 1824.1,1316.66 
  1826.95,1316.66 1832.36,1316.66 1837.77,1316.66 1840.62,1316.66 1843.47,1316.66 1848.88,1316.66 1854.29,1316.66 1857.14,1316.66 
  1859.99,1316.66 1865.4,1316.66 1870.81,1316.66 1873.66,1316.66 1876.51,1316.66 1881.92,1316.66 1887.33,1316.66 1890.18,1316.66 
  1893.03,1316.66 1898.44,1316.66 1903.85,1316.66 1906.7,1316.66 1909.55,1316.66 1914.96,1316.66 1920.37,1316.66 1923.22,1316.66 
  1926.08,1316.66 1931.48,1316.66 1936.89,1316.66 1939.74,1316.66 1942.6,1316.66 1948,1316.66 1953.41,1316.66 1956.26,1316.66 
  1959.12,1316.66 1964.52,1316.66 1969.93,1316.66 1972.78,1316.66 1975.64,1316.66 1981.04,1316.66 1986.45,1316.66 1989.3,1316.66 
  1992.16,1316.66 1997.56,1316.66 2002.97,1316.66 2005.83,1316.66 2008.68,1316.66 2014.09,1316.66 2019.49,1316.66 2022.35,1316.66 
  2025.2,1316.66 2030.61,1316.66 2036.01,1316.66 2038.87,1316.66 2041.72,1316.66 2047.13,1316.66 2052.53,1316.66 2055.39,1316.66 
  2058.24,1316.66 2063.65,1316.66 2069.05,1316.66 2071.91,1316.66 2074.76,1316.66 2080.17,1316.66 2085.58,1316.66 2088.43,1316.66 
  2091.28,1316.66 2096.69,1316.66 2102.1,1316.66 2104.95,1316.66 2107.8,1316.66 2113.21,1316.66 2118.62,1316.66 2121.47,1316.66 
  2124.32,1316.66 2129.73,1316.66 2135.14,1316.66 2137.99,1316.66 2140.84,1316.66 2146.25,1316.66 2151.66,1316.66 2154.51,1316.66 
  2157.36,1316.66 2162.77,1316.66 2168.18,1316.66 2171.03,1316.66 2173.88,1316.66 2179.29,1316.66 2184.7,1316.66 2187.55,1316.66 
  2190.4,1316.66 2195.81,1316.66 2201.22,1316.66 2204.07,1316.66 2206.92,1316.66 2212.33,1316.66 2217.74,1316.66 2220.59,1316.66 
  2223.44,1316.66 2228.85,1316.66 2234.26,1316.66 2237.11,1316.66 2239.96,1316.66 2245.37,1316.66 2250.78,1316.66 2253.63,1316.66 
  2256.49,1316.66 2261.89,1316.66 2267.3,1316.66 2270.15,1316.66 2273.01,1316.66 2278.41,1316.66 2283.82,1316.66 2286.67,1316.66 
  2289.53,1316.66 2294.93,1316.66 2300.34,1316.66 2303.19,1316.66 2306.05,1316.66 2311.45,1316.66 2316.86,1316.66 2319.71,1316.66 
  2322.57,1316.66 2327.98,1316.66 2333.38,1316.66 2336.24,1316.66 2339.09,1316.66 2344.5,1316.66 2349.9,1316.66 2352.76,1316.66 
  
  "/>
<polyline clip-path="url(#clip302)" style="stroke:#e26f46; stroke-width:4; stroke-opacity:1; fill:none" points="
  238.13,1316.66 240.983,1316.66 246.39,1316.66 251.798,1316.66 254.651,1316.66 257.503,1316.66 262.911,1316.66 268.318,1316.66 271.171,1316.66 
  274.024,1316.66 279.431,1316.66 284.839,1316.66 287.692,1316.66 290.544,1316.66 295.952,1316.66 301.359,1316.66 304.212,1316.66 
  307.065,1316.66 312.472,1316.66 317.88,1316.66 320.733,1316.66 323.585,1316.66 328.993,1316.66 334.4,1316.66 337.253,1316.66 
  340.106,1316.66 345.513,1316.66 350.921,1316.66 353.774,1316.66 356.626,1316.66 362.034,1316.66 367.442,1316.66 370.294,1316.66 
  373.147,1316.66 378.554,1316.66 383.962,1316.66 386.815,1316.66 389.667,1316.66 395.075,1316.66 400.483,1316.66 403.335,1316.66 
  406.188,1316.66 411.595,1316.66 417.003,1316.66 419.856,1316.66 422.708,1316.66 428.116,1316.66 433.524,1316.66 436.376,1316.66 
  439.229,1316.66 444.636,1316.66 450.044,1316.66 452.897,1316.66 455.749,1316.66 461.157,1316.66 466.565,1316.66 469.417,1316.66 
  472.27,1316.66 477.678,1316.66 483.085,1316.66 485.938,1316.66 488.79,1316.66 494.198,1316.66 499.606,1316.66 502.458,1316.66 
  505.311,1316.66 510.719,1316.66 516.126,1316.66 518.979,1316.66 521.831,1316.66 527.239,1316.66 532.647,1316.66 535.499,1316.66 
  538.352,1316.66 543.76,1316.66 549.167,1316.66 552.02,1316.66 554.872,1316.66 560.28,1316.66 565.688,1316.66 568.54,1316.66 
  571.393,1316.66 576.801,1316.66 582.208,1316.66 585.061,1316.66 587.914,1316.66 593.321,1316.66 598.729,1316.66 601.581,1316.66 
  604.434,1316.66 609.842,1316.66 615.249,1316.66 618.102,1316.66 620.955,1316.66 626.362,1316.66 631.77,1316.66 634.622,1316.66 
  637.475,1316.66 642.883,1316.66 648.29,1316.66 651.143,1316.66 653.996,1316.66 659.403,1316.66 664.811,1316.66 667.663,1316.66 
  670.516,1316.66 675.924,1316.66 681.331,1316.66 684.184,1316.66 687.037,1316.66 692.444,1316.66 697.852,1316.66 700.704,1316.66 
  703.557,1316.66 708.965,1316.66 714.372,1316.66 717.225,1316.66 720.078,1316.66 725.485,1316.66 730.893,1316.66 733.745,1316.66 
  736.598,1316.66 742.006,1316.66 747.413,1316.66 750.266,1316.66 753.119,1316.66 758.526,1316.66 763.934,1316.66 766.787,1316.66 
  769.639,1316.66 775.047,1316.66 780.454,1316.66 783.307,1316.66 786.16,1316.66 791.567,1316.66 796.975,1316.66 799.828,1316.66 
  799.828,1316.66 802.68,1316.66 808.088,1316.66 813.495,1316.66 816.348,1316.66 816.348,1316.66 819.201,1316.66 824.608,1316.66 830.016,1316.66 832.869,1316.66 
  832.869,1316.66 835.721,1316.66 841.129,1316.66 846.536,1316.66 849.389,1316.66 849.389,1316.66 852.242,1316.66 857.649,1316.66 863.057,1316.66 865.91,1316.66 
  865.91,1316.66 868.762,1316.66 874.17,1316.66 879.577,1316.66 882.43,1316.66 882.43,1316.66 885.283,1316.66 890.69,1316.66 896.098,1316.66 898.951,1316.66 
  898.951,1316.66 901.803,1316.66 907.211,1316.66 912.618,1316.66 915.471,1316.66 915.471,1316.66 918.324,1316.66 923.731,1316.66 929.139,1316.66 931.992,1316.66 
  931.992,1316.66 934.844,1316.66 940.252,1316.66 945.66,1316.66 948.512,1316.66 948.512,1316.66 951.365,1316.66 956.772,1316.66 962.18,1316.66 965.033,1316.66 
  965.033,1316.66 967.885,1316.66 973.293,1316.66 978.701,1316.66 981.553,1316.66 981.553,1316.66 984.406,1316.66 989.813,1316.66 995.221,1316.66 998.074,1316.66 
  998.074,1316.66 1000.93,1316.66 1006.33,1316.66 1011.74,1316.66 1014.59,1316.66 1014.59,1316.66 1017.45,1316.66 1022.85,1316.66 1028.26,1316.66 1031.11,1316.66 
  1031.11,1316.66 1033.97,1316.66 1039.38,1316.66 1044.78,1316.66 1047.64,1316.66 1047.64,1316.66 1050.49,1316.66 1055.9,1316.66 1061.3,1316.66 1064.16,1316.66 
  1064.16,1316.66 1067.01,1316.66 1072.42,1316.66 1077.82,1316.66 1080.68,1316.66 1080.68,1316.66 1083.53,1316.66 1088.94,1316.66 1094.34,1316.66 1097.2,1316.66 
  1097.2,1316.66 1100.05,1316.66 1105.46,1316.66 1110.86,1316.66 1113.72,1316.66 1113.72,1316.66 1116.57,1316.67 1121.98,1316.67 1127.39,1316.67 1130.24,1316.67 
  1130.24,1316.67 1133.09,1316.66 1138.5,1316.65 1143.91,1316.62 1146.76,1316.61 1146.76,1316.61 1149.61,1316.59 1155.02,1316.58 1160.43,1316.62 1163.28,1316.66 
  1163.28,1316.64 1166.13,1316.73 1171.54,1316.91 1176.95,1317.11 1179.8,1317.22 1179.8,1317.23 1182.65,1317.31 1188.06,1317.2 1193.47,1316.73 1196.32,1316.34 
  1196.32,1316.42 1199.17,1315.68 1204.58,1314.16 1209.99,1312.55 1212.84,1311.67 1212.84,1311.64 1215.69,1311.03 1221.1,1311.67 1226.51,1314.71 1229.36,1317.31 
  1229.36,1316.79 1232.21,1321.61 1237.62,1332.7 1243.03,1346.09 1245.88,1353.98 1245.88,1353.79 1248.73,1362.07 1254.14,1370.68 1259.55,1369.76 1262.4,1365.34 
  1262.4,1367.23 1265.25,1353.63 1270.66,1308.48 1276.07,1238.95 1278.92,1192.85 1278.92,1196.11 1281.78,1135 1287.18,1005.02 1292.59,858.625 1295.44,775.633 
  1295.44,776.533 1298.3,690.013 1303.7,535.188 1309.11,393.117 1311.96,323.601 1311.96,320.943 1314.82,264.58 1320.22,179.387 1325.63,120.812 1328.48,99.9382 
  1328.48,97.1133 1331.34,89.6041 1336.74,86.1857 1342.15,95.0491 1345,103.916 1345,103.393 1347.86,114.146 1353.26,132.321 1358.67,147.373 1361.53,153.96 
  1361.53,154.517 1364.38,157.986 1369.79,161.595 1375.19,161.784 1378.05,160.693 1378.05,160.854 1380.9,159.037 1386.31,155.901 1391.71,153.254 1394.57,152.09 
  1394.57,151.986 1397.42,151.464 1402.83,151.012 1408.23,151.161 1411.09,151.443 1411.09,151.428 1413.94,151.774 1419.35,152.309 1424.75,152.682 1427.61,152.813 
  1427.61,152.831 1430.46,152.845 1435.87,152.817 1441.27,152.737 1444.13,152.68 1444.13,152.675 1446.98,152.643 1452.39,152.605 1457.8,152.589 1460.65,152.587 
  1460.65,152.592 1463.5,152.574 1468.91,152.491 1474.32,152.343 1477.17,152.239 1477.17,152.251 1480.02,152.108 1485.43,151.969 1490.84,152.018 1493.69,152.127 
  1493.69,152.068 1496.54,152.43 1501.95,153.446 1507.36,154.877 1510.21,155.793 1510.21,155.733 1513.06,156.821 1518.47,157.919 1523.88,157.678 1526.73,156.98 
  1526.73,157.325 1529.58,155.058 1534.99,148.123 1540.4,137.855 1543.25,131.144 1543.25,131.654 1546.1,122.983 1551.51,109.24 1556.92,99.389 1559.77,95.9085 
  1559.77,94.8852 1562.62,96.6503 1568.03,115.935 1573.44,155.665 1576.29,184.689 1576.29,181.565 1579.14,225.172 1584.55,326.737 1589.96,451.145 1592.81,525.209 
  1592.81,523.065 1595.66,606.596 1601.07,764.516 1606.48,920.363 1609.33,1001.13 1609.33,1002.75 1612.19,1075.19 1617.59,1192.36 1623,1284.13 1625.85,1322.7 
  1625.85,1325.94 1628.71,1348.95 1634.11,1376.22 1639.52,1384.24 1642.37,1381.58 1642.37,1382.94 1645.23,1374.31 1650.63,1356.8 1656.04,1338.6 1658.89,1329.06 
  1658.89,1328.64 1661.75,1321.68 1667.15,1312.33 1672.56,1307.59 1675.41,1306.79 1675.41,1306.43 1678.27,1307.44 1683.68,1309.95 1689.08,1313 1691.94,1314.73 
  1691.94,1314.8 1694.79,1316.02 1700.2,1317.58 1705.6,1318.25 1708.46,1318.28 1708.46,1318.33 1711.31,1318.06 1716.72,1317.51 1722.12,1316.96 1724.98,1316.69 
  1724.98,1316.67 1727.83,1316.53 1733.24,1316.39 1738.64,1316.39 1741.5,1316.44 1741.5,1316.44 1744.35,1316.51 1749.76,1316.61 1755.16,1316.69 1758.02,1316.71 
  1758.02,1316.71 1760.87,1316.72 1766.28,1316.71 1771.69,1316.68 1774.54,1316.67 1774.54,1316.67 1777.39,1316.66 1782.8,1316.65 1788.21,1316.65 1791.06,1316.65 
  1791.06,1316.65 1793.91,1316.65 1799.32,1316.66 1804.73,1316.66 1807.58,1316.66 1807.58,1316.66 1810.43,1316.66 1815.84,1316.66 1821.25,1316.66 1824.1,1316.66 
  1824.1,1316.66 1826.95,1316.66 1832.36,1316.66 1837.77,1316.66 1840.62,1316.66 1840.62,1316.66 1843.47,1316.66 1848.88,1316.66 1854.29,1316.66 1857.14,1316.66 
  1857.14,1316.66 1859.99,1316.66 1865.4,1316.66 1870.81,1316.66 1873.66,1316.66 1873.66,1316.66 1876.51,1316.66 1881.92,1316.66 1887.33,1316.66 1890.18,1316.66 
  1890.18,1316.66 1893.03,1316.66 1898.44,1316.66 1903.85,1316.66 1906.7,1316.66 1906.7,1316.66 1909.55,1316.66 1914.96,1316.66 1920.37,1316.66 1923.22,1316.66 
  1923.22,1316.66 1926.08,1316.66 1931.48,1316.66 1936.89,1316.66 1939.74,1316.66 1939.74,1316.66 1942.6,1316.66 1948,1316.66 1953.41,1316.66 1956.26,1316.66 
  1956.26,1316.66 1959.12,1316.66 1964.52,1316.66 1969.93,1316.66 1972.78,1316.66 1972.78,1316.66 1975.64,1316.66 1981.04,1316.66 1986.45,1316.66 1989.3,1316.66 
  1989.3,1316.66 1992.16,1316.66 1997.56,1316.66 2002.97,1316.66 2005.83,1316.66 2005.83,1316.66 2008.68,1316.66 2014.09,1316.66 2019.49,1316.66 2022.35,1316.66 
  2022.35,1316.66 2025.2,1316.66 2030.61,1316.66 2036.01,1316.66 2038.87,1316.66 2038.87,1316.66 2041.72,1316.66 2047.13,1316.66 2052.53,1316.66 2055.39,1316.66 
  2055.39,1316.66 2058.24,1316.66 2063.65,1316.66 2069.05,1316.66 2071.91,1316.66 2074.76,1316.66 2080.17,1316.66 2085.58,1316.66 2088.43,1316.66 
  2088.43,1316.66 2091.28,1316.66 2096.69,1316.66 2102.1,1316.66 2104.95,1316.66 2107.8,1316.66 2113.21,1316.66 2118.62,1316.66 2121.47,1316.66 
  2124.32,1316.66 2129.73,1316.66 2135.14,1316.66 2137.99,1316.66 2140.84,1316.66 2146.25,1316.66 2151.66,1316.66 2154.51,1316.66 
  2157.36,1316.66 2162.77,1316.66 2168.18,1316.66 2171.03,1316.66 2173.88,1316.66 2179.29,1316.66 2184.7,1316.66 2187.55,1316.66 
  2190.4,1316.66 2195.81,1316.66 2201.22,1316.66 2204.07,1316.66 2206.92,1316.66 2212.33,1316.66 2217.74,1316.66 2220.59,1316.66 
  2223.44,1316.66 2228.85,1316.66 2234.26,1316.66 2237.11,1316.66 2239.96,1316.66 2245.37,1316.66 2250.78,1316.66 2253.63,1316.66 
  2256.49,1316.66 2261.89,1316.66 2267.3,1316.66 2270.15,1316.66 2273.01,1316.66 2278.41,1316.66 2283.82,1316.66 2286.67,1316.66 
  2289.53,1316.66 2294.93,1316.66 2300.34,1316.66 2303.19,1316.66 2306.05,1316.66 2311.45,1316.66 2316.86,1316.66 2319.71,1316.66 
  2322.57,1316.66 2327.98,1316.66 2333.38,1316.66 2336.24,1316.66 2339.09,1316.66 2344.5,1316.66 2349.9,1316.66 2352.76,1316.66 
  
  "/>
<path clip-path="url(#clip300)" d="
M1786.57 274.549 L2282.27 274.549 L2282.27 93.1086 L1786.57 93.1086  Z
  " fill="#ffffff" fill-rule="evenodd" fill-opacity="1"/>
<polyline clip-path="url(#clip300)" style="stroke:#000000; stroke-width:4; stroke-opacity:1; fill:none" points="
  1786.57,274.549 2282.27,274.549 2282.27,93.1086 1786.57,93.1086 1786.57,274.549 
  "/>
<polyline clip-path="url(#clip300)" style="stroke:#009af9; stroke-width:4; stroke-opacity:1; fill:none" points="
  1810.07,153.589 1951.04,153.589 
  "/>
<path clip-path="url(#clip300)" d="M 0 0 M1981.94 137.582 L1981.94 144.943 L1990.72 144.943 L1990.72 148.253 L1981.94 148.253 L1981.94 162.327 Q1981.94 165.498 1982.8 166.401 Q1983.68 167.304 1986.34 167.304 L1990.72 167.304 L1990.72 170.869 L1986.34 170.869 Q1981.41 170.869 1979.54 169.04 Q1977.66 167.188 1977.66 162.327 L1977.66 148.253 L1974.54 148.253 L1974.54 144.943 L1977.66 144.943 L1977.66 137.582 L1981.94 137.582 Z" fill="#000000" fill-rule="evenodd" fill-opacity="1" /><path clip-path="url(#clip300)" d="M 0 0 M1995.74 149.341 L2025.42 149.341 L2025.42 153.23 L1995.74 153.23 L1995.74 149.341 M1995.74 158.785 L2025.42 158.785 L2025.42 162.721 L1995.74 162.721 L1995.74 158.785 Z" fill="#000000" fill-rule="evenodd" fill-opacity="1" /><path clip-path="url(#clip300)" d="M 0 0 M2040.49 139.387 Q2036.87 139.387 2035.05 142.952 Q2033.24 146.494 2033.24 153.623 Q2033.24 160.73 2035.05 164.295 Q2036.87 167.836 2040.49 167.836 Q2044.12 167.836 2045.93 164.295 Q2047.75 160.73 2047.75 153.623 Q2047.75 146.494 2045.93 142.952 Q2044.12 139.387 2040.49 139.387 M2040.49 135.684 Q2046.3 135.684 2049.35 140.29 Q2052.43 144.873 2052.43 153.623 Q2052.43 162.35 2049.35 166.957 Q2046.3 171.54 2040.49 171.54 Q2034.68 171.54 2031.6 166.957 Q2028.54 162.35 2028.54 153.623 Q2028.54 144.873 2031.6 140.29 Q2034.68 135.684 2040.49 135.684 Z" fill="#000000" fill-rule="evenodd" fill-opacity="1" /><path clip-path="url(#clip300)" d="M 0 0 M2057.5 164.989 L2062.38 164.989 L2062.38 170.869 L2057.5 170.869 L2057.5 164.989 Z" fill="#000000" fill-rule="evenodd" fill-opacity="1" /><path clip-path="url(#clip300)" d="M 0 0 M2077.45 139.387 Q2073.84 139.387 2072.01 142.952 Q2070.21 146.494 2070.21 153.623 Q2070.21 160.73 2072.01 164.295 Q2073.84 167.836 2077.45 167.836 Q2081.09 167.836 2082.89 164.295 Q2084.72 160.73 2084.72 153.623 Q2084.72 146.494 2082.89 142.952 Q2081.09 139.387 2077.45 139.387 M2077.45 135.684 Q2083.26 135.684 2086.32 140.29 Q2089.4 144.873 2089.4 153.623 Q2089.4 162.35 2086.32 166.957 Q2083.26 171.54 2077.45 171.54 Q2071.64 171.54 2068.56 166.957 Q2065.51 162.35 2065.51 153.623 Q2065.51 144.873 2068.56 140.29 Q2071.64 135.684 2077.45 135.684 Z" fill="#000000" fill-rule="evenodd" fill-opacity="1" /><path clip-path="url(#clip300)" d="M 0 0 M2108.54 134.85 L2118.36 134.85 L2118.36 138.16 L2112.8 138.16 L2112.8 173.808 L2118.36 173.808 L2118.36 177.119 L2108.54 177.119 L2108.54 134.85 Z" fill="#000000" fill-rule="evenodd" fill-opacity="1" /><path clip-path="url(#clip300)" d="M 0 0 M2139.35 145.707 L2139.35 149.734 Q2137.55 148.809 2135.6 148.346 Q2133.66 147.883 2131.57 147.883 Q2128.4 147.883 2126.81 148.855 Q2125.23 149.827 2125.23 151.771 Q2125.23 153.253 2126.37 154.109 Q2127.5 154.943 2130.93 155.707 L2132.38 156.031 Q2136.92 157.003 2138.82 158.785 Q2140.74 160.545 2140.74 163.716 Q2140.74 167.327 2137.87 169.433 Q2135.02 171.54 2130.02 171.54 Q2127.94 171.54 2125.67 171.123 Q2123.43 170.73 2120.93 169.92 L2120.93 165.521 Q2123.29 166.748 2125.58 167.373 Q2127.87 167.975 2130.12 167.975 Q2133.12 167.975 2134.74 166.957 Q2136.37 165.915 2136.37 164.04 Q2136.37 162.304 2135.18 161.378 Q2134.03 160.452 2130.07 159.596 L2128.59 159.248 Q2124.63 158.415 2122.87 156.702 Q2121.11 154.966 2121.11 151.957 Q2121.11 148.299 2123.7 146.309 Q2126.3 144.318 2131.06 144.318 Q2133.43 144.318 2135.51 144.665 Q2137.59 145.012 2139.35 145.707 Z" fill="#000000" fill-rule="evenodd" fill-opacity="1" /><path clip-path="url(#clip300)" d="M 0 0 M2155.16 134.85 L2155.16 177.119 L2145.35 177.119 L2145.35 173.808 L2150.88 173.808 L2150.88 138.16 L2145.35 138.16 L2145.35 134.85 L2155.16 134.85 Z" fill="#000000" fill-rule="evenodd" fill-opacity="1" /><polyline clip-path="url(#clip300)" style="stroke:#e26f46; stroke-width:4; stroke-opacity:1; fill:none" points="
  1810.07,214.069 1951.04,214.069 
  "/>
<path clip-path="url(#clip300)" d="M 0 0 M1981.94 198.062 L1981.94 205.423 L1990.72 205.423 L1990.72 208.733 L1981.94 208.733 L1981.94 222.807 Q1981.94 225.978 1982.8 226.881 Q1983.68 227.784 1986.34 227.784 L1990.72 227.784 L1990.72 231.349 L1986.34 231.349 Q1981.41 231.349 1979.54 229.52 Q1977.66 227.668 1977.66 222.807 L1977.66 208.733 L1974.54 208.733 L1974.54 205.423 L1977.66 205.423 L1977.66 198.062 L1981.94 198.062 Z" fill="#000000" fill-rule="evenodd" fill-opacity="1" /><path clip-path="url(#clip300)" d="M 0 0 M1995.74 209.821 L2025.42 209.821 L2025.42 213.71 L1995.74 213.71 L1995.74 209.821 M1995.74 219.265 L2025.42 219.265 L2025.42 223.201 L1995.74 223.201 L1995.74 219.265 Z" fill="#000000" fill-rule="evenodd" fill-opacity="1" /><path clip-path="url(#clip300)" d="M 0 0 M2043.33 200.863 L2031.53 219.312 L2043.33 219.312 L2043.33 200.863 M2042.11 196.789 L2047.99 196.789 L2047.99 219.312 L2052.92 219.312 L2052.92 223.201 L2047.99 223.201 L2047.99 231.349 L2043.33 231.349 L2043.33 223.201 L2027.73 223.201 L2027.73 218.687 L2042.11 196.789 Z" fill="#000000" fill-rule="evenodd" fill-opacity="1" /><path clip-path="url(#clip300)" d="M 0 0 M2058.03 196.789 L2076.39 196.789 L2076.39 200.724 L2062.31 200.724 L2062.31 209.196 Q2063.33 208.849 2064.35 208.687 Q2065.37 208.502 2066.39 208.502 Q2072.18 208.502 2075.56 211.673 Q2078.93 214.844 2078.93 220.261 Q2078.93 225.839 2075.46 228.941 Q2071.99 232.02 2065.67 232.02 Q2063.5 232.02 2061.23 231.65 Q2058.98 231.279 2056.57 230.538 L2056.57 225.839 Q2058.66 226.974 2060.88 227.529 Q2063.1 228.085 2065.58 228.085 Q2069.58 228.085 2071.92 225.978 Q2074.26 223.872 2074.26 220.261 Q2074.26 216.65 2071.92 214.543 Q2069.58 212.437 2065.58 212.437 Q2063.7 212.437 2061.83 212.853 Q2059.98 213.27 2058.03 214.15 L2058.03 196.789 Z" fill="#000000" fill-rule="evenodd" fill-opacity="1" /><path clip-path="url(#clip300)" d="M 0 0 M2094 199.867 Q2090.39 199.867 2088.56 203.432 Q2086.76 206.974 2086.76 214.103 Q2086.76 221.21 2088.56 224.775 Q2090.39 228.316 2094 228.316 Q2097.64 228.316 2099.44 224.775 Q2101.27 221.21 2101.27 214.103 Q2101.27 206.974 2099.44 203.432 Q2097.64 199.867 2094 199.867 M2094 196.164 Q2099.81 196.164 2102.87 200.77 Q2105.95 205.353 2105.95 214.103 Q2105.95 222.83 2102.87 227.437 Q2099.81 232.02 2094 232.02 Q2088.19 232.02 2085.12 227.437 Q2082.06 222.83 2082.06 214.103 Q2082.06 205.353 2085.12 200.77 Q2088.19 196.164 2094 196.164 Z" fill="#000000" fill-rule="evenodd" fill-opacity="1" /><path clip-path="url(#clip300)" d="M 0 0 M2111.02 225.469 L2115.9 225.469 L2115.9 231.349 L2111.02 231.349 L2111.02 225.469 Z" fill="#000000" fill-rule="evenodd" fill-opacity="1" /><path clip-path="url(#clip300)" d="M 0 0 M2133.82 200.863 L2122.01 219.312 L2133.82 219.312 L2133.82 200.863 M2132.59 196.789 L2138.47 196.789 L2138.47 219.312 L2143.4 219.312 L2143.4 223.201 L2138.47 223.201 L2138.47 231.349 L2133.82 231.349 L2133.82 223.201 L2118.22 223.201 L2118.22 218.687 L2132.59 196.789 Z" fill="#000000" fill-rule="evenodd" fill-opacity="1" /><path clip-path="url(#clip300)" d="M 0 0 M2147.29 196.789 L2169.51 196.789 L2169.51 198.779 L2156.97 231.349 L2152.08 231.349 L2163.89 200.724 L2147.29 200.724 L2147.29 196.789 Z" fill="#000000" fill-rule="evenodd" fill-opacity="1" /><path clip-path="url(#clip300)" d="M 0 0 M2188.66 195.33 L2198.47 195.33 L2198.47 198.64 L2192.92 198.64 L2192.92 234.288 L2198.47 234.288 L2198.47 237.599 L2188.66 237.599 L2188.66 195.33 Z" fill="#000000" fill-rule="evenodd" fill-opacity="1" /><path clip-path="url(#clip300)" d="M 0 0 M2219.47 206.187 L2219.47 210.214 Q2217.66 209.289 2215.72 208.826 Q2213.77 208.363 2211.69 208.363 Q2208.52 208.363 2206.92 209.335 Q2205.35 210.307 2205.35 212.251 Q2205.35 213.733 2206.48 214.589 Q2207.61 215.423 2211.04 216.187 L2212.5 216.511 Q2217.04 217.483 2218.93 219.265 Q2220.86 221.025 2220.86 224.196 Q2220.86 227.807 2217.99 229.913 Q2215.14 232.02 2210.14 232.02 Q2208.05 232.02 2205.79 231.603 Q2203.54 231.21 2201.04 230.4 L2201.04 226.001 Q2203.4 227.228 2205.69 227.853 Q2207.99 228.455 2210.23 228.455 Q2213.24 228.455 2214.86 227.437 Q2216.48 226.395 2216.48 224.52 Q2216.48 222.784 2215.3 221.858 Q2214.14 220.932 2210.18 220.076 L2208.7 219.728 Q2204.74 218.895 2202.99 217.182 Q2201.23 215.446 2201.23 212.437 Q2201.23 208.779 2203.82 206.789 Q2206.41 204.798 2211.18 204.798 Q2213.54 204.798 2215.62 205.145 Q2217.71 205.492 2219.47 206.187 Z" fill="#000000" fill-rule="evenodd" fill-opacity="1" /><path clip-path="url(#clip300)" d="M 0 0 M2235.28 195.33 L2235.28 237.599 L2225.46 237.599 L2225.46 234.288 L2230.99 234.288 L2230.99 198.64 L2225.46 198.64 L2225.46 195.33 L2235.28 195.33 Z" fill="#000000" fill-rule="evenodd" fill-opacity="1" /></svg>
