<?xml version="1.0" encoding="utf-8"?>
<svg xmlns="http://www.w3.org/2000/svg" xmlns:xlink="http://www.w3.org/1999/xlink" width="600" height="400" viewBox="0 0 2400 1600">
<defs>
  <clipPath id="clip810">
    <rect x="0" y="0" width="2400" height="1600"/>
  </clipPath>
</defs>
<path clip-path="url(#clip810)" d="
M0 1600 L2400 1600 L2400 0 L0 0  Z
  " fill="#ffffff" fill-rule="evenodd" fill-opacity="1"/>
<defs>
  <clipPath id="clip811">
    <rect x="480" y="0" width="1681" height="1600"/>
  </clipPath>
</defs>
<path clip-path="url(#clip810)" d="
M136.76 1423.18 L2352.76 1423.18 L2352.76 123.472 L136.76 123.472  Z
  " fill="#ffffff" fill-rule="evenodd" fill-opacity="1"/>
<defs>
  <clipPath id="clip812">
    <rect x="136" y="123" width="2217" height="1301"/>
  </clipPath>
</defs>
<polyline clip-path="url(#clip812)" style="stroke:#000000; stroke-width:2; stroke-opacity:0.1; fill:none" points="
  389.528,1423.18 389.528,123.472 
  "/>
<polyline clip-path="url(#clip812)" style="stroke:#000000; stroke-width:2; stroke-opacity:0.1; fill:none" points="
  864.656,1423.18 864.656,123.472 
  "/>
<polyline clip-path="url(#clip812)" style="stroke:#000000; stroke-width:2; stroke-opacity:0.1; fill:none" points="
  1339.78,1423.18 1339.78,123.472 
  "/>
<polyline clip-path="url(#clip812)" style="stroke:#000000; stroke-width:2; stroke-opacity:0.1; fill:none" points="
  1814.91,1423.18 1814.91,123.472 
  "/>
<polyline clip-path="url(#clip812)" style="stroke:#000000; stroke-width:2; stroke-opacity:0.1; fill:none" points="
  2290.04,1423.18 2290.04,123.472 
  "/>
<polyline clip-path="url(#clip810)" style="stroke:#000000; stroke-width:4; stroke-opacity:1; fill:none" points="
  136.76,1423.18 2352.76,1423.18 
  "/>
<polyline clip-path="url(#clip810)" style="stroke:#000000; stroke-width:4; stroke-opacity:1; fill:none" points="
  389.528,1423.18 389.528,1407.58 
  "/>
<polyline clip-path="url(#clip810)" style="stroke:#000000; stroke-width:4; stroke-opacity:1; fill:none" points="
  864.656,1423.18 864.656,1407.58 
  "/>
<polyline clip-path="url(#clip810)" style="stroke:#000000; stroke-width:4; stroke-opacity:1; fill:none" points="
  1339.78,1423.18 1339.78,1407.58 
  "/>
<polyline clip-path="url(#clip810)" style="stroke:#000000; stroke-width:4; stroke-opacity:1; fill:none" points="
  1814.91,1423.18 1814.91,1407.58 
  "/>
<polyline clip-path="url(#clip810)" style="stroke:#000000; stroke-width:4; stroke-opacity:1; fill:none" points="
  2290.04,1423.18 2290.04,1407.58 
  "/>
<path clip-path="url(#clip810)" d="M 0 0 M371.045 1452.37 Q367.434 1452.37 365.605 1455.94 Q363.799 1459.48 363.799 1466.61 Q363.799 1473.71 365.605 1477.28 Q367.434 1480.82 371.045 1480.82 Q374.679 1480.82 376.484 1477.28 Q378.313 1473.71 378.313 1466.61 Q378.313 1459.48 376.484 1455.94 Q374.679 1452.37 371.045 1452.37 M371.045 1448.67 Q376.855 1448.67 379.91 1453.27 Q382.989 1457.86 382.989 1466.61 Q382.989 1475.33 379.91 1479.94 Q376.855 1484.52 371.045 1484.52 Q365.234 1484.52 362.156 1479.94 Q359.1 1475.33 359.1 1466.61 Q359.1 1457.86 362.156 1453.27 Q365.234 1448.67 371.045 1448.67 Z" fill="#000000" fill-rule="evenodd" fill-opacity="1" /><path clip-path="url(#clip810)" d="M 0 0 M388.058 1477.97 L392.943 1477.97 L392.943 1483.85 L388.058 1483.85 L388.058 1477.97 Z" fill="#000000" fill-rule="evenodd" fill-opacity="1" /><path clip-path="url(#clip810)" d="M 0 0 M408.012 1452.37 Q404.401 1452.37 402.572 1455.94 Q400.767 1459.48 400.767 1466.61 Q400.767 1473.71 402.572 1477.28 Q404.401 1480.82 408.012 1480.82 Q411.646 1480.82 413.452 1477.28 Q415.28 1473.71 415.28 1466.61 Q415.28 1459.48 413.452 1455.94 Q411.646 1452.37 408.012 1452.37 M408.012 1448.67 Q413.822 1448.67 416.878 1453.27 Q419.956 1457.86 419.956 1466.61 Q419.956 1475.33 416.878 1479.94 Q413.822 1484.52 408.012 1484.52 Q402.202 1484.52 399.123 1479.94 Q396.068 1475.33 396.068 1466.61 Q396.068 1457.86 399.123 1453.27 Q402.202 1448.67 408.012 1448.67 Z" fill="#000000" fill-rule="evenodd" fill-opacity="1" /><path clip-path="url(#clip810)" d="M 0 0 M841.323 1479.92 L857.642 1479.92 L857.642 1483.85 L835.698 1483.85 L835.698 1479.92 Q838.36 1477.16 842.943 1472.53 Q847.55 1467.88 848.73 1466.54 Q850.976 1464.01 851.855 1462.28 Q852.758 1460.52 852.758 1458.83 Q852.758 1456.07 850.813 1454.34 Q848.892 1452.6 845.79 1452.6 Q843.591 1452.6 841.138 1453.37 Q838.707 1454.13 835.929 1455.68 L835.929 1450.96 Q838.753 1449.82 841.207 1449.25 Q843.661 1448.67 845.698 1448.67 Q851.068 1448.67 854.263 1451.35 Q857.457 1454.04 857.457 1458.53 Q857.457 1460.66 856.647 1462.58 Q855.86 1464.48 853.753 1467.07 Q853.175 1467.74 850.073 1470.96 Q846.971 1474.15 841.323 1479.92 Z" fill="#000000" fill-rule="evenodd" fill-opacity="1" /><path clip-path="url(#clip810)" d="M 0 0 M862.712 1477.97 L867.596 1477.97 L867.596 1483.85 L862.712 1483.85 L862.712 1477.97 Z" fill="#000000" fill-rule="evenodd" fill-opacity="1" /><path clip-path="url(#clip810)" d="M 0 0 M872.712 1449.29 L891.068 1449.29 L891.068 1453.23 L876.994 1453.23 L876.994 1461.7 Q878.012 1461.35 879.031 1461.19 Q880.049 1461 881.068 1461 Q886.855 1461 890.235 1464.18 Q893.614 1467.35 893.614 1472.76 Q893.614 1478.34 890.142 1481.44 Q886.67 1484.52 880.35 1484.52 Q878.174 1484.52 875.906 1484.15 Q873.661 1483.78 871.253 1483.04 L871.253 1478.34 Q873.337 1479.48 875.559 1480.03 Q877.781 1480.59 880.258 1480.59 Q884.262 1480.59 886.6 1478.48 Q888.938 1476.38 888.938 1472.76 Q888.938 1469.15 886.6 1467.05 Q884.262 1464.94 880.258 1464.94 Q878.383 1464.94 876.508 1465.36 Q874.656 1465.77 872.712 1466.65 L872.712 1449.29 Z" fill="#000000" fill-rule="evenodd" fill-opacity="1" /><path clip-path="url(#clip810)" d="M 0 0 M1311.58 1449.29 L1329.93 1449.29 L1329.93 1453.23 L1315.86 1453.23 L1315.86 1461.7 Q1316.88 1461.35 1317.9 1461.19 Q1318.92 1461 1319.93 1461 Q1325.72 1461 1329.1 1464.18 Q1332.48 1467.35 1332.48 1472.76 Q1332.48 1478.34 1329.01 1481.44 Q1325.54 1484.52 1319.22 1484.52 Q1317.04 1484.52 1314.77 1484.15 Q1312.53 1483.78 1310.12 1483.04 L1310.12 1478.34 Q1312.2 1479.48 1314.43 1480.03 Q1316.65 1480.59 1319.12 1480.59 Q1323.13 1480.59 1325.47 1478.48 Q1327.8 1476.38 1327.8 1472.76 Q1327.8 1469.15 1325.47 1467.05 Q1323.13 1464.94 1319.12 1464.94 Q1317.25 1464.94 1315.37 1465.36 Q1313.52 1465.77 1311.58 1466.65 L1311.58 1449.29 Z" fill="#000000" fill-rule="evenodd" fill-opacity="1" /><path clip-path="url(#clip810)" d="M 0 0 M1337.55 1477.97 L1342.43 1477.97 L1342.43 1483.85 L1337.55 1483.85 L1337.55 1477.97 Z" fill="#000000" fill-rule="evenodd" fill-opacity="1" /><path clip-path="url(#clip810)" d="M 0 0 M1357.5 1452.37 Q1353.89 1452.37 1352.06 1455.94 Q1350.26 1459.48 1350.26 1466.61 Q1350.26 1473.71 1352.06 1477.28 Q1353.89 1480.82 1357.5 1480.82 Q1361.14 1480.82 1362.94 1477.28 Q1364.77 1473.71 1364.77 1466.61 Q1364.77 1459.48 1362.94 1455.94 Q1361.14 1452.37 1357.5 1452.37 M1357.5 1448.67 Q1363.31 1448.67 1366.37 1453.27 Q1369.45 1457.86 1369.45 1466.61 Q1369.45 1475.33 1366.37 1479.94 Q1363.31 1484.52 1357.5 1484.52 Q1351.69 1484.52 1348.61 1479.94 Q1345.56 1475.33 1345.56 1466.61 Q1345.56 1457.86 1348.61 1453.27 Q1351.69 1448.67 1357.5 1448.67 Z" fill="#000000" fill-rule="evenodd" fill-opacity="1" /><path clip-path="url(#clip810)" d="M 0 0 M1785.81 1449.29 L1808.04 1449.29 L1808.04 1451.28 L1795.49 1483.85 L1790.61 1483.85 L1802.41 1453.23 L1785.81 1453.23 L1785.81 1449.29 Z" fill="#000000" fill-rule="evenodd" fill-opacity="1" /><path clip-path="url(#clip810)" d="M 0 0 M1813.11 1477.97 L1817.99 1477.97 L1817.99 1483.85 L1813.11 1483.85 L1813.11 1477.97 Z" fill="#000000" fill-rule="evenodd" fill-opacity="1" /><path clip-path="url(#clip810)" d="M 0 0 M1823.11 1449.29 L1841.46 1449.29 L1841.46 1453.23 L1827.39 1453.23 L1827.39 1461.7 Q1828.41 1461.35 1829.43 1461.19 Q1830.44 1461 1831.46 1461 Q1837.25 1461 1840.63 1464.18 Q1844.01 1467.35 1844.01 1472.76 Q1844.01 1478.34 1840.54 1481.44 Q1837.06 1484.52 1830.74 1484.52 Q1828.57 1484.52 1826.3 1484.15 Q1824.05 1483.78 1821.65 1483.04 L1821.65 1478.34 Q1823.73 1479.48 1825.95 1480.03 Q1828.18 1480.59 1830.65 1480.59 Q1834.66 1480.59 1836.99 1478.48 Q1839.33 1476.38 1839.33 1472.76 Q1839.33 1469.15 1836.99 1467.05 Q1834.66 1464.94 1830.65 1464.94 Q1828.78 1464.94 1826.9 1465.36 Q1825.05 1465.77 1823.11 1466.65 L1823.11 1449.29 Z" fill="#000000" fill-rule="evenodd" fill-opacity="1" /><path clip-path="url(#clip810)" d="M 0 0 M2248.43 1479.92 L2256.07 1479.92 L2256.07 1453.55 L2247.76 1455.22 L2247.76 1450.96 L2256.02 1449.29 L2260.7 1449.29 L2260.7 1479.92 L2268.34 1479.92 L2268.34 1483.85 L2248.43 1483.85 L2248.43 1479.92 Z" fill="#000000" fill-rule="evenodd" fill-opacity="1" /><path clip-path="url(#clip810)" d="M 0 0 M2283.41 1452.37 Q2279.8 1452.37 2277.97 1455.94 Q2276.16 1459.48 2276.16 1466.61 Q2276.16 1473.71 2277.97 1477.28 Q2279.8 1480.82 2283.41 1480.82 Q2287.04 1480.82 2288.85 1477.28 Q2290.68 1473.71 2290.68 1466.61 Q2290.68 1459.48 2288.85 1455.94 Q2287.04 1452.37 2283.41 1452.37 M2283.41 1448.67 Q2289.22 1448.67 2292.27 1453.27 Q2295.35 1457.86 2295.35 1466.61 Q2295.35 1475.33 2292.27 1479.94 Q2289.22 1484.52 2283.41 1484.52 Q2277.6 1484.52 2274.52 1479.94 Q2271.46 1475.33 2271.46 1466.61 Q2271.46 1457.86 2274.52 1453.27 Q2277.6 1448.67 2283.41 1448.67 Z" fill="#000000" fill-rule="evenodd" fill-opacity="1" /><path clip-path="url(#clip810)" d="M 0 0 M2300.42 1477.97 L2305.31 1477.97 L2305.31 1483.85 L2300.42 1483.85 L2300.42 1477.97 Z" fill="#000000" fill-rule="evenodd" fill-opacity="1" /><path clip-path="url(#clip810)" d="M 0 0 M2320.37 1452.37 Q2316.76 1452.37 2314.93 1455.94 Q2313.13 1459.48 2313.13 1466.61 Q2313.13 1473.71 2314.93 1477.28 Q2316.76 1480.82 2320.37 1480.82 Q2324.01 1480.82 2325.81 1477.28 Q2327.64 1473.71 2327.64 1466.61 Q2327.64 1459.48 2325.81 1455.94 Q2324.01 1452.37 2320.37 1452.37 M2320.37 1448.67 Q2326.18 1448.67 2329.24 1453.27 Q2332.32 1457.86 2332.32 1466.61 Q2332.32 1475.33 2329.24 1479.94 Q2326.18 1484.52 2320.37 1484.52 Q2314.56 1484.52 2311.49 1479.94 Q2308.43 1475.33 2308.43 1466.61 Q2308.43 1457.86 2311.49 1453.27 Q2314.56 1448.67 2320.37 1448.67 Z" fill="#000000" fill-rule="evenodd" fill-opacity="1" /><path clip-path="url(#clip810)" d="M 0 0 M868.243 1537.81 Q868.243 1531.44 865.601 1527.94 Q862.991 1524.44 858.248 1524.44 Q853.538 1524.44 850.896 1527.94 Q848.286 1531.44 848.286 1537.81 Q848.286 1544.14 850.896 1547.64 Q853.538 1551.14 858.248 1551.14 Q862.991 1551.14 865.601 1547.64 Q868.243 1544.14 868.243 1537.81 M874.099 1551.62 Q874.099 1560.72 870.057 1565.15 Q866.015 1569.6 857.675 1569.6 Q854.588 1569.6 851.851 1569.13 Q849.114 1568.68 846.535 1567.72 L846.535 1562.03 Q849.114 1563.43 851.628 1564.1 Q854.142 1564.76 856.752 1564.76 Q862.513 1564.76 865.378 1561.74 Q868.243 1558.75 868.243 1552.67 L868.243 1549.77 Q866.428 1552.92 863.596 1554.48 Q860.763 1556.04 856.816 1556.04 Q850.259 1556.04 846.249 1551.05 Q842.239 1546.05 842.239 1537.81 Q842.239 1529.53 846.249 1524.53 Q850.259 1519.54 856.816 1519.54 Q860.763 1519.54 863.596 1521.1 Q866.428 1522.66 868.243 1525.81 L868.243 1520.4 L874.099 1520.4 L874.099 1551.62 Z" fill="#000000" fill-rule="evenodd" fill-opacity="1" /><path clip-path="url(#clip810)" d="M 0 0 M900.899 1525.87 Q899.912 1525.3 898.734 1525.04 Q897.588 1524.76 896.188 1524.76 Q891.223 1524.76 888.549 1528 Q885.907 1531.22 885.907 1537.27 L885.907 1556.04 L880.019 1556.04 L880.019 1520.4 L885.907 1520.4 L885.907 1525.93 Q887.753 1522.69 890.713 1521.13 Q893.674 1519.54 897.907 1519.54 Q898.511 1519.54 899.244 1519.63 Q899.976 1519.7 900.867 1519.85 L900.899 1525.87 Z" fill="#000000" fill-rule="evenodd" fill-opacity="1" /><path clip-path="url(#clip810)" d="M 0 0 M923.242 1538.12 Q916.144 1538.12 913.407 1539.75 Q910.67 1541.37 910.67 1545.29 Q910.67 1548.4 912.707 1550.25 Q914.776 1552.07 918.309 1552.07 Q923.179 1552.07 926.107 1548.63 Q929.067 1545.16 929.067 1539.43 L929.067 1538.12 L923.242 1538.12 M934.923 1535.71 L934.923 1556.04 L929.067 1556.04 L929.067 1550.63 Q927.062 1553.88 924.07 1555.44 Q921.078 1556.97 916.749 1556.97 Q911.275 1556.97 908.028 1553.91 Q904.813 1550.82 904.813 1545.67 Q904.813 1539.65 908.824 1536.6 Q912.866 1533.54 920.855 1533.54 L929.067 1533.54 L929.067 1532.97 Q929.067 1528.93 926.393 1526.73 Q923.751 1524.5 918.945 1524.5 Q915.89 1524.5 912.993 1525.23 Q910.097 1525.97 907.423 1527.43 L907.423 1522.02 Q910.638 1520.78 913.662 1520.17 Q916.686 1519.54 919.55 1519.54 Q927.284 1519.54 931.104 1523.55 Q934.923 1527.56 934.923 1535.71 Z" fill="#000000" fill-rule="evenodd" fill-opacity="1" /><path clip-path="url(#clip810)" d="M 0 0 M964.524 1525.81 L964.524 1506.52 L970.38 1506.52 L970.38 1556.04 L964.524 1556.04 L964.524 1550.7 Q962.678 1553.88 959.845 1555.44 Q957.044 1556.97 953.097 1556.97 Q946.636 1556.97 942.562 1551.81 Q938.52 1546.65 938.52 1538.25 Q938.52 1529.85 942.562 1524.69 Q946.636 1519.54 953.097 1519.54 Q957.044 1519.54 959.845 1521.1 Q962.678 1522.62 964.524 1525.81 M944.567 1538.25 Q944.567 1544.71 947.209 1548.4 Q949.883 1552.07 954.53 1552.07 Q959.177 1552.07 961.85 1548.4 Q964.524 1544.71 964.524 1538.25 Q964.524 1531.79 961.85 1528.13 Q959.177 1524.44 954.53 1524.44 Q949.883 1524.44 947.209 1528.13 Q944.567 1531.79 944.567 1538.25 Z" fill="#000000" fill-rule="evenodd" fill-opacity="1" /><path clip-path="url(#clip810)" d="M 0 0 M976.523 1520.4 L982.38 1520.4 L982.38 1556.04 L976.523 1556.04 L976.523 1520.4 M976.523 1506.52 L982.38 1506.52 L982.38 1513.93 L976.523 1513.93 L976.523 1506.52 Z" fill="#000000" fill-rule="evenodd" fill-opacity="1" /><path clip-path="url(#clip810)" d="M 0 0 M1019.01 1536.76 L1019.01 1539.62 L992.087 1539.62 Q992.469 1545.67 995.716 1548.85 Q998.994 1552 1004.82 1552 Q1008.19 1552 1011.34 1551.17 Q1014.53 1550.35 1017.65 1548.69 L1017.65 1554.23 Q1014.49 1555.57 1011.18 1556.27 Q1007.87 1556.97 1004.47 1556.97 Q995.939 1556.97 990.942 1552 Q985.976 1547.04 985.976 1538.57 Q985.976 1529.82 990.687 1524.69 Q995.429 1519.54 1003.45 1519.54 Q1010.64 1519.54 1014.81 1524.18 Q1019.01 1528.8 1019.01 1536.76 M1013.16 1535.04 Q1013.09 1530.23 1010.45 1527.37 Q1007.84 1524.5 1003.51 1524.5 Q998.612 1524.5 995.652 1527.27 Q992.724 1530.04 992.278 1535.07 L1013.16 1535.04 Z" fill="#000000" fill-rule="evenodd" fill-opacity="1" /><path clip-path="url(#clip810)" d="M 0 0 M1054.79 1534.53 L1054.79 1556.04 L1048.93 1556.04 L1048.93 1534.72 Q1048.93 1529.66 1046.96 1527.14 Q1044.99 1524.63 1041.04 1524.63 Q1036.3 1524.63 1033.56 1527.65 Q1030.82 1530.68 1030.82 1535.9 L1030.82 1556.04 L1024.93 1556.04 L1024.93 1520.4 L1030.82 1520.4 L1030.82 1525.93 Q1032.92 1522.72 1035.76 1521.13 Q1038.62 1519.54 1042.34 1519.54 Q1048.49 1519.54 1051.64 1523.36 Q1054.79 1527.14 1054.79 1534.53 Z" fill="#000000" fill-rule="evenodd" fill-opacity="1" /><path clip-path="url(#clip810)" d="M 0 0 M1066.73 1510.27 L1066.73 1520.4 L1078.79 1520.4 L1078.79 1524.95 L1066.73 1524.95 L1066.73 1544.3 Q1066.73 1548.66 1067.9 1549.9 Q1069.11 1551.14 1072.77 1551.14 L1078.79 1551.14 L1078.79 1556.04 L1072.77 1556.04 Q1065.99 1556.04 1063.42 1553.53 Q1060.84 1550.98 1060.84 1544.3 L1060.84 1524.95 L1056.54 1524.95 L1056.54 1520.4 L1060.84 1520.4 L1060.84 1510.27 L1066.73 1510.27 Z" fill="#000000" fill-rule="evenodd" fill-opacity="1" /><path clip-path="url(#clip810)" d="M 0 0 M1128.44 1533.76 Q1130.51 1534.46 1132.45 1536.76 Q1134.42 1539.05 1136.4 1543.06 L1142.92 1556.04 L1136.02 1556.04 L1129.94 1543.85 Q1127.58 1539.08 1125.35 1537.52 Q1123.16 1535.96 1119.34 1535.96 L1112.34 1535.96 L1112.34 1556.04 L1105.91 1556.04 L1105.91 1508.52 L1120.42 1508.52 Q1128.57 1508.52 1132.58 1511.93 Q1136.59 1515.34 1136.59 1522.21 Q1136.59 1526.7 1134.49 1529.66 Q1132.42 1532.62 1128.44 1533.76 M1112.34 1513.81 L1112.34 1530.68 L1120.42 1530.68 Q1125.07 1530.68 1127.42 1528.54 Q1129.81 1526.38 1129.81 1522.21 Q1129.81 1518.04 1127.42 1515.94 Q1125.07 1513.81 1120.42 1513.81 L1112.34 1513.81 Z" fill="#000000" fill-rule="evenodd" fill-opacity="1" /><path clip-path="url(#clip810)" d="M 0 0 M1149.07 1520.4 L1154.92 1520.4 L1154.92 1556.04 L1149.07 1556.04 L1149.07 1520.4 M1149.07 1506.52 L1154.92 1506.52 L1154.92 1513.93 L1149.07 1513.93 L1149.07 1506.52 Z" fill="#000000" fill-rule="evenodd" fill-opacity="1" /><path clip-path="url(#clip810)" d="M 0 0 M1186.72 1521.76 L1186.72 1527.24 Q1184.24 1525.87 1181.72 1525.2 Q1179.24 1524.5 1176.69 1524.5 Q1171 1524.5 1167.84 1528.13 Q1164.69 1531.73 1164.69 1538.25 Q1164.69 1544.78 1167.84 1548.4 Q1171 1552 1176.69 1552 Q1179.24 1552 1181.72 1551.33 Q1184.24 1550.63 1186.72 1549.26 L1186.72 1554.68 Q1184.27 1555.82 1181.63 1556.39 Q1179.02 1556.97 1176.06 1556.97 Q1168 1556.97 1163.26 1551.91 Q1158.52 1546.85 1158.52 1538.25 Q1158.52 1529.53 1163.29 1524.53 Q1168.1 1519.54 1176.44 1519.54 Q1179.14 1519.54 1181.72 1520.11 Q1184.3 1520.65 1186.72 1521.76 Z" fill="#000000" fill-rule="evenodd" fill-opacity="1" /><path clip-path="url(#clip810)" d="M 0 0 M1222.49 1534.53 L1222.49 1556.04 L1216.64 1556.04 L1216.64 1534.72 Q1216.64 1529.66 1214.66 1527.14 Q1212.69 1524.63 1208.74 1524.63 Q1204 1524.63 1201.26 1527.65 Q1198.53 1530.68 1198.53 1535.9 L1198.53 1556.04 L1192.64 1556.04 L1192.64 1506.52 L1198.53 1506.52 L1198.53 1525.93 Q1200.63 1522.72 1203.46 1521.13 Q1206.33 1519.54 1210.05 1519.54 Q1216.19 1519.54 1219.34 1523.36 Q1222.49 1527.14 1222.49 1534.53 Z" fill="#000000" fill-rule="evenodd" fill-opacity="1" /><path clip-path="url(#clip810)" d="M 0 0 M1244.84 1538.12 Q1237.74 1538.12 1235 1539.75 Q1232.27 1541.37 1232.27 1545.29 Q1232.27 1548.4 1234.3 1550.25 Q1236.37 1552.07 1239.9 1552.07 Q1244.77 1552.07 1247.7 1548.63 Q1250.66 1545.16 1250.66 1539.43 L1250.66 1538.12 L1244.84 1538.12 M1256.52 1535.71 L1256.52 1556.04 L1250.66 1556.04 L1250.66 1550.63 Q1248.66 1553.88 1245.67 1555.44 Q1242.67 1556.97 1238.34 1556.97 Q1232.87 1556.97 1229.62 1553.91 Q1226.41 1550.82 1226.41 1545.67 Q1226.41 1539.65 1230.42 1536.6 Q1234.46 1533.54 1242.45 1533.54 L1250.66 1533.54 L1250.66 1532.97 Q1250.66 1528.93 1247.99 1526.73 Q1245.35 1524.5 1240.54 1524.5 Q1237.49 1524.5 1234.59 1525.23 Q1231.69 1525.97 1229.02 1527.43 L1229.02 1522.02 Q1232.23 1520.78 1235.26 1520.17 Q1238.28 1519.54 1241.15 1519.54 Q1248.88 1519.54 1252.7 1523.55 Q1256.52 1527.56 1256.52 1535.71 Z" fill="#000000" fill-rule="evenodd" fill-opacity="1" /><path clip-path="url(#clip810)" d="M 0 0 M1283.32 1525.87 Q1282.33 1525.3 1281.15 1525.04 Q1280.01 1524.76 1278.61 1524.76 Q1273.64 1524.76 1270.97 1528 Q1268.33 1531.22 1268.33 1537.27 L1268.33 1556.04 L1262.44 1556.04 L1262.44 1520.4 L1268.33 1520.4 L1268.33 1525.93 Q1270.17 1522.69 1273.13 1521.13 Q1276.09 1519.54 1280.33 1519.54 Q1280.93 1519.54 1281.66 1519.63 Q1282.4 1519.7 1283.29 1519.85 L1283.32 1525.87 Z" fill="#000000" fill-rule="evenodd" fill-opacity="1" /><path clip-path="url(#clip810)" d="M 0 0 M1311.77 1525.81 L1311.77 1506.52 L1317.63 1506.52 L1317.63 1556.04 L1311.77 1556.04 L1311.77 1550.7 Q1309.93 1553.88 1307.09 1555.44 Q1304.29 1556.97 1300.35 1556.97 Q1293.89 1556.97 1289.81 1551.81 Q1285.77 1546.65 1285.77 1538.25 Q1285.77 1529.85 1289.81 1524.69 Q1293.89 1519.54 1300.35 1519.54 Q1304.29 1519.54 1307.09 1521.1 Q1309.93 1522.62 1311.77 1525.81 M1291.82 1538.25 Q1291.82 1544.71 1294.46 1548.4 Q1297.13 1552.07 1301.78 1552.07 Q1306.43 1552.07 1309.1 1548.4 Q1311.77 1544.71 1311.77 1538.25 Q1311.77 1531.79 1309.1 1528.13 Q1306.43 1524.44 1301.78 1524.44 Q1297.13 1524.44 1294.46 1528.13 Q1291.82 1531.79 1291.82 1538.25 Z" fill="#000000" fill-rule="evenodd" fill-opacity="1" /><path clip-path="url(#clip810)" d="M 0 0 M1346.5 1521.45 L1346.5 1526.98 Q1344.02 1525.71 1341.34 1525.07 Q1338.67 1524.44 1335.8 1524.44 Q1331.44 1524.44 1329.25 1525.77 Q1327.08 1527.11 1327.08 1529.79 Q1327.08 1531.82 1328.64 1533 Q1330.2 1534.15 1334.91 1535.2 L1336.92 1535.64 Q1343.16 1536.98 1345.77 1539.43 Q1348.41 1541.85 1348.41 1546.21 Q1348.41 1551.17 1344.46 1554.07 Q1340.55 1556.97 1333.67 1556.97 Q1330.81 1556.97 1327.69 1556.39 Q1324.6 1555.85 1321.16 1554.74 L1321.16 1548.69 Q1324.41 1550.38 1327.56 1551.24 Q1330.71 1552.07 1333.8 1552.07 Q1337.94 1552.07 1340.16 1550.66 Q1342.39 1549.23 1342.39 1546.65 Q1342.39 1544.27 1340.77 1542.99 Q1339.18 1541.72 1333.73 1540.54 L1331.7 1540.07 Q1326.26 1538.92 1323.84 1536.56 Q1321.42 1534.18 1321.42 1530.04 Q1321.42 1525.01 1324.98 1522.27 Q1328.55 1519.54 1335.1 1519.54 Q1338.35 1519.54 1341.21 1520.01 Q1344.08 1520.49 1346.5 1521.45 Z" fill="#000000" fill-rule="evenodd" fill-opacity="1" /><path clip-path="url(#clip810)" d="M 0 0 M1368.36 1524.5 Q1363.65 1524.5 1360.92 1528.19 Q1358.18 1531.85 1358.18 1538.25 Q1358.18 1544.65 1360.88 1548.34 Q1363.62 1552 1368.36 1552 Q1373.04 1552 1375.78 1548.31 Q1378.52 1544.62 1378.52 1538.25 Q1378.52 1531.92 1375.78 1528.23 Q1373.04 1524.5 1368.36 1524.5 M1368.36 1519.54 Q1376 1519.54 1380.36 1524.5 Q1384.72 1529.47 1384.72 1538.25 Q1384.72 1547 1380.36 1552 Q1376 1556.97 1368.36 1556.97 Q1360.69 1556.97 1356.33 1552 Q1352 1547 1352 1538.25 Q1352 1529.47 1356.33 1524.5 Q1360.69 1519.54 1368.36 1519.54 Z" fill="#000000" fill-rule="evenodd" fill-opacity="1" /><path clip-path="url(#clip810)" d="M 0 0 M1420.5 1534.53 L1420.5 1556.04 L1414.64 1556.04 L1414.64 1534.72 Q1414.64 1529.66 1412.67 1527.14 Q1410.7 1524.63 1406.75 1524.63 Q1402.01 1524.63 1399.27 1527.65 Q1396.53 1530.68 1396.53 1535.9 L1396.53 1556.04 L1390.64 1556.04 L1390.64 1520.4 L1396.53 1520.4 L1396.53 1525.93 Q1398.63 1522.72 1401.47 1521.13 Q1404.33 1519.54 1408.05 1519.54 Q1414.2 1519.54 1417.35 1523.36 Q1420.5 1527.14 1420.5 1534.53 Z" fill="#000000" fill-rule="evenodd" fill-opacity="1" /><path clip-path="url(#clip810)" d="M 0 0 M1477 1534.53 L1477 1556.04 L1471.14 1556.04 L1471.14 1534.72 Q1471.14 1529.66 1469.17 1527.14 Q1467.19 1524.63 1463.25 1524.63 Q1458.5 1524.63 1455.77 1527.65 Q1453.03 1530.68 1453.03 1535.9 L1453.03 1556.04 L1447.14 1556.04 L1447.14 1520.4 L1453.03 1520.4 L1453.03 1525.93 Q1455.13 1522.72 1457.96 1521.13 Q1460.83 1519.54 1464.55 1519.54 Q1470.69 1519.54 1473.84 1523.36 Q1477 1527.14 1477 1534.53 Z" fill="#000000" fill-rule="evenodd" fill-opacity="1" /><path clip-path="url(#clip810)" d="M 0 0 M1482.53 1541.98 L1482.53 1520.4 L1488.39 1520.4 L1488.39 1541.75 Q1488.39 1546.81 1490.36 1549.36 Q1492.34 1551.87 1496.28 1551.87 Q1501.03 1551.87 1503.76 1548.85 Q1506.53 1545.83 1506.53 1540.61 L1506.53 1520.4 L1512.39 1520.4 L1512.39 1556.04 L1506.53 1556.04 L1506.53 1550.57 Q1504.4 1553.82 1501.57 1555.41 Q1498.77 1556.97 1495.04 1556.97 Q1488.9 1556.97 1485.72 1553.15 Q1482.53 1549.33 1482.53 1541.98 M1497.27 1519.54 L1497.27 1519.54 Z" fill="#000000" fill-rule="evenodd" fill-opacity="1" /><path clip-path="url(#clip810)" d="M 0 0 M1546.29 1527.24 Q1548.48 1523.29 1551.54 1521.41 Q1554.59 1519.54 1558.73 1519.54 Q1564.3 1519.54 1567.32 1523.45 Q1570.35 1527.33 1570.35 1534.53 L1570.35 1556.04 L1564.46 1556.04 L1564.46 1534.72 Q1564.46 1529.59 1562.65 1527.11 Q1560.83 1524.63 1557.11 1524.63 Q1552.56 1524.63 1549.91 1527.65 Q1547.27 1530.68 1547.27 1535.9 L1547.27 1556.04 L1541.38 1556.04 L1541.38 1534.72 Q1541.38 1529.56 1539.57 1527.11 Q1537.76 1524.63 1533.97 1524.63 Q1529.48 1524.63 1526.84 1527.68 Q1524.2 1530.71 1524.2 1535.9 L1524.2 1556.04 L1518.31 1556.04 L1518.31 1520.4 L1524.2 1520.4 L1524.2 1525.93 Q1526.2 1522.66 1529 1521.1 Q1531.8 1519.54 1535.66 1519.54 Q1539.54 1519.54 1542.24 1521.51 Q1544.98 1523.48 1546.29 1527.24 Z" fill="#000000" fill-rule="evenodd" fill-opacity="1" /><path clip-path="url(#clip810)" d="M 0 0 M1602.08 1538.25 Q1602.08 1531.79 1599.41 1528.13 Q1596.77 1524.44 1592.12 1524.44 Q1587.47 1524.44 1584.8 1528.13 Q1582.16 1531.79 1582.16 1538.25 Q1582.16 1544.71 1584.8 1548.4 Q1587.47 1552.07 1592.12 1552.07 Q1596.77 1552.07 1599.41 1548.4 Q1602.08 1544.71 1602.08 1538.25 M1582.16 1525.81 Q1584 1522.62 1586.8 1521.1 Q1589.64 1519.54 1593.55 1519.54 Q1600.04 1519.54 1604.09 1524.69 Q1608.16 1529.85 1608.16 1538.25 Q1608.16 1546.65 1604.09 1551.81 Q1600.04 1556.97 1593.55 1556.97 Q1589.64 1556.97 1586.8 1555.44 Q1584 1553.88 1582.16 1550.7 L1582.16 1556.04 L1576.27 1556.04 L1576.27 1506.52 L1582.16 1506.52 L1582.16 1525.81 Z" fill="#000000" fill-rule="evenodd" fill-opacity="1" /><path clip-path="url(#clip810)" d="M 0 0 M1644.8 1536.76 L1644.8 1539.62 L1617.87 1539.62 Q1618.25 1545.67 1621.5 1548.85 Q1624.77 1552 1630.6 1552 Q1633.97 1552 1637.12 1551.17 Q1640.31 1550.35 1643.43 1548.69 L1643.43 1554.23 Q1640.28 1555.57 1636.97 1556.27 Q1633.66 1556.97 1630.25 1556.97 Q1621.72 1556.97 1616.72 1552 Q1611.76 1547.04 1611.76 1538.57 Q1611.76 1529.82 1616.47 1524.69 Q1621.21 1519.54 1629.23 1519.54 Q1636.42 1519.54 1640.59 1524.18 Q1644.8 1528.8 1644.8 1536.76 M1638.94 1535.04 Q1638.87 1530.23 1636.23 1527.37 Q1633.62 1524.5 1629.29 1524.5 Q1624.39 1524.5 1621.43 1527.27 Q1618.5 1530.04 1618.06 1535.07 L1638.94 1535.04 Z" fill="#000000" fill-rule="evenodd" fill-opacity="1" /><path clip-path="url(#clip810)" d="M 0 0 M1671.59 1525.87 Q1670.61 1525.3 1669.43 1525.04 Q1668.28 1524.76 1666.88 1524.76 Q1661.92 1524.76 1659.25 1528 Q1656.6 1531.22 1656.6 1537.27 L1656.6 1556.04 L1650.72 1556.04 L1650.72 1520.4 L1656.6 1520.4 L1656.6 1525.93 Q1658.45 1522.69 1661.41 1521.13 Q1664.37 1519.54 1668.6 1519.54 Q1669.21 1519.54 1669.94 1519.63 Q1670.67 1519.7 1671.56 1519.85 L1671.59 1525.87 Z" fill="#000000" fill-rule="evenodd" fill-opacity="1" /><polyline clip-path="url(#clip812)" style="stroke:#000000; stroke-width:2; stroke-opacity:0.1; fill:none" points="
  136.76,1416.65 2352.76,1416.65 
  "/>
<polyline clip-path="url(#clip812)" style="stroke:#000000; stroke-width:2; stroke-opacity:0.1; fill:none" points="
  136.76,1007.81 2352.76,1007.81 
  "/>
<polyline clip-path="url(#clip812)" style="stroke:#000000; stroke-width:2; stroke-opacity:0.1; fill:none" points="
  136.76,598.979 2352.76,598.979 
  "/>
<polyline clip-path="url(#clip812)" style="stroke:#000000; stroke-width:2; stroke-opacity:0.1; fill:none" points="
  136.76,190.144 2352.76,190.144 
  "/>
<polyline clip-path="url(#clip810)" style="stroke:#000000; stroke-width:4; stroke-opacity:1; fill:none" points="
  136.76,1423.18 136.76,123.472 
  "/>
<polyline clip-path="url(#clip810)" style="stroke:#000000; stroke-width:4; stroke-opacity:1; fill:none" points="
  136.76,1416.65 163.352,1416.65 
  "/>
<polyline clip-path="url(#clip810)" style="stroke:#000000; stroke-width:4; stroke-opacity:1; fill:none" points="
  136.76,1007.81 163.352,1007.81 
  "/>
<polyline clip-path="url(#clip810)" style="stroke:#000000; stroke-width:4; stroke-opacity:1; fill:none" points="
  136.76,598.979 163.352,598.979 
  "/>
<polyline clip-path="url(#clip810)" style="stroke:#000000; stroke-width:4; stroke-opacity:1; fill:none" points="
  136.76,190.144 163.352,190.144 
  "/>
<path clip-path="url(#clip810)" d="M 0 0 M88.816 1402.45 Q85.2049 1402.45 83.3762 1406.01 Q81.5707 1409.55 81.5707 1416.68 Q81.5707 1423.79 83.3762 1427.36 Q85.2049 1430.9 88.816 1430.9 Q92.4502 1430.9 94.2558 1427.36 Q96.0845 1423.79 96.0845 1416.68 Q96.0845 1409.55 94.2558 1406.01 Q92.4502 1402.45 88.816 1402.45 M88.816 1398.74 Q94.6262 1398.74 97.6817 1403.35 Q100.76 1407.93 100.76 1416.68 Q100.76 1425.41 97.6817 1430.02 Q94.6262 1434.6 88.816 1434.6 Q83.0058 1434.6 79.9272 1430.02 Q76.8716 1425.41 76.8716 1416.68 Q76.8716 1407.93 79.9272 1403.35 Q83.0058 1398.74 88.816 1398.74 Z" fill="#000000" fill-rule="evenodd" fill-opacity="1" /><path clip-path="url(#clip810)" d="M 0 0 M53.8393 1021.16 L61.4782 1021.16 L61.4782 994.793 L53.168 996.46 L53.168 992.201 L61.4319 990.534 L66.1078 990.534 L66.1078 1021.16 L73.7466 1021.16 L73.7466 1025.09 L53.8393 1025.09 L53.8393 1021.16 Z" fill="#000000" fill-rule="evenodd" fill-opacity="1" /><path clip-path="url(#clip810)" d="M 0 0 M88.816 993.613 Q85.2049 993.613 83.3762 997.178 Q81.5707 1000.72 81.5707 1007.85 Q81.5707 1014.96 83.3762 1018.52 Q85.2049 1022.06 88.816 1022.06 Q92.4502 1022.06 94.2558 1018.52 Q96.0845 1014.96 96.0845 1007.85 Q96.0845 1000.72 94.2558 997.178 Q92.4502 993.613 88.816 993.613 M88.816 989.909 Q94.6262 989.909 97.6817 994.516 Q100.76 999.099 100.76 1007.85 Q100.76 1016.58 97.6817 1021.18 Q94.6262 1025.77 88.816 1025.77 Q83.0058 1025.77 79.9272 1021.18 Q76.8716 1016.58 76.8716 1007.85 Q76.8716 999.099 79.9272 994.516 Q83.0058 989.909 88.816 989.909 Z" fill="#000000" fill-rule="evenodd" fill-opacity="1" /><path clip-path="url(#clip810)" d="M 0 0 M57.4273 612.324 L73.7466 612.324 L73.7466 616.259 L51.8023 616.259 L51.8023 612.324 Q54.4643 609.569 59.0476 604.94 Q63.6541 600.287 64.8346 598.944 Q67.08 596.421 67.9596 594.685 Q68.8624 592.926 68.8624 591.236 Q68.8624 588.481 66.918 586.745 Q64.9967 585.009 61.8948 585.009 Q59.6958 585.009 57.2421 585.773 Q54.8115 586.537 52.0338 588.088 L52.0338 583.366 Q54.8578 582.231 57.3115 581.653 Q59.7652 581.074 61.8023 581.074 Q67.1726 581.074 70.367 583.759 Q73.5614 586.444 73.5614 590.935 Q73.5614 593.065 72.7513 594.986 Q71.9642 596.884 69.8578 599.477 Q69.2791 600.148 66.1772 603.366 Q63.0754 606.56 57.4273 612.324 Z" fill="#000000" fill-rule="evenodd" fill-opacity="1" /><path clip-path="url(#clip810)" d="M 0 0 M88.816 584.778 Q85.2049 584.778 83.3762 588.342 Q81.5707 591.884 81.5707 599.014 Q81.5707 606.12 83.3762 609.685 Q85.2049 613.227 88.816 613.227 Q92.4502 613.227 94.2558 609.685 Q96.0845 606.12 96.0845 599.014 Q96.0845 591.884 94.2558 588.342 Q92.4502 584.778 88.816 584.778 M88.816 581.074 Q94.6262 581.074 97.6817 585.68 Q100.76 590.264 100.76 599.014 Q100.76 607.741 97.6817 612.347 Q94.6262 616.93 88.816 616.93 Q83.0058 616.93 79.9272 612.347 Q76.8716 607.741 76.8716 599.014 Q76.8716 590.264 79.9272 585.68 Q83.0058 581.074 88.816 581.074 Z" fill="#000000" fill-rule="evenodd" fill-opacity="1" /><path clip-path="url(#clip810)" d="M 0 0 M66.617 188.79 Q69.9735 189.507 71.8485 191.776 Q73.7466 194.044 73.7466 197.378 Q73.7466 202.493 70.2281 205.294 Q66.7096 208.095 60.2282 208.095 Q58.0523 208.095 55.7375 207.655 Q53.4458 207.239 50.9921 206.382 L50.9921 201.868 Q52.9366 203.003 55.2514 203.581 Q57.5662 204.16 60.0893 204.16 Q64.4874 204.16 66.7791 202.424 Q69.0939 200.688 69.0939 197.378 Q69.0939 194.322 66.9411 192.609 Q64.8115 190.873 60.9921 190.873 L56.9643 190.873 L56.9643 187.03 L61.1773 187.03 Q64.6263 187.03 66.455 185.665 Q68.2837 184.276 68.2837 181.683 Q68.2837 179.021 66.3856 177.609 Q64.5106 176.174 60.9921 176.174 Q59.0708 176.174 56.8717 176.591 Q54.6727 177.007 52.0338 177.887 L52.0338 173.72 Q54.6958 172.98 57.0106 172.609 Q59.3486 172.239 61.4087 172.239 Q66.7328 172.239 69.8346 174.669 Q72.9365 177.077 72.9365 181.197 Q72.9365 184.067 71.2929 186.058 Q69.6494 188.026 66.617 188.79 Z" fill="#000000" fill-rule="evenodd" fill-opacity="1" /><path clip-path="url(#clip810)" d="M 0 0 M88.816 175.942 Q85.2049 175.942 83.3762 179.507 Q81.5707 183.049 81.5707 190.179 Q81.5707 197.285 83.3762 200.85 Q85.2049 204.391 88.816 204.391 Q92.4502 204.391 94.2558 200.85 Q96.0845 197.285 96.0845 190.179 Q96.0845 183.049 94.2558 179.507 Q92.4502 175.942 88.816 175.942 M88.816 172.239 Q94.6262 172.239 97.6817 176.845 Q100.76 181.429 100.76 190.179 Q100.76 198.905 97.6817 203.512 Q94.6262 208.095 88.816 208.095 Q83.0058 208.095 79.9272 203.512 Q76.8716 198.905 76.8716 190.179 Q76.8716 181.429 79.9272 176.845 Q83.0058 172.239 88.816 172.239 Z" fill="#000000" fill-rule="evenodd" fill-opacity="1" /><path clip-path="url(#clip810)" d="M 0 0 M808.192 14.324 L808.192 27.2059 L823.545 27.2059 L823.545 32.9987 L808.192 32.9987 L808.192 57.6282 Q808.192 63.1779 809.691 64.7578 Q811.23 66.3376 815.889 66.3376 L823.545 66.3376 L823.545 72.576 L815.889 72.576 Q807.26 72.576 803.979 69.3758 Q800.698 66.1351 800.698 57.6282 L800.698 32.9987 L795.229 32.9987 L795.229 27.2059 L800.698 27.2059 L800.698 14.324 L808.192 14.324 Z" fill="#000000" fill-rule="evenodd" fill-opacity="1" /><path clip-path="url(#clip810)" d="M 0 0 M830.594 54.671 L830.594 27.2059 L838.047 27.2059 L838.047 54.3874 Q838.047 60.8284 840.559 64.0691 Q843.07 67.2693 848.094 67.2693 Q854.129 67.2693 857.613 63.421 Q861.138 59.5726 861.138 52.9291 L861.138 27.2059 L868.591 27.2059 L868.591 72.576 L861.138 72.576 L861.138 65.6084 Q858.423 69.7404 854.818 71.7658 Q851.253 73.7508 846.514 73.7508 Q838.696 73.7508 834.645 68.8897 Q830.594 64.0286 830.594 54.671 M849.349 26.1121 L849.349 26.1121 Z" fill="#000000" fill-rule="evenodd" fill-opacity="1" /><path clip-path="url(#clip810)" d="M 0 0 M902.7 34.1734 Q901.444 33.4443 899.945 33.1202 Q898.487 32.7556 896.704 32.7556 Q890.385 32.7556 886.982 36.8875 Q883.62 40.9789 883.62 48.6757 L883.62 72.576 L876.126 72.576 L876.126 27.2059 L883.62 27.2059 L883.62 34.2544 Q885.97 30.1225 889.737 28.1376 Q893.504 26.1121 898.892 26.1121 Q899.662 26.1121 900.593 26.2337 Q901.525 26.3147 902.659 26.5172 L902.7 34.1734 Z" fill="#000000" fill-rule="evenodd" fill-opacity="1" /><path clip-path="url(#clip810)" d="M 0 0 M943.087 49.9314 Q943.087 41.7081 939.685 37.0496 Q936.322 32.3505 930.408 32.3505 Q924.494 32.3505 921.091 37.0496 Q917.729 41.7081 917.729 49.9314 Q917.729 58.1548 921.091 62.8538 Q924.494 67.5124 930.408 67.5124 Q936.322 67.5124 939.685 62.8538 Q943.087 58.1548 943.087 49.9314 M917.729 34.0924 Q920.078 30.0415 923.643 28.0971 Q927.248 26.1121 932.231 26.1121 Q940.495 26.1121 945.639 32.6746 Q950.825 39.2371 950.825 49.9314 Q950.825 60.6258 945.639 67.1883 Q940.495 73.7508 932.231 73.7508 Q927.248 73.7508 923.643 71.8063 Q920.078 69.8214 917.729 65.7705 L917.729 72.576 L910.234 72.576 L910.234 9.54393 L917.729 9.54393 L917.729 34.0924 Z" fill="#000000" fill-rule="evenodd" fill-opacity="1" /><path clip-path="url(#clip810)" d="M 0 0 M957.873 54.671 L957.873 27.2059 L965.327 27.2059 L965.327 54.3874 Q965.327 60.8284 967.838 64.0691 Q970.35 67.2693 975.373 67.2693 Q981.409 67.2693 984.893 63.421 Q988.417 59.5726 988.417 52.9291 L988.417 27.2059 L995.871 27.2059 L995.871 72.576 L988.417 72.576 L988.417 65.6084 Q985.703 69.7404 982.098 71.7658 Q978.533 73.7508 973.793 73.7508 Q965.975 73.7508 961.924 68.8897 Q957.873 64.0286 957.873 54.671 M976.629 26.1121 L976.629 26.1121 Z" fill="#000000" fill-rule="evenodd" fill-opacity="1" /><path clip-path="url(#clip810)" d="M 0 0 M1003.69 9.54393 L1011.14 9.54393 L1011.14 72.576 L1003.69 72.576 L1003.69 9.54393 Z" fill="#000000" fill-rule="evenodd" fill-opacity="1" /><path clip-path="url(#clip810)" d="M 0 0 M1057.77 48.0275 L1057.77 51.6733 L1023.5 51.6733 Q1023.98 59.3701 1028.12 63.421 Q1032.29 67.4314 1039.7 67.4314 Q1044 67.4314 1048.01 66.3781 Q1052.06 65.3249 1056.03 63.2184 L1056.03 70.267 Q1052.02 71.9684 1047.8 72.8596 Q1043.59 73.7508 1039.26 73.7508 Q1028.4 73.7508 1022.04 67.4314 Q1015.72 61.1119 1015.72 50.3365 Q1015.72 39.1965 1021.72 32.6746 Q1027.75 26.1121 1037.96 26.1121 Q1047.11 26.1121 1052.42 32.0264 Q1057.77 37.9003 1057.77 48.0275 M1050.31 45.84 Q1050.23 39.7232 1046.87 36.0774 Q1043.55 32.4315 1038.04 32.4315 Q1031.8 32.4315 1028.03 35.9558 Q1024.31 39.4801 1023.74 45.8805 L1050.31 45.84 Z" fill="#000000" fill-rule="evenodd" fill-opacity="1" /><path clip-path="url(#clip810)" d="M 0 0 M1103.3 45.1919 L1103.3 72.576 L1095.85 72.576 L1095.85 45.4349 Q1095.85 38.994 1093.34 35.7938 Q1090.82 32.5936 1085.8 32.5936 Q1079.76 32.5936 1076.28 36.4419 Q1072.8 40.2903 1072.8 46.9338 L1072.8 72.576 L1065.3 72.576 L1065.3 27.2059 L1072.8 27.2059 L1072.8 34.2544 Q1075.47 30.163 1079.08 28.1376 Q1082.72 26.1121 1087.46 26.1121 Q1095.28 26.1121 1099.29 30.9732 Q1103.3 35.7938 1103.3 45.1919 Z" fill="#000000" fill-rule="evenodd" fill-opacity="1" /><path clip-path="url(#clip810)" d="M 0 0 M1118.49 14.324 L1118.49 27.2059 L1133.84 27.2059 L1133.84 32.9987 L1118.49 32.9987 L1118.49 57.6282 Q1118.49 63.1779 1119.99 64.7578 Q1121.53 66.3376 1126.19 66.3376 L1133.84 66.3376 L1133.84 72.576 L1126.19 72.576 Q1117.56 72.576 1114.28 69.3758 Q1111 66.1351 1111 57.6282 L1111 32.9987 L1105.53 32.9987 L1105.53 27.2059 L1111 27.2059 L1111 14.324 L1118.49 14.324 Z" fill="#000000" fill-rule="evenodd" fill-opacity="1" /><path clip-path="url(#clip810)" d="M 0 0 M1176.54 18.8205 L1176.54 41.5461 L1186.83 41.5461 Q1192.54 41.5461 1195.66 38.5889 Q1198.78 35.6318 1198.78 30.163 Q1198.78 24.7348 1195.66 21.7777 Q1192.54 18.8205 1186.83 18.8205 L1176.54 18.8205 M1168.36 12.096 L1186.83 12.096 Q1197 12.096 1202.18 16.714 Q1207.41 21.2916 1207.41 30.163 Q1207.41 39.1155 1202.18 43.6931 Q1197 48.2706 1186.83 48.2706 L1176.54 48.2706 L1176.54 72.576 L1168.36 72.576 L1168.36 12.096 Z" fill="#000000" fill-rule="evenodd" fill-opacity="1" /><path clip-path="url(#clip810)" d="M 0 0 M1240.06 34.1734 Q1238.8 33.4443 1237.3 33.1202 Q1235.85 32.7556 1234.06 32.7556 Q1227.74 32.7556 1224.34 36.8875 Q1220.98 40.9789 1220.98 48.6757 L1220.98 72.576 L1213.49 72.576 L1213.49 27.2059 L1220.98 27.2059 L1220.98 34.2544 Q1223.33 30.1225 1227.1 28.1376 Q1230.86 26.1121 1236.25 26.1121 Q1237.02 26.1121 1237.95 26.2337 Q1238.88 26.3147 1240.02 26.5172 L1240.06 34.1734 Z" fill="#000000" fill-rule="evenodd" fill-opacity="1" /><path clip-path="url(#clip810)" d="M 0 0 M1268.5 49.7694 Q1259.46 49.7694 1255.98 51.8354 Q1252.5 53.9013 1252.5 58.8839 Q1252.5 62.8538 1255.09 65.2034 Q1257.72 67.5124 1262.22 67.5124 Q1268.42 67.5124 1272.14 63.1374 Q1275.91 58.7219 1275.91 51.4303 L1275.91 49.7694 L1268.5 49.7694 M1283.36 46.6907 L1283.36 72.576 L1275.91 72.576 L1275.91 65.6895 Q1273.36 69.8214 1269.55 71.8063 Q1265.74 73.7508 1260.23 73.7508 Q1253.27 73.7508 1249.13 69.8619 Q1245.04 65.9325 1245.04 59.3701 Q1245.04 51.7138 1250.15 47.825 Q1255.29 43.9361 1265.46 43.9361 L1275.91 43.9361 L1275.91 43.2069 Q1275.91 38.0623 1272.51 35.2672 Q1269.14 32.4315 1263.03 32.4315 Q1259.14 32.4315 1255.45 33.3632 Q1251.77 34.295 1248.36 36.1584 L1248.36 29.2718 Q1252.45 27.692 1256.3 26.9223 Q1260.15 26.1121 1263.8 26.1121 Q1273.64 26.1121 1278.5 31.2163 Q1283.36 36.3204 1283.36 46.6907 Z" fill="#000000" fill-rule="evenodd" fill-opacity="1" /><path clip-path="url(#clip810)" d="M 0 0 M1328.9 45.1919 L1328.9 72.576 L1321.44 72.576 L1321.44 45.4349 Q1321.44 38.994 1318.93 35.7938 Q1316.42 32.5936 1311.4 32.5936 Q1305.36 32.5936 1301.88 36.4419 Q1298.39 40.2903 1298.39 46.9338 L1298.39 72.576 L1290.9 72.576 L1290.9 27.2059 L1298.39 27.2059 L1298.39 34.2544 Q1301.07 30.163 1304.67 28.1376 Q1308.32 26.1121 1313.06 26.1121 Q1320.87 26.1121 1324.89 30.9732 Q1328.9 35.7938 1328.9 45.1919 Z" fill="#000000" fill-rule="evenodd" fill-opacity="1" /><path clip-path="url(#clip810)" d="M 0 0 M1344.09 14.324 L1344.09 27.2059 L1359.44 27.2059 L1359.44 32.9987 L1344.09 32.9987 L1344.09 57.6282 Q1344.09 63.1779 1345.59 64.7578 Q1347.12 66.3376 1351.78 66.3376 L1359.44 66.3376 L1359.44 72.576 L1351.78 72.576 Q1343.15 72.576 1339.87 69.3758 Q1336.59 66.1351 1336.59 57.6282 L1336.59 32.9987 L1331.12 32.9987 L1331.12 27.2059 L1336.59 27.2059 L1336.59 14.324 L1344.09 14.324 Z" fill="#000000" fill-rule="evenodd" fill-opacity="1" /><path clip-path="url(#clip810)" d="M 0 0 M1367.26 9.54393 L1374.71 9.54393 L1374.71 72.576 L1367.26 72.576 L1367.26 9.54393 Z" fill="#000000" fill-rule="evenodd" fill-opacity="1" /><path clip-path="url(#clip810)" d="M 0 0 M1446.61 45.1919 L1446.61 72.576 L1439.16 72.576 L1439.16 45.4349 Q1439.16 38.994 1436.65 35.7938 Q1434.14 32.5936 1429.11 32.5936 Q1423.08 32.5936 1419.6 36.4419 Q1416.11 40.2903 1416.11 46.9338 L1416.11 72.576 L1408.62 72.576 L1408.62 27.2059 L1416.11 27.2059 L1416.11 34.2544 Q1418.78 30.163 1422.39 28.1376 Q1426.04 26.1121 1430.78 26.1121 Q1438.59 26.1121 1442.6 30.9732 Q1446.61 35.7938 1446.61 45.1919 Z" fill="#000000" fill-rule="evenodd" fill-opacity="1" /><path clip-path="url(#clip810)" d="M 0 0 M1453.66 54.671 L1453.66 27.2059 L1461.12 27.2059 L1461.12 54.3874 Q1461.12 60.8284 1463.63 64.0691 Q1466.14 67.2693 1471.16 67.2693 Q1477.2 67.2693 1480.68 63.421 Q1484.21 59.5726 1484.21 52.9291 L1484.21 27.2059 L1491.66 27.2059 L1491.66 72.576 L1484.21 72.576 L1484.21 65.6084 Q1481.49 69.7404 1477.89 71.7658 Q1474.32 73.7508 1469.58 73.7508 Q1461.77 73.7508 1457.71 68.8897 Q1453.66 64.0286 1453.66 54.671 M1472.42 26.1121 L1472.42 26.1121 Z" fill="#000000" fill-rule="evenodd" fill-opacity="1" /><path clip-path="url(#clip810)" d="M 0 0 M1534.8 35.9153 Q1537.6 30.8922 1541.49 28.5022 Q1545.38 26.1121 1550.64 26.1121 Q1557.73 26.1121 1561.58 31.0947 Q1565.43 36.0368 1565.43 45.1919 L1565.43 72.576 L1557.93 72.576 L1557.93 45.4349 Q1557.93 38.913 1555.62 35.7533 Q1553.32 32.5936 1548.58 32.5936 Q1542.78 32.5936 1539.42 36.4419 Q1536.06 40.2903 1536.06 46.9338 L1536.06 72.576 L1528.56 72.576 L1528.56 45.4349 Q1528.56 38.8725 1526.26 35.7533 Q1523.95 32.5936 1519.13 32.5936 Q1513.41 32.5936 1510.05 36.4824 Q1506.69 40.3308 1506.69 46.9338 L1506.69 72.576 L1499.2 72.576 L1499.2 27.2059 L1506.69 27.2059 L1506.69 34.2544 Q1509.24 30.082 1512.81 28.0971 Q1516.37 26.1121 1521.27 26.1121 Q1526.21 26.1121 1529.66 28.6237 Q1533.14 31.1352 1534.8 35.9153 Z" fill="#000000" fill-rule="evenodd" fill-opacity="1" /><path clip-path="url(#clip810)" d="M 0 0 M1605.82 49.9314 Q1605.82 41.7081 1602.41 37.0496 Q1599.05 32.3505 1593.14 32.3505 Q1587.22 32.3505 1583.82 37.0496 Q1580.46 41.7081 1580.46 49.9314 Q1580.46 58.1548 1583.82 62.8538 Q1587.22 67.5124 1593.14 67.5124 Q1599.05 67.5124 1602.41 62.8538 Q1605.82 58.1548 1605.82 49.9314 M1580.46 34.0924 Q1582.81 30.0415 1586.37 28.0971 Q1589.98 26.1121 1594.96 26.1121 Q1603.22 26.1121 1608.37 32.6746 Q1613.55 39.2371 1613.55 49.9314 Q1613.55 60.6258 1608.37 67.1883 Q1603.22 73.7508 1594.96 73.7508 Q1589.98 73.7508 1586.37 71.8063 Q1582.81 69.8214 1580.46 65.7705 L1580.46 72.576 L1572.96 72.576 L1572.96 9.54393 L1580.46 9.54393 L1580.46 34.0924 Z" fill="#000000" fill-rule="evenodd" fill-opacity="1" /><path clip-path="url(#clip810)" d="M 0 0 M1660.18 48.0275 L1660.18 51.6733 L1625.91 51.6733 Q1626.39 59.3701 1630.53 63.421 Q1634.7 67.4314 1642.11 67.4314 Q1646.41 67.4314 1650.42 66.3781 Q1654.47 65.3249 1658.44 63.2184 L1658.44 70.267 Q1654.43 71.9684 1650.21 72.8596 Q1646 73.7508 1641.67 73.7508 Q1630.81 73.7508 1624.45 67.4314 Q1618.13 61.1119 1618.13 50.3365 Q1618.13 39.1965 1624.13 32.6746 Q1630.16 26.1121 1640.37 26.1121 Q1649.52 26.1121 1654.83 32.0264 Q1660.18 37.9003 1660.18 48.0275 M1652.72 45.84 Q1652.64 39.7232 1649.28 36.0774 Q1645.96 32.4315 1640.45 32.4315 Q1634.21 32.4315 1630.44 35.9558 Q1626.72 39.4801 1626.15 45.8805 L1652.72 45.84 Z" fill="#000000" fill-rule="evenodd" fill-opacity="1" /><path clip-path="url(#clip810)" d="M 0 0 M1694.29 34.1734 Q1693.03 33.4443 1691.53 33.1202 Q1690.07 32.7556 1688.29 32.7556 Q1681.97 32.7556 1678.57 36.8875 Q1675.21 40.9789 1675.21 48.6757 L1675.21 72.576 L1667.71 72.576 L1667.71 27.2059 L1675.21 27.2059 L1675.21 34.2544 Q1677.56 30.1225 1681.32 28.1376 Q1685.09 26.1121 1690.48 26.1121 Q1691.25 26.1121 1692.18 26.2337 Q1693.11 26.3147 1694.25 26.5172 L1694.29 34.1734 Z" fill="#000000" fill-rule="evenodd" fill-opacity="1" /><polyline clip-path="url(#clip812)" style="stroke:#009af9; stroke-width:4; stroke-opacity:1; fill:none" points="
  199.477,1386.4 220.594,1386.4 241.711,1386.4 262.828,1386.4 283.944,1386.4 305.061,1386.4 326.178,1386.4 347.295,1386.4 368.412,1386.4 389.528,1386.4 
  410.645,1375.14 431.762,1362.76 452.879,1349.85 473.995,1336.66 495.112,1323.32 516.229,1309.88 537.346,1296.38 558.463,1282.84 579.579,1269.26 600.696,1255.67 
  621.813,1242.05 642.93,1228.42 664.047,1214.78 685.163,1201.14 706.28,1187.48 727.397,1173.82 748.514,1160.16 769.63,1146.49 790.747,1132.81 811.864,1119.14 
  832.981,1105.46 854.098,1091.78 875.214,1078.1 896.331,1064.41 917.448,1050.73 938.565,1037.04 959.682,1023.35 980.798,1009.66 1001.92,995.97 1023.03,982.278 
  1044.15,968.586 1065.27,954.893 1086.38,941.199 1107.5,927.504 1128.62,913.809 1149.73,900.114 1170.85,886.418 1191.97,872.721 1213.08,859.025 1234.2,845.327 
  1255.32,831.63 1276.43,817.932 1297.55,804.234 1318.67,790.535 1339.78,776.836 1360.9,763.137 1382.02,749.438 1403.13,735.738 1424.25,722.039 1445.37,708.339 
  1466.48,694.639 1487.6,680.939 1508.72,667.238 1529.83,653.538 1550.95,639.837 1572.07,626.136 1593.19,612.435 1614.3,598.734 1635.42,585.033 1656.54,571.331 
  1677.65,557.63 1698.77,543.928 1719.89,530.227 1741,516.525 1762.12,502.823 1783.24,489.121 1804.35,475.419 1825.47,461.717 1846.59,448.015 1867.7,434.312 
  1888.82,420.61 1909.94,406.908 1931.05,393.205 1952.17,379.503 1973.29,365.8 1994.4,352.098 2015.52,338.395 2036.64,324.692 2057.75,310.99 2078.87,297.287 
  2099.99,283.584 2121.1,269.881 2142.22,256.178 2163.34,242.475 2184.46,228.772 2205.57,215.069 2226.69,201.366 2247.81,187.663 2268.92,173.96 2290.04,160.256 
  
  "/>
<path clip-path="url(#clip810)" d="
M1981.65 287.756 L2278.89 287.756 L2278.89 166.796 L1981.65 166.796  Z
  " fill="#ffffff" fill-rule="evenodd" fill-opacity="1"/>
<polyline clip-path="url(#clip810)" style="stroke:#000000; stroke-width:4; stroke-opacity:1; fill:none" points="
  1981.65,287.756 2278.89,287.756 2278.89,166.796 1981.65,166.796 1981.65,287.756 
  "/>
<polyline clip-path="url(#clip810)" style="stroke:#009af9; stroke-width:4; stroke-opacity:1; fill:none" points="
  2006.27,227.276 2154,227.276 
  "/>
<path clip-path="url(#clip810)" d="M 0 0 M2192.47 246.963 Q2190.66 251.593 2188.95 253.005 Q2187.24 254.417 2184.37 254.417 L2180.96 254.417 L2180.96 250.852 L2183.46 250.852 Q2185.22 250.852 2186.2 250.019 Q2187.17 249.185 2188.35 246.083 L2189.11 244.139 L2178.63 218.63 L2183.14 218.63 L2191.24 238.908 L2199.34 218.63 L2203.86 218.63 L2192.47 246.963 Z" fill="#000000" fill-rule="evenodd" fill-opacity="1" /><path clip-path="url(#clip810)" d="M 0 0 M2209.74 240.621 L2217.38 240.621 L2217.38 214.255 L2209.07 215.922 L2209.07 211.662 L2217.33 209.996 L2222.01 209.996 L2222.01 240.621 L2229.65 240.621 L2229.65 244.556 L2209.74 244.556 L2209.74 240.621 Z" fill="#000000" fill-rule="evenodd" fill-opacity="1" /></svg>
