<?xml version="1.0" encoding="utf-8"?>
<svg xmlns="http://www.w3.org/2000/svg" xmlns:xlink="http://www.w3.org/1999/xlink" width="600" height="400" viewBox="0 0 2400 1600">
<defs>
  <clipPath id="clip750">
    <rect x="0" y="0" width="2400" height="1600"/>
  </clipPath>
</defs>
<path clip-path="url(#clip750)" d="
M0 1600 L2400 1600 L2400 0 L0 0  Z
  " fill="#ffffff" fill-rule="evenodd" fill-opacity="1"/>
<defs>
  <clipPath id="clip751">
    <rect x="480" y="0" width="1681" height="1600"/>
  </clipPath>
</defs>
<path clip-path="url(#clip750)" d="
M344.646 1423.18 L2352.76 1423.18 L2352.76 47.2441 L344.646 47.2441  Z
  " fill="#ffffff" fill-rule="evenodd" fill-opacity="1"/>
<defs>
  <clipPath id="clip752">
    <rect x="344" y="47" width="2009" height="1377"/>
  </clipPath>
</defs>
<polyline clip-path="url(#clip752)" style="stroke:#000000; stroke-width:2; stroke-opacity:0.1; fill:none" points="
  401.475,1423.18 401.475,47.2441 
  "/>
<polyline clip-path="url(#clip752)" style="stroke:#000000; stroke-width:2; stroke-opacity:0.1; fill:none" points="
  780.365,1423.18 780.365,47.2441 
  "/>
<polyline clip-path="url(#clip752)" style="stroke:#000000; stroke-width:2; stroke-opacity:0.1; fill:none" points="
  1159.25,1423.18 1159.25,47.2441 
  "/>
<polyline clip-path="url(#clip752)" style="stroke:#000000; stroke-width:2; stroke-opacity:0.1; fill:none" points="
  1538.14,1423.18 1538.14,47.2441 
  "/>
<polyline clip-path="url(#clip752)" style="stroke:#000000; stroke-width:2; stroke-opacity:0.1; fill:none" points="
  1917.03,1423.18 1917.03,47.2441 
  "/>
<polyline clip-path="url(#clip752)" style="stroke:#000000; stroke-width:2; stroke-opacity:0.1; fill:none" points="
  2295.92,1423.18 2295.92,47.2441 
  "/>
<polyline clip-path="url(#clip750)" style="stroke:#000000; stroke-width:4; stroke-opacity:1; fill:none" points="
  344.646,1423.18 2352.76,1423.18 
  "/>
<polyline clip-path="url(#clip750)" style="stroke:#000000; stroke-width:4; stroke-opacity:1; fill:none" points="
  401.475,1423.18 401.475,1406.67 
  "/>
<polyline clip-path="url(#clip750)" style="stroke:#000000; stroke-width:4; stroke-opacity:1; fill:none" points="
  780.365,1423.18 780.365,1406.67 
  "/>
<polyline clip-path="url(#clip750)" style="stroke:#000000; stroke-width:4; stroke-opacity:1; fill:none" points="
  1159.25,1423.18 1159.25,1406.67 
  "/>
<polyline clip-path="url(#clip750)" style="stroke:#000000; stroke-width:4; stroke-opacity:1; fill:none" points="
  1538.14,1423.18 1538.14,1406.67 
  "/>
<polyline clip-path="url(#clip750)" style="stroke:#000000; stroke-width:4; stroke-opacity:1; fill:none" points="
  1917.03,1423.18 1917.03,1406.67 
  "/>
<polyline clip-path="url(#clip750)" style="stroke:#000000; stroke-width:4; stroke-opacity:1; fill:none" points="
  2295.92,1423.18 2295.92,1406.67 
  "/>
<path clip-path="url(#clip750)" d="M 0 0 M401.475 1452.37 Q397.864 1452.37 396.035 1455.94 Q394.23 1459.48 394.23 1466.61 Q394.23 1473.71 396.035 1477.28 Q397.864 1480.82 401.475 1480.82 Q405.109 1480.82 406.915 1477.28 Q408.744 1473.71 408.744 1466.61 Q408.744 1459.48 406.915 1455.94 Q405.109 1452.37 401.475 1452.37 M401.475 1448.67 Q407.285 1448.67 410.341 1453.27 Q413.42 1457.86 413.42 1466.61 Q413.42 1475.33 410.341 1479.94 Q407.285 1484.52 401.475 1484.52 Q395.665 1484.52 392.586 1479.94 Q389.531 1475.33 389.531 1466.61 Q389.531 1457.86 392.586 1453.27 Q395.665 1448.67 401.475 1448.67 Z" fill="#000000" fill-rule="evenodd" fill-opacity="1" /><path clip-path="url(#clip750)" d="M 0 0 M770.747 1479.92 L778.386 1479.92 L778.386 1453.55 L770.075 1455.22 L770.075 1450.96 L778.339 1449.29 L783.015 1449.29 L783.015 1479.92 L790.654 1479.92 L790.654 1483.85 L770.747 1483.85 L770.747 1479.92 Z" fill="#000000" fill-rule="evenodd" fill-opacity="1" /><path clip-path="url(#clip750)" d="M 0 0 M1153.91 1479.92 L1170.23 1479.92 L1170.23 1483.85 L1148.28 1483.85 L1148.28 1479.92 Q1150.94 1477.16 1155.53 1472.53 Q1160.13 1467.88 1161.31 1466.54 Q1163.56 1464.01 1164.44 1462.28 Q1165.34 1460.52 1165.34 1458.83 Q1165.34 1456.07 1163.4 1454.34 Q1161.48 1452.6 1158.37 1452.6 Q1156.18 1452.6 1153.72 1453.37 Q1151.29 1454.13 1148.51 1455.68 L1148.51 1450.96 Q1151.34 1449.82 1153.79 1449.25 Q1156.24 1448.67 1158.28 1448.67 Q1163.65 1448.67 1166.85 1451.35 Q1170.04 1454.04 1170.04 1458.53 Q1170.04 1460.66 1169.23 1462.58 Q1168.44 1464.48 1166.34 1467.07 Q1165.76 1467.74 1162.66 1470.96 Q1159.56 1474.15 1153.91 1479.92 Z" fill="#000000" fill-rule="evenodd" fill-opacity="1" /><path clip-path="url(#clip750)" d="M 0 0 M1542.39 1465.22 Q1545.75 1465.94 1547.62 1468.2 Q1549.52 1470.47 1549.52 1473.81 Q1549.52 1478.92 1546 1481.72 Q1542.48 1484.52 1536 1484.52 Q1533.83 1484.52 1531.51 1484.08 Q1529.22 1483.67 1526.77 1482.81 L1526.77 1478.3 Q1528.71 1479.43 1531.03 1480.01 Q1533.34 1480.59 1535.86 1480.59 Q1540.26 1480.59 1542.55 1478.85 Q1544.87 1477.12 1544.87 1473.81 Q1544.87 1470.75 1542.72 1469.04 Q1540.59 1467.3 1536.77 1467.3 L1532.74 1467.3 L1532.74 1463.46 L1536.95 1463.46 Q1540.4 1463.46 1542.23 1462.09 Q1544.06 1460.7 1544.06 1458.11 Q1544.06 1455.45 1542.16 1454.04 Q1540.28 1452.6 1536.77 1452.6 Q1534.85 1452.6 1532.65 1453.02 Q1530.45 1453.44 1527.81 1454.31 L1527.81 1450.15 Q1530.47 1449.41 1532.78 1449.04 Q1535.12 1448.67 1537.18 1448.67 Q1542.51 1448.67 1545.61 1451.1 Q1548.71 1453.5 1548.71 1457.63 Q1548.71 1460.5 1547.07 1462.49 Q1545.42 1464.45 1542.39 1465.22 Z" fill="#000000" fill-rule="evenodd" fill-opacity="1" /><path clip-path="url(#clip750)" d="M 0 0 M1920.04 1453.37 L1908.24 1471.81 L1920.04 1471.81 L1920.04 1453.37 M1918.82 1449.29 L1924.7 1449.29 L1924.7 1471.81 L1929.63 1471.81 L1929.63 1475.7 L1924.7 1475.7 L1924.7 1483.85 L1920.04 1483.85 L1920.04 1475.7 L1904.44 1475.7 L1904.44 1471.19 L1918.82 1449.29 Z" fill="#000000" fill-rule="evenodd" fill-opacity="1" /><path clip-path="url(#clip750)" d="M 0 0 M2286.2 1449.29 L2304.56 1449.29 L2304.56 1453.23 L2290.48 1453.23 L2290.48 1461.7 Q2291.5 1461.35 2292.52 1461.19 Q2293.54 1461 2294.56 1461 Q2300.34 1461 2303.72 1464.18 Q2307.1 1467.35 2307.1 1472.76 Q2307.1 1478.34 2303.63 1481.44 Q2300.16 1484.52 2293.84 1484.52 Q2291.66 1484.52 2289.39 1484.15 Q2287.15 1483.78 2284.74 1483.04 L2284.74 1478.34 Q2286.83 1479.48 2289.05 1480.03 Q2291.27 1480.59 2293.75 1480.59 Q2297.75 1480.59 2300.09 1478.48 Q2302.43 1476.38 2302.43 1472.76 Q2302.43 1469.15 2300.09 1467.05 Q2297.75 1464.94 2293.75 1464.94 Q2291.87 1464.94 2290 1465.36 Q2288.14 1465.77 2286.2 1466.65 L2286.2 1449.29 Z" fill="#000000" fill-rule="evenodd" fill-opacity="1" /><path clip-path="url(#clip750)" d="M 0 0 M1009.52 1538.25 Q1009.52 1544.71 1012.16 1548.4 Q1014.84 1552.07 1019.48 1552.07 Q1024.13 1552.07 1026.8 1548.4 Q1029.48 1544.71 1029.48 1538.25 Q1029.48 1531.79 1026.8 1528.13 Q1024.13 1524.44 1019.48 1524.44 Q1014.84 1524.44 1012.16 1528.13 Q1009.52 1531.79 1009.52 1538.25 M1029.48 1550.7 Q1027.63 1553.88 1024.8 1555.44 Q1022 1556.97 1018.05 1556.97 Q1011.59 1556.97 1007.51 1551.81 Q1003.47 1546.65 1003.47 1538.25 Q1003.47 1529.85 1007.51 1524.69 Q1011.59 1519.54 1018.05 1519.54 Q1022 1519.54 1024.8 1521.1 Q1027.63 1522.62 1029.48 1525.81 L1029.48 1520.4 L1035.33 1520.4 L1035.33 1569.6 L1029.48 1569.6 L1029.48 1550.7 Z" fill="#000000" fill-rule="evenodd" fill-opacity="1" /><path clip-path="url(#clip750)" d="M 0 0 M1068.56 1566.87 L1068.56 1571.42 L1034.7 1571.42 L1034.7 1566.87 L1068.56 1566.87 Z" fill="#000000" fill-rule="evenodd" fill-opacity="1" /><path clip-path="url(#clip750)" d="M 0 0 M1095.36 1525.87 Q1094.37 1525.3 1093.2 1525.04 Q1092.05 1524.76 1090.65 1524.76 Q1085.69 1524.76 1083.01 1528 Q1080.37 1531.22 1080.37 1537.27 L1080.37 1556.04 L1074.48 1556.04 L1074.48 1520.4 L1080.37 1520.4 L1080.37 1525.93 Q1082.22 1522.69 1085.18 1521.13 Q1088.14 1519.54 1092.37 1519.54 Q1092.97 1519.54 1093.71 1519.63 Q1094.44 1519.7 1095.33 1519.85 L1095.36 1525.87 Z" fill="#000000" fill-rule="evenodd" fill-opacity="1" /><path clip-path="url(#clip750)" d="M 0 0 M1117.71 1538.12 Q1110.61 1538.12 1107.87 1539.75 Q1105.13 1541.37 1105.13 1545.29 Q1105.13 1548.4 1107.17 1550.25 Q1109.24 1552.07 1112.77 1552.07 Q1117.64 1552.07 1120.57 1548.63 Q1123.53 1545.16 1123.53 1539.43 L1123.53 1538.12 L1117.71 1538.12 M1129.39 1535.71 L1129.39 1556.04 L1123.53 1556.04 L1123.53 1550.63 Q1121.52 1553.88 1118.53 1555.44 Q1115.54 1556.97 1111.21 1556.97 Q1105.74 1556.97 1102.49 1553.91 Q1099.28 1550.82 1099.28 1545.67 Q1099.28 1539.65 1103.29 1536.6 Q1107.33 1533.54 1115.32 1533.54 L1123.53 1533.54 L1123.53 1532.97 Q1123.53 1528.93 1120.86 1526.73 Q1118.21 1524.5 1113.41 1524.5 Q1110.35 1524.5 1107.46 1525.23 Q1104.56 1525.97 1101.89 1527.43 L1101.89 1522.02 Q1105.1 1520.78 1108.12 1520.17 Q1111.15 1519.54 1114.01 1519.54 Q1121.75 1519.54 1125.57 1523.55 Q1129.39 1527.56 1129.39 1535.71 Z" fill="#000000" fill-rule="evenodd" fill-opacity="1" /><path clip-path="url(#clip750)" d="M 0 0 M1135.53 1520.4 L1141.39 1520.4 L1141.39 1556.04 L1135.53 1556.04 L1135.53 1520.4 M1135.53 1506.52 L1141.39 1506.52 L1141.39 1513.93 L1135.53 1513.93 L1135.53 1506.52 Z" fill="#000000" fill-rule="evenodd" fill-opacity="1" /><path clip-path="url(#clip750)" d="M 0 0 M1177.16 1534.53 L1177.16 1556.04 L1171.3 1556.04 L1171.3 1534.72 Q1171.3 1529.66 1169.33 1527.14 Q1167.36 1524.63 1163.41 1524.63 Q1158.67 1524.63 1155.93 1527.65 Q1153.19 1530.68 1153.19 1535.9 L1153.19 1556.04 L1147.31 1556.04 L1147.31 1520.4 L1153.19 1520.4 L1153.19 1525.93 Q1155.29 1522.72 1158.13 1521.13 Q1160.99 1519.54 1164.72 1519.54 Q1170.86 1519.54 1174.01 1523.36 Q1177.16 1527.14 1177.16 1534.53 Z" fill="#000000" fill-rule="evenodd" fill-opacity="1" /><path clip-path="url(#clip750)" d="M 0 0 M1217.84 1524.5 Q1213.13 1524.5 1210.39 1528.19 Q1207.65 1531.85 1207.65 1538.25 Q1207.65 1544.65 1210.36 1548.34 Q1213.1 1552 1217.84 1552 Q1222.52 1552 1225.25 1548.31 Q1227.99 1544.62 1227.99 1538.25 Q1227.99 1531.92 1225.25 1528.23 Q1222.52 1524.5 1217.84 1524.5 M1217.84 1519.54 Q1225.48 1519.54 1229.84 1524.5 Q1234.2 1529.47 1234.2 1538.25 Q1234.2 1547 1229.84 1552 Q1225.48 1556.97 1217.84 1556.97 Q1210.17 1556.97 1205.81 1552 Q1201.48 1547 1201.48 1538.25 Q1201.48 1529.47 1205.81 1524.5 Q1210.17 1519.54 1217.84 1519.54 Z" fill="#000000" fill-rule="evenodd" fill-opacity="1" /><path clip-path="url(#clip750)" d="M 0 0 M1261 1525.87 Q1260.01 1525.3 1258.83 1525.04 Q1257.69 1524.76 1256.29 1524.76 Q1251.32 1524.76 1248.65 1528 Q1246.01 1531.22 1246.01 1537.27 L1246.01 1556.04 L1240.12 1556.04 L1240.12 1520.4 L1246.01 1520.4 L1246.01 1525.93 Q1247.85 1522.69 1250.81 1521.13 Q1253.77 1519.54 1258.01 1519.54 Q1258.61 1519.54 1259.34 1519.63 Q1260.07 1519.7 1260.97 1519.85 L1261 1525.87 Z" fill="#000000" fill-rule="evenodd" fill-opacity="1" /><path clip-path="url(#clip750)" d="M 0 0 M1291.36 1538.25 Q1291.36 1544.71 1294 1548.4 Q1296.68 1552.07 1301.32 1552.07 Q1305.97 1552.07 1308.64 1548.4 Q1311.32 1544.71 1311.32 1538.25 Q1311.32 1531.79 1308.64 1528.13 Q1305.97 1524.44 1301.32 1524.44 Q1296.68 1524.44 1294 1528.13 Q1291.36 1531.79 1291.36 1538.25 M1311.32 1550.7 Q1309.47 1553.88 1306.64 1555.44 Q1303.84 1556.97 1299.89 1556.97 Q1293.43 1556.97 1289.36 1551.81 Q1285.31 1546.65 1285.31 1538.25 Q1285.31 1529.85 1289.36 1524.69 Q1293.43 1519.54 1299.89 1519.54 Q1303.84 1519.54 1306.64 1521.1 Q1309.47 1522.62 1311.32 1525.81 L1311.32 1520.4 L1317.17 1520.4 L1317.17 1569.6 L1311.32 1569.6 L1311.32 1550.7 Z" fill="#000000" fill-rule="evenodd" fill-opacity="1" /><path clip-path="url(#clip750)" d="M 0 0 M1350.4 1566.87 L1350.4 1571.42 L1316.54 1571.42 L1316.54 1566.87 L1350.4 1566.87 Z" fill="#000000" fill-rule="evenodd" fill-opacity="1" /><path clip-path="url(#clip750)" d="M 0 0 M1379.27 1521.45 L1379.27 1526.98 Q1376.79 1525.71 1374.12 1525.07 Q1371.44 1524.44 1368.58 1524.44 Q1364.22 1524.44 1362.02 1525.77 Q1359.86 1527.11 1359.86 1529.79 Q1359.86 1531.82 1361.42 1533 Q1362.98 1534.15 1367.69 1535.2 L1369.69 1535.64 Q1375.93 1536.98 1378.54 1539.43 Q1381.18 1541.85 1381.18 1546.21 Q1381.18 1551.17 1377.24 1554.07 Q1373.32 1556.97 1366.45 1556.97 Q1363.58 1556.97 1360.46 1556.39 Q1357.37 1555.85 1353.94 1554.74 L1353.94 1548.69 Q1357.18 1550.38 1360.33 1551.24 Q1363.49 1552.07 1366.57 1552.07 Q1370.71 1552.07 1372.94 1550.66 Q1375.17 1549.23 1375.17 1546.65 Q1375.17 1544.27 1373.54 1542.99 Q1371.95 1541.72 1366.51 1540.54 L1364.47 1540.07 Q1359.03 1538.92 1356.61 1536.56 Q1354.19 1534.18 1354.19 1530.04 Q1354.19 1525.01 1357.76 1522.27 Q1361.32 1519.54 1367.88 1519.54 Q1371.12 1519.54 1373.99 1520.01 Q1376.85 1520.49 1379.27 1521.45 Z" fill="#000000" fill-rule="evenodd" fill-opacity="1" /><path clip-path="url(#clip750)" d="M 0 0 M1416.96 1534.53 L1416.96 1556.04 L1411.1 1556.04 L1411.1 1534.72 Q1411.1 1529.66 1409.13 1527.14 Q1407.15 1524.63 1403.21 1524.63 Q1398.46 1524.63 1395.73 1527.65 Q1392.99 1530.68 1392.99 1535.9 L1392.99 1556.04 L1387.1 1556.04 L1387.1 1520.4 L1392.99 1520.4 L1392.99 1525.93 Q1395.09 1522.72 1397.92 1521.13 Q1400.79 1519.54 1404.51 1519.54 Q1410.66 1519.54 1413.81 1523.36 Q1416.96 1527.14 1416.96 1534.53 Z" fill="#000000" fill-rule="evenodd" fill-opacity="1" /><path clip-path="url(#clip750)" d="M 0 0 M1436.91 1524.5 Q1432.2 1524.5 1429.47 1528.19 Q1426.73 1531.85 1426.73 1538.25 Q1426.73 1544.65 1429.43 1548.34 Q1432.17 1552 1436.91 1552 Q1441.59 1552 1444.33 1548.31 Q1447.07 1544.62 1447.07 1538.25 Q1447.07 1531.92 1444.33 1528.23 Q1441.59 1524.5 1436.91 1524.5 M1436.91 1519.54 Q1444.55 1519.54 1448.91 1524.5 Q1453.27 1529.47 1453.27 1538.25 Q1453.27 1547 1448.91 1552 Q1444.55 1556.97 1436.91 1556.97 Q1429.24 1556.97 1424.88 1552 Q1420.55 1547 1420.55 1538.25 Q1420.55 1529.47 1424.88 1524.5 Q1429.24 1519.54 1436.91 1519.54 Z" fill="#000000" fill-rule="evenodd" fill-opacity="1" /><path clip-path="url(#clip750)" d="M 0 0 M1456.01 1520.4 L1461.87 1520.4 L1469.19 1548.21 L1476.48 1520.4 L1483.38 1520.4 L1490.7 1548.21 L1497.99 1520.4 L1503.85 1520.4 L1494.52 1556.04 L1487.62 1556.04 L1479.95 1526.83 L1472.24 1556.04 L1465.34 1556.04 L1456.01 1520.4 Z" fill="#000000" fill-rule="evenodd" fill-opacity="1" /><path clip-path="url(#clip750)" d="M 0 0 M1530.17 1506.52 L1543.67 1506.52 L1543.67 1511.07 L1536.03 1511.07 L1536.03 1560.09 L1543.67 1560.09 L1543.67 1564.64 L1530.17 1564.64 L1530.17 1506.52 Z" fill="#000000" fill-rule="evenodd" fill-opacity="1" /><path clip-path="url(#clip750)" d="M 0 0 M1573.27 1537.81 Q1573.27 1531.44 1570.63 1527.94 Q1568.02 1524.44 1563.27 1524.44 Q1558.56 1524.44 1555.92 1527.94 Q1553.31 1531.44 1553.31 1537.81 Q1553.31 1544.14 1555.92 1547.64 Q1558.56 1551.14 1563.27 1551.14 Q1568.02 1551.14 1570.63 1547.64 Q1573.27 1544.14 1573.27 1537.81 M1579.12 1551.62 Q1579.12 1560.72 1575.08 1565.15 Q1571.04 1569.6 1562.7 1569.6 Q1559.61 1569.6 1556.88 1569.13 Q1554.14 1568.68 1551.56 1567.72 L1551.56 1562.03 Q1554.14 1563.43 1556.65 1564.1 Q1559.17 1564.76 1561.78 1564.76 Q1567.54 1564.76 1570.4 1561.74 Q1573.27 1558.75 1573.27 1552.67 L1573.27 1549.77 Q1571.45 1552.92 1568.62 1554.48 Q1565.79 1556.04 1561.84 1556.04 Q1555.28 1556.04 1551.27 1551.05 Q1547.26 1546.05 1547.26 1537.81 Q1547.26 1529.53 1551.27 1524.53 Q1555.28 1519.54 1561.84 1519.54 Q1565.79 1519.54 1568.62 1521.1 Q1571.45 1522.66 1573.27 1525.81 L1573.27 1520.4 L1579.12 1520.4 L1579.12 1551.62 Z" fill="#000000" fill-rule="evenodd" fill-opacity="1" /><path clip-path="url(#clip750)" d="M 0 0 M1595.67 1508.52 L1601.09 1508.52 L1584.53 1562.09 L1579.12 1562.09 L1595.67 1508.52 Z" fill="#000000" fill-rule="evenodd" fill-opacity="1" /><path clip-path="url(#clip750)" d="M 0 0 M1607.01 1506.52 L1612.89 1506.52 L1612.89 1535.77 L1630.37 1520.4 L1637.85 1520.4 L1618.94 1537.07 L1638.64 1556.04 L1631 1556.04 L1612.89 1538.63 L1612.89 1556.04 L1607.01 1556.04 L1607.01 1506.52 Z" fill="#000000" fill-rule="evenodd" fill-opacity="1" /><path clip-path="url(#clip750)" d="M 0 0 M1668.24 1537.81 Q1668.24 1531.44 1665.6 1527.94 Q1662.99 1524.44 1658.25 1524.44 Q1653.54 1524.44 1650.9 1527.94 Q1648.29 1531.44 1648.29 1537.81 Q1648.29 1544.14 1650.9 1547.64 Q1653.54 1551.14 1658.25 1551.14 Q1662.99 1551.14 1665.6 1547.64 Q1668.24 1544.14 1668.24 1537.81 M1674.1 1551.62 Q1674.1 1560.72 1670.06 1565.15 Q1666.02 1569.6 1657.68 1569.6 Q1654.59 1569.6 1651.85 1569.13 Q1649.11 1568.68 1646.54 1567.72 L1646.54 1562.03 Q1649.11 1563.43 1651.63 1564.1 Q1654.14 1564.76 1656.75 1564.76 Q1662.51 1564.76 1665.38 1561.74 Q1668.24 1558.75 1668.24 1552.67 L1668.24 1549.77 Q1666.43 1552.92 1663.6 1554.48 Q1660.76 1556.04 1656.82 1556.04 Q1650.26 1556.04 1646.25 1551.05 Q1642.24 1546.05 1642.24 1537.81 Q1642.24 1529.53 1646.25 1524.53 Q1650.26 1519.54 1656.82 1519.54 Q1660.76 1519.54 1663.6 1521.1 Q1666.43 1522.66 1668.24 1525.81 L1668.24 1520.4 L1674.1 1520.4 L1674.1 1551.62 Z" fill="#000000" fill-rule="evenodd" fill-opacity="1" /><path clip-path="url(#clip750)" d="M 0 0 M1693.93 1506.52 L1693.93 1564.64 L1680.43 1564.64 L1680.43 1560.09 L1688.04 1560.09 L1688.04 1511.07 L1680.43 1511.07 L1680.43 1506.52 L1693.93 1506.52 Z" fill="#000000" fill-rule="evenodd" fill-opacity="1" /><polyline clip-path="url(#clip752)" style="stroke:#000000; stroke-width:2; stroke-opacity:0.1; fill:none" points="
  344.646,1384.24 2352.76,1384.24 
  "/>
<polyline clip-path="url(#clip752)" style="stroke:#000000; stroke-width:2; stroke-opacity:0.1; fill:none" points="
  344.646,1188.51 2352.76,1188.51 
  "/>
<polyline clip-path="url(#clip752)" style="stroke:#000000; stroke-width:2; stroke-opacity:0.1; fill:none" points="
  344.646,992.783 2352.76,992.783 
  "/>
<polyline clip-path="url(#clip752)" style="stroke:#000000; stroke-width:2; stroke-opacity:0.1; fill:none" points="
  344.646,797.055 2352.76,797.055 
  "/>
<polyline clip-path="url(#clip752)" style="stroke:#000000; stroke-width:2; stroke-opacity:0.1; fill:none" points="
  344.646,601.327 2352.76,601.327 
  "/>
<polyline clip-path="url(#clip752)" style="stroke:#000000; stroke-width:2; stroke-opacity:0.1; fill:none" points="
  344.646,405.599 2352.76,405.599 
  "/>
<polyline clip-path="url(#clip752)" style="stroke:#000000; stroke-width:2; stroke-opacity:0.1; fill:none" points="
  344.646,209.871 2352.76,209.871 
  "/>
<polyline clip-path="url(#clip750)" style="stroke:#000000; stroke-width:4; stroke-opacity:1; fill:none" points="
  344.646,1423.18 344.646,47.2441 
  "/>
<polyline clip-path="url(#clip750)" style="stroke:#000000; stroke-width:4; stroke-opacity:1; fill:none" points="
  344.646,1384.24 368.743,1384.24 
  "/>
<polyline clip-path="url(#clip750)" style="stroke:#000000; stroke-width:4; stroke-opacity:1; fill:none" points="
  344.646,1188.51 368.743,1188.51 
  "/>
<polyline clip-path="url(#clip750)" style="stroke:#000000; stroke-width:4; stroke-opacity:1; fill:none" points="
  344.646,992.783 368.743,992.783 
  "/>
<polyline clip-path="url(#clip750)" style="stroke:#000000; stroke-width:4; stroke-opacity:1; fill:none" points="
  344.646,797.055 368.743,797.055 
  "/>
<polyline clip-path="url(#clip750)" style="stroke:#000000; stroke-width:4; stroke-opacity:1; fill:none" points="
  344.646,601.327 368.743,601.327 
  "/>
<polyline clip-path="url(#clip750)" style="stroke:#000000; stroke-width:4; stroke-opacity:1; fill:none" points="
  344.646,405.599 368.743,405.599 
  "/>
<polyline clip-path="url(#clip750)" style="stroke:#000000; stroke-width:4; stroke-opacity:1; fill:none" points="
  344.646,209.871 368.743,209.871 
  "/>
<path clip-path="url(#clip750)" d="M 0 0 M296.701 1370.04 Q293.09 1370.04 291.262 1373.6 Q289.456 1377.14 289.456 1384.27 Q289.456 1391.38 291.262 1394.94 Q293.09 1398.49 296.701 1398.49 Q300.336 1398.49 302.141 1394.94 Q303.97 1391.38 303.97 1384.27 Q303.97 1377.14 302.141 1373.6 Q300.336 1370.04 296.701 1370.04 M296.701 1366.33 Q302.511 1366.33 305.567 1370.94 Q308.646 1375.52 308.646 1384.27 Q308.646 1393 305.567 1397.61 Q302.511 1402.19 296.701 1402.19 Q290.891 1402.19 287.812 1397.61 Q284.757 1393 284.757 1384.27 Q284.757 1375.52 287.812 1370.94 Q290.891 1366.33 296.701 1366.33 Z" fill="#000000" fill-rule="evenodd" fill-opacity="1" /><path clip-path="url(#clip750)" d="M 0 0 M123.126 1208.3 L139.445 1208.3 L139.445 1212.24 L117.501 1212.24 L117.501 1208.3 Q120.163 1205.55 124.746 1200.92 Q129.353 1196.27 130.533 1194.92 Q132.779 1192.4 133.658 1190.66 Q134.561 1188.91 134.561 1187.22 Q134.561 1184.46 132.617 1182.72 Q130.695 1180.99 127.593 1180.99 Q125.394 1180.99 122.941 1181.75 Q120.51 1182.52 117.732 1184.07 L117.732 1179.34 Q120.556 1178.21 123.01 1177.63 Q125.464 1177.05 127.501 1177.05 Q132.871 1177.05 136.066 1179.74 Q139.26 1182.42 139.26 1186.91 Q139.26 1189.04 138.45 1190.97 Q137.663 1192.86 135.556 1195.46 Q134.978 1196.13 131.876 1199.34 Q128.774 1202.54 123.126 1208.3 Z" fill="#000000" fill-rule="evenodd" fill-opacity="1" /><path clip-path="url(#clip750)" d="M 0 0 M144.515 1206.36 L149.399 1206.36 L149.399 1212.24 L144.515 1212.24 L144.515 1206.36 Z" fill="#000000" fill-rule="evenodd" fill-opacity="1" /><path clip-path="url(#clip750)" d="M 0 0 M164.468 1180.76 Q160.857 1180.76 159.028 1184.32 Q157.223 1187.86 157.223 1194.99 Q157.223 1202.1 159.028 1205.66 Q160.857 1209.21 164.468 1209.21 Q168.102 1209.21 169.908 1205.66 Q171.737 1202.1 171.737 1194.99 Q171.737 1187.86 169.908 1184.32 Q168.102 1180.76 164.468 1180.76 M164.468 1177.05 Q170.278 1177.05 173.334 1181.66 Q176.413 1186.24 176.413 1194.99 Q176.413 1203.72 173.334 1208.33 Q170.278 1212.91 164.468 1212.91 Q158.658 1212.91 155.579 1208.33 Q152.524 1203.72 152.524 1194.99 Q152.524 1186.24 155.579 1181.66 Q158.658 1177.05 164.468 1177.05 Z" fill="#000000" fill-rule="evenodd" fill-opacity="1" /><path clip-path="url(#clip750)" d="M 0 0 M209.653 1186.78 L199.075 1197.4 L209.653 1207.98 L206.899 1210.78 L196.274 1200.16 L185.649 1210.78 L182.917 1207.98 L193.473 1197.4 L182.917 1186.78 L185.649 1183.97 L196.274 1194.6 L206.899 1183.97 L209.653 1186.78 Z" fill="#000000" fill-rule="evenodd" fill-opacity="1" /><path clip-path="url(#clip750)" d="M 0 0 M215.533 1208.3 L223.172 1208.3 L223.172 1181.94 L214.861 1183.6 L214.861 1179.34 L223.125 1177.68 L227.801 1177.68 L227.801 1208.3 L235.44 1208.3 L235.44 1212.24 L215.533 1212.24 L215.533 1208.3 Z" fill="#000000" fill-rule="evenodd" fill-opacity="1" /><path clip-path="url(#clip750)" d="M 0 0 M250.509 1180.76 Q246.898 1180.76 245.07 1184.32 Q243.264 1187.86 243.264 1194.99 Q243.264 1202.1 245.07 1205.66 Q246.898 1209.21 250.509 1209.21 Q254.144 1209.21 255.949 1205.66 Q257.778 1202.1 257.778 1194.99 Q257.778 1187.86 255.949 1184.32 Q254.144 1180.76 250.509 1180.76 M250.509 1177.05 Q256.32 1177.05 259.375 1181.66 Q262.454 1186.24 262.454 1194.99 Q262.454 1203.72 259.375 1208.33 Q256.32 1212.91 250.509 1212.91 Q244.699 1212.91 241.621 1208.33 Q238.565 1203.72 238.565 1194.99 Q238.565 1186.24 241.621 1181.66 Q244.699 1177.05 250.509 1177.05 Z" fill="#000000" fill-rule="evenodd" fill-opacity="1" /><path clip-path="url(#clip750)" d="M 0 0 M262.454 1171.15 L286.565 1171.15 L286.565 1174.35 L262.454 1174.35 L262.454 1171.15 Z" fill="#000000" fill-rule="evenodd" fill-opacity="1" /><path clip-path="url(#clip750)" d="M 0 0 M299.279 1169.27 Q296.722 1169.27 295.217 1171.02 Q293.731 1172.77 293.731 1175.82 Q293.731 1178.85 295.217 1180.61 Q296.722 1182.36 299.279 1182.36 Q301.837 1182.36 303.323 1180.61 Q304.828 1178.85 304.828 1175.82 Q304.828 1172.77 303.323 1171.02 Q301.837 1169.27 299.279 1169.27 M306.821 1157.37 L306.821 1160.83 Q305.392 1160.15 303.925 1159.79 Q302.477 1159.44 301.047 1159.44 Q297.286 1159.44 295.292 1161.98 Q293.317 1164.52 293.035 1169.65 Q294.145 1168.01 295.819 1167.15 Q297.493 1166.26 299.505 1166.26 Q303.737 1166.26 306.182 1168.84 Q308.646 1171.4 308.646 1175.82 Q308.646 1180.14 306.088 1182.76 Q303.53 1185.37 299.279 1185.37 Q294.408 1185.37 291.832 1181.65 Q289.255 1177.91 289.255 1170.82 Q289.255 1164.16 292.415 1160.21 Q295.574 1156.24 300.897 1156.24 Q302.326 1156.24 303.774 1156.52 Q305.241 1156.8 306.821 1157.37 Z" fill="#000000" fill-rule="evenodd" fill-opacity="1" /><path clip-path="url(#clip750)" d="M 0 0 M129.862 986.025 L118.056 1004.47 L129.862 1004.47 L129.862 986.025 M128.635 981.95 L134.515 981.95 L134.515 1004.47 L139.445 1004.47 L139.445 1008.36 L134.515 1008.36 L134.515 1016.51 L129.862 1016.51 L129.862 1008.36 L114.26 1008.36 L114.26 1003.85 L128.635 981.95 Z" fill="#000000" fill-rule="evenodd" fill-opacity="1" /><path clip-path="url(#clip750)" d="M 0 0 M144.515 1010.63 L149.399 1010.63 L149.399 1016.51 L144.515 1016.51 L144.515 1010.63 Z" fill="#000000" fill-rule="evenodd" fill-opacity="1" /><path clip-path="url(#clip750)" d="M 0 0 M164.468 985.029 Q160.857 985.029 159.028 988.594 Q157.223 992.136 157.223 999.265 Q157.223 1006.37 159.028 1009.94 Q160.857 1013.48 164.468 1013.48 Q168.102 1013.48 169.908 1009.94 Q171.737 1006.37 171.737 999.265 Q171.737 992.136 169.908 988.594 Q168.102 985.029 164.468 985.029 M164.468 981.325 Q170.278 981.325 173.334 985.932 Q176.413 990.515 176.413 999.265 Q176.413 1007.99 173.334 1012.6 Q170.278 1017.18 164.468 1017.18 Q158.658 1017.18 155.579 1012.6 Q152.524 1007.99 152.524 999.265 Q152.524 990.515 155.579 985.932 Q158.658 981.325 164.468 981.325 Z" fill="#000000" fill-rule="evenodd" fill-opacity="1" /><path clip-path="url(#clip750)" d="M 0 0 M209.653 991.048 L199.075 1001.67 L209.653 1012.25 L206.899 1015.05 L196.274 1004.43 L185.649 1015.05 L182.917 1012.25 L193.473 1001.67 L182.917 991.048 L185.649 988.247 L196.274 998.872 L206.899 988.247 L209.653 991.048 Z" fill="#000000" fill-rule="evenodd" fill-opacity="1" /><path clip-path="url(#clip750)" d="M 0 0 M215.533 1012.58 L223.172 1012.58 L223.172 986.21 L214.861 987.876 L214.861 983.617 L223.125 981.95 L227.801 981.95 L227.801 1012.58 L235.44 1012.58 L235.44 1016.51 L215.533 1016.51 L215.533 1012.58 Z" fill="#000000" fill-rule="evenodd" fill-opacity="1" /><path clip-path="url(#clip750)" d="M 0 0 M250.509 985.029 Q246.898 985.029 245.07 988.594 Q243.264 992.136 243.264 999.265 Q243.264 1006.37 245.07 1009.94 Q246.898 1013.48 250.509 1013.48 Q254.144 1013.48 255.949 1009.94 Q257.778 1006.37 257.778 999.265 Q257.778 992.136 255.949 988.594 Q254.144 985.029 250.509 985.029 M250.509 981.325 Q256.32 981.325 259.375 985.932 Q262.454 990.515 262.454 999.265 Q262.454 1007.99 259.375 1012.6 Q256.32 1017.18 250.509 1017.18 Q244.699 1017.18 241.621 1012.6 Q238.565 1007.99 238.565 999.265 Q238.565 990.515 241.621 985.932 Q244.699 981.325 250.509 981.325 Z" fill="#000000" fill-rule="evenodd" fill-opacity="1" /><path clip-path="url(#clip750)" d="M 0 0 M262.454 975.427 L286.565 975.427 L286.565 978.624 L262.454 978.624 L262.454 975.427 Z" fill="#000000" fill-rule="evenodd" fill-opacity="1" /><path clip-path="url(#clip750)" d="M 0 0 M299.279 973.546 Q296.722 973.546 295.217 975.295 Q293.731 977.044 293.731 980.091 Q293.731 983.119 295.217 984.887 Q296.722 986.636 299.279 986.636 Q301.837 986.636 303.323 984.887 Q304.828 983.119 304.828 980.091 Q304.828 977.044 303.323 975.295 Q301.837 973.546 299.279 973.546 M306.821 961.641 L306.821 965.101 Q305.392 964.424 303.925 964.067 Q302.477 963.71 301.047 963.71 Q297.286 963.71 295.292 966.249 Q293.317 968.788 293.035 973.922 Q294.145 972.286 295.819 971.421 Q297.493 970.537 299.505 970.537 Q303.737 970.537 306.182 973.113 Q308.646 975.671 308.646 980.091 Q308.646 984.417 306.088 987.031 Q303.53 989.645 299.279 989.645 Q294.408 989.645 291.832 985.922 Q289.255 982.179 289.255 975.088 Q289.255 968.43 292.415 964.481 Q295.574 960.512 300.897 960.512 Q302.326 960.512 303.774 960.794 Q305.241 961.076 306.821 961.641 Z" fill="#000000" fill-rule="evenodd" fill-opacity="1" /><path clip-path="url(#clip750)" d="M 0 0 M127.917 801.639 Q124.769 801.639 122.918 803.792 Q121.089 805.945 121.089 809.695 Q121.089 813.422 122.918 815.597 Q124.769 817.75 127.917 817.75 Q131.066 817.75 132.894 815.597 Q134.746 813.422 134.746 809.695 Q134.746 805.945 132.894 803.792 Q131.066 801.639 127.917 801.639 M137.2 786.986 L137.2 791.246 Q135.441 790.412 133.635 789.973 Q131.853 789.533 130.093 789.533 Q125.464 789.533 123.01 792.658 Q120.58 795.783 120.232 802.102 Q121.598 800.088 123.658 799.023 Q125.718 797.935 128.195 797.935 Q133.404 797.935 136.413 801.107 Q139.445 804.255 139.445 809.695 Q139.445 815.019 136.297 818.236 Q133.149 821.454 127.917 821.454 Q121.922 821.454 118.751 816.871 Q115.58 812.264 115.58 803.537 Q115.58 795.343 119.468 790.482 Q123.357 785.598 129.908 785.598 Q131.667 785.598 133.45 785.945 Q135.255 786.292 137.2 786.986 Z" fill="#000000" fill-rule="evenodd" fill-opacity="1" /><path clip-path="url(#clip750)" d="M 0 0 M144.515 814.903 L149.399 814.903 L149.399 820.783 L144.515 820.783 L144.515 814.903 Z" fill="#000000" fill-rule="evenodd" fill-opacity="1" /><path clip-path="url(#clip750)" d="M 0 0 M164.468 789.301 Q160.857 789.301 159.028 792.866 Q157.223 796.408 157.223 803.537 Q157.223 810.644 159.028 814.209 Q160.857 817.75 164.468 817.75 Q168.102 817.75 169.908 814.209 Q171.737 810.644 171.737 803.537 Q171.737 796.408 169.908 792.866 Q168.102 789.301 164.468 789.301 M164.468 785.598 Q170.278 785.598 173.334 790.204 Q176.413 794.787 176.413 803.537 Q176.413 812.264 173.334 816.871 Q170.278 821.454 164.468 821.454 Q158.658 821.454 155.579 816.871 Q152.524 812.264 152.524 803.537 Q152.524 794.787 155.579 790.204 Q158.658 785.598 164.468 785.598 Z" fill="#000000" fill-rule="evenodd" fill-opacity="1" /><path clip-path="url(#clip750)" d="M 0 0 M209.653 795.32 L199.075 805.945 L209.653 816.523 L206.899 819.324 L196.274 808.699 L185.649 819.324 L182.917 816.523 L193.473 805.945 L182.917 795.32 L185.649 792.519 L196.274 803.144 L206.899 792.519 L209.653 795.32 Z" fill="#000000" fill-rule="evenodd" fill-opacity="1" /><path clip-path="url(#clip750)" d="M 0 0 M215.533 816.847 L223.172 816.847 L223.172 790.482 L214.861 792.148 L214.861 787.889 L223.125 786.223 L227.801 786.223 L227.801 816.847 L235.44 816.847 L235.44 820.783 L215.533 820.783 L215.533 816.847 Z" fill="#000000" fill-rule="evenodd" fill-opacity="1" /><path clip-path="url(#clip750)" d="M 0 0 M250.509 789.301 Q246.898 789.301 245.07 792.866 Q243.264 796.408 243.264 803.537 Q243.264 810.644 245.07 814.209 Q246.898 817.75 250.509 817.75 Q254.144 817.75 255.949 814.209 Q257.778 810.644 257.778 803.537 Q257.778 796.408 255.949 792.866 Q254.144 789.301 250.509 789.301 M250.509 785.598 Q256.32 785.598 259.375 790.204 Q262.454 794.787 262.454 803.537 Q262.454 812.264 259.375 816.871 Q256.32 821.454 250.509 821.454 Q244.699 821.454 241.621 816.871 Q238.565 812.264 238.565 803.537 Q238.565 794.787 241.621 790.204 Q244.699 785.598 250.509 785.598 Z" fill="#000000" fill-rule="evenodd" fill-opacity="1" /><path clip-path="url(#clip750)" d="M 0 0 M262.454 779.699 L286.565 779.699 L286.565 782.896 L262.454 782.896 L262.454 779.699 Z" fill="#000000" fill-rule="evenodd" fill-opacity="1" /><path clip-path="url(#clip750)" d="M 0 0 M299.279 777.818 Q296.722 777.818 295.217 779.567 Q293.731 781.316 293.731 784.363 Q293.731 787.391 295.217 789.159 Q296.722 790.908 299.279 790.908 Q301.837 790.908 303.323 789.159 Q304.828 787.391 304.828 784.363 Q304.828 781.316 303.323 779.567 Q301.837 777.818 299.279 777.818 M306.821 765.913 L306.821 769.373 Q305.392 768.696 303.925 768.339 Q302.477 767.982 301.047 767.982 Q297.286 767.982 295.292 770.521 Q293.317 773.06 293.035 778.194 Q294.145 776.558 295.819 775.693 Q297.493 774.809 299.505 774.809 Q303.737 774.809 306.182 777.386 Q308.646 779.943 308.646 784.363 Q308.646 788.689 306.088 791.303 Q303.53 793.918 299.279 793.918 Q294.408 793.918 291.832 790.194 Q289.255 786.451 289.255 779.36 Q289.255 772.702 292.415 768.753 Q295.574 764.784 300.897 764.784 Q302.326 764.784 303.774 765.066 Q305.241 765.349 306.821 765.913 Z" fill="#000000" fill-rule="evenodd" fill-opacity="1" /><path clip-path="url(#clip750)" d="M 0 0 M127.593 608.643 Q124.26 608.643 122.339 610.425 Q120.441 612.208 120.441 615.333 Q120.441 618.458 122.339 620.24 Q124.26 622.022 127.593 622.022 Q130.927 622.022 132.848 620.24 Q134.769 618.434 134.769 615.333 Q134.769 612.208 132.848 610.425 Q130.95 608.643 127.593 608.643 M122.918 606.652 Q119.908 605.911 118.218 603.851 Q116.552 601.791 116.552 598.828 Q116.552 594.685 119.492 592.277 Q122.455 589.87 127.593 589.87 Q132.755 589.87 135.695 592.277 Q138.635 594.685 138.635 598.828 Q138.635 601.791 136.945 603.851 Q135.279 605.911 132.292 606.652 Q135.672 607.439 137.547 609.731 Q139.445 612.022 139.445 615.333 Q139.445 620.356 136.367 623.041 Q133.311 625.726 127.593 625.726 Q121.876 625.726 118.797 623.041 Q115.742 620.356 115.742 615.333 Q115.742 612.022 117.64 609.731 Q119.538 607.439 122.918 606.652 M121.205 599.268 Q121.205 601.953 122.871 603.458 Q124.561 604.962 127.593 604.962 Q130.603 604.962 132.292 603.458 Q134.005 601.953 134.005 599.268 Q134.005 596.583 132.292 595.078 Q130.603 593.573 127.593 593.573 Q124.561 593.573 122.871 595.078 Q121.205 596.583 121.205 599.268 Z" fill="#000000" fill-rule="evenodd" fill-opacity="1" /><path clip-path="url(#clip750)" d="M 0 0 M144.515 619.175 L149.399 619.175 L149.399 625.055 L144.515 625.055 L144.515 619.175 Z" fill="#000000" fill-rule="evenodd" fill-opacity="1" /><path clip-path="url(#clip750)" d="M 0 0 M164.468 593.573 Q160.857 593.573 159.028 597.138 Q157.223 600.68 157.223 607.809 Q157.223 614.916 159.028 618.481 Q160.857 622.022 164.468 622.022 Q168.102 622.022 169.908 618.481 Q171.737 614.916 171.737 607.809 Q171.737 600.68 169.908 597.138 Q168.102 593.573 164.468 593.573 M164.468 589.87 Q170.278 589.87 173.334 594.476 Q176.413 599.059 176.413 607.809 Q176.413 616.536 173.334 621.143 Q170.278 625.726 164.468 625.726 Q158.658 625.726 155.579 621.143 Q152.524 616.536 152.524 607.809 Q152.524 599.059 155.579 594.476 Q158.658 589.87 164.468 589.87 Z" fill="#000000" fill-rule="evenodd" fill-opacity="1" /><path clip-path="url(#clip750)" d="M 0 0 M209.653 599.592 L199.075 610.217 L209.653 620.795 L206.899 623.596 L196.274 612.971 L185.649 623.596 L182.917 620.795 L193.473 610.217 L182.917 599.592 L185.649 596.791 L196.274 607.416 L206.899 596.791 L209.653 599.592 Z" fill="#000000" fill-rule="evenodd" fill-opacity="1" /><path clip-path="url(#clip750)" d="M 0 0 M215.533 621.12 L223.172 621.12 L223.172 594.754 L214.861 596.421 L214.861 592.161 L223.125 590.495 L227.801 590.495 L227.801 621.12 L235.44 621.12 L235.44 625.055 L215.533 625.055 L215.533 621.12 Z" fill="#000000" fill-rule="evenodd" fill-opacity="1" /><path clip-path="url(#clip750)" d="M 0 0 M250.509 593.573 Q246.898 593.573 245.07 597.138 Q243.264 600.68 243.264 607.809 Q243.264 614.916 245.07 618.481 Q246.898 622.022 250.509 622.022 Q254.144 622.022 255.949 618.481 Q257.778 614.916 257.778 607.809 Q257.778 600.68 255.949 597.138 Q254.144 593.573 250.509 593.573 M250.509 589.87 Q256.32 589.87 259.375 594.476 Q262.454 599.059 262.454 607.809 Q262.454 616.536 259.375 621.143 Q256.32 625.726 250.509 625.726 Q244.699 625.726 241.621 621.143 Q238.565 616.536 238.565 607.809 Q238.565 599.059 241.621 594.476 Q244.699 589.87 250.509 589.87 Z" fill="#000000" fill-rule="evenodd" fill-opacity="1" /><path clip-path="url(#clip750)" d="M 0 0 M262.454 583.971 L286.565 583.971 L286.565 587.168 L262.454 587.168 L262.454 583.971 Z" fill="#000000" fill-rule="evenodd" fill-opacity="1" /><path clip-path="url(#clip750)" d="M 0 0 M299.279 582.09 Q296.722 582.09 295.217 583.839 Q293.731 585.589 293.731 588.635 Q293.731 591.663 295.217 593.431 Q296.722 595.18 299.279 595.18 Q301.837 595.18 303.323 593.431 Q304.828 591.663 304.828 588.635 Q304.828 585.589 303.323 583.839 Q301.837 582.09 299.279 582.09 M306.821 570.185 L306.821 573.646 Q305.392 572.969 303.925 572.611 Q302.477 572.254 301.047 572.254 Q297.286 572.254 295.292 574.793 Q293.317 577.332 293.035 582.466 Q294.145 580.83 295.819 579.965 Q297.493 579.081 299.505 579.081 Q303.737 579.081 306.182 581.658 Q308.646 584.216 308.646 588.635 Q308.646 592.961 306.088 595.575 Q303.53 598.19 299.279 598.19 Q294.408 598.19 291.832 594.466 Q289.255 590.723 289.255 583.633 Q289.255 576.975 292.415 573.025 Q295.574 569.056 300.897 569.056 Q302.326 569.056 303.774 569.339 Q305.241 569.621 306.821 570.185 Z" fill="#000000" fill-rule="evenodd" fill-opacity="1" /><path clip-path="url(#clip750)" d="M 0 0 M120.478 425.392 L128.117 425.392 L128.117 399.026 L119.807 400.693 L119.807 396.433 L128.071 394.767 L132.747 394.767 L132.747 425.392 L140.386 425.392 L140.386 429.327 L120.478 429.327 L120.478 425.392 Z" fill="#000000" fill-rule="evenodd" fill-opacity="1" /><path clip-path="url(#clip750)" d="M 0 0 M145.455 423.447 L150.339 423.447 L150.339 429.327 L145.455 429.327 L145.455 423.447 Z" fill="#000000" fill-rule="evenodd" fill-opacity="1" /><path clip-path="url(#clip750)" d="M 0 0 M165.409 397.846 Q161.798 397.846 159.969 401.41 Q158.163 404.952 158.163 412.082 Q158.163 419.188 159.969 422.753 Q161.798 426.294 165.409 426.294 Q169.043 426.294 170.848 422.753 Q172.677 419.188 172.677 412.082 Q172.677 404.952 170.848 401.41 Q169.043 397.846 165.409 397.846 M165.409 394.142 Q171.219 394.142 174.274 398.748 Q177.353 403.332 177.353 412.082 Q177.353 420.808 174.274 425.415 Q171.219 429.998 165.409 429.998 Q159.598 429.998 156.52 425.415 Q153.464 420.808 153.464 412.082 Q153.464 403.332 156.52 398.748 Q159.598 394.142 165.409 394.142 Z" fill="#000000" fill-rule="evenodd" fill-opacity="1" /><path clip-path="url(#clip750)" d="M 0 0 M210.594 403.864 L200.015 414.489 L210.594 425.068 L207.839 427.869 L197.214 417.244 L186.589 427.869 L183.858 425.068 L194.413 414.489 L183.858 403.864 L186.589 401.063 L197.214 411.688 L207.839 401.063 L210.594 403.864 Z" fill="#000000" fill-rule="evenodd" fill-opacity="1" /><path clip-path="url(#clip750)" d="M 0 0 M216.473 425.392 L224.112 425.392 L224.112 399.026 L215.802 400.693 L215.802 396.433 L224.066 394.767 L228.742 394.767 L228.742 425.392 L236.38 425.392 L236.38 429.327 L216.473 429.327 L216.473 425.392 Z" fill="#000000" fill-rule="evenodd" fill-opacity="1" /><path clip-path="url(#clip750)" d="M 0 0 M251.45 397.846 Q247.839 397.846 246.01 401.41 Q244.204 404.952 244.204 412.082 Q244.204 419.188 246.01 422.753 Q247.839 426.294 251.45 426.294 Q255.084 426.294 256.89 422.753 Q258.718 419.188 258.718 412.082 Q258.718 404.952 256.89 401.41 Q255.084 397.846 251.45 397.846 M251.45 394.142 Q257.26 394.142 260.316 398.748 Q263.394 403.332 263.394 412.082 Q263.394 420.808 260.316 425.415 Q257.26 429.998 251.45 429.998 Q245.64 429.998 242.561 425.415 Q239.505 420.808 239.505 412.082 Q239.505 403.332 242.561 398.748 Q245.64 394.142 251.45 394.142 Z" fill="#000000" fill-rule="evenodd" fill-opacity="1" /><path clip-path="url(#clip750)" d="M 0 0 M263.394 388.243 L287.506 388.243 L287.506 391.441 L263.394 391.441 L263.394 388.243 Z" fill="#000000" fill-rule="evenodd" fill-opacity="1" /><path clip-path="url(#clip750)" d="M 0 0 M291.662 373.836 L306.577 373.836 L306.577 377.034 L295.142 377.034 L295.142 383.917 Q295.969 383.635 296.797 383.504 Q297.624 383.353 298.452 383.353 Q303.154 383.353 305.9 385.93 Q308.646 388.506 308.646 392.908 Q308.646 397.44 305.825 399.96 Q303.003 402.462 297.869 402.462 Q296.101 402.462 294.258 402.161 Q292.433 401.86 290.477 401.258 L290.477 397.44 Q292.17 398.362 293.976 398.813 Q295.781 399.265 297.794 399.265 Q301.047 399.265 302.947 397.553 Q304.847 395.842 304.847 392.908 Q304.847 389.974 302.947 388.262 Q301.047 386.55 297.794 386.55 Q296.27 386.55 294.747 386.889 Q293.242 387.228 291.662 387.942 L291.662 373.836 Z" fill="#000000" fill-rule="evenodd" fill-opacity="1" /><path clip-path="url(#clip750)" d="M 0 0 M122.076 229.664 L129.714 229.664 L129.714 203.298 L121.404 204.965 L121.404 200.706 L129.668 199.039 L134.344 199.039 L134.344 229.664 L141.983 229.664 L141.983 233.599 L122.076 233.599 L122.076 229.664 Z" fill="#000000" fill-rule="evenodd" fill-opacity="1" /><path clip-path="url(#clip750)" d="M 0 0 M147.052 227.719 L151.936 227.719 L151.936 233.599 L147.052 233.599 L147.052 227.719 Z" fill="#000000" fill-rule="evenodd" fill-opacity="1" /><path clip-path="url(#clip750)" d="M 0 0 M161.034 229.664 L177.353 229.664 L177.353 233.599 L155.409 233.599 L155.409 229.664 Q158.071 226.909 162.654 222.28 Q167.26 217.627 168.441 216.284 Q170.686 213.761 171.566 212.025 Q172.469 210.266 172.469 208.576 Q172.469 205.821 170.524 204.085 Q168.603 202.349 165.501 202.349 Q163.302 202.349 160.848 203.113 Q158.418 203.877 155.64 205.428 L155.64 200.706 Q158.464 199.571 160.918 198.993 Q163.372 198.414 165.409 198.414 Q170.779 198.414 173.973 201.099 Q177.168 203.784 177.168 208.275 Q177.168 210.405 176.358 212.326 Q175.571 214.224 173.464 216.817 Q172.885 217.488 169.784 220.706 Q166.682 223.9 161.034 229.664 Z" fill="#000000" fill-rule="evenodd" fill-opacity="1" /><path clip-path="url(#clip750)" d="M 0 0 M210.594 208.136 L200.015 218.761 L210.594 229.34 L207.839 232.141 L197.214 221.516 L186.589 232.141 L183.858 229.34 L194.413 218.761 L183.858 208.136 L186.589 205.335 L197.214 215.96 L207.839 205.335 L210.594 208.136 Z" fill="#000000" fill-rule="evenodd" fill-opacity="1" /><path clip-path="url(#clip750)" d="M 0 0 M216.473 229.664 L224.112 229.664 L224.112 203.298 L215.802 204.965 L215.802 200.706 L224.066 199.039 L228.742 199.039 L228.742 229.664 L236.38 229.664 L236.38 233.599 L216.473 233.599 L216.473 229.664 Z" fill="#000000" fill-rule="evenodd" fill-opacity="1" /><path clip-path="url(#clip750)" d="M 0 0 M251.45 202.118 Q247.839 202.118 246.01 205.682 Q244.204 209.224 244.204 216.354 Q244.204 223.46 246.01 227.025 Q247.839 230.567 251.45 230.567 Q255.084 230.567 256.89 227.025 Q258.718 223.46 258.718 216.354 Q258.718 209.224 256.89 205.682 Q255.084 202.118 251.45 202.118 M251.45 198.414 Q257.26 198.414 260.316 203.02 Q263.394 207.604 263.394 216.354 Q263.394 225.08 260.316 229.687 Q257.26 234.27 251.45 234.27 Q245.64 234.27 242.561 229.687 Q239.505 225.08 239.505 216.354 Q239.505 207.604 242.561 203.02 Q245.64 198.414 251.45 198.414 Z" fill="#000000" fill-rule="evenodd" fill-opacity="1" /><path clip-path="url(#clip750)" d="M 0 0 M263.394 192.515 L287.506 192.515 L287.506 195.713 L263.394 195.713 L263.394 192.515 Z" fill="#000000" fill-rule="evenodd" fill-opacity="1" /><path clip-path="url(#clip750)" d="M 0 0 M291.662 178.109 L306.577 178.109 L306.577 181.306 L295.142 181.306 L295.142 188.19 Q295.969 187.907 296.797 187.776 Q297.624 187.625 298.452 187.625 Q303.154 187.625 305.9 190.202 Q308.646 192.779 308.646 197.18 Q308.646 201.712 305.825 204.233 Q303.003 206.734 297.869 206.734 Q296.101 206.734 294.258 206.433 Q292.433 206.132 290.477 205.53 L290.477 201.712 Q292.17 202.634 293.976 203.085 Q295.781 203.537 297.794 203.537 Q301.047 203.537 302.947 201.825 Q304.847 200.114 304.847 197.18 Q304.847 194.246 302.947 192.534 Q301.047 190.823 297.794 190.823 Q296.27 190.823 294.747 191.161 Q293.242 191.5 291.662 192.214 L291.662 178.109 Z" fill="#000000" fill-rule="evenodd" fill-opacity="1" /><path clip-path="url(#clip750)" d="M 0 0 M70.0847 993.691 Q70.0847 1000.79 71.7079 1003.53 Q73.3312 1006.26 77.2461 1006.26 Q80.3653 1006.26 82.2114 1004.23 Q84.0256 1002.16 84.0256 998.625 Q84.0256 993.755 80.5881 990.827 Q77.1188 987.867 71.3897 987.867 L70.0847 987.867 L70.0847 993.691 M67.6657 982.01 L88.0042 982.01 L88.0042 987.867 L82.5933 987.867 Q85.8398 989.872 87.3994 992.864 Q88.9272 995.856 88.9272 1000.18 Q88.9272 1005.66 85.8716 1008.91 Q82.7843 1012.12 77.6281 1012.12 Q71.6125 1012.12 68.5569 1008.11 Q65.5014 1004.07 65.5014 996.079 L65.5014 987.867 L64.9285 987.867 Q60.8862 987.867 58.6901 990.54 Q56.4621 993.182 56.4621 997.988 Q56.4621 1001.04 57.1941 1003.94 Q57.9262 1006.84 59.3903 1009.51 L53.9795 1009.51 Q52.7381 1006.3 52.1334 1003.27 Q51.4968 1000.25 51.4968 997.384 Q51.4968 989.649 55.5072 985.83 Q59.5176 982.01 67.6657 982.01 Z" fill="#000000" fill-rule="evenodd" fill-opacity="1" /><path clip-path="url(#clip750)" d="M 0 0 M53.7248 950.214 L59.1993 950.214 Q57.8307 952.696 57.1623 955.211 Q56.4621 957.693 56.4621 960.24 Q56.4621 965.937 60.0905 969.088 Q63.6872 972.239 70.212 972.239 Q76.7369 972.239 80.3653 969.088 Q83.9619 965.937 83.9619 960.24 Q83.9619 957.693 83.2935 955.211 Q82.5933 952.696 81.2247 950.214 L86.6355 950.214 Q87.7814 952.665 88.3543 955.306 Q88.9272 957.916 88.9272 960.876 Q88.9272 968.929 83.8664 973.671 Q78.8057 978.414 70.212 978.414 Q61.491 978.414 56.4939 973.64 Q51.4968 968.833 51.4968 960.494 Q51.4968 957.789 52.0697 955.211 Q52.6108 952.633 53.7248 950.214 Z" fill="#000000" fill-rule="evenodd" fill-opacity="1" /><path clip-path="url(#clip750)" d="M 0 0 M53.7248 918.417 L59.1993 918.417 Q57.8307 920.9 57.1623 923.414 Q56.4621 925.897 56.4621 928.443 Q56.4621 934.14 60.0905 937.291 Q63.6872 940.442 70.212 940.442 Q76.7369 940.442 80.3653 937.291 Q83.9619 934.14 83.9619 928.443 Q83.9619 925.897 83.2935 923.414 Q82.5933 920.9 81.2247 918.417 L86.6355 918.417 Q87.7814 920.868 88.3543 923.51 Q88.9272 926.12 88.9272 929.08 Q88.9272 937.132 83.8664 941.875 Q78.8057 946.617 70.212 946.617 Q61.491 946.617 56.4939 941.843 Q51.4968 937.037 51.4968 928.698 Q51.4968 925.992 52.0697 923.414 Q52.6108 920.836 53.7248 918.417 Z" fill="#000000" fill-rule="evenodd" fill-opacity="1" /><path clip-path="url(#clip750)" d="M 0 0 M57.8307 891.617 Q57.2578 892.604 57.0032 893.782 Q56.7167 894.928 56.7167 896.328 Q56.7167 901.293 59.9632 903.967 Q63.1779 906.609 69.2253 906.609 L88.0042 906.609 L88.0042 912.497 L52.3562 912.497 L52.3562 906.609 L57.8944 906.609 Q54.6479 904.763 53.0883 901.803 Q51.4968 898.842 51.4968 894.609 Q51.4968 894.005 51.5923 893.272 Q51.656 892.54 51.8151 891.649 L57.8307 891.617 Z" fill="#000000" fill-rule="evenodd" fill-opacity="1" /><path clip-path="url(#clip750)" d="M 0 0 M68.7161 856.415 L71.5806 856.415 L71.5806 883.342 Q77.6281 882.96 80.8109 879.714 Q83.9619 876.435 83.9619 870.611 Q83.9619 867.237 83.1344 864.086 Q82.3069 860.903 80.6518 857.784 L86.1899 857.784 Q87.5267 860.935 88.227 864.245 Q88.9272 867.555 88.9272 870.961 Q88.9272 879.491 83.9619 884.488 Q78.9967 889.453 70.5303 889.453 Q61.7774 889.453 56.6531 884.742 Q51.4968 880 51.4968 871.979 Q51.4968 864.786 56.1438 860.616 Q60.7589 856.415 68.7161 856.415 M66.9973 862.271 Q62.1912 862.335 59.3266 864.977 Q56.4621 867.587 56.4621 871.916 Q56.4621 876.817 59.2312 879.777 Q62.0002 882.705 67.0292 883.151 L66.9973 862.271 Z" fill="#000000" fill-rule="evenodd" fill-opacity="1" /><path clip-path="url(#clip750)" d="M 0 0 M42.2347 844.479 L52.3562 844.479 L52.3562 832.416 L56.9077 832.416 L56.9077 844.479 L76.2594 844.479 Q80.6199 844.479 81.8613 843.302 Q83.1026 842.092 83.1026 838.432 L83.1026 832.416 L88.0042 832.416 L88.0042 838.432 Q88.0042 845.211 85.4897 847.789 Q82.9434 850.368 76.2594 850.368 L56.9077 850.368 L56.9077 854.664 L52.3562 854.664 L52.3562 850.368 L42.2347 850.368 L42.2347 844.479 Z" fill="#000000" fill-rule="evenodd" fill-opacity="1" /><path clip-path="url(#clip750)" d="M 0 0 M52.3562 826.273 L52.3562 820.417 L88.0042 820.417 L88.0042 826.273 L52.3562 826.273 M38.479 826.273 L38.479 820.417 L45.895 820.417 L45.895 826.273 L38.479 826.273 Z" fill="#000000" fill-rule="evenodd" fill-opacity="1" /><path clip-path="url(#clip750)" d="M 0 0 M56.4621 800.46 Q56.4621 805.171 60.1542 807.908 Q63.8145 810.646 70.212 810.646 Q76.6095 810.646 80.3017 807.94 Q83.9619 805.203 83.9619 800.46 Q83.9619 795.782 80.2698 793.044 Q76.5777 790.307 70.212 790.307 Q63.8781 790.307 60.186 793.044 Q56.4621 795.782 56.4621 800.46 M51.4968 800.46 Q51.4968 792.822 56.4621 788.461 Q61.4273 784.101 70.212 784.101 Q78.9649 784.101 83.9619 788.461 Q88.9272 792.822 88.9272 800.46 Q88.9272 808.131 83.9619 812.492 Q78.9649 816.82 70.212 816.82 Q61.4273 816.82 56.4621 812.492 Q51.4968 808.131 51.4968 800.46 Z" fill="#000000" fill-rule="evenodd" fill-opacity="1" /><path clip-path="url(#clip750)" d="M 0 0 M66.4881 748.325 L88.0042 748.325 L88.0042 754.182 L66.679 754.182 Q61.6183 754.182 59.1038 756.155 Q56.5894 758.129 56.5894 762.075 Q56.5894 766.818 59.6131 769.555 Q62.6368 772.292 67.8567 772.292 L88.0042 772.292 L88.0042 778.18 L52.3562 778.18 L52.3562 772.292 L57.8944 772.292 Q54.6797 770.192 53.0883 767.359 Q51.4968 764.494 51.4968 760.77 Q51.4968 754.627 55.3163 751.476 Q59.1038 748.325 66.4881 748.325 Z" fill="#000000" fill-rule="evenodd" fill-opacity="1" /><path clip-path="url(#clip750)" d="M 0 0 M57.8307 700.805 Q57.2578 701.792 57.0032 702.97 Q56.7167 704.115 56.7167 705.516 Q56.7167 710.481 59.9632 713.155 Q63.1779 715.797 69.2253 715.797 L88.0042 715.797 L88.0042 721.685 L52.3562 721.685 L52.3562 715.797 L57.8944 715.797 Q54.6479 713.951 53.0883 710.99 Q51.4968 708.03 51.4968 703.797 Q51.4968 703.192 51.5923 702.46 Q51.656 701.728 51.8151 700.837 L57.8307 700.805 Z" fill="#000000" fill-rule="evenodd" fill-opacity="1" /><path clip-path="url(#clip750)" d="M 0 0 M70.0847 678.462 Q70.0847 685.559 71.7079 688.297 Q73.3312 691.034 77.2461 691.034 Q80.3653 691.034 82.2114 688.997 Q84.0256 686.928 84.0256 683.395 Q84.0256 678.525 80.5881 675.597 Q77.1188 672.637 71.3897 672.637 L70.0847 672.637 L70.0847 678.462 M67.6657 666.781 L88.0042 666.781 L88.0042 672.637 L82.5933 672.637 Q85.8398 674.642 87.3994 677.634 Q88.9272 680.626 88.9272 684.955 Q88.9272 690.429 85.8716 693.676 Q82.7843 696.89 77.6281 696.89 Q71.6125 696.89 68.5569 692.88 Q65.5014 688.838 65.5014 680.849 L65.5014 672.637 L64.9285 672.637 Q60.8862 672.637 58.6901 675.311 Q56.4621 677.952 56.4621 682.759 Q56.4621 685.814 57.1941 688.71 Q57.9262 691.607 59.3903 694.28 L53.9795 694.28 Q52.7381 691.066 52.1334 688.042 Q51.4968 685.018 51.4968 682.154 Q51.4968 674.419 55.5072 670.6 Q59.5176 666.781 67.6657 666.781 Z" fill="#000000" fill-rule="evenodd" fill-opacity="1" /><path clip-path="url(#clip750)" d="M 0 0 M42.2347 654.845 L52.3562 654.845 L52.3562 642.782 L56.9077 642.782 L56.9077 654.845 L76.2594 654.845 Q80.6199 654.845 81.8613 653.667 Q83.1026 652.458 83.1026 648.798 L83.1026 642.782 L88.0042 642.782 L88.0042 648.798 Q88.0042 655.577 85.4897 658.155 Q82.9434 660.733 76.2594 660.733 L56.9077 660.733 L56.9077 665.03 L52.3562 665.03 L52.3562 660.733 L42.2347 660.733 L42.2347 654.845 Z" fill="#000000" fill-rule="evenodd" fill-opacity="1" /><path clip-path="url(#clip750)" d="M 0 0 M68.7161 606.147 L71.5806 606.147 L71.5806 633.074 Q77.6281 632.692 80.8109 629.446 Q83.9619 626.167 83.9619 620.343 Q83.9619 616.969 83.1344 613.818 Q82.3069 610.635 80.6518 607.516 L86.1899 607.516 Q87.5267 610.667 88.227 613.977 Q88.9272 617.287 88.9272 620.693 Q88.9272 629.223 83.9619 634.22 Q78.9967 639.185 70.5303 639.185 Q61.7774 639.185 56.6531 634.475 Q51.4968 629.732 51.4968 621.711 Q51.4968 614.518 56.1438 610.349 Q60.7589 606.147 68.7161 606.147 M66.9973 612.004 Q62.1912 612.067 59.3266 614.709 Q56.4621 617.319 56.4621 621.648 Q56.4621 626.549 59.2312 629.509 Q62.0002 632.438 67.0292 632.883 L66.9973 612.004 Z" fill="#000000" fill-rule="evenodd" fill-opacity="1" /><path clip-path="url(#clip750)" d="M 0 0 M38.479 579.825 L38.479 566.33 L43.0304 566.33 L43.0304 573.969 L92.0464 573.969 L92.0464 566.33 L96.5979 566.33 L96.5979 579.825 L38.479 579.825 Z" fill="#000000" fill-rule="evenodd" fill-opacity="1" /><path clip-path="url(#clip750)" d="M 0 0 M82.5933 558.245 L82.5933 547.742 L46.3406 547.742 L48.6323 559.168 L42.7758 559.168 L40.4842 547.806 L40.4842 541.376 L82.5933 541.376 L82.5933 530.873 L88.0042 530.873 L88.0042 558.245 L82.5933 558.245 Z" fill="#000000" fill-rule="evenodd" fill-opacity="1" /><path clip-path="url(#clip750)" d="M 0 0 M40.4842 514.322 L40.4842 508.911 L94.0516 525.462 L94.0516 530.873 L40.4842 514.322 Z" fill="#000000" fill-rule="evenodd" fill-opacity="1" /><path clip-path="url(#clip750)" d="M 0 0 M53.4065 480.043 L58.9447 480.043 Q57.6716 482.525 57.035 485.199 Q56.3984 487.872 56.3984 490.737 Q56.3984 495.098 57.7352 497.294 Q59.072 499.458 61.7456 499.458 Q63.7826 499.458 64.9603 497.898 Q66.1061 496.339 67.1565 491.628 L67.6021 489.623 Q68.9389 483.385 71.3897 480.775 Q73.8086 478.133 78.1691 478.133 Q83.1344 478.133 86.0308 482.08 Q88.9272 485.995 88.9272 492.87 Q88.9272 495.734 88.3543 498.853 Q87.8132 501.941 86.6992 505.378 L80.6518 505.378 Q82.3387 502.132 83.198 498.981 Q84.0256 495.83 84.0256 492.742 Q84.0256 488.604 82.6251 486.376 Q81.1929 484.148 78.6147 484.148 Q76.2276 484.148 74.9545 485.772 Q73.6813 487.363 72.5037 492.806 L72.0262 494.843 Q70.8804 500.286 68.5251 502.705 Q66.138 505.124 62.0002 505.124 Q56.9713 505.124 54.2341 501.559 Q51.4968 497.994 51.4968 491.437 Q51.4968 488.191 51.9743 485.326 Q52.4517 482.462 53.4065 480.043 Z" fill="#000000" fill-rule="evenodd" fill-opacity="1" /><path clip-path="url(#clip750)" d="M 0 0 M38.479 458.304 L96.5979 458.304 L96.5979 471.799 L92.0464 471.799 L92.0464 464.192 L43.0304 464.192 L43.0304 471.799 L38.479 471.799 L38.479 458.304 Z" fill="#000000" fill-rule="evenodd" fill-opacity="1" /><polyline clip-path="url(#clip752)" style="stroke:#009af9; stroke-width:12; stroke-opacity:1; fill:none" points="
  401.479,1384.23 420.615,1365.61 439.751,1350.07 458.886,1335.52 478.022,1321.57 497.158,1308.06 516.294,1294.89 535.43,1281.99 554.565,1269.31 573.701,1256.84 
  592.837,1244.53 611.973,1232.38 631.109,1220.37 650.244,1208.48 669.38,1196.71 688.516,1185.04 707.652,1173.47 726.787,1161.99 745.923,1150.59 765.059,1139.27 
  784.195,1128.02 803.331,1116.85 822.466,1105.74 841.602,1094.69 860.738,1083.71 879.874,1072.78 899.01,1061.91 918.145,1051.08 937.281,1040.31 956.417,1029.59 
  975.553,1018.91 994.689,1008.28 1013.82,997.685 1032.96,987.136 1052.1,976.626 1071.23,966.156 1090.37,955.722 1109.5,945.325 1128.64,934.962 1147.77,924.634 
  1166.91,914.339 1186.05,904.076 1205.18,893.844 1224.32,883.642 1243.45,873.471 1262.59,863.328 1281.73,853.213 1300.86,843.125 1320,833.065 1339.13,823.03 
  1358.27,813.022 1377.4,803.038 1396.54,793.078 1415.68,783.143 1434.81,773.231 1453.95,763.342 1473.08,753.475 1492.22,743.63 1511.36,733.807 1530.49,724.005 
  1549.63,714.224 1568.76,704.463 1587.9,694.722 1607.03,685.001 1626.17,675.299 1645.31,665.615 1664.44,655.951 1683.58,646.305 1702.71,636.677 1721.85,627.066 
  1740.98,617.473 1760.12,607.897 1779.26,598.338 1798.39,588.795 1817.53,579.269 1836.66,569.759 1855.8,560.264 1874.94,550.785 1894.07,541.322 1913.21,531.874 
  1932.34,522.441 1951.48,513.022 1970.61,503.618 1989.75,494.228 2008.89,484.853 2028.02,475.491 2047.16,466.143 2066.29,456.809 2085.43,447.488 2104.56,438.18 
  2123.7,428.886 2142.84,419.604 2161.97,410.335 2181.11,401.079 2200.24,391.835 2219.38,382.603 2238.52,373.383 2257.65,364.176 2276.79,354.98 2295.92,345.796 
  
  "/>
<polyline clip-path="url(#clip752)" style="stroke:#e26f46; stroke-width:12; stroke-opacity:1; fill:none" points="
  401.479,1384.23 420.615,1360.95 439.751,1341.53 458.886,1323.34 478.022,1305.91 497.158,1289.02 516.294,1272.55 535.43,1256.42 554.565,1240.58 573.701,1224.99 
  592.837,1209.61 611.973,1194.42 631.109,1179.41 650.244,1164.55 669.38,1149.83 688.516,1135.24 707.652,1120.78 726.787,1106.42 745.923,1092.17 765.059,1078.03 
  784.195,1063.97 803.331,1050 822.466,1036.11 841.602,1022.31 860.738,1008.58 879.874,994.914 899.01,981.322 918.145,967.794 937.281,954.329 956.417,940.924 
  975.553,927.577 994.689,914.285 1013.82,901.047 1032.96,887.86 1052.1,874.723 1071.23,861.635 1090.37,848.593 1109.5,835.596 1128.64,822.643 1147.77,809.733 
  1166.91,796.864 1186.05,784.035 1205.18,771.245 1224.32,758.493 1243.45,745.779 1262.59,733.1 1281.73,720.456 1300.86,707.847 1320,695.271 1339.13,682.728 
  1358.27,670.217 1377.4,657.738 1396.54,645.288 1415.68,632.869 1434.81,620.479 1453.95,608.117 1473.08,595.784 1492.22,583.478 1511.36,571.199 1530.49,558.947 
  1549.63,546.72 1568.76,534.519 1587.9,522.343 1607.03,510.191 1626.17,498.064 1645.31,485.96 1664.44,473.879 1683.58,461.821 1702.71,449.786 1721.85,437.773 
  1740.98,425.781 1760.12,413.811 1779.26,401.862 1798.39,389.934 1817.53,378.026 1836.66,366.139 1855.8,354.271 1874.94,342.422 1894.07,330.593 1913.21,318.783 
  1932.34,306.991 1951.48,295.218 1970.61,283.463 1989.75,271.726 2008.89,260.006 2028.02,248.304 2047.16,236.619 2066.29,224.951 2085.43,213.3 2104.56,201.666 
  2123.7,190.047 2142.84,178.445 2161.97,166.859 2181.11,155.289 2200.24,143.734 2219.38,132.194 2238.52,120.67 2257.65,109.16 2276.79,97.6656 2295.92,86.1857 
  
  "/>
<polyline clip-path="url(#clip752)" style="stroke:#3da44d; stroke-width:12; stroke-opacity:1; fill:none" points="
  401.479,1384.24 420.615,1381.98 439.751,1379.62 458.886,1377.23 478.022,1374.81 497.158,1372.37 516.294,1369.91 535.43,1367.44 554.565,1364.97 573.701,1362.48 
  592.837,1359.98 611.973,1357.48 631.109,1354.97 650.244,1352.45 669.38,1349.92 688.516,1347.4 707.652,1344.86 726.787,1342.32 745.923,1339.78 765.059,1337.23 
  784.195,1334.68 803.331,1332.12 822.466,1329.56 841.602,1327 860.738,1324.43 879.874,1321.86 899.01,1319.29 918.145,1316.71 937.281,1314.13 956.417,1311.55 
  975.553,1308.96 994.689,1306.37 1013.82,1303.78 1032.96,1301.19 1052.1,1298.59 1071.23,1296 1090.37,1293.4 1109.5,1290.79 1128.64,1288.19 1147.77,1285.58 
  1166.91,1282.97 1186.05,1280.36 1205.18,1277.75 1224.32,1275.14 1243.45,1272.52 1262.59,1269.9 1281.73,1267.28 1300.86,1264.66 1320,1262.04 1339.13,1259.41 
  1358.27,1256.78 1377.4,1254.16 1396.54,1251.53 1415.68,1248.89 1434.81,1246.26 1453.95,1243.63 1473.08,1240.99 1492.22,1238.35 1511.36,1235.71 1530.49,1233.07 
  1549.63,1230.43 1568.76,1227.79 1587.9,1225.14 1607.03,1222.5 1626.17,1219.85 1645.31,1217.2 1664.44,1214.55 1683.58,1211.9 1702.71,1209.25 1721.85,1206.6 
  1740.98,1203.94 1760.12,1201.29 1779.26,1198.63 1798.39,1195.97 1817.53,1193.31 1836.66,1190.65 1855.8,1187.99 1874.94,1185.33 1894.07,1182.67 1913.21,1180 
  1932.34,1177.34 1951.48,1174.67 1970.61,1172 1989.75,1169.33 2008.89,1166.66 2028.02,1163.99 2047.16,1161.32 2066.29,1158.65 2085.43,1155.98 2104.56,1153.3 
  2123.7,1150.63 2142.84,1147.95 2161.97,1145.27 2181.11,1142.59 2200.24,1139.92 2219.38,1137.24 2238.52,1134.55 2257.65,1131.87 2276.79,1129.19 2295.92,1126.51 
  
  "/>
<polyline clip-path="url(#clip752)" style="stroke:#c271d2; stroke-width:16; stroke-opacity:1; fill:none" stroke-dasharray="64, 40" points="
  401.479,1384.24 420.615,1381.98 439.751,1379.62 458.886,1377.23 478.022,1374.81 497.158,1372.37 516.294,1369.91 535.43,1367.44 554.565,1364.97 573.701,1362.48 
  592.837,1359.98 611.973,1357.48 631.109,1354.97 650.244,1352.45 669.38,1349.92 688.516,1347.4 707.652,1344.86 726.787,1342.32 745.923,1339.78 765.059,1337.23 
  784.195,1334.68 803.331,1332.12 822.466,1329.56 841.602,1327 860.738,1324.43 879.874,1321.86 899.01,1319.29 918.145,1316.71 937.281,1314.13 956.417,1311.55 
  975.553,1308.96 994.689,1306.37 1013.82,1303.78 1032.96,1301.19 1052.1,1298.59 1071.23,1296 1090.37,1293.4 1109.5,1290.79 1128.64,1288.19 1147.77,1285.58 
  1166.91,1282.97 1186.05,1280.36 1205.18,1277.75 1224.32,1275.14 1243.45,1272.52 1262.59,1269.9 1281.73,1267.28 1300.86,1264.66 1320,1262.04 1339.13,1259.41 
  1358.27,1256.78 1377.4,1254.16 1396.54,1251.53 1415.68,1248.89 1434.81,1246.26 1453.95,1243.63 1473.08,1240.99 1492.22,1238.35 1511.36,1235.71 1530.49,1233.07 
  1549.63,1230.43 1568.76,1227.79 1587.9,1225.14 1607.03,1222.5 1626.17,1219.85 1645.31,1217.2 1664.44,1214.55 1683.58,1211.9 1702.71,1209.25 1721.85,1206.6 
  1740.98,1203.94 1760.12,1201.29 1779.26,1198.63 1798.39,1195.97 1817.53,1193.31 1836.66,1190.65 1855.8,1187.99 1874.94,1185.33 1894.07,1182.67 1913.21,1180 
  1932.34,1177.34 1951.48,1174.67 1970.61,1172 1989.75,1169.33 2008.89,1166.66 2028.02,1163.99 2047.16,1161.32 2066.29,1158.65 2085.43,1155.98 2104.56,1153.3 
  2123.7,1150.63 2142.84,1147.95 2161.97,1145.27 2181.11,1142.59 2200.24,1139.92 2219.38,1137.24 2238.52,1134.55 2257.65,1131.87 2276.79,1129.19 2295.92,1126.51 
  
  "/>
<polyline clip-path="url(#clip752)" style="stroke:#ac8d18; stroke-width:12; stroke-opacity:1; fill:none" points="
  401.479,1384.23 420.615,1364.79 439.751,1348.57 458.886,1333.38 478.022,1318.82 497.158,1304.71 516.294,1290.96 535.43,1277.49 554.565,1264.26 573.701,1251.24 
  592.837,1238.39 611.973,1225.71 631.109,1213.17 650.244,1200.76 669.38,1188.47 688.516,1176.28 707.652,1164.2 726.787,1152.22 745.923,1140.32 765.059,1128.5 
  784.195,1116.76 803.331,1105.09 822.466,1093.5 841.602,1081.97 860.738,1070.5 879.874,1059.09 899.01,1047.74 918.145,1036.44 937.281,1025.19 956.417,1014 
  975.553,1002.85 994.689,991.75 1013.82,980.693 1032.96,969.68 1052.1,958.709 1071.23,947.778 1090.37,936.886 1109.5,926.031 1128.64,915.213 1147.77,904.431 
  1166.91,893.683 1186.05,882.969 1205.18,872.287 1224.32,861.638 1243.45,851.019 1262.59,840.43 1281.73,829.87 1300.86,819.339 1320,808.837 1339.13,798.361 
  1358.27,787.912 1377.4,777.49 1396.54,767.092 1415.68,756.72 1434.81,746.372 1453.95,736.049 1473.08,725.748 1492.22,715.471 1511.36,705.216 1530.49,694.983 
  1549.63,684.772 1568.76,674.582 1587.9,664.412 1607.03,654.264 1626.17,644.135 1645.31,634.027 1664.44,623.937 1683.58,613.867 1702.71,603.816 1721.85,593.783 
  1740.98,583.768 1760.12,573.771 1779.26,563.791 1798.39,553.829 1817.53,543.884 1836.66,533.956 1855.8,524.044 1874.94,514.149 1894.07,504.27 1913.21,494.406 
  1932.34,484.558 1951.48,474.725 1970.61,464.908 1989.75,455.106 2008.89,445.318 2028.02,435.545 2047.16,425.786 2066.29,416.041 2085.43,406.311 2104.56,396.594 
  2123.7,386.891 2142.84,377.201 2161.97,367.525 2181.11,357.861 2200.24,348.211 2219.38,338.573 2238.52,328.949 2257.65,319.336 2276.79,309.737 2295.92,300.149 
  
  "/>
<path clip-path="url(#clip750)" d="
M1677.05 455.989 L2285.82 455.989 L2285.82 93.1086 L1677.05 93.1086  Z
  " fill="#ffffff" fill-rule="evenodd" fill-opacity="1"/>
<polyline clip-path="url(#clip750)" style="stroke:#000000; stroke-width:4; stroke-opacity:1; fill:none" points="
  1677.05,455.989 2285.82,455.989 2285.82,93.1086 1677.05,93.1086 1677.05,455.989 
  "/>
<polyline clip-path="url(#clip750)" style="stroke:#009af9; stroke-width:4; stroke-opacity:1; fill:none" points="
  1699.36,153.589 1833.24,153.589 
  "/>
<path clip-path="url(#clip750)" d="M 0 0 M1855.55 136.309 L1860.22 136.309 L1860.22 166.933 L1877.05 166.933 L1877.05 170.869 L1855.55 170.869 L1855.55 136.309 Z" fill="#000000" fill-rule="evenodd" fill-opacity="1" /><path clip-path="url(#clip750)" d="M 0 0 M1881.52 144.943 L1885.78 144.943 L1885.78 170.869 L1881.52 170.869 L1881.52 144.943 M1881.52 134.85 L1885.78 134.85 L1885.78 140.244 L1881.52 140.244 L1881.52 134.85 Z" fill="#000000" fill-rule="evenodd" fill-opacity="1" /><path clip-path="url(#clip750)" d="M 0 0 M1892.79 157.929 Q1892.79 162.628 1894.71 165.313 Q1896.66 167.975 1900.04 167.975 Q1903.42 167.975 1905.36 165.313 Q1907.31 162.628 1907.31 157.929 Q1907.31 153.23 1905.36 150.568 Q1903.42 147.883 1900.04 147.883 Q1896.66 147.883 1894.71 150.568 Q1892.79 153.23 1892.79 157.929 M1907.31 166.98 Q1905.96 169.295 1903.9 170.429 Q1901.87 171.54 1899 171.54 Q1894.3 171.54 1891.33 167.79 Q1888.4 164.04 1888.4 157.929 Q1888.4 151.818 1891.33 148.068 Q1894.3 144.318 1899 144.318 Q1901.87 144.318 1903.9 145.452 Q1905.96 146.563 1907.31 148.878 L1907.31 144.943 L1911.57 144.943 L1911.57 180.73 L1907.31 180.73 L1907.31 166.98 Z" fill="#000000" fill-rule="evenodd" fill-opacity="1" /><path clip-path="url(#clip750)" d="M 0 0 M1933.37 141.147 L1933.37 154.04 L1946.27 154.04 L1946.27 157.975 L1933.37 157.975 L1933.37 170.869 L1929.48 170.869 L1929.48 157.975 L1916.59 157.975 L1916.59 154.04 L1929.48 154.04 L1929.48 141.147 L1933.37 141.147 Z" fill="#000000" fill-rule="evenodd" fill-opacity="1" /><path clip-path="url(#clip750)" d="M 0 0 M1967.31 154.665 Q1968.81 155.174 1970.22 156.841 Q1971.66 158.508 1973.09 161.424 L1977.84 170.869 L1972.82 170.869 L1968.39 162.003 Q1966.68 158.531 1965.06 157.396 Q1963.46 156.262 1960.69 156.262 L1955.59 156.262 L1955.59 170.869 L1950.92 170.869 L1950.92 136.309 L1961.47 136.309 Q1967.4 136.309 1970.32 138.785 Q1973.23 141.262 1973.23 146.262 Q1973.23 149.526 1971.7 151.679 Q1970.2 153.832 1967.31 154.665 M1955.59 140.151 L1955.59 152.42 L1961.47 152.42 Q1964.85 152.42 1966.57 150.869 Q1968.3 149.295 1968.3 146.262 Q1968.3 143.23 1966.57 141.702 Q1964.85 140.151 1961.47 140.151 L1955.59 140.151 Z" fill="#000000" fill-rule="evenodd" fill-opacity="1" /><path clip-path="url(#clip750)" d="M 0 0 M1993.05 157.836 Q1987.89 157.836 1985.89 159.017 Q1983.9 160.197 1983.9 163.045 Q1983.9 165.313 1985.39 166.656 Q1986.89 167.975 1989.46 167.975 Q1993 167.975 1995.13 165.475 Q1997.28 162.952 1997.28 158.785 L1997.28 157.836 L1993.05 157.836 M2001.54 156.077 L2001.54 170.869 L1997.28 170.869 L1997.28 166.933 Q1995.83 169.295 1993.65 170.429 Q1991.47 171.54 1988.33 171.54 Q1984.34 171.54 1981.98 169.318 Q1979.64 167.072 1979.64 163.322 Q1979.64 158.947 1982.56 156.725 Q1985.5 154.503 1991.31 154.503 L1997.28 154.503 L1997.28 154.086 Q1997.28 151.147 1995.34 149.549 Q1993.42 147.929 1989.92 147.929 Q1987.7 147.929 1985.59 148.461 Q1983.49 148.994 1981.54 150.059 L1981.54 146.123 Q1983.88 145.221 1986.08 144.781 Q1988.28 144.318 1990.36 144.318 Q1995.99 144.318 1998.76 147.234 Q2001.54 150.151 2001.54 156.077 Z" fill="#000000" fill-rule="evenodd" fill-opacity="1" /><path clip-path="url(#clip750)" d="M 0 0 M2006.01 144.943 L2010.27 144.943 L2010.27 170.869 L2006.01 170.869 L2006.01 144.943 M2006.01 134.85 L2010.27 134.85 L2010.27 140.244 L2006.01 140.244 L2006.01 134.85 Z" fill="#000000" fill-rule="evenodd" fill-opacity="1" /><path clip-path="url(#clip750)" d="M 0 0 M2036.29 155.221 L2036.29 170.869 L2032.03 170.869 L2032.03 155.359 Q2032.03 151.679 2030.59 149.85 Q2029.16 148.022 2026.29 148.022 Q2022.84 148.022 2020.85 150.221 Q2018.86 152.42 2018.86 156.216 L2018.86 170.869 L2014.58 170.869 L2014.58 144.943 L2018.86 144.943 L2018.86 148.971 Q2020.39 146.633 2022.45 145.475 Q2024.53 144.318 2027.24 144.318 Q2031.7 144.318 2034 147.096 Q2036.29 149.85 2036.29 155.221 Z" fill="#000000" fill-rule="evenodd" fill-opacity="1" /><path clip-path="url(#clip750)" d="M 0 0 M2038.6 155.984 L2051.08 155.984 L2051.08 159.781 L2038.6 159.781 L2038.6 155.984 Z" fill="#000000" fill-rule="evenodd" fill-opacity="1" /><path clip-path="url(#clip750)" d="M 0 0 M2081.61 138.971 L2081.61 143.901 Q2079.25 141.702 2076.57 140.614 Q2073.9 139.526 2070.89 139.526 Q2064.97 139.526 2061.82 143.16 Q2058.67 146.772 2058.67 153.623 Q2058.67 160.452 2061.82 164.086 Q2064.97 167.697 2070.89 167.697 Q2073.9 167.697 2076.57 166.609 Q2079.25 165.521 2081.61 163.322 L2081.61 168.207 Q2079.16 169.873 2076.4 170.707 Q2073.67 171.54 2070.62 171.54 Q2062.77 171.54 2058.26 166.748 Q2053.74 161.933 2053.74 153.623 Q2053.74 145.29 2058.26 140.498 Q2062.77 135.684 2070.62 135.684 Q2073.72 135.684 2076.45 136.517 Q2079.2 137.327 2081.61 138.971 Z" fill="#000000" fill-rule="evenodd" fill-opacity="1" /><path clip-path="url(#clip750)" d="M 0 0 M2086.26 136.309 L2090.94 136.309 L2090.94 166.933 L2107.77 166.933 L2107.77 170.869 L2086.26 170.869 L2086.26 136.309 Z" fill="#000000" fill-rule="evenodd" fill-opacity="1" /><path clip-path="url(#clip750)" d="M 0 0 M2112.42 136.309 L2117.1 136.309 L2117.1 170.869 L2112.42 170.869 L2112.42 136.309 Z" fill="#000000" fill-rule="evenodd" fill-opacity="1" /><path clip-path="url(#clip750)" d="M 0 0 M2121.75 136.309 L2128.72 136.309 L2137.54 159.827 L2146.4 136.309 L2153.37 136.309 L2153.37 170.869 L2148.81 170.869 L2148.81 140.522 L2139.9 164.225 L2135.2 164.225 L2126.29 140.522 L2126.29 170.869 L2121.75 170.869 L2121.75 136.309 Z" fill="#000000" fill-rule="evenodd" fill-opacity="1" /><path clip-path="url(#clip750)" d="M 0 0 M2169.57 140.915 L2163.23 158.114 L2175.94 158.114 L2169.57 140.915 M2166.94 136.309 L2172.24 136.309 L2185.41 170.869 L2180.55 170.869 L2177.4 162.003 L2161.82 162.003 L2158.67 170.869 L2153.74 170.869 L2166.94 136.309 Z" fill="#000000" fill-rule="evenodd" fill-opacity="1" /><polyline clip-path="url(#clip750)" style="stroke:#e26f46; stroke-width:4; stroke-opacity:1; fill:none" points="
  1699.36,214.069 1833.24,214.069 
  "/>
<path clip-path="url(#clip750)" d="M 0 0 M1855.55 196.789 L1860.22 196.789 L1860.22 231.349 L1855.55 231.349 L1855.55 196.789 Z" fill="#000000" fill-rule="evenodd" fill-opacity="1" /><path clip-path="url(#clip750)" d="M 0 0 M1883.35 206.418 L1883.35 210.4 Q1881.54 209.404 1879.71 208.918 Q1877.91 208.409 1876.06 208.409 Q1871.91 208.409 1869.62 211.048 Q1867.33 213.664 1867.33 218.409 Q1867.33 223.154 1869.62 225.793 Q1871.91 228.409 1876.06 228.409 Q1877.91 228.409 1879.71 227.923 Q1881.54 227.413 1883.35 226.418 L1883.35 230.353 Q1881.57 231.187 1879.65 231.603 Q1877.75 232.02 1875.59 232.02 Q1869.74 232.02 1866.29 228.339 Q1862.84 224.659 1862.84 218.409 Q1862.84 212.066 1866.31 208.432 Q1869.81 204.798 1875.87 204.798 Q1877.84 204.798 1879.71 205.215 Q1881.59 205.608 1883.35 206.418 Z" fill="#000000" fill-rule="evenodd" fill-opacity="1" /><path clip-path="url(#clip750)" d="M 0 0 M1909.99 217.321 L1909.99 219.404 L1890.41 219.404 Q1890.69 223.802 1893.05 226.117 Q1895.43 228.409 1899.67 228.409 Q1902.12 228.409 1904.41 227.807 Q1906.73 227.205 1909 226.001 L1909 230.029 Q1906.71 231.001 1904.3 231.511 Q1901.89 232.02 1899.41 232.02 Q1893.21 232.02 1889.58 228.409 Q1885.96 224.798 1885.96 218.64 Q1885.96 212.275 1889.39 208.548 Q1892.84 204.798 1898.67 204.798 Q1903.9 204.798 1906.94 208.177 Q1909.99 211.534 1909.99 217.321 M1905.73 216.071 Q1905.69 212.576 1903.77 210.492 Q1901.87 208.409 1898.72 208.409 Q1895.15 208.409 1893 210.423 Q1890.87 212.437 1890.55 216.094 L1905.73 216.071 Z" fill="#000000" fill-rule="evenodd" fill-opacity="1" /><path clip-path="url(#clip750)" d="M 0 0 M1931.8 201.627 L1931.8 214.52 L1944.69 214.52 L1944.69 218.455 L1931.8 218.455 L1931.8 231.349 L1927.91 231.349 L1927.91 218.455 L1915.02 218.455 L1915.02 214.52 L1927.91 214.52 L1927.91 201.627 L1931.8 201.627 Z" fill="#000000" fill-rule="evenodd" fill-opacity="1" /><path clip-path="url(#clip750)" d="M 0 0 M1965.73 215.145 Q1967.24 215.654 1968.65 217.321 Q1970.08 218.988 1971.52 221.904 L1976.27 231.349 L1971.24 231.349 L1966.82 222.483 Q1965.11 219.011 1963.49 217.876 Q1961.89 216.742 1959.11 216.742 L1954.02 216.742 L1954.02 231.349 L1949.34 231.349 L1949.34 196.789 L1959.9 196.789 Q1965.83 196.789 1968.74 199.265 Q1971.66 201.742 1971.66 206.742 Q1971.66 210.006 1970.13 212.159 Q1968.63 214.312 1965.73 215.145 M1954.02 200.631 L1954.02 212.9 L1959.9 212.9 Q1963.28 212.9 1964.99 211.349 Q1966.73 209.775 1966.73 206.742 Q1966.73 203.71 1964.99 202.182 Q1963.28 200.631 1959.9 200.631 L1954.02 200.631 Z" fill="#000000" fill-rule="evenodd" fill-opacity="1" /><path clip-path="url(#clip750)" d="M 0 0 M1991.47 218.316 Q1986.31 218.316 1984.32 219.497 Q1982.33 220.677 1982.33 223.525 Q1982.33 225.793 1983.81 227.136 Q1985.32 228.455 1987.89 228.455 Q1991.43 228.455 1993.56 225.955 Q1995.71 223.432 1995.71 219.265 L1995.71 218.316 L1991.47 218.316 M1999.97 216.557 L1999.97 231.349 L1995.71 231.349 L1995.71 227.413 Q1994.25 229.775 1992.08 230.909 Q1989.9 232.02 1986.75 232.02 Q1982.77 232.02 1980.41 229.798 Q1978.07 227.552 1978.07 223.802 Q1978.07 219.427 1980.99 217.205 Q1983.93 214.983 1989.74 214.983 L1995.71 214.983 L1995.71 214.566 Q1995.71 211.627 1993.76 210.029 Q1991.84 208.409 1988.35 208.409 Q1986.13 208.409 1984.02 208.941 Q1981.91 209.474 1979.97 210.539 L1979.97 206.603 Q1982.31 205.701 1984.51 205.261 Q1986.7 204.798 1988.79 204.798 Q1994.41 204.798 1997.19 207.714 Q1999.97 210.631 1999.97 216.557 Z" fill="#000000" fill-rule="evenodd" fill-opacity="1" /><path clip-path="url(#clip750)" d="M 0 0 M2004.44 205.423 L2008.7 205.423 L2008.7 231.349 L2004.44 231.349 L2004.44 205.423 M2004.44 195.33 L2008.7 195.33 L2008.7 200.724 L2004.44 200.724 L2004.44 195.33 Z" fill="#000000" fill-rule="evenodd" fill-opacity="1" /><path clip-path="url(#clip750)" d="M 0 0 M2034.71 215.701 L2034.71 231.349 L2030.45 231.349 L2030.45 215.839 Q2030.45 212.159 2029.02 210.33 Q2027.58 208.502 2024.71 208.502 Q2021.26 208.502 2019.27 210.701 Q2017.28 212.9 2017.28 216.696 L2017.28 231.349 L2013 231.349 L2013 205.423 L2017.28 205.423 L2017.28 209.451 Q2018.81 207.113 2020.87 205.955 Q2022.95 204.798 2025.66 204.798 Q2030.13 204.798 2032.42 207.576 Q2034.71 210.33 2034.71 215.701 Z" fill="#000000" fill-rule="evenodd" fill-opacity="1" /><path clip-path="url(#clip750)" d="M 0 0 M2037.03 216.464 L2049.51 216.464 L2049.51 220.261 L2037.03 220.261 L2037.03 216.464 Z" fill="#000000" fill-rule="evenodd" fill-opacity="1" /><path clip-path="url(#clip750)" d="M 0 0 M2080.04 199.451 L2080.04 204.381 Q2077.68 202.182 2074.99 201.094 Q2072.33 200.006 2069.32 200.006 Q2063.39 200.006 2060.25 203.64 Q2057.1 207.252 2057.1 214.103 Q2057.1 220.932 2060.25 224.566 Q2063.39 228.177 2069.32 228.177 Q2072.33 228.177 2074.99 227.089 Q2077.68 226.001 2080.04 223.802 L2080.04 228.687 Q2077.58 230.353 2074.83 231.187 Q2072.1 232.02 2069.04 232.02 Q2061.2 232.02 2056.68 227.228 Q2052.17 222.413 2052.17 214.103 Q2052.17 205.77 2056.68 200.978 Q2061.2 196.164 2069.04 196.164 Q2072.14 196.164 2074.88 196.997 Q2077.63 197.807 2080.04 199.451 Z" fill="#000000" fill-rule="evenodd" fill-opacity="1" /><path clip-path="url(#clip750)" d="M 0 0 M2084.69 196.789 L2089.37 196.789 L2089.37 227.413 L2106.19 227.413 L2106.19 231.349 L2084.69 231.349 L2084.69 196.789 Z" fill="#000000" fill-rule="evenodd" fill-opacity="1" /><path clip-path="url(#clip750)" d="M 0 0 M2110.85 196.789 L2115.52 196.789 L2115.52 231.349 L2110.85 231.349 L2110.85 196.789 Z" fill="#000000" fill-rule="evenodd" fill-opacity="1" /><path clip-path="url(#clip750)" d="M 0 0 M2120.18 196.789 L2127.14 196.789 L2135.96 220.307 L2144.83 196.789 L2151.8 196.789 L2151.8 231.349 L2147.24 231.349 L2147.24 201.002 L2138.32 224.705 L2133.63 224.705 L2124.71 201.002 L2124.71 231.349 L2120.18 231.349 L2120.18 196.789 Z" fill="#000000" fill-rule="evenodd" fill-opacity="1" /><path clip-path="url(#clip750)" d="M 0 0 M2168 201.395 L2161.66 218.594 L2174.37 218.594 L2168 201.395 M2165.36 196.789 L2170.66 196.789 L2183.83 231.349 L2178.97 231.349 L2175.82 222.483 L2160.25 222.483 L2157.1 231.349 L2152.17 231.349 L2165.36 196.789 Z" fill="#000000" fill-rule="evenodd" fill-opacity="1" /><polyline clip-path="url(#clip750)" style="stroke:#3da44d; stroke-width:4; stroke-opacity:1; fill:none" points="
  1699.36,274.549 1833.24,274.549 
  "/>
<path clip-path="url(#clip750)" d="M 0 0 M1855.55 257.269 L1860.22 257.269 L1860.22 287.893 L1877.05 287.893 L1877.05 291.829 L1855.55 291.829 L1855.55 257.269 Z" fill="#000000" fill-rule="evenodd" fill-opacity="1" /><path clip-path="url(#clip750)" d="M 0 0 M1881.52 265.903 L1885.78 265.903 L1885.78 291.829 L1881.52 291.829 L1881.52 265.903 M1881.52 255.81 L1885.78 255.81 L1885.78 261.204 L1881.52 261.204 L1881.52 255.81 Z" fill="#000000" fill-rule="evenodd" fill-opacity="1" /><path clip-path="url(#clip750)" d="M 0 0 M1892.79 278.889 Q1892.79 283.588 1894.71 286.273 Q1896.66 288.935 1900.04 288.935 Q1903.42 288.935 1905.36 286.273 Q1907.31 283.588 1907.31 278.889 Q1907.31 274.19 1905.36 271.528 Q1903.42 268.843 1900.04 268.843 Q1896.66 268.843 1894.71 271.528 Q1892.79 274.19 1892.79 278.889 M1907.31 287.94 Q1905.96 290.255 1903.9 291.389 Q1901.87 292.5 1899 292.5 Q1894.3 292.5 1891.33 288.75 Q1888.4 285 1888.4 278.889 Q1888.4 272.778 1891.33 269.028 Q1894.3 265.278 1899 265.278 Q1901.87 265.278 1903.9 266.412 Q1905.96 267.523 1907.31 269.838 L1907.31 265.903 L1911.57 265.903 L1911.57 301.69 L1907.31 301.69 L1907.31 287.94 Z" fill="#000000" fill-rule="evenodd" fill-opacity="1" /><path clip-path="url(#clip750)" d="M 0 0 M1933.37 262.107 L1933.37 275 L1946.27 275 L1946.27 278.935 L1933.37 278.935 L1933.37 291.829 L1929.48 291.829 L1929.48 278.935 L1916.59 278.935 L1916.59 275 L1929.48 275 L1929.48 262.107 L1933.37 262.107 Z" fill="#000000" fill-rule="evenodd" fill-opacity="1" /><path clip-path="url(#clip750)" d="M 0 0 M1971.64 258.403 L1971.64 262.963 Q1968.97 261.69 1966.61 261.065 Q1964.25 260.44 1962.05 260.44 Q1958.23 260.44 1956.15 261.921 Q1954.09 263.403 1954.09 266.134 Q1954.09 268.426 1955.46 269.607 Q1956.84 270.764 1960.69 271.482 L1963.51 272.06 Q1968.74 273.056 1971.22 275.579 Q1973.72 278.079 1973.72 282.292 Q1973.72 287.315 1970.34 289.907 Q1966.98 292.5 1960.48 292.5 Q1958.02 292.5 1955.25 291.944 Q1952.49 291.389 1949.53 290.301 L1949.53 285.486 Q1952.38 287.083 1955.11 287.893 Q1957.84 288.704 1960.48 288.704 Q1964.48 288.704 1966.66 287.13 Q1968.83 285.556 1968.83 282.639 Q1968.83 280.093 1967.26 278.657 Q1965.71 277.222 1962.14 276.505 L1959.3 275.949 Q1954.07 274.907 1951.73 272.685 Q1949.39 270.463 1949.39 266.505 Q1949.39 261.921 1952.61 259.282 Q1955.85 256.644 1961.52 256.644 Q1963.95 256.644 1966.47 257.083 Q1969 257.523 1971.64 258.403 Z" fill="#000000" fill-rule="evenodd" fill-opacity="1" /><path clip-path="url(#clip750)" d="M 0 0 M1999.74 276.181 L1999.74 291.829 L1995.48 291.829 L1995.48 276.319 Q1995.48 272.639 1994.04 270.81 Q1992.61 268.982 1989.74 268.982 Q1986.29 268.982 1984.3 271.181 Q1982.31 273.38 1982.31 277.176 L1982.31 291.829 L1978.02 291.829 L1978.02 265.903 L1982.31 265.903 L1982.31 269.931 Q1983.83 267.593 1985.89 266.435 Q1987.98 265.278 1990.69 265.278 Q1995.15 265.278 1997.45 268.056 Q1999.74 270.81 1999.74 276.181 Z" fill="#000000" fill-rule="evenodd" fill-opacity="1" /><path clip-path="url(#clip750)" d="M 0 0 M2014.25 268.889 Q2010.83 268.889 2008.83 271.574 Q2006.84 274.236 2006.84 278.889 Q2006.84 283.542 2008.81 286.227 Q2010.8 288.889 2014.25 288.889 Q2017.65 288.889 2019.64 286.204 Q2021.64 283.518 2021.64 278.889 Q2021.64 274.282 2019.64 271.597 Q2017.65 268.889 2014.25 268.889 M2014.25 265.278 Q2019.81 265.278 2022.98 268.889 Q2026.15 272.5 2026.15 278.889 Q2026.15 285.255 2022.98 288.889 Q2019.81 292.5 2014.25 292.5 Q2008.67 292.5 2005.5 288.889 Q2002.35 285.255 2002.35 278.889 Q2002.35 272.5 2005.5 268.889 Q2008.67 265.278 2014.25 265.278 Z" fill="#000000" fill-rule="evenodd" fill-opacity="1" /><path clip-path="url(#clip750)" d="M 0 0 M2028.14 265.903 L2032.4 265.903 L2037.72 286.134 L2043.02 265.903 L2048.05 265.903 L2053.37 286.134 L2058.67 265.903 L2062.93 265.903 L2056.15 291.829 L2051.13 291.829 L2045.55 270.579 L2039.95 291.829 L2034.92 291.829 L2028.14 265.903 Z" fill="#000000" fill-rule="evenodd" fill-opacity="1" /><path clip-path="url(#clip750)" d="M 0 0 M2065.25 276.944 L2077.72 276.944 L2077.72 280.741 L2065.25 280.741 L2065.25 276.944 Z" fill="#000000" fill-rule="evenodd" fill-opacity="1" /><path clip-path="url(#clip750)" d="M 0 0 M2108.26 259.931 L2108.26 264.861 Q2105.89 262.662 2103.21 261.574 Q2100.55 260.486 2097.54 260.486 Q2091.61 260.486 2088.46 264.12 Q2085.32 267.732 2085.32 274.583 Q2085.32 281.412 2088.46 285.046 Q2091.61 288.657 2097.54 288.657 Q2100.55 288.657 2103.21 287.569 Q2105.89 286.481 2108.26 284.282 L2108.26 289.167 Q2105.8 290.833 2103.05 291.667 Q2100.32 292.5 2097.26 292.5 Q2089.41 292.5 2084.9 287.708 Q2080.38 282.893 2080.38 274.583 Q2080.38 266.25 2084.9 261.458 Q2089.41 256.644 2097.26 256.644 Q2100.36 256.644 2103.09 257.477 Q2105.85 258.287 2108.26 259.931 Z" fill="#000000" fill-rule="evenodd" fill-opacity="1" /><path clip-path="url(#clip750)" d="M 0 0 M2112.91 257.269 L2117.58 257.269 L2117.58 287.893 L2134.41 287.893 L2134.41 291.829 L2112.91 291.829 L2112.91 257.269 Z" fill="#000000" fill-rule="evenodd" fill-opacity="1" /><path clip-path="url(#clip750)" d="M 0 0 M2139.07 257.269 L2143.74 257.269 L2143.74 291.829 L2139.07 291.829 L2139.07 257.269 Z" fill="#000000" fill-rule="evenodd" fill-opacity="1" /><path clip-path="url(#clip750)" d="M 0 0 M2148.39 257.269 L2155.36 257.269 L2164.18 280.787 L2173.05 257.269 L2180.01 257.269 L2180.01 291.829 L2175.45 291.829 L2175.45 261.482 L2166.54 285.185 L2161.84 285.185 L2152.93 261.482 L2152.93 291.829 L2148.39 291.829 L2148.39 257.269 Z" fill="#000000" fill-rule="evenodd" fill-opacity="1" /><path clip-path="url(#clip750)" d="M 0 0 M2196.22 261.875 L2189.88 279.074 L2202.58 279.074 L2196.22 261.875 M2193.58 257.269 L2198.88 257.269 L2212.05 291.829 L2207.19 291.829 L2204.04 282.963 L2188.46 282.963 L2185.31 291.829 L2180.38 291.829 L2193.58 257.269 Z" fill="#000000" fill-rule="evenodd" fill-opacity="1" /><polyline clip-path="url(#clip750)" style="stroke:#c271d2; stroke-width:4; stroke-opacity:1; fill:none" stroke-dasharray="16, 10" points="
  1699.36,335.029 1833.24,335.029 
  "/>
<path clip-path="url(#clip750)" d="M 0 0 M1855.55 317.749 L1860.22 317.749 L1860.22 352.309 L1855.55 352.309 L1855.55 317.749 Z" fill="#000000" fill-rule="evenodd" fill-opacity="1" /><path clip-path="url(#clip750)" d="M 0 0 M1883.35 327.378 L1883.35 331.36 Q1881.54 330.364 1879.71 329.878 Q1877.91 329.369 1876.06 329.369 Q1871.91 329.369 1869.62 332.008 Q1867.33 334.624 1867.33 339.369 Q1867.33 344.114 1869.62 346.753 Q1871.91 349.369 1876.06 349.369 Q1877.91 349.369 1879.71 348.883 Q1881.54 348.373 1883.35 347.378 L1883.35 351.313 Q1881.57 352.147 1879.65 352.563 Q1877.75 352.98 1875.59 352.98 Q1869.74 352.98 1866.29 349.299 Q1862.84 345.619 1862.84 339.369 Q1862.84 333.026 1866.31 329.392 Q1869.81 325.758 1875.87 325.758 Q1877.84 325.758 1879.71 326.175 Q1881.59 326.568 1883.35 327.378 Z" fill="#000000" fill-rule="evenodd" fill-opacity="1" /><path clip-path="url(#clip750)" d="M 0 0 M1909.99 338.281 L1909.99 340.364 L1890.41 340.364 Q1890.69 344.762 1893.05 347.077 Q1895.43 349.369 1899.67 349.369 Q1902.12 349.369 1904.41 348.767 Q1906.73 348.165 1909 346.961 L1909 350.989 Q1906.71 351.961 1904.3 352.471 Q1901.89 352.98 1899.41 352.98 Q1893.21 352.98 1889.58 349.369 Q1885.96 345.758 1885.96 339.6 Q1885.96 333.235 1889.39 329.508 Q1892.84 325.758 1898.67 325.758 Q1903.9 325.758 1906.94 329.137 Q1909.99 332.494 1909.99 338.281 M1905.73 337.031 Q1905.69 333.536 1903.77 331.452 Q1901.87 329.369 1898.72 329.369 Q1895.15 329.369 1893 331.383 Q1890.87 333.397 1890.55 337.054 L1905.73 337.031 Z" fill="#000000" fill-rule="evenodd" fill-opacity="1" /><path clip-path="url(#clip750)" d="M 0 0 M1931.8 322.587 L1931.8 335.48 L1944.69 335.48 L1944.69 339.415 L1931.8 339.415 L1931.8 352.309 L1927.91 352.309 L1927.91 339.415 L1915.02 339.415 L1915.02 335.48 L1927.91 335.48 L1927.91 322.587 L1931.8 322.587 Z" fill="#000000" fill-rule="evenodd" fill-opacity="1" /><path clip-path="url(#clip750)" d="M 0 0 M1970.06 318.883 L1970.06 323.443 Q1967.4 322.17 1965.04 321.545 Q1962.68 320.92 1960.48 320.92 Q1956.66 320.92 1954.58 322.401 Q1952.52 323.883 1952.52 326.614 Q1952.52 328.906 1953.88 330.087 Q1955.27 331.244 1959.11 331.962 L1961.94 332.54 Q1967.17 333.536 1969.64 336.059 Q1972.14 338.559 1972.14 342.772 Q1972.14 347.795 1968.77 350.387 Q1965.41 352.98 1958.9 352.98 Q1956.45 352.98 1953.67 352.424 Q1950.92 351.869 1947.96 350.781 L1947.96 345.966 Q1950.8 347.563 1953.53 348.373 Q1956.27 349.184 1958.9 349.184 Q1962.91 349.184 1965.08 347.61 Q1967.26 346.036 1967.26 343.119 Q1967.26 340.573 1965.69 339.137 Q1964.14 337.702 1960.57 336.985 L1957.72 336.429 Q1952.49 335.387 1950.15 333.165 Q1947.82 330.943 1947.82 326.985 Q1947.82 322.401 1951.03 319.762 Q1954.27 317.124 1959.95 317.124 Q1962.38 317.124 1964.9 317.563 Q1967.42 318.003 1970.06 318.883 Z" fill="#000000" fill-rule="evenodd" fill-opacity="1" /><path clip-path="url(#clip750)" d="M 0 0 M1998.16 336.661 L1998.16 352.309 L1993.9 352.309 L1993.9 336.799 Q1993.9 333.119 1992.47 331.29 Q1991.03 329.462 1988.16 329.462 Q1984.71 329.462 1982.72 331.661 Q1980.73 333.86 1980.73 337.656 L1980.73 352.309 L1976.45 352.309 L1976.45 326.383 L1980.73 326.383 L1980.73 330.411 Q1982.26 328.073 1984.32 326.915 Q1986.4 325.758 1989.11 325.758 Q1993.58 325.758 1995.87 328.536 Q1998.16 331.29 1998.16 336.661 Z" fill="#000000" fill-rule="evenodd" fill-opacity="1" /><path clip-path="url(#clip750)" d="M 0 0 M2012.68 329.369 Q2009.25 329.369 2007.26 332.054 Q2005.27 334.716 2005.27 339.369 Q2005.27 344.022 2007.24 346.707 Q2009.23 349.369 2012.68 349.369 Q2016.08 349.369 2018.07 346.684 Q2020.06 343.998 2020.06 339.369 Q2020.06 334.762 2018.07 332.077 Q2016.08 329.369 2012.68 329.369 M2012.68 325.758 Q2018.23 325.758 2021.4 329.369 Q2024.58 332.98 2024.58 339.369 Q2024.58 345.735 2021.4 349.369 Q2018.23 352.98 2012.68 352.98 Q2007.1 352.98 2003.93 349.369 Q2000.78 345.735 2000.78 339.369 Q2000.78 332.98 2003.93 329.369 Q2007.1 325.758 2012.68 325.758 Z" fill="#000000" fill-rule="evenodd" fill-opacity="1" /><path clip-path="url(#clip750)" d="M 0 0 M2026.57 326.383 L2030.82 326.383 L2036.15 346.614 L2041.45 326.383 L2046.47 326.383 L2051.8 346.614 L2057.1 326.383 L2061.36 326.383 L2054.57 352.309 L2049.55 352.309 L2043.97 331.059 L2038.37 352.309 L2033.35 352.309 L2026.57 326.383 Z" fill="#000000" fill-rule="evenodd" fill-opacity="1" /><path clip-path="url(#clip750)" d="M 0 0 M2063.67 337.424 L2076.15 337.424 L2076.15 341.221 L2063.67 341.221 L2063.67 337.424 Z" fill="#000000" fill-rule="evenodd" fill-opacity="1" /><path clip-path="url(#clip750)" d="M 0 0 M2106.68 320.411 L2106.68 325.341 Q2104.32 323.142 2101.63 322.054 Q2098.97 320.966 2095.96 320.966 Q2090.04 320.966 2086.89 324.6 Q2083.74 328.212 2083.74 335.063 Q2083.74 341.892 2086.89 345.526 Q2090.04 349.137 2095.96 349.137 Q2098.97 349.137 2101.63 348.049 Q2104.32 346.961 2106.68 344.762 L2106.68 349.647 Q2104.23 351.313 2101.47 352.147 Q2098.74 352.98 2095.69 352.98 Q2087.84 352.98 2083.32 348.188 Q2078.81 343.373 2078.81 335.063 Q2078.81 326.73 2083.32 321.938 Q2087.84 317.124 2095.69 317.124 Q2098.79 317.124 2101.52 317.957 Q2104.27 318.767 2106.68 320.411 Z" fill="#000000" fill-rule="evenodd" fill-opacity="1" /><path clip-path="url(#clip750)" d="M 0 0 M2111.33 317.749 L2116.01 317.749 L2116.01 348.373 L2132.84 348.373 L2132.84 352.309 L2111.33 352.309 L2111.33 317.749 Z" fill="#000000" fill-rule="evenodd" fill-opacity="1" /><path clip-path="url(#clip750)" d="M 0 0 M2137.49 317.749 L2142.17 317.749 L2142.17 352.309 L2137.49 352.309 L2137.49 317.749 Z" fill="#000000" fill-rule="evenodd" fill-opacity="1" /><path clip-path="url(#clip750)" d="M 0 0 M2146.82 317.749 L2153.79 317.749 L2162.61 341.267 L2171.47 317.749 L2178.44 317.749 L2178.44 352.309 L2173.88 352.309 L2173.88 321.962 L2164.97 345.665 L2160.27 345.665 L2151.36 321.962 L2151.36 352.309 L2146.82 352.309 L2146.82 317.749 Z" fill="#000000" fill-rule="evenodd" fill-opacity="1" /><path clip-path="url(#clip750)" d="M 0 0 M2194.64 322.355 L2188.3 339.554 L2201.01 339.554 L2194.64 322.355 M2192 317.749 L2197.31 317.749 L2210.48 352.309 L2205.62 352.309 L2202.47 343.443 L2186.89 343.443 L2183.74 352.309 L2178.81 352.309 L2192 317.749 Z" fill="#000000" fill-rule="evenodd" fill-opacity="1" /><polyline clip-path="url(#clip750)" style="stroke:#ac8d18; stroke-width:4; stroke-opacity:1; fill:none" points="
  1699.36,395.509 1833.24,395.509 
  "/>
<path clip-path="url(#clip750)" d="M 0 0 M1855.55 378.229 L1860.22 378.229 L1860.22 408.853 L1877.05 408.853 L1877.05 412.789 L1855.55 412.789 L1855.55 378.229 Z" fill="#000000" fill-rule="evenodd" fill-opacity="1" /><path clip-path="url(#clip750)" d="M 0 0 M1881.52 386.863 L1885.78 386.863 L1885.78 412.789 L1881.52 412.789 L1881.52 386.863 M1881.52 376.77 L1885.78 376.77 L1885.78 382.164 L1881.52 382.164 L1881.52 376.77 Z" fill="#000000" fill-rule="evenodd" fill-opacity="1" /><path clip-path="url(#clip750)" d="M 0 0 M1892.79 399.849 Q1892.79 404.548 1894.71 407.233 Q1896.66 409.895 1900.04 409.895 Q1903.42 409.895 1905.36 407.233 Q1907.31 404.548 1907.31 399.849 Q1907.31 395.15 1905.36 392.488 Q1903.42 389.803 1900.04 389.803 Q1896.66 389.803 1894.71 392.488 Q1892.79 395.15 1892.79 399.849 M1907.31 408.9 Q1905.96 411.215 1903.9 412.349 Q1901.87 413.46 1899 413.46 Q1894.3 413.46 1891.33 409.71 Q1888.4 405.96 1888.4 399.849 Q1888.4 393.738 1891.33 389.988 Q1894.3 386.238 1899 386.238 Q1901.87 386.238 1903.9 387.372 Q1905.96 388.483 1907.31 390.798 L1907.31 386.863 L1911.57 386.863 L1911.57 422.65 L1907.31 422.65 L1907.31 408.9 Z" fill="#000000" fill-rule="evenodd" fill-opacity="1" /><path clip-path="url(#clip750)" d="M 0 0 M1933.37 383.067 L1933.37 395.96 L1946.27 395.96 L1946.27 399.895 L1933.37 399.895 L1933.37 412.789 L1929.48 412.789 L1929.48 399.895 L1916.59 399.895 L1916.59 395.96 L1929.48 395.96 L1929.48 383.067 L1933.37 383.067 Z" fill="#000000" fill-rule="evenodd" fill-opacity="1" /><path clip-path="url(#clip750)" d="M 0 0 M1967.31 396.585 Q1968.81 397.094 1970.22 398.761 Q1971.66 400.428 1973.09 403.344 L1977.84 412.789 L1972.82 412.789 L1968.39 403.923 Q1966.68 400.451 1965.06 399.316 Q1963.46 398.182 1960.69 398.182 L1955.59 398.182 L1955.59 412.789 L1950.92 412.789 L1950.92 378.229 L1961.47 378.229 Q1967.4 378.229 1970.32 380.705 Q1973.23 383.182 1973.23 388.182 Q1973.23 391.446 1971.7 393.599 Q1970.2 395.752 1967.31 396.585 M1955.59 382.071 L1955.59 394.34 L1961.47 394.34 Q1964.85 394.34 1966.57 392.789 Q1968.3 391.215 1968.3 388.182 Q1968.3 385.15 1966.57 383.622 Q1964.85 382.071 1961.47 382.071 L1955.59 382.071 Z" fill="#000000" fill-rule="evenodd" fill-opacity="1" /><path clip-path="url(#clip750)" d="M 0 0 M1993.05 399.756 Q1987.89 399.756 1985.89 400.937 Q1983.9 402.117 1983.9 404.965 Q1983.9 407.233 1985.39 408.576 Q1986.89 409.895 1989.46 409.895 Q1993 409.895 1995.13 407.395 Q1997.28 404.872 1997.28 400.705 L1997.28 399.756 L1993.05 399.756 M2001.54 397.997 L2001.54 412.789 L1997.28 412.789 L1997.28 408.853 Q1995.83 411.215 1993.65 412.349 Q1991.47 413.46 1988.33 413.46 Q1984.34 413.46 1981.98 411.238 Q1979.64 408.992 1979.64 405.242 Q1979.64 400.867 1982.56 398.645 Q1985.5 396.423 1991.31 396.423 L1997.28 396.423 L1997.28 396.006 Q1997.28 393.067 1995.34 391.469 Q1993.42 389.849 1989.92 389.849 Q1987.7 389.849 1985.59 390.381 Q1983.49 390.914 1981.54 391.979 L1981.54 388.043 Q1983.88 387.141 1986.08 386.701 Q1988.28 386.238 1990.36 386.238 Q1995.99 386.238 1998.76 389.154 Q2001.54 392.071 2001.54 397.997 Z" fill="#000000" fill-rule="evenodd" fill-opacity="1" /><path clip-path="url(#clip750)" d="M 0 0 M2006.01 386.863 L2010.27 386.863 L2010.27 412.789 L2006.01 412.789 L2006.01 386.863 M2006.01 376.77 L2010.27 376.77 L2010.27 382.164 L2006.01 382.164 L2006.01 376.77 Z" fill="#000000" fill-rule="evenodd" fill-opacity="1" /><path clip-path="url(#clip750)" d="M 0 0 M2036.29 397.141 L2036.29 412.789 L2032.03 412.789 L2032.03 397.279 Q2032.03 393.599 2030.59 391.77 Q2029.16 389.942 2026.29 389.942 Q2022.84 389.942 2020.85 392.141 Q2018.86 394.34 2018.86 398.136 L2018.86 412.789 L2014.58 412.789 L2014.58 386.863 L2018.86 386.863 L2018.86 390.891 Q2020.39 388.553 2022.45 387.395 Q2024.53 386.238 2027.24 386.238 Q2031.7 386.238 2034 389.016 Q2036.29 391.77 2036.29 397.141 Z" fill="#000000" fill-rule="evenodd" fill-opacity="1" /><path clip-path="url(#clip750)" d="M 0 0 M2038.6 397.904 L2051.08 397.904 L2051.08 401.701 L2038.6 401.701 L2038.6 397.904 Z" fill="#000000" fill-rule="evenodd" fill-opacity="1" /><path clip-path="url(#clip750)" d="M 0 0 M2055.73 378.229 L2077.58 378.229 L2077.58 382.164 L2060.41 382.164 L2060.41 392.395 L2076.87 392.395 L2076.87 396.33 L2060.41 396.33 L2060.41 408.853 L2078 408.853 L2078 412.789 L2055.73 412.789 L2055.73 378.229 Z" fill="#000000" fill-rule="evenodd" fill-opacity="1" /><path clip-path="url(#clip750)" d="M 0 0 M2102.65 391.84 Q2104.25 388.969 2106.47 387.604 Q2108.69 386.238 2111.7 386.238 Q2115.76 386.238 2117.95 389.085 Q2120.15 391.909 2120.15 397.141 L2120.15 412.789 L2115.87 412.789 L2115.87 397.279 Q2115.87 393.553 2114.55 391.747 Q2113.23 389.942 2110.52 389.942 Q2107.21 389.942 2105.29 392.141 Q2103.37 394.34 2103.37 398.136 L2103.37 412.789 L2099.09 412.789 L2099.09 397.279 Q2099.09 393.529 2097.77 391.747 Q2096.45 389.942 2093.7 389.942 Q2090.43 389.942 2088.51 392.164 Q2086.59 394.363 2086.59 398.136 L2086.59 412.789 L2082.31 412.789 L2082.31 386.863 L2086.59 386.863 L2086.59 390.891 Q2088.05 388.506 2090.08 387.372 Q2092.12 386.238 2094.92 386.238 Q2097.75 386.238 2099.71 387.673 Q2101.7 389.108 2102.65 391.84 Z" fill="#000000" fill-rule="evenodd" fill-opacity="1" /><path clip-path="url(#clip750)" d="M 0 0 M2128.74 408.9 L2128.74 422.65 L2124.46 422.65 L2124.46 386.863 L2128.74 386.863 L2128.74 390.798 Q2130.08 388.483 2132.12 387.372 Q2134.18 386.238 2137.03 386.238 Q2141.75 386.238 2144.69 389.988 Q2147.65 393.738 2147.65 399.849 Q2147.65 405.96 2144.69 409.71 Q2141.75 413.46 2137.03 413.46 Q2134.18 413.46 2132.12 412.349 Q2130.08 411.215 2128.74 408.9 M2143.23 399.849 Q2143.23 395.15 2141.29 392.488 Q2139.37 389.803 2135.99 389.803 Q2132.61 389.803 2130.66 392.488 Q2128.74 395.15 2128.74 399.849 Q2128.74 404.548 2130.66 407.233 Q2132.61 409.895 2135.99 409.895 Q2139.37 409.895 2141.29 407.233 Q2143.23 404.548 2143.23 399.849 Z" fill="#000000" fill-rule="evenodd" fill-opacity="1" /><path clip-path="url(#clip750)" d="M 0 0 M2152.12 386.863 L2156.38 386.863 L2156.38 412.789 L2152.12 412.789 L2152.12 386.863 M2152.12 376.77 L2156.38 376.77 L2156.38 382.164 L2152.12 382.164 L2152.12 376.77 Z" fill="#000000" fill-rule="evenodd" fill-opacity="1" /><path clip-path="url(#clip750)" d="M 0 0 M2175.87 390.844 Q2175.15 390.428 2174.3 390.242 Q2173.46 390.034 2172.44 390.034 Q2168.83 390.034 2166.89 392.395 Q2164.97 394.733 2164.97 399.131 L2164.97 412.789 L2160.69 412.789 L2160.69 386.863 L2164.97 386.863 L2164.97 390.891 Q2166.31 388.529 2168.46 387.395 Q2170.62 386.238 2173.69 386.238 Q2174.13 386.238 2174.67 386.307 Q2175.2 386.354 2175.85 386.469 L2175.87 390.844 Z" fill="#000000" fill-rule="evenodd" fill-opacity="1" /><path clip-path="url(#clip750)" d="M 0 0 M2180.34 386.863 L2184.6 386.863 L2184.6 412.789 L2180.34 412.789 L2180.34 386.863 M2180.34 376.77 L2184.6 376.77 L2184.6 382.164 L2180.34 382.164 L2180.34 376.77 Z" fill="#000000" fill-rule="evenodd" fill-opacity="1" /><path clip-path="url(#clip750)" d="M 0 0 M2207.72 387.858 L2207.72 391.84 Q2205.92 390.844 2204.09 390.358 Q2202.28 389.849 2200.43 389.849 Q2196.29 389.849 2194 392.488 Q2191.7 395.104 2191.7 399.849 Q2191.7 404.594 2194 407.233 Q2196.29 409.849 2200.43 409.849 Q2202.28 409.849 2204.09 409.363 Q2205.92 408.853 2207.72 407.858 L2207.72 411.793 Q2205.94 412.627 2204.02 413.043 Q2202.12 413.46 2199.97 413.46 Q2194.11 413.46 2190.66 409.779 Q2187.21 406.099 2187.21 399.849 Q2187.21 393.506 2190.69 389.872 Q2194.18 386.238 2200.25 386.238 Q2202.21 386.238 2204.09 386.655 Q2205.96 387.048 2207.72 387.858 Z" fill="#000000" fill-rule="evenodd" fill-opacity="1" /><path clip-path="url(#clip750)" d="M 0 0 M2223.97 399.756 Q2218.81 399.756 2216.82 400.937 Q2214.83 402.117 2214.83 404.965 Q2214.83 407.233 2216.31 408.576 Q2217.81 409.895 2220.38 409.895 Q2223.93 409.895 2226.06 407.395 Q2228.21 404.872 2228.21 400.705 L2228.21 399.756 L2223.97 399.756 M2232.47 397.997 L2232.47 412.789 L2228.21 412.789 L2228.21 408.853 Q2226.75 411.215 2224.57 412.349 Q2222.4 413.46 2219.25 413.46 Q2215.27 413.46 2212.91 411.238 Q2210.57 408.992 2210.57 405.242 Q2210.57 400.867 2213.49 398.645 Q2216.43 396.423 2222.24 396.423 L2228.21 396.423 L2228.21 396.006 Q2228.21 393.067 2226.26 391.469 Q2224.34 389.849 2220.85 389.849 Q2218.62 389.849 2216.52 390.381 Q2214.41 390.914 2212.47 391.979 L2212.47 388.043 Q2214.81 387.141 2217 386.701 Q2219.2 386.238 2221.29 386.238 Q2226.91 386.238 2229.69 389.154 Q2232.47 392.071 2232.47 397.997 Z" fill="#000000" fill-rule="evenodd" fill-opacity="1" /><path clip-path="url(#clip750)" d="M 0 0 M2236.93 376.77 L2241.19 376.77 L2241.19 412.789 L2236.93 412.789 L2236.93 376.77 Z" fill="#000000" fill-rule="evenodd" fill-opacity="1" /></svg>
