<?xml version="1.0" encoding="utf-8"?>
<svg xmlns="http://www.w3.org/2000/svg" xmlns:xlink="http://www.w3.org/1999/xlink" width="600" height="400" viewBox="0 0 2400 1600">
<defs>
  <clipPath id="clip130">
    <rect x="0" y="0" width="2400" height="1600"/>
  </clipPath>
</defs>
<path clip-path="url(#clip130)" d="
M0 1600 L2400 1600 L2400 0 L0 0  Z
  " fill="#ffffff" fill-rule="evenodd" fill-opacity="1"/>
<defs>
  <clipPath id="clip131">
    <rect x="480" y="0" width="1681" height="1600"/>
  </clipPath>
</defs>
<path clip-path="url(#clip130)" d="
M224.866 1423.18 L2352.76 1423.18 L2352.76 123.472 L224.866 123.472  Z
  " fill="#ffffff" fill-rule="evenodd" fill-opacity="1"/>
<defs>
  <clipPath id="clip132">
    <rect x="224" y="123" width="2129" height="1301"/>
  </clipPath>
</defs>
<polyline clip-path="url(#clip132)" style="stroke:#000000; stroke-width:2; stroke-opacity:0.1; fill:none" points="
  279.558,1423.18 279.558,123.472 
  "/>
<polyline clip-path="url(#clip132)" style="stroke:#000000; stroke-width:2; stroke-opacity:0.1; fill:none" points="
  742.296,1423.18 742.296,123.472 
  "/>
<polyline clip-path="url(#clip132)" style="stroke:#000000; stroke-width:2; stroke-opacity:0.1; fill:none" points="
  1205.03,1423.18 1205.03,123.472 
  "/>
<polyline clip-path="url(#clip132)" style="stroke:#000000; stroke-width:2; stroke-opacity:0.1; fill:none" points="
  1667.77,1423.18 1667.77,123.472 
  "/>
<polyline clip-path="url(#clip132)" style="stroke:#000000; stroke-width:2; stroke-opacity:0.1; fill:none" points="
  2130.51,1423.18 2130.51,123.472 
  "/>
<polyline clip-path="url(#clip132)" style="stroke:#000000; stroke-width:2; stroke-opacity:0.1; fill:none" points="
  224.866,1250.16 2352.76,1250.16 
  "/>
<polyline clip-path="url(#clip132)" style="stroke:#000000; stroke-width:2; stroke-opacity:0.1; fill:none" points="
  224.866,977.683 2352.76,977.683 
  "/>
<polyline clip-path="url(#clip132)" style="stroke:#000000; stroke-width:2; stroke-opacity:0.1; fill:none" points="
  224.866,705.207 2352.76,705.207 
  "/>
<polyline clip-path="url(#clip132)" style="stroke:#000000; stroke-width:2; stroke-opacity:0.1; fill:none" points="
  224.866,432.732 2352.76,432.732 
  "/>
<polyline clip-path="url(#clip132)" style="stroke:#000000; stroke-width:2; stroke-opacity:0.1; fill:none" points="
  224.866,160.256 2352.76,160.256 
  "/>
<polyline clip-path="url(#clip130)" style="stroke:#000000; stroke-width:4; stroke-opacity:1; fill:none" points="
  224.866,1423.18 2352.76,1423.18 
  "/>
<polyline clip-path="url(#clip130)" style="stroke:#000000; stroke-width:4; stroke-opacity:1; fill:none" points="
  224.866,1423.18 224.866,123.472 
  "/>
<polyline clip-path="url(#clip130)" style="stroke:#000000; stroke-width:4; stroke-opacity:1; fill:none" points="
  279.558,1423.18 279.558,1407.58 
  "/>
<polyline clip-path="url(#clip130)" style="stroke:#000000; stroke-width:4; stroke-opacity:1; fill:none" points="
  742.296,1423.18 742.296,1407.58 
  "/>
<polyline clip-path="url(#clip130)" style="stroke:#000000; stroke-width:4; stroke-opacity:1; fill:none" points="
  1205.03,1423.18 1205.03,1407.58 
  "/>
<polyline clip-path="url(#clip130)" style="stroke:#000000; stroke-width:4; stroke-opacity:1; fill:none" points="
  1667.77,1423.18 1667.77,1407.58 
  "/>
<polyline clip-path="url(#clip130)" style="stroke:#000000; stroke-width:4; stroke-opacity:1; fill:none" points="
  2130.51,1423.18 2130.51,1407.58 
  "/>
<polyline clip-path="url(#clip130)" style="stroke:#000000; stroke-width:4; stroke-opacity:1; fill:none" points="
  224.866,1250.16 250.401,1250.16 
  "/>
<polyline clip-path="url(#clip130)" style="stroke:#000000; stroke-width:4; stroke-opacity:1; fill:none" points="
  224.866,977.683 250.401,977.683 
  "/>
<polyline clip-path="url(#clip130)" style="stroke:#000000; stroke-width:4; stroke-opacity:1; fill:none" points="
  224.866,705.207 250.401,705.207 
  "/>
<polyline clip-path="url(#clip130)" style="stroke:#000000; stroke-width:4; stroke-opacity:1; fill:none" points="
  224.866,432.732 250.401,432.732 
  "/>
<polyline clip-path="url(#clip130)" style="stroke:#000000; stroke-width:4; stroke-opacity:1; fill:none" points="
  224.866,160.256 250.401,160.256 
  "/>
<path clip-path="url(#clip130)" d="M 0 0 M279.558 1445.17 Q275.947 1445.17 274.118 1448.74 Q272.313 1452.28 272.313 1459.41 Q272.313 1466.51 274.118 1470.08 Q275.947 1473.62 279.558 1473.62 Q283.192 1473.62 284.998 1470.08 Q286.827 1466.51 286.827 1459.41 Q286.827 1452.28 284.998 1448.74 Q283.192 1445.17 279.558 1445.17 M279.558 1441.47 Q285.368 1441.47 288.424 1446.07 Q291.503 1450.66 291.503 1459.41 Q291.503 1468.13 288.424 1472.74 Q285.368 1477.32 279.558 1477.32 Q273.748 1477.32 270.669 1472.74 Q267.614 1468.13 267.614 1459.41 Q267.614 1450.66 270.669 1446.07 Q273.748 1441.47 279.558 1441.47 Z" fill="#000000" fill-rule="evenodd" fill-opacity="1" /><path clip-path="url(#clip130)" d="M 0 0 M710.433 1472.72 L726.752 1472.72 L726.752 1476.65 L704.808 1476.65 L704.808 1472.72 Q707.47 1469.96 712.053 1465.33 Q716.66 1460.68 717.84 1459.34 Q720.086 1456.81 720.965 1455.08 Q721.868 1453.32 721.868 1451.63 Q721.868 1448.87 719.924 1447.14 Q718.002 1445.4 714.9 1445.4 Q712.701 1445.4 710.248 1446.17 Q707.817 1446.93 705.039 1448.48 L705.039 1443.76 Q707.863 1442.62 710.317 1442.05 Q712.771 1441.47 714.808 1441.47 Q720.178 1441.47 723.373 1444.15 Q726.567 1446.84 726.567 1451.33 Q726.567 1453.46 725.757 1455.38 Q724.97 1457.28 722.863 1459.87 Q722.285 1460.54 719.183 1463.76 Q716.081 1466.95 710.433 1472.72 Z" fill="#000000" fill-rule="evenodd" fill-opacity="1" /><path clip-path="url(#clip130)" d="M 0 0 M731.868 1442.09 L750.224 1442.09 L750.224 1446.03 L736.15 1446.03 L736.15 1454.5 Q737.169 1454.15 738.187 1453.99 Q739.206 1453.8 740.224 1453.8 Q746.011 1453.8 749.391 1456.98 Q752.771 1460.15 752.771 1465.56 Q752.771 1471.14 749.298 1474.24 Q745.826 1477.32 739.507 1477.32 Q737.331 1477.32 735.062 1476.95 Q732.817 1476.58 730.41 1475.84 L730.41 1471.14 Q732.493 1472.28 734.715 1472.83 Q736.937 1473.39 739.414 1473.39 Q743.419 1473.39 745.757 1471.28 Q748.095 1469.18 748.095 1465.56 Q748.095 1461.95 745.757 1459.85 Q743.419 1457.74 739.414 1457.74 Q737.539 1457.74 735.664 1458.16 Q733.812 1458.57 731.868 1459.45 L731.868 1442.09 Z" fill="#000000" fill-rule="evenodd" fill-opacity="1" /><path clip-path="url(#clip130)" d="M 0 0 M767.84 1445.17 Q764.229 1445.17 762.4 1448.74 Q760.595 1452.28 760.595 1459.41 Q760.595 1466.51 762.4 1470.08 Q764.229 1473.62 767.84 1473.62 Q771.474 1473.62 773.28 1470.08 Q775.108 1466.51 775.108 1459.41 Q775.108 1452.28 773.28 1448.74 Q771.474 1445.17 767.84 1445.17 M767.84 1441.47 Q773.65 1441.47 776.706 1446.07 Q779.784 1450.66 779.784 1459.41 Q779.784 1468.13 776.706 1472.74 Q773.65 1477.32 767.84 1477.32 Q762.03 1477.32 758.951 1472.74 Q755.896 1468.13 755.896 1459.41 Q755.896 1450.66 758.951 1446.07 Q762.03 1441.47 767.84 1441.47 Z" fill="#000000" fill-rule="evenodd" fill-opacity="1" /><path clip-path="url(#clip130)" d="M 0 0 M1168.3 1442.09 L1186.65 1442.09 L1186.65 1446.03 L1172.58 1446.03 L1172.58 1454.5 Q1173.6 1454.15 1174.62 1453.99 Q1175.64 1453.8 1176.65 1453.8 Q1182.44 1453.8 1185.82 1456.98 Q1189.2 1460.15 1189.2 1465.56 Q1189.2 1471.14 1185.73 1474.24 Q1182.26 1477.32 1175.94 1477.32 Q1173.76 1477.32 1171.49 1476.95 Q1169.25 1476.58 1166.84 1475.84 L1166.84 1471.14 Q1168.92 1472.28 1171.15 1472.83 Q1173.37 1473.39 1175.84 1473.39 Q1179.85 1473.39 1182.19 1471.28 Q1184.53 1469.18 1184.53 1465.56 Q1184.53 1461.95 1182.19 1459.85 Q1179.85 1457.74 1175.84 1457.74 Q1173.97 1457.74 1172.09 1458.16 Q1170.24 1458.57 1168.3 1459.45 L1168.3 1442.09 Z" fill="#000000" fill-rule="evenodd" fill-opacity="1" /><path clip-path="url(#clip130)" d="M 0 0 M1204.27 1445.17 Q1200.66 1445.17 1198.83 1448.74 Q1197.02 1452.28 1197.02 1459.41 Q1197.02 1466.51 1198.83 1470.08 Q1200.66 1473.62 1204.27 1473.62 Q1207.9 1473.62 1209.71 1470.08 Q1211.54 1466.51 1211.54 1459.41 Q1211.54 1452.28 1209.71 1448.74 Q1207.9 1445.17 1204.27 1445.17 M1204.27 1441.47 Q1210.08 1441.47 1213.14 1446.07 Q1216.21 1450.66 1216.21 1459.41 Q1216.21 1468.13 1213.14 1472.74 Q1210.08 1477.32 1204.27 1477.32 Q1198.46 1477.32 1195.38 1472.74 Q1192.33 1468.13 1192.33 1459.41 Q1192.33 1450.66 1195.38 1446.07 Q1198.46 1441.47 1204.27 1441.47 Z" fill="#000000" fill-rule="evenodd" fill-opacity="1" /><path clip-path="url(#clip130)" d="M 0 0 M1231.28 1445.17 Q1227.67 1445.17 1225.84 1448.74 Q1224.04 1452.28 1224.04 1459.41 Q1224.04 1466.51 1225.84 1470.08 Q1227.67 1473.62 1231.28 1473.62 Q1234.92 1473.62 1236.72 1470.08 Q1238.55 1466.51 1238.55 1459.41 Q1238.55 1452.28 1236.72 1448.74 Q1234.92 1445.17 1231.28 1445.17 M1231.28 1441.47 Q1237.09 1441.47 1240.15 1446.07 Q1243.23 1450.66 1243.23 1459.41 Q1243.23 1468.13 1240.15 1472.74 Q1237.09 1477.32 1231.28 1477.32 Q1225.47 1477.32 1222.4 1472.74 Q1219.34 1468.13 1219.34 1459.41 Q1219.34 1450.66 1222.4 1446.07 Q1225.47 1441.47 1231.28 1441.47 Z" fill="#000000" fill-rule="evenodd" fill-opacity="1" /><path clip-path="url(#clip130)" d="M 0 0 M1630.15 1442.09 L1652.37 1442.09 L1652.37 1444.08 L1639.82 1476.65 L1634.94 1476.65 L1646.74 1446.03 L1630.15 1446.03 L1630.15 1442.09 Z" fill="#000000" fill-rule="evenodd" fill-opacity="1" /><path clip-path="url(#clip130)" d="M 0 0 M1657.48 1442.09 L1675.84 1442.09 L1675.84 1446.03 L1661.77 1446.03 L1661.77 1454.5 Q1662.78 1454.15 1663.8 1453.99 Q1664.82 1453.8 1665.84 1453.8 Q1671.63 1453.8 1675.01 1456.98 Q1678.39 1460.15 1678.39 1465.56 Q1678.39 1471.14 1674.91 1474.24 Q1671.44 1477.32 1665.12 1477.32 Q1662.95 1477.32 1660.68 1476.95 Q1658.43 1476.58 1656.02 1475.84 L1656.02 1471.14 Q1658.11 1472.28 1660.33 1472.83 Q1662.55 1473.39 1665.03 1473.39 Q1669.03 1473.39 1671.37 1471.28 Q1673.71 1469.18 1673.71 1465.56 Q1673.71 1461.95 1671.37 1459.85 Q1669.03 1457.74 1665.03 1457.74 Q1663.15 1457.74 1661.28 1458.16 Q1659.43 1458.57 1657.48 1459.45 L1657.48 1442.09 Z" fill="#000000" fill-rule="evenodd" fill-opacity="1" /><path clip-path="url(#clip130)" d="M 0 0 M1693.45 1445.17 Q1689.84 1445.17 1688.02 1448.74 Q1686.21 1452.28 1686.21 1459.41 Q1686.21 1466.51 1688.02 1470.08 Q1689.84 1473.62 1693.45 1473.62 Q1697.09 1473.62 1698.89 1470.08 Q1700.72 1466.51 1700.72 1459.41 Q1700.72 1452.28 1698.89 1448.74 Q1697.09 1445.17 1693.45 1445.17 M1693.45 1441.47 Q1699.27 1441.47 1702.32 1446.07 Q1705.4 1450.66 1705.4 1459.41 Q1705.4 1468.13 1702.32 1472.74 Q1699.27 1477.32 1693.45 1477.32 Q1687.64 1477.32 1684.57 1472.74 Q1681.51 1468.13 1681.51 1459.41 Q1681.51 1450.66 1684.57 1446.07 Q1687.64 1441.47 1693.45 1441.47 Z" fill="#000000" fill-rule="evenodd" fill-opacity="1" /><path clip-path="url(#clip130)" d="M 0 0 M2080.37 1472.72 L2088.01 1472.72 L2088.01 1446.35 L2079.7 1448.02 L2079.7 1443.76 L2087.96 1442.09 L2092.64 1442.09 L2092.64 1472.72 L2100.28 1472.72 L2100.28 1476.65 L2080.37 1476.65 L2080.37 1472.72 Z" fill="#000000" fill-rule="evenodd" fill-opacity="1" /><path clip-path="url(#clip130)" d="M 0 0 M2115.35 1445.17 Q2111.74 1445.17 2109.91 1448.74 Q2108.1 1452.28 2108.1 1459.41 Q2108.1 1466.51 2109.91 1470.08 Q2111.74 1473.62 2115.35 1473.62 Q2118.98 1473.62 2120.79 1470.08 Q2122.62 1466.51 2122.62 1459.41 Q2122.62 1452.28 2120.79 1448.74 Q2118.98 1445.17 2115.35 1445.17 M2115.35 1441.47 Q2121.16 1441.47 2124.21 1446.07 Q2127.29 1450.66 2127.29 1459.41 Q2127.29 1468.13 2124.21 1472.74 Q2121.16 1477.32 2115.35 1477.32 Q2109.54 1477.32 2106.46 1472.74 Q2103.4 1468.13 2103.4 1459.41 Q2103.4 1450.66 2106.46 1446.07 Q2109.54 1441.47 2115.35 1441.47 Z" fill="#000000" fill-rule="evenodd" fill-opacity="1" /><path clip-path="url(#clip130)" d="M 0 0 M2142.36 1445.17 Q2138.75 1445.17 2136.92 1448.74 Q2135.12 1452.28 2135.12 1459.41 Q2135.12 1466.51 2136.92 1470.08 Q2138.75 1473.62 2142.36 1473.62 Q2146 1473.62 2147.8 1470.08 Q2149.63 1466.51 2149.63 1459.41 Q2149.63 1452.28 2147.8 1448.74 Q2146 1445.17 2142.36 1445.17 M2142.36 1441.47 Q2148.17 1441.47 2151.23 1446.07 Q2154.31 1450.66 2154.31 1459.41 Q2154.31 1468.13 2151.23 1472.74 Q2148.17 1477.32 2142.36 1477.32 Q2136.55 1477.32 2133.47 1472.74 Q2130.42 1468.13 2130.42 1459.41 Q2130.42 1450.66 2133.47 1446.07 Q2136.55 1441.47 2142.36 1441.47 Z" fill="#000000" fill-rule="evenodd" fill-opacity="1" /><path clip-path="url(#clip130)" d="M 0 0 M2169.38 1445.17 Q2165.76 1445.17 2163.94 1448.74 Q2162.13 1452.28 2162.13 1459.41 Q2162.13 1466.51 2163.94 1470.08 Q2165.76 1473.62 2169.38 1473.62 Q2173.01 1473.62 2174.82 1470.08 Q2176.64 1466.51 2176.64 1459.41 Q2176.64 1452.28 2174.82 1448.74 Q2173.01 1445.17 2169.38 1445.17 M2169.38 1441.47 Q2175.19 1441.47 2178.24 1446.07 Q2181.32 1450.66 2181.32 1459.41 Q2181.32 1468.13 2178.24 1472.74 Q2175.19 1477.32 2169.38 1477.32 Q2163.57 1477.32 2160.49 1472.74 Q2157.43 1468.13 2157.43 1459.41 Q2157.43 1450.66 2160.49 1446.07 Q2163.57 1441.47 2169.38 1441.47 Z" fill="#000000" fill-rule="evenodd" fill-opacity="1" /><path clip-path="url(#clip130)" d="M 0 0 M157.533 1263.5 L173.852 1263.5 L173.852 1267.44 L151.908 1267.44 L151.908 1263.5 Q154.57 1260.75 159.153 1256.12 Q163.76 1251.47 164.941 1250.12 Q167.186 1247.6 168.065 1245.86 Q168.968 1244.1 168.968 1242.41 Q168.968 1239.66 167.024 1237.92 Q165.103 1236.19 162.001 1236.19 Q159.802 1236.19 157.348 1236.95 Q154.917 1237.72 152.14 1239.27 L152.14 1234.54 Q154.964 1233.41 157.417 1232.83 Q159.871 1232.25 161.908 1232.25 Q167.278 1232.25 170.473 1234.94 Q173.667 1237.62 173.667 1242.11 Q173.667 1244.24 172.857 1246.16 Q172.07 1248.06 169.964 1250.66 Q169.385 1251.33 166.283 1254.54 Q163.181 1257.74 157.533 1263.5 Z" fill="#000000" fill-rule="evenodd" fill-opacity="1" /><path clip-path="url(#clip130)" d="M 0 0 M188.922 1235.96 Q185.311 1235.96 183.482 1239.52 Q181.677 1243.06 181.677 1250.19 Q181.677 1257.3 183.482 1260.86 Q185.311 1264.41 188.922 1264.41 Q192.556 1264.41 194.362 1260.86 Q196.19 1257.3 196.19 1250.19 Q196.19 1243.06 194.362 1239.52 Q192.556 1235.96 188.922 1235.96 M188.922 1232.25 Q194.732 1232.25 197.788 1236.86 Q200.866 1241.44 200.866 1250.19 Q200.866 1258.92 197.788 1263.53 Q194.732 1268.11 188.922 1268.11 Q183.112 1268.11 180.033 1263.53 Q176.977 1258.92 176.977 1250.19 Q176.977 1241.44 180.033 1236.86 Q183.112 1232.25 188.922 1232.25 Z" fill="#000000" fill-rule="evenodd" fill-opacity="1" /><path clip-path="url(#clip130)" d="M 0 0 M164.269 964.477 L152.464 982.926 L164.269 982.926 L164.269 964.477 M163.042 960.403 L168.922 960.403 L168.922 982.926 L173.852 982.926 L173.852 986.814 L168.922 986.814 L168.922 994.963 L164.269 994.963 L164.269 986.814 L148.667 986.814 L148.667 982.301 L163.042 960.403 Z" fill="#000000" fill-rule="evenodd" fill-opacity="1" /><path clip-path="url(#clip130)" d="M 0 0 M188.922 963.481 Q185.311 963.481 183.482 967.046 Q181.677 970.588 181.677 977.717 Q181.677 984.824 183.482 988.389 Q185.311 991.93 188.922 991.93 Q192.556 991.93 194.362 988.389 Q196.19 984.824 196.19 977.717 Q196.19 970.588 194.362 967.046 Q192.556 963.481 188.922 963.481 M188.922 959.778 Q194.732 959.778 197.788 964.384 Q200.866 968.967 200.866 977.717 Q200.866 986.444 197.788 991.051 Q194.732 995.634 188.922 995.634 Q183.112 995.634 180.033 991.051 Q176.977 986.444 176.977 977.717 Q176.977 968.967 180.033 964.384 Q183.112 959.778 188.922 959.778 Z" fill="#000000" fill-rule="evenodd" fill-opacity="1" /><path clip-path="url(#clip130)" d="M 0 0 M162.325 703.344 Q159.177 703.344 157.325 705.496 Q155.496 707.649 155.496 711.399 Q155.496 715.126 157.325 717.302 Q159.177 719.455 162.325 719.455 Q165.473 719.455 167.302 717.302 Q169.153 715.126 169.153 711.399 Q169.153 707.649 167.302 705.496 Q165.473 703.344 162.325 703.344 M171.607 688.691 L171.607 692.95 Q169.848 692.117 168.042 691.677 Q166.26 691.237 164.501 691.237 Q159.871 691.237 157.417 694.362 Q154.987 697.487 154.64 703.807 Q156.005 701.793 158.066 700.728 Q160.126 699.64 162.603 699.64 Q167.811 699.64 170.82 702.811 Q173.852 705.959 173.852 711.399 Q173.852 716.723 170.704 719.941 Q167.556 723.158 162.325 723.158 Q156.329 723.158 153.158 718.575 Q149.987 713.969 149.987 705.242 Q149.987 697.047 153.876 692.186 Q157.765 687.302 164.316 687.302 Q166.075 687.302 167.857 687.649 Q169.663 687.997 171.607 688.691 Z" fill="#000000" fill-rule="evenodd" fill-opacity="1" /><path clip-path="url(#clip130)" d="M 0 0 M188.922 691.006 Q185.311 691.006 183.482 694.571 Q181.677 698.112 181.677 705.242 Q181.677 712.348 183.482 715.913 Q185.311 719.455 188.922 719.455 Q192.556 719.455 194.362 715.913 Q196.19 712.348 196.19 705.242 Q196.19 698.112 194.362 694.571 Q192.556 691.006 188.922 691.006 M188.922 687.302 Q194.732 687.302 197.788 691.909 Q200.866 696.492 200.866 705.242 Q200.866 713.969 197.788 718.575 Q194.732 723.158 188.922 723.158 Q183.112 723.158 180.033 718.575 Q176.977 713.969 176.977 705.242 Q176.977 696.492 180.033 691.909 Q183.112 687.302 188.922 687.302 Z" fill="#000000" fill-rule="evenodd" fill-opacity="1" /><path clip-path="url(#clip130)" d="M 0 0 M162.001 433.6 Q158.667 433.6 156.746 435.382 Q154.848 437.165 154.848 440.29 Q154.848 443.415 156.746 445.197 Q158.667 446.979 162.001 446.979 Q165.334 446.979 167.255 445.197 Q169.177 443.391 169.177 440.29 Q169.177 437.165 167.255 435.382 Q165.357 433.6 162.001 433.6 M157.325 431.609 Q154.316 430.868 152.626 428.808 Q150.959 426.748 150.959 423.785 Q150.959 419.642 153.899 417.234 Q156.862 414.827 162.001 414.827 Q167.163 414.827 170.103 417.234 Q173.042 419.642 173.042 423.785 Q173.042 426.748 171.353 428.808 Q169.686 430.868 166.7 431.609 Q170.079 432.396 171.954 434.688 Q173.852 436.979 173.852 440.29 Q173.852 445.313 170.774 447.998 Q167.718 450.683 162.001 450.683 Q156.283 450.683 153.204 447.998 Q150.149 445.313 150.149 440.29 Q150.149 436.979 152.047 434.688 Q153.945 432.396 157.325 431.609 M155.612 424.225 Q155.612 426.91 157.279 428.415 Q158.968 429.919 162.001 429.919 Q165.01 429.919 166.7 428.415 Q168.413 426.91 168.413 424.225 Q168.413 421.54 166.7 420.035 Q165.01 418.53 162.001 418.53 Q158.968 418.53 157.279 420.035 Q155.612 421.54 155.612 424.225 Z" fill="#000000" fill-rule="evenodd" fill-opacity="1" /><path clip-path="url(#clip130)" d="M 0 0 M188.922 418.53 Q185.311 418.53 183.482 422.095 Q181.677 425.637 181.677 432.766 Q181.677 439.873 183.482 443.438 Q185.311 446.979 188.922 446.979 Q192.556 446.979 194.362 443.438 Q196.19 439.873 196.19 432.766 Q196.19 425.637 194.362 422.095 Q192.556 418.53 188.922 418.53 M188.922 414.827 Q194.732 414.827 197.788 419.433 Q200.866 424.016 200.866 432.766 Q200.866 441.493 197.788 446.1 Q194.732 450.683 188.922 450.683 Q183.112 450.683 180.033 446.1 Q176.977 441.493 176.977 432.766 Q176.977 424.016 180.033 419.433 Q183.112 414.827 188.922 414.827 Z" fill="#000000" fill-rule="evenodd" fill-opacity="1" /><path clip-path="url(#clip130)" d="M 0 0 M126.931 173.601 L134.57 173.601 L134.57 147.236 L126.26 148.902 L126.26 144.643 L134.524 142.976 L139.2 142.976 L139.2 173.601 L146.839 173.601 L146.839 177.536 L126.931 177.536 L126.931 173.601 Z" fill="#000000" fill-rule="evenodd" fill-opacity="1" /><path clip-path="url(#clip130)" d="M 0 0 M161.908 146.055 Q158.297 146.055 156.468 149.62 Q154.663 153.161 154.663 160.291 Q154.663 167.397 156.468 170.962 Q158.297 174.504 161.908 174.504 Q165.542 174.504 167.348 170.962 Q169.177 167.397 169.177 160.291 Q169.177 153.161 167.348 149.62 Q165.542 146.055 161.908 146.055 M161.908 142.351 Q167.718 142.351 170.774 146.958 Q173.852 151.541 173.852 160.291 Q173.852 169.018 170.774 173.624 Q167.718 178.208 161.908 178.208 Q156.098 178.208 153.019 173.624 Q149.964 169.018 149.964 160.291 Q149.964 151.541 153.019 146.958 Q156.098 142.351 161.908 142.351 Z" fill="#000000" fill-rule="evenodd" fill-opacity="1" /><path clip-path="url(#clip130)" d="M 0 0 M188.922 146.055 Q185.311 146.055 183.482 149.62 Q181.677 153.161 181.677 160.291 Q181.677 167.397 183.482 170.962 Q185.311 174.504 188.922 174.504 Q192.556 174.504 194.362 170.962 Q196.19 167.397 196.19 160.291 Q196.19 153.161 194.362 149.62 Q192.556 146.055 188.922 146.055 M188.922 142.351 Q194.732 142.351 197.788 146.958 Q200.866 151.541 200.866 160.291 Q200.866 169.018 197.788 173.624 Q194.732 178.208 188.922 178.208 Q183.112 178.208 180.033 173.624 Q176.977 169.018 176.977 160.291 Q176.977 151.541 180.033 146.958 Q183.112 142.351 188.922 142.351 Z" fill="#000000" fill-rule="evenodd" fill-opacity="1" /><path clip-path="url(#clip130)" d="M 0 0 M891.903 12.096 L926.66 12.096 L926.66 18.9825 L900.086 18.9825 L900.086 36.8065 L924.068 36.8065 L924.068 43.6931 L900.086 43.6931 L900.086 72.576 L891.903 72.576 L891.903 12.096 Z" fill="#000000" fill-rule="evenodd" fill-opacity="1" /><path clip-path="url(#clip130)" d="M 0 0 M954.733 34.1734 Q953.477 33.4443 951.978 33.1202 Q950.52 32.7556 948.738 32.7556 Q942.418 32.7556 939.015 36.8875 Q935.653 40.9789 935.653 48.6757 L935.653 72.576 L928.159 72.576 L928.159 27.2059 L935.653 27.2059 L935.653 34.2544 Q938.003 30.1225 941.77 28.1376 Q945.537 26.1121 950.925 26.1121 Q951.695 26.1121 952.627 26.2337 Q953.558 26.3147 954.692 26.5172 L954.733 34.1734 Z" fill="#000000" fill-rule="evenodd" fill-opacity="1" /><path clip-path="url(#clip130)" d="M 0 0 M962.551 27.2059 L970.005 27.2059 L970.005 72.576 L962.551 72.576 L962.551 27.2059 M962.551 9.54393 L970.005 9.54393 L970.005 18.9825 L962.551 18.9825 L962.551 9.54393 Z" fill="#000000" fill-rule="evenodd" fill-opacity="1" /><path clip-path="url(#clip130)" d="M 0 0 M1010.47 28.9478 L1010.47 35.9153 Q1007.31 34.1734 1004.11 33.3227 Q1000.95 32.4315 997.713 32.4315 Q990.462 32.4315 986.452 37.0496 Q982.441 41.6271 982.441 49.9314 Q982.441 58.2358 986.452 62.8538 Q990.462 67.4314 997.713 67.4314 Q1000.95 67.4314 1004.11 66.5807 Q1007.31 65.6895 1010.47 63.9476 L1010.47 70.8341 Q1007.35 72.2924 1003.99 73.0216 Q1000.67 73.7508 996.903 73.7508 Q986.654 73.7508 980.618 67.3098 Q974.582 60.8689 974.582 49.9314 Q974.582 38.832 980.659 32.472 Q986.776 26.1121 997.389 26.1121 Q1000.83 26.1121 1004.11 26.8413 Q1007.39 27.5299 1010.47 28.9478 Z" fill="#000000" fill-rule="evenodd" fill-opacity="1" /><path clip-path="url(#clip130)" d="M 0 0 M1025.66 14.324 L1025.66 27.2059 L1041.02 27.2059 L1041.02 32.9987 L1025.66 32.9987 L1025.66 57.6282 Q1025.66 63.1779 1027.16 64.7578 Q1028.7 66.3376 1033.36 66.3376 L1041.02 66.3376 L1041.02 72.576 L1033.36 72.576 Q1024.73 72.576 1021.45 69.3758 Q1018.17 66.1351 1018.17 57.6282 L1018.17 32.9987 L1012.7 32.9987 L1012.7 27.2059 L1018.17 27.2059 L1018.17 14.324 L1025.66 14.324 Z" fill="#000000" fill-rule="evenodd" fill-opacity="1" /><path clip-path="url(#clip130)" d="M 0 0 M1048.84 27.2059 L1056.29 27.2059 L1056.29 72.576 L1048.84 72.576 L1048.84 27.2059 M1048.84 9.54393 L1056.29 9.54393 L1056.29 18.9825 L1048.84 18.9825 L1048.84 9.54393 Z" fill="#000000" fill-rule="evenodd" fill-opacity="1" /><path clip-path="url(#clip130)" d="M 0 0 M1081.69 32.4315 Q1075.69 32.4315 1072.21 37.1306 Q1068.73 41.7891 1068.73 49.9314 Q1068.73 58.0738 1072.17 62.7728 Q1075.65 67.4314 1081.69 67.4314 Q1087.64 67.4314 1091.13 62.7323 Q1094.61 58.0333 1094.61 49.9314 Q1094.61 41.8701 1091.13 37.1711 Q1087.64 32.4315 1081.69 32.4315 M1081.69 26.1121 Q1091.41 26.1121 1096.96 32.4315 Q1102.51 38.7509 1102.51 49.9314 Q1102.51 61.0714 1096.96 67.4314 Q1091.41 73.7508 1081.69 73.7508 Q1071.93 73.7508 1066.38 67.4314 Q1060.87 61.0714 1060.87 49.9314 Q1060.87 38.7509 1066.38 32.4315 Q1071.93 26.1121 1081.69 26.1121 Z" fill="#000000" fill-rule="evenodd" fill-opacity="1" /><path clip-path="url(#clip130)" d="M 0 0 M1148.04 45.1919 L1148.04 72.576 L1140.59 72.576 L1140.59 45.4349 Q1140.59 38.994 1138.08 35.7938 Q1135.57 32.5936 1130.54 32.5936 Q1124.51 32.5936 1121.02 36.4419 Q1117.54 40.2903 1117.54 46.9338 L1117.54 72.576 L1110.04 72.576 L1110.04 27.2059 L1117.54 27.2059 L1117.54 34.2544 Q1120.21 30.163 1123.82 28.1376 Q1127.46 26.1121 1132.2 26.1121 Q1140.02 26.1121 1144.03 30.9732 Q1148.04 35.7938 1148.04 45.1919 Z" fill="#000000" fill-rule="evenodd" fill-opacity="1" /><path clip-path="url(#clip130)" d="M 0 0 M1176.88 27.2059 L1184.78 27.2059 L1198.96 65.2844 L1213.14 27.2059 L1221.04 27.2059 L1204.03 72.576 L1193.9 72.576 L1176.88 27.2059 Z" fill="#000000" fill-rule="evenodd" fill-opacity="1" /><path clip-path="url(#clip130)" d="M 0 0 M1267.67 48.0275 L1267.67 51.6733 L1233.39 51.6733 Q1233.88 59.3701 1238.01 63.421 Q1242.19 67.4314 1249.6 67.4314 Q1253.89 67.4314 1257.9 66.3781 Q1261.95 65.3249 1265.92 63.2184 L1265.92 70.267 Q1261.91 71.9684 1257.7 72.8596 Q1253.49 73.7508 1249.15 73.7508 Q1238.3 73.7508 1231.94 67.4314 Q1225.62 61.1119 1225.62 50.3365 Q1225.62 39.1965 1231.61 32.6746 Q1237.65 26.1121 1247.86 26.1121 Q1257.01 26.1121 1262.32 32.0264 Q1267.67 37.9003 1267.67 48.0275 M1260.21 45.84 Q1260.13 39.7232 1256.77 36.0774 Q1253.45 32.4315 1247.94 32.4315 Q1241.7 32.4315 1237.93 35.9558 Q1234.2 39.4801 1233.64 45.8805 L1260.21 45.84 Z" fill="#000000" fill-rule="evenodd" fill-opacity="1" /><path clip-path="url(#clip130)" d="M 0 0 M1275.48 9.54393 L1282.94 9.54393 L1282.94 72.576 L1275.48 72.576 L1275.48 9.54393 Z" fill="#000000" fill-rule="evenodd" fill-opacity="1" /><path clip-path="url(#clip130)" d="M 0 0 M1308.34 32.4315 Q1302.34 32.4315 1298.86 37.1306 Q1295.37 41.7891 1295.37 49.9314 Q1295.37 58.0738 1298.82 62.7728 Q1302.3 67.4314 1308.34 67.4314 Q1314.29 67.4314 1317.78 62.7323 Q1321.26 58.0333 1321.26 49.9314 Q1321.26 41.8701 1317.78 37.1711 Q1314.29 32.4315 1308.34 32.4315 M1308.34 26.1121 Q1318.06 26.1121 1323.61 32.4315 Q1329.16 38.7509 1329.16 49.9314 Q1329.16 61.0714 1323.61 67.4314 Q1318.06 73.7508 1308.34 73.7508 Q1298.57 73.7508 1293.02 67.4314 Q1287.51 61.0714 1287.51 49.9314 Q1287.51 38.7509 1293.02 32.4315 Q1298.57 26.1121 1308.34 26.1121 Z" fill="#000000" fill-rule="evenodd" fill-opacity="1" /><path clip-path="url(#clip130)" d="M 0 0 M1369.63 28.9478 L1369.63 35.9153 Q1366.47 34.1734 1363.27 33.3227 Q1360.11 32.4315 1356.87 32.4315 Q1349.62 32.4315 1345.6 37.0496 Q1341.59 41.6271 1341.59 49.9314 Q1341.59 58.2358 1345.6 62.8538 Q1349.62 67.4314 1356.87 67.4314 Q1360.11 67.4314 1363.27 66.5807 Q1366.47 65.6895 1369.63 63.9476 L1369.63 70.8341 Q1366.51 72.2924 1363.15 73.0216 Q1359.82 73.7508 1356.06 73.7508 Q1345.81 73.7508 1339.77 67.3098 Q1333.74 60.8689 1333.74 49.9314 Q1333.74 38.832 1339.81 32.472 Q1345.93 26.1121 1356.54 26.1121 Q1359.99 26.1121 1363.27 26.8413 Q1366.55 27.5299 1369.63 28.9478 Z" fill="#000000" fill-rule="evenodd" fill-opacity="1" /><path clip-path="url(#clip130)" d="M 0 0 M1377.44 27.2059 L1384.9 27.2059 L1384.9 72.576 L1377.44 72.576 L1377.44 27.2059 M1377.44 9.54393 L1384.9 9.54393 L1384.9 18.9825 L1377.44 18.9825 L1377.44 9.54393 Z" fill="#000000" fill-rule="evenodd" fill-opacity="1" /><path clip-path="url(#clip130)" d="M 0 0 M1400.09 14.324 L1400.09 27.2059 L1415.44 27.2059 L1415.44 32.9987 L1400.09 32.9987 L1400.09 57.6282 Q1400.09 63.1779 1401.59 64.7578 Q1403.13 66.3376 1407.79 66.3376 L1415.44 66.3376 L1415.44 72.576 L1407.79 72.576 Q1399.16 72.576 1395.88 69.3758 Q1392.6 66.1351 1392.6 57.6282 L1392.6 32.9987 L1387.13 32.9987 L1387.13 27.2059 L1392.6 27.2059 L1392.6 14.324 L1400.09 14.324 Z" fill="#000000" fill-rule="evenodd" fill-opacity="1" /><path clip-path="url(#clip130)" d="M 0 0 M1442.14 76.7889 Q1438.98 84.8907 1435.98 87.3618 Q1432.98 89.8329 1427.96 89.8329 L1422 89.8329 L1422 83.5945 L1426.38 83.5945 Q1429.46 83.5945 1431.16 82.1361 Q1432.86 80.6778 1434.93 75.2496 L1436.26 71.8468 L1417.91 27.2059 L1425.81 27.2059 L1439.99 62.6918 L1454.17 27.2059 L1462.07 27.2059 L1442.14 76.7889 Z" fill="#000000" fill-rule="evenodd" fill-opacity="1" /><path clip-path="url(#clip130)" d="M 0 0 M1490.91 27.2059 L1498.81 27.2059 L1512.99 65.2844 L1527.17 27.2059 L1535.07 27.2059 L1518.05 72.576 L1507.92 72.576 L1490.91 27.2059 Z" fill="#000000" fill-rule="evenodd" fill-opacity="1" /><path clip-path="url(#clip130)" d="M 0 0 M1571.81 28.5427 L1571.81 35.5912 Q1568.65 33.9709 1565.24 33.1607 Q1561.84 32.3505 1558.2 32.3505 Q1552.65 32.3505 1549.85 34.0519 Q1547.1 35.7533 1547.1 39.156 Q1547.1 41.7486 1549.08 43.2475 Q1551.07 44.7058 1557.06 46.0426 L1559.61 46.6097 Q1567.55 48.3111 1570.88 51.4303 Q1574.24 54.509 1574.24 60.0587 Q1574.24 66.3781 1569.21 70.0644 Q1564.23 73.7508 1555.48 73.7508 Q1551.84 73.7508 1547.87 73.0216 Q1543.94 72.3329 1539.56 70.9151 L1539.56 63.2184 Q1543.69 65.3654 1547.7 66.4591 Q1551.71 67.5124 1555.64 67.5124 Q1560.91 67.5124 1563.75 65.73 Q1566.58 63.9071 1566.58 60.6258 Q1566.58 57.5877 1564.52 55.9673 Q1562.49 54.3469 1555.56 52.8481 L1552.97 52.2405 Q1546.04 50.7821 1542.96 47.7845 Q1539.89 44.7463 1539.89 39.4801 Q1539.89 33.0797 1544.42 29.5959 Q1548.96 26.1121 1557.31 26.1121 Q1561.44 26.1121 1565.08 26.7198 Q1568.73 27.3274 1571.81 28.5427 Z" fill="#000000" fill-rule="evenodd" fill-opacity="1" /><path clip-path="url(#clip130)" d="M 0 0 M1638.28 34.0924 L1638.28 9.54393 L1645.74 9.54393 L1645.74 72.576 L1638.28 72.576 L1638.28 65.7705 Q1635.93 69.8214 1632.33 71.8063 Q1628.76 73.7508 1623.74 73.7508 Q1615.52 73.7508 1610.33 67.1883 Q1605.19 60.6258 1605.19 49.9314 Q1605.19 39.2371 1610.33 32.6746 Q1615.52 26.1121 1623.74 26.1121 Q1628.76 26.1121 1632.33 28.0971 Q1635.93 30.0415 1638.28 34.0924 M1612.88 49.9314 Q1612.88 58.1548 1616.25 62.8538 Q1619.65 67.5124 1625.56 67.5124 Q1631.48 67.5124 1634.88 62.8538 Q1638.28 58.1548 1638.28 49.9314 Q1638.28 41.7081 1634.88 37.0496 Q1631.48 32.3505 1625.56 32.3505 Q1619.65 32.3505 1616.25 37.0496 Q1612.88 41.7081 1612.88 49.9314 Z" fill="#000000" fill-rule="evenodd" fill-opacity="1" /><path clip-path="url(#clip130)" d="M 0 0 M1650.31 27.2059 L1685.72 27.2059 L1685.72 34.0114 L1657.69 66.6212 L1685.72 66.6212 L1685.72 72.576 L1649.3 72.576 L1649.3 65.7705 L1677.33 33.1607 L1650.31 33.1607 L1650.31 27.2059 Z" fill="#000000" fill-rule="evenodd" fill-opacity="1" /><path clip-path="url(#clip130)" d="M 0 0 M1064.82 1508.52 L1092.13 1508.52 L1092.13 1513.93 L1071.25 1513.93 L1071.25 1527.94 L1090.09 1527.94 L1090.09 1533.35 L1071.25 1533.35 L1071.25 1556.04 L1064.82 1556.04 L1064.82 1508.52 Z" fill="#000000" fill-rule="evenodd" fill-opacity="1" /><path clip-path="url(#clip130)" d="M 0 0 M1114.18 1525.87 Q1113.2 1525.3 1112.02 1525.04 Q1110.87 1524.76 1109.47 1524.76 Q1104.51 1524.76 1101.83 1528 Q1099.19 1531.22 1099.19 1537.27 L1099.19 1556.04 L1093.3 1556.04 L1093.3 1520.4 L1099.19 1520.4 L1099.19 1525.93 Q1101.04 1522.69 1104 1521.13 Q1106.96 1519.54 1111.19 1519.54 Q1111.8 1519.54 1112.53 1519.63 Q1113.26 1519.7 1114.15 1519.85 L1114.18 1525.87 Z" fill="#000000" fill-rule="evenodd" fill-opacity="1" /><path clip-path="url(#clip130)" d="M 0 0 M1120.33 1520.4 L1126.18 1520.4 L1126.18 1556.04 L1120.33 1556.04 L1120.33 1520.4 M1120.33 1506.52 L1126.18 1506.52 L1126.18 1513.93 L1120.33 1513.93 L1120.33 1506.52 Z" fill="#000000" fill-rule="evenodd" fill-opacity="1" /><path clip-path="url(#clip130)" d="M 0 0 M1157.98 1521.76 L1157.98 1527.24 Q1155.5 1525.87 1152.98 1525.2 Q1150.5 1524.5 1147.95 1524.5 Q1142.26 1524.5 1139.11 1528.13 Q1135.95 1531.73 1135.95 1538.25 Q1135.95 1544.78 1139.11 1548.4 Q1142.26 1552 1147.95 1552 Q1150.5 1552 1152.98 1551.33 Q1155.5 1550.63 1157.98 1549.26 L1157.98 1554.68 Q1155.53 1555.82 1152.89 1556.39 Q1150.28 1556.97 1147.32 1556.97 Q1139.26 1556.97 1134.52 1551.91 Q1129.78 1546.85 1129.78 1538.25 Q1129.78 1529.53 1134.55 1524.53 Q1139.36 1519.54 1147.7 1519.54 Q1150.4 1519.54 1152.98 1520.11 Q1155.56 1520.65 1157.98 1521.76 Z" fill="#000000" fill-rule="evenodd" fill-opacity="1" /><path clip-path="url(#clip130)" d="M 0 0 M1169.92 1510.27 L1169.92 1520.4 L1181.98 1520.4 L1181.98 1524.95 L1169.92 1524.95 L1169.92 1544.3 Q1169.92 1548.66 1171.09 1549.9 Q1172.3 1551.14 1175.96 1551.14 L1181.98 1551.14 L1181.98 1556.04 L1175.96 1556.04 Q1169.18 1556.04 1166.61 1553.53 Q1164.03 1550.98 1164.03 1544.3 L1164.03 1524.95 L1159.73 1524.95 L1159.73 1520.4 L1164.03 1520.4 L1164.03 1510.27 L1169.92 1510.27 Z" fill="#000000" fill-rule="evenodd" fill-opacity="1" /><path clip-path="url(#clip130)" d="M 0 0 M1188.12 1520.4 L1193.98 1520.4 L1193.98 1556.04 L1188.12 1556.04 L1188.12 1520.4 M1188.12 1506.52 L1193.98 1506.52 L1193.98 1513.93 L1188.12 1513.93 L1188.12 1506.52 Z" fill="#000000" fill-rule="evenodd" fill-opacity="1" /><path clip-path="url(#clip130)" d="M 0 0 M1213.93 1524.5 Q1209.22 1524.5 1206.49 1528.19 Q1203.75 1531.85 1203.75 1538.25 Q1203.75 1544.65 1206.45 1548.34 Q1209.19 1552 1213.93 1552 Q1218.61 1552 1221.35 1548.31 Q1224.09 1544.62 1224.09 1538.25 Q1224.09 1531.92 1221.35 1528.23 Q1218.61 1524.5 1213.93 1524.5 M1213.93 1519.54 Q1221.57 1519.54 1225.93 1524.5 Q1230.29 1529.47 1230.29 1538.25 Q1230.29 1547 1225.93 1552 Q1221.57 1556.97 1213.93 1556.97 Q1206.26 1556.97 1201.9 1552 Q1197.57 1547 1197.57 1538.25 Q1197.57 1529.47 1201.9 1524.5 Q1206.26 1519.54 1213.93 1519.54 Z" fill="#000000" fill-rule="evenodd" fill-opacity="1" /><path clip-path="url(#clip130)" d="M 0 0 M1266.07 1534.53 L1266.07 1556.04 L1260.21 1556.04 L1260.21 1534.72 Q1260.21 1529.66 1258.24 1527.14 Q1256.27 1524.63 1252.32 1524.63 Q1247.58 1524.63 1244.84 1527.65 Q1242.1 1530.68 1242.1 1535.9 L1242.1 1556.04 L1236.21 1556.04 L1236.21 1520.4 L1242.1 1520.4 L1242.1 1525.93 Q1244.2 1522.72 1247.04 1521.13 Q1249.9 1519.54 1253.62 1519.54 Q1259.77 1519.54 1262.92 1523.36 Q1266.07 1527.14 1266.07 1534.53 Z" fill="#000000" fill-rule="evenodd" fill-opacity="1" /><path clip-path="url(#clip130)" d="M 0 0 M1288.73 1520.4 L1294.94 1520.4 L1306.08 1550.31 L1317.22 1520.4 L1323.42 1520.4 L1310.06 1556.04 L1302.1 1556.04 L1288.73 1520.4 Z" fill="#000000" fill-rule="evenodd" fill-opacity="1" /><path clip-path="url(#clip130)" d="M 0 0 M1360.06 1536.76 L1360.06 1539.62 L1333.13 1539.62 Q1333.51 1545.67 1336.76 1548.85 Q1340.04 1552 1345.86 1552 Q1349.24 1552 1352.39 1551.17 Q1355.57 1550.35 1358.69 1548.69 L1358.69 1554.23 Q1355.54 1555.57 1352.23 1556.27 Q1348.92 1556.97 1345.51 1556.97 Q1336.98 1556.97 1331.99 1552 Q1327.02 1547.04 1327.02 1538.57 Q1327.02 1529.82 1331.73 1524.69 Q1336.47 1519.54 1344.5 1519.54 Q1351.69 1519.54 1355.86 1524.18 Q1360.06 1528.8 1360.06 1536.76 M1354.2 1535.04 Q1354.14 1530.23 1351.5 1527.37 Q1348.89 1524.5 1344.56 1524.5 Q1339.66 1524.5 1336.7 1527.27 Q1333.77 1530.04 1333.32 1535.07 L1354.2 1535.04 Z" fill="#000000" fill-rule="evenodd" fill-opacity="1" /><path clip-path="url(#clip130)" d="M 0 0 M1366.2 1506.52 L1372.06 1506.52 L1372.06 1556.04 L1366.2 1556.04 L1366.2 1506.52 Z" fill="#000000" fill-rule="evenodd" fill-opacity="1" /><path clip-path="url(#clip130)" d="M 0 0 M1392.02 1524.5 Q1387.3 1524.5 1384.57 1528.19 Q1381.83 1531.85 1381.83 1538.25 Q1381.83 1544.65 1384.54 1548.34 Q1387.27 1552 1392.02 1552 Q1396.69 1552 1399.43 1548.31 Q1402.17 1544.62 1402.17 1538.25 Q1402.17 1531.92 1399.43 1528.23 Q1396.69 1524.5 1392.02 1524.5 M1392.02 1519.54 Q1399.65 1519.54 1404.01 1524.5 Q1408.37 1529.47 1408.37 1538.25 Q1408.37 1547 1404.01 1552 Q1399.65 1556.97 1392.02 1556.97 Q1384.34 1556.97 1379.98 1552 Q1375.66 1547 1375.66 1538.25 Q1375.66 1529.47 1379.98 1524.5 Q1384.34 1519.54 1392.02 1519.54 Z" fill="#000000" fill-rule="evenodd" fill-opacity="1" /><path clip-path="url(#clip130)" d="M 0 0 M1440.17 1521.76 L1440.17 1527.24 Q1437.69 1525.87 1435.17 1525.2 Q1432.69 1524.5 1430.15 1524.5 Q1424.45 1524.5 1421.3 1528.13 Q1418.15 1531.73 1418.15 1538.25 Q1418.15 1544.78 1421.3 1548.4 Q1424.45 1552 1430.15 1552 Q1432.69 1552 1435.17 1551.33 Q1437.69 1550.63 1440.17 1549.26 L1440.17 1554.68 Q1437.72 1555.82 1435.08 1556.39 Q1432.47 1556.97 1429.51 1556.97 Q1421.46 1556.97 1416.71 1551.91 Q1411.97 1546.85 1411.97 1538.25 Q1411.97 1529.53 1416.75 1524.53 Q1421.55 1519.54 1429.89 1519.54 Q1432.6 1519.54 1435.17 1520.11 Q1437.75 1520.65 1440.17 1521.76 Z" fill="#000000" fill-rule="evenodd" fill-opacity="1" /><path clip-path="url(#clip130)" d="M 0 0 M1446.31 1520.4 L1452.17 1520.4 L1452.17 1556.04 L1446.31 1556.04 L1446.31 1520.4 M1446.31 1506.52 L1452.17 1506.52 L1452.17 1513.93 L1446.31 1513.93 L1446.31 1506.52 Z" fill="#000000" fill-rule="evenodd" fill-opacity="1" /><path clip-path="url(#clip130)" d="M 0 0 M1464.11 1510.27 L1464.11 1520.4 L1476.17 1520.4 L1476.17 1524.95 L1464.11 1524.95 L1464.11 1544.3 Q1464.11 1548.66 1465.28 1549.9 Q1466.49 1551.14 1470.15 1551.14 L1476.17 1551.14 L1476.17 1556.04 L1470.15 1556.04 Q1463.37 1556.04 1460.8 1553.53 Q1458.22 1550.98 1458.22 1544.3 L1458.22 1524.95 L1453.92 1524.95 L1453.92 1520.4 L1458.22 1520.4 L1458.22 1510.27 L1464.11 1510.27 Z" fill="#000000" fill-rule="evenodd" fill-opacity="1" /><path clip-path="url(#clip130)" d="M 0 0 M1497.14 1559.35 Q1494.66 1565.72 1492.31 1567.66 Q1489.95 1569.6 1486 1569.6 L1481.33 1569.6 L1481.33 1564.7 L1484.76 1564.7 Q1487.18 1564.7 1488.52 1563.56 Q1489.86 1562.41 1491.48 1558.14 L1492.53 1555.47 L1478.11 1520.4 L1484.32 1520.4 L1495.46 1548.28 L1506.6 1520.4 L1512.8 1520.4 L1497.14 1559.35 Z" fill="#000000" fill-rule="evenodd" fill-opacity="1" /><path clip-path="url(#clip130)" d="M 0 0 M57.7671 778.96 L38.479 778.96 L38.479 773.103 L88.0042 773.103 L88.0042 778.96 L82.657 778.96 Q85.8398 780.806 87.3994 783.638 Q88.9272 786.439 88.9272 790.386 Q88.9272 796.847 83.771 800.921 Q78.6147 804.964 70.212 804.964 Q61.8093 804.964 56.6531 800.921 Q51.4968 796.847 51.4968 790.386 Q51.4968 786.439 53.0564 783.638 Q54.5842 780.806 57.7671 778.96 M70.212 798.916 Q76.6732 798.916 80.3653 796.274 Q84.0256 793.601 84.0256 788.954 Q84.0256 784.307 80.3653 781.633 Q76.6732 778.96 70.212 778.96 Q63.7508 778.96 60.0905 781.633 Q56.3984 784.307 56.3984 788.954 Q56.3984 793.601 60.0905 796.274 Q63.7508 798.916 70.212 798.916 Z" fill="#000000" fill-rule="evenodd" fill-opacity="1" /><path clip-path="url(#clip130)" d="M 0 0 M52.3562 769.507 L52.3562 741.688 L57.7034 741.688 L83.3254 763.714 L83.3254 741.688 L88.0042 741.688 L88.0042 770.302 L82.657 770.302 L57.035 748.277 L57.035 769.507 L52.3562 769.507 Z" fill="#000000" fill-rule="evenodd" fill-opacity="1" /><polyline clip-path="url(#clip132)" style="stroke:#009af9; stroke-width:4; stroke-opacity:1; fill:none" points="
  2292.53,1374.01 840.116,1361.63 555.035,1349.24 449.807,1336.85 398.603,1324.47 369.436,1312.08 351.033,1299.7 338.558,1287.31 329.64,1274.93 323,1262.54 
  317.893,1250.16 313.86,1237.77 310.606,1225.39 307.932,1213 305.7,1200.62 303.812,1188.23 302.196,1175.85 300.799,1163.46 299.58,1151.08 298.508,1138.69 
  297.559,1126.31 296.713,1113.92 295.954,1101.54 295.27,1089.15 294.651,1076.76 294.087,1064.38 293.572,1051.99 293.1,1039.61 292.666,1027.22 292.265,1014.84 
  291.894,1002.45 291.549,990.068 291.229,977.683 290.93,965.297 290.65,952.912 290.388,940.527 290.142,928.142 289.91,915.756 289.692,903.371 289.487,890.986 
  289.292,878.601 289.108,866.215 288.933,853.83 288.767,841.445 288.61,829.06 288.46,816.674 288.317,804.289 288.18,791.904 288.05,779.519 287.926,767.133 
  287.807,754.748 287.693,742.363 287.584,729.978 287.479,717.592 287.378,705.207 287.281,692.822 287.189,680.437 287.099,668.051 287.013,655.666 286.93,643.281 
  286.85,630.896 286.773,618.51 286.698,606.125 286.627,593.74 286.557,581.355 286.49,568.969 286.425,556.584 286.362,544.199 286.301,531.814 286.242,519.428 
  286.185,507.043 286.129,494.658 286.076,482.273 286.023,469.887 285.973,457.502 285.924,445.117 285.876,432.732 285.829,420.346 285.784,407.961 285.74,395.576 
  285.697,383.191 285.656,370.805 285.615,358.42 285.576,346.035 285.538,333.65 285.5,321.265 285.464,308.879 285.428,296.494 285.394,284.109 285.36,271.724 
  285.327,259.338 285.295,246.953 285.263,234.568 285.233,222.183 285.203,209.797 285.173,197.412 285.145,185.027 285.117,172.642 285.09,160.256 
  "/>
<path clip-path="url(#clip130)" d="
M1989.74 327.952 L2280.76 327.952 L2280.76 206.992 L1989.74 206.992  Z
  " fill="#ffffff" fill-rule="evenodd" fill-opacity="1"/>
<polyline clip-path="url(#clip130)" style="stroke:#000000; stroke-width:4; stroke-opacity:1; fill:none" points="
  1989.74,327.952 2280.76,327.952 2280.76,206.992 1989.74,206.992 1989.74,327.952 
  "/>
<polyline clip-path="url(#clip130)" style="stroke:#009af9; stroke-width:4; stroke-opacity:1; fill:none" points="
  2013.74,267.472 2157.74,267.472 
  "/>
<path clip-path="url(#clip130)" d="M 0 0 M2195.58 287.16 Q2193.77 291.789 2192.06 293.201 Q2190.35 294.613 2187.48 294.613 L2184.08 294.613 L2184.08 291.048 L2186.58 291.048 Q2188.33 291.048 2189.31 290.215 Q2190.28 289.382 2191.46 286.28 L2192.22 284.335 L2181.74 258.826 L2186.25 258.826 L2194.35 279.104 L2202.46 258.826 L2206.97 258.826 L2195.58 287.16 Z" fill="#000000" fill-rule="evenodd" fill-opacity="1" /><path clip-path="url(#clip130)" d="M 0 0 M2212.85 280.817 L2220.49 280.817 L2220.49 254.451 L2212.18 256.118 L2212.18 251.859 L2220.44 250.192 L2225.12 250.192 L2225.12 280.817 L2232.76 280.817 L2232.76 284.752 L2212.85 284.752 L2212.85 280.817 Z" fill="#000000" fill-rule="evenodd" fill-opacity="1" /></svg>
