<?xml version="1.0" encoding="utf-8"?>
<svg xmlns="http://www.w3.org/2000/svg" xmlns:xlink="http://www.w3.org/1999/xlink" width="600" height="400" viewBox="0 0 2400 1600">
<defs>
  <clipPath id="clip710">
    <rect x="0" y="0" width="2400" height="1600"/>
  </clipPath>
</defs>
<path clip-path="url(#clip710)" d="
M0 1600 L2400 1600 L2400 0 L0 0  Z
  " fill="#ffffff" fill-rule="evenodd" fill-opacity="1"/>
<defs>
  <clipPath id="clip711">
    <rect x="480" y="0" width="1681" height="1600"/>
  </clipPath>
</defs>
<path clip-path="url(#clip710)" d="
M238.13 1423.18 L2352.76 1423.18 L2352.76 47.2441 L238.13 47.2441  Z
  " fill="#ffffff" fill-rule="evenodd" fill-opacity="1"/>
<defs>
  <clipPath id="clip712">
    <rect x="238" y="47" width="2116" height="1377"/>
  </clipPath>
</defs>
<polyline clip-path="url(#clip712)" style="stroke:#000000; stroke-width:2; stroke-opacity:0.1; fill:none" points="
  297.978,1423.18 297.978,47.2441 
  "/>
<polyline clip-path="url(#clip712)" style="stroke:#000000; stroke-width:2; stroke-opacity:0.1; fill:none" points="
  867.958,1423.18 867.958,47.2441 
  "/>
<polyline clip-path="url(#clip712)" style="stroke:#000000; stroke-width:2; stroke-opacity:0.1; fill:none" points="
  1437.94,1423.18 1437.94,47.2441 
  "/>
<polyline clip-path="url(#clip712)" style="stroke:#000000; stroke-width:2; stroke-opacity:0.1; fill:none" points="
  2007.92,1423.18 2007.92,47.2441 
  "/>
<polyline clip-path="url(#clip710)" style="stroke:#000000; stroke-width:4; stroke-opacity:1; fill:none" points="
  238.13,1423.18 2352.76,1423.18 
  "/>
<polyline clip-path="url(#clip710)" style="stroke:#000000; stroke-width:4; stroke-opacity:1; fill:none" points="
  297.978,1423.18 297.978,1406.67 
  "/>
<polyline clip-path="url(#clip710)" style="stroke:#000000; stroke-width:4; stroke-opacity:1; fill:none" points="
  867.958,1423.18 867.958,1406.67 
  "/>
<polyline clip-path="url(#clip710)" style="stroke:#000000; stroke-width:4; stroke-opacity:1; fill:none" points="
  1437.94,1423.18 1437.94,1406.67 
  "/>
<polyline clip-path="url(#clip710)" style="stroke:#000000; stroke-width:4; stroke-opacity:1; fill:none" points="
  2007.92,1423.18 2007.92,1406.67 
  "/>
<path clip-path="url(#clip710)" d="M 0 0 M297.978 1452.37 Q294.367 1452.37 292.538 1455.94 Q290.733 1459.48 290.733 1466.61 Q290.733 1473.71 292.538 1477.28 Q294.367 1480.82 297.978 1480.82 Q301.612 1480.82 303.418 1477.28 Q305.246 1473.71 305.246 1466.61 Q305.246 1459.48 303.418 1455.94 Q301.612 1452.37 297.978 1452.37 M297.978 1448.67 Q303.788 1448.67 306.844 1453.27 Q309.922 1457.86 309.922 1466.61 Q309.922 1475.33 306.844 1479.94 Q303.788 1484.52 297.978 1484.52 Q292.168 1484.52 289.089 1479.94 Q286.034 1475.33 286.034 1466.61 Q286.034 1457.86 289.089 1453.27 Q292.168 1448.67 297.978 1448.67 Z" fill="#000000" fill-rule="evenodd" fill-opacity="1" /><path clip-path="url(#clip710)" d="M 0 0 M831.326 1479.92 L838.965 1479.92 L838.965 1453.55 L830.655 1455.22 L830.655 1450.96 L838.919 1449.29 L843.595 1449.29 L843.595 1479.92 L851.234 1479.92 L851.234 1483.85 L831.326 1483.85 L831.326 1479.92 Z" fill="#000000" fill-rule="evenodd" fill-opacity="1" /><path clip-path="url(#clip710)" d="M 0 0 M866.303 1452.37 Q862.692 1452.37 860.863 1455.94 Q859.058 1459.48 859.058 1466.61 Q859.058 1473.71 860.863 1477.28 Q862.692 1480.82 866.303 1480.82 Q869.937 1480.82 871.743 1477.28 Q873.571 1473.71 873.571 1466.61 Q873.571 1459.48 871.743 1455.94 Q869.937 1452.37 866.303 1452.37 M866.303 1448.67 Q872.113 1448.67 875.169 1453.27 Q878.247 1457.86 878.247 1466.61 Q878.247 1475.33 875.169 1479.94 Q872.113 1484.52 866.303 1484.52 Q860.493 1484.52 857.414 1479.94 Q854.359 1475.33 854.359 1466.61 Q854.359 1457.86 857.414 1453.27 Q860.493 1448.67 866.303 1448.67 Z" fill="#000000" fill-rule="evenodd" fill-opacity="1" /><path clip-path="url(#clip710)" d="M 0 0 M893.317 1452.37 Q889.706 1452.37 887.877 1455.94 Q886.071 1459.48 886.071 1466.61 Q886.071 1473.71 887.877 1477.28 Q889.706 1480.82 893.317 1480.82 Q896.951 1480.82 898.756 1477.28 Q900.585 1473.71 900.585 1466.61 Q900.585 1459.48 898.756 1455.94 Q896.951 1452.37 893.317 1452.37 M893.317 1448.67 Q899.127 1448.67 902.182 1453.27 Q905.261 1457.86 905.261 1466.61 Q905.261 1475.33 902.182 1479.94 Q899.127 1484.52 893.317 1484.52 Q887.506 1484.52 884.428 1479.94 Q881.372 1475.33 881.372 1466.61 Q881.372 1457.86 884.428 1453.27 Q887.506 1448.67 893.317 1448.67 Z" fill="#000000" fill-rule="evenodd" fill-opacity="1" /><path clip-path="url(#clip710)" d="M 0 0 M1405.58 1479.92 L1421.9 1479.92 L1421.9 1483.85 L1399.95 1483.85 L1399.95 1479.92 Q1402.61 1477.16 1407.2 1472.53 Q1411.8 1467.88 1412.98 1466.54 Q1415.23 1464.01 1416.11 1462.28 Q1417.01 1460.52 1417.01 1458.83 Q1417.01 1456.07 1415.07 1454.34 Q1413.15 1452.6 1410.04 1452.6 Q1407.85 1452.6 1405.39 1453.37 Q1402.96 1454.13 1400.18 1455.68 L1400.18 1450.96 Q1403.01 1449.82 1405.46 1449.25 Q1407.91 1448.67 1409.95 1448.67 Q1415.32 1448.67 1418.52 1451.35 Q1421.71 1454.04 1421.71 1458.53 Q1421.71 1460.66 1420.9 1462.58 Q1420.11 1464.48 1418.01 1467.07 Q1417.43 1467.74 1414.33 1470.96 Q1411.23 1474.15 1405.58 1479.92 Z" fill="#000000" fill-rule="evenodd" fill-opacity="1" /><path clip-path="url(#clip710)" d="M 0 0 M1436.97 1452.37 Q1433.35 1452.37 1431.53 1455.94 Q1429.72 1459.48 1429.72 1466.61 Q1429.72 1473.71 1431.53 1477.28 Q1433.35 1480.82 1436.97 1480.82 Q1440.6 1480.82 1442.41 1477.28 Q1444.23 1473.71 1444.23 1466.61 Q1444.23 1459.48 1442.41 1455.94 Q1440.6 1452.37 1436.97 1452.37 M1436.97 1448.67 Q1442.78 1448.67 1445.83 1453.27 Q1448.91 1457.86 1448.91 1466.61 Q1448.91 1475.33 1445.83 1479.94 Q1442.78 1484.52 1436.97 1484.52 Q1431.16 1484.52 1428.08 1479.94 Q1425.02 1475.33 1425.02 1466.61 Q1425.02 1457.86 1428.08 1453.27 Q1431.16 1448.67 1436.97 1448.67 Z" fill="#000000" fill-rule="evenodd" fill-opacity="1" /><path clip-path="url(#clip710)" d="M 0 0 M1463.98 1452.37 Q1460.37 1452.37 1458.54 1455.94 Q1456.73 1459.48 1456.73 1466.61 Q1456.73 1473.71 1458.54 1477.28 Q1460.37 1480.82 1463.98 1480.82 Q1467.61 1480.82 1469.42 1477.28 Q1471.25 1473.71 1471.25 1466.61 Q1471.25 1459.48 1469.42 1455.94 Q1467.61 1452.37 1463.98 1452.37 M1463.98 1448.67 Q1469.79 1448.67 1472.85 1453.27 Q1475.92 1457.86 1475.92 1466.61 Q1475.92 1475.33 1472.85 1479.94 Q1469.79 1484.52 1463.98 1484.52 Q1458.17 1484.52 1455.09 1479.94 Q1452.04 1475.33 1452.04 1466.61 Q1452.04 1457.86 1455.09 1453.27 Q1458.17 1448.67 1463.98 1448.67 Z" fill="#000000" fill-rule="evenodd" fill-opacity="1" /><path clip-path="url(#clip710)" d="M 0 0 M1985.15 1465.22 Q1988.51 1465.94 1990.38 1468.2 Q1992.28 1470.47 1992.28 1473.81 Q1992.28 1478.92 1988.76 1481.72 Q1985.24 1484.52 1978.76 1484.52 Q1976.59 1484.52 1974.27 1484.08 Q1971.98 1483.67 1969.53 1482.81 L1969.53 1478.3 Q1971.47 1479.43 1973.79 1480.01 Q1976.1 1480.59 1978.62 1480.59 Q1983.02 1480.59 1985.31 1478.85 Q1987.63 1477.12 1987.63 1473.81 Q1987.63 1470.75 1985.48 1469.04 Q1983.35 1467.3 1979.53 1467.3 L1975.5 1467.3 L1975.5 1463.46 L1979.71 1463.46 Q1983.16 1463.46 1984.99 1462.09 Q1986.82 1460.7 1986.82 1458.11 Q1986.82 1455.45 1984.92 1454.04 Q1983.05 1452.6 1979.53 1452.6 Q1977.61 1452.6 1975.41 1453.02 Q1973.21 1453.44 1970.57 1454.31 L1970.57 1450.15 Q1973.23 1449.41 1975.55 1449.04 Q1977.88 1448.67 1979.94 1448.67 Q1985.27 1448.67 1988.37 1451.1 Q1991.47 1453.5 1991.47 1457.63 Q1991.47 1460.5 1989.83 1462.49 Q1988.18 1464.45 1985.15 1465.22 Z" fill="#000000" fill-rule="evenodd" fill-opacity="1" /><path clip-path="url(#clip710)" d="M 0 0 M2007.35 1452.37 Q2003.74 1452.37 2001.91 1455.94 Q2000.11 1459.48 2000.11 1466.61 Q2000.11 1473.71 2001.91 1477.28 Q2003.74 1480.82 2007.35 1480.82 Q2010.99 1480.82 2012.79 1477.28 Q2014.62 1473.71 2014.62 1466.61 Q2014.62 1459.48 2012.79 1455.94 Q2010.99 1452.37 2007.35 1452.37 M2007.35 1448.67 Q2013.16 1448.67 2016.22 1453.27 Q2019.3 1457.86 2019.3 1466.61 Q2019.3 1475.33 2016.22 1479.94 Q2013.16 1484.52 2007.35 1484.52 Q2001.54 1484.52 1998.46 1479.94 Q1995.41 1475.33 1995.41 1466.61 Q1995.41 1457.86 1998.46 1453.27 Q2001.54 1448.67 2007.35 1448.67 Z" fill="#000000" fill-rule="evenodd" fill-opacity="1" /><path clip-path="url(#clip710)" d="M 0 0 M2034.36 1452.37 Q2030.75 1452.37 2028.92 1455.94 Q2027.12 1459.48 2027.12 1466.61 Q2027.12 1473.71 2028.92 1477.28 Q2030.75 1480.82 2034.36 1480.82 Q2038 1480.82 2039.8 1477.28 Q2041.63 1473.71 2041.63 1466.61 Q2041.63 1459.48 2039.8 1455.94 Q2038 1452.37 2034.36 1452.37 M2034.36 1448.67 Q2040.17 1448.67 2043.23 1453.27 Q2046.31 1457.86 2046.31 1466.61 Q2046.31 1475.33 2043.23 1479.94 Q2040.17 1484.52 2034.36 1484.52 Q2028.55 1484.52 2025.48 1479.94 Q2022.42 1475.33 2022.42 1466.61 Q2022.42 1457.86 2025.48 1453.27 Q2028.55 1448.67 2034.36 1448.67 Z" fill="#000000" fill-rule="evenodd" fill-opacity="1" /><path clip-path="url(#clip710)" d="M 0 0 M1312.06 1520.4 L1299.17 1537.74 L1312.73 1556.04 L1305.82 1556.04 L1295.44 1542.04 L1285.07 1556.04 L1278.16 1556.04 L1292.01 1537.39 L1279.34 1520.4 L1286.24 1520.4 L1295.7 1533.1 L1305.15 1520.4 L1312.06 1520.4 Z" fill="#000000" fill-rule="evenodd" fill-opacity="1" /><polyline clip-path="url(#clip712)" style="stroke:#000000; stroke-width:2; stroke-opacity:0.1; fill:none" points="
  238.13,1314.03 2352.76,1314.03 
  "/>
<polyline clip-path="url(#clip712)" style="stroke:#000000; stroke-width:2; stroke-opacity:0.1; fill:none" points="
  238.13,1025.73 2352.76,1025.73 
  "/>
<polyline clip-path="url(#clip712)" style="stroke:#000000; stroke-width:2; stroke-opacity:0.1; fill:none" points="
  238.13,737.425 2352.76,737.425 
  "/>
<polyline clip-path="url(#clip712)" style="stroke:#000000; stroke-width:2; stroke-opacity:0.1; fill:none" points="
  238.13,449.123 2352.76,449.123 
  "/>
<polyline clip-path="url(#clip712)" style="stroke:#000000; stroke-width:2; stroke-opacity:0.1; fill:none" points="
  238.13,160.821 2352.76,160.821 
  "/>
<polyline clip-path="url(#clip710)" style="stroke:#000000; stroke-width:4; stroke-opacity:1; fill:none" points="
  238.13,1423.18 238.13,47.2441 
  "/>
<polyline clip-path="url(#clip710)" style="stroke:#000000; stroke-width:4; stroke-opacity:1; fill:none" points="
  238.13,1314.03 263.506,1314.03 
  "/>
<polyline clip-path="url(#clip710)" style="stroke:#000000; stroke-width:4; stroke-opacity:1; fill:none" points="
  238.13,1025.73 263.506,1025.73 
  "/>
<polyline clip-path="url(#clip710)" style="stroke:#000000; stroke-width:4; stroke-opacity:1; fill:none" points="
  238.13,737.425 263.506,737.425 
  "/>
<polyline clip-path="url(#clip710)" style="stroke:#000000; stroke-width:4; stroke-opacity:1; fill:none" points="
  238.13,449.123 263.506,449.123 
  "/>
<polyline clip-path="url(#clip710)" style="stroke:#000000; stroke-width:4; stroke-opacity:1; fill:none" points="
  238.13,160.821 263.506,160.821 
  "/>
<path clip-path="url(#clip710)" d="M 0 0 M126.205 1299.83 Q122.593 1299.83 120.765 1303.39 Q118.959 1306.93 118.959 1314.06 Q118.959 1321.17 120.765 1324.73 Q122.593 1328.28 126.205 1328.28 Q129.839 1328.28 131.644 1324.73 Q133.473 1321.17 133.473 1314.06 Q133.473 1306.93 131.644 1303.39 Q129.839 1299.83 126.205 1299.83 M126.205 1296.12 Q132.015 1296.12 135.07 1300.73 Q138.149 1305.31 138.149 1314.06 Q138.149 1322.79 135.07 1327.4 Q132.015 1331.98 126.205 1331.98 Q120.394 1331.98 117.316 1327.4 Q114.26 1322.79 114.26 1314.06 Q114.26 1305.31 117.316 1300.73 Q120.394 1296.12 126.205 1296.12 Z" fill="#000000" fill-rule="evenodd" fill-opacity="1" /><path clip-path="url(#clip710)" d="M 0 0 M143.218 1325.43 L148.103 1325.43 L148.103 1331.31 L143.218 1331.31 L143.218 1325.43 Z" fill="#000000" fill-rule="evenodd" fill-opacity="1" /><path clip-path="url(#clip710)" d="M 0 0 M163.172 1299.83 Q159.561 1299.83 157.732 1303.39 Q155.927 1306.93 155.927 1314.06 Q155.927 1321.17 157.732 1324.73 Q159.561 1328.28 163.172 1328.28 Q166.806 1328.28 168.612 1324.73 Q170.44 1321.17 170.44 1314.06 Q170.44 1306.93 168.612 1303.39 Q166.806 1299.83 163.172 1299.83 M163.172 1296.12 Q168.982 1296.12 172.038 1300.73 Q175.116 1305.31 175.116 1314.06 Q175.116 1322.79 172.038 1327.4 Q168.982 1331.98 163.172 1331.98 Q157.362 1331.98 154.283 1327.4 Q151.228 1322.79 151.228 1314.06 Q151.228 1305.31 154.283 1300.73 Q157.362 1296.12 163.172 1296.12 Z" fill="#000000" fill-rule="evenodd" fill-opacity="1" /><path clip-path="url(#clip710)" d="M 0 0 M190.186 1299.83 Q186.575 1299.83 184.746 1303.39 Q182.94 1306.93 182.94 1314.06 Q182.94 1321.17 184.746 1324.73 Q186.575 1328.28 190.186 1328.28 Q193.82 1328.28 195.625 1324.73 Q197.454 1321.17 197.454 1314.06 Q197.454 1306.93 195.625 1303.39 Q193.82 1299.83 190.186 1299.83 M190.186 1296.12 Q195.996 1296.12 199.051 1300.73 Q202.13 1305.31 202.13 1314.06 Q202.13 1322.79 199.051 1327.4 Q195.996 1331.98 190.186 1331.98 Q184.376 1331.98 181.297 1327.4 Q178.241 1322.79 178.241 1314.06 Q178.241 1305.31 181.297 1300.73 Q184.376 1296.12 190.186 1296.12 Z" fill="#000000" fill-rule="evenodd" fill-opacity="1" /><path clip-path="url(#clip710)" d="M 0 0 M128.797 1011.53 Q125.186 1011.53 123.357 1015.09 Q121.552 1018.63 121.552 1025.76 Q121.552 1032.87 123.357 1036.43 Q125.186 1039.97 128.797 1039.97 Q132.431 1039.97 134.237 1036.43 Q136.066 1032.87 136.066 1025.76 Q136.066 1018.63 134.237 1015.09 Q132.431 1011.53 128.797 1011.53 M128.797 1007.82 Q134.607 1007.82 137.663 1012.43 Q140.741 1017.01 140.741 1025.76 Q140.741 1034.49 137.663 1039.09 Q134.607 1043.68 128.797 1043.68 Q122.987 1043.68 119.908 1039.09 Q116.853 1034.49 116.853 1025.76 Q116.853 1017.01 119.908 1012.43 Q122.987 1007.82 128.797 1007.82 Z" fill="#000000" fill-rule="evenodd" fill-opacity="1" /><path clip-path="url(#clip710)" d="M 0 0 M145.811 1037.13 L150.695 1037.13 L150.695 1043.01 L145.811 1043.01 L145.811 1037.13 Z" fill="#000000" fill-rule="evenodd" fill-opacity="1" /><path clip-path="url(#clip710)" d="M 0 0 M159.792 1039.07 L176.112 1039.07 L176.112 1043.01 L154.167 1043.01 L154.167 1039.07 Q156.829 1036.32 161.413 1031.69 Q166.019 1027.03 167.2 1025.69 Q169.445 1023.17 170.325 1021.43 Q171.227 1019.67 171.227 1017.98 Q171.227 1015.23 169.283 1013.49 Q167.362 1011.76 164.26 1011.76 Q162.061 1011.76 159.607 1012.52 Q157.177 1013.28 154.399 1014.84 L154.399 1010.11 Q157.223 1008.98 159.677 1008.4 Q162.13 1007.82 164.167 1007.82 Q169.538 1007.82 172.732 1010.51 Q175.926 1013.19 175.926 1017.68 Q175.926 1019.81 175.116 1021.73 Q174.329 1023.63 172.223 1026.22 Q171.644 1026.9 168.542 1030.11 Q165.44 1033.31 159.792 1039.07 Z" fill="#000000" fill-rule="evenodd" fill-opacity="1" /><path clip-path="url(#clip710)" d="M 0 0 M181.227 1008.45 L199.584 1008.45 L199.584 1012.38 L185.51 1012.38 L185.51 1020.85 Q186.528 1020.51 187.547 1020.34 Q188.565 1020.16 189.584 1020.16 Q195.371 1020.16 198.75 1023.33 Q202.13 1026.5 202.13 1031.92 Q202.13 1037.5 198.658 1040.6 Q195.186 1043.68 188.866 1043.68 Q186.69 1043.68 184.422 1043.31 Q182.176 1042.94 179.769 1042.2 L179.769 1037.5 Q181.852 1038.63 184.075 1039.19 Q186.297 1039.74 188.774 1039.74 Q192.778 1039.74 195.116 1037.64 Q197.454 1035.53 197.454 1031.92 Q197.454 1028.31 195.116 1026.2 Q192.778 1024.09 188.774 1024.09 Q186.899 1024.09 185.024 1024.51 Q183.172 1024.93 181.227 1025.81 L181.227 1008.45 Z" fill="#000000" fill-rule="evenodd" fill-opacity="1" /><path clip-path="url(#clip710)" d="M 0 0 M127.2 723.223 Q123.589 723.223 121.76 726.788 Q119.955 730.33 119.955 737.459 Q119.955 744.566 121.76 748.131 Q123.589 751.672 127.2 751.672 Q130.834 751.672 132.64 748.131 Q134.468 744.566 134.468 737.459 Q134.468 730.33 132.64 726.788 Q130.834 723.223 127.2 723.223 M127.2 719.52 Q133.01 719.52 136.066 724.126 Q139.144 728.71 139.144 737.459 Q139.144 746.186 136.066 750.793 Q133.01 755.376 127.2 755.376 Q121.39 755.376 118.311 750.793 Q115.256 746.186 115.256 737.459 Q115.256 728.71 118.311 724.126 Q121.39 719.52 127.2 719.52 Z" fill="#000000" fill-rule="evenodd" fill-opacity="1" /><path clip-path="url(#clip710)" d="M 0 0 M144.214 748.825 L149.098 748.825 L149.098 754.705 L144.214 754.705 L144.214 748.825 Z" fill="#000000" fill-rule="evenodd" fill-opacity="1" /><path clip-path="url(#clip710)" d="M 0 0 M154.214 720.145 L172.57 720.145 L172.57 724.08 L158.496 724.08 L158.496 732.552 Q159.515 732.205 160.533 732.043 Q161.552 731.858 162.57 731.858 Q168.357 731.858 171.737 735.029 Q175.116 738.2 175.116 743.617 Q175.116 749.196 171.644 752.297 Q168.172 755.376 161.852 755.376 Q159.677 755.376 157.408 755.006 Q155.163 754.635 152.755 753.895 L152.755 749.196 Q154.839 750.33 157.061 750.885 Q159.283 751.441 161.76 751.441 Q165.765 751.441 168.102 749.334 Q170.44 747.228 170.44 743.617 Q170.44 740.006 168.102 737.899 Q165.765 735.793 161.76 735.793 Q159.885 735.793 158.01 736.209 Q156.158 736.626 154.214 737.506 L154.214 720.145 Z" fill="#000000" fill-rule="evenodd" fill-opacity="1" /><path clip-path="url(#clip710)" d="M 0 0 M190.186 723.223 Q186.575 723.223 184.746 726.788 Q182.94 730.33 182.94 737.459 Q182.94 744.566 184.746 748.131 Q186.575 751.672 190.186 751.672 Q193.82 751.672 195.625 748.131 Q197.454 744.566 197.454 737.459 Q197.454 730.33 195.625 726.788 Q193.82 723.223 190.186 723.223 M190.186 719.52 Q195.996 719.52 199.051 724.126 Q202.13 728.71 202.13 737.459 Q202.13 746.186 199.051 750.793 Q195.996 755.376 190.186 755.376 Q184.376 755.376 181.297 750.793 Q178.241 746.186 178.241 737.459 Q178.241 728.71 181.297 724.126 Q184.376 719.52 190.186 719.52 Z" fill="#000000" fill-rule="evenodd" fill-opacity="1" /><path clip-path="url(#clip710)" d="M 0 0 M128.103 434.922 Q124.492 434.922 122.663 438.487 Q120.857 442.028 120.857 449.158 Q120.857 456.264 122.663 459.829 Q124.492 463.371 128.103 463.371 Q131.737 463.371 133.542 459.829 Q135.371 456.264 135.371 449.158 Q135.371 442.028 133.542 438.487 Q131.737 434.922 128.103 434.922 M128.103 431.218 Q133.913 431.218 136.968 435.825 Q140.047 440.408 140.047 449.158 Q140.047 457.885 136.968 462.491 Q133.913 467.074 128.103 467.074 Q122.293 467.074 119.214 462.491 Q116.158 457.885 116.158 449.158 Q116.158 440.408 119.214 435.825 Q122.293 431.218 128.103 431.218 Z" fill="#000000" fill-rule="evenodd" fill-opacity="1" /><path clip-path="url(#clip710)" d="M 0 0 M145.116 460.523 L150.001 460.523 L150.001 466.403 L145.116 466.403 L145.116 460.523 Z" fill="#000000" fill-rule="evenodd" fill-opacity="1" /><path clip-path="url(#clip710)" d="M 0 0 M153.89 431.843 L176.112 431.843 L176.112 433.834 L163.565 466.403 L158.681 466.403 L170.487 435.778 L153.89 435.778 L153.89 431.843 Z" fill="#000000" fill-rule="evenodd" fill-opacity="1" /><path clip-path="url(#clip710)" d="M 0 0 M181.227 431.843 L199.584 431.843 L199.584 435.778 L185.51 435.778 L185.51 444.25 Q186.528 443.903 187.547 443.741 Q188.565 443.556 189.584 443.556 Q195.371 443.556 198.75 446.727 Q202.13 449.899 202.13 455.315 Q202.13 460.894 198.658 463.996 Q195.186 467.074 188.866 467.074 Q186.69 467.074 184.422 466.704 Q182.176 466.334 179.769 465.593 L179.769 460.894 Q181.852 462.028 184.075 462.584 Q186.297 463.139 188.774 463.139 Q192.778 463.139 195.116 461.033 Q197.454 458.926 197.454 455.315 Q197.454 451.704 195.116 449.598 Q192.778 447.491 188.774 447.491 Q186.899 447.491 185.024 447.908 Q183.172 448.324 181.227 449.204 L181.227 431.843 Z" fill="#000000" fill-rule="evenodd" fill-opacity="1" /><path clip-path="url(#clip710)" d="M 0 0 M118.242 174.166 L125.88 174.166 L125.88 147.801 L117.57 149.467 L117.57 145.208 L125.834 143.541 L130.51 143.541 L130.51 174.166 L138.149 174.166 L138.149 178.101 L118.242 178.101 L118.242 174.166 Z" fill="#000000" fill-rule="evenodd" fill-opacity="1" /><path clip-path="url(#clip710)" d="M 0 0 M143.218 172.222 L148.103 172.222 L148.103 178.101 L143.218 178.101 L143.218 172.222 Z" fill="#000000" fill-rule="evenodd" fill-opacity="1" /><path clip-path="url(#clip710)" d="M 0 0 M163.172 146.62 Q159.561 146.62 157.732 150.185 Q155.927 153.727 155.927 160.856 Q155.927 167.963 157.732 171.527 Q159.561 175.069 163.172 175.069 Q166.806 175.069 168.612 171.527 Q170.44 167.963 170.44 160.856 Q170.44 153.727 168.612 150.185 Q166.806 146.62 163.172 146.62 M163.172 142.916 Q168.982 142.916 172.038 147.523 Q175.116 152.106 175.116 160.856 Q175.116 169.583 172.038 174.189 Q168.982 178.773 163.172 178.773 Q157.362 178.773 154.283 174.189 Q151.228 169.583 151.228 160.856 Q151.228 152.106 154.283 147.523 Q157.362 142.916 163.172 142.916 Z" fill="#000000" fill-rule="evenodd" fill-opacity="1" /><path clip-path="url(#clip710)" d="M 0 0 M190.186 146.62 Q186.575 146.62 184.746 150.185 Q182.94 153.727 182.94 160.856 Q182.94 167.963 184.746 171.527 Q186.575 175.069 190.186 175.069 Q193.82 175.069 195.625 171.527 Q197.454 167.963 197.454 160.856 Q197.454 153.727 195.625 150.185 Q193.82 146.62 190.186 146.62 M190.186 142.916 Q195.996 142.916 199.051 147.523 Q202.13 152.106 202.13 160.856 Q202.13 169.583 199.051 174.189 Q195.996 178.773 190.186 178.773 Q184.376 178.773 181.297 174.189 Q178.241 169.583 178.241 160.856 Q178.241 152.106 181.297 147.523 Q184.376 142.916 190.186 142.916 Z" fill="#000000" fill-rule="evenodd" fill-opacity="1" /><path clip-path="url(#clip710)" d="M 0 0 M70.212 745.095 Q76.6732 745.095 80.3653 742.453 Q84.0256 739.779 84.0256 735.132 Q84.0256 730.485 80.3653 727.812 Q76.6732 725.138 70.212 725.138 Q63.7508 725.138 60.0905 727.812 Q56.3984 730.485 56.3984 735.132 Q56.3984 739.779 60.0905 742.453 Q63.7508 745.095 70.212 745.095 M82.657 725.138 Q85.8398 726.984 87.3994 729.817 Q88.9272 732.618 88.9272 736.565 Q88.9272 743.026 83.771 747.1 Q78.6147 751.142 70.212 751.142 Q61.8093 751.142 56.6531 747.1 Q51.4968 743.026 51.4968 736.565 Q51.4968 732.618 53.0564 729.817 Q54.5842 726.984 57.7671 725.138 L52.3562 725.138 L52.3562 719.282 L101.563 719.282 L101.563 725.138 L82.657 725.138 Z" fill="#000000" fill-rule="evenodd" fill-opacity="1" /><polyline clip-path="url(#clip712)" style="stroke:#009af9; stroke-width:4; stroke-opacity:1; fill:none" points="
  297.978,1314.03 300.669,1314.03 305.771,1314.03 310.872,1314.03 313.563,1314.03 316.255,1314.03 321.356,1314.03 326.458,1314.03 329.149,1314.03 
  331.84,1314.03 336.941,1314.03 342.043,1314.03 344.734,1314.03 347.425,1314.03 352.527,1314.03 357.628,1314.03 360.32,1314.03 
  363.011,1314.03 368.112,1314.03 373.214,1314.03 375.905,1314.03 378.596,1314.03 383.698,1314.03 388.799,1314.03 391.49,1314.03 
  394.181,1314.03 399.283,1314.03 404.385,1314.03 407.076,1314.03 409.767,1314.03 414.868,1314.03 419.97,1314.03 422.661,1314.03 
  425.352,1314.03 430.454,1314.03 435.555,1314.03 438.246,1314.03 440.938,1314.03 446.039,1314.03 451.141,1314.03 453.832,1314.03 
  456.523,1314.03 461.625,1314.03 466.726,1314.03 469.417,1314.03 472.108,1314.03 477.21,1314.03 482.311,1314.03 485.003,1314.03 
  487.694,1314.03 492.795,1314.03 497.897,1314.03 500.588,1314.03 503.279,1314.03 508.381,1314.03 513.482,1314.03 516.173,1314.03 
  518.865,1314.03 523.966,1314.03 529.068,1314.03 531.759,1314.03 534.45,1314.03 539.552,1314.03 544.653,1314.03 547.344,1314.03 
  550.035,1314.03 555.137,1314.03 560.238,1314.03 562.93,1314.03 565.621,1314.03 570.722,1314.03 575.824,1314.03 578.515,1314.03 
  581.206,1314.03 586.308,1314.03 591.409,1314.03 594.1,1314.03 596.792,1314.03 601.893,1314.03 606.995,1314.03 609.686,1314.03 
  612.377,1314.03 617.478,1314.03 622.58,1314.03 625.271,1314.03 627.962,1314.03 633.064,1314.03 638.165,1314.03 640.857,1314.03 
  643.548,1314.03 648.649,1314.03 653.751,1314.03 656.442,1314.03 659.133,1314.03 664.235,1314.03 669.336,1314.03 672.027,1314.03 
  674.719,1314.03 679.82,1314.03 684.922,1314.03 687.613,1314.03 690.304,1314.03 695.405,1314.03 700.507,1314.03 703.198,1314.03 
  705.889,1314.03 710.991,1314.03 716.092,1314.03 718.784,1314.03 721.475,1314.03 726.576,160.821 731.678,160.821 734.369,160.821 
  737.06,160.821 742.162,160.821 747.263,160.821 749.954,160.821 752.645,160.821 757.747,160.821 762.849,160.821 765.54,160.821 
  768.231,160.821 773.332,160.821 778.434,160.821 781.125,160.821 783.816,160.821 788.918,160.821 794.019,160.821 796.71,160.821 
  799.402,160.821 804.503,160.821 809.605,160.821 812.296,160.821 814.987,160.821 820.089,160.821 825.19,160.821 827.881,160.821 
  830.572,160.821 835.674,160.821 840.775,160.821 843.467,160.821 846.158,160.821 851.259,160.821 856.361,160.821 859.052,160.821 
  861.743,160.821 866.845,160.821 871.946,160.821 874.637,160.821 877.329,160.821 882.43,160.821 887.532,160.821 890.223,160.821 
  892.914,160.821 898.016,160.821 903.117,160.821 905.808,160.821 908.499,160.821 913.601,160.821 918.702,160.821 921.394,160.821 
  924.085,160.821 929.186,160.821 934.288,160.821 936.979,160.821 939.67,160.821 944.772,160.821 949.873,160.821 952.564,160.821 
  955.256,160.821 960.357,160.821 965.459,160.821 968.15,160.821 970.841,160.821 975.942,160.821 981.044,160.821 983.735,160.821 
  986.426,160.821 991.528,160.821 996.629,160.821 999.321,160.821 1002.01,160.821 1007.11,160.821 1012.21,1314.03 1014.91,1314.03 
  1017.6,1314.03 1022.7,1314.03 1027.8,1314.03 1030.49,1314.03 1033.18,1314.03 1038.28,1314.03 1043.39,1314.03 1046.08,1314.03 
  1048.77,1314.03 1053.87,1314.03 1058.97,1314.03 1061.66,1314.03 1064.35,1314.03 1069.45,1314.03 1074.56,1314.03 1077.25,1314.03 
  1079.94,1314.03 1085.04,1314.03 1090.14,1314.03 1092.83,1314.03 1095.52,1314.03 1100.63,1314.03 1105.73,1314.03 1108.42,1314.03 
  1111.11,1314.03 1116.21,1314.03 1121.31,1314.03 1124,1314.03 1126.69,1314.03 1131.8,1314.03 1136.9,1314.03 1139.59,1314.03 
  1142.28,1314.03 1147.38,1314.03 1152.48,1314.03 1155.17,1314.03 1157.87,1314.03 1162.97,1314.03 1168.07,1314.03 1170.76,1314.03 
  1173.45,1314.03 1178.55,1314.03 1183.65,1314.03 1186.35,1314.03 1189.04,1314.03 1194.14,1314.03 1199.24,1314.03 1201.93,1314.03 
  1204.62,1314.03 1209.72,1314.03 1214.82,1314.03 1217.52,1314.03 1220.21,1314.03 1225.31,1314.03 1230.41,1314.03 1233.1,1314.03 
  1235.79,1314.03 1240.89,1314.03 1246,1314.03 1248.69,1314.03 1251.38,1314.03 1256.48,1314.03 1261.58,1314.03 1264.27,1314.03 
  1266.96,1314.03 1272.06,1314.03 1277.17,1314.03 1279.86,1314.03 1282.55,1314.03 1287.65,1314.03 1292.75,1314.03 1295.44,1314.03 
  1298.13,1314.03 1303.24,1314.03 1308.34,1314.03 1311.03,1314.03 1313.72,1314.03 1318.82,1314.03 1323.92,1314.03 1326.61,1314.03 
  1329.3,1314.03 1334.41,1314.03 1339.51,1314.03 1342.2,1314.03 1344.89,1314.03 1349.99,1314.03 1355.09,1314.03 1357.78,1314.03 
  1360.48,1314.03 1365.58,1314.03 1370.68,1314.03 1373.37,1314.03 1376.06,1314.03 1381.16,1314.03 1386.26,1314.03 1388.96,1314.03 
  1391.65,1314.03 1396.75,1314.03 1401.85,1314.03 1404.54,1314.03 1407.23,1314.03 1412.33,1314.03 1417.43,1314.03 1420.13,1314.03 
  1422.82,1314.03 1427.92,1314.03 1433.02,1314.03 1435.71,1314.03 1438.4,1314.03 1443.5,1314.03 1448.61,1314.03 1451.3,1314.03 
  1453.99,1314.03 1459.09,1314.03 1464.19,1314.03 1466.88,1314.03 1469.57,1314.03 1474.67,1314.03 1479.78,1314.03 1482.47,1314.03 
  1485.16,1314.03 1490.26,1314.03 1495.36,1314.03 1498.05,1314.03 1500.74,1314.03 1505.85,1314.03 1510.95,1314.03 1513.64,1314.03 
  1516.33,1314.03 1521.43,1314.03 1526.53,1314.03 1529.22,1314.03 1531.92,1314.03 1537.02,1314.03 1542.12,1314.03 1544.81,1314.03 
  1547.5,1314.03 1552.6,1314.03 1557.7,1314.03 1560.39,1314.03 1563.09,1314.03 1568.19,1314.03 1573.29,1314.03 1575.98,1314.03 
  1578.67,1314.03 1583.77,1314.03 1588.87,1314.03 1591.57,1314.03 1594.26,1314.03 1599.36,1314.03 1604.46,1314.03 1607.15,1314.03 
  1609.84,1314.03 1614.94,1314.03 1620.05,1314.03 1622.74,1314.03 1625.43,1314.03 1630.53,1314.03 1635.63,1314.03 1638.32,1314.03 
  1641.01,1314.03 1646.11,1314.03 1651.22,1314.03 1653.91,1314.03 1656.6,1314.03 1661.7,1314.03 1666.8,1314.03 1669.49,1314.03 
  1672.18,1314.03 1677.29,1314.03 1682.39,1314.03 1685.08,1314.03 1687.77,1314.03 1692.87,1314.03 1697.97,1314.03 1700.66,1314.03 
  1703.35,1314.03 1708.46,1314.03 1713.56,1314.03 1716.25,1314.03 1718.94,1314.03 1724.04,1314.03 1729.14,1314.03 1731.83,1314.03 
  1734.53,1314.03 1739.63,1314.03 1744.73,1314.03 1747.42,1314.03 1750.11,1314.03 1755.21,1314.03 1760.31,1314.03 1763,1314.03 
  1765.7,1314.03 1770.8,1314.03 1775.9,1314.03 1778.59,1314.03 1781.28,1314.03 1786.38,1314.03 1791.48,1314.03 1794.18,1314.03 
  1796.87,1314.03 1801.97,1314.03 1807.07,1314.03 1809.76,1314.03 1812.45,1314.03 1817.55,1314.03 1822.66,1314.03 1825.35,1314.03 
  1828.04,1314.03 1833.14,1314.03 1838.24,1314.03 1840.93,1314.03 1843.62,1314.03 1848.72,1314.03 1853.83,1314.03 1856.52,1314.03 
  1859.21,1314.03 1864.31,1314.03 1869.41,1314.03 1872.1,1314.03 1874.79,1314.03 1879.9,1314.03 1885,1314.03 1887.69,1314.03 
  1890.38,1314.03 1895.48,1314.03 1900.58,1314.03 1903.27,1314.03 1905.96,1314.03 1911.07,1314.03 1916.17,1314.03 1918.86,1314.03 
  1921.55,1314.03 1926.65,1314.03 1931.75,1314.03 1934.44,1314.03 1937.14,1314.03 1942.24,1314.03 1947.34,1314.03 1950.03,1314.03 
  1952.72,1314.03 1957.82,1314.03 1962.92,1314.03 1965.61,1314.03 1968.31,1314.03 1973.41,1314.03 1978.51,1314.03 1981.2,1314.03 
  1983.89,1314.03 1988.99,1314.03 1994.09,1314.03 1996.79,1314.03 1999.48,1314.03 2004.58,1314.03 2009.68,1314.03 2012.37,1314.03 
  2015.06,1314.03 2020.16,1314.03 2025.27,1314.03 2027.96,1314.03 2030.65,1314.03 2035.75,1314.03 2040.85,1314.03 2043.54,1314.03 
  2046.23,1314.03 2051.33,1314.03 2056.44,1314.03 2059.13,1314.03 2061.82,1314.03 2066.92,1314.03 2072.02,1314.03 2074.71,1314.03 
  2077.4,1314.03 2082.51,1314.03 2087.61,1314.03 2090.3,1314.03 2092.99,1314.03 2098.09,1314.03 2103.19,1314.03 2105.88,1314.03 
  2108.57,1314.03 2113.68,1314.03 2118.78,1314.03 2121.47,1314.03 2124.16,1314.03 2129.26,1314.03 2134.36,1314.03 2137.05,1314.03 
  2139.75,1314.03 2144.85,1314.03 2149.95,1314.03 2152.64,1314.03 2155.33,1314.03 2160.43,1314.03 2165.53,1314.03 2168.22,1314.03 
  2170.92,1314.03 2176.02,1314.03 2181.12,1314.03 2183.81,1314.03 2186.5,1314.03 2191.6,1314.03 2196.7,1314.03 2199.4,1314.03 
  2202.09,1314.03 2207.19,1314.03 2212.29,1314.03 2214.98,1314.03 2217.67,1314.03 2222.77,1314.03 2227.88,1314.03 2230.57,1314.03 
  2233.26,1314.03 2238.36,1314.03 2243.46,1314.03 2246.15,1314.03 2248.84,1314.03 2253.94,1314.03 2259.05,1314.03 2261.74,1314.03 
  2264.43,1314.03 2269.53,1314.03 2274.63,1314.03 2277.32,1314.03 2280.01,1314.03 2285.12,1314.03 2290.22,1314.03 2292.91,1314.03 
  
  "/>
<polyline clip-path="url(#clip712)" style="stroke:#e26f46; stroke-width:4; stroke-opacity:1; fill:none" points="
  297.978,1314.03 300.669,1314.03 305.771,1314.03 310.872,1314.03 313.563,1314.03 316.255,1314.03 321.356,1314.03 326.458,1314.03 329.149,1314.03 
  331.84,1314.03 336.941,1314.03 342.043,1314.03 344.734,1314.03 347.425,1314.03 352.527,1314.03 357.628,1314.03 360.32,1314.03 
  363.011,1314.03 368.112,1314.03 373.214,1314.03 375.905,1314.03 378.596,1314.03 383.698,1314.03 388.799,1314.03 391.49,1314.03 
  394.181,1314.03 399.283,1314.03 404.385,1314.03 407.076,1314.03 409.767,1314.03 414.868,1314.03 419.97,1314.03 422.661,1314.03 
  425.352,1314.03 430.454,1314.03 435.555,1314.03 438.246,1314.03 440.938,1314.03 446.039,1314.03 451.141,1314.03 453.832,1314.03 
  456.523,1314.03 461.625,1314.03 466.726,1314.03 469.417,1314.03 472.108,1314.03 477.21,1314.03 482.311,1314.03 485.003,1314.03 
  487.694,1314.03 492.795,1314.03 497.897,1314.03 500.588,1314.03 503.279,1314.03 508.381,1314.03 513.482,1314.03 516.173,1314.03 
  518.865,1314.03 523.966,1314.03 529.068,1314.03 531.759,1314.03 534.45,1314.03 539.552,1314.03 544.653,1314.03 547.344,1314.03 
  550.035,1314.03 555.137,1314.03 560.238,1314.03 562.93,1314.03 565.621,1314.03 570.722,1314.03 575.824,1314.03 578.515,1314.03 
  581.206,1314.03 586.308,1314.03 591.409,1314.03 594.1,1314.03 596.792,1314.03 601.893,1314.03 606.995,1314.03 609.686,1314.03 
  612.377,1314.03 617.478,1314.03 622.58,1314.03 625.271,1314.03 627.962,1314.03 633.064,1314.03 638.165,1314.03 640.857,1314.03 
  643.548,1314.03 648.649,1314.03 653.751,1314.03 656.442,1314.03 659.133,1314.03 664.235,1314.03 669.336,1314.03 672.027,1314.03 
  674.719,1314.03 679.82,1314.03 684.922,1314.03 687.613,1314.03 690.304,1314.03 695.405,1314.03 700.507,1314.03 703.198,1314.03 
  705.889,1314.03 710.991,1314.03 716.092,1314.03 718.784,1314.03 721.475,1314.03 726.576,1314.03 731.678,1314.03 734.369,1314.03 
  737.06,1314.03 742.162,1314.03 747.263,1314.03 749.954,1314.03 752.645,1314.03 757.747,1314.03 762.849,1314.03 765.54,1314.03 
  768.231,1314.03 773.332,1314.03 778.434,1314.03 781.125,1314.03 783.816,1314.03 788.918,1314.03 794.019,1314.03 796.71,1314.03 
  799.402,1314.03 804.503,1314.03 809.605,1314.03 812.296,1314.03 812.296,1314.03 814.987,1314.03 820.089,1314.03 825.19,1314.03 827.881,1314.03 
  827.881,1314.03 830.572,1314.03 835.674,1314.03 840.775,1314.03 843.467,1314.03 843.467,1314.03 846.158,1314.03 851.259,1314.03 856.361,1314.03 859.052,1314.03 
  859.052,1314.03 861.743,1314.03 866.845,1314.03 871.946,1314.03 874.637,1314.03 874.637,1314.03 877.329,1314.03 882.43,1314.03 887.532,1314.03 890.223,1314.03 
  890.223,1314.03 892.914,1314.03 898.016,1314.03 903.117,1314.03 905.808,1314.03 905.808,1314.03 908.499,1314.03 913.601,1314.03 918.702,1314.03 921.394,1314.03 
  921.394,1314.03 924.085,1314.03 929.186,1314.03 934.288,1314.03 936.979,1314.03 936.979,1314.03 939.67,1314.03 944.772,1314.03 949.873,1314.03 952.564,1314.03 
  952.564,1314.03 955.256,1314.03 960.357,1314.03 965.459,1314.03 968.15,1314.03 968.15,1314.03 970.841,1314.03 975.942,1314.03 981.044,1314.03 983.735,1314.03 
  983.735,1314.03 986.426,1314.03 991.528,1314.03 996.629,1314.03 999.321,1314.03 999.321,1314.03 1002.01,1314.03 1007.11,1314.03 1012.21,1314.03 1014.91,1314.03 
  1014.91,1314.03 1017.6,1314.03 1022.7,1314.03 1027.8,1314.03 1030.49,1314.03 1030.49,1314.03 1033.18,1314.03 1038.28,1314.03 1043.39,1314.03 1046.08,1314.03 
  1046.08,1314.03 1048.77,1314.03 1053.87,1314.03 1058.97,1314.03 1061.66,1314.03 1061.66,1314.03 1064.35,1314.03 1069.45,1314.03 1074.56,1314.03 1077.25,1314.03 
  1077.25,1314.03 1079.94,1314.03 1085.04,1314.03 1090.14,1314.03 1092.83,1314.03 1092.83,1314.03 1095.52,1314.03 1100.63,1314.03 1105.73,1314.03 1108.42,1314.03 
  1108.42,1314.03 1111.11,1314.03 1116.21,1314.03 1121.31,1314.03 1124,1314.03 1124,1314.03 1126.69,1314.03 1131.8,1314.02 1136.9,1314.02 1139.59,1314.02 
  1139.59,1314.02 1142.28,1314.02 1147.38,1314.03 1152.48,1314.05 1155.17,1314.06 1155.17,1314.06 1157.87,1314.07 1162.97,1314.06 1168.07,1314.02 1170.76,1313.99 
  1170.76,1314 1173.45,1313.93 1178.55,1313.85 1183.65,1313.84 1186.35,1313.86 1186.35,1313.83 1189.04,1313.96 1194.14,1314.28 1199.24,1314.69 1201.93,1314.94 
  1201.93,1314.89 1204.62,1315.1 1209.72,1314.94 1214.82,1314.01 1217.52,1313.21 1217.52,1313.47 1220.21,1311.95 1225.31,1309.47 1230.41,1307.59 1233.1,1306.88 
  1233.1,1306.94 1235.79,1307.52 1240.89,1312.42 1246,1322.33 1248.69,1329.58 1248.69,1328.09 1251.38,1339.03 1256.48,1356.22 1261.58,1368.28 1264.27,1372.37 
  1264.27,1371.56 1266.96,1369.54 1272.06,1342.01 1277.17,1283.3 1279.86,1239.71 1279.86,1243.24 1282.55,1181.13 1287.65,1043.03 1292.75,879.55 1295.44,783.601 
  1295.44,787.48 1298.13,686.454 1303.24,509.679 1308.34,353.11 1311.03,279.026 1311.03,277.337 1313.72,220.745 1318.82,141.666 1323.92,98.5433 1326.61,89.8927 
  1326.61,86.1857 1329.3,90.0236 1334.41,103.878 1339.51,125.36 1342.2,139.368 1342.2,138.746 1344.89,149.809 1349.99,164.932 1355.09,172.562 1357.78,173.636 
  1357.78,174.381 1360.48,172.662 1365.58,168.702 1370.68,164.045 1373.37,161.396 1373.37,161.401 1376.06,159.916 1381.16,158.325 1386.26,158.251 1388.96,158.789 
  1388.96,158.667 1391.65,159.39 1396.75,160.493 1401.85,161.23 1404.54,161.466 1404.54,161.505 1407.23,161.464 1412.33,161.294 1417.43,161.022 1420.13,160.846 
  1420.13,160.848 1422.82,160.76 1427.92,160.671 1433.02,160.675 1435.71,160.713 1435.71,160.71 1438.4,160.743 1443.5,160.792 1448.61,160.827 1451.3,160.84 
  1451.3,160.834 1453.99,160.862 1459.09,160.92 1464.19,160.984 1466.88,161.02 1466.88,161.015 1469.57,161.019 1474.67,160.901 1479.78,160.616 1482.47,160.397 
  1482.47,160.469 1485.16,160.13 1490.26,159.786 1495.36,159.862 1498.05,160.084 1498.05,159.968 1500.74,160.751 1505.85,162.655 1510.95,165.07 1513.64,166.536 
  1513.64,166.231 1516.33,167.616 1521.43,167.365 1526.53,163.24 1529.22,159.461 1529.22,160.379 1531.92,152.972 1537.02,137.599 1542.12,120.804 1544.81,111.503 
  1544.81,113.115 1547.5,104.73 1552.6,105.755 1557.7,129.385 1560.39,151.142 1560.39,149.197 1563.09,186.947 1568.19,285.055 1573.29,417.089 1575.98,500.073 
  1575.98,495.38 1578.67,591.514 1583.77,772.159 1588.87,949.358 1591.57,1040.89 1591.57,1040.48 1594.26,1120.47 1599.36,1243.31 1604.46,1328.85 1607.15,1359.1 
  1607.15,1362.94 1609.84,1375.66 1614.94,1384.24 1620.05,1373.75 1622.74,1361.04 1622.74,1362.87 1625.43,1348.96 1630.53,1326.95 1635.63,1310.83 1638.32,1304.76 
  1638.32,1304.1 1641.01,1302.4 1646.11,1302.16 1651.22,1305.5 1653.91,1308.57 1653.91,1308.29 1656.6,1310.96 1661.7,1314.63 1666.8,1316.53 1669.49,1316.82 
  1669.49,1316.99 1672.18,1316.53 1677.29,1315.55 1682.39,1314.46 1685.08,1313.87 1685.08,1313.86 1687.77,1313.61 1692.87,1313.4 1697.97,1313.51 1700.66,1313.7 
  1700.66,1313.68 1703.35,1313.85 1708.46,1314.08 1713.56,1314.19 1716.25,1314.2 1716.25,1314.21 1718.94,1314.16 1724.04,1314.09 1729.14,1314.02 1731.83,1313.99 
  1731.83,1313.99 1734.53,1313.99 1739.63,1313.99 1744.73,1314.01 1747.42,1314.02 1747.42,1314.02 1750.11,1314.03 1755.21,1314.04 1760.31,1314.04 1763,1314.03 
  1763,1314.03 1765.7,1314.03 1770.8,1314.03 1775.9,1314.02 1778.59,1314.02 1778.59,1314.02 1781.28,1314.03 1786.38,1314.03 1791.48,1314.03 1794.18,1314.03 
  1794.18,1314.03 1796.87,1314.03 1801.97,1314.03 1807.07,1314.03 1809.76,1314.03 1809.76,1314.03 1812.45,1314.03 1817.55,1314.03 1822.66,1314.03 1825.35,1314.03 
  1825.35,1314.03 1828.04,1314.03 1833.14,1314.03 1838.24,1314.03 1840.93,1314.03 1840.93,1314.03 1843.62,1314.03 1848.72,1314.03 1853.83,1314.03 1856.52,1314.03 
  1856.52,1314.03 1859.21,1314.03 1864.31,1314.03 1869.41,1314.03 1872.1,1314.03 1872.1,1314.03 1874.79,1314.03 1879.9,1314.03 1885,1314.03 1887.69,1314.03 
  1887.69,1314.03 1890.38,1314.03 1895.48,1314.03 1900.58,1314.03 1903.27,1314.03 1903.27,1314.03 1905.96,1314.03 1911.07,1314.03 1916.17,1314.03 1918.86,1314.03 
  1918.86,1314.03 1921.55,1314.03 1926.65,1314.03 1931.75,1314.03 1934.44,1314.03 1934.44,1314.03 1937.14,1314.03 1942.24,1314.03 1947.34,1314.03 1950.03,1314.03 
  1950.03,1314.03 1952.72,1314.03 1957.82,1314.03 1962.92,1314.03 1965.61,1314.03 1965.61,1314.03 1968.31,1314.03 1973.41,1314.03 1978.51,1314.03 1981.2,1314.03 
  1981.2,1314.03 1983.89,1314.03 1988.99,1314.03 1994.09,1314.03 1996.79,1314.03 1996.79,1314.03 1999.48,1314.03 2004.58,1314.03 2009.68,1314.03 2012.37,1314.03 
  2012.37,1314.03 2015.06,1314.03 2020.16,1314.03 2025.27,1314.03 2027.96,1314.03 2027.96,1314.03 2030.65,1314.03 2035.75,1314.03 2040.85,1314.03 2043.54,1314.03 
  2043.54,1314.03 2046.23,1314.03 2051.33,1314.03 2056.44,1314.03 2059.13,1314.03 2059.13,1314.03 2061.82,1314.03 2066.92,1314.03 2072.02,1314.03 2074.71,1314.03 
  2077.4,1314.03 2082.51,1314.03 2087.61,1314.03 2090.3,1314.03 2090.3,1314.03 2092.99,1314.03 2098.09,1314.03 2103.19,1314.03 2105.88,1314.03 
  2105.88,1314.03 2108.57,1314.03 2113.68,1314.03 2118.78,1314.03 2121.47,1314.03 2124.16,1314.03 2129.26,1314.03 2134.36,1314.03 2137.05,1314.03 
  2139.75,1314.03 2144.85,1314.03 2149.95,1314.03 2152.64,1314.03 2155.33,1314.03 2160.43,1314.03 2165.53,1314.03 2168.22,1314.03 
  2170.92,1314.03 2176.02,1314.03 2181.12,1314.03 2183.81,1314.03 2186.5,1314.03 2191.6,1314.03 2196.7,1314.03 2199.4,1314.03 
  2202.09,1314.03 2207.19,1314.03 2212.29,1314.03 2214.98,1314.03 2217.67,1314.03 2222.77,1314.03 2227.88,1314.03 2230.57,1314.03 
  2233.26,1314.03 2238.36,1314.03 2243.46,1314.03 2246.15,1314.03 2248.84,1314.03 2253.94,1314.03 2259.05,1314.03 2261.74,1314.03 
  2264.43,1314.03 2269.53,1314.03 2274.63,1314.03 2277.32,1314.03 2280.01,1314.03 2285.12,1314.03 2290.22,1314.03 2292.91,1314.03 
  
  "/>
<path clip-path="url(#clip710)" d="
M1802.38 274.549 L2282.27 274.549 L2282.27 93.1086 L1802.38 93.1086  Z
  " fill="#ffffff" fill-rule="evenodd" fill-opacity="1"/>
<polyline clip-path="url(#clip710)" style="stroke:#000000; stroke-width:4; stroke-opacity:1; fill:none" points="
  1802.38,274.549 2282.27,274.549 2282.27,93.1086 1802.38,93.1086 1802.38,274.549 
  "/>
<polyline clip-path="url(#clip710)" style="stroke:#009af9; stroke-width:4; stroke-opacity:1; fill:none" points="
  1825.88,153.589 1966.85,153.589 
  "/>
<path clip-path="url(#clip710)" d="M 0 0 M1994.75 157.929 Q1994.75 162.628 1996.67 165.313 Q1998.61 167.975 2001.99 167.975 Q2005.37 167.975 2007.31 165.313 Q2009.26 162.628 2009.26 157.929 Q2009.26 153.23 2007.31 150.568 Q2005.37 147.883 2001.99 147.883 Q1998.61 147.883 1996.67 150.568 Q1994.75 153.23 1994.75 157.929 M2009.26 166.98 Q2007.92 169.295 2005.86 170.429 Q2003.82 171.54 2000.95 171.54 Q1996.25 171.54 1993.29 167.79 Q1990.35 164.04 1990.35 157.929 Q1990.35 151.818 1993.29 148.068 Q1996.25 144.318 2000.95 144.318 Q2003.82 144.318 2005.86 145.452 Q2007.92 146.563 2009.26 148.878 L2009.26 144.943 L2013.52 144.943 L2013.52 180.73 L2009.26 180.73 L2009.26 166.98 Z" fill="#000000" fill-rule="evenodd" fill-opacity="1" /><path clip-path="url(#clip710)" d="M 0 0 M2019.07 164.989 L2023.96 164.989 L2023.96 168.97 L2020.16 176.378 L2017.18 176.378 L2019.07 168.97 L2019.07 164.989 Z" fill="#000000" fill-rule="evenodd" fill-opacity="1" /><path clip-path="url(#clip710)" d="M 0 0 M2047.71 137.582 L2047.71 144.943 L2056.48 144.943 L2056.48 148.253 L2047.71 148.253 L2047.71 162.327 Q2047.71 165.498 2048.56 166.401 Q2049.44 167.304 2052.11 167.304 L2056.48 167.304 L2056.48 170.869 L2052.11 170.869 Q2047.18 170.869 2045.3 169.04 Q2043.43 167.188 2043.43 162.327 L2043.43 148.253 L2040.3 148.253 L2040.3 144.943 L2043.43 144.943 L2043.43 137.582 L2047.71 137.582 Z" fill="#000000" fill-rule="evenodd" fill-opacity="1" /><path clip-path="url(#clip710)" d="M 0 0 M2061.5 149.341 L2091.18 149.341 L2091.18 153.23 L2061.5 153.23 L2061.5 149.341 M2061.5 158.785 L2091.18 158.785 L2091.18 162.721 L2061.5 162.721 L2061.5 158.785 Z" fill="#000000" fill-rule="evenodd" fill-opacity="1" /><path clip-path="url(#clip710)" d="M 0 0 M2106.25 139.387 Q2102.64 139.387 2100.81 142.952 Q2099 146.494 2099 153.623 Q2099 160.73 2100.81 164.295 Q2102.64 167.836 2106.25 167.836 Q2109.88 167.836 2111.69 164.295 Q2113.52 160.73 2113.52 153.623 Q2113.52 146.494 2111.69 142.952 Q2109.88 139.387 2106.25 139.387 M2106.25 135.684 Q2112.06 135.684 2115.12 140.29 Q2118.19 144.873 2118.19 153.623 Q2118.19 162.35 2115.12 166.957 Q2112.06 171.54 2106.25 171.54 Q2100.44 171.54 2097.36 166.957 Q2094.31 162.35 2094.31 153.623 Q2094.31 144.873 2097.36 140.29 Q2100.44 135.684 2106.25 135.684 Z" fill="#000000" fill-rule="evenodd" fill-opacity="1" /><path clip-path="url(#clip710)" d="M 0 0 M2123.26 164.989 L2128.15 164.989 L2128.15 170.869 L2123.26 170.869 L2123.26 164.989 Z" fill="#000000" fill-rule="evenodd" fill-opacity="1" /><path clip-path="url(#clip710)" d="M 0 0 M2143.22 139.387 Q2139.61 139.387 2137.78 142.952 Q2135.97 146.494 2135.97 153.623 Q2135.97 160.73 2137.78 164.295 Q2139.61 167.836 2143.22 167.836 Q2146.85 167.836 2148.66 164.295 Q2150.49 160.73 2150.49 153.623 Q2150.49 146.494 2148.66 142.952 Q2146.85 139.387 2143.22 139.387 M2143.22 135.684 Q2149.03 135.684 2152.08 140.29 Q2155.16 144.873 2155.16 153.623 Q2155.16 162.35 2152.08 166.957 Q2149.03 171.54 2143.22 171.54 Q2137.41 171.54 2134.33 166.957 Q2131.27 162.35 2131.27 153.623 Q2131.27 144.873 2134.33 140.29 Q2137.41 135.684 2143.22 135.684 Z" fill="#000000" fill-rule="evenodd" fill-opacity="1" /><polyline clip-path="url(#clip710)" style="stroke:#e26f46; stroke-width:4; stroke-opacity:1; fill:none" points="
  1825.88,214.069 1966.85,214.069 
  "/>
<path clip-path="url(#clip710)" d="M 0 0 M1994.75 218.409 Q1994.75 223.108 1996.67 225.793 Q1998.61 228.455 2001.99 228.455 Q2005.37 228.455 2007.31 225.793 Q2009.26 223.108 2009.26 218.409 Q2009.26 213.71 2007.31 211.048 Q2005.37 208.363 2001.99 208.363 Q1998.61 208.363 1996.67 211.048 Q1994.75 213.71 1994.75 218.409 M2009.26 227.46 Q2007.92 229.775 2005.86 230.909 Q2003.82 232.02 2000.95 232.02 Q1996.25 232.02 1993.29 228.27 Q1990.35 224.52 1990.35 218.409 Q1990.35 212.298 1993.29 208.548 Q1996.25 204.798 2000.95 204.798 Q2003.82 204.798 2005.86 205.932 Q2007.92 207.043 2009.26 209.358 L2009.26 205.423 L2013.52 205.423 L2013.52 241.21 L2009.26 241.21 L2009.26 227.46 Z" fill="#000000" fill-rule="evenodd" fill-opacity="1" /><path clip-path="url(#clip710)" d="M 0 0 M2019.07 225.469 L2023.96 225.469 L2023.96 229.45 L2020.16 236.858 L2017.18 236.858 L2019.07 229.45 L2019.07 225.469 Z" fill="#000000" fill-rule="evenodd" fill-opacity="1" /><path clip-path="url(#clip710)" d="M 0 0 M2047.71 198.062 L2047.71 205.423 L2056.48 205.423 L2056.48 208.733 L2047.71 208.733 L2047.71 222.807 Q2047.71 225.978 2048.56 226.881 Q2049.44 227.784 2052.11 227.784 L2056.48 227.784 L2056.48 231.349 L2052.11 231.349 Q2047.18 231.349 2045.3 229.52 Q2043.43 227.668 2043.43 222.807 L2043.43 208.733 L2040.3 208.733 L2040.3 205.423 L2043.43 205.423 L2043.43 198.062 L2047.71 198.062 Z" fill="#000000" fill-rule="evenodd" fill-opacity="1" /><path clip-path="url(#clip710)" d="M 0 0 M2061.5 209.821 L2091.18 209.821 L2091.18 213.71 L2061.5 213.71 L2061.5 209.821 M2061.5 219.265 L2091.18 219.265 L2091.18 223.201 L2061.5 223.201 L2061.5 219.265 Z" fill="#000000" fill-rule="evenodd" fill-opacity="1" /><path clip-path="url(#clip710)" d="M 0 0 M2109.1 200.863 L2097.29 219.312 L2109.1 219.312 L2109.1 200.863 M2107.87 196.789 L2113.75 196.789 L2113.75 219.312 L2118.68 219.312 L2118.68 223.201 L2113.75 223.201 L2113.75 231.349 L2109.1 231.349 L2109.1 223.201 L2093.5 223.201 L2093.5 218.687 L2107.87 196.789 Z" fill="#000000" fill-rule="evenodd" fill-opacity="1" /><path clip-path="url(#clip710)" d="M 0 0 M2123.8 196.789 L2142.15 196.789 L2142.15 200.724 L2128.08 200.724 L2128.08 209.196 Q2129.1 208.849 2130.12 208.687 Q2131.13 208.502 2132.15 208.502 Q2137.94 208.502 2141.32 211.673 Q2144.7 214.844 2144.7 220.261 Q2144.7 225.839 2141.23 228.941 Q2137.75 232.02 2131.43 232.02 Q2129.26 232.02 2126.99 231.65 Q2124.74 231.279 2122.34 230.538 L2122.34 225.839 Q2124.42 226.974 2126.64 227.529 Q2128.87 228.085 2131.34 228.085 Q2135.35 228.085 2137.68 225.978 Q2140.02 223.872 2140.02 220.261 Q2140.02 216.65 2137.68 214.543 Q2135.35 212.437 2131.34 212.437 Q2129.47 212.437 2127.59 212.853 Q2125.74 213.27 2123.8 214.15 L2123.8 196.789 Z" fill="#000000" fill-rule="evenodd" fill-opacity="1" /><path clip-path="url(#clip710)" d="M 0 0 M2159.77 199.867 Q2156.16 199.867 2154.33 203.432 Q2152.52 206.974 2152.52 214.103 Q2152.52 221.21 2154.33 224.775 Q2156.16 228.316 2159.77 228.316 Q2163.4 228.316 2165.21 224.775 Q2167.04 221.21 2167.04 214.103 Q2167.04 206.974 2165.21 203.432 Q2163.4 199.867 2159.77 199.867 M2159.77 196.164 Q2165.58 196.164 2168.63 200.77 Q2171.71 205.353 2171.71 214.103 Q2171.71 222.83 2168.63 227.437 Q2165.58 232.02 2159.77 232.02 Q2153.96 232.02 2150.88 227.437 Q2147.82 222.83 2147.82 214.103 Q2147.82 205.353 2150.88 200.77 Q2153.96 196.164 2159.77 196.164 Z" fill="#000000" fill-rule="evenodd" fill-opacity="1" /><path clip-path="url(#clip710)" d="M 0 0 M2176.78 225.469 L2181.67 225.469 L2181.67 231.349 L2176.78 231.349 L2176.78 225.469 Z" fill="#000000" fill-rule="evenodd" fill-opacity="1" /><path clip-path="url(#clip710)" d="M 0 0 M2199.58 200.863 L2187.78 219.312 L2199.58 219.312 L2199.58 200.863 M2198.36 196.789 L2204.24 196.789 L2204.24 219.312 L2209.17 219.312 L2209.17 223.201 L2204.24 223.201 L2204.24 231.349 L2199.58 231.349 L2199.58 223.201 L2183.98 223.201 L2183.98 218.687 L2198.36 196.789 Z" fill="#000000" fill-rule="evenodd" fill-opacity="1" /><path clip-path="url(#clip710)" d="M 0 0 M2213.05 196.789 L2235.28 196.789 L2235.28 198.779 L2222.73 231.349 L2217.85 231.349 L2229.65 200.724 L2213.05 200.724 L2213.05 196.789 Z" fill="#000000" fill-rule="evenodd" fill-opacity="1" /></svg>
