<?xml version="1.0" encoding="utf-8"?>
<svg xmlns="http://www.w3.org/2000/svg" xmlns:xlink="http://www.w3.org/1999/xlink" width="600" height="400" viewBox="0 0 2400 1600">
<defs>
  <clipPath id="clip560">
    <rect x="0" y="0" width="2400" height="1600"/>
  </clipPath>
</defs>
<path clip-path="url(#clip560)" d="
M0 1600 L2400 1600 L2400 0 L0 0  Z
  " fill="#ffffff" fill-rule="evenodd" fill-opacity="1"/>
<defs>
  <clipPath id="clip561">
    <rect x="480" y="0" width="1681" height="1600"/>
  </clipPath>
</defs>
<path clip-path="url(#clip560)" d="
M238.13 1423.18 L2352.76 1423.18 L2352.76 47.2441 L238.13 47.2441  Z
  " fill="#ffffff" fill-rule="evenodd" fill-opacity="1"/>
<defs>
  <clipPath id="clip562">
    <rect x="238" y="47" width="2116" height="1377"/>
  </clipPath>
</defs>
<polyline clip-path="url(#clip562)" style="stroke:#000000; stroke-width:2; stroke-opacity:0.1; fill:none" points="
  297.978,1423.18 297.978,47.2441 
  "/>
<polyline clip-path="url(#clip562)" style="stroke:#000000; stroke-width:2; stroke-opacity:0.1; fill:none" points="
  867.958,1423.18 867.958,47.2441 
  "/>
<polyline clip-path="url(#clip562)" style="stroke:#000000; stroke-width:2; stroke-opacity:0.1; fill:none" points="
  1437.94,1423.18 1437.94,47.2441 
  "/>
<polyline clip-path="url(#clip562)" style="stroke:#000000; stroke-width:2; stroke-opacity:0.1; fill:none" points="
  2007.92,1423.18 2007.92,47.2441 
  "/>
<polyline clip-path="url(#clip560)" style="stroke:#000000; stroke-width:4; stroke-opacity:1; fill:none" points="
  238.13,1423.18 2352.76,1423.18 
  "/>
<polyline clip-path="url(#clip560)" style="stroke:#000000; stroke-width:4; stroke-opacity:1; fill:none" points="
  297.978,1423.18 297.978,1406.67 
  "/>
<polyline clip-path="url(#clip560)" style="stroke:#000000; stroke-width:4; stroke-opacity:1; fill:none" points="
  867.958,1423.18 867.958,1406.67 
  "/>
<polyline clip-path="url(#clip560)" style="stroke:#000000; stroke-width:4; stroke-opacity:1; fill:none" points="
  1437.94,1423.18 1437.94,1406.67 
  "/>
<polyline clip-path="url(#clip560)" style="stroke:#000000; stroke-width:4; stroke-opacity:1; fill:none" points="
  2007.92,1423.18 2007.92,1406.67 
  "/>
<path clip-path="url(#clip560)" d="M 0 0 M297.978 1452.37 Q294.367 1452.37 292.538 1455.94 Q290.733 1459.48 290.733 1466.61 Q290.733 1473.71 292.538 1477.28 Q294.367 1480.82 297.978 1480.82 Q301.612 1480.82 303.418 1477.28 Q305.246 1473.71 305.246 1466.61 Q305.246 1459.48 303.418 1455.94 Q301.612 1452.37 297.978 1452.37 M297.978 1448.67 Q303.788 1448.67 306.844 1453.27 Q309.922 1457.86 309.922 1466.61 Q309.922 1475.33 306.844 1479.94 Q303.788 1484.52 297.978 1484.52 Q292.168 1484.52 289.089 1479.94 Q286.034 1475.33 286.034 1466.61 Q286.034 1457.86 289.089 1453.27 Q292.168 1448.67 297.978 1448.67 Z" fill="#000000" fill-rule="evenodd" fill-opacity="1" /><path clip-path="url(#clip560)" d="M 0 0 M831.326 1479.92 L838.965 1479.92 L838.965 1453.55 L830.655 1455.22 L830.655 1450.96 L838.919 1449.29 L843.595 1449.29 L843.595 1479.92 L851.234 1479.92 L851.234 1483.85 L831.326 1483.85 L831.326 1479.92 Z" fill="#000000" fill-rule="evenodd" fill-opacity="1" /><path clip-path="url(#clip560)" d="M 0 0 M866.303 1452.37 Q862.692 1452.37 860.863 1455.94 Q859.058 1459.48 859.058 1466.61 Q859.058 1473.71 860.863 1477.28 Q862.692 1480.82 866.303 1480.82 Q869.937 1480.82 871.743 1477.28 Q873.571 1473.71 873.571 1466.61 Q873.571 1459.48 871.743 1455.94 Q869.937 1452.37 866.303 1452.37 M866.303 1448.67 Q872.113 1448.67 875.169 1453.27 Q878.247 1457.86 878.247 1466.61 Q878.247 1475.33 875.169 1479.94 Q872.113 1484.52 866.303 1484.52 Q860.493 1484.52 857.414 1479.94 Q854.359 1475.33 854.359 1466.61 Q854.359 1457.86 857.414 1453.27 Q860.493 1448.67 866.303 1448.67 Z" fill="#000000" fill-rule="evenodd" fill-opacity="1" /><path clip-path="url(#clip560)" d="M 0 0 M893.317 1452.37 Q889.706 1452.37 887.877 1455.94 Q886.071 1459.48 886.071 1466.61 Q886.071 1473.71 887.877 1477.28 Q889.706 1480.82 893.317 1480.82 Q896.951 1480.82 898.756 1477.28 Q900.585 1473.71 900.585 1466.61 Q900.585 1459.48 898.756 1455.94 Q896.951 1452.37 893.317 1452.37 M893.317 1448.67 Q899.127 1448.67 902.182 1453.27 Q905.261 1457.86 905.261 1466.61 Q905.261 1475.33 902.182 1479.94 Q899.127 1484.52 893.317 1484.52 Q887.506 1484.52 884.428 1479.94 Q881.372 1475.33 881.372 1466.61 Q881.372 1457.86 884.428 1453.27 Q887.506 1448.67 893.317 1448.67 Z" fill="#000000" fill-rule="evenodd" fill-opacity="1" /><path clip-path="url(#clip560)" d="M 0 0 M1405.58 1479.92 L1421.9 1479.92 L1421.9 1483.85 L1399.95 1483.85 L1399.95 1479.92 Q1402.61 1477.16 1407.2 1472.53 Q1411.8 1467.88 1412.98 1466.54 Q1415.23 1464.01 1416.11 1462.28 Q1417.01 1460.52 1417.01 1458.83 Q1417.01 1456.07 1415.07 1454.34 Q1413.15 1452.6 1410.04 1452.6 Q1407.85 1452.6 1405.39 1453.37 Q1402.96 1454.13 1400.18 1455.68 L1400.18 1450.96 Q1403.01 1449.82 1405.46 1449.25 Q1407.91 1448.67 1409.95 1448.67 Q1415.32 1448.67 1418.52 1451.35 Q1421.71 1454.04 1421.71 1458.53 Q1421.71 1460.66 1420.9 1462.58 Q1420.11 1464.48 1418.01 1467.07 Q1417.43 1467.74 1414.33 1470.96 Q1411.23 1474.15 1405.58 1479.92 Z" fill="#000000" fill-rule="evenodd" fill-opacity="1" /><path clip-path="url(#clip560)" d="M 0 0 M1436.97 1452.37 Q1433.35 1452.37 1431.53 1455.94 Q1429.72 1459.48 1429.72 1466.61 Q1429.72 1473.71 1431.53 1477.28 Q1433.35 1480.82 1436.97 1480.82 Q1440.6 1480.82 1442.41 1477.28 Q1444.23 1473.71 1444.23 1466.61 Q1444.23 1459.48 1442.41 1455.94 Q1440.6 1452.37 1436.97 1452.37 M1436.97 1448.67 Q1442.78 1448.67 1445.83 1453.27 Q1448.91 1457.86 1448.91 1466.61 Q1448.91 1475.33 1445.83 1479.94 Q1442.78 1484.52 1436.97 1484.52 Q1431.16 1484.52 1428.08 1479.94 Q1425.02 1475.33 1425.02 1466.61 Q1425.02 1457.86 1428.08 1453.27 Q1431.16 1448.67 1436.97 1448.67 Z" fill="#000000" fill-rule="evenodd" fill-opacity="1" /><path clip-path="url(#clip560)" d="M 0 0 M1463.98 1452.37 Q1460.37 1452.37 1458.54 1455.94 Q1456.73 1459.48 1456.73 1466.61 Q1456.73 1473.71 1458.54 1477.28 Q1460.37 1480.82 1463.98 1480.82 Q1467.61 1480.82 1469.42 1477.28 Q1471.25 1473.71 1471.25 1466.61 Q1471.25 1459.48 1469.42 1455.94 Q1467.61 1452.37 1463.98 1452.37 M1463.98 1448.67 Q1469.79 1448.67 1472.85 1453.27 Q1475.92 1457.86 1475.92 1466.61 Q1475.92 1475.33 1472.85 1479.94 Q1469.79 1484.52 1463.98 1484.52 Q1458.17 1484.52 1455.09 1479.94 Q1452.04 1475.33 1452.04 1466.61 Q1452.04 1457.86 1455.09 1453.27 Q1458.17 1448.67 1463.98 1448.67 Z" fill="#000000" fill-rule="evenodd" fill-opacity="1" /><path clip-path="url(#clip560)" d="M 0 0 M1985.15 1465.22 Q1988.51 1465.94 1990.38 1468.2 Q1992.28 1470.47 1992.28 1473.81 Q1992.28 1478.92 1988.76 1481.72 Q1985.24 1484.52 1978.76 1484.52 Q1976.59 1484.52 1974.27 1484.08 Q1971.98 1483.67 1969.53 1482.81 L1969.53 1478.3 Q1971.47 1479.43 1973.79 1480.01 Q1976.1 1480.59 1978.62 1480.59 Q1983.02 1480.59 1985.31 1478.85 Q1987.63 1477.12 1987.63 1473.81 Q1987.63 1470.75 1985.48 1469.04 Q1983.35 1467.3 1979.53 1467.3 L1975.5 1467.3 L1975.5 1463.46 L1979.71 1463.46 Q1983.16 1463.46 1984.99 1462.09 Q1986.82 1460.7 1986.82 1458.11 Q1986.82 1455.45 1984.92 1454.04 Q1983.05 1452.6 1979.53 1452.6 Q1977.61 1452.6 1975.41 1453.02 Q1973.21 1453.44 1970.57 1454.31 L1970.57 1450.15 Q1973.23 1449.41 1975.55 1449.04 Q1977.88 1448.67 1979.94 1448.67 Q1985.27 1448.67 1988.37 1451.1 Q1991.47 1453.5 1991.47 1457.63 Q1991.47 1460.5 1989.83 1462.49 Q1988.18 1464.45 1985.15 1465.22 Z" fill="#000000" fill-rule="evenodd" fill-opacity="1" /><path clip-path="url(#clip560)" d="M 0 0 M2007.35 1452.37 Q2003.74 1452.37 2001.91 1455.94 Q2000.11 1459.48 2000.11 1466.61 Q2000.11 1473.71 2001.91 1477.28 Q2003.74 1480.82 2007.35 1480.82 Q2010.99 1480.82 2012.79 1477.28 Q2014.62 1473.71 2014.62 1466.61 Q2014.62 1459.48 2012.79 1455.94 Q2010.99 1452.37 2007.35 1452.37 M2007.35 1448.67 Q2013.16 1448.67 2016.22 1453.27 Q2019.3 1457.86 2019.3 1466.61 Q2019.3 1475.33 2016.22 1479.94 Q2013.16 1484.52 2007.35 1484.52 Q2001.54 1484.52 1998.46 1479.94 Q1995.41 1475.33 1995.41 1466.61 Q1995.41 1457.86 1998.46 1453.27 Q2001.54 1448.67 2007.35 1448.67 Z" fill="#000000" fill-rule="evenodd" fill-opacity="1" /><path clip-path="url(#clip560)" d="M 0 0 M2034.36 1452.37 Q2030.75 1452.37 2028.92 1455.94 Q2027.12 1459.48 2027.12 1466.61 Q2027.12 1473.71 2028.92 1477.28 Q2030.75 1480.82 2034.36 1480.82 Q2038 1480.82 2039.8 1477.28 Q2041.63 1473.71 2041.63 1466.61 Q2041.63 1459.48 2039.8 1455.94 Q2038 1452.37 2034.36 1452.37 M2034.36 1448.67 Q2040.17 1448.67 2043.23 1453.27 Q2046.31 1457.86 2046.31 1466.61 Q2046.31 1475.33 2043.23 1479.94 Q2040.17 1484.52 2034.36 1484.52 Q2028.55 1484.52 2025.48 1479.94 Q2022.42 1475.33 2022.42 1466.61 Q2022.42 1457.86 2025.48 1453.27 Q2028.55 1448.67 2034.36 1448.67 Z" fill="#000000" fill-rule="evenodd" fill-opacity="1" /><path clip-path="url(#clip560)" d="M 0 0 M1312.06 1520.4 L1299.17 1537.74 L1312.73 1556.04 L1305.82 1556.04 L1295.44 1542.04 L1285.07 1556.04 L1278.16 1556.04 L1292.01 1537.39 L1279.34 1520.4 L1286.24 1520.4 L1295.7 1533.1 L1305.15 1520.4 L1312.06 1520.4 Z" fill="#000000" fill-rule="evenodd" fill-opacity="1" /><polyline clip-path="url(#clip562)" style="stroke:#000000; stroke-width:2; stroke-opacity:0.1; fill:none" points="
  238.13,1287.9 2352.76,1287.9 
  "/>
<polyline clip-path="url(#clip562)" style="stroke:#000000; stroke-width:2; stroke-opacity:0.1; fill:none" points="
  238.13,1008.45 2352.76,1008.45 
  "/>
<polyline clip-path="url(#clip562)" style="stroke:#000000; stroke-width:2; stroke-opacity:0.1; fill:none" points="
  238.13,729.013 2352.76,729.013 
  "/>
<polyline clip-path="url(#clip562)" style="stroke:#000000; stroke-width:2; stroke-opacity:0.1; fill:none" points="
  238.13,449.571 2352.76,449.571 
  "/>
<polyline clip-path="url(#clip562)" style="stroke:#000000; stroke-width:2; stroke-opacity:0.1; fill:none" points="
  238.13,170.13 2352.76,170.13 
  "/>
<polyline clip-path="url(#clip560)" style="stroke:#000000; stroke-width:4; stroke-opacity:1; fill:none" points="
  238.13,1423.18 238.13,47.2441 
  "/>
<polyline clip-path="url(#clip560)" style="stroke:#000000; stroke-width:4; stroke-opacity:1; fill:none" points="
  238.13,1287.9 263.506,1287.9 
  "/>
<polyline clip-path="url(#clip560)" style="stroke:#000000; stroke-width:4; stroke-opacity:1; fill:none" points="
  238.13,1008.45 263.506,1008.45 
  "/>
<polyline clip-path="url(#clip560)" style="stroke:#000000; stroke-width:4; stroke-opacity:1; fill:none" points="
  238.13,729.013 263.506,729.013 
  "/>
<polyline clip-path="url(#clip560)" style="stroke:#000000; stroke-width:4; stroke-opacity:1; fill:none" points="
  238.13,449.571 263.506,449.571 
  "/>
<polyline clip-path="url(#clip560)" style="stroke:#000000; stroke-width:4; stroke-opacity:1; fill:none" points="
  238.13,170.13 263.506,170.13 
  "/>
<path clip-path="url(#clip560)" d="M 0 0 M126.205 1273.69 Q122.593 1273.69 120.765 1277.26 Q118.959 1280.8 118.959 1287.93 Q118.959 1295.04 120.765 1298.6 Q122.593 1302.14 126.205 1302.14 Q129.839 1302.14 131.644 1298.6 Q133.473 1295.04 133.473 1287.93 Q133.473 1280.8 131.644 1277.26 Q129.839 1273.69 126.205 1273.69 M126.205 1269.99 Q132.015 1269.99 135.07 1274.6 Q138.149 1279.18 138.149 1287.93 Q138.149 1296.66 135.07 1301.26 Q132.015 1305.85 126.205 1305.85 Q120.394 1305.85 117.316 1301.26 Q114.26 1296.66 114.26 1287.93 Q114.26 1279.18 117.316 1274.6 Q120.394 1269.99 126.205 1269.99 Z" fill="#000000" fill-rule="evenodd" fill-opacity="1" /><path clip-path="url(#clip560)" d="M 0 0 M143.218 1299.3 L148.103 1299.3 L148.103 1305.18 L143.218 1305.18 L143.218 1299.3 Z" fill="#000000" fill-rule="evenodd" fill-opacity="1" /><path clip-path="url(#clip560)" d="M 0 0 M163.172 1273.69 Q159.561 1273.69 157.732 1277.26 Q155.927 1280.8 155.927 1287.93 Q155.927 1295.04 157.732 1298.6 Q159.561 1302.14 163.172 1302.14 Q166.806 1302.14 168.612 1298.6 Q170.44 1295.04 170.44 1287.93 Q170.44 1280.8 168.612 1277.26 Q166.806 1273.69 163.172 1273.69 M163.172 1269.99 Q168.982 1269.99 172.038 1274.6 Q175.116 1279.18 175.116 1287.93 Q175.116 1296.66 172.038 1301.26 Q168.982 1305.85 163.172 1305.85 Q157.362 1305.85 154.283 1301.26 Q151.228 1296.66 151.228 1287.93 Q151.228 1279.18 154.283 1274.6 Q157.362 1269.99 163.172 1269.99 Z" fill="#000000" fill-rule="evenodd" fill-opacity="1" /><path clip-path="url(#clip560)" d="M 0 0 M190.186 1273.69 Q186.575 1273.69 184.746 1277.26 Q182.94 1280.8 182.94 1287.93 Q182.94 1295.04 184.746 1298.6 Q186.575 1302.14 190.186 1302.14 Q193.82 1302.14 195.625 1298.6 Q197.454 1295.04 197.454 1287.93 Q197.454 1280.8 195.625 1277.26 Q193.82 1273.69 190.186 1273.69 M190.186 1269.99 Q195.996 1269.99 199.051 1274.6 Q202.13 1279.18 202.13 1287.93 Q202.13 1296.66 199.051 1301.26 Q195.996 1305.85 190.186 1305.85 Q184.376 1305.85 181.297 1301.26 Q178.241 1296.66 178.241 1287.93 Q178.241 1279.18 181.297 1274.6 Q184.376 1269.99 190.186 1269.99 Z" fill="#000000" fill-rule="evenodd" fill-opacity="1" /><path clip-path="url(#clip560)" d="M 0 0 M128.797 994.253 Q125.186 994.253 123.357 997.817 Q121.552 1001.36 121.552 1008.49 Q121.552 1015.6 123.357 1019.16 Q125.186 1022.7 128.797 1022.7 Q132.431 1022.7 134.237 1019.16 Q136.066 1015.6 136.066 1008.49 Q136.066 1001.36 134.237 997.817 Q132.431 994.253 128.797 994.253 M128.797 990.549 Q134.607 990.549 137.663 995.155 Q140.741 999.739 140.741 1008.49 Q140.741 1017.22 137.663 1021.82 Q134.607 1026.41 128.797 1026.41 Q122.987 1026.41 119.908 1021.82 Q116.853 1017.22 116.853 1008.49 Q116.853 999.739 119.908 995.155 Q122.987 990.549 128.797 990.549 Z" fill="#000000" fill-rule="evenodd" fill-opacity="1" /><path clip-path="url(#clip560)" d="M 0 0 M145.811 1019.85 L150.695 1019.85 L150.695 1025.73 L145.811 1025.73 L145.811 1019.85 Z" fill="#000000" fill-rule="evenodd" fill-opacity="1" /><path clip-path="url(#clip560)" d="M 0 0 M159.792 1021.8 L176.112 1021.8 L176.112 1025.73 L154.167 1025.73 L154.167 1021.8 Q156.829 1019.04 161.413 1014.41 Q166.019 1009.76 167.2 1008.42 Q169.445 1005.9 170.325 1004.16 Q171.227 1002.4 171.227 1000.71 Q171.227 997.956 169.283 996.22 Q167.362 994.484 164.26 994.484 Q162.061 994.484 159.607 995.248 Q157.177 996.012 154.399 997.563 L154.399 992.841 Q157.223 991.706 159.677 991.128 Q162.13 990.549 164.167 990.549 Q169.538 990.549 172.732 993.234 Q175.926 995.919 175.926 1000.41 Q175.926 1002.54 175.116 1004.46 Q174.329 1006.36 172.223 1008.95 Q171.644 1009.62 168.542 1012.84 Q165.44 1016.03 159.792 1021.8 Z" fill="#000000" fill-rule="evenodd" fill-opacity="1" /><path clip-path="url(#clip560)" d="M 0 0 M181.227 991.174 L199.584 991.174 L199.584 995.109 L185.51 995.109 L185.51 1003.58 Q186.528 1003.23 187.547 1003.07 Q188.565 1002.89 189.584 1002.89 Q195.371 1002.89 198.75 1006.06 Q202.13 1009.23 202.13 1014.65 Q202.13 1020.22 198.658 1023.33 Q195.186 1026.41 188.866 1026.41 Q186.69 1026.41 184.422 1026.03 Q182.176 1025.66 179.769 1024.92 L179.769 1020.22 Q181.852 1021.36 184.075 1021.91 Q186.297 1022.47 188.774 1022.47 Q192.778 1022.47 195.116 1020.36 Q197.454 1018.26 197.454 1014.65 Q197.454 1011.03 195.116 1008.93 Q192.778 1006.82 188.774 1006.82 Q186.899 1006.82 185.024 1007.24 Q183.172 1007.66 181.227 1008.53 L181.227 991.174 Z" fill="#000000" fill-rule="evenodd" fill-opacity="1" /><path clip-path="url(#clip560)" d="M 0 0 M127.2 714.811 Q123.589 714.811 121.76 718.376 Q119.955 721.918 119.955 729.047 Q119.955 736.154 121.76 739.719 Q123.589 743.26 127.2 743.26 Q130.834 743.26 132.64 739.719 Q134.468 736.154 134.468 729.047 Q134.468 721.918 132.64 718.376 Q130.834 714.811 127.2 714.811 M127.2 711.108 Q133.01 711.108 136.066 715.714 Q139.144 720.297 139.144 729.047 Q139.144 737.774 136.066 742.381 Q133.01 746.964 127.2 746.964 Q121.39 746.964 118.311 742.381 Q115.256 737.774 115.256 729.047 Q115.256 720.297 118.311 715.714 Q121.39 711.108 127.2 711.108 Z" fill="#000000" fill-rule="evenodd" fill-opacity="1" /><path clip-path="url(#clip560)" d="M 0 0 M144.214 740.413 L149.098 740.413 L149.098 746.293 L144.214 746.293 L144.214 740.413 Z" fill="#000000" fill-rule="evenodd" fill-opacity="1" /><path clip-path="url(#clip560)" d="M 0 0 M154.214 711.733 L172.57 711.733 L172.57 715.668 L158.496 715.668 L158.496 724.14 Q159.515 723.793 160.533 723.631 Q161.552 723.446 162.57 723.446 Q168.357 723.446 171.737 726.617 Q175.116 729.788 175.116 735.205 Q175.116 740.783 171.644 743.885 Q168.172 746.964 161.852 746.964 Q159.677 746.964 157.408 746.594 Q155.163 746.223 152.755 745.482 L152.755 740.783 Q154.839 741.918 157.061 742.473 Q159.283 743.029 161.76 743.029 Q165.765 743.029 168.102 740.922 Q170.44 738.816 170.44 735.205 Q170.44 731.594 168.102 729.487 Q165.765 727.381 161.76 727.381 Q159.885 727.381 158.01 727.797 Q156.158 728.214 154.214 729.094 L154.214 711.733 Z" fill="#000000" fill-rule="evenodd" fill-opacity="1" /><path clip-path="url(#clip560)" d="M 0 0 M190.186 714.811 Q186.575 714.811 184.746 718.376 Q182.94 721.918 182.94 729.047 Q182.94 736.154 184.746 739.719 Q186.575 743.26 190.186 743.26 Q193.82 743.26 195.625 739.719 Q197.454 736.154 197.454 729.047 Q197.454 721.918 195.625 718.376 Q193.82 714.811 190.186 714.811 M190.186 711.108 Q195.996 711.108 199.051 715.714 Q202.13 720.297 202.13 729.047 Q202.13 737.774 199.051 742.381 Q195.996 746.964 190.186 746.964 Q184.376 746.964 181.297 742.381 Q178.241 737.774 178.241 729.047 Q178.241 720.297 181.297 715.714 Q184.376 711.108 190.186 711.108 Z" fill="#000000" fill-rule="evenodd" fill-opacity="1" /><path clip-path="url(#clip560)" d="M 0 0 M128.103 435.37 Q124.492 435.37 122.663 438.935 Q120.857 442.476 120.857 449.606 Q120.857 456.712 122.663 460.277 Q124.492 463.819 128.103 463.819 Q131.737 463.819 133.542 460.277 Q135.371 456.712 135.371 449.606 Q135.371 442.476 133.542 438.935 Q131.737 435.37 128.103 435.37 M128.103 431.666 Q133.913 431.666 136.968 436.273 Q140.047 440.856 140.047 449.606 Q140.047 458.333 136.968 462.939 Q133.913 467.523 128.103 467.523 Q122.293 467.523 119.214 462.939 Q116.158 458.333 116.158 449.606 Q116.158 440.856 119.214 436.273 Q122.293 431.666 128.103 431.666 Z" fill="#000000" fill-rule="evenodd" fill-opacity="1" /><path clip-path="url(#clip560)" d="M 0 0 M145.116 460.972 L150.001 460.972 L150.001 466.851 L145.116 466.851 L145.116 460.972 Z" fill="#000000" fill-rule="evenodd" fill-opacity="1" /><path clip-path="url(#clip560)" d="M 0 0 M153.89 432.291 L176.112 432.291 L176.112 434.282 L163.565 466.851 L158.681 466.851 L170.487 436.226 L153.89 436.226 L153.89 432.291 Z" fill="#000000" fill-rule="evenodd" fill-opacity="1" /><path clip-path="url(#clip560)" d="M 0 0 M181.227 432.291 L199.584 432.291 L199.584 436.226 L185.51 436.226 L185.51 444.699 Q186.528 444.351 187.547 444.189 Q188.565 444.004 189.584 444.004 Q195.371 444.004 198.75 447.175 Q202.13 450.347 202.13 455.763 Q202.13 461.342 198.658 464.444 Q195.186 467.523 188.866 467.523 Q186.69 467.523 184.422 467.152 Q182.176 466.782 179.769 466.041 L179.769 461.342 Q181.852 462.476 184.075 463.032 Q186.297 463.587 188.774 463.587 Q192.778 463.587 195.116 461.481 Q197.454 459.374 197.454 455.763 Q197.454 452.152 195.116 450.046 Q192.778 447.939 188.774 447.939 Q186.899 447.939 185.024 448.356 Q183.172 448.773 181.227 449.652 L181.227 432.291 Z" fill="#000000" fill-rule="evenodd" fill-opacity="1" /><path clip-path="url(#clip560)" d="M 0 0 M118.242 183.475 L125.88 183.475 L125.88 157.109 L117.57 158.776 L117.57 154.517 L125.834 152.85 L130.51 152.85 L130.51 183.475 L138.149 183.475 L138.149 187.41 L118.242 187.41 L118.242 183.475 Z" fill="#000000" fill-rule="evenodd" fill-opacity="1" /><path clip-path="url(#clip560)" d="M 0 0 M143.218 181.53 L148.103 181.53 L148.103 187.41 L143.218 187.41 L143.218 181.53 Z" fill="#000000" fill-rule="evenodd" fill-opacity="1" /><path clip-path="url(#clip560)" d="M 0 0 M163.172 155.929 Q159.561 155.929 157.732 159.493 Q155.927 163.035 155.927 170.165 Q155.927 177.271 157.732 180.836 Q159.561 184.378 163.172 184.378 Q166.806 184.378 168.612 180.836 Q170.44 177.271 170.44 170.165 Q170.44 163.035 168.612 159.493 Q166.806 155.929 163.172 155.929 M163.172 152.225 Q168.982 152.225 172.038 156.831 Q175.116 161.415 175.116 170.165 Q175.116 178.891 172.038 183.498 Q168.982 188.081 163.172 188.081 Q157.362 188.081 154.283 183.498 Q151.228 178.891 151.228 170.165 Q151.228 161.415 154.283 156.831 Q157.362 152.225 163.172 152.225 Z" fill="#000000" fill-rule="evenodd" fill-opacity="1" /><path clip-path="url(#clip560)" d="M 0 0 M190.186 155.929 Q186.575 155.929 184.746 159.493 Q182.94 163.035 182.94 170.165 Q182.94 177.271 184.746 180.836 Q186.575 184.378 190.186 184.378 Q193.82 184.378 195.625 180.836 Q197.454 177.271 197.454 170.165 Q197.454 163.035 195.625 159.493 Q193.82 155.929 190.186 155.929 M190.186 152.225 Q195.996 152.225 199.051 156.831 Q202.13 161.415 202.13 170.165 Q202.13 178.891 199.051 183.498 Q195.996 188.081 190.186 188.081 Q184.376 188.081 181.297 183.498 Q178.241 178.891 178.241 170.165 Q178.241 161.415 181.297 156.831 Q184.376 152.225 190.186 152.225 Z" fill="#000000" fill-rule="evenodd" fill-opacity="1" /><path clip-path="url(#clip560)" d="M 0 0 M70.212 745.095 Q76.6732 745.095 80.3653 742.453 Q84.0256 739.779 84.0256 735.132 Q84.0256 730.485 80.3653 727.812 Q76.6732 725.138 70.212 725.138 Q63.7508 725.138 60.0905 727.812 Q56.3984 730.485 56.3984 735.132 Q56.3984 739.779 60.0905 742.453 Q63.7508 745.095 70.212 745.095 M82.657 725.138 Q85.8398 726.984 87.3994 729.817 Q88.9272 732.618 88.9272 736.565 Q88.9272 743.026 83.771 747.1 Q78.6147 751.142 70.212 751.142 Q61.8093 751.142 56.6531 747.1 Q51.4968 743.026 51.4968 736.565 Q51.4968 732.618 53.0564 729.817 Q54.5842 726.984 57.7671 725.138 L52.3562 725.138 L52.3562 719.282 L101.563 719.282 L101.563 725.138 L82.657 725.138 Z" fill="#000000" fill-rule="evenodd" fill-opacity="1" /><polyline clip-path="url(#clip562)" style="stroke:#009af9; stroke-width:4; stroke-opacity:1; fill:none" points="
  297.978,1287.9 300.669,1287.9 305.771,1287.9 310.872,1287.9 313.563,1287.9 316.255,1287.9 321.356,1287.9 326.458,1287.9 329.149,1287.9 
  331.84,1287.9 336.941,1287.9 342.043,1287.9 344.734,1287.9 347.425,1287.9 352.527,1287.9 357.628,1287.9 360.32,1287.9 
  363.011,1287.9 368.112,1287.9 373.214,1287.9 375.905,1287.9 378.596,1287.9 383.698,1287.9 388.799,1287.9 391.49,1287.9 
  394.181,1287.9 399.283,1287.9 404.385,1287.9 407.076,1287.9 409.767,1287.9 414.868,1287.9 419.97,1287.9 422.661,1287.9 
  425.352,1287.9 430.454,1287.9 435.555,1287.9 438.246,1287.9 440.938,1287.9 446.039,1287.9 451.141,1287.9 453.832,1287.9 
  456.523,1287.9 461.625,1287.9 466.726,1287.9 469.417,1287.9 472.108,1287.9 477.21,1287.9 482.311,1287.9 485.003,1287.9 
  487.694,1287.9 492.795,1287.9 497.897,1287.9 500.588,1287.9 503.279,1287.9 508.381,1287.9 513.482,1287.9 516.173,1287.9 
  518.865,1287.9 523.966,1287.9 529.068,1287.9 531.759,1287.9 534.45,1287.9 539.552,1287.9 544.653,1287.9 547.344,1287.9 
  550.035,1287.9 555.137,1287.9 560.238,1287.9 562.93,1287.9 565.621,1287.9 570.722,1287.9 575.824,1287.9 578.515,1287.9 
  581.206,1287.9 586.308,1287.9 591.409,1287.9 594.1,1287.9 596.792,1287.9 601.893,1287.9 606.995,1287.9 609.686,1287.9 
  612.377,1287.9 617.478,1287.9 622.58,1287.9 625.271,1287.9 627.962,1287.9 633.064,1287.9 638.165,1287.9 640.857,1287.9 
  643.548,1287.9 648.649,1287.9 653.751,1287.9 656.442,1287.9 659.133,1287.9 664.235,1287.9 669.336,1287.9 672.027,1287.9 
  674.719,1287.9 679.82,1287.9 684.922,1287.9 687.613,1287.9 690.304,1287.9 695.405,1287.9 700.507,1287.9 703.198,1287.9 
  705.889,1287.9 710.991,1287.9 716.092,1287.9 718.784,1287.9 721.475,1287.9 726.576,170.13 731.678,170.13 734.369,170.13 
  737.06,170.13 742.162,170.13 747.263,170.13 749.954,170.13 752.645,170.13 757.747,170.13 762.849,170.13 765.54,170.13 
  768.231,170.13 773.332,170.13 778.434,170.13 781.125,170.13 783.816,170.13 788.918,170.13 794.019,170.13 796.71,170.13 
  799.402,170.13 804.503,170.13 809.605,170.13 812.296,170.13 814.987,170.13 820.089,170.13 825.19,170.13 827.881,170.13 
  830.572,170.13 835.674,170.13 840.775,170.13 843.467,170.13 846.158,170.13 851.259,170.13 856.361,170.13 859.052,170.13 
  861.743,170.13 866.845,170.13 871.946,170.13 874.637,170.13 877.329,170.13 882.43,170.13 887.532,170.13 890.223,170.13 
  892.914,170.13 898.016,170.13 903.117,170.13 905.808,170.13 908.499,170.13 913.601,170.13 918.702,170.13 921.394,170.13 
  924.085,170.13 929.186,170.13 934.288,170.13 936.979,170.13 939.67,170.13 944.772,170.13 949.873,170.13 952.564,170.13 
  955.256,170.13 960.357,170.13 965.459,170.13 968.15,170.13 970.841,170.13 975.942,170.13 981.044,170.13 983.735,170.13 
  986.426,170.13 991.528,170.13 996.629,170.13 999.321,170.13 1002.01,170.13 1007.11,170.13 1012.21,1287.9 1014.91,1287.9 
  1017.6,1287.9 1022.7,1287.9 1027.8,1287.9 1030.49,1287.9 1033.18,1287.9 1038.28,1287.9 1043.39,1287.9 1046.08,1287.9 
  1048.77,1287.9 1053.87,1287.9 1058.97,1287.9 1061.66,1287.9 1064.35,1287.9 1069.45,1287.9 1074.56,1287.9 1077.25,1287.9 
  1079.94,1287.9 1085.04,1287.9 1090.14,1287.9 1092.83,1287.9 1095.52,1287.9 1100.63,1287.9 1105.73,1287.9 1108.42,1287.9 
  1111.11,1287.9 1116.21,1287.9 1121.31,1287.9 1124,1287.9 1126.69,1287.9 1131.8,1287.9 1136.9,1287.9 1139.59,1287.9 
  1142.28,1287.9 1147.38,1287.9 1152.48,1287.9 1155.17,1287.9 1157.87,1287.9 1162.97,1287.9 1168.07,1287.9 1170.76,1287.9 
  1173.45,1287.9 1178.55,1287.9 1183.65,1287.9 1186.35,1287.9 1189.04,1287.9 1194.14,1287.9 1199.24,1287.9 1201.93,1287.9 
  1204.62,1287.9 1209.72,1287.9 1214.82,1287.9 1217.52,1287.9 1220.21,1287.9 1225.31,1287.9 1230.41,1287.9 1233.1,1287.9 
  1235.79,1287.9 1240.89,1287.9 1246,1287.9 1248.69,1287.9 1251.38,1287.9 1256.48,1287.9 1261.58,1287.9 1264.27,1287.9 
  1266.96,1287.9 1272.06,1287.9 1277.17,1287.9 1279.86,1287.9 1282.55,1287.9 1287.65,1287.9 1292.75,1287.9 1295.44,1287.9 
  1298.13,1287.9 1303.24,1287.9 1308.34,1287.9 1311.03,1287.9 1313.72,1287.9 1318.82,1287.9 1323.92,1287.9 1326.61,1287.9 
  1329.3,1287.9 1334.41,1287.9 1339.51,1287.9 1342.2,1287.9 1344.89,1287.9 1349.99,1287.9 1355.09,1287.9 1357.78,1287.9 
  1360.48,1287.9 1365.58,1287.9 1370.68,1287.9 1373.37,1287.9 1376.06,1287.9 1381.16,1287.9 1386.26,1287.9 1388.96,1287.9 
  1391.65,1287.9 1396.75,1287.9 1401.85,1287.9 1404.54,1287.9 1407.23,1287.9 1412.33,1287.9 1417.43,1287.9 1420.13,1287.9 
  1422.82,1287.9 1427.92,1287.9 1433.02,1287.9 1435.71,1287.9 1438.4,1287.9 1443.5,1287.9 1448.61,1287.9 1451.3,1287.9 
  1453.99,1287.9 1459.09,1287.9 1464.19,1287.9 1466.88,1287.9 1469.57,1287.9 1474.67,1287.9 1479.78,1287.9 1482.47,1287.9 
  1485.16,1287.9 1490.26,1287.9 1495.36,1287.9 1498.05,1287.9 1500.74,1287.9 1505.85,1287.9 1510.95,1287.9 1513.64,1287.9 
  1516.33,1287.9 1521.43,1287.9 1526.53,1287.9 1529.22,1287.9 1531.92,1287.9 1537.02,1287.9 1542.12,1287.9 1544.81,1287.9 
  1547.5,1287.9 1552.6,1287.9 1557.7,1287.9 1560.39,1287.9 1563.09,1287.9 1568.19,1287.9 1573.29,1287.9 1575.98,1287.9 
  1578.67,1287.9 1583.77,1287.9 1588.87,1287.9 1591.57,1287.9 1594.26,1287.9 1599.36,1287.9 1604.46,1287.9 1607.15,1287.9 
  1609.84,1287.9 1614.94,1287.9 1620.05,1287.9 1622.74,1287.9 1625.43,1287.9 1630.53,1287.9 1635.63,1287.9 1638.32,1287.9 
  1641.01,1287.9 1646.11,1287.9 1651.22,1287.9 1653.91,1287.9 1656.6,1287.9 1661.7,1287.9 1666.8,1287.9 1669.49,1287.9 
  1672.18,1287.9 1677.29,1287.9 1682.39,1287.9 1685.08,1287.9 1687.77,1287.9 1692.87,1287.9 1697.97,1287.9 1700.66,1287.9 
  1703.35,1287.9 1708.46,1287.9 1713.56,1287.9 1716.25,1287.9 1718.94,1287.9 1724.04,1287.9 1729.14,1287.9 1731.83,1287.9 
  1734.53,1287.9 1739.63,1287.9 1744.73,1287.9 1747.42,1287.9 1750.11,1287.9 1755.21,1287.9 1760.31,1287.9 1763,1287.9 
  1765.7,1287.9 1770.8,1287.9 1775.9,1287.9 1778.59,1287.9 1781.28,1287.9 1786.38,1287.9 1791.48,1287.9 1794.18,1287.9 
  1796.87,1287.9 1801.97,1287.9 1807.07,1287.9 1809.76,1287.9 1812.45,1287.9 1817.55,1287.9 1822.66,1287.9 1825.35,1287.9 
  1828.04,1287.9 1833.14,1287.9 1838.24,1287.9 1840.93,1287.9 1843.62,1287.9 1848.72,1287.9 1853.83,1287.9 1856.52,1287.9 
  1859.21,1287.9 1864.31,1287.9 1869.41,1287.9 1872.1,1287.9 1874.79,1287.9 1879.9,1287.9 1885,1287.9 1887.69,1287.9 
  1890.38,1287.9 1895.48,1287.9 1900.58,1287.9 1903.27,1287.9 1905.96,1287.9 1911.07,1287.9 1916.17,1287.9 1918.86,1287.9 
  1921.55,1287.9 1926.65,1287.9 1931.75,1287.9 1934.44,1287.9 1937.14,1287.9 1942.24,1287.9 1947.34,1287.9 1950.03,1287.9 
  1952.72,1287.9 1957.82,1287.9 1962.92,1287.9 1965.61,1287.9 1968.31,1287.9 1973.41,1287.9 1978.51,1287.9 1981.2,1287.9 
  1983.89,1287.9 1988.99,1287.9 1994.09,1287.9 1996.79,1287.9 1999.48,1287.9 2004.58,1287.9 2009.68,1287.9 2012.37,1287.9 
  2015.06,1287.9 2020.16,1287.9 2025.27,1287.9 2027.96,1287.9 2030.65,1287.9 2035.75,1287.9 2040.85,1287.9 2043.54,1287.9 
  2046.23,1287.9 2051.33,1287.9 2056.44,1287.9 2059.13,1287.9 2061.82,1287.9 2066.92,1287.9 2072.02,1287.9 2074.71,1287.9 
  2077.4,1287.9 2082.51,1287.9 2087.61,1287.9 2090.3,1287.9 2092.99,1287.9 2098.09,1287.9 2103.19,1287.9 2105.88,1287.9 
  2108.57,1287.9 2113.68,1287.9 2118.78,1287.9 2121.47,1287.9 2124.16,1287.9 2129.26,1287.9 2134.36,1287.9 2137.05,1287.9 
  2139.75,1287.9 2144.85,1287.9 2149.95,1287.9 2152.64,1287.9 2155.33,1287.9 2160.43,1287.9 2165.53,1287.9 2168.22,1287.9 
  2170.92,1287.9 2176.02,1287.9 2181.12,1287.9 2183.81,1287.9 2186.5,1287.9 2191.6,1287.9 2196.7,1287.9 2199.4,1287.9 
  2202.09,1287.9 2207.19,1287.9 2212.29,1287.9 2214.98,1287.9 2217.67,1287.9 2222.77,1287.9 2227.88,1287.9 2230.57,1287.9 
  2233.26,1287.9 2238.36,1287.9 2243.46,1287.9 2246.15,1287.9 2248.84,1287.9 2253.94,1287.9 2259.05,1287.9 2261.74,1287.9 
  2264.43,1287.9 2269.53,1287.9 2274.63,1287.9 2277.32,1287.9 2280.01,1287.9 2285.12,1287.9 2290.22,1287.9 2292.91,1287.9 
  
  "/>
<polyline clip-path="url(#clip562)" style="stroke:#e26f46; stroke-width:4; stroke-opacity:1; fill:none" points="
  297.978,1287.9 300.669,1287.9 305.771,1287.9 310.872,1287.9 313.563,1287.9 316.255,1287.9 321.356,1287.9 326.458,1287.9 329.149,1287.9 
  331.84,1287.9 336.941,1287.9 342.043,1287.9 344.734,1287.9 347.425,1287.9 352.527,1287.9 357.628,1287.9 360.32,1287.9 
  363.011,1287.9 368.112,1287.9 373.214,1287.9 375.905,1287.9 378.596,1287.9 383.698,1287.9 388.799,1287.9 391.49,1287.9 
  394.181,1287.9 399.283,1287.9 404.385,1287.9 407.076,1287.9 409.767,1287.9 414.868,1287.9 419.97,1287.9 422.661,1287.9 
  425.352,1287.9 430.454,1287.9 435.555,1287.9 438.246,1287.9 440.938,1287.9 446.039,1287.9 451.141,1287.9 453.832,1287.9 
  456.523,1287.9 461.625,1287.9 466.726,1287.9 469.417,1287.9 472.108,1287.9 477.21,1287.9 482.311,1287.9 485.003,1287.9 
  487.694,1287.9 492.795,1287.9 497.897,1287.9 500.588,1287.9 503.279,1287.9 508.381,1287.9 513.482,1287.9 516.173,1287.9 
  518.865,1287.9 523.966,1287.9 529.068,1287.9 531.759,1287.9 534.45,1287.9 539.552,1287.9 544.653,1287.9 547.344,1287.9 
  550.035,1287.9 555.137,1287.9 560.238,1287.9 562.93,1287.9 565.621,1287.9 570.722,1287.9 575.824,1287.9 578.515,1287.9 
  581.206,1287.9 586.308,1287.9 591.409,1287.9 594.1,1287.9 596.792,1287.9 601.893,1287.9 606.995,1287.9 609.686,1287.9 
  612.377,1287.9 617.478,1287.9 622.58,1287.9 625.271,1287.9 627.962,1287.9 633.064,1287.9 638.165,1287.9 640.857,1287.9 
  643.548,1287.9 648.649,1287.9 653.751,1287.9 656.442,1287.9 659.133,1287.9 664.235,1287.9 669.336,1287.9 672.027,1287.9 
  674.719,1287.9 679.82,1287.9 684.922,1287.9 687.613,1287.9 690.304,1287.9 695.405,1287.9 700.507,1287.9 703.198,1287.9 
  705.889,1287.9 710.991,1287.9 716.092,1287.9 718.784,1287.9 718.784,1287.9 721.475,1287.9 726.576,1287.9 731.678,1287.9 734.369,1287.9 
  734.369,1287.9 737.06,1287.9 742.162,1287.9 747.263,1287.9 749.954,1287.9 749.954,1287.9 752.645,1287.9 757.747,1287.9 762.849,1287.9 765.54,1287.9 
  765.54,1287.9 768.231,1287.9 773.332,1287.9 778.434,1287.9 781.125,1287.9 781.125,1287.9 783.816,1287.9 788.918,1287.9 794.019,1287.9 796.71,1287.9 
  796.71,1287.9 799.402,1287.9 804.503,1287.9 809.605,1287.9 812.296,1287.9 812.296,1287.9 814.987,1287.9 820.089,1287.9 825.19,1287.9 827.881,1287.9 
  827.881,1287.9 830.572,1287.9 835.674,1287.9 840.775,1287.9 843.467,1287.9 843.467,1287.9 846.158,1287.9 851.259,1287.9 856.361,1287.9 859.052,1287.9 
  859.052,1287.9 861.743,1287.9 866.845,1287.9 871.946,1287.9 874.637,1287.9 874.637,1287.9 877.329,1287.9 882.43,1287.9 887.532,1287.9 890.223,1287.9 
  890.223,1287.9 892.914,1287.9 898.016,1287.9 903.117,1287.9 905.808,1287.9 905.808,1287.9 908.499,1287.9 913.601,1287.9 918.702,1287.9 921.394,1287.9 
  921.394,1287.9 924.085,1287.9 929.186,1287.9 934.288,1287.9 936.979,1287.9 936.979,1287.9 939.67,1287.9 944.772,1287.9 949.873,1287.9 952.564,1287.9 
  952.564,1287.9 955.256,1287.9 960.357,1287.9 965.459,1287.9 968.15,1287.9 968.15,1287.9 970.841,1287.9 975.942,1287.9 981.044,1287.9 983.735,1287.9 
  983.735,1287.9 986.426,1287.9 991.528,1287.9 996.629,1287.9 999.321,1287.9 999.321,1287.9 1002.01,1287.9 1007.11,1287.9 1012.21,1287.9 1014.91,1287.9 
  1014.91,1287.9 1017.6,1287.9 1022.7,1287.9 1027.8,1287.9 1030.49,1287.9 1030.49,1287.9 1033.18,1287.9 1038.28,1287.9 1043.39,1287.89 1046.08,1287.89 
  1046.08,1287.89 1048.77,1287.9 1053.87,1287.9 1058.97,1287.9 1061.66,1287.9 1061.66,1287.9 1064.35,1287.9 1069.45,1287.9 1074.56,1287.89 1077.25,1287.89 
  1077.25,1287.89 1079.94,1287.89 1085.04,1287.89 1090.14,1287.9 1092.83,1287.9 1092.83,1287.9 1095.52,1287.9 1100.63,1287.9 1105.73,1287.9 1108.42,1287.9 
  1108.42,1287.9 1111.11,1287.89 1116.21,1287.87 1121.31,1287.87 1124,1287.87 1124,1287.87 1126.69,1287.89 1131.8,1287.92 1136.9,1287.96 1139.59,1287.98 
  1139.59,1287.98 1142.28,1287.97 1147.38,1287.92 1152.48,1287.81 1155.17,1287.74 1155.17,1287.77 1157.87,1287.69 1162.97,1287.67 1168.07,1287.84 1170.76,1287.99 
  1170.76,1287.9 1173.45,1288.19 1178.55,1288.52 1183.65,1288.54 1186.35,1288.43 1186.35,1288.58 1189.04,1288.04 1194.14,1287.08 1199.24,1286.17 1201.93,1285.71 
  1201.93,1285.73 1204.62,1285.86 1209.72,1287.1 1214.82,1289.64 1217.52,1291.5 1217.52,1290.77 1220.21,1292.98 1225.31,1294.22 1230.41,1291.62 1233.1,1288.69 
  1233.1,1290.25 1235.79,1283.91 1240.89,1274.34 1246,1267.99 1248.69,1265.94 1248.69,1265.54 1251.38,1270.21 1256.48,1287.07 1261.58,1314.44 1264.27,1333.1 
  1264.27,1325.56 1266.96,1348.87 1272.06,1362.62 1277.17,1336.48 1279.86,1306.62 1279.86,1308.81 1282.55,1250.58 1287.65,1102.76 1292.75,905.902 1295.44,782.299 
  1295.44,794.317 1298.13,660.964 1303.24,440.243 1308.34,261.509 1311.03,184.139 1311.03,182.272 1313.72,136.017 1318.82,86.2686 1323.92,86.1857 1326.61,106.152 
  1326.61,99.1396 1329.3,124.607 1334.41,163.557 1339.51,190.294 1342.2,199.477 1342.2,200.879 1344.89,199.345 1349.99,192.083 1355.09,179.119 1357.78,169.982 
  1357.78,170.794 1360.48,165.563 1365.58,160.323 1370.68,161.205 1373.37,164.137 1373.37,163.366 1376.06,166.774 1381.16,171.42 1386.26,173.689 1388.96,173.93 
  1388.96,174.222 1391.65,173.161 1396.75,171.295 1401.85,169.621 1404.54,168.816 1404.54,168.782 1407.23,168.791 1412.33,169.092 1417.43,169.763 1420.13,170.267 
  1420.13,170.243 1422.82,170.429 1427.92,170.575 1433.02,170.451 1435.71,170.277 1435.71,170.275 1438.4,170.215 1443.5,170.153 1448.61,170.161 1451.3,170.193 
  1451.3,170.232 1453.99,170.129 1459.09,169.899 1464.19,169.621 1466.88,169.455 1466.88,169.461 1469.57,169.488 1474.67,169.903 1479.78,170.792 1482.47,171.452 
  1482.47,171.2 1485.16,171.949 1490.26,172.278 1495.36,171.176 1498.05,170.018 1498.05,170.699 1500.74,168.3 1505.85,165.131 1510.95,163.77 1513.64,163.779 
  1513.64,163.26 1516.33,166.124 1521.43,173.258 1526.53,182.623 1529.22,188.463 1529.22,186.853 1531.92,191.157 1537.02,189.258 1542.12,174.188 1544.81,160.932 
  1544.81,166.892 1547.5,143.012 1552.6,111.093 1557.7,96.6489 1560.39,96.0705 1560.39,99.5484 1563.09,116.865 1568.19,196.495 1573.29,337.405 1575.98,436.43 
  1575.98,425.046 1578.67,549.308 1583.77,778.031 1588.87,997.807 1591.57,1110.14 1591.57,1105.89 1594.26,1195.13 1599.36,1315.54 1604.46,1372.11 1607.15,1376.22 
  1607.15,1384.24 1609.84,1368.86 1614.94,1336.06 1620.05,1298.49 1622.74,1276.74 1622.74,1277.86 1625.43,1267.41 1630.53,1258.57 1635.63,1264.09 1638.32,1272.8 
  1638.32,1270.84 1641.01,1279.79 1646.11,1291.92 1651.22,1297.74 1653.91,1298.26 1653.91,1299.06 1656.6,1296.41 1661.7,1291.58 1666.8,1287.01 1669.49,1284.7 
  1669.49,1284.65 1672.18,1284.35 1677.29,1284.76 1682.39,1286.46 1685.08,1287.87 1685.08,1287.73 1687.77,1288.51 1692.87,1289.26 1697.97,1289.06 1700.66,1288.56 
  1700.66,1288.67 1703.35,1288.17 1708.46,1287.55 1713.56,1287.35 1716.25,1287.41 1716.25,1287.37 1718.94,1287.58 1724.04,1287.88 1729.14,1288.07 1731.83,1288.13 
  1731.83,1288.14 1734.53,1288.08 1739.63,1287.97 1744.73,1287.86 1747.42,1287.81 1747.42,1287.81 1750.11,1287.81 1755.21,1287.84 1760.31,1287.89 1763,1287.92 
  1763,1287.92 1765.7,1287.92 1770.8,1287.92 1775.9,1287.91 1778.59,1287.89 1778.59,1287.89 1781.28,1287.89 1786.38,1287.88 1791.48,1287.89 1794.18,1287.89 
  1794.18,1287.89 1796.87,1287.9 1801.97,1287.9 1807.07,1287.9 1809.76,1287.9 1809.76,1287.9 1812.45,1287.9 1817.55,1287.89 1822.66,1287.89 1825.35,1287.89 
  1825.35,1287.89 1828.04,1287.89 1833.14,1287.9 1838.24,1287.9 1840.93,1287.9 1840.93,1287.9 1843.62,1287.9 1848.72,1287.9 1853.83,1287.89 1856.52,1287.89 
  1856.52,1287.89 1859.21,1287.9 1864.31,1287.9 1869.41,1287.9 1872.1,1287.9 1872.1,1287.9 1874.79,1287.9 1879.9,1287.9 1885,1287.9 1887.69,1287.9 
  1887.69,1287.9 1890.38,1287.9 1895.48,1287.9 1900.58,1287.9 1903.27,1287.9 1903.27,1287.9 1905.96,1287.9 1911.07,1287.9 1916.17,1287.9 1918.86,1287.9 
  1918.86,1287.9 1921.55,1287.9 1926.65,1287.9 1931.75,1287.9 1934.44,1287.9 1934.44,1287.9 1937.14,1287.9 1942.24,1287.9 1947.34,1287.9 1950.03,1287.9 
  1950.03,1287.9 1952.72,1287.9 1957.82,1287.9 1962.92,1287.9 1965.61,1287.9 1965.61,1287.9 1968.31,1287.9 1973.41,1287.9 1978.51,1287.9 1981.2,1287.9 
  1981.2,1287.9 1983.89,1287.9 1988.99,1287.9 1994.09,1287.9 1996.79,1287.9 1996.79,1287.9 1999.48,1287.9 2004.58,1287.9 2009.68,1287.9 2012.37,1287.9 
  2012.37,1287.9 2015.06,1287.9 2020.16,1287.9 2025.27,1287.9 2027.96,1287.9 2027.96,1287.9 2030.65,1287.9 2035.75,1287.9 2040.85,1287.9 2043.54,1287.9 
  2043.54,1287.9 2046.23,1287.9 2051.33,1287.9 2056.44,1287.9 2059.13,1287.9 2059.13,1287.9 2061.82,1287.9 2066.92,1287.9 2072.02,1287.9 2074.71,1287.9 
  2074.71,1287.9 2077.4,1287.9 2082.51,1287.9 2087.61,1287.9 2090.3,1287.9 2090.3,1287.9 2092.99,1287.9 2098.09,1287.9 2103.19,1287.9 2105.88,1287.9 
  2105.88,1287.9 2108.57,1287.9 2113.68,1287.9 2118.78,1287.9 2121.47,1287.9 2121.47,1287.9 2124.16,1287.9 2129.26,1287.9 2134.36,1287.9 2137.05,1287.9 
  2137.05,1287.9 2139.75,1287.9 2144.85,1287.9 2149.95,1287.9 2152.64,1287.9 2152.64,1287.9 2155.33,1287.9 2160.43,1287.9 2165.53,1287.9 2168.22,1287.9 
  2170.92,1287.9 2176.02,1287.9 2181.12,1287.9 2183.81,1287.9 2186.5,1287.9 2191.6,1287.9 2196.7,1287.9 2199.4,1287.9 
  2202.09,1287.9 2207.19,1287.9 2212.29,1287.9 2214.98,1287.9 2217.67,1287.9 2222.77,1287.9 2227.88,1287.9 2230.57,1287.9 
  2233.26,1287.9 2238.36,1287.9 2243.46,1287.9 2246.15,1287.9 2248.84,1287.9 2253.94,1287.9 2259.05,1287.9 2261.74,1287.9 
  2264.43,1287.9 2269.53,1287.9 2274.63,1287.9 2277.32,1287.9 2280.01,1287.9 2285.12,1287.9 2290.22,1287.9 2292.91,1287.9 
  
  "/>
<path clip-path="url(#clip560)" d="
M1802.38 274.549 L2282.27 274.549 L2282.27 93.1086 L1802.38 93.1086  Z
  " fill="#ffffff" fill-rule="evenodd" fill-opacity="1"/>
<polyline clip-path="url(#clip560)" style="stroke:#000000; stroke-width:4; stroke-opacity:1; fill:none" points="
  1802.38,274.549 2282.27,274.549 2282.27,93.1086 1802.38,93.1086 1802.38,274.549 
  "/>
<polyline clip-path="url(#clip560)" style="stroke:#009af9; stroke-width:4; stroke-opacity:1; fill:none" points="
  1825.88,153.589 1966.85,153.589 
  "/>
<path clip-path="url(#clip560)" d="M 0 0 M1994.75 157.929 Q1994.75 162.628 1996.67 165.313 Q1998.61 167.975 2001.99 167.975 Q2005.37 167.975 2007.31 165.313 Q2009.26 162.628 2009.26 157.929 Q2009.26 153.23 2007.31 150.568 Q2005.37 147.883 2001.99 147.883 Q1998.61 147.883 1996.67 150.568 Q1994.75 153.23 1994.75 157.929 M2009.26 166.98 Q2007.92 169.295 2005.86 170.429 Q2003.82 171.54 2000.95 171.54 Q1996.25 171.54 1993.29 167.79 Q1990.35 164.04 1990.35 157.929 Q1990.35 151.818 1993.29 148.068 Q1996.25 144.318 2000.95 144.318 Q2003.82 144.318 2005.86 145.452 Q2007.92 146.563 2009.26 148.878 L2009.26 144.943 L2013.52 144.943 L2013.52 180.73 L2009.26 180.73 L2009.26 166.98 Z" fill="#000000" fill-rule="evenodd" fill-opacity="1" /><path clip-path="url(#clip560)" d="M 0 0 M2019.07 164.989 L2023.96 164.989 L2023.96 168.97 L2020.16 176.378 L2017.18 176.378 L2019.07 168.97 L2019.07 164.989 Z" fill="#000000" fill-rule="evenodd" fill-opacity="1" /><path clip-path="url(#clip560)" d="M 0 0 M2047.71 137.582 L2047.71 144.943 L2056.48 144.943 L2056.48 148.253 L2047.71 148.253 L2047.71 162.327 Q2047.71 165.498 2048.56 166.401 Q2049.44 167.304 2052.11 167.304 L2056.48 167.304 L2056.48 170.869 L2052.11 170.869 Q2047.18 170.869 2045.3 169.04 Q2043.43 167.188 2043.43 162.327 L2043.43 148.253 L2040.3 148.253 L2040.3 144.943 L2043.43 144.943 L2043.43 137.582 L2047.71 137.582 Z" fill="#000000" fill-rule="evenodd" fill-opacity="1" /><path clip-path="url(#clip560)" d="M 0 0 M2061.5 149.341 L2091.18 149.341 L2091.18 153.23 L2061.5 153.23 L2061.5 149.341 M2061.5 158.785 L2091.18 158.785 L2091.18 162.721 L2061.5 162.721 L2061.5 158.785 Z" fill="#000000" fill-rule="evenodd" fill-opacity="1" /><path clip-path="url(#clip560)" d="M 0 0 M2106.25 139.387 Q2102.64 139.387 2100.81 142.952 Q2099 146.494 2099 153.623 Q2099 160.73 2100.81 164.295 Q2102.64 167.836 2106.25 167.836 Q2109.88 167.836 2111.69 164.295 Q2113.52 160.73 2113.52 153.623 Q2113.52 146.494 2111.69 142.952 Q2109.88 139.387 2106.25 139.387 M2106.25 135.684 Q2112.06 135.684 2115.12 140.29 Q2118.19 144.873 2118.19 153.623 Q2118.19 162.35 2115.12 166.957 Q2112.06 171.54 2106.25 171.54 Q2100.44 171.54 2097.36 166.957 Q2094.31 162.35 2094.31 153.623 Q2094.31 144.873 2097.36 140.29 Q2100.44 135.684 2106.25 135.684 Z" fill="#000000" fill-rule="evenodd" fill-opacity="1" /><path clip-path="url(#clip560)" d="M 0 0 M2123.26 164.989 L2128.15 164.989 L2128.15 170.869 L2123.26 170.869 L2123.26 164.989 Z" fill="#000000" fill-rule="evenodd" fill-opacity="1" /><path clip-path="url(#clip560)" d="M 0 0 M2143.22 139.387 Q2139.61 139.387 2137.78 142.952 Q2135.97 146.494 2135.97 153.623 Q2135.97 160.73 2137.78 164.295 Q2139.61 167.836 2143.22 167.836 Q2146.85 167.836 2148.66 164.295 Q2150.49 160.73 2150.49 153.623 Q2150.49 146.494 2148.66 142.952 Q2146.85 139.387 2143.22 139.387 M2143.22 135.684 Q2149.03 135.684 2152.08 140.29 Q2155.16 144.873 2155.16 153.623 Q2155.16 162.35 2152.08 166.957 Q2149.03 171.54 2143.22 171.54 Q2137.41 171.54 2134.33 166.957 Q2131.27 162.35 2131.27 153.623 Q2131.27 144.873 2134.33 140.29 Q2137.41 135.684 2143.22 135.684 Z" fill="#000000" fill-rule="evenodd" fill-opacity="1" /><polyline clip-path="url(#clip560)" style="stroke:#e26f46; stroke-width:4; stroke-opacity:1; fill:none" points="
  1825.88,214.069 1966.85,214.069 
  "/>
<path clip-path="url(#clip560)" d="M 0 0 M1994.75 218.409 Q1994.75 223.108 1996.67 225.793 Q1998.61 228.455 2001.99 228.455 Q2005.37 228.455 2007.31 225.793 Q2009.26 223.108 2009.26 218.409 Q2009.26 213.71 2007.31 211.048 Q2005.37 208.363 2001.99 208.363 Q1998.61 208.363 1996.67 211.048 Q1994.75 213.71 1994.75 218.409 M2009.26 227.46 Q2007.92 229.775 2005.86 230.909 Q2003.82 232.02 2000.95 232.02 Q1996.25 232.02 1993.29 228.27 Q1990.35 224.52 1990.35 218.409 Q1990.35 212.298 1993.29 208.548 Q1996.25 204.798 2000.95 204.798 Q2003.82 204.798 2005.86 205.932 Q2007.92 207.043 2009.26 209.358 L2009.26 205.423 L2013.52 205.423 L2013.52 241.21 L2009.26 241.21 L2009.26 227.46 Z" fill="#000000" fill-rule="evenodd" fill-opacity="1" /><path clip-path="url(#clip560)" d="M 0 0 M2019.07 225.469 L2023.96 225.469 L2023.96 229.45 L2020.16 236.858 L2017.18 236.858 L2019.07 229.45 L2019.07 225.469 Z" fill="#000000" fill-rule="evenodd" fill-opacity="1" /><path clip-path="url(#clip560)" d="M 0 0 M2047.71 198.062 L2047.71 205.423 L2056.48 205.423 L2056.48 208.733 L2047.71 208.733 L2047.71 222.807 Q2047.71 225.978 2048.56 226.881 Q2049.44 227.784 2052.11 227.784 L2056.48 227.784 L2056.48 231.349 L2052.11 231.349 Q2047.18 231.349 2045.3 229.52 Q2043.43 227.668 2043.43 222.807 L2043.43 208.733 L2040.3 208.733 L2040.3 205.423 L2043.43 205.423 L2043.43 198.062 L2047.71 198.062 Z" fill="#000000" fill-rule="evenodd" fill-opacity="1" /><path clip-path="url(#clip560)" d="M 0 0 M2061.5 209.821 L2091.18 209.821 L2091.18 213.71 L2061.5 213.71 L2061.5 209.821 M2061.5 219.265 L2091.18 219.265 L2091.18 223.201 L2061.5 223.201 L2061.5 219.265 Z" fill="#000000" fill-rule="evenodd" fill-opacity="1" /><path clip-path="url(#clip560)" d="M 0 0 M2109.1 200.863 L2097.29 219.312 L2109.1 219.312 L2109.1 200.863 M2107.87 196.789 L2113.75 196.789 L2113.75 219.312 L2118.68 219.312 L2118.68 223.201 L2113.75 223.201 L2113.75 231.349 L2109.1 231.349 L2109.1 223.201 L2093.5 223.201 L2093.5 218.687 L2107.87 196.789 Z" fill="#000000" fill-rule="evenodd" fill-opacity="1" /><path clip-path="url(#clip560)" d="M 0 0 M2123.8 196.789 L2142.15 196.789 L2142.15 200.724 L2128.08 200.724 L2128.08 209.196 Q2129.1 208.849 2130.12 208.687 Q2131.13 208.502 2132.15 208.502 Q2137.94 208.502 2141.32 211.673 Q2144.7 214.844 2144.7 220.261 Q2144.7 225.839 2141.23 228.941 Q2137.75 232.02 2131.43 232.02 Q2129.26 232.02 2126.99 231.65 Q2124.74 231.279 2122.34 230.538 L2122.34 225.839 Q2124.42 226.974 2126.64 227.529 Q2128.87 228.085 2131.34 228.085 Q2135.35 228.085 2137.68 225.978 Q2140.02 223.872 2140.02 220.261 Q2140.02 216.65 2137.68 214.543 Q2135.35 212.437 2131.34 212.437 Q2129.47 212.437 2127.59 212.853 Q2125.74 213.27 2123.8 214.15 L2123.8 196.789 Z" fill="#000000" fill-rule="evenodd" fill-opacity="1" /><path clip-path="url(#clip560)" d="M 0 0 M2159.77 199.867 Q2156.16 199.867 2154.33 203.432 Q2152.52 206.974 2152.52 214.103 Q2152.52 221.21 2154.33 224.775 Q2156.16 228.316 2159.77 228.316 Q2163.4 228.316 2165.21 224.775 Q2167.04 221.21 2167.04 214.103 Q2167.04 206.974 2165.21 203.432 Q2163.4 199.867 2159.77 199.867 M2159.77 196.164 Q2165.58 196.164 2168.63 200.77 Q2171.71 205.353 2171.71 214.103 Q2171.71 222.83 2168.63 227.437 Q2165.58 232.02 2159.77 232.02 Q2153.96 232.02 2150.88 227.437 Q2147.82 222.83 2147.82 214.103 Q2147.82 205.353 2150.88 200.77 Q2153.96 196.164 2159.77 196.164 Z" fill="#000000" fill-rule="evenodd" fill-opacity="1" /><path clip-path="url(#clip560)" d="M 0 0 M2176.78 225.469 L2181.67 225.469 L2181.67 231.349 L2176.78 231.349 L2176.78 225.469 Z" fill="#000000" fill-rule="evenodd" fill-opacity="1" /><path clip-path="url(#clip560)" d="M 0 0 M2199.58 200.863 L2187.78 219.312 L2199.58 219.312 L2199.58 200.863 M2198.36 196.789 L2204.24 196.789 L2204.24 219.312 L2209.17 219.312 L2209.17 223.201 L2204.24 223.201 L2204.24 231.349 L2199.58 231.349 L2199.58 223.201 L2183.98 223.201 L2183.98 218.687 L2198.36 196.789 Z" fill="#000000" fill-rule="evenodd" fill-opacity="1" /><path clip-path="url(#clip560)" d="M 0 0 M2213.05 196.789 L2235.28 196.789 L2235.28 198.779 L2222.73 231.349 L2217.85 231.349 L2229.65 200.724 L2213.05 200.724 L2213.05 196.789 Z" fill="#000000" fill-rule="evenodd" fill-opacity="1" /></svg>
