<?xml version="1.0" encoding="utf-8"?>
<svg xmlns="http://www.w3.org/2000/svg" xmlns:xlink="http://www.w3.org/1999/xlink" width="600" height="400" viewBox="0 0 2400 1600">
<defs>
  <clipPath id="clip410">
    <rect x="0" y="0" width="2400" height="1600"/>
  </clipPath>
</defs>
<path clip-path="url(#clip410)" d="
M0 1600 L2400 1600 L2400 0 L0 0  Z
  " fill="#ffffff" fill-rule="evenodd" fill-opacity="1"/>
<defs>
  <clipPath id="clip411">
    <rect x="480" y="0" width="1681" height="1600"/>
  </clipPath>
</defs>
<path clip-path="url(#clip410)" d="
M238.13 1423.18 L2352.76 1423.18 L2352.76 47.2441 L238.13 47.2441  Z
  " fill="#ffffff" fill-rule="evenodd" fill-opacity="1"/>
<defs>
  <clipPath id="clip412">
    <rect x="238" y="47" width="2116" height="1377"/>
  </clipPath>
</defs>
<polyline clip-path="url(#clip412)" style="stroke:#000000; stroke-width:2; stroke-opacity:0.1; fill:none" points="
  238.13,1423.18 238.13,47.2441 
  "/>
<polyline clip-path="url(#clip412)" style="stroke:#000000; stroke-width:2; stroke-opacity:0.1; fill:none" points="
  540.219,1423.18 540.219,47.2441 
  "/>
<polyline clip-path="url(#clip412)" style="stroke:#000000; stroke-width:2; stroke-opacity:0.1; fill:none" points="
  842.309,1423.18 842.309,47.2441 
  "/>
<polyline clip-path="url(#clip412)" style="stroke:#000000; stroke-width:2; stroke-opacity:0.1; fill:none" points="
  1144.4,1423.18 1144.4,47.2441 
  "/>
<polyline clip-path="url(#clip412)" style="stroke:#000000; stroke-width:2; stroke-opacity:0.1; fill:none" points="
  1446.49,1423.18 1446.49,47.2441 
  "/>
<polyline clip-path="url(#clip412)" style="stroke:#000000; stroke-width:2; stroke-opacity:0.1; fill:none" points="
  1748.58,1423.18 1748.58,47.2441 
  "/>
<polyline clip-path="url(#clip412)" style="stroke:#000000; stroke-width:2; stroke-opacity:0.1; fill:none" points="
  2050.67,1423.18 2050.67,47.2441 
  "/>
<polyline clip-path="url(#clip412)" style="stroke:#000000; stroke-width:2; stroke-opacity:0.1; fill:none" points="
  2352.76,1423.18 2352.76,47.2441 
  "/>
<polyline clip-path="url(#clip410)" style="stroke:#000000; stroke-width:4; stroke-opacity:1; fill:none" points="
  238.13,1423.18 2352.76,1423.18 
  "/>
<polyline clip-path="url(#clip410)" style="stroke:#000000; stroke-width:4; stroke-opacity:1; fill:none" points="
  238.13,1423.18 238.13,1406.67 
  "/>
<polyline clip-path="url(#clip410)" style="stroke:#000000; stroke-width:4; stroke-opacity:1; fill:none" points="
  540.219,1423.18 540.219,1406.67 
  "/>
<polyline clip-path="url(#clip410)" style="stroke:#000000; stroke-width:4; stroke-opacity:1; fill:none" points="
  842.309,1423.18 842.309,1406.67 
  "/>
<polyline clip-path="url(#clip410)" style="stroke:#000000; stroke-width:4; stroke-opacity:1; fill:none" points="
  1144.4,1423.18 1144.4,1406.67 
  "/>
<polyline clip-path="url(#clip410)" style="stroke:#000000; stroke-width:4; stroke-opacity:1; fill:none" points="
  1446.49,1423.18 1446.49,1406.67 
  "/>
<polyline clip-path="url(#clip410)" style="stroke:#000000; stroke-width:4; stroke-opacity:1; fill:none" points="
  1748.58,1423.18 1748.58,1406.67 
  "/>
<polyline clip-path="url(#clip410)" style="stroke:#000000; stroke-width:4; stroke-opacity:1; fill:none" points="
  2050.67,1423.18 2050.67,1406.67 
  "/>
<polyline clip-path="url(#clip410)" style="stroke:#000000; stroke-width:4; stroke-opacity:1; fill:none" points="
  2352.76,1423.18 2352.76,1406.67 
  "/>
<path clip-path="url(#clip410)" d="M 0 0 M238.13 1452.37 Q234.519 1452.37 232.69 1455.94 Q230.885 1459.48 230.885 1466.61 Q230.885 1473.71 232.69 1477.28 Q234.519 1480.82 238.13 1480.82 Q241.764 1480.82 243.57 1477.28 Q245.399 1473.71 245.399 1466.61 Q245.399 1459.48 243.57 1455.94 Q241.764 1452.37 238.13 1452.37 M238.13 1448.67 Q243.94 1448.67 246.996 1453.27 Q250.074 1457.86 250.074 1466.61 Q250.074 1475.33 246.996 1479.94 Q243.94 1484.52 238.13 1484.52 Q232.32 1484.52 229.241 1479.94 Q226.186 1475.33 226.186 1466.61 Q226.186 1457.86 229.241 1453.27 Q232.32 1448.67 238.13 1448.67 Z" fill="#000000" fill-rule="evenodd" fill-opacity="1" /><path clip-path="url(#clip410)" d="M 0 0 M516.99 1449.29 L535.347 1449.29 L535.347 1453.23 L521.273 1453.23 L521.273 1461.7 Q522.291 1461.35 523.31 1461.19 Q524.328 1461 525.347 1461 Q531.134 1461 534.513 1464.18 Q537.893 1467.35 537.893 1472.76 Q537.893 1478.34 534.421 1481.44 Q530.949 1484.52 524.629 1484.52 Q522.453 1484.52 520.185 1484.15 Q517.939 1483.78 515.532 1483.04 L515.532 1478.34 Q517.615 1479.48 519.838 1480.03 Q522.06 1480.59 524.537 1480.59 Q528.541 1480.59 530.879 1478.48 Q533.217 1476.38 533.217 1472.76 Q533.217 1469.15 530.879 1467.05 Q528.541 1464.94 524.537 1464.94 Q522.662 1464.94 520.787 1465.36 Q518.935 1465.77 516.99 1466.65 L516.99 1449.29 Z" fill="#000000" fill-rule="evenodd" fill-opacity="1" /><path clip-path="url(#clip410)" d="M 0 0 M552.962 1452.37 Q549.351 1452.37 547.523 1455.94 Q545.717 1459.48 545.717 1466.61 Q545.717 1473.71 547.523 1477.28 Q549.351 1480.82 552.962 1480.82 Q556.597 1480.82 558.402 1477.28 Q560.231 1473.71 560.231 1466.61 Q560.231 1459.48 558.402 1455.94 Q556.597 1452.37 552.962 1452.37 M552.962 1448.67 Q558.773 1448.67 561.828 1453.27 Q564.907 1457.86 564.907 1466.61 Q564.907 1475.33 561.828 1479.94 Q558.773 1484.52 552.962 1484.52 Q547.152 1484.52 544.074 1479.94 Q541.018 1475.33 541.018 1466.61 Q541.018 1457.86 544.074 1453.27 Q547.152 1448.67 552.962 1448.67 Z" fill="#000000" fill-rule="evenodd" fill-opacity="1" /><path clip-path="url(#clip410)" d="M 0 0 M805.677 1479.92 L813.316 1479.92 L813.316 1453.55 L805.006 1455.22 L805.006 1450.96 L813.27 1449.29 L817.946 1449.29 L817.946 1479.92 L825.584 1479.92 L825.584 1483.85 L805.677 1483.85 L805.677 1479.92 Z" fill="#000000" fill-rule="evenodd" fill-opacity="1" /><path clip-path="url(#clip410)" d="M 0 0 M840.654 1452.37 Q837.043 1452.37 835.214 1455.94 Q833.408 1459.48 833.408 1466.61 Q833.408 1473.71 835.214 1477.28 Q837.043 1480.82 840.654 1480.82 Q844.288 1480.82 846.094 1477.28 Q847.922 1473.71 847.922 1466.61 Q847.922 1459.48 846.094 1455.94 Q844.288 1452.37 840.654 1452.37 M840.654 1448.67 Q846.464 1448.67 849.519 1453.27 Q852.598 1457.86 852.598 1466.61 Q852.598 1475.33 849.519 1479.94 Q846.464 1484.52 840.654 1484.52 Q834.844 1484.52 831.765 1479.94 Q828.709 1475.33 828.709 1466.61 Q828.709 1457.86 831.765 1453.27 Q834.844 1448.67 840.654 1448.67 Z" fill="#000000" fill-rule="evenodd" fill-opacity="1" /><path clip-path="url(#clip410)" d="M 0 0 M867.668 1452.37 Q864.056 1452.37 862.228 1455.94 Q860.422 1459.48 860.422 1466.61 Q860.422 1473.71 862.228 1477.28 Q864.056 1480.82 867.668 1480.82 Q871.302 1480.82 873.107 1477.28 Q874.936 1473.71 874.936 1466.61 Q874.936 1459.48 873.107 1455.94 Q871.302 1452.37 867.668 1452.37 M867.668 1448.67 Q873.478 1448.67 876.533 1453.27 Q879.612 1457.86 879.612 1466.61 Q879.612 1475.33 876.533 1479.94 Q873.478 1484.52 867.668 1484.52 Q861.857 1484.52 858.779 1479.94 Q855.723 1475.33 855.723 1466.61 Q855.723 1457.86 858.779 1453.27 Q861.857 1448.67 867.668 1448.67 Z" fill="#000000" fill-rule="evenodd" fill-opacity="1" /><path clip-path="url(#clip410)" d="M 0 0 M1108.26 1479.92 L1115.9 1479.92 L1115.9 1453.55 L1107.59 1455.22 L1107.59 1450.96 L1115.86 1449.29 L1120.53 1449.29 L1120.53 1479.92 L1128.17 1479.92 L1128.17 1483.85 L1108.26 1483.85 L1108.26 1479.92 Z" fill="#000000" fill-rule="evenodd" fill-opacity="1" /><path clip-path="url(#clip410)" d="M 0 0 M1133.29 1449.29 L1151.64 1449.29 L1151.64 1453.23 L1137.57 1453.23 L1137.57 1461.7 Q1138.59 1461.35 1139.61 1461.19 Q1140.63 1461 1141.64 1461 Q1147.43 1461 1150.81 1464.18 Q1154.19 1467.35 1154.19 1472.76 Q1154.19 1478.34 1150.72 1481.44 Q1147.25 1484.52 1140.93 1484.52 Q1138.75 1484.52 1136.48 1484.15 Q1134.24 1483.78 1131.83 1483.04 L1131.83 1478.34 Q1133.91 1479.48 1136.13 1480.03 Q1138.36 1480.59 1140.83 1480.59 Q1144.84 1480.59 1147.18 1478.48 Q1149.51 1476.38 1149.51 1472.76 Q1149.51 1469.15 1147.18 1467.05 Q1144.84 1464.94 1140.83 1464.94 Q1138.96 1464.94 1137.08 1465.36 Q1135.23 1465.77 1133.29 1466.65 L1133.29 1449.29 Z" fill="#000000" fill-rule="evenodd" fill-opacity="1" /><path clip-path="url(#clip410)" d="M 0 0 M1169.26 1452.37 Q1165.65 1452.37 1163.82 1455.94 Q1162.01 1459.48 1162.01 1466.61 Q1162.01 1473.71 1163.82 1477.28 Q1165.65 1480.82 1169.26 1480.82 Q1172.89 1480.82 1174.7 1477.28 Q1176.53 1473.71 1176.53 1466.61 Q1176.53 1459.48 1174.7 1455.94 Q1172.89 1452.37 1169.26 1452.37 M1169.26 1448.67 Q1175.07 1448.67 1178.12 1453.27 Q1181.2 1457.86 1181.2 1466.61 Q1181.2 1475.33 1178.12 1479.94 Q1175.07 1484.52 1169.26 1484.52 Q1163.45 1484.52 1160.37 1479.94 Q1157.31 1475.33 1157.31 1466.61 Q1157.31 1457.86 1160.37 1453.27 Q1163.45 1448.67 1169.26 1448.67 Z" fill="#000000" fill-rule="evenodd" fill-opacity="1" /><path clip-path="url(#clip410)" d="M 0 0 M1414.13 1479.92 L1430.45 1479.92 L1430.45 1483.85 L1408.5 1483.85 L1408.5 1479.92 Q1411.16 1477.16 1415.75 1472.53 Q1420.35 1467.88 1421.53 1466.54 Q1423.78 1464.01 1424.66 1462.28 Q1425.56 1460.52 1425.56 1458.83 Q1425.56 1456.07 1423.62 1454.34 Q1421.7 1452.6 1418.59 1452.6 Q1416.4 1452.6 1413.94 1453.37 Q1411.51 1454.13 1408.73 1455.68 L1408.73 1450.96 Q1411.56 1449.82 1414.01 1449.25 Q1416.46 1448.67 1418.5 1448.67 Q1423.87 1448.67 1427.07 1451.35 Q1430.26 1454.04 1430.26 1458.53 Q1430.26 1460.66 1429.45 1462.58 Q1428.66 1464.48 1426.56 1467.07 Q1425.98 1467.74 1422.88 1470.96 Q1419.77 1474.15 1414.13 1479.92 Z" fill="#000000" fill-rule="evenodd" fill-opacity="1" /><path clip-path="url(#clip410)" d="M 0 0 M1445.52 1452.37 Q1441.9 1452.37 1440.08 1455.94 Q1438.27 1459.48 1438.27 1466.61 Q1438.27 1473.71 1440.08 1477.28 Q1441.9 1480.82 1445.52 1480.82 Q1449.15 1480.82 1450.96 1477.28 Q1452.78 1473.71 1452.78 1466.61 Q1452.78 1459.48 1450.96 1455.94 Q1449.15 1452.37 1445.52 1452.37 M1445.52 1448.67 Q1451.33 1448.67 1454.38 1453.27 Q1457.46 1457.86 1457.46 1466.61 Q1457.46 1475.33 1454.38 1479.94 Q1451.33 1484.52 1445.52 1484.52 Q1439.71 1484.52 1436.63 1479.94 Q1433.57 1475.33 1433.57 1466.61 Q1433.57 1457.86 1436.63 1453.27 Q1439.71 1448.67 1445.52 1448.67 Z" fill="#000000" fill-rule="evenodd" fill-opacity="1" /><path clip-path="url(#clip410)" d="M 0 0 M1472.53 1452.37 Q1468.92 1452.37 1467.09 1455.94 Q1465.28 1459.48 1465.28 1466.61 Q1465.28 1473.71 1467.09 1477.28 Q1468.92 1480.82 1472.53 1480.82 Q1476.16 1480.82 1477.97 1477.28 Q1479.8 1473.71 1479.8 1466.61 Q1479.8 1459.48 1477.97 1455.94 Q1476.16 1452.37 1472.53 1452.37 M1472.53 1448.67 Q1478.34 1448.67 1481.39 1453.27 Q1484.47 1457.86 1484.47 1466.61 Q1484.47 1475.33 1481.39 1479.94 Q1478.34 1484.52 1472.53 1484.52 Q1466.72 1484.52 1463.64 1479.94 Q1460.58 1475.33 1460.58 1466.61 Q1460.58 1457.86 1463.64 1453.27 Q1466.72 1448.67 1472.53 1448.67 Z" fill="#000000" fill-rule="evenodd" fill-opacity="1" /><path clip-path="url(#clip410)" d="M 0 0 M1716.71 1479.92 L1733.03 1479.92 L1733.03 1483.85 L1711.09 1483.85 L1711.09 1479.92 Q1713.75 1477.16 1718.33 1472.53 Q1722.94 1467.88 1724.12 1466.54 Q1726.37 1464.01 1727.25 1462.28 Q1728.15 1460.52 1728.15 1458.83 Q1728.15 1456.07 1726.2 1454.34 Q1724.28 1452.6 1721.18 1452.6 Q1718.98 1452.6 1716.53 1453.37 Q1714.1 1454.13 1711.32 1455.68 L1711.32 1450.96 Q1714.14 1449.82 1716.6 1449.25 Q1719.05 1448.67 1721.09 1448.67 Q1726.46 1448.67 1729.65 1451.35 Q1732.85 1454.04 1732.85 1458.53 Q1732.85 1460.66 1732.04 1462.58 Q1731.25 1464.48 1729.14 1467.07 Q1728.57 1467.74 1725.46 1470.96 Q1722.36 1474.15 1716.71 1479.92 Z" fill="#000000" fill-rule="evenodd" fill-opacity="1" /><path clip-path="url(#clip410)" d="M 0 0 M1738.15 1449.29 L1756.51 1449.29 L1756.51 1453.23 L1742.43 1453.23 L1742.43 1461.7 Q1743.45 1461.35 1744.47 1461.19 Q1745.49 1461 1746.51 1461 Q1752.29 1461 1755.67 1464.18 Q1759.05 1467.35 1759.05 1472.76 Q1759.05 1478.34 1755.58 1481.44 Q1752.11 1484.52 1745.79 1484.52 Q1743.61 1484.52 1741.34 1484.15 Q1739.1 1483.78 1736.69 1483.04 L1736.69 1478.34 Q1738.77 1479.48 1741 1480.03 Q1743.22 1480.59 1745.7 1480.59 Q1749.7 1480.59 1752.04 1478.48 Q1754.38 1476.38 1754.38 1472.76 Q1754.38 1469.15 1752.04 1467.05 Q1749.7 1464.94 1745.7 1464.94 Q1743.82 1464.94 1741.95 1465.36 Q1740.09 1465.77 1738.15 1466.65 L1738.15 1449.29 Z" fill="#000000" fill-rule="evenodd" fill-opacity="1" /><path clip-path="url(#clip410)" d="M 0 0 M1774.12 1452.37 Q1770.51 1452.37 1768.68 1455.94 Q1766.88 1459.48 1766.88 1466.61 Q1766.88 1473.71 1768.68 1477.28 Q1770.51 1480.82 1774.12 1480.82 Q1777.76 1480.82 1779.56 1477.28 Q1781.39 1473.71 1781.39 1466.61 Q1781.39 1459.48 1779.56 1455.94 Q1777.76 1452.37 1774.12 1452.37 M1774.12 1448.67 Q1779.93 1448.67 1782.99 1453.27 Q1786.07 1457.86 1786.07 1466.61 Q1786.07 1475.33 1782.99 1479.94 Q1779.93 1484.52 1774.12 1484.52 Q1768.31 1484.52 1765.23 1479.94 Q1762.18 1475.33 1762.18 1466.61 Q1762.18 1457.86 1765.23 1453.27 Q1768.31 1448.67 1774.12 1448.67 Z" fill="#000000" fill-rule="evenodd" fill-opacity="1" /><path clip-path="url(#clip410)" d="M 0 0 M2027.9 1465.22 Q2031.26 1465.94 2033.13 1468.2 Q2035.03 1470.47 2035.03 1473.81 Q2035.03 1478.92 2031.51 1481.72 Q2027.99 1484.52 2021.51 1484.52 Q2019.34 1484.52 2017.02 1484.08 Q2014.73 1483.67 2012.28 1482.81 L2012.28 1478.3 Q2014.22 1479.43 2016.53 1480.01 Q2018.85 1480.59 2021.37 1480.59 Q2025.77 1480.59 2028.06 1478.85 Q2030.38 1477.12 2030.38 1473.81 Q2030.38 1470.75 2028.22 1469.04 Q2026.09 1467.3 2022.28 1467.3 L2018.25 1467.3 L2018.25 1463.46 L2022.46 1463.46 Q2025.91 1463.46 2027.74 1462.09 Q2029.57 1460.7 2029.57 1458.11 Q2029.57 1455.45 2027.67 1454.04 Q2025.79 1452.6 2022.28 1452.6 Q2020.35 1452.6 2018.16 1453.02 Q2015.96 1453.44 2013.32 1454.31 L2013.32 1450.15 Q2015.98 1449.41 2018.29 1449.04 Q2020.63 1448.67 2022.69 1448.67 Q2028.02 1448.67 2031.12 1451.1 Q2034.22 1453.5 2034.22 1457.63 Q2034.22 1460.5 2032.58 1462.49 Q2030.93 1464.45 2027.9 1465.22 Z" fill="#000000" fill-rule="evenodd" fill-opacity="1" /><path clip-path="url(#clip410)" d="M 0 0 M2050.1 1452.37 Q2046.49 1452.37 2044.66 1455.94 Q2042.85 1459.48 2042.85 1466.61 Q2042.85 1473.71 2044.66 1477.28 Q2046.49 1480.82 2050.1 1480.82 Q2053.73 1480.82 2055.54 1477.28 Q2057.37 1473.71 2057.37 1466.61 Q2057.37 1459.48 2055.54 1455.94 Q2053.73 1452.37 2050.1 1452.37 M2050.1 1448.67 Q2055.91 1448.67 2058.97 1453.27 Q2062.04 1457.86 2062.04 1466.61 Q2062.04 1475.33 2058.97 1479.94 Q2055.91 1484.52 2050.1 1484.52 Q2044.29 1484.52 2041.21 1479.94 Q2038.15 1475.33 2038.15 1466.61 Q2038.15 1457.86 2041.21 1453.27 Q2044.29 1448.67 2050.1 1448.67 Z" fill="#000000" fill-rule="evenodd" fill-opacity="1" /><path clip-path="url(#clip410)" d="M 0 0 M2077.11 1452.37 Q2073.5 1452.37 2071.67 1455.94 Q2069.87 1459.48 2069.87 1466.61 Q2069.87 1473.71 2071.67 1477.28 Q2073.5 1480.82 2077.11 1480.82 Q2080.75 1480.82 2082.55 1477.28 Q2084.38 1473.71 2084.38 1466.61 Q2084.38 1459.48 2082.55 1455.94 Q2080.75 1452.37 2077.11 1452.37 M2077.11 1448.67 Q2082.92 1448.67 2085.98 1453.27 Q2089.06 1457.86 2089.06 1466.61 Q2089.06 1475.33 2085.98 1479.94 Q2082.92 1484.52 2077.11 1484.52 Q2071.3 1484.52 2068.22 1479.94 Q2065.17 1475.33 2065.17 1466.61 Q2065.17 1457.86 2068.22 1453.27 Q2071.3 1448.67 2077.11 1448.67 Z" fill="#000000" fill-rule="evenodd" fill-opacity="1" /><path clip-path="url(#clip410)" d="M 0 0 M2330.49 1465.22 Q2333.84 1465.94 2335.72 1468.2 Q2337.62 1470.47 2337.62 1473.81 Q2337.62 1478.92 2334.1 1481.72 Q2330.58 1484.52 2324.1 1484.52 Q2321.92 1484.52 2319.61 1484.08 Q2317.32 1483.67 2314.86 1482.81 L2314.86 1478.3 Q2316.81 1479.43 2319.12 1480.01 Q2321.44 1480.59 2323.96 1480.59 Q2328.36 1480.59 2330.65 1478.85 Q2332.96 1477.12 2332.96 1473.81 Q2332.96 1470.75 2330.81 1469.04 Q2328.68 1467.3 2324.86 1467.3 L2320.83 1467.3 L2320.83 1463.46 L2325.05 1463.46 Q2328.5 1463.46 2330.33 1462.09 Q2332.15 1460.7 2332.15 1458.11 Q2332.15 1455.45 2330.26 1454.04 Q2328.38 1452.6 2324.86 1452.6 Q2322.94 1452.6 2320.74 1453.02 Q2318.54 1453.44 2315.9 1454.31 L2315.9 1450.15 Q2318.57 1449.41 2320.88 1449.04 Q2323.22 1448.67 2325.28 1448.67 Q2330.6 1448.67 2333.71 1451.1 Q2336.81 1453.5 2336.81 1457.63 Q2336.81 1460.5 2335.16 1462.49 Q2333.52 1464.45 2330.49 1465.22 Z" fill="#000000" fill-rule="evenodd" fill-opacity="1" /><path clip-path="url(#clip410)" d="M 0 0 M2342.73 1449.29 L2361.09 1449.29 L2361.09 1453.23 L2347.02 1453.23 L2347.02 1461.7 Q2348.03 1461.35 2349.05 1461.19 Q2350.07 1461 2351.09 1461 Q2356.88 1461 2360.26 1464.18 Q2363.64 1467.35 2363.64 1472.76 Q2363.64 1478.34 2360.16 1481.44 Q2356.69 1484.52 2350.37 1484.52 Q2348.2 1484.52 2345.93 1484.15 Q2343.68 1483.78 2341.27 1483.04 L2341.27 1478.34 Q2343.36 1479.48 2345.58 1480.03 Q2347.8 1480.59 2350.28 1480.59 Q2354.28 1480.59 2356.62 1478.48 Q2358.96 1476.38 2358.96 1472.76 Q2358.96 1469.15 2356.62 1467.05 Q2354.28 1464.94 2350.28 1464.94 Q2348.4 1464.94 2346.53 1465.36 Q2344.68 1465.77 2342.73 1466.65 L2342.73 1449.29 Z" fill="#000000" fill-rule="evenodd" fill-opacity="1" /><path clip-path="url(#clip410)" d="M 0 0 M2378.7 1452.37 Q2375.09 1452.37 2373.27 1455.94 Q2371.46 1459.48 2371.46 1466.61 Q2371.46 1473.71 2373.27 1477.28 Q2375.09 1480.82 2378.7 1480.82 Q2382.34 1480.82 2384.14 1477.28 Q2385.97 1473.71 2385.97 1466.61 Q2385.97 1459.48 2384.14 1455.94 Q2382.34 1452.37 2378.7 1452.37 M2378.7 1448.67 Q2384.51 1448.67 2387.57 1453.27 Q2390.65 1457.86 2390.65 1466.61 Q2390.65 1475.33 2387.57 1479.94 Q2384.51 1484.52 2378.7 1484.52 Q2372.89 1484.52 2369.82 1479.94 Q2366.76 1475.33 2366.76 1466.61 Q2366.76 1457.86 2369.82 1453.27 Q2372.89 1448.67 2378.7 1448.67 Z" fill="#000000" fill-rule="evenodd" fill-opacity="1" /><path clip-path="url(#clip410)" d="M 0 0 M1312.06 1520.4 L1299.17 1537.74 L1312.73 1556.04 L1305.82 1556.04 L1295.44 1542.04 L1285.07 1556.04 L1278.16 1556.04 L1292.01 1537.39 L1279.34 1520.4 L1286.24 1520.4 L1295.7 1533.1 L1305.15 1520.4 L1312.06 1520.4 Z" fill="#000000" fill-rule="evenodd" fill-opacity="1" /><polyline clip-path="url(#clip412)" style="stroke:#000000; stroke-width:2; stroke-opacity:0.1; fill:none" points="
  238.13,1384.24 2352.76,1384.24 
  "/>
<polyline clip-path="url(#clip412)" style="stroke:#000000; stroke-width:2; stroke-opacity:0.1; fill:none" points="
  238.13,1059.73 2352.76,1059.73 
  "/>
<polyline clip-path="url(#clip412)" style="stroke:#000000; stroke-width:2; stroke-opacity:0.1; fill:none" points="
  238.13,735.212 2352.76,735.212 
  "/>
<polyline clip-path="url(#clip412)" style="stroke:#000000; stroke-width:2; stroke-opacity:0.1; fill:none" points="
  238.13,410.699 2352.76,410.699 
  "/>
<polyline clip-path="url(#clip412)" style="stroke:#000000; stroke-width:2; stroke-opacity:0.1; fill:none" points="
  238.13,86.1857 2352.76,86.1857 
  "/>
<polyline clip-path="url(#clip410)" style="stroke:#000000; stroke-width:4; stroke-opacity:1; fill:none" points="
  238.13,1423.18 238.13,47.2441 
  "/>
<polyline clip-path="url(#clip410)" style="stroke:#000000; stroke-width:4; stroke-opacity:1; fill:none" points="
  238.13,1384.24 263.506,1384.24 
  "/>
<polyline clip-path="url(#clip410)" style="stroke:#000000; stroke-width:4; stroke-opacity:1; fill:none" points="
  238.13,1059.73 263.506,1059.73 
  "/>
<polyline clip-path="url(#clip410)" style="stroke:#000000; stroke-width:4; stroke-opacity:1; fill:none" points="
  238.13,735.212 263.506,735.212 
  "/>
<polyline clip-path="url(#clip410)" style="stroke:#000000; stroke-width:4; stroke-opacity:1; fill:none" points="
  238.13,410.699 263.506,410.699 
  "/>
<polyline clip-path="url(#clip410)" style="stroke:#000000; stroke-width:4; stroke-opacity:1; fill:none" points="
  238.13,86.1857 263.506,86.1857 
  "/>
<path clip-path="url(#clip410)" d="M 0 0 M126.205 1370.04 Q122.593 1370.04 120.765 1373.6 Q118.959 1377.14 118.959 1384.27 Q118.959 1391.38 120.765 1394.94 Q122.593 1398.49 126.205 1398.49 Q129.839 1398.49 131.644 1394.94 Q133.473 1391.38 133.473 1384.27 Q133.473 1377.14 131.644 1373.6 Q129.839 1370.04 126.205 1370.04 M126.205 1366.33 Q132.015 1366.33 135.07 1370.94 Q138.149 1375.52 138.149 1384.27 Q138.149 1393 135.07 1397.61 Q132.015 1402.19 126.205 1402.19 Q120.394 1402.19 117.316 1397.61 Q114.26 1393 114.26 1384.27 Q114.26 1375.52 117.316 1370.94 Q120.394 1366.33 126.205 1366.33 Z" fill="#000000" fill-rule="evenodd" fill-opacity="1" /><path clip-path="url(#clip410)" d="M 0 0 M143.218 1395.64 L148.103 1395.64 L148.103 1401.52 L143.218 1401.52 L143.218 1395.64 Z" fill="#000000" fill-rule="evenodd" fill-opacity="1" /><path clip-path="url(#clip410)" d="M 0 0 M163.172 1370.04 Q159.561 1370.04 157.732 1373.6 Q155.927 1377.14 155.927 1384.27 Q155.927 1391.38 157.732 1394.94 Q159.561 1398.49 163.172 1398.49 Q166.806 1398.49 168.612 1394.94 Q170.44 1391.38 170.44 1384.27 Q170.44 1377.14 168.612 1373.6 Q166.806 1370.04 163.172 1370.04 M163.172 1366.33 Q168.982 1366.33 172.038 1370.94 Q175.116 1375.52 175.116 1384.27 Q175.116 1393 172.038 1397.61 Q168.982 1402.19 163.172 1402.19 Q157.362 1402.19 154.283 1397.61 Q151.228 1393 151.228 1384.27 Q151.228 1375.52 154.283 1370.94 Q157.362 1366.33 163.172 1366.33 Z" fill="#000000" fill-rule="evenodd" fill-opacity="1" /><path clip-path="url(#clip410)" d="M 0 0 M190.186 1370.04 Q186.575 1370.04 184.746 1373.6 Q182.94 1377.14 182.94 1384.27 Q182.94 1391.38 184.746 1394.94 Q186.575 1398.49 190.186 1398.49 Q193.82 1398.49 195.625 1394.94 Q197.454 1391.38 197.454 1384.27 Q197.454 1377.14 195.625 1373.6 Q193.82 1370.04 190.186 1370.04 M190.186 1366.33 Q195.996 1366.33 199.051 1370.94 Q202.13 1375.52 202.13 1384.27 Q202.13 1393 199.051 1397.61 Q195.996 1402.19 190.186 1402.19 Q184.376 1402.19 181.297 1397.61 Q178.241 1393 178.241 1384.27 Q178.241 1375.52 181.297 1370.94 Q184.376 1366.33 190.186 1366.33 Z" fill="#000000" fill-rule="evenodd" fill-opacity="1" /><path clip-path="url(#clip410)" d="M 0 0 M128.797 1045.52 Q125.186 1045.52 123.357 1049.09 Q121.552 1052.63 121.552 1059.76 Q121.552 1066.87 123.357 1070.43 Q125.186 1073.97 128.797 1073.97 Q132.431 1073.97 134.237 1070.43 Q136.066 1066.87 136.066 1059.76 Q136.066 1052.63 134.237 1049.09 Q132.431 1045.52 128.797 1045.52 M128.797 1041.82 Q134.607 1041.82 137.663 1046.43 Q140.741 1051.01 140.741 1059.76 Q140.741 1068.49 137.663 1073.09 Q134.607 1077.68 128.797 1077.68 Q122.987 1077.68 119.908 1073.09 Q116.853 1068.49 116.853 1059.76 Q116.853 1051.01 119.908 1046.43 Q122.987 1041.82 128.797 1041.82 Z" fill="#000000" fill-rule="evenodd" fill-opacity="1" /><path clip-path="url(#clip410)" d="M 0 0 M145.811 1071.13 L150.695 1071.13 L150.695 1077.01 L145.811 1077.01 L145.811 1071.13 Z" fill="#000000" fill-rule="evenodd" fill-opacity="1" /><path clip-path="url(#clip410)" d="M 0 0 M159.792 1073.07 L176.112 1073.07 L176.112 1077.01 L154.167 1077.01 L154.167 1073.07 Q156.829 1070.32 161.413 1065.69 Q166.019 1061.03 167.2 1059.69 Q169.445 1057.17 170.325 1055.43 Q171.227 1053.67 171.227 1051.98 Q171.227 1049.23 169.283 1047.49 Q167.362 1045.76 164.26 1045.76 Q162.061 1045.76 159.607 1046.52 Q157.177 1047.28 154.399 1048.83 L154.399 1044.11 Q157.223 1042.98 159.677 1042.4 Q162.13 1041.82 164.167 1041.82 Q169.538 1041.82 172.732 1044.51 Q175.926 1047.19 175.926 1051.68 Q175.926 1053.81 175.116 1055.73 Q174.329 1057.63 172.223 1060.22 Q171.644 1060.89 168.542 1064.11 Q165.44 1067.31 159.792 1073.07 Z" fill="#000000" fill-rule="evenodd" fill-opacity="1" /><path clip-path="url(#clip410)" d="M 0 0 M181.227 1042.45 L199.584 1042.45 L199.584 1046.38 L185.51 1046.38 L185.51 1054.85 Q186.528 1054.51 187.547 1054.34 Q188.565 1054.16 189.584 1054.16 Q195.371 1054.16 198.75 1057.33 Q202.13 1060.5 202.13 1065.92 Q202.13 1071.5 198.658 1074.6 Q195.186 1077.68 188.866 1077.68 Q186.69 1077.68 184.422 1077.31 Q182.176 1076.94 179.769 1076.19 L179.769 1071.5 Q181.852 1072.63 184.075 1073.19 Q186.297 1073.74 188.774 1073.74 Q192.778 1073.74 195.116 1071.63 Q197.454 1069.53 197.454 1065.92 Q197.454 1062.31 195.116 1060.2 Q192.778 1058.09 188.774 1058.09 Q186.899 1058.09 185.024 1058.51 Q183.172 1058.93 181.227 1059.81 L181.227 1042.45 Z" fill="#000000" fill-rule="evenodd" fill-opacity="1" /><path clip-path="url(#clip410)" d="M 0 0 M127.2 721.011 Q123.589 721.011 121.76 724.575 Q119.955 728.117 119.955 735.247 Q119.955 742.353 121.76 745.918 Q123.589 749.46 127.2 749.46 Q130.834 749.46 132.64 745.918 Q134.468 742.353 134.468 735.247 Q134.468 728.117 132.64 724.575 Q130.834 721.011 127.2 721.011 M127.2 717.307 Q133.01 717.307 136.066 721.913 Q139.144 726.497 139.144 735.247 Q139.144 743.973 136.066 748.58 Q133.01 753.163 127.2 753.163 Q121.39 753.163 118.311 748.58 Q115.256 743.973 115.256 735.247 Q115.256 726.497 118.311 721.913 Q121.39 717.307 127.2 717.307 Z" fill="#000000" fill-rule="evenodd" fill-opacity="1" /><path clip-path="url(#clip410)" d="M 0 0 M144.214 746.612 L149.098 746.612 L149.098 752.492 L144.214 752.492 L144.214 746.612 Z" fill="#000000" fill-rule="evenodd" fill-opacity="1" /><path clip-path="url(#clip410)" d="M 0 0 M154.214 717.932 L172.57 717.932 L172.57 721.867 L158.496 721.867 L158.496 730.339 Q159.515 729.992 160.533 729.83 Q161.552 729.645 162.57 729.645 Q168.357 729.645 171.737 732.816 Q175.116 735.987 175.116 741.404 Q175.116 746.983 171.644 750.085 Q168.172 753.163 161.852 753.163 Q159.677 753.163 157.408 752.793 Q155.163 752.423 152.755 751.682 L152.755 746.983 Q154.839 748.117 157.061 748.673 Q159.283 749.228 161.76 749.228 Q165.765 749.228 168.102 747.122 Q170.44 745.015 170.44 741.404 Q170.44 737.793 168.102 735.687 Q165.765 733.58 161.76 733.58 Q159.885 733.58 158.01 733.997 Q156.158 734.413 154.214 735.293 L154.214 717.932 Z" fill="#000000" fill-rule="evenodd" fill-opacity="1" /><path clip-path="url(#clip410)" d="M 0 0 M190.186 721.011 Q186.575 721.011 184.746 724.575 Q182.94 728.117 182.94 735.247 Q182.94 742.353 184.746 745.918 Q186.575 749.46 190.186 749.46 Q193.82 749.46 195.625 745.918 Q197.454 742.353 197.454 735.247 Q197.454 728.117 195.625 724.575 Q193.82 721.011 190.186 721.011 M190.186 717.307 Q195.996 717.307 199.051 721.913 Q202.13 726.497 202.13 735.247 Q202.13 743.973 199.051 748.58 Q195.996 753.163 190.186 753.163 Q184.376 753.163 181.297 748.58 Q178.241 743.973 178.241 735.247 Q178.241 726.497 181.297 721.913 Q184.376 717.307 190.186 717.307 Z" fill="#000000" fill-rule="evenodd" fill-opacity="1" /><path clip-path="url(#clip410)" d="M 0 0 M128.103 396.498 Q124.492 396.498 122.663 400.062 Q120.857 403.604 120.857 410.734 Q120.857 417.84 122.663 421.405 Q124.492 424.946 128.103 424.946 Q131.737 424.946 133.542 421.405 Q135.371 417.84 135.371 410.734 Q135.371 403.604 133.542 400.062 Q131.737 396.498 128.103 396.498 M128.103 392.794 Q133.913 392.794 136.968 397.4 Q140.047 401.984 140.047 410.734 Q140.047 419.46 136.968 424.067 Q133.913 428.65 128.103 428.65 Q122.293 428.65 119.214 424.067 Q116.158 419.46 116.158 410.734 Q116.158 401.984 119.214 397.4 Q122.293 392.794 128.103 392.794 Z" fill="#000000" fill-rule="evenodd" fill-opacity="1" /><path clip-path="url(#clip410)" d="M 0 0 M145.116 422.099 L150.001 422.099 L150.001 427.979 L145.116 427.979 L145.116 422.099 Z" fill="#000000" fill-rule="evenodd" fill-opacity="1" /><path clip-path="url(#clip410)" d="M 0 0 M153.89 393.419 L176.112 393.419 L176.112 395.41 L163.565 427.979 L158.681 427.979 L170.487 397.354 L153.89 397.354 L153.89 393.419 Z" fill="#000000" fill-rule="evenodd" fill-opacity="1" /><path clip-path="url(#clip410)" d="M 0 0 M181.227 393.419 L199.584 393.419 L199.584 397.354 L185.51 397.354 L185.51 405.826 Q186.528 405.479 187.547 405.317 Q188.565 405.132 189.584 405.132 Q195.371 405.132 198.75 408.303 Q202.13 411.474 202.13 416.891 Q202.13 422.47 198.658 425.571 Q195.186 428.65 188.866 428.65 Q186.69 428.65 184.422 428.28 Q182.176 427.909 179.769 427.169 L179.769 422.47 Q181.852 423.604 184.075 424.159 Q186.297 424.715 188.774 424.715 Q192.778 424.715 195.116 422.608 Q197.454 420.502 197.454 416.891 Q197.454 413.28 195.116 411.173 Q192.778 409.067 188.774 409.067 Q186.899 409.067 185.024 409.484 Q183.172 409.9 181.227 410.78 L181.227 393.419 Z" fill="#000000" fill-rule="evenodd" fill-opacity="1" /><path clip-path="url(#clip410)" d="M 0 0 M118.242 99.5305 L125.88 99.5305 L125.88 73.1649 L117.57 74.8316 L117.57 70.5723 L125.834 68.9057 L130.51 68.9057 L130.51 99.5305 L138.149 99.5305 L138.149 103.466 L118.242 103.466 L118.242 99.5305 Z" fill="#000000" fill-rule="evenodd" fill-opacity="1" /><path clip-path="url(#clip410)" d="M 0 0 M143.218 97.5861 L148.103 97.5861 L148.103 103.466 L143.218 103.466 L143.218 97.5861 Z" fill="#000000" fill-rule="evenodd" fill-opacity="1" /><path clip-path="url(#clip410)" d="M 0 0 M163.172 71.9844 Q159.561 71.9844 157.732 75.5492 Q155.927 79.0908 155.927 86.2204 Q155.927 93.3268 157.732 96.8916 Q159.561 100.433 163.172 100.433 Q166.806 100.433 168.612 96.8916 Q170.44 93.3268 170.44 86.2204 Q170.44 79.0908 168.612 75.5492 Q166.806 71.9844 163.172 71.9844 M163.172 68.2807 Q168.982 68.2807 172.038 72.8871 Q175.116 77.4704 175.116 86.2204 Q175.116 94.9472 172.038 99.5537 Q168.982 104.137 163.172 104.137 Q157.362 104.137 154.283 99.5537 Q151.228 94.9472 151.228 86.2204 Q151.228 77.4704 154.283 72.8871 Q157.362 68.2807 163.172 68.2807 Z" fill="#000000" fill-rule="evenodd" fill-opacity="1" /><path clip-path="url(#clip410)" d="M 0 0 M190.186 71.9844 Q186.575 71.9844 184.746 75.5492 Q182.94 79.0908 182.94 86.2204 Q182.94 93.3268 184.746 96.8916 Q186.575 100.433 190.186 100.433 Q193.82 100.433 195.625 96.8916 Q197.454 93.3268 197.454 86.2204 Q197.454 79.0908 195.625 75.5492 Q193.82 71.9844 190.186 71.9844 M190.186 68.2807 Q195.996 68.2807 199.051 72.8871 Q202.13 77.4704 202.13 86.2204 Q202.13 94.9472 199.051 99.5537 Q195.996 104.137 190.186 104.137 Q184.376 104.137 181.297 99.5537 Q178.241 94.9472 178.241 86.2204 Q178.241 77.4704 181.297 72.8871 Q184.376 68.2807 190.186 68.2807 Z" fill="#000000" fill-rule="evenodd" fill-opacity="1" /><path clip-path="url(#clip410)" d="M 0 0 M70.212 745.095 Q76.6732 745.095 80.3653 742.453 Q84.0256 739.779 84.0256 735.132 Q84.0256 730.485 80.3653 727.812 Q76.6732 725.138 70.212 725.138 Q63.7508 725.138 60.0905 727.812 Q56.3984 730.485 56.3984 735.132 Q56.3984 739.779 60.0905 742.453 Q63.7508 745.095 70.212 745.095 M82.657 725.138 Q85.8398 726.984 87.3994 729.817 Q88.9272 732.618 88.9272 736.565 Q88.9272 743.026 83.771 747.1 Q78.6147 751.142 70.212 751.142 Q61.8093 751.142 56.6531 747.1 Q51.4968 743.026 51.4968 736.565 Q51.4968 732.618 53.0564 729.817 Q54.5842 726.984 57.7671 725.138 L52.3562 725.138 L52.3562 719.282 L101.563 719.282 L101.563 725.138 L82.657 725.138 Z" fill="#000000" fill-rule="evenodd" fill-opacity="1" /><polyline clip-path="url(#clip412)" style="stroke:#009af9; stroke-width:4; stroke-opacity:1; fill:none" points="
  238.13,1384.24 240.983,1384.24 246.39,1384.24 251.798,1384.24 254.651,1384.24 257.503,1384.24 262.911,1384.24 268.318,1384.24 271.171,1384.24 
  274.024,1384.24 279.431,1384.24 284.839,1384.24 287.692,1384.24 290.544,1384.24 295.952,1384.24 301.359,1384.24 304.212,1384.24 
  307.065,1384.24 312.472,1384.24 317.88,1384.24 320.733,1384.24 323.585,1384.24 328.993,1384.24 334.4,1384.24 337.253,1384.24 
  340.106,1384.24 345.513,1384.24 350.921,1384.24 353.774,1384.24 356.626,1384.24 362.034,1384.24 367.442,1384.24 370.294,1384.24 
  373.147,1384.24 378.554,1384.24 383.962,1384.24 386.815,1384.24 389.667,1384.24 395.075,1384.24 400.483,1384.24 403.335,1384.24 
  406.188,1384.24 411.595,1384.24 417.003,1384.24 419.856,1384.24 422.708,1384.24 428.116,1384.24 433.524,1384.24 436.376,1384.24 
  439.229,1384.24 444.636,1384.24 450.044,1384.24 452.897,1384.24 455.749,1384.24 461.157,1384.24 466.565,1384.24 469.417,1384.24 
  472.27,1384.24 477.678,1384.24 483.085,1384.24 485.938,1384.24 488.79,1384.24 494.198,1384.24 499.606,1384.24 502.458,1384.24 
  505.311,1384.24 510.719,1384.24 516.126,1384.24 518.979,1384.24 521.831,1384.24 527.239,1384.24 532.647,1384.24 535.499,1384.24 
  538.352,1384.24 543.76,1384.24 549.167,1384.24 552.02,1384.24 554.872,1384.24 560.28,1384.24 565.688,1384.24 568.54,1384.24 
  571.393,1384.24 576.801,1384.24 582.208,1384.24 585.061,1384.24 587.914,1384.24 593.321,1384.24 598.729,1384.24 601.581,1384.24 
  604.434,1384.24 609.842,1384.24 615.249,1384.24 618.102,1384.24 620.955,1384.24 626.362,1384.24 631.77,1384.24 634.622,1384.24 
  637.475,1384.24 642.883,1384.24 648.29,1384.24 651.143,1384.24 653.996,1384.24 659.403,1384.24 664.811,1384.24 667.663,1384.24 
  670.516,1384.24 675.924,1384.24 681.331,1384.24 684.184,1384.24 687.037,1384.24 692.444,86.1857 697.852,86.1857 700.704,86.1857 
  703.557,86.1857 708.965,86.1857 714.372,86.1857 717.225,86.1857 720.078,86.1857 725.485,86.1857 730.893,86.1857 733.745,86.1857 
  736.598,86.1857 742.006,86.1857 747.413,86.1857 750.266,86.1857 753.119,86.1857 758.526,86.1857 763.934,86.1857 766.787,86.1857 
  769.639,86.1857 775.047,86.1857 780.454,86.1857 783.307,86.1857 786.16,86.1857 791.567,86.1857 796.975,86.1857 799.828,86.1857 
  802.68,86.1857 808.088,86.1857 813.495,86.1857 816.348,86.1857 819.201,86.1857 824.608,86.1857 830.016,86.1857 832.869,86.1857 
  835.721,86.1857 841.129,86.1857 846.536,86.1857 849.389,86.1857 852.242,86.1857 857.649,86.1857 863.057,86.1857 865.91,86.1857 
  868.762,86.1857 874.17,86.1857 879.577,86.1857 882.43,86.1857 885.283,86.1857 890.69,86.1857 896.098,86.1857 898.951,86.1857 
  901.803,86.1857 907.211,86.1857 912.618,86.1857 915.471,86.1857 918.324,86.1857 923.731,86.1857 929.139,86.1857 931.992,86.1857 
  934.844,86.1857 940.252,86.1857 945.66,86.1857 948.512,86.1857 951.365,86.1857 956.772,86.1857 962.18,86.1857 965.033,86.1857 
  967.885,86.1857 973.293,86.1857 978.701,86.1857 981.553,86.1857 984.406,86.1857 989.813,86.1857 995.221,1384.24 998.074,1384.24 
  1000.93,1384.24 1006.33,1384.24 1011.74,1384.24 1014.59,1384.24 1017.45,1384.24 1022.85,1384.24 1028.26,1384.24 1031.11,1384.24 
  1033.97,1384.24 1039.38,1384.24 1044.78,1384.24 1047.64,1384.24 1050.49,1384.24 1055.9,1384.24 1061.3,1384.24 1064.16,1384.24 
  1067.01,1384.24 1072.42,1384.24 1077.82,1384.24 1080.68,1384.24 1083.53,1384.24 1088.94,1384.24 1094.34,1384.24 1097.2,1384.24 
  1100.05,1384.24 1105.46,1384.24 1110.86,1384.24 1113.72,1384.24 1116.57,1384.24 1121.98,1384.24 1127.39,1384.24 1130.24,1384.24 
  1133.09,1384.24 1138.5,1384.24 1143.91,1384.24 1146.76,1384.24 1149.61,1384.24 1155.02,1384.24 1160.43,1384.24 1163.28,1384.24 
  1166.13,1384.24 1171.54,1384.24 1176.95,1384.24 1179.8,1384.24 1182.65,1384.24 1188.06,1384.24 1193.47,1384.24 1196.32,1384.24 
  1199.17,1384.24 1204.58,1384.24 1209.99,1384.24 1212.84,1384.24 1215.69,1384.24 1221.1,1384.24 1226.51,1384.24 1229.36,1384.24 
  1232.21,1384.24 1237.62,1384.24 1243.03,1384.24 1245.88,1384.24 1248.73,1384.24 1254.14,1384.24 1259.55,1384.24 1262.4,1384.24 
  1265.25,1384.24 1270.66,1384.24 1276.07,1384.24 1278.92,1384.24 1281.78,1384.24 1287.18,1384.24 1292.59,1384.24 1295.44,1384.24 
  1298.3,1384.24 1303.7,1384.24 1309.11,1384.24 1311.96,1384.24 1314.82,1384.24 1320.22,1384.24 1325.63,1384.24 1328.48,1384.24 
  1331.34,1384.24 1336.74,1384.24 1342.15,1384.24 1345,1384.24 1347.86,1384.24 1353.26,1384.24 1358.67,1384.24 1361.53,1384.24 
  1364.38,1384.24 1369.79,1384.24 1375.19,1384.24 1378.05,1384.24 1380.9,1384.24 1386.31,1384.24 1391.71,1384.24 1394.57,1384.24 
  1397.42,1384.24 1402.83,1384.24 1408.23,1384.24 1411.09,1384.24 1413.94,1384.24 1419.35,1384.24 1424.75,1384.24 1427.61,1384.24 
  1430.46,1384.24 1435.87,1384.24 1441.27,1384.24 1444.13,1384.24 1446.98,1384.24 1452.39,1384.24 1457.8,1384.24 1460.65,1384.24 
  1463.5,1384.24 1468.91,1384.24 1474.32,1384.24 1477.17,1384.24 1480.02,1384.24 1485.43,1384.24 1490.84,1384.24 1493.69,1384.24 
  1496.54,1384.24 1501.95,1384.24 1507.36,1384.24 1510.21,1384.24 1513.06,1384.24 1518.47,1384.24 1523.88,1384.24 1526.73,1384.24 
  1529.58,1384.24 1534.99,1384.24 1540.4,1384.24 1543.25,1384.24 1546.1,1384.24 1551.51,1384.24 1556.92,1384.24 1559.77,1384.24 
  1562.62,1384.24 1568.03,1384.24 1573.44,1384.24 1576.29,1384.24 1579.14,1384.24 1584.55,1384.24 1589.96,1384.24 1592.81,1384.24 
  1595.66,1384.24 1601.07,1384.24 1606.48,1384.24 1609.33,1384.24 1612.19,1384.24 1617.59,1384.24 1623,1384.24 1625.85,1384.24 
  1628.71,1384.24 1634.11,1384.24 1639.52,1384.24 1642.37,1384.24 1645.23,1384.24 1650.63,1384.24 1656.04,1384.24 1658.89,1384.24 
  1661.75,1384.24 1667.15,1384.24 1672.56,1384.24 1675.41,1384.24 1678.27,1384.24 1683.68,1384.24 1689.08,1384.24 1691.94,1384.24 
  1694.79,1384.24 1700.2,1384.24 1705.6,1384.24 1708.46,1384.24 1711.31,1384.24 1716.72,1384.24 1722.12,1384.24 1724.98,1384.24 
  1727.83,1384.24 1733.24,1384.24 1738.64,1384.24 1741.5,1384.24 1744.35,1384.24 1749.76,1384.24 1755.16,1384.24 1758.02,1384.24 
  1760.87,1384.24 1766.28,1384.24 1771.69,1384.24 1774.54,1384.24 1777.39,1384.24 1782.8,1384.24 1788.21,1384.24 1791.06,1384.24 
  1793.91,1384.24 1799.32,1384.24 1804.73,1384.24 1807.58,1384.24 1810.43,1384.24 1815.84,1384.24 1821.25,1384.24 1824.1,1384.24 
  1826.95,1384.24 1832.36,1384.24 1837.77,1384.24 1840.62,1384.24 1843.47,1384.24 1848.88,1384.24 1854.29,1384.24 1857.14,1384.24 
  1859.99,1384.24 1865.4,1384.24 1870.81,1384.24 1873.66,1384.24 1876.51,1384.24 1881.92,1384.24 1887.33,1384.24 1890.18,1384.24 
  1893.03,1384.24 1898.44,1384.24 1903.85,1384.24 1906.7,1384.24 1909.55,1384.24 1914.96,1384.24 1920.37,1384.24 1923.22,1384.24 
  1926.08,1384.24 1931.48,1384.24 1936.89,1384.24 1939.74,1384.24 1942.6,1384.24 1948,1384.24 1953.41,1384.24 1956.26,1384.24 
  1959.12,1384.24 1964.52,1384.24 1969.93,1384.24 1972.78,1384.24 1975.64,1384.24 1981.04,1384.24 1986.45,1384.24 1989.3,1384.24 
  1992.16,1384.24 1997.56,1384.24 2002.97,1384.24 2005.83,1384.24 2008.68,1384.24 2014.09,1384.24 2019.49,1384.24 2022.35,1384.24 
  2025.2,1384.24 2030.61,1384.24 2036.01,1384.24 2038.87,1384.24 2041.72,1384.24 2047.13,1384.24 2052.53,1384.24 2055.39,1384.24 
  2058.24,1384.24 2063.65,1384.24 2069.05,1384.24 2071.91,1384.24 2074.76,1384.24 2080.17,1384.24 2085.58,1384.24 2088.43,1384.24 
  2091.28,1384.24 2096.69,1384.24 2102.1,1384.24 2104.95,1384.24 2107.8,1384.24 2113.21,1384.24 2118.62,1384.24 2121.47,1384.24 
  2124.32,1384.24 2129.73,1384.24 2135.14,1384.24 2137.99,1384.24 2140.84,1384.24 2146.25,1384.24 2151.66,1384.24 2154.51,1384.24 
  2157.36,1384.24 2162.77,1384.24 2168.18,1384.24 2171.03,1384.24 2173.88,1384.24 2179.29,1384.24 2184.7,1384.24 2187.55,1384.24 
  2190.4,1384.24 2195.81,1384.24 2201.22,1384.24 2204.07,1384.24 2206.92,1384.24 2212.33,1384.24 2217.74,1384.24 2220.59,1384.24 
  2223.44,1384.24 2228.85,1384.24 2234.26,1384.24 2237.11,1384.24 2239.96,1384.24 2245.37,1384.24 2250.78,1384.24 2253.63,1384.24 
  2256.49,1384.24 2261.89,1384.24 2267.3,1384.24 2270.15,1384.24 2273.01,1384.24 2278.41,1384.24 2283.82,1384.24 2286.67,1384.24 
  2289.53,1384.24 2294.93,1384.24 2300.34,1384.24 2303.19,1384.24 2306.05,1384.24 2311.45,1384.24 2316.86,1384.24 2319.71,1384.24 
  2322.57,1384.24 2327.98,1384.24 2333.38,1384.24 2336.24,1384.24 2339.09,1384.24 2344.5,1384.24 2349.9,1384.24 2352.76,1384.24 
  
  "/>
<polyline clip-path="url(#clip412)" style="stroke:#e26f46; stroke-width:4; stroke-opacity:1; fill:none" points="
  238.13,1384.06 240.983,1384.06 246.39,1384.06 251.798,1384.06 254.651,1384.06 254.651,1384.11 257.503,1384.11 262.911,1384.11 268.318,1384.11 271.171,1384.11 
  271.171,1384.14 274.024,1384.14 279.431,1384.14 284.839,1384.14 287.692,1384.14 287.692,1384.17 290.544,1384.17 295.952,1384.17 301.359,1384.17 304.212,1384.17 
  304.212,1384.19 307.065,1384.19 312.472,1384.19 317.88,1384.19 320.733,1384.19 320.733,1384.2 323.585,1384.2 328.993,1384.2 334.4,1384.2 337.253,1384.2 
  337.253,1384.21 340.106,1384.21 345.513,1384.21 350.921,1384.21 353.774,1384.21 353.774,1384.22 356.626,1384.22 362.034,1384.22 367.442,1384.22 370.294,1384.22 
  370.294,1384.22 373.147,1384.22 378.554,1384.22 383.962,1384.22 386.815,1384.22 386.815,1384.22 389.667,1384.22 395.075,1384.22 400.483,1384.22 403.335,1384.22 
  403.335,1384.22 406.188,1384.22 411.595,1384.22 417.003,1384.22 419.856,1384.22 419.856,1384.22 422.708,1384.22 428.116,1384.22 433.524,1384.22 436.376,1384.22 
  436.376,1384.22 439.229,1384.22 444.636,1384.22 450.044,1384.22 452.897,1384.22 452.897,1384.21 455.749,1384.21 461.157,1384.21 466.565,1384.21 469.417,1384.21 
  469.417,1384.2 472.27,1384.2 477.678,1384.2 483.085,1384.2 485.938,1384.2 485.938,1384.19 488.79,1384.19 494.198,1384.19 499.606,1384.19 502.458,1384.19 
  502.458,1384.17 505.311,1384.17 510.719,1384.17 516.126,1384.17 518.979,1384.17 518.979,1384.14 521.831,1384.14 527.239,1384.14 532.647,1384.14 535.499,1384.14 
  535.499,1384.1 538.352,1384.1 543.76,1384.1 549.167,1384.1 552.02,1384.1 552.02,1384.05 554.872,1384.05 560.28,1384.05 565.688,1384.05 568.54,1384.05 
  568.54,1383.98 571.393,1383.98 576.801,1383.98 582.208,1383.98 585.061,1383.98 585.061,1383.88 587.914,1383.88 593.321,1383.88 598.729,1383.88 601.581,1383.88 
  601.581,1383.76 604.434,1383.76 609.842,1383.76 615.249,1383.76 618.102,1383.76 618.102,1383.59 620.955,1383.59 626.362,1383.59 631.77,1383.59 634.622,1383.59 
  634.622,1383.38 637.475,1383.38 642.883,1383.38 648.29,1383.38 651.143,1383.38 651.143,1383.1 653.996,1383.1 659.403,1383.1 664.811,1383.1 667.663,1383.1 
  667.663,1382.73 670.516,1382.73 675.924,1382.73 681.331,1382.73 684.184,1382.73 684.184,1382.27 687.037,1382.27 692.444,1382.27 697.852,1382.27 700.704,1382.27 
  700.704,1381.67 703.557,1381.67 708.965,1381.67 714.372,1381.67 717.225,1381.67 717.225,1380.92 720.078,1380.92 725.485,1380.92 730.893,1380.92 733.745,1380.92 
  733.745,1379.98 736.598,1379.98 742.006,1379.98 747.413,1379.98 750.266,1379.98 750.266,1378.8 753.119,1378.8 758.526,1378.8 763.934,1378.8 766.787,1378.8 
  766.787,1377.34 769.639,1377.34 775.047,1377.34 780.454,1377.34 783.307,1377.34 783.307,1375.55 786.16,1375.55 791.567,1375.55 796.975,1375.55 799.828,1375.55 
  799.828,1373.35 802.68,1373.35 808.088,1373.35 813.495,1373.35 816.348,1373.35 816.348,1370.69 819.201,1370.69 824.608,1370.69 830.016,1370.69 832.869,1370.69 
  832.869,1367.48 835.721,1367.48 841.129,1367.48 846.536,1367.48 849.389,1367.48 849.389,1363.64 852.242,1363.64 857.649,1363.64 863.057,1363.64 865.91,1363.64 
  865.91,1359.08 868.762,1359.08 874.17,1359.08 879.577,1359.08 882.43,1359.08 882.43,1353.69 885.283,1353.69 890.69,1353.69 896.098,1353.69 898.951,1353.69 
  898.951,1347.38 901.803,1347.38 907.211,1347.38 912.618,1347.38 915.471,1347.38 915.471,1340.03 918.324,1340.03 923.731,1340.03 929.139,1340.03 931.992,1340.03 
  931.992,1331.55 934.844,1331.55 940.252,1331.55 945.66,1331.55 948.512,1331.55 948.512,1321.81 951.365,1321.81 956.772,1321.81 962.18,1321.81 965.033,1321.81 
  965.033,1310.72 967.885,1310.72 973.293,1310.72 978.701,1310.72 981.553,1310.72 981.553,1298.17 984.406,1298.17 989.813,1298.17 995.221,1298.17 998.074,1298.17 
  998.074,1284.08 1000.93,1284.08 1006.33,1284.08 1011.74,1284.08 1014.59,1284.08 1014.59,1268.37 1017.45,1268.37 1022.85,1268.37 1028.26,1268.37 1031.11,1268.37 
  1031.11,1250.99 1033.97,1250.99 1039.38,1250.99 1044.78,1250.99 1047.64,1250.99 1047.64,1231.9 1050.49,1231.9 1055.9,1231.9 1061.3,1231.9 1064.16,1231.9 
  1064.16,1211.09 1067.01,1211.09 1072.42,1211.09 1077.82,1211.09 1080.68,1211.09 1080.68,1188.57 1083.53,1188.57 1088.94,1188.57 1094.34,1188.57 1097.2,1188.57 
  1097.2,1164.4 1100.05,1164.4 1105.46,1164.4 1110.86,1164.4 1113.72,1164.4 1113.72,1138.66 1116.57,1138.66 1121.98,1138.66 1127.39,1138.66 1130.24,1138.66 
  1130.24,1111.47 1133.09,1111.47 1138.5,1111.47 1143.91,1111.47 1146.76,1111.47 1146.76,1083 1149.61,1083 1155.02,1083 1160.43,1083 1163.28,1083 
  1163.28,1053.43 1166.13,1053.43 1171.54,1053.43 1176.95,1053.43 1179.8,1053.43 1179.8,1023 1182.65,1023 1188.06,1023 1193.47,1023 1196.32,1023 
  1196.32,991.98 1199.17,991.98 1204.58,991.98 1209.99,991.98 1212.84,991.98 1212.84,960.671 1215.69,960.671 1221.1,960.671 1226.51,960.671 1229.36,960.671 
  1229.36,929.401 1232.21,929.401 1237.62,929.401 1243.03,929.401 1245.88,929.401 1245.88,898.521 1248.73,898.521 1254.14,898.521 1259.55,898.521 1262.4,898.521 
  1262.4,868.401 1265.25,868.401 1270.66,868.401 1276.07,868.401 1278.92,868.401 1278.92,839.416 1281.78,839.416 1287.18,839.416 1292.59,839.416 1295.44,839.416 
  1295.44,811.945 1298.3,811.945 1303.7,811.945 1309.11,811.945 1311.96,811.945 1311.96,786.363 1314.82,786.363 1320.22,786.363 1325.63,786.363 1328.48,786.363 
  1328.48,763.026 1331.34,763.026 1336.74,763.026 1342.15,763.026 1345,763.026 1345,742.271 1347.86,742.271 1353.26,742.271 1358.67,742.271 1361.53,742.271 
  1361.53,724.401 1364.38,724.401 1369.79,724.401 1375.19,724.401 1378.05,724.401 1378.05,709.683 1380.9,709.683 1386.31,709.683 1391.71,709.683 1394.57,709.683 
  1394.57,698.34 1397.42,698.34 1402.83,698.34 1408.23,698.34 1411.09,698.34 1411.09,690.543 1413.94,690.543 1419.35,690.543 1424.75,690.543 1427.61,690.543 
  1427.61,686.409 1430.46,686.409 1435.87,686.409 1441.27,686.409 1444.13,686.409 1444.13,685.999 1446.98,685.999 1452.39,685.999 1457.8,685.999 1460.65,685.999 
  1460.65,689.315 1463.5,689.315 1468.91,689.315 1474.32,689.315 1477.17,689.315 1477.17,696.299 1480.02,696.299 1485.43,696.299 1490.84,696.299 1493.69,696.299 
  1493.69,706.837 1496.54,706.837 1501.95,706.837 1507.36,706.837 1510.21,706.837 1510.21,720.762 1513.06,720.762 1518.47,720.762 1523.88,720.762 1526.73,720.762 
  1526.73,737.856 1529.58,737.856 1534.99,737.856 1540.4,737.856 1543.25,737.856 1543.25,757.857 1546.1,757.857 1551.51,757.857 1556.92,757.857 1559.77,757.857 
  1559.77,780.466 1562.62,780.466 1568.03,780.466 1573.44,780.466 1576.29,780.466 1576.29,805.353 1579.14,805.353 1584.55,805.353 1589.96,805.353 1592.81,805.353 
  1592.81,832.166 1595.66,832.166 1601.07,832.166 1606.48,832.166 1609.33,832.166 1609.33,860.54 1612.19,860.54 1617.59,860.54 1623,860.54 1625.85,860.54 
  1625.85,890.1 1628.71,890.1 1634.11,890.1 1639.52,890.1 1642.37,890.1 1642.37,920.478 1645.23,920.478 1650.63,920.478 1656.04,920.478 1658.89,920.478 
  1658.89,951.31 1661.75,951.31 1667.15,951.31 1672.56,951.31 1675.41,951.31 1675.41,982.251 1678.27,982.251 1683.68,982.251 1689.08,982.251 1691.94,982.251 
  1691.94,1012.98 1694.79,1012.98 1700.2,1012.98 1705.6,1012.98 1708.46,1012.98 1708.46,1043.19 1711.31,1043.19 1716.72,1043.19 1722.12,1043.19 1724.98,1043.19 
  1724.98,1072.62 1727.83,1072.62 1733.24,1072.62 1738.64,1072.62 1741.5,1072.62 1741.5,1101.04 1744.35,1101.04 1749.76,1101.04 1755.16,1101.04 1758.02,1101.04 
  1758.02,1128.26 1760.87,1128.26 1766.28,1128.26 1771.69,1128.26 1774.54,1128.26 1774.54,1154.1 1777.39,1154.1 1782.8,1154.1 1788.21,1154.1 1791.06,1154.1 
  1791.06,1178.45 1793.91,1178.45 1799.32,1178.45 1804.73,1178.45 1807.58,1178.45 1807.58,1201.22 1810.43,1201.22 1815.84,1201.22 1821.25,1201.22 1824.1,1201.22 
  1824.1,1222.35 1826.95,1222.35 1832.36,1222.35 1837.77,1222.35 1840.62,1222.35 1840.62,1241.81 1843.47,1241.81 1848.88,1241.81 1854.29,1241.81 1857.14,1241.81 
  1857.14,1259.62 1859.99,1259.62 1865.4,1259.62 1870.81,1259.62 1873.66,1259.62 1873.66,1275.79 1876.51,1275.79 1881.92,1275.79 1887.33,1275.79 1890.18,1275.79 
  1890.18,1290.37 1893.03,1290.37 1898.44,1290.37 1903.85,1290.37 1906.7,1290.37 1906.7,1303.44 1909.55,1303.44 1914.96,1303.44 1920.37,1303.44 1923.22,1303.44 
  1923.22,1315.07 1926.08,1315.07 1931.48,1315.07 1936.89,1315.07 1939.74,1315.07 1939.74,1325.35 1942.6,1325.35 1948,1325.35 1953.41,1325.35 1956.26,1325.35 
  1956.26,1334.37 1959.12,1334.37 1964.52,1334.37 1969.93,1334.37 1972.78,1334.37 1972.78,1342.24 1975.64,1342.24 1981.04,1342.24 1986.45,1342.24 1989.3,1342.24 
  1989.3,1349.07 1992.16,1349.07 1997.56,1349.07 2002.97,1349.07 2005.83,1349.07 2005.83,1354.94 2008.68,1354.94 2014.09,1354.94 2019.49,1354.94 2022.35,1354.94 
  2022.35,1359.97 2025.2,1359.97 2030.61,1359.97 2036.01,1359.97 2038.87,1359.97 2038.87,1364.25 2041.72,1364.25 2047.13,1364.25 2052.53,1364.25 2055.39,1364.25 
  2055.39,1367.86 2058.24,1367.86 2063.65,1367.86 2069.05,1367.86 2071.91,1367.86 2071.91,1370.9 2074.76,1370.9 2080.17,1370.9 2085.58,1370.9 2088.43,1370.9 
  2088.43,1373.43 2091.28,1373.43 2096.69,1373.43 2102.1,1373.43 2104.95,1373.43 2104.95,1375.53 2107.8,1375.53 2113.21,1375.53 2118.62,1375.53 2121.47,1375.53 
  2121.47,1377.26 2124.32,1377.26 2129.73,1377.26 2135.14,1377.26 2137.99,1377.26 2137.99,1378.67 2140.84,1378.67 2146.25,1378.67 2151.66,1378.67 2154.51,1378.67 
  2154.51,1379.83 2157.36,1379.83 2162.77,1379.83 2168.18,1379.83 2171.03,1379.83 2171.03,1380.76 2173.88,1380.76 2179.29,1380.76 2184.7,1380.76 2187.55,1380.76 
  2187.55,1381.51 2190.4,1381.51 2195.81,1381.51 2201.22,1381.51 2204.07,1381.51 2204.07,1382.12 2206.92,1382.12 2212.33,1382.12 2217.74,1382.12 2220.59,1382.12 
  2220.59,1382.59 2223.44,1382.59 2228.85,1382.59 2234.26,1382.59 2237.11,1382.59 2237.11,1382.97 2239.96,1382.97 2245.37,1382.97 2250.78,1382.97 2253.63,1382.97 
  2253.63,1383.27 2256.49,1383.27 2261.89,1383.27 2267.3,1383.27 2270.15,1383.27 2270.15,1383.5 2273.01,1383.5 2278.41,1383.5 2283.82,1383.5 2286.67,1383.5 
  2286.67,1383.68 2289.53,1383.68 2294.93,1383.68 2300.34,1383.68 2303.19,1383.68 2303.19,1383.81 2306.05,1383.81 2311.45,1383.81 2316.86,1383.81 2319.71,1383.81 
  2319.71,1383.92 2322.57,1383.92 2327.98,1383.92 2333.38,1383.92 2336.24,1383.92 2336.24,1384 2339.09,1384 2344.5,1384 2349.9,1384 2352.76,1384 
  
  "/>
<path clip-path="url(#clip410)" d="
M1786.57 274.549 L2282.27 274.549 L2282.27 93.1086 L1786.57 93.1086  Z
  " fill="#ffffff" fill-rule="evenodd" fill-opacity="1"/>
<polyline clip-path="url(#clip410)" style="stroke:#000000; stroke-width:4; stroke-opacity:1; fill:none" points="
  1786.57,274.549 2282.27,274.549 2282.27,93.1086 1786.57,93.1086 1786.57,274.549 
  "/>
<polyline clip-path="url(#clip410)" style="stroke:#009af9; stroke-width:4; stroke-opacity:1; fill:none" points="
  1810.07,153.589 1951.04,153.589 
  "/>
<path clip-path="url(#clip410)" d="M 0 0 M1981.94 137.582 L1981.94 144.943 L1990.72 144.943 L1990.72 148.253 L1981.94 148.253 L1981.94 162.327 Q1981.94 165.498 1982.8 166.401 Q1983.68 167.304 1986.34 167.304 L1990.72 167.304 L1990.72 170.869 L1986.34 170.869 Q1981.41 170.869 1979.54 169.04 Q1977.66 167.188 1977.66 162.327 L1977.66 148.253 L1974.54 148.253 L1974.54 144.943 L1977.66 144.943 L1977.66 137.582 L1981.94 137.582 Z" fill="#000000" fill-rule="evenodd" fill-opacity="1" /><path clip-path="url(#clip410)" d="M 0 0 M1995.74 149.341 L2025.42 149.341 L2025.42 153.23 L1995.74 153.23 L1995.74 149.341 M1995.74 158.785 L2025.42 158.785 L2025.42 162.721 L1995.74 162.721 L1995.74 158.785 Z" fill="#000000" fill-rule="evenodd" fill-opacity="1" /><path clip-path="url(#clip410)" d="M 0 0 M2040.49 139.387 Q2036.87 139.387 2035.05 142.952 Q2033.24 146.494 2033.24 153.623 Q2033.24 160.73 2035.05 164.295 Q2036.87 167.836 2040.49 167.836 Q2044.12 167.836 2045.93 164.295 Q2047.75 160.73 2047.75 153.623 Q2047.75 146.494 2045.93 142.952 Q2044.12 139.387 2040.49 139.387 M2040.49 135.684 Q2046.3 135.684 2049.35 140.29 Q2052.43 144.873 2052.43 153.623 Q2052.43 162.35 2049.35 166.957 Q2046.3 171.54 2040.49 171.54 Q2034.68 171.54 2031.6 166.957 Q2028.54 162.35 2028.54 153.623 Q2028.54 144.873 2031.6 140.29 Q2034.68 135.684 2040.49 135.684 Z" fill="#000000" fill-rule="evenodd" fill-opacity="1" /><path clip-path="url(#clip410)" d="M 0 0 M2057.5 164.989 L2062.38 164.989 L2062.38 170.869 L2057.5 170.869 L2057.5 164.989 Z" fill="#000000" fill-rule="evenodd" fill-opacity="1" /><path clip-path="url(#clip410)" d="M 0 0 M2077.45 139.387 Q2073.84 139.387 2072.01 142.952 Q2070.21 146.494 2070.21 153.623 Q2070.21 160.73 2072.01 164.295 Q2073.84 167.836 2077.45 167.836 Q2081.09 167.836 2082.89 164.295 Q2084.72 160.73 2084.72 153.623 Q2084.72 146.494 2082.89 142.952 Q2081.09 139.387 2077.45 139.387 M2077.45 135.684 Q2083.26 135.684 2086.32 140.29 Q2089.4 144.873 2089.4 153.623 Q2089.4 162.35 2086.32 166.957 Q2083.26 171.54 2077.45 171.54 Q2071.64 171.54 2068.56 166.957 Q2065.51 162.35 2065.51 153.623 Q2065.51 144.873 2068.56 140.29 Q2071.64 135.684 2077.45 135.684 Z" fill="#000000" fill-rule="evenodd" fill-opacity="1" /><path clip-path="url(#clip410)" d="M 0 0 M2108.54 134.85 L2118.36 134.85 L2118.36 138.16 L2112.8 138.16 L2112.8 173.808 L2118.36 173.808 L2118.36 177.119 L2108.54 177.119 L2108.54 134.85 Z" fill="#000000" fill-rule="evenodd" fill-opacity="1" /><path clip-path="url(#clip410)" d="M 0 0 M2139.35 145.707 L2139.35 149.734 Q2137.55 148.809 2135.6 148.346 Q2133.66 147.883 2131.57 147.883 Q2128.4 147.883 2126.81 148.855 Q2125.23 149.827 2125.23 151.771 Q2125.23 153.253 2126.37 154.109 Q2127.5 154.943 2130.93 155.707 L2132.38 156.031 Q2136.92 157.003 2138.82 158.785 Q2140.74 160.545 2140.74 163.716 Q2140.74 167.327 2137.87 169.433 Q2135.02 171.54 2130.02 171.54 Q2127.94 171.54 2125.67 171.123 Q2123.43 170.73 2120.93 169.92 L2120.93 165.521 Q2123.29 166.748 2125.58 167.373 Q2127.87 167.975 2130.12 167.975 Q2133.12 167.975 2134.74 166.957 Q2136.37 165.915 2136.37 164.04 Q2136.37 162.304 2135.18 161.378 Q2134.03 160.452 2130.07 159.596 L2128.59 159.248 Q2124.63 158.415 2122.87 156.702 Q2121.11 154.966 2121.11 151.957 Q2121.11 148.299 2123.7 146.309 Q2126.3 144.318 2131.06 144.318 Q2133.43 144.318 2135.51 144.665 Q2137.59 145.012 2139.35 145.707 Z" fill="#000000" fill-rule="evenodd" fill-opacity="1" /><path clip-path="url(#clip410)" d="M 0 0 M2155.16 134.85 L2155.16 177.119 L2145.35 177.119 L2145.35 173.808 L2150.88 173.808 L2150.88 138.16 L2145.35 138.16 L2145.35 134.85 L2155.16 134.85 Z" fill="#000000" fill-rule="evenodd" fill-opacity="1" /><polyline clip-path="url(#clip410)" style="stroke:#e26f46; stroke-width:4; stroke-opacity:1; fill:none" points="
  1810.07,214.069 1951.04,214.069 
  "/>
<path clip-path="url(#clip410)" d="M 0 0 M1981.94 198.062 L1981.94 205.423 L1990.72 205.423 L1990.72 208.733 L1981.94 208.733 L1981.94 222.807 Q1981.94 225.978 1982.8 226.881 Q1983.68 227.784 1986.34 227.784 L1990.72 227.784 L1990.72 231.349 L1986.34 231.349 Q1981.41 231.349 1979.54 229.52 Q1977.66 227.668 1977.66 222.807 L1977.66 208.733 L1974.54 208.733 L1974.54 205.423 L1977.66 205.423 L1977.66 198.062 L1981.94 198.062 Z" fill="#000000" fill-rule="evenodd" fill-opacity="1" /><path clip-path="url(#clip410)" d="M 0 0 M1995.74 209.821 L2025.42 209.821 L2025.42 213.71 L1995.74 213.71 L1995.74 209.821 M1995.74 219.265 L2025.42 219.265 L2025.42 223.201 L1995.74 223.201 L1995.74 219.265 Z" fill="#000000" fill-rule="evenodd" fill-opacity="1" /><path clip-path="url(#clip410)" d="M 0 0 M2043.33 200.863 L2031.53 219.312 L2043.33 219.312 L2043.33 200.863 M2042.11 196.789 L2047.99 196.789 L2047.99 219.312 L2052.92 219.312 L2052.92 223.201 L2047.99 223.201 L2047.99 231.349 L2043.33 231.349 L2043.33 223.201 L2027.73 223.201 L2027.73 218.687 L2042.11 196.789 Z" fill="#000000" fill-rule="evenodd" fill-opacity="1" /><path clip-path="url(#clip410)" d="M 0 0 M2058.03 196.789 L2076.39 196.789 L2076.39 200.724 L2062.31 200.724 L2062.31 209.196 Q2063.33 208.849 2064.35 208.687 Q2065.37 208.502 2066.39 208.502 Q2072.18 208.502 2075.56 211.673 Q2078.93 214.844 2078.93 220.261 Q2078.93 225.839 2075.46 228.941 Q2071.99 232.02 2065.67 232.02 Q2063.5 232.02 2061.23 231.65 Q2058.98 231.279 2056.57 230.538 L2056.57 225.839 Q2058.66 226.974 2060.88 227.529 Q2063.1 228.085 2065.58 228.085 Q2069.58 228.085 2071.92 225.978 Q2074.26 223.872 2074.26 220.261 Q2074.26 216.65 2071.92 214.543 Q2069.58 212.437 2065.58 212.437 Q2063.7 212.437 2061.83 212.853 Q2059.98 213.27 2058.03 214.15 L2058.03 196.789 Z" fill="#000000" fill-rule="evenodd" fill-opacity="1" /><path clip-path="url(#clip410)" d="M 0 0 M2094 199.867 Q2090.39 199.867 2088.56 203.432 Q2086.76 206.974 2086.76 214.103 Q2086.76 221.21 2088.56 224.775 Q2090.39 228.316 2094 228.316 Q2097.64 228.316 2099.44 224.775 Q2101.27 221.21 2101.27 214.103 Q2101.27 206.974 2099.44 203.432 Q2097.64 199.867 2094 199.867 M2094 196.164 Q2099.81 196.164 2102.87 200.77 Q2105.95 205.353 2105.95 214.103 Q2105.95 222.83 2102.87 227.437 Q2099.81 232.02 2094 232.02 Q2088.19 232.02 2085.12 227.437 Q2082.06 222.83 2082.06 214.103 Q2082.06 205.353 2085.12 200.77 Q2088.19 196.164 2094 196.164 Z" fill="#000000" fill-rule="evenodd" fill-opacity="1" /><path clip-path="url(#clip410)" d="M 0 0 M2111.02 225.469 L2115.9 225.469 L2115.9 231.349 L2111.02 231.349 L2111.02 225.469 Z" fill="#000000" fill-rule="evenodd" fill-opacity="1" /><path clip-path="url(#clip410)" d="M 0 0 M2133.82 200.863 L2122.01 219.312 L2133.82 219.312 L2133.82 200.863 M2132.59 196.789 L2138.47 196.789 L2138.47 219.312 L2143.4 219.312 L2143.4 223.201 L2138.47 223.201 L2138.47 231.349 L2133.82 231.349 L2133.82 223.201 L2118.22 223.201 L2118.22 218.687 L2132.59 196.789 Z" fill="#000000" fill-rule="evenodd" fill-opacity="1" /><path clip-path="url(#clip410)" d="M 0 0 M2147.29 196.789 L2169.51 196.789 L2169.51 198.779 L2156.97 231.349 L2152.08 231.349 L2163.89 200.724 L2147.29 200.724 L2147.29 196.789 Z" fill="#000000" fill-rule="evenodd" fill-opacity="1" /><path clip-path="url(#clip410)" d="M 0 0 M2188.66 195.33 L2198.47 195.33 L2198.47 198.64 L2192.92 198.64 L2192.92 234.288 L2198.47 234.288 L2198.47 237.599 L2188.66 237.599 L2188.66 195.33 Z" fill="#000000" fill-rule="evenodd" fill-opacity="1" /><path clip-path="url(#clip410)" d="M 0 0 M2219.47 206.187 L2219.47 210.214 Q2217.66 209.289 2215.72 208.826 Q2213.77 208.363 2211.69 208.363 Q2208.52 208.363 2206.92 209.335 Q2205.35 210.307 2205.35 212.251 Q2205.35 213.733 2206.48 214.589 Q2207.61 215.423 2211.04 216.187 L2212.5 216.511 Q2217.04 217.483 2218.93 219.265 Q2220.86 221.025 2220.86 224.196 Q2220.86 227.807 2217.99 229.913 Q2215.14 232.02 2210.14 232.02 Q2208.05 232.02 2205.79 231.603 Q2203.54 231.21 2201.04 230.4 L2201.04 226.001 Q2203.4 227.228 2205.69 227.853 Q2207.99 228.455 2210.23 228.455 Q2213.24 228.455 2214.86 227.437 Q2216.48 226.395 2216.48 224.52 Q2216.48 222.784 2215.3 221.858 Q2214.14 220.932 2210.18 220.076 L2208.7 219.728 Q2204.74 218.895 2202.99 217.182 Q2201.23 215.446 2201.23 212.437 Q2201.23 208.779 2203.82 206.789 Q2206.41 204.798 2211.18 204.798 Q2213.54 204.798 2215.62 205.145 Q2217.71 205.492 2219.47 206.187 Z" fill="#000000" fill-rule="evenodd" fill-opacity="1" /><path clip-path="url(#clip410)" d="M 0 0 M2235.28 195.33 L2235.28 237.599 L2225.46 237.599 L2225.46 234.288 L2230.99 234.288 L2230.99 198.64 L2225.46 198.64 L2225.46 195.33 L2235.28 195.33 Z" fill="#000000" fill-rule="evenodd" fill-opacity="1" /></svg>
