<?xml version="1.0" encoding="utf-8"?>
<svg xmlns="http://www.w3.org/2000/svg" xmlns:xlink="http://www.w3.org/1999/xlink" width="600" height="400" viewBox="0 0 2400 1600">
<defs>
  <clipPath id="clip600">
    <rect x="0" y="0" width="2400" height="1600"/>
  </clipPath>
</defs>
<path clip-path="url(#clip600)" d="
M0 1600 L2400 1600 L2400 0 L0 0  Z
  " fill="#ffffff" fill-rule="evenodd" fill-opacity="1"/>
<defs>
  <clipPath id="clip601">
    <rect x="480" y="0" width="1681" height="1600"/>
  </clipPath>
</defs>
<path clip-path="url(#clip600)" d="
M307.678 1423.18 L2352.76 1423.18 L2352.76 47.2441 L307.678 47.2441  Z
  " fill="#ffffff" fill-rule="evenodd" fill-opacity="1"/>
<defs>
  <clipPath id="clip602">
    <rect x="307" y="47" width="2046" height="1377"/>
  </clipPath>
</defs>
<polyline clip-path="url(#clip602)" style="stroke:#000000; stroke-width:2; stroke-opacity:0.1; fill:none" points="
  365.554,1423.18 365.554,47.2441 
  "/>
<polyline clip-path="url(#clip602)" style="stroke:#000000; stroke-width:2; stroke-opacity:0.1; fill:none" points="
  751.418,1423.18 751.418,47.2441 
  "/>
<polyline clip-path="url(#clip602)" style="stroke:#000000; stroke-width:2; stroke-opacity:0.1; fill:none" points="
  1137.28,1423.18 1137.28,47.2441 
  "/>
<polyline clip-path="url(#clip602)" style="stroke:#000000; stroke-width:2; stroke-opacity:0.1; fill:none" points="
  1523.15,1423.18 1523.15,47.2441 
  "/>
<polyline clip-path="url(#clip602)" style="stroke:#000000; stroke-width:2; stroke-opacity:0.1; fill:none" points="
  1909.01,1423.18 1909.01,47.2441 
  "/>
<polyline clip-path="url(#clip602)" style="stroke:#000000; stroke-width:2; stroke-opacity:0.1; fill:none" points="
  2294.88,1423.18 2294.88,47.2441 
  "/>
<polyline clip-path="url(#clip600)" style="stroke:#000000; stroke-width:4; stroke-opacity:1; fill:none" points="
  307.678,1423.18 2352.76,1423.18 
  "/>
<polyline clip-path="url(#clip600)" style="stroke:#000000; stroke-width:4; stroke-opacity:1; fill:none" points="
  365.554,1423.18 365.554,1406.67 
  "/>
<polyline clip-path="url(#clip600)" style="stroke:#000000; stroke-width:4; stroke-opacity:1; fill:none" points="
  751.418,1423.18 751.418,1406.67 
  "/>
<polyline clip-path="url(#clip600)" style="stroke:#000000; stroke-width:4; stroke-opacity:1; fill:none" points="
  1137.28,1423.18 1137.28,1406.67 
  "/>
<polyline clip-path="url(#clip600)" style="stroke:#000000; stroke-width:4; stroke-opacity:1; fill:none" points="
  1523.15,1423.18 1523.15,1406.67 
  "/>
<polyline clip-path="url(#clip600)" style="stroke:#000000; stroke-width:4; stroke-opacity:1; fill:none" points="
  1909.01,1423.18 1909.01,1406.67 
  "/>
<polyline clip-path="url(#clip600)" style="stroke:#000000; stroke-width:4; stroke-opacity:1; fill:none" points="
  2294.88,1423.18 2294.88,1406.67 
  "/>
<path clip-path="url(#clip600)" d="M 0 0 M365.554 1452.37 Q361.943 1452.37 360.114 1455.94 Q358.309 1459.48 358.309 1466.61 Q358.309 1473.71 360.114 1477.28 Q361.943 1480.82 365.554 1480.82 Q369.188 1480.82 370.994 1477.28 Q372.822 1473.71 372.822 1466.61 Q372.822 1459.48 370.994 1455.94 Q369.188 1452.37 365.554 1452.37 M365.554 1448.67 Q371.364 1448.67 374.42 1453.27 Q377.498 1457.86 377.498 1466.61 Q377.498 1475.33 374.42 1479.94 Q371.364 1484.52 365.554 1484.52 Q359.744 1484.52 356.665 1479.94 Q353.61 1475.33 353.61 1466.61 Q353.61 1457.86 356.665 1453.27 Q359.744 1448.67 365.554 1448.67 Z" fill="#000000" fill-rule="evenodd" fill-opacity="1" /><path clip-path="url(#clip600)" d="M 0 0 M741.8 1479.92 L749.439 1479.92 L749.439 1453.55 L741.129 1455.22 L741.129 1450.96 L749.393 1449.29 L754.069 1449.29 L754.069 1479.92 L761.708 1479.92 L761.708 1483.85 L741.8 1483.85 L741.8 1479.92 Z" fill="#000000" fill-rule="evenodd" fill-opacity="1" /><path clip-path="url(#clip600)" d="M 0 0 M1131.94 1479.92 L1148.26 1479.92 L1148.26 1483.85 L1126.31 1483.85 L1126.31 1479.92 Q1128.97 1477.16 1133.56 1472.53 Q1138.16 1467.88 1139.34 1466.54 Q1141.59 1464.01 1142.47 1462.28 Q1143.37 1460.52 1143.37 1458.83 Q1143.37 1456.07 1141.43 1454.34 Q1139.51 1452.6 1136.4 1452.6 Q1134.2 1452.6 1131.75 1453.37 Q1129.32 1454.13 1126.54 1455.68 L1126.54 1450.96 Q1129.37 1449.82 1131.82 1449.25 Q1134.27 1448.67 1136.31 1448.67 Q1141.68 1448.67 1144.88 1451.35 Q1148.07 1454.04 1148.07 1458.53 Q1148.07 1460.66 1147.26 1462.58 Q1146.47 1464.48 1144.37 1467.07 Q1143.79 1467.74 1140.69 1470.96 Q1137.58 1474.15 1131.94 1479.92 Z" fill="#000000" fill-rule="evenodd" fill-opacity="1" /><path clip-path="url(#clip600)" d="M 0 0 M1527.4 1465.22 Q1530.75 1465.94 1532.63 1468.2 Q1534.52 1470.47 1534.52 1473.81 Q1534.52 1478.92 1531.01 1481.72 Q1527.49 1484.52 1521.01 1484.52 Q1518.83 1484.52 1516.52 1484.08 Q1514.22 1483.67 1511.77 1482.81 L1511.77 1478.3 Q1513.71 1479.43 1516.03 1480.01 Q1518.34 1480.59 1520.87 1480.59 Q1525.27 1480.59 1527.56 1478.85 Q1529.87 1477.12 1529.87 1473.81 Q1529.87 1470.75 1527.72 1469.04 Q1525.59 1467.3 1521.77 1467.3 L1517.74 1467.3 L1517.74 1463.46 L1521.96 1463.46 Q1525.4 1463.46 1527.23 1462.09 Q1529.06 1460.7 1529.06 1458.11 Q1529.06 1455.45 1527.16 1454.04 Q1525.29 1452.6 1521.77 1452.6 Q1519.85 1452.6 1517.65 1453.02 Q1515.45 1453.44 1512.81 1454.31 L1512.81 1450.15 Q1515.47 1449.41 1517.79 1449.04 Q1520.13 1448.67 1522.19 1448.67 Q1527.51 1448.67 1530.61 1451.1 Q1533.71 1453.5 1533.71 1457.63 Q1533.71 1460.5 1532.07 1462.49 Q1530.43 1464.45 1527.4 1465.22 Z" fill="#000000" fill-rule="evenodd" fill-opacity="1" /><path clip-path="url(#clip600)" d="M 0 0 M1912.02 1453.37 L1900.22 1471.81 L1912.02 1471.81 L1912.02 1453.37 M1910.79 1449.29 L1916.67 1449.29 L1916.67 1471.81 L1921.6 1471.81 L1921.6 1475.7 L1916.67 1475.7 L1916.67 1483.85 L1912.02 1483.85 L1912.02 1475.7 L1896.42 1475.7 L1896.42 1471.19 L1910.79 1449.29 Z" fill="#000000" fill-rule="evenodd" fill-opacity="1" /><path clip-path="url(#clip600)" d="M 0 0 M2285.15 1449.29 L2303.51 1449.29 L2303.51 1453.23 L2289.44 1453.23 L2289.44 1461.7 Q2290.46 1461.35 2291.47 1461.19 Q2292.49 1461 2293.51 1461 Q2299.3 1461 2302.68 1464.18 Q2306.06 1467.35 2306.06 1472.76 Q2306.06 1478.34 2302.58 1481.44 Q2299.11 1484.52 2292.79 1484.52 Q2290.62 1484.52 2288.35 1484.15 Q2286.1 1483.78 2283.7 1483.04 L2283.7 1478.34 Q2285.78 1479.48 2288 1480.03 Q2290.22 1480.59 2292.7 1480.59 Q2296.71 1480.59 2299.04 1478.48 Q2301.38 1476.38 2301.38 1472.76 Q2301.38 1469.15 2299.04 1467.05 Q2296.71 1464.94 2292.7 1464.94 Q2290.83 1464.94 2288.95 1465.36 Q2287.1 1465.77 2285.15 1466.65 L2285.15 1449.29 Z" fill="#000000" fill-rule="evenodd" fill-opacity="1" /><path clip-path="url(#clip600)" d="M 0 0 M1052.12 1550.25 Q1052.12 1556.71 1054.76 1560.4 Q1057.43 1564.07 1062.08 1564.07 Q1066.72 1564.07 1069.4 1560.4 Q1072.07 1556.71 1072.07 1550.25 Q1072.07 1543.79 1069.4 1540.13 Q1066.72 1536.44 1062.08 1536.44 Q1057.43 1536.44 1054.76 1540.13 Q1052.12 1543.79 1052.12 1550.25 M1072.07 1562.7 Q1070.23 1565.88 1067.39 1567.44 Q1064.59 1568.97 1060.65 1568.97 Q1054.18 1568.97 1050.11 1563.81 Q1046.07 1558.65 1046.07 1550.25 Q1046.07 1541.85 1050.11 1536.69 Q1054.18 1531.54 1060.65 1531.54 Q1064.59 1531.54 1067.39 1533.1 Q1070.23 1534.62 1072.07 1537.81 L1072.07 1532.4 L1077.93 1532.4 L1077.93 1581.6 L1072.07 1581.6 L1072.07 1562.7 Z" fill="#000000" fill-rule="evenodd" fill-opacity="1" /><path clip-path="url(#clip600)" d="M 0 0 M1111.16 1578.87 L1111.16 1583.42 L1077.29 1583.42 L1077.29 1578.87 L1111.16 1578.87 Z" fill="#000000" fill-rule="evenodd" fill-opacity="1" /><path clip-path="url(#clip600)" d="M 0 0 M1117.3 1518.52 L1123.16 1518.52 L1123.16 1568.04 L1117.3 1568.04 L1117.3 1518.52 Z" fill="#000000" fill-rule="evenodd" fill-opacity="1" /><path clip-path="url(#clip600)" d="M 0 0 M1129.3 1532.4 L1135.16 1532.4 L1135.16 1568.04 L1129.3 1568.04 L1129.3 1532.4 M1129.3 1518.52 L1135.16 1518.52 L1135.16 1525.93 L1129.3 1525.93 L1129.3 1518.52 Z" fill="#000000" fill-rule="evenodd" fill-opacity="1" /><path clip-path="url(#clip600)" d="M 0 0 M1144.8 1550.25 Q1144.8 1556.71 1147.44 1560.4 Q1150.12 1564.07 1154.76 1564.07 Q1159.41 1564.07 1162.08 1560.4 Q1164.76 1556.71 1164.76 1550.25 Q1164.76 1543.79 1162.08 1540.13 Q1159.41 1536.44 1154.76 1536.44 Q1150.12 1536.44 1147.44 1540.13 Q1144.8 1543.79 1144.8 1550.25 M1164.76 1562.7 Q1162.91 1565.88 1160.08 1567.44 Q1157.28 1568.97 1153.33 1568.97 Q1146.87 1568.97 1142.79 1563.81 Q1138.75 1558.65 1138.75 1550.25 Q1138.75 1541.85 1142.79 1536.69 Q1146.87 1531.54 1153.33 1531.54 Q1157.28 1531.54 1160.08 1533.1 Q1162.91 1534.62 1164.76 1537.81 L1164.76 1532.4 L1170.61 1532.4 L1170.61 1581.6 L1164.76 1581.6 L1164.76 1562.7 Z" fill="#000000" fill-rule="evenodd" fill-opacity="1" /><path clip-path="url(#clip600)" d="M 0 0 M1211.29 1536.5 Q1206.58 1536.5 1203.84 1540.19 Q1201.1 1543.85 1201.1 1550.25 Q1201.1 1556.65 1203.81 1560.34 Q1206.55 1564 1211.29 1564 Q1215.97 1564 1218.71 1560.31 Q1221.44 1556.62 1221.44 1550.25 Q1221.44 1543.92 1218.71 1540.23 Q1215.97 1536.5 1211.29 1536.5 M1211.29 1531.54 Q1218.93 1531.54 1223.29 1536.5 Q1227.65 1541.47 1227.65 1550.25 Q1227.65 1559 1223.29 1564 Q1218.93 1568.97 1211.29 1568.97 Q1203.62 1568.97 1199.26 1564 Q1194.93 1559 1194.93 1550.25 Q1194.93 1541.47 1199.26 1536.5 Q1203.62 1531.54 1211.29 1531.54 Z" fill="#000000" fill-rule="evenodd" fill-opacity="1" /><path clip-path="url(#clip600)" d="M 0 0 M1254.45 1537.87 Q1253.46 1537.3 1252.28 1537.04 Q1251.14 1536.76 1249.74 1536.76 Q1244.77 1536.76 1242.1 1540 Q1239.46 1543.22 1239.46 1549.27 L1239.46 1568.04 L1233.57 1568.04 L1233.57 1532.4 L1239.46 1532.4 L1239.46 1537.93 Q1241.3 1534.69 1244.26 1533.13 Q1247.22 1531.54 1251.46 1531.54 Q1252.06 1531.54 1252.79 1531.63 Q1253.53 1531.7 1254.42 1531.85 L1254.45 1537.87 Z" fill="#000000" fill-rule="evenodd" fill-opacity="1" /><path clip-path="url(#clip600)" d="M 0 0 M1284.81 1550.25 Q1284.81 1556.71 1287.46 1560.4 Q1290.13 1564.07 1294.78 1564.07 Q1299.42 1564.07 1302.1 1560.4 Q1304.77 1556.71 1304.77 1550.25 Q1304.77 1543.79 1302.1 1540.13 Q1299.42 1536.44 1294.78 1536.44 Q1290.13 1536.44 1287.46 1540.13 Q1284.81 1543.79 1284.81 1550.25 M1304.77 1562.7 Q1302.92 1565.88 1300.09 1567.44 Q1297.29 1568.97 1293.34 1568.97 Q1286.88 1568.97 1282.81 1563.81 Q1278.77 1558.65 1278.77 1550.25 Q1278.77 1541.85 1282.81 1536.69 Q1286.88 1531.54 1293.34 1531.54 Q1297.29 1531.54 1300.09 1533.1 Q1302.92 1534.62 1304.77 1537.81 L1304.77 1532.4 L1310.63 1532.4 L1310.63 1581.6 L1304.77 1581.6 L1304.77 1562.7 Z" fill="#000000" fill-rule="evenodd" fill-opacity="1" /><path clip-path="url(#clip600)" d="M 0 0 M1343.86 1578.87 L1343.86 1583.42 L1309.99 1583.42 L1309.99 1578.87 L1343.86 1578.87 Z" fill="#000000" fill-rule="evenodd" fill-opacity="1" /><path clip-path="url(#clip600)" d="M 0 0 M1350 1532.4 L1355.85 1532.4 L1355.85 1568.04 L1350 1568.04 L1350 1532.4 M1350 1518.52 L1355.85 1518.52 L1355.85 1525.93 L1350 1525.93 L1350 1518.52 Z" fill="#000000" fill-rule="evenodd" fill-opacity="1" /><path clip-path="url(#clip600)" d="M 0 0 M1387.65 1533.76 L1387.65 1539.24 Q1385.17 1537.87 1382.65 1537.2 Q1380.17 1536.5 1377.63 1536.5 Q1371.93 1536.5 1368.78 1540.13 Q1365.63 1543.73 1365.63 1550.25 Q1365.63 1556.78 1368.78 1560.4 Q1371.93 1564 1377.63 1564 Q1380.17 1564 1382.65 1563.33 Q1385.17 1562.63 1387.65 1561.26 L1387.65 1566.68 Q1385.2 1567.82 1382.56 1568.39 Q1379.95 1568.97 1376.99 1568.97 Q1368.94 1568.97 1364.19 1563.91 Q1359.45 1558.85 1359.45 1550.25 Q1359.45 1541.53 1364.23 1536.53 Q1369.03 1531.54 1377.37 1531.54 Q1380.08 1531.54 1382.65 1532.11 Q1385.23 1532.65 1387.65 1533.76 Z" fill="#000000" fill-rule="evenodd" fill-opacity="1" /><path clip-path="url(#clip600)" d="M 0 0 M1424.29 1548.76 L1424.29 1551.62 L1397.36 1551.62 Q1397.74 1557.67 1400.99 1560.85 Q1404.27 1564 1410.09 1564 Q1413.46 1564 1416.62 1563.17 Q1419.8 1562.35 1422.92 1560.69 L1422.92 1566.23 Q1419.77 1567.57 1416.46 1568.27 Q1413.15 1568.97 1409.74 1568.97 Q1401.21 1568.97 1396.21 1564 Q1391.25 1559.04 1391.25 1550.57 Q1391.25 1541.82 1395.96 1536.69 Q1400.7 1531.54 1408.72 1531.54 Q1415.92 1531.54 1420.08 1536.18 Q1424.29 1540.8 1424.29 1548.76 M1418.43 1547.04 Q1418.37 1542.23 1415.72 1539.37 Q1413.11 1536.5 1408.79 1536.5 Q1403.88 1536.5 1400.92 1539.27 Q1398 1542.04 1397.55 1547.07 L1418.43 1547.04 Z" fill="#000000" fill-rule="evenodd" fill-opacity="1" /><path clip-path="url(#clip600)" d="M 0 0 M1450.61 1518.52 L1464.1 1518.52 L1464.1 1523.07 L1456.46 1523.07 L1456.46 1572.09 L1464.1 1572.09 L1464.1 1576.64 L1450.61 1576.64 L1450.61 1518.52 Z" fill="#000000" fill-rule="evenodd" fill-opacity="1" /><path clip-path="url(#clip600)" d="M 0 0 M1493.7 1549.81 Q1493.7 1543.44 1491.06 1539.94 Q1488.45 1536.44 1483.71 1536.44 Q1479 1536.44 1476.36 1539.94 Q1473.75 1543.44 1473.75 1549.81 Q1473.75 1556.14 1476.36 1559.64 Q1479 1563.14 1483.71 1563.14 Q1488.45 1563.14 1491.06 1559.64 Q1493.7 1556.14 1493.7 1549.81 M1499.56 1563.62 Q1499.56 1572.72 1495.52 1577.15 Q1491.48 1581.6 1483.14 1581.6 Q1480.05 1581.6 1477.31 1581.13 Q1474.58 1580.68 1472 1579.72 L1472 1574.03 Q1474.58 1575.43 1477.09 1576.1 Q1479.6 1576.76 1482.21 1576.76 Q1487.98 1576.76 1490.84 1573.74 Q1493.7 1570.75 1493.7 1564.67 L1493.7 1561.77 Q1491.89 1564.92 1489.06 1566.48 Q1486.22 1568.04 1482.28 1568.04 Q1475.72 1568.04 1471.71 1563.05 Q1467.7 1558.05 1467.7 1549.81 Q1467.7 1541.53 1471.71 1536.53 Q1475.72 1531.54 1482.28 1531.54 Q1486.22 1531.54 1489.06 1533.1 Q1491.89 1534.66 1493.7 1537.81 L1493.7 1532.4 L1499.56 1532.4 L1499.56 1563.62 Z" fill="#000000" fill-rule="evenodd" fill-opacity="1" /><path clip-path="url(#clip600)" d="M 0 0 M1516.11 1520.52 L1521.52 1520.52 L1504.97 1574.09 L1499.56 1574.09 L1516.11 1520.52 Z" fill="#000000" fill-rule="evenodd" fill-opacity="1" /><path clip-path="url(#clip600)" d="M 0 0 M1527.44 1518.52 L1533.33 1518.52 L1533.33 1547.77 L1550.8 1532.4 L1558.28 1532.4 L1539.38 1549.07 L1559.08 1568.04 L1551.44 1568.04 L1533.33 1550.63 L1533.33 1568.04 L1527.44 1568.04 L1527.44 1518.52 Z" fill="#000000" fill-rule="evenodd" fill-opacity="1" /><path clip-path="url(#clip600)" d="M 0 0 M1588.68 1549.81 Q1588.68 1543.44 1586.04 1539.94 Q1583.43 1536.44 1578.69 1536.44 Q1573.98 1536.44 1571.33 1539.94 Q1568.72 1543.44 1568.72 1549.81 Q1568.72 1556.14 1571.33 1559.64 Q1573.98 1563.14 1578.69 1563.14 Q1583.43 1563.14 1586.04 1559.64 Q1588.68 1556.14 1588.68 1549.81 M1594.54 1563.62 Q1594.54 1572.72 1590.49 1577.15 Q1586.45 1581.6 1578.11 1581.6 Q1575.03 1581.6 1572.29 1581.13 Q1569.55 1580.68 1566.97 1579.72 L1566.97 1574.03 Q1569.55 1575.43 1572.07 1576.1 Q1574.58 1576.76 1577.19 1576.76 Q1582.95 1576.76 1585.82 1573.74 Q1588.68 1570.75 1588.68 1564.67 L1588.68 1561.77 Q1586.87 1564.92 1584.03 1566.48 Q1581.2 1568.04 1577.25 1568.04 Q1570.7 1568.04 1566.69 1563.05 Q1562.68 1558.05 1562.68 1549.81 Q1562.68 1541.53 1566.69 1536.53 Q1570.7 1531.54 1577.25 1531.54 Q1581.2 1531.54 1584.03 1533.1 Q1586.87 1534.66 1588.68 1537.81 L1588.68 1532.4 L1594.54 1532.4 L1594.54 1563.62 Z" fill="#000000" fill-rule="evenodd" fill-opacity="1" /><path clip-path="url(#clip600)" d="M 0 0 M1614.37 1518.52 L1614.37 1576.64 L1600.87 1576.64 L1600.87 1572.09 L1608.48 1572.09 L1608.48 1523.07 L1600.87 1523.07 L1600.87 1518.52 L1614.37 1518.52 Z" fill="#000000" fill-rule="evenodd" fill-opacity="1" /><polyline clip-path="url(#clip602)" style="stroke:#000000; stroke-width:2; stroke-opacity:0.1; fill:none" points="
  307.678,1384.24 2352.76,1384.24 
  "/>
<polyline clip-path="url(#clip602)" style="stroke:#000000; stroke-width:2; stroke-opacity:0.1; fill:none" points="
  307.678,1191.04 2352.76,1191.04 
  "/>
<polyline clip-path="url(#clip602)" style="stroke:#000000; stroke-width:2; stroke-opacity:0.1; fill:none" points="
  307.678,997.85 2352.76,997.85 
  "/>
<polyline clip-path="url(#clip602)" style="stroke:#000000; stroke-width:2; stroke-opacity:0.1; fill:none" points="
  307.678,804.656 2352.76,804.656 
  "/>
<polyline clip-path="url(#clip602)" style="stroke:#000000; stroke-width:2; stroke-opacity:0.1; fill:none" points="
  307.678,611.461 2352.76,611.461 
  "/>
<polyline clip-path="url(#clip602)" style="stroke:#000000; stroke-width:2; stroke-opacity:0.1; fill:none" points="
  307.678,418.267 2352.76,418.267 
  "/>
<polyline clip-path="url(#clip602)" style="stroke:#000000; stroke-width:2; stroke-opacity:0.1; fill:none" points="
  307.678,225.073 2352.76,225.073 
  "/>
<polyline clip-path="url(#clip600)" style="stroke:#000000; stroke-width:4; stroke-opacity:1; fill:none" points="
  307.678,1423.18 307.678,47.2441 
  "/>
<polyline clip-path="url(#clip600)" style="stroke:#000000; stroke-width:4; stroke-opacity:1; fill:none" points="
  307.678,1384.24 332.219,1384.24 
  "/>
<polyline clip-path="url(#clip600)" style="stroke:#000000; stroke-width:4; stroke-opacity:1; fill:none" points="
  307.678,1191.04 332.219,1191.04 
  "/>
<polyline clip-path="url(#clip600)" style="stroke:#000000; stroke-width:4; stroke-opacity:1; fill:none" points="
  307.678,997.85 332.219,997.85 
  "/>
<polyline clip-path="url(#clip600)" style="stroke:#000000; stroke-width:4; stroke-opacity:1; fill:none" points="
  307.678,804.656 332.219,804.656 
  "/>
<polyline clip-path="url(#clip600)" style="stroke:#000000; stroke-width:4; stroke-opacity:1; fill:none" points="
  307.678,611.461 332.219,611.461 
  "/>
<polyline clip-path="url(#clip600)" style="stroke:#000000; stroke-width:4; stroke-opacity:1; fill:none" points="
  307.678,418.267 332.219,418.267 
  "/>
<polyline clip-path="url(#clip600)" style="stroke:#000000; stroke-width:4; stroke-opacity:1; fill:none" points="
  307.678,225.073 332.219,225.073 
  "/>
<path clip-path="url(#clip600)" d="M 0 0 M259.734 1370.04 Q256.123 1370.04 254.294 1373.6 Q252.489 1377.14 252.489 1384.27 Q252.489 1391.38 254.294 1394.94 Q256.123 1398.49 259.734 1398.49 Q263.368 1398.49 265.174 1394.94 Q267.002 1391.38 267.002 1384.27 Q267.002 1377.14 265.174 1373.6 Q263.368 1370.04 259.734 1370.04 M259.734 1366.33 Q265.544 1366.33 268.6 1370.94 Q271.678 1375.52 271.678 1384.27 Q271.678 1393 268.6 1397.61 Q265.544 1402.19 259.734 1402.19 Q253.924 1402.19 250.845 1397.61 Q247.79 1393 247.79 1384.27 Q247.79 1375.52 250.845 1370.94 Q253.924 1366.33 259.734 1366.33 Z" fill="#000000" fill-rule="evenodd" fill-opacity="1" /><path clip-path="url(#clip600)" d="M 0 0 M119.538 1210.84 L127.177 1210.84 L127.177 1184.47 L118.867 1186.14 L118.867 1181.88 L127.13 1180.21 L131.806 1180.21 L131.806 1210.84 L139.445 1210.84 L139.445 1214.77 L119.538 1214.77 L119.538 1210.84 Z" fill="#000000" fill-rule="evenodd" fill-opacity="1" /><path clip-path="url(#clip600)" d="M 0 0 M172.686 1189.31 L162.107 1199.93 L172.686 1210.51 L169.931 1213.31 L159.306 1202.69 L148.681 1213.31 L145.95 1210.51 L156.505 1199.93 L145.95 1189.31 L148.681 1186.51 L159.306 1197.13 L169.931 1186.51 L172.686 1189.31 Z" fill="#000000" fill-rule="evenodd" fill-opacity="1" /><path clip-path="url(#clip600)" d="M 0 0 M178.565 1210.84 L186.204 1210.84 L186.204 1184.47 L177.894 1186.14 L177.894 1181.88 L186.158 1180.21 L190.834 1180.21 L190.834 1210.84 L198.473 1210.84 L198.473 1214.77 L178.565 1214.77 L178.565 1210.84 Z" fill="#000000" fill-rule="evenodd" fill-opacity="1" /><path clip-path="url(#clip600)" d="M 0 0 M213.542 1183.29 Q209.931 1183.29 208.102 1186.86 Q206.297 1190.4 206.297 1197.53 Q206.297 1204.63 208.102 1208.2 Q209.931 1211.74 213.542 1211.74 Q217.176 1211.74 218.982 1208.2 Q220.811 1204.63 220.811 1197.53 Q220.811 1190.4 218.982 1186.86 Q217.176 1183.29 213.542 1183.29 M213.542 1179.59 Q219.352 1179.59 222.408 1184.19 Q225.486 1188.78 225.486 1197.53 Q225.486 1206.25 222.408 1210.86 Q219.352 1215.44 213.542 1215.44 Q207.732 1215.44 204.653 1210.86 Q201.598 1206.25 201.598 1197.53 Q201.598 1188.78 204.653 1184.19 Q207.732 1179.59 213.542 1179.59 Z" fill="#000000" fill-rule="evenodd" fill-opacity="1" /><path clip-path="url(#clip600)" d="M 0 0 M225.486 1173.69 L249.598 1173.69 L249.598 1176.89 L225.486 1176.89 L225.486 1173.69 Z" fill="#000000" fill-rule="evenodd" fill-opacity="1" /><path clip-path="url(#clip600)" d="M 0 0 M262.312 1171.81 Q259.754 1171.81 258.25 1173.56 Q256.764 1175.31 256.764 1178.35 Q256.764 1181.38 258.25 1183.15 Q259.754 1184.9 262.312 1184.9 Q264.87 1184.9 266.356 1183.15 Q267.86 1181.38 267.86 1178.35 Q267.86 1175.31 266.356 1173.56 Q264.87 1171.81 262.312 1171.81 M269.854 1159.9 L269.854 1163.36 Q268.425 1162.69 266.958 1162.33 Q265.509 1161.97 264.08 1161.97 Q260.318 1161.97 258.325 1164.51 Q256.35 1167.05 256.068 1172.18 Q257.178 1170.55 258.851 1169.68 Q260.525 1168.8 262.538 1168.8 Q266.769 1168.8 269.214 1171.37 Q271.678 1173.93 271.678 1178.35 Q271.678 1182.68 269.12 1185.29 Q266.563 1187.91 262.312 1187.91 Q257.441 1187.91 254.864 1184.18 Q252.287 1180.44 252.287 1173.35 Q252.287 1166.69 255.447 1162.74 Q258.607 1158.77 263.929 1158.77 Q265.359 1158.77 266.807 1159.06 Q268.274 1159.34 269.854 1159.9 Z" fill="#000000" fill-rule="evenodd" fill-opacity="1" /><path clip-path="url(#clip600)" d="M 0 0 M123.126 1017.64 L139.445 1017.64 L139.445 1021.58 L117.501 1021.58 L117.501 1017.64 Q120.163 1014.89 124.746 1010.26 Q129.353 1005.61 130.533 1004.26 Q132.779 1001.74 133.658 1000 Q134.561 998.244 134.561 996.554 Q134.561 993.8 132.617 992.064 Q130.695 990.328 127.593 990.328 Q125.394 990.328 122.941 991.091 Q120.51 991.855 117.732 993.406 L117.732 988.684 Q120.556 987.55 123.01 986.971 Q125.464 986.392 127.501 986.392 Q132.871 986.392 136.066 989.078 Q139.26 991.763 139.26 996.253 Q139.26 998.383 138.45 1000.3 Q137.663 1002.2 135.556 1004.8 Q134.978 1005.47 131.876 1008.68 Q128.774 1011.88 123.126 1017.64 Z" fill="#000000" fill-rule="evenodd" fill-opacity="1" /><path clip-path="url(#clip600)" d="M 0 0 M172.686 996.115 L162.107 1006.74 L172.686 1017.32 L169.931 1020.12 L159.306 1009.49 L148.681 1020.12 L145.95 1017.32 L156.505 1006.74 L145.95 996.115 L148.681 993.314 L159.306 1003.94 L169.931 993.314 L172.686 996.115 Z" fill="#000000" fill-rule="evenodd" fill-opacity="1" /><path clip-path="url(#clip600)" d="M 0 0 M178.565 1017.64 L186.204 1017.64 L186.204 991.277 L177.894 992.943 L177.894 988.684 L186.158 987.017 L190.834 987.017 L190.834 1017.64 L198.473 1017.64 L198.473 1021.58 L178.565 1021.58 L178.565 1017.64 Z" fill="#000000" fill-rule="evenodd" fill-opacity="1" /><path clip-path="url(#clip600)" d="M 0 0 M213.542 990.096 Q209.931 990.096 208.102 993.661 Q206.297 997.203 206.297 1004.33 Q206.297 1011.44 208.102 1015 Q209.931 1018.54 213.542 1018.54 Q217.176 1018.54 218.982 1015 Q220.811 1011.44 220.811 1004.33 Q220.811 997.203 218.982 993.661 Q217.176 990.096 213.542 990.096 M213.542 986.392 Q219.352 986.392 222.408 990.999 Q225.486 995.582 225.486 1004.33 Q225.486 1013.06 222.408 1017.67 Q219.352 1022.25 213.542 1022.25 Q207.732 1022.25 204.653 1017.67 Q201.598 1013.06 201.598 1004.33 Q201.598 995.582 204.653 990.999 Q207.732 986.392 213.542 986.392 Z" fill="#000000" fill-rule="evenodd" fill-opacity="1" /><path clip-path="url(#clip600)" d="M 0 0 M225.486 980.494 L249.598 980.494 L249.598 983.691 L225.486 983.691 L225.486 980.494 Z" fill="#000000" fill-rule="evenodd" fill-opacity="1" /><path clip-path="url(#clip600)" d="M 0 0 M262.312 978.613 Q259.754 978.613 258.25 980.362 Q256.764 982.111 256.764 985.158 Q256.764 988.186 258.25 989.954 Q259.754 991.703 262.312 991.703 Q264.87 991.703 266.356 989.954 Q267.86 988.186 267.86 985.158 Q267.86 982.111 266.356 980.362 Q264.87 978.613 262.312 978.613 M269.854 966.708 L269.854 970.168 Q268.425 969.491 266.958 969.134 Q265.509 968.776 264.08 968.776 Q260.318 968.776 258.325 971.316 Q256.35 973.855 256.068 978.989 Q257.178 977.353 258.851 976.488 Q260.525 975.604 262.538 975.604 Q266.769 975.604 269.214 978.18 Q271.678 980.738 271.678 985.158 Q271.678 989.484 269.12 992.098 Q266.563 994.712 262.312 994.712 Q257.441 994.712 254.864 990.988 Q252.287 987.246 252.287 980.155 Q252.287 973.497 255.447 969.548 Q258.607 965.579 263.929 965.579 Q265.359 965.579 266.807 965.861 Q268.274 966.143 269.854 966.708 Z" fill="#000000" fill-rule="evenodd" fill-opacity="1" /><path clip-path="url(#clip600)" d="M 0 0 M132.316 809.749 Q135.672 810.467 137.547 812.735 Q139.445 815.004 139.445 818.337 Q139.445 823.453 135.927 826.254 Q132.408 829.054 125.927 829.054 Q123.751 829.054 121.436 828.615 Q119.144 828.198 116.691 827.341 L116.691 822.828 Q118.635 823.962 120.95 824.541 Q123.265 825.119 125.788 825.119 Q130.186 825.119 132.478 823.383 Q134.792 821.647 134.792 818.337 Q134.792 815.281 132.64 813.568 Q130.51 811.832 126.691 811.832 L122.663 811.832 L122.663 807.99 L126.876 807.99 Q130.325 807.99 132.154 806.624 Q133.982 805.235 133.982 802.643 Q133.982 799.98 132.084 798.568 Q130.209 797.133 126.691 797.133 Q124.769 797.133 122.57 797.55 Q120.371 797.967 117.732 798.846 L117.732 794.68 Q120.394 793.939 122.709 793.568 Q125.047 793.198 127.107 793.198 Q132.431 793.198 135.533 795.629 Q138.635 798.036 138.635 802.156 Q138.635 805.027 136.992 807.017 Q135.348 808.985 132.316 809.749 Z" fill="#000000" fill-rule="evenodd" fill-opacity="1" /><path clip-path="url(#clip600)" d="M 0 0 M172.686 802.92 L162.107 813.545 L172.686 824.124 L169.931 826.925 L159.306 816.3 L148.681 826.925 L145.95 824.124 L156.505 813.545 L145.95 802.92 L148.681 800.119 L159.306 810.744 L169.931 800.119 L172.686 802.92 Z" fill="#000000" fill-rule="evenodd" fill-opacity="1" /><path clip-path="url(#clip600)" d="M 0 0 M178.565 824.448 L186.204 824.448 L186.204 798.082 L177.894 799.749 L177.894 795.49 L186.158 793.823 L190.834 793.823 L190.834 824.448 L198.473 824.448 L198.473 828.383 L178.565 828.383 L178.565 824.448 Z" fill="#000000" fill-rule="evenodd" fill-opacity="1" /><path clip-path="url(#clip600)" d="M 0 0 M213.542 796.902 Q209.931 796.902 208.102 800.467 Q206.297 804.008 206.297 811.138 Q206.297 818.244 208.102 821.809 Q209.931 825.351 213.542 825.351 Q217.176 825.351 218.982 821.809 Q220.811 818.244 220.811 811.138 Q220.811 804.008 218.982 800.467 Q217.176 796.902 213.542 796.902 M213.542 793.198 Q219.352 793.198 222.408 797.805 Q225.486 802.388 225.486 811.138 Q225.486 819.865 222.408 824.471 Q219.352 829.054 213.542 829.054 Q207.732 829.054 204.653 824.471 Q201.598 819.865 201.598 811.138 Q201.598 802.388 204.653 797.805 Q207.732 793.198 213.542 793.198 Z" fill="#000000" fill-rule="evenodd" fill-opacity="1" /><path clip-path="url(#clip600)" d="M 0 0 M225.486 787.299 L249.598 787.299 L249.598 790.497 L225.486 790.497 L225.486 787.299 Z" fill="#000000" fill-rule="evenodd" fill-opacity="1" /><path clip-path="url(#clip600)" d="M 0 0 M262.312 785.419 Q259.754 785.419 258.25 787.168 Q256.764 788.917 256.764 791.964 Q256.764 794.992 258.25 796.76 Q259.754 798.509 262.312 798.509 Q264.87 798.509 266.356 796.76 Q267.86 794.992 267.86 791.964 Q267.86 788.917 266.356 787.168 Q264.87 785.419 262.312 785.419 M269.854 773.513 L269.854 776.974 Q268.425 776.297 266.958 775.94 Q265.509 775.582 264.08 775.582 Q260.318 775.582 258.325 778.121 Q256.35 780.66 256.068 785.795 Q257.178 784.159 258.851 783.293 Q260.525 782.409 262.538 782.409 Q266.769 782.409 269.214 784.986 Q271.678 787.544 271.678 791.964 Q271.678 796.29 269.12 798.904 Q266.563 801.518 262.312 801.518 Q257.441 801.518 254.864 797.794 Q252.287 794.051 252.287 786.961 Q252.287 780.303 255.447 776.353 Q258.607 772.385 263.929 772.385 Q265.359 772.385 266.807 772.667 Q268.274 772.949 269.854 773.513 Z" fill="#000000" fill-rule="evenodd" fill-opacity="1" /><path clip-path="url(#clip600)" d="M 0 0 M129.862 604.703 L118.056 623.152 L129.862 623.152 L129.862 604.703 M128.635 600.629 L134.515 600.629 L134.515 623.152 L139.445 623.152 L139.445 627.041 L134.515 627.041 L134.515 635.189 L129.862 635.189 L129.862 627.041 L114.26 627.041 L114.26 622.527 L128.635 600.629 Z" fill="#000000" fill-rule="evenodd" fill-opacity="1" /><path clip-path="url(#clip600)" d="M 0 0 M172.686 609.726 L162.107 620.351 L172.686 630.93 L169.931 633.731 L159.306 623.106 L148.681 633.731 L145.95 630.93 L156.505 620.351 L145.95 609.726 L148.681 606.925 L159.306 617.55 L169.931 606.925 L172.686 609.726 Z" fill="#000000" fill-rule="evenodd" fill-opacity="1" /><path clip-path="url(#clip600)" d="M 0 0 M178.565 631.254 L186.204 631.254 L186.204 604.888 L177.894 606.555 L177.894 602.296 L186.158 600.629 L190.834 600.629 L190.834 631.254 L198.473 631.254 L198.473 635.189 L178.565 635.189 L178.565 631.254 Z" fill="#000000" fill-rule="evenodd" fill-opacity="1" /><path clip-path="url(#clip600)" d="M 0 0 M213.542 603.708 Q209.931 603.708 208.102 607.272 Q206.297 610.814 206.297 617.944 Q206.297 625.05 208.102 628.615 Q209.931 632.156 213.542 632.156 Q217.176 632.156 218.982 628.615 Q220.811 625.05 220.811 617.944 Q220.811 610.814 218.982 607.272 Q217.176 603.708 213.542 603.708 M213.542 600.004 Q219.352 600.004 222.408 604.61 Q225.486 609.194 225.486 617.944 Q225.486 626.67 222.408 631.277 Q219.352 635.86 213.542 635.86 Q207.732 635.86 204.653 631.277 Q201.598 626.67 201.598 617.944 Q201.598 609.194 204.653 604.61 Q207.732 600.004 213.542 600.004 Z" fill="#000000" fill-rule="evenodd" fill-opacity="1" /><path clip-path="url(#clip600)" d="M 0 0 M225.486 594.105 L249.598 594.105 L249.598 597.303 L225.486 597.303 L225.486 594.105 Z" fill="#000000" fill-rule="evenodd" fill-opacity="1" /><path clip-path="url(#clip600)" d="M 0 0 M262.312 592.224 Q259.754 592.224 258.25 593.974 Q256.764 595.723 256.764 598.77 Q256.764 601.798 258.25 603.566 Q259.754 605.315 262.312 605.315 Q264.87 605.315 266.356 603.566 Q267.86 601.798 267.86 598.77 Q267.86 595.723 266.356 593.974 Q264.87 592.224 262.312 592.224 M269.854 580.319 L269.854 583.78 Q268.425 583.103 266.958 582.745 Q265.509 582.388 264.08 582.388 Q260.318 582.388 258.325 584.927 Q256.35 587.466 256.068 592.601 Q257.178 590.964 258.851 590.099 Q260.525 589.215 262.538 589.215 Q266.769 589.215 269.214 591.792 Q271.678 594.35 271.678 598.77 Q271.678 603.095 269.12 605.71 Q266.563 608.324 262.312 608.324 Q257.441 608.324 254.864 604.6 Q252.287 600.857 252.287 593.767 Q252.287 587.109 255.447 583.159 Q258.607 579.191 263.929 579.191 Q265.359 579.191 266.807 579.473 Q268.274 579.755 269.854 580.319 Z" fill="#000000" fill-rule="evenodd" fill-opacity="1" /><path clip-path="url(#clip600)" d="M 0 0 M118.543 407.435 L136.899 407.435 L136.899 411.37 L122.825 411.37 L122.825 419.842 Q123.843 419.495 124.862 419.333 Q125.88 419.148 126.899 419.148 Q132.686 419.148 136.066 422.319 Q139.445 425.49 139.445 430.907 Q139.445 436.485 135.973 439.587 Q132.501 442.666 126.181 442.666 Q124.005 442.666 121.737 442.296 Q119.492 441.925 117.084 441.184 L117.084 436.485 Q119.168 437.62 121.39 438.175 Q123.612 438.731 126.089 438.731 Q130.093 438.731 132.431 436.624 Q134.769 434.518 134.769 430.907 Q134.769 427.296 132.431 425.189 Q130.093 423.083 126.089 423.083 Q124.214 423.083 122.339 423.499 Q120.487 423.916 118.543 424.796 L118.543 407.435 Z" fill="#000000" fill-rule="evenodd" fill-opacity="1" /><path clip-path="url(#clip600)" d="M 0 0 M172.686 416.532 L162.107 427.157 L172.686 437.735 L169.931 440.536 L159.306 429.911 L148.681 440.536 L145.95 437.735 L156.505 427.157 L145.95 416.532 L148.681 413.731 L159.306 424.356 L169.931 413.731 L172.686 416.532 Z" fill="#000000" fill-rule="evenodd" fill-opacity="1" /><path clip-path="url(#clip600)" d="M 0 0 M178.565 438.059 L186.204 438.059 L186.204 411.694 L177.894 413.361 L177.894 409.101 L186.158 407.435 L190.834 407.435 L190.834 438.059 L198.473 438.059 L198.473 441.995 L178.565 441.995 L178.565 438.059 Z" fill="#000000" fill-rule="evenodd" fill-opacity="1" /><path clip-path="url(#clip600)" d="M 0 0 M213.542 410.513 Q209.931 410.513 208.102 414.078 Q206.297 417.62 206.297 424.749 Q206.297 431.856 208.102 435.421 Q209.931 438.962 213.542 438.962 Q217.176 438.962 218.982 435.421 Q220.811 431.856 220.811 424.749 Q220.811 417.62 218.982 414.078 Q217.176 410.513 213.542 410.513 M213.542 406.81 Q219.352 406.81 222.408 411.416 Q225.486 415.999 225.486 424.749 Q225.486 433.476 222.408 438.083 Q219.352 442.666 213.542 442.666 Q207.732 442.666 204.653 438.083 Q201.598 433.476 201.598 424.749 Q201.598 415.999 204.653 411.416 Q207.732 406.81 213.542 406.81 Z" fill="#000000" fill-rule="evenodd" fill-opacity="1" /><path clip-path="url(#clip600)" d="M 0 0 M225.486 400.911 L249.598 400.911 L249.598 404.108 L225.486 404.108 L225.486 400.911 Z" fill="#000000" fill-rule="evenodd" fill-opacity="1" /><path clip-path="url(#clip600)" d="M 0 0 M262.312 399.03 Q259.754 399.03 258.25 400.779 Q256.764 402.528 256.764 405.575 Q256.764 408.603 258.25 410.371 Q259.754 412.12 262.312 412.12 Q264.87 412.12 266.356 410.371 Q267.86 408.603 267.86 405.575 Q267.86 402.528 266.356 400.779 Q264.87 399.03 262.312 399.03 M269.854 387.125 L269.854 390.586 Q268.425 389.908 266.958 389.551 Q265.509 389.194 264.08 389.194 Q260.318 389.194 258.325 391.733 Q256.35 394.272 256.068 399.406 Q257.178 397.77 258.851 396.905 Q260.525 396.021 262.538 396.021 Q266.769 396.021 269.214 398.598 Q271.678 401.155 271.678 405.575 Q271.678 409.901 269.12 412.515 Q266.563 415.13 262.312 415.13 Q257.441 415.13 254.864 411.406 Q252.287 407.663 252.287 400.572 Q252.287 393.914 255.447 389.965 Q258.607 385.996 263.929 385.996 Q265.359 385.996 266.807 386.279 Q268.274 386.561 269.854 387.125 Z" fill="#000000" fill-rule="evenodd" fill-opacity="1" /><path clip-path="url(#clip600)" d="M 0 0 M127.917 229.657 Q124.769 229.657 122.918 231.81 Q121.089 233.963 121.089 237.712 Q121.089 241.439 122.918 243.615 Q124.769 245.768 127.917 245.768 Q131.066 245.768 132.894 243.615 Q134.746 241.439 134.746 237.712 Q134.746 233.963 132.894 231.81 Q131.066 229.657 127.917 229.657 M137.2 215.004 L137.2 219.264 Q135.441 218.43 133.635 217.99 Q131.853 217.551 130.093 217.551 Q125.464 217.551 123.01 220.676 Q120.58 223.801 120.232 230.12 Q121.598 228.106 123.658 227.041 Q125.718 225.953 128.195 225.953 Q133.404 225.953 136.413 229.125 Q139.445 232.273 139.445 237.712 Q139.445 243.037 136.297 246.254 Q133.149 249.472 127.917 249.472 Q121.922 249.472 118.751 244.888 Q115.58 240.282 115.58 231.555 Q115.58 223.361 119.468 218.5 Q123.357 213.615 129.908 213.615 Q131.667 213.615 133.45 213.963 Q135.255 214.31 137.2 215.004 Z" fill="#000000" fill-rule="evenodd" fill-opacity="1" /><path clip-path="url(#clip600)" d="M 0 0 M172.686 223.338 L162.107 233.963 L172.686 244.541 L169.931 247.342 L159.306 236.717 L148.681 247.342 L145.95 244.541 L156.505 233.963 L145.95 223.338 L148.681 220.537 L159.306 231.162 L169.931 220.537 L172.686 223.338 Z" fill="#000000" fill-rule="evenodd" fill-opacity="1" /><path clip-path="url(#clip600)" d="M 0 0 M178.565 244.865 L186.204 244.865 L186.204 218.5 L177.894 220.166 L177.894 215.907 L186.158 214.24 L190.834 214.24 L190.834 244.865 L198.473 244.865 L198.473 248.8 L178.565 248.8 L178.565 244.865 Z" fill="#000000" fill-rule="evenodd" fill-opacity="1" /><path clip-path="url(#clip600)" d="M 0 0 M213.542 217.319 Q209.931 217.319 208.102 220.884 Q206.297 224.426 206.297 231.555 Q206.297 238.662 208.102 242.226 Q209.931 245.768 213.542 245.768 Q217.176 245.768 218.982 242.226 Q220.811 238.662 220.811 231.555 Q220.811 224.426 218.982 220.884 Q217.176 217.319 213.542 217.319 M213.542 213.615 Q219.352 213.615 222.408 218.222 Q225.486 222.805 225.486 231.555 Q225.486 240.282 222.408 244.888 Q219.352 249.472 213.542 249.472 Q207.732 249.472 204.653 244.888 Q201.598 240.282 201.598 231.555 Q201.598 222.805 204.653 218.222 Q207.732 213.615 213.542 213.615 Z" fill="#000000" fill-rule="evenodd" fill-opacity="1" /><path clip-path="url(#clip600)" d="M 0 0 M225.486 207.717 L249.598 207.717 L249.598 210.914 L225.486 210.914 L225.486 207.717 Z" fill="#000000" fill-rule="evenodd" fill-opacity="1" /><path clip-path="url(#clip600)" d="M 0 0 M262.312 205.836 Q259.754 205.836 258.25 207.585 Q256.764 209.334 256.764 212.381 Q256.764 215.409 258.25 217.177 Q259.754 218.926 262.312 218.926 Q264.87 218.926 266.356 217.177 Q267.86 215.409 267.86 212.381 Q267.86 209.334 266.356 207.585 Q264.87 205.836 262.312 205.836 M269.854 193.931 L269.854 197.391 Q268.425 196.714 266.958 196.357 Q265.509 195.999 264.08 195.999 Q260.318 195.999 258.325 198.539 Q256.35 201.078 256.068 206.212 Q257.178 204.576 258.851 203.711 Q260.525 202.827 262.538 202.827 Q266.769 202.827 269.214 205.403 Q271.678 207.961 271.678 212.381 Q271.678 216.707 269.12 219.321 Q266.563 221.935 262.312 221.935 Q257.441 221.935 254.864 218.211 Q252.287 214.469 252.287 207.378 Q252.287 200.72 255.447 196.771 Q258.607 192.802 263.929 192.802 Q265.359 192.802 266.807 193.084 Q268.274 193.366 269.854 193.931 Z" fill="#000000" fill-rule="evenodd" fill-opacity="1" /><path clip-path="url(#clip600)" d="M 0 0 M46.0847 1084.12 Q46.0847 1091.21 47.7079 1093.95 Q49.3312 1096.69 53.2461 1096.69 Q56.3653 1096.69 58.2114 1094.65 Q60.0256 1092.58 60.0256 1089.05 Q60.0256 1084.18 56.5881 1081.25 Q53.1188 1078.29 47.3897 1078.29 L46.0847 1078.29 L46.0847 1084.12 M43.6657 1072.44 L64.0042 1072.44 L64.0042 1078.29 L58.5933 1078.29 Q61.8398 1080.3 63.3994 1083.29 Q64.9272 1086.28 64.9272 1090.61 Q64.9272 1096.08 61.8716 1099.33 Q58.7843 1102.55 53.6281 1102.55 Q47.6125 1102.55 44.5569 1098.53 Q41.5014 1094.49 41.5014 1086.5 L41.5014 1078.29 L40.9285 1078.29 Q36.8862 1078.29 34.6901 1080.97 Q32.4621 1083.61 32.4621 1088.41 Q32.4621 1091.47 33.1941 1094.37 Q33.9262 1097.26 35.3903 1099.94 L29.9795 1099.94 Q28.7381 1096.72 28.1334 1093.7 Q27.4968 1090.67 27.4968 1087.81 Q27.4968 1080.07 31.5072 1076.25 Q35.5176 1072.44 43.6657 1072.44 Z" fill="#000000" fill-rule="evenodd" fill-opacity="1" /><path clip-path="url(#clip600)" d="M 0 0 M49.9359 1066.9 L28.3562 1066.9 L28.3562 1061.04 L49.7131 1061.04 Q54.7739 1061.04 57.3202 1059.07 Q59.8346 1057.09 59.8346 1053.15 Q59.8346 1048.4 56.8109 1045.67 Q53.7872 1042.9 48.5673 1042.9 L28.3562 1042.9 L28.3562 1037.04 L64.0042 1037.04 L64.0042 1042.9 L58.5296 1042.9 Q61.7762 1045.03 63.3676 1047.86 Q64.9272 1050.66 64.9272 1054.39 Q64.9272 1060.53 61.1078 1063.71 Q57.2883 1066.9 49.9359 1066.9 M27.4968 1052.16 L27.4968 1052.16 Z" fill="#000000" fill-rule="evenodd" fill-opacity="1" /><path clip-path="url(#clip600)" d="M 0 0 M18.2347 1025.11 L28.3562 1025.11 L28.3562 1013.04 L32.9077 1013.04 L32.9077 1025.11 L52.2594 1025.11 Q56.6199 1025.11 57.8613 1023.93 Q59.1026 1022.72 59.1026 1019.06 L59.1026 1013.04 L64.0042 1013.04 L64.0042 1019.06 Q64.0042 1025.84 61.4897 1028.42 Q58.9434 1030.99 52.2594 1030.99 L32.9077 1030.99 L32.9077 1035.29 L28.3562 1035.29 L28.3562 1030.99 L18.2347 1030.99 L18.2347 1025.11 Z" fill="#000000" fill-rule="evenodd" fill-opacity="1" /><path clip-path="url(#clip600)" d="M 0 0 M32.4621 993.087 Q32.4621 997.797 36.1542 1000.53 Q39.8145 1003.27 46.212 1003.27 Q52.6095 1003.27 56.3017 1000.57 Q59.9619 997.829 59.9619 993.087 Q59.9619 988.408 56.2698 985.671 Q52.5777 982.933 46.212 982.933 Q39.8781 982.933 36.186 985.671 Q32.4621 988.408 32.4621 993.087 M27.4968 993.087 Q27.4968 985.448 32.4621 981.087 Q37.4273 976.727 46.212 976.727 Q54.9649 976.727 59.9619 981.087 Q64.9272 985.448 64.9272 993.087 Q64.9272 1000.76 59.9619 1005.12 Q54.9649 1009.45 46.212 1009.45 Q37.4273 1009.45 32.4621 1005.12 Q27.4968 1000.76 27.4968 993.087 Z" fill="#000000" fill-rule="evenodd" fill-opacity="1" /><path clip-path="url(#clip600)" d="M 0 0 M29.7248 944.93 L35.1993 944.93 Q33.8307 947.413 33.1623 949.927 Q32.4621 952.41 32.4621 954.956 Q32.4621 960.653 36.0905 963.804 Q39.6872 966.956 46.212 966.956 Q52.7369 966.956 56.3653 963.804 Q59.9619 960.653 59.9619 954.956 Q59.9619 952.41 59.2935 949.927 Q58.5933 947.413 57.2247 944.93 L62.6355 944.93 Q63.7814 947.381 64.3543 950.023 Q64.9272 952.633 64.9272 955.593 Q64.9272 963.645 59.8664 968.388 Q54.8057 973.13 46.212 973.13 Q37.491 973.13 32.4939 968.356 Q27.4968 963.55 27.4968 955.211 Q27.4968 952.505 28.0697 949.927 Q28.6108 947.349 29.7248 944.93 Z" fill="#000000" fill-rule="evenodd" fill-opacity="1" /><path clip-path="url(#clip600)" d="M 0 0 M32.4621 924.974 Q32.4621 929.684 36.1542 932.422 Q39.8145 935.159 46.212 935.159 Q52.6095 935.159 56.3017 932.453 Q59.9619 929.716 59.9619 924.974 Q59.9619 920.295 56.2698 917.558 Q52.5777 914.82 46.212 914.82 Q39.8781 914.82 36.186 917.558 Q32.4621 920.295 32.4621 924.974 M27.4968 924.974 Q27.4968 917.335 32.4621 912.974 Q37.4273 908.614 46.212 908.614 Q54.9649 908.614 59.9619 912.974 Q64.9272 917.335 64.9272 924.974 Q64.9272 932.644 59.9619 937.005 Q54.9649 941.334 46.212 941.334 Q37.4273 941.334 32.4621 937.005 Q27.4968 932.644 27.4968 924.974 Z" fill="#000000" fill-rule="evenodd" fill-opacity="1" /><path clip-path="url(#clip600)" d="M 0 0 M42.4881 872.839 L64.0042 872.839 L64.0042 878.695 L42.679 878.695 Q37.6183 878.695 35.1038 880.668 Q32.5894 882.642 32.5894 886.588 Q32.5894 891.331 35.6131 894.068 Q38.6368 896.805 43.8567 896.805 L64.0042 896.805 L64.0042 902.694 L28.3562 902.694 L28.3562 896.805 L33.8944 896.805 Q30.6797 894.705 29.0883 891.872 Q27.4968 889.007 27.4968 885.284 Q27.4968 879.141 31.3163 875.99 Q35.1038 872.839 42.4881 872.839 Z" fill="#000000" fill-rule="evenodd" fill-opacity="1" /><path clip-path="url(#clip600)" d="M 0 0 M28.3562 870.897 L28.3562 864.69 L58.275 853.55 L28.3562 842.41 L28.3562 836.204 L64.0042 849.572 L64.0042 857.529 L28.3562 870.897 Z" fill="#000000" fill-rule="evenodd" fill-opacity="1" /><path clip-path="url(#clip600)" d="M 0 0 M44.7161 799.569 L47.5806 799.569 L47.5806 826.496 Q53.6281 826.114 56.8109 822.868 Q59.9619 819.589 59.9619 813.765 Q59.9619 810.391 59.1344 807.24 Q58.3069 804.057 56.6518 800.938 L62.1899 800.938 Q63.5267 804.089 64.227 807.399 Q64.9272 810.709 64.9272 814.115 Q64.9272 822.645 59.9619 827.642 Q54.9967 832.607 46.5303 832.607 Q37.7774 832.607 32.6531 827.897 Q27.4968 823.154 27.4968 815.133 Q27.4968 807.94 32.1438 803.771 Q36.7589 799.569 44.7161 799.569 M42.9973 805.426 Q38.1912 805.489 35.3266 808.131 Q32.4621 810.741 32.4621 815.07 Q32.4621 819.971 35.2312 822.931 Q38.0002 825.86 43.0292 826.305 L42.9973 805.426 Z" fill="#000000" fill-rule="evenodd" fill-opacity="1" /><path clip-path="url(#clip600)" d="M 0 0 M33.8307 772.77 Q33.2578 773.756 33.0032 774.934 Q32.7167 776.08 32.7167 777.48 Q32.7167 782.446 35.9632 785.119 Q39.1779 787.761 45.2253 787.761 L64.0042 787.761 L64.0042 793.649 L28.3562 793.649 L28.3562 787.761 L33.8944 787.761 Q30.6479 785.915 29.0883 782.955 Q27.4968 779.995 27.4968 775.762 Q27.4968 775.157 27.5923 774.425 Q27.656 773.693 27.8151 772.801 L33.8307 772.77 Z" fill="#000000" fill-rule="evenodd" fill-opacity="1" /><path clip-path="url(#clip600)" d="M 0 0 M29.4065 743.901 L34.9447 743.901 Q33.6716 746.384 33.035 749.057 Q32.3984 751.731 32.3984 754.596 Q32.3984 758.956 33.7352 761.152 Q35.072 763.317 37.7456 763.317 Q39.7826 763.317 40.9603 761.757 Q42.1061 760.197 43.1565 755.487 L43.6021 753.482 Q44.9389 747.243 47.3897 744.633 Q49.8086 741.991 54.1691 741.991 Q59.1344 741.991 62.0308 745.938 Q64.9272 749.853 64.9272 756.728 Q64.9272 759.593 64.3543 762.712 Q63.8132 765.799 62.6992 769.237 L56.6518 769.237 Q58.3387 765.99 59.198 762.839 Q60.0256 759.688 60.0256 756.601 Q60.0256 752.463 58.6251 750.235 Q57.1929 748.007 54.6147 748.007 Q52.2276 748.007 50.9545 749.63 Q49.6813 751.222 48.5037 756.664 L48.0262 758.701 Q46.8804 764.144 44.5251 766.563 Q42.138 768.982 38.0002 768.982 Q32.9713 768.982 30.2341 765.417 Q27.4968 761.852 27.4968 755.296 Q27.4968 752.049 27.9743 749.185 Q28.4517 746.32 29.4065 743.901 Z" fill="#000000" fill-rule="evenodd" fill-opacity="1" /><path clip-path="url(#clip600)" d="M 0 0 M28.3562 735.849 L28.3562 729.992 L64.0042 729.992 L64.0042 735.849 L28.3562 735.849 M14.479 735.849 L14.479 729.992 L21.895 729.992 L21.895 735.849 L14.479 735.849 Z" fill="#000000" fill-rule="evenodd" fill-opacity="1" /><path clip-path="url(#clip600)" d="M 0 0 M32.4621 710.036 Q32.4621 714.746 36.1542 717.483 Q39.8145 720.221 46.212 720.221 Q52.6095 720.221 56.3017 717.515 Q59.9619 714.778 59.9619 710.036 Q59.9619 705.357 56.2698 702.62 Q52.5777 699.882 46.212 699.882 Q39.8781 699.882 36.186 702.62 Q32.4621 705.357 32.4621 710.036 M27.4968 710.036 Q27.4968 702.397 32.4621 698.036 Q37.4273 693.676 46.212 693.676 Q54.9649 693.676 59.9619 698.036 Q64.9272 702.397 64.9272 710.036 Q64.9272 717.706 59.9619 722.067 Q54.9649 726.395 46.212 726.395 Q37.4273 726.395 32.4621 722.067 Q27.4968 717.706 27.4968 710.036 Z" fill="#000000" fill-rule="evenodd" fill-opacity="1" /><path clip-path="url(#clip600)" d="M 0 0 M42.4881 657.9 L64.0042 657.9 L64.0042 663.757 L42.679 663.757 Q37.6183 663.757 35.1038 665.73 Q32.5894 667.704 32.5894 671.65 Q32.5894 676.393 35.6131 679.13 Q38.6368 681.867 43.8567 681.867 L64.0042 681.867 L64.0042 687.756 L28.3562 687.756 L28.3562 681.867 L33.8944 681.867 Q30.6797 679.767 29.0883 676.934 Q27.4968 674.069 27.4968 670.345 Q27.4968 664.203 31.3163 661.051 Q35.1038 657.9 42.4881 657.9 Z" fill="#000000" fill-rule="evenodd" fill-opacity="1" /><path clip-path="url(#clip600)" d="M 0 0 M33.8307 610.38 Q33.2578 611.367 33.0032 612.545 Q32.7167 613.691 32.7167 615.091 Q32.7167 620.056 35.9632 622.73 Q39.1779 625.372 45.2253 625.372 L64.0042 625.372 L64.0042 631.26 L28.3562 631.26 L28.3562 625.372 L33.8944 625.372 Q30.6479 623.526 29.0883 620.566 Q27.4968 617.606 27.4968 613.372 Q27.4968 612.768 27.5923 612.036 Q27.656 611.303 27.8151 610.412 L33.8307 610.38 Z" fill="#000000" fill-rule="evenodd" fill-opacity="1" /><path clip-path="url(#clip600)" d="M 0 0 M46.0847 588.037 Q46.0847 595.135 47.7079 597.872 Q49.3312 600.609 53.2461 600.609 Q56.3653 600.609 58.2114 598.572 Q60.0256 596.503 60.0256 592.97 Q60.0256 588.1 56.5881 585.172 Q53.1188 582.212 47.3897 582.212 L46.0847 582.212 L46.0847 588.037 M43.6657 576.356 L64.0042 576.356 L64.0042 582.212 L58.5933 582.212 Q61.8398 584.217 63.3994 587.209 Q64.9272 590.201 64.9272 594.53 Q64.9272 600.004 61.8716 603.251 Q58.7843 606.466 53.6281 606.466 Q47.6125 606.466 44.5569 602.455 Q41.5014 598.413 41.5014 590.424 L41.5014 582.212 L40.9285 582.212 Q36.8862 582.212 34.6901 584.886 Q32.4621 587.528 32.4621 592.334 Q32.4621 595.389 33.1941 598.286 Q33.9262 601.182 35.3903 603.856 L29.9795 603.856 Q28.7381 600.641 28.1334 597.617 Q27.4968 594.594 27.4968 591.729 Q27.4968 583.995 31.5072 580.175 Q35.5176 576.356 43.6657 576.356 Z" fill="#000000" fill-rule="evenodd" fill-opacity="1" /><path clip-path="url(#clip600)" d="M 0 0 M18.2347 564.42 L28.3562 564.42 L28.3562 552.357 L32.9077 552.357 L32.9077 564.42 L52.2594 564.42 Q56.6199 564.42 57.8613 563.242 Q59.1026 562.033 59.1026 558.373 L59.1026 552.357 L64.0042 552.357 L64.0042 558.373 Q64.0042 565.152 61.4897 567.73 Q58.9434 570.308 52.2594 570.308 L32.9077 570.308 L32.9077 574.605 L28.3562 574.605 L28.3562 570.308 L18.2347 570.308 L18.2347 564.42 Z" fill="#000000" fill-rule="evenodd" fill-opacity="1" /><path clip-path="url(#clip600)" d="M 0 0 M44.7161 515.722 L47.5806 515.722 L47.5806 542.649 Q53.6281 542.267 56.8109 539.021 Q59.9619 535.743 59.9619 529.918 Q59.9619 526.544 59.1344 523.393 Q58.3069 520.21 56.6518 517.091 L62.1899 517.091 Q63.5267 520.242 64.227 523.552 Q64.9272 526.862 64.9272 530.268 Q64.9272 538.798 59.9619 543.795 Q54.9967 548.76 46.5303 548.76 Q37.7774 548.76 32.6531 544.05 Q27.4968 539.307 27.4968 531.287 Q27.4968 524.093 32.1438 519.924 Q36.7589 515.722 44.7161 515.722 M42.9973 521.579 Q38.1912 521.643 35.3266 524.284 Q32.4621 526.894 32.4621 531.223 Q32.4621 536.124 35.2312 539.085 Q38.0002 542.013 43.0292 542.458 L42.9973 521.579 Z" fill="#000000" fill-rule="evenodd" fill-opacity="1" /><path clip-path="url(#clip600)" d="M 0 0 M14.479 489.4 L14.479 475.905 L19.0304 475.905 L19.0304 483.544 L68.0464 483.544 L68.0464 475.905 L72.5979 475.905 L72.5979 489.4 L14.479 489.4 Z" fill="#000000" fill-rule="evenodd" fill-opacity="1" /><path clip-path="url(#clip600)" d="M 0 0 M58.5933 467.82 L58.5933 457.317 L22.3406 457.317 L24.6323 468.743 L18.7758 468.743 L16.4842 457.381 L16.4842 450.951 L58.5933 450.951 L58.5933 440.448 L64.0042 440.448 L64.0042 467.82 L58.5933 467.82 Z" fill="#000000" fill-rule="evenodd" fill-opacity="1" /><path clip-path="url(#clip600)" d="M 0 0 M16.4842 423.897 L16.4842 418.486 L70.0516 435.037 L70.0516 440.448 L16.4842 423.897 Z" fill="#000000" fill-rule="evenodd" fill-opacity="1" /><path clip-path="url(#clip600)" d="M 0 0 M29.4065 389.618 L34.9447 389.618 Q33.6716 392.1 33.035 394.774 Q32.3984 397.448 32.3984 400.312 Q32.3984 404.673 33.7352 406.869 Q35.072 409.033 37.7456 409.033 Q39.7826 409.033 40.9603 407.474 Q42.1061 405.914 43.1565 401.203 L43.6021 399.198 Q44.9389 392.96 47.3897 390.35 Q49.8086 387.708 54.1691 387.708 Q59.1344 387.708 62.0308 391.655 Q64.9272 395.57 64.9272 402.445 Q64.9272 405.309 64.3543 408.428 Q63.8132 411.516 62.6992 414.953 L56.6518 414.953 Q58.3387 411.707 59.198 408.556 Q60.0256 405.405 60.0256 402.317 Q60.0256 398.18 58.6251 395.952 Q57.1929 393.724 54.6147 393.724 Q52.2276 393.724 50.9545 395.347 Q49.6813 396.938 48.5037 402.381 L48.0262 404.418 Q46.8804 409.861 44.5251 412.28 Q42.138 414.699 38.0002 414.699 Q32.9713 414.699 30.2341 411.134 Q27.4968 407.569 27.4968 401.012 Q27.4968 397.766 27.9743 394.901 Q28.4517 392.037 29.4065 389.618 Z" fill="#000000" fill-rule="evenodd" fill-opacity="1" /><path clip-path="url(#clip600)" d="M 0 0 M14.479 367.879 L72.5979 367.879 L72.5979 381.374 L68.0464 381.374 L68.0464 373.767 L19.0304 373.767 L19.0304 381.374 L14.479 381.374 L14.479 367.879 Z" fill="#000000" fill-rule="evenodd" fill-opacity="1" /><polyline clip-path="url(#clip602)" style="stroke:#009af9; stroke-width:12; stroke-opacity:1; fill:none" points="
  365.558,1384.24 385.046,1384.24 404.534,1384.24 424.022,1384.24 443.51,1384.24 462.998,1384.24 482.486,1384.24 501.974,1384.24 521.462,1384.24 540.95,1384.24 
  560.439,1383.26 579.927,1373.5 599.415,1363.75 618.903,1353.99 638.391,1344.23 657.879,1334.47 677.367,1324.72 696.855,1314.96 716.343,1305.2 735.831,1295.45 
  755.319,1285.69 774.807,1275.93 794.295,1266.17 813.783,1256.42 833.271,1246.66 852.759,1236.9 872.248,1227.14 891.736,1217.39 911.224,1207.63 930.712,1197.87 
  950.2,1188.12 969.688,1178.36 989.176,1168.6 1008.66,1158.84 1028.15,1149.09 1047.64,1139.33 1067.13,1129.57 1086.62,1119.81 1106.1,1110.06 1125.59,1100.3 
  1145.08,1090.54 1164.57,1080.79 1184.06,1071.03 1203.54,1061.27 1223.03,1051.51 1242.52,1041.76 1262.01,1032 1281.5,1022.24 1300.99,1012.48 1320.47,1002.73 
  1339.96,992.97 1359.45,983.213 1378.94,973.456 1398.43,963.698 1417.91,953.941 1437.4,944.184 1456.89,934.427 1476.38,924.669 1495.87,914.912 1515.35,905.155 
  1534.84,895.398 1554.33,885.64 1573.82,875.883 1593.31,866.126 1612.79,856.368 1632.28,846.611 1651.77,836.854 1671.26,827.097 1690.75,817.339 1710.23,807.582 
  1729.72,797.825 1749.21,788.068 1768.7,778.31 1788.19,768.553 1807.67,758.796 1827.16,749.039 1846.65,739.281 1866.14,729.524 1885.63,719.767 1905.12,710.009 
  1924.6,700.252 1944.09,690.495 1963.58,680.738 1983.07,670.98 2002.56,661.223 2022.04,651.466 2041.53,641.709 2061.02,631.951 2080.51,622.194 2100,612.437 
  2119.48,602.68 2138.97,592.922 2158.46,583.165 2177.95,573.408 2197.44,563.65 2216.92,553.893 2236.41,544.136 2255.9,534.379 2275.39,524.621 2294.88,514.864 
  
  "/>
<polyline clip-path="url(#clip602)" style="stroke:#e26f46; stroke-width:12; stroke-opacity:1; fill:none" points="
  365.558,1384.06 385.046,1263.96 404.534,1211.98 424.022,1172.4 443.51,1139.33 462.998,1110.44 482.486,1084.56 501.974,1060.97 521.462,1039.22 540.95,1018.98 
  560.439,1000.01 579.927,982.143 599.415,965.233 618.903,949.171 638.391,933.867 657.879,919.245 677.367,905.244 696.855,891.811 716.343,878.9 735.831,866.472 
  755.319,854.493 774.807,842.932 794.295,831.763 813.783,820.963 833.271,810.509 852.759,800.383 872.248,790.568 891.736,781.047 911.224,771.807 930.712,762.835 
  950.2,754.119 969.688,745.648 989.176,737.411 1008.66,729.399 1028.15,721.604 1047.64,714.017 1067.13,706.632 1086.62,699.44 1106.1,692.436 1125.59,685.613 
  1145.08,678.965 1164.57,672.487 1184.06,666.174 1203.54,660.022 1223.03,654.024 1242.52,648.178 1262.01,642.479 1281.5,636.923 1300.99,631.507 1320.47,626.227 
  1339.96,621.079 1359.45,616.061 1378.94,611.17 1398.43,606.402 1417.91,601.755 1437.4,597.226 1456.89,592.813 1476.38,588.513 1495.87,584.324 1515.35,580.244 
  1534.84,576.27 1554.33,572.401 1573.82,568.635 1593.31,564.969 1612.79,561.402 1632.28,557.932 1651.77,554.557 1671.26,551.277 1690.75,548.088 1710.23,544.99 
  1729.72,541.981 1749.21,539.06 1768.7,536.225 1788.19,533.475 1807.67,530.809 1827.16,528.225 1846.65,525.723 1866.14,523.301 1885.63,520.957 1905.12,518.692 
  1924.6,516.503 1944.09,514.39 1963.58,512.351 1983.07,510.387 2002.56,508.495 2022.04,506.674 2041.53,504.925 2061.02,503.246 2080.51,501.636 2100,500.094 
  2119.48,498.62 2138.97,497.212 2158.46,495.87 2177.95,494.594 2197.44,493.382 2216.92,492.233 2236.41,491.148 2255.9,490.125 2275.39,489.164 2294.88,488.264 
  
  "/>
<polyline clip-path="url(#clip602)" style="stroke:#3da44d; stroke-width:12; stroke-opacity:1; fill:none" points="
  365.558,1384.02 385.046,1238.55 404.534,1175.54 424.022,1127.56 443.51,1087.44 462.998,1052.38 482.486,1020.95 501.974,992.301 521.462,965.863 540.95,941.249 
  560.439,918.175 579.927,896.424 599.415,875.83 618.903,856.256 638.391,837.596 657.879,819.758 677.367,802.668 696.855,786.261 716.343,770.482 735.831,755.284 
  755.319,740.626 774.807,726.47 794.295,712.786 813.783,699.544 833.271,686.718 852.759,674.286 872.248,662.227 891.736,650.521 911.224,639.153 930.712,628.105 
  950.2,617.364 969.688,606.916 989.176,596.749 1008.66,586.852 1028.15,577.215 1047.64,567.827 1067.13,558.679 1086.62,549.763 1106.1,541.072 1125.59,532.597 
  1145.08,524.332 1164.57,516.27 1184.06,508.406 1203.54,500.732 1223.03,493.244 1242.52,485.937 1262.01,478.805 1281.5,471.844 1300.99,465.05 1320.47,458.418 
  1339.96,451.944 1359.45,445.624 1378.94,439.456 1398.43,433.435 1417.91,427.557 1437.4,421.821 1456.89,416.223 1476.38,410.759 1495.87,405.427 1515.35,400.225 
  1534.84,395.15 1554.33,390.2 1573.82,385.371 1593.31,380.662 1612.79,376.07 1632.28,371.594 1651.77,367.232 1671.26,362.981 1690.75,358.839 1710.23,354.805 
  1729.72,350.877 1749.21,347.053 1768.7,343.332 1788.19,339.711 1807.67,336.19 1827.16,332.767 1846.65,329.44 1866.14,326.209 1885.63,323.071 1905.12,320.025 
  1924.6,317.07 1944.09,314.205 1963.58,311.429 1983.07,308.74 2002.56,306.137 2022.04,303.62 2041.53,301.186 2061.02,298.835 2080.51,296.566 2100,294.379 
  2119.48,292.271 2138.97,290.242 2158.46,288.291 2177.95,286.417 2197.44,284.62 2216.92,282.898 2236.41,281.25 2255.9,279.677 2275.39,278.176 2294.88,276.747 
  
  "/>
<polyline clip-path="url(#clip602)" style="stroke:#c271d2; stroke-width:12; stroke-opacity:1; fill:none" points="
  365.558,1383.98 385.046,1215.58 404.534,1142.63 424.022,1087.05 443.51,1040.57 462.998,999.936 482.486,963.503 501.974,930.276 521.462,899.608 540.95,871.047 
  560.439,844.263 579.927,819.008 599.415,795.087 618.903,772.345 638.391,750.656 657.879,729.916 677.367,710.037 696.855,690.947 716.343,672.58 735.831,654.883 
  755.319,637.808 774.807,621.312 794.295,605.359 813.783,589.915 833.271,574.951 852.759,560.439 872.248,546.357 891.736,532.682 911.224,519.394 930.712,506.475 
  950.2,493.909 969.688,481.68 989.176,469.775 1008.66,458.179 1028.15,446.881 1047.64,435.87 1067.13,425.136 1086.62,414.668 1106.1,404.457 1125.59,394.495 
  1145.08,384.774 1164.57,375.286 1184.06,366.024 1203.54,356.982 1223.03,348.153 1242.52,339.53 1262.01,331.109 1281.5,322.885 1300.99,314.851 1320.47,307.003 
  1339.96,299.337 1359.45,291.847 1378.94,284.531 1398.43,277.383 1417.91,270.4 1437.4,263.579 1456.89,256.916 1476.38,250.407 1495.87,244.049 1515.35,237.839 
  1534.84,231.775 1554.33,225.853 1573.82,220.071 1593.31,214.426 1612.79,208.915 1632.28,203.537 1651.77,198.288 1671.26,193.167 1690.75,188.171 1710.23,183.298 
  1729.72,178.546 1749.21,173.913 1768.7,169.397 1788.19,164.997 1807.67,160.711 1827.16,156.536 1846.65,152.472 1866.14,148.516 1885.63,144.667 1905.12,140.923 
  1924.6,137.284 1944.09,133.747 1963.58,130.311 1983.07,126.975 2002.56,123.737 2022.04,120.596 2041.53,117.552 2061.02,114.602 2080.51,111.745 2100,108.981 
  2119.48,106.308 2138.97,103.726 2158.46,101.232 2177.95,98.8264 2197.44,96.5077 2216.92,94.2751 2236.41,92.1275 2255.9,90.064 2275.39,88.0837 2294.88,86.1857 
  
  "/>
<path clip-path="url(#clip600)" d="
M1767.82 395.509 L2284.59 395.509 L2284.59 93.1086 L1767.82 93.1086  Z
  " fill="#ffffff" fill-rule="evenodd" fill-opacity="1"/>
<polyline clip-path="url(#clip600)" style="stroke:#000000; stroke-width:4; stroke-opacity:1; fill:none" points="
  1767.82,395.509 2284.59,395.509 2284.59,93.1086 1767.82,93.1086 1767.82,395.509 
  "/>
<polyline clip-path="url(#clip600)" style="stroke:#009af9; stroke-width:4; stroke-opacity:1; fill:none" points="
  1790.54,153.589 1926.88,153.589 
  "/>
<path clip-path="url(#clip600)" d="M 0 0 M1965.99 154.665 Q1967.5 155.174 1968.91 156.841 Q1970.35 158.508 1971.78 161.424 L1976.53 170.869 L1971.5 170.869 L1967.08 162.003 Q1965.37 158.531 1963.75 157.396 Q1962.15 156.262 1959.37 156.262 L1954.28 156.262 L1954.28 170.869 L1949.6 170.869 L1949.6 136.309 L1960.16 136.309 Q1966.09 136.309 1969 138.785 Q1971.92 141.262 1971.92 146.262 Q1971.92 149.526 1970.39 151.679 Q1968.89 153.832 1965.99 154.665 M1954.28 140.151 L1954.28 152.42 L1960.16 152.42 Q1963.54 152.42 1965.25 150.869 Q1966.99 149.295 1966.99 146.262 Q1966.99 143.23 1965.25 141.702 Q1963.54 140.151 1960.16 140.151 L1954.28 140.151 Z" fill="#000000" fill-rule="evenodd" fill-opacity="1" /><path clip-path="url(#clip600)" d="M 0 0 M1991.73 157.836 Q1986.57 157.836 1984.58 159.017 Q1982.59 160.197 1982.59 163.045 Q1982.59 165.313 1984.07 166.656 Q1985.58 167.975 1988.15 167.975 Q1991.69 167.975 1993.82 165.475 Q1995.97 162.952 1995.97 158.785 L1995.97 157.836 L1991.73 157.836 M2000.23 156.077 L2000.23 170.869 L1995.97 170.869 L1995.97 166.933 Q1994.51 169.295 1992.34 170.429 Q1990.16 171.54 1987.01 171.54 Q1983.03 171.54 1980.67 169.318 Q1978.33 167.072 1978.33 163.322 Q1978.33 158.947 1981.25 156.725 Q1984.19 154.503 1990 154.503 L1995.97 154.503 L1995.97 154.086 Q1995.97 151.147 1994.03 149.549 Q1992.1 147.929 1988.61 147.929 Q1986.39 147.929 1984.28 148.461 Q1982.17 148.994 1980.23 150.059 L1980.23 146.123 Q1982.57 145.221 1984.77 144.781 Q1986.97 144.318 1989.05 144.318 Q1994.67 144.318 1997.45 147.234 Q2000.23 150.151 2000.23 156.077 Z" fill="#000000" fill-rule="evenodd" fill-opacity="1" /><path clip-path="url(#clip600)" d="M 0 0 M2004.7 144.943 L2008.96 144.943 L2008.96 170.869 L2004.7 170.869 L2004.7 144.943 M2004.7 134.85 L2008.96 134.85 L2008.96 140.244 L2004.7 140.244 L2004.7 134.85 Z" fill="#000000" fill-rule="evenodd" fill-opacity="1" /><path clip-path="url(#clip600)" d="M 0 0 M2034.97 155.221 L2034.97 170.869 L2030.72 170.869 L2030.72 155.359 Q2030.72 151.679 2029.28 149.85 Q2027.85 148.022 2024.97 148.022 Q2021.53 148.022 2019.54 150.221 Q2017.54 152.42 2017.54 156.216 L2017.54 170.869 L2013.26 170.869 L2013.26 144.943 L2017.54 144.943 L2017.54 148.971 Q2019.07 146.633 2021.13 145.475 Q2023.22 144.318 2025.92 144.318 Q2030.39 144.318 2032.68 147.096 Q2034.97 149.85 2034.97 155.221 Z" fill="#000000" fill-rule="evenodd" fill-opacity="1" /><polyline clip-path="url(#clip600)" style="stroke:#e26f46; stroke-width:4; stroke-opacity:1; fill:none" points="
  1790.54,214.069 1926.88,214.069 
  "/>
<path clip-path="url(#clip600)" d="M 0 0 M1971.85 197.923 L1971.85 202.483 Q1969.19 201.21 1966.83 200.585 Q1964.47 199.96 1962.27 199.96 Q1958.45 199.96 1956.36 201.441 Q1954.3 202.923 1954.3 205.654 Q1954.3 207.946 1955.67 209.127 Q1957.06 210.284 1960.9 211.002 L1963.73 211.58 Q1968.96 212.576 1971.43 215.099 Q1973.93 217.599 1973.93 221.812 Q1973.93 226.835 1970.55 229.427 Q1967.2 232.02 1960.69 232.02 Q1958.24 232.02 1955.46 231.464 Q1952.71 230.909 1949.74 229.821 L1949.74 225.006 Q1952.59 226.603 1955.32 227.413 Q1958.05 228.224 1960.69 228.224 Q1964.7 228.224 1966.87 226.65 Q1969.05 225.076 1969.05 222.159 Q1969.05 219.613 1967.48 218.177 Q1965.92 216.742 1962.36 216.025 L1959.51 215.469 Q1954.28 214.427 1951.94 212.205 Q1949.6 209.983 1949.6 206.025 Q1949.6 201.441 1952.82 198.802 Q1956.06 196.164 1961.73 196.164 Q1964.17 196.164 1966.69 196.603 Q1969.21 197.043 1971.85 197.923 Z" fill="#000000" fill-rule="evenodd" fill-opacity="1" /><path clip-path="url(#clip600)" d="M 0 0 M1999.95 215.701 L1999.95 231.349 L1995.69 231.349 L1995.69 215.839 Q1995.69 212.159 1994.26 210.33 Q1992.82 208.502 1989.95 208.502 Q1986.5 208.502 1984.51 210.701 Q1982.52 212.9 1982.52 216.696 L1982.52 231.349 L1978.24 231.349 L1978.24 205.423 L1982.52 205.423 L1982.52 209.451 Q1984.05 207.113 1986.11 205.955 Q1988.19 204.798 1990.9 204.798 Q1995.37 204.798 1997.66 207.576 Q1999.95 210.33 1999.95 215.701 Z" fill="#000000" fill-rule="evenodd" fill-opacity="1" /><path clip-path="url(#clip600)" d="M 0 0 M2014.47 208.409 Q2011.04 208.409 2009.05 211.094 Q2007.06 213.756 2007.06 218.409 Q2007.06 223.062 2009.03 225.747 Q2011.02 228.409 2014.47 228.409 Q2017.87 228.409 2019.86 225.724 Q2021.85 223.038 2021.85 218.409 Q2021.85 213.802 2019.86 211.117 Q2017.87 208.409 2014.47 208.409 M2014.47 204.798 Q2020.02 204.798 2023.19 208.409 Q2026.36 212.02 2026.36 218.409 Q2026.36 224.775 2023.19 228.409 Q2020.02 232.02 2014.47 232.02 Q2008.89 232.02 2005.72 228.409 Q2002.57 224.775 2002.57 218.409 Q2002.57 212.02 2005.72 208.409 Q2008.89 204.798 2014.47 204.798 Z" fill="#000000" fill-rule="evenodd" fill-opacity="1" /><path clip-path="url(#clip600)" d="M 0 0 M2028.35 205.423 L2032.61 205.423 L2037.94 225.654 L2043.24 205.423 L2048.26 205.423 L2053.59 225.654 L2058.89 205.423 L2063.15 205.423 L2056.36 231.349 L2051.34 231.349 L2045.76 210.099 L2040.16 231.349 L2035.14 231.349 L2028.35 205.423 Z" fill="#000000" fill-rule="evenodd" fill-opacity="1" /><path clip-path="url(#clip600)" d="M 0 0 M2078.08 196.789 L2107.31 196.789 L2107.31 200.724 L2095.04 200.724 L2095.04 231.349 L2090.34 231.349 L2090.34 200.724 L2078.08 200.724 L2078.08 196.789 Z" fill="#000000" fill-rule="evenodd" fill-opacity="1" /><path clip-path="url(#clip600)" d="M 0 0 M2112.34 209.821 L2142.01 209.821 L2142.01 213.71 L2112.34 213.71 L2112.34 209.821 M2112.34 219.265 L2142.01 219.265 L2142.01 223.201 L2112.34 223.201 L2112.34 219.265 Z" fill="#000000" fill-rule="evenodd" fill-opacity="1" /><path clip-path="url(#clip600)" d="M 0 0 M2144.33 216.464 L2156.8 216.464 L2156.8 220.261 L2144.33 220.261 L2144.33 216.464 Z" fill="#000000" fill-rule="evenodd" fill-opacity="1" /><path clip-path="url(#clip600)" d="M 0 0 M2161.92 196.789 L2180.28 196.789 L2180.28 200.724 L2166.2 200.724 L2166.2 209.196 Q2167.22 208.849 2168.24 208.687 Q2169.26 208.502 2170.28 208.502 Q2176.06 208.502 2179.44 211.673 Q2182.82 214.844 2182.82 220.261 Q2182.82 225.839 2179.35 228.941 Q2175.88 232.02 2169.56 232.02 Q2167.38 232.02 2165.11 231.65 Q2162.87 231.279 2160.46 230.538 L2160.46 225.839 Q2162.54 226.974 2164.77 227.529 Q2166.99 228.085 2169.46 228.085 Q2173.47 228.085 2175.81 225.978 Q2178.15 223.872 2178.15 220.261 Q2178.15 216.65 2175.81 214.543 Q2173.47 212.437 2169.46 212.437 Q2167.59 212.437 2165.71 212.853 Q2163.86 213.27 2161.92 214.15 L2161.92 196.789 Z" fill="#000000" fill-rule="evenodd" fill-opacity="1" /><path clip-path="url(#clip600)" d="M 0 0 M2213.35 199.451 L2213.35 204.381 Q2210.99 202.182 2208.31 201.094 Q2205.65 200.006 2202.64 200.006 Q2196.71 200.006 2193.56 203.64 Q2190.41 207.252 2190.41 214.103 Q2190.41 220.932 2193.56 224.566 Q2196.71 228.177 2202.64 228.177 Q2205.65 228.177 2208.31 227.089 Q2210.99 226.001 2213.35 223.802 L2213.35 228.687 Q2210.9 230.353 2208.15 231.187 Q2205.41 232.02 2202.36 232.02 Q2194.51 232.02 2190 227.228 Q2185.48 222.413 2185.48 214.103 Q2185.48 205.77 2190 200.978 Q2194.51 196.164 2202.36 196.164 Q2205.46 196.164 2208.19 196.997 Q2210.95 197.807 2213.35 199.451 Z" fill="#000000" fill-rule="evenodd" fill-opacity="1" /><polyline clip-path="url(#clip600)" style="stroke:#3da44d; stroke-width:4; stroke-opacity:1; fill:none" points="
  1790.54,274.549 1926.88,274.549 
  "/>
<path clip-path="url(#clip600)" d="M 0 0 M1971.85 258.403 L1971.85 262.963 Q1969.19 261.69 1966.83 261.065 Q1964.47 260.44 1962.27 260.44 Q1958.45 260.44 1956.36 261.921 Q1954.3 263.403 1954.3 266.134 Q1954.3 268.426 1955.67 269.607 Q1957.06 270.764 1960.9 271.482 L1963.73 272.06 Q1968.96 273.056 1971.43 275.579 Q1973.93 278.079 1973.93 282.292 Q1973.93 287.315 1970.55 289.907 Q1967.2 292.5 1960.69 292.5 Q1958.24 292.5 1955.46 291.944 Q1952.71 291.389 1949.74 290.301 L1949.74 285.486 Q1952.59 287.083 1955.32 287.893 Q1958.05 288.704 1960.69 288.704 Q1964.7 288.704 1966.87 287.13 Q1969.05 285.556 1969.05 282.639 Q1969.05 280.093 1967.48 278.657 Q1965.92 277.222 1962.36 276.505 L1959.51 275.949 Q1954.28 274.907 1951.94 272.685 Q1949.6 270.463 1949.6 266.505 Q1949.6 261.921 1952.82 259.282 Q1956.06 256.644 1961.73 256.644 Q1964.17 256.644 1966.69 257.083 Q1969.21 257.523 1971.85 258.403 Z" fill="#000000" fill-rule="evenodd" fill-opacity="1" /><path clip-path="url(#clip600)" d="M 0 0 M1999.95 276.181 L1999.95 291.829 L1995.69 291.829 L1995.69 276.319 Q1995.69 272.639 1994.26 270.81 Q1992.82 268.982 1989.95 268.982 Q1986.5 268.982 1984.51 271.181 Q1982.52 273.38 1982.52 277.176 L1982.52 291.829 L1978.24 291.829 L1978.24 265.903 L1982.52 265.903 L1982.52 269.931 Q1984.05 267.593 1986.11 266.435 Q1988.19 265.278 1990.9 265.278 Q1995.37 265.278 1997.66 268.056 Q1999.95 270.81 1999.95 276.181 Z" fill="#000000" fill-rule="evenodd" fill-opacity="1" /><path clip-path="url(#clip600)" d="M 0 0 M2014.47 268.889 Q2011.04 268.889 2009.05 271.574 Q2007.06 274.236 2007.06 278.889 Q2007.06 283.542 2009.03 286.227 Q2011.02 288.889 2014.47 288.889 Q2017.87 288.889 2019.86 286.204 Q2021.85 283.518 2021.85 278.889 Q2021.85 274.282 2019.86 271.597 Q2017.87 268.889 2014.47 268.889 M2014.47 265.278 Q2020.02 265.278 2023.19 268.889 Q2026.36 272.5 2026.36 278.889 Q2026.36 285.255 2023.19 288.889 Q2020.02 292.5 2014.47 292.5 Q2008.89 292.5 2005.72 288.889 Q2002.57 285.255 2002.57 278.889 Q2002.57 272.5 2005.72 268.889 Q2008.89 265.278 2014.47 265.278 Z" fill="#000000" fill-rule="evenodd" fill-opacity="1" /><path clip-path="url(#clip600)" d="M 0 0 M2028.35 265.903 L2032.61 265.903 L2037.94 286.134 L2043.24 265.903 L2048.26 265.903 L2053.59 286.134 L2058.89 265.903 L2063.15 265.903 L2056.36 291.829 L2051.34 291.829 L2045.76 270.579 L2040.16 291.829 L2035.14 291.829 L2028.35 265.903 Z" fill="#000000" fill-rule="evenodd" fill-opacity="1" /><path clip-path="url(#clip600)" d="M 0 0 M2078.08 257.269 L2107.31 257.269 L2107.31 261.204 L2095.04 261.204 L2095.04 291.829 L2090.34 291.829 L2090.34 261.204 L2078.08 261.204 L2078.08 257.269 Z" fill="#000000" fill-rule="evenodd" fill-opacity="1" /><path clip-path="url(#clip600)" d="M 0 0 M2112.34 270.301 L2142.01 270.301 L2142.01 274.19 L2112.34 274.19 L2112.34 270.301 M2112.34 279.745 L2142.01 279.745 L2142.01 283.681 L2112.34 283.681 L2112.34 279.745 Z" fill="#000000" fill-rule="evenodd" fill-opacity="1" /><path clip-path="url(#clip600)" d="M 0 0 M2144.33 276.944 L2156.8 276.944 L2156.8 280.741 L2144.33 280.741 L2144.33 276.944 Z" fill="#000000" fill-rule="evenodd" fill-opacity="1" /><path clip-path="url(#clip600)" d="M 0 0 M2162.68 287.893 L2170.32 287.893 L2170.32 261.528 L2162.01 263.195 L2162.01 258.935 L2170.28 257.269 L2174.95 257.269 L2174.95 287.893 L2182.59 287.893 L2182.59 291.829 L2162.68 291.829 L2162.68 287.893 Z" fill="#000000" fill-rule="evenodd" fill-opacity="1" /><path clip-path="url(#clip600)" d="M 0 0 M2187.71 257.269 L2206.06 257.269 L2206.06 261.204 L2191.99 261.204 L2191.99 269.676 Q2193.01 269.329 2194.02 269.167 Q2195.04 268.982 2196.06 268.982 Q2201.85 268.982 2205.23 272.153 Q2208.61 275.324 2208.61 280.741 Q2208.61 286.319 2205.14 289.421 Q2201.66 292.5 2195.34 292.5 Q2193.17 292.5 2190.9 292.13 Q2188.65 291.759 2186.25 291.018 L2186.25 286.319 Q2188.33 287.454 2190.55 288.009 Q2192.77 288.565 2195.25 288.565 Q2199.26 288.565 2201.59 286.458 Q2203.93 284.352 2203.93 280.741 Q2203.93 277.13 2201.59 275.023 Q2199.26 272.917 2195.25 272.917 Q2193.38 272.917 2191.5 273.333 Q2189.65 273.75 2187.71 274.63 L2187.71 257.269 Z" fill="#000000" fill-rule="evenodd" fill-opacity="1" /><path clip-path="url(#clip600)" d="M 0 0 M2239.14 259.931 L2239.14 264.861 Q2236.78 262.662 2234.09 261.574 Q2231.43 260.486 2228.42 260.486 Q2222.5 260.486 2219.35 264.12 Q2216.2 267.732 2216.2 274.583 Q2216.2 281.412 2219.35 285.046 Q2222.5 288.657 2228.42 288.657 Q2231.43 288.657 2234.09 287.569 Q2236.78 286.481 2239.14 284.282 L2239.14 289.167 Q2236.69 290.833 2233.93 291.667 Q2231.2 292.5 2228.15 292.5 Q2220.3 292.5 2215.78 287.708 Q2211.27 282.893 2211.27 274.583 Q2211.27 266.25 2215.78 261.458 Q2220.3 256.644 2228.15 256.644 Q2231.25 256.644 2233.98 257.477 Q2236.73 258.287 2239.14 259.931 Z" fill="#000000" fill-rule="evenodd" fill-opacity="1" /><polyline clip-path="url(#clip600)" style="stroke:#c271d2; stroke-width:4; stroke-opacity:1; fill:none" points="
  1790.54,335.029 1926.88,335.029 
  "/>
<path clip-path="url(#clip600)" d="M 0 0 M1971.85 318.883 L1971.85 323.443 Q1969.19 322.17 1966.83 321.545 Q1964.47 320.92 1962.27 320.92 Q1958.45 320.92 1956.36 322.401 Q1954.3 323.883 1954.3 326.614 Q1954.3 328.906 1955.67 330.087 Q1957.06 331.244 1960.9 331.962 L1963.73 332.54 Q1968.96 333.536 1971.43 336.059 Q1973.93 338.559 1973.93 342.772 Q1973.93 347.795 1970.55 350.387 Q1967.2 352.98 1960.69 352.98 Q1958.24 352.98 1955.46 352.424 Q1952.71 351.869 1949.74 350.781 L1949.74 345.966 Q1952.59 347.563 1955.32 348.373 Q1958.05 349.184 1960.69 349.184 Q1964.7 349.184 1966.87 347.61 Q1969.05 346.036 1969.05 343.119 Q1969.05 340.573 1967.48 339.137 Q1965.92 337.702 1962.36 336.985 L1959.51 336.429 Q1954.28 335.387 1951.94 333.165 Q1949.6 330.943 1949.6 326.985 Q1949.6 322.401 1952.82 319.762 Q1956.06 317.124 1961.73 317.124 Q1964.17 317.124 1966.69 317.563 Q1969.21 318.003 1971.85 318.883 Z" fill="#000000" fill-rule="evenodd" fill-opacity="1" /><path clip-path="url(#clip600)" d="M 0 0 M1999.95 336.661 L1999.95 352.309 L1995.69 352.309 L1995.69 336.799 Q1995.69 333.119 1994.26 331.29 Q1992.82 329.462 1989.95 329.462 Q1986.5 329.462 1984.51 331.661 Q1982.52 333.86 1982.52 337.656 L1982.52 352.309 L1978.24 352.309 L1978.24 326.383 L1982.52 326.383 L1982.52 330.411 Q1984.05 328.073 1986.11 326.915 Q1988.19 325.758 1990.9 325.758 Q1995.37 325.758 1997.66 328.536 Q1999.95 331.29 1999.95 336.661 Z" fill="#000000" fill-rule="evenodd" fill-opacity="1" /><path clip-path="url(#clip600)" d="M 0 0 M2014.47 329.369 Q2011.04 329.369 2009.05 332.054 Q2007.06 334.716 2007.06 339.369 Q2007.06 344.022 2009.03 346.707 Q2011.02 349.369 2014.47 349.369 Q2017.87 349.369 2019.86 346.684 Q2021.85 343.998 2021.85 339.369 Q2021.85 334.762 2019.86 332.077 Q2017.87 329.369 2014.47 329.369 M2014.47 325.758 Q2020.02 325.758 2023.19 329.369 Q2026.36 332.98 2026.36 339.369 Q2026.36 345.735 2023.19 349.369 Q2020.02 352.98 2014.47 352.98 Q2008.89 352.98 2005.72 349.369 Q2002.57 345.735 2002.57 339.369 Q2002.57 332.98 2005.72 329.369 Q2008.89 325.758 2014.47 325.758 Z" fill="#000000" fill-rule="evenodd" fill-opacity="1" /><path clip-path="url(#clip600)" d="M 0 0 M2028.35 326.383 L2032.61 326.383 L2037.94 346.614 L2043.24 326.383 L2048.26 326.383 L2053.59 346.614 L2058.89 326.383 L2063.15 326.383 L2056.36 352.309 L2051.34 352.309 L2045.76 331.059 L2040.16 352.309 L2035.14 352.309 L2028.35 326.383 Z" fill="#000000" fill-rule="evenodd" fill-opacity="1" /><path clip-path="url(#clip600)" d="M 0 0 M2078.08 317.749 L2107.31 317.749 L2107.31 321.684 L2095.04 321.684 L2095.04 352.309 L2090.34 352.309 L2090.34 321.684 L2078.08 321.684 L2078.08 317.749 Z" fill="#000000" fill-rule="evenodd" fill-opacity="1" /><path clip-path="url(#clip600)" d="M 0 0 M2112.34 330.781 L2142.01 330.781 L2142.01 334.67 L2112.34 334.67 L2112.34 330.781 M2112.34 340.225 L2142.01 340.225 L2142.01 344.161 L2112.34 344.161 L2112.34 340.225 Z" fill="#000000" fill-rule="evenodd" fill-opacity="1" /><path clip-path="url(#clip600)" d="M 0 0 M2144.33 337.424 L2156.8 337.424 L2156.8 341.221 L2144.33 341.221 L2144.33 337.424 Z" fill="#000000" fill-rule="evenodd" fill-opacity="1" /><path clip-path="url(#clip600)" d="M 0 0 M2165.9 348.373 L2182.22 348.373 L2182.22 352.309 L2160.28 352.309 L2160.28 348.373 Q2162.94 345.619 2167.52 340.989 Q2172.13 336.336 2173.31 334.994 Q2175.55 332.471 2176.43 330.735 Q2177.34 328.975 2177.34 327.286 Q2177.34 324.531 2175.39 322.795 Q2173.47 321.059 2170.37 321.059 Q2168.17 321.059 2165.71 321.823 Q2163.28 322.587 2160.51 324.137 L2160.51 319.415 Q2163.33 318.281 2165.78 317.702 Q2168.24 317.124 2170.28 317.124 Q2175.65 317.124 2178.84 319.809 Q2182.03 322.494 2182.03 326.985 Q2182.03 329.114 2181.22 331.036 Q2180.44 332.934 2178.33 335.526 Q2177.75 336.198 2174.65 339.415 Q2171.55 342.61 2165.9 348.373 Z" fill="#000000" fill-rule="evenodd" fill-opacity="1" /><path clip-path="url(#clip600)" d="M 0 0 M2187.34 317.749 L2205.69 317.749 L2205.69 321.684 L2191.62 321.684 L2191.62 330.156 Q2192.64 329.809 2193.65 329.647 Q2194.67 329.462 2195.69 329.462 Q2201.48 329.462 2204.86 332.633 Q2208.24 335.804 2208.24 341.221 Q2208.24 346.799 2204.77 349.901 Q2201.29 352.98 2194.97 352.98 Q2192.8 352.98 2190.53 352.61 Q2188.28 352.239 2185.88 351.498 L2185.88 346.799 Q2187.96 347.934 2190.18 348.489 Q2192.4 349.045 2194.88 349.045 Q2198.89 349.045 2201.22 346.938 Q2203.56 344.832 2203.56 341.221 Q2203.56 337.61 2201.22 335.503 Q2198.89 333.397 2194.88 333.397 Q2193.01 333.397 2191.13 333.813 Q2189.28 334.23 2187.34 335.11 L2187.34 317.749 Z" fill="#000000" fill-rule="evenodd" fill-opacity="1" /><path clip-path="url(#clip600)" d="M 0 0 M2238.77 320.411 L2238.77 325.341 Q2236.41 323.142 2233.72 322.054 Q2231.06 320.966 2228.05 320.966 Q2222.13 320.966 2218.98 324.6 Q2215.83 328.212 2215.83 335.063 Q2215.83 341.892 2218.98 345.526 Q2222.13 349.137 2228.05 349.137 Q2231.06 349.137 2233.72 348.049 Q2236.41 346.961 2238.77 344.762 L2238.77 349.647 Q2236.32 351.313 2233.56 352.147 Q2230.83 352.98 2227.77 352.98 Q2219.93 352.98 2215.41 348.188 Q2210.9 343.373 2210.9 335.063 Q2210.9 326.73 2215.41 321.938 Q2219.93 317.124 2227.77 317.124 Q2230.88 317.124 2233.61 317.957 Q2236.36 318.767 2238.77 320.411 Z" fill="#000000" fill-rule="evenodd" fill-opacity="1" /></svg>
