<?xml version="1.0" encoding="utf-8"?>
<svg xmlns="http://www.w3.org/2000/svg" xmlns:xlink="http://www.w3.org/1999/xlink" width="600" height="400" viewBox="0 0 2400 1600">
<defs>
  <clipPath id="clip810">
    <rect x="0" y="0" width="2400" height="1600"/>
  </clipPath>
</defs>
<path clip-path="url(#clip810)" d="
M0 1600 L2400 1600 L2400 0 L0 0  Z
  " fill="#ffffff" fill-rule="evenodd" fill-opacity="1"/>
<defs>
  <clipPath id="clip811">
    <rect x="480" y="0" width="1681" height="1600"/>
  </clipPath>
</defs>
<path clip-path="url(#clip810)" d="
M319.171 1423.18 L2352.76 1423.18 L2352.76 47.2441 L319.171 47.2441  Z
  " fill="#ffffff" fill-rule="evenodd" fill-opacity="1"/>
<defs>
  <clipPath id="clip812">
    <rect x="319" y="47" width="2035" height="1377"/>
  </clipPath>
</defs>
<polyline clip-path="url(#clip812)" style="stroke:#000000; stroke-width:2; stroke-opacity:0.1; fill:none" points="
  376.722,1423.18 376.722,47.2441 
  "/>
<polyline clip-path="url(#clip812)" style="stroke:#000000; stroke-width:2; stroke-opacity:0.1; fill:none" points="
  760.418,1423.18 760.418,47.2441 
  "/>
<polyline clip-path="url(#clip812)" style="stroke:#000000; stroke-width:2; stroke-opacity:0.1; fill:none" points="
  1144.11,1423.18 1144.11,47.2441 
  "/>
<polyline clip-path="url(#clip812)" style="stroke:#000000; stroke-width:2; stroke-opacity:0.1; fill:none" points="
  1527.81,1423.18 1527.81,47.2441 
  "/>
<polyline clip-path="url(#clip812)" style="stroke:#000000; stroke-width:2; stroke-opacity:0.1; fill:none" points="
  1911.51,1423.18 1911.51,47.2441 
  "/>
<polyline clip-path="url(#clip812)" style="stroke:#000000; stroke-width:2; stroke-opacity:0.1; fill:none" points="
  2295.2,1423.18 2295.2,47.2441 
  "/>
<polyline clip-path="url(#clip810)" style="stroke:#000000; stroke-width:4; stroke-opacity:1; fill:none" points="
  319.171,1423.18 2352.76,1423.18 
  "/>
<polyline clip-path="url(#clip810)" style="stroke:#000000; stroke-width:4; stroke-opacity:1; fill:none" points="
  376.722,1423.18 376.722,1406.67 
  "/>
<polyline clip-path="url(#clip810)" style="stroke:#000000; stroke-width:4; stroke-opacity:1; fill:none" points="
  760.418,1423.18 760.418,1406.67 
  "/>
<polyline clip-path="url(#clip810)" style="stroke:#000000; stroke-width:4; stroke-opacity:1; fill:none" points="
  1144.11,1423.18 1144.11,1406.67 
  "/>
<polyline clip-path="url(#clip810)" style="stroke:#000000; stroke-width:4; stroke-opacity:1; fill:none" points="
  1527.81,1423.18 1527.81,1406.67 
  "/>
<polyline clip-path="url(#clip810)" style="stroke:#000000; stroke-width:4; stroke-opacity:1; fill:none" points="
  1911.51,1423.18 1911.51,1406.67 
  "/>
<polyline clip-path="url(#clip810)" style="stroke:#000000; stroke-width:4; stroke-opacity:1; fill:none" points="
  2295.2,1423.18 2295.2,1406.67 
  "/>
<path clip-path="url(#clip810)" d="M 0 0 M376.722 1452.37 Q373.111 1452.37 371.282 1455.94 Q369.476 1459.48 369.476 1466.61 Q369.476 1473.71 371.282 1477.28 Q373.111 1480.82 376.722 1480.82 Q380.356 1480.82 382.162 1477.28 Q383.99 1473.71 383.99 1466.61 Q383.99 1459.48 382.162 1455.94 Q380.356 1452.37 376.722 1452.37 M376.722 1448.67 Q382.532 1448.67 385.587 1453.27 Q388.666 1457.86 388.666 1466.61 Q388.666 1475.33 385.587 1479.94 Q382.532 1484.52 376.722 1484.52 Q370.912 1484.52 367.833 1479.94 Q364.777 1475.33 364.777 1466.61 Q364.777 1457.86 367.833 1453.27 Q370.912 1448.67 376.722 1448.67 Z" fill="#000000" fill-rule="evenodd" fill-opacity="1" /><path clip-path="url(#clip810)" d="M 0 0 M750.8 1479.92 L758.439 1479.92 L758.439 1453.55 L750.128 1455.22 L750.128 1450.96 L758.392 1449.29 L763.068 1449.29 L763.068 1479.92 L770.707 1479.92 L770.707 1483.85 L750.8 1483.85 L750.8 1479.92 Z" fill="#000000" fill-rule="evenodd" fill-opacity="1" /><path clip-path="url(#clip810)" d="M 0 0 M1138.77 1479.92 L1155.09 1479.92 L1155.09 1483.85 L1133.14 1483.85 L1133.14 1479.92 Q1135.8 1477.16 1140.39 1472.53 Q1144.99 1467.88 1146.17 1466.54 Q1148.42 1464.01 1149.3 1462.28 Q1150.2 1460.52 1150.2 1458.83 Q1150.2 1456.07 1148.26 1454.34 Q1146.34 1452.6 1143.23 1452.6 Q1141.04 1452.6 1138.58 1453.37 Q1136.15 1454.13 1133.37 1455.68 L1133.37 1450.96 Q1136.2 1449.82 1138.65 1449.25 Q1141.1 1448.67 1143.14 1448.67 Q1148.51 1448.67 1151.71 1451.35 Q1154.9 1454.04 1154.9 1458.53 Q1154.9 1460.66 1154.09 1462.58 Q1153.3 1464.48 1151.2 1467.07 Q1150.62 1467.74 1147.52 1470.96 Q1144.41 1474.15 1138.77 1479.92 Z" fill="#000000" fill-rule="evenodd" fill-opacity="1" /><path clip-path="url(#clip810)" d="M 0 0 M1532.06 1465.22 Q1535.41 1465.94 1537.29 1468.2 Q1539.19 1470.47 1539.19 1473.81 Q1539.19 1478.92 1535.67 1481.72 Q1532.15 1484.52 1525.67 1484.52 Q1523.49 1484.52 1521.18 1484.08 Q1518.89 1483.67 1516.43 1482.81 L1516.43 1478.3 Q1518.38 1479.43 1520.69 1480.01 Q1523.01 1480.59 1525.53 1480.59 Q1529.93 1480.59 1532.22 1478.85 Q1534.53 1477.12 1534.53 1473.81 Q1534.53 1470.75 1532.38 1469.04 Q1530.25 1467.3 1526.43 1467.3 L1522.4 1467.3 L1522.4 1463.46 L1526.62 1463.46 Q1530.07 1463.46 1531.9 1462.09 Q1533.72 1460.7 1533.72 1458.11 Q1533.72 1455.45 1531.83 1454.04 Q1529.95 1452.6 1526.43 1452.6 Q1524.51 1452.6 1522.31 1453.02 Q1520.11 1453.44 1517.47 1454.31 L1517.47 1450.15 Q1520.14 1449.41 1522.45 1449.04 Q1524.79 1448.67 1526.85 1448.67 Q1532.17 1448.67 1535.27 1451.1 Q1538.38 1453.5 1538.38 1457.63 Q1538.38 1460.5 1536.73 1462.49 Q1535.09 1464.45 1532.06 1465.22 Z" fill="#000000" fill-rule="evenodd" fill-opacity="1" /><path clip-path="url(#clip810)" d="M 0 0 M1914.51 1453.37 L1902.71 1471.81 L1914.51 1471.81 L1914.51 1453.37 M1913.29 1449.29 L1919.17 1449.29 L1919.17 1471.81 L1924.1 1471.81 L1924.1 1475.7 L1919.17 1475.7 L1919.17 1483.85 L1914.51 1483.85 L1914.51 1475.7 L1898.91 1475.7 L1898.91 1471.19 L1913.29 1449.29 Z" fill="#000000" fill-rule="evenodd" fill-opacity="1" /><path clip-path="url(#clip810)" d="M 0 0 M2285.48 1449.29 L2303.84 1449.29 L2303.84 1453.23 L2289.76 1453.23 L2289.76 1461.7 Q2290.78 1461.35 2291.8 1461.19 Q2292.82 1461 2293.84 1461 Q2299.62 1461 2303 1464.18 Q2306.38 1467.35 2306.38 1472.76 Q2306.38 1478.34 2302.91 1481.44 Q2299.44 1484.52 2293.12 1484.52 Q2290.94 1484.52 2288.67 1484.15 Q2286.43 1483.78 2284.02 1483.04 L2284.02 1478.34 Q2286.1 1479.48 2288.33 1480.03 Q2290.55 1480.59 2293.03 1480.59 Q2297.03 1480.59 2299.37 1478.48 Q2301.71 1476.38 2301.71 1472.76 Q2301.71 1469.15 2299.37 1467.05 Q2297.03 1464.94 2293.03 1464.94 Q2291.15 1464.94 2289.28 1465.36 Q2287.42 1465.77 2285.48 1466.65 L2285.48 1449.29 Z" fill="#000000" fill-rule="evenodd" fill-opacity="1" /><path clip-path="url(#clip810)" d="M 0 0 M1137.7 1550.25 Q1137.7 1556.71 1140.35 1560.4 Q1143.02 1564.07 1147.67 1564.07 Q1152.31 1564.07 1154.99 1560.4 Q1157.66 1556.71 1157.66 1550.25 Q1157.66 1543.79 1154.99 1540.13 Q1152.31 1536.44 1147.67 1536.44 Q1143.02 1536.44 1140.35 1540.13 Q1137.7 1543.79 1137.7 1550.25 M1157.66 1562.7 Q1155.81 1565.88 1152.98 1567.44 Q1150.18 1568.97 1146.23 1568.97 Q1139.77 1568.97 1135.7 1563.81 Q1131.66 1558.65 1131.66 1550.25 Q1131.66 1541.85 1135.7 1536.69 Q1139.77 1531.54 1146.23 1531.54 Q1150.18 1531.54 1152.98 1533.1 Q1155.81 1534.62 1157.66 1537.81 L1157.66 1532.4 L1163.52 1532.4 L1163.52 1581.6 L1157.66 1581.6 L1157.66 1562.7 Z" fill="#000000" fill-rule="evenodd" fill-opacity="1" /><path clip-path="url(#clip810)" d="M 0 0 M1196.75 1578.87 L1196.75 1583.42 L1162.88 1583.42 L1162.88 1578.87 L1196.75 1578.87 Z" fill="#000000" fill-rule="evenodd" fill-opacity="1" /><path clip-path="url(#clip810)" d="M 0 0 M1225.61 1533.45 L1225.61 1538.98 Q1223.13 1537.71 1220.46 1537.07 Q1217.78 1536.44 1214.92 1536.44 Q1210.56 1536.44 1208.36 1537.77 Q1206.2 1539.11 1206.2 1541.79 Q1206.2 1543.82 1207.76 1545 Q1209.32 1546.15 1214.03 1547.2 L1216.03 1547.64 Q1222.27 1548.98 1224.88 1551.43 Q1227.52 1553.85 1227.52 1558.21 Q1227.52 1563.17 1223.58 1566.07 Q1219.66 1568.97 1212.79 1568.97 Q1209.92 1568.97 1206.8 1568.39 Q1203.72 1567.85 1200.28 1566.74 L1200.28 1560.69 Q1203.53 1562.38 1206.68 1563.24 Q1209.83 1564.07 1212.91 1564.07 Q1217.05 1564.07 1219.28 1562.66 Q1221.51 1561.23 1221.51 1558.65 Q1221.51 1556.27 1219.88 1554.99 Q1218.29 1553.72 1212.85 1552.54 L1210.81 1552.07 Q1205.37 1550.92 1202.95 1548.56 Q1200.53 1546.18 1200.53 1542.04 Q1200.53 1537.01 1204.1 1534.27 Q1207.66 1531.54 1214.22 1531.54 Q1217.47 1531.54 1220.33 1532.01 Q1223.2 1532.49 1225.61 1533.45 Z" fill="#000000" fill-rule="evenodd" fill-opacity="1" /><path clip-path="url(#clip810)" d="M 0 0 M1263.3 1546.53 L1263.3 1568.04 L1257.44 1568.04 L1257.44 1546.72 Q1257.44 1541.66 1255.47 1539.14 Q1253.5 1536.63 1249.55 1536.63 Q1244.81 1536.63 1242.07 1539.65 Q1239.33 1542.68 1239.33 1547.9 L1239.33 1568.04 L1233.44 1568.04 L1233.44 1532.4 L1239.33 1532.4 L1239.33 1537.93 Q1241.43 1534.72 1244.27 1533.13 Q1247.13 1531.54 1250.85 1531.54 Q1257 1531.54 1260.15 1535.36 Q1263.3 1539.14 1263.3 1546.53 Z" fill="#000000" fill-rule="evenodd" fill-opacity="1" /><path clip-path="url(#clip810)" d="M 0 0 M1283.26 1536.5 Q1278.54 1536.5 1275.81 1540.19 Q1273.07 1543.85 1273.07 1550.25 Q1273.07 1556.65 1275.78 1560.34 Q1278.51 1564 1283.26 1564 Q1287.93 1564 1290.67 1560.31 Q1293.41 1556.62 1293.41 1550.25 Q1293.41 1543.92 1290.67 1540.23 Q1287.93 1536.5 1283.26 1536.5 M1283.26 1531.54 Q1290.89 1531.54 1295.25 1536.5 Q1299.62 1541.47 1299.62 1550.25 Q1299.62 1559 1295.25 1564 Q1290.89 1568.97 1283.26 1568.97 Q1275.58 1568.97 1271.22 1564 Q1266.9 1559 1266.9 1550.25 Q1266.9 1541.47 1271.22 1536.5 Q1275.58 1531.54 1283.26 1531.54 Z" fill="#000000" fill-rule="evenodd" fill-opacity="1" /><path clip-path="url(#clip810)" d="M 0 0 M1302.35 1532.4 L1308.21 1532.4 L1315.53 1560.21 L1322.82 1532.4 L1329.73 1532.4 L1337.05 1560.21 L1344.33 1532.4 L1350.19 1532.4 L1340.87 1568.04 L1333.96 1568.04 L1326.29 1538.83 L1318.59 1568.04 L1311.68 1568.04 L1302.35 1532.4 Z" fill="#000000" fill-rule="evenodd" fill-opacity="1" /><path clip-path="url(#clip810)" d="M 0 0 M1376.51 1518.52 L1390.01 1518.52 L1390.01 1523.07 L1382.37 1523.07 L1382.37 1572.09 L1390.01 1572.09 L1390.01 1576.64 L1376.51 1576.64 L1376.51 1518.52 Z" fill="#000000" fill-rule="evenodd" fill-opacity="1" /><path clip-path="url(#clip810)" d="M 0 0 M1419.61 1549.81 Q1419.61 1543.44 1416.97 1539.94 Q1414.36 1536.44 1409.61 1536.44 Q1404.9 1536.44 1402.26 1539.94 Q1399.65 1543.44 1399.65 1549.81 Q1399.65 1556.14 1402.26 1559.64 Q1404.9 1563.14 1409.61 1563.14 Q1414.36 1563.14 1416.97 1559.64 Q1419.61 1556.14 1419.61 1549.81 M1425.47 1563.62 Q1425.47 1572.72 1421.42 1577.15 Q1417.38 1581.6 1409.04 1581.6 Q1405.95 1581.6 1403.22 1581.13 Q1400.48 1580.68 1397.9 1579.72 L1397.9 1574.03 Q1400.48 1575.43 1402.99 1576.1 Q1405.51 1576.76 1408.12 1576.76 Q1413.88 1576.76 1416.74 1573.74 Q1419.61 1570.75 1419.61 1564.67 L1419.61 1561.77 Q1417.79 1564.92 1414.96 1566.48 Q1412.13 1568.04 1408.18 1568.04 Q1401.63 1568.04 1397.62 1563.05 Q1393.61 1558.05 1393.61 1549.81 Q1393.61 1541.53 1397.62 1536.53 Q1401.63 1531.54 1408.18 1531.54 Q1412.13 1531.54 1414.96 1533.1 Q1417.79 1534.66 1419.61 1537.81 L1419.61 1532.4 L1425.47 1532.4 L1425.47 1563.62 Z" fill="#000000" fill-rule="evenodd" fill-opacity="1" /><path clip-path="url(#clip810)" d="M 0 0 M1442.02 1520.52 L1447.43 1520.52 L1430.88 1574.09 L1425.47 1574.09 L1442.02 1520.52 Z" fill="#000000" fill-rule="evenodd" fill-opacity="1" /><path clip-path="url(#clip810)" d="M 0 0 M1453.35 1518.52 L1459.24 1518.52 L1459.24 1547.77 L1476.71 1532.4 L1484.19 1532.4 L1465.28 1549.07 L1484.98 1568.04 L1477.35 1568.04 L1459.24 1550.63 L1459.24 1568.04 L1453.35 1568.04 L1453.35 1518.52 Z" fill="#000000" fill-rule="evenodd" fill-opacity="1" /><path clip-path="url(#clip810)" d="M 0 0 M1514.59 1549.81 Q1514.59 1543.44 1511.94 1539.94 Q1509.33 1536.44 1504.59 1536.44 Q1499.88 1536.44 1497.24 1539.94 Q1494.63 1543.44 1494.63 1549.81 Q1494.63 1556.14 1497.24 1559.64 Q1499.88 1563.14 1504.59 1563.14 Q1509.33 1563.14 1511.94 1559.64 Q1514.59 1556.14 1514.59 1549.81 M1520.44 1563.62 Q1520.44 1572.72 1516.4 1577.15 Q1512.36 1581.6 1504.02 1581.6 Q1500.93 1581.6 1498.19 1581.13 Q1495.46 1580.68 1492.88 1579.72 L1492.88 1574.03 Q1495.46 1575.43 1497.97 1576.1 Q1500.49 1576.76 1503.1 1576.76 Q1508.86 1576.76 1511.72 1573.74 Q1514.59 1570.75 1514.59 1564.67 L1514.59 1561.77 Q1512.77 1564.92 1509.94 1566.48 Q1507.11 1568.04 1503.16 1568.04 Q1496.6 1568.04 1492.59 1563.05 Q1488.58 1558.05 1488.58 1549.81 Q1488.58 1541.53 1492.59 1536.53 Q1496.6 1531.54 1503.16 1531.54 Q1507.11 1531.54 1509.94 1533.1 Q1512.77 1534.66 1514.59 1537.81 L1514.59 1532.4 L1520.44 1532.4 L1520.44 1563.62 Z" fill="#000000" fill-rule="evenodd" fill-opacity="1" /><path clip-path="url(#clip810)" d="M 0 0 M1540.27 1518.52 L1540.27 1576.64 L1526.78 1576.64 L1526.78 1572.09 L1534.38 1572.09 L1534.38 1523.07 L1526.78 1523.07 L1526.78 1518.52 L1540.27 1518.52 Z" fill="#000000" fill-rule="evenodd" fill-opacity="1" /><polyline clip-path="url(#clip812)" style="stroke:#000000; stroke-width:2; stroke-opacity:0.1; fill:none" points="
  319.171,1384.24 2352.76,1384.24 
  "/>
<polyline clip-path="url(#clip812)" style="stroke:#000000; stroke-width:2; stroke-opacity:0.1; fill:none" points="
  319.171,1093.42 2352.76,1093.42 
  "/>
<polyline clip-path="url(#clip812)" style="stroke:#000000; stroke-width:2; stroke-opacity:0.1; fill:none" points="
  319.171,802.591 2352.76,802.591 
  "/>
<polyline clip-path="url(#clip812)" style="stroke:#000000; stroke-width:2; stroke-opacity:0.1; fill:none" points="
  319.171,511.766 2352.76,511.766 
  "/>
<polyline clip-path="url(#clip812)" style="stroke:#000000; stroke-width:2; stroke-opacity:0.1; fill:none" points="
  319.171,220.941 2352.76,220.941 
  "/>
<polyline clip-path="url(#clip810)" style="stroke:#000000; stroke-width:4; stroke-opacity:1; fill:none" points="
  319.171,1423.18 319.171,47.2441 
  "/>
<polyline clip-path="url(#clip810)" style="stroke:#000000; stroke-width:4; stroke-opacity:1; fill:none" points="
  319.171,1384.24 343.574,1384.24 
  "/>
<polyline clip-path="url(#clip810)" style="stroke:#000000; stroke-width:4; stroke-opacity:1; fill:none" points="
  319.171,1093.42 343.574,1093.42 
  "/>
<polyline clip-path="url(#clip810)" style="stroke:#000000; stroke-width:4; stroke-opacity:1; fill:none" points="
  319.171,802.591 343.574,802.591 
  "/>
<polyline clip-path="url(#clip810)" style="stroke:#000000; stroke-width:4; stroke-opacity:1; fill:none" points="
  319.171,511.766 343.574,511.766 
  "/>
<polyline clip-path="url(#clip810)" style="stroke:#000000; stroke-width:4; stroke-opacity:1; fill:none" points="
  319.171,220.941 343.574,220.941 
  "/>
<path clip-path="url(#clip810)" d="M 0 0 M126.205 1370.04 Q122.593 1370.04 120.765 1373.6 Q118.959 1377.15 118.959 1384.28 Q118.959 1391.38 120.765 1394.95 Q122.593 1398.49 126.205 1398.49 Q129.839 1398.49 131.644 1394.95 Q133.473 1391.38 133.473 1384.28 Q133.473 1377.15 131.644 1373.6 Q129.839 1370.04 126.205 1370.04 M126.205 1366.34 Q132.015 1366.34 135.07 1370.94 Q138.149 1375.53 138.149 1384.28 Q138.149 1393 135.07 1397.61 Q132.015 1402.19 126.205 1402.19 Q120.394 1402.19 117.316 1397.61 Q114.26 1393 114.26 1384.28 Q114.26 1375.53 117.316 1370.94 Q120.394 1366.34 126.205 1366.34 Z" fill="#000000" fill-rule="evenodd" fill-opacity="1" /><path clip-path="url(#clip810)" d="M 0 0 M143.218 1395.64 L148.103 1395.64 L148.103 1401.52 L143.218 1401.52 L143.218 1395.64 Z" fill="#000000" fill-rule="evenodd" fill-opacity="1" /><path clip-path="url(#clip810)" d="M 0 0 M163.172 1370.04 Q159.561 1370.04 157.732 1373.6 Q155.927 1377.15 155.927 1384.28 Q155.927 1391.38 157.732 1394.95 Q159.561 1398.49 163.172 1398.49 Q166.806 1398.49 168.612 1394.95 Q170.44 1391.38 170.44 1384.28 Q170.44 1377.15 168.612 1373.6 Q166.806 1370.04 163.172 1370.04 M163.172 1366.34 Q168.982 1366.34 172.038 1370.94 Q175.116 1375.53 175.116 1384.28 Q175.116 1393 172.038 1397.61 Q168.982 1402.19 163.172 1402.19 Q157.362 1402.19 154.283 1397.61 Q151.228 1393 151.228 1384.28 Q151.228 1375.53 154.283 1370.94 Q157.362 1366.34 163.172 1366.34 Z" fill="#000000" fill-rule="evenodd" fill-opacity="1" /><path clip-path="url(#clip810)" d="M 0 0 M190.186 1370.04 Q186.575 1370.04 184.746 1373.6 Q182.94 1377.15 182.94 1384.28 Q182.94 1391.38 184.746 1394.95 Q186.575 1398.49 190.186 1398.49 Q193.82 1398.49 195.625 1394.95 Q197.454 1391.38 197.454 1384.28 Q197.454 1377.15 195.625 1373.6 Q193.82 1370.04 190.186 1370.04 M190.186 1366.34 Q195.996 1366.34 199.051 1370.94 Q202.13 1375.53 202.13 1384.28 Q202.13 1393 199.051 1397.61 Q195.996 1402.19 190.186 1402.19 Q184.376 1402.19 181.297 1397.61 Q178.241 1393 178.241 1384.28 Q178.241 1375.53 181.297 1370.94 Q184.376 1366.34 190.186 1366.34 Z" fill="#000000" fill-rule="evenodd" fill-opacity="1" /><path clip-path="url(#clip810)" d="M 0 0 M217.199 1370.04 Q213.588 1370.04 211.76 1373.6 Q209.954 1377.15 209.954 1384.28 Q209.954 1391.38 211.76 1394.95 Q213.588 1398.49 217.199 1398.49 Q220.834 1398.49 222.639 1394.95 Q224.468 1391.38 224.468 1384.28 Q224.468 1377.15 222.639 1373.6 Q220.834 1370.04 217.199 1370.04 M217.199 1366.34 Q223.01 1366.34 226.065 1370.94 Q229.144 1375.53 229.144 1384.28 Q229.144 1393 226.065 1397.61 Q223.01 1402.19 217.199 1402.19 Q211.389 1402.19 208.311 1397.61 Q205.255 1393 205.255 1384.28 Q205.255 1375.53 208.311 1370.94 Q211.389 1366.34 217.199 1366.34 Z" fill="#000000" fill-rule="evenodd" fill-opacity="1" /><path clip-path="url(#clip810)" d="M 0 0 M244.213 1370.04 Q240.602 1370.04 238.773 1373.6 Q236.968 1377.15 236.968 1384.28 Q236.968 1391.38 238.773 1394.95 Q240.602 1398.49 244.213 1398.49 Q247.847 1398.49 249.653 1394.95 Q251.482 1391.38 251.482 1384.28 Q251.482 1377.15 249.653 1373.6 Q247.847 1370.04 244.213 1370.04 M244.213 1366.34 Q250.023 1366.34 253.079 1370.94 Q256.158 1375.53 256.158 1384.28 Q256.158 1393 253.079 1397.61 Q250.023 1402.19 244.213 1402.19 Q238.403 1402.19 235.324 1397.61 Q232.269 1393 232.269 1384.28 Q232.269 1375.53 235.324 1370.94 Q238.403 1366.34 244.213 1366.34 Z" fill="#000000" fill-rule="evenodd" fill-opacity="1" /><path clip-path="url(#clip810)" d="M 0 0 M271.227 1370.04 Q267.616 1370.04 265.787 1373.6 Q263.982 1377.15 263.982 1384.28 Q263.982 1391.38 265.787 1394.95 Q267.616 1398.49 271.227 1398.49 Q274.861 1398.49 276.667 1394.95 Q278.495 1391.38 278.495 1384.28 Q278.495 1377.15 276.667 1373.6 Q274.861 1370.04 271.227 1370.04 M271.227 1366.34 Q277.037 1366.34 280.093 1370.94 Q283.171 1375.53 283.171 1384.28 Q283.171 1393 280.093 1397.61 Q277.037 1402.19 271.227 1402.19 Q265.417 1402.19 262.338 1397.61 Q259.283 1393 259.283 1384.28 Q259.283 1375.53 262.338 1370.94 Q265.417 1366.34 271.227 1366.34 Z" fill="#000000" fill-rule="evenodd" fill-opacity="1" /><path clip-path="url(#clip810)" d="M 0 0 M128.797 1079.21 Q125.186 1079.21 123.357 1082.78 Q121.552 1086.32 121.552 1093.45 Q121.552 1100.56 123.357 1104.12 Q125.186 1107.66 128.797 1107.66 Q132.431 1107.66 134.237 1104.12 Q136.066 1100.56 136.066 1093.45 Q136.066 1086.32 134.237 1082.78 Q132.431 1079.21 128.797 1079.21 M128.797 1075.51 Q134.607 1075.51 137.663 1080.12 Q140.741 1084.7 140.741 1093.45 Q140.741 1102.18 137.663 1106.78 Q134.607 1111.37 128.797 1111.37 Q122.987 1111.37 119.908 1106.78 Q116.853 1102.18 116.853 1093.45 Q116.853 1084.7 119.908 1080.12 Q122.987 1075.51 128.797 1075.51 Z" fill="#000000" fill-rule="evenodd" fill-opacity="1" /><path clip-path="url(#clip810)" d="M 0 0 M145.811 1104.82 L150.695 1104.82 L150.695 1110.7 L145.811 1110.7 L145.811 1104.82 Z" fill="#000000" fill-rule="evenodd" fill-opacity="1" /><path clip-path="url(#clip810)" d="M 0 0 M165.765 1079.21 Q162.153 1079.21 160.325 1082.78 Q158.519 1086.32 158.519 1093.45 Q158.519 1100.56 160.325 1104.12 Q162.153 1107.66 165.765 1107.66 Q169.399 1107.66 171.204 1104.12 Q173.033 1100.56 173.033 1093.45 Q173.033 1086.32 171.204 1082.78 Q169.399 1079.21 165.765 1079.21 M165.765 1075.51 Q171.575 1075.51 174.63 1080.12 Q177.709 1084.7 177.709 1093.45 Q177.709 1102.18 174.63 1106.78 Q171.575 1111.37 165.765 1111.37 Q159.954 1111.37 156.876 1106.78 Q153.82 1102.18 153.82 1093.45 Q153.82 1084.7 156.876 1080.12 Q159.954 1075.51 165.765 1075.51 Z" fill="#000000" fill-rule="evenodd" fill-opacity="1" /><path clip-path="url(#clip810)" d="M 0 0 M192.778 1079.21 Q189.167 1079.21 187.338 1082.78 Q185.533 1086.32 185.533 1093.45 Q185.533 1100.56 187.338 1104.12 Q189.167 1107.66 192.778 1107.66 Q196.412 1107.66 198.218 1104.12 Q200.047 1100.56 200.047 1093.45 Q200.047 1086.32 198.218 1082.78 Q196.412 1079.21 192.778 1079.21 M192.778 1075.51 Q198.588 1075.51 201.644 1080.12 Q204.723 1084.7 204.723 1093.45 Q204.723 1102.18 201.644 1106.78 Q198.588 1111.37 192.778 1111.37 Q186.968 1111.37 183.889 1106.78 Q180.834 1102.18 180.834 1093.45 Q180.834 1084.7 183.889 1080.12 Q186.968 1075.51 192.778 1075.51 Z" fill="#000000" fill-rule="evenodd" fill-opacity="1" /><path clip-path="url(#clip810)" d="M 0 0 M219.792 1079.21 Q216.181 1079.21 214.352 1082.78 Q212.547 1086.32 212.547 1093.45 Q212.547 1100.56 214.352 1104.12 Q216.181 1107.66 219.792 1107.66 Q223.426 1107.66 225.232 1104.12 Q227.06 1100.56 227.06 1093.45 Q227.06 1086.32 225.232 1082.78 Q223.426 1079.21 219.792 1079.21 M219.792 1075.51 Q225.602 1075.51 228.658 1080.12 Q231.736 1084.7 231.736 1093.45 Q231.736 1102.18 228.658 1106.78 Q225.602 1111.37 219.792 1111.37 Q213.982 1111.37 210.903 1106.78 Q207.848 1102.18 207.848 1093.45 Q207.848 1084.7 210.903 1080.12 Q213.982 1075.51 219.792 1075.51 Z" fill="#000000" fill-rule="evenodd" fill-opacity="1" /><path clip-path="url(#clip810)" d="M 0 0 M240.834 1106.76 L257.153 1106.76 L257.153 1110.7 L235.209 1110.7 L235.209 1106.76 Q237.871 1104.01 242.454 1099.38 Q247.06 1094.72 248.241 1093.38 Q250.486 1090.86 251.366 1089.12 Q252.269 1087.36 252.269 1085.67 Q252.269 1082.92 250.324 1081.18 Q248.403 1079.45 245.301 1079.45 Q243.102 1079.45 240.648 1080.21 Q238.218 1080.97 235.44 1082.52 L235.44 1077.8 Q238.264 1076.67 240.718 1076.09 Q243.172 1075.51 245.209 1075.51 Q250.579 1075.51 253.773 1078.2 Q256.968 1080.88 256.968 1085.37 Q256.968 1087.5 256.158 1089.42 Q255.371 1091.32 253.264 1093.91 Q252.685 1094.58 249.584 1097.8 Q246.482 1101 240.834 1106.76 Z" fill="#000000" fill-rule="evenodd" fill-opacity="1" /><path clip-path="url(#clip810)" d="M 0 0 M262.269 1076.14 L280.625 1076.14 L280.625 1080.07 L266.551 1080.07 L266.551 1088.54 Q267.57 1088.2 268.588 1088.03 Q269.607 1087.85 270.625 1087.85 Q276.412 1087.85 279.792 1091.02 Q283.171 1094.19 283.171 1099.61 Q283.171 1105.19 279.699 1108.29 Q276.227 1111.37 269.907 1111.37 Q267.732 1111.37 265.463 1111 Q263.218 1110.63 260.81 1109.89 L260.81 1105.19 Q262.894 1106.32 265.116 1106.88 Q267.338 1107.43 269.815 1107.43 Q273.819 1107.43 276.157 1105.33 Q278.495 1103.22 278.495 1099.61 Q278.495 1096 276.157 1093.89 Q273.819 1091.78 269.815 1091.78 Q267.94 1091.78 266.065 1092.2 Q264.213 1092.62 262.269 1093.5 L262.269 1076.14 Z" fill="#000000" fill-rule="evenodd" fill-opacity="1" /><path clip-path="url(#clip810)" d="M 0 0 M127.2 788.389 Q123.589 788.389 121.76 791.954 Q119.955 795.496 119.955 802.626 Q119.955 809.732 121.76 813.297 Q123.589 816.838 127.2 816.838 Q130.834 816.838 132.64 813.297 Q134.468 809.732 134.468 802.626 Q134.468 795.496 132.64 791.954 Q130.834 788.389 127.2 788.389 M127.2 784.686 Q133.01 784.686 136.066 789.292 Q139.144 793.876 139.144 802.626 Q139.144 811.352 136.066 815.959 Q133.01 820.542 127.2 820.542 Q121.39 820.542 118.311 815.959 Q115.256 811.352 115.256 802.626 Q115.256 793.876 118.311 789.292 Q121.39 784.686 127.2 784.686 Z" fill="#000000" fill-rule="evenodd" fill-opacity="1" /><path clip-path="url(#clip810)" d="M 0 0 M144.214 813.991 L149.098 813.991 L149.098 819.871 L144.214 819.871 L144.214 813.991 Z" fill="#000000" fill-rule="evenodd" fill-opacity="1" /><path clip-path="url(#clip810)" d="M 0 0 M164.167 788.389 Q160.556 788.389 158.728 791.954 Q156.922 795.496 156.922 802.626 Q156.922 809.732 158.728 813.297 Q160.556 816.838 164.167 816.838 Q167.802 816.838 169.607 813.297 Q171.436 809.732 171.436 802.626 Q171.436 795.496 169.607 791.954 Q167.802 788.389 164.167 788.389 M164.167 784.686 Q169.977 784.686 173.033 789.292 Q176.112 793.876 176.112 802.626 Q176.112 811.352 173.033 815.959 Q169.977 820.542 164.167 820.542 Q158.357 820.542 155.278 815.959 Q152.223 811.352 152.223 802.626 Q152.223 793.876 155.278 789.292 Q158.357 784.686 164.167 784.686 Z" fill="#000000" fill-rule="evenodd" fill-opacity="1" /><path clip-path="url(#clip810)" d="M 0 0 M191.181 788.389 Q187.57 788.389 185.741 791.954 Q183.936 795.496 183.936 802.626 Q183.936 809.732 185.741 813.297 Q187.57 816.838 191.181 816.838 Q194.815 816.838 196.621 813.297 Q198.45 809.732 198.45 802.626 Q198.45 795.496 196.621 791.954 Q194.815 788.389 191.181 788.389 M191.181 784.686 Q196.991 784.686 200.047 789.292 Q203.125 793.876 203.125 802.626 Q203.125 811.352 200.047 815.959 Q196.991 820.542 191.181 820.542 Q185.371 820.542 182.292 815.959 Q179.237 811.352 179.237 802.626 Q179.237 793.876 182.292 789.292 Q185.371 784.686 191.181 784.686 Z" fill="#000000" fill-rule="evenodd" fill-opacity="1" /><path clip-path="url(#clip810)" d="M 0 0 M218.195 788.389 Q214.584 788.389 212.755 791.954 Q210.949 795.496 210.949 802.626 Q210.949 809.732 212.755 813.297 Q214.584 816.838 218.195 816.838 Q221.829 816.838 223.635 813.297 Q225.463 809.732 225.463 802.626 Q225.463 795.496 223.635 791.954 Q221.829 788.389 218.195 788.389 M218.195 784.686 Q224.005 784.686 227.06 789.292 Q230.139 793.876 230.139 802.626 Q230.139 811.352 227.06 815.959 Q224.005 820.542 218.195 820.542 Q212.385 820.542 209.306 815.959 Q206.25 811.352 206.25 802.626 Q206.25 793.876 209.306 789.292 Q212.385 784.686 218.195 784.686 Z" fill="#000000" fill-rule="evenodd" fill-opacity="1" /><path clip-path="url(#clip810)" d="M 0 0 M235.255 785.311 L253.611 785.311 L253.611 789.246 L239.537 789.246 L239.537 797.718 Q240.556 797.371 241.574 797.209 Q242.593 797.024 243.611 797.024 Q249.398 797.024 252.778 800.195 Q256.158 803.366 256.158 808.783 Q256.158 814.362 252.685 817.463 Q249.213 820.542 242.894 820.542 Q240.718 820.542 238.449 820.172 Q236.204 819.801 233.797 819.061 L233.797 814.362 Q235.88 815.496 238.102 816.051 Q240.324 816.607 242.801 816.607 Q246.806 816.607 249.144 814.5 Q251.482 812.394 251.482 808.783 Q251.482 805.172 249.144 803.065 Q246.806 800.959 242.801 800.959 Q240.926 800.959 239.051 801.376 Q237.199 801.792 235.255 802.672 L235.255 785.311 Z" fill="#000000" fill-rule="evenodd" fill-opacity="1" /><path clip-path="url(#clip810)" d="M 0 0 M271.227 788.389 Q267.616 788.389 265.787 791.954 Q263.982 795.496 263.982 802.626 Q263.982 809.732 265.787 813.297 Q267.616 816.838 271.227 816.838 Q274.861 816.838 276.667 813.297 Q278.495 809.732 278.495 802.626 Q278.495 795.496 276.667 791.954 Q274.861 788.389 271.227 788.389 M271.227 784.686 Q277.037 784.686 280.093 789.292 Q283.171 793.876 283.171 802.626 Q283.171 811.352 280.093 815.959 Q277.037 820.542 271.227 820.542 Q265.417 820.542 262.338 815.959 Q259.283 811.352 259.283 802.626 Q259.283 793.876 262.338 789.292 Q265.417 784.686 271.227 784.686 Z" fill="#000000" fill-rule="evenodd" fill-opacity="1" /><path clip-path="url(#clip810)" d="M 0 0 M128.103 497.565 Q124.492 497.565 122.663 501.13 Q120.857 504.671 120.857 511.801 Q120.857 518.907 122.663 522.472 Q124.492 526.014 128.103 526.014 Q131.737 526.014 133.542 522.472 Q135.371 518.907 135.371 511.801 Q135.371 504.671 133.542 501.13 Q131.737 497.565 128.103 497.565 M128.103 493.861 Q133.913 493.861 136.968 498.468 Q140.047 503.051 140.047 511.801 Q140.047 520.528 136.968 525.134 Q133.913 529.717 128.103 529.717 Q122.293 529.717 119.214 525.134 Q116.158 520.528 116.158 511.801 Q116.158 503.051 119.214 498.468 Q122.293 493.861 128.103 493.861 Z" fill="#000000" fill-rule="evenodd" fill-opacity="1" /><path clip-path="url(#clip810)" d="M 0 0 M145.116 523.166 L150.001 523.166 L150.001 529.046 L145.116 529.046 L145.116 523.166 Z" fill="#000000" fill-rule="evenodd" fill-opacity="1" /><path clip-path="url(#clip810)" d="M 0 0 M165.07 497.565 Q161.459 497.565 159.63 501.13 Q157.825 504.671 157.825 511.801 Q157.825 518.907 159.63 522.472 Q161.459 526.014 165.07 526.014 Q168.704 526.014 170.51 522.472 Q172.339 518.907 172.339 511.801 Q172.339 504.671 170.51 501.13 Q168.704 497.565 165.07 497.565 M165.07 493.861 Q170.88 493.861 173.936 498.468 Q177.014 503.051 177.014 511.801 Q177.014 520.528 173.936 525.134 Q170.88 529.717 165.07 529.717 Q159.26 529.717 156.181 525.134 Q153.126 520.528 153.126 511.801 Q153.126 503.051 156.181 498.468 Q159.26 493.861 165.07 493.861 Z" fill="#000000" fill-rule="evenodd" fill-opacity="1" /><path clip-path="url(#clip810)" d="M 0 0 M192.084 497.565 Q188.473 497.565 186.644 501.13 Q184.838 504.671 184.838 511.801 Q184.838 518.907 186.644 522.472 Q188.473 526.014 192.084 526.014 Q195.718 526.014 197.524 522.472 Q199.352 518.907 199.352 511.801 Q199.352 504.671 197.524 501.13 Q195.718 497.565 192.084 497.565 M192.084 493.861 Q197.894 493.861 200.95 498.468 Q204.028 503.051 204.028 511.801 Q204.028 520.528 200.95 525.134 Q197.894 529.717 192.084 529.717 Q186.274 529.717 183.195 525.134 Q180.139 520.528 180.139 511.801 Q180.139 503.051 183.195 498.468 Q186.274 493.861 192.084 493.861 Z" fill="#000000" fill-rule="evenodd" fill-opacity="1" /><path clip-path="url(#clip810)" d="M 0 0 M219.098 497.565 Q215.486 497.565 213.658 501.13 Q211.852 504.671 211.852 511.801 Q211.852 518.907 213.658 522.472 Q215.486 526.014 219.098 526.014 Q222.732 526.014 224.537 522.472 Q226.366 518.907 226.366 511.801 Q226.366 504.671 224.537 501.13 Q222.732 497.565 219.098 497.565 M219.098 493.861 Q224.908 493.861 227.963 498.468 Q231.042 503.051 231.042 511.801 Q231.042 520.528 227.963 525.134 Q224.908 529.717 219.098 529.717 Q213.287 529.717 210.209 525.134 Q207.153 520.528 207.153 511.801 Q207.153 503.051 210.209 498.468 Q213.287 493.861 219.098 493.861 Z" fill="#000000" fill-rule="evenodd" fill-opacity="1" /><path clip-path="url(#clip810)" d="M 0 0 M234.931 494.486 L257.153 494.486 L257.153 496.477 L244.607 529.046 L239.722 529.046 L251.528 498.421 L234.931 498.421 L234.931 494.486 Z" fill="#000000" fill-rule="evenodd" fill-opacity="1" /><path clip-path="url(#clip810)" d="M 0 0 M262.269 494.486 L280.625 494.486 L280.625 498.421 L266.551 498.421 L266.551 506.893 Q267.57 506.546 268.588 506.384 Q269.607 506.199 270.625 506.199 Q276.412 506.199 279.792 509.37 Q283.171 512.542 283.171 517.958 Q283.171 523.537 279.699 526.639 Q276.227 529.717 269.907 529.717 Q267.732 529.717 265.463 529.347 Q263.218 528.977 260.81 528.236 L260.81 523.537 Q262.894 524.671 265.116 525.227 Q267.338 525.782 269.815 525.782 Q273.819 525.782 276.157 523.676 Q278.495 521.569 278.495 517.958 Q278.495 514.347 276.157 512.241 Q273.819 510.134 269.815 510.134 Q267.94 510.134 266.065 510.551 Q264.213 510.967 262.269 511.847 L262.269 494.486 Z" fill="#000000" fill-rule="evenodd" fill-opacity="1" /><path clip-path="url(#clip810)" d="M 0 0 M127.431 206.74 Q123.82 206.74 121.992 210.305 Q120.186 213.846 120.186 220.976 Q120.186 228.083 121.992 231.647 Q123.82 235.189 127.431 235.189 Q131.066 235.189 132.871 231.647 Q134.7 228.083 134.7 220.976 Q134.7 213.846 132.871 210.305 Q131.066 206.74 127.431 206.74 M127.431 203.036 Q133.242 203.036 136.297 207.643 Q139.376 212.226 139.376 220.976 Q139.376 229.703 136.297 234.309 Q133.242 238.893 127.431 238.893 Q121.621 238.893 118.543 234.309 Q115.487 229.703 115.487 220.976 Q115.487 212.226 118.543 207.643 Q121.621 203.036 127.431 203.036 Z" fill="#000000" fill-rule="evenodd" fill-opacity="1" /><path clip-path="url(#clip810)" d="M 0 0 M144.445 232.342 L149.329 232.342 L149.329 238.221 L144.445 238.221 L144.445 232.342 Z" fill="#000000" fill-rule="evenodd" fill-opacity="1" /><path clip-path="url(#clip810)" d="M 0 0 M164.399 206.74 Q160.788 206.74 158.959 210.305 Q157.153 213.846 157.153 220.976 Q157.153 228.083 158.959 231.647 Q160.788 235.189 164.399 235.189 Q168.033 235.189 169.839 231.647 Q171.667 228.083 171.667 220.976 Q171.667 213.846 169.839 210.305 Q168.033 206.74 164.399 206.74 M164.399 203.036 Q170.209 203.036 173.264 207.643 Q176.343 212.226 176.343 220.976 Q176.343 229.703 173.264 234.309 Q170.209 238.893 164.399 238.893 Q158.589 238.893 155.51 234.309 Q152.454 229.703 152.454 220.976 Q152.454 212.226 155.51 207.643 Q158.589 203.036 164.399 203.036 Z" fill="#000000" fill-rule="evenodd" fill-opacity="1" /><path clip-path="url(#clip810)" d="M 0 0 M191.413 206.74 Q187.801 206.74 185.973 210.305 Q184.167 213.846 184.167 220.976 Q184.167 228.083 185.973 231.647 Q187.801 235.189 191.413 235.189 Q195.047 235.189 196.852 231.647 Q198.681 228.083 198.681 220.976 Q198.681 213.846 196.852 210.305 Q195.047 206.74 191.413 206.74 M191.413 203.036 Q197.223 203.036 200.278 207.643 Q203.357 212.226 203.357 220.976 Q203.357 229.703 200.278 234.309 Q197.223 238.893 191.413 238.893 Q185.602 238.893 182.524 234.309 Q179.468 229.703 179.468 220.976 Q179.468 212.226 182.524 207.643 Q185.602 203.036 191.413 203.036 Z" fill="#000000" fill-rule="evenodd" fill-opacity="1" /><path clip-path="url(#clip810)" d="M 0 0 M209.237 234.286 L216.875 234.286 L216.875 207.921 L208.565 209.587 L208.565 205.328 L216.829 203.661 L221.505 203.661 L221.505 234.286 L229.144 234.286 L229.144 238.221 L209.237 238.221 L209.237 234.286 Z" fill="#000000" fill-rule="evenodd" fill-opacity="1" /><path clip-path="url(#clip810)" d="M 0 0 M244.213 206.74 Q240.602 206.74 238.773 210.305 Q236.968 213.846 236.968 220.976 Q236.968 228.083 238.773 231.647 Q240.602 235.189 244.213 235.189 Q247.847 235.189 249.653 231.647 Q251.482 228.083 251.482 220.976 Q251.482 213.846 249.653 210.305 Q247.847 206.74 244.213 206.74 M244.213 203.036 Q250.023 203.036 253.079 207.643 Q256.158 212.226 256.158 220.976 Q256.158 229.703 253.079 234.309 Q250.023 238.893 244.213 238.893 Q238.403 238.893 235.324 234.309 Q232.269 229.703 232.269 220.976 Q232.269 212.226 235.324 207.643 Q238.403 203.036 244.213 203.036 Z" fill="#000000" fill-rule="evenodd" fill-opacity="1" /><path clip-path="url(#clip810)" d="M 0 0 M271.227 206.74 Q267.616 206.74 265.787 210.305 Q263.982 213.846 263.982 220.976 Q263.982 228.083 265.787 231.647 Q267.616 235.189 271.227 235.189 Q274.861 235.189 276.667 231.647 Q278.495 228.083 278.495 220.976 Q278.495 213.846 276.667 210.305 Q274.861 206.74 271.227 206.74 M271.227 203.036 Q277.037 203.036 280.093 207.643 Q283.171 212.226 283.171 220.976 Q283.171 229.703 280.093 234.309 Q277.037 238.893 271.227 238.893 Q265.417 238.893 262.338 234.309 Q259.283 229.703 259.283 220.976 Q259.283 212.226 262.338 207.643 Q265.417 203.036 271.227 203.036 Z" fill="#000000" fill-rule="evenodd" fill-opacity="1" /><path clip-path="url(#clip810)" d="M 0 0 M29.4065 1005.5 L34.9447 1005.5 Q33.6716 1007.98 33.035 1010.66 Q32.3984 1013.33 32.3984 1016.19 Q32.3984 1020.55 33.7352 1022.75 Q35.072 1024.92 37.7456 1024.92 Q39.7826 1024.92 40.9603 1023.36 Q42.1061 1021.8 43.1565 1017.09 L43.6021 1015.08 Q44.9389 1008.84 47.3897 1006.23 Q49.8086 1003.59 54.1691 1003.59 Q59.1344 1003.59 62.0308 1007.54 Q64.9272 1011.45 64.9272 1018.33 Q64.9272 1021.19 64.3543 1024.31 Q63.8132 1027.4 62.6992 1030.84 L56.6518 1030.84 Q58.3387 1027.59 59.198 1024.44 Q60.0256 1021.29 60.0256 1018.2 Q60.0256 1014.06 58.6251 1011.83 Q57.1929 1009.61 54.6147 1009.61 Q52.2276 1009.61 50.9545 1011.23 Q49.6813 1012.82 48.5037 1018.26 L48.0262 1020.3 Q46.8804 1025.74 44.5251 1028.16 Q42.138 1030.58 38.0002 1030.58 Q32.9713 1030.58 30.2341 1027.02 Q27.4968 1023.45 27.4968 1016.89 Q27.4968 1013.65 27.9743 1010.78 Q28.4517 1007.92 29.4065 1005.5 Z" fill="#000000" fill-rule="evenodd" fill-opacity="1" /><path clip-path="url(#clip810)" d="M 0 0 M42.4881 967.815 L64.0042 967.815 L64.0042 973.671 L42.679 973.671 Q37.6183 973.671 35.1038 975.645 Q32.5894 977.618 32.5894 981.565 Q32.5894 986.307 35.6131 989.045 Q38.6368 991.782 43.8567 991.782 L64.0042 991.782 L64.0042 997.67 L28.3562 997.67 L28.3562 991.782 L33.8944 991.782 Q30.6797 989.681 29.0883 986.848 Q27.4968 983.984 27.4968 980.26 Q27.4968 974.117 31.3163 970.966 Q35.1038 967.815 42.4881 967.815 Z" fill="#000000" fill-rule="evenodd" fill-opacity="1" /><path clip-path="url(#clip810)" d="M 0 0 M32.4621 947.858 Q32.4621 952.569 36.1542 955.306 Q39.8145 958.044 46.212 958.044 Q52.6095 958.044 56.3017 955.338 Q59.9619 952.601 59.9619 947.858 Q59.9619 943.18 56.2698 940.442 Q52.5777 937.705 46.212 937.705 Q39.8781 937.705 36.186 940.442 Q32.4621 943.18 32.4621 947.858 M27.4968 947.858 Q27.4968 940.22 32.4621 935.859 Q37.4273 931.499 46.212 931.499 Q54.9649 931.499 59.9619 935.859 Q64.9272 940.22 64.9272 947.858 Q64.9272 955.529 59.9619 959.89 Q54.9649 964.218 46.212 964.218 Q37.4273 964.218 32.4621 959.89 Q27.4968 955.529 27.4968 947.858 Z" fill="#000000" fill-rule="evenodd" fill-opacity="1" /><path clip-path="url(#clip810)" d="M 0 0 M28.3562 928.761 L28.3562 922.905 L56.1743 915.584 L28.3562 908.296 L28.3562 901.389 L56.1743 894.068 L28.3562 886.779 L28.3562 880.923 L64.0042 890.249 L64.0042 897.156 L34.7856 904.826 L64.0042 912.529 L64.0042 919.436 L28.3562 928.761 Z" fill="#000000" fill-rule="evenodd" fill-opacity="1" /><path clip-path="url(#clip810)" d="M 0 0 M35.1993 826.305 Q31.2526 824.109 29.3747 821.054 Q27.4968 817.998 27.4968 813.86 Q27.4968 808.29 31.4117 805.267 Q35.2948 802.243 42.4881 802.243 L64.0042 802.243 L64.0042 808.131 L42.679 808.131 Q37.5546 808.131 35.072 809.945 Q32.5894 811.76 32.5894 815.484 Q32.5894 820.035 35.6131 822.677 Q38.6368 825.319 43.8567 825.319 L64.0042 825.319 L64.0042 831.207 L42.679 831.207 Q37.5228 831.207 35.072 833.021 Q32.5894 834.835 32.5894 838.623 Q32.5894 843.111 35.6449 845.752 Q38.6686 848.394 43.8567 848.394 L64.0042 848.394 L64.0042 854.283 L28.3562 854.283 L28.3562 848.394 L33.8944 848.394 Q30.616 846.389 29.0564 843.588 Q27.4968 840.787 27.4968 836.936 Q27.4968 833.053 29.4702 830.347 Q31.4436 827.61 35.1993 826.305 Z" fill="#000000" fill-rule="evenodd" fill-opacity="1" /><path clip-path="url(#clip810)" d="M 0 0 M44.7161 765.608 L47.5806 765.608 L47.5806 792.535 Q53.6281 792.153 56.8109 788.907 Q59.9619 785.628 59.9619 779.804 Q59.9619 776.43 59.1344 773.279 Q58.3069 770.096 56.6518 766.977 L62.1899 766.977 Q63.5267 770.128 64.227 773.438 Q64.9272 776.748 64.9272 780.154 Q64.9272 788.684 59.9619 793.681 Q54.9967 798.646 46.5303 798.646 Q37.7774 798.646 32.6531 793.936 Q27.4968 789.193 27.4968 781.172 Q27.4968 773.979 32.1438 769.81 Q36.7589 765.608 44.7161 765.608 M42.9973 771.465 Q38.1912 771.528 35.3266 774.17 Q32.4621 776.78 32.4621 781.109 Q32.4621 786.01 35.2312 788.97 Q38.0002 791.899 43.0292 792.344 L42.9973 771.465 Z" fill="#000000" fill-rule="evenodd" fill-opacity="1" /><path clip-path="url(#clip810)" d="M 0 0 M14.479 759.465 L14.479 753.609 L64.0042 753.609 L64.0042 759.465 L14.479 759.465 Z" fill="#000000" fill-rule="evenodd" fill-opacity="1" /><path clip-path="url(#clip810)" d="M 0 0 M18.2347 741.673 L28.3562 741.673 L28.3562 729.61 L32.9077 729.61 L32.9077 741.673 L52.2594 741.673 Q56.6199 741.673 57.8613 740.496 Q59.1026 739.286 59.1026 735.626 L59.1026 729.61 L64.0042 729.61 L64.0042 735.626 Q64.0042 742.405 61.4897 744.983 Q58.9434 747.561 52.2594 747.561 L32.9077 747.561 L32.9077 751.858 L28.3562 751.858 L28.3562 747.561 L18.2347 747.561 L18.2347 741.673 Z" fill="#000000" fill-rule="evenodd" fill-opacity="1" /><path clip-path="url(#clip810)" d="M 0 0 M33.8307 682.09 Q33.2578 683.077 33.0032 684.254 Q32.7167 685.4 32.7167 686.801 Q32.7167 691.766 35.9632 694.44 Q39.1779 697.081 45.2253 697.081 L64.0042 697.081 L64.0042 702.97 L28.3562 702.97 L28.3562 697.081 L33.8944 697.081 Q30.6479 695.235 29.0883 692.275 Q27.4968 689.315 27.4968 685.082 Q27.4968 684.477 27.5923 683.745 Q27.656 683.013 27.8151 682.122 L33.8307 682.09 Z" fill="#000000" fill-rule="evenodd" fill-opacity="1" /><path clip-path="url(#clip810)" d="M 0 0 M46.0847 659.747 Q46.0847 666.844 47.7079 669.582 Q49.3312 672.319 53.2461 672.319 Q56.3653 672.319 58.2114 670.282 Q60.0256 668.213 60.0256 664.68 Q60.0256 659.81 56.5881 656.882 Q53.1188 653.922 47.3897 653.922 L46.0847 653.922 L46.0847 659.747 M43.6657 648.065 L64.0042 648.065 L64.0042 653.922 L58.5933 653.922 Q61.8398 655.927 63.3994 658.919 Q64.9272 661.911 64.9272 666.24 Q64.9272 671.714 61.8716 674.961 Q58.7843 678.175 53.6281 678.175 Q47.6125 678.175 44.5569 674.165 Q41.5014 670.123 41.5014 662.134 L41.5014 653.922 L40.9285 653.922 Q36.8862 653.922 34.6901 656.595 Q32.4621 659.237 32.4621 664.043 Q32.4621 667.099 33.1941 669.995 Q33.9262 672.892 35.3903 675.565 L29.9795 675.565 Q28.7381 672.351 28.1334 669.327 Q27.4968 666.303 27.4968 663.439 Q27.4968 655.704 31.5072 651.885 Q35.5176 648.065 43.6657 648.065 Z" fill="#000000" fill-rule="evenodd" fill-opacity="1" /><path clip-path="url(#clip810)" d="M 0 0 M18.2347 636.13 L28.3562 636.13 L28.3562 624.067 L32.9077 624.067 L32.9077 636.13 L52.2594 636.13 Q56.6199 636.13 57.8613 634.952 Q59.1026 633.743 59.1026 630.082 L59.1026 624.067 L64.0042 624.067 L64.0042 630.082 Q64.0042 636.862 61.4897 639.44 Q58.9434 642.018 52.2594 642.018 L32.9077 642.018 L32.9077 646.315 L28.3562 646.315 L28.3562 642.018 L18.2347 642.018 L18.2347 636.13 Z" fill="#000000" fill-rule="evenodd" fill-opacity="1" /><path clip-path="url(#clip810)" d="M 0 0 M44.7161 587.432 L47.5806 587.432 L47.5806 614.359 Q53.6281 613.977 56.8109 610.731 Q59.9619 607.452 59.9619 601.628 Q59.9619 598.254 59.1344 595.103 Q58.3069 591.92 56.6518 588.801 L62.1899 588.801 Q63.5267 591.952 64.227 595.262 Q64.9272 598.572 64.9272 601.978 Q64.9272 610.508 59.9619 615.505 Q54.9967 620.47 46.5303 620.47 Q37.7774 620.47 32.6531 615.759 Q27.4968 611.017 27.4968 602.996 Q27.4968 595.803 32.1438 591.633 Q36.7589 587.432 44.7161 587.432 M42.9973 593.289 Q38.1912 593.352 35.3266 595.994 Q32.4621 598.604 32.4621 602.933 Q32.4621 607.834 35.2312 610.794 Q38.0002 613.722 43.0292 614.168 L42.9973 593.289 Z" fill="#000000" fill-rule="evenodd" fill-opacity="1" /><path clip-path="url(#clip810)" d="M 0 0 M14.479 561.11 L14.479 547.615 L19.0304 547.615 L19.0304 555.253 L68.0464 555.253 L68.0464 547.615 L72.5979 547.615 L72.5979 561.11 L14.479 561.11 Z" fill="#000000" fill-rule="evenodd" fill-opacity="1" /><path clip-path="url(#clip810)" d="M 0 0 M58.5933 539.53 L58.5933 529.027 L22.3406 529.027 L24.6323 540.453 L18.7758 540.453 L16.4842 529.09 L16.4842 522.661 L58.5933 522.661 L58.5933 512.158 L64.0042 512.158 L64.0042 539.53 L58.5933 539.53 Z" fill="#000000" fill-rule="evenodd" fill-opacity="1" /><path clip-path="url(#clip810)" d="M 0 0 M16.4842 495.607 L16.4842 490.196 L70.0516 506.747 L70.0516 512.158 L16.4842 495.607 Z" fill="#000000" fill-rule="evenodd" fill-opacity="1" /><path clip-path="url(#clip810)" d="M 0 0 M29.4065 461.327 L34.9447 461.327 Q33.6716 463.81 33.035 466.484 Q32.3984 469.157 32.3984 472.022 Q32.3984 476.382 33.7352 478.579 Q35.072 480.743 37.7456 480.743 Q39.7826 480.743 40.9603 479.183 Q42.1061 477.624 43.1565 472.913 L43.6021 470.908 Q44.9389 464.669 47.3897 462.059 Q49.8086 459.418 54.1691 459.418 Q59.1344 459.418 62.0308 463.364 Q64.9272 467.279 64.9272 474.154 Q64.9272 477.019 64.3543 480.138 Q63.8132 483.225 62.6992 486.663 L56.6518 486.663 Q58.3387 483.416 59.198 480.265 Q60.0256 477.114 60.0256 474.027 Q60.0256 469.889 58.6251 467.661 Q57.1929 465.433 54.6147 465.433 Q52.2276 465.433 50.9545 467.057 Q49.6813 468.648 48.5037 474.091 L48.0262 476.128 Q46.8804 481.57 44.5251 483.989 Q42.138 486.408 38.0002 486.408 Q32.9713 486.408 30.2341 482.844 Q27.4968 479.279 27.4968 472.722 Q27.4968 469.476 27.9743 466.611 Q28.4517 463.746 29.4065 461.327 Z" fill="#000000" fill-rule="evenodd" fill-opacity="1" /><path clip-path="url(#clip810)" d="M 0 0 M14.479 439.589 L72.5979 439.589 L72.5979 453.084 L68.0464 453.084 L68.0464 445.477 L19.0304 445.477 L19.0304 453.084 L14.479 453.084 L14.479 439.589 Z" fill="#000000" fill-rule="evenodd" fill-opacity="1" /><polyline clip-path="url(#clip812)" style="stroke:#009af9; stroke-width:12; stroke-opacity:1; fill:none" points="
  376.726,1384.24 396.104,1378.37 415.483,1372.99 434.861,1367.77 454.24,1362.65 473.618,1357.61 492.997,1352.63 512.375,1347.69 531.754,1342.8 551.132,1337.94 
  570.511,1333.11 589.89,1328.31 609.268,1323.54 628.647,1318.79 648.025,1314.06 667.404,1309.35 686.782,1304.66 706.161,1299.98 725.539,1295.32 744.918,1290.68 
  764.296,1286.04 783.675,1281.43 803.054,1276.82 822.432,1272.23 841.811,1267.65 861.189,1263.07 880.568,1258.51 899.946,1253.96 919.325,1249.42 938.703,1244.89 
  958.082,1240.37 977.46,1235.85 996.839,1231.35 1016.22,1226.85 1035.6,1222.36 1054.97,1217.88 1074.35,1213.4 1093.73,1208.93 1113.11,1204.47 1132.49,1200.02 
  1151.87,1195.57 1171.25,1191.13 1190.62,1186.69 1210,1182.26 1229.38,1177.84 1248.76,1173.42 1268.14,1169.01 1287.52,1164.6 1306.9,1160.2 1326.27,1155.8 
  1345.65,1151.41 1365.03,1147.02 1384.41,1142.64 1403.79,1138.26 1423.17,1133.89 1442.55,1129.52 1461.92,1125.16 1481.3,1120.8 1500.68,1116.45 1520.06,1112.09 
  1539.44,1107.75 1558.82,1103.41 1578.2,1099.07 1597.57,1094.73 1616.95,1090.4 1636.33,1086.08 1655.71,1081.75 1675.09,1077.44 1694.47,1073.12 1713.85,1068.81 
  1733.22,1064.5 1752.6,1060.2 1771.98,1055.89 1791.36,1051.6 1810.74,1047.3 1830.12,1043.01 1849.5,1038.72 1868.87,1034.44 1888.25,1030.15 1907.63,1025.88 
  1927.01,1021.6 1946.39,1017.33 1965.77,1013.06 1985.14,1008.79 2004.52,1004.53 2023.9,1000.27 2043.28,996.007 2062.66,991.752 2082.04,987.499 2101.42,983.249 
  2120.79,979.002 2140.17,974.757 2159.55,970.515 2178.93,966.275 2198.31,962.039 2217.69,957.804 2237.07,953.572 2256.44,949.343 2275.82,945.116 2295.2,940.891 
  
  "/>
<polyline clip-path="url(#clip812)" style="stroke:#e26f46; stroke-width:12; stroke-opacity:1; fill:none" points="
  376.726,1384.24 396.104,1372.65 415.483,1362.01 434.861,1351.7 454.24,1341.59 473.618,1331.63 492.997,1321.78 512.375,1312.04 531.754,1302.37 551.132,1292.77 
  570.511,1283.23 589.89,1273.75 609.268,1264.32 628.647,1254.93 648.025,1245.59 667.404,1236.28 686.782,1227.01 706.161,1217.77 725.539,1208.57 744.918,1199.39 
  764.296,1190.24 783.675,1181.12 803.054,1172.02 822.432,1162.94 841.811,1153.89 861.189,1144.86 880.568,1135.85 899.946,1126.86 919.325,1117.89 938.703,1108.93 
  958.082,1100 977.46,1091.08 996.839,1082.18 1016.22,1073.29 1035.6,1064.42 1054.97,1055.56 1074.35,1046.72 1093.73,1037.89 1113.11,1029.08 1132.49,1020.28 
  1151.87,1011.49 1171.25,1002.71 1190.62,993.951 1210,985.199 1229.38,976.459 1248.76,967.73 1268.14,959.012 1287.52,950.304 1306.9,941.608 1326.27,932.921 
  1345.65,924.245 1365.03,915.578 1384.41,906.921 1403.79,898.273 1423.17,889.635 1442.55,881.005 1461.92,872.385 1481.3,863.773 1500.68,855.17 1520.06,846.575 
  1539.44,837.988 1558.82,829.409 1578.2,820.839 1597.57,812.276 1616.95,803.721 1636.33,795.173 1655.71,786.633 1675.09,778.1 1694.47,769.574 1713.85,761.056 
  1733.22,752.544 1752.6,744.039 1771.98,735.541 1791.36,727.05 1810.74,718.565 1830.12,710.087 1849.5,701.615 1868.87,693.149 1888.25,684.689 1907.63,676.236 
  1927.01,667.788 1946.39,659.347 1965.77,650.911 1985.14,642.482 2004.52,634.057 2023.9,625.639 2043.28,617.226 2062.66,608.819 2082.04,600.417 2101.42,592.02 
  2120.79,583.629 2140.17,575.243 2159.55,566.862 2178.93,558.486 2198.31,550.116 2217.69,541.75 2237.07,533.389 2256.44,525.034 2275.82,516.683 2295.2,508.336 
  
  "/>
<polyline clip-path="url(#clip812)" style="stroke:#3da44d; stroke-width:12; stroke-opacity:1; fill:none" points="
  376.726,1384.23 396.104,1367.07 415.483,1351.3 434.861,1336.02 454.24,1321.03 473.618,1306.27 492.997,1291.68 512.375,1277.24 531.754,1262.91 551.132,1248.68 
  570.511,1234.55 589.89,1220.5 609.268,1206.52 628.647,1192.61 648.025,1178.76 667.404,1164.97 686.782,1151.23 706.161,1137.54 725.539,1123.9 744.918,1110.3 
  764.296,1096.74 783.675,1083.22 803.054,1069.73 822.432,1056.29 841.811,1042.87 861.189,1029.49 880.568,1016.13 899.946,1002.81 919.325,989.516 938.703,976.248 
  958.082,963.006 977.46,949.789 996.839,936.596 1016.22,923.427 1035.6,910.28 1054.97,897.156 1074.35,884.052 1093.73,870.97 1113.11,857.907 1132.49,844.864 
  1151.87,831.84 1171.25,818.835 1190.62,805.847 1210,792.877 1229.38,779.925 1248.76,766.989 1268.14,754.069 1287.52,741.165 1306.9,728.276 1326.27,715.403 
  1345.65,702.545 1365.03,689.701 1384.41,676.872 1403.79,664.056 1423.17,651.254 1442.55,638.466 1461.92,625.691 1481.3,612.928 1500.68,600.179 1520.06,587.441 
  1539.44,574.716 1558.82,562.003 1578.2,549.302 1597.57,536.612 1616.95,523.934 1636.33,511.266 1655.71,498.61 1675.09,485.965 1694.47,473.33 1713.85,460.706 
  1733.22,448.092 1752.6,435.488 1771.98,422.894 1791.36,410.31 1810.74,397.736 1830.12,385.171 1849.5,372.616 1868.87,360.07 1888.25,347.534 1907.63,335.006 
  1927.01,322.487 1946.39,309.977 1965.77,297.476 1985.14,284.983 2004.52,272.499 2023.9,260.023 2043.28,247.556 2062.66,235.097 2082.04,222.645 2101.42,210.202 
  2120.79,197.766 2140.17,185.339 2159.55,172.918 2178.93,160.506 2198.31,148.101 2217.69,135.703 2237.07,123.313 2256.44,110.93 2275.82,98.5544 2295.2,86.1857 
  
  "/>
<path clip-path="url(#clip810)" d="
M1937.05 335.029 L2284.97 335.029 L2284.97 93.1086 L1937.05 93.1086  Z
  " fill="#ffffff" fill-rule="evenodd" fill-opacity="1"/>
<polyline clip-path="url(#clip810)" style="stroke:#000000; stroke-width:4; stroke-opacity:1; fill:none" points="
  1937.05,335.029 2284.97,335.029 2284.97,93.1086 1937.05,93.1086 1937.05,335.029 
  "/>
<polyline clip-path="url(#clip810)" style="stroke:#009af9; stroke-width:4; stroke-opacity:1; fill:none" points="
  1959.64,153.589 2095.22,153.589 
  "/>
<path clip-path="url(#clip810)" d="M 0 0 M2117.81 136.309 L2147.05 136.309 L2147.05 140.244 L2134.78 140.244 L2134.78 170.869 L2130.08 170.869 L2130.08 140.244 L2117.81 140.244 L2117.81 136.309 Z" fill="#000000" fill-rule="evenodd" fill-opacity="1" /><path clip-path="url(#clip810)" d="M 0 0 M2152.07 149.341 L2181.75 149.341 L2181.75 153.23 L2152.07 153.23 L2152.07 149.341 M2152.07 158.785 L2181.75 158.785 L2181.75 162.721 L2152.07 162.721 L2152.07 158.785 Z" fill="#000000" fill-rule="evenodd" fill-opacity="1" /><path clip-path="url(#clip810)" d="M 0 0 M2190.84 166.933 L2207.16 166.933 L2207.16 170.869 L2185.22 170.869 L2185.22 166.933 Q2187.88 164.179 2192.46 159.549 Q2197.07 154.896 2198.25 153.554 Q2200.5 151.031 2201.38 149.295 Q2202.28 147.535 2202.28 145.846 Q2202.28 143.091 2200.33 141.355 Q2198.41 139.619 2195.31 139.619 Q2193.11 139.619 2190.66 140.383 Q2188.23 141.147 2185.45 142.697 L2185.45 137.975 Q2188.27 136.841 2190.73 136.262 Q2193.18 135.684 2195.22 135.684 Q2200.59 135.684 2203.78 138.369 Q2206.98 141.054 2206.98 145.545 Q2206.98 147.674 2206.17 149.596 Q2205.38 151.494 2203.27 154.086 Q2202.7 154.758 2199.59 157.975 Q2196.49 161.17 2190.84 166.933 Z" fill="#000000" fill-rule="evenodd" fill-opacity="1" /><path clip-path="url(#clip810)" d="M 0 0 M2237.7 138.971 L2237.7 143.901 Q2235.33 141.702 2232.65 140.614 Q2229.99 139.526 2226.98 139.526 Q2221.05 139.526 2217.9 143.16 Q2214.76 146.772 2214.76 153.623 Q2214.76 160.452 2217.9 164.086 Q2221.05 167.697 2226.98 167.697 Q2229.99 167.697 2232.65 166.609 Q2235.33 165.521 2237.7 163.322 L2237.7 168.207 Q2235.24 169.873 2232.49 170.707 Q2229.76 171.54 2226.7 171.54 Q2218.85 171.54 2214.34 166.748 Q2209.83 161.933 2209.83 153.623 Q2209.83 145.29 2214.34 140.498 Q2218.85 135.684 2226.7 135.684 Q2229.8 135.684 2232.53 136.517 Q2235.29 137.327 2237.7 138.971 Z" fill="#000000" fill-rule="evenodd" fill-opacity="1" /><polyline clip-path="url(#clip810)" style="stroke:#e26f46; stroke-width:4; stroke-opacity:1; fill:none" points="
  1959.64,214.069 2095.22,214.069 
  "/>
<path clip-path="url(#clip810)" d="M 0 0 M2117.81 196.789 L2147.05 196.789 L2147.05 200.724 L2134.78 200.724 L2134.78 231.349 L2130.08 231.349 L2130.08 200.724 L2117.81 200.724 L2117.81 196.789 Z" fill="#000000" fill-rule="evenodd" fill-opacity="1" /><path clip-path="url(#clip810)" d="M 0 0 M2152.07 209.821 L2181.75 209.821 L2181.75 213.71 L2152.07 213.71 L2152.07 209.821 M2152.07 219.265 L2181.75 219.265 L2181.75 223.201 L2152.07 223.201 L2152.07 219.265 Z" fill="#000000" fill-rule="evenodd" fill-opacity="1" /><path clip-path="url(#clip810)" d="M 0 0 M2199.66 200.863 L2187.86 219.312 L2199.66 219.312 L2199.66 200.863 M2198.44 196.789 L2204.32 196.789 L2204.32 219.312 L2209.25 219.312 L2209.25 223.201 L2204.32 223.201 L2204.32 231.349 L2199.66 231.349 L2199.66 223.201 L2184.06 223.201 L2184.06 218.687 L2198.44 196.789 Z" fill="#000000" fill-rule="evenodd" fill-opacity="1" /><path clip-path="url(#clip810)" d="M 0 0 M2239.78 199.451 L2239.78 204.381 Q2237.42 202.182 2234.73 201.094 Q2232.07 200.006 2229.06 200.006 Q2223.14 200.006 2219.99 203.64 Q2216.84 207.252 2216.84 214.103 Q2216.84 220.932 2219.99 224.566 Q2223.14 228.177 2229.06 228.177 Q2232.07 228.177 2234.73 227.089 Q2237.42 226.001 2239.78 223.802 L2239.78 228.687 Q2237.33 230.353 2234.57 231.187 Q2231.84 232.02 2228.78 232.02 Q2220.94 232.02 2216.42 227.228 Q2211.91 222.413 2211.91 214.103 Q2211.91 205.77 2216.42 200.978 Q2220.94 196.164 2228.78 196.164 Q2231.89 196.164 2234.62 196.997 Q2237.37 197.807 2239.78 199.451 Z" fill="#000000" fill-rule="evenodd" fill-opacity="1" /><polyline clip-path="url(#clip810)" style="stroke:#3da44d; stroke-width:4; stroke-opacity:1; fill:none" points="
  1959.64,274.549 2095.22,274.549 
  "/>
<path clip-path="url(#clip810)" d="M 0 0 M2117.81 257.269 L2147.05 257.269 L2147.05 261.204 L2134.78 261.204 L2134.78 291.829 L2130.08 291.829 L2130.08 261.204 L2117.81 261.204 L2117.81 257.269 Z" fill="#000000" fill-rule="evenodd" fill-opacity="1" /><path clip-path="url(#clip810)" d="M 0 0 M2152.07 270.301 L2181.75 270.301 L2181.75 274.19 L2152.07 274.19 L2152.07 270.301 M2152.07 279.745 L2181.75 279.745 L2181.75 283.681 L2152.07 283.681 L2152.07 279.745 Z" fill="#000000" fill-rule="evenodd" fill-opacity="1" /><path clip-path="url(#clip810)" d="M 0 0 M2197.39 272.685 Q2194.25 272.685 2192.39 274.838 Q2190.57 276.991 2190.57 280.741 Q2190.57 284.468 2192.39 286.643 Q2194.25 288.796 2197.39 288.796 Q2200.54 288.796 2202.37 286.643 Q2204.22 284.468 2204.22 280.741 Q2204.22 276.991 2202.37 274.838 Q2200.54 272.685 2197.39 272.685 M2206.68 258.033 L2206.68 262.292 Q2204.92 261.458 2203.11 261.019 Q2201.33 260.579 2199.57 260.579 Q2194.94 260.579 2192.49 263.704 Q2190.06 266.829 2189.71 273.148 Q2191.08 271.134 2193.14 270.069 Q2195.2 268.982 2197.67 268.982 Q2202.88 268.982 2205.89 272.153 Q2208.92 275.301 2208.92 280.741 Q2208.92 286.065 2205.77 289.282 Q2202.63 292.5 2197.39 292.5 Q2191.4 292.5 2188.23 287.917 Q2185.06 283.31 2185.06 274.583 Q2185.06 266.389 2188.95 261.528 Q2192.83 256.644 2199.39 256.644 Q2201.14 256.644 2202.93 256.991 Q2204.73 257.338 2206.68 258.033 Z" fill="#000000" fill-rule="evenodd" fill-opacity="1" /><path clip-path="url(#clip810)" d="M 0 0 M2239.45 259.931 L2239.45 264.861 Q2237.09 262.662 2234.41 261.574 Q2231.75 260.486 2228.74 260.486 Q2222.81 260.486 2219.66 264.12 Q2216.52 267.732 2216.52 274.583 Q2216.52 281.412 2219.66 285.046 Q2222.81 288.657 2228.74 288.657 Q2231.75 288.657 2234.41 287.569 Q2237.09 286.481 2239.45 284.282 L2239.45 289.167 Q2237 290.833 2234.25 291.667 Q2231.52 292.5 2228.46 292.5 Q2220.61 292.5 2216.1 287.708 Q2211.58 282.893 2211.58 274.583 Q2211.58 266.25 2216.1 261.458 Q2220.61 256.644 2228.46 256.644 Q2231.56 256.644 2234.29 257.477 Q2237.05 258.287 2239.45 259.931 Z" fill="#000000" fill-rule="evenodd" fill-opacity="1" /></svg>
