<?xml version="1.0" encoding="utf-8"?>
<svg xmlns="http://www.w3.org/2000/svg" xmlns:xlink="http://www.w3.org/1999/xlink" width="600" height="400" viewBox="0 0 2400 1600">
<defs>
  <clipPath id="clip070">
    <rect x="0" y="0" width="2400" height="1600"/>
  </clipPath>
</defs>
<path clip-path="url(#clip070)" d="
M0 1600 L2400 1600 L2400 0 L0 0  Z
  " fill="#ffffff" fill-rule="evenodd" fill-opacity="1"/>
<defs>
  <clipPath id="clip071">
    <rect x="480" y="0" width="1681" height="1600"/>
  </clipPath>
</defs>
<path clip-path="url(#clip070)" d="
M238.13 1423.18 L2352.76 1423.18 L2352.76 47.2441 L238.13 47.2441  Z
  " fill="#ffffff" fill-rule="evenodd" fill-opacity="1"/>
<defs>
  <clipPath id="clip072">
    <rect x="238" y="47" width="2116" height="1377"/>
  </clipPath>
</defs>
<polyline clip-path="url(#clip072)" style="stroke:#000000; stroke-width:2; stroke-opacity:0.1; fill:none" points="
  238.13,1423.18 238.13,47.2441 
  "/>
<polyline clip-path="url(#clip072)" style="stroke:#000000; stroke-width:2; stroke-opacity:0.1; fill:none" points="
  540.219,1423.18 540.219,47.2441 
  "/>
<polyline clip-path="url(#clip072)" style="stroke:#000000; stroke-width:2; stroke-opacity:0.1; fill:none" points="
  842.309,1423.18 842.309,47.2441 
  "/>
<polyline clip-path="url(#clip072)" style="stroke:#000000; stroke-width:2; stroke-opacity:0.1; fill:none" points="
  1144.4,1423.18 1144.4,47.2441 
  "/>
<polyline clip-path="url(#clip072)" style="stroke:#000000; stroke-width:2; stroke-opacity:0.1; fill:none" points="
  1446.49,1423.18 1446.49,47.2441 
  "/>
<polyline clip-path="url(#clip072)" style="stroke:#000000; stroke-width:2; stroke-opacity:0.1; fill:none" points="
  1748.58,1423.18 1748.58,47.2441 
  "/>
<polyline clip-path="url(#clip072)" style="stroke:#000000; stroke-width:2; stroke-opacity:0.1; fill:none" points="
  2050.67,1423.18 2050.67,47.2441 
  "/>
<polyline clip-path="url(#clip072)" style="stroke:#000000; stroke-width:2; stroke-opacity:0.1; fill:none" points="
  2352.76,1423.18 2352.76,47.2441 
  "/>
<polyline clip-path="url(#clip070)" style="stroke:#000000; stroke-width:4; stroke-opacity:1; fill:none" points="
  238.13,1423.18 2352.76,1423.18 
  "/>
<polyline clip-path="url(#clip070)" style="stroke:#000000; stroke-width:4; stroke-opacity:1; fill:none" points="
  238.13,1423.18 238.13,1406.67 
  "/>
<polyline clip-path="url(#clip070)" style="stroke:#000000; stroke-width:4; stroke-opacity:1; fill:none" points="
  540.219,1423.18 540.219,1406.67 
  "/>
<polyline clip-path="url(#clip070)" style="stroke:#000000; stroke-width:4; stroke-opacity:1; fill:none" points="
  842.309,1423.18 842.309,1406.67 
  "/>
<polyline clip-path="url(#clip070)" style="stroke:#000000; stroke-width:4; stroke-opacity:1; fill:none" points="
  1144.4,1423.18 1144.4,1406.67 
  "/>
<polyline clip-path="url(#clip070)" style="stroke:#000000; stroke-width:4; stroke-opacity:1; fill:none" points="
  1446.49,1423.18 1446.49,1406.67 
  "/>
<polyline clip-path="url(#clip070)" style="stroke:#000000; stroke-width:4; stroke-opacity:1; fill:none" points="
  1748.58,1423.18 1748.58,1406.67 
  "/>
<polyline clip-path="url(#clip070)" style="stroke:#000000; stroke-width:4; stroke-opacity:1; fill:none" points="
  2050.67,1423.18 2050.67,1406.67 
  "/>
<polyline clip-path="url(#clip070)" style="stroke:#000000; stroke-width:4; stroke-opacity:1; fill:none" points="
  2352.76,1423.18 2352.76,1406.67 
  "/>
<path clip-path="url(#clip070)" d="M 0 0 M238.13 1452.37 Q234.519 1452.37 232.69 1455.94 Q230.885 1459.48 230.885 1466.61 Q230.885 1473.71 232.69 1477.28 Q234.519 1480.82 238.13 1480.82 Q241.764 1480.82 243.57 1477.28 Q245.399 1473.71 245.399 1466.61 Q245.399 1459.48 243.57 1455.94 Q241.764 1452.37 238.13 1452.37 M238.13 1448.67 Q243.94 1448.67 246.996 1453.27 Q250.074 1457.86 250.074 1466.61 Q250.074 1475.33 246.996 1479.94 Q243.94 1484.52 238.13 1484.52 Q232.32 1484.52 229.241 1479.94 Q226.186 1475.33 226.186 1466.61 Q226.186 1457.86 229.241 1453.27 Q232.32 1448.67 238.13 1448.67 Z" fill="#000000" fill-rule="evenodd" fill-opacity="1" /><path clip-path="url(#clip070)" d="M 0 0 M516.99 1449.29 L535.347 1449.29 L535.347 1453.23 L521.273 1453.23 L521.273 1461.7 Q522.291 1461.35 523.31 1461.19 Q524.328 1461 525.347 1461 Q531.134 1461 534.513 1464.18 Q537.893 1467.35 537.893 1472.76 Q537.893 1478.34 534.421 1481.44 Q530.949 1484.52 524.629 1484.52 Q522.453 1484.52 520.185 1484.15 Q517.939 1483.78 515.532 1483.04 L515.532 1478.34 Q517.615 1479.48 519.838 1480.03 Q522.06 1480.59 524.537 1480.59 Q528.541 1480.59 530.879 1478.48 Q533.217 1476.38 533.217 1472.76 Q533.217 1469.15 530.879 1467.05 Q528.541 1464.94 524.537 1464.94 Q522.662 1464.94 520.787 1465.36 Q518.935 1465.77 516.99 1466.65 L516.99 1449.29 Z" fill="#000000" fill-rule="evenodd" fill-opacity="1" /><path clip-path="url(#clip070)" d="M 0 0 M552.962 1452.37 Q549.351 1452.37 547.523 1455.94 Q545.717 1459.48 545.717 1466.61 Q545.717 1473.71 547.523 1477.28 Q549.351 1480.82 552.962 1480.82 Q556.597 1480.82 558.402 1477.28 Q560.231 1473.71 560.231 1466.61 Q560.231 1459.48 558.402 1455.94 Q556.597 1452.37 552.962 1452.37 M552.962 1448.67 Q558.773 1448.67 561.828 1453.27 Q564.907 1457.86 564.907 1466.61 Q564.907 1475.33 561.828 1479.94 Q558.773 1484.52 552.962 1484.52 Q547.152 1484.52 544.074 1479.94 Q541.018 1475.33 541.018 1466.61 Q541.018 1457.86 544.074 1453.27 Q547.152 1448.67 552.962 1448.67 Z" fill="#000000" fill-rule="evenodd" fill-opacity="1" /><path clip-path="url(#clip070)" d="M 0 0 M805.677 1479.92 L813.316 1479.92 L813.316 1453.55 L805.006 1455.22 L805.006 1450.96 L813.27 1449.29 L817.946 1449.29 L817.946 1479.92 L825.584 1479.92 L825.584 1483.85 L805.677 1483.85 L805.677 1479.92 Z" fill="#000000" fill-rule="evenodd" fill-opacity="1" /><path clip-path="url(#clip070)" d="M 0 0 M840.654 1452.37 Q837.043 1452.37 835.214 1455.94 Q833.408 1459.48 833.408 1466.61 Q833.408 1473.71 835.214 1477.28 Q837.043 1480.82 840.654 1480.82 Q844.288 1480.82 846.094 1477.28 Q847.922 1473.71 847.922 1466.61 Q847.922 1459.48 846.094 1455.94 Q844.288 1452.37 840.654 1452.37 M840.654 1448.67 Q846.464 1448.67 849.519 1453.27 Q852.598 1457.86 852.598 1466.61 Q852.598 1475.33 849.519 1479.94 Q846.464 1484.52 840.654 1484.52 Q834.844 1484.52 831.765 1479.94 Q828.709 1475.33 828.709 1466.61 Q828.709 1457.86 831.765 1453.27 Q834.844 1448.67 840.654 1448.67 Z" fill="#000000" fill-rule="evenodd" fill-opacity="1" /><path clip-path="url(#clip070)" d="M 0 0 M867.668 1452.37 Q864.056 1452.37 862.228 1455.94 Q860.422 1459.48 860.422 1466.61 Q860.422 1473.71 862.228 1477.28 Q864.056 1480.82 867.668 1480.82 Q871.302 1480.82 873.107 1477.28 Q874.936 1473.71 874.936 1466.61 Q874.936 1459.48 873.107 1455.94 Q871.302 1452.37 867.668 1452.37 M867.668 1448.67 Q873.478 1448.67 876.533 1453.27 Q879.612 1457.86 879.612 1466.61 Q879.612 1475.33 876.533 1479.94 Q873.478 1484.52 867.668 1484.52 Q861.857 1484.52 858.779 1479.94 Q855.723 1475.33 855.723 1466.61 Q855.723 1457.86 858.779 1453.27 Q861.857 1448.67 867.668 1448.67 Z" fill="#000000" fill-rule="evenodd" fill-opacity="1" /><path clip-path="url(#clip070)" d="M 0 0 M1108.26 1479.92 L1115.9 1479.92 L1115.9 1453.55 L1107.59 1455.22 L1107.59 1450.96 L1115.86 1449.29 L1120.53 1449.29 L1120.53 1479.92 L1128.17 1479.92 L1128.17 1483.85 L1108.26 1483.85 L1108.26 1479.92 Z" fill="#000000" fill-rule="evenodd" fill-opacity="1" /><path clip-path="url(#clip070)" d="M 0 0 M1133.29 1449.29 L1151.64 1449.29 L1151.64 1453.23 L1137.57 1453.23 L1137.57 1461.7 Q1138.59 1461.35 1139.61 1461.19 Q1140.63 1461 1141.64 1461 Q1147.43 1461 1150.81 1464.18 Q1154.19 1467.35 1154.19 1472.76 Q1154.19 1478.34 1150.72 1481.44 Q1147.25 1484.52 1140.93 1484.52 Q1138.75 1484.52 1136.48 1484.15 Q1134.24 1483.78 1131.83 1483.04 L1131.83 1478.34 Q1133.91 1479.48 1136.13 1480.03 Q1138.36 1480.59 1140.83 1480.59 Q1144.84 1480.59 1147.18 1478.48 Q1149.51 1476.38 1149.51 1472.76 Q1149.51 1469.15 1147.18 1467.05 Q1144.84 1464.94 1140.83 1464.94 Q1138.96 1464.94 1137.08 1465.36 Q1135.23 1465.77 1133.29 1466.65 L1133.29 1449.29 Z" fill="#000000" fill-rule="evenodd" fill-opacity="1" /><path clip-path="url(#clip070)" d="M 0 0 M1169.26 1452.37 Q1165.65 1452.37 1163.82 1455.94 Q1162.01 1459.48 1162.01 1466.61 Q1162.01 1473.71 1163.82 1477.28 Q1165.65 1480.82 1169.26 1480.82 Q1172.89 1480.82 1174.7 1477.28 Q1176.53 1473.71 1176.53 1466.61 Q1176.53 1459.48 1174.7 1455.94 Q1172.89 1452.37 1169.26 1452.37 M1169.26 1448.67 Q1175.07 1448.67 1178.12 1453.27 Q1181.2 1457.86 1181.2 1466.61 Q1181.2 1475.33 1178.12 1479.94 Q1175.07 1484.52 1169.26 1484.52 Q1163.45 1484.52 1160.37 1479.94 Q1157.31 1475.33 1157.31 1466.61 Q1157.31 1457.86 1160.37 1453.27 Q1163.45 1448.67 1169.26 1448.67 Z" fill="#000000" fill-rule="evenodd" fill-opacity="1" /><path clip-path="url(#clip070)" d="M 0 0 M1414.13 1479.92 L1430.45 1479.92 L1430.45 1483.85 L1408.5 1483.85 L1408.5 1479.92 Q1411.16 1477.16 1415.75 1472.53 Q1420.35 1467.88 1421.53 1466.54 Q1423.78 1464.01 1424.66 1462.28 Q1425.56 1460.52 1425.56 1458.83 Q1425.56 1456.07 1423.62 1454.34 Q1421.7 1452.6 1418.59 1452.6 Q1416.4 1452.6 1413.94 1453.37 Q1411.51 1454.13 1408.73 1455.68 L1408.73 1450.96 Q1411.56 1449.82 1414.01 1449.25 Q1416.46 1448.67 1418.5 1448.67 Q1423.87 1448.67 1427.07 1451.35 Q1430.26 1454.04 1430.26 1458.53 Q1430.26 1460.66 1429.45 1462.58 Q1428.66 1464.48 1426.56 1467.07 Q1425.98 1467.74 1422.88 1470.96 Q1419.77 1474.15 1414.13 1479.92 Z" fill="#000000" fill-rule="evenodd" fill-opacity="1" /><path clip-path="url(#clip070)" d="M 0 0 M1445.52 1452.37 Q1441.9 1452.37 1440.08 1455.94 Q1438.27 1459.48 1438.27 1466.61 Q1438.27 1473.71 1440.08 1477.28 Q1441.9 1480.82 1445.52 1480.82 Q1449.15 1480.82 1450.96 1477.28 Q1452.78 1473.71 1452.78 1466.61 Q1452.78 1459.48 1450.96 1455.94 Q1449.15 1452.37 1445.52 1452.37 M1445.52 1448.67 Q1451.33 1448.67 1454.38 1453.27 Q1457.46 1457.86 1457.46 1466.61 Q1457.46 1475.33 1454.38 1479.94 Q1451.33 1484.52 1445.52 1484.52 Q1439.71 1484.52 1436.63 1479.94 Q1433.57 1475.33 1433.57 1466.61 Q1433.57 1457.86 1436.63 1453.27 Q1439.71 1448.67 1445.52 1448.67 Z" fill="#000000" fill-rule="evenodd" fill-opacity="1" /><path clip-path="url(#clip070)" d="M 0 0 M1472.53 1452.37 Q1468.92 1452.37 1467.09 1455.94 Q1465.28 1459.48 1465.28 1466.61 Q1465.28 1473.71 1467.09 1477.28 Q1468.92 1480.82 1472.53 1480.82 Q1476.16 1480.82 1477.97 1477.28 Q1479.8 1473.71 1479.8 1466.61 Q1479.8 1459.48 1477.97 1455.94 Q1476.16 1452.37 1472.53 1452.37 M1472.53 1448.67 Q1478.34 1448.67 1481.39 1453.27 Q1484.47 1457.86 1484.47 1466.61 Q1484.47 1475.33 1481.39 1479.94 Q1478.34 1484.52 1472.53 1484.52 Q1466.72 1484.52 1463.64 1479.94 Q1460.58 1475.33 1460.58 1466.61 Q1460.58 1457.86 1463.64 1453.27 Q1466.72 1448.67 1472.53 1448.67 Z" fill="#000000" fill-rule="evenodd" fill-opacity="1" /><path clip-path="url(#clip070)" d="M 0 0 M1716.71 1479.92 L1733.03 1479.92 L1733.03 1483.85 L1711.09 1483.85 L1711.09 1479.92 Q1713.75 1477.16 1718.33 1472.53 Q1722.94 1467.88 1724.12 1466.54 Q1726.37 1464.01 1727.25 1462.28 Q1728.15 1460.52 1728.15 1458.83 Q1728.15 1456.07 1726.2 1454.34 Q1724.28 1452.6 1721.18 1452.6 Q1718.98 1452.6 1716.53 1453.37 Q1714.1 1454.13 1711.32 1455.68 L1711.32 1450.96 Q1714.14 1449.82 1716.6 1449.25 Q1719.05 1448.67 1721.09 1448.67 Q1726.46 1448.67 1729.65 1451.35 Q1732.85 1454.04 1732.85 1458.53 Q1732.85 1460.66 1732.04 1462.58 Q1731.25 1464.48 1729.14 1467.07 Q1728.57 1467.74 1725.46 1470.96 Q1722.36 1474.15 1716.71 1479.92 Z" fill="#000000" fill-rule="evenodd" fill-opacity="1" /><path clip-path="url(#clip070)" d="M 0 0 M1738.15 1449.29 L1756.51 1449.29 L1756.51 1453.23 L1742.43 1453.23 L1742.43 1461.7 Q1743.45 1461.35 1744.47 1461.19 Q1745.49 1461 1746.51 1461 Q1752.29 1461 1755.67 1464.18 Q1759.05 1467.35 1759.05 1472.76 Q1759.05 1478.34 1755.58 1481.44 Q1752.11 1484.52 1745.79 1484.52 Q1743.61 1484.52 1741.34 1484.15 Q1739.1 1483.78 1736.69 1483.04 L1736.69 1478.34 Q1738.77 1479.48 1741 1480.03 Q1743.22 1480.59 1745.7 1480.59 Q1749.7 1480.59 1752.04 1478.48 Q1754.38 1476.38 1754.38 1472.76 Q1754.38 1469.15 1752.04 1467.05 Q1749.7 1464.94 1745.7 1464.94 Q1743.82 1464.94 1741.95 1465.36 Q1740.09 1465.77 1738.15 1466.65 L1738.15 1449.29 Z" fill="#000000" fill-rule="evenodd" fill-opacity="1" /><path clip-path="url(#clip070)" d="M 0 0 M1774.12 1452.37 Q1770.51 1452.37 1768.68 1455.94 Q1766.88 1459.48 1766.88 1466.61 Q1766.88 1473.71 1768.68 1477.28 Q1770.51 1480.82 1774.12 1480.82 Q1777.76 1480.82 1779.56 1477.28 Q1781.39 1473.71 1781.39 1466.61 Q1781.39 1459.48 1779.56 1455.94 Q1777.76 1452.37 1774.12 1452.37 M1774.12 1448.67 Q1779.93 1448.67 1782.99 1453.27 Q1786.07 1457.86 1786.07 1466.61 Q1786.07 1475.33 1782.99 1479.94 Q1779.93 1484.52 1774.12 1484.52 Q1768.31 1484.52 1765.23 1479.94 Q1762.18 1475.33 1762.18 1466.61 Q1762.18 1457.86 1765.23 1453.27 Q1768.31 1448.67 1774.12 1448.67 Z" fill="#000000" fill-rule="evenodd" fill-opacity="1" /><path clip-path="url(#clip070)" d="M 0 0 M2027.9 1465.22 Q2031.26 1465.94 2033.13 1468.2 Q2035.03 1470.47 2035.03 1473.81 Q2035.03 1478.92 2031.51 1481.72 Q2027.99 1484.52 2021.51 1484.52 Q2019.34 1484.52 2017.02 1484.08 Q2014.73 1483.67 2012.28 1482.81 L2012.28 1478.3 Q2014.22 1479.43 2016.53 1480.01 Q2018.85 1480.59 2021.37 1480.59 Q2025.77 1480.59 2028.06 1478.85 Q2030.38 1477.12 2030.38 1473.81 Q2030.38 1470.75 2028.22 1469.04 Q2026.09 1467.3 2022.28 1467.3 L2018.25 1467.3 L2018.25 1463.46 L2022.46 1463.46 Q2025.91 1463.46 2027.74 1462.09 Q2029.57 1460.7 2029.57 1458.11 Q2029.57 1455.45 2027.67 1454.04 Q2025.79 1452.6 2022.28 1452.6 Q2020.35 1452.6 2018.16 1453.02 Q2015.96 1453.44 2013.32 1454.31 L2013.32 1450.15 Q2015.98 1449.41 2018.29 1449.04 Q2020.63 1448.67 2022.69 1448.67 Q2028.02 1448.67 2031.12 1451.1 Q2034.22 1453.5 2034.22 1457.63 Q2034.22 1460.5 2032.58 1462.49 Q2030.93 1464.45 2027.9 1465.22 Z" fill="#000000" fill-rule="evenodd" fill-opacity="1" /><path clip-path="url(#clip070)" d="M 0 0 M2050.1 1452.37 Q2046.49 1452.37 2044.66 1455.94 Q2042.85 1459.48 2042.85 1466.61 Q2042.85 1473.71 2044.66 1477.28 Q2046.49 1480.82 2050.1 1480.82 Q2053.73 1480.82 2055.54 1477.28 Q2057.37 1473.71 2057.37 1466.61 Q2057.37 1459.48 2055.54 1455.94 Q2053.73 1452.37 2050.1 1452.37 M2050.1 1448.67 Q2055.91 1448.67 2058.97 1453.27 Q2062.04 1457.86 2062.04 1466.61 Q2062.04 1475.33 2058.97 1479.94 Q2055.91 1484.52 2050.1 1484.52 Q2044.29 1484.52 2041.21 1479.94 Q2038.15 1475.33 2038.15 1466.61 Q2038.15 1457.86 2041.21 1453.27 Q2044.29 1448.67 2050.1 1448.67 Z" fill="#000000" fill-rule="evenodd" fill-opacity="1" /><path clip-path="url(#clip070)" d="M 0 0 M2077.11 1452.37 Q2073.5 1452.37 2071.67 1455.94 Q2069.87 1459.48 2069.87 1466.61 Q2069.87 1473.71 2071.67 1477.28 Q2073.5 1480.82 2077.11 1480.82 Q2080.75 1480.82 2082.55 1477.28 Q2084.38 1473.71 2084.38 1466.61 Q2084.38 1459.48 2082.55 1455.94 Q2080.75 1452.37 2077.11 1452.37 M2077.11 1448.67 Q2082.92 1448.67 2085.98 1453.27 Q2089.06 1457.86 2089.06 1466.61 Q2089.06 1475.33 2085.98 1479.94 Q2082.92 1484.52 2077.11 1484.52 Q2071.3 1484.52 2068.22 1479.94 Q2065.17 1475.33 2065.17 1466.61 Q2065.17 1457.86 2068.22 1453.27 Q2071.3 1448.67 2077.11 1448.67 Z" fill="#000000" fill-rule="evenodd" fill-opacity="1" /><path clip-path="url(#clip070)" d="M 0 0 M2330.49 1465.22 Q2333.84 1465.94 2335.72 1468.2 Q2337.62 1470.47 2337.62 1473.81 Q2337.62 1478.92 2334.1 1481.72 Q2330.58 1484.52 2324.1 1484.52 Q2321.92 1484.52 2319.61 1484.08 Q2317.32 1483.67 2314.86 1482.81 L2314.86 1478.3 Q2316.81 1479.43 2319.12 1480.01 Q2321.44 1480.59 2323.96 1480.59 Q2328.36 1480.59 2330.65 1478.85 Q2332.96 1477.12 2332.96 1473.81 Q2332.96 1470.75 2330.81 1469.04 Q2328.68 1467.3 2324.86 1467.3 L2320.83 1467.3 L2320.83 1463.46 L2325.05 1463.46 Q2328.5 1463.46 2330.33 1462.09 Q2332.15 1460.7 2332.15 1458.11 Q2332.15 1455.45 2330.26 1454.04 Q2328.38 1452.6 2324.86 1452.6 Q2322.94 1452.6 2320.74 1453.02 Q2318.54 1453.44 2315.9 1454.31 L2315.9 1450.15 Q2318.57 1449.41 2320.88 1449.04 Q2323.22 1448.67 2325.28 1448.67 Q2330.6 1448.67 2333.71 1451.1 Q2336.81 1453.5 2336.81 1457.63 Q2336.81 1460.5 2335.16 1462.49 Q2333.52 1464.45 2330.49 1465.22 Z" fill="#000000" fill-rule="evenodd" fill-opacity="1" /><path clip-path="url(#clip070)" d="M 0 0 M2342.73 1449.29 L2361.09 1449.29 L2361.09 1453.23 L2347.02 1453.23 L2347.02 1461.7 Q2348.03 1461.35 2349.05 1461.19 Q2350.07 1461 2351.09 1461 Q2356.88 1461 2360.26 1464.18 Q2363.64 1467.35 2363.64 1472.76 Q2363.64 1478.34 2360.16 1481.44 Q2356.69 1484.52 2350.37 1484.52 Q2348.2 1484.52 2345.93 1484.15 Q2343.68 1483.78 2341.27 1483.04 L2341.27 1478.34 Q2343.36 1479.48 2345.58 1480.03 Q2347.8 1480.59 2350.28 1480.59 Q2354.28 1480.59 2356.62 1478.48 Q2358.96 1476.38 2358.96 1472.76 Q2358.96 1469.15 2356.62 1467.05 Q2354.28 1464.94 2350.28 1464.94 Q2348.4 1464.94 2346.53 1465.36 Q2344.68 1465.77 2342.73 1466.65 L2342.73 1449.29 Z" fill="#000000" fill-rule="evenodd" fill-opacity="1" /><path clip-path="url(#clip070)" d="M 0 0 M2378.7 1452.37 Q2375.09 1452.37 2373.27 1455.94 Q2371.46 1459.48 2371.46 1466.61 Q2371.46 1473.71 2373.27 1477.28 Q2375.09 1480.82 2378.7 1480.82 Q2382.34 1480.82 2384.14 1477.28 Q2385.97 1473.71 2385.97 1466.61 Q2385.97 1459.48 2384.14 1455.94 Q2382.34 1452.37 2378.7 1452.37 M2378.7 1448.67 Q2384.51 1448.67 2387.57 1453.27 Q2390.65 1457.86 2390.65 1466.61 Q2390.65 1475.33 2387.57 1479.94 Q2384.51 1484.52 2378.7 1484.52 Q2372.89 1484.52 2369.82 1479.94 Q2366.76 1475.33 2366.76 1466.61 Q2366.76 1457.86 2369.82 1453.27 Q2372.89 1448.67 2378.7 1448.67 Z" fill="#000000" fill-rule="evenodd" fill-opacity="1" /><path clip-path="url(#clip070)" d="M 0 0 M1312.06 1520.4 L1299.17 1537.74 L1312.73 1556.04 L1305.82 1556.04 L1295.44 1542.04 L1285.07 1556.04 L1278.16 1556.04 L1292.01 1537.39 L1279.34 1520.4 L1286.24 1520.4 L1295.7 1533.1 L1305.15 1520.4 L1312.06 1520.4 Z" fill="#000000" fill-rule="evenodd" fill-opacity="1" /><polyline clip-path="url(#clip072)" style="stroke:#000000; stroke-width:2; stroke-opacity:0.1; fill:none" points="
  238.13,1250.91 2352.76,1250.91 
  "/>
<polyline clip-path="url(#clip072)" style="stroke:#000000; stroke-width:2; stroke-opacity:0.1; fill:none" points="
  238.13,992.871 2352.76,992.871 
  "/>
<polyline clip-path="url(#clip072)" style="stroke:#000000; stroke-width:2; stroke-opacity:0.1; fill:none" points="
  238.13,734.832 2352.76,734.832 
  "/>
<polyline clip-path="url(#clip072)" style="stroke:#000000; stroke-width:2; stroke-opacity:0.1; fill:none" points="
  238.13,476.794 2352.76,476.794 
  "/>
<polyline clip-path="url(#clip072)" style="stroke:#000000; stroke-width:2; stroke-opacity:0.1; fill:none" points="
  238.13,218.755 2352.76,218.755 
  "/>
<polyline clip-path="url(#clip070)" style="stroke:#000000; stroke-width:4; stroke-opacity:1; fill:none" points="
  238.13,1423.18 238.13,47.2441 
  "/>
<polyline clip-path="url(#clip070)" style="stroke:#000000; stroke-width:4; stroke-opacity:1; fill:none" points="
  238.13,1250.91 263.506,1250.91 
  "/>
<polyline clip-path="url(#clip070)" style="stroke:#000000; stroke-width:4; stroke-opacity:1; fill:none" points="
  238.13,992.871 263.506,992.871 
  "/>
<polyline clip-path="url(#clip070)" style="stroke:#000000; stroke-width:4; stroke-opacity:1; fill:none" points="
  238.13,734.832 263.506,734.832 
  "/>
<polyline clip-path="url(#clip070)" style="stroke:#000000; stroke-width:4; stroke-opacity:1; fill:none" points="
  238.13,476.794 263.506,476.794 
  "/>
<polyline clip-path="url(#clip070)" style="stroke:#000000; stroke-width:4; stroke-opacity:1; fill:none" points="
  238.13,218.755 263.506,218.755 
  "/>
<path clip-path="url(#clip070)" d="M 0 0 M126.205 1236.71 Q122.593 1236.71 120.765 1240.27 Q118.959 1243.82 118.959 1250.94 Q118.959 1258.05 120.765 1261.62 Q122.593 1265.16 126.205 1265.16 Q129.839 1265.16 131.644 1261.62 Q133.473 1258.05 133.473 1250.94 Q133.473 1243.82 131.644 1240.27 Q129.839 1236.71 126.205 1236.71 M126.205 1233 Q132.015 1233 135.07 1237.61 Q138.149 1242.19 138.149 1250.94 Q138.149 1259.67 135.07 1264.28 Q132.015 1268.86 126.205 1268.86 Q120.394 1268.86 117.316 1264.28 Q114.26 1259.67 114.26 1250.94 Q114.26 1242.19 117.316 1237.61 Q120.394 1233 126.205 1233 Z" fill="#000000" fill-rule="evenodd" fill-opacity="1" /><path clip-path="url(#clip070)" d="M 0 0 M143.218 1262.31 L148.103 1262.31 L148.103 1268.19 L143.218 1268.19 L143.218 1262.31 Z" fill="#000000" fill-rule="evenodd" fill-opacity="1" /><path clip-path="url(#clip070)" d="M 0 0 M163.172 1236.71 Q159.561 1236.71 157.732 1240.27 Q155.927 1243.82 155.927 1250.94 Q155.927 1258.05 157.732 1261.62 Q159.561 1265.16 163.172 1265.16 Q166.806 1265.16 168.612 1261.62 Q170.44 1258.05 170.44 1250.94 Q170.44 1243.82 168.612 1240.27 Q166.806 1236.71 163.172 1236.71 M163.172 1233 Q168.982 1233 172.038 1237.61 Q175.116 1242.19 175.116 1250.94 Q175.116 1259.67 172.038 1264.28 Q168.982 1268.86 163.172 1268.86 Q157.362 1268.86 154.283 1264.28 Q151.228 1259.67 151.228 1250.94 Q151.228 1242.19 154.283 1237.61 Q157.362 1233 163.172 1233 Z" fill="#000000" fill-rule="evenodd" fill-opacity="1" /><path clip-path="url(#clip070)" d="M 0 0 M190.186 1236.71 Q186.575 1236.71 184.746 1240.27 Q182.94 1243.82 182.94 1250.94 Q182.94 1258.05 184.746 1261.62 Q186.575 1265.16 190.186 1265.16 Q193.82 1265.16 195.625 1261.62 Q197.454 1258.05 197.454 1250.94 Q197.454 1243.82 195.625 1240.27 Q193.82 1236.71 190.186 1236.71 M190.186 1233 Q195.996 1233 199.051 1237.61 Q202.13 1242.19 202.13 1250.94 Q202.13 1259.67 199.051 1264.28 Q195.996 1268.86 190.186 1268.86 Q184.376 1268.86 181.297 1264.28 Q178.241 1259.67 178.241 1250.94 Q178.241 1242.19 181.297 1237.61 Q184.376 1233 190.186 1233 Z" fill="#000000" fill-rule="evenodd" fill-opacity="1" /><path clip-path="url(#clip070)" d="M 0 0 M128.797 978.67 Q125.186 978.67 123.357 982.235 Q121.552 985.776 121.552 992.906 Q121.552 1000.01 123.357 1003.58 Q125.186 1007.12 128.797 1007.12 Q132.431 1007.12 134.237 1003.58 Q136.066 1000.01 136.066 992.906 Q136.066 985.776 134.237 982.235 Q132.431 978.67 128.797 978.67 M128.797 974.966 Q134.607 974.966 137.663 979.573 Q140.741 984.156 140.741 992.906 Q140.741 1001.63 137.663 1006.24 Q134.607 1010.82 128.797 1010.82 Q122.987 1010.82 119.908 1006.24 Q116.853 1001.63 116.853 992.906 Q116.853 984.156 119.908 979.573 Q122.987 974.966 128.797 974.966 Z" fill="#000000" fill-rule="evenodd" fill-opacity="1" /><path clip-path="url(#clip070)" d="M 0 0 M145.811 1004.27 L150.695 1004.27 L150.695 1010.15 L145.811 1010.15 L145.811 1004.27 Z" fill="#000000" fill-rule="evenodd" fill-opacity="1" /><path clip-path="url(#clip070)" d="M 0 0 M159.792 1006.22 L176.112 1006.22 L176.112 1010.15 L154.167 1010.15 L154.167 1006.22 Q156.829 1003.46 161.413 998.832 Q166.019 994.179 167.2 992.837 Q169.445 990.313 170.325 988.577 Q171.227 986.818 171.227 985.128 Q171.227 982.374 169.283 980.638 Q167.362 978.901 164.26 978.901 Q162.061 978.901 159.607 979.665 Q157.177 980.429 154.399 981.98 L154.399 977.258 Q157.223 976.124 159.677 975.545 Q162.13 974.966 164.167 974.966 Q169.538 974.966 172.732 977.651 Q175.926 980.337 175.926 984.827 Q175.926 986.957 175.116 988.878 Q174.329 990.776 172.223 993.369 Q171.644 994.04 168.542 997.258 Q165.44 1000.45 159.792 1006.22 Z" fill="#000000" fill-rule="evenodd" fill-opacity="1" /><path clip-path="url(#clip070)" d="M 0 0 M181.227 975.591 L199.584 975.591 L199.584 979.526 L185.51 979.526 L185.51 987.999 Q186.528 987.651 187.547 987.489 Q188.565 987.304 189.584 987.304 Q195.371 987.304 198.75 990.475 Q202.13 993.647 202.13 999.063 Q202.13 1004.64 198.658 1007.74 Q195.186 1010.82 188.866 1010.82 Q186.69 1010.82 184.422 1010.45 Q182.176 1010.08 179.769 1009.34 L179.769 1004.64 Q181.852 1005.78 184.075 1006.33 Q186.297 1006.89 188.774 1006.89 Q192.778 1006.89 195.116 1004.78 Q197.454 1002.67 197.454 999.063 Q197.454 995.452 195.116 993.346 Q192.778 991.239 188.774 991.239 Q186.899 991.239 185.024 991.656 Q183.172 992.073 181.227 992.952 L181.227 975.591 Z" fill="#000000" fill-rule="evenodd" fill-opacity="1" /><path clip-path="url(#clip070)" d="M 0 0 M127.2 720.631 Q123.589 720.631 121.76 724.196 Q119.955 727.738 119.955 734.867 Q119.955 741.974 121.76 745.538 Q123.589 749.08 127.2 749.08 Q130.834 749.08 132.64 745.538 Q134.468 741.974 134.468 734.867 Q134.468 727.738 132.64 724.196 Q130.834 720.631 127.2 720.631 M127.2 716.927 Q133.01 716.927 136.066 721.534 Q139.144 726.117 139.144 734.867 Q139.144 743.594 136.066 748.2 Q133.01 752.784 127.2 752.784 Q121.39 752.784 118.311 748.2 Q115.256 743.594 115.256 734.867 Q115.256 726.117 118.311 721.534 Q121.39 716.927 127.2 716.927 Z" fill="#000000" fill-rule="evenodd" fill-opacity="1" /><path clip-path="url(#clip070)" d="M 0 0 M144.214 746.233 L149.098 746.233 L149.098 752.112 L144.214 752.112 L144.214 746.233 Z" fill="#000000" fill-rule="evenodd" fill-opacity="1" /><path clip-path="url(#clip070)" d="M 0 0 M154.214 717.552 L172.57 717.552 L172.57 721.488 L158.496 721.488 L158.496 729.96 Q159.515 729.613 160.533 729.451 Q161.552 729.265 162.57 729.265 Q168.357 729.265 171.737 732.437 Q175.116 735.608 175.116 741.025 Q175.116 746.603 171.644 749.705 Q168.172 752.784 161.852 752.784 Q159.677 752.784 157.408 752.413 Q155.163 752.043 152.755 751.302 L152.755 746.603 Q154.839 747.737 157.061 748.293 Q159.283 748.849 161.76 748.849 Q165.765 748.849 168.102 746.742 Q170.44 744.636 170.44 741.025 Q170.44 737.413 168.102 735.307 Q165.765 733.201 161.76 733.201 Q159.885 733.201 158.01 733.617 Q156.158 734.034 154.214 734.913 L154.214 717.552 Z" fill="#000000" fill-rule="evenodd" fill-opacity="1" /><path clip-path="url(#clip070)" d="M 0 0 M190.186 720.631 Q186.575 720.631 184.746 724.196 Q182.94 727.738 182.94 734.867 Q182.94 741.974 184.746 745.538 Q186.575 749.08 190.186 749.08 Q193.82 749.08 195.625 745.538 Q197.454 741.974 197.454 734.867 Q197.454 727.738 195.625 724.196 Q193.82 720.631 190.186 720.631 M190.186 716.927 Q195.996 716.927 199.051 721.534 Q202.13 726.117 202.13 734.867 Q202.13 743.594 199.051 748.2 Q195.996 752.784 190.186 752.784 Q184.376 752.784 181.297 748.2 Q178.241 743.594 178.241 734.867 Q178.241 726.117 181.297 721.534 Q184.376 716.927 190.186 716.927 Z" fill="#000000" fill-rule="evenodd" fill-opacity="1" /><path clip-path="url(#clip070)" d="M 0 0 M128.103 462.592 Q124.492 462.592 122.663 466.157 Q120.857 469.699 120.857 476.828 Q120.857 483.935 122.663 487.5 Q124.492 491.041 128.103 491.041 Q131.737 491.041 133.542 487.5 Q135.371 483.935 135.371 476.828 Q135.371 469.699 133.542 466.157 Q131.737 462.592 128.103 462.592 M128.103 458.889 Q133.913 458.889 136.968 463.495 Q140.047 468.078 140.047 476.828 Q140.047 485.555 136.968 490.162 Q133.913 494.745 128.103 494.745 Q122.293 494.745 119.214 490.162 Q116.158 485.555 116.158 476.828 Q116.158 468.078 119.214 463.495 Q122.293 458.889 128.103 458.889 Z" fill="#000000" fill-rule="evenodd" fill-opacity="1" /><path clip-path="url(#clip070)" d="M 0 0 M145.116 488.194 L150.001 488.194 L150.001 494.074 L145.116 494.074 L145.116 488.194 Z" fill="#000000" fill-rule="evenodd" fill-opacity="1" /><path clip-path="url(#clip070)" d="M 0 0 M153.89 459.514 L176.112 459.514 L176.112 461.504 L163.565 494.074 L158.681 494.074 L170.487 463.449 L153.89 463.449 L153.89 459.514 Z" fill="#000000" fill-rule="evenodd" fill-opacity="1" /><path clip-path="url(#clip070)" d="M 0 0 M181.227 459.514 L199.584 459.514 L199.584 463.449 L185.51 463.449 L185.51 471.921 Q186.528 471.574 187.547 471.412 Q188.565 471.227 189.584 471.227 Q195.371 471.227 198.75 474.398 Q202.13 477.569 202.13 482.986 Q202.13 488.564 198.658 491.666 Q195.186 494.745 188.866 494.745 Q186.69 494.745 184.422 494.375 Q182.176 494.004 179.769 493.264 L179.769 488.564 Q181.852 489.699 184.075 490.254 Q186.297 490.81 188.774 490.81 Q192.778 490.81 195.116 488.703 Q197.454 486.597 197.454 482.986 Q197.454 479.375 195.116 477.268 Q192.778 475.162 188.774 475.162 Q186.899 475.162 185.024 475.578 Q183.172 475.995 181.227 476.875 L181.227 459.514 Z" fill="#000000" fill-rule="evenodd" fill-opacity="1" /><path clip-path="url(#clip070)" d="M 0 0 M118.242 232.1 L125.88 232.1 L125.88 205.734 L117.57 207.401 L117.57 203.142 L125.834 201.475 L130.51 201.475 L130.51 232.1 L138.149 232.1 L138.149 236.035 L118.242 236.035 L118.242 232.1 Z" fill="#000000" fill-rule="evenodd" fill-opacity="1" /><path clip-path="url(#clip070)" d="M 0 0 M143.218 230.155 L148.103 230.155 L148.103 236.035 L143.218 236.035 L143.218 230.155 Z" fill="#000000" fill-rule="evenodd" fill-opacity="1" /><path clip-path="url(#clip070)" d="M 0 0 M163.172 204.554 Q159.561 204.554 157.732 208.118 Q155.927 211.66 155.927 218.79 Q155.927 225.896 157.732 229.461 Q159.561 233.003 163.172 233.003 Q166.806 233.003 168.612 229.461 Q170.44 225.896 170.44 218.79 Q170.44 211.66 168.612 208.118 Q166.806 204.554 163.172 204.554 M163.172 200.85 Q168.982 200.85 172.038 205.456 Q175.116 210.04 175.116 218.79 Q175.116 227.516 172.038 232.123 Q168.982 236.706 163.172 236.706 Q157.362 236.706 154.283 232.123 Q151.228 227.516 151.228 218.79 Q151.228 210.04 154.283 205.456 Q157.362 200.85 163.172 200.85 Z" fill="#000000" fill-rule="evenodd" fill-opacity="1" /><path clip-path="url(#clip070)" d="M 0 0 M190.186 204.554 Q186.575 204.554 184.746 208.118 Q182.94 211.66 182.94 218.79 Q182.94 225.896 184.746 229.461 Q186.575 233.003 190.186 233.003 Q193.82 233.003 195.625 229.461 Q197.454 225.896 197.454 218.79 Q197.454 211.66 195.625 208.118 Q193.82 204.554 190.186 204.554 M190.186 200.85 Q195.996 200.85 199.051 205.456 Q202.13 210.04 202.13 218.79 Q202.13 227.516 199.051 232.123 Q195.996 236.706 190.186 236.706 Q184.376 236.706 181.297 232.123 Q178.241 227.516 178.241 218.79 Q178.241 210.04 181.297 205.456 Q184.376 200.85 190.186 200.85 Z" fill="#000000" fill-rule="evenodd" fill-opacity="1" /><path clip-path="url(#clip070)" d="M 0 0 M70.212 745.095 Q76.6732 745.095 80.3653 742.453 Q84.0256 739.779 84.0256 735.132 Q84.0256 730.485 80.3653 727.812 Q76.6732 725.138 70.212 725.138 Q63.7508 725.138 60.0905 727.812 Q56.3984 730.485 56.3984 735.132 Q56.3984 739.779 60.0905 742.453 Q63.7508 745.095 70.212 745.095 M82.657 725.138 Q85.8398 726.984 87.3994 729.817 Q88.9272 732.618 88.9272 736.565 Q88.9272 743.026 83.771 747.1 Q78.6147 751.142 70.212 751.142 Q61.8093 751.142 56.6531 747.1 Q51.4968 743.026 51.4968 736.565 Q51.4968 732.618 53.0564 729.817 Q54.5842 726.984 57.7671 725.138 L52.3562 725.138 L52.3562 719.282 L101.563 719.282 L101.563 725.138 L82.657 725.138 Z" fill="#000000" fill-rule="evenodd" fill-opacity="1" /><polyline clip-path="url(#clip072)" style="stroke:#009af9; stroke-width:4; stroke-opacity:1; fill:none" points="
  238.13,1250.91 240.983,1250.91 246.39,1250.91 251.798,1250.91 254.651,1250.91 257.503,1250.91 262.911,1250.91 268.318,1250.91 271.171,1250.91 
  274.024,1250.91 279.431,1250.91 284.839,1250.91 287.692,1250.91 290.544,1250.91 295.952,1250.91 301.359,1250.91 304.212,1250.91 
  307.065,1250.91 312.472,1250.91 317.88,1250.91 320.733,1250.91 323.585,1250.91 328.993,1250.91 334.4,1250.91 337.253,1250.91 
  340.106,1250.91 345.513,1250.91 350.921,1250.91 353.774,1250.91 356.626,1250.91 362.034,1250.91 367.442,1250.91 370.294,1250.91 
  373.147,1250.91 378.554,1250.91 383.962,1250.91 386.815,1250.91 389.667,1250.91 395.075,1250.91 400.483,1250.91 403.335,1250.91 
  406.188,1250.91 411.595,1250.91 417.003,1250.91 419.856,1250.91 422.708,1250.91 428.116,1250.91 433.524,1250.91 436.376,1250.91 
  439.229,1250.91 444.636,1250.91 450.044,1250.91 452.897,1250.91 455.749,1250.91 461.157,1250.91 466.565,1250.91 469.417,1250.91 
  472.27,1250.91 477.678,1250.91 483.085,1250.91 485.938,1250.91 488.79,1250.91 494.198,1250.91 499.606,1250.91 502.458,1250.91 
  505.311,1250.91 510.719,1250.91 516.126,1250.91 518.979,1250.91 521.831,1250.91 527.239,1250.91 532.647,1250.91 535.499,1250.91 
  538.352,1250.91 543.76,1250.91 549.167,1250.91 552.02,1250.91 554.872,1250.91 560.28,1250.91 565.688,1250.91 568.54,1250.91 
  571.393,1250.91 576.801,1250.91 582.208,1250.91 585.061,1250.91 587.914,1250.91 593.321,1250.91 598.729,1250.91 601.581,1250.91 
  604.434,1250.91 609.842,1250.91 615.249,1250.91 618.102,1250.91 620.955,1250.91 626.362,1250.91 631.77,1250.91 634.622,1250.91 
  637.475,1250.91 642.883,1250.91 648.29,1250.91 651.143,1250.91 653.996,1250.91 659.403,1250.91 664.811,1250.91 667.663,1250.91 
  670.516,1250.91 675.924,1250.91 681.331,1250.91 684.184,1250.91 687.037,1250.91 692.444,218.755 697.852,218.755 700.704,218.755 
  703.557,218.755 708.965,218.755 714.372,218.755 717.225,218.755 720.078,218.755 725.485,218.755 730.893,218.755 733.745,218.755 
  736.598,218.755 742.006,218.755 747.413,218.755 750.266,218.755 753.119,218.755 758.526,218.755 763.934,218.755 766.787,218.755 
  769.639,218.755 775.047,218.755 780.454,218.755 783.307,218.755 786.16,218.755 791.567,218.755 796.975,218.755 799.828,218.755 
  802.68,218.755 808.088,218.755 813.495,218.755 816.348,218.755 819.201,218.755 824.608,218.755 830.016,218.755 832.869,218.755 
  835.721,218.755 841.129,218.755 846.536,218.755 849.389,218.755 852.242,218.755 857.649,218.755 863.057,218.755 865.91,218.755 
  868.762,218.755 874.17,218.755 879.577,218.755 882.43,218.755 885.283,218.755 890.69,218.755 896.098,218.755 898.951,218.755 
  901.803,218.755 907.211,218.755 912.618,218.755 915.471,218.755 918.324,218.755 923.731,218.755 929.139,218.755 931.992,218.755 
  934.844,218.755 940.252,218.755 945.66,218.755 948.512,218.755 951.365,218.755 956.772,218.755 962.18,218.755 965.033,218.755 
  967.885,218.755 973.293,218.755 978.701,218.755 981.553,218.755 984.406,218.755 989.813,218.755 995.221,1250.91 998.074,1250.91 
  1000.93,1250.91 1006.33,1250.91 1011.74,1250.91 1014.59,1250.91 1017.45,1250.91 1022.85,1250.91 1028.26,1250.91 1031.11,1250.91 
  1033.97,1250.91 1039.38,1250.91 1044.78,1250.91 1047.64,1250.91 1050.49,1250.91 1055.9,1250.91 1061.3,1250.91 1064.16,1250.91 
  1067.01,1250.91 1072.42,1250.91 1077.82,1250.91 1080.68,1250.91 1083.53,1250.91 1088.94,1250.91 1094.34,1250.91 1097.2,1250.91 
  1100.05,1250.91 1105.46,1250.91 1110.86,1250.91 1113.72,1250.91 1116.57,1250.91 1121.98,1250.91 1127.39,1250.91 1130.24,1250.91 
  1133.09,1250.91 1138.5,1250.91 1143.91,1250.91 1146.76,1250.91 1149.61,1250.91 1155.02,1250.91 1160.43,1250.91 1163.28,1250.91 
  1166.13,1250.91 1171.54,1250.91 1176.95,1250.91 1179.8,1250.91 1182.65,1250.91 1188.06,1250.91 1193.47,1250.91 1196.32,1250.91 
  1199.17,1250.91 1204.58,1250.91 1209.99,1250.91 1212.84,1250.91 1215.69,1250.91 1221.1,1250.91 1226.51,1250.91 1229.36,1250.91 
  1232.21,1250.91 1237.62,1250.91 1243.03,1250.91 1245.88,1250.91 1248.73,1250.91 1254.14,1250.91 1259.55,1250.91 1262.4,1250.91 
  1265.25,1250.91 1270.66,1250.91 1276.07,1250.91 1278.92,1250.91 1281.78,1250.91 1287.18,1250.91 1292.59,1250.91 1295.44,1250.91 
  1298.3,1250.91 1303.7,1250.91 1309.11,1250.91 1311.96,1250.91 1314.82,1250.91 1320.22,1250.91 1325.63,1250.91 1328.48,1250.91 
  1331.34,1250.91 1336.74,1250.91 1342.15,1250.91 1345,1250.91 1347.86,1250.91 1353.26,1250.91 1358.67,1250.91 1361.53,1250.91 
  1364.38,1250.91 1369.79,1250.91 1375.19,1250.91 1378.05,1250.91 1380.9,1250.91 1386.31,1250.91 1391.71,1250.91 1394.57,1250.91 
  1397.42,1250.91 1402.83,1250.91 1408.23,1250.91 1411.09,1250.91 1413.94,1250.91 1419.35,1250.91 1424.75,1250.91 1427.61,1250.91 
  1430.46,1250.91 1435.87,1250.91 1441.27,1250.91 1444.13,1250.91 1446.98,1250.91 1452.39,1250.91 1457.8,1250.91 1460.65,1250.91 
  1463.5,1250.91 1468.91,1250.91 1474.32,1250.91 1477.17,1250.91 1480.02,1250.91 1485.43,1250.91 1490.84,1250.91 1493.69,1250.91 
  1496.54,1250.91 1501.95,1250.91 1507.36,1250.91 1510.21,1250.91 1513.06,1250.91 1518.47,1250.91 1523.88,1250.91 1526.73,1250.91 
  1529.58,1250.91 1534.99,1250.91 1540.4,1250.91 1543.25,1250.91 1546.1,1250.91 1551.51,1250.91 1556.92,1250.91 1559.77,1250.91 
  1562.62,1250.91 1568.03,1250.91 1573.44,1250.91 1576.29,1250.91 1579.14,1250.91 1584.55,1250.91 1589.96,1250.91 1592.81,1250.91 
  1595.66,1250.91 1601.07,1250.91 1606.48,1250.91 1609.33,1250.91 1612.19,1250.91 1617.59,1250.91 1623,1250.91 1625.85,1250.91 
  1628.71,1250.91 1634.11,1250.91 1639.52,1250.91 1642.37,1250.91 1645.23,1250.91 1650.63,1250.91 1656.04,1250.91 1658.89,1250.91 
  1661.75,1250.91 1667.15,1250.91 1672.56,1250.91 1675.41,1250.91 1678.27,1250.91 1683.68,1250.91 1689.08,1250.91 1691.94,1250.91 
  1694.79,1250.91 1700.2,1250.91 1705.6,1250.91 1708.46,1250.91 1711.31,1250.91 1716.72,1250.91 1722.12,1250.91 1724.98,1250.91 
  1727.83,1250.91 1733.24,1250.91 1738.64,1250.91 1741.5,1250.91 1744.35,1250.91 1749.76,1250.91 1755.16,1250.91 1758.02,1250.91 
  1760.87,1250.91 1766.28,1250.91 1771.69,1250.91 1774.54,1250.91 1777.39,1250.91 1782.8,1250.91 1788.21,1250.91 1791.06,1250.91 
  1793.91,1250.91 1799.32,1250.91 1804.73,1250.91 1807.58,1250.91 1810.43,1250.91 1815.84,1250.91 1821.25,1250.91 1824.1,1250.91 
  1826.95,1250.91 1832.36,1250.91 1837.77,1250.91 1840.62,1250.91 1843.47,1250.91 1848.88,1250.91 1854.29,1250.91 1857.14,1250.91 
  1859.99,1250.91 1865.4,1250.91 1870.81,1250.91 1873.66,1250.91 1876.51,1250.91 1881.92,1250.91 1887.33,1250.91 1890.18,1250.91 
  1893.03,1250.91 1898.44,1250.91 1903.85,1250.91 1906.7,1250.91 1909.55,1250.91 1914.96,1250.91 1920.37,1250.91 1923.22,1250.91 
  1926.08,1250.91 1931.48,1250.91 1936.89,1250.91 1939.74,1250.91 1942.6,1250.91 1948,1250.91 1953.41,1250.91 1956.26,1250.91 
  1959.12,1250.91 1964.52,1250.91 1969.93,1250.91 1972.78,1250.91 1975.64,1250.91 1981.04,1250.91 1986.45,1250.91 1989.3,1250.91 
  1992.16,1250.91 1997.56,1250.91 2002.97,1250.91 2005.83,1250.91 2008.68,1250.91 2014.09,1250.91 2019.49,1250.91 2022.35,1250.91 
  2025.2,1250.91 2030.61,1250.91 2036.01,1250.91 2038.87,1250.91 2041.72,1250.91 2047.13,1250.91 2052.53,1250.91 2055.39,1250.91 
  2058.24,1250.91 2063.65,1250.91 2069.05,1250.91 2071.91,1250.91 2074.76,1250.91 2080.17,1250.91 2085.58,1250.91 2088.43,1250.91 
  2091.28,1250.91 2096.69,1250.91 2102.1,1250.91 2104.95,1250.91 2107.8,1250.91 2113.21,1250.91 2118.62,1250.91 2121.47,1250.91 
  2124.32,1250.91 2129.73,1250.91 2135.14,1250.91 2137.99,1250.91 2140.84,1250.91 2146.25,1250.91 2151.66,1250.91 2154.51,1250.91 
  2157.36,1250.91 2162.77,1250.91 2168.18,1250.91 2171.03,1250.91 2173.88,1250.91 2179.29,1250.91 2184.7,1250.91 2187.55,1250.91 
  2190.4,1250.91 2195.81,1250.91 2201.22,1250.91 2204.07,1250.91 2206.92,1250.91 2212.33,1250.91 2217.74,1250.91 2220.59,1250.91 
  2223.44,1250.91 2228.85,1250.91 2234.26,1250.91 2237.11,1250.91 2239.96,1250.91 2245.37,1250.91 2250.78,1250.91 2253.63,1250.91 
  2256.49,1250.91 2261.89,1250.91 2267.3,1250.91 2270.15,1250.91 2273.01,1250.91 2278.41,1250.91 2283.82,1250.91 2286.67,1250.91 
  2289.53,1250.91 2294.93,1250.91 2300.34,1250.91 2303.19,1250.91 2306.05,1250.91 2311.45,1250.91 2316.86,1250.91 2319.71,1250.91 
  2322.57,1250.91 2327.98,1250.91 2333.38,1250.91 2336.24,1250.91 2339.09,1250.91 2344.5,1250.91 2349.9,1250.91 2352.76,1250.91 
  
  "/>
<polyline clip-path="url(#clip072)" style="stroke:#e26f46; stroke-width:4; stroke-opacity:1; fill:none" points="
  238.13,1250.91 240.983,1250.91 246.39,1250.91 251.798,1250.91 254.651,1250.91 257.503,1250.91 262.911,1250.91 268.318,1250.91 271.171,1250.91 
  274.024,1250.91 279.431,1250.91 284.839,1250.91 287.692,1250.91 290.544,1250.91 295.952,1250.91 301.359,1250.91 304.212,1250.91 
  307.065,1250.91 312.472,1250.91 317.88,1250.91 320.733,1250.91 323.585,1250.91 328.993,1250.91 334.4,1250.91 337.253,1250.91 
  340.106,1250.91 345.513,1250.91 350.921,1250.91 353.774,1250.91 356.626,1250.91 362.034,1250.91 367.442,1250.91 370.294,1250.91 
  373.147,1250.91 378.554,1250.91 383.962,1250.91 386.815,1250.91 389.667,1250.91 395.075,1250.91 400.483,1250.91 403.335,1250.91 
  406.188,1250.91 411.595,1250.91 417.003,1250.91 419.856,1250.91 422.708,1250.91 428.116,1250.91 433.524,1250.91 436.376,1250.91 
  439.229,1250.91 444.636,1250.91 450.044,1250.91 452.897,1250.91 455.749,1250.91 461.157,1250.91 466.565,1250.91 469.417,1250.91 
  472.27,1250.91 477.678,1250.91 483.085,1250.91 485.938,1250.91 488.79,1250.91 494.198,1250.91 499.606,1250.91 502.458,1250.91 
  505.311,1250.91 510.719,1250.91 516.126,1250.91 518.979,1250.91 521.831,1250.91 527.239,1250.91 532.647,1250.91 535.499,1250.91 
  538.352,1250.91 543.76,1250.91 549.167,1250.91 552.02,1250.91 554.872,1250.91 560.28,1250.91 565.688,1250.91 568.54,1250.91 
  571.393,1250.91 576.801,1250.91 582.208,1250.91 585.061,1250.91 587.914,1250.91 593.321,1250.91 598.729,1250.91 601.581,1250.91 
  604.434,1250.91 609.842,1250.91 615.249,1250.91 618.102,1250.91 620.955,1250.91 626.362,1250.91 631.77,1250.91 634.622,1250.91 
  637.475,1250.91 642.883,1250.91 648.29,1250.91 651.143,1250.91 653.996,1250.91 659.403,1250.91 664.811,1250.91 667.663,1250.91 
  670.516,1250.91 675.924,1250.91 681.331,1250.91 684.184,1250.91 687.037,1250.91 692.444,1250.91 697.852,1250.91 700.704,1250.91 
  703.557,1250.91 708.965,1250.91 714.372,1250.91 717.225,1250.91 720.078,1250.91 725.485,1250.91 730.893,1250.91 733.745,1250.91 
  736.598,1250.91 742.006,1250.91 747.413,1250.91 750.266,1250.91 750.266,1250.91 753.119,1250.91 758.526,1250.91 763.934,1250.91 766.787,1250.91 
  769.639,1250.91 775.047,1250.91 780.454,1250.91 783.307,1250.91 783.307,1250.91 786.16,1250.91 791.567,1250.91 796.975,1250.91 799.828,1250.91 
  799.828,1250.91 802.68,1250.91 808.088,1250.91 813.495,1250.91 816.348,1250.91 816.348,1250.91 819.201,1250.91 824.608,1250.91 830.016,1250.91 832.869,1250.91 
  832.869,1250.91 835.721,1250.91 841.129,1250.91 846.536,1250.91 849.389,1250.91 849.389,1250.91 852.242,1250.91 857.649,1250.91 863.057,1250.91 865.91,1250.91 
  865.91,1250.91 868.762,1250.91 874.17,1250.91 879.577,1250.91 882.43,1250.91 882.43,1250.91 885.283,1250.91 890.69,1250.91 896.098,1250.91 898.951,1250.91 
  898.951,1250.91 901.803,1250.91 907.211,1250.91 912.618,1250.91 915.471,1250.91 915.471,1250.91 918.324,1250.91 923.731,1250.91 929.139,1250.91 931.992,1250.91 
  931.992,1250.91 934.844,1250.91 940.252,1250.91 945.66,1250.91 948.512,1250.91 948.512,1250.91 951.365,1250.91 956.772,1250.91 962.18,1250.91 965.033,1250.91 
  965.033,1250.91 967.885,1250.91 973.293,1250.91 978.701,1250.91 981.553,1250.91 981.553,1250.91 984.406,1250.91 989.813,1250.91 995.221,1250.91 998.074,1250.91 
  998.074,1250.91 1000.93,1250.91 1006.33,1250.91 1011.74,1250.91 1014.59,1250.91 1014.59,1250.91 1017.45,1250.91 1022.85,1250.91 1028.26,1250.91 1031.11,1250.91 
  1031.11,1250.91 1033.97,1250.91 1039.38,1250.91 1044.78,1250.91 1047.64,1250.91 1047.64,1250.91 1050.49,1250.91 1055.9,1250.91 1061.3,1250.91 1064.16,1250.91 
  1064.16,1250.91 1067.01,1250.91 1072.42,1250.91 1077.82,1250.91 1080.68,1250.91 1080.68,1250.91 1083.53,1250.92 1088.94,1250.91 1094.34,1250.9 1097.2,1250.9 
  1097.2,1250.9 1100.05,1250.9 1105.46,1250.93 1110.86,1250.92 1113.72,1250.89 1113.72,1250.91 1116.57,1250.86 1121.98,1250.89 1127.39,1250.98 1130.24,1251 
  1130.24,1250.98 1133.09,1250.98 1138.5,1250.78 1143.91,1250.78 1146.76,1250.92 1146.76,1250.88 1149.61,1251.12 1155.02,1251.19 1160.43,1250.65 1163.28,1250.36 
  1163.28,1250.53 1166.13,1250.26 1171.54,1251.26 1176.95,1252.01 1179.8,1251.67 1179.8,1251.58 1182.65,1250.77 1188.06,1248.89 1193.47,1250.36 1196.32,1252.33 
  1196.32,1251.8 1199.17,1254.28 1204.58,1253.06 1209.99,1246.85 1212.84,1244.54 1212.84,1245.86 1215.69,1244.64 1221.1,1255.12 1226.51,1262.5 1229.36,1259.59 
  1229.36,1258.41 1232.21,1251.64 1237.62,1231.85 1243.03,1237.45 1245.88,1253.17 1245.88,1252.54 1248.73,1272.37 1254.14,1287.36 1259.55,1247.36 1262.4,1214.18 
  1262.4,1217.32 1265.25,1187.59 1270.66,1205.01 1276.07,1305.7 1278.92,1359.49 1278.92,1355.32 1281.78,1384.24 1287.18,1276.4 1292.59,970.038 1295.44,765.862 
  1295.44,768.944 1298.3,566.447 1303.7,287.226 1309.11,174.661 1311.96,169.735 1311.96,168.291 1314.82,184.444 1320.22,218.673 1325.63,230.97 1328.48,228.04 
  1328.48,228.534 1331.34,222.704 1336.74,216.034 1342.15,216.143 1345,217.701 1345,217.579 1347.86,219.064 1353.26,219.684 1358.67,218.954 1361.53,218.589 
  1361.53,218.596 1364.38,218.451 1369.79,218.631 1375.19,218.836 1378.05,218.85 1378.05,218.855 1380.9,218.812 1386.31,218.731 1391.71,218.727 1394.57,218.75 
  1394.57,218.745 1397.42,218.774 1402.83,218.77 1408.23,218.732 1411.09,218.724 1411.09,218.732 1413.94,218.733 1419.35,218.799 1424.75,218.79 1427.61,218.741 
  1427.61,218.759 1430.46,218.675 1435.87,218.683 1441.27,218.868 1444.13,218.939 1444.13,218.881 1446.98,218.934 1452.39,218.562 1457.8,218.436 1460.65,218.641 
  1460.65,218.617 1463.5,219.003 1468.91,219.39 1474.32,218.555 1477.17,217.913 1477.17,218.201 1480.02,217.473 1485.43,218.8 1490.84,220.708 1493.69,220.707 
  1493.69,220.343 1496.54,219.664 1501.95,215.597 1507.36,216.053 1510.21,218.979 1510.21,218.61 1513.06,222.82 1518.47,225.067 1523.88,215.947 1526.73,209.773 
  1526.73,211.667 1529.58,205.969 1534.99,217.034 1540.4,236.535 1543.25,240.097 1543.25,236.94 1546.1,234.961 1551.51,199.562 1556.92,181.106 1559.77,192.611 
  1559.77,195.901 1562.62,218.319 1568.03,279.44 1573.44,271.335 1576.29,227.971 1576.29,225.294 1579.14,169.143 1584.55,86.1857 1589.96,173.962 1592.81,307.146 
  1592.81,308.991 1595.66,487.043 1601.07,872.105 1606.48,1165.66 1609.33,1252.7 1609.33,1251.86 1612.19,1294 1617.59,1288.35 1623,1253.07 1625.85,1241.93 
  1625.85,1242.01 1628.71,1238.83 1634.11,1246.04 1639.52,1253.44 1642.37,1254.34 1642.37,1254.46 1645.23,1253.47 1650.63,1250.83 1656.04,1249.93 1658.89,1250.25 
  1658.89,1250.19 1661.75,1250.73 1667.15,1251.19 1672.56,1251.06 1675.41,1250.92 1675.41,1250.92 1678.27,1250.83 1683.68,1250.85 1689.08,1250.92 1691.94,1250.94 
  1691.94,1250.94 1694.79,1250.93 1700.2,1250.91 1705.6,1250.9 1708.46,1250.91 1708.46,1250.9 1711.31,1250.91 1716.72,1250.91 1722.12,1250.91 1724.98,1250.91 
  1724.98,1250.91 1727.83,1250.91 1733.24,1250.91 1738.64,1250.91 1741.5,1250.91 1741.5,1250.91 1744.35,1250.91 1749.76,1250.91 1755.16,1250.91 1758.02,1250.91 
  1758.02,1250.91 1760.87,1250.91 1766.28,1250.91 1771.69,1250.91 1774.54,1250.91 1774.54,1250.91 1777.39,1250.91 1782.8,1250.91 1788.21,1250.91 1791.06,1250.91 
  1791.06,1250.91 1793.91,1250.91 1799.32,1250.91 1804.73,1250.91 1807.58,1250.91 1807.58,1250.91 1810.43,1250.91 1815.84,1250.91 1821.25,1250.91 1824.1,1250.91 
  1824.1,1250.91 1826.95,1250.91 1832.36,1250.91 1837.77,1250.91 1840.62,1250.91 1840.62,1250.91 1843.47,1250.91 1848.88,1250.91 1854.29,1250.91 1857.14,1250.91 
  1857.14,1250.91 1859.99,1250.91 1865.4,1250.91 1870.81,1250.91 1873.66,1250.91 1873.66,1250.91 1876.51,1250.91 1881.92,1250.91 1887.33,1250.91 1890.18,1250.91 
  1890.18,1250.91 1893.03,1250.91 1898.44,1250.91 1903.85,1250.91 1906.7,1250.91 1906.7,1250.91 1909.55,1250.91 1914.96,1250.91 1920.37,1250.91 1923.22,1250.91 
  1923.22,1250.91 1926.08,1250.91 1931.48,1250.91 1936.89,1250.91 1939.74,1250.91 1942.6,1250.91 1948,1250.91 1953.41,1250.91 1956.26,1250.91 
  1959.12,1250.91 1964.52,1250.91 1969.93,1250.91 1972.78,1250.91 1975.64,1250.91 1981.04,1250.91 1986.45,1250.91 1989.3,1250.91 
  1992.16,1250.91 1997.56,1250.91 2002.97,1250.91 2005.83,1250.91 2008.68,1250.91 2014.09,1250.91 2019.49,1250.91 2022.35,1250.91 
  2025.2,1250.91 2030.61,1250.91 2036.01,1250.91 2038.87,1250.91 2041.72,1250.91 2047.13,1250.91 2052.53,1250.91 2055.39,1250.91 
  2058.24,1250.91 2063.65,1250.91 2069.05,1250.91 2071.91,1250.91 2074.76,1250.91 2080.17,1250.91 2085.58,1250.91 2088.43,1250.91 
  2091.28,1250.91 2096.69,1250.91 2102.1,1250.91 2104.95,1250.91 2107.8,1250.91 2113.21,1250.91 2118.62,1250.91 2121.47,1250.91 
  2124.32,1250.91 2129.73,1250.91 2135.14,1250.91 2137.99,1250.91 2140.84,1250.91 2146.25,1250.91 2151.66,1250.91 2154.51,1250.91 
  2157.36,1250.91 2162.77,1250.91 2168.18,1250.91 2171.03,1250.91 2173.88,1250.91 2179.29,1250.91 2184.7,1250.91 2187.55,1250.91 
  2190.4,1250.91 2195.81,1250.91 2201.22,1250.91 2204.07,1250.91 2206.92,1250.91 2212.33,1250.91 2217.74,1250.91 2220.59,1250.91 
  2223.44,1250.91 2228.85,1250.91 2234.26,1250.91 2237.11,1250.91 2239.96,1250.91 2245.37,1250.91 2250.78,1250.91 2253.63,1250.91 
  2256.49,1250.91 2261.89,1250.91 2267.3,1250.91 2270.15,1250.91 2273.01,1250.91 2278.41,1250.91 2283.82,1250.91 2286.67,1250.91 
  2289.53,1250.91 2294.93,1250.91 2300.34,1250.91 2303.19,1250.91 2306.05,1250.91 2311.45,1250.91 2316.86,1250.91 2319.71,1250.91 
  2322.57,1250.91 2327.98,1250.91 2333.38,1250.91 2336.24,1250.91 2339.09,1250.91 2344.5,1250.91 2349.9,1250.91 2352.76,1250.91 
  
  "/>
<path clip-path="url(#clip070)" d="
M1786.57 274.549 L2282.27 274.549 L2282.27 93.1086 L1786.57 93.1086  Z
  " fill="#ffffff" fill-rule="evenodd" fill-opacity="1"/>
<polyline clip-path="url(#clip070)" style="stroke:#000000; stroke-width:4; stroke-opacity:1; fill:none" points="
  1786.57,274.549 2282.27,274.549 2282.27,93.1086 1786.57,93.1086 1786.57,274.549 
  "/>
<polyline clip-path="url(#clip070)" style="stroke:#009af9; stroke-width:4; stroke-opacity:1; fill:none" points="
  1810.07,153.589 1951.04,153.589 
  "/>
<path clip-path="url(#clip070)" d="M 0 0 M1981.94 137.582 L1981.94 144.943 L1990.72 144.943 L1990.72 148.253 L1981.94 148.253 L1981.94 162.327 Q1981.94 165.498 1982.8 166.401 Q1983.68 167.304 1986.34 167.304 L1990.72 167.304 L1990.72 170.869 L1986.34 170.869 Q1981.41 170.869 1979.54 169.04 Q1977.66 167.188 1977.66 162.327 L1977.66 148.253 L1974.54 148.253 L1974.54 144.943 L1977.66 144.943 L1977.66 137.582 L1981.94 137.582 Z" fill="#000000" fill-rule="evenodd" fill-opacity="1" /><path clip-path="url(#clip070)" d="M 0 0 M1995.74 149.341 L2025.42 149.341 L2025.42 153.23 L1995.74 153.23 L1995.74 149.341 M1995.74 158.785 L2025.42 158.785 L2025.42 162.721 L1995.74 162.721 L1995.74 158.785 Z" fill="#000000" fill-rule="evenodd" fill-opacity="1" /><path clip-path="url(#clip070)" d="M 0 0 M2040.49 139.387 Q2036.87 139.387 2035.05 142.952 Q2033.24 146.494 2033.24 153.623 Q2033.24 160.73 2035.05 164.295 Q2036.87 167.836 2040.49 167.836 Q2044.12 167.836 2045.93 164.295 Q2047.75 160.73 2047.75 153.623 Q2047.75 146.494 2045.93 142.952 Q2044.12 139.387 2040.49 139.387 M2040.49 135.684 Q2046.3 135.684 2049.35 140.29 Q2052.43 144.873 2052.43 153.623 Q2052.43 162.35 2049.35 166.957 Q2046.3 171.54 2040.49 171.54 Q2034.68 171.54 2031.6 166.957 Q2028.54 162.35 2028.54 153.623 Q2028.54 144.873 2031.6 140.29 Q2034.68 135.684 2040.49 135.684 Z" fill="#000000" fill-rule="evenodd" fill-opacity="1" /><path clip-path="url(#clip070)" d="M 0 0 M2057.5 164.989 L2062.38 164.989 L2062.38 170.869 L2057.5 170.869 L2057.5 164.989 Z" fill="#000000" fill-rule="evenodd" fill-opacity="1" /><path clip-path="url(#clip070)" d="M 0 0 M2077.45 139.387 Q2073.84 139.387 2072.01 142.952 Q2070.21 146.494 2070.21 153.623 Q2070.21 160.73 2072.01 164.295 Q2073.84 167.836 2077.45 167.836 Q2081.09 167.836 2082.89 164.295 Q2084.72 160.73 2084.72 153.623 Q2084.72 146.494 2082.89 142.952 Q2081.09 139.387 2077.45 139.387 M2077.45 135.684 Q2083.26 135.684 2086.32 140.29 Q2089.4 144.873 2089.4 153.623 Q2089.4 162.35 2086.32 166.957 Q2083.26 171.54 2077.45 171.54 Q2071.64 171.54 2068.56 166.957 Q2065.51 162.35 2065.51 153.623 Q2065.51 144.873 2068.56 140.29 Q2071.64 135.684 2077.45 135.684 Z" fill="#000000" fill-rule="evenodd" fill-opacity="1" /><path clip-path="url(#clip070)" d="M 0 0 M2108.54 134.85 L2118.36 134.85 L2118.36 138.16 L2112.8 138.16 L2112.8 173.808 L2118.36 173.808 L2118.36 177.119 L2108.54 177.119 L2108.54 134.85 Z" fill="#000000" fill-rule="evenodd" fill-opacity="1" /><path clip-path="url(#clip070)" d="M 0 0 M2139.35 145.707 L2139.35 149.734 Q2137.55 148.809 2135.6 148.346 Q2133.66 147.883 2131.57 147.883 Q2128.4 147.883 2126.81 148.855 Q2125.23 149.827 2125.23 151.771 Q2125.23 153.253 2126.37 154.109 Q2127.5 154.943 2130.93 155.707 L2132.38 156.031 Q2136.92 157.003 2138.82 158.785 Q2140.74 160.545 2140.74 163.716 Q2140.74 167.327 2137.87 169.433 Q2135.02 171.54 2130.02 171.54 Q2127.94 171.54 2125.67 171.123 Q2123.43 170.73 2120.93 169.92 L2120.93 165.521 Q2123.29 166.748 2125.58 167.373 Q2127.87 167.975 2130.12 167.975 Q2133.12 167.975 2134.74 166.957 Q2136.37 165.915 2136.37 164.04 Q2136.37 162.304 2135.18 161.378 Q2134.03 160.452 2130.07 159.596 L2128.59 159.248 Q2124.63 158.415 2122.87 156.702 Q2121.11 154.966 2121.11 151.957 Q2121.11 148.299 2123.7 146.309 Q2126.3 144.318 2131.06 144.318 Q2133.43 144.318 2135.51 144.665 Q2137.59 145.012 2139.35 145.707 Z" fill="#000000" fill-rule="evenodd" fill-opacity="1" /><path clip-path="url(#clip070)" d="M 0 0 M2155.16 134.85 L2155.16 177.119 L2145.35 177.119 L2145.35 173.808 L2150.88 173.808 L2150.88 138.16 L2145.35 138.16 L2145.35 134.85 L2155.16 134.85 Z" fill="#000000" fill-rule="evenodd" fill-opacity="1" /><polyline clip-path="url(#clip070)" style="stroke:#e26f46; stroke-width:4; stroke-opacity:1; fill:none" points="
  1810.07,214.069 1951.04,214.069 
  "/>
<path clip-path="url(#clip070)" d="M 0 0 M1981.94 198.062 L1981.94 205.423 L1990.72 205.423 L1990.72 208.733 L1981.94 208.733 L1981.94 222.807 Q1981.94 225.978 1982.8 226.881 Q1983.68 227.784 1986.34 227.784 L1990.72 227.784 L1990.72 231.349 L1986.34 231.349 Q1981.41 231.349 1979.54 229.52 Q1977.66 227.668 1977.66 222.807 L1977.66 208.733 L1974.54 208.733 L1974.54 205.423 L1977.66 205.423 L1977.66 198.062 L1981.94 198.062 Z" fill="#000000" fill-rule="evenodd" fill-opacity="1" /><path clip-path="url(#clip070)" d="M 0 0 M1995.74 209.821 L2025.42 209.821 L2025.42 213.71 L1995.74 213.71 L1995.74 209.821 M1995.74 219.265 L2025.42 219.265 L2025.42 223.201 L1995.74 223.201 L1995.74 219.265 Z" fill="#000000" fill-rule="evenodd" fill-opacity="1" /><path clip-path="url(#clip070)" d="M 0 0 M2043.33 200.863 L2031.53 219.312 L2043.33 219.312 L2043.33 200.863 M2042.11 196.789 L2047.99 196.789 L2047.99 219.312 L2052.92 219.312 L2052.92 223.201 L2047.99 223.201 L2047.99 231.349 L2043.33 231.349 L2043.33 223.201 L2027.73 223.201 L2027.73 218.687 L2042.11 196.789 Z" fill="#000000" fill-rule="evenodd" fill-opacity="1" /><path clip-path="url(#clip070)" d="M 0 0 M2058.03 196.789 L2076.39 196.789 L2076.39 200.724 L2062.31 200.724 L2062.31 209.196 Q2063.33 208.849 2064.35 208.687 Q2065.37 208.502 2066.39 208.502 Q2072.18 208.502 2075.56 211.673 Q2078.93 214.844 2078.93 220.261 Q2078.93 225.839 2075.46 228.941 Q2071.99 232.02 2065.67 232.02 Q2063.5 232.02 2061.23 231.65 Q2058.98 231.279 2056.57 230.538 L2056.57 225.839 Q2058.66 226.974 2060.88 227.529 Q2063.1 228.085 2065.58 228.085 Q2069.58 228.085 2071.92 225.978 Q2074.26 223.872 2074.26 220.261 Q2074.26 216.65 2071.92 214.543 Q2069.58 212.437 2065.58 212.437 Q2063.7 212.437 2061.83 212.853 Q2059.98 213.27 2058.03 214.15 L2058.03 196.789 Z" fill="#000000" fill-rule="evenodd" fill-opacity="1" /><path clip-path="url(#clip070)" d="M 0 0 M2094 199.867 Q2090.39 199.867 2088.56 203.432 Q2086.76 206.974 2086.76 214.103 Q2086.76 221.21 2088.56 224.775 Q2090.39 228.316 2094 228.316 Q2097.64 228.316 2099.44 224.775 Q2101.27 221.21 2101.27 214.103 Q2101.27 206.974 2099.44 203.432 Q2097.64 199.867 2094 199.867 M2094 196.164 Q2099.81 196.164 2102.87 200.77 Q2105.95 205.353 2105.95 214.103 Q2105.95 222.83 2102.87 227.437 Q2099.81 232.02 2094 232.02 Q2088.19 232.02 2085.12 227.437 Q2082.06 222.83 2082.06 214.103 Q2082.06 205.353 2085.12 200.77 Q2088.19 196.164 2094 196.164 Z" fill="#000000" fill-rule="evenodd" fill-opacity="1" /><path clip-path="url(#clip070)" d="M 0 0 M2111.02 225.469 L2115.9 225.469 L2115.9 231.349 L2111.02 231.349 L2111.02 225.469 Z" fill="#000000" fill-rule="evenodd" fill-opacity="1" /><path clip-path="url(#clip070)" d="M 0 0 M2133.82 200.863 L2122.01 219.312 L2133.82 219.312 L2133.82 200.863 M2132.59 196.789 L2138.47 196.789 L2138.47 219.312 L2143.4 219.312 L2143.4 223.201 L2138.47 223.201 L2138.47 231.349 L2133.82 231.349 L2133.82 223.201 L2118.22 223.201 L2118.22 218.687 L2132.59 196.789 Z" fill="#000000" fill-rule="evenodd" fill-opacity="1" /><path clip-path="url(#clip070)" d="M 0 0 M2147.29 196.789 L2169.51 196.789 L2169.51 198.779 L2156.97 231.349 L2152.08 231.349 L2163.89 200.724 L2147.29 200.724 L2147.29 196.789 Z" fill="#000000" fill-rule="evenodd" fill-opacity="1" /><path clip-path="url(#clip070)" d="M 0 0 M2188.66 195.33 L2198.47 195.33 L2198.47 198.64 L2192.92 198.64 L2192.92 234.288 L2198.47 234.288 L2198.47 237.599 L2188.66 237.599 L2188.66 195.33 Z" fill="#000000" fill-rule="evenodd" fill-opacity="1" /><path clip-path="url(#clip070)" d="M 0 0 M2219.47 206.187 L2219.47 210.214 Q2217.66 209.289 2215.72 208.826 Q2213.77 208.363 2211.69 208.363 Q2208.52 208.363 2206.92 209.335 Q2205.35 210.307 2205.35 212.251 Q2205.35 213.733 2206.48 214.589 Q2207.61 215.423 2211.04 216.187 L2212.5 216.511 Q2217.04 217.483 2218.93 219.265 Q2220.86 221.025 2220.86 224.196 Q2220.86 227.807 2217.99 229.913 Q2215.14 232.02 2210.14 232.02 Q2208.05 232.02 2205.79 231.603 Q2203.54 231.21 2201.04 230.4 L2201.04 226.001 Q2203.4 227.228 2205.69 227.853 Q2207.99 228.455 2210.23 228.455 Q2213.24 228.455 2214.86 227.437 Q2216.48 226.395 2216.48 224.52 Q2216.48 222.784 2215.3 221.858 Q2214.14 220.932 2210.18 220.076 L2208.7 219.728 Q2204.74 218.895 2202.99 217.182 Q2201.23 215.446 2201.23 212.437 Q2201.23 208.779 2203.82 206.789 Q2206.41 204.798 2211.18 204.798 Q2213.54 204.798 2215.62 205.145 Q2217.71 205.492 2219.47 206.187 Z" fill="#000000" fill-rule="evenodd" fill-opacity="1" /><path clip-path="url(#clip070)" d="M 0 0 M2235.28 195.33 L2235.28 237.599 L2225.46 237.599 L2225.46 234.288 L2230.99 234.288 L2230.99 198.64 L2225.46 198.64 L2225.46 195.33 L2235.28 195.33 Z" fill="#000000" fill-rule="evenodd" fill-opacity="1" /></svg>
