<?xml version="1.0" encoding="utf-8"?>
<svg xmlns="http://www.w3.org/2000/svg" xmlns:xlink="http://www.w3.org/1999/xlink" width="600" height="400" viewBox="0 0 2400 1600">
<defs>
  <clipPath id="clip420">
    <rect x="0" y="0" width="2400" height="1600"/>
  </clipPath>
</defs>
<path clip-path="url(#clip420)" d="
M0 1600 L2400 1600 L2400 0 L0 0  Z
  " fill="#ffffff" fill-rule="evenodd" fill-opacity="1"/>
<defs>
  <clipPath id="clip421">
    <rect x="480" y="0" width="1681" height="1600"/>
  </clipPath>
</defs>
<path clip-path="url(#clip420)" d="
M199.218 1423.18 L1152.76 1423.18 L1152.76 123.472 L199.218 123.472  Z
  " fill="#ffffff" fill-rule="evenodd" fill-opacity="1"/>
<defs>
  <clipPath id="clip422">
    <rect x="199" y="123" width="955" height="1301"/>
  </clipPath>
</defs>
<polyline clip-path="url(#clip422)" style="stroke:#000000; stroke-width:2; stroke-opacity:0.1; fill:none" points="
  221.229,1423.18 221.229,123.472 
  "/>
<polyline clip-path="url(#clip422)" style="stroke:#000000; stroke-width:2; stroke-opacity:0.1; fill:none" points="
  479.669,1423.18 479.669,123.472 
  "/>
<polyline clip-path="url(#clip422)" style="stroke:#000000; stroke-width:2; stroke-opacity:0.1; fill:none" points="
  738.109,1423.18 738.109,123.472 
  "/>
<polyline clip-path="url(#clip422)" style="stroke:#000000; stroke-width:2; stroke-opacity:0.1; fill:none" points="
  996.549,1423.18 996.549,123.472 
  "/>
<polyline clip-path="url(#clip420)" style="stroke:#000000; stroke-width:4; stroke-opacity:1; fill:none" points="
  199.218,1423.18 1152.76,1423.18 
  "/>
<polyline clip-path="url(#clip420)" style="stroke:#000000; stroke-width:4; stroke-opacity:1; fill:none" points="
  221.229,1423.18 221.229,1407.58 
  "/>
<polyline clip-path="url(#clip420)" style="stroke:#000000; stroke-width:4; stroke-opacity:1; fill:none" points="
  479.669,1423.18 479.669,1407.58 
  "/>
<polyline clip-path="url(#clip420)" style="stroke:#000000; stroke-width:4; stroke-opacity:1; fill:none" points="
  738.109,1423.18 738.109,1407.58 
  "/>
<polyline clip-path="url(#clip420)" style="stroke:#000000; stroke-width:4; stroke-opacity:1; fill:none" points="
  996.549,1423.18 996.549,1407.58 
  "/>
<path clip-path="url(#clip420)" d="M 0 0 M189.667 1479.92 L205.986 1479.92 L205.986 1483.85 L184.042 1483.85 L184.042 1479.92 Q186.704 1477.16 191.288 1472.53 Q195.894 1467.88 197.075 1466.54 Q199.32 1464.01 200.199 1462.28 Q201.102 1460.52 201.102 1458.83 Q201.102 1456.07 199.158 1454.34 Q197.237 1452.6 194.135 1452.6 Q191.936 1452.6 189.482 1453.37 Q187.051 1454.13 184.274 1455.68 L184.274 1450.96 Q187.098 1449.82 189.551 1449.25 Q192.005 1448.67 194.042 1448.67 Q199.412 1448.67 202.607 1451.35 Q205.801 1454.04 205.801 1458.53 Q205.801 1460.66 204.991 1462.58 Q204.204 1464.48 202.098 1467.07 Q201.519 1467.74 198.417 1470.96 Q195.315 1474.15 189.667 1479.92 Z" fill="#000000" fill-rule="evenodd" fill-opacity="1" /><path clip-path="url(#clip420)" d="M 0 0 M215.084 1479.92 L231.403 1479.92 L231.403 1483.85 L209.459 1483.85 L209.459 1479.92 Q212.121 1477.16 216.704 1472.53 Q221.31 1467.88 222.491 1466.54 Q224.736 1464.01 225.616 1462.28 Q226.519 1460.52 226.519 1458.83 Q226.519 1456.07 224.574 1454.34 Q222.653 1452.6 219.551 1452.6 Q217.352 1452.6 214.898 1453.37 Q212.468 1454.13 209.69 1455.68 L209.69 1450.96 Q212.514 1449.82 214.968 1449.25 Q217.422 1448.67 219.459 1448.67 Q224.829 1448.67 228.023 1451.35 Q231.218 1454.04 231.218 1458.53 Q231.218 1460.66 230.408 1462.58 Q229.621 1464.48 227.514 1467.07 Q226.935 1467.74 223.834 1470.96 Q220.732 1474.15 215.084 1479.92 Z" fill="#000000" fill-rule="evenodd" fill-opacity="1" /><path clip-path="url(#clip420)" d="M 0 0 M246.472 1452.37 Q242.861 1452.37 241.033 1455.94 Q239.227 1459.48 239.227 1466.61 Q239.227 1473.71 241.033 1477.28 Q242.861 1480.82 246.472 1480.82 Q250.107 1480.82 251.912 1477.28 Q253.741 1473.71 253.741 1466.61 Q253.741 1459.48 251.912 1455.94 Q250.107 1452.37 246.472 1452.37 M246.472 1448.67 Q252.283 1448.67 255.338 1453.27 Q258.417 1457.86 258.417 1466.61 Q258.417 1475.33 255.338 1479.94 Q252.283 1484.52 246.472 1484.52 Q240.662 1484.52 237.584 1479.94 Q234.528 1475.33 234.528 1466.61 Q234.528 1457.86 237.584 1453.27 Q240.662 1448.67 246.472 1448.67 Z" fill="#000000" fill-rule="evenodd" fill-opacity="1" /><path clip-path="url(#clip420)" d="M 0 0 M447.065 1479.92 L463.385 1479.92 L463.385 1483.85 L441.44 1483.85 L441.44 1479.92 Q444.102 1477.16 448.686 1472.53 Q453.292 1467.88 454.473 1466.54 Q456.718 1464.01 457.598 1462.28 Q458.5 1460.52 458.5 1458.83 Q458.5 1456.07 456.556 1454.34 Q454.635 1452.6 451.533 1452.6 Q449.334 1452.6 446.88 1453.37 Q444.45 1454.13 441.672 1455.68 L441.672 1450.96 Q444.496 1449.82 446.95 1449.25 Q449.403 1448.67 451.44 1448.67 Q456.811 1448.67 460.005 1451.35 Q463.2 1454.04 463.2 1458.53 Q463.2 1460.66 462.389 1462.58 Q461.602 1464.48 459.496 1467.07 Q458.917 1467.74 455.815 1470.96 Q452.713 1474.15 447.065 1479.92 Z" fill="#000000" fill-rule="evenodd" fill-opacity="1" /><path clip-path="url(#clip420)" d="M 0 0 M481.301 1453.37 L469.496 1471.81 L481.301 1471.81 L481.301 1453.37 M480.074 1449.29 L485.954 1449.29 L485.954 1471.81 L490.885 1471.81 L490.885 1475.7 L485.954 1475.7 L485.954 1483.85 L481.301 1483.85 L481.301 1475.7 L465.7 1475.7 L465.7 1471.19 L480.074 1449.29 Z" fill="#000000" fill-rule="evenodd" fill-opacity="1" /><path clip-path="url(#clip420)" d="M 0 0 M505.954 1452.37 Q502.343 1452.37 500.514 1455.94 Q498.709 1459.48 498.709 1466.61 Q498.709 1473.71 500.514 1477.28 Q502.343 1480.82 505.954 1480.82 Q509.588 1480.82 511.394 1477.28 Q513.222 1473.71 513.222 1466.61 Q513.222 1459.48 511.394 1455.94 Q509.588 1452.37 505.954 1452.37 M505.954 1448.67 Q511.764 1448.67 514.82 1453.27 Q517.898 1457.86 517.898 1466.61 Q517.898 1475.33 514.82 1479.94 Q511.764 1484.52 505.954 1484.52 Q500.144 1484.52 497.065 1479.94 Q494.01 1475.33 494.01 1466.61 Q494.01 1457.86 497.065 1453.27 Q500.144 1448.67 505.954 1448.67 Z" fill="#000000" fill-rule="evenodd" fill-opacity="1" /><path clip-path="url(#clip420)" d="M 0 0 M705.667 1479.92 L721.987 1479.92 L721.987 1483.85 L700.042 1483.85 L700.042 1479.92 Q702.704 1477.16 707.288 1472.53 Q711.894 1467.88 713.075 1466.54 Q715.32 1464.01 716.2 1462.28 Q717.102 1460.52 717.102 1458.83 Q717.102 1456.07 715.158 1454.34 Q713.237 1452.6 710.135 1452.6 Q707.936 1452.6 705.482 1453.37 Q703.052 1454.13 700.274 1455.68 L700.274 1450.96 Q703.098 1449.82 705.551 1449.25 Q708.005 1448.67 710.042 1448.67 Q715.413 1448.67 718.607 1451.35 Q721.801 1454.04 721.801 1458.53 Q721.801 1460.66 720.991 1462.58 Q720.204 1464.48 718.098 1467.07 Q717.519 1467.74 714.417 1470.96 Q711.315 1474.15 705.667 1479.92 Z" fill="#000000" fill-rule="evenodd" fill-opacity="1" /><path clip-path="url(#clip420)" d="M 0 0 M737.635 1464.71 Q734.487 1464.71 732.635 1466.86 Q730.806 1469.01 730.806 1472.76 Q730.806 1476.49 732.635 1478.67 Q734.487 1480.82 737.635 1480.82 Q740.783 1480.82 742.611 1478.67 Q744.463 1476.49 744.463 1472.76 Q744.463 1469.01 742.611 1466.86 Q740.783 1464.71 737.635 1464.71 M746.917 1450.06 L746.917 1454.31 Q745.158 1453.48 743.352 1453.04 Q741.57 1452.6 739.811 1452.6 Q735.181 1452.6 732.727 1455.73 Q730.297 1458.85 729.95 1465.17 Q731.315 1463.16 733.375 1462.09 Q735.436 1461 737.912 1461 Q743.121 1461 746.13 1464.18 Q749.162 1467.32 749.162 1472.76 Q749.162 1478.09 746.014 1481.31 Q742.866 1484.52 737.635 1484.52 Q731.639 1484.52 728.468 1479.94 Q725.297 1475.33 725.297 1466.61 Q725.297 1458.41 729.186 1453.55 Q733.075 1448.67 739.625 1448.67 Q741.385 1448.67 743.167 1449.01 Q744.973 1449.36 746.917 1450.06 Z" fill="#000000" fill-rule="evenodd" fill-opacity="1" /><path clip-path="url(#clip420)" d="M 0 0 M764.232 1452.37 Q760.621 1452.37 758.792 1455.94 Q756.986 1459.48 756.986 1466.61 Q756.986 1473.71 758.792 1477.28 Q760.621 1480.82 764.232 1480.82 Q767.866 1480.82 769.672 1477.28 Q771.5 1473.71 771.5 1466.61 Q771.5 1459.48 769.672 1455.94 Q767.866 1452.37 764.232 1452.37 M764.232 1448.67 Q770.042 1448.67 773.097 1453.27 Q776.176 1457.86 776.176 1466.61 Q776.176 1475.33 773.097 1479.94 Q770.042 1484.52 764.232 1484.52 Q758.422 1484.52 755.343 1479.94 Q752.287 1475.33 752.287 1466.61 Q752.287 1457.86 755.343 1453.27 Q758.422 1448.67 764.232 1448.67 Z" fill="#000000" fill-rule="evenodd" fill-opacity="1" /><path clip-path="url(#clip420)" d="M 0 0 M964.234 1479.92 L980.554 1479.92 L980.554 1483.85 L958.609 1483.85 L958.609 1479.92 Q961.271 1477.16 965.855 1472.53 Q970.461 1467.88 971.642 1466.54 Q973.887 1464.01 974.767 1462.28 Q975.67 1460.52 975.67 1458.83 Q975.67 1456.07 973.725 1454.34 Q971.804 1452.6 968.702 1452.6 Q966.503 1452.6 964.049 1453.37 Q961.619 1454.13 958.841 1455.68 L958.841 1450.96 Q961.665 1449.82 964.119 1449.25 Q966.572 1448.67 968.609 1448.67 Q973.98 1448.67 977.174 1451.35 Q980.369 1454.04 980.369 1458.53 Q980.369 1460.66 979.558 1462.58 Q978.771 1464.48 976.665 1467.07 Q976.086 1467.74 972.984 1470.96 Q969.883 1474.15 964.234 1479.92 Z" fill="#000000" fill-rule="evenodd" fill-opacity="1" /><path clip-path="url(#clip420)" d="M 0 0 M995.623 1467.44 Q992.29 1467.44 990.369 1469.22 Q988.47 1471 988.47 1474.13 Q988.47 1477.25 990.369 1479.04 Q992.29 1480.82 995.623 1480.82 Q998.956 1480.82 1000.88 1479.04 Q1002.8 1477.23 1002.8 1474.13 Q1002.8 1471 1000.88 1469.22 Q998.98 1467.44 995.623 1467.44 M990.947 1465.45 Q987.938 1464.71 986.248 1462.65 Q984.582 1460.59 984.582 1457.63 Q984.582 1453.48 987.521 1451.07 Q990.484 1448.67 995.623 1448.67 Q1000.79 1448.67 1003.72 1451.07 Q1006.66 1453.48 1006.66 1457.63 Q1006.66 1460.59 1004.97 1462.65 Q1003.31 1464.71 1000.32 1465.45 Q1003.7 1466.24 1005.58 1468.53 Q1007.47 1470.82 1007.47 1474.13 Q1007.47 1479.15 1004.4 1481.84 Q1001.34 1484.52 995.623 1484.52 Q989.906 1484.52 986.827 1481.84 Q983.771 1479.15 983.771 1474.13 Q983.771 1470.82 985.669 1468.53 Q987.568 1466.24 990.947 1465.45 M989.234 1458.06 Q989.234 1460.75 990.901 1462.25 Q992.591 1463.76 995.623 1463.76 Q998.632 1463.76 1000.32 1462.25 Q1002.04 1460.75 1002.04 1458.06 Q1002.04 1455.38 1000.32 1453.88 Q998.632 1452.37 995.623 1452.37 Q992.591 1452.37 990.901 1453.88 Q989.234 1455.38 989.234 1458.06 Z" fill="#000000" fill-rule="evenodd" fill-opacity="1" /><path clip-path="url(#clip420)" d="M 0 0 M1022.54 1452.37 Q1018.93 1452.37 1017.1 1455.94 Q1015.3 1459.48 1015.3 1466.61 Q1015.3 1473.71 1017.1 1477.28 Q1018.93 1480.82 1022.54 1480.82 Q1026.18 1480.82 1027.98 1477.28 Q1029.81 1473.71 1029.81 1466.61 Q1029.81 1459.48 1027.98 1455.94 Q1026.18 1452.37 1022.54 1452.37 M1022.54 1448.67 Q1028.35 1448.67 1031.41 1453.27 Q1034.49 1457.86 1034.49 1466.61 Q1034.49 1475.33 1031.41 1479.94 Q1028.35 1484.52 1022.54 1484.52 Q1016.73 1484.52 1013.66 1479.94 Q1010.6 1475.33 1010.6 1466.61 Q1010.6 1457.86 1013.66 1453.27 Q1016.73 1448.67 1022.54 1448.67 Z" fill="#000000" fill-rule="evenodd" fill-opacity="1" /><path clip-path="url(#clip420)" d="M 0 0 M433.915 1508.52 L474.115 1508.52 L474.115 1513.93 L457.245 1513.93 L457.245 1556.04 L450.784 1556.04 L450.784 1513.93 L433.915 1513.93 L433.915 1508.52 Z" fill="#000000" fill-rule="evenodd" fill-opacity="1" /><path clip-path="url(#clip420)" d="M 0 0 M499.673 1536.76 L499.673 1539.62 L472.746 1539.62 Q473.128 1545.67 476.374 1548.85 Q479.653 1552 485.477 1552 Q488.851 1552 492.002 1551.17 Q495.185 1550.35 498.304 1548.69 L498.304 1554.23 Q495.153 1555.57 491.843 1556.27 Q488.533 1556.97 485.127 1556.97 Q476.597 1556.97 471.6 1552 Q466.635 1547.04 466.635 1538.57 Q466.635 1529.82 471.346 1524.69 Q476.088 1519.54 484.109 1519.54 Q491.302 1519.54 495.472 1524.18 Q499.673 1528.8 499.673 1536.76 M493.816 1535.04 Q493.753 1530.23 491.111 1527.37 Q488.501 1524.5 484.172 1524.5 Q479.271 1524.5 476.311 1527.27 Q473.383 1530.04 472.937 1535.07 L493.816 1535.04 Z" fill="#000000" fill-rule="evenodd" fill-opacity="1" /><path clip-path="url(#clip420)" d="M 0 0 M533.57 1527.24 Q535.766 1523.29 538.822 1521.41 Q541.878 1519.54 546.015 1519.54 Q551.585 1519.54 554.609 1523.45 Q557.633 1527.33 557.633 1534.53 L557.633 1556.04 L551.744 1556.04 L551.744 1534.72 Q551.744 1529.59 549.93 1527.11 Q548.116 1524.63 544.392 1524.63 Q539.841 1524.63 537.199 1527.65 Q534.557 1530.68 534.557 1535.9 L534.557 1556.04 L528.669 1556.04 L528.669 1534.72 Q528.669 1529.56 526.854 1527.11 Q525.04 1524.63 521.253 1524.63 Q516.765 1524.63 514.123 1527.68 Q511.481 1530.71 511.481 1535.9 L511.481 1556.04 L505.593 1556.04 L505.593 1520.4 L511.481 1520.4 L511.481 1525.93 Q513.486 1522.66 516.287 1521.1 Q519.088 1519.54 522.94 1519.54 Q526.823 1519.54 529.528 1521.51 Q532.265 1523.48 533.57 1527.24 Z" fill="#000000" fill-rule="evenodd" fill-opacity="1" /><path clip-path="url(#clip420)" d="M 0 0 M569.441 1550.7 L569.441 1569.6 L563.553 1569.6 L563.553 1520.4 L569.441 1520.4 L569.441 1525.81 Q571.287 1522.62 574.088 1521.1 Q576.921 1519.54 580.836 1519.54 Q587.329 1519.54 591.371 1524.69 Q595.445 1529.85 595.445 1538.25 Q595.445 1546.65 591.371 1551.81 Q587.329 1556.97 580.836 1556.97 Q576.921 1556.97 574.088 1555.44 Q571.287 1553.88 569.441 1550.7 M589.366 1538.25 Q589.366 1531.79 586.692 1528.13 Q584.05 1524.44 579.403 1524.44 Q574.756 1524.44 572.083 1528.13 Q569.441 1531.79 569.441 1538.25 Q569.441 1544.71 572.083 1548.4 Q574.756 1552.07 579.403 1552.07 Q584.05 1552.07 586.692 1548.4 Q589.366 1544.71 589.366 1538.25 Z" fill="#000000" fill-rule="evenodd" fill-opacity="1" /><path clip-path="url(#clip420)" d="M 0 0 M632.08 1536.76 L632.08 1539.62 L605.153 1539.62 Q605.535 1545.67 608.781 1548.85 Q612.059 1552 617.884 1552 Q621.258 1552 624.409 1551.17 Q627.592 1550.35 630.711 1548.69 L630.711 1554.23 Q627.56 1555.57 624.25 1556.27 Q620.94 1556.97 617.534 1556.97 Q609.004 1556.97 604.007 1552 Q599.042 1547.04 599.042 1538.57 Q599.042 1529.82 603.752 1524.69 Q608.495 1519.54 616.515 1519.54 Q623.709 1519.54 627.878 1524.18 Q632.08 1528.8 632.08 1536.76 M626.223 1535.04 Q626.159 1530.23 623.518 1527.37 Q620.908 1524.5 616.579 1524.5 Q611.678 1524.5 608.717 1527.27 Q605.789 1530.04 605.344 1535.07 L626.223 1535.04 Z" fill="#000000" fill-rule="evenodd" fill-opacity="1" /><path clip-path="url(#clip420)" d="M 0 0 M658.879 1525.87 Q657.893 1525.3 656.715 1525.04 Q655.569 1524.76 654.169 1524.76 Q649.203 1524.76 646.53 1528 Q643.888 1531.22 643.888 1537.27 L643.888 1556.04 L638 1556.04 L638 1520.4 L643.888 1520.4 L643.888 1525.93 Q645.734 1522.69 648.694 1521.13 Q651.654 1519.54 655.887 1519.54 Q656.492 1519.54 657.224 1519.63 Q657.956 1519.7 658.847 1519.85 L658.879 1525.87 Z" fill="#000000" fill-rule="evenodd" fill-opacity="1" /><path clip-path="url(#clip420)" d="M 0 0 M681.223 1538.12 Q674.125 1538.12 671.388 1539.75 Q668.651 1541.37 668.651 1545.29 Q668.651 1548.4 670.688 1550.25 Q672.756 1552.07 676.289 1552.07 Q681.159 1552.07 684.087 1548.63 Q687.047 1545.16 687.047 1539.43 L687.047 1538.12 L681.223 1538.12 M692.904 1535.71 L692.904 1556.04 L687.047 1556.04 L687.047 1550.63 Q685.042 1553.88 682.05 1555.44 Q679.059 1556.97 674.73 1556.97 Q669.255 1556.97 666.009 1553.91 Q662.794 1550.82 662.794 1545.67 Q662.794 1539.65 666.805 1536.6 Q670.847 1533.54 678.836 1533.54 L687.047 1533.54 L687.047 1532.97 Q687.047 1528.93 684.374 1526.73 Q681.732 1524.5 676.926 1524.5 Q673.87 1524.5 670.974 1525.23 Q668.078 1525.97 665.404 1527.43 L665.404 1522.02 Q668.619 1520.78 671.642 1520.17 Q674.666 1519.54 677.531 1519.54 Q685.265 1519.54 689.085 1523.55 Q692.904 1527.56 692.904 1535.71 Z" fill="#000000" fill-rule="evenodd" fill-opacity="1" /><path clip-path="url(#clip420)" d="M 0 0 M704.84 1510.27 L704.84 1520.4 L716.903 1520.4 L716.903 1524.95 L704.84 1524.95 L704.84 1544.3 Q704.84 1548.66 706.017 1549.9 Q707.227 1551.14 710.887 1551.14 L716.903 1551.14 L716.903 1556.04 L710.887 1556.04 Q704.108 1556.04 701.529 1553.53 Q698.951 1550.98 698.951 1544.3 L698.951 1524.95 L694.655 1524.95 L694.655 1520.4 L698.951 1520.4 L698.951 1510.27 L704.84 1510.27 Z" fill="#000000" fill-rule="evenodd" fill-opacity="1" /><path clip-path="url(#clip420)" d="M 0 0 M722.441 1541.98 L722.441 1520.4 L728.297 1520.4 L728.297 1541.75 Q728.297 1546.81 730.271 1549.36 Q732.244 1551.87 736.191 1551.87 Q740.933 1551.87 743.67 1548.85 Q746.44 1545.83 746.44 1540.61 L746.44 1520.4 L752.296 1520.4 L752.296 1556.04 L746.44 1556.04 L746.44 1550.57 Q744.307 1553.82 741.474 1555.41 Q738.673 1556.97 734.949 1556.97 Q728.807 1556.97 725.624 1553.15 Q722.441 1549.33 722.441 1541.98 M737.177 1519.54 L737.177 1519.54 Z" fill="#000000" fill-rule="evenodd" fill-opacity="1" /><path clip-path="url(#clip420)" d="M 0 0 M779.096 1525.87 Q778.109 1525.3 776.931 1525.04 Q775.785 1524.76 774.385 1524.76 Q769.42 1524.76 766.746 1528 Q764.104 1531.22 764.104 1537.27 L764.104 1556.04 L758.216 1556.04 L758.216 1520.4 L764.104 1520.4 L764.104 1525.93 Q765.95 1522.69 768.91 1521.13 Q771.871 1519.54 776.104 1519.54 Q776.708 1519.54 777.441 1519.63 Q778.173 1519.7 779.064 1519.85 L779.096 1525.87 Z" fill="#000000" fill-rule="evenodd" fill-opacity="1" /><path clip-path="url(#clip420)" d="M 0 0 M814.298 1536.76 L814.298 1539.62 L787.371 1539.62 Q787.753 1545.67 790.999 1548.85 Q794.278 1552 800.102 1552 Q803.476 1552 806.627 1551.17 Q809.81 1550.35 812.929 1548.69 L812.929 1554.23 Q809.778 1555.57 806.468 1556.27 Q803.158 1556.97 799.752 1556.97 Q791.222 1556.97 786.225 1552 Q781.26 1547.04 781.26 1538.57 Q781.26 1529.82 785.971 1524.69 Q790.713 1519.54 798.734 1519.54 Q805.927 1519.54 810.097 1524.18 Q814.298 1528.8 814.298 1536.76 M808.442 1535.04 Q808.378 1530.23 805.736 1527.37 Q803.126 1524.5 798.797 1524.5 Q793.896 1524.5 790.936 1527.27 Q788.008 1530.04 787.562 1535.07 L808.442 1535.04 Z" fill="#000000" fill-rule="evenodd" fill-opacity="1" /><path clip-path="url(#clip420)" d="M 0 0 M840.62 1506.52 L854.115 1506.52 L854.115 1511.07 L846.477 1511.07 L846.477 1560.09 L854.115 1560.09 L854.115 1564.64 L840.62 1564.64 L840.62 1506.52 Z" fill="#000000" fill-rule="evenodd" fill-opacity="1" /><path clip-path="url(#clip420)" d="M 0 0 M860.513 1508.52 L866.942 1508.52 L866.942 1528.61 L888.267 1508.52 L896.543 1508.52 L872.958 1530.68 L898.23 1556.04 L889.763 1556.04 L866.942 1533.16 L866.942 1556.04 L860.513 1556.04 L860.513 1508.52 Z" fill="#000000" fill-rule="evenodd" fill-opacity="1" /><path clip-path="url(#clip420)" d="M 0 0 M918.059 1506.52 L918.059 1564.64 L904.564 1564.64 L904.564 1560.09 L912.171 1560.09 L912.171 1511.07 L904.564 1511.07 L904.564 1506.52 L918.059 1506.52 Z" fill="#000000" fill-rule="evenodd" fill-opacity="1" /><polyline clip-path="url(#clip422)" style="stroke:#000000; stroke-width:2; stroke-opacity:0.1; fill:none" points="
  199.218,1386.4 1152.76,1386.4 
  "/>
<polyline clip-path="url(#clip422)" style="stroke:#000000; stroke-width:2; stroke-opacity:0.1; fill:none" points="
  199.218,1141.17 1152.76,1141.17 
  "/>
<polyline clip-path="url(#clip422)" style="stroke:#000000; stroke-width:2; stroke-opacity:0.1; fill:none" points="
  199.218,895.94 1152.76,895.94 
  "/>
<polyline clip-path="url(#clip422)" style="stroke:#000000; stroke-width:2; stroke-opacity:0.1; fill:none" points="
  199.218,650.712 1152.76,650.712 
  "/>
<polyline clip-path="url(#clip422)" style="stroke:#000000; stroke-width:2; stroke-opacity:0.1; fill:none" points="
  199.218,405.484 1152.76,405.484 
  "/>
<polyline clip-path="url(#clip422)" style="stroke:#000000; stroke-width:2; stroke-opacity:0.1; fill:none" points="
  199.218,160.256 1152.76,160.256 
  "/>
<polyline clip-path="url(#clip420)" style="stroke:#000000; stroke-width:4; stroke-opacity:1; fill:none" points="
  199.218,1423.18 199.218,123.472 
  "/>
<polyline clip-path="url(#clip420)" style="stroke:#000000; stroke-width:4; stroke-opacity:1; fill:none" points="
  199.218,1386.4 210.661,1386.4 
  "/>
<polyline clip-path="url(#clip420)" style="stroke:#000000; stroke-width:4; stroke-opacity:1; fill:none" points="
  199.218,1141.17 210.661,1141.17 
  "/>
<polyline clip-path="url(#clip420)" style="stroke:#000000; stroke-width:4; stroke-opacity:1; fill:none" points="
  199.218,895.94 210.661,895.94 
  "/>
<polyline clip-path="url(#clip420)" style="stroke:#000000; stroke-width:4; stroke-opacity:1; fill:none" points="
  199.218,650.712 210.661,650.712 
  "/>
<polyline clip-path="url(#clip420)" style="stroke:#000000; stroke-width:4; stroke-opacity:1; fill:none" points="
  199.218,405.484 210.661,405.484 
  "/>
<polyline clip-path="url(#clip420)" style="stroke:#000000; stroke-width:4; stroke-opacity:1; fill:none" points="
  199.218,160.256 210.661,160.256 
  "/>
<path clip-path="url(#clip420)" d="M 0 0 M151.274 1372.19 Q147.663 1372.19 145.834 1375.76 Q144.029 1379.3 144.029 1386.43 Q144.029 1393.54 145.834 1397.1 Q147.663 1400.64 151.274 1400.64 Q154.908 1400.64 156.714 1397.1 Q158.542 1393.54 158.542 1386.43 Q158.542 1379.3 156.714 1375.76 Q154.908 1372.19 151.274 1372.19 M151.274 1368.49 Q157.084 1368.49 160.14 1373.1 Q163.218 1377.68 163.218 1386.43 Q163.218 1395.16 160.14 1399.76 Q157.084 1404.35 151.274 1404.35 Q145.464 1404.35 142.385 1399.76 Q139.329 1395.16 139.329 1386.43 Q139.329 1377.68 142.385 1373.1 Q145.464 1368.49 151.274 1368.49 Z" fill="#000000" fill-rule="evenodd" fill-opacity="1" /><path clip-path="url(#clip420)" d="M 0 0 M142.316 1123.89 L160.672 1123.89 L160.672 1127.82 L146.598 1127.82 L146.598 1136.3 Q147.616 1135.95 148.635 1135.79 Q149.653 1135.6 150.672 1135.6 Q156.459 1135.6 159.839 1138.77 Q163.218 1141.94 163.218 1147.36 Q163.218 1152.94 159.746 1156.04 Q156.274 1159.12 149.954 1159.12 Q147.778 1159.12 145.51 1158.75 Q143.265 1158.38 140.857 1157.64 L140.857 1152.94 Q142.941 1154.07 145.163 1154.63 Q147.385 1155.18 149.862 1155.18 Q153.866 1155.18 156.204 1153.08 Q158.542 1150.97 158.542 1147.36 Q158.542 1143.75 156.204 1141.64 Q153.866 1139.54 149.862 1139.54 Q147.987 1139.54 146.112 1139.95 Q144.26 1140.37 142.316 1141.25 L142.316 1123.89 Z" fill="#000000" fill-rule="evenodd" fill-opacity="1" /><path clip-path="url(#clip420)" d="M 0 0 M116.297 909.285 L123.936 909.285 L123.936 882.919 L115.626 884.586 L115.626 880.327 L123.89 878.66 L128.566 878.66 L128.566 909.285 L136.204 909.285 L136.204 913.22 L116.297 913.22 L116.297 909.285 Z" fill="#000000" fill-rule="evenodd" fill-opacity="1" /><path clip-path="url(#clip420)" d="M 0 0 M151.274 881.739 Q147.663 881.739 145.834 885.303 Q144.029 888.845 144.029 895.975 Q144.029 903.081 145.834 906.646 Q147.663 910.188 151.274 910.188 Q154.908 910.188 156.714 906.646 Q158.542 903.081 158.542 895.975 Q158.542 888.845 156.714 885.303 Q154.908 881.739 151.274 881.739 M151.274 878.035 Q157.084 878.035 160.14 882.641 Q163.218 887.225 163.218 895.975 Q163.218 904.701 160.14 909.308 Q157.084 913.891 151.274 913.891 Q145.464 913.891 142.385 909.308 Q139.329 904.701 139.329 895.975 Q139.329 887.225 142.385 882.641 Q145.464 878.035 151.274 878.035 Z" fill="#000000" fill-rule="evenodd" fill-opacity="1" /><path clip-path="url(#clip420)" d="M 0 0 M117.293 664.057 L124.931 664.057 L124.931 637.691 L116.621 639.358 L116.621 635.099 L124.885 633.432 L129.561 633.432 L129.561 664.057 L137.2 664.057 L137.2 667.992 L117.293 667.992 L117.293 664.057 Z" fill="#000000" fill-rule="evenodd" fill-opacity="1" /><path clip-path="url(#clip420)" d="M 0 0 M142.316 633.432 L160.672 633.432 L160.672 637.367 L146.598 637.367 L146.598 645.839 Q147.616 645.492 148.635 645.33 Q149.653 645.145 150.672 645.145 Q156.459 645.145 159.839 648.316 Q163.218 651.488 163.218 656.904 Q163.218 662.483 159.746 665.585 Q156.274 668.663 149.954 668.663 Q147.778 668.663 145.51 668.293 Q143.265 667.923 140.857 667.182 L140.857 662.483 Q142.941 663.617 145.163 664.173 Q147.385 664.728 149.862 664.728 Q153.866 664.728 156.204 662.622 Q158.542 660.515 158.542 656.904 Q158.542 653.293 156.204 651.187 Q153.866 649.08 149.862 649.08 Q147.987 649.08 146.112 649.497 Q144.26 649.913 142.316 650.793 L142.316 633.432 Z" fill="#000000" fill-rule="evenodd" fill-opacity="1" /><path clip-path="url(#clip420)" d="M 0 0 M119.885 418.829 L136.204 418.829 L136.204 422.764 L114.26 422.764 L114.26 418.829 Q116.922 416.074 121.505 411.445 Q126.112 406.792 127.292 405.449 Q129.538 402.926 130.417 401.19 Q131.32 399.431 131.32 397.741 Q131.32 394.987 129.376 393.25 Q127.455 391.514 124.353 391.514 Q122.154 391.514 119.7 392.278 Q117.269 393.042 114.492 394.593 L114.492 389.871 Q117.316 388.737 119.769 388.158 Q122.223 387.579 124.26 387.579 Q129.63 387.579 132.825 390.264 Q136.019 392.95 136.019 397.44 Q136.019 399.57 135.209 401.491 Q134.422 403.389 132.316 405.982 Q131.737 406.653 128.635 409.871 Q125.533 413.065 119.885 418.829 Z" fill="#000000" fill-rule="evenodd" fill-opacity="1" /><path clip-path="url(#clip420)" d="M 0 0 M151.274 391.283 Q147.663 391.283 145.834 394.848 Q144.029 398.389 144.029 405.519 Q144.029 412.625 145.834 416.19 Q147.663 419.732 151.274 419.732 Q154.908 419.732 156.714 416.19 Q158.542 412.625 158.542 405.519 Q158.542 398.389 156.714 394.848 Q154.908 391.283 151.274 391.283 M151.274 387.579 Q157.084 387.579 160.14 392.186 Q163.218 396.769 163.218 405.519 Q163.218 414.246 160.14 418.852 Q157.084 423.435 151.274 423.435 Q145.464 423.435 142.385 418.852 Q139.329 414.246 139.329 405.519 Q139.329 396.769 142.385 392.186 Q145.464 387.579 151.274 387.579 Z" fill="#000000" fill-rule="evenodd" fill-opacity="1" /><path clip-path="url(#clip420)" d="M 0 0 M120.88 173.601 L137.2 173.601 L137.2 177.536 L115.256 177.536 L115.256 173.601 Q117.918 170.847 122.501 166.217 Q127.107 161.564 128.288 160.222 Q130.533 157.698 131.413 155.962 Q132.316 154.203 132.316 152.513 Q132.316 149.759 130.371 148.023 Q128.45 146.286 125.348 146.286 Q123.149 146.286 120.695 147.05 Q118.265 147.814 115.487 149.365 L115.487 144.643 Q118.311 143.509 120.765 142.93 Q123.218 142.351 125.255 142.351 Q130.626 142.351 133.82 145.036 Q137.015 147.722 137.015 152.212 Q137.015 154.342 136.204 156.263 Q135.417 158.161 133.311 160.754 Q132.732 161.425 129.63 164.643 Q126.529 167.837 120.88 173.601 Z" fill="#000000" fill-rule="evenodd" fill-opacity="1" /><path clip-path="url(#clip420)" d="M 0 0 M142.316 142.976 L160.672 142.976 L160.672 146.911 L146.598 146.911 L146.598 155.384 Q147.616 155.036 148.635 154.874 Q149.653 154.689 150.672 154.689 Q156.459 154.689 159.839 157.86 Q163.218 161.032 163.218 166.448 Q163.218 172.027 159.746 175.129 Q156.274 178.208 149.954 178.208 Q147.778 178.208 145.51 177.837 Q143.265 177.467 140.857 176.726 L140.857 172.027 Q142.941 173.161 145.163 173.717 Q147.385 174.272 149.862 174.272 Q153.866 174.272 156.204 172.166 Q158.542 170.059 158.542 166.448 Q158.542 162.837 156.204 160.731 Q153.866 158.624 149.862 158.624 Q147.987 158.624 146.112 159.041 Q144.26 159.458 142.316 160.337 L142.316 142.976 Z" fill="#000000" fill-rule="evenodd" fill-opacity="1" /><path clip-path="url(#clip420)" d="M 0 0 M52.3562 864.419 L52.3562 836.601 L57.7034 836.601 L83.3254 858.626 L83.3254 836.601 L88.0042 836.601 L88.0042 865.215 L82.657 865.215 L57.035 843.19 L57.035 864.419 L52.3562 864.419 Z" fill="#000000" fill-rule="evenodd" fill-opacity="1" /><path clip-path="url(#clip420)" d="M 0 0 M38.479 810.279 L38.479 796.784 L43.0304 796.784 L43.0304 804.422 L92.0464 804.422 L92.0464 796.784 L96.5979 796.784 L96.5979 810.279 L38.479 810.279 Z" fill="#000000" fill-rule="evenodd" fill-opacity="1" /><path clip-path="url(#clip420)" d="M 0 0 M38.479 790.864 L38.479 784.975 L67.7294 784.975 L52.3562 767.501 L52.3562 760.022 L69.0344 778.928 L88.0042 759.226 L88.0042 766.865 L70.5939 784.975 L88.0042 784.975 L88.0042 790.864 L38.479 790.864 Z" fill="#000000" fill-rule="evenodd" fill-opacity="1" /><path clip-path="url(#clip420)" d="M 0 0 M59.1993 725.329 Q55.2526 723.132 53.3747 720.077 Q51.4968 717.021 51.4968 712.884 Q51.4968 707.314 55.4117 704.29 Q59.2948 701.266 66.4881 701.266 L88.0042 701.266 L88.0042 707.154 L66.679 707.154 Q61.5546 707.154 59.072 708.969 Q56.5894 710.783 56.5894 714.507 Q56.5894 719.058 59.6131 721.7 Q62.6368 724.342 67.8567 724.342 L88.0042 724.342 L88.0042 730.23 L66.679 730.23 Q61.5228 730.23 59.072 732.044 Q56.5894 733.859 56.5894 737.646 Q56.5894 742.134 59.6449 744.776 Q62.6686 747.418 67.8567 747.418 L88.0042 747.418 L88.0042 753.306 L52.3562 753.306 L52.3562 747.418 L57.8944 747.418 Q54.616 745.412 53.0564 742.611 Q51.4968 739.811 51.4968 735.959 Q51.4968 732.076 53.4702 729.371 Q55.4436 726.634 59.1993 725.329 Z" fill="#000000" fill-rule="evenodd" fill-opacity="1" /><path clip-path="url(#clip420)" d="M 0 0 M38.479 681.437 L96.5979 681.437 L96.5979 694.932 L92.0464 694.932 L92.0464 687.325 L43.0304 687.325 L43.0304 694.932 L38.479 694.932 L38.479 681.437 Z" fill="#000000" fill-rule="evenodd" fill-opacity="1" /><path clip-path="url(#clip420)" d="M 0 0 M517.273 18.8205 L517.273 65.8515 L527.157 65.8515 Q539.674 65.8515 545.467 60.1802 Q551.3 54.509 551.3 42.2752 Q551.3 30.1225 545.467 24.4918 Q539.674 18.8205 527.157 18.8205 L517.273 18.8205 M509.09 12.096 L525.901 12.096 Q543.482 12.096 551.705 19.4281 Q559.929 26.7198 559.929 42.2752 Q559.929 57.9117 551.665 65.2439 Q543.401 72.576 525.901 72.576 L509.09 72.576 L509.09 12.096 Z" fill="#000000" fill-rule="evenodd" fill-opacity="1" /><path clip-path="url(#clip420)" d="M 0 0 M606.555 48.0275 L606.555 51.6733 L572.284 51.6733 Q572.77 59.3701 576.902 63.421 Q581.074 67.4314 588.488 67.4314 Q592.781 67.4314 596.792 66.3781 Q600.843 65.3249 604.813 63.2184 L604.813 70.267 Q600.802 71.9684 596.589 72.8596 Q592.376 73.7508 588.042 73.7508 Q577.186 73.7508 570.826 67.4314 Q564.506 61.1119 564.506 50.3365 Q564.506 39.1965 570.502 32.6746 Q576.537 26.1121 586.746 26.1121 Q595.901 26.1121 601.207 32.0264 Q606.555 37.9003 606.555 48.0275 M599.101 45.84 Q599.02 39.7232 595.658 36.0774 Q592.336 32.4315 586.827 32.4315 Q580.588 32.4315 576.821 35.9558 Q573.094 39.4801 572.527 45.8805 L599.101 45.84 Z" fill="#000000" fill-rule="evenodd" fill-opacity="1" /><path clip-path="url(#clip420)" d="M 0 0 M647.023 28.9478 L647.023 35.9153 Q643.863 34.1734 640.663 33.3227 Q637.503 32.4315 634.263 32.4315 Q627.012 32.4315 623.001 37.0496 Q618.991 41.6271 618.991 49.9314 Q618.991 58.2358 623.001 62.8538 Q627.012 67.4314 634.263 67.4314 Q637.503 67.4314 640.663 66.5807 Q643.863 65.6895 647.023 63.9476 L647.023 70.8341 Q643.904 72.2924 640.542 73.0216 Q637.22 73.7508 633.453 73.7508 Q623.204 73.7508 617.168 67.3098 Q611.132 60.8689 611.132 49.9314 Q611.132 38.832 617.208 32.472 Q623.325 26.1121 633.939 26.1121 Q637.382 26.1121 640.663 26.8413 Q643.944 27.5299 647.023 28.9478 Z" fill="#000000" fill-rule="evenodd" fill-opacity="1" /><path clip-path="url(#clip420)" d="M 0 0 M675.46 49.7694 Q666.427 49.7694 662.943 51.8354 Q659.459 53.9013 659.459 58.8839 Q659.459 62.8538 662.052 65.2034 Q664.685 67.5124 669.182 67.5124 Q675.379 67.5124 679.106 63.1374 Q682.874 58.7219 682.874 51.4303 L682.874 49.7694 L675.46 49.7694 M690.327 46.6907 L690.327 72.576 L682.874 72.576 L682.874 65.6895 Q680.322 69.8214 676.514 71.8063 Q672.706 73.7508 667.197 73.7508 Q660.229 73.7508 656.097 69.8619 Q652.006 65.9325 652.006 59.3701 Q652.006 51.7138 657.11 47.825 Q662.255 43.9361 672.422 43.9361 L682.874 43.9361 L682.874 43.2069 Q682.874 38.0623 679.471 35.2672 Q676.109 32.4315 669.992 32.4315 Q666.103 32.4315 662.417 33.3632 Q658.73 34.295 655.327 36.1584 L655.327 29.2718 Q659.419 27.692 663.267 26.9223 Q667.116 26.1121 670.761 26.1121 Q680.605 26.1121 685.466 31.2163 Q690.327 36.3204 690.327 46.6907 Z" fill="#000000" fill-rule="evenodd" fill-opacity="1" /><path clip-path="url(#clip420)" d="M 0 0 M717.023 76.7889 Q713.863 84.8907 710.865 87.3618 Q707.868 89.8329 702.845 89.8329 L696.89 89.8329 L696.89 83.5945 L701.265 83.5945 Q704.343 83.5945 706.045 82.1361 Q707.746 80.6778 709.812 75.2496 L711.149 71.8468 L692.798 27.2059 L700.698 27.2059 L714.876 62.6918 L729.054 27.2059 L736.953 27.2059 L717.023 76.7889 Z" fill="#000000" fill-rule="evenodd" fill-opacity="1" /><path clip-path="url(#clip420)" d="M 0 0 M744.771 27.2059 L752.225 27.2059 L752.225 72.576 L744.771 72.576 L744.771 27.2059 M744.771 9.54393 L752.225 9.54393 L752.225 18.9825 L744.771 18.9825 L744.771 9.54393 Z" fill="#000000" fill-rule="evenodd" fill-opacity="1" /><path clip-path="url(#clip420)" d="M 0 0 M797.757 45.1919 L797.757 72.576 L790.304 72.576 L790.304 45.4349 Q790.304 38.994 787.792 35.7938 Q785.28 32.5936 780.257 32.5936 Q774.221 32.5936 770.738 36.4419 Q767.254 40.2903 767.254 46.9338 L767.254 72.576 L759.76 72.576 L759.76 27.2059 L767.254 27.2059 L767.254 34.2544 Q769.928 30.163 773.533 28.1376 Q777.179 26.1121 781.918 26.1121 Q789.736 26.1121 793.747 30.9732 Q797.757 35.7938 797.757 45.1919 Z" fill="#000000" fill-rule="evenodd" fill-opacity="1" /><path clip-path="url(#clip420)" d="M 0 0 M835.431 49.3643 Q835.431 41.2625 832.068 36.8065 Q828.747 32.3505 822.711 32.3505 Q816.715 32.3505 813.353 36.8065 Q810.031 41.2625 810.031 49.3643 Q810.031 57.4256 813.353 61.8816 Q816.715 66.3376 822.711 66.3376 Q828.747 66.3376 832.068 61.8816 Q835.431 57.4256 835.431 49.3643 M842.884 66.9452 Q842.884 78.5308 837.74 84.1616 Q832.595 89.8329 821.982 89.8329 Q818.052 89.8329 814.569 89.2252 Q811.085 88.6581 807.803 87.4428 L807.803 80.1917 Q811.085 81.9741 814.285 82.8248 Q817.485 83.6755 820.807 83.6755 Q828.139 83.6755 831.785 79.8271 Q835.431 76.0193 835.431 68.282 L835.431 64.5957 Q833.122 68.6061 829.516 70.5911 Q825.911 72.576 820.888 72.576 Q812.543 72.576 807.439 66.2161 Q802.335 59.8562 802.335 49.3643 Q802.335 38.832 807.439 32.472 Q812.543 26.1121 820.888 26.1121 Q825.911 26.1121 829.516 28.0971 Q833.122 30.082 835.431 34.0924 L835.431 27.2059 L842.884 27.2059 L842.884 66.9452 Z" fill="#000000" fill-rule="evenodd" fill-opacity="1" /><polyline clip-path="url(#clip422)" style="stroke:#009af9; stroke-width:4; stroke-opacity:1; fill:none" points="
  1125.77,1386.4 1071.44,1361.37 1017.5,1336.35 964.332,1311.33 912.291,1286.3 861.705,1261.28 812.863,1236.26 766.008,1211.23 721.34,1186.21 679.009,1161.19 
  639.116,1136.16 601.721,1111.14 566.841,1086.12 534.458,1061.09 504.521,1036.07 476.957,1011.05 451.669,986.024 428.548,961 407.474,935.977 388.318,910.954 
  370.951,885.931 355.241,860.907 341.061,835.884 328.285,810.861 316.795,785.838 306.475,760.814 297.221,735.791 288.932,710.768 281.516,685.745 274.887,660.721 
  268.967,635.698 263.684,610.675 258.974,585.652 254.776,560.628 251.037,535.605 247.709,510.582 244.747,485.559 242.113,460.535 239.771,435.512 237.689,410.489 
  235.839,385.466 234.195,360.442 232.735,335.419 231.439,310.396 230.287,285.373 229.266,260.349 228.359,235.326 227.553,210.303 226.839,185.28 226.205,160.256 
  
  "/>
<path clip-path="url(#clip420)" d="
M964.004 287.756 L1120.97 287.756 L1120.97 166.796 L964.004 166.796  Z
  " fill="#ffffff" fill-rule="evenodd" fill-opacity="1"/>
<polyline clip-path="url(#clip420)" style="stroke:#000000; stroke-width:4; stroke-opacity:1; fill:none" points="
  964.004,287.756 1120.97,287.756 1120.97,166.796 964.004,166.796 964.004,287.756 
  "/>
<polyline clip-path="url(#clip420)" style="stroke:#009af9; stroke-width:4; stroke-opacity:1; fill:none" points="
  974.599,227.276 1038.17,227.276 
  "/>
<path clip-path="url(#clip420)" d="M 0 0 M1062.61 246.963 Q1060.8 251.593 1059.09 253.005 Q1057.37 254.417 1054.5 254.417 L1051.1 254.417 L1051.1 250.852 L1053.6 250.852 Q1055.36 250.852 1056.33 250.019 Q1057.3 249.185 1058.49 246.083 L1059.25 244.139 L1048.76 218.63 L1053.28 218.63 L1061.38 238.908 L1069.48 218.63 L1073.99 218.63 L1062.61 246.963 Z" fill="#000000" fill-rule="evenodd" fill-opacity="1" /><path clip-path="url(#clip420)" d="M 0 0 M1079.87 240.621 L1087.51 240.621 L1087.51 214.255 L1079.2 215.922 L1079.2 211.662 L1087.47 209.996 L1092.14 209.996 L1092.14 240.621 L1099.78 240.621 L1099.78 244.556 L1079.87 244.556 L1079.87 240.621 Z" fill="#000000" fill-rule="evenodd" fill-opacity="1" /><path clip-path="url(#clip420)" d="
M1399.22 1423.18 L2352.76 1423.18 L2352.76 123.472 L1399.22 123.472  Z
  " fill="#ffffff" fill-rule="evenodd" fill-opacity="1"/>
<defs>
  <clipPath id="clip423">
    <rect x="1399" y="123" width="955" height="1301"/>
  </clipPath>
</defs>
<polyline clip-path="url(#clip423)" style="stroke:#000000; stroke-width:2; stroke-opacity:0.1; fill:none" points="
  1401.87,1423.18 1401.87,123.472 
  "/>
<polyline clip-path="url(#clip423)" style="stroke:#000000; stroke-width:2; stroke-opacity:0.1; fill:none" points="
  1629.83,1423.18 1629.83,123.472 
  "/>
<polyline clip-path="url(#clip423)" style="stroke:#000000; stroke-width:2; stroke-opacity:0.1; fill:none" points="
  1857.78,1423.18 1857.78,123.472 
  "/>
<polyline clip-path="url(#clip423)" style="stroke:#000000; stroke-width:2; stroke-opacity:0.1; fill:none" points="
  2085.73,1423.18 2085.73,123.472 
  "/>
<polyline clip-path="url(#clip423)" style="stroke:#000000; stroke-width:2; stroke-opacity:0.1; fill:none" points="
  2313.69,1423.18 2313.69,123.472 
  "/>
<polyline clip-path="url(#clip420)" style="stroke:#000000; stroke-width:4; stroke-opacity:1; fill:none" points="
  1399.22,1423.18 2352.76,1423.18 
  "/>
<polyline clip-path="url(#clip420)" style="stroke:#000000; stroke-width:4; stroke-opacity:1; fill:none" points="
  1401.87,1423.18 1401.87,1407.58 
  "/>
<polyline clip-path="url(#clip420)" style="stroke:#000000; stroke-width:4; stroke-opacity:1; fill:none" points="
  1629.83,1423.18 1629.83,1407.58 
  "/>
<polyline clip-path="url(#clip420)" style="stroke:#000000; stroke-width:4; stroke-opacity:1; fill:none" points="
  1857.78,1423.18 1857.78,1407.58 
  "/>
<polyline clip-path="url(#clip420)" style="stroke:#000000; stroke-width:4; stroke-opacity:1; fill:none" points="
  2085.73,1423.18 2085.73,1407.58 
  "/>
<polyline clip-path="url(#clip420)" style="stroke:#000000; stroke-width:4; stroke-opacity:1; fill:none" points="
  2313.69,1423.18 2313.69,1407.58 
  "/>
<path clip-path="url(#clip420)" d="M 0 0 M1401.87 1452.37 Q1398.26 1452.37 1396.44 1455.94 Q1394.63 1459.48 1394.63 1466.61 Q1394.63 1473.71 1396.44 1477.28 Q1398.26 1480.82 1401.87 1480.82 Q1405.51 1480.82 1407.31 1477.28 Q1409.14 1473.71 1409.14 1466.61 Q1409.14 1459.48 1407.31 1455.94 Q1405.51 1452.37 1401.87 1452.37 M1401.87 1448.67 Q1407.69 1448.67 1410.74 1453.27 Q1413.82 1457.86 1413.82 1466.61 Q1413.82 1475.33 1410.74 1479.94 Q1407.69 1484.52 1401.87 1484.52 Q1396.06 1484.52 1392.99 1479.94 Q1389.93 1475.33 1389.93 1466.61 Q1389.93 1457.86 1392.99 1453.27 Q1396.06 1448.67 1401.87 1448.67 Z" fill="#000000" fill-rule="evenodd" fill-opacity="1" /><path clip-path="url(#clip420)" d="M 0 0 M1611.47 1479.92 L1627.79 1479.92 L1627.79 1483.85 L1605.85 1483.85 L1605.85 1479.92 Q1608.51 1477.16 1613.09 1472.53 Q1617.7 1467.88 1618.88 1466.54 Q1621.12 1464.01 1622 1462.28 Q1622.91 1460.52 1622.91 1458.83 Q1622.91 1456.07 1620.96 1454.34 Q1619.04 1452.6 1615.94 1452.6 Q1613.74 1452.6 1611.29 1453.37 Q1608.86 1454.13 1606.08 1455.68 L1606.08 1450.96 Q1608.9 1449.82 1611.36 1449.25 Q1613.81 1448.67 1615.85 1448.67 Q1621.22 1448.67 1624.41 1451.35 Q1627.61 1454.04 1627.61 1458.53 Q1627.61 1460.66 1626.8 1462.58 Q1626.01 1464.48 1623.9 1467.07 Q1623.32 1467.74 1620.22 1470.96 Q1617.12 1474.15 1611.47 1479.92 Z" fill="#000000" fill-rule="evenodd" fill-opacity="1" /><path clip-path="url(#clip420)" d="M 0 0 M1632.91 1449.29 L1651.26 1449.29 L1651.26 1453.23 L1637.19 1453.23 L1637.19 1461.7 Q1638.21 1461.35 1639.23 1461.19 Q1640.24 1461 1641.26 1461 Q1647.05 1461 1650.43 1464.18 Q1653.81 1467.35 1653.81 1472.76 Q1653.81 1478.34 1650.34 1481.44 Q1646.86 1484.52 1640.55 1484.52 Q1638.37 1484.52 1636.1 1484.15 Q1633.86 1483.78 1631.45 1483.04 L1631.45 1478.34 Q1633.53 1479.48 1635.75 1480.03 Q1637.98 1480.59 1640.45 1480.59 Q1644.46 1480.59 1646.8 1478.48 Q1649.13 1476.38 1649.13 1472.76 Q1649.13 1469.15 1646.8 1467.05 Q1644.46 1464.94 1640.45 1464.94 Q1638.58 1464.94 1636.7 1465.36 Q1634.85 1465.77 1632.91 1466.65 L1632.91 1449.29 Z" fill="#000000" fill-rule="evenodd" fill-opacity="1" /><path clip-path="url(#clip420)" d="M 0 0 M1834.55 1449.29 L1852.91 1449.29 L1852.91 1453.23 L1838.83 1453.23 L1838.83 1461.7 Q1839.85 1461.35 1840.87 1461.19 Q1841.89 1461 1842.91 1461 Q1848.7 1461 1852.08 1464.18 Q1855.45 1467.35 1855.45 1472.76 Q1855.45 1478.34 1851.98 1481.44 Q1848.51 1484.52 1842.19 1484.52 Q1840.02 1484.52 1837.75 1484.15 Q1835.5 1483.78 1833.09 1483.04 L1833.09 1478.34 Q1835.18 1479.48 1837.4 1480.03 Q1839.62 1480.59 1842.1 1480.59 Q1846.1 1480.59 1848.44 1478.48 Q1850.78 1476.38 1850.78 1472.76 Q1850.78 1469.15 1848.44 1467.05 Q1846.1 1464.94 1842.1 1464.94 Q1840.22 1464.94 1838.35 1465.36 Q1836.5 1465.77 1834.55 1466.65 L1834.55 1449.29 Z" fill="#000000" fill-rule="evenodd" fill-opacity="1" /><path clip-path="url(#clip420)" d="M 0 0 M1870.52 1452.37 Q1866.91 1452.37 1865.08 1455.94 Q1863.28 1459.48 1863.28 1466.61 Q1863.28 1473.71 1865.08 1477.28 Q1866.91 1480.82 1870.52 1480.82 Q1874.16 1480.82 1875.96 1477.28 Q1877.79 1473.71 1877.79 1466.61 Q1877.79 1459.48 1875.96 1455.94 Q1874.16 1452.37 1870.52 1452.37 M1870.52 1448.67 Q1876.33 1448.67 1879.39 1453.27 Q1882.47 1457.86 1882.47 1466.61 Q1882.47 1475.33 1879.39 1479.94 Q1876.33 1484.52 1870.52 1484.52 Q1864.71 1484.52 1861.64 1479.94 Q1858.58 1475.33 1858.58 1466.61 Q1858.58 1457.86 1861.64 1453.27 Q1864.71 1448.67 1870.52 1448.67 Z" fill="#000000" fill-rule="evenodd" fill-opacity="1" /><path clip-path="url(#clip420)" d="M 0 0 M2061.61 1449.29 L2083.84 1449.29 L2083.84 1451.28 L2071.29 1483.85 L2066.41 1483.85 L2078.21 1453.23 L2061.61 1453.23 L2061.61 1449.29 Z" fill="#000000" fill-rule="evenodd" fill-opacity="1" /><path clip-path="url(#clip420)" d="M 0 0 M2088.95 1449.29 L2107.31 1449.29 L2107.31 1453.23 L2093.23 1453.23 L2093.23 1461.7 Q2094.25 1461.35 2095.27 1461.19 Q2096.29 1461 2097.31 1461 Q2103.1 1461 2106.47 1464.18 Q2109.85 1467.35 2109.85 1472.76 Q2109.85 1478.34 2106.38 1481.44 Q2102.91 1484.52 2096.59 1484.52 Q2094.41 1484.52 2092.15 1484.15 Q2089.9 1483.78 2087.49 1483.04 L2087.49 1478.34 Q2089.58 1479.48 2091.8 1480.03 Q2094.02 1480.59 2096.5 1480.59 Q2100.5 1480.59 2102.84 1478.48 Q2105.18 1476.38 2105.18 1472.76 Q2105.18 1469.15 2102.84 1467.05 Q2100.5 1464.94 2096.5 1464.94 Q2094.62 1464.94 2092.75 1465.36 Q2090.9 1465.77 2088.95 1466.65 L2088.95 1449.29 Z" fill="#000000" fill-rule="evenodd" fill-opacity="1" /><path clip-path="url(#clip420)" d="M 0 0 M2277.06 1479.92 L2284.69 1479.92 L2284.69 1453.55 L2276.38 1455.22 L2276.38 1450.96 L2284.65 1449.29 L2289.32 1449.29 L2289.32 1479.92 L2296.96 1479.92 L2296.96 1483.85 L2277.06 1483.85 L2277.06 1479.92 Z" fill="#000000" fill-rule="evenodd" fill-opacity="1" /><path clip-path="url(#clip420)" d="M 0 0 M2312.03 1452.37 Q2308.42 1452.37 2306.59 1455.94 Q2304.79 1459.48 2304.79 1466.61 Q2304.79 1473.71 2306.59 1477.28 Q2308.42 1480.82 2312.03 1480.82 Q2315.67 1480.82 2317.47 1477.28 Q2319.3 1473.71 2319.3 1466.61 Q2319.3 1459.48 2317.47 1455.94 Q2315.67 1452.37 2312.03 1452.37 M2312.03 1448.67 Q2317.84 1448.67 2320.9 1453.27 Q2323.98 1457.86 2323.98 1466.61 Q2323.98 1475.33 2320.9 1479.94 Q2317.84 1484.52 2312.03 1484.52 Q2306.22 1484.52 2303.14 1479.94 Q2300.09 1475.33 2300.09 1466.61 Q2300.09 1457.86 2303.14 1453.27 Q2306.22 1448.67 2312.03 1448.67 Z" fill="#000000" fill-rule="evenodd" fill-opacity="1" /><path clip-path="url(#clip420)" d="M 0 0 M2339.05 1452.37 Q2335.44 1452.37 2333.61 1455.94 Q2331.8 1459.48 2331.8 1466.61 Q2331.8 1473.71 2333.61 1477.28 Q2335.44 1480.82 2339.05 1480.82 Q2342.68 1480.82 2344.49 1477.28 Q2346.31 1473.71 2346.31 1466.61 Q2346.31 1459.48 2344.49 1455.94 Q2342.68 1452.37 2339.05 1452.37 M2339.05 1448.67 Q2344.86 1448.67 2347.91 1453.27 Q2350.99 1457.86 2350.99 1466.61 Q2350.99 1475.33 2347.91 1479.94 Q2344.86 1484.52 2339.05 1484.52 Q2333.24 1484.52 2330.16 1479.94 Q2327.1 1475.33 2327.1 1466.61 Q2327.1 1457.86 2330.16 1453.27 Q2333.24 1448.67 2339.05 1448.67 Z" fill="#000000" fill-rule="evenodd" fill-opacity="1" /><path clip-path="url(#clip420)" d="M 0 0 M1674.48 1513.81 L1674.48 1531.66 L1682.57 1531.66 Q1687.05 1531.66 1689.5 1529.34 Q1691.95 1527.02 1691.95 1522.72 Q1691.95 1518.45 1689.5 1516.13 Q1687.05 1513.81 1682.57 1513.81 L1674.48 1513.81 M1668.05 1508.52 L1682.57 1508.52 Q1690.55 1508.52 1694.63 1512.15 Q1698.73 1515.75 1698.73 1522.72 Q1698.73 1529.75 1694.63 1533.35 Q1690.55 1536.95 1682.57 1536.95 L1674.48 1536.95 L1674.48 1556.04 L1668.05 1556.04 L1668.05 1508.52 Z" fill="#000000" fill-rule="evenodd" fill-opacity="1" /><path clip-path="url(#clip420)" d="M 0 0 M1724.39 1525.87 Q1723.4 1525.3 1722.22 1525.04 Q1721.08 1524.76 1719.68 1524.76 Q1714.71 1524.76 1712.04 1528 Q1709.4 1531.22 1709.4 1537.27 L1709.4 1556.04 L1703.51 1556.04 L1703.51 1520.4 L1709.4 1520.4 L1709.4 1525.93 Q1711.24 1522.69 1714.2 1521.13 Q1717.16 1519.54 1721.4 1519.54 Q1722 1519.54 1722.73 1519.63 Q1723.46 1519.7 1724.36 1519.85 L1724.39 1525.87 Z" fill="#000000" fill-rule="evenodd" fill-opacity="1" /><path clip-path="url(#clip420)" d="M 0 0 M1759.59 1536.76 L1759.59 1539.62 L1732.66 1539.62 Q1733.05 1545.67 1736.29 1548.85 Q1739.57 1552 1745.39 1552 Q1748.77 1552 1751.92 1551.17 Q1755.1 1550.35 1758.22 1548.69 L1758.22 1554.23 Q1755.07 1555.57 1751.76 1556.27 Q1748.45 1556.97 1745.04 1556.97 Q1736.51 1556.97 1731.52 1552 Q1726.55 1547.04 1726.55 1538.57 Q1726.55 1529.82 1731.26 1524.69 Q1736.01 1519.54 1744.03 1519.54 Q1751.22 1519.54 1755.39 1524.18 Q1759.59 1528.8 1759.59 1536.76 M1753.73 1535.04 Q1753.67 1530.23 1751.03 1527.37 Q1748.42 1524.5 1744.09 1524.5 Q1739.19 1524.5 1736.23 1527.27 Q1733.3 1530.04 1732.85 1535.07 L1753.73 1535.04 Z" fill="#000000" fill-rule="evenodd" fill-opacity="1" /><path clip-path="url(#clip420)" d="M 0 0 M1788.46 1521.45 L1788.46 1526.98 Q1785.98 1525.71 1783.3 1525.07 Q1780.63 1524.44 1777.76 1524.44 Q1773.4 1524.44 1771.21 1525.77 Q1769.04 1527.11 1769.04 1529.79 Q1769.04 1531.82 1770.6 1533 Q1772.16 1534.15 1776.87 1535.2 L1778.88 1535.64 Q1785.12 1536.98 1787.73 1539.43 Q1790.37 1541.85 1790.37 1546.21 Q1790.37 1551.17 1786.42 1554.07 Q1782.51 1556.97 1775.63 1556.97 Q1772.77 1556.97 1769.65 1556.39 Q1766.56 1555.85 1763.12 1554.74 L1763.12 1548.69 Q1766.37 1550.38 1769.52 1551.24 Q1772.67 1552.07 1775.76 1552.07 Q1779.9 1552.07 1782.12 1550.66 Q1784.35 1549.23 1784.35 1546.65 Q1784.35 1544.27 1782.73 1542.99 Q1781.14 1541.72 1775.7 1540.54 L1773.66 1540.07 Q1768.22 1538.92 1765.8 1536.56 Q1763.38 1534.18 1763.38 1530.04 Q1763.38 1525.01 1766.94 1522.27 Q1770.51 1519.54 1777.06 1519.54 Q1780.31 1519.54 1783.18 1520.01 Q1786.04 1520.49 1788.46 1521.45 Z" fill="#000000" fill-rule="evenodd" fill-opacity="1" /><path clip-path="url(#clip420)" d="M 0 0 M1819.24 1521.45 L1819.24 1526.98 Q1816.75 1525.71 1814.08 1525.07 Q1811.41 1524.44 1808.54 1524.44 Q1804.18 1524.44 1801.99 1525.77 Q1799.82 1527.11 1799.82 1529.79 Q1799.82 1531.82 1801.38 1533 Q1802.94 1534.15 1807.65 1535.2 L1809.66 1535.64 Q1815.89 1536.98 1818.5 1539.43 Q1821.15 1541.85 1821.15 1546.21 Q1821.15 1551.17 1817.2 1554.07 Q1813.28 1556.97 1806.41 1556.97 Q1803.55 1556.97 1800.43 1556.39 Q1797.34 1555.85 1793.9 1554.74 L1793.9 1548.69 Q1797.15 1550.38 1800.3 1551.24 Q1803.45 1552.07 1806.54 1552.07 Q1810.67 1552.07 1812.9 1550.66 Q1815.13 1549.23 1815.13 1546.65 Q1815.13 1544.27 1813.51 1542.99 Q1811.92 1541.72 1806.47 1540.54 L1804.44 1540.07 Q1798.99 1538.92 1796.57 1536.56 Q1794.16 1534.18 1794.16 1530.04 Q1794.16 1525.01 1797.72 1522.27 Q1801.29 1519.54 1807.84 1519.54 Q1811.09 1519.54 1813.95 1520.01 Q1816.82 1520.49 1819.24 1521.45 Z" fill="#000000" fill-rule="evenodd" fill-opacity="1" /><path clip-path="url(#clip420)" d="M 0 0 M1826.68 1541.98 L1826.68 1520.4 L1832.54 1520.4 L1832.54 1541.75 Q1832.54 1546.81 1834.51 1549.36 Q1836.49 1551.87 1840.43 1551.87 Q1845.18 1551.87 1847.91 1548.85 Q1850.68 1545.83 1850.68 1540.61 L1850.68 1520.4 L1856.54 1520.4 L1856.54 1556.04 L1850.68 1556.04 L1850.68 1550.57 Q1848.55 1553.82 1845.72 1555.41 Q1842.92 1556.97 1839.19 1556.97 Q1833.05 1556.97 1829.87 1553.15 Q1826.68 1549.33 1826.68 1541.98 M1841.42 1519.54 L1841.42 1519.54 Z" fill="#000000" fill-rule="evenodd" fill-opacity="1" /><path clip-path="url(#clip420)" d="M 0 0 M1883.34 1525.87 Q1882.35 1525.3 1881.18 1525.04 Q1880.03 1524.76 1878.63 1524.76 Q1873.66 1524.76 1870.99 1528 Q1868.35 1531.22 1868.35 1537.27 L1868.35 1556.04 L1862.46 1556.04 L1862.46 1520.4 L1868.35 1520.4 L1868.35 1525.93 Q1870.19 1522.69 1873.15 1521.13 Q1876.11 1519.54 1880.35 1519.54 Q1880.95 1519.54 1881.68 1519.63 Q1882.42 1519.7 1883.31 1519.85 L1883.34 1525.87 Z" fill="#000000" fill-rule="evenodd" fill-opacity="1" /><path clip-path="url(#clip420)" d="M 0 0 M1918.54 1536.76 L1918.54 1539.62 L1891.61 1539.62 Q1892 1545.67 1895.24 1548.85 Q1898.52 1552 1904.35 1552 Q1907.72 1552 1910.87 1551.17 Q1914.05 1550.35 1917.17 1548.69 L1917.17 1554.23 Q1914.02 1555.57 1910.71 1556.27 Q1907.4 1556.97 1904 1556.97 Q1895.47 1556.97 1890.47 1552 Q1885.5 1547.04 1885.5 1538.57 Q1885.5 1529.82 1890.21 1524.69 Q1894.96 1519.54 1902.98 1519.54 Q1910.17 1519.54 1914.34 1524.18 Q1918.54 1528.8 1918.54 1536.76 M1912.69 1535.04 Q1912.62 1530.23 1909.98 1527.37 Q1907.37 1524.5 1903.04 1524.5 Q1898.14 1524.5 1895.18 1527.27 Q1892.25 1530.04 1891.81 1535.07 L1912.69 1535.04 Z" fill="#000000" fill-rule="evenodd" fill-opacity="1" /><path clip-path="url(#clip420)" d="M 0 0 M1944.86 1506.52 L1958.36 1506.52 L1958.36 1511.07 L1950.72 1511.07 L1950.72 1560.09 L1958.36 1560.09 L1958.36 1564.64 L1944.86 1564.64 L1944.86 1506.52 Z" fill="#000000" fill-rule="evenodd" fill-opacity="1" /><path clip-path="url(#clip420)" d="M 0 0 M1964.28 1506.52 L1970.17 1506.52 L1970.17 1535.77 L1987.64 1520.4 L1995.12 1520.4 L1976.22 1537.07 L1995.92 1556.04 L1988.28 1556.04 L1970.17 1538.63 L1970.17 1556.04 L1964.28 1556.04 L1964.28 1506.52 Z" fill="#000000" fill-rule="evenodd" fill-opacity="1" /><path clip-path="url(#clip420)" d="M 0 0 M2008.74 1513.81 L2008.74 1531.66 L2016.83 1531.66 Q2021.32 1531.66 2023.77 1529.34 Q2026.22 1527.02 2026.22 1522.72 Q2026.22 1518.45 2023.77 1516.13 Q2021.32 1513.81 2016.83 1513.81 L2008.74 1513.81 M2002.31 1508.52 L2016.83 1508.52 Q2024.82 1508.52 2028.89 1512.15 Q2033 1515.75 2033 1522.72 Q2033 1529.75 2028.89 1533.35 Q2024.82 1536.95 2016.83 1536.95 L2008.74 1536.95 L2008.74 1556.04 L2002.31 1556.04 L2002.31 1508.52 Z" fill="#000000" fill-rule="evenodd" fill-opacity="1" /><path clip-path="url(#clip420)" d="M 0 0 M2052.41 1538.12 Q2045.31 1538.12 2042.58 1539.75 Q2039.84 1541.37 2039.84 1545.29 Q2039.84 1548.4 2041.88 1550.25 Q2043.95 1552.07 2047.48 1552.07 Q2052.35 1552.07 2055.28 1548.63 Q2058.24 1545.16 2058.24 1539.43 L2058.24 1538.12 L2052.41 1538.12 M2064.09 1535.71 L2064.09 1556.04 L2058.24 1556.04 L2058.24 1550.63 Q2056.23 1553.88 2053.24 1555.44 Q2050.25 1556.97 2045.92 1556.97 Q2040.45 1556.97 2037.2 1553.91 Q2033.98 1550.82 2033.98 1545.67 Q2033.98 1539.65 2037.99 1536.6 Q2042.04 1533.54 2050.03 1533.54 L2058.24 1533.54 L2058.24 1532.97 Q2058.24 1528.93 2055.56 1526.73 Q2052.92 1524.5 2048.12 1524.5 Q2045.06 1524.5 2042.16 1525.23 Q2039.27 1525.97 2036.59 1527.43 L2036.59 1522.02 Q2039.81 1520.78 2042.83 1520.17 Q2045.86 1519.54 2048.72 1519.54 Q2056.45 1519.54 2060.27 1523.55 Q2064.09 1527.56 2064.09 1535.71 Z" fill="#000000" fill-rule="evenodd" fill-opacity="1" /><path clip-path="url(#clip420)" d="M 0 0 M2083.92 1506.52 L2083.92 1564.64 L2070.43 1564.64 L2070.43 1560.09 L2078.03 1560.09 L2078.03 1511.07 L2070.43 1511.07 L2070.43 1506.52 L2083.92 1506.52 Z" fill="#000000" fill-rule="evenodd" fill-opacity="1" /><polyline clip-path="url(#clip423)" style="stroke:#000000; stroke-width:2; stroke-opacity:0.1; fill:none" points="
  1399.22,1386.4 2352.76,1386.4 
  "/>
<polyline clip-path="url(#clip423)" style="stroke:#000000; stroke-width:2; stroke-opacity:0.1; fill:none" points="
  1399.22,1141.17 2352.76,1141.17 
  "/>
<polyline clip-path="url(#clip423)" style="stroke:#000000; stroke-width:2; stroke-opacity:0.1; fill:none" points="
  1399.22,895.94 2352.76,895.94 
  "/>
<polyline clip-path="url(#clip423)" style="stroke:#000000; stroke-width:2; stroke-opacity:0.1; fill:none" points="
  1399.22,650.712 2352.76,650.712 
  "/>
<polyline clip-path="url(#clip423)" style="stroke:#000000; stroke-width:2; stroke-opacity:0.1; fill:none" points="
  1399.22,405.484 2352.76,405.484 
  "/>
<polyline clip-path="url(#clip423)" style="stroke:#000000; stroke-width:2; stroke-opacity:0.1; fill:none" points="
  1399.22,160.256 2352.76,160.256 
  "/>
<polyline clip-path="url(#clip420)" style="stroke:#000000; stroke-width:4; stroke-opacity:1; fill:none" points="
  1399.22,1423.18 1399.22,123.472 
  "/>
<polyline clip-path="url(#clip420)" style="stroke:#000000; stroke-width:4; stroke-opacity:1; fill:none" points="
  1399.22,1386.4 1410.66,1386.4 
  "/>
<polyline clip-path="url(#clip420)" style="stroke:#000000; stroke-width:4; stroke-opacity:1; fill:none" points="
  1399.22,1141.17 1410.66,1141.17 
  "/>
<polyline clip-path="url(#clip420)" style="stroke:#000000; stroke-width:4; stroke-opacity:1; fill:none" points="
  1399.22,895.94 1410.66,895.94 
  "/>
<polyline clip-path="url(#clip420)" style="stroke:#000000; stroke-width:4; stroke-opacity:1; fill:none" points="
  1399.22,650.712 1410.66,650.712 
  "/>
<polyline clip-path="url(#clip420)" style="stroke:#000000; stroke-width:4; stroke-opacity:1; fill:none" points="
  1399.22,405.484 1410.66,405.484 
  "/>
<polyline clip-path="url(#clip420)" style="stroke:#000000; stroke-width:4; stroke-opacity:1; fill:none" points="
  1399.22,160.256 1410.66,160.256 
  "/>
<path clip-path="url(#clip420)" d="M 0 0 M1351.27 1372.19 Q1347.66 1372.19 1345.83 1375.76 Q1344.03 1379.3 1344.03 1386.43 Q1344.03 1393.54 1345.83 1397.1 Q1347.66 1400.64 1351.27 1400.64 Q1354.91 1400.64 1356.71 1397.1 Q1358.54 1393.54 1358.54 1386.43 Q1358.54 1379.3 1356.71 1375.76 Q1354.91 1372.19 1351.27 1372.19 M1351.27 1368.49 Q1357.08 1368.49 1360.14 1373.1 Q1363.22 1377.68 1363.22 1386.43 Q1363.22 1395.16 1360.14 1399.76 Q1357.08 1404.35 1351.27 1404.35 Q1345.46 1404.35 1342.39 1399.76 Q1339.33 1395.16 1339.33 1386.43 Q1339.33 1377.68 1342.39 1373.1 Q1345.46 1368.49 1351.27 1368.49 Z" fill="#000000" fill-rule="evenodd" fill-opacity="1" /><path clip-path="url(#clip420)" d="M 0 0 M1342.32 1123.89 L1360.67 1123.89 L1360.67 1127.82 L1346.6 1127.82 L1346.6 1136.3 Q1347.62 1135.95 1348.63 1135.79 Q1349.65 1135.6 1350.67 1135.6 Q1356.46 1135.6 1359.84 1138.77 Q1363.22 1141.94 1363.22 1147.36 Q1363.22 1152.94 1359.75 1156.04 Q1356.27 1159.12 1349.95 1159.12 Q1347.78 1159.12 1345.51 1158.75 Q1343.26 1158.38 1340.86 1157.64 L1340.86 1152.94 Q1342.94 1154.07 1345.16 1154.63 Q1347.38 1155.18 1349.86 1155.18 Q1353.87 1155.18 1356.2 1153.08 Q1358.54 1150.97 1358.54 1147.36 Q1358.54 1143.75 1356.2 1141.64 Q1353.87 1139.54 1349.86 1139.54 Q1347.99 1139.54 1346.11 1139.95 Q1344.26 1140.37 1342.32 1141.25 L1342.32 1123.89 Z" fill="#000000" fill-rule="evenodd" fill-opacity="1" /><path clip-path="url(#clip420)" d="M 0 0 M1316.3 909.285 L1323.94 909.285 L1323.94 882.919 L1315.63 884.586 L1315.63 880.327 L1323.89 878.66 L1328.57 878.66 L1328.57 909.285 L1336.2 909.285 L1336.2 913.22 L1316.3 913.22 L1316.3 909.285 Z" fill="#000000" fill-rule="evenodd" fill-opacity="1" /><path clip-path="url(#clip420)" d="M 0 0 M1351.27 881.739 Q1347.66 881.739 1345.83 885.303 Q1344.03 888.845 1344.03 895.975 Q1344.03 903.081 1345.83 906.646 Q1347.66 910.188 1351.27 910.188 Q1354.91 910.188 1356.71 906.646 Q1358.54 903.081 1358.54 895.975 Q1358.54 888.845 1356.71 885.303 Q1354.91 881.739 1351.27 881.739 M1351.27 878.035 Q1357.08 878.035 1360.14 882.641 Q1363.22 887.225 1363.22 895.975 Q1363.22 904.701 1360.14 909.308 Q1357.08 913.891 1351.27 913.891 Q1345.46 913.891 1342.39 909.308 Q1339.33 904.701 1339.33 895.975 Q1339.33 887.225 1342.39 882.641 Q1345.46 878.035 1351.27 878.035 Z" fill="#000000" fill-rule="evenodd" fill-opacity="1" /><path clip-path="url(#clip420)" d="M 0 0 M1317.29 664.057 L1324.93 664.057 L1324.93 637.691 L1316.62 639.358 L1316.62 635.099 L1324.89 633.432 L1329.56 633.432 L1329.56 664.057 L1337.2 664.057 L1337.2 667.992 L1317.29 667.992 L1317.29 664.057 Z" fill="#000000" fill-rule="evenodd" fill-opacity="1" /><path clip-path="url(#clip420)" d="M 0 0 M1342.32 633.432 L1360.67 633.432 L1360.67 637.367 L1346.6 637.367 L1346.6 645.839 Q1347.62 645.492 1348.63 645.33 Q1349.65 645.145 1350.67 645.145 Q1356.46 645.145 1359.84 648.316 Q1363.22 651.488 1363.22 656.904 Q1363.22 662.483 1359.75 665.585 Q1356.27 668.663 1349.95 668.663 Q1347.78 668.663 1345.51 668.293 Q1343.26 667.923 1340.86 667.182 L1340.86 662.483 Q1342.94 663.617 1345.16 664.173 Q1347.38 664.728 1349.86 664.728 Q1353.87 664.728 1356.2 662.622 Q1358.54 660.515 1358.54 656.904 Q1358.54 653.293 1356.2 651.187 Q1353.87 649.08 1349.86 649.08 Q1347.99 649.08 1346.11 649.497 Q1344.26 649.913 1342.32 650.793 L1342.32 633.432 Z" fill="#000000" fill-rule="evenodd" fill-opacity="1" /><path clip-path="url(#clip420)" d="M 0 0 M1319.89 418.829 L1336.2 418.829 L1336.2 422.764 L1314.26 422.764 L1314.26 418.829 Q1316.92 416.074 1321.51 411.445 Q1326.11 406.792 1327.29 405.449 Q1329.54 402.926 1330.42 401.19 Q1331.32 399.431 1331.32 397.741 Q1331.32 394.987 1329.38 393.25 Q1327.45 391.514 1324.35 391.514 Q1322.15 391.514 1319.7 392.278 Q1317.27 393.042 1314.49 394.593 L1314.49 389.871 Q1317.32 388.737 1319.77 388.158 Q1322.22 387.579 1324.26 387.579 Q1329.63 387.579 1332.82 390.264 Q1336.02 392.95 1336.02 397.44 Q1336.02 399.57 1335.21 401.491 Q1334.42 403.389 1332.32 405.982 Q1331.74 406.653 1328.64 409.871 Q1325.53 413.065 1319.89 418.829 Z" fill="#000000" fill-rule="evenodd" fill-opacity="1" /><path clip-path="url(#clip420)" d="M 0 0 M1351.27 391.283 Q1347.66 391.283 1345.83 394.848 Q1344.03 398.389 1344.03 405.519 Q1344.03 412.625 1345.83 416.19 Q1347.66 419.732 1351.27 419.732 Q1354.91 419.732 1356.71 416.19 Q1358.54 412.625 1358.54 405.519 Q1358.54 398.389 1356.71 394.848 Q1354.91 391.283 1351.27 391.283 M1351.27 387.579 Q1357.08 387.579 1360.14 392.186 Q1363.22 396.769 1363.22 405.519 Q1363.22 414.246 1360.14 418.852 Q1357.08 423.435 1351.27 423.435 Q1345.46 423.435 1342.39 418.852 Q1339.33 414.246 1339.33 405.519 Q1339.33 396.769 1342.39 392.186 Q1345.46 387.579 1351.27 387.579 Z" fill="#000000" fill-rule="evenodd" fill-opacity="1" /><path clip-path="url(#clip420)" d="M 0 0 M1320.88 173.601 L1337.2 173.601 L1337.2 177.536 L1315.26 177.536 L1315.26 173.601 Q1317.92 170.847 1322.5 166.217 Q1327.11 161.564 1328.29 160.222 Q1330.53 157.698 1331.41 155.962 Q1332.32 154.203 1332.32 152.513 Q1332.32 149.759 1330.37 148.023 Q1328.45 146.286 1325.35 146.286 Q1323.15 146.286 1320.7 147.05 Q1318.26 147.814 1315.49 149.365 L1315.49 144.643 Q1318.31 143.509 1320.76 142.93 Q1323.22 142.351 1325.26 142.351 Q1330.63 142.351 1333.82 145.036 Q1337.01 147.722 1337.01 152.212 Q1337.01 154.342 1336.2 156.263 Q1335.42 158.161 1333.31 160.754 Q1332.73 161.425 1329.63 164.643 Q1326.53 167.837 1320.88 173.601 Z" fill="#000000" fill-rule="evenodd" fill-opacity="1" /><path clip-path="url(#clip420)" d="M 0 0 M1342.32 142.976 L1360.67 142.976 L1360.67 146.911 L1346.6 146.911 L1346.6 155.384 Q1347.62 155.036 1348.63 154.874 Q1349.65 154.689 1350.67 154.689 Q1356.46 154.689 1359.84 157.86 Q1363.22 161.032 1363.22 166.448 Q1363.22 172.027 1359.75 175.129 Q1356.27 178.208 1349.95 178.208 Q1347.78 178.208 1345.51 177.837 Q1343.26 177.467 1340.86 176.726 L1340.86 172.027 Q1342.94 173.161 1345.16 173.717 Q1347.38 174.272 1349.86 174.272 Q1353.87 174.272 1356.2 172.166 Q1358.54 170.059 1358.54 166.448 Q1358.54 162.837 1356.2 160.731 Q1353.87 158.624 1349.86 158.624 Q1347.99 158.624 1346.11 159.041 Q1344.26 159.458 1342.32 160.337 L1342.32 142.976 Z" fill="#000000" fill-rule="evenodd" fill-opacity="1" /><path clip-path="url(#clip420)" d="M 0 0 M1252.36 864.419 L1252.36 836.601 L1257.7 836.601 L1283.33 858.626 L1283.33 836.601 L1288 836.601 L1288 865.215 L1282.66 865.215 L1257.03 843.19 L1257.03 864.419 L1252.36 864.419 Z" fill="#000000" fill-rule="evenodd" fill-opacity="1" /><path clip-path="url(#clip420)" d="M 0 0 M1238.48 810.279 L1238.48 796.784 L1243.03 796.784 L1243.03 804.422 L1292.05 804.422 L1292.05 796.784 L1296.6 796.784 L1296.6 810.279 L1238.48 810.279 Z" fill="#000000" fill-rule="evenodd" fill-opacity="1" /><path clip-path="url(#clip420)" d="M 0 0 M1238.48 790.864 L1238.48 784.975 L1267.73 784.975 L1252.36 767.501 L1252.36 760.022 L1269.03 778.928 L1288 759.226 L1288 766.865 L1270.59 784.975 L1288 784.975 L1288 790.864 L1238.48 790.864 Z" fill="#000000" fill-rule="evenodd" fill-opacity="1" /><path clip-path="url(#clip420)" d="M 0 0 M1259.2 725.329 Q1255.25 723.132 1253.37 720.077 Q1251.5 717.021 1251.5 712.884 Q1251.5 707.314 1255.41 704.29 Q1259.29 701.266 1266.49 701.266 L1288 701.266 L1288 707.154 L1266.68 707.154 Q1261.55 707.154 1259.07 708.969 Q1256.59 710.783 1256.59 714.507 Q1256.59 719.058 1259.61 721.7 Q1262.64 724.342 1267.86 724.342 L1288 724.342 L1288 730.23 L1266.68 730.23 Q1261.52 730.23 1259.07 732.044 Q1256.59 733.859 1256.59 737.646 Q1256.59 742.134 1259.64 744.776 Q1262.67 747.418 1267.86 747.418 L1288 747.418 L1288 753.306 L1252.36 753.306 L1252.36 747.418 L1257.89 747.418 Q1254.62 745.412 1253.06 742.611 Q1251.5 739.811 1251.5 735.959 Q1251.5 732.076 1253.47 729.371 Q1255.44 726.634 1259.2 725.329 Z" fill="#000000" fill-rule="evenodd" fill-opacity="1" /><path clip-path="url(#clip420)" d="M 0 0 M1238.48 681.437 L1296.6 681.437 L1296.6 694.932 L1292.05 694.932 L1292.05 687.325 L1243.03 687.325 L1243.03 694.932 L1238.48 694.932 L1238.48 681.437 Z" fill="#000000" fill-rule="evenodd" fill-opacity="1" /><path clip-path="url(#clip420)" d="M 0 0 M1717.27 18.8205 L1717.27 65.8515 L1727.16 65.8515 Q1739.67 65.8515 1745.47 60.1802 Q1751.3 54.509 1751.3 42.2752 Q1751.3 30.1225 1745.47 24.4918 Q1739.67 18.8205 1727.16 18.8205 L1717.27 18.8205 M1709.09 12.096 L1725.9 12.096 Q1743.48 12.096 1751.71 19.4281 Q1759.93 26.7198 1759.93 42.2752 Q1759.93 57.9117 1751.66 65.2439 Q1743.4 72.576 1725.9 72.576 L1709.09 72.576 L1709.09 12.096 Z" fill="#000000" fill-rule="evenodd" fill-opacity="1" /><path clip-path="url(#clip420)" d="M 0 0 M1806.55 48.0275 L1806.55 51.6733 L1772.28 51.6733 Q1772.77 59.3701 1776.9 63.421 Q1781.07 67.4314 1788.49 67.4314 Q1792.78 67.4314 1796.79 66.3781 Q1800.84 65.3249 1804.81 63.2184 L1804.81 70.267 Q1800.8 71.9684 1796.59 72.8596 Q1792.38 73.7508 1788.04 73.7508 Q1777.19 73.7508 1770.83 67.4314 Q1764.51 61.1119 1764.51 50.3365 Q1764.51 39.1965 1770.5 32.6746 Q1776.54 26.1121 1786.75 26.1121 Q1795.9 26.1121 1801.21 32.0264 Q1806.55 37.9003 1806.55 48.0275 M1799.1 45.84 Q1799.02 39.7232 1795.66 36.0774 Q1792.34 32.4315 1786.83 32.4315 Q1780.59 32.4315 1776.82 35.9558 Q1773.09 39.4801 1772.53 45.8805 L1799.1 45.84 Z" fill="#000000" fill-rule="evenodd" fill-opacity="1" /><path clip-path="url(#clip420)" d="M 0 0 M1847.02 28.9478 L1847.02 35.9153 Q1843.86 34.1734 1840.66 33.3227 Q1837.5 32.4315 1834.26 32.4315 Q1827.01 32.4315 1823 37.0496 Q1818.99 41.6271 1818.99 49.9314 Q1818.99 58.2358 1823 62.8538 Q1827.01 67.4314 1834.26 67.4314 Q1837.5 67.4314 1840.66 66.5807 Q1843.86 65.6895 1847.02 63.9476 L1847.02 70.8341 Q1843.9 72.2924 1840.54 73.0216 Q1837.22 73.7508 1833.45 73.7508 Q1823.2 73.7508 1817.17 67.3098 Q1811.13 60.8689 1811.13 49.9314 Q1811.13 38.832 1817.21 32.472 Q1823.33 26.1121 1833.94 26.1121 Q1837.38 26.1121 1840.66 26.8413 Q1843.94 27.5299 1847.02 28.9478 Z" fill="#000000" fill-rule="evenodd" fill-opacity="1" /><path clip-path="url(#clip420)" d="M 0 0 M1875.46 49.7694 Q1866.43 49.7694 1862.94 51.8354 Q1859.46 53.9013 1859.46 58.8839 Q1859.46 62.8538 1862.05 65.2034 Q1864.69 67.5124 1869.18 67.5124 Q1875.38 67.5124 1879.11 63.1374 Q1882.87 58.7219 1882.87 51.4303 L1882.87 49.7694 L1875.46 49.7694 M1890.33 46.6907 L1890.33 72.576 L1882.87 72.576 L1882.87 65.6895 Q1880.32 69.8214 1876.51 71.8063 Q1872.71 73.7508 1867.2 73.7508 Q1860.23 73.7508 1856.1 69.8619 Q1852.01 65.9325 1852.01 59.3701 Q1852.01 51.7138 1857.11 47.825 Q1862.25 43.9361 1872.42 43.9361 L1882.87 43.9361 L1882.87 43.2069 Q1882.87 38.0623 1879.47 35.2672 Q1876.11 32.4315 1869.99 32.4315 Q1866.1 32.4315 1862.42 33.3632 Q1858.73 34.295 1855.33 36.1584 L1855.33 29.2718 Q1859.42 27.692 1863.27 26.9223 Q1867.12 26.1121 1870.76 26.1121 Q1880.61 26.1121 1885.47 31.2163 Q1890.33 36.3204 1890.33 46.6907 Z" fill="#000000" fill-rule="evenodd" fill-opacity="1" /><path clip-path="url(#clip420)" d="M 0 0 M1917.02 76.7889 Q1913.86 84.8907 1910.87 87.3618 Q1907.87 89.8329 1902.84 89.8329 L1896.89 89.8329 L1896.89 83.5945 L1901.26 83.5945 Q1904.34 83.5945 1906.04 82.1361 Q1907.75 80.6778 1909.81 75.2496 L1911.15 71.8468 L1892.8 27.2059 L1900.7 27.2059 L1914.88 62.6918 L1929.05 27.2059 L1936.95 27.2059 L1917.02 76.7889 Z" fill="#000000" fill-rule="evenodd" fill-opacity="1" /><path clip-path="url(#clip420)" d="M 0 0 M1944.77 27.2059 L1952.23 27.2059 L1952.23 72.576 L1944.77 72.576 L1944.77 27.2059 M1944.77 9.54393 L1952.23 9.54393 L1952.23 18.9825 L1944.77 18.9825 L1944.77 9.54393 Z" fill="#000000" fill-rule="evenodd" fill-opacity="1" /><path clip-path="url(#clip420)" d="M 0 0 M1997.76 45.1919 L1997.76 72.576 L1990.3 72.576 L1990.3 45.4349 Q1990.3 38.994 1987.79 35.7938 Q1985.28 32.5936 1980.26 32.5936 Q1974.22 32.5936 1970.74 36.4419 Q1967.25 40.2903 1967.25 46.9338 L1967.25 72.576 L1959.76 72.576 L1959.76 27.2059 L1967.25 27.2059 L1967.25 34.2544 Q1969.93 30.163 1973.53 28.1376 Q1977.18 26.1121 1981.92 26.1121 Q1989.74 26.1121 1993.75 30.9732 Q1997.76 35.7938 1997.76 45.1919 Z" fill="#000000" fill-rule="evenodd" fill-opacity="1" /><path clip-path="url(#clip420)" d="M 0 0 M2035.43 49.3643 Q2035.43 41.2625 2032.07 36.8065 Q2028.75 32.3505 2022.71 32.3505 Q2016.72 32.3505 2013.35 36.8065 Q2010.03 41.2625 2010.03 49.3643 Q2010.03 57.4256 2013.35 61.8816 Q2016.72 66.3376 2022.71 66.3376 Q2028.75 66.3376 2032.07 61.8816 Q2035.43 57.4256 2035.43 49.3643 M2042.88 66.9452 Q2042.88 78.5308 2037.74 84.1616 Q2032.6 89.8329 2021.98 89.8329 Q2018.05 89.8329 2014.57 89.2252 Q2011.08 88.6581 2007.8 87.4428 L2007.8 80.1917 Q2011.08 81.9741 2014.28 82.8248 Q2017.49 83.6755 2020.81 83.6755 Q2028.14 83.6755 2031.78 79.8271 Q2035.43 76.0193 2035.43 68.282 L2035.43 64.5957 Q2033.12 68.6061 2029.52 70.5911 Q2025.91 72.576 2020.89 72.576 Q2012.54 72.576 2007.44 66.2161 Q2002.33 59.8562 2002.33 49.3643 Q2002.33 38.832 2007.44 32.472 Q2012.54 26.1121 2020.89 26.1121 Q2025.91 26.1121 2029.52 28.0971 Q2033.12 30.082 2035.43 34.0924 L2035.43 27.2059 L2042.88 27.2059 L2042.88 66.9452 Z" fill="#000000" fill-rule="evenodd" fill-opacity="1" /><polyline clip-path="url(#clip423)" style="stroke:#009af9; stroke-width:4; stroke-opacity:1; fill:none" points="
  2325.77,1386.4 2271.46,1361.37 2219.62,1336.35 2170.17,1311.33 2123.04,1286.3 2078.17,1261.28 2035.51,1236.26 1995,1211.23 1956.58,1186.21 1920.2,1161.19 
  1885.79,1136.16 1853.29,1111.14 1822.65,1086.12 1793.79,1061.09 1766.66,1036.07 1741.18,1011.05 1717.28,986.024 1694.9,961 1673.96,935.977 1654.39,910.954 
  1636.12,885.931 1619.09,860.907 1603.21,835.884 1588.44,810.861 1574.69,785.838 1561.91,760.814 1550.04,735.791 1539.01,710.768 1528.78,685.745 1519.29,660.721 
  1510.5,635.698 1502.34,610.675 1494.79,585.652 1487.79,560.628 1481.31,535.605 1475.32,510.582 1469.77,485.559 1464.63,460.535 1459.88,435.512 1455.49,410.489 
  1451.42,385.466 1447.66,360.442 1444.19,335.419 1440.97,310.396 1438,285.373 1435.26,260.349 1432.72,235.326 1430.38,210.303 1428.21,185.28 1426.21,160.256 
  
  "/>
<path clip-path="url(#clip420)" d="
M2164 287.756 L2320.97 287.756 L2320.97 166.796 L2164 166.796  Z
  " fill="#ffffff" fill-rule="evenodd" fill-opacity="1"/>
<polyline clip-path="url(#clip420)" style="stroke:#000000; stroke-width:4; stroke-opacity:1; fill:none" points="
  2164,287.756 2320.97,287.756 2320.97,166.796 2164,166.796 2164,287.756 
  "/>
<polyline clip-path="url(#clip420)" style="stroke:#009af9; stroke-width:4; stroke-opacity:1; fill:none" points="
  2174.6,227.276 2238.17,227.276 
  "/>
<path clip-path="url(#clip420)" d="M 0 0 M2262.61 246.963 Q2260.8 251.593 2259.09 253.005 Q2257.37 254.417 2254.5 254.417 L2251.1 254.417 L2251.1 250.852 L2253.6 250.852 Q2255.36 250.852 2256.33 250.019 Q2257.3 249.185 2258.49 246.083 L2259.25 244.139 L2248.76 218.63 L2253.28 218.63 L2261.38 238.908 L2269.48 218.63 L2273.99 218.63 L2262.61 246.963 Z" fill="#000000" fill-rule="evenodd" fill-opacity="1" /><path clip-path="url(#clip420)" d="M 0 0 M2279.87 240.621 L2287.51 240.621 L2287.51 214.255 L2279.2 215.922 L2279.2 211.662 L2287.47 209.996 L2292.14 209.996 L2292.14 240.621 L2299.78 240.621 L2299.78 244.556 L2279.87 244.556 L2279.87 240.621 Z" fill="#000000" fill-rule="evenodd" fill-opacity="1" /></svg>
