<?xml version="1.0" encoding="UTF-8" standalone="no"?>
<!-- Created with Inkscape (http://www.inkscape.org/) -->

<svg
   xmlns:dc="http://purl.org/dc/elements/1.1/"
   xmlns:cc="http://creativecommons.org/ns#"
   xmlns:rdf="http://www.w3.org/1999/02/22-rdf-syntax-ns#"
   xmlns:svg="http://www.w3.org/2000/svg"
   xmlns="http://www.w3.org/2000/svg"
   xmlns:sodipodi="http://sodipodi.sourceforge.net/DTD/sodipodi-0.dtd"
   xmlns:inkscape="http://www.inkscape.org/namespaces/inkscape"
   width="210mm"
   height="225mm"
   viewBox="0 0 210 225"
   id="svg2"
   version="1.1"
   inkscape:version="0.91+devel+osxmenu r12922"
   sodipodi:docname="clima.svg">
  <defs
     id="defs4" />
  <sodipodi:namedview
     id="base"
     pagecolor="#ffffff"
     bordercolor="#666666"
     borderopacity="1.0"
     inkscape:pageopacity="0.0"
     inkscape:pageshadow="2"
     inkscape:zoom="0.35"
     inkscape:cx="396.85039"
     inkscape:cy="560"
     inkscape:document-units="mm"
     inkscape:current-layer="layer1"
     showgrid="false"
     inkscape:window-width="960"
     inkscape:window-height="600"
     inkscape:window-x="0"
     inkscape:window-y="23"
     inkscape:window-maximized="0" />
  <metadata
     id="metadata7">
    <rdf:RDF>
      <cc:Work
         rdf:about="">
        <dc:format>image/svg+xml</dc:format>
        <dc:type
           rdf:resource="http://purl.org/dc/dcmitype/StillImage" />
        <dc:title></dc:title>
      </cc:Work>
    </rdf:RDF>
  </metadata>
  <g
     inkscape:label="Layer 1"
     inkscape:groupmode="layer"
     id="layer1"
     transform="translate(0,-72)">
    <g
       id="surface25600"
       transform="matrix(0.20725956,0,0,0.20725956,-19.837476,60.656738)">
      <path
         id="path3339"
         d="m 1038.4609,1080.5156 0,4.1055 -27.1328,0 0,-40.3828 27.1328,0 0,5.4297 -21.7578,0 0,12.0429 16.9571,0 0,5.4336 -16.9571,0 0,11.9844 21.7578,0 z m -44.99215,4 c -1.48047,0.3399 -2.99219,0.5078 -4.53516,0.5078 -1.83593,0 -3.61328,-0.2343 -5.32422,-0.6992 -1.71875,-0.4726 -3.36328,-1.1719 -4.92578,-2.0976 -1.5664,-0.9297 -2.97656,-2.0235 -4.21875,-3.2813 -1.23437,-1.25 -2.30859,-2.668 -3.21875,-4.2539 -0.91015,-1.582 -1.59765,-3.2383 -2.05078,-4.957 -0.45703,-1.7266 -0.68359,-3.5196 -0.68359,-5.3633 0,-1.8477 0.22656,-3.6367 0.68359,-5.3594 0.45703,-1.7187 1.14063,-3.3672 2.05078,-4.9375 0.90625,-1.5703 1.98438,-2.9844 3.22657,-4.2344 1.23828,-1.25 2.64453,-2.3398 4.21093,-3.2656 1.5625,-0.9297 3.20703,-1.625 4.92578,-2.0937 1.71094,-0.4727 3.48829,-0.7071 5.32422,-0.7071 1.42188,0 2.82422,0.1485 4.20313,0.4454 1.36328,0.2929 2.71094,0.7382 4.02734,1.3281 1.3125,0.5859 2.54297,1.2969 3.69534,2.1289 1.1562,0.8359 2.2265,1.789 3.2109,2.8555 l 0.9531,1.0351 -4.1172,3.6445 -0.91401,-1.0312 c -1.41797,-1.5938 -3.08985,-2.8359 -5.00782,-3.7149 -1.91406,-0.875 -3.92968,-1.3164 -6.05078,-1.3164 -1.36328,0 -2.67187,0.1719 -3.91797,0.5079 -1.2539,0.3398 -2.44921,0.8476 -3.59375,1.5273 -1.15234,0.6836 -2.1914,1.4844 -3.10156,2.4062 -0.91406,0.9219 -1.71484,1.9727 -2.39453,3.1407 -1.35937,2.3359 -2.03906,4.8789 -2.03906,7.6406 0,1.3867 0.17187,2.7148 0.50781,3.9844 0.33984,1.2617 0.84766,2.4804 1.53125,3.6484 0.67969,1.1758 1.48047,2.2266 2.39453,3.1445 0.91016,0.9258 1.94922,1.7266 3.10156,2.4102 2.28516,1.3555 4.79297,2.0312 7.51172,2.0312 1.13672,0 2.24219,-0.121 3.30078,-0.3671 1.0625,-0.2422 2.10547,-0.6133 3.125,-1.1094 1.02735,-0.5 1.97266,-1.0938 2.83985,-1.7774 0.85547,-0.6796 1.65625,-1.4687 2.39448,-2.3711 l 0.8516,-1.0429 4.2539,3.3086 -0.8711,1.0937 c -0.9648,1.2149 -2.0469,2.3008 -3.2226,3.25 -1.1836,0.9453 -2.46488,1.7539 -3.8555,2.4297 -1.38281,0.6719 -2.8125,1.1758 -4.28125,1.5117 m -31.44531,-38.8945 0,42.0664 -26.03907,-31.1875 0,28.1211 -5.375,0 0,-43.2773 26.03907,31.1328 0,-28.2383 5.375,0 z m -55.63282,9.3164 -6.83203,14.7617 13.35547,0 z m -9.33593,20.1367 -4.45703,9.5469 -5.94141,0 19.91406,-42.8203 18.80469,42.8203 -5.85547,0 -4.22266,-9.5469 z m -16.21485,-29.4531 0,39 -5.375,0 0,-40.3828 5.375,0 z m -13.71484,35.0078 0,3.9922 -26.49609,0 0,-40.3828 5.375,0 0,35.0039 21.12109,0 z m -34.14063,0 0,3.9922 -26.49609,0 0,-40.3828 5.375,0 0,35.0039 21.12109,0 z m -50.65625,-25.6914 -6.83203,14.7617 13.35547,0 z m -9.33593,20.1367 -4.45703,9.5469 -5.9375,0 19.91015,-42.8203 18.80469,42.8203 -5.85547,0 -4.22266,-9.5469 z m -51.50782,-11.914 16.48829,0 0,21.4609 -14.98438,0 c -1.83203,0 -3.60156,-0.2305 -5.30469,-0.6875 -1.69531,-0.4531 -3.32422,-1.1406 -4.88281,-2.0547 -1.55469,-0.9101 -2.94531,-1.9844 -4.17578,-3.2187 -1.23047,-1.2344 -2.30078,-2.6329 -3.21094,-4.1954 -0.90625,-1.5546 -1.59375,-3.1992 -2.05078,-4.9179 -0.45703,-1.7188 -0.68359,-3.5039 -0.68359,-5.3477 0,-1.832 0.22656,-3.6054 0.68359,-5.3125 0.45703,-1.7031 1.14063,-3.3398 2.05078,-4.9023 0.90625,-1.5547 1.97656,-2.9531 3.21094,-4.1992 1.23047,-1.2422 2.62109,-2.3243 4.16797,-3.2422 3.11328,-1.8438 6.51172,-2.7696 10.19531,-2.7696 1.40234,0 2.78516,0.1446 4.14063,0.4375 1.35156,0.2891 2.67578,0.7266 3.97265,1.3086 1.28906,0.5743 2.5,1.2696 3.625,2.0782 1.125,0.8086 2.16406,1.7304 3.10547,2.7578 l 0.92969,1.0078 -3.92188,3.6797 -0.94531,-1.0117 c -0.70312,-0.7618 -1.47266,-1.4336 -2.29687,-2.0196 -0.83594,-0.5898 -1.73047,-1.0937 -2.6836,-1.5078 -0.94922,-0.4141 -1.92187,-0.7226 -2.91015,-0.9297 -0.97657,-0.207 -1.98438,-0.3086 -3.01563,-0.3086 -2.6875,0 -5.17578,0.668 -7.46094,2.0039 -1.15625,0.6797 -2.1914,1.4688 -3.09375,2.3711 -0.91015,0.9063 -1.70312,1.9297 -2.375,3.0664 -0.66406,1.1289 -1.16406,2.3243 -1.5,3.5743 -0.33593,1.2421 -0.5039,2.5468 -0.5039,3.9179 0,1.3672 0.16797,2.6758 0.5039,3.9219 0.33203,1.2461 0.83594,2.4453 1.50782,3.5937 0.67578,1.1563 1.46875,2.1954 2.37109,3.1016 0.91016,0.9141 1.94141,1.7149 3.09375,2.3945 1.15625,0.6836 2.35156,1.1954 3.58203,1.5313 1.22266,0.3359 2.51953,0.5 3.875,0.5 l 9.49219,0 0,-10.707 -12.38281,0 0,-5.375 z m -25.34765,-17.5391 0,42.0664 -26.03906,-31.1875 0,28.1211 -5.375,0 0,-43.2773 26.03906,31.1328 0,-28.2383 5.375,0 z m -41.02735,0 0,39 -5.375,0 0,-40.3828 5.375,0 z m -13.71484,35.0078 0,3.9922 -26.49609,0 0,-40.3828 5.375,0 0,35.0039 21.12109,0 z m -34.14062,-0.1133 0,4.1055 -27.13282,0 0,-40.3828 27.13282,0 0,5.4297 -21.75782,0 0,12.0429 16.95313,0 0,5.4336 -16.95313,0 0,11.9844 21.75782,0 z m -53.23047,-30.8476 -6.83203,0 0,29.5742 6.83203,0 c 2.14453,0 4.08203,-0.3711 5.80468,-1.1133 1.71485,-0.7422 3.23829,-1.8516 4.5625,-3.3398 l 0.0117,-0.016 c 0.60938,-0.6601 1.15235,-1.3828 1.6211,-2.1562 0.47265,-0.7813 0.87109,-1.6211 1.19531,-2.5 0.65234,-1.793 0.98437,-3.707 0.98437,-5.7461 0,-1.0078 -0.0859,-1.9883 -0.24609,-2.9297 -0.16406,-0.9375 -0.41406,-1.8594 -0.73828,-2.7578 -0.32422,-0.8867 -0.72266,-1.7188 -1.19531,-2.5 -0.46875,-0.7773 -1.01172,-1.4961 -1.6211,-2.1602 -2.6914,-2.9023 -6.15625,-4.3554 -10.3789,-4.3554 m 4.11718,34.5547 c -1.32031,0.2656 -2.69531,0.3984 -4.11718,0.3984 l -12.20703,0 0,-40.3828 12.20703,0 c 1.42187,0 2.79687,0.1289 4.11718,0.3945 1.32422,0.2617 2.60547,0.6641 3.83594,1.1953 1.23438,0.5352 2.37891,1.1797 3.4375,1.9297 1.05469,0.75 2.03516,1.6172 2.9336,2.6055 1.70312,1.8594 3.01171,4 3.92187,6.4023 0.45703,1.2032 0.80078,2.4414 1.02344,3.7071 0.23047,1.2695 0.34375,2.5703 0.34375,3.8984 0,1.3281 -0.11328,2.6289 -0.34375,3.8984 -0.22266,1.2657 -0.56641,2.5039 -1.02344,3.7032 -0.44922,1.1914 -1.00391,2.3281 -1.66016,3.4101 -0.66015,1.0899 -1.41015,2.1094 -2.24218,3.043 -0.90235,1 -1.88672,1.8867 -2.94922,2.6523 -1.07031,0.7735 -2.21875,1.4219 -3.44141,1.9532 -1.24609,0.5312 -2.52734,0.9335 -3.83594,1.1914 m -38.96875,-34.4493 c -1.24609,-0.3398 -2.55468,-0.5078 -3.91796,-0.5078 -1.36329,0 -2.67188,0.168 -3.92188,0.5078 -1.25391,0.3399 -2.44922,0.8477 -3.58984,1.5235 -1.15625,0.6836 -2.19141,1.4883 -3.10547,2.4023 -0.91797,0.9219 -1.71875,1.9649 -2.39844,3.125 -1.35547,2.3047 -2.03516,4.8399 -2.03516,7.6055 0,1.3867 0.17188,2.7148 0.51172,3.9766 0.33985,1.2656 0.84766,2.4765 1.52344,3.6289 0.67969,1.1562 1.48438,2.1992 2.40234,3.1211 0.91016,0.9179 1.94532,1.7187 3.10157,2.4023 2.28515,1.3555 4.79297,2.0312 7.51172,2.0312 1.36328,0 2.67187,-0.1679 3.91796,-0.5078 1.25391,-0.3359 2.45313,-0.8476 3.59375,-1.5234 1.15235,-0.6836 2.1875,-1.4844 3.09375,-2.4023 0.90625,-0.9141 1.70313,-1.9571 2.375,-3.1172 1.33594,-2.3086 2.00782,-4.8477 2.00782,-7.6094 0,-1.3945 -0.16797,-2.7227 -0.5,-3.9805 -0.33594,-1.2656 -0.83985,-2.4765 -1.50782,-3.6328 -0.67187,-1.1601 -1.46484,-2.1992 -2.375,-3.1172 -0.90625,-0.914 -1.9414,-1.7187 -3.09375,-2.4023 -1.14062,-0.6758 -2.33984,-1.1836 -3.59375,-1.5235 m 6.32813,32.4805 c -3.15234,1.8477 -6.57031,2.7695 -10.24609,2.7695 -1.83594,0 -3.60938,-0.2304 -5.32032,-0.6914 -1.70312,-0.4609 -3.34765,-1.1523 -4.92578,-2.0781 -1.57422,-0.9219 -2.98047,-2.0078 -4.21875,-3.2539 -1.23828,-1.2461 -2.3125,-2.668 -3.22265,-4.25 -0.91407,-1.5859 -1.59766,-3.2422 -2.05079,-4.957 -0.45703,-1.7266 -0.68359,-3.5157 -0.68359,-5.3633 0,-1.8477 0.22656,-3.6406 0.68359,-5.3672 0.45313,-1.7148 1.13672,-3.3711 2.05079,-4.957 1.82031,-3.1602 4.30078,-5.6641 7.4414,-7.5039 3.15235,-1.8477 6.57031,-2.7696 10.2461,-2.7696 1.83203,0 3.60937,0.2305 5.3164,0.6914 1.70313,0.461 3.34766,1.1524 4.92969,2.0782 1.57031,0.9218 2.98047,2.0078 4.21484,3.2539 1.23828,1.25 2.31641,2.6679 3.22657,4.25 0.91015,1.5859 1.59765,3.2422 2.05078,4.9609 0.45703,1.7266 0.68359,3.5156 0.68359,5.3633 0,1.8437 -0.22656,3.6367 -0.68359,5.3633 -0.45313,1.7148 -1.14063,3.3711 -2.05078,4.957 -0.91016,1.582 -1.98829,3.0039 -3.22657,4.25 -1.23437,1.2461 -2.64453,2.3359 -4.21484,3.2539 m -37.21484,-37.0937 0,39.4609 -5.375,0 0,-26.7461 -15.27735,21.7969 -15.51172,-21.8906 0,26.8398 -5.375,0 0,-43.8047 20.875,29.4883 20.66407,-29.5352 z m -69.03516,35.3554 0,4.1055 -27.13281,0 0,-40.3828 27.13281,0 0,5.4297 -21.75391,0 0,12.0429 16.95313,0 0,5.4336 -16.95313,0 0,11.9844 21.75391,0 z m -33.26953,-34.8945 0,4.0469 -14.8711,0 0,34.9531 -5.43359,0 0,-34.9531 -14.92969,0 0,-5.4297 35.23438,0 z m -51.9336,9.3164 -6.82812,14.7617 13.35547,0 z m -9.33203,20.1367 -4.45703,9.5469 -5.9414,0 19.91406,-42.8203 18.80469,42.8203 -5.85547,0 -4.22266,-9.5469 z m -15.57812,-29.914 0,39.4609 -5.375,0 0,-26.7461 -15.27735,21.7969 -15.51562,-21.8906 0,26.8398 -5.375,0 0,-43.8047 20.87891,29.4883 20.66406,-29.5352 z m -51.15235,0.4609 0,39 -5.375,0 0,-40.3828 5.375,0 z m -13.71484,35.0078 0,3.9922 -26.49609,0 0,-40.3828 5.375,0 0,35.0039 21.12109,0 z m -44.35937,3.8867 c -1.48047,0.3399 -2.99219,0.5078 -4.53516,0.5078 -1.83594,0 -3.61328,-0.2343 -5.32422,-0.6992 -1.71484,-0.4726 -3.36328,-1.1719 -4.92578,-2.0976 -1.56641,-0.9297 -2.97266,-2.0235 -4.21875,-3.2813 -1.23047,-1.25 -2.30859,-2.668 -3.21875,-4.2539 -0.91016,-1.582 -1.59375,-3.2383 -2.04688,-4.957 -0.45703,-1.7266 -0.6875,-3.5196 -0.6875,-5.3633 0,-1.8477 0.23047,-3.6367 0.6875,-5.3594 0.45313,-1.7187 1.14063,-3.3672 2.04688,-4.9375 0.91016,-1.5703 1.98437,-2.9844 3.22656,-4.2344 1.23828,-1.25 2.64844,-2.3398 4.21094,-3.2656 1.5625,-0.9297 3.21094,-1.625 4.92578,-2.0937 1.71094,-0.4727 3.48828,-0.7071 5.32422,-0.7071 1.42578,0 2.82422,0.1485 4.20312,0.4454 1.36719,0.2929 2.71094,0.7382 4.02735,1.3281 1.3125,0.5859 2.54297,1.2969 3.69531,2.1289 1.15625,0.8359 2.23047,1.789 3.21484,2.8555 l 0.95313,1.0351 -4.11719,3.6445 -0.91406,-1.0312 c -1.41797,-1.5938 -3.08984,-2.8359 -5.00781,-3.7149 -1.91407,-0.875 -3.9336,-1.3164 -6.05469,-1.3164 -1.35938,0 -2.66797,0.1719 -3.91797,0.5079 -1.25391,0.3398 -2.44922,0.8476 -3.59375,1.5273 -1.15234,0.6836 -2.1875,1.4844 -3.10156,2.4062 -0.91406,0.9219 -1.71485,1.9727 -2.39453,3.1407 -1.35938,2.3359 -2.03907,4.8789 -2.03907,7.6406 0,1.3867 0.17188,2.7148 0.50782,3.9844 0.33984,1.2617 0.85156,2.4804 1.53125,3.6484 0.67968,1.1758 1.48047,2.2266 2.39453,3.1445 0.91406,0.9258 1.94922,1.7266 3.10156,2.4102 2.28516,1.3555 4.79297,2.0312 7.51172,2.0312 1.14062,0 2.24219,-0.121 3.30078,-0.3671 1.0625,-0.2422 2.10547,-0.6133 3.125,-1.1094 1.02734,-0.5 1.97266,-1.0938 2.83984,-1.7774 0.85547,-0.6796 1.65625,-1.4687 2.39454,-2.3711 l 0.85546,-1.0429 4.25391,3.3086 -0.87109,1.0937 c -0.96875,1.2149 -2.04688,2.3008 -3.22657,3.25 -1.17968,0.9453 -2.46484,1.7539 -3.85156,2.4297 -1.38672,0.6719 -2.8164,1.1758 -4.28515,1.5117"
         style="fill:#26a1d9;fill-opacity:1;fill-rule:evenodd;stroke:none"
         inkscape:connector-curvature="0" />
      <path
         id="path3341"
         d="m 759.03125,570.70312 c 16.80859,-17.26562 30.54297,-37.16796 40.82031,-59.15234 l 2.6836,-5.72656 -33.80079,-14.72656 -2.55468,5.39453 c -8.48438,17.91015 -19.78516,34.16797 -33.58203,48.30859 -16.39063,16.80859 -35.75,30.05469 -57.53907,39.37109 -21.82422,9.33985 -44.77343,14.20313 -68.21484,14.45313 -23.5625,0.29297 -46.58594,-4.0625 -68.58594,-12.92188 -21.98437,-8.86328 -41.70703,-21.76953 -58.61328,-38.35546 -16.83594,-16.50391 -30.12109,-35.97266 -39.48828,-57.85938 -9.38281,-21.91797 -14.29688,-44.97266 -14.60547,-68.52344 -0.32422,-23.6289 3.96484,-46.76172 12.73438,-68.76562 8.75781,-21.98828 21.5625,-41.71094 38.05468,-58.61328 16.40625,-16.8125 35.76563,-30.0625 57.55469,-39.38672 20.40625,-8.73047 41.89844,-13.54688 63.87891,-14.32031 17.72265,-0.625 35.39843,1.40625 52.52734,6.01562 l 5.125,1.37891 14.83203,-34.04297 -6.73828,-1.94531 c -19.55469,-5.64844 -39.71094,-8.50391 -59.98047,-8.50391 -1.75781,0 -3.51562,0.0195 -5.27734,0.0664 -27.20703,0.6875 -53.77344,6.5 -78.96875,17.27734 -26.24219,11.23047 -49.58203,27.23047 -69.36719,47.55078 -19.83594,20.37109 -35.26953,44.19922 -45.87891,70.82031 -10.60937,26.62891 -15.80859,54.60157 -15.45703,83.14063 0.35547,28.41797 6.24219,56.15625 17.48828,82.44922 11.26563,26.32812 27.26172,49.74218 47.54688,69.58984 20.36328,19.92969 44.16406,35.46094 70.74609,46.16406 25.94141,10.44922 53.14453,15.7461 80.85547,15.7461 l 2.15235,-0.008 c 28.38671,-0.28515 56.07812,-6.11718 82.29296,-17.33203 26.2461,-11.23437 49.58204,-27.23047 69.35938,-47.54297"
         style="fill:#384757;fill-opacity:1;fill-rule:nonzero;stroke:none"
         inkscape:connector-curvature="0" />
      <path
         id="path3343"
         d="m 900.53516,395.26953 c -1.27344,-19.71875 -4.52344,-39.51953 -9.66797,-58.85156 -5.1211,-19.24219 -12.14453,-38.02735 -20.875,-55.82813 -8.33594,-16.99609 -18.3125,-33.26562 -29.67578,-48.41015 l 0.0391,-0.0312 -1.63281,-2.14063 c -11.88282,-15.52734 -25.47657,-30.04687 -40.40625,-43.14453 -14.88672,-13.0625 -31.09766,-24.68359 -48.17579,-34.54297 -17.08984,-9.86328 -35.27343,-18.08984 -54.05078,-24.45312 -18.8125,-6.375 -38.20312,-10.88672 -57.6289,-13.40625 -19.60157,-2.53906 -39.59375,-3.14453 -59.39063,-1.79688 -17.98047,1.21875 -35.98047,4.0625 -53.49609,8.45313 l -3.02344,0.75781 10.42578,27.47656 2.36719,-0.5664 c 14.85152,-3.53521 30.2148,-5.85552 45.65621,-6.89849 17.83203,-1.19531 35.81641,-0.62891 53.42969,1.67187 17.625,2.30469 35.14062,6.39063 52.05468,12.14063 16.875,5.73437 33.31641,13.1914 48.86329,22.16406 15.58593,8.99609 30.28515,19.50391 43.68359,31.23438 13.38281,11.71484 25.67969,24.84765 36.55469,39.03125 10.90234,14.23828 20.40234,29.54296 28.23047,45.49218 7.89453,16.07813 14.23046,32.9961 18.83593,50.28516 4.58985,17.25 7.50391,35.12109 8.66407,53.10937 1.14843,17.91016 0.53125,35.96485 -1.83204,53.66407 -2.34765,17.63672 -6.47656,35.17578 -12.27343,52.13672 -5.78516,16.92578 -13.29297,33.4414 -22.32032,49.08203 -9.04296,15.66797 -19.58593,30.42968 -31.33593,43.88672 -11.8125,13.53125 -24.94922,25.89843 -39.03907,36.75 -14.12109,10.8789 -29.44921,20.44531 -45.5664,28.43359 -16.0586,7.96094 -32.98047,14.37109 -50.28906,19.05078 -17.34375,4.65625 -35.19141,7.625 -53.05469,8.82422 -17.84375,1.19141 -35.82031,0.62891 -53.4375,-1.67188 -17.6211,-2.30468 -35.13672,-6.38671 -52.0625,-12.13671 -16.88281,-5.73829 -33.32422,-13.19532 -48.8711,-22.16797 -15.34765,-8.83985 -29.74218,-19.0586 -42.79687,-30.37891 -13.08984,-11.35547 -25.19531,-24.12109 -35.97656,-37.94531 -9.35157,-11.98047 -17.75391,-24.85938 -24.98438,-38.27344 -4.99219,-9.25391 -9.49219,-18.92187 -13.39062,-28.73437 l -1.00391,-2.53907 -27.30859,10.35547 1.03125,2.60938 c 4.29687,10.8789 9.28125,21.6289 14.8164,31.94922 7.63672,14.24218 16.47657,27.95703 26.27344,40.77343 11.95313,15.63282 25.53125,30.15235 40.35938,43.16016 14.89453,13.07031 31.10546,24.69531 48.1875,34.55859 17.07812,9.85938 35.26562,18.08203 54.04687,24.44922 18.82422,6.37891 38.21875,10.89063 57.63672,13.40625 12.84375,1.66797 25.84766,2.50391 38.85937,2.50391 6.85157,0 13.70313,-0.23047 20.53516,-0.69531 19.82422,-1.34375 39.60938,-4.65235 58.80469,-9.83204 19.15625,-5.17187 37.89844,-12.26562 55.71094,-21.07421 17.74609,-8.78516 34.73828,-19.38672 50.51171,-31.51563 15.74219,-12.09766 30.30079,-25.74609 43.27344,-40.57031 13.02735,-14.88672 24.66797,-31.16406 34.60156,-48.38281 9.98047,-17.29297 18.26172,-35.52735 24.61719,-54.1836 6.3711,-18.71875 10.92188,-38.13672 13.51172,-57.71484 2.59766,-19.66016 3.26563,-39.6875 1.98438,-59.52344"
         style="fill:#384757;fill-opacity:1;fill-rule:nonzero;stroke:none"
         inkscape:connector-curvature="0" />
      <path
         id="path3345"
         d="m 748.30469,305.23828 c -9.02344,-14.96484 -27.52735,-14.41797 -62.26953,-3.39453 -5.11719,1.62109 -10.46875,3.48437 -16.03516,5.57812 34.71094,-12.36328 60.21875,-14.71484 66.67578,-4.00781 6.17188,10.23047 -5.05469,23.89844 -11.08984,31.39063 -14.67578,18.23047 -35.07813,31.72656 -54.75391,44.01562 -21.11719,13.1875 -43.34766,24.47656 -65.85547,35.07031 -6.97656,3.28125 -13.97656,6.4961 -20.99219,9.6836 -21.49218,9.76562 -43.6914,18.22656 -64.96093,28.4414 49.51172,-23.78125 155.95703,-88.66406 178.12109,-117.99609 -26.40234,-31.28906 -76.34766,-50.32031 -125.16016,-37.32031 -66.96484,17.83203 -106.78906,86.5625 -88.95703,153.52734 17.82813,66.96094 86.5586,106.78906 153.52344,88.95703 66.96484,-17.83203 106.78906,-86.5625 88.95703,-153.52734 -0.25,-0.95313 -0.51562,-1.90234 -0.78906,-2.84375 -10.29297,5.78125 -22.17969,12.08203 -35.03125,17.65625 -2.23828,0.96875 -3.54297,1.52344 -5.74219,2.44531 -0.78515,0.32422 -3.13672,1.51172 -3.91406,1.83203 -2.46875,1.01563 -8.08203,3.32813 -10.58984,4.23828 10.10156,-6.92968 19.58593,-13.23046 27.53906,-19.55468 14.47656,-11.50782 29.17187,-24.63282 39.46094,-40.15625 11.67968,-17.63672 17.57812,-34.5625 11.86328,-44.03516"
         style="fill:#26a1d9;fill-opacity:1;fill-rule:nonzero;stroke:none"
         inkscape:connector-curvature="0" />
      <path
         id="path3347"
         d="m 507.31641,810.25781 18.2539,0 0,27.44922 -21.61719,0 0,-27.44922 z m 0,0"
         style="fill:#26a1d9;fill-opacity:1;fill-rule:evenodd;stroke:none"
         inkscape:connector-curvature="0" />
      <path
         id="path3349"
         d="m 317.62891,957.62109 c -1.00391,1.11328 -1.9961,2.21875 -2.99219,3.29688 l -1.41797,1.47265 c -3.60938,3.6211 -7.58594,6.89844 -11.82031,9.73438 -4.22266,2.83594 -8.7461,5.26172 -13.44922,7.21484 -4.6836,1.94141 -9.58594,3.4336 -14.57422,4.42578 -9.95313,1.97657 -20.48438,1.97657 -30.44141,0 -4.97656,-0.98828 -9.8789,-2.47656 -14.57422,-4.42187 -4.71093,-1.95703 -9.23437,-4.38281 -13.44921,-7.21484 -4.22657,-2.83204 -8.20313,-6.10938 -11.81641,-9.73438 -3.60938,-3.625 -6.87109,-7.61328 -9.69922,-11.86328 -2.83984,-4.26953 -5.26562,-8.82031 -7.20703,-13.52734 -1.9375,-4.71485 -3.42188,-9.64844 -4.41406,-14.66407 -0.98438,-5.0039 -1.48438,-10.14453 -1.48438,-15.28125 0,-5.1289 0.5,-10.26953 1.48438,-15.27734 0.99218,-5.01563 2.47656,-9.94922 4.41406,-14.65234 1.94141,-4.71094 4.36719,-9.26563 7.20703,-13.53516 2.82813,-4.24609 6.08984,-8.23828 9.69922,-11.86328 3.60937,-3.6211 7.58203,-6.89453 11.8125,-9.73438 4.22266,-2.83593 8.75,-5.26172 13.44922,-7.21093 4.69531,-1.94922 9.59765,-3.4375 14.57812,-4.42579 9.84766,-1.95312 20.26953,-1.97265 30.10938,-0.0664 4.85156,0.9414 9.66015,2.36719 14.27734,4.23437 4.14063,1.67188 8.16406,3.73047 11.96094,6.10157 3.82031,2.39062 7.44531,5.11718 10.77344,8.10156 l 1.7539,1.57812 23.48438,-6.89453 -3.375,-3.47656 c -1.11328,-1.14453 -2.23047,-2.29297 -3.35547,-3.47266 -4.60938,-4.63281 -9.70313,-8.82812 -15.13281,-12.47656 -5.4336,-3.64844 -11.22657,-6.76172 -17.21485,-9.25391 -5.99609,-2.49609 -12.26562,-4.39843 -18.625,-5.66406 -12.73828,-2.53515 -26.15234,-2.53515 -38.87109,-0.004 -6.35938,1.26562 -12.625,3.17187 -18.625,5.66796 -5.98047,2.48829 -11.76953,5.59766 -17.21484,9.25 -5.4375,3.65235 -10.52735,7.84766 -15.13672,12.47266 -4.60938,4.625 -8.78516,9.73047 -12.41797,15.17188 -3.625,5.4375 -6.72656,11.24609 -9.21094,17.26171 -2.48828,6.01954 -4.38672,12.29688 -5.63672,18.66797 -1.26172,6.38282 -1.89844,12.94532 -1.89844,19.5 0,6.5586 0.63672,13.1211 1.89454,19.50782 1.2539,6.36718 3.15234,12.64843 5.64062,18.66406 2.48438,6.01562 5.58203,11.82422 9.21094,17.26172 3.61719,5.42968 7.79687,10.53515 12.41797,15.17187 4.61328,4.63281 9.70312,8.82813 15.13281,12.47266 5.42578,3.64453 11.21875,6.75781 17.21875,9.2539 5.99609,2.49608 12.26562,4.40238 18.625,5.66798 6.36719,1.2617 12.90625,1.9062 19.4375,1.9062 6.52734,0 13.06641,-0.6445 19.43359,-1.9062 6.36328,-1.2656 12.62891,-3.1758 18.62891,-5.67188 6,-2.4961 11.78906,-5.60938 17.21484,-9.25391 5.4336,-3.65234 10.52735,-7.84765 15.12891,-12.47265 0.95312,-0.95313 1.875,-1.91407 2.75391,-2.8711 0.89062,-0.96875 1.77734,-1.97265 2.51171,-2.85547 0.69922,-0.6289 1.59766,-1.77343 2.39063,-2.78125 0.32031,-0.40625 0.61328,-0.78125 0.85547,-1.07031 l 1.19531,-1.42578 -19.89844,-9.86328 z m 0,0"
         style="fill:#384757;fill-opacity:1;fill-rule:nonzero;stroke:none"
         inkscape:connector-curvature="0" />
      <path
         id="path3351"
         d="m 402.64062,1003.6836 20.76172,0 0,-193.19923 -20.76172,0 z m 0,0"
         style="fill:#384757;fill-opacity:1;fill-rule:nonzero;stroke:none"
         inkscape:connector-curvature="0" />
      <path
         id="path3353"
         d="m 504.51562,1003.6836 20.76172,0 0,-132.26954 -20.76172,0 z m 0,0"
         style="fill:#384757;fill-opacity:1;fill-rule:nonzero;stroke:none"
         inkscape:connector-curvature="0" />
      <path
         id="path3355"
         d="m 604.125,810.94922 0,192.73438 20.76172,0 0,-131.85548 79.60156,101.50782 80.74609,-97.59766 0,127.94532 20.76172,0 0,-192.66798 -101.15234,127.71094 z m 0,0"
         style="fill:#384757;fill-opacity:1;fill-rule:nonzero;stroke:none"
         inkscape:connector-curvature="0" />
      <path
         id="path3357"
         d="m 989.74219,933.82812 -67.20703,0 34.59375,-77.98046 z m -32.76953,-129.58593 -88.05469,199.30471 22.6875,0 22.60937,-51.07424 83.4375,0 21.56246,51.82814 22.4961,0 z m 0,0"
         style="fill:#384757;fill-opacity:1;fill-rule:nonzero;stroke:none"
         inkscape:connector-curvature="0" />
    </g>
  </g>
</svg>
