<?xml version="1.0" encoding="UTF-8" standalone="no"?>
<svg
   xmlns:dc="http://purl.org/dc/elements/1.1/"
   xmlns:cc="http://creativecommons.org/ns#"
   xmlns:rdf="http://www.w3.org/1999/02/22-rdf-syntax-ns#"
   xmlns:svg="http://www.w3.org/2000/svg"
   xmlns="http://www.w3.org/2000/svg"
   xmlns:sodipodi="http://sodipodi.sourceforge.net/DTD/sodipodi-0.dtd"
   xmlns:inkscape="http://www.inkscape.org/namespaces/inkscape"
   sodipodi:docname="logo.svg"
   inkscape:version="1.0rc1 (09960d6, 2020-04-09)"
   version="1.1"
   id="svg2"
   viewBox="0 0 121.32851 125.76424"
   height="125.76424mm"
   width="121.32851mm">
  <defs
     id="defs4" />
  <sodipodi:namedview
     inkscape:document-rotation="0"
     inkscape:window-maximized="0"
     inkscape:window-y="23"
     inkscape:window-x="0"
     inkscape:window-height="600"
     inkscape:window-width="960"
     showgrid="false"
     inkscape:current-layer="layer1"
     inkscape:document-units="mm"
     inkscape:cy="515.16267"
     inkscape:cx="224.46811"
     inkscape:zoom="0.35"
     inkscape:pageshadow="2"
     inkscape:pageopacity="0.0"
     borderopacity="1.0"
     bordercolor="#666666"
     pagecolor="#ffffff"
     id="base" />
  <metadata
     id="metadata7">
    <rdf:RDF>
      <cc:Work
         rdf:about="">
        <dc:format>image/svg+xml</dc:format>
        <dc:type
           rdf:resource="http://purl.org/dc/dcmitype/StillImage" />
        <dc:title />
      </cc:Work>
    </rdf:RDF>
  </metadata>
  <g
     transform="translate(-45.609478,-83.863211)"
     id="layer1"
     inkscape:groupmode="layer"
     inkscape:label="Layer 1">
    <path
       id="path3341"
       d="m 137.47901,178.94042 c 3.48374,-3.57847 6.33032,-7.70342 8.4604,-12.25989 l 0.5562,-1.18689 -7.00554,-3.05222 -0.52948,1.11807 c -1.75847,3.71205 -4.10066,7.08164 -6.9602,10.01242 -3.39711,3.48374 -7.40953,6.22912 -11.92552,8.16003 -4.52328,1.93578 -9.27972,2.94374 -14.13818,2.99555 -4.88355,0.0607 -9.655379,-0.84199 -14.215089,-2.67818 -4.556471,-1.837 -8.644181,-4.51194 -12.148163,-7.94954 -3.489409,-3.42059 -6.242884,-7.45567 -8.184323,-11.99191 -1.944677,-4.54271 -2.963165,-9.32101 -3.027124,-14.20213 -0.0672,-4.89732 0.821751,-9.69182 2.639322,-14.25234 1.81514,-4.55728 4.469035,-8.64499 7.887197,-12.14816 3.400352,-3.48455 7.412768,-6.23074 11.928759,-8.16327 4.229391,-1.80948 8.683853,-2.80772 13.239511,-2.96802 3.67319,-0.12954 7.33667,0.29145 10.8868,1.24679 l 1.0622,0.28579 3.07408,-7.05573 -1.39657,-0.40318 c -4.0529,-1.1707 -8.23047,-1.76252 -12.43153,-1.76252 -0.36432,0 -0.72864,0.004 -1.09378,0.0138 -5.638912,0.14249 -11.145055,1.34719 -16.367024,3.5809 -5.438944,2.32762 -10.276349,5.64377 -14.377013,9.85535 -4.111188,4.2221 -7.309947,9.16071 -9.508843,14.67819 -2.198893,5.51909 -3.276481,11.31669 -3.203617,17.23169 0.07367,5.88989 1.293754,11.63892 3.624613,17.08839 2.33491,5.45675 5.650253,10.30954 9.854546,14.42316 4.220484,4.13061 9.153424,7.34961 14.662803,9.56794 5.376606,2.1657 11.014712,3.26353 16.758065,3.26353 l 0.4461,-0.002 c 5.88342,-0.0591 11.62273,-1.26784 17.056,-3.59223 5.43976,-2.32843 10.27635,-5.64377 14.3754,-9.85373"
       style="fill:#384757;fill-opacity:1;fill-rule:nonzero;stroke:none;stroke-width:0.20726"
       inkscape:connector-curvature="0" />
    <path
       id="path3343"
       d="m 166.80705,142.58013 c -0.26394,-4.0869 -0.93753,-8.1908 -2.00378,-12.19755 -1.0614,-3.98813 -2.51707,-7.88153 -4.32655,-11.57092 -1.7277,-3.5226 -3.79544,-6.89461 -6.15059,-10.03346 l 0.008,-0.006 -0.33842,-0.44366 c -2.46283,-3.21819 -5.28026,-6.22751 -8.37458,-8.94212 -3.08541,-2.707328 -6.44529,-5.11591 -9.98489,-7.159361 -3.54204,-2.044259 -7.31076,-3.749292 -11.20254,-5.068143 -3.89907,-1.32128 -7.91797,-2.256377 -11.94414,-2.778574 -4.06262,-0.526244 -8.20619,-0.651733 -12.30928,-0.37242 -3.726624,0.252597 -7.457296,0.841992 -11.087576,1.751992 l -0.626637,0.157063 2.160843,5.69478 0.490622,-0.117392 c 3.07812,-0.732706 6.262307,-1.213612 9.462688,-1.429778 3.69586,-0.247739 7.42329,-0.130347 11.07381,0.346511 3.65295,0.477669 7.28323,1.324519 10.78883,2.516262 3.49751,1.188503 6.90515,2.734044 10.12739,4.593713 3.23033,1.864526 6.27688,4.042367 9.05384,6.473627 2.77371,2.42801 5.32236,5.14991 7.57631,8.0896 2.25961,2.95102 4.22858,6.12306 5.85103,9.42869 1.63622,3.33234 2.9494,6.83875 3.90393,10.42208 0.95129,3.57522 1.55526,7.27918 1.79571,11.00742 0.23802,3.71205 0.11011,7.45406 -0.37971,11.12239 -0.48657,3.65538 -1.34233,7.29052 -2.54378,10.80584 -1.19903,3.50803 -2.7551,6.93105 -4.6261,10.17272 -1.87424,3.24733 -4.05937,6.30684 -6.49467,9.09594 -2.44826,2.80448 -5.17097,5.3677 -8.09122,7.61679 -2.92674,2.25475 -6.10364,4.23748 -9.44408,5.89313 -3.3283,1.64998 -6.83551,2.97855 -10.42289,3.94846 -3.59465,0.96505 -7.29375,1.58035 -10.99609,1.8289 -3.69828,0.24693 -7.4241,0.13035 -11.07543,-0.34651 -3.652141,-0.47767 -7.282421,-1.32371 -10.790451,-2.51545 -3.499124,-1.18932 -6.906763,-2.73486 -10.129002,-4.59453 -3.180948,-1.83214 -6.164352,-3.95007 -8.870061,-6.29631 -2.712994,-2.35353 -5.221969,-4.99933 -7.456486,-7.86453 -1.938202,-2.48307 -3.679667,-5.15235 -5.178251,-7.93254 -1.03468,-1.91796 -1.967348,-3.92174 -2.775334,-5.95547 l -0.20807,-0.52625 -5.659967,2.14627 0.213737,0.54082 c 0.890567,2.25476 1.923627,4.4828 3.07084,6.62178 1.582783,2.95183 3.414927,5.79436 5.445422,8.45068 2.4774,3.24006 5.291595,6.24937 8.364867,8.94536 3.087034,2.70895 6.446904,5.11834 9.98732,7.1626 3.539604,2.04345 7.309137,3.74767 11.201731,5.06733 3.901499,1.32209 7.921201,2.25719 11.945761,2.77858 2.66199,0.3457 5.357174,0.51896 8.053974,0.51896 1.42006,0 2.84011,-0.0478 4.25611,-0.14411 4.10876,-0.27851 8.20942,-0.96425 12.18783,-2.03779 3.97032,-1.07192 7.85482,-2.54217 11.54663,-4.36783 3.67805,-1.82081 7.19984,-4.01808 10.46903,-6.53192 3.26272,-2.50735 6.28013,-5.33612 8.96884,-8.40858 2.70004,-3.08541 5.11267,-6.45905 7.1715,-10.0278 2.06855,-3.58413 3.78492,-7.36338 5.10215,-11.23007 1.32047,-3.87964 2.26366,-7.9042 2.80043,-11.96195 0.53839,-4.07476 0.67684,-8.22561 0.41129,-12.3368"
       style="fill:#384757;fill-opacity:1;fill-rule:nonzero;stroke:none;stroke-width:0.20726"
       inkscape:connector-curvature="0" />
    <path
       id="path3345"
       d="m 135.25582,123.92029 c -1.87019,-3.10161 -5.7053,-2.98826 -12.90595,-0.70355 -1.06059,0.33599 -2.16975,0.72217 -3.32344,1.15612 7.19417,-2.56241 12.48091,-3.04979 13.81919,-0.83066 1.27918,2.12037 -1.04763,4.95318 -2.29847,6.50601 -3.0417,3.77844 -7.27028,6.57563 -11.34827,9.12266 -4.37674,2.73323 -8.98422,5.073 -13.64918,7.26866 -1.44596,0.68007 -2.89678,1.34637 -4.35083,2.00701 -4.454462,2.02402 -9.055463,3.77763 -13.463776,5.89476 10.261777,-4.92889 32.323586,-18.37648 36.917296,-24.45582 -5.47213,-6.48496 -15.82378,-10.42937 -25.940637,-7.73499 -13.879103,3.69586 -22.133054,17.9409 -18.437195,31.82001 3.69505,13.87829 17.940097,22.13305 31.819202,18.43719 13.8791,-3.69586 22.13305,-17.9409 18.43719,-31.82001 -0.0518,-0.19754 -0.10686,-0.39428 -0.16354,-0.58939 -2.13331,1.19822 -4.59695,2.50411 -7.26056,3.65942 -0.4639,0.20079 -0.73431,0.31575 -1.19012,0.50682 -0.16273,0.0672 -0.65012,0.31332 -0.81123,0.3797 -0.51167,0.2105 -1.67508,0.68979 -2.19484,0.87843 2.09364,-1.43624 4.05937,-2.74214 5.70773,-4.0529 3.0004,-2.3851 6.04615,-5.10538 8.17866,-8.32276 2.42072,-3.65538 3.64323,-7.16341 2.45877,-9.12671"
       style="fill:#26a1d9;fill-opacity:1;fill-rule:nonzero;stroke:none;stroke-width:0.20726"
       inkscape:connector-curvature="0" />
  </g>
</svg>
