<?xml version="1.0" encoding="utf-8"?>
<svg xmlns="http://www.w3.org/2000/svg" xmlns:xlink="http://www.w3.org/1999/xlink" width="600" height="400" viewBox="0 0 2400 1600">
<defs>
  <clipPath id="clip970">
    <rect x="0" y="0" width="2400" height="1600"/>
  </clipPath>
</defs>
<path clip-path="url(#clip970)" d="
M0 1600 L2400 1600 L2400 0 L0 0  Z
  " fill="#ffffff" fill-rule="evenodd" fill-opacity="1"/>
<defs>
  <clipPath id="clip971">
    <rect x="480" y="0" width="1681" height="1600"/>
  </clipPath>
</defs>
<path clip-path="url(#clip970)" d="
M238.13 1423.18 L2352.76 1423.18 L2352.76 47.2441 L238.13 47.2441  Z
  " fill="#ffffff" fill-rule="evenodd" fill-opacity="1"/>
<defs>
  <clipPath id="clip972">
    <rect x="238" y="47" width="2116" height="1377"/>
  </clipPath>
</defs>
<polyline clip-path="url(#clip972)" style="stroke:#000000; stroke-width:2; stroke-opacity:0.1; fill:none" points="
  238.13,1423.18 238.13,47.2441 
  "/>
<polyline clip-path="url(#clip972)" style="stroke:#000000; stroke-width:2; stroke-opacity:0.1; fill:none" points="
  540.219,1423.18 540.219,47.2441 
  "/>
<polyline clip-path="url(#clip972)" style="stroke:#000000; stroke-width:2; stroke-opacity:0.1; fill:none" points="
  842.309,1423.18 842.309,47.2441 
  "/>
<polyline clip-path="url(#clip972)" style="stroke:#000000; stroke-width:2; stroke-opacity:0.1; fill:none" points="
  1144.4,1423.18 1144.4,47.2441 
  "/>
<polyline clip-path="url(#clip972)" style="stroke:#000000; stroke-width:2; stroke-opacity:0.1; fill:none" points="
  1446.49,1423.18 1446.49,47.2441 
  "/>
<polyline clip-path="url(#clip972)" style="stroke:#000000; stroke-width:2; stroke-opacity:0.1; fill:none" points="
  1748.58,1423.18 1748.58,47.2441 
  "/>
<polyline clip-path="url(#clip972)" style="stroke:#000000; stroke-width:2; stroke-opacity:0.1; fill:none" points="
  2050.67,1423.18 2050.67,47.2441 
  "/>
<polyline clip-path="url(#clip972)" style="stroke:#000000; stroke-width:2; stroke-opacity:0.1; fill:none" points="
  2352.76,1423.18 2352.76,47.2441 
  "/>
<polyline clip-path="url(#clip970)" style="stroke:#000000; stroke-width:4; stroke-opacity:1; fill:none" points="
  238.13,1423.18 2352.76,1423.18 
  "/>
<polyline clip-path="url(#clip970)" style="stroke:#000000; stroke-width:4; stroke-opacity:1; fill:none" points="
  238.13,1423.18 238.13,1406.67 
  "/>
<polyline clip-path="url(#clip970)" style="stroke:#000000; stroke-width:4; stroke-opacity:1; fill:none" points="
  540.219,1423.18 540.219,1406.67 
  "/>
<polyline clip-path="url(#clip970)" style="stroke:#000000; stroke-width:4; stroke-opacity:1; fill:none" points="
  842.309,1423.18 842.309,1406.67 
  "/>
<polyline clip-path="url(#clip970)" style="stroke:#000000; stroke-width:4; stroke-opacity:1; fill:none" points="
  1144.4,1423.18 1144.4,1406.67 
  "/>
<polyline clip-path="url(#clip970)" style="stroke:#000000; stroke-width:4; stroke-opacity:1; fill:none" points="
  1446.49,1423.18 1446.49,1406.67 
  "/>
<polyline clip-path="url(#clip970)" style="stroke:#000000; stroke-width:4; stroke-opacity:1; fill:none" points="
  1748.58,1423.18 1748.58,1406.67 
  "/>
<polyline clip-path="url(#clip970)" style="stroke:#000000; stroke-width:4; stroke-opacity:1; fill:none" points="
  2050.67,1423.18 2050.67,1406.67 
  "/>
<polyline clip-path="url(#clip970)" style="stroke:#000000; stroke-width:4; stroke-opacity:1; fill:none" points="
  2352.76,1423.18 2352.76,1406.67 
  "/>
<path clip-path="url(#clip970)" d="M 0 0 M238.13 1452.37 Q234.519 1452.37 232.69 1455.94 Q230.885 1459.48 230.885 1466.61 Q230.885 1473.71 232.69 1477.28 Q234.519 1480.82 238.13 1480.82 Q241.764 1480.82 243.57 1477.28 Q245.399 1473.71 245.399 1466.61 Q245.399 1459.48 243.57 1455.94 Q241.764 1452.37 238.13 1452.37 M238.13 1448.67 Q243.94 1448.67 246.996 1453.27 Q250.074 1457.86 250.074 1466.61 Q250.074 1475.33 246.996 1479.94 Q243.94 1484.52 238.13 1484.52 Q232.32 1484.52 229.241 1479.94 Q226.186 1475.33 226.186 1466.61 Q226.186 1457.86 229.241 1453.27 Q232.32 1448.67 238.13 1448.67 Z" fill="#000000" fill-rule="evenodd" fill-opacity="1" /><path clip-path="url(#clip970)" d="M 0 0 M516.99 1449.29 L535.347 1449.29 L535.347 1453.23 L521.273 1453.23 L521.273 1461.7 Q522.291 1461.35 523.31 1461.19 Q524.328 1461 525.347 1461 Q531.134 1461 534.513 1464.18 Q537.893 1467.35 537.893 1472.76 Q537.893 1478.34 534.421 1481.44 Q530.949 1484.52 524.629 1484.52 Q522.453 1484.52 520.185 1484.15 Q517.939 1483.78 515.532 1483.04 L515.532 1478.34 Q517.615 1479.48 519.838 1480.03 Q522.06 1480.59 524.537 1480.59 Q528.541 1480.59 530.879 1478.48 Q533.217 1476.38 533.217 1472.76 Q533.217 1469.15 530.879 1467.05 Q528.541 1464.94 524.537 1464.94 Q522.662 1464.94 520.787 1465.36 Q518.935 1465.77 516.99 1466.65 L516.99 1449.29 Z" fill="#000000" fill-rule="evenodd" fill-opacity="1" /><path clip-path="url(#clip970)" d="M 0 0 M552.962 1452.37 Q549.351 1452.37 547.523 1455.94 Q545.717 1459.48 545.717 1466.61 Q545.717 1473.71 547.523 1477.28 Q549.351 1480.82 552.962 1480.82 Q556.597 1480.82 558.402 1477.28 Q560.231 1473.71 560.231 1466.61 Q560.231 1459.48 558.402 1455.94 Q556.597 1452.37 552.962 1452.37 M552.962 1448.67 Q558.773 1448.67 561.828 1453.27 Q564.907 1457.86 564.907 1466.61 Q564.907 1475.33 561.828 1479.94 Q558.773 1484.52 552.962 1484.52 Q547.152 1484.52 544.074 1479.94 Q541.018 1475.33 541.018 1466.61 Q541.018 1457.86 544.074 1453.27 Q547.152 1448.67 552.962 1448.67 Z" fill="#000000" fill-rule="evenodd" fill-opacity="1" /><path clip-path="url(#clip970)" d="M 0 0 M805.677 1479.92 L813.316 1479.92 L813.316 1453.55 L805.006 1455.22 L805.006 1450.96 L813.27 1449.29 L817.946 1449.29 L817.946 1479.92 L825.584 1479.92 L825.584 1483.85 L805.677 1483.85 L805.677 1479.92 Z" fill="#000000" fill-rule="evenodd" fill-opacity="1" /><path clip-path="url(#clip970)" d="M 0 0 M840.654 1452.37 Q837.043 1452.37 835.214 1455.94 Q833.408 1459.48 833.408 1466.61 Q833.408 1473.71 835.214 1477.28 Q837.043 1480.82 840.654 1480.82 Q844.288 1480.82 846.094 1477.28 Q847.922 1473.71 847.922 1466.61 Q847.922 1459.48 846.094 1455.94 Q844.288 1452.37 840.654 1452.37 M840.654 1448.67 Q846.464 1448.67 849.519 1453.27 Q852.598 1457.86 852.598 1466.61 Q852.598 1475.33 849.519 1479.94 Q846.464 1484.52 840.654 1484.52 Q834.844 1484.52 831.765 1479.94 Q828.709 1475.33 828.709 1466.61 Q828.709 1457.86 831.765 1453.27 Q834.844 1448.67 840.654 1448.67 Z" fill="#000000" fill-rule="evenodd" fill-opacity="1" /><path clip-path="url(#clip970)" d="M 0 0 M867.668 1452.37 Q864.056 1452.37 862.228 1455.94 Q860.422 1459.48 860.422 1466.61 Q860.422 1473.71 862.228 1477.28 Q864.056 1480.82 867.668 1480.82 Q871.302 1480.82 873.107 1477.28 Q874.936 1473.71 874.936 1466.61 Q874.936 1459.48 873.107 1455.94 Q871.302 1452.37 867.668 1452.37 M867.668 1448.67 Q873.478 1448.67 876.533 1453.27 Q879.612 1457.86 879.612 1466.61 Q879.612 1475.33 876.533 1479.94 Q873.478 1484.52 867.668 1484.52 Q861.857 1484.52 858.779 1479.94 Q855.723 1475.33 855.723 1466.61 Q855.723 1457.86 858.779 1453.27 Q861.857 1448.67 867.668 1448.67 Z" fill="#000000" fill-rule="evenodd" fill-opacity="1" /><path clip-path="url(#clip970)" d="M 0 0 M1108.26 1479.92 L1115.9 1479.92 L1115.9 1453.55 L1107.59 1455.22 L1107.59 1450.96 L1115.86 1449.29 L1120.53 1449.29 L1120.53 1479.92 L1128.17 1479.92 L1128.17 1483.85 L1108.26 1483.85 L1108.26 1479.92 Z" fill="#000000" fill-rule="evenodd" fill-opacity="1" /><path clip-path="url(#clip970)" d="M 0 0 M1133.29 1449.29 L1151.64 1449.29 L1151.64 1453.23 L1137.57 1453.23 L1137.57 1461.7 Q1138.59 1461.35 1139.61 1461.19 Q1140.63 1461 1141.64 1461 Q1147.43 1461 1150.81 1464.18 Q1154.19 1467.35 1154.19 1472.76 Q1154.19 1478.34 1150.72 1481.44 Q1147.25 1484.52 1140.93 1484.52 Q1138.75 1484.52 1136.48 1484.15 Q1134.24 1483.78 1131.83 1483.04 L1131.83 1478.34 Q1133.91 1479.48 1136.13 1480.03 Q1138.36 1480.59 1140.83 1480.59 Q1144.84 1480.59 1147.18 1478.48 Q1149.51 1476.38 1149.51 1472.76 Q1149.51 1469.15 1147.18 1467.05 Q1144.84 1464.94 1140.83 1464.94 Q1138.96 1464.94 1137.08 1465.36 Q1135.23 1465.77 1133.29 1466.65 L1133.29 1449.29 Z" fill="#000000" fill-rule="evenodd" fill-opacity="1" /><path clip-path="url(#clip970)" d="M 0 0 M1169.26 1452.37 Q1165.65 1452.37 1163.82 1455.94 Q1162.01 1459.48 1162.01 1466.61 Q1162.01 1473.71 1163.82 1477.28 Q1165.65 1480.82 1169.26 1480.82 Q1172.89 1480.82 1174.7 1477.28 Q1176.53 1473.71 1176.53 1466.61 Q1176.53 1459.48 1174.7 1455.94 Q1172.89 1452.37 1169.26 1452.37 M1169.26 1448.67 Q1175.07 1448.67 1178.12 1453.27 Q1181.2 1457.86 1181.2 1466.61 Q1181.2 1475.33 1178.12 1479.94 Q1175.07 1484.52 1169.26 1484.52 Q1163.45 1484.52 1160.37 1479.94 Q1157.31 1475.33 1157.31 1466.61 Q1157.31 1457.86 1160.37 1453.27 Q1163.45 1448.67 1169.26 1448.67 Z" fill="#000000" fill-rule="evenodd" fill-opacity="1" /><path clip-path="url(#clip970)" d="M 0 0 M1414.13 1479.92 L1430.45 1479.92 L1430.45 1483.85 L1408.5 1483.85 L1408.5 1479.92 Q1411.16 1477.16 1415.75 1472.53 Q1420.35 1467.88 1421.53 1466.54 Q1423.78 1464.01 1424.66 1462.28 Q1425.56 1460.52 1425.56 1458.83 Q1425.56 1456.07 1423.62 1454.34 Q1421.7 1452.6 1418.59 1452.6 Q1416.4 1452.6 1413.94 1453.37 Q1411.51 1454.13 1408.73 1455.68 L1408.73 1450.96 Q1411.56 1449.82 1414.01 1449.25 Q1416.46 1448.67 1418.5 1448.67 Q1423.87 1448.67 1427.07 1451.35 Q1430.26 1454.04 1430.26 1458.53 Q1430.26 1460.66 1429.45 1462.58 Q1428.66 1464.48 1426.56 1467.07 Q1425.98 1467.74 1422.88 1470.96 Q1419.77 1474.15 1414.13 1479.92 Z" fill="#000000" fill-rule="evenodd" fill-opacity="1" /><path clip-path="url(#clip970)" d="M 0 0 M1445.52 1452.37 Q1441.9 1452.37 1440.08 1455.94 Q1438.27 1459.48 1438.27 1466.61 Q1438.27 1473.71 1440.08 1477.28 Q1441.9 1480.82 1445.52 1480.82 Q1449.15 1480.82 1450.96 1477.28 Q1452.78 1473.71 1452.78 1466.61 Q1452.78 1459.48 1450.96 1455.94 Q1449.15 1452.37 1445.52 1452.37 M1445.52 1448.67 Q1451.33 1448.67 1454.38 1453.27 Q1457.46 1457.86 1457.46 1466.61 Q1457.46 1475.33 1454.38 1479.94 Q1451.33 1484.52 1445.52 1484.52 Q1439.71 1484.52 1436.63 1479.94 Q1433.57 1475.33 1433.57 1466.61 Q1433.57 1457.86 1436.63 1453.27 Q1439.71 1448.67 1445.52 1448.67 Z" fill="#000000" fill-rule="evenodd" fill-opacity="1" /><path clip-path="url(#clip970)" d="M 0 0 M1472.53 1452.37 Q1468.92 1452.37 1467.09 1455.94 Q1465.28 1459.48 1465.28 1466.61 Q1465.28 1473.71 1467.09 1477.28 Q1468.92 1480.82 1472.53 1480.82 Q1476.16 1480.82 1477.97 1477.28 Q1479.8 1473.71 1479.8 1466.61 Q1479.8 1459.48 1477.97 1455.94 Q1476.16 1452.37 1472.53 1452.37 M1472.53 1448.67 Q1478.34 1448.67 1481.39 1453.27 Q1484.47 1457.86 1484.47 1466.61 Q1484.47 1475.33 1481.39 1479.94 Q1478.34 1484.52 1472.53 1484.52 Q1466.72 1484.52 1463.64 1479.94 Q1460.58 1475.33 1460.58 1466.61 Q1460.58 1457.86 1463.64 1453.27 Q1466.72 1448.67 1472.53 1448.67 Z" fill="#000000" fill-rule="evenodd" fill-opacity="1" /><path clip-path="url(#clip970)" d="M 0 0 M1716.71 1479.92 L1733.03 1479.92 L1733.03 1483.85 L1711.09 1483.85 L1711.09 1479.92 Q1713.75 1477.16 1718.33 1472.53 Q1722.94 1467.88 1724.12 1466.54 Q1726.37 1464.01 1727.25 1462.28 Q1728.15 1460.52 1728.15 1458.83 Q1728.15 1456.07 1726.2 1454.34 Q1724.28 1452.6 1721.18 1452.6 Q1718.98 1452.6 1716.53 1453.37 Q1714.1 1454.13 1711.32 1455.68 L1711.32 1450.96 Q1714.14 1449.82 1716.6 1449.25 Q1719.05 1448.67 1721.09 1448.67 Q1726.46 1448.67 1729.65 1451.35 Q1732.85 1454.04 1732.85 1458.53 Q1732.85 1460.66 1732.04 1462.58 Q1731.25 1464.48 1729.14 1467.07 Q1728.57 1467.74 1725.46 1470.96 Q1722.36 1474.15 1716.71 1479.92 Z" fill="#000000" fill-rule="evenodd" fill-opacity="1" /><path clip-path="url(#clip970)" d="M 0 0 M1738.15 1449.29 L1756.51 1449.29 L1756.51 1453.23 L1742.43 1453.23 L1742.43 1461.7 Q1743.45 1461.35 1744.47 1461.19 Q1745.49 1461 1746.51 1461 Q1752.29 1461 1755.67 1464.18 Q1759.05 1467.35 1759.05 1472.76 Q1759.05 1478.34 1755.58 1481.44 Q1752.11 1484.52 1745.79 1484.52 Q1743.61 1484.52 1741.34 1484.15 Q1739.1 1483.78 1736.69 1483.04 L1736.69 1478.34 Q1738.77 1479.48 1741 1480.03 Q1743.22 1480.59 1745.7 1480.59 Q1749.7 1480.59 1752.04 1478.48 Q1754.38 1476.38 1754.38 1472.76 Q1754.38 1469.15 1752.04 1467.05 Q1749.7 1464.94 1745.7 1464.94 Q1743.82 1464.94 1741.95 1465.36 Q1740.09 1465.77 1738.15 1466.65 L1738.15 1449.29 Z" fill="#000000" fill-rule="evenodd" fill-opacity="1" /><path clip-path="url(#clip970)" d="M 0 0 M1774.12 1452.37 Q1770.51 1452.37 1768.68 1455.94 Q1766.88 1459.48 1766.88 1466.61 Q1766.88 1473.71 1768.68 1477.28 Q1770.51 1480.82 1774.12 1480.82 Q1777.76 1480.82 1779.56 1477.28 Q1781.39 1473.71 1781.39 1466.61 Q1781.39 1459.48 1779.56 1455.94 Q1777.76 1452.37 1774.12 1452.37 M1774.12 1448.67 Q1779.93 1448.67 1782.99 1453.27 Q1786.07 1457.86 1786.07 1466.61 Q1786.07 1475.33 1782.99 1479.94 Q1779.93 1484.52 1774.12 1484.52 Q1768.31 1484.52 1765.23 1479.94 Q1762.18 1475.33 1762.18 1466.61 Q1762.18 1457.86 1765.23 1453.27 Q1768.31 1448.67 1774.12 1448.67 Z" fill="#000000" fill-rule="evenodd" fill-opacity="1" /><path clip-path="url(#clip970)" d="M 0 0 M2027.9 1465.22 Q2031.26 1465.94 2033.13 1468.2 Q2035.03 1470.47 2035.03 1473.81 Q2035.03 1478.92 2031.51 1481.72 Q2027.99 1484.52 2021.51 1484.52 Q2019.34 1484.52 2017.02 1484.08 Q2014.73 1483.67 2012.28 1482.81 L2012.28 1478.3 Q2014.22 1479.43 2016.53 1480.01 Q2018.85 1480.59 2021.37 1480.59 Q2025.77 1480.59 2028.06 1478.85 Q2030.38 1477.12 2030.38 1473.81 Q2030.38 1470.75 2028.22 1469.04 Q2026.09 1467.3 2022.28 1467.3 L2018.25 1467.3 L2018.25 1463.46 L2022.46 1463.46 Q2025.91 1463.46 2027.74 1462.09 Q2029.57 1460.7 2029.57 1458.11 Q2029.57 1455.45 2027.67 1454.04 Q2025.79 1452.6 2022.28 1452.6 Q2020.35 1452.6 2018.16 1453.02 Q2015.96 1453.44 2013.32 1454.31 L2013.32 1450.15 Q2015.98 1449.41 2018.29 1449.04 Q2020.63 1448.67 2022.69 1448.67 Q2028.02 1448.67 2031.12 1451.1 Q2034.22 1453.5 2034.22 1457.63 Q2034.22 1460.5 2032.58 1462.49 Q2030.93 1464.45 2027.9 1465.22 Z" fill="#000000" fill-rule="evenodd" fill-opacity="1" /><path clip-path="url(#clip970)" d="M 0 0 M2050.1 1452.37 Q2046.49 1452.37 2044.66 1455.94 Q2042.85 1459.48 2042.85 1466.61 Q2042.85 1473.71 2044.66 1477.28 Q2046.49 1480.82 2050.1 1480.82 Q2053.73 1480.82 2055.54 1477.28 Q2057.37 1473.71 2057.37 1466.61 Q2057.37 1459.48 2055.54 1455.94 Q2053.73 1452.37 2050.1 1452.37 M2050.1 1448.67 Q2055.91 1448.67 2058.97 1453.27 Q2062.04 1457.86 2062.04 1466.61 Q2062.04 1475.33 2058.97 1479.94 Q2055.91 1484.52 2050.1 1484.52 Q2044.29 1484.52 2041.21 1479.94 Q2038.15 1475.33 2038.15 1466.61 Q2038.15 1457.86 2041.21 1453.27 Q2044.29 1448.67 2050.1 1448.67 Z" fill="#000000" fill-rule="evenodd" fill-opacity="1" /><path clip-path="url(#clip970)" d="M 0 0 M2077.11 1452.37 Q2073.5 1452.37 2071.67 1455.94 Q2069.87 1459.48 2069.87 1466.61 Q2069.87 1473.71 2071.67 1477.28 Q2073.5 1480.82 2077.11 1480.82 Q2080.75 1480.82 2082.55 1477.28 Q2084.38 1473.71 2084.38 1466.61 Q2084.38 1459.48 2082.55 1455.94 Q2080.75 1452.37 2077.11 1452.37 M2077.11 1448.67 Q2082.92 1448.67 2085.98 1453.27 Q2089.06 1457.86 2089.06 1466.61 Q2089.06 1475.33 2085.98 1479.94 Q2082.92 1484.52 2077.11 1484.52 Q2071.3 1484.52 2068.22 1479.94 Q2065.17 1475.33 2065.17 1466.61 Q2065.17 1457.86 2068.22 1453.27 Q2071.3 1448.67 2077.11 1448.67 Z" fill="#000000" fill-rule="evenodd" fill-opacity="1" /><path clip-path="url(#clip970)" d="M 0 0 M2330.49 1465.22 Q2333.84 1465.94 2335.72 1468.2 Q2337.62 1470.47 2337.62 1473.81 Q2337.62 1478.92 2334.1 1481.72 Q2330.58 1484.52 2324.1 1484.52 Q2321.92 1484.52 2319.61 1484.08 Q2317.32 1483.67 2314.86 1482.81 L2314.86 1478.3 Q2316.81 1479.43 2319.12 1480.01 Q2321.44 1480.59 2323.96 1480.59 Q2328.36 1480.59 2330.65 1478.85 Q2332.96 1477.12 2332.96 1473.81 Q2332.96 1470.75 2330.81 1469.04 Q2328.68 1467.3 2324.86 1467.3 L2320.83 1467.3 L2320.83 1463.46 L2325.05 1463.46 Q2328.5 1463.46 2330.33 1462.09 Q2332.15 1460.7 2332.15 1458.11 Q2332.15 1455.45 2330.26 1454.04 Q2328.38 1452.6 2324.86 1452.6 Q2322.94 1452.6 2320.74 1453.02 Q2318.54 1453.44 2315.9 1454.31 L2315.9 1450.15 Q2318.57 1449.41 2320.88 1449.04 Q2323.22 1448.67 2325.28 1448.67 Q2330.6 1448.67 2333.71 1451.1 Q2336.81 1453.5 2336.81 1457.63 Q2336.81 1460.5 2335.16 1462.49 Q2333.52 1464.45 2330.49 1465.22 Z" fill="#000000" fill-rule="evenodd" fill-opacity="1" /><path clip-path="url(#clip970)" d="M 0 0 M2342.73 1449.29 L2361.09 1449.29 L2361.09 1453.23 L2347.02 1453.23 L2347.02 1461.7 Q2348.03 1461.35 2349.05 1461.19 Q2350.07 1461 2351.09 1461 Q2356.88 1461 2360.26 1464.18 Q2363.64 1467.35 2363.64 1472.76 Q2363.64 1478.34 2360.16 1481.44 Q2356.69 1484.52 2350.37 1484.52 Q2348.2 1484.52 2345.93 1484.15 Q2343.68 1483.78 2341.27 1483.04 L2341.27 1478.34 Q2343.36 1479.48 2345.58 1480.03 Q2347.8 1480.59 2350.28 1480.59 Q2354.28 1480.59 2356.62 1478.48 Q2358.96 1476.38 2358.96 1472.76 Q2358.96 1469.15 2356.62 1467.05 Q2354.28 1464.94 2350.28 1464.94 Q2348.4 1464.94 2346.53 1465.36 Q2344.68 1465.77 2342.73 1466.65 L2342.73 1449.29 Z" fill="#000000" fill-rule="evenodd" fill-opacity="1" /><path clip-path="url(#clip970)" d="M 0 0 M2378.7 1452.37 Q2375.09 1452.37 2373.27 1455.94 Q2371.46 1459.48 2371.46 1466.61 Q2371.46 1473.71 2373.27 1477.28 Q2375.09 1480.82 2378.7 1480.82 Q2382.34 1480.82 2384.14 1477.28 Q2385.97 1473.71 2385.97 1466.61 Q2385.97 1459.48 2384.14 1455.94 Q2382.34 1452.37 2378.7 1452.37 M2378.7 1448.67 Q2384.51 1448.67 2387.57 1453.27 Q2390.65 1457.86 2390.65 1466.61 Q2390.65 1475.33 2387.57 1479.94 Q2384.51 1484.52 2378.7 1484.52 Q2372.89 1484.52 2369.82 1479.94 Q2366.76 1475.33 2366.76 1466.61 Q2366.76 1457.86 2369.82 1453.27 Q2372.89 1448.67 2378.7 1448.67 Z" fill="#000000" fill-rule="evenodd" fill-opacity="1" /><path clip-path="url(#clip970)" d="M 0 0 M1312.06 1520.4 L1299.17 1537.74 L1312.73 1556.04 L1305.82 1556.04 L1295.44 1542.04 L1285.07 1556.04 L1278.16 1556.04 L1292.01 1537.39 L1279.34 1520.4 L1286.24 1520.4 L1295.7 1533.1 L1305.15 1520.4 L1312.06 1520.4 Z" fill="#000000" fill-rule="evenodd" fill-opacity="1" /><polyline clip-path="url(#clip972)" style="stroke:#000000; stroke-width:2; stroke-opacity:0.1; fill:none" points="
  238.13,1289.4 2352.76,1289.4 
  "/>
<polyline clip-path="url(#clip972)" style="stroke:#000000; stroke-width:2; stroke-opacity:0.1; fill:none" points="
  238.13,1009.57 2352.76,1009.57 
  "/>
<polyline clip-path="url(#clip972)" style="stroke:#000000; stroke-width:2; stroke-opacity:0.1; fill:none" points="
  238.13,729.746 2352.76,729.746 
  "/>
<polyline clip-path="url(#clip972)" style="stroke:#000000; stroke-width:2; stroke-opacity:0.1; fill:none" points="
  238.13,449.921 2352.76,449.921 
  "/>
<polyline clip-path="url(#clip972)" style="stroke:#000000; stroke-width:2; stroke-opacity:0.1; fill:none" points="
  238.13,170.096 2352.76,170.096 
  "/>
<polyline clip-path="url(#clip970)" style="stroke:#000000; stroke-width:4; stroke-opacity:1; fill:none" points="
  238.13,1423.18 238.13,47.2441 
  "/>
<polyline clip-path="url(#clip970)" style="stroke:#000000; stroke-width:4; stroke-opacity:1; fill:none" points="
  238.13,1289.4 263.506,1289.4 
  "/>
<polyline clip-path="url(#clip970)" style="stroke:#000000; stroke-width:4; stroke-opacity:1; fill:none" points="
  238.13,1009.57 263.506,1009.57 
  "/>
<polyline clip-path="url(#clip970)" style="stroke:#000000; stroke-width:4; stroke-opacity:1; fill:none" points="
  238.13,729.746 263.506,729.746 
  "/>
<polyline clip-path="url(#clip970)" style="stroke:#000000; stroke-width:4; stroke-opacity:1; fill:none" points="
  238.13,449.921 263.506,449.921 
  "/>
<polyline clip-path="url(#clip970)" style="stroke:#000000; stroke-width:4; stroke-opacity:1; fill:none" points="
  238.13,170.096 263.506,170.096 
  "/>
<path clip-path="url(#clip970)" d="M 0 0 M126.205 1275.19 Q122.593 1275.19 120.765 1278.76 Q118.959 1282.3 118.959 1289.43 Q118.959 1296.54 120.765 1300.1 Q122.593 1303.64 126.205 1303.64 Q129.839 1303.64 131.644 1300.1 Q133.473 1296.54 133.473 1289.43 Q133.473 1282.3 131.644 1278.76 Q129.839 1275.19 126.205 1275.19 M126.205 1271.49 Q132.015 1271.49 135.07 1276.1 Q138.149 1280.68 138.149 1289.43 Q138.149 1298.16 135.07 1302.76 Q132.015 1307.35 126.205 1307.35 Q120.394 1307.35 117.316 1302.76 Q114.26 1298.16 114.26 1289.43 Q114.26 1280.68 117.316 1276.1 Q120.394 1271.49 126.205 1271.49 Z" fill="#000000" fill-rule="evenodd" fill-opacity="1" /><path clip-path="url(#clip970)" d="M 0 0 M143.218 1300.8 L148.103 1300.8 L148.103 1306.68 L143.218 1306.68 L143.218 1300.8 Z" fill="#000000" fill-rule="evenodd" fill-opacity="1" /><path clip-path="url(#clip970)" d="M 0 0 M163.172 1275.19 Q159.561 1275.19 157.732 1278.76 Q155.927 1282.3 155.927 1289.43 Q155.927 1296.54 157.732 1300.1 Q159.561 1303.64 163.172 1303.64 Q166.806 1303.64 168.612 1300.1 Q170.44 1296.54 170.44 1289.43 Q170.44 1282.3 168.612 1278.76 Q166.806 1275.19 163.172 1275.19 M163.172 1271.49 Q168.982 1271.49 172.038 1276.1 Q175.116 1280.68 175.116 1289.43 Q175.116 1298.16 172.038 1302.76 Q168.982 1307.35 163.172 1307.35 Q157.362 1307.35 154.283 1302.76 Q151.228 1298.16 151.228 1289.43 Q151.228 1280.68 154.283 1276.1 Q157.362 1271.49 163.172 1271.49 Z" fill="#000000" fill-rule="evenodd" fill-opacity="1" /><path clip-path="url(#clip970)" d="M 0 0 M190.186 1275.19 Q186.575 1275.19 184.746 1278.76 Q182.94 1282.3 182.94 1289.43 Q182.94 1296.54 184.746 1300.1 Q186.575 1303.64 190.186 1303.64 Q193.82 1303.64 195.625 1300.1 Q197.454 1296.54 197.454 1289.43 Q197.454 1282.3 195.625 1278.76 Q193.82 1275.19 190.186 1275.19 M190.186 1271.49 Q195.996 1271.49 199.051 1276.1 Q202.13 1280.68 202.13 1289.43 Q202.13 1298.16 199.051 1302.76 Q195.996 1307.35 190.186 1307.35 Q184.376 1307.35 181.297 1302.76 Q178.241 1298.16 178.241 1289.43 Q178.241 1280.68 181.297 1276.1 Q184.376 1271.49 190.186 1271.49 Z" fill="#000000" fill-rule="evenodd" fill-opacity="1" /><path clip-path="url(#clip970)" d="M 0 0 M128.797 995.369 Q125.186 995.369 123.357 998.934 Q121.552 1002.48 121.552 1009.61 Q121.552 1016.71 123.357 1020.28 Q125.186 1023.82 128.797 1023.82 Q132.431 1023.82 134.237 1020.28 Q136.066 1016.71 136.066 1009.61 Q136.066 1002.48 134.237 998.934 Q132.431 995.369 128.797 995.369 M128.797 991.665 Q134.607 991.665 137.663 996.272 Q140.741 1000.86 140.741 1009.61 Q140.741 1018.33 137.663 1022.94 Q134.607 1027.52 128.797 1027.52 Q122.987 1027.52 119.908 1022.94 Q116.853 1018.33 116.853 1009.61 Q116.853 1000.86 119.908 996.272 Q122.987 991.665 128.797 991.665 Z" fill="#000000" fill-rule="evenodd" fill-opacity="1" /><path clip-path="url(#clip970)" d="M 0 0 M145.811 1020.97 L150.695 1020.97 L150.695 1026.85 L145.811 1026.85 L145.811 1020.97 Z" fill="#000000" fill-rule="evenodd" fill-opacity="1" /><path clip-path="url(#clip970)" d="M 0 0 M159.792 1022.92 L176.112 1022.92 L176.112 1026.85 L154.167 1026.85 L154.167 1022.92 Q156.829 1020.16 161.413 1015.53 Q166.019 1010.88 167.2 1009.54 Q169.445 1007.01 170.325 1005.28 Q171.227 1003.52 171.227 1001.83 Q171.227 999.073 169.283 997.337 Q167.362 995.601 164.26 995.601 Q162.061 995.601 159.607 996.364 Q157.177 997.128 154.399 998.679 L154.399 993.957 Q157.223 992.823 159.677 992.244 Q162.13 991.665 164.167 991.665 Q169.538 991.665 172.732 994.351 Q175.926 997.036 175.926 1001.53 Q175.926 1003.66 175.116 1005.58 Q174.329 1007.48 172.223 1010.07 Q171.644 1010.74 168.542 1013.96 Q165.44 1017.15 159.792 1022.92 Z" fill="#000000" fill-rule="evenodd" fill-opacity="1" /><path clip-path="url(#clip970)" d="M 0 0 M181.227 992.29 L199.584 992.29 L199.584 996.226 L185.51 996.226 L185.51 1004.7 Q186.528 1004.35 187.547 1004.19 Q188.565 1004 189.584 1004 Q195.371 1004 198.75 1007.17 Q202.13 1010.35 202.13 1015.76 Q202.13 1021.34 198.658 1024.44 Q195.186 1027.52 188.866 1027.52 Q186.69 1027.52 184.422 1027.15 Q182.176 1026.78 179.769 1026.04 L179.769 1021.34 Q181.852 1022.48 184.075 1023.03 Q186.297 1023.59 188.774 1023.59 Q192.778 1023.59 195.116 1021.48 Q197.454 1019.37 197.454 1015.76 Q197.454 1012.15 195.116 1010.04 Q192.778 1007.94 188.774 1007.94 Q186.899 1007.94 185.024 1008.36 Q183.172 1008.77 181.227 1009.65 L181.227 992.29 Z" fill="#000000" fill-rule="evenodd" fill-opacity="1" /><path clip-path="url(#clip970)" d="M 0 0 M127.2 715.544 Q123.589 715.544 121.76 719.109 Q119.955 722.651 119.955 729.78 Q119.955 736.887 121.76 740.451 Q123.589 743.993 127.2 743.993 Q130.834 743.993 132.64 740.451 Q134.468 736.887 134.468 729.78 Q134.468 722.651 132.64 719.109 Q130.834 715.544 127.2 715.544 M127.2 711.841 Q133.01 711.841 136.066 716.447 Q139.144 721.03 139.144 729.78 Q139.144 738.507 136.066 743.114 Q133.01 747.697 127.2 747.697 Q121.39 747.697 118.311 743.114 Q115.256 738.507 115.256 729.78 Q115.256 721.03 118.311 716.447 Q121.39 711.841 127.2 711.841 Z" fill="#000000" fill-rule="evenodd" fill-opacity="1" /><path clip-path="url(#clip970)" d="M 0 0 M144.214 741.146 L149.098 741.146 L149.098 747.026 L144.214 747.026 L144.214 741.146 Z" fill="#000000" fill-rule="evenodd" fill-opacity="1" /><path clip-path="url(#clip970)" d="M 0 0 M154.214 712.466 L172.57 712.466 L172.57 716.401 L158.496 716.401 L158.496 724.873 Q159.515 724.526 160.533 724.364 Q161.552 724.178 162.57 724.178 Q168.357 724.178 171.737 727.35 Q175.116 730.521 175.116 735.938 Q175.116 741.516 171.644 744.618 Q168.172 747.697 161.852 747.697 Q159.677 747.697 157.408 747.326 Q155.163 746.956 152.755 746.215 L152.755 741.516 Q154.839 742.651 157.061 743.206 Q159.283 743.762 161.76 743.762 Q165.765 743.762 168.102 741.655 Q170.44 739.549 170.44 735.938 Q170.44 732.327 168.102 730.22 Q165.765 728.114 161.76 728.114 Q159.885 728.114 158.01 728.53 Q156.158 728.947 154.214 729.827 L154.214 712.466 Z" fill="#000000" fill-rule="evenodd" fill-opacity="1" /><path clip-path="url(#clip970)" d="M 0 0 M190.186 715.544 Q186.575 715.544 184.746 719.109 Q182.94 722.651 182.94 729.78 Q182.94 736.887 184.746 740.451 Q186.575 743.993 190.186 743.993 Q193.82 743.993 195.625 740.451 Q197.454 736.887 197.454 729.78 Q197.454 722.651 195.625 719.109 Q193.82 715.544 190.186 715.544 M190.186 711.841 Q195.996 711.841 199.051 716.447 Q202.13 721.03 202.13 729.78 Q202.13 738.507 199.051 743.114 Q195.996 747.697 190.186 747.697 Q184.376 747.697 181.297 743.114 Q178.241 738.507 178.241 729.78 Q178.241 721.03 181.297 716.447 Q184.376 711.841 190.186 711.841 Z" fill="#000000" fill-rule="evenodd" fill-opacity="1" /><path clip-path="url(#clip970)" d="M 0 0 M128.103 435.719 Q124.492 435.719 122.663 439.284 Q120.857 442.826 120.857 449.955 Q120.857 457.062 122.663 460.627 Q124.492 464.168 128.103 464.168 Q131.737 464.168 133.542 460.627 Q135.371 457.062 135.371 449.955 Q135.371 442.826 133.542 439.284 Q131.737 435.719 128.103 435.719 M128.103 432.016 Q133.913 432.016 136.968 436.622 Q140.047 441.205 140.047 449.955 Q140.047 458.682 136.968 463.289 Q133.913 467.872 128.103 467.872 Q122.293 467.872 119.214 463.289 Q116.158 458.682 116.158 449.955 Q116.158 441.205 119.214 436.622 Q122.293 432.016 128.103 432.016 Z" fill="#000000" fill-rule="evenodd" fill-opacity="1" /><path clip-path="url(#clip970)" d="M 0 0 M145.116 461.321 L150.001 461.321 L150.001 467.201 L145.116 467.201 L145.116 461.321 Z" fill="#000000" fill-rule="evenodd" fill-opacity="1" /><path clip-path="url(#clip970)" d="M 0 0 M153.89 432.641 L176.112 432.641 L176.112 434.631 L163.565 467.201 L158.681 467.201 L170.487 436.576 L153.89 436.576 L153.89 432.641 Z" fill="#000000" fill-rule="evenodd" fill-opacity="1" /><path clip-path="url(#clip970)" d="M 0 0 M181.227 432.641 L199.584 432.641 L199.584 436.576 L185.51 436.576 L185.51 445.048 Q186.528 444.701 187.547 444.539 Q188.565 444.354 189.584 444.354 Q195.371 444.354 198.75 447.525 Q202.13 450.696 202.13 456.113 Q202.13 461.691 198.658 464.793 Q195.186 467.872 188.866 467.872 Q186.69 467.872 184.422 467.502 Q182.176 467.131 179.769 466.39 L179.769 461.691 Q181.852 462.826 184.075 463.381 Q186.297 463.937 188.774 463.937 Q192.778 463.937 195.116 461.83 Q197.454 459.724 197.454 456.113 Q197.454 452.502 195.116 450.395 Q192.778 448.289 188.774 448.289 Q186.899 448.289 185.024 448.705 Q183.172 449.122 181.227 450.002 L181.227 432.641 Z" fill="#000000" fill-rule="evenodd" fill-opacity="1" /><path clip-path="url(#clip970)" d="M 0 0 M118.242 183.441 L125.88 183.441 L125.88 157.075 L117.57 158.742 L117.57 154.482 L125.834 152.816 L130.51 152.816 L130.51 183.441 L138.149 183.441 L138.149 187.376 L118.242 187.376 L118.242 183.441 Z" fill="#000000" fill-rule="evenodd" fill-opacity="1" /><path clip-path="url(#clip970)" d="M 0 0 M143.218 181.496 L148.103 181.496 L148.103 187.376 L143.218 187.376 L143.218 181.496 Z" fill="#000000" fill-rule="evenodd" fill-opacity="1" /><path clip-path="url(#clip970)" d="M 0 0 M163.172 155.894 Q159.561 155.894 157.732 159.459 Q155.927 163.001 155.927 170.131 Q155.927 177.237 157.732 180.802 Q159.561 184.343 163.172 184.343 Q166.806 184.343 168.612 180.802 Q170.44 177.237 170.44 170.131 Q170.44 163.001 168.612 159.459 Q166.806 155.894 163.172 155.894 M163.172 152.191 Q168.982 152.191 172.038 156.797 Q175.116 161.381 175.116 170.131 Q175.116 178.857 172.038 183.464 Q168.982 188.047 163.172 188.047 Q157.362 188.047 154.283 183.464 Q151.228 178.857 151.228 170.131 Q151.228 161.381 154.283 156.797 Q157.362 152.191 163.172 152.191 Z" fill="#000000" fill-rule="evenodd" fill-opacity="1" /><path clip-path="url(#clip970)" d="M 0 0 M190.186 155.894 Q186.575 155.894 184.746 159.459 Q182.94 163.001 182.94 170.131 Q182.94 177.237 184.746 180.802 Q186.575 184.343 190.186 184.343 Q193.82 184.343 195.625 180.802 Q197.454 177.237 197.454 170.131 Q197.454 163.001 195.625 159.459 Q193.82 155.894 190.186 155.894 M190.186 152.191 Q195.996 152.191 199.051 156.797 Q202.13 161.381 202.13 170.131 Q202.13 178.857 199.051 183.464 Q195.996 188.047 190.186 188.047 Q184.376 188.047 181.297 183.464 Q178.241 178.857 178.241 170.131 Q178.241 161.381 181.297 156.797 Q184.376 152.191 190.186 152.191 Z" fill="#000000" fill-rule="evenodd" fill-opacity="1" /><path clip-path="url(#clip970)" d="M 0 0 M70.212 745.095 Q76.6732 745.095 80.3653 742.453 Q84.0256 739.779 84.0256 735.132 Q84.0256 730.485 80.3653 727.812 Q76.6732 725.138 70.212 725.138 Q63.7508 725.138 60.0905 727.812 Q56.3984 730.485 56.3984 735.132 Q56.3984 739.779 60.0905 742.453 Q63.7508 745.095 70.212 745.095 M82.657 725.138 Q85.8398 726.984 87.3994 729.817 Q88.9272 732.618 88.9272 736.565 Q88.9272 743.026 83.771 747.1 Q78.6147 751.142 70.212 751.142 Q61.8093 751.142 56.6531 747.1 Q51.4968 743.026 51.4968 736.565 Q51.4968 732.618 53.0564 729.817 Q54.5842 726.984 57.7671 725.138 L52.3562 725.138 L52.3562 719.282 L101.563 719.282 L101.563 725.138 L82.657 725.138 Z" fill="#000000" fill-rule="evenodd" fill-opacity="1" /><polyline clip-path="url(#clip972)" style="stroke:#009af9; stroke-width:4; stroke-opacity:1; fill:none" points="
  238.13,1289.4 240.983,1289.4 246.39,1289.4 251.798,1289.4 254.651,1289.4 257.503,1289.4 262.911,1289.4 268.318,1289.4 271.171,1289.4 
  274.024,1289.4 279.431,1289.4 284.839,1289.4 287.692,1289.4 290.544,1289.4 295.952,1289.4 301.359,1289.4 304.212,1289.4 
  307.065,1289.4 312.472,1289.4 317.88,1289.4 320.733,1289.4 323.585,1289.4 328.993,1289.4 334.4,1289.4 337.253,1289.4 
  340.106,1289.4 345.513,1289.4 350.921,1289.4 353.774,1289.4 356.626,1289.4 362.034,1289.4 367.442,1289.4 370.294,1289.4 
  373.147,1289.4 378.554,1289.4 383.962,1289.4 386.815,1289.4 389.667,1289.4 395.075,1289.4 400.483,1289.4 403.335,1289.4 
  406.188,1289.4 411.595,1289.4 417.003,1289.4 419.856,1289.4 422.708,1289.4 428.116,1289.4 433.524,1289.4 436.376,1289.4 
  439.229,1289.4 444.636,1289.4 450.044,1289.4 452.897,1289.4 455.749,1289.4 461.157,1289.4 466.565,1289.4 469.417,1289.4 
  472.27,1289.4 477.678,1289.4 483.085,1289.4 485.938,1289.4 488.79,1289.4 494.198,1289.4 499.606,1289.4 502.458,1289.4 
  505.311,1289.4 510.719,1289.4 516.126,1289.4 518.979,1289.4 521.831,1289.4 527.239,1289.4 532.647,1289.4 535.499,1289.4 
  538.352,1289.4 543.76,1289.4 549.167,1289.4 552.02,1289.4 554.872,1289.4 560.28,1289.4 565.688,1289.4 568.54,1289.4 
  571.393,1289.4 576.801,1289.4 582.208,1289.4 585.061,1289.4 587.914,1289.4 593.321,1289.4 598.729,1289.4 601.581,1289.4 
  604.434,1289.4 609.842,1289.4 615.249,1289.4 618.102,1289.4 620.955,1289.4 626.362,1289.4 631.77,1289.4 634.622,1289.4 
  637.475,1289.4 642.883,1289.4 648.29,1289.4 651.143,1289.4 653.996,1289.4 659.403,1289.4 664.811,1289.4 667.663,1289.4 
  670.516,1289.4 675.924,1289.4 681.331,1289.4 684.184,1289.4 687.037,1289.4 692.444,170.096 697.852,170.096 700.704,170.096 
  703.557,170.096 708.965,170.096 714.372,170.096 717.225,170.096 720.078,170.096 725.485,170.096 730.893,170.096 733.745,170.096 
  736.598,170.096 742.006,170.096 747.413,170.096 750.266,170.096 753.119,170.096 758.526,170.096 763.934,170.096 766.787,170.096 
  769.639,170.096 775.047,170.096 780.454,170.096 783.307,170.096 786.16,170.096 791.567,170.096 796.975,170.096 799.828,170.096 
  802.68,170.096 808.088,170.096 813.495,170.096 816.348,170.096 819.201,170.096 824.608,170.096 830.016,170.096 832.869,170.096 
  835.721,170.096 841.129,170.096 846.536,170.096 849.389,170.096 852.242,170.096 857.649,170.096 863.057,170.096 865.91,170.096 
  868.762,170.096 874.17,170.096 879.577,170.096 882.43,170.096 885.283,170.096 890.69,170.096 896.098,170.096 898.951,170.096 
  901.803,170.096 907.211,170.096 912.618,170.096 915.471,170.096 918.324,170.096 923.731,170.096 929.139,170.096 931.992,170.096 
  934.844,170.096 940.252,170.096 945.66,170.096 948.512,170.096 951.365,170.096 956.772,170.096 962.18,170.096 965.033,170.096 
  967.885,170.096 973.293,170.096 978.701,170.096 981.553,170.096 984.406,170.096 989.813,170.096 995.221,1289.4 998.074,1289.4 
  1000.93,1289.4 1006.33,1289.4 1011.74,1289.4 1014.59,1289.4 1017.45,1289.4 1022.85,1289.4 1028.26,1289.4 1031.11,1289.4 
  1033.97,1289.4 1039.38,1289.4 1044.78,1289.4 1047.64,1289.4 1050.49,1289.4 1055.9,1289.4 1061.3,1289.4 1064.16,1289.4 
  1067.01,1289.4 1072.42,1289.4 1077.82,1289.4 1080.68,1289.4 1083.53,1289.4 1088.94,1289.4 1094.34,1289.4 1097.2,1289.4 
  1100.05,1289.4 1105.46,1289.4 1110.86,1289.4 1113.72,1289.4 1116.57,1289.4 1121.98,1289.4 1127.39,1289.4 1130.24,1289.4 
  1133.09,1289.4 1138.5,1289.4 1143.91,1289.4 1146.76,1289.4 1149.61,1289.4 1155.02,1289.4 1160.43,1289.4 1163.28,1289.4 
  1166.13,1289.4 1171.54,1289.4 1176.95,1289.4 1179.8,1289.4 1182.65,1289.4 1188.06,1289.4 1193.47,1289.4 1196.32,1289.4 
  1199.17,1289.4 1204.58,1289.4 1209.99,1289.4 1212.84,1289.4 1215.69,1289.4 1221.1,1289.4 1226.51,1289.4 1229.36,1289.4 
  1232.21,1289.4 1237.62,1289.4 1243.03,1289.4 1245.88,1289.4 1248.73,1289.4 1254.14,1289.4 1259.55,1289.4 1262.4,1289.4 
  1265.25,1289.4 1270.66,1289.4 1276.07,1289.4 1278.92,1289.4 1281.78,1289.4 1287.18,1289.4 1292.59,1289.4 1295.44,1289.4 
  1298.3,1289.4 1303.7,1289.4 1309.11,1289.4 1311.96,1289.4 1314.82,1289.4 1320.22,1289.4 1325.63,1289.4 1328.48,1289.4 
  1331.34,1289.4 1336.74,1289.4 1342.15,1289.4 1345,1289.4 1347.86,1289.4 1353.26,1289.4 1358.67,1289.4 1361.53,1289.4 
  1364.38,1289.4 1369.79,1289.4 1375.19,1289.4 1378.05,1289.4 1380.9,1289.4 1386.31,1289.4 1391.71,1289.4 1394.57,1289.4 
  1397.42,1289.4 1402.83,1289.4 1408.23,1289.4 1411.09,1289.4 1413.94,1289.4 1419.35,1289.4 1424.75,1289.4 1427.61,1289.4 
  1430.46,1289.4 1435.87,1289.4 1441.27,1289.4 1444.13,1289.4 1446.98,1289.4 1452.39,1289.4 1457.8,1289.4 1460.65,1289.4 
  1463.5,1289.4 1468.91,1289.4 1474.32,1289.4 1477.17,1289.4 1480.02,1289.4 1485.43,1289.4 1490.84,1289.4 1493.69,1289.4 
  1496.54,1289.4 1501.95,1289.4 1507.36,1289.4 1510.21,1289.4 1513.06,1289.4 1518.47,1289.4 1523.88,1289.4 1526.73,1289.4 
  1529.58,1289.4 1534.99,1289.4 1540.4,1289.4 1543.25,1289.4 1546.1,1289.4 1551.51,1289.4 1556.92,1289.4 1559.77,1289.4 
  1562.62,1289.4 1568.03,1289.4 1573.44,1289.4 1576.29,1289.4 1579.14,1289.4 1584.55,1289.4 1589.96,1289.4 1592.81,1289.4 
  1595.66,1289.4 1601.07,1289.4 1606.48,1289.4 1609.33,1289.4 1612.19,1289.4 1617.59,1289.4 1623,1289.4 1625.85,1289.4 
  1628.71,1289.4 1634.11,1289.4 1639.52,1289.4 1642.37,1289.4 1645.23,1289.4 1650.63,1289.4 1656.04,1289.4 1658.89,1289.4 
  1661.75,1289.4 1667.15,1289.4 1672.56,1289.4 1675.41,1289.4 1678.27,1289.4 1683.68,1289.4 1689.08,1289.4 1691.94,1289.4 
  1694.79,1289.4 1700.2,1289.4 1705.6,1289.4 1708.46,1289.4 1711.31,1289.4 1716.72,1289.4 1722.12,1289.4 1724.98,1289.4 
  1727.83,1289.4 1733.24,1289.4 1738.64,1289.4 1741.5,1289.4 1744.35,1289.4 1749.76,1289.4 1755.16,1289.4 1758.02,1289.4 
  1760.87,1289.4 1766.28,1289.4 1771.69,1289.4 1774.54,1289.4 1777.39,1289.4 1782.8,1289.4 1788.21,1289.4 1791.06,1289.4 
  1793.91,1289.4 1799.32,1289.4 1804.73,1289.4 1807.58,1289.4 1810.43,1289.4 1815.84,1289.4 1821.25,1289.4 1824.1,1289.4 
  1826.95,1289.4 1832.36,1289.4 1837.77,1289.4 1840.62,1289.4 1843.47,1289.4 1848.88,1289.4 1854.29,1289.4 1857.14,1289.4 
  1859.99,1289.4 1865.4,1289.4 1870.81,1289.4 1873.66,1289.4 1876.51,1289.4 1881.92,1289.4 1887.33,1289.4 1890.18,1289.4 
  1893.03,1289.4 1898.44,1289.4 1903.85,1289.4 1906.7,1289.4 1909.55,1289.4 1914.96,1289.4 1920.37,1289.4 1923.22,1289.4 
  1926.08,1289.4 1931.48,1289.4 1936.89,1289.4 1939.74,1289.4 1942.6,1289.4 1948,1289.4 1953.41,1289.4 1956.26,1289.4 
  1959.12,1289.4 1964.52,1289.4 1969.93,1289.4 1972.78,1289.4 1975.64,1289.4 1981.04,1289.4 1986.45,1289.4 1989.3,1289.4 
  1992.16,1289.4 1997.56,1289.4 2002.97,1289.4 2005.83,1289.4 2008.68,1289.4 2014.09,1289.4 2019.49,1289.4 2022.35,1289.4 
  2025.2,1289.4 2030.61,1289.4 2036.01,1289.4 2038.87,1289.4 2041.72,1289.4 2047.13,1289.4 2052.53,1289.4 2055.39,1289.4 
  2058.24,1289.4 2063.65,1289.4 2069.05,1289.4 2071.91,1289.4 2074.76,1289.4 2080.17,1289.4 2085.58,1289.4 2088.43,1289.4 
  2091.28,1289.4 2096.69,1289.4 2102.1,1289.4 2104.95,1289.4 2107.8,1289.4 2113.21,1289.4 2118.62,1289.4 2121.47,1289.4 
  2124.32,1289.4 2129.73,1289.4 2135.14,1289.4 2137.99,1289.4 2140.84,1289.4 2146.25,1289.4 2151.66,1289.4 2154.51,1289.4 
  2157.36,1289.4 2162.77,1289.4 2168.18,1289.4 2171.03,1289.4 2173.88,1289.4 2179.29,1289.4 2184.7,1289.4 2187.55,1289.4 
  2190.4,1289.4 2195.81,1289.4 2201.22,1289.4 2204.07,1289.4 2206.92,1289.4 2212.33,1289.4 2217.74,1289.4 2220.59,1289.4 
  2223.44,1289.4 2228.85,1289.4 2234.26,1289.4 2237.11,1289.4 2239.96,1289.4 2245.37,1289.4 2250.78,1289.4 2253.63,1289.4 
  2256.49,1289.4 2261.89,1289.4 2267.3,1289.4 2270.15,1289.4 2273.01,1289.4 2278.41,1289.4 2283.82,1289.4 2286.67,1289.4 
  2289.53,1289.4 2294.93,1289.4 2300.34,1289.4 2303.19,1289.4 2306.05,1289.4 2311.45,1289.4 2316.86,1289.4 2319.71,1289.4 
  2322.57,1289.4 2327.98,1289.4 2333.38,1289.4 2336.24,1289.4 2339.09,1289.4 2344.5,1289.4 2349.9,1289.4 2352.76,1289.4 
  
  "/>
<polyline clip-path="url(#clip972)" style="stroke:#e26f46; stroke-width:4; stroke-opacity:1; fill:none" points="
  238.13,1289.4 240.983,1289.4 246.39,1289.4 251.798,1289.4 254.651,1289.4 257.503,1289.4 262.911,1289.4 268.318,1289.4 271.171,1289.4 
  274.024,1289.4 279.431,1289.4 284.839,1289.4 287.692,1289.4 290.544,1289.4 295.952,1289.4 301.359,1289.4 304.212,1289.4 
  307.065,1289.4 312.472,1289.4 317.88,1289.4 320.733,1289.4 323.585,1289.4 328.993,1289.4 334.4,1289.4 337.253,1289.4 
  340.106,1289.4 345.513,1289.4 350.921,1289.4 353.774,1289.4 356.626,1289.4 362.034,1289.4 367.442,1289.4 370.294,1289.4 
  373.147,1289.4 378.554,1289.4 383.962,1289.4 386.815,1289.4 389.667,1289.4 395.075,1289.4 400.483,1289.4 403.335,1289.4 
  406.188,1289.4 411.595,1289.4 417.003,1289.4 419.856,1289.4 422.708,1289.4 428.116,1289.4 433.524,1289.4 436.376,1289.4 
  439.229,1289.4 444.636,1289.4 450.044,1289.4 452.897,1289.4 455.749,1289.4 461.157,1289.4 466.565,1289.4 469.417,1289.4 
  472.27,1289.4 477.678,1289.4 483.085,1289.4 485.938,1289.4 488.79,1289.4 494.198,1289.4 499.606,1289.4 502.458,1289.4 
  505.311,1289.4 510.719,1289.4 516.126,1289.4 518.979,1289.4 521.831,1289.4 527.239,1289.4 532.647,1289.4 535.499,1289.4 
  538.352,1289.4 543.76,1289.4 549.167,1289.4 552.02,1289.4 554.872,1289.4 560.28,1289.4 565.688,1289.4 568.54,1289.4 
  571.393,1289.4 576.801,1289.4 582.208,1289.4 585.061,1289.4 587.914,1289.4 593.321,1289.4 598.729,1289.4 601.581,1289.4 
  604.434,1289.4 609.842,1289.4 615.249,1289.4 618.102,1289.4 620.955,1289.4 626.362,1289.4 631.77,1289.4 634.622,1289.4 
  637.475,1289.4 642.883,1289.4 648.29,1289.4 651.143,1289.4 653.996,1289.4 659.403,1289.4 664.811,1289.4 667.663,1289.4 
  670.516,1289.4 675.924,1289.4 681.331,1289.4 684.184,1289.4 687.037,1289.4 692.444,1289.4 697.852,1289.4 700.704,1289.4 
  700.704,1289.4 703.557,1289.4 708.965,1289.4 714.372,1289.4 717.225,1289.4 717.225,1289.4 720.078,1289.4 725.485,1289.4 730.893,1289.4 733.745,1289.4 
  733.745,1289.4 736.598,1289.4 742.006,1289.4 747.413,1289.4 750.266,1289.4 750.266,1289.4 753.119,1289.4 758.526,1289.4 763.934,1289.4 766.787,1289.4 
  766.787,1289.4 769.639,1289.4 775.047,1289.4 780.454,1289.4 783.307,1289.4 783.307,1289.4 786.16,1289.4 791.567,1289.4 796.975,1289.4 799.828,1289.4 
  799.828,1289.4 802.68,1289.4 808.088,1289.4 813.495,1289.4 816.348,1289.4 816.348,1289.4 819.201,1289.4 824.608,1289.4 830.016,1289.4 832.869,1289.4 
  832.869,1289.4 835.721,1289.4 841.129,1289.4 846.536,1289.4 849.389,1289.4 849.389,1289.4 852.242,1289.4 857.649,1289.4 863.057,1289.4 865.91,1289.4 
  865.91,1289.4 868.762,1289.4 874.17,1289.4 879.577,1289.4 882.43,1289.4 882.43,1289.4 885.283,1289.4 890.69,1289.4 896.098,1289.4 898.951,1289.4 
  898.951,1289.4 901.803,1289.4 907.211,1289.4 912.618,1289.4 915.471,1289.4 915.471,1289.4 918.324,1289.4 923.731,1289.4 929.139,1289.4 931.992,1289.4 
  931.992,1289.4 934.844,1289.4 940.252,1289.4 945.66,1289.4 948.512,1289.4 948.512,1289.4 951.365,1289.4 956.772,1289.4 962.18,1289.4 965.033,1289.4 
  965.033,1289.4 967.885,1289.4 973.293,1289.4 978.701,1289.4 981.553,1289.4 981.553,1289.4 984.406,1289.4 989.813,1289.4 995.221,1289.4 998.074,1289.4 
  998.074,1289.4 1000.93,1289.4 1006.33,1289.4 1011.74,1289.4 1014.59,1289.4 1014.59,1289.4 1017.45,1289.4 1022.85,1289.4 1028.26,1289.4 1031.11,1289.4 
  1031.11,1289.39 1033.97,1289.4 1039.38,1289.4 1044.78,1289.4 1047.64,1289.4 1047.64,1289.4 1050.49,1289.4 1055.9,1289.4 1061.3,1289.39 1064.16,1289.39 
  1064.16,1289.39 1067.01,1289.39 1072.42,1289.39 1077.82,1289.4 1080.68,1289.4 1080.68,1289.4 1083.53,1289.4 1088.94,1289.4 1094.34,1289.4 1097.2,1289.39 
  1097.2,1289.4 1100.05,1289.39 1105.46,1289.38 1110.86,1289.37 1113.72,1289.38 1113.72,1289.37 1116.57,1289.39 1121.98,1289.42 1127.39,1289.45 1130.24,1289.47 
  1130.24,1289.47 1133.09,1289.46 1138.5,1289.4 1143.91,1289.31 1146.76,1289.24 1146.76,1289.26 1149.61,1289.2 1155.02,1289.21 1160.43,1289.37 1163.28,1289.52 
  1163.28,1289.44 1166.13,1289.7 1171.54,1289.98 1176.95,1289.95 1179.8,1289.81 1179.8,1289.96 1182.65,1289.43 1188.06,1288.53 1193.47,1287.75 1196.32,1287.38 
  1196.32,1287.37 1199.17,1287.61 1204.58,1288.91 1209.99,1291.33 1212.84,1293.06 1212.84,1292.42 1215.69,1294.34 1221.1,1295.16 1226.51,1292.31 1229.36,1289.32 
  1229.36,1290.83 1232.21,1284.69 1237.62,1275.76 1243.03,1270.4 1245.88,1269.01 1245.88,1268.44 1248.73,1273.74 1254.14,1291.11 1259.55,1318.02 1262.4,1336.05 
  1262.4,1328.87 1265.25,1350.84 1270.66,1362.32 1276.07,1334.22 1278.92,1303.43 1278.92,1305.74 1281.78,1247.2 1287.18,1099.81 1292.59,904.809 1295.44,782.786 
  1295.44,794.305 1298.3,662.806 1303.7,444.477 1309.11,266.745 1311.96,189.376 1311.96,187.612 1314.82,140.483 1320.22,88.7489 1325.63,86.1857 1328.48,104.618 
  1328.48,97.792 1331.34,122.301 1336.74,160.398 1342.15,187.516 1345,197.385 1345,198.605 1347.86,198.023 1353.26,192.17 1358.67,180.128 1361.53,171.294 
  1361.53,172.153 1364.38,166.768 1369.79,161.096 1375.19,161.352 1378.05,163.873 1378.05,163.135 1380.9,166.348 1386.31,170.847 1391.71,173.259 1394.57,173.69 
  1394.57,173.945 1397.42,173.066 1402.83,171.424 1408.23,169.818 1411.09,168.986 1411.09,168.971 1413.94,168.894 1419.35,169.065 1424.75,169.652 1427.61,170.127 
  1427.61,170.096 1430.46,170.308 1435.87,170.505 1441.27,170.435 1444.13,170.291 1444.13,170.291 1446.98,170.225 1452.39,170.139 1457.8,170.108 1460.65,170.112 
  1460.65,170.151 1463.5,170.044 1468.91,169.832 1474.32,169.609 1477.17,169.487 1477.17,169.478 1480.02,169.55 1485.43,169.989 1490.84,170.822 1493.69,171.42 
  1493.69,171.206 1496.54,171.831 1501.95,171.997 1507.36,170.827 1510.21,169.671 1510.21,170.314 1513.06,168.059 1518.47,165.213 1523.88,164.247 1526.73,164.498 
  1526.73,163.923 1529.58,166.939 1534.99,173.986 1540.4,182.763 1543.25,188.086 1543.25,186.686 1546.1,190.188 1551.51,187.204 1556.92,171.613 1559.77,158.305 
  1559.77,164.091 1562.62,140.839 1568.03,110.476 1573.44,98.1363 1576.29,98.913 1576.29,102.018 1579.14,120.626 1584.55,201.478 1589.96,341.995 1592.81,440.156 
  1592.81,429.186 1595.66,551.799 1601.07,777.794 1606.48,995.256 1609.33,1106.49 1609.33,1102.41 1612.19,1191.36 1617.59,1312.29 1623,1370.8 1625.85,1376.52 
  1625.85,1384.24 1628.71,1370.46 1634.11,1339.75 1639.52,1303.12 1642.37,1281.43 1642.37,1282.68 1645.23,1271.59 1650.63,1261.48 1656.04,1265.61 1658.89,1273.52 
  1658.89,1271.62 1661.75,1280.22 1667.15,1292.15 1672.56,1298.35 1675.41,1299.3 1675.41,1300.02 1678.27,1297.77 1683.68,1293.46 1689.08,1289.06 1691.94,1286.71 
  1691.94,1286.71 1694.79,1286.22 1700.2,1286.34 1705.6,1287.81 1708.46,1289.13 1708.46,1288.98 1711.31,1289.78 1716.72,1290.61 1722.12,1290.53 1724.98,1290.12 
  1724.98,1290.22 1727.83,1289.75 1733.24,1289.14 1738.64,1288.91 1741.5,1288.93 1741.5,1288.89 1744.35,1289.07 1749.76,1289.35 1755.16,1289.54 1758.02,1289.6 
  1758.02,1289.61 1760.87,1289.57 1766.28,1289.48 1771.69,1289.38 1774.54,1289.32 1774.54,1289.32 1777.39,1289.32 1782.8,1289.34 1788.21,1289.38 1791.06,1289.41 
  1791.06,1289.41 1793.91,1289.42 1799.32,1289.42 1804.73,1289.41 1807.58,1289.4 1807.58,1289.4 1810.43,1289.39 1815.84,1289.38 1821.25,1289.39 1824.1,1289.39 
  1824.1,1289.39 1826.95,1289.4 1832.36,1289.4 1837.77,1289.4 1840.62,1289.4 1840.62,1289.4 1843.47,1289.4 1848.88,1289.39 1854.29,1289.39 1857.14,1289.39 
  1857.14,1289.39 1859.99,1289.39 1865.4,1289.4 1870.81,1289.4 1873.66,1289.4 1873.66,1289.4 1876.51,1289.4 1881.92,1289.4 1887.33,1289.39 1890.18,1289.39 
  1890.18,1289.39 1893.03,1289.4 1898.44,1289.4 1903.85,1289.4 1906.7,1289.4 1906.7,1289.4 1909.55,1289.4 1914.96,1289.4 1920.37,1289.4 1923.22,1289.4 
  1923.22,1289.4 1926.08,1289.4 1931.48,1289.4 1936.89,1289.4 1939.74,1289.4 1939.74,1289.4 1942.6,1289.4 1948,1289.4 1953.41,1289.4 1956.26,1289.4 
  1956.26,1289.4 1959.12,1289.4 1964.52,1289.4 1969.93,1289.4 1972.78,1289.4 1972.78,1289.4 1975.64,1289.4 1981.04,1289.4 1986.45,1289.4 1989.3,1289.4 
  1989.3,1289.4 1992.16,1289.4 1997.56,1289.4 2002.97,1289.4 2005.83,1289.4 2005.83,1289.4 2008.68,1289.4 2014.09,1289.4 2019.49,1289.4 2022.35,1289.4 
  2022.35,1289.4 2025.2,1289.4 2030.61,1289.4 2036.01,1289.4 2038.87,1289.4 2038.87,1289.4 2041.72,1289.4 2047.13,1289.4 2052.53,1289.4 2055.39,1289.4 
  2055.39,1289.4 2058.24,1289.4 2063.65,1289.4 2069.05,1289.4 2071.91,1289.4 2071.91,1289.4 2074.76,1289.4 2080.17,1289.4 2085.58,1289.4 2088.43,1289.4 
  2088.43,1289.4 2091.28,1289.4 2096.69,1289.4 2102.1,1289.4 2104.95,1289.4 2104.95,1289.4 2107.8,1289.4 2113.21,1289.4 2118.62,1289.4 2121.47,1289.4 
  2121.47,1289.4 2124.32,1289.4 2129.73,1289.4 2135.14,1289.4 2137.99,1289.4 2137.99,1289.4 2140.84,1289.4 2146.25,1289.4 2151.66,1289.4 2154.51,1289.4 
  2154.51,1289.4 2157.36,1289.4 2162.77,1289.4 2168.18,1289.4 2171.03,1289.4 2171.03,1289.4 2173.88,1289.4 2179.29,1289.4 2184.7,1289.4 2187.55,1289.4 
  2187.55,1289.4 2190.4,1289.4 2195.81,1289.4 2201.22,1289.4 2204.07,1289.4 2204.07,1289.4 2206.92,1289.4 2212.33,1289.4 2217.74,1289.4 2220.59,1289.4 
  2223.44,1289.4 2228.85,1289.4 2234.26,1289.4 2237.11,1289.4 2237.11,1289.4 2239.96,1289.4 2245.37,1289.4 2250.78,1289.4 2253.63,1289.4 
  2256.49,1289.4 2261.89,1289.4 2267.3,1289.4 2270.15,1289.4 2273.01,1289.4 2278.41,1289.4 2283.82,1289.4 2286.67,1289.4 
  2289.53,1289.4 2294.93,1289.4 2300.34,1289.4 2303.19,1289.4 2306.05,1289.4 2311.45,1289.4 2316.86,1289.4 2319.71,1289.4 
  2322.57,1289.4 2327.98,1289.4 2333.38,1289.4 2336.24,1289.4 2339.09,1289.4 2344.5,1289.4 2349.9,1289.4 2352.76,1289.4 
  
  "/>
<path clip-path="url(#clip970)" d="
M1786.57 274.549 L2282.27 274.549 L2282.27 93.1086 L1786.57 93.1086  Z
  " fill="#ffffff" fill-rule="evenodd" fill-opacity="1"/>
<polyline clip-path="url(#clip970)" style="stroke:#000000; stroke-width:4; stroke-opacity:1; fill:none" points="
  1786.57,274.549 2282.27,274.549 2282.27,93.1086 1786.57,93.1086 1786.57,274.549 
  "/>
<polyline clip-path="url(#clip970)" style="stroke:#009af9; stroke-width:4; stroke-opacity:1; fill:none" points="
  1810.07,153.589 1951.04,153.589 
  "/>
<path clip-path="url(#clip970)" d="M 0 0 M1981.94 137.582 L1981.94 144.943 L1990.72 144.943 L1990.72 148.253 L1981.94 148.253 L1981.94 162.327 Q1981.94 165.498 1982.8 166.401 Q1983.68 167.304 1986.34 167.304 L1990.72 167.304 L1990.72 170.869 L1986.34 170.869 Q1981.41 170.869 1979.54 169.04 Q1977.66 167.188 1977.66 162.327 L1977.66 148.253 L1974.54 148.253 L1974.54 144.943 L1977.66 144.943 L1977.66 137.582 L1981.94 137.582 Z" fill="#000000" fill-rule="evenodd" fill-opacity="1" /><path clip-path="url(#clip970)" d="M 0 0 M1995.74 149.341 L2025.42 149.341 L2025.42 153.23 L1995.74 153.23 L1995.74 149.341 M1995.74 158.785 L2025.42 158.785 L2025.42 162.721 L1995.74 162.721 L1995.74 158.785 Z" fill="#000000" fill-rule="evenodd" fill-opacity="1" /><path clip-path="url(#clip970)" d="M 0 0 M2040.49 139.387 Q2036.87 139.387 2035.05 142.952 Q2033.24 146.494 2033.24 153.623 Q2033.24 160.73 2035.05 164.295 Q2036.87 167.836 2040.49 167.836 Q2044.12 167.836 2045.93 164.295 Q2047.75 160.73 2047.75 153.623 Q2047.75 146.494 2045.93 142.952 Q2044.12 139.387 2040.49 139.387 M2040.49 135.684 Q2046.3 135.684 2049.35 140.29 Q2052.43 144.873 2052.43 153.623 Q2052.43 162.35 2049.35 166.957 Q2046.3 171.54 2040.49 171.54 Q2034.68 171.54 2031.6 166.957 Q2028.54 162.35 2028.54 153.623 Q2028.54 144.873 2031.6 140.29 Q2034.68 135.684 2040.49 135.684 Z" fill="#000000" fill-rule="evenodd" fill-opacity="1" /><path clip-path="url(#clip970)" d="M 0 0 M2057.5 164.989 L2062.38 164.989 L2062.38 170.869 L2057.5 170.869 L2057.5 164.989 Z" fill="#000000" fill-rule="evenodd" fill-opacity="1" /><path clip-path="url(#clip970)" d="M 0 0 M2077.45 139.387 Q2073.84 139.387 2072.01 142.952 Q2070.21 146.494 2070.21 153.623 Q2070.21 160.73 2072.01 164.295 Q2073.84 167.836 2077.45 167.836 Q2081.09 167.836 2082.89 164.295 Q2084.72 160.73 2084.72 153.623 Q2084.72 146.494 2082.89 142.952 Q2081.09 139.387 2077.45 139.387 M2077.45 135.684 Q2083.26 135.684 2086.32 140.29 Q2089.4 144.873 2089.4 153.623 Q2089.4 162.35 2086.32 166.957 Q2083.26 171.54 2077.45 171.54 Q2071.64 171.54 2068.56 166.957 Q2065.51 162.35 2065.51 153.623 Q2065.51 144.873 2068.56 140.29 Q2071.64 135.684 2077.45 135.684 Z" fill="#000000" fill-rule="evenodd" fill-opacity="1" /><path clip-path="url(#clip970)" d="M 0 0 M2108.54 134.85 L2118.36 134.85 L2118.36 138.16 L2112.8 138.16 L2112.8 173.808 L2118.36 173.808 L2118.36 177.119 L2108.54 177.119 L2108.54 134.85 Z" fill="#000000" fill-rule="evenodd" fill-opacity="1" /><path clip-path="url(#clip970)" d="M 0 0 M2139.35 145.707 L2139.35 149.734 Q2137.55 148.809 2135.6 148.346 Q2133.66 147.883 2131.57 147.883 Q2128.4 147.883 2126.81 148.855 Q2125.23 149.827 2125.23 151.771 Q2125.23 153.253 2126.37 154.109 Q2127.5 154.943 2130.93 155.707 L2132.38 156.031 Q2136.92 157.003 2138.82 158.785 Q2140.74 160.545 2140.74 163.716 Q2140.74 167.327 2137.87 169.433 Q2135.02 171.54 2130.02 171.54 Q2127.94 171.54 2125.67 171.123 Q2123.43 170.73 2120.93 169.92 L2120.93 165.521 Q2123.29 166.748 2125.58 167.373 Q2127.87 167.975 2130.12 167.975 Q2133.12 167.975 2134.74 166.957 Q2136.37 165.915 2136.37 164.04 Q2136.37 162.304 2135.18 161.378 Q2134.03 160.452 2130.07 159.596 L2128.59 159.248 Q2124.63 158.415 2122.87 156.702 Q2121.11 154.966 2121.11 151.957 Q2121.11 148.299 2123.7 146.309 Q2126.3 144.318 2131.06 144.318 Q2133.43 144.318 2135.51 144.665 Q2137.59 145.012 2139.35 145.707 Z" fill="#000000" fill-rule="evenodd" fill-opacity="1" /><path clip-path="url(#clip970)" d="M 0 0 M2155.16 134.85 L2155.16 177.119 L2145.35 177.119 L2145.35 173.808 L2150.88 173.808 L2150.88 138.16 L2145.35 138.16 L2145.35 134.85 L2155.16 134.85 Z" fill="#000000" fill-rule="evenodd" fill-opacity="1" /><polyline clip-path="url(#clip970)" style="stroke:#e26f46; stroke-width:4; stroke-opacity:1; fill:none" points="
  1810.07,214.069 1951.04,214.069 
  "/>
<path clip-path="url(#clip970)" d="M 0 0 M1981.94 198.062 L1981.94 205.423 L1990.72 205.423 L1990.72 208.733 L1981.94 208.733 L1981.94 222.807 Q1981.94 225.978 1982.8 226.881 Q1983.68 227.784 1986.34 227.784 L1990.72 227.784 L1990.72 231.349 L1986.34 231.349 Q1981.41 231.349 1979.54 229.52 Q1977.66 227.668 1977.66 222.807 L1977.66 208.733 L1974.54 208.733 L1974.54 205.423 L1977.66 205.423 L1977.66 198.062 L1981.94 198.062 Z" fill="#000000" fill-rule="evenodd" fill-opacity="1" /><path clip-path="url(#clip970)" d="M 0 0 M1995.74 209.821 L2025.42 209.821 L2025.42 213.71 L1995.74 213.71 L1995.74 209.821 M1995.74 219.265 L2025.42 219.265 L2025.42 223.201 L1995.74 223.201 L1995.74 219.265 Z" fill="#000000" fill-rule="evenodd" fill-opacity="1" /><path clip-path="url(#clip970)" d="M 0 0 M2043.33 200.863 L2031.53 219.312 L2043.33 219.312 L2043.33 200.863 M2042.11 196.789 L2047.99 196.789 L2047.99 219.312 L2052.92 219.312 L2052.92 223.201 L2047.99 223.201 L2047.99 231.349 L2043.33 231.349 L2043.33 223.201 L2027.73 223.201 L2027.73 218.687 L2042.11 196.789 Z" fill="#000000" fill-rule="evenodd" fill-opacity="1" /><path clip-path="url(#clip970)" d="M 0 0 M2058.03 196.789 L2076.39 196.789 L2076.39 200.724 L2062.31 200.724 L2062.31 209.196 Q2063.33 208.849 2064.35 208.687 Q2065.37 208.502 2066.39 208.502 Q2072.18 208.502 2075.56 211.673 Q2078.93 214.844 2078.93 220.261 Q2078.93 225.839 2075.46 228.941 Q2071.99 232.02 2065.67 232.02 Q2063.5 232.02 2061.23 231.65 Q2058.98 231.279 2056.57 230.538 L2056.57 225.839 Q2058.66 226.974 2060.88 227.529 Q2063.1 228.085 2065.58 228.085 Q2069.58 228.085 2071.92 225.978 Q2074.26 223.872 2074.26 220.261 Q2074.26 216.65 2071.92 214.543 Q2069.58 212.437 2065.58 212.437 Q2063.7 212.437 2061.83 212.853 Q2059.98 213.27 2058.03 214.15 L2058.03 196.789 Z" fill="#000000" fill-rule="evenodd" fill-opacity="1" /><path clip-path="url(#clip970)" d="M 0 0 M2094 199.867 Q2090.39 199.867 2088.56 203.432 Q2086.76 206.974 2086.76 214.103 Q2086.76 221.21 2088.56 224.775 Q2090.39 228.316 2094 228.316 Q2097.64 228.316 2099.44 224.775 Q2101.27 221.21 2101.27 214.103 Q2101.27 206.974 2099.44 203.432 Q2097.64 199.867 2094 199.867 M2094 196.164 Q2099.81 196.164 2102.87 200.77 Q2105.95 205.353 2105.95 214.103 Q2105.95 222.83 2102.87 227.437 Q2099.81 232.02 2094 232.02 Q2088.19 232.02 2085.12 227.437 Q2082.06 222.83 2082.06 214.103 Q2082.06 205.353 2085.12 200.77 Q2088.19 196.164 2094 196.164 Z" fill="#000000" fill-rule="evenodd" fill-opacity="1" /><path clip-path="url(#clip970)" d="M 0 0 M2111.02 225.469 L2115.9 225.469 L2115.9 231.349 L2111.02 231.349 L2111.02 225.469 Z" fill="#000000" fill-rule="evenodd" fill-opacity="1" /><path clip-path="url(#clip970)" d="M 0 0 M2133.82 200.863 L2122.01 219.312 L2133.82 219.312 L2133.82 200.863 M2132.59 196.789 L2138.47 196.789 L2138.47 219.312 L2143.4 219.312 L2143.4 223.201 L2138.47 223.201 L2138.47 231.349 L2133.82 231.349 L2133.82 223.201 L2118.22 223.201 L2118.22 218.687 L2132.59 196.789 Z" fill="#000000" fill-rule="evenodd" fill-opacity="1" /><path clip-path="url(#clip970)" d="M 0 0 M2147.29 196.789 L2169.51 196.789 L2169.51 198.779 L2156.97 231.349 L2152.08 231.349 L2163.89 200.724 L2147.29 200.724 L2147.29 196.789 Z" fill="#000000" fill-rule="evenodd" fill-opacity="1" /><path clip-path="url(#clip970)" d="M 0 0 M2188.66 195.33 L2198.47 195.33 L2198.47 198.64 L2192.92 198.64 L2192.92 234.288 L2198.47 234.288 L2198.47 237.599 L2188.66 237.599 L2188.66 195.33 Z" fill="#000000" fill-rule="evenodd" fill-opacity="1" /><path clip-path="url(#clip970)" d="M 0 0 M2219.47 206.187 L2219.47 210.214 Q2217.66 209.289 2215.72 208.826 Q2213.77 208.363 2211.69 208.363 Q2208.52 208.363 2206.92 209.335 Q2205.35 210.307 2205.35 212.251 Q2205.35 213.733 2206.48 214.589 Q2207.61 215.423 2211.04 216.187 L2212.5 216.511 Q2217.04 217.483 2218.93 219.265 Q2220.86 221.025 2220.86 224.196 Q2220.86 227.807 2217.99 229.913 Q2215.14 232.02 2210.14 232.02 Q2208.05 232.02 2205.79 231.603 Q2203.54 231.21 2201.04 230.4 L2201.04 226.001 Q2203.4 227.228 2205.69 227.853 Q2207.99 228.455 2210.23 228.455 Q2213.24 228.455 2214.86 227.437 Q2216.48 226.395 2216.48 224.52 Q2216.48 222.784 2215.3 221.858 Q2214.14 220.932 2210.18 220.076 L2208.7 219.728 Q2204.74 218.895 2202.99 217.182 Q2201.23 215.446 2201.23 212.437 Q2201.23 208.779 2203.82 206.789 Q2206.41 204.798 2211.18 204.798 Q2213.54 204.798 2215.62 205.145 Q2217.71 205.492 2219.47 206.187 Z" fill="#000000" fill-rule="evenodd" fill-opacity="1" /><path clip-path="url(#clip970)" d="M 0 0 M2235.28 195.33 L2235.28 237.599 L2225.46 237.599 L2225.46 234.288 L2230.99 234.288 L2230.99 198.64 L2225.46 198.64 L2225.46 195.33 L2235.28 195.33 Z" fill="#000000" fill-rule="evenodd" fill-opacity="1" /></svg>
