<?xml version="1.0" encoding="utf-8"?>
<svg xmlns="http://www.w3.org/2000/svg" xmlns:xlink="http://www.w3.org/1999/xlink" width="600" height="400" viewBox="0 0 2400 1600">
<defs>
  <clipPath id="clip890">
    <rect x="0" y="0" width="2400" height="1600"/>
  </clipPath>
</defs>
<path clip-path="url(#clip890)" d="
M0 1600 L2400 1600 L2400 0 L0 0  Z
  " fill="#ffffff" fill-rule="evenodd" fill-opacity="1"/>
<defs>
  <clipPath id="clip891">
    <rect x="480" y="0" width="1681" height="1600"/>
  </clipPath>
</defs>
<path clip-path="url(#clip890)" d="
M199.218 1423.18 L1152.76 1423.18 L1152.76 123.472 L199.218 123.472  Z
  " fill="#ffffff" fill-rule="evenodd" fill-opacity="1"/>
<defs>
  <clipPath id="clip892">
    <rect x="199" y="123" width="955" height="1301"/>
  </clipPath>
</defs>
<polyline clip-path="url(#clip892)" style="stroke:#000000; stroke-width:2; stroke-opacity:0.1; fill:none" points="
  226.205,1423.18 226.205,123.472 
  "/>
<polyline clip-path="url(#clip892)" style="stroke:#000000; stroke-width:2; stroke-opacity:0.1; fill:none" points="
  451.096,1423.18 451.096,123.472 
  "/>
<polyline clip-path="url(#clip892)" style="stroke:#000000; stroke-width:2; stroke-opacity:0.1; fill:none" points="
  675.987,1423.18 675.987,123.472 
  "/>
<polyline clip-path="url(#clip892)" style="stroke:#000000; stroke-width:2; stroke-opacity:0.1; fill:none" points="
  900.878,1423.18 900.878,123.472 
  "/>
<polyline clip-path="url(#clip892)" style="stroke:#000000; stroke-width:2; stroke-opacity:0.1; fill:none" points="
  1125.77,1423.18 1125.77,123.472 
  "/>
<polyline clip-path="url(#clip892)" style="stroke:#000000; stroke-width:2; stroke-opacity:0.1; fill:none" points="
  199.218,1386.4 1152.76,1386.4 
  "/>
<polyline clip-path="url(#clip892)" style="stroke:#000000; stroke-width:2; stroke-opacity:0.1; fill:none" points="
  199.218,1141.17 1152.76,1141.17 
  "/>
<polyline clip-path="url(#clip892)" style="stroke:#000000; stroke-width:2; stroke-opacity:0.1; fill:none" points="
  199.218,895.94 1152.76,895.94 
  "/>
<polyline clip-path="url(#clip892)" style="stroke:#000000; stroke-width:2; stroke-opacity:0.1; fill:none" points="
  199.218,650.712 1152.76,650.712 
  "/>
<polyline clip-path="url(#clip892)" style="stroke:#000000; stroke-width:2; stroke-opacity:0.1; fill:none" points="
  199.218,405.484 1152.76,405.484 
  "/>
<polyline clip-path="url(#clip892)" style="stroke:#000000; stroke-width:2; stroke-opacity:0.1; fill:none" points="
  199.218,160.256 1152.76,160.256 
  "/>
<polyline clip-path="url(#clip890)" style="stroke:#000000; stroke-width:4; stroke-opacity:1; fill:none" points="
  199.218,1423.18 1152.76,1423.18 
  "/>
<polyline clip-path="url(#clip890)" style="stroke:#000000; stroke-width:4; stroke-opacity:1; fill:none" points="
  199.218,1423.18 199.218,123.472 
  "/>
<polyline clip-path="url(#clip890)" style="stroke:#000000; stroke-width:4; stroke-opacity:1; fill:none" points="
  226.205,1423.18 226.205,1407.58 
  "/>
<polyline clip-path="url(#clip890)" style="stroke:#000000; stroke-width:4; stroke-opacity:1; fill:none" points="
  451.096,1423.18 451.096,1407.58 
  "/>
<polyline clip-path="url(#clip890)" style="stroke:#000000; stroke-width:4; stroke-opacity:1; fill:none" points="
  675.987,1423.18 675.987,1407.58 
  "/>
<polyline clip-path="url(#clip890)" style="stroke:#000000; stroke-width:4; stroke-opacity:1; fill:none" points="
  900.878,1423.18 900.878,1407.58 
  "/>
<polyline clip-path="url(#clip890)" style="stroke:#000000; stroke-width:4; stroke-opacity:1; fill:none" points="
  1125.77,1423.18 1125.77,1407.58 
  "/>
<polyline clip-path="url(#clip890)" style="stroke:#000000; stroke-width:4; stroke-opacity:1; fill:none" points="
  199.218,1386.4 210.661,1386.4 
  "/>
<polyline clip-path="url(#clip890)" style="stroke:#000000; stroke-width:4; stroke-opacity:1; fill:none" points="
  199.218,1141.17 210.661,1141.17 
  "/>
<polyline clip-path="url(#clip890)" style="stroke:#000000; stroke-width:4; stroke-opacity:1; fill:none" points="
  199.218,895.94 210.661,895.94 
  "/>
<polyline clip-path="url(#clip890)" style="stroke:#000000; stroke-width:4; stroke-opacity:1; fill:none" points="
  199.218,650.712 210.661,650.712 
  "/>
<polyline clip-path="url(#clip890)" style="stroke:#000000; stroke-width:4; stroke-opacity:1; fill:none" points="
  199.218,405.484 210.661,405.484 
  "/>
<polyline clip-path="url(#clip890)" style="stroke:#000000; stroke-width:4; stroke-opacity:1; fill:none" points="
  199.218,160.256 210.661,160.256 
  "/>
<path clip-path="url(#clip890)" d="M 0 0 M161.946 1472.72 L178.266 1472.72 L178.266 1476.65 L156.321 1476.65 L156.321 1472.72 Q158.983 1469.96 163.567 1465.33 Q168.173 1460.68 169.354 1459.34 Q171.599 1456.81 172.479 1455.08 Q173.381 1453.32 173.381 1451.63 Q173.381 1448.87 171.437 1447.14 Q169.516 1445.4 166.414 1445.4 Q164.215 1445.4 161.761 1446.17 Q159.331 1446.93 156.553 1448.48 L156.553 1443.76 Q159.377 1442.62 161.83 1442.05 Q164.284 1441.47 166.321 1441.47 Q171.692 1441.47 174.886 1444.15 Q178.08 1446.84 178.08 1451.33 Q178.08 1453.46 177.27 1455.38 Q176.483 1457.28 174.377 1459.87 Q173.798 1460.54 170.696 1463.76 Q167.594 1466.95 161.946 1472.72 Z" fill="#000000" fill-rule="evenodd" fill-opacity="1" /><path clip-path="url(#clip890)" d="M 0 0 M183.474 1475.93 L183.474 1471.68 Q185.233 1472.51 187.039 1472.95 Q188.844 1473.39 190.58 1473.39 Q195.21 1473.39 197.64 1470.29 Q200.094 1467.16 200.441 1460.82 Q199.099 1462.81 197.039 1463.87 Q194.978 1464.94 192.478 1464.94 Q187.293 1464.94 184.261 1461.81 Q181.252 1458.67 181.252 1453.23 Q181.252 1447.9 184.4 1444.68 Q187.548 1441.47 192.779 1441.47 Q198.775 1441.47 201.923 1446.07 Q205.094 1450.66 205.094 1459.41 Q205.094 1467.58 201.205 1472.46 Q197.34 1477.32 190.789 1477.32 Q189.029 1477.32 187.224 1476.98 Q185.418 1476.63 183.474 1475.93 M192.779 1461.28 Q195.928 1461.28 197.756 1459.13 Q199.608 1456.98 199.608 1453.23 Q199.608 1449.5 197.756 1447.35 Q195.928 1445.17 192.779 1445.17 Q189.631 1445.17 187.779 1447.35 Q185.951 1449.5 185.951 1453.23 Q185.951 1456.98 187.779 1459.13 Q189.631 1461.28 192.779 1461.28 Z" fill="#000000" fill-rule="evenodd" fill-opacity="1" /><path clip-path="url(#clip890)" d="M 0 0 M220.164 1445.17 Q216.552 1445.17 214.724 1448.74 Q212.918 1452.28 212.918 1459.41 Q212.918 1466.51 214.724 1470.08 Q216.552 1473.62 220.164 1473.62 Q223.798 1473.62 225.603 1470.08 Q227.432 1466.51 227.432 1459.41 Q227.432 1452.28 225.603 1448.74 Q223.798 1445.17 220.164 1445.17 M220.164 1441.47 Q225.974 1441.47 229.029 1446.07 Q232.108 1450.66 232.108 1459.41 Q232.108 1468.13 229.029 1472.74 Q225.974 1477.32 220.164 1477.32 Q214.353 1477.32 211.275 1472.74 Q208.219 1468.13 208.219 1459.41 Q208.219 1450.66 211.275 1446.07 Q214.353 1441.47 220.164 1441.47 Z" fill="#000000" fill-rule="evenodd" fill-opacity="1" /><path clip-path="url(#clip890)" d="M 0 0 M237.177 1470.77 L242.062 1470.77 L242.062 1476.65 L237.177 1476.65 L237.177 1470.77 Z" fill="#000000" fill-rule="evenodd" fill-opacity="1" /><path clip-path="url(#clip890)" d="M 0 0 M257.131 1445.17 Q253.52 1445.17 251.691 1448.74 Q249.886 1452.28 249.886 1459.41 Q249.886 1466.51 251.691 1470.08 Q253.52 1473.62 257.131 1473.62 Q260.765 1473.62 262.571 1470.08 Q264.399 1466.51 264.399 1459.41 Q264.399 1452.28 262.571 1448.74 Q260.765 1445.17 257.131 1445.17 M257.131 1441.47 Q262.941 1441.47 265.997 1446.07 Q269.075 1450.66 269.075 1459.41 Q269.075 1468.13 265.997 1472.74 Q262.941 1477.32 257.131 1477.32 Q251.321 1477.32 248.242 1472.74 Q245.187 1468.13 245.187 1459.41 Q245.187 1450.66 248.242 1446.07 Q251.321 1441.47 257.131 1441.47 Z" fill="#000000" fill-rule="evenodd" fill-opacity="1" /><path clip-path="url(#clip890)" d="M 0 0 M284.145 1445.17 Q280.534 1445.17 278.705 1448.74 Q276.899 1452.28 276.899 1459.41 Q276.899 1466.51 278.705 1470.08 Q280.534 1473.62 284.145 1473.62 Q287.779 1473.62 289.584 1470.08 Q291.413 1466.51 291.413 1459.41 Q291.413 1452.28 289.584 1448.74 Q287.779 1445.17 284.145 1445.17 M284.145 1441.47 Q289.955 1441.47 293.01 1446.07 Q296.089 1450.66 296.089 1459.41 Q296.089 1468.13 293.01 1472.74 Q289.955 1477.32 284.145 1477.32 Q278.334 1477.32 275.256 1472.74 Q272.2 1468.13 272.2 1459.41 Q272.2 1450.66 275.256 1446.07 Q278.334 1441.47 284.145 1441.47 Z" fill="#000000" fill-rule="evenodd" fill-opacity="1" /><path clip-path="url(#clip890)" d="M 0 0 M388.133 1472.72 L404.453 1472.72 L404.453 1476.65 L382.509 1476.65 L382.509 1472.72 Q385.171 1469.96 389.754 1465.33 Q394.36 1460.68 395.541 1459.34 Q397.786 1456.81 398.666 1455.08 Q399.569 1453.32 399.569 1451.63 Q399.569 1448.87 397.624 1447.14 Q395.703 1445.4 392.601 1445.4 Q390.402 1445.4 387.948 1446.17 Q385.518 1446.93 382.74 1448.48 L382.74 1443.76 Q385.564 1442.62 388.018 1442.05 Q390.471 1441.47 392.508 1441.47 Q397.879 1441.47 401.073 1444.15 Q404.268 1446.84 404.268 1451.33 Q404.268 1453.46 403.457 1455.38 Q402.67 1457.28 400.564 1459.87 Q399.985 1460.54 396.883 1463.76 Q393.782 1466.95 388.133 1472.72 Z" fill="#000000" fill-rule="evenodd" fill-opacity="1" /><path clip-path="url(#clip890)" d="M 0 0 M409.661 1475.93 L409.661 1471.68 Q411.42 1472.51 413.226 1472.95 Q415.031 1473.39 416.768 1473.39 Q421.397 1473.39 423.828 1470.29 Q426.281 1467.16 426.629 1460.82 Q425.286 1462.81 423.226 1463.87 Q421.166 1464.94 418.666 1464.94 Q413.481 1464.94 410.448 1461.81 Q407.439 1458.67 407.439 1453.23 Q407.439 1447.9 410.587 1444.68 Q413.735 1441.47 418.967 1441.47 Q424.962 1441.47 428.11 1446.07 Q431.281 1450.66 431.281 1459.41 Q431.281 1467.58 427.393 1472.46 Q423.527 1477.32 416.976 1477.32 Q415.217 1477.32 413.411 1476.98 Q411.606 1476.63 409.661 1475.93 M418.967 1461.28 Q422.115 1461.28 423.943 1459.13 Q425.795 1456.98 425.795 1453.23 Q425.795 1449.5 423.943 1447.35 Q422.115 1445.17 418.967 1445.17 Q415.819 1445.17 413.967 1447.35 Q412.138 1449.5 412.138 1453.23 Q412.138 1456.98 413.967 1459.13 Q415.819 1461.28 418.967 1461.28 Z" fill="#000000" fill-rule="evenodd" fill-opacity="1" /><path clip-path="url(#clip890)" d="M 0 0 M446.351 1445.17 Q442.74 1445.17 440.911 1448.74 Q439.105 1452.28 439.105 1459.41 Q439.105 1466.51 440.911 1470.08 Q442.74 1473.62 446.351 1473.62 Q449.985 1473.62 451.791 1470.08 Q453.619 1466.51 453.619 1459.41 Q453.619 1452.28 451.791 1448.74 Q449.985 1445.17 446.351 1445.17 M446.351 1441.47 Q452.161 1441.47 455.216 1446.07 Q458.295 1450.66 458.295 1459.41 Q458.295 1468.13 455.216 1472.74 Q452.161 1477.32 446.351 1477.32 Q440.541 1477.32 437.462 1472.74 Q434.406 1468.13 434.406 1459.41 Q434.406 1450.66 437.462 1446.07 Q440.541 1441.47 446.351 1441.47 Z" fill="#000000" fill-rule="evenodd" fill-opacity="1" /><path clip-path="url(#clip890)" d="M 0 0 M463.365 1470.77 L468.249 1470.77 L468.249 1476.65 L463.365 1476.65 L463.365 1470.77 Z" fill="#000000" fill-rule="evenodd" fill-opacity="1" /><path clip-path="url(#clip890)" d="M 0 0 M477.346 1472.72 L493.665 1472.72 L493.665 1476.65 L471.721 1476.65 L471.721 1472.72 Q474.383 1469.96 478.966 1465.33 Q483.573 1460.68 484.753 1459.34 Q486.999 1456.81 487.878 1455.08 Q488.781 1453.32 488.781 1451.63 Q488.781 1448.87 486.837 1447.14 Q484.915 1445.4 481.814 1445.4 Q479.614 1445.4 477.161 1446.17 Q474.73 1446.93 471.952 1448.48 L471.952 1443.76 Q474.777 1442.62 477.23 1442.05 Q479.684 1441.47 481.721 1441.47 Q487.091 1441.47 490.286 1444.15 Q493.48 1446.84 493.48 1451.33 Q493.48 1453.46 492.67 1455.38 Q491.883 1457.28 489.776 1459.87 Q489.198 1460.54 486.096 1463.76 Q482.994 1466.95 477.346 1472.72 Z" fill="#000000" fill-rule="evenodd" fill-opacity="1" /><path clip-path="url(#clip890)" d="M 0 0 M498.781 1442.09 L517.137 1442.09 L517.137 1446.03 L503.063 1446.03 L503.063 1454.5 Q504.082 1454.15 505.1 1453.99 Q506.119 1453.8 507.137 1453.8 Q512.924 1453.8 516.304 1456.98 Q519.684 1460.15 519.684 1465.56 Q519.684 1471.14 516.211 1474.24 Q512.739 1477.32 506.42 1477.32 Q504.244 1477.32 501.975 1476.95 Q499.73 1476.58 497.323 1475.84 L497.323 1471.14 Q499.406 1472.28 501.628 1472.83 Q503.85 1473.39 506.327 1473.39 Q510.332 1473.39 512.67 1471.28 Q515.008 1469.18 515.008 1465.56 Q515.008 1461.95 512.67 1459.85 Q510.332 1457.74 506.327 1457.74 Q504.452 1457.74 502.577 1458.16 Q500.725 1458.57 498.781 1459.45 L498.781 1442.09 Z" fill="#000000" fill-rule="evenodd" fill-opacity="1" /><path clip-path="url(#clip890)" d="M 0 0 M612.226 1472.72 L628.545 1472.72 L628.545 1476.65 L606.601 1476.65 L606.601 1472.72 Q609.263 1469.96 613.846 1465.33 Q618.453 1460.68 619.633 1459.34 Q621.879 1456.81 622.758 1455.08 Q623.661 1453.32 623.661 1451.63 Q623.661 1448.87 621.717 1447.14 Q619.795 1445.4 616.693 1445.4 Q614.494 1445.4 612.041 1446.17 Q609.61 1446.93 606.832 1448.48 L606.832 1443.76 Q609.656 1442.62 612.11 1442.05 Q614.564 1441.47 616.601 1441.47 Q621.971 1441.47 625.166 1444.15 Q628.36 1446.84 628.36 1451.33 Q628.36 1453.46 627.55 1455.38 Q626.763 1457.28 624.656 1459.87 Q624.078 1460.54 620.976 1463.76 Q617.874 1466.95 612.226 1472.72 Z" fill="#000000" fill-rule="evenodd" fill-opacity="1" /><path clip-path="url(#clip890)" d="M 0 0 M633.753 1475.93 L633.753 1471.68 Q635.513 1472.51 637.318 1472.95 Q639.124 1473.39 640.86 1473.39 Q645.49 1473.39 647.92 1470.29 Q650.374 1467.16 650.721 1460.82 Q649.378 1462.81 647.318 1463.87 Q645.258 1464.94 642.758 1464.94 Q637.573 1464.94 634.541 1461.81 Q631.531 1458.67 631.531 1453.23 Q631.531 1447.9 634.679 1444.68 Q637.828 1441.47 643.059 1441.47 Q649.054 1441.47 652.202 1446.07 Q655.374 1450.66 655.374 1459.41 Q655.374 1467.58 651.485 1472.46 Q647.619 1477.32 641.068 1477.32 Q639.309 1477.32 637.503 1476.98 Q635.698 1476.63 633.753 1475.93 M643.059 1461.28 Q646.207 1461.28 648.036 1459.13 Q649.888 1456.98 649.888 1453.23 Q649.888 1449.5 648.036 1447.35 Q646.207 1445.17 643.059 1445.17 Q639.911 1445.17 638.059 1447.35 Q636.23 1449.5 636.23 1453.23 Q636.23 1456.98 638.059 1459.13 Q639.911 1461.28 643.059 1461.28 Z" fill="#000000" fill-rule="evenodd" fill-opacity="1" /><path clip-path="url(#clip890)" d="M 0 0 M670.443 1445.17 Q666.832 1445.17 665.003 1448.74 Q663.198 1452.28 663.198 1459.41 Q663.198 1466.51 665.003 1470.08 Q666.832 1473.62 670.443 1473.62 Q674.077 1473.62 675.883 1470.08 Q677.712 1466.51 677.712 1459.41 Q677.712 1452.28 675.883 1448.74 Q674.077 1445.17 670.443 1445.17 M670.443 1441.47 Q676.253 1441.47 679.309 1446.07 Q682.387 1450.66 682.387 1459.41 Q682.387 1468.13 679.309 1472.74 Q676.253 1477.32 670.443 1477.32 Q664.633 1477.32 661.554 1472.74 Q658.499 1468.13 658.499 1459.41 Q658.499 1450.66 661.554 1446.07 Q664.633 1441.47 670.443 1441.47 Z" fill="#000000" fill-rule="evenodd" fill-opacity="1" /><path clip-path="url(#clip890)" d="M 0 0 M687.457 1470.77 L692.341 1470.77 L692.341 1476.65 L687.457 1476.65 L687.457 1470.77 Z" fill="#000000" fill-rule="evenodd" fill-opacity="1" /><path clip-path="url(#clip890)" d="M 0 0 M697.457 1442.09 L715.813 1442.09 L715.813 1446.03 L701.739 1446.03 L701.739 1454.5 Q702.758 1454.15 703.776 1453.99 Q704.795 1453.8 705.813 1453.8 Q711.6 1453.8 714.98 1456.98 Q718.36 1460.15 718.36 1465.56 Q718.36 1471.14 714.887 1474.24 Q711.415 1477.32 705.096 1477.32 Q702.92 1477.32 700.651 1476.95 Q698.406 1476.58 695.999 1475.84 L695.999 1471.14 Q698.082 1472.28 700.304 1472.83 Q702.526 1473.39 705.003 1473.39 Q709.008 1473.39 711.346 1471.28 Q713.684 1469.18 713.684 1465.56 Q713.684 1461.95 711.346 1459.85 Q709.008 1457.74 705.003 1457.74 Q703.128 1457.74 701.253 1458.16 Q699.401 1458.57 697.457 1459.45 L697.457 1442.09 Z" fill="#000000" fill-rule="evenodd" fill-opacity="1" /><path clip-path="url(#clip890)" d="M 0 0 M733.429 1445.17 Q729.818 1445.17 727.989 1448.74 Q726.184 1452.28 726.184 1459.41 Q726.184 1466.51 727.989 1470.08 Q729.818 1473.62 733.429 1473.62 Q737.063 1473.62 738.869 1470.08 Q740.697 1466.51 740.697 1459.41 Q740.697 1452.28 738.869 1448.74 Q737.063 1445.17 733.429 1445.17 M733.429 1441.47 Q739.239 1441.47 742.295 1446.07 Q745.373 1450.66 745.373 1459.41 Q745.373 1468.13 742.295 1472.74 Q739.239 1477.32 733.429 1477.32 Q727.619 1477.32 724.54 1472.74 Q721.485 1468.13 721.485 1459.41 Q721.485 1450.66 724.54 1446.07 Q727.619 1441.47 733.429 1441.47 Z" fill="#000000" fill-rule="evenodd" fill-opacity="1" /><path clip-path="url(#clip890)" d="M 0 0 M837.568 1472.72 L853.888 1472.72 L853.888 1476.65 L831.943 1476.65 L831.943 1472.72 Q834.605 1469.96 839.189 1465.33 Q843.795 1460.68 844.976 1459.34 Q847.221 1456.81 848.101 1455.08 Q849.003 1453.32 849.003 1451.63 Q849.003 1448.87 847.059 1447.14 Q845.138 1445.4 842.036 1445.4 Q839.837 1445.4 837.383 1446.17 Q834.952 1446.93 832.175 1448.48 L832.175 1443.76 Q834.999 1442.62 837.452 1442.05 Q839.906 1441.47 841.943 1441.47 Q847.314 1441.47 850.508 1444.15 Q853.702 1446.84 853.702 1451.33 Q853.702 1453.46 852.892 1455.38 Q852.105 1457.28 849.999 1459.87 Q849.42 1460.54 846.318 1463.76 Q843.216 1466.95 837.568 1472.72 Z" fill="#000000" fill-rule="evenodd" fill-opacity="1" /><path clip-path="url(#clip890)" d="M 0 0 M859.096 1475.93 L859.096 1471.68 Q860.855 1472.51 862.661 1472.95 Q864.466 1473.39 866.202 1473.39 Q870.832 1473.39 873.262 1470.29 Q875.716 1467.16 876.063 1460.82 Q874.721 1462.81 872.661 1463.87 Q870.6 1464.94 868.1 1464.94 Q862.915 1464.94 859.883 1461.81 Q856.874 1458.67 856.874 1453.23 Q856.874 1447.9 860.022 1444.68 Q863.17 1441.47 868.401 1441.47 Q874.397 1441.47 877.545 1446.07 Q880.716 1450.66 880.716 1459.41 Q880.716 1467.58 876.827 1472.46 Q872.962 1477.32 866.411 1477.32 Q864.651 1477.32 862.846 1476.98 Q861.04 1476.63 859.096 1475.93 M868.401 1461.28 Q871.549 1461.28 873.378 1459.13 Q875.23 1456.98 875.23 1453.23 Q875.23 1449.5 873.378 1447.35 Q871.549 1445.17 868.401 1445.17 Q865.253 1445.17 863.401 1447.35 Q861.573 1449.5 861.573 1453.23 Q861.573 1456.98 863.401 1459.13 Q865.253 1461.28 868.401 1461.28 Z" fill="#000000" fill-rule="evenodd" fill-opacity="1" /><path clip-path="url(#clip890)" d="M 0 0 M895.785 1445.17 Q892.174 1445.17 890.346 1448.74 Q888.54 1452.28 888.54 1459.41 Q888.54 1466.51 890.346 1470.08 Q892.174 1473.62 895.785 1473.62 Q899.42 1473.62 901.225 1470.08 Q903.054 1466.51 903.054 1459.41 Q903.054 1452.28 901.225 1448.74 Q899.42 1445.17 895.785 1445.17 M895.785 1441.47 Q901.596 1441.47 904.651 1446.07 Q907.73 1450.66 907.73 1459.41 Q907.73 1468.13 904.651 1472.74 Q901.596 1477.32 895.785 1477.32 Q889.975 1477.32 886.897 1472.74 Q883.841 1468.13 883.841 1459.41 Q883.841 1450.66 886.897 1446.07 Q889.975 1441.47 895.785 1441.47 Z" fill="#000000" fill-rule="evenodd" fill-opacity="1" /><path clip-path="url(#clip890)" d="M 0 0 M912.799 1470.77 L917.683 1470.77 L917.683 1476.65 L912.799 1476.65 L912.799 1470.77 Z" fill="#000000" fill-rule="evenodd" fill-opacity="1" /><path clip-path="url(#clip890)" d="M 0 0 M921.572 1442.09 L943.794 1442.09 L943.794 1444.08 L931.248 1476.65 L926.364 1476.65 L938.169 1446.03 L921.572 1446.03 L921.572 1442.09 Z" fill="#000000" fill-rule="evenodd" fill-opacity="1" /><path clip-path="url(#clip890)" d="M 0 0 M948.91 1442.09 L967.267 1442.09 L967.267 1446.03 L953.193 1446.03 L953.193 1454.5 Q954.211 1454.15 955.23 1453.99 Q956.248 1453.8 957.267 1453.8 Q963.054 1453.8 966.433 1456.98 Q969.813 1460.15 969.813 1465.56 Q969.813 1471.14 966.341 1474.24 Q962.868 1477.32 956.549 1477.32 Q954.373 1477.32 952.105 1476.95 Q949.859 1476.58 947.452 1475.84 L947.452 1471.14 Q949.535 1472.28 951.757 1472.83 Q953.98 1473.39 956.456 1473.39 Q960.461 1473.39 962.799 1471.28 Q965.137 1469.18 965.137 1465.56 Q965.137 1461.95 962.799 1459.85 Q960.461 1457.74 956.456 1457.74 Q954.581 1457.74 952.706 1458.16 Q950.855 1458.57 948.91 1459.45 L948.91 1442.09 Z" fill="#000000" fill-rule="evenodd" fill-opacity="1" /><path clip-path="url(#clip890)" d="M 0 0 M1062.12 1472.72 L1078.44 1472.72 L1078.44 1476.65 L1056.5 1476.65 L1056.5 1472.72 Q1059.16 1469.96 1063.74 1465.33 Q1068.35 1460.68 1069.53 1459.34 Q1071.78 1456.81 1072.66 1455.08 Q1073.56 1453.32 1073.56 1451.63 Q1073.56 1448.87 1071.61 1447.14 Q1069.69 1445.4 1066.59 1445.4 Q1064.39 1445.4 1061.94 1446.17 Q1059.51 1446.93 1056.73 1448.48 L1056.73 1443.76 Q1059.55 1442.62 1062.01 1442.05 Q1064.46 1441.47 1066.5 1441.47 Q1071.87 1441.47 1075.06 1444.15 Q1078.26 1446.84 1078.26 1451.33 Q1078.26 1453.46 1077.45 1455.38 Q1076.66 1457.28 1074.55 1459.87 Q1073.98 1460.54 1070.87 1463.76 Q1067.77 1466.95 1062.12 1472.72 Z" fill="#000000" fill-rule="evenodd" fill-opacity="1" /><path clip-path="url(#clip890)" d="M 0 0 M1083.65 1475.93 L1083.65 1471.68 Q1085.41 1472.51 1087.22 1472.95 Q1089.02 1473.39 1090.76 1473.39 Q1095.39 1473.39 1097.82 1470.29 Q1100.27 1467.16 1100.62 1460.82 Q1099.28 1462.81 1097.22 1463.87 Q1095.16 1464.94 1092.66 1464.94 Q1087.47 1464.94 1084.44 1461.81 Q1081.43 1458.67 1081.43 1453.23 Q1081.43 1447.9 1084.58 1444.68 Q1087.73 1441.47 1092.96 1441.47 Q1098.95 1441.47 1102.1 1446.07 Q1105.27 1450.66 1105.27 1459.41 Q1105.27 1467.58 1101.38 1472.46 Q1097.52 1477.32 1090.97 1477.32 Q1089.21 1477.32 1087.4 1476.98 Q1085.6 1476.63 1083.65 1475.93 M1092.96 1461.28 Q1096.1 1461.28 1097.93 1459.13 Q1099.79 1456.98 1099.79 1453.23 Q1099.79 1449.5 1097.93 1447.35 Q1096.1 1445.17 1092.96 1445.17 Q1089.81 1445.17 1087.96 1447.35 Q1086.13 1449.5 1086.13 1453.23 Q1086.13 1456.98 1087.96 1459.13 Q1089.81 1461.28 1092.96 1461.28 Z" fill="#000000" fill-rule="evenodd" fill-opacity="1" /><path clip-path="url(#clip890)" d="M 0 0 M1111.15 1472.72 L1118.79 1472.72 L1118.79 1446.35 L1110.48 1448.02 L1110.48 1443.76 L1118.74 1442.09 L1123.42 1442.09 L1123.42 1472.72 L1131.06 1472.72 L1131.06 1476.65 L1111.15 1476.65 L1111.15 1472.72 Z" fill="#000000" fill-rule="evenodd" fill-opacity="1" /><path clip-path="url(#clip890)" d="M 0 0 M1136.13 1470.77 L1141.01 1470.77 L1141.01 1476.65 L1136.13 1476.65 L1136.13 1470.77 Z" fill="#000000" fill-rule="evenodd" fill-opacity="1" /><path clip-path="url(#clip890)" d="M 0 0 M1156.08 1445.17 Q1152.47 1445.17 1150.64 1448.74 Q1148.84 1452.28 1148.84 1459.41 Q1148.84 1466.51 1150.64 1470.08 Q1152.47 1473.62 1156.08 1473.62 Q1159.72 1473.62 1161.52 1470.08 Q1163.35 1466.51 1163.35 1459.41 Q1163.35 1452.28 1161.52 1448.74 Q1159.72 1445.17 1156.08 1445.17 M1156.08 1441.47 Q1161.89 1441.47 1164.95 1446.07 Q1168.03 1450.66 1168.03 1459.41 Q1168.03 1468.13 1164.95 1472.74 Q1161.89 1477.32 1156.08 1477.32 Q1150.27 1477.32 1147.19 1472.74 Q1144.14 1468.13 1144.14 1459.41 Q1144.14 1450.66 1147.19 1446.07 Q1150.27 1441.47 1156.08 1441.47 Z" fill="#000000" fill-rule="evenodd" fill-opacity="1" /><path clip-path="url(#clip890)" d="M 0 0 M1183.1 1445.17 Q1179.48 1445.17 1177.66 1448.74 Q1175.85 1452.28 1175.85 1459.41 Q1175.85 1466.51 1177.66 1470.08 Q1179.48 1473.62 1183.1 1473.62 Q1186.73 1473.62 1188.53 1470.08 Q1190.36 1466.51 1190.36 1459.41 Q1190.36 1452.28 1188.53 1448.74 Q1186.73 1445.17 1183.1 1445.17 M1183.1 1441.47 Q1188.91 1441.47 1191.96 1446.07 Q1195.04 1450.66 1195.04 1459.41 Q1195.04 1468.13 1191.96 1472.74 Q1188.91 1477.32 1183.1 1477.32 Q1177.28 1477.32 1174.21 1472.74 Q1171.15 1468.13 1171.15 1459.41 Q1171.15 1450.66 1174.21 1446.07 Q1177.28 1441.47 1183.1 1441.47 Z" fill="#000000" fill-rule="evenodd" fill-opacity="1" /><path clip-path="url(#clip890)" d="M 0 0 M163.274 1372.19 Q159.663 1372.19 157.834 1375.76 Q156.029 1379.3 156.029 1386.43 Q156.029 1393.54 157.834 1397.1 Q159.663 1400.64 163.274 1400.64 Q166.908 1400.64 168.714 1397.1 Q170.542 1393.54 170.542 1386.43 Q170.542 1379.3 168.714 1375.76 Q166.908 1372.19 163.274 1372.19 M163.274 1368.49 Q169.084 1368.49 172.14 1373.1 Q175.218 1377.68 175.218 1386.43 Q175.218 1395.16 172.14 1399.76 Q169.084 1404.35 163.274 1404.35 Q157.464 1404.35 154.385 1399.76 Q151.329 1395.16 151.329 1386.43 Q151.329 1377.68 154.385 1373.1 Q157.464 1368.49 163.274 1368.49 Z" fill="#000000" fill-rule="evenodd" fill-opacity="1" /><path clip-path="url(#clip890)" d="M 0 0 M154.316 1123.89 L172.672 1123.89 L172.672 1127.82 L158.598 1127.82 L158.598 1136.3 Q159.616 1135.95 160.635 1135.79 Q161.653 1135.6 162.672 1135.6 Q168.459 1135.6 171.839 1138.77 Q175.218 1141.94 175.218 1147.36 Q175.218 1152.94 171.746 1156.04 Q168.274 1159.12 161.954 1159.12 Q159.778 1159.12 157.51 1158.75 Q155.265 1158.38 152.857 1157.64 L152.857 1152.94 Q154.941 1154.07 157.163 1154.63 Q159.385 1155.18 161.862 1155.18 Q165.866 1155.18 168.204 1153.08 Q170.542 1150.97 170.542 1147.36 Q170.542 1143.75 168.204 1141.64 Q165.866 1139.54 161.862 1139.54 Q159.987 1139.54 158.112 1139.95 Q156.26 1140.37 154.316 1141.25 L154.316 1123.89 Z" fill="#000000" fill-rule="evenodd" fill-opacity="1" /><path clip-path="url(#clip890)" d="M 0 0 M128.297 909.285 L135.936 909.285 L135.936 882.919 L127.626 884.586 L127.626 880.327 L135.89 878.66 L140.566 878.66 L140.566 909.285 L148.204 909.285 L148.204 913.22 L128.297 913.22 L128.297 909.285 Z" fill="#000000" fill-rule="evenodd" fill-opacity="1" /><path clip-path="url(#clip890)" d="M 0 0 M163.274 881.739 Q159.663 881.739 157.834 885.303 Q156.029 888.845 156.029 895.975 Q156.029 903.081 157.834 906.646 Q159.663 910.188 163.274 910.188 Q166.908 910.188 168.714 906.646 Q170.542 903.081 170.542 895.975 Q170.542 888.845 168.714 885.303 Q166.908 881.739 163.274 881.739 M163.274 878.035 Q169.084 878.035 172.14 882.641 Q175.218 887.225 175.218 895.975 Q175.218 904.701 172.14 909.308 Q169.084 913.891 163.274 913.891 Q157.464 913.891 154.385 909.308 Q151.329 904.701 151.329 895.975 Q151.329 887.225 154.385 882.641 Q157.464 878.035 163.274 878.035 Z" fill="#000000" fill-rule="evenodd" fill-opacity="1" /><path clip-path="url(#clip890)" d="M 0 0 M129.293 664.057 L136.931 664.057 L136.931 637.691 L128.621 639.358 L128.621 635.099 L136.885 633.432 L141.561 633.432 L141.561 664.057 L149.2 664.057 L149.2 667.992 L129.293 667.992 L129.293 664.057 Z" fill="#000000" fill-rule="evenodd" fill-opacity="1" /><path clip-path="url(#clip890)" d="M 0 0 M154.316 633.432 L172.672 633.432 L172.672 637.367 L158.598 637.367 L158.598 645.839 Q159.616 645.492 160.635 645.33 Q161.653 645.145 162.672 645.145 Q168.459 645.145 171.839 648.316 Q175.218 651.488 175.218 656.904 Q175.218 662.483 171.746 665.585 Q168.274 668.663 161.954 668.663 Q159.778 668.663 157.51 668.293 Q155.265 667.923 152.857 667.182 L152.857 662.483 Q154.941 663.617 157.163 664.173 Q159.385 664.728 161.862 664.728 Q165.866 664.728 168.204 662.622 Q170.542 660.515 170.542 656.904 Q170.542 653.293 168.204 651.187 Q165.866 649.08 161.862 649.08 Q159.987 649.08 158.112 649.497 Q156.26 649.913 154.316 650.793 L154.316 633.432 Z" fill="#000000" fill-rule="evenodd" fill-opacity="1" /><path clip-path="url(#clip890)" d="M 0 0 M131.885 418.829 L148.204 418.829 L148.204 422.764 L126.26 422.764 L126.26 418.829 Q128.922 416.074 133.505 411.445 Q138.112 406.792 139.292 405.449 Q141.538 402.926 142.417 401.19 Q143.32 399.431 143.32 397.741 Q143.32 394.987 141.376 393.25 Q139.455 391.514 136.353 391.514 Q134.154 391.514 131.7 392.278 Q129.269 393.042 126.492 394.593 L126.492 389.871 Q129.316 388.737 131.769 388.158 Q134.223 387.579 136.26 387.579 Q141.63 387.579 144.825 390.264 Q148.019 392.95 148.019 397.44 Q148.019 399.57 147.209 401.491 Q146.422 403.389 144.316 405.982 Q143.737 406.653 140.635 409.871 Q137.533 413.065 131.885 418.829 Z" fill="#000000" fill-rule="evenodd" fill-opacity="1" /><path clip-path="url(#clip890)" d="M 0 0 M163.274 391.283 Q159.663 391.283 157.834 394.848 Q156.029 398.389 156.029 405.519 Q156.029 412.625 157.834 416.19 Q159.663 419.732 163.274 419.732 Q166.908 419.732 168.714 416.19 Q170.542 412.625 170.542 405.519 Q170.542 398.389 168.714 394.848 Q166.908 391.283 163.274 391.283 M163.274 387.579 Q169.084 387.579 172.14 392.186 Q175.218 396.769 175.218 405.519 Q175.218 414.246 172.14 418.852 Q169.084 423.435 163.274 423.435 Q157.464 423.435 154.385 418.852 Q151.329 414.246 151.329 405.519 Q151.329 396.769 154.385 392.186 Q157.464 387.579 163.274 387.579 Z" fill="#000000" fill-rule="evenodd" fill-opacity="1" /><path clip-path="url(#clip890)" d="M 0 0 M132.88 173.601 L149.2 173.601 L149.2 177.536 L127.256 177.536 L127.256 173.601 Q129.918 170.847 134.501 166.217 Q139.107 161.564 140.288 160.222 Q142.533 157.698 143.413 155.962 Q144.316 154.203 144.316 152.513 Q144.316 149.759 142.371 148.023 Q140.45 146.286 137.348 146.286 Q135.149 146.286 132.695 147.05 Q130.265 147.814 127.487 149.365 L127.487 144.643 Q130.311 143.509 132.765 142.93 Q135.218 142.351 137.255 142.351 Q142.626 142.351 145.82 145.036 Q149.015 147.722 149.015 152.212 Q149.015 154.342 148.204 156.263 Q147.417 158.161 145.311 160.754 Q144.732 161.425 141.63 164.643 Q138.529 167.837 132.88 173.601 Z" fill="#000000" fill-rule="evenodd" fill-opacity="1" /><path clip-path="url(#clip890)" d="M 0 0 M154.316 142.976 L172.672 142.976 L172.672 146.911 L158.598 146.911 L158.598 155.384 Q159.616 155.036 160.635 154.874 Q161.653 154.689 162.672 154.689 Q168.459 154.689 171.839 157.86 Q175.218 161.032 175.218 166.448 Q175.218 172.027 171.746 175.129 Q168.274 178.208 161.954 178.208 Q159.778 178.208 157.51 177.837 Q155.265 177.467 152.857 176.726 L152.857 172.027 Q154.941 173.161 157.163 173.717 Q159.385 174.272 161.862 174.272 Q165.866 174.272 168.204 172.166 Q170.542 170.059 170.542 166.448 Q170.542 162.837 168.204 160.731 Q165.866 158.624 161.862 158.624 Q159.987 158.624 158.112 159.041 Q156.26 159.458 154.316 160.337 L154.316 142.976 Z" fill="#000000" fill-rule="evenodd" fill-opacity="1" /><path clip-path="url(#clip890)" d="M 0 0 M485.352 12.096 L493.534 12.096 L493.534 72.576 L485.352 72.576 L485.352 12.096 Z" fill="#000000" fill-rule="evenodd" fill-opacity="1" /><path clip-path="url(#clip890)" d="M 0 0 M530.276 28.5427 L530.276 35.5912 Q527.116 33.9709 523.714 33.1607 Q520.311 32.3505 516.665 32.3505 Q511.115 32.3505 508.32 34.0519 Q505.566 35.7533 505.566 39.156 Q505.566 41.7486 507.55 43.2475 Q509.535 44.7058 515.531 46.0426 L518.083 46.6097 Q526.023 48.3111 529.344 51.4303 Q532.707 54.509 532.707 60.0587 Q532.707 66.3781 527.683 70.0644 Q522.701 73.7508 513.951 73.7508 Q510.305 73.7508 506.335 73.0216 Q502.406 72.3329 498.031 70.9151 L498.031 63.2184 Q502.163 65.3654 506.173 66.4591 Q510.184 67.5124 514.113 67.5124 Q519.379 67.5124 522.215 65.73 Q525.05 63.9071 525.05 60.6258 Q525.05 57.5877 522.984 55.9673 Q520.959 54.3469 514.032 52.8481 L511.439 52.2405 Q504.512 50.7821 501.434 47.7845 Q498.355 44.7463 498.355 39.4801 Q498.355 33.0797 502.892 29.5959 Q507.429 26.1121 515.774 26.1121 Q519.906 26.1121 523.552 26.7198 Q527.197 27.3274 530.276 28.5427 Z" fill="#000000" fill-rule="evenodd" fill-opacity="1" /><path clip-path="url(#clip890)" d="M 0 0 M558.106 32.4315 Q552.11 32.4315 548.627 37.1306 Q545.143 41.7891 545.143 49.9314 Q545.143 58.0738 548.586 62.7728 Q552.07 67.4314 558.106 67.4314 Q564.061 67.4314 567.544 62.7323 Q571.028 58.0333 571.028 49.9314 Q571.028 41.8701 567.544 37.1711 Q564.061 32.4315 558.106 32.4315 M558.106 26.1121 Q567.828 26.1121 573.378 32.4315 Q578.927 38.7509 578.927 49.9314 Q578.927 61.0714 573.378 67.4314 Q567.828 73.7508 558.106 73.7508 Q548.343 73.7508 542.793 67.4314 Q537.284 61.0714 537.284 49.9314 Q537.284 38.7509 542.793 32.4315 Q548.343 26.1121 558.106 26.1121 Z" fill="#000000" fill-rule="evenodd" fill-opacity="1" /><path clip-path="url(#clip890)" d="M 0 0 M594.118 14.324 L594.118 27.2059 L609.471 27.2059 L609.471 32.9987 L594.118 32.9987 L594.118 57.6282 Q594.118 63.1779 595.617 64.7578 Q597.156 66.3376 601.815 66.3376 L609.471 66.3376 L609.471 72.576 L601.815 72.576 Q593.187 72.576 589.905 69.3758 Q586.624 66.1351 586.624 57.6282 L586.624 32.9987 L581.155 32.9987 L581.155 27.2059 L586.624 27.2059 L586.624 14.324 L594.118 14.324 Z" fill="#000000" fill-rule="evenodd" fill-opacity="1" /><path clip-path="url(#clip890)" d="M 0 0 M655.003 45.1919 L655.003 72.576 L647.55 72.576 L647.55 45.4349 Q647.55 38.994 645.038 35.7938 Q642.527 32.5936 637.503 32.5936 Q631.468 32.5936 627.984 36.4419 Q624.5 40.2903 624.5 46.9338 L624.5 72.576 L617.006 72.576 L617.006 9.54393 L624.5 9.54393 L624.5 34.2544 Q627.174 30.163 630.779 28.1376 Q634.425 26.1121 639.164 26.1121 Q646.983 26.1121 650.993 30.9732 Q655.003 35.7938 655.003 45.1919 Z" fill="#000000" fill-rule="evenodd" fill-opacity="1" /><path clip-path="url(#clip890)" d="M 0 0 M701.629 48.0275 L701.629 51.6733 L667.359 51.6733 Q667.845 59.3701 671.977 63.421 Q676.149 67.4314 683.562 67.4314 Q687.856 67.4314 691.867 66.3781 Q695.918 65.3249 699.887 63.2184 L699.887 70.267 Q695.877 71.9684 691.664 72.8596 Q687.451 73.7508 683.117 73.7508 Q672.26 73.7508 665.9 67.4314 Q659.581 61.1119 659.581 50.3365 Q659.581 39.1965 665.576 32.6746 Q671.612 26.1121 681.82 26.1121 Q690.975 26.1121 696.282 32.0264 Q701.629 37.9003 701.629 48.0275 M694.176 45.84 Q694.095 39.7232 690.732 36.0774 Q687.411 32.4315 681.901 32.4315 Q675.663 32.4315 671.896 35.9558 Q668.169 39.4801 667.602 45.8805 L694.176 45.84 Z" fill="#000000" fill-rule="evenodd" fill-opacity="1" /><path clip-path="url(#clip890)" d="M 0 0 M735.738 34.1734 Q734.482 33.4443 732.983 33.1202 Q731.525 32.7556 729.743 32.7556 Q723.423 32.7556 720.02 36.8875 Q716.658 40.9789 716.658 48.6757 L716.658 72.576 L709.164 72.576 L709.164 27.2059 L716.658 27.2059 L716.658 34.2544 Q719.008 30.1225 722.775 28.1376 Q726.542 26.1121 731.93 26.1121 Q732.7 26.1121 733.631 26.2337 Q734.563 26.3147 735.697 26.5172 L735.738 34.1734 Z" fill="#000000" fill-rule="evenodd" fill-opacity="1" /><path clip-path="url(#clip890)" d="M 0 0 M777.422 35.9153 Q780.217 30.8922 784.106 28.5022 Q787.995 26.1121 793.261 26.1121 Q800.35 26.1121 804.198 31.0947 Q808.047 36.0368 808.047 45.1919 L808.047 72.576 L800.552 72.576 L800.552 45.4349 Q800.552 38.913 798.243 35.7533 Q795.934 32.5936 791.195 32.5936 Q785.402 32.5936 782.04 36.4419 Q778.677 40.2903 778.677 46.9338 L778.677 72.576 L771.183 72.576 L771.183 45.4349 Q771.183 38.8725 768.874 35.7533 Q766.565 32.5936 761.745 32.5936 Q756.033 32.5936 752.671 36.4824 Q749.308 40.3308 749.308 46.9338 L749.308 72.576 L741.814 72.576 L741.814 27.2059 L749.308 27.2059 L749.308 34.2544 Q751.861 30.082 755.425 28.0971 Q758.99 26.1121 763.892 26.1121 Q768.834 26.1121 772.277 28.6237 Q775.761 31.1352 777.422 35.9153 Z" fill="#000000" fill-rule="evenodd" fill-opacity="1" /><path clip-path="url(#clip890)" d="M 0 0 M836.484 49.7694 Q827.45 49.7694 823.967 51.8354 Q820.483 53.9013 820.483 58.8839 Q820.483 62.8538 823.075 65.2034 Q825.708 67.5124 830.205 67.5124 Q836.403 67.5124 840.13 63.1374 Q843.897 58.7219 843.897 51.4303 L843.897 49.7694 L836.484 49.7694 M851.351 46.6907 L851.351 72.576 L843.897 72.576 L843.897 65.6895 Q841.345 69.8214 837.537 71.8063 Q833.729 73.7508 828.22 73.7508 Q821.252 73.7508 817.121 69.8619 Q813.029 65.9325 813.029 59.3701 Q813.029 51.7138 818.133 47.825 Q823.278 43.9361 833.446 43.9361 L843.897 43.9361 L843.897 43.2069 Q843.897 38.0623 840.494 35.2672 Q837.132 32.4315 831.015 32.4315 Q827.126 32.4315 823.44 33.3632 Q819.754 34.295 816.351 36.1584 L816.351 29.2718 Q820.442 27.692 824.291 26.9223 Q828.139 26.1121 831.785 26.1121 Q841.629 26.1121 846.49 31.2163 Q851.351 36.3204 851.351 46.6907 Z" fill="#000000" fill-rule="evenodd" fill-opacity="1" /><path clip-path="url(#clip890)" d="M 0 0 M859.169 9.54393 L866.623 9.54393 L866.623 72.576 L859.169 72.576 L859.169 9.54393 Z" fill="#000000" fill-rule="evenodd" fill-opacity="1" /><path clip-path="url(#clip890)" d="M 0 0 M433.915 1508.52 L474.115 1508.52 L474.115 1513.93 L457.245 1513.93 L457.245 1556.04 L450.784 1556.04 L450.784 1513.93 L433.915 1513.93 L433.915 1508.52 Z" fill="#000000" fill-rule="evenodd" fill-opacity="1" /><path clip-path="url(#clip890)" d="M 0 0 M499.673 1536.76 L499.673 1539.62 L472.746 1539.62 Q473.128 1545.67 476.374 1548.85 Q479.653 1552 485.477 1552 Q488.851 1552 492.002 1551.17 Q495.185 1550.35 498.304 1548.69 L498.304 1554.23 Q495.153 1555.57 491.843 1556.27 Q488.533 1556.97 485.127 1556.97 Q476.597 1556.97 471.6 1552 Q466.635 1547.04 466.635 1538.57 Q466.635 1529.82 471.346 1524.69 Q476.088 1519.54 484.109 1519.54 Q491.302 1519.54 495.472 1524.18 Q499.673 1528.8 499.673 1536.76 M493.816 1535.04 Q493.753 1530.23 491.111 1527.37 Q488.501 1524.5 484.172 1524.5 Q479.271 1524.5 476.311 1527.27 Q473.383 1530.04 472.937 1535.07 L493.816 1535.04 Z" fill="#000000" fill-rule="evenodd" fill-opacity="1" /><path clip-path="url(#clip890)" d="M 0 0 M533.57 1527.24 Q535.766 1523.29 538.822 1521.41 Q541.878 1519.54 546.015 1519.54 Q551.585 1519.54 554.609 1523.45 Q557.633 1527.33 557.633 1534.53 L557.633 1556.04 L551.744 1556.04 L551.744 1534.72 Q551.744 1529.59 549.93 1527.11 Q548.116 1524.63 544.392 1524.63 Q539.841 1524.63 537.199 1527.65 Q534.557 1530.68 534.557 1535.9 L534.557 1556.04 L528.669 1556.04 L528.669 1534.72 Q528.669 1529.56 526.854 1527.11 Q525.04 1524.63 521.253 1524.63 Q516.765 1524.63 514.123 1527.68 Q511.481 1530.71 511.481 1535.9 L511.481 1556.04 L505.593 1556.04 L505.593 1520.4 L511.481 1520.4 L511.481 1525.93 Q513.486 1522.66 516.287 1521.1 Q519.088 1519.54 522.94 1519.54 Q526.823 1519.54 529.528 1521.51 Q532.265 1523.48 533.57 1527.24 Z" fill="#000000" fill-rule="evenodd" fill-opacity="1" /><path clip-path="url(#clip890)" d="M 0 0 M569.441 1550.7 L569.441 1569.6 L563.553 1569.6 L563.553 1520.4 L569.441 1520.4 L569.441 1525.81 Q571.287 1522.62 574.088 1521.1 Q576.921 1519.54 580.836 1519.54 Q587.329 1519.54 591.371 1524.69 Q595.445 1529.85 595.445 1538.25 Q595.445 1546.65 591.371 1551.81 Q587.329 1556.97 580.836 1556.97 Q576.921 1556.97 574.088 1555.44 Q571.287 1553.88 569.441 1550.7 M589.366 1538.25 Q589.366 1531.79 586.692 1528.13 Q584.05 1524.44 579.403 1524.44 Q574.756 1524.44 572.083 1528.13 Q569.441 1531.79 569.441 1538.25 Q569.441 1544.71 572.083 1548.4 Q574.756 1552.07 579.403 1552.07 Q584.05 1552.07 586.692 1548.4 Q589.366 1544.71 589.366 1538.25 Z" fill="#000000" fill-rule="evenodd" fill-opacity="1" /><path clip-path="url(#clip890)" d="M 0 0 M632.08 1536.76 L632.08 1539.62 L605.153 1539.62 Q605.535 1545.67 608.781 1548.85 Q612.059 1552 617.884 1552 Q621.258 1552 624.409 1551.17 Q627.592 1550.35 630.711 1548.69 L630.711 1554.23 Q627.56 1555.57 624.25 1556.27 Q620.94 1556.97 617.534 1556.97 Q609.004 1556.97 604.007 1552 Q599.042 1547.04 599.042 1538.57 Q599.042 1529.82 603.752 1524.69 Q608.495 1519.54 616.515 1519.54 Q623.709 1519.54 627.878 1524.18 Q632.08 1528.8 632.08 1536.76 M626.223 1535.04 Q626.159 1530.23 623.518 1527.37 Q620.908 1524.5 616.579 1524.5 Q611.678 1524.5 608.717 1527.27 Q605.789 1530.04 605.344 1535.07 L626.223 1535.04 Z" fill="#000000" fill-rule="evenodd" fill-opacity="1" /><path clip-path="url(#clip890)" d="M 0 0 M658.879 1525.87 Q657.893 1525.3 656.715 1525.04 Q655.569 1524.76 654.169 1524.76 Q649.203 1524.76 646.53 1528 Q643.888 1531.22 643.888 1537.27 L643.888 1556.04 L638 1556.04 L638 1520.4 L643.888 1520.4 L643.888 1525.93 Q645.734 1522.69 648.694 1521.13 Q651.654 1519.54 655.887 1519.54 Q656.492 1519.54 657.224 1519.63 Q657.956 1519.7 658.847 1519.85 L658.879 1525.87 Z" fill="#000000" fill-rule="evenodd" fill-opacity="1" /><path clip-path="url(#clip890)" d="M 0 0 M681.223 1538.12 Q674.125 1538.12 671.388 1539.75 Q668.651 1541.37 668.651 1545.29 Q668.651 1548.4 670.688 1550.25 Q672.756 1552.07 676.289 1552.07 Q681.159 1552.07 684.087 1548.63 Q687.047 1545.16 687.047 1539.43 L687.047 1538.12 L681.223 1538.12 M692.904 1535.71 L692.904 1556.04 L687.047 1556.04 L687.047 1550.63 Q685.042 1553.88 682.05 1555.44 Q679.059 1556.97 674.73 1556.97 Q669.255 1556.97 666.009 1553.91 Q662.794 1550.82 662.794 1545.67 Q662.794 1539.65 666.805 1536.6 Q670.847 1533.54 678.836 1533.54 L687.047 1533.54 L687.047 1532.97 Q687.047 1528.93 684.374 1526.73 Q681.732 1524.5 676.926 1524.5 Q673.87 1524.5 670.974 1525.23 Q668.078 1525.97 665.404 1527.43 L665.404 1522.02 Q668.619 1520.78 671.642 1520.17 Q674.666 1519.54 677.531 1519.54 Q685.265 1519.54 689.085 1523.55 Q692.904 1527.56 692.904 1535.71 Z" fill="#000000" fill-rule="evenodd" fill-opacity="1" /><path clip-path="url(#clip890)" d="M 0 0 M704.84 1510.27 L704.84 1520.4 L716.903 1520.4 L716.903 1524.95 L704.84 1524.95 L704.84 1544.3 Q704.84 1548.66 706.017 1549.9 Q707.227 1551.14 710.887 1551.14 L716.903 1551.14 L716.903 1556.04 L710.887 1556.04 Q704.108 1556.04 701.529 1553.53 Q698.951 1550.98 698.951 1544.3 L698.951 1524.95 L694.655 1524.95 L694.655 1520.4 L698.951 1520.4 L698.951 1510.27 L704.84 1510.27 Z" fill="#000000" fill-rule="evenodd" fill-opacity="1" /><path clip-path="url(#clip890)" d="M 0 0 M722.441 1541.98 L722.441 1520.4 L728.297 1520.4 L728.297 1541.75 Q728.297 1546.81 730.271 1549.36 Q732.244 1551.87 736.191 1551.87 Q740.933 1551.87 743.67 1548.85 Q746.44 1545.83 746.44 1540.61 L746.44 1520.4 L752.296 1520.4 L752.296 1556.04 L746.44 1556.04 L746.44 1550.57 Q744.307 1553.82 741.474 1555.41 Q738.673 1556.97 734.949 1556.97 Q728.807 1556.97 725.624 1553.15 Q722.441 1549.33 722.441 1541.98 M737.177 1519.54 L737.177 1519.54 Z" fill="#000000" fill-rule="evenodd" fill-opacity="1" /><path clip-path="url(#clip890)" d="M 0 0 M779.096 1525.87 Q778.109 1525.3 776.931 1525.04 Q775.785 1524.76 774.385 1524.76 Q769.42 1524.76 766.746 1528 Q764.104 1531.22 764.104 1537.27 L764.104 1556.04 L758.216 1556.04 L758.216 1520.4 L764.104 1520.4 L764.104 1525.93 Q765.95 1522.69 768.91 1521.13 Q771.871 1519.54 776.104 1519.54 Q776.708 1519.54 777.441 1519.63 Q778.173 1519.7 779.064 1519.85 L779.096 1525.87 Z" fill="#000000" fill-rule="evenodd" fill-opacity="1" /><path clip-path="url(#clip890)" d="M 0 0 M814.298 1536.76 L814.298 1539.62 L787.371 1539.62 Q787.753 1545.67 790.999 1548.85 Q794.278 1552 800.102 1552 Q803.476 1552 806.627 1551.17 Q809.81 1550.35 812.929 1548.69 L812.929 1554.23 Q809.778 1555.57 806.468 1556.27 Q803.158 1556.97 799.752 1556.97 Q791.222 1556.97 786.225 1552 Q781.26 1547.04 781.26 1538.57 Q781.26 1529.82 785.971 1524.69 Q790.713 1519.54 798.734 1519.54 Q805.927 1519.54 810.097 1524.18 Q814.298 1528.8 814.298 1536.76 M808.442 1535.04 Q808.378 1530.23 805.736 1527.37 Q803.126 1524.5 798.797 1524.5 Q793.896 1524.5 790.936 1527.27 Q788.008 1530.04 787.562 1535.07 L808.442 1535.04 Z" fill="#000000" fill-rule="evenodd" fill-opacity="1" /><path clip-path="url(#clip890)" d="M 0 0 M840.62 1506.52 L854.115 1506.52 L854.115 1511.07 L846.477 1511.07 L846.477 1560.09 L854.115 1560.09 L854.115 1564.64 L840.62 1564.64 L840.62 1506.52 Z" fill="#000000" fill-rule="evenodd" fill-opacity="1" /><path clip-path="url(#clip890)" d="M 0 0 M860.513 1508.52 L866.942 1508.52 L866.942 1528.61 L888.267 1508.52 L896.543 1508.52 L872.958 1530.68 L898.23 1556.04 L889.763 1556.04 L866.942 1533.16 L866.942 1556.04 L860.513 1556.04 L860.513 1508.52 Z" fill="#000000" fill-rule="evenodd" fill-opacity="1" /><path clip-path="url(#clip890)" d="M 0 0 M918.059 1506.52 L918.059 1564.64 L904.564 1564.64 L904.564 1560.09 L912.171 1560.09 L912.171 1511.07 L904.564 1511.07 L904.564 1506.52 L918.059 1506.52 Z" fill="#000000" fill-rule="evenodd" fill-opacity="1" /><path clip-path="url(#clip890)" d="M 0 0 M52.3562 864.419 L52.3562 836.601 L57.7034 836.601 L83.3254 858.626 L83.3254 836.601 L88.0042 836.601 L88.0042 865.215 L82.657 865.215 L57.035 843.19 L57.035 864.419 L52.3562 864.419 Z" fill="#000000" fill-rule="evenodd" fill-opacity="1" /><path clip-path="url(#clip890)" d="M 0 0 M38.479 810.279 L38.479 796.784 L43.0304 796.784 L43.0304 804.422 L92.0464 804.422 L92.0464 796.784 L96.5979 796.784 L96.5979 810.279 L38.479 810.279 Z" fill="#000000" fill-rule="evenodd" fill-opacity="1" /><path clip-path="url(#clip890)" d="M 0 0 M38.479 790.864 L38.479 784.975 L67.7294 784.975 L52.3562 767.501 L52.3562 760.022 L69.0344 778.928 L88.0042 759.226 L88.0042 766.865 L70.5939 784.975 L88.0042 784.975 L88.0042 790.864 L38.479 790.864 Z" fill="#000000" fill-rule="evenodd" fill-opacity="1" /><path clip-path="url(#clip890)" d="M 0 0 M59.1993 725.329 Q55.2526 723.132 53.3747 720.077 Q51.4968 717.021 51.4968 712.884 Q51.4968 707.314 55.4117 704.29 Q59.2948 701.266 66.4881 701.266 L88.0042 701.266 L88.0042 707.154 L66.679 707.154 Q61.5546 707.154 59.072 708.969 Q56.5894 710.783 56.5894 714.507 Q56.5894 719.058 59.6131 721.7 Q62.6368 724.342 67.8567 724.342 L88.0042 724.342 L88.0042 730.23 L66.679 730.23 Q61.5228 730.23 59.072 732.044 Q56.5894 733.859 56.5894 737.646 Q56.5894 742.134 59.6449 744.776 Q62.6686 747.418 67.8567 747.418 L88.0042 747.418 L88.0042 753.306 L52.3562 753.306 L52.3562 747.418 L57.8944 747.418 Q54.616 745.412 53.0564 742.611 Q51.4968 739.811 51.4968 735.959 Q51.4968 732.076 53.4702 729.371 Q55.4436 726.634 59.1993 725.329 Z" fill="#000000" fill-rule="evenodd" fill-opacity="1" /><path clip-path="url(#clip890)" d="M 0 0 M38.479 681.437 L96.5979 681.437 L96.5979 694.932 L92.0464 694.932 L92.0464 687.325 L43.0304 687.325 L43.0304 694.932 L38.479 694.932 L38.479 681.437 Z" fill="#000000" fill-rule="evenodd" fill-opacity="1" /><polyline clip-path="url(#clip892)" style="stroke:#009af9; stroke-width:4; stroke-opacity:1; fill:none" points="
  226.205,1386.4 226.205,1386.4 
  
  
  226.205,1361.37 
  
  
  226.205,1336.35 
  
  
  226.205,1311.33 
  
  
  226.205,1286.3 
  
  
  226.205,1261.28 
  
  
  226.205,1236.26 
  
  
  226.205,1211.23 
  
  
  226.205,1186.21 
  
  
  226.205,1161.19 
  
  
  226.205,1136.16 
  
  
  226.205,1111.14 
  
  
  226.205,1086.12 
  
  
  226.205,1061.09 
  
  
  226.205,1036.07 
  
  
  226.205,1011.05 
  
  
  226.205,986.024 
  
  
  226.205,961 
  
  
  226.205,935.977 
  
  
  226.205,910.954 
  
  
  226.205,885.931 
  
  
  226.205,860.907 
  
  
  226.205,835.884 
  
  
  226.205,810.861 
  
  
  226.205,785.838 
  
  
  226.205,760.814 
  
  
  226.205,735.791 
  
  
  226.205,710.768 
  
  
  226.205,685.745 
  
  
  226.205,660.721 
  
  
  226.205,635.698 
  
  
  226.205,610.675 
  
  
  226.205,585.652 
  
  
  226.205,560.628 
  
  
  226.205,535.605 
  
  
  226.205,510.582 
  
  
  226.205,485.559 
  
  
  226.205,460.535 
  
  
  226.205,435.512 
  
  
  226.205,410.489 
  
  
  226.205,385.466 
  
  
  226.205,360.442 
  
  
  226.205,335.419 
  
  
  226.205,310.396 
  
  
  226.205,285.373 
  
  
  226.205,260.349 
  
  
  226.205,235.326 
  
  
  226.205,210.303 
  
  
  226.205,185.28 
  
  
  226.205,160.256 
  
  
  
  "/>
<path clip-path="url(#clip890)" d="
M789.738 327.952 L1080.76 327.952 L1080.76 206.992 L789.738 206.992  Z
  " fill="#ffffff" fill-rule="evenodd" fill-opacity="1"/>
<polyline clip-path="url(#clip890)" style="stroke:#000000; stroke-width:4; stroke-opacity:1; fill:none" points="
  789.738,327.952 1080.76,327.952 1080.76,206.992 789.738,206.992 789.738,327.952 
  "/>
<polyline clip-path="url(#clip890)" style="stroke:#009af9; stroke-width:4; stroke-opacity:1; fill:none" points="
  813.738,267.472 957.738,267.472 
  "/>
<path clip-path="url(#clip890)" d="M 0 0 M995.58 287.16 Q993.775 291.789 992.062 293.201 Q990.349 294.613 987.478 294.613 L984.076 294.613 L984.076 291.048 L986.576 291.048 Q988.335 291.048 989.307 290.215 Q990.279 289.382 991.46 286.28 L992.224 284.335 L981.738 258.826 L986.252 258.826 L994.353 279.104 L1002.46 258.826 L1006.97 258.826 L995.58 287.16 Z" fill="#000000" fill-rule="evenodd" fill-opacity="1" /><path clip-path="url(#clip890)" d="M 0 0 M1012.85 280.817 L1020.49 280.817 L1020.49 254.451 L1012.18 256.118 L1012.18 251.859 L1020.44 250.192 L1025.12 250.192 L1025.12 280.817 L1032.76 280.817 L1032.76 284.752 L1012.85 284.752 L1012.85 280.817 Z" fill="#000000" fill-rule="evenodd" fill-opacity="1" /><path clip-path="url(#clip890)" d="
M1399.22 1423.18 L2352.76 1423.18 L2352.76 123.472 L1399.22 123.472  Z
  " fill="#ffffff" fill-rule="evenodd" fill-opacity="1"/>
<defs>
  <clipPath id="clip893">
    <rect x="1399" y="123" width="955" height="1301"/>
  </clipPath>
</defs>
<polyline clip-path="url(#clip893)" style="stroke:#000000; stroke-width:2; stroke-opacity:0.1; fill:none" points="
  1563.75,1423.18 1563.75,123.472 
  "/>
<polyline clip-path="url(#clip893)" style="stroke:#000000; stroke-width:2; stroke-opacity:0.1; fill:none" points="
  1751.15,1423.18 1751.15,123.472 
  "/>
<polyline clip-path="url(#clip893)" style="stroke:#000000; stroke-width:2; stroke-opacity:0.1; fill:none" points="
  1938.55,1423.18 1938.55,123.472 
  "/>
<polyline clip-path="url(#clip893)" style="stroke:#000000; stroke-width:2; stroke-opacity:0.1; fill:none" points="
  2125.95,1423.18 2125.95,123.472 
  "/>
<polyline clip-path="url(#clip893)" style="stroke:#000000; stroke-width:2; stroke-opacity:0.1; fill:none" points="
  2313.35,1423.18 2313.35,123.472 
  "/>
<polyline clip-path="url(#clip893)" style="stroke:#000000; stroke-width:2; stroke-opacity:0.1; fill:none" points="
  1399.22,1386.4 2352.76,1386.4 
  "/>
<polyline clip-path="url(#clip893)" style="stroke:#000000; stroke-width:2; stroke-opacity:0.1; fill:none" points="
  1399.22,1141.17 2352.76,1141.17 
  "/>
<polyline clip-path="url(#clip893)" style="stroke:#000000; stroke-width:2; stroke-opacity:0.1; fill:none" points="
  1399.22,895.94 2352.76,895.94 
  "/>
<polyline clip-path="url(#clip893)" style="stroke:#000000; stroke-width:2; stroke-opacity:0.1; fill:none" points="
  1399.22,650.712 2352.76,650.712 
  "/>
<polyline clip-path="url(#clip893)" style="stroke:#000000; stroke-width:2; stroke-opacity:0.1; fill:none" points="
  1399.22,405.484 2352.76,405.484 
  "/>
<polyline clip-path="url(#clip893)" style="stroke:#000000; stroke-width:2; stroke-opacity:0.1; fill:none" points="
  1399.22,160.256 2352.76,160.256 
  "/>
<polyline clip-path="url(#clip890)" style="stroke:#000000; stroke-width:4; stroke-opacity:1; fill:none" points="
  1399.22,1423.18 2352.76,1423.18 
  "/>
<polyline clip-path="url(#clip890)" style="stroke:#000000; stroke-width:4; stroke-opacity:1; fill:none" points="
  1399.22,1423.18 1399.22,123.472 
  "/>
<polyline clip-path="url(#clip890)" style="stroke:#000000; stroke-width:4; stroke-opacity:1; fill:none" points="
  1563.75,1423.18 1563.75,1407.58 
  "/>
<polyline clip-path="url(#clip890)" style="stroke:#000000; stroke-width:4; stroke-opacity:1; fill:none" points="
  1751.15,1423.18 1751.15,1407.58 
  "/>
<polyline clip-path="url(#clip890)" style="stroke:#000000; stroke-width:4; stroke-opacity:1; fill:none" points="
  1938.55,1423.18 1938.55,1407.58 
  "/>
<polyline clip-path="url(#clip890)" style="stroke:#000000; stroke-width:4; stroke-opacity:1; fill:none" points="
  2125.95,1423.18 2125.95,1407.58 
  "/>
<polyline clip-path="url(#clip890)" style="stroke:#000000; stroke-width:4; stroke-opacity:1; fill:none" points="
  2313.35,1423.18 2313.35,1407.58 
  "/>
<polyline clip-path="url(#clip890)" style="stroke:#000000; stroke-width:4; stroke-opacity:1; fill:none" points="
  1399.22,1386.4 1410.66,1386.4 
  "/>
<polyline clip-path="url(#clip890)" style="stroke:#000000; stroke-width:4; stroke-opacity:1; fill:none" points="
  1399.22,1141.17 1410.66,1141.17 
  "/>
<polyline clip-path="url(#clip890)" style="stroke:#000000; stroke-width:4; stroke-opacity:1; fill:none" points="
  1399.22,895.94 1410.66,895.94 
  "/>
<polyline clip-path="url(#clip890)" style="stroke:#000000; stroke-width:4; stroke-opacity:1; fill:none" points="
  1399.22,650.712 1410.66,650.712 
  "/>
<polyline clip-path="url(#clip890)" style="stroke:#000000; stroke-width:4; stroke-opacity:1; fill:none" points="
  1399.22,405.484 1410.66,405.484 
  "/>
<polyline clip-path="url(#clip890)" style="stroke:#000000; stroke-width:4; stroke-opacity:1; fill:none" points="
  1399.22,160.256 1410.66,160.256 
  "/>
<path clip-path="url(#clip890)" d="M 0 0 M1544.89 1472.72 L1561.21 1472.72 L1561.21 1476.65 L1539.27 1476.65 L1539.27 1472.72 Q1541.93 1469.96 1546.51 1465.33 Q1551.12 1460.68 1552.3 1459.34 Q1554.55 1456.81 1555.42 1455.08 Q1556.33 1453.32 1556.33 1451.63 Q1556.33 1448.87 1554.38 1447.14 Q1552.46 1445.4 1549.36 1445.4 Q1547.16 1445.4 1544.71 1446.17 Q1542.28 1446.93 1539.5 1448.48 L1539.5 1443.76 Q1542.32 1442.62 1544.78 1442.05 Q1547.23 1441.47 1549.27 1441.47 Q1554.64 1441.47 1557.83 1444.15 Q1561.03 1446.84 1561.03 1451.33 Q1561.03 1453.46 1560.22 1455.38 Q1559.43 1457.28 1557.32 1459.87 Q1556.74 1460.54 1553.64 1463.76 Q1550.54 1466.95 1544.89 1472.72 Z" fill="#000000" fill-rule="evenodd" fill-opacity="1" /><path clip-path="url(#clip890)" d="M 0 0 M1576.28 1445.17 Q1572.67 1445.17 1570.84 1448.74 Q1569.04 1452.28 1569.04 1459.41 Q1569.04 1466.51 1570.84 1470.08 Q1572.67 1473.62 1576.28 1473.62 Q1579.92 1473.62 1581.72 1470.08 Q1583.55 1466.51 1583.55 1459.41 Q1583.55 1452.28 1581.72 1448.74 Q1579.92 1445.17 1576.28 1445.17 M1576.28 1441.47 Q1582.09 1441.47 1585.15 1446.07 Q1588.23 1450.66 1588.23 1459.41 Q1588.23 1468.13 1585.15 1472.74 Q1582.09 1477.32 1576.28 1477.32 Q1570.47 1477.32 1567.39 1472.74 Q1564.34 1468.13 1564.34 1459.41 Q1564.34 1450.66 1567.39 1446.07 Q1570.47 1441.47 1576.28 1441.47 Z" fill="#000000" fill-rule="evenodd" fill-opacity="1" /><path clip-path="url(#clip890)" d="M 0 0 M1740.65 1446.17 L1728.85 1464.61 L1740.65 1464.61 L1740.65 1446.17 M1739.42 1442.09 L1745.3 1442.09 L1745.3 1464.61 L1750.23 1464.61 L1750.23 1468.5 L1745.3 1468.5 L1745.3 1476.65 L1740.65 1476.65 L1740.65 1468.5 L1725.05 1468.5 L1725.05 1463.99 L1739.42 1442.09 Z" fill="#000000" fill-rule="evenodd" fill-opacity="1" /><path clip-path="url(#clip890)" d="M 0 0 M1765.3 1445.17 Q1761.69 1445.17 1759.86 1448.74 Q1758.06 1452.28 1758.06 1459.41 Q1758.06 1466.51 1759.86 1470.08 Q1761.69 1473.62 1765.3 1473.62 Q1768.94 1473.62 1770.74 1470.08 Q1772.57 1466.51 1772.57 1459.41 Q1772.57 1452.28 1770.74 1448.74 Q1768.94 1445.17 1765.3 1445.17 M1765.3 1441.47 Q1771.11 1441.47 1774.17 1446.07 Q1777.25 1450.66 1777.25 1459.41 Q1777.25 1468.13 1774.17 1472.74 Q1771.11 1477.32 1765.3 1477.32 Q1759.49 1477.32 1756.41 1472.74 Q1753.36 1468.13 1753.36 1459.41 Q1753.36 1450.66 1756.41 1446.07 Q1759.49 1441.47 1765.3 1441.47 Z" fill="#000000" fill-rule="evenodd" fill-opacity="1" /><path clip-path="url(#clip890)" d="M 0 0 M1925.45 1457.51 Q1922.3 1457.51 1920.45 1459.66 Q1918.62 1461.81 1918.62 1465.56 Q1918.62 1469.29 1920.45 1471.47 Q1922.3 1473.62 1925.45 1473.62 Q1928.6 1473.62 1930.43 1471.47 Q1932.28 1469.29 1932.28 1465.56 Q1932.28 1461.81 1930.43 1459.66 Q1928.6 1457.51 1925.45 1457.51 M1934.73 1442.86 L1934.73 1447.11 Q1932.97 1446.28 1931.17 1445.84 Q1929.38 1445.4 1927.62 1445.4 Q1922.99 1445.4 1920.54 1448.53 Q1918.11 1451.65 1917.76 1457.97 Q1919.13 1455.96 1921.19 1454.89 Q1923.25 1453.8 1925.73 1453.8 Q1930.93 1453.8 1933.94 1456.98 Q1936.98 1460.12 1936.98 1465.56 Q1936.98 1470.89 1933.83 1474.11 Q1930.68 1477.32 1925.45 1477.32 Q1919.45 1477.32 1916.28 1472.74 Q1913.11 1468.13 1913.11 1459.41 Q1913.11 1451.21 1917 1446.35 Q1920.89 1441.47 1927.44 1441.47 Q1929.2 1441.47 1930.98 1441.81 Q1932.79 1442.16 1934.73 1442.86 Z" fill="#000000" fill-rule="evenodd" fill-opacity="1" /><path clip-path="url(#clip890)" d="M 0 0 M1952.05 1445.17 Q1948.43 1445.17 1946.61 1448.74 Q1944.8 1452.28 1944.8 1459.41 Q1944.8 1466.51 1946.61 1470.08 Q1948.43 1473.62 1952.05 1473.62 Q1955.68 1473.62 1957.49 1470.08 Q1959.31 1466.51 1959.31 1459.41 Q1959.31 1452.28 1957.49 1448.74 Q1955.68 1445.17 1952.05 1445.17 M1952.05 1441.47 Q1957.86 1441.47 1960.91 1446.07 Q1963.99 1450.66 1963.99 1459.41 Q1963.99 1468.13 1960.91 1472.74 Q1957.86 1477.32 1952.05 1477.32 Q1946.24 1477.32 1943.16 1472.74 Q1940.1 1468.13 1940.1 1459.41 Q1940.1 1450.66 1943.16 1446.07 Q1946.24 1441.47 1952.05 1441.47 Z" fill="#000000" fill-rule="evenodd" fill-opacity="1" /><path clip-path="url(#clip890)" d="M 0 0 M2112.44 1460.24 Q2109.11 1460.24 2107.19 1462.02 Q2105.29 1463.8 2105.29 1466.93 Q2105.29 1470.05 2107.19 1471.84 Q2109.11 1473.62 2112.44 1473.62 Q2115.78 1473.62 2117.7 1471.84 Q2119.62 1470.03 2119.62 1466.93 Q2119.62 1463.8 2117.7 1462.02 Q2115.8 1460.24 2112.44 1460.24 M2107.77 1458.25 Q2104.76 1457.51 2103.07 1455.45 Q2101.4 1453.39 2101.4 1450.43 Q2101.4 1446.28 2104.34 1443.87 Q2107.31 1441.47 2112.44 1441.47 Q2117.61 1441.47 2120.55 1443.87 Q2123.49 1446.28 2123.49 1450.43 Q2123.49 1453.39 2121.8 1455.45 Q2120.13 1457.51 2117.14 1458.25 Q2120.52 1459.04 2122.4 1461.33 Q2124.3 1463.62 2124.3 1466.93 Q2124.3 1471.95 2121.22 1474.64 Q2118.16 1477.32 2112.44 1477.32 Q2106.73 1477.32 2103.65 1474.64 Q2100.59 1471.95 2100.59 1466.93 Q2100.59 1463.62 2102.49 1461.33 Q2104.39 1459.04 2107.77 1458.25 M2106.06 1450.86 Q2106.06 1453.55 2107.72 1455.05 Q2109.41 1456.56 2112.44 1456.56 Q2115.45 1456.56 2117.14 1455.05 Q2118.86 1453.55 2118.86 1450.86 Q2118.86 1448.18 2117.14 1446.68 Q2115.45 1445.17 2112.44 1445.17 Q2109.41 1445.17 2107.72 1446.68 Q2106.06 1448.18 2106.06 1450.86 Z" fill="#000000" fill-rule="evenodd" fill-opacity="1" /><path clip-path="url(#clip890)" d="M 0 0 M2139.37 1445.17 Q2135.76 1445.17 2133.93 1448.74 Q2132.12 1452.28 2132.12 1459.41 Q2132.12 1466.51 2133.93 1470.08 Q2135.76 1473.62 2139.37 1473.62 Q2143 1473.62 2144.81 1470.08 Q2146.63 1466.51 2146.63 1459.41 Q2146.63 1452.28 2144.81 1448.74 Q2143 1445.17 2139.37 1445.17 M2139.37 1441.47 Q2145.18 1441.47 2148.23 1446.07 Q2151.31 1450.66 2151.31 1459.41 Q2151.31 1468.13 2148.23 1472.74 Q2145.18 1477.32 2139.37 1477.32 Q2133.56 1477.32 2130.48 1472.74 Q2127.42 1468.13 2127.42 1459.41 Q2127.42 1450.66 2130.48 1446.07 Q2133.56 1441.47 2139.37 1441.47 Z" fill="#000000" fill-rule="evenodd" fill-opacity="1" /><path clip-path="url(#clip890)" d="M 0 0 M2276.72 1472.72 L2284.36 1472.72 L2284.36 1446.35 L2276.05 1448.02 L2276.05 1443.76 L2284.31 1442.09 L2288.99 1442.09 L2288.99 1472.72 L2296.63 1472.72 L2296.63 1476.65 L2276.72 1476.65 L2276.72 1472.72 Z" fill="#000000" fill-rule="evenodd" fill-opacity="1" /><path clip-path="url(#clip890)" d="M 0 0 M2311.7 1445.17 Q2308.09 1445.17 2306.26 1448.74 Q2304.45 1452.28 2304.45 1459.41 Q2304.45 1466.51 2306.26 1470.08 Q2308.09 1473.62 2311.7 1473.62 Q2315.33 1473.62 2317.14 1470.08 Q2318.97 1466.51 2318.97 1459.41 Q2318.97 1452.28 2317.14 1448.74 Q2315.33 1445.17 2311.7 1445.17 M2311.7 1441.47 Q2317.51 1441.47 2320.56 1446.07 Q2323.64 1450.66 2323.64 1459.41 Q2323.64 1468.13 2320.56 1472.74 Q2317.51 1477.32 2311.7 1477.32 Q2305.89 1477.32 2302.81 1472.74 Q2299.75 1468.13 2299.75 1459.41 Q2299.75 1450.66 2302.81 1446.07 Q2305.89 1441.47 2311.7 1441.47 Z" fill="#000000" fill-rule="evenodd" fill-opacity="1" /><path clip-path="url(#clip890)" d="M 0 0 M2338.71 1445.17 Q2335.1 1445.17 2333.27 1448.74 Q2331.47 1452.28 2331.47 1459.41 Q2331.47 1466.51 2333.27 1470.08 Q2335.1 1473.62 2338.71 1473.62 Q2342.35 1473.62 2344.15 1470.08 Q2345.98 1466.51 2345.98 1459.41 Q2345.98 1452.28 2344.15 1448.74 Q2342.35 1445.17 2338.71 1445.17 M2338.71 1441.47 Q2344.52 1441.47 2347.58 1446.07 Q2350.66 1450.66 2350.66 1459.41 Q2350.66 1468.13 2347.58 1472.74 Q2344.52 1477.32 2338.71 1477.32 Q2332.9 1477.32 2329.82 1472.74 Q2326.77 1468.13 2326.77 1459.41 Q2326.77 1450.66 2329.82 1446.07 Q2332.9 1441.47 2338.71 1441.47 Z" fill="#000000" fill-rule="evenodd" fill-opacity="1" /><path clip-path="url(#clip890)" d="M 0 0 M1363.27 1372.19 Q1359.66 1372.19 1357.83 1375.76 Q1356.03 1379.3 1356.03 1386.43 Q1356.03 1393.54 1357.83 1397.1 Q1359.66 1400.64 1363.27 1400.64 Q1366.91 1400.64 1368.71 1397.1 Q1370.54 1393.54 1370.54 1386.43 Q1370.54 1379.3 1368.71 1375.76 Q1366.91 1372.19 1363.27 1372.19 M1363.27 1368.49 Q1369.08 1368.49 1372.14 1373.1 Q1375.22 1377.68 1375.22 1386.43 Q1375.22 1395.16 1372.14 1399.76 Q1369.08 1404.35 1363.27 1404.35 Q1357.46 1404.35 1354.39 1399.76 Q1351.33 1395.16 1351.33 1386.43 Q1351.33 1377.68 1354.39 1373.1 Q1357.46 1368.49 1363.27 1368.49 Z" fill="#000000" fill-rule="evenodd" fill-opacity="1" /><path clip-path="url(#clip890)" d="M 0 0 M1354.32 1123.89 L1372.67 1123.89 L1372.67 1127.82 L1358.6 1127.82 L1358.6 1136.3 Q1359.62 1135.95 1360.63 1135.79 Q1361.65 1135.6 1362.67 1135.6 Q1368.46 1135.6 1371.84 1138.77 Q1375.22 1141.94 1375.22 1147.36 Q1375.22 1152.94 1371.75 1156.04 Q1368.27 1159.12 1361.95 1159.12 Q1359.78 1159.12 1357.51 1158.75 Q1355.26 1158.38 1352.86 1157.64 L1352.86 1152.94 Q1354.94 1154.07 1357.16 1154.63 Q1359.38 1155.18 1361.86 1155.18 Q1365.87 1155.18 1368.2 1153.08 Q1370.54 1150.97 1370.54 1147.36 Q1370.54 1143.75 1368.2 1141.64 Q1365.87 1139.54 1361.86 1139.54 Q1359.99 1139.54 1358.11 1139.95 Q1356.26 1140.37 1354.32 1141.25 L1354.32 1123.89 Z" fill="#000000" fill-rule="evenodd" fill-opacity="1" /><path clip-path="url(#clip890)" d="M 0 0 M1328.3 909.285 L1335.94 909.285 L1335.94 882.919 L1327.63 884.586 L1327.63 880.327 L1335.89 878.66 L1340.57 878.66 L1340.57 909.285 L1348.2 909.285 L1348.2 913.22 L1328.3 913.22 L1328.3 909.285 Z" fill="#000000" fill-rule="evenodd" fill-opacity="1" /><path clip-path="url(#clip890)" d="M 0 0 M1363.27 881.739 Q1359.66 881.739 1357.83 885.303 Q1356.03 888.845 1356.03 895.975 Q1356.03 903.081 1357.83 906.646 Q1359.66 910.188 1363.27 910.188 Q1366.91 910.188 1368.71 906.646 Q1370.54 903.081 1370.54 895.975 Q1370.54 888.845 1368.71 885.303 Q1366.91 881.739 1363.27 881.739 M1363.27 878.035 Q1369.08 878.035 1372.14 882.641 Q1375.22 887.225 1375.22 895.975 Q1375.22 904.701 1372.14 909.308 Q1369.08 913.891 1363.27 913.891 Q1357.46 913.891 1354.39 909.308 Q1351.33 904.701 1351.33 895.975 Q1351.33 887.225 1354.39 882.641 Q1357.46 878.035 1363.27 878.035 Z" fill="#000000" fill-rule="evenodd" fill-opacity="1" /><path clip-path="url(#clip890)" d="M 0 0 M1329.29 664.057 L1336.93 664.057 L1336.93 637.691 L1328.62 639.358 L1328.62 635.099 L1336.89 633.432 L1341.56 633.432 L1341.56 664.057 L1349.2 664.057 L1349.2 667.992 L1329.29 667.992 L1329.29 664.057 Z" fill="#000000" fill-rule="evenodd" fill-opacity="1" /><path clip-path="url(#clip890)" d="M 0 0 M1354.32 633.432 L1372.67 633.432 L1372.67 637.367 L1358.6 637.367 L1358.6 645.839 Q1359.62 645.492 1360.63 645.33 Q1361.65 645.145 1362.67 645.145 Q1368.46 645.145 1371.84 648.316 Q1375.22 651.488 1375.22 656.904 Q1375.22 662.483 1371.75 665.585 Q1368.27 668.663 1361.95 668.663 Q1359.78 668.663 1357.51 668.293 Q1355.26 667.923 1352.86 667.182 L1352.86 662.483 Q1354.94 663.617 1357.16 664.173 Q1359.38 664.728 1361.86 664.728 Q1365.87 664.728 1368.2 662.622 Q1370.54 660.515 1370.54 656.904 Q1370.54 653.293 1368.2 651.187 Q1365.87 649.08 1361.86 649.08 Q1359.99 649.08 1358.11 649.497 Q1356.26 649.913 1354.32 650.793 L1354.32 633.432 Z" fill="#000000" fill-rule="evenodd" fill-opacity="1" /><path clip-path="url(#clip890)" d="M 0 0 M1331.89 418.829 L1348.2 418.829 L1348.2 422.764 L1326.26 422.764 L1326.26 418.829 Q1328.92 416.074 1333.51 411.445 Q1338.11 406.792 1339.29 405.449 Q1341.54 402.926 1342.42 401.19 Q1343.32 399.431 1343.32 397.741 Q1343.32 394.987 1341.38 393.25 Q1339.45 391.514 1336.35 391.514 Q1334.15 391.514 1331.7 392.278 Q1329.27 393.042 1326.49 394.593 L1326.49 389.871 Q1329.32 388.737 1331.77 388.158 Q1334.22 387.579 1336.26 387.579 Q1341.63 387.579 1344.82 390.264 Q1348.02 392.95 1348.02 397.44 Q1348.02 399.57 1347.21 401.491 Q1346.42 403.389 1344.32 405.982 Q1343.74 406.653 1340.64 409.871 Q1337.53 413.065 1331.89 418.829 Z" fill="#000000" fill-rule="evenodd" fill-opacity="1" /><path clip-path="url(#clip890)" d="M 0 0 M1363.27 391.283 Q1359.66 391.283 1357.83 394.848 Q1356.03 398.389 1356.03 405.519 Q1356.03 412.625 1357.83 416.19 Q1359.66 419.732 1363.27 419.732 Q1366.91 419.732 1368.71 416.19 Q1370.54 412.625 1370.54 405.519 Q1370.54 398.389 1368.71 394.848 Q1366.91 391.283 1363.27 391.283 M1363.27 387.579 Q1369.08 387.579 1372.14 392.186 Q1375.22 396.769 1375.22 405.519 Q1375.22 414.246 1372.14 418.852 Q1369.08 423.435 1363.27 423.435 Q1357.46 423.435 1354.39 418.852 Q1351.33 414.246 1351.33 405.519 Q1351.33 396.769 1354.39 392.186 Q1357.46 387.579 1363.27 387.579 Z" fill="#000000" fill-rule="evenodd" fill-opacity="1" /><path clip-path="url(#clip890)" d="M 0 0 M1332.88 173.601 L1349.2 173.601 L1349.2 177.536 L1327.26 177.536 L1327.26 173.601 Q1329.92 170.847 1334.5 166.217 Q1339.11 161.564 1340.29 160.222 Q1342.53 157.698 1343.41 155.962 Q1344.32 154.203 1344.32 152.513 Q1344.32 149.759 1342.37 148.023 Q1340.45 146.286 1337.35 146.286 Q1335.15 146.286 1332.7 147.05 Q1330.26 147.814 1327.49 149.365 L1327.49 144.643 Q1330.31 143.509 1332.76 142.93 Q1335.22 142.351 1337.26 142.351 Q1342.63 142.351 1345.82 145.036 Q1349.01 147.722 1349.01 152.212 Q1349.01 154.342 1348.2 156.263 Q1347.42 158.161 1345.31 160.754 Q1344.73 161.425 1341.63 164.643 Q1338.53 167.837 1332.88 173.601 Z" fill="#000000" fill-rule="evenodd" fill-opacity="1" /><path clip-path="url(#clip890)" d="M 0 0 M1354.32 142.976 L1372.67 142.976 L1372.67 146.911 L1358.6 146.911 L1358.6 155.384 Q1359.62 155.036 1360.63 154.874 Q1361.65 154.689 1362.67 154.689 Q1368.46 154.689 1371.84 157.86 Q1375.22 161.032 1375.22 166.448 Q1375.22 172.027 1371.75 175.129 Q1368.27 178.208 1361.95 178.208 Q1359.78 178.208 1357.51 177.837 Q1355.26 177.467 1352.86 176.726 L1352.86 172.027 Q1354.94 173.161 1357.16 173.717 Q1359.38 174.272 1361.86 174.272 Q1365.87 174.272 1368.2 172.166 Q1370.54 170.059 1370.54 166.448 Q1370.54 162.837 1368.2 160.731 Q1365.87 158.624 1361.86 158.624 Q1359.99 158.624 1358.11 159.041 Q1356.26 159.458 1354.32 160.337 L1354.32 142.976 Z" fill="#000000" fill-rule="evenodd" fill-opacity="1" /><path clip-path="url(#clip890)" d="M 0 0 M1685.35 12.096 L1693.53 12.096 L1693.53 72.576 L1685.35 72.576 L1685.35 12.096 Z" fill="#000000" fill-rule="evenodd" fill-opacity="1" /><path clip-path="url(#clip890)" d="M 0 0 M1730.28 28.5427 L1730.28 35.5912 Q1727.12 33.9709 1723.71 33.1607 Q1720.31 32.3505 1716.67 32.3505 Q1711.12 32.3505 1708.32 34.0519 Q1705.57 35.7533 1705.57 39.156 Q1705.57 41.7486 1707.55 43.2475 Q1709.54 44.7058 1715.53 46.0426 L1718.08 46.6097 Q1726.02 48.3111 1729.34 51.4303 Q1732.71 54.509 1732.71 60.0587 Q1732.71 66.3781 1727.68 70.0644 Q1722.7 73.7508 1713.95 73.7508 Q1710.31 73.7508 1706.34 73.0216 Q1702.41 72.3329 1698.03 70.9151 L1698.03 63.2184 Q1702.16 65.3654 1706.17 66.4591 Q1710.18 67.5124 1714.11 67.5124 Q1719.38 67.5124 1722.21 65.73 Q1725.05 63.9071 1725.05 60.6258 Q1725.05 57.5877 1722.98 55.9673 Q1720.96 54.3469 1714.03 52.8481 L1711.44 52.2405 Q1704.51 50.7821 1701.43 47.7845 Q1698.35 44.7463 1698.35 39.4801 Q1698.35 33.0797 1702.89 29.5959 Q1707.43 26.1121 1715.77 26.1121 Q1719.91 26.1121 1723.55 26.7198 Q1727.2 27.3274 1730.28 28.5427 Z" fill="#000000" fill-rule="evenodd" fill-opacity="1" /><path clip-path="url(#clip890)" d="M 0 0 M1758.11 32.4315 Q1752.11 32.4315 1748.63 37.1306 Q1745.14 41.7891 1745.14 49.9314 Q1745.14 58.0738 1748.59 62.7728 Q1752.07 67.4314 1758.11 67.4314 Q1764.06 67.4314 1767.54 62.7323 Q1771.03 58.0333 1771.03 49.9314 Q1771.03 41.8701 1767.54 37.1711 Q1764.06 32.4315 1758.11 32.4315 M1758.11 26.1121 Q1767.83 26.1121 1773.38 32.4315 Q1778.93 38.7509 1778.93 49.9314 Q1778.93 61.0714 1773.38 67.4314 Q1767.83 73.7508 1758.11 73.7508 Q1748.34 73.7508 1742.79 67.4314 Q1737.28 61.0714 1737.28 49.9314 Q1737.28 38.7509 1742.79 32.4315 Q1748.34 26.1121 1758.11 26.1121 Z" fill="#000000" fill-rule="evenodd" fill-opacity="1" /><path clip-path="url(#clip890)" d="M 0 0 M1794.12 14.324 L1794.12 27.2059 L1809.47 27.2059 L1809.47 32.9987 L1794.12 32.9987 L1794.12 57.6282 Q1794.12 63.1779 1795.62 64.7578 Q1797.16 66.3376 1801.82 66.3376 L1809.47 66.3376 L1809.47 72.576 L1801.82 72.576 Q1793.19 72.576 1789.91 69.3758 Q1786.62 66.1351 1786.62 57.6282 L1786.62 32.9987 L1781.16 32.9987 L1781.16 27.2059 L1786.62 27.2059 L1786.62 14.324 L1794.12 14.324 Z" fill="#000000" fill-rule="evenodd" fill-opacity="1" /><path clip-path="url(#clip890)" d="M 0 0 M1855 45.1919 L1855 72.576 L1847.55 72.576 L1847.55 45.4349 Q1847.55 38.994 1845.04 35.7938 Q1842.53 32.5936 1837.5 32.5936 Q1831.47 32.5936 1827.98 36.4419 Q1824.5 40.2903 1824.5 46.9338 L1824.5 72.576 L1817.01 72.576 L1817.01 9.54393 L1824.5 9.54393 L1824.5 34.2544 Q1827.17 30.163 1830.78 28.1376 Q1834.42 26.1121 1839.16 26.1121 Q1846.98 26.1121 1850.99 30.9732 Q1855 35.7938 1855 45.1919 Z" fill="#000000" fill-rule="evenodd" fill-opacity="1" /><path clip-path="url(#clip890)" d="M 0 0 M1901.63 48.0275 L1901.63 51.6733 L1867.36 51.6733 Q1867.84 59.3701 1871.98 63.421 Q1876.15 67.4314 1883.56 67.4314 Q1887.86 67.4314 1891.87 66.3781 Q1895.92 65.3249 1899.89 63.2184 L1899.89 70.267 Q1895.88 71.9684 1891.66 72.8596 Q1887.45 73.7508 1883.12 73.7508 Q1872.26 73.7508 1865.9 67.4314 Q1859.58 61.1119 1859.58 50.3365 Q1859.58 39.1965 1865.58 32.6746 Q1871.61 26.1121 1881.82 26.1121 Q1890.98 26.1121 1896.28 32.0264 Q1901.63 37.9003 1901.63 48.0275 M1894.18 45.84 Q1894.09 39.7232 1890.73 36.0774 Q1887.41 32.4315 1881.9 32.4315 Q1875.66 32.4315 1871.9 35.9558 Q1868.17 39.4801 1867.6 45.8805 L1894.18 45.84 Z" fill="#000000" fill-rule="evenodd" fill-opacity="1" /><path clip-path="url(#clip890)" d="M 0 0 M1935.74 34.1734 Q1934.48 33.4443 1932.98 33.1202 Q1931.52 32.7556 1929.74 32.7556 Q1923.42 32.7556 1920.02 36.8875 Q1916.66 40.9789 1916.66 48.6757 L1916.66 72.576 L1909.16 72.576 L1909.16 27.2059 L1916.66 27.2059 L1916.66 34.2544 Q1919.01 30.1225 1922.78 28.1376 Q1926.54 26.1121 1931.93 26.1121 Q1932.7 26.1121 1933.63 26.2337 Q1934.56 26.3147 1935.7 26.5172 L1935.74 34.1734 Z" fill="#000000" fill-rule="evenodd" fill-opacity="1" /><path clip-path="url(#clip890)" d="M 0 0 M1977.42 35.9153 Q1980.22 30.8922 1984.11 28.5022 Q1987.99 26.1121 1993.26 26.1121 Q2000.35 26.1121 2004.2 31.0947 Q2008.05 36.0368 2008.05 45.1919 L2008.05 72.576 L2000.55 72.576 L2000.55 45.4349 Q2000.55 38.913 1998.24 35.7533 Q1995.93 32.5936 1991.19 32.5936 Q1985.4 32.5936 1982.04 36.4419 Q1978.68 40.2903 1978.68 46.9338 L1978.68 72.576 L1971.18 72.576 L1971.18 45.4349 Q1971.18 38.8725 1968.87 35.7533 Q1966.57 32.5936 1961.74 32.5936 Q1956.03 32.5936 1952.67 36.4824 Q1949.31 40.3308 1949.31 46.9338 L1949.31 72.576 L1941.81 72.576 L1941.81 27.2059 L1949.31 27.2059 L1949.31 34.2544 Q1951.86 30.082 1955.43 28.0971 Q1958.99 26.1121 1963.89 26.1121 Q1968.83 26.1121 1972.28 28.6237 Q1975.76 31.1352 1977.42 35.9153 Z" fill="#000000" fill-rule="evenodd" fill-opacity="1" /><path clip-path="url(#clip890)" d="M 0 0 M2036.48 49.7694 Q2027.45 49.7694 2023.97 51.8354 Q2020.48 53.9013 2020.48 58.8839 Q2020.48 62.8538 2023.08 65.2034 Q2025.71 67.5124 2030.2 67.5124 Q2036.4 67.5124 2040.13 63.1374 Q2043.9 58.7219 2043.9 51.4303 L2043.9 49.7694 L2036.48 49.7694 M2051.35 46.6907 L2051.35 72.576 L2043.9 72.576 L2043.9 65.6895 Q2041.34 69.8214 2037.54 71.8063 Q2033.73 73.7508 2028.22 73.7508 Q2021.25 73.7508 2017.12 69.8619 Q2013.03 65.9325 2013.03 59.3701 Q2013.03 51.7138 2018.13 47.825 Q2023.28 43.9361 2033.45 43.9361 L2043.9 43.9361 L2043.9 43.2069 Q2043.9 38.0623 2040.49 35.2672 Q2037.13 32.4315 2031.02 32.4315 Q2027.13 32.4315 2023.44 33.3632 Q2019.75 34.295 2016.35 36.1584 L2016.35 29.2718 Q2020.44 27.692 2024.29 26.9223 Q2028.14 26.1121 2031.78 26.1121 Q2041.63 26.1121 2046.49 31.2163 Q2051.35 36.3204 2051.35 46.6907 Z" fill="#000000" fill-rule="evenodd" fill-opacity="1" /><path clip-path="url(#clip890)" d="M 0 0 M2059.17 9.54393 L2066.62 9.54393 L2066.62 72.576 L2059.17 72.576 L2059.17 9.54393 Z" fill="#000000" fill-rule="evenodd" fill-opacity="1" /><path clip-path="url(#clip890)" d="M 0 0 M1674.48 1513.81 L1674.48 1531.66 L1682.57 1531.66 Q1687.05 1531.66 1689.5 1529.34 Q1691.95 1527.02 1691.95 1522.72 Q1691.95 1518.45 1689.5 1516.13 Q1687.05 1513.81 1682.57 1513.81 L1674.48 1513.81 M1668.05 1508.52 L1682.57 1508.52 Q1690.55 1508.52 1694.63 1512.15 Q1698.73 1515.75 1698.73 1522.72 Q1698.73 1529.75 1694.63 1533.35 Q1690.55 1536.95 1682.57 1536.95 L1674.48 1536.95 L1674.48 1556.04 L1668.05 1556.04 L1668.05 1508.52 Z" fill="#000000" fill-rule="evenodd" fill-opacity="1" /><path clip-path="url(#clip890)" d="M 0 0 M1724.39 1525.87 Q1723.4 1525.3 1722.22 1525.04 Q1721.08 1524.76 1719.68 1524.76 Q1714.71 1524.76 1712.04 1528 Q1709.4 1531.22 1709.4 1537.27 L1709.4 1556.04 L1703.51 1556.04 L1703.51 1520.4 L1709.4 1520.4 L1709.4 1525.93 Q1711.24 1522.69 1714.2 1521.13 Q1717.16 1519.54 1721.4 1519.54 Q1722 1519.54 1722.73 1519.63 Q1723.46 1519.7 1724.36 1519.85 L1724.39 1525.87 Z" fill="#000000" fill-rule="evenodd" fill-opacity="1" /><path clip-path="url(#clip890)" d="M 0 0 M1759.59 1536.76 L1759.59 1539.62 L1732.66 1539.62 Q1733.05 1545.67 1736.29 1548.85 Q1739.57 1552 1745.39 1552 Q1748.77 1552 1751.92 1551.17 Q1755.1 1550.35 1758.22 1548.69 L1758.22 1554.23 Q1755.07 1555.57 1751.76 1556.27 Q1748.45 1556.97 1745.04 1556.97 Q1736.51 1556.97 1731.52 1552 Q1726.55 1547.04 1726.55 1538.57 Q1726.55 1529.82 1731.26 1524.69 Q1736.01 1519.54 1744.03 1519.54 Q1751.22 1519.54 1755.39 1524.18 Q1759.59 1528.8 1759.59 1536.76 M1753.73 1535.04 Q1753.67 1530.23 1751.03 1527.37 Q1748.42 1524.5 1744.09 1524.5 Q1739.19 1524.5 1736.23 1527.27 Q1733.3 1530.04 1732.85 1535.07 L1753.73 1535.04 Z" fill="#000000" fill-rule="evenodd" fill-opacity="1" /><path clip-path="url(#clip890)" d="M 0 0 M1788.46 1521.45 L1788.46 1526.98 Q1785.98 1525.71 1783.3 1525.07 Q1780.63 1524.44 1777.76 1524.44 Q1773.4 1524.44 1771.21 1525.77 Q1769.04 1527.11 1769.04 1529.79 Q1769.04 1531.82 1770.6 1533 Q1772.16 1534.15 1776.87 1535.2 L1778.88 1535.64 Q1785.12 1536.98 1787.73 1539.43 Q1790.37 1541.85 1790.37 1546.21 Q1790.37 1551.17 1786.42 1554.07 Q1782.51 1556.97 1775.63 1556.97 Q1772.77 1556.97 1769.65 1556.39 Q1766.56 1555.85 1763.12 1554.74 L1763.12 1548.69 Q1766.37 1550.38 1769.52 1551.24 Q1772.67 1552.07 1775.76 1552.07 Q1779.9 1552.07 1782.12 1550.66 Q1784.35 1549.23 1784.35 1546.65 Q1784.35 1544.27 1782.73 1542.99 Q1781.14 1541.72 1775.7 1540.54 L1773.66 1540.07 Q1768.22 1538.92 1765.8 1536.56 Q1763.38 1534.18 1763.38 1530.04 Q1763.38 1525.01 1766.94 1522.27 Q1770.51 1519.54 1777.06 1519.54 Q1780.31 1519.54 1783.18 1520.01 Q1786.04 1520.49 1788.46 1521.45 Z" fill="#000000" fill-rule="evenodd" fill-opacity="1" /><path clip-path="url(#clip890)" d="M 0 0 M1819.24 1521.45 L1819.24 1526.98 Q1816.75 1525.71 1814.08 1525.07 Q1811.41 1524.44 1808.54 1524.44 Q1804.18 1524.44 1801.99 1525.77 Q1799.82 1527.11 1799.82 1529.79 Q1799.82 1531.82 1801.38 1533 Q1802.94 1534.15 1807.65 1535.2 L1809.66 1535.64 Q1815.89 1536.98 1818.5 1539.43 Q1821.15 1541.85 1821.15 1546.21 Q1821.15 1551.17 1817.2 1554.07 Q1813.28 1556.97 1806.41 1556.97 Q1803.55 1556.97 1800.43 1556.39 Q1797.34 1555.85 1793.9 1554.74 L1793.9 1548.69 Q1797.15 1550.38 1800.3 1551.24 Q1803.45 1552.07 1806.54 1552.07 Q1810.67 1552.07 1812.9 1550.66 Q1815.13 1549.23 1815.13 1546.65 Q1815.13 1544.27 1813.51 1542.99 Q1811.92 1541.72 1806.47 1540.54 L1804.44 1540.07 Q1798.99 1538.92 1796.57 1536.56 Q1794.16 1534.18 1794.16 1530.04 Q1794.16 1525.01 1797.72 1522.27 Q1801.29 1519.54 1807.84 1519.54 Q1811.09 1519.54 1813.95 1520.01 Q1816.82 1520.49 1819.24 1521.45 Z" fill="#000000" fill-rule="evenodd" fill-opacity="1" /><path clip-path="url(#clip890)" d="M 0 0 M1826.68 1541.98 L1826.68 1520.4 L1832.54 1520.4 L1832.54 1541.75 Q1832.54 1546.81 1834.51 1549.36 Q1836.49 1551.87 1840.43 1551.87 Q1845.18 1551.87 1847.91 1548.85 Q1850.68 1545.83 1850.68 1540.61 L1850.68 1520.4 L1856.54 1520.4 L1856.54 1556.04 L1850.68 1556.04 L1850.68 1550.57 Q1848.55 1553.82 1845.72 1555.41 Q1842.92 1556.97 1839.19 1556.97 Q1833.05 1556.97 1829.87 1553.15 Q1826.68 1549.33 1826.68 1541.98 M1841.42 1519.54 L1841.42 1519.54 Z" fill="#000000" fill-rule="evenodd" fill-opacity="1" /><path clip-path="url(#clip890)" d="M 0 0 M1883.34 1525.87 Q1882.35 1525.3 1881.18 1525.04 Q1880.03 1524.76 1878.63 1524.76 Q1873.66 1524.76 1870.99 1528 Q1868.35 1531.22 1868.35 1537.27 L1868.35 1556.04 L1862.46 1556.04 L1862.46 1520.4 L1868.35 1520.4 L1868.35 1525.93 Q1870.19 1522.69 1873.15 1521.13 Q1876.11 1519.54 1880.35 1519.54 Q1880.95 1519.54 1881.68 1519.63 Q1882.42 1519.7 1883.31 1519.85 L1883.34 1525.87 Z" fill="#000000" fill-rule="evenodd" fill-opacity="1" /><path clip-path="url(#clip890)" d="M 0 0 M1918.54 1536.76 L1918.54 1539.62 L1891.61 1539.62 Q1892 1545.67 1895.24 1548.85 Q1898.52 1552 1904.35 1552 Q1907.72 1552 1910.87 1551.17 Q1914.05 1550.35 1917.17 1548.69 L1917.17 1554.23 Q1914.02 1555.57 1910.71 1556.27 Q1907.4 1556.97 1904 1556.97 Q1895.47 1556.97 1890.47 1552 Q1885.5 1547.04 1885.5 1538.57 Q1885.5 1529.82 1890.21 1524.69 Q1894.96 1519.54 1902.98 1519.54 Q1910.17 1519.54 1914.34 1524.18 Q1918.54 1528.8 1918.54 1536.76 M1912.69 1535.04 Q1912.62 1530.23 1909.98 1527.37 Q1907.37 1524.5 1903.04 1524.5 Q1898.14 1524.5 1895.18 1527.27 Q1892.25 1530.04 1891.81 1535.07 L1912.69 1535.04 Z" fill="#000000" fill-rule="evenodd" fill-opacity="1" /><path clip-path="url(#clip890)" d="M 0 0 M1944.86 1506.52 L1958.36 1506.52 L1958.36 1511.07 L1950.72 1511.07 L1950.72 1560.09 L1958.36 1560.09 L1958.36 1564.64 L1944.86 1564.64 L1944.86 1506.52 Z" fill="#000000" fill-rule="evenodd" fill-opacity="1" /><path clip-path="url(#clip890)" d="M 0 0 M1964.28 1506.52 L1970.17 1506.52 L1970.17 1535.77 L1987.64 1520.4 L1995.12 1520.4 L1976.22 1537.07 L1995.92 1556.04 L1988.28 1556.04 L1970.17 1538.63 L1970.17 1556.04 L1964.28 1556.04 L1964.28 1506.52 Z" fill="#000000" fill-rule="evenodd" fill-opacity="1" /><path clip-path="url(#clip890)" d="M 0 0 M2008.74 1513.81 L2008.74 1531.66 L2016.83 1531.66 Q2021.32 1531.66 2023.77 1529.34 Q2026.22 1527.02 2026.22 1522.72 Q2026.22 1518.45 2023.77 1516.13 Q2021.32 1513.81 2016.83 1513.81 L2008.74 1513.81 M2002.31 1508.52 L2016.83 1508.52 Q2024.82 1508.52 2028.89 1512.15 Q2033 1515.75 2033 1522.72 Q2033 1529.75 2028.89 1533.35 Q2024.82 1536.95 2016.83 1536.95 L2008.74 1536.95 L2008.74 1556.04 L2002.31 1556.04 L2002.31 1508.52 Z" fill="#000000" fill-rule="evenodd" fill-opacity="1" /><path clip-path="url(#clip890)" d="M 0 0 M2052.41 1538.12 Q2045.31 1538.12 2042.58 1539.75 Q2039.84 1541.37 2039.84 1545.29 Q2039.84 1548.4 2041.88 1550.25 Q2043.95 1552.07 2047.48 1552.07 Q2052.35 1552.07 2055.28 1548.63 Q2058.24 1545.16 2058.24 1539.43 L2058.24 1538.12 L2052.41 1538.12 M2064.09 1535.71 L2064.09 1556.04 L2058.24 1556.04 L2058.24 1550.63 Q2056.23 1553.88 2053.24 1555.44 Q2050.25 1556.97 2045.92 1556.97 Q2040.45 1556.97 2037.2 1553.91 Q2033.98 1550.82 2033.98 1545.67 Q2033.98 1539.65 2037.99 1536.6 Q2042.04 1533.54 2050.03 1533.54 L2058.24 1533.54 L2058.24 1532.97 Q2058.24 1528.93 2055.56 1526.73 Q2052.92 1524.5 2048.12 1524.5 Q2045.06 1524.5 2042.16 1525.23 Q2039.27 1525.97 2036.59 1527.43 L2036.59 1522.02 Q2039.81 1520.78 2042.83 1520.17 Q2045.86 1519.54 2048.72 1519.54 Q2056.45 1519.54 2060.27 1523.55 Q2064.09 1527.56 2064.09 1535.71 Z" fill="#000000" fill-rule="evenodd" fill-opacity="1" /><path clip-path="url(#clip890)" d="M 0 0 M2083.92 1506.52 L2083.92 1564.64 L2070.43 1564.64 L2070.43 1560.09 L2078.03 1560.09 L2078.03 1511.07 L2070.43 1511.07 L2070.43 1506.52 L2083.92 1506.52 Z" fill="#000000" fill-rule="evenodd" fill-opacity="1" /><path clip-path="url(#clip890)" d="M 0 0 M1252.36 864.419 L1252.36 836.601 L1257.7 836.601 L1283.33 858.626 L1283.33 836.601 L1288 836.601 L1288 865.215 L1282.66 865.215 L1257.03 843.19 L1257.03 864.419 L1252.36 864.419 Z" fill="#000000" fill-rule="evenodd" fill-opacity="1" /><path clip-path="url(#clip890)" d="M 0 0 M1238.48 810.279 L1238.48 796.784 L1243.03 796.784 L1243.03 804.422 L1292.05 804.422 L1292.05 796.784 L1296.6 796.784 L1296.6 810.279 L1238.48 810.279 Z" fill="#000000" fill-rule="evenodd" fill-opacity="1" /><path clip-path="url(#clip890)" d="M 0 0 M1238.48 790.864 L1238.48 784.975 L1267.73 784.975 L1252.36 767.501 L1252.36 760.022 L1269.03 778.928 L1288 759.226 L1288 766.865 L1270.59 784.975 L1288 784.975 L1288 790.864 L1238.48 790.864 Z" fill="#000000" fill-rule="evenodd" fill-opacity="1" /><path clip-path="url(#clip890)" d="M 0 0 M1259.2 725.329 Q1255.25 723.132 1253.37 720.077 Q1251.5 717.021 1251.5 712.884 Q1251.5 707.314 1255.41 704.29 Q1259.29 701.266 1266.49 701.266 L1288 701.266 L1288 707.154 L1266.68 707.154 Q1261.55 707.154 1259.07 708.969 Q1256.59 710.783 1256.59 714.507 Q1256.59 719.058 1259.61 721.7 Q1262.64 724.342 1267.86 724.342 L1288 724.342 L1288 730.23 L1266.68 730.23 Q1261.52 730.23 1259.07 732.044 Q1256.59 733.859 1256.59 737.646 Q1256.59 742.134 1259.64 744.776 Q1262.67 747.418 1267.86 747.418 L1288 747.418 L1288 753.306 L1252.36 753.306 L1252.36 747.418 L1257.89 747.418 Q1254.62 745.412 1253.06 742.611 Q1251.5 739.811 1251.5 735.959 Q1251.5 732.076 1253.47 729.371 Q1255.44 726.634 1259.2 725.329 Z" fill="#000000" fill-rule="evenodd" fill-opacity="1" /><path clip-path="url(#clip890)" d="M 0 0 M1238.48 681.437 L1296.6 681.437 L1296.6 694.932 L1292.05 694.932 L1292.05 687.325 L1243.03 687.325 L1243.03 694.932 L1238.48 694.932 L1238.48 681.437 Z" fill="#000000" fill-rule="evenodd" fill-opacity="1" /><polyline clip-path="url(#clip893)" style="stroke:#009af9; stroke-width:4; stroke-opacity:1; fill:none" points="
  2325.77,1386.4 2325.77,1386.4 
  
  
  2270.36,1361.37 
  
  
  2218.18,1336.35 
  
  
  2169.05,1311.33 
  
  
  2122.78,1286.3 
  
  
  2079.22,1261.28 
  
  
  2038.2,1236.26 
  
  
  1999.57,1211.23 
  
  
  1963.2,1186.21 
  
  
  1928.95,1161.19 
  
  
  1896.7,1136.16 
  
  
  1866.33,1111.14 
  
  
  1837.73,1086.12 
  
  
  1810.8,1061.09 
  
  
  1785.45,1036.07 
  
  
  1761.57,1011.05 
  
  
  1739.09,986.024 
  
  
  1717.92,961 
  
  
  1697.98,935.977 
  
  
  1679.21,910.954 
  
  
  1661.53,885.931 
  
  
  1644.89,860.907 
  
  
  1629.22,835.884 
  
  
  1614.46,810.861 
  
  
  1600.56,785.838 
  
  
  1587.47,760.814 
  
  
  1575.15,735.791 
  
  
  1563.55,710.768 
  
  
  1552.62,685.745 
  
  
  1542.34,660.721 
  
  
  1532.65,635.698 
  
  
  1523.53,610.675 
  
  
  1514.94,585.652 
  
  
  1506.85,560.628 
  
  
  1499.23,535.605 
  
  
  1492.06,510.582 
  
  
  1485.31,485.559 
  
  
  1478.95,460.535 
  
  
  1472.96,435.512 
  
  
  1467.32,410.489 
  
  
  1462.01,385.466 
  
  
  1457.01,360.442 
  
  
  1452.3,335.419 
  
  
  1447.87,310.396 
  
  
  1443.69,285.373 
  
  
  1439.76,260.349 
  
  
  1436.06,235.326 
  
  
  1432.58,210.303 
  
  
  1429.3,185.28 
  
  
  1426.21,160.256 
  
  
  
  "/>
<path clip-path="url(#clip890)" d="
M1989.74 327.952 L2280.76 327.952 L2280.76 206.992 L1989.74 206.992  Z
  " fill="#ffffff" fill-rule="evenodd" fill-opacity="1"/>
<polyline clip-path="url(#clip890)" style="stroke:#000000; stroke-width:4; stroke-opacity:1; fill:none" points="
  1989.74,327.952 2280.76,327.952 2280.76,206.992 1989.74,206.992 1989.74,327.952 
  "/>
<polyline clip-path="url(#clip890)" style="stroke:#009af9; stroke-width:4; stroke-opacity:1; fill:none" points="
  2013.74,267.472 2157.74,267.472 
  "/>
<path clip-path="url(#clip890)" d="M 0 0 M2195.58 287.16 Q2193.77 291.789 2192.06 293.201 Q2190.35 294.613 2187.48 294.613 L2184.08 294.613 L2184.08 291.048 L2186.58 291.048 Q2188.33 291.048 2189.31 290.215 Q2190.28 289.382 2191.46 286.28 L2192.22 284.335 L2181.74 258.826 L2186.25 258.826 L2194.35 279.104 L2202.46 258.826 L2206.97 258.826 L2195.58 287.16 Z" fill="#000000" fill-rule="evenodd" fill-opacity="1" /><path clip-path="url(#clip890)" d="M 0 0 M2212.85 280.817 L2220.49 280.817 L2220.49 254.451 L2212.18 256.118 L2212.18 251.859 L2220.44 250.192 L2225.12 250.192 L2225.12 280.817 L2232.76 280.817 L2232.76 284.752 L2212.85 284.752 L2212.85 280.817 Z" fill="#000000" fill-rule="evenodd" fill-opacity="1" /></svg>
