<?xml version="1.0" encoding="utf-8"?>
<svg xmlns="http://www.w3.org/2000/svg" xmlns:xlink="http://www.w3.org/1999/xlink" width="600" height="400" viewBox="0 0 2400 1600">
<defs>
  <clipPath id="clip950">
    <rect x="0" y="0" width="2400" height="1600"/>
  </clipPath>
</defs>
<path clip-path="url(#clip950)" d="
M0 1600 L2400 1600 L2400 0 L0 0  Z
  " fill="#ffffff" fill-rule="evenodd" fill-opacity="1"/>
<defs>
  <clipPath id="clip951">
    <rect x="480" y="0" width="1681" height="1600"/>
  </clipPath>
</defs>
<path clip-path="url(#clip950)" d="
M238.13 1423.18 L2352.76 1423.18 L2352.76 47.2441 L238.13 47.2441  Z
  " fill="#ffffff" fill-rule="evenodd" fill-opacity="1"/>
<defs>
  <clipPath id="clip952">
    <rect x="238" y="47" width="2116" height="1377"/>
  </clipPath>
</defs>
<polyline clip-path="url(#clip952)" style="stroke:#000000; stroke-width:2; stroke-opacity:0.1; fill:none" points="
  238.13,1423.18 238.13,47.2441 
  "/>
<polyline clip-path="url(#clip952)" style="stroke:#000000; stroke-width:2; stroke-opacity:0.1; fill:none" points="
  540.219,1423.18 540.219,47.2441 
  "/>
<polyline clip-path="url(#clip952)" style="stroke:#000000; stroke-width:2; stroke-opacity:0.1; fill:none" points="
  842.309,1423.18 842.309,47.2441 
  "/>
<polyline clip-path="url(#clip952)" style="stroke:#000000; stroke-width:2; stroke-opacity:0.1; fill:none" points="
  1144.4,1423.18 1144.4,47.2441 
  "/>
<polyline clip-path="url(#clip952)" style="stroke:#000000; stroke-width:2; stroke-opacity:0.1; fill:none" points="
  1446.49,1423.18 1446.49,47.2441 
  "/>
<polyline clip-path="url(#clip952)" style="stroke:#000000; stroke-width:2; stroke-opacity:0.1; fill:none" points="
  1748.58,1423.18 1748.58,47.2441 
  "/>
<polyline clip-path="url(#clip952)" style="stroke:#000000; stroke-width:2; stroke-opacity:0.1; fill:none" points="
  2050.67,1423.18 2050.67,47.2441 
  "/>
<polyline clip-path="url(#clip952)" style="stroke:#000000; stroke-width:2; stroke-opacity:0.1; fill:none" points="
  2352.76,1423.18 2352.76,47.2441 
  "/>
<polyline clip-path="url(#clip950)" style="stroke:#000000; stroke-width:4; stroke-opacity:1; fill:none" points="
  238.13,1423.18 2352.76,1423.18 
  "/>
<polyline clip-path="url(#clip950)" style="stroke:#000000; stroke-width:4; stroke-opacity:1; fill:none" points="
  238.13,1423.18 238.13,1406.67 
  "/>
<polyline clip-path="url(#clip950)" style="stroke:#000000; stroke-width:4; stroke-opacity:1; fill:none" points="
  540.219,1423.18 540.219,1406.67 
  "/>
<polyline clip-path="url(#clip950)" style="stroke:#000000; stroke-width:4; stroke-opacity:1; fill:none" points="
  842.309,1423.18 842.309,1406.67 
  "/>
<polyline clip-path="url(#clip950)" style="stroke:#000000; stroke-width:4; stroke-opacity:1; fill:none" points="
  1144.4,1423.18 1144.4,1406.67 
  "/>
<polyline clip-path="url(#clip950)" style="stroke:#000000; stroke-width:4; stroke-opacity:1; fill:none" points="
  1446.49,1423.18 1446.49,1406.67 
  "/>
<polyline clip-path="url(#clip950)" style="stroke:#000000; stroke-width:4; stroke-opacity:1; fill:none" points="
  1748.58,1423.18 1748.58,1406.67 
  "/>
<polyline clip-path="url(#clip950)" style="stroke:#000000; stroke-width:4; stroke-opacity:1; fill:none" points="
  2050.67,1423.18 2050.67,1406.67 
  "/>
<polyline clip-path="url(#clip950)" style="stroke:#000000; stroke-width:4; stroke-opacity:1; fill:none" points="
  2352.76,1423.18 2352.76,1406.67 
  "/>
<path clip-path="url(#clip950)" d="M 0 0 M238.13 1452.37 Q234.519 1452.37 232.69 1455.94 Q230.885 1459.48 230.885 1466.61 Q230.885 1473.71 232.69 1477.28 Q234.519 1480.82 238.13 1480.82 Q241.764 1480.82 243.57 1477.28 Q245.399 1473.71 245.399 1466.61 Q245.399 1459.48 243.57 1455.94 Q241.764 1452.37 238.13 1452.37 M238.13 1448.67 Q243.94 1448.67 246.996 1453.27 Q250.074 1457.86 250.074 1466.61 Q250.074 1475.33 246.996 1479.94 Q243.94 1484.52 238.13 1484.52 Q232.32 1484.52 229.241 1479.94 Q226.186 1475.33 226.186 1466.61 Q226.186 1457.86 229.241 1453.27 Q232.32 1448.67 238.13 1448.67 Z" fill="#000000" fill-rule="evenodd" fill-opacity="1" /><path clip-path="url(#clip950)" d="M 0 0 M516.99 1449.29 L535.347 1449.29 L535.347 1453.23 L521.273 1453.23 L521.273 1461.7 Q522.291 1461.35 523.31 1461.19 Q524.328 1461 525.347 1461 Q531.134 1461 534.513 1464.18 Q537.893 1467.35 537.893 1472.76 Q537.893 1478.34 534.421 1481.44 Q530.949 1484.52 524.629 1484.52 Q522.453 1484.52 520.185 1484.15 Q517.939 1483.78 515.532 1483.04 L515.532 1478.34 Q517.615 1479.48 519.838 1480.03 Q522.06 1480.59 524.537 1480.59 Q528.541 1480.59 530.879 1478.48 Q533.217 1476.38 533.217 1472.76 Q533.217 1469.15 530.879 1467.05 Q528.541 1464.94 524.537 1464.94 Q522.662 1464.94 520.787 1465.36 Q518.935 1465.77 516.99 1466.65 L516.99 1449.29 Z" fill="#000000" fill-rule="evenodd" fill-opacity="1" /><path clip-path="url(#clip950)" d="M 0 0 M552.962 1452.37 Q549.351 1452.37 547.523 1455.94 Q545.717 1459.48 545.717 1466.61 Q545.717 1473.71 547.523 1477.28 Q549.351 1480.82 552.962 1480.82 Q556.597 1480.82 558.402 1477.28 Q560.231 1473.71 560.231 1466.61 Q560.231 1459.48 558.402 1455.94 Q556.597 1452.37 552.962 1452.37 M552.962 1448.67 Q558.773 1448.67 561.828 1453.27 Q564.907 1457.86 564.907 1466.61 Q564.907 1475.33 561.828 1479.94 Q558.773 1484.52 552.962 1484.52 Q547.152 1484.52 544.074 1479.94 Q541.018 1475.33 541.018 1466.61 Q541.018 1457.86 544.074 1453.27 Q547.152 1448.67 552.962 1448.67 Z" fill="#000000" fill-rule="evenodd" fill-opacity="1" /><path clip-path="url(#clip950)" d="M 0 0 M805.677 1479.92 L813.316 1479.92 L813.316 1453.55 L805.006 1455.22 L805.006 1450.96 L813.27 1449.29 L817.946 1449.29 L817.946 1479.92 L825.584 1479.92 L825.584 1483.85 L805.677 1483.85 L805.677 1479.92 Z" fill="#000000" fill-rule="evenodd" fill-opacity="1" /><path clip-path="url(#clip950)" d="M 0 0 M840.654 1452.37 Q837.043 1452.37 835.214 1455.94 Q833.408 1459.48 833.408 1466.61 Q833.408 1473.71 835.214 1477.28 Q837.043 1480.82 840.654 1480.82 Q844.288 1480.82 846.094 1477.28 Q847.922 1473.71 847.922 1466.61 Q847.922 1459.48 846.094 1455.94 Q844.288 1452.37 840.654 1452.37 M840.654 1448.67 Q846.464 1448.67 849.519 1453.27 Q852.598 1457.86 852.598 1466.61 Q852.598 1475.33 849.519 1479.94 Q846.464 1484.52 840.654 1484.52 Q834.844 1484.52 831.765 1479.94 Q828.709 1475.33 828.709 1466.61 Q828.709 1457.86 831.765 1453.27 Q834.844 1448.67 840.654 1448.67 Z" fill="#000000" fill-rule="evenodd" fill-opacity="1" /><path clip-path="url(#clip950)" d="M 0 0 M867.668 1452.37 Q864.056 1452.37 862.228 1455.94 Q860.422 1459.48 860.422 1466.61 Q860.422 1473.71 862.228 1477.28 Q864.056 1480.82 867.668 1480.82 Q871.302 1480.82 873.107 1477.28 Q874.936 1473.71 874.936 1466.61 Q874.936 1459.48 873.107 1455.94 Q871.302 1452.37 867.668 1452.37 M867.668 1448.67 Q873.478 1448.67 876.533 1453.27 Q879.612 1457.86 879.612 1466.61 Q879.612 1475.33 876.533 1479.94 Q873.478 1484.52 867.668 1484.52 Q861.857 1484.52 858.779 1479.94 Q855.723 1475.33 855.723 1466.61 Q855.723 1457.86 858.779 1453.27 Q861.857 1448.67 867.668 1448.67 Z" fill="#000000" fill-rule="evenodd" fill-opacity="1" /><path clip-path="url(#clip950)" d="M 0 0 M1108.26 1479.92 L1115.9 1479.92 L1115.9 1453.55 L1107.59 1455.22 L1107.59 1450.96 L1115.86 1449.29 L1120.53 1449.29 L1120.53 1479.92 L1128.17 1479.92 L1128.17 1483.85 L1108.26 1483.85 L1108.26 1479.92 Z" fill="#000000" fill-rule="evenodd" fill-opacity="1" /><path clip-path="url(#clip950)" d="M 0 0 M1133.29 1449.29 L1151.64 1449.29 L1151.64 1453.23 L1137.57 1453.23 L1137.57 1461.7 Q1138.59 1461.35 1139.61 1461.19 Q1140.63 1461 1141.64 1461 Q1147.43 1461 1150.81 1464.18 Q1154.19 1467.35 1154.19 1472.76 Q1154.19 1478.34 1150.72 1481.44 Q1147.25 1484.52 1140.93 1484.52 Q1138.75 1484.52 1136.48 1484.15 Q1134.24 1483.78 1131.83 1483.04 L1131.83 1478.34 Q1133.91 1479.48 1136.13 1480.03 Q1138.36 1480.59 1140.83 1480.59 Q1144.84 1480.59 1147.18 1478.48 Q1149.51 1476.38 1149.51 1472.76 Q1149.51 1469.15 1147.18 1467.05 Q1144.84 1464.94 1140.83 1464.94 Q1138.96 1464.94 1137.08 1465.36 Q1135.23 1465.77 1133.29 1466.65 L1133.29 1449.29 Z" fill="#000000" fill-rule="evenodd" fill-opacity="1" /><path clip-path="url(#clip950)" d="M 0 0 M1169.26 1452.37 Q1165.65 1452.37 1163.82 1455.94 Q1162.01 1459.48 1162.01 1466.61 Q1162.01 1473.71 1163.82 1477.28 Q1165.65 1480.82 1169.26 1480.82 Q1172.89 1480.82 1174.7 1477.28 Q1176.53 1473.71 1176.53 1466.61 Q1176.53 1459.48 1174.7 1455.94 Q1172.89 1452.37 1169.26 1452.37 M1169.26 1448.67 Q1175.07 1448.67 1178.12 1453.27 Q1181.2 1457.86 1181.2 1466.61 Q1181.2 1475.33 1178.12 1479.94 Q1175.07 1484.52 1169.26 1484.52 Q1163.45 1484.52 1160.37 1479.94 Q1157.31 1475.33 1157.31 1466.61 Q1157.31 1457.86 1160.37 1453.27 Q1163.45 1448.67 1169.26 1448.67 Z" fill="#000000" fill-rule="evenodd" fill-opacity="1" /><path clip-path="url(#clip950)" d="M 0 0 M1414.13 1479.92 L1430.45 1479.92 L1430.45 1483.85 L1408.5 1483.85 L1408.5 1479.92 Q1411.16 1477.16 1415.75 1472.53 Q1420.35 1467.88 1421.53 1466.54 Q1423.78 1464.01 1424.66 1462.28 Q1425.56 1460.52 1425.56 1458.83 Q1425.56 1456.07 1423.62 1454.34 Q1421.7 1452.6 1418.59 1452.6 Q1416.4 1452.6 1413.94 1453.37 Q1411.51 1454.13 1408.73 1455.68 L1408.73 1450.96 Q1411.56 1449.82 1414.01 1449.25 Q1416.46 1448.67 1418.5 1448.67 Q1423.87 1448.67 1427.07 1451.35 Q1430.26 1454.04 1430.26 1458.53 Q1430.26 1460.66 1429.45 1462.58 Q1428.66 1464.48 1426.56 1467.07 Q1425.98 1467.74 1422.88 1470.96 Q1419.77 1474.15 1414.13 1479.92 Z" fill="#000000" fill-rule="evenodd" fill-opacity="1" /><path clip-path="url(#clip950)" d="M 0 0 M1445.52 1452.37 Q1441.9 1452.37 1440.08 1455.94 Q1438.27 1459.48 1438.27 1466.61 Q1438.27 1473.71 1440.08 1477.28 Q1441.9 1480.82 1445.52 1480.82 Q1449.15 1480.82 1450.96 1477.28 Q1452.78 1473.71 1452.78 1466.61 Q1452.78 1459.48 1450.96 1455.94 Q1449.15 1452.37 1445.52 1452.37 M1445.52 1448.67 Q1451.33 1448.67 1454.38 1453.27 Q1457.46 1457.86 1457.46 1466.61 Q1457.46 1475.33 1454.38 1479.94 Q1451.33 1484.52 1445.52 1484.52 Q1439.71 1484.52 1436.63 1479.94 Q1433.57 1475.33 1433.57 1466.61 Q1433.57 1457.86 1436.63 1453.27 Q1439.71 1448.67 1445.52 1448.67 Z" fill="#000000" fill-rule="evenodd" fill-opacity="1" /><path clip-path="url(#clip950)" d="M 0 0 M1472.53 1452.37 Q1468.92 1452.37 1467.09 1455.94 Q1465.28 1459.48 1465.28 1466.61 Q1465.28 1473.71 1467.09 1477.28 Q1468.92 1480.82 1472.53 1480.82 Q1476.16 1480.82 1477.97 1477.28 Q1479.8 1473.71 1479.8 1466.61 Q1479.8 1459.48 1477.97 1455.94 Q1476.16 1452.37 1472.53 1452.37 M1472.53 1448.67 Q1478.34 1448.67 1481.39 1453.27 Q1484.47 1457.86 1484.47 1466.61 Q1484.47 1475.33 1481.39 1479.94 Q1478.34 1484.52 1472.53 1484.52 Q1466.72 1484.52 1463.64 1479.94 Q1460.58 1475.33 1460.58 1466.61 Q1460.58 1457.86 1463.64 1453.27 Q1466.72 1448.67 1472.53 1448.67 Z" fill="#000000" fill-rule="evenodd" fill-opacity="1" /><path clip-path="url(#clip950)" d="M 0 0 M1716.71 1479.92 L1733.03 1479.92 L1733.03 1483.85 L1711.09 1483.85 L1711.09 1479.92 Q1713.75 1477.16 1718.33 1472.53 Q1722.94 1467.88 1724.12 1466.54 Q1726.37 1464.01 1727.25 1462.28 Q1728.15 1460.52 1728.15 1458.83 Q1728.15 1456.07 1726.2 1454.34 Q1724.28 1452.6 1721.18 1452.6 Q1718.98 1452.6 1716.53 1453.37 Q1714.1 1454.13 1711.32 1455.68 L1711.32 1450.96 Q1714.14 1449.82 1716.6 1449.25 Q1719.05 1448.67 1721.09 1448.67 Q1726.46 1448.67 1729.65 1451.35 Q1732.85 1454.04 1732.85 1458.53 Q1732.85 1460.66 1732.04 1462.58 Q1731.25 1464.48 1729.14 1467.07 Q1728.57 1467.74 1725.46 1470.96 Q1722.36 1474.15 1716.71 1479.92 Z" fill="#000000" fill-rule="evenodd" fill-opacity="1" /><path clip-path="url(#clip950)" d="M 0 0 M1738.15 1449.29 L1756.51 1449.29 L1756.51 1453.23 L1742.43 1453.23 L1742.43 1461.7 Q1743.45 1461.35 1744.47 1461.19 Q1745.49 1461 1746.51 1461 Q1752.29 1461 1755.67 1464.18 Q1759.05 1467.35 1759.05 1472.76 Q1759.05 1478.34 1755.58 1481.44 Q1752.11 1484.52 1745.79 1484.52 Q1743.61 1484.52 1741.34 1484.15 Q1739.1 1483.78 1736.69 1483.04 L1736.69 1478.34 Q1738.77 1479.48 1741 1480.03 Q1743.22 1480.59 1745.7 1480.59 Q1749.7 1480.59 1752.04 1478.48 Q1754.38 1476.38 1754.38 1472.76 Q1754.38 1469.15 1752.04 1467.05 Q1749.7 1464.94 1745.7 1464.94 Q1743.82 1464.94 1741.95 1465.36 Q1740.09 1465.77 1738.15 1466.65 L1738.15 1449.29 Z" fill="#000000" fill-rule="evenodd" fill-opacity="1" /><path clip-path="url(#clip950)" d="M 0 0 M1774.12 1452.37 Q1770.51 1452.37 1768.68 1455.94 Q1766.88 1459.48 1766.88 1466.61 Q1766.88 1473.71 1768.68 1477.28 Q1770.51 1480.82 1774.12 1480.82 Q1777.76 1480.82 1779.56 1477.28 Q1781.39 1473.71 1781.39 1466.61 Q1781.39 1459.48 1779.56 1455.94 Q1777.76 1452.37 1774.12 1452.37 M1774.12 1448.67 Q1779.93 1448.67 1782.99 1453.27 Q1786.07 1457.86 1786.07 1466.61 Q1786.07 1475.33 1782.99 1479.94 Q1779.93 1484.52 1774.12 1484.52 Q1768.31 1484.52 1765.23 1479.94 Q1762.18 1475.33 1762.18 1466.61 Q1762.18 1457.86 1765.23 1453.27 Q1768.31 1448.67 1774.12 1448.67 Z" fill="#000000" fill-rule="evenodd" fill-opacity="1" /><path clip-path="url(#clip950)" d="M 0 0 M2027.9 1465.22 Q2031.26 1465.94 2033.13 1468.2 Q2035.03 1470.47 2035.03 1473.81 Q2035.03 1478.92 2031.51 1481.72 Q2027.99 1484.52 2021.51 1484.52 Q2019.34 1484.52 2017.02 1484.08 Q2014.73 1483.67 2012.28 1482.81 L2012.28 1478.3 Q2014.22 1479.43 2016.53 1480.01 Q2018.85 1480.59 2021.37 1480.59 Q2025.77 1480.59 2028.06 1478.85 Q2030.38 1477.12 2030.38 1473.81 Q2030.38 1470.75 2028.22 1469.04 Q2026.09 1467.3 2022.28 1467.3 L2018.25 1467.3 L2018.25 1463.46 L2022.46 1463.46 Q2025.91 1463.46 2027.74 1462.09 Q2029.57 1460.7 2029.57 1458.11 Q2029.57 1455.45 2027.67 1454.04 Q2025.79 1452.6 2022.28 1452.6 Q2020.35 1452.6 2018.16 1453.02 Q2015.96 1453.44 2013.32 1454.31 L2013.32 1450.15 Q2015.98 1449.41 2018.29 1449.04 Q2020.63 1448.67 2022.69 1448.67 Q2028.02 1448.67 2031.12 1451.1 Q2034.22 1453.5 2034.22 1457.63 Q2034.22 1460.5 2032.58 1462.49 Q2030.93 1464.45 2027.9 1465.22 Z" fill="#000000" fill-rule="evenodd" fill-opacity="1" /><path clip-path="url(#clip950)" d="M 0 0 M2050.1 1452.37 Q2046.49 1452.37 2044.66 1455.94 Q2042.85 1459.48 2042.85 1466.61 Q2042.85 1473.71 2044.66 1477.28 Q2046.49 1480.82 2050.1 1480.82 Q2053.73 1480.82 2055.54 1477.28 Q2057.37 1473.71 2057.37 1466.61 Q2057.37 1459.48 2055.54 1455.94 Q2053.73 1452.37 2050.1 1452.37 M2050.1 1448.67 Q2055.91 1448.67 2058.97 1453.27 Q2062.04 1457.86 2062.04 1466.61 Q2062.04 1475.33 2058.97 1479.94 Q2055.91 1484.52 2050.1 1484.52 Q2044.29 1484.52 2041.21 1479.94 Q2038.15 1475.33 2038.15 1466.61 Q2038.15 1457.86 2041.21 1453.27 Q2044.29 1448.67 2050.1 1448.67 Z" fill="#000000" fill-rule="evenodd" fill-opacity="1" /><path clip-path="url(#clip950)" d="M 0 0 M2077.11 1452.37 Q2073.5 1452.37 2071.67 1455.94 Q2069.87 1459.48 2069.87 1466.61 Q2069.87 1473.71 2071.67 1477.28 Q2073.5 1480.82 2077.11 1480.82 Q2080.75 1480.82 2082.55 1477.28 Q2084.38 1473.71 2084.38 1466.61 Q2084.38 1459.48 2082.55 1455.94 Q2080.75 1452.37 2077.11 1452.37 M2077.11 1448.67 Q2082.92 1448.67 2085.98 1453.27 Q2089.06 1457.86 2089.06 1466.61 Q2089.06 1475.33 2085.98 1479.94 Q2082.92 1484.52 2077.11 1484.52 Q2071.3 1484.52 2068.22 1479.94 Q2065.17 1475.33 2065.17 1466.61 Q2065.17 1457.86 2068.22 1453.27 Q2071.3 1448.67 2077.11 1448.67 Z" fill="#000000" fill-rule="evenodd" fill-opacity="1" /><path clip-path="url(#clip950)" d="M 0 0 M2330.49 1465.22 Q2333.84 1465.94 2335.72 1468.2 Q2337.62 1470.47 2337.62 1473.81 Q2337.62 1478.92 2334.1 1481.72 Q2330.58 1484.52 2324.1 1484.52 Q2321.92 1484.52 2319.61 1484.08 Q2317.32 1483.67 2314.86 1482.81 L2314.86 1478.3 Q2316.81 1479.43 2319.12 1480.01 Q2321.44 1480.59 2323.96 1480.59 Q2328.36 1480.59 2330.65 1478.85 Q2332.96 1477.12 2332.96 1473.81 Q2332.96 1470.75 2330.81 1469.04 Q2328.68 1467.3 2324.86 1467.3 L2320.83 1467.3 L2320.83 1463.46 L2325.05 1463.46 Q2328.5 1463.46 2330.33 1462.09 Q2332.15 1460.7 2332.15 1458.11 Q2332.15 1455.45 2330.26 1454.04 Q2328.38 1452.6 2324.86 1452.6 Q2322.94 1452.6 2320.74 1453.02 Q2318.54 1453.44 2315.9 1454.31 L2315.9 1450.15 Q2318.57 1449.41 2320.88 1449.04 Q2323.22 1448.67 2325.28 1448.67 Q2330.6 1448.67 2333.71 1451.1 Q2336.81 1453.5 2336.81 1457.63 Q2336.81 1460.5 2335.16 1462.49 Q2333.52 1464.45 2330.49 1465.22 Z" fill="#000000" fill-rule="evenodd" fill-opacity="1" /><path clip-path="url(#clip950)" d="M 0 0 M2342.73 1449.29 L2361.09 1449.29 L2361.09 1453.23 L2347.02 1453.23 L2347.02 1461.7 Q2348.03 1461.35 2349.05 1461.19 Q2350.07 1461 2351.09 1461 Q2356.88 1461 2360.26 1464.18 Q2363.64 1467.35 2363.64 1472.76 Q2363.64 1478.34 2360.16 1481.44 Q2356.69 1484.52 2350.37 1484.52 Q2348.2 1484.52 2345.93 1484.15 Q2343.68 1483.78 2341.27 1483.04 L2341.27 1478.34 Q2343.36 1479.48 2345.58 1480.03 Q2347.8 1480.59 2350.28 1480.59 Q2354.28 1480.59 2356.62 1478.48 Q2358.96 1476.38 2358.96 1472.76 Q2358.96 1469.15 2356.62 1467.05 Q2354.28 1464.94 2350.28 1464.94 Q2348.4 1464.94 2346.53 1465.36 Q2344.68 1465.77 2342.73 1466.65 L2342.73 1449.29 Z" fill="#000000" fill-rule="evenodd" fill-opacity="1" /><path clip-path="url(#clip950)" d="M 0 0 M2378.7 1452.37 Q2375.09 1452.37 2373.27 1455.94 Q2371.46 1459.48 2371.46 1466.61 Q2371.46 1473.71 2373.27 1477.28 Q2375.09 1480.82 2378.7 1480.82 Q2382.34 1480.82 2384.14 1477.28 Q2385.97 1473.71 2385.97 1466.61 Q2385.97 1459.48 2384.14 1455.94 Q2382.34 1452.37 2378.7 1452.37 M2378.7 1448.67 Q2384.51 1448.67 2387.57 1453.27 Q2390.65 1457.86 2390.65 1466.61 Q2390.65 1475.33 2387.57 1479.94 Q2384.51 1484.52 2378.7 1484.52 Q2372.89 1484.52 2369.82 1479.94 Q2366.76 1475.33 2366.76 1466.61 Q2366.76 1457.86 2369.82 1453.27 Q2372.89 1448.67 2378.7 1448.67 Z" fill="#000000" fill-rule="evenodd" fill-opacity="1" /><path clip-path="url(#clip950)" d="M 0 0 M1312.06 1520.4 L1299.17 1537.74 L1312.73 1556.04 L1305.82 1556.04 L1295.44 1542.04 L1285.07 1556.04 L1278.16 1556.04 L1292.01 1537.39 L1279.34 1520.4 L1286.24 1520.4 L1295.7 1533.1 L1305.15 1520.4 L1312.06 1520.4 Z" fill="#000000" fill-rule="evenodd" fill-opacity="1" /><polyline clip-path="url(#clip952)" style="stroke:#000000; stroke-width:2; stroke-opacity:0.1; fill:none" points="
  238.13,1294.96 2352.76,1294.96 
  "/>
<polyline clip-path="url(#clip952)" style="stroke:#000000; stroke-width:2; stroke-opacity:0.1; fill:none" points="
  238.13,1013.33 2352.76,1013.33 
  "/>
<polyline clip-path="url(#clip952)" style="stroke:#000000; stroke-width:2; stroke-opacity:0.1; fill:none" points="
  238.13,731.706 2352.76,731.706 
  "/>
<polyline clip-path="url(#clip952)" style="stroke:#000000; stroke-width:2; stroke-opacity:0.1; fill:none" points="
  238.13,450.079 2352.76,450.079 
  "/>
<polyline clip-path="url(#clip952)" style="stroke:#000000; stroke-width:2; stroke-opacity:0.1; fill:none" points="
  238.13,168.451 2352.76,168.451 
  "/>
<polyline clip-path="url(#clip950)" style="stroke:#000000; stroke-width:4; stroke-opacity:1; fill:none" points="
  238.13,1423.18 238.13,47.2441 
  "/>
<polyline clip-path="url(#clip950)" style="stroke:#000000; stroke-width:4; stroke-opacity:1; fill:none" points="
  238.13,1294.96 263.506,1294.96 
  "/>
<polyline clip-path="url(#clip950)" style="stroke:#000000; stroke-width:4; stroke-opacity:1; fill:none" points="
  238.13,1013.33 263.506,1013.33 
  "/>
<polyline clip-path="url(#clip950)" style="stroke:#000000; stroke-width:4; stroke-opacity:1; fill:none" points="
  238.13,731.706 263.506,731.706 
  "/>
<polyline clip-path="url(#clip950)" style="stroke:#000000; stroke-width:4; stroke-opacity:1; fill:none" points="
  238.13,450.079 263.506,450.079 
  "/>
<polyline clip-path="url(#clip950)" style="stroke:#000000; stroke-width:4; stroke-opacity:1; fill:none" points="
  238.13,168.451 263.506,168.451 
  "/>
<path clip-path="url(#clip950)" d="M 0 0 M126.205 1280.76 Q122.593 1280.76 120.765 1284.33 Q118.959 1287.87 118.959 1295 Q118.959 1302.1 120.765 1305.67 Q122.593 1309.21 126.205 1309.21 Q129.839 1309.21 131.644 1305.67 Q133.473 1302.1 133.473 1295 Q133.473 1287.87 131.644 1284.33 Q129.839 1280.76 126.205 1280.76 M126.205 1277.06 Q132.015 1277.06 135.07 1281.66 Q138.149 1286.25 138.149 1295 Q138.149 1303.72 135.07 1308.33 Q132.015 1312.91 126.205 1312.91 Q120.394 1312.91 117.316 1308.33 Q114.26 1303.72 114.26 1295 Q114.26 1286.25 117.316 1281.66 Q120.394 1277.06 126.205 1277.06 Z" fill="#000000" fill-rule="evenodd" fill-opacity="1" /><path clip-path="url(#clip950)" d="M 0 0 M143.218 1306.36 L148.103 1306.36 L148.103 1312.24 L143.218 1312.24 L143.218 1306.36 Z" fill="#000000" fill-rule="evenodd" fill-opacity="1" /><path clip-path="url(#clip950)" d="M 0 0 M163.172 1280.76 Q159.561 1280.76 157.732 1284.33 Q155.927 1287.87 155.927 1295 Q155.927 1302.1 157.732 1305.67 Q159.561 1309.21 163.172 1309.21 Q166.806 1309.21 168.612 1305.67 Q170.44 1302.1 170.44 1295 Q170.44 1287.87 168.612 1284.33 Q166.806 1280.76 163.172 1280.76 M163.172 1277.06 Q168.982 1277.06 172.038 1281.66 Q175.116 1286.25 175.116 1295 Q175.116 1303.72 172.038 1308.33 Q168.982 1312.91 163.172 1312.91 Q157.362 1312.91 154.283 1308.33 Q151.228 1303.72 151.228 1295 Q151.228 1286.25 154.283 1281.66 Q157.362 1277.06 163.172 1277.06 Z" fill="#000000" fill-rule="evenodd" fill-opacity="1" /><path clip-path="url(#clip950)" d="M 0 0 M190.186 1280.76 Q186.575 1280.76 184.746 1284.33 Q182.94 1287.87 182.94 1295 Q182.94 1302.1 184.746 1305.67 Q186.575 1309.21 190.186 1309.21 Q193.82 1309.21 195.625 1305.67 Q197.454 1302.1 197.454 1295 Q197.454 1287.87 195.625 1284.33 Q193.82 1280.76 190.186 1280.76 M190.186 1277.06 Q195.996 1277.06 199.051 1281.66 Q202.13 1286.25 202.13 1295 Q202.13 1303.72 199.051 1308.33 Q195.996 1312.91 190.186 1312.91 Q184.376 1312.91 181.297 1308.33 Q178.241 1303.72 178.241 1295 Q178.241 1286.25 181.297 1281.66 Q184.376 1277.06 190.186 1277.06 Z" fill="#000000" fill-rule="evenodd" fill-opacity="1" /><path clip-path="url(#clip950)" d="M 0 0 M128.797 999.133 Q125.186 999.133 123.357 1002.7 Q121.552 1006.24 121.552 1013.37 Q121.552 1020.48 123.357 1024.04 Q125.186 1027.58 128.797 1027.58 Q132.431 1027.58 134.237 1024.04 Q136.066 1020.48 136.066 1013.37 Q136.066 1006.24 134.237 1002.7 Q132.431 999.133 128.797 999.133 M128.797 995.429 Q134.607 995.429 137.663 1000.04 Q140.741 1004.62 140.741 1013.37 Q140.741 1022.1 137.663 1026.7 Q134.607 1031.29 128.797 1031.29 Q122.987 1031.29 119.908 1026.7 Q116.853 1022.1 116.853 1013.37 Q116.853 1004.62 119.908 1000.04 Q122.987 995.429 128.797 995.429 Z" fill="#000000" fill-rule="evenodd" fill-opacity="1" /><path clip-path="url(#clip950)" d="M 0 0 M145.811 1024.73 L150.695 1024.73 L150.695 1030.61 L145.811 1030.61 L145.811 1024.73 Z" fill="#000000" fill-rule="evenodd" fill-opacity="1" /><path clip-path="url(#clip950)" d="M 0 0 M159.792 1026.68 L176.112 1026.68 L176.112 1030.61 L154.167 1030.61 L154.167 1026.68 Q156.829 1023.92 161.413 1019.29 Q166.019 1014.64 167.2 1013.3 Q169.445 1010.78 170.325 1009.04 Q171.227 1007.28 171.227 1005.59 Q171.227 1002.84 169.283 1001.1 Q167.362 999.364 164.26 999.364 Q162.061 999.364 159.607 1000.13 Q157.177 1000.89 154.399 1002.44 L154.399 997.721 Q157.223 996.587 159.677 996.008 Q162.13 995.429 164.167 995.429 Q169.538 995.429 172.732 998.114 Q175.926 1000.8 175.926 1005.29 Q175.926 1007.42 175.116 1009.34 Q174.329 1011.24 172.223 1013.83 Q171.644 1014.5 168.542 1017.72 Q165.44 1020.92 159.792 1026.68 Z" fill="#000000" fill-rule="evenodd" fill-opacity="1" /><path clip-path="url(#clip950)" d="M 0 0 M181.227 996.054 L199.584 996.054 L199.584 999.989 L185.51 999.989 L185.51 1008.46 Q186.528 1008.11 187.547 1007.95 Q188.565 1007.77 189.584 1007.77 Q195.371 1007.77 198.75 1010.94 Q202.13 1014.11 202.13 1019.53 Q202.13 1025.1 198.658 1028.21 Q195.186 1031.29 188.866 1031.29 Q186.69 1031.29 184.422 1030.92 Q182.176 1030.54 179.769 1029.8 L179.769 1025.1 Q181.852 1026.24 184.075 1026.79 Q186.297 1027.35 188.774 1027.35 Q192.778 1027.35 195.116 1025.24 Q197.454 1023.14 197.454 1019.53 Q197.454 1015.92 195.116 1013.81 Q192.778 1011.7 188.774 1011.7 Q186.899 1011.7 185.024 1012.12 Q183.172 1012.54 181.227 1013.42 L181.227 996.054 Z" fill="#000000" fill-rule="evenodd" fill-opacity="1" /><path clip-path="url(#clip950)" d="M 0 0 M127.2 717.505 Q123.589 717.505 121.76 721.07 Q119.955 724.612 119.955 731.741 Q119.955 738.848 121.76 742.412 Q123.589 745.954 127.2 745.954 Q130.834 745.954 132.64 742.412 Q134.468 738.848 134.468 731.741 Q134.468 724.612 132.64 721.07 Q130.834 717.505 127.2 717.505 M127.2 713.801 Q133.01 713.801 136.066 718.408 Q139.144 722.991 139.144 731.741 Q139.144 740.468 136.066 745.074 Q133.01 749.658 127.2 749.658 Q121.39 749.658 118.311 745.074 Q115.256 740.468 115.256 731.741 Q115.256 722.991 118.311 718.408 Q121.39 713.801 127.2 713.801 Z" fill="#000000" fill-rule="evenodd" fill-opacity="1" /><path clip-path="url(#clip950)" d="M 0 0 M144.214 743.107 L149.098 743.107 L149.098 748.986 L144.214 748.986 L144.214 743.107 Z" fill="#000000" fill-rule="evenodd" fill-opacity="1" /><path clip-path="url(#clip950)" d="M 0 0 M154.214 714.426 L172.57 714.426 L172.57 718.362 L158.496 718.362 L158.496 726.834 Q159.515 726.487 160.533 726.325 Q161.552 726.139 162.57 726.139 Q168.357 726.139 171.737 729.311 Q175.116 732.482 175.116 737.899 Q175.116 743.477 171.644 746.579 Q168.172 749.658 161.852 749.658 Q159.677 749.658 157.408 749.287 Q155.163 748.917 152.755 748.176 L152.755 743.477 Q154.839 744.611 157.061 745.167 Q159.283 745.723 161.76 745.723 Q165.765 745.723 168.102 743.616 Q170.44 741.51 170.44 737.899 Q170.44 734.287 168.102 732.181 Q165.765 730.074 161.76 730.074 Q159.885 730.074 158.01 730.491 Q156.158 730.908 154.214 731.787 L154.214 714.426 Z" fill="#000000" fill-rule="evenodd" fill-opacity="1" /><path clip-path="url(#clip950)" d="M 0 0 M190.186 717.505 Q186.575 717.505 184.746 721.07 Q182.94 724.612 182.94 731.741 Q182.94 738.848 184.746 742.412 Q186.575 745.954 190.186 745.954 Q193.82 745.954 195.625 742.412 Q197.454 738.848 197.454 731.741 Q197.454 724.612 195.625 721.07 Q193.82 717.505 190.186 717.505 M190.186 713.801 Q195.996 713.801 199.051 718.408 Q202.13 722.991 202.13 731.741 Q202.13 740.468 199.051 745.074 Q195.996 749.658 190.186 749.658 Q184.376 749.658 181.297 745.074 Q178.241 740.468 178.241 731.741 Q178.241 722.991 181.297 718.408 Q184.376 713.801 190.186 713.801 Z" fill="#000000" fill-rule="evenodd" fill-opacity="1" /><path clip-path="url(#clip950)" d="M 0 0 M128.103 435.877 Q124.492 435.877 122.663 439.442 Q120.857 442.984 120.857 450.113 Q120.857 457.22 122.663 460.785 Q124.492 464.326 128.103 464.326 Q131.737 464.326 133.542 460.785 Q135.371 457.22 135.371 450.113 Q135.371 442.984 133.542 439.442 Q131.737 435.877 128.103 435.877 M128.103 432.174 Q133.913 432.174 136.968 436.78 Q140.047 441.363 140.047 450.113 Q140.047 458.84 136.968 463.447 Q133.913 468.03 128.103 468.03 Q122.293 468.03 119.214 463.447 Q116.158 458.84 116.158 450.113 Q116.158 441.363 119.214 436.78 Q122.293 432.174 128.103 432.174 Z" fill="#000000" fill-rule="evenodd" fill-opacity="1" /><path clip-path="url(#clip950)" d="M 0 0 M145.116 461.479 L150.001 461.479 L150.001 467.359 L145.116 467.359 L145.116 461.479 Z" fill="#000000" fill-rule="evenodd" fill-opacity="1" /><path clip-path="url(#clip950)" d="M 0 0 M153.89 432.799 L176.112 432.799 L176.112 434.789 L163.565 467.359 L158.681 467.359 L170.487 436.734 L153.89 436.734 L153.89 432.799 Z" fill="#000000" fill-rule="evenodd" fill-opacity="1" /><path clip-path="url(#clip950)" d="M 0 0 M181.227 432.799 L199.584 432.799 L199.584 436.734 L185.51 436.734 L185.51 445.206 Q186.528 444.859 187.547 444.697 Q188.565 444.512 189.584 444.512 Q195.371 444.512 198.75 447.683 Q202.13 450.854 202.13 456.271 Q202.13 461.849 198.658 464.951 Q195.186 468.03 188.866 468.03 Q186.69 468.03 184.422 467.66 Q182.176 467.289 179.769 466.548 L179.769 461.849 Q181.852 462.984 184.075 463.539 Q186.297 464.095 188.774 464.095 Q192.778 464.095 195.116 461.988 Q197.454 459.882 197.454 456.271 Q197.454 452.66 195.116 450.553 Q192.778 448.447 188.774 448.447 Q186.899 448.447 185.024 448.863 Q183.172 449.28 181.227 450.16 L181.227 432.799 Z" fill="#000000" fill-rule="evenodd" fill-opacity="1" /><path clip-path="url(#clip950)" d="M 0 0 M118.242 181.796 L125.88 181.796 L125.88 155.43 L117.57 157.097 L117.57 152.838 L125.834 151.171 L130.51 151.171 L130.51 181.796 L138.149 181.796 L138.149 185.731 L118.242 185.731 L118.242 181.796 Z" fill="#000000" fill-rule="evenodd" fill-opacity="1" /><path clip-path="url(#clip950)" d="M 0 0 M143.218 179.851 L148.103 179.851 L148.103 185.731 L143.218 185.731 L143.218 179.851 Z" fill="#000000" fill-rule="evenodd" fill-opacity="1" /><path clip-path="url(#clip950)" d="M 0 0 M163.172 154.25 Q159.561 154.25 157.732 157.814 Q155.927 161.356 155.927 168.486 Q155.927 175.592 157.732 179.157 Q159.561 182.699 163.172 182.699 Q166.806 182.699 168.612 179.157 Q170.44 175.592 170.44 168.486 Q170.44 161.356 168.612 157.814 Q166.806 154.25 163.172 154.25 M163.172 150.546 Q168.982 150.546 172.038 155.152 Q175.116 159.736 175.116 168.486 Q175.116 177.212 172.038 181.819 Q168.982 186.402 163.172 186.402 Q157.362 186.402 154.283 181.819 Q151.228 177.212 151.228 168.486 Q151.228 159.736 154.283 155.152 Q157.362 150.546 163.172 150.546 Z" fill="#000000" fill-rule="evenodd" fill-opacity="1" /><path clip-path="url(#clip950)" d="M 0 0 M190.186 154.25 Q186.575 154.25 184.746 157.814 Q182.94 161.356 182.94 168.486 Q182.94 175.592 184.746 179.157 Q186.575 182.699 190.186 182.699 Q193.82 182.699 195.625 179.157 Q197.454 175.592 197.454 168.486 Q197.454 161.356 195.625 157.814 Q193.82 154.25 190.186 154.25 M190.186 150.546 Q195.996 150.546 199.051 155.152 Q202.13 159.736 202.13 168.486 Q202.13 177.212 199.051 181.819 Q195.996 186.402 190.186 186.402 Q184.376 186.402 181.297 181.819 Q178.241 177.212 178.241 168.486 Q178.241 159.736 181.297 155.152 Q184.376 150.546 190.186 150.546 Z" fill="#000000" fill-rule="evenodd" fill-opacity="1" /><path clip-path="url(#clip950)" d="M 0 0 M70.212 745.095 Q76.6732 745.095 80.3653 742.453 Q84.0256 739.779 84.0256 735.132 Q84.0256 730.485 80.3653 727.812 Q76.6732 725.138 70.212 725.138 Q63.7508 725.138 60.0905 727.812 Q56.3984 730.485 56.3984 735.132 Q56.3984 739.779 60.0905 742.453 Q63.7508 745.095 70.212 745.095 M82.657 725.138 Q85.8398 726.984 87.3994 729.817 Q88.9272 732.618 88.9272 736.565 Q88.9272 743.026 83.771 747.1 Q78.6147 751.142 70.212 751.142 Q61.8093 751.142 56.6531 747.1 Q51.4968 743.026 51.4968 736.565 Q51.4968 732.618 53.0564 729.817 Q54.5842 726.984 57.7671 725.138 L52.3562 725.138 L52.3562 719.282 L101.563 719.282 L101.563 725.138 L82.657 725.138 Z" fill="#000000" fill-rule="evenodd" fill-opacity="1" /><polyline clip-path="url(#clip952)" style="stroke:#009af9; stroke-width:4; stroke-opacity:1; fill:none" points="
  238.13,1294.96 240.983,1294.96 246.39,1294.96 251.798,1294.96 254.651,1294.96 257.503,1294.96 262.911,1294.96 268.318,1294.96 271.171,1294.96 
  274.024,1294.96 279.431,1294.96 284.839,1294.96 287.692,1294.96 290.544,1294.96 295.952,1294.96 301.359,1294.96 304.212,1294.96 
  307.065,1294.96 312.472,1294.96 317.88,1294.96 320.733,1294.96 323.585,1294.96 328.993,1294.96 334.4,1294.96 337.253,1294.96 
  340.106,1294.96 345.513,1294.96 350.921,1294.96 353.774,1294.96 356.626,1294.96 362.034,1294.96 367.442,1294.96 370.294,1294.96 
  373.147,1294.96 378.554,1294.96 383.962,1294.96 386.815,1294.96 389.667,1294.96 395.075,1294.96 400.483,1294.96 403.335,1294.96 
  406.188,1294.96 411.595,1294.96 417.003,1294.96 419.856,1294.96 422.708,1294.96 428.116,1294.96 433.524,1294.96 436.376,1294.96 
  439.229,1294.96 444.636,1294.96 450.044,1294.96 452.897,1294.96 455.749,1294.96 461.157,1294.96 466.565,1294.96 469.417,1294.96 
  472.27,1294.96 477.678,1294.96 483.085,1294.96 485.938,1294.96 488.79,1294.96 494.198,1294.96 499.606,1294.96 502.458,1294.96 
  505.311,1294.96 510.719,1294.96 516.126,1294.96 518.979,1294.96 521.831,1294.96 527.239,1294.96 532.647,1294.96 535.499,1294.96 
  538.352,1294.96 543.76,1294.96 549.167,1294.96 552.02,1294.96 554.872,1294.96 560.28,1294.96 565.688,1294.96 568.54,1294.96 
  571.393,1294.96 576.801,1294.96 582.208,1294.96 585.061,1294.96 587.914,1294.96 593.321,1294.96 598.729,1294.96 601.581,1294.96 
  604.434,1294.96 609.842,1294.96 615.249,1294.96 618.102,1294.96 620.955,1294.96 626.362,1294.96 631.77,1294.96 634.622,1294.96 
  637.475,1294.96 642.883,1294.96 648.29,1294.96 651.143,1294.96 653.996,1294.96 659.403,1294.96 664.811,1294.96 667.663,1294.96 
  670.516,1294.96 675.924,1294.96 681.331,1294.96 684.184,1294.96 687.037,1294.96 692.444,168.451 697.852,168.451 700.704,168.451 
  703.557,168.451 708.965,168.451 714.372,168.451 717.225,168.451 720.078,168.451 725.485,168.451 730.893,168.451 733.745,168.451 
  736.598,168.451 742.006,168.451 747.413,168.451 750.266,168.451 753.119,168.451 758.526,168.451 763.934,168.451 766.787,168.451 
  769.639,168.451 775.047,168.451 780.454,168.451 783.307,168.451 786.16,168.451 791.567,168.451 796.975,168.451 799.828,168.451 
  802.68,168.451 808.088,168.451 813.495,168.451 816.348,168.451 819.201,168.451 824.608,168.451 830.016,168.451 832.869,168.451 
  835.721,168.451 841.129,168.451 846.536,168.451 849.389,168.451 852.242,168.451 857.649,168.451 863.057,168.451 865.91,168.451 
  868.762,168.451 874.17,168.451 879.577,168.451 882.43,168.451 885.283,168.451 890.69,168.451 896.098,168.451 898.951,168.451 
  901.803,168.451 907.211,168.451 912.618,168.451 915.471,168.451 918.324,168.451 923.731,168.451 929.139,168.451 931.992,168.451 
  934.844,168.451 940.252,168.451 945.66,168.451 948.512,168.451 951.365,168.451 956.772,168.451 962.18,168.451 965.033,168.451 
  967.885,168.451 973.293,168.451 978.701,168.451 981.553,168.451 984.406,168.451 989.813,168.451 995.221,1294.96 998.074,1294.96 
  1000.93,1294.96 1006.33,1294.96 1011.74,1294.96 1014.59,1294.96 1017.45,1294.96 1022.85,1294.96 1028.26,1294.96 1031.11,1294.96 
  1033.97,1294.96 1039.38,1294.96 1044.78,1294.96 1047.64,1294.96 1050.49,1294.96 1055.9,1294.96 1061.3,1294.96 1064.16,1294.96 
  1067.01,1294.96 1072.42,1294.96 1077.82,1294.96 1080.68,1294.96 1083.53,1294.96 1088.94,1294.96 1094.34,1294.96 1097.2,1294.96 
  1100.05,1294.96 1105.46,1294.96 1110.86,1294.96 1113.72,1294.96 1116.57,1294.96 1121.98,1294.96 1127.39,1294.96 1130.24,1294.96 
  1133.09,1294.96 1138.5,1294.96 1143.91,1294.96 1146.76,1294.96 1149.61,1294.96 1155.02,1294.96 1160.43,1294.96 1163.28,1294.96 
  1166.13,1294.96 1171.54,1294.96 1176.95,1294.96 1179.8,1294.96 1182.65,1294.96 1188.06,1294.96 1193.47,1294.96 1196.32,1294.96 
  1199.17,1294.96 1204.58,1294.96 1209.99,1294.96 1212.84,1294.96 1215.69,1294.96 1221.1,1294.96 1226.51,1294.96 1229.36,1294.96 
  1232.21,1294.96 1237.62,1294.96 1243.03,1294.96 1245.88,1294.96 1248.73,1294.96 1254.14,1294.96 1259.55,1294.96 1262.4,1294.96 
  1265.25,1294.96 1270.66,1294.96 1276.07,1294.96 1278.92,1294.96 1281.78,1294.96 1287.18,1294.96 1292.59,1294.96 1295.44,1294.96 
  1298.3,1294.96 1303.7,1294.96 1309.11,1294.96 1311.96,1294.96 1314.82,1294.96 1320.22,1294.96 1325.63,1294.96 1328.48,1294.96 
  1331.34,1294.96 1336.74,1294.96 1342.15,1294.96 1345,1294.96 1347.86,1294.96 1353.26,1294.96 1358.67,1294.96 1361.53,1294.96 
  1364.38,1294.96 1369.79,1294.96 1375.19,1294.96 1378.05,1294.96 1380.9,1294.96 1386.31,1294.96 1391.71,1294.96 1394.57,1294.96 
  1397.42,1294.96 1402.83,1294.96 1408.23,1294.96 1411.09,1294.96 1413.94,1294.96 1419.35,1294.96 1424.75,1294.96 1427.61,1294.96 
  1430.46,1294.96 1435.87,1294.96 1441.27,1294.96 1444.13,1294.96 1446.98,1294.96 1452.39,1294.96 1457.8,1294.96 1460.65,1294.96 
  1463.5,1294.96 1468.91,1294.96 1474.32,1294.96 1477.17,1294.96 1480.02,1294.96 1485.43,1294.96 1490.84,1294.96 1493.69,1294.96 
  1496.54,1294.96 1501.95,1294.96 1507.36,1294.96 1510.21,1294.96 1513.06,1294.96 1518.47,1294.96 1523.88,1294.96 1526.73,1294.96 
  1529.58,1294.96 1534.99,1294.96 1540.4,1294.96 1543.25,1294.96 1546.1,1294.96 1551.51,1294.96 1556.92,1294.96 1559.77,1294.96 
  1562.62,1294.96 1568.03,1294.96 1573.44,1294.96 1576.29,1294.96 1579.14,1294.96 1584.55,1294.96 1589.96,1294.96 1592.81,1294.96 
  1595.66,1294.96 1601.07,1294.96 1606.48,1294.96 1609.33,1294.96 1612.19,1294.96 1617.59,1294.96 1623,1294.96 1625.85,1294.96 
  1628.71,1294.96 1634.11,1294.96 1639.52,1294.96 1642.37,1294.96 1645.23,1294.96 1650.63,1294.96 1656.04,1294.96 1658.89,1294.96 
  1661.75,1294.96 1667.15,1294.96 1672.56,1294.96 1675.41,1294.96 1678.27,1294.96 1683.68,1294.96 1689.08,1294.96 1691.94,1294.96 
  1694.79,1294.96 1700.2,1294.96 1705.6,1294.96 1708.46,1294.96 1711.31,1294.96 1716.72,1294.96 1722.12,1294.96 1724.98,1294.96 
  1727.83,1294.96 1733.24,1294.96 1738.64,1294.96 1741.5,1294.96 1744.35,1294.96 1749.76,1294.96 1755.16,1294.96 1758.02,1294.96 
  1760.87,1294.96 1766.28,1294.96 1771.69,1294.96 1774.54,1294.96 1777.39,1294.96 1782.8,1294.96 1788.21,1294.96 1791.06,1294.96 
  1793.91,1294.96 1799.32,1294.96 1804.73,1294.96 1807.58,1294.96 1810.43,1294.96 1815.84,1294.96 1821.25,1294.96 1824.1,1294.96 
  1826.95,1294.96 1832.36,1294.96 1837.77,1294.96 1840.62,1294.96 1843.47,1294.96 1848.88,1294.96 1854.29,1294.96 1857.14,1294.96 
  1859.99,1294.96 1865.4,1294.96 1870.81,1294.96 1873.66,1294.96 1876.51,1294.96 1881.92,1294.96 1887.33,1294.96 1890.18,1294.96 
  1893.03,1294.96 1898.44,1294.96 1903.85,1294.96 1906.7,1294.96 1909.55,1294.96 1914.96,1294.96 1920.37,1294.96 1923.22,1294.96 
  1926.08,1294.96 1931.48,1294.96 1936.89,1294.96 1939.74,1294.96 1942.6,1294.96 1948,1294.96 1953.41,1294.96 1956.26,1294.96 
  1959.12,1294.96 1964.52,1294.96 1969.93,1294.96 1972.78,1294.96 1975.64,1294.96 1981.04,1294.96 1986.45,1294.96 1989.3,1294.96 
  1992.16,1294.96 1997.56,1294.96 2002.97,1294.96 2005.83,1294.96 2008.68,1294.96 2014.09,1294.96 2019.49,1294.96 2022.35,1294.96 
  2025.2,1294.96 2030.61,1294.96 2036.01,1294.96 2038.87,1294.96 2041.72,1294.96 2047.13,1294.96 2052.53,1294.96 2055.39,1294.96 
  2058.24,1294.96 2063.65,1294.96 2069.05,1294.96 2071.91,1294.96 2074.76,1294.96 2080.17,1294.96 2085.58,1294.96 2088.43,1294.96 
  2091.28,1294.96 2096.69,1294.96 2102.1,1294.96 2104.95,1294.96 2107.8,1294.96 2113.21,1294.96 2118.62,1294.96 2121.47,1294.96 
  2124.32,1294.96 2129.73,1294.96 2135.14,1294.96 2137.99,1294.96 2140.84,1294.96 2146.25,1294.96 2151.66,1294.96 2154.51,1294.96 
  2157.36,1294.96 2162.77,1294.96 2168.18,1294.96 2171.03,1294.96 2173.88,1294.96 2179.29,1294.96 2184.7,1294.96 2187.55,1294.96 
  2190.4,1294.96 2195.81,1294.96 2201.22,1294.96 2204.07,1294.96 2206.92,1294.96 2212.33,1294.96 2217.74,1294.96 2220.59,1294.96 
  2223.44,1294.96 2228.85,1294.96 2234.26,1294.96 2237.11,1294.96 2239.96,1294.96 2245.37,1294.96 2250.78,1294.96 2253.63,1294.96 
  2256.49,1294.96 2261.89,1294.96 2267.3,1294.96 2270.15,1294.96 2273.01,1294.96 2278.41,1294.96 2283.82,1294.96 2286.67,1294.96 
  2289.53,1294.96 2294.93,1294.96 2300.34,1294.96 2303.19,1294.96 2306.05,1294.96 2311.45,1294.96 2316.86,1294.96 2319.71,1294.96 
  2322.57,1294.96 2327.98,1294.96 2333.38,1294.96 2336.24,1294.96 2339.09,1294.96 2344.5,1294.96 2349.9,1294.96 2352.76,1294.96 
  
  "/>
<polyline clip-path="url(#clip952)" style="stroke:#e26f46; stroke-width:4; stroke-opacity:1; fill:none" points="
  238.13,1294.96 240.983,1294.96 246.39,1294.96 251.798,1294.96 254.651,1294.96 257.503,1294.96 262.911,1294.96 268.318,1294.96 271.171,1294.96 
  274.024,1294.96 279.431,1294.96 284.839,1294.96 287.692,1294.96 290.544,1294.96 295.952,1294.96 301.359,1294.96 304.212,1294.96 
  307.065,1294.96 312.472,1294.96 317.88,1294.96 320.733,1294.96 323.585,1294.96 328.993,1294.96 334.4,1294.96 337.253,1294.96 
  340.106,1294.96 345.513,1294.96 350.921,1294.96 353.774,1294.96 356.626,1294.96 362.034,1294.96 367.442,1294.96 370.294,1294.96 
  373.147,1294.96 378.554,1294.96 383.962,1294.96 386.815,1294.96 389.667,1294.96 395.075,1294.96 400.483,1294.96 403.335,1294.96 
  406.188,1294.96 411.595,1294.96 417.003,1294.96 419.856,1294.96 422.708,1294.96 428.116,1294.96 433.524,1294.96 436.376,1294.96 
  439.229,1294.96 444.636,1294.96 450.044,1294.96 452.897,1294.96 455.749,1294.96 461.157,1294.96 466.565,1294.96 469.417,1294.96 
  472.27,1294.96 477.678,1294.96 483.085,1294.96 485.938,1294.96 488.79,1294.96 494.198,1294.96 499.606,1294.96 502.458,1294.96 
  505.311,1294.96 510.719,1294.96 516.126,1294.96 518.979,1294.96 521.831,1294.96 527.239,1294.96 532.647,1294.96 535.499,1294.96 
  538.352,1294.96 543.76,1294.96 549.167,1294.96 552.02,1294.96 554.872,1294.96 560.28,1294.96 565.688,1294.96 568.54,1294.96 
  571.393,1294.96 576.801,1294.96 582.208,1294.96 585.061,1294.96 587.914,1294.96 593.321,1294.96 598.729,1294.96 601.581,1294.96 
  604.434,1294.96 609.842,1294.96 615.249,1294.96 618.102,1294.96 620.955,1294.96 626.362,1294.96 631.77,1294.96 634.622,1294.96 
  637.475,1294.96 642.883,1294.96 648.29,1294.96 651.143,1294.96 653.996,1294.96 659.403,1294.96 664.811,1294.96 667.663,1294.96 
  670.516,1294.96 675.924,1294.96 681.331,1294.96 684.184,1294.96 687.037,1294.96 692.444,1294.96 697.852,1294.96 700.704,1294.96 
  703.557,1294.96 708.965,1294.96 714.372,1294.96 717.225,1294.96 720.078,1294.96 725.485,1294.96 730.893,1294.96 733.745,1294.96 
  736.598,1294.96 742.006,1294.96 747.413,1294.96 750.266,1294.96 753.119,1294.96 758.526,1294.96 763.934,1294.96 766.787,1294.96 
  769.639,1294.96 775.047,1294.96 780.454,1294.96 783.307,1294.96 786.16,1294.96 791.567,1294.96 796.975,1294.96 799.828,1294.96 
  799.828,1294.96 802.68,1294.96 808.088,1294.96 813.495,1294.96 816.348,1294.96 816.348,1294.96 819.201,1294.96 824.608,1294.96 830.016,1294.96 832.869,1294.96 
  832.869,1294.96 835.721,1294.96 841.129,1294.96 846.536,1294.96 849.389,1294.96 849.389,1294.96 852.242,1294.96 857.649,1294.96 863.057,1294.96 865.91,1294.96 
  865.91,1294.96 868.762,1294.96 874.17,1294.96 879.577,1294.96 882.43,1294.96 882.43,1294.96 885.283,1294.96 890.69,1294.96 896.098,1294.96 898.951,1294.96 
  898.951,1294.96 901.803,1294.96 907.211,1294.96 912.618,1294.96 915.471,1294.96 915.471,1294.96 918.324,1294.96 923.731,1294.96 929.139,1294.96 931.992,1294.96 
  931.992,1294.96 934.844,1294.96 940.252,1294.96 945.66,1294.96 948.512,1294.96 948.512,1294.96 951.365,1294.96 956.772,1294.96 962.18,1294.96 965.033,1294.96 
  965.033,1294.96 967.885,1294.96 973.293,1294.96 978.701,1294.96 981.553,1294.96 981.553,1294.96 984.406,1294.96 989.813,1294.96 995.221,1294.96 998.074,1294.96 
  998.074,1294.96 1000.93,1294.96 1006.33,1294.96 1011.74,1294.96 1014.59,1294.96 1014.59,1294.96 1017.45,1294.96 1022.85,1294.96 1028.26,1294.96 1031.11,1294.96 
  1031.11,1294.96 1033.97,1294.96 1039.38,1294.96 1044.78,1294.96 1047.64,1294.96 1047.64,1294.96 1050.49,1294.96 1055.9,1294.96 1061.3,1294.96 1064.16,1294.96 
  1064.16,1294.96 1067.01,1294.96 1072.42,1294.96 1077.82,1294.96 1080.68,1294.96 1080.68,1294.96 1083.53,1294.96 1088.94,1294.96 1094.34,1294.96 1097.2,1294.97 
  1097.2,1294.96 1100.05,1294.97 1105.46,1294.97 1110.86,1294.96 1113.72,1294.96 1113.72,1294.96 1116.57,1294.95 1121.98,1294.95 1127.39,1294.96 1130.24,1294.97 
  1130.24,1294.96 1133.09,1294.98 1138.5,1295 1143.91,1295 1146.76,1294.98 1146.76,1294.99 1149.61,1294.95 1155.02,1294.87 1160.43,1294.82 1163.28,1294.82 
  1163.28,1294.8 1166.13,1294.88 1171.54,1295.09 1176.95,1295.32 1179.8,1295.44 1179.8,1295.44 1182.65,1295.42 1188.06,1295.09 1193.47,1294.4 1196.32,1293.91 
  1196.32,1294.04 1199.17,1293.57 1204.58,1293.53 1209.99,1294.72 1212.84,1295.89 1212.84,1295.42 1215.69,1297.3 1221.1,1299.56 1226.51,1299.47 1229.36,1298.22 
  1229.36,1299 1232.21,1295.1 1237.62,1287.11 1243.03,1279.53 1245.88,1276.18 1245.88,1276.52 1248.73,1277.48 1254.14,1289.33 1259.55,1313.68 1262.4,1331.31 
  1262.4,1325.56 1265.25,1348.29 1270.66,1366.76 1276.07,1347.45 1278.92,1319.8 1278.92,1320.94 1281.78,1266.59 1287.18,1117.72 1292.59,914.012 1295.44,786.558 
  1295.44,796.079 1298.3,659.769 1303.7,431.564 1309.11,249.546 1311.96,174.82 1311.96,172.833 1314.82,128.271 1320.22,86.1857 1325.63,93.3891 1328.48,114.546 
  1328.48,109.556 1331.34,133.673 1336.74,169.261 1342.15,190.082 1345,194.509 1345,195.843 1347.86,192.346 1353.26,182.554 1358.67,170.684 1361.53,164.418 
  1361.53,164.595 1364.38,161.979 1369.79,160.825 1375.19,163.749 1378.05,166.569 1378.05,166.231 1380.9,168.41 1386.31,170.768 1391.71,170.971 1394.57,170.277 
  1394.57,170.455 1397.42,169.485 1402.83,168.153 1408.23,167.543 1411.09,167.537 1411.09,167.474 1413.94,167.78 1419.35,168.309 1424.75,168.695 1427.61,168.81 
  1427.61,168.828 1430.46,168.758 1435.87,168.578 1441.27,168.383 1444.13,168.294 1444.13,168.29 1446.98,168.298 1452.39,168.382 1457.8,168.525 1460.65,168.612 
  1460.65,168.604 1463.5,168.638 1468.91,168.578 1474.32,168.364 1477.17,168.193 1477.17,168.244 1480.02,168.056 1485.43,167.958 1490.84,168.254 1493.69,168.592 
  1493.69,168.438 1496.54,169.042 1501.95,169.836 1507.36,169.949 1510.21,169.644 1510.21,169.909 1513.06,168.734 1518.47,166.285 1523.88,164.012 1526.73,163.07 
  1526.73,163.067 1529.58,163.646 1534.99,167.687 1540.4,175.312 1543.25,180.67 1543.25,179.218 1546.1,184.654 1551.51,186.648 1556.92,176.571 1559.77,165.912 
  1559.77,169.902 1562.62,149.782 1568.03,117.588 1573.44,98.2709 1576.29,95.3209 1576.29,98.6756 1579.14,111.591 1584.55,186.724 1589.96,327.972 1592.81,429.042 
  1592.81,420.13 1595.66,545.526 1601.07,783.362 1606.48,1011.99 1609.33,1125.11 1609.33,1122.13 1612.19,1211.92 1617.59,1328.58 1623,1377.93 1625.85,1377.98 
  1625.85,1384.24 1628.71,1367.83 1634.11,1332.72 1639.52,1297.16 1642.37,1280.15 1642.37,1280.39 1645.23,1273.41 1650.63,1270.67 1656.04,1279.28 1658.89,1287.44 
  1658.89,1286.39 1661.75,1293.16 1667.15,1301.1 1672.56,1302.91 1675.41,1301.52 1675.41,1302.06 1678.27,1299.39 1683.68,1295.27 1689.08,1292.72 1691.94,1292.15 
  1691.94,1292 1694.79,1292.53 1700.2,1293.81 1705.6,1295.15 1708.46,1295.77 1708.46,1295.77 1711.31,1295.86 1716.72,1295.67 1722.12,1295.17 1724.98,1294.85 
  1724.98,1294.86 1727.83,1294.72 1733.24,1294.65 1738.64,1294.79 1741.5,1294.92 1741.5,1294.91 1744.35,1295 1749.76,1295.07 1755.16,1295.05 1758.02,1295 
  1758.02,1295.01 1760.87,1294.97 1766.28,1294.93 1771.69,1294.92 1774.54,1294.94 1774.54,1294.94 1777.39,1294.95 1782.8,1294.97 1788.21,1294.98 1791.06,1294.97 
  1791.06,1294.97 1793.91,1294.97 1799.32,1294.96 1804.73,1294.96 1807.58,1294.96 1807.58,1294.96 1810.43,1294.96 1815.84,1294.96 1821.25,1294.96 1824.1,1294.96 
  1824.1,1294.96 1826.95,1294.96 1832.36,1294.96 1837.77,1294.96 1840.62,1294.96 1840.62,1294.96 1843.47,1294.96 1848.88,1294.96 1854.29,1294.96 1857.14,1294.96 
  1857.14,1294.96 1859.99,1294.96 1865.4,1294.96 1870.81,1294.96 1873.66,1294.96 1873.66,1294.96 1876.51,1294.96 1881.92,1294.96 1887.33,1294.96 1890.18,1294.96 
  1890.18,1294.96 1893.03,1294.96 1898.44,1294.96 1903.85,1294.96 1906.7,1294.96 1906.7,1294.96 1909.55,1294.96 1914.96,1294.96 1920.37,1294.96 1923.22,1294.96 
  1923.22,1294.96 1926.08,1294.96 1931.48,1294.96 1936.89,1294.96 1939.74,1294.96 1939.74,1294.96 1942.6,1294.96 1948,1294.96 1953.41,1294.96 1956.26,1294.96 
  1956.26,1294.96 1959.12,1294.96 1964.52,1294.96 1969.93,1294.96 1972.78,1294.96 1972.78,1294.96 1975.64,1294.96 1981.04,1294.96 1986.45,1294.96 1989.3,1294.96 
  1989.3,1294.96 1992.16,1294.96 1997.56,1294.96 2002.97,1294.96 2005.83,1294.96 2005.83,1294.96 2008.68,1294.96 2014.09,1294.96 2019.49,1294.96 2022.35,1294.96 
  2022.35,1294.96 2025.2,1294.96 2030.61,1294.96 2036.01,1294.96 2038.87,1294.96 2038.87,1294.96 2041.72,1294.96 2047.13,1294.96 2052.53,1294.96 2055.39,1294.96 
  2055.39,1294.96 2058.24,1294.96 2063.65,1294.96 2069.05,1294.96 2071.91,1294.96 2071.91,1294.96 2074.76,1294.96 2080.17,1294.96 2085.58,1294.96 2088.43,1294.96 
  2088.43,1294.96 2091.28,1294.96 2096.69,1294.96 2102.1,1294.96 2104.95,1294.96 2107.8,1294.96 2113.21,1294.96 2118.62,1294.96 2121.47,1294.96 
  2121.47,1294.96 2124.32,1294.96 2129.73,1294.96 2135.14,1294.96 2137.99,1294.96 2137.99,1294.96 2140.84,1294.96 2146.25,1294.96 2151.66,1294.96 2154.51,1294.96 
  2157.36,1294.96 2162.77,1294.96 2168.18,1294.96 2171.03,1294.96 2173.88,1294.96 2179.29,1294.96 2184.7,1294.96 2187.55,1294.96 
  2190.4,1294.96 2195.81,1294.96 2201.22,1294.96 2204.07,1294.96 2206.92,1294.96 2212.33,1294.96 2217.74,1294.96 2220.59,1294.96 
  2223.44,1294.96 2228.85,1294.96 2234.26,1294.96 2237.11,1294.96 2239.96,1294.96 2245.37,1294.96 2250.78,1294.96 2253.63,1294.96 
  2256.49,1294.96 2261.89,1294.96 2267.3,1294.96 2270.15,1294.96 2273.01,1294.96 2278.41,1294.96 2283.82,1294.96 2286.67,1294.96 
  2289.53,1294.96 2294.93,1294.96 2300.34,1294.96 2303.19,1294.96 2306.05,1294.96 2311.45,1294.96 2316.86,1294.96 2319.71,1294.96 
  2322.57,1294.96 2327.98,1294.96 2333.38,1294.96 2336.24,1294.96 2339.09,1294.96 2344.5,1294.96 2349.9,1294.96 2352.76,1294.96 
  
  "/>
<path clip-path="url(#clip950)" d="
M1786.57 274.549 L2282.27 274.549 L2282.27 93.1086 L1786.57 93.1086  Z
  " fill="#ffffff" fill-rule="evenodd" fill-opacity="1"/>
<polyline clip-path="url(#clip950)" style="stroke:#000000; stroke-width:4; stroke-opacity:1; fill:none" points="
  1786.57,274.549 2282.27,274.549 2282.27,93.1086 1786.57,93.1086 1786.57,274.549 
  "/>
<polyline clip-path="url(#clip950)" style="stroke:#009af9; stroke-width:4; stroke-opacity:1; fill:none" points="
  1810.07,153.589 1951.04,153.589 
  "/>
<path clip-path="url(#clip950)" d="M 0 0 M1981.94 137.582 L1981.94 144.943 L1990.72 144.943 L1990.72 148.253 L1981.94 148.253 L1981.94 162.327 Q1981.94 165.498 1982.8 166.401 Q1983.68 167.304 1986.34 167.304 L1990.72 167.304 L1990.72 170.869 L1986.34 170.869 Q1981.41 170.869 1979.54 169.04 Q1977.66 167.188 1977.66 162.327 L1977.66 148.253 L1974.54 148.253 L1974.54 144.943 L1977.66 144.943 L1977.66 137.582 L1981.94 137.582 Z" fill="#000000" fill-rule="evenodd" fill-opacity="1" /><path clip-path="url(#clip950)" d="M 0 0 M1995.74 149.341 L2025.42 149.341 L2025.42 153.23 L1995.74 153.23 L1995.74 149.341 M1995.74 158.785 L2025.42 158.785 L2025.42 162.721 L1995.74 162.721 L1995.74 158.785 Z" fill="#000000" fill-rule="evenodd" fill-opacity="1" /><path clip-path="url(#clip950)" d="M 0 0 M2040.49 139.387 Q2036.87 139.387 2035.05 142.952 Q2033.24 146.494 2033.24 153.623 Q2033.24 160.73 2035.05 164.295 Q2036.87 167.836 2040.49 167.836 Q2044.12 167.836 2045.93 164.295 Q2047.75 160.73 2047.75 153.623 Q2047.75 146.494 2045.93 142.952 Q2044.12 139.387 2040.49 139.387 M2040.49 135.684 Q2046.3 135.684 2049.35 140.29 Q2052.43 144.873 2052.43 153.623 Q2052.43 162.35 2049.35 166.957 Q2046.3 171.54 2040.49 171.54 Q2034.68 171.54 2031.6 166.957 Q2028.54 162.35 2028.54 153.623 Q2028.54 144.873 2031.6 140.29 Q2034.68 135.684 2040.49 135.684 Z" fill="#000000" fill-rule="evenodd" fill-opacity="1" /><path clip-path="url(#clip950)" d="M 0 0 M2057.5 164.989 L2062.38 164.989 L2062.38 170.869 L2057.5 170.869 L2057.5 164.989 Z" fill="#000000" fill-rule="evenodd" fill-opacity="1" /><path clip-path="url(#clip950)" d="M 0 0 M2077.45 139.387 Q2073.84 139.387 2072.01 142.952 Q2070.21 146.494 2070.21 153.623 Q2070.21 160.73 2072.01 164.295 Q2073.84 167.836 2077.45 167.836 Q2081.09 167.836 2082.89 164.295 Q2084.72 160.73 2084.72 153.623 Q2084.72 146.494 2082.89 142.952 Q2081.09 139.387 2077.45 139.387 M2077.45 135.684 Q2083.26 135.684 2086.32 140.29 Q2089.4 144.873 2089.4 153.623 Q2089.4 162.35 2086.32 166.957 Q2083.26 171.54 2077.45 171.54 Q2071.64 171.54 2068.56 166.957 Q2065.51 162.35 2065.51 153.623 Q2065.51 144.873 2068.56 140.29 Q2071.64 135.684 2077.45 135.684 Z" fill="#000000" fill-rule="evenodd" fill-opacity="1" /><path clip-path="url(#clip950)" d="M 0 0 M2108.54 134.85 L2118.36 134.85 L2118.36 138.16 L2112.8 138.16 L2112.8 173.808 L2118.36 173.808 L2118.36 177.119 L2108.54 177.119 L2108.54 134.85 Z" fill="#000000" fill-rule="evenodd" fill-opacity="1" /><path clip-path="url(#clip950)" d="M 0 0 M2139.35 145.707 L2139.35 149.734 Q2137.55 148.809 2135.6 148.346 Q2133.66 147.883 2131.57 147.883 Q2128.4 147.883 2126.81 148.855 Q2125.23 149.827 2125.23 151.771 Q2125.23 153.253 2126.37 154.109 Q2127.5 154.943 2130.93 155.707 L2132.38 156.031 Q2136.92 157.003 2138.82 158.785 Q2140.74 160.545 2140.74 163.716 Q2140.74 167.327 2137.87 169.433 Q2135.02 171.54 2130.02 171.54 Q2127.94 171.54 2125.67 171.123 Q2123.43 170.73 2120.93 169.92 L2120.93 165.521 Q2123.29 166.748 2125.58 167.373 Q2127.87 167.975 2130.12 167.975 Q2133.12 167.975 2134.74 166.957 Q2136.37 165.915 2136.37 164.04 Q2136.37 162.304 2135.18 161.378 Q2134.03 160.452 2130.07 159.596 L2128.59 159.248 Q2124.63 158.415 2122.87 156.702 Q2121.11 154.966 2121.11 151.957 Q2121.11 148.299 2123.7 146.309 Q2126.3 144.318 2131.06 144.318 Q2133.43 144.318 2135.51 144.665 Q2137.59 145.012 2139.35 145.707 Z" fill="#000000" fill-rule="evenodd" fill-opacity="1" /><path clip-path="url(#clip950)" d="M 0 0 M2155.16 134.85 L2155.16 177.119 L2145.35 177.119 L2145.35 173.808 L2150.88 173.808 L2150.88 138.16 L2145.35 138.16 L2145.35 134.85 L2155.16 134.85 Z" fill="#000000" fill-rule="evenodd" fill-opacity="1" /><polyline clip-path="url(#clip950)" style="stroke:#e26f46; stroke-width:4; stroke-opacity:1; fill:none" points="
  1810.07,214.069 1951.04,214.069 
  "/>
<path clip-path="url(#clip950)" d="M 0 0 M1981.94 198.062 L1981.94 205.423 L1990.72 205.423 L1990.72 208.733 L1981.94 208.733 L1981.94 222.807 Q1981.94 225.978 1982.8 226.881 Q1983.68 227.784 1986.34 227.784 L1990.72 227.784 L1990.72 231.349 L1986.34 231.349 Q1981.41 231.349 1979.54 229.52 Q1977.66 227.668 1977.66 222.807 L1977.66 208.733 L1974.54 208.733 L1974.54 205.423 L1977.66 205.423 L1977.66 198.062 L1981.94 198.062 Z" fill="#000000" fill-rule="evenodd" fill-opacity="1" /><path clip-path="url(#clip950)" d="M 0 0 M1995.74 209.821 L2025.42 209.821 L2025.42 213.71 L1995.74 213.71 L1995.74 209.821 M1995.74 219.265 L2025.42 219.265 L2025.42 223.201 L1995.74 223.201 L1995.74 219.265 Z" fill="#000000" fill-rule="evenodd" fill-opacity="1" /><path clip-path="url(#clip950)" d="M 0 0 M2043.33 200.863 L2031.53 219.312 L2043.33 219.312 L2043.33 200.863 M2042.11 196.789 L2047.99 196.789 L2047.99 219.312 L2052.92 219.312 L2052.92 223.201 L2047.99 223.201 L2047.99 231.349 L2043.33 231.349 L2043.33 223.201 L2027.73 223.201 L2027.73 218.687 L2042.11 196.789 Z" fill="#000000" fill-rule="evenodd" fill-opacity="1" /><path clip-path="url(#clip950)" d="M 0 0 M2058.03 196.789 L2076.39 196.789 L2076.39 200.724 L2062.31 200.724 L2062.31 209.196 Q2063.33 208.849 2064.35 208.687 Q2065.37 208.502 2066.39 208.502 Q2072.18 208.502 2075.56 211.673 Q2078.93 214.844 2078.93 220.261 Q2078.93 225.839 2075.46 228.941 Q2071.99 232.02 2065.67 232.02 Q2063.5 232.02 2061.23 231.65 Q2058.98 231.279 2056.57 230.538 L2056.57 225.839 Q2058.66 226.974 2060.88 227.529 Q2063.1 228.085 2065.58 228.085 Q2069.58 228.085 2071.92 225.978 Q2074.26 223.872 2074.26 220.261 Q2074.26 216.65 2071.92 214.543 Q2069.58 212.437 2065.58 212.437 Q2063.7 212.437 2061.83 212.853 Q2059.98 213.27 2058.03 214.15 L2058.03 196.789 Z" fill="#000000" fill-rule="evenodd" fill-opacity="1" /><path clip-path="url(#clip950)" d="M 0 0 M2094 199.867 Q2090.39 199.867 2088.56 203.432 Q2086.76 206.974 2086.76 214.103 Q2086.76 221.21 2088.56 224.775 Q2090.39 228.316 2094 228.316 Q2097.64 228.316 2099.44 224.775 Q2101.27 221.21 2101.27 214.103 Q2101.27 206.974 2099.44 203.432 Q2097.64 199.867 2094 199.867 M2094 196.164 Q2099.81 196.164 2102.87 200.77 Q2105.95 205.353 2105.95 214.103 Q2105.95 222.83 2102.87 227.437 Q2099.81 232.02 2094 232.02 Q2088.19 232.02 2085.12 227.437 Q2082.06 222.83 2082.06 214.103 Q2082.06 205.353 2085.12 200.77 Q2088.19 196.164 2094 196.164 Z" fill="#000000" fill-rule="evenodd" fill-opacity="1" /><path clip-path="url(#clip950)" d="M 0 0 M2111.02 225.469 L2115.9 225.469 L2115.9 231.349 L2111.02 231.349 L2111.02 225.469 Z" fill="#000000" fill-rule="evenodd" fill-opacity="1" /><path clip-path="url(#clip950)" d="M 0 0 M2133.82 200.863 L2122.01 219.312 L2133.82 219.312 L2133.82 200.863 M2132.59 196.789 L2138.47 196.789 L2138.47 219.312 L2143.4 219.312 L2143.4 223.201 L2138.47 223.201 L2138.47 231.349 L2133.82 231.349 L2133.82 223.201 L2118.22 223.201 L2118.22 218.687 L2132.59 196.789 Z" fill="#000000" fill-rule="evenodd" fill-opacity="1" /><path clip-path="url(#clip950)" d="M 0 0 M2147.29 196.789 L2169.51 196.789 L2169.51 198.779 L2156.97 231.349 L2152.08 231.349 L2163.89 200.724 L2147.29 200.724 L2147.29 196.789 Z" fill="#000000" fill-rule="evenodd" fill-opacity="1" /><path clip-path="url(#clip950)" d="M 0 0 M2188.66 195.33 L2198.47 195.33 L2198.47 198.64 L2192.92 198.64 L2192.92 234.288 L2198.47 234.288 L2198.47 237.599 L2188.66 237.599 L2188.66 195.33 Z" fill="#000000" fill-rule="evenodd" fill-opacity="1" /><path clip-path="url(#clip950)" d="M 0 0 M2219.47 206.187 L2219.47 210.214 Q2217.66 209.289 2215.72 208.826 Q2213.77 208.363 2211.69 208.363 Q2208.52 208.363 2206.92 209.335 Q2205.35 210.307 2205.35 212.251 Q2205.35 213.733 2206.48 214.589 Q2207.61 215.423 2211.04 216.187 L2212.5 216.511 Q2217.04 217.483 2218.93 219.265 Q2220.86 221.025 2220.86 224.196 Q2220.86 227.807 2217.99 229.913 Q2215.14 232.02 2210.14 232.02 Q2208.05 232.02 2205.79 231.603 Q2203.54 231.21 2201.04 230.4 L2201.04 226.001 Q2203.4 227.228 2205.69 227.853 Q2207.99 228.455 2210.23 228.455 Q2213.24 228.455 2214.86 227.437 Q2216.48 226.395 2216.48 224.52 Q2216.48 222.784 2215.3 221.858 Q2214.14 220.932 2210.18 220.076 L2208.7 219.728 Q2204.74 218.895 2202.99 217.182 Q2201.23 215.446 2201.23 212.437 Q2201.23 208.779 2203.82 206.789 Q2206.41 204.798 2211.18 204.798 Q2213.54 204.798 2215.62 205.145 Q2217.71 205.492 2219.47 206.187 Z" fill="#000000" fill-rule="evenodd" fill-opacity="1" /><path clip-path="url(#clip950)" d="M 0 0 M2235.28 195.33 L2235.28 237.599 L2225.46 237.599 L2225.46 234.288 L2230.99 234.288 L2230.99 198.64 L2225.46 198.64 L2225.46 195.33 L2235.28 195.33 Z" fill="#000000" fill-rule="evenodd" fill-opacity="1" /></svg>
