<?xml version="1.0" encoding="utf-8"?>
<svg xmlns="http://www.w3.org/2000/svg" xmlns:xlink="http://www.w3.org/1999/xlink" width="600" height="400" viewBox="0 0 2400 1600">
<defs>
  <clipPath id="clip980">
    <rect x="0" y="0" width="2400" height="1600"/>
  </clipPath>
</defs>
<path clip-path="url(#clip980)" d="
M0 1600 L2400 1600 L2400 0 L0 0  Z
  " fill="#ffffff" fill-rule="evenodd" fill-opacity="1"/>
<defs>
  <clipPath id="clip981">
    <rect x="480" y="0" width="1681" height="1600"/>
  </clipPath>
</defs>
<path clip-path="url(#clip980)" d="
M238.13 1423.18 L2352.76 1423.18 L2352.76 47.2441 L238.13 47.2441  Z
  " fill="#ffffff" fill-rule="evenodd" fill-opacity="1"/>
<defs>
  <clipPath id="clip982">
    <rect x="238" y="47" width="2116" height="1377"/>
  </clipPath>
</defs>
<polyline clip-path="url(#clip982)" style="stroke:#000000; stroke-width:2; stroke-opacity:0.1; fill:none" points="
  238.13,1423.18 238.13,47.2441 
  "/>
<polyline clip-path="url(#clip982)" style="stroke:#000000; stroke-width:2; stroke-opacity:0.1; fill:none" points="
  540.219,1423.18 540.219,47.2441 
  "/>
<polyline clip-path="url(#clip982)" style="stroke:#000000; stroke-width:2; stroke-opacity:0.1; fill:none" points="
  842.309,1423.18 842.309,47.2441 
  "/>
<polyline clip-path="url(#clip982)" style="stroke:#000000; stroke-width:2; stroke-opacity:0.1; fill:none" points="
  1144.4,1423.18 1144.4,47.2441 
  "/>
<polyline clip-path="url(#clip982)" style="stroke:#000000; stroke-width:2; stroke-opacity:0.1; fill:none" points="
  1446.49,1423.18 1446.49,47.2441 
  "/>
<polyline clip-path="url(#clip982)" style="stroke:#000000; stroke-width:2; stroke-opacity:0.1; fill:none" points="
  1748.58,1423.18 1748.58,47.2441 
  "/>
<polyline clip-path="url(#clip982)" style="stroke:#000000; stroke-width:2; stroke-opacity:0.1; fill:none" points="
  2050.67,1423.18 2050.67,47.2441 
  "/>
<polyline clip-path="url(#clip982)" style="stroke:#000000; stroke-width:2; stroke-opacity:0.1; fill:none" points="
  2352.76,1423.18 2352.76,47.2441 
  "/>
<polyline clip-path="url(#clip980)" style="stroke:#000000; stroke-width:4; stroke-opacity:1; fill:none" points="
  238.13,1423.18 2352.76,1423.18 
  "/>
<polyline clip-path="url(#clip980)" style="stroke:#000000; stroke-width:4; stroke-opacity:1; fill:none" points="
  238.13,1423.18 238.13,1406.67 
  "/>
<polyline clip-path="url(#clip980)" style="stroke:#000000; stroke-width:4; stroke-opacity:1; fill:none" points="
  540.219,1423.18 540.219,1406.67 
  "/>
<polyline clip-path="url(#clip980)" style="stroke:#000000; stroke-width:4; stroke-opacity:1; fill:none" points="
  842.309,1423.18 842.309,1406.67 
  "/>
<polyline clip-path="url(#clip980)" style="stroke:#000000; stroke-width:4; stroke-opacity:1; fill:none" points="
  1144.4,1423.18 1144.4,1406.67 
  "/>
<polyline clip-path="url(#clip980)" style="stroke:#000000; stroke-width:4; stroke-opacity:1; fill:none" points="
  1446.49,1423.18 1446.49,1406.67 
  "/>
<polyline clip-path="url(#clip980)" style="stroke:#000000; stroke-width:4; stroke-opacity:1; fill:none" points="
  1748.58,1423.18 1748.58,1406.67 
  "/>
<polyline clip-path="url(#clip980)" style="stroke:#000000; stroke-width:4; stroke-opacity:1; fill:none" points="
  2050.67,1423.18 2050.67,1406.67 
  "/>
<polyline clip-path="url(#clip980)" style="stroke:#000000; stroke-width:4; stroke-opacity:1; fill:none" points="
  2352.76,1423.18 2352.76,1406.67 
  "/>
<path clip-path="url(#clip980)" d="M 0 0 M238.13 1452.37 Q234.519 1452.37 232.69 1455.94 Q230.885 1459.48 230.885 1466.61 Q230.885 1473.71 232.69 1477.28 Q234.519 1480.82 238.13 1480.82 Q241.764 1480.82 243.57 1477.28 Q245.399 1473.71 245.399 1466.61 Q245.399 1459.48 243.57 1455.94 Q241.764 1452.37 238.13 1452.37 M238.13 1448.67 Q243.94 1448.67 246.996 1453.27 Q250.074 1457.86 250.074 1466.61 Q250.074 1475.33 246.996 1479.94 Q243.94 1484.52 238.13 1484.52 Q232.32 1484.52 229.241 1479.94 Q226.186 1475.33 226.186 1466.61 Q226.186 1457.86 229.241 1453.27 Q232.32 1448.67 238.13 1448.67 Z" fill="#000000" fill-rule="evenodd" fill-opacity="1" /><path clip-path="url(#clip980)" d="M 0 0 M516.99 1449.29 L535.347 1449.29 L535.347 1453.23 L521.273 1453.23 L521.273 1461.7 Q522.291 1461.35 523.31 1461.19 Q524.328 1461 525.347 1461 Q531.134 1461 534.513 1464.18 Q537.893 1467.35 537.893 1472.76 Q537.893 1478.34 534.421 1481.44 Q530.949 1484.52 524.629 1484.52 Q522.453 1484.52 520.185 1484.15 Q517.939 1483.78 515.532 1483.04 L515.532 1478.34 Q517.615 1479.48 519.838 1480.03 Q522.06 1480.59 524.537 1480.59 Q528.541 1480.59 530.879 1478.48 Q533.217 1476.38 533.217 1472.76 Q533.217 1469.15 530.879 1467.05 Q528.541 1464.94 524.537 1464.94 Q522.662 1464.94 520.787 1465.36 Q518.935 1465.77 516.99 1466.65 L516.99 1449.29 Z" fill="#000000" fill-rule="evenodd" fill-opacity="1" /><path clip-path="url(#clip980)" d="M 0 0 M552.962 1452.37 Q549.351 1452.37 547.523 1455.94 Q545.717 1459.48 545.717 1466.61 Q545.717 1473.71 547.523 1477.28 Q549.351 1480.82 552.962 1480.82 Q556.597 1480.82 558.402 1477.28 Q560.231 1473.71 560.231 1466.61 Q560.231 1459.48 558.402 1455.94 Q556.597 1452.37 552.962 1452.37 M552.962 1448.67 Q558.773 1448.67 561.828 1453.27 Q564.907 1457.86 564.907 1466.61 Q564.907 1475.33 561.828 1479.94 Q558.773 1484.52 552.962 1484.52 Q547.152 1484.52 544.074 1479.94 Q541.018 1475.33 541.018 1466.61 Q541.018 1457.86 544.074 1453.27 Q547.152 1448.67 552.962 1448.67 Z" fill="#000000" fill-rule="evenodd" fill-opacity="1" /><path clip-path="url(#clip980)" d="M 0 0 M805.677 1479.92 L813.316 1479.92 L813.316 1453.55 L805.006 1455.22 L805.006 1450.96 L813.27 1449.29 L817.946 1449.29 L817.946 1479.92 L825.584 1479.92 L825.584 1483.85 L805.677 1483.85 L805.677 1479.92 Z" fill="#000000" fill-rule="evenodd" fill-opacity="1" /><path clip-path="url(#clip980)" d="M 0 0 M840.654 1452.37 Q837.043 1452.37 835.214 1455.94 Q833.408 1459.48 833.408 1466.61 Q833.408 1473.71 835.214 1477.28 Q837.043 1480.82 840.654 1480.82 Q844.288 1480.82 846.094 1477.28 Q847.922 1473.71 847.922 1466.61 Q847.922 1459.48 846.094 1455.94 Q844.288 1452.37 840.654 1452.37 M840.654 1448.67 Q846.464 1448.67 849.519 1453.27 Q852.598 1457.86 852.598 1466.61 Q852.598 1475.33 849.519 1479.94 Q846.464 1484.52 840.654 1484.52 Q834.844 1484.52 831.765 1479.94 Q828.709 1475.33 828.709 1466.61 Q828.709 1457.86 831.765 1453.27 Q834.844 1448.67 840.654 1448.67 Z" fill="#000000" fill-rule="evenodd" fill-opacity="1" /><path clip-path="url(#clip980)" d="M 0 0 M867.668 1452.37 Q864.056 1452.37 862.228 1455.94 Q860.422 1459.48 860.422 1466.61 Q860.422 1473.71 862.228 1477.28 Q864.056 1480.82 867.668 1480.82 Q871.302 1480.82 873.107 1477.28 Q874.936 1473.71 874.936 1466.61 Q874.936 1459.48 873.107 1455.94 Q871.302 1452.37 867.668 1452.37 M867.668 1448.67 Q873.478 1448.67 876.533 1453.27 Q879.612 1457.86 879.612 1466.61 Q879.612 1475.33 876.533 1479.94 Q873.478 1484.52 867.668 1484.52 Q861.857 1484.52 858.779 1479.94 Q855.723 1475.33 855.723 1466.61 Q855.723 1457.86 858.779 1453.27 Q861.857 1448.67 867.668 1448.67 Z" fill="#000000" fill-rule="evenodd" fill-opacity="1" /><path clip-path="url(#clip980)" d="M 0 0 M1108.26 1479.92 L1115.9 1479.92 L1115.9 1453.55 L1107.59 1455.22 L1107.59 1450.96 L1115.86 1449.29 L1120.53 1449.29 L1120.53 1479.92 L1128.17 1479.92 L1128.17 1483.85 L1108.26 1483.85 L1108.26 1479.92 Z" fill="#000000" fill-rule="evenodd" fill-opacity="1" /><path clip-path="url(#clip980)" d="M 0 0 M1133.29 1449.29 L1151.64 1449.29 L1151.64 1453.23 L1137.57 1453.23 L1137.57 1461.7 Q1138.59 1461.35 1139.61 1461.19 Q1140.63 1461 1141.64 1461 Q1147.43 1461 1150.81 1464.18 Q1154.19 1467.35 1154.19 1472.76 Q1154.19 1478.34 1150.72 1481.44 Q1147.25 1484.52 1140.93 1484.52 Q1138.75 1484.52 1136.48 1484.15 Q1134.24 1483.78 1131.83 1483.04 L1131.83 1478.34 Q1133.91 1479.48 1136.13 1480.03 Q1138.36 1480.59 1140.83 1480.59 Q1144.84 1480.59 1147.18 1478.48 Q1149.51 1476.38 1149.51 1472.76 Q1149.51 1469.15 1147.18 1467.05 Q1144.84 1464.94 1140.83 1464.94 Q1138.96 1464.94 1137.08 1465.36 Q1135.23 1465.77 1133.29 1466.65 L1133.29 1449.29 Z" fill="#000000" fill-rule="evenodd" fill-opacity="1" /><path clip-path="url(#clip980)" d="M 0 0 M1169.26 1452.37 Q1165.65 1452.37 1163.82 1455.94 Q1162.01 1459.48 1162.01 1466.61 Q1162.01 1473.71 1163.82 1477.28 Q1165.65 1480.82 1169.26 1480.82 Q1172.89 1480.82 1174.7 1477.28 Q1176.53 1473.71 1176.53 1466.61 Q1176.53 1459.48 1174.7 1455.94 Q1172.89 1452.37 1169.26 1452.37 M1169.26 1448.67 Q1175.07 1448.67 1178.12 1453.27 Q1181.2 1457.86 1181.2 1466.61 Q1181.2 1475.33 1178.12 1479.94 Q1175.07 1484.52 1169.26 1484.52 Q1163.45 1484.52 1160.37 1479.94 Q1157.31 1475.33 1157.31 1466.61 Q1157.31 1457.86 1160.37 1453.27 Q1163.45 1448.67 1169.26 1448.67 Z" fill="#000000" fill-rule="evenodd" fill-opacity="1" /><path clip-path="url(#clip980)" d="M 0 0 M1414.13 1479.92 L1430.45 1479.92 L1430.45 1483.85 L1408.5 1483.85 L1408.5 1479.92 Q1411.16 1477.16 1415.75 1472.53 Q1420.35 1467.88 1421.53 1466.54 Q1423.78 1464.01 1424.66 1462.28 Q1425.56 1460.52 1425.56 1458.83 Q1425.56 1456.07 1423.62 1454.34 Q1421.7 1452.6 1418.59 1452.6 Q1416.4 1452.6 1413.94 1453.37 Q1411.51 1454.13 1408.73 1455.68 L1408.73 1450.96 Q1411.56 1449.82 1414.01 1449.25 Q1416.46 1448.67 1418.5 1448.67 Q1423.87 1448.67 1427.07 1451.35 Q1430.26 1454.04 1430.26 1458.53 Q1430.26 1460.66 1429.45 1462.58 Q1428.66 1464.48 1426.56 1467.07 Q1425.98 1467.74 1422.88 1470.96 Q1419.77 1474.15 1414.13 1479.92 Z" fill="#000000" fill-rule="evenodd" fill-opacity="1" /><path clip-path="url(#clip980)" d="M 0 0 M1445.52 1452.37 Q1441.9 1452.37 1440.08 1455.94 Q1438.27 1459.48 1438.27 1466.61 Q1438.27 1473.71 1440.08 1477.28 Q1441.9 1480.82 1445.52 1480.82 Q1449.15 1480.82 1450.96 1477.28 Q1452.78 1473.71 1452.78 1466.61 Q1452.78 1459.48 1450.96 1455.94 Q1449.15 1452.37 1445.52 1452.37 M1445.52 1448.67 Q1451.33 1448.67 1454.38 1453.27 Q1457.46 1457.86 1457.46 1466.61 Q1457.46 1475.33 1454.38 1479.94 Q1451.33 1484.52 1445.52 1484.52 Q1439.71 1484.52 1436.63 1479.94 Q1433.57 1475.33 1433.57 1466.61 Q1433.57 1457.86 1436.63 1453.27 Q1439.71 1448.67 1445.52 1448.67 Z" fill="#000000" fill-rule="evenodd" fill-opacity="1" /><path clip-path="url(#clip980)" d="M 0 0 M1472.53 1452.37 Q1468.92 1452.37 1467.09 1455.94 Q1465.28 1459.48 1465.28 1466.61 Q1465.28 1473.71 1467.09 1477.28 Q1468.92 1480.82 1472.53 1480.82 Q1476.16 1480.82 1477.97 1477.28 Q1479.8 1473.71 1479.8 1466.61 Q1479.8 1459.48 1477.97 1455.94 Q1476.16 1452.37 1472.53 1452.37 M1472.53 1448.67 Q1478.34 1448.67 1481.39 1453.27 Q1484.47 1457.86 1484.47 1466.61 Q1484.47 1475.33 1481.39 1479.94 Q1478.34 1484.52 1472.53 1484.52 Q1466.72 1484.52 1463.64 1479.94 Q1460.58 1475.33 1460.58 1466.61 Q1460.58 1457.86 1463.64 1453.27 Q1466.72 1448.67 1472.53 1448.67 Z" fill="#000000" fill-rule="evenodd" fill-opacity="1" /><path clip-path="url(#clip980)" d="M 0 0 M1716.71 1479.92 L1733.03 1479.92 L1733.03 1483.85 L1711.09 1483.85 L1711.09 1479.92 Q1713.75 1477.16 1718.33 1472.53 Q1722.94 1467.88 1724.12 1466.54 Q1726.37 1464.01 1727.25 1462.28 Q1728.15 1460.52 1728.15 1458.83 Q1728.15 1456.07 1726.2 1454.34 Q1724.28 1452.6 1721.18 1452.6 Q1718.98 1452.6 1716.53 1453.37 Q1714.1 1454.13 1711.32 1455.68 L1711.32 1450.96 Q1714.14 1449.82 1716.6 1449.25 Q1719.05 1448.67 1721.09 1448.67 Q1726.46 1448.67 1729.65 1451.35 Q1732.85 1454.04 1732.85 1458.53 Q1732.85 1460.66 1732.04 1462.58 Q1731.25 1464.48 1729.14 1467.07 Q1728.57 1467.74 1725.46 1470.96 Q1722.36 1474.15 1716.71 1479.92 Z" fill="#000000" fill-rule="evenodd" fill-opacity="1" /><path clip-path="url(#clip980)" d="M 0 0 M1738.15 1449.29 L1756.51 1449.29 L1756.51 1453.23 L1742.43 1453.23 L1742.43 1461.7 Q1743.45 1461.35 1744.47 1461.19 Q1745.49 1461 1746.51 1461 Q1752.29 1461 1755.67 1464.18 Q1759.05 1467.35 1759.05 1472.76 Q1759.05 1478.34 1755.58 1481.44 Q1752.11 1484.52 1745.79 1484.52 Q1743.61 1484.52 1741.34 1484.15 Q1739.1 1483.78 1736.69 1483.04 L1736.69 1478.34 Q1738.77 1479.48 1741 1480.03 Q1743.22 1480.59 1745.7 1480.59 Q1749.7 1480.59 1752.04 1478.48 Q1754.38 1476.38 1754.38 1472.76 Q1754.38 1469.15 1752.04 1467.05 Q1749.7 1464.94 1745.7 1464.94 Q1743.82 1464.94 1741.95 1465.36 Q1740.09 1465.77 1738.15 1466.65 L1738.15 1449.29 Z" fill="#000000" fill-rule="evenodd" fill-opacity="1" /><path clip-path="url(#clip980)" d="M 0 0 M1774.12 1452.37 Q1770.51 1452.37 1768.68 1455.94 Q1766.88 1459.48 1766.88 1466.61 Q1766.88 1473.71 1768.68 1477.28 Q1770.51 1480.82 1774.12 1480.82 Q1777.76 1480.82 1779.56 1477.28 Q1781.39 1473.71 1781.39 1466.61 Q1781.39 1459.48 1779.56 1455.94 Q1777.76 1452.37 1774.12 1452.37 M1774.12 1448.67 Q1779.93 1448.67 1782.99 1453.27 Q1786.07 1457.86 1786.07 1466.61 Q1786.07 1475.33 1782.99 1479.94 Q1779.93 1484.52 1774.12 1484.52 Q1768.31 1484.52 1765.23 1479.94 Q1762.18 1475.33 1762.18 1466.61 Q1762.18 1457.86 1765.23 1453.27 Q1768.31 1448.67 1774.12 1448.67 Z" fill="#000000" fill-rule="evenodd" fill-opacity="1" /><path clip-path="url(#clip980)" d="M 0 0 M2027.9 1465.22 Q2031.26 1465.94 2033.13 1468.2 Q2035.03 1470.47 2035.03 1473.81 Q2035.03 1478.92 2031.51 1481.72 Q2027.99 1484.52 2021.51 1484.52 Q2019.34 1484.52 2017.02 1484.08 Q2014.73 1483.67 2012.28 1482.81 L2012.28 1478.3 Q2014.22 1479.43 2016.53 1480.01 Q2018.85 1480.59 2021.37 1480.59 Q2025.77 1480.59 2028.06 1478.85 Q2030.38 1477.12 2030.38 1473.81 Q2030.38 1470.75 2028.22 1469.04 Q2026.09 1467.3 2022.28 1467.3 L2018.25 1467.3 L2018.25 1463.46 L2022.46 1463.46 Q2025.91 1463.46 2027.74 1462.09 Q2029.57 1460.7 2029.57 1458.11 Q2029.57 1455.45 2027.67 1454.04 Q2025.79 1452.6 2022.28 1452.6 Q2020.35 1452.6 2018.16 1453.02 Q2015.96 1453.44 2013.32 1454.31 L2013.32 1450.15 Q2015.98 1449.41 2018.29 1449.04 Q2020.63 1448.67 2022.69 1448.67 Q2028.02 1448.67 2031.12 1451.1 Q2034.22 1453.5 2034.22 1457.63 Q2034.22 1460.5 2032.58 1462.49 Q2030.93 1464.45 2027.9 1465.22 Z" fill="#000000" fill-rule="evenodd" fill-opacity="1" /><path clip-path="url(#clip980)" d="M 0 0 M2050.1 1452.37 Q2046.49 1452.37 2044.66 1455.94 Q2042.85 1459.48 2042.85 1466.61 Q2042.85 1473.71 2044.66 1477.28 Q2046.49 1480.82 2050.1 1480.82 Q2053.73 1480.82 2055.54 1477.28 Q2057.37 1473.71 2057.37 1466.61 Q2057.37 1459.48 2055.54 1455.94 Q2053.73 1452.37 2050.1 1452.37 M2050.1 1448.67 Q2055.91 1448.67 2058.97 1453.27 Q2062.04 1457.86 2062.04 1466.61 Q2062.04 1475.33 2058.97 1479.94 Q2055.91 1484.52 2050.1 1484.52 Q2044.29 1484.52 2041.21 1479.94 Q2038.15 1475.33 2038.15 1466.61 Q2038.15 1457.86 2041.21 1453.27 Q2044.29 1448.67 2050.1 1448.67 Z" fill="#000000" fill-rule="evenodd" fill-opacity="1" /><path clip-path="url(#clip980)" d="M 0 0 M2077.11 1452.37 Q2073.5 1452.37 2071.67 1455.94 Q2069.87 1459.48 2069.87 1466.61 Q2069.87 1473.71 2071.67 1477.28 Q2073.5 1480.82 2077.11 1480.82 Q2080.75 1480.82 2082.55 1477.28 Q2084.38 1473.71 2084.38 1466.61 Q2084.38 1459.48 2082.55 1455.94 Q2080.75 1452.37 2077.11 1452.37 M2077.11 1448.67 Q2082.92 1448.67 2085.98 1453.27 Q2089.06 1457.86 2089.06 1466.61 Q2089.06 1475.33 2085.98 1479.94 Q2082.92 1484.52 2077.11 1484.52 Q2071.3 1484.52 2068.22 1479.94 Q2065.17 1475.33 2065.17 1466.61 Q2065.17 1457.86 2068.22 1453.27 Q2071.3 1448.67 2077.11 1448.67 Z" fill="#000000" fill-rule="evenodd" fill-opacity="1" /><path clip-path="url(#clip980)" d="M 0 0 M2330.49 1465.22 Q2333.84 1465.94 2335.72 1468.2 Q2337.62 1470.47 2337.62 1473.81 Q2337.62 1478.92 2334.1 1481.72 Q2330.58 1484.52 2324.1 1484.52 Q2321.92 1484.52 2319.61 1484.08 Q2317.32 1483.67 2314.86 1482.81 L2314.86 1478.3 Q2316.81 1479.43 2319.12 1480.01 Q2321.44 1480.59 2323.96 1480.59 Q2328.36 1480.59 2330.65 1478.85 Q2332.96 1477.12 2332.96 1473.81 Q2332.96 1470.75 2330.81 1469.04 Q2328.68 1467.3 2324.86 1467.3 L2320.83 1467.3 L2320.83 1463.46 L2325.05 1463.46 Q2328.5 1463.46 2330.33 1462.09 Q2332.15 1460.7 2332.15 1458.11 Q2332.15 1455.45 2330.26 1454.04 Q2328.38 1452.6 2324.86 1452.6 Q2322.94 1452.6 2320.74 1453.02 Q2318.54 1453.44 2315.9 1454.31 L2315.9 1450.15 Q2318.57 1449.41 2320.88 1449.04 Q2323.22 1448.67 2325.28 1448.67 Q2330.6 1448.67 2333.71 1451.1 Q2336.81 1453.5 2336.81 1457.63 Q2336.81 1460.5 2335.16 1462.49 Q2333.52 1464.45 2330.49 1465.22 Z" fill="#000000" fill-rule="evenodd" fill-opacity="1" /><path clip-path="url(#clip980)" d="M 0 0 M2342.73 1449.29 L2361.09 1449.29 L2361.09 1453.23 L2347.02 1453.23 L2347.02 1461.7 Q2348.03 1461.35 2349.05 1461.19 Q2350.07 1461 2351.09 1461 Q2356.88 1461 2360.26 1464.18 Q2363.64 1467.35 2363.64 1472.76 Q2363.64 1478.34 2360.16 1481.44 Q2356.69 1484.52 2350.37 1484.52 Q2348.2 1484.52 2345.93 1484.15 Q2343.68 1483.78 2341.27 1483.04 L2341.27 1478.34 Q2343.36 1479.48 2345.58 1480.03 Q2347.8 1480.59 2350.28 1480.59 Q2354.28 1480.59 2356.62 1478.48 Q2358.96 1476.38 2358.96 1472.76 Q2358.96 1469.15 2356.62 1467.05 Q2354.28 1464.94 2350.28 1464.94 Q2348.4 1464.94 2346.53 1465.36 Q2344.68 1465.77 2342.73 1466.65 L2342.73 1449.29 Z" fill="#000000" fill-rule="evenodd" fill-opacity="1" /><path clip-path="url(#clip980)" d="M 0 0 M2378.7 1452.37 Q2375.09 1452.37 2373.27 1455.94 Q2371.46 1459.48 2371.46 1466.61 Q2371.46 1473.71 2373.27 1477.28 Q2375.09 1480.82 2378.7 1480.82 Q2382.34 1480.82 2384.14 1477.28 Q2385.97 1473.71 2385.97 1466.61 Q2385.97 1459.48 2384.14 1455.94 Q2382.34 1452.37 2378.7 1452.37 M2378.7 1448.67 Q2384.51 1448.67 2387.57 1453.27 Q2390.65 1457.86 2390.65 1466.61 Q2390.65 1475.33 2387.57 1479.94 Q2384.51 1484.52 2378.7 1484.52 Q2372.89 1484.52 2369.82 1479.94 Q2366.76 1475.33 2366.76 1466.61 Q2366.76 1457.86 2369.82 1453.27 Q2372.89 1448.67 2378.7 1448.67 Z" fill="#000000" fill-rule="evenodd" fill-opacity="1" /><path clip-path="url(#clip980)" d="M 0 0 M1312.06 1520.4 L1299.17 1537.74 L1312.73 1556.04 L1305.82 1556.04 L1295.44 1542.04 L1285.07 1556.04 L1278.16 1556.04 L1292.01 1537.39 L1279.34 1520.4 L1286.24 1520.4 L1295.7 1533.1 L1305.15 1520.4 L1312.06 1520.4 Z" fill="#000000" fill-rule="evenodd" fill-opacity="1" /><polyline clip-path="url(#clip982)" style="stroke:#000000; stroke-width:2; stroke-opacity:0.1; fill:none" points="
  238.13,1263.67 2352.76,1263.67 
  "/>
<polyline clip-path="url(#clip982)" style="stroke:#000000; stroke-width:2; stroke-opacity:0.1; fill:none" points="
  238.13,997.355 2352.76,997.355 
  "/>
<polyline clip-path="url(#clip982)" style="stroke:#000000; stroke-width:2; stroke-opacity:0.1; fill:none" points="
  238.13,731.041 2352.76,731.041 
  "/>
<polyline clip-path="url(#clip982)" style="stroke:#000000; stroke-width:2; stroke-opacity:0.1; fill:none" points="
  238.13,464.726 2352.76,464.726 
  "/>
<polyline clip-path="url(#clip982)" style="stroke:#000000; stroke-width:2; stroke-opacity:0.1; fill:none" points="
  238.13,198.412 2352.76,198.412 
  "/>
<polyline clip-path="url(#clip980)" style="stroke:#000000; stroke-width:4; stroke-opacity:1; fill:none" points="
  238.13,1423.18 238.13,47.2441 
  "/>
<polyline clip-path="url(#clip980)" style="stroke:#000000; stroke-width:4; stroke-opacity:1; fill:none" points="
  238.13,1263.67 263.506,1263.67 
  "/>
<polyline clip-path="url(#clip980)" style="stroke:#000000; stroke-width:4; stroke-opacity:1; fill:none" points="
  238.13,997.355 263.506,997.355 
  "/>
<polyline clip-path="url(#clip980)" style="stroke:#000000; stroke-width:4; stroke-opacity:1; fill:none" points="
  238.13,731.041 263.506,731.041 
  "/>
<polyline clip-path="url(#clip980)" style="stroke:#000000; stroke-width:4; stroke-opacity:1; fill:none" points="
  238.13,464.726 263.506,464.726 
  "/>
<polyline clip-path="url(#clip980)" style="stroke:#000000; stroke-width:4; stroke-opacity:1; fill:none" points="
  238.13,198.412 263.506,198.412 
  "/>
<path clip-path="url(#clip980)" d="M 0 0 M126.205 1249.47 Q122.593 1249.47 120.765 1253.03 Q118.959 1256.58 118.959 1263.7 Q118.959 1270.81 120.765 1274.38 Q122.593 1277.92 126.205 1277.92 Q129.839 1277.92 131.644 1274.38 Q133.473 1270.81 133.473 1263.7 Q133.473 1256.58 131.644 1253.03 Q129.839 1249.47 126.205 1249.47 M126.205 1245.77 Q132.015 1245.77 135.07 1250.37 Q138.149 1254.95 138.149 1263.7 Q138.149 1272.43 135.07 1277.04 Q132.015 1281.62 126.205 1281.62 Q120.394 1281.62 117.316 1277.04 Q114.26 1272.43 114.26 1263.7 Q114.26 1254.95 117.316 1250.37 Q120.394 1245.77 126.205 1245.77 Z" fill="#000000" fill-rule="evenodd" fill-opacity="1" /><path clip-path="url(#clip980)" d="M 0 0 M143.218 1275.07 L148.103 1275.07 L148.103 1280.95 L143.218 1280.95 L143.218 1275.07 Z" fill="#000000" fill-rule="evenodd" fill-opacity="1" /><path clip-path="url(#clip980)" d="M 0 0 M163.172 1249.47 Q159.561 1249.47 157.732 1253.03 Q155.927 1256.58 155.927 1263.7 Q155.927 1270.81 157.732 1274.38 Q159.561 1277.92 163.172 1277.92 Q166.806 1277.92 168.612 1274.38 Q170.44 1270.81 170.44 1263.7 Q170.44 1256.58 168.612 1253.03 Q166.806 1249.47 163.172 1249.47 M163.172 1245.77 Q168.982 1245.77 172.038 1250.37 Q175.116 1254.95 175.116 1263.7 Q175.116 1272.43 172.038 1277.04 Q168.982 1281.62 163.172 1281.62 Q157.362 1281.62 154.283 1277.04 Q151.228 1272.43 151.228 1263.7 Q151.228 1254.95 154.283 1250.37 Q157.362 1245.77 163.172 1245.77 Z" fill="#000000" fill-rule="evenodd" fill-opacity="1" /><path clip-path="url(#clip980)" d="M 0 0 M190.186 1249.47 Q186.575 1249.47 184.746 1253.03 Q182.94 1256.58 182.94 1263.7 Q182.94 1270.81 184.746 1274.38 Q186.575 1277.92 190.186 1277.92 Q193.82 1277.92 195.625 1274.38 Q197.454 1270.81 197.454 1263.7 Q197.454 1256.58 195.625 1253.03 Q193.82 1249.47 190.186 1249.47 M190.186 1245.77 Q195.996 1245.77 199.051 1250.37 Q202.13 1254.95 202.13 1263.7 Q202.13 1272.43 199.051 1277.04 Q195.996 1281.62 190.186 1281.62 Q184.376 1281.62 181.297 1277.04 Q178.241 1272.43 178.241 1263.7 Q178.241 1254.95 181.297 1250.37 Q184.376 1245.77 190.186 1245.77 Z" fill="#000000" fill-rule="evenodd" fill-opacity="1" /><path clip-path="url(#clip980)" d="M 0 0 M128.797 983.154 Q125.186 983.154 123.357 986.719 Q121.552 990.261 121.552 997.39 Q121.552 1004.5 123.357 1008.06 Q125.186 1011.6 128.797 1011.6 Q132.431 1011.6 134.237 1008.06 Q136.066 1004.5 136.066 997.39 Q136.066 990.261 134.237 986.719 Q132.431 983.154 128.797 983.154 M128.797 979.45 Q134.607 979.45 137.663 984.057 Q140.741 988.64 140.741 997.39 Q140.741 1006.12 137.663 1010.72 Q134.607 1015.31 128.797 1015.31 Q122.987 1015.31 119.908 1010.72 Q116.853 1006.12 116.853 997.39 Q116.853 988.64 119.908 984.057 Q122.987 979.45 128.797 979.45 Z" fill="#000000" fill-rule="evenodd" fill-opacity="1" /><path clip-path="url(#clip980)" d="M 0 0 M145.811 1008.76 L150.695 1008.76 L150.695 1014.64 L145.811 1014.64 L145.811 1008.76 Z" fill="#000000" fill-rule="evenodd" fill-opacity="1" /><path clip-path="url(#clip980)" d="M 0 0 M159.792 1010.7 L176.112 1010.7 L176.112 1014.64 L154.167 1014.64 L154.167 1010.7 Q156.829 1007.95 161.413 1003.32 Q166.019 998.663 167.2 997.321 Q169.445 994.798 170.325 993.061 Q171.227 991.302 171.227 989.612 Q171.227 986.858 169.283 985.122 Q167.362 983.386 164.26 983.386 Q162.061 983.386 159.607 984.15 Q157.177 984.913 154.399 986.464 L154.399 981.742 Q157.223 980.608 159.677 980.029 Q162.13 979.45 164.167 979.45 Q169.538 979.45 172.732 982.136 Q175.926 984.821 175.926 989.312 Q175.926 991.441 175.116 993.362 Q174.329 995.261 172.223 997.853 Q171.644 998.524 168.542 1001.74 Q165.44 1004.94 159.792 1010.7 Z" fill="#000000" fill-rule="evenodd" fill-opacity="1" /><path clip-path="url(#clip980)" d="M 0 0 M181.227 980.075 L199.584 980.075 L199.584 984.011 L185.51 984.011 L185.51 992.483 Q186.528 992.136 187.547 991.974 Q188.565 991.788 189.584 991.788 Q195.371 991.788 198.75 994.96 Q202.13 998.131 202.13 1003.55 Q202.13 1009.13 198.658 1012.23 Q195.186 1015.31 188.866 1015.31 Q186.69 1015.31 184.422 1014.94 Q182.176 1014.57 179.769 1013.83 L179.769 1009.13 Q181.852 1010.26 184.075 1010.82 Q186.297 1011.37 188.774 1011.37 Q192.778 1011.37 195.116 1009.27 Q197.454 1007.16 197.454 1003.55 Q197.454 999.936 195.116 997.83 Q192.778 995.724 188.774 995.724 Q186.899 995.724 185.024 996.14 Q183.172 996.557 181.227 997.436 L181.227 980.075 Z" fill="#000000" fill-rule="evenodd" fill-opacity="1" /><path clip-path="url(#clip980)" d="M 0 0 M127.2 716.839 Q123.589 716.839 121.76 720.404 Q119.955 723.946 119.955 731.076 Q119.955 738.182 121.76 741.747 Q123.589 745.288 127.2 745.288 Q130.834 745.288 132.64 741.747 Q134.468 738.182 134.468 731.076 Q134.468 723.946 132.64 720.404 Q130.834 716.839 127.2 716.839 M127.2 713.136 Q133.01 713.136 136.066 717.742 Q139.144 722.326 139.144 731.076 Q139.144 739.802 136.066 744.409 Q133.01 748.992 127.2 748.992 Q121.39 748.992 118.311 744.409 Q115.256 739.802 115.256 731.076 Q115.256 722.326 118.311 717.742 Q121.39 713.136 127.2 713.136 Z" fill="#000000" fill-rule="evenodd" fill-opacity="1" /><path clip-path="url(#clip980)" d="M 0 0 M144.214 742.441 L149.098 742.441 L149.098 748.321 L144.214 748.321 L144.214 742.441 Z" fill="#000000" fill-rule="evenodd" fill-opacity="1" /><path clip-path="url(#clip980)" d="M 0 0 M154.214 713.761 L172.57 713.761 L172.57 717.696 L158.496 717.696 L158.496 726.168 Q159.515 725.821 160.533 725.659 Q161.552 725.474 162.57 725.474 Q168.357 725.474 171.737 728.645 Q175.116 731.816 175.116 737.233 Q175.116 742.812 171.644 745.913 Q168.172 748.992 161.852 748.992 Q159.677 748.992 157.408 748.622 Q155.163 748.251 152.755 747.511 L152.755 742.812 Q154.839 743.946 157.061 744.501 Q159.283 745.057 161.76 745.057 Q165.765 745.057 168.102 742.95 Q170.44 740.844 170.44 737.233 Q170.44 733.622 168.102 731.515 Q165.765 729.409 161.76 729.409 Q159.885 729.409 158.01 729.826 Q156.158 730.242 154.214 731.122 L154.214 713.761 Z" fill="#000000" fill-rule="evenodd" fill-opacity="1" /><path clip-path="url(#clip980)" d="M 0 0 M190.186 716.839 Q186.575 716.839 184.746 720.404 Q182.94 723.946 182.94 731.076 Q182.94 738.182 184.746 741.747 Q186.575 745.288 190.186 745.288 Q193.82 745.288 195.625 741.747 Q197.454 738.182 197.454 731.076 Q197.454 723.946 195.625 720.404 Q193.82 716.839 190.186 716.839 M190.186 713.136 Q195.996 713.136 199.051 717.742 Q202.13 722.326 202.13 731.076 Q202.13 739.802 199.051 744.409 Q195.996 748.992 190.186 748.992 Q184.376 748.992 181.297 744.409 Q178.241 739.802 178.241 731.076 Q178.241 722.326 181.297 717.742 Q184.376 713.136 190.186 713.136 Z" fill="#000000" fill-rule="evenodd" fill-opacity="1" /><path clip-path="url(#clip980)" d="M 0 0 M128.103 450.525 Q124.492 450.525 122.663 454.09 Q120.857 457.631 120.857 464.761 Q120.857 471.867 122.663 475.432 Q124.492 478.974 128.103 478.974 Q131.737 478.974 133.542 475.432 Q135.371 471.867 135.371 464.761 Q135.371 457.631 133.542 454.09 Q131.737 450.525 128.103 450.525 M128.103 446.821 Q133.913 446.821 136.968 451.428 Q140.047 456.011 140.047 464.761 Q140.047 473.488 136.968 478.094 Q133.913 482.677 128.103 482.677 Q122.293 482.677 119.214 478.094 Q116.158 473.488 116.158 464.761 Q116.158 456.011 119.214 451.428 Q122.293 446.821 128.103 446.821 Z" fill="#000000" fill-rule="evenodd" fill-opacity="1" /><path clip-path="url(#clip980)" d="M 0 0 M145.116 476.127 L150.001 476.127 L150.001 482.006 L145.116 482.006 L145.116 476.127 Z" fill="#000000" fill-rule="evenodd" fill-opacity="1" /><path clip-path="url(#clip980)" d="M 0 0 M153.89 447.446 L176.112 447.446 L176.112 449.437 L163.565 482.006 L158.681 482.006 L170.487 451.381 L153.89 451.381 L153.89 447.446 Z" fill="#000000" fill-rule="evenodd" fill-opacity="1" /><path clip-path="url(#clip980)" d="M 0 0 M181.227 447.446 L199.584 447.446 L199.584 451.381 L185.51 451.381 L185.51 459.853 Q186.528 459.506 187.547 459.344 Q188.565 459.159 189.584 459.159 Q195.371 459.159 198.75 462.33 Q202.13 465.502 202.13 470.918 Q202.13 476.497 198.658 479.599 Q195.186 482.677 188.866 482.677 Q186.69 482.677 184.422 482.307 Q182.176 481.937 179.769 481.196 L179.769 476.497 Q181.852 477.631 184.075 478.187 Q186.297 478.742 188.774 478.742 Q192.778 478.742 195.116 476.636 Q197.454 474.529 197.454 470.918 Q197.454 467.307 195.116 465.201 Q192.778 463.094 188.774 463.094 Q186.899 463.094 185.024 463.511 Q183.172 463.928 181.227 464.807 L181.227 447.446 Z" fill="#000000" fill-rule="evenodd" fill-opacity="1" /><path clip-path="url(#clip980)" d="M 0 0 M118.242 211.756 L125.88 211.756 L125.88 185.391 L117.57 187.057 L117.57 182.798 L125.834 181.132 L130.51 181.132 L130.51 211.756 L138.149 211.756 L138.149 215.692 L118.242 215.692 L118.242 211.756 Z" fill="#000000" fill-rule="evenodd" fill-opacity="1" /><path clip-path="url(#clip980)" d="M 0 0 M143.218 209.812 L148.103 209.812 L148.103 215.692 L143.218 215.692 L143.218 209.812 Z" fill="#000000" fill-rule="evenodd" fill-opacity="1" /><path clip-path="url(#clip980)" d="M 0 0 M163.172 184.21 Q159.561 184.21 157.732 187.775 Q155.927 191.317 155.927 198.446 Q155.927 205.553 157.732 209.117 Q159.561 212.659 163.172 212.659 Q166.806 212.659 168.612 209.117 Q170.44 205.553 170.44 198.446 Q170.44 191.317 168.612 187.775 Q166.806 184.21 163.172 184.21 M163.172 180.507 Q168.982 180.507 172.038 185.113 Q175.116 189.696 175.116 198.446 Q175.116 207.173 172.038 211.779 Q168.982 216.363 163.172 216.363 Q157.362 216.363 154.283 211.779 Q151.228 207.173 151.228 198.446 Q151.228 189.696 154.283 185.113 Q157.362 180.507 163.172 180.507 Z" fill="#000000" fill-rule="evenodd" fill-opacity="1" /><path clip-path="url(#clip980)" d="M 0 0 M190.186 184.21 Q186.575 184.21 184.746 187.775 Q182.94 191.317 182.94 198.446 Q182.94 205.553 184.746 209.117 Q186.575 212.659 190.186 212.659 Q193.82 212.659 195.625 209.117 Q197.454 205.553 197.454 198.446 Q197.454 191.317 195.625 187.775 Q193.82 184.21 190.186 184.21 M190.186 180.507 Q195.996 180.507 199.051 185.113 Q202.13 189.696 202.13 198.446 Q202.13 207.173 199.051 211.779 Q195.996 216.363 190.186 216.363 Q184.376 216.363 181.297 211.779 Q178.241 207.173 178.241 198.446 Q178.241 189.696 181.297 185.113 Q184.376 180.507 190.186 180.507 Z" fill="#000000" fill-rule="evenodd" fill-opacity="1" /><path clip-path="url(#clip980)" d="M 0 0 M70.212 745.095 Q76.6732 745.095 80.3653 742.453 Q84.0256 739.779 84.0256 735.132 Q84.0256 730.485 80.3653 727.812 Q76.6732 725.138 70.212 725.138 Q63.7508 725.138 60.0905 727.812 Q56.3984 730.485 56.3984 735.132 Q56.3984 739.779 60.0905 742.453 Q63.7508 745.095 70.212 745.095 M82.657 725.138 Q85.8398 726.984 87.3994 729.817 Q88.9272 732.618 88.9272 736.565 Q88.9272 743.026 83.771 747.1 Q78.6147 751.142 70.212 751.142 Q61.8093 751.142 56.6531 747.1 Q51.4968 743.026 51.4968 736.565 Q51.4968 732.618 53.0564 729.817 Q54.5842 726.984 57.7671 725.138 L52.3562 725.138 L52.3562 719.282 L101.563 719.282 L101.563 725.138 L82.657 725.138 Z" fill="#000000" fill-rule="evenodd" fill-opacity="1" /><polyline clip-path="url(#clip982)" style="stroke:#009af9; stroke-width:4; stroke-opacity:1; fill:none" points="
  238.13,1263.67 240.983,1263.67 246.39,1263.67 251.798,1263.67 254.651,1263.67 257.503,1263.67 262.911,1263.67 268.318,1263.67 271.171,1263.67 
  274.024,1263.67 279.431,1263.67 284.839,1263.67 287.692,1263.67 290.544,1263.67 295.952,1263.67 301.359,1263.67 304.212,1263.67 
  307.065,1263.67 312.472,1263.67 317.88,1263.67 320.733,1263.67 323.585,1263.67 328.993,1263.67 334.4,1263.67 337.253,1263.67 
  340.106,1263.67 345.513,1263.67 350.921,1263.67 353.774,1263.67 356.626,1263.67 362.034,1263.67 367.442,1263.67 370.294,1263.67 
  373.147,1263.67 378.554,1263.67 383.962,1263.67 386.815,1263.67 389.667,1263.67 395.075,1263.67 400.483,1263.67 403.335,1263.67 
  406.188,1263.67 411.595,1263.67 417.003,1263.67 419.856,1263.67 422.708,1263.67 428.116,1263.67 433.524,1263.67 436.376,1263.67 
  439.229,1263.67 444.636,1263.67 450.044,1263.67 452.897,1263.67 455.749,1263.67 461.157,1263.67 466.565,1263.67 469.417,1263.67 
  472.27,1263.67 477.678,1263.67 483.085,1263.67 485.938,1263.67 488.79,1263.67 494.198,1263.67 499.606,1263.67 502.458,1263.67 
  505.311,1263.67 510.719,1263.67 516.126,1263.67 518.979,1263.67 521.831,1263.67 527.239,1263.67 532.647,1263.67 535.499,1263.67 
  538.352,1263.67 543.76,1263.67 549.167,1263.67 552.02,1263.67 554.872,1263.67 560.28,1263.67 565.688,1263.67 568.54,1263.67 
  571.393,1263.67 576.801,1263.67 582.208,1263.67 585.061,1263.67 587.914,1263.67 593.321,1263.67 598.729,1263.67 601.581,1263.67 
  604.434,1263.67 609.842,1263.67 615.249,1263.67 618.102,1263.67 620.955,1263.67 626.362,1263.67 631.77,1263.67 634.622,1263.67 
  637.475,1263.67 642.883,1263.67 648.29,1263.67 651.143,1263.67 653.996,1263.67 659.403,1263.67 664.811,1263.67 667.663,1263.67 
  670.516,1263.67 675.924,1263.67 681.331,1263.67 684.184,1263.67 687.037,1263.67 692.444,198.412 697.852,198.412 700.704,198.412 
  703.557,198.412 708.965,198.412 714.372,198.412 717.225,198.412 720.078,198.412 725.485,198.412 730.893,198.412 733.745,198.412 
  736.598,198.412 742.006,198.412 747.413,198.412 750.266,198.412 753.119,198.412 758.526,198.412 763.934,198.412 766.787,198.412 
  769.639,198.412 775.047,198.412 780.454,198.412 783.307,198.412 786.16,198.412 791.567,198.412 796.975,198.412 799.828,198.412 
  802.68,198.412 808.088,198.412 813.495,198.412 816.348,198.412 819.201,198.412 824.608,198.412 830.016,198.412 832.869,198.412 
  835.721,198.412 841.129,198.412 846.536,198.412 849.389,198.412 852.242,198.412 857.649,198.412 863.057,198.412 865.91,198.412 
  868.762,198.412 874.17,198.412 879.577,198.412 882.43,198.412 885.283,198.412 890.69,198.412 896.098,198.412 898.951,198.412 
  901.803,198.412 907.211,198.412 912.618,198.412 915.471,198.412 918.324,198.412 923.731,198.412 929.139,198.412 931.992,198.412 
  934.844,198.412 940.252,198.412 945.66,198.412 948.512,198.412 951.365,198.412 956.772,198.412 962.18,198.412 965.033,198.412 
  967.885,198.412 973.293,198.412 978.701,198.412 981.553,198.412 984.406,198.412 989.813,198.412 995.221,1263.67 998.074,1263.67 
  1000.93,1263.67 1006.33,1263.67 1011.74,1263.67 1014.59,1263.67 1017.45,1263.67 1022.85,1263.67 1028.26,1263.67 1031.11,1263.67 
  1033.97,1263.67 1039.38,1263.67 1044.78,1263.67 1047.64,1263.67 1050.49,1263.67 1055.9,1263.67 1061.3,1263.67 1064.16,1263.67 
  1067.01,1263.67 1072.42,1263.67 1077.82,1263.67 1080.68,1263.67 1083.53,1263.67 1088.94,1263.67 1094.34,1263.67 1097.2,1263.67 
  1100.05,1263.67 1105.46,1263.67 1110.86,1263.67 1113.72,1263.67 1116.57,1263.67 1121.98,1263.67 1127.39,1263.67 1130.24,1263.67 
  1133.09,1263.67 1138.5,1263.67 1143.91,1263.67 1146.76,1263.67 1149.61,1263.67 1155.02,1263.67 1160.43,1263.67 1163.28,1263.67 
  1166.13,1263.67 1171.54,1263.67 1176.95,1263.67 1179.8,1263.67 1182.65,1263.67 1188.06,1263.67 1193.47,1263.67 1196.32,1263.67 
  1199.17,1263.67 1204.58,1263.67 1209.99,1263.67 1212.84,1263.67 1215.69,1263.67 1221.1,1263.67 1226.51,1263.67 1229.36,1263.67 
  1232.21,1263.67 1237.62,1263.67 1243.03,1263.67 1245.88,1263.67 1248.73,1263.67 1254.14,1263.67 1259.55,1263.67 1262.4,1263.67 
  1265.25,1263.67 1270.66,1263.67 1276.07,1263.67 1278.92,1263.67 1281.78,1263.67 1287.18,1263.67 1292.59,1263.67 1295.44,1263.67 
  1298.3,1263.67 1303.7,1263.67 1309.11,1263.67 1311.96,1263.67 1314.82,1263.67 1320.22,1263.67 1325.63,1263.67 1328.48,1263.67 
  1331.34,1263.67 1336.74,1263.67 1342.15,1263.67 1345,1263.67 1347.86,1263.67 1353.26,1263.67 1358.67,1263.67 1361.53,1263.67 
  1364.38,1263.67 1369.79,1263.67 1375.19,1263.67 1378.05,1263.67 1380.9,1263.67 1386.31,1263.67 1391.71,1263.67 1394.57,1263.67 
  1397.42,1263.67 1402.83,1263.67 1408.23,1263.67 1411.09,1263.67 1413.94,1263.67 1419.35,1263.67 1424.75,1263.67 1427.61,1263.67 
  1430.46,1263.67 1435.87,1263.67 1441.27,1263.67 1444.13,1263.67 1446.98,1263.67 1452.39,1263.67 1457.8,1263.67 1460.65,1263.67 
  1463.5,1263.67 1468.91,1263.67 1474.32,1263.67 1477.17,1263.67 1480.02,1263.67 1485.43,1263.67 1490.84,1263.67 1493.69,1263.67 
  1496.54,1263.67 1501.95,1263.67 1507.36,1263.67 1510.21,1263.67 1513.06,1263.67 1518.47,1263.67 1523.88,1263.67 1526.73,1263.67 
  1529.58,1263.67 1534.99,1263.67 1540.4,1263.67 1543.25,1263.67 1546.1,1263.67 1551.51,1263.67 1556.92,1263.67 1559.77,1263.67 
  1562.62,1263.67 1568.03,1263.67 1573.44,1263.67 1576.29,1263.67 1579.14,1263.67 1584.55,1263.67 1589.96,1263.67 1592.81,1263.67 
  1595.66,1263.67 1601.07,1263.67 1606.48,1263.67 1609.33,1263.67 1612.19,1263.67 1617.59,1263.67 1623,1263.67 1625.85,1263.67 
  1628.71,1263.67 1634.11,1263.67 1639.52,1263.67 1642.37,1263.67 1645.23,1263.67 1650.63,1263.67 1656.04,1263.67 1658.89,1263.67 
  1661.75,1263.67 1667.15,1263.67 1672.56,1263.67 1675.41,1263.67 1678.27,1263.67 1683.68,1263.67 1689.08,1263.67 1691.94,1263.67 
  1694.79,1263.67 1700.2,1263.67 1705.6,1263.67 1708.46,1263.67 1711.31,1263.67 1716.72,1263.67 1722.12,1263.67 1724.98,1263.67 
  1727.83,1263.67 1733.24,1263.67 1738.64,1263.67 1741.5,1263.67 1744.35,1263.67 1749.76,1263.67 1755.16,1263.67 1758.02,1263.67 
  1760.87,1263.67 1766.28,1263.67 1771.69,1263.67 1774.54,1263.67 1777.39,1263.67 1782.8,1263.67 1788.21,1263.67 1791.06,1263.67 
  1793.91,1263.67 1799.32,1263.67 1804.73,1263.67 1807.58,1263.67 1810.43,1263.67 1815.84,1263.67 1821.25,1263.67 1824.1,1263.67 
  1826.95,1263.67 1832.36,1263.67 1837.77,1263.67 1840.62,1263.67 1843.47,1263.67 1848.88,1263.67 1854.29,1263.67 1857.14,1263.67 
  1859.99,1263.67 1865.4,1263.67 1870.81,1263.67 1873.66,1263.67 1876.51,1263.67 1881.92,1263.67 1887.33,1263.67 1890.18,1263.67 
  1893.03,1263.67 1898.44,1263.67 1903.85,1263.67 1906.7,1263.67 1909.55,1263.67 1914.96,1263.67 1920.37,1263.67 1923.22,1263.67 
  1926.08,1263.67 1931.48,1263.67 1936.89,1263.67 1939.74,1263.67 1942.6,1263.67 1948,1263.67 1953.41,1263.67 1956.26,1263.67 
  1959.12,1263.67 1964.52,1263.67 1969.93,1263.67 1972.78,1263.67 1975.64,1263.67 1981.04,1263.67 1986.45,1263.67 1989.3,1263.67 
  1992.16,1263.67 1997.56,1263.67 2002.97,1263.67 2005.83,1263.67 2008.68,1263.67 2014.09,1263.67 2019.49,1263.67 2022.35,1263.67 
  2025.2,1263.67 2030.61,1263.67 2036.01,1263.67 2038.87,1263.67 2041.72,1263.67 2047.13,1263.67 2052.53,1263.67 2055.39,1263.67 
  2058.24,1263.67 2063.65,1263.67 2069.05,1263.67 2071.91,1263.67 2074.76,1263.67 2080.17,1263.67 2085.58,1263.67 2088.43,1263.67 
  2091.28,1263.67 2096.69,1263.67 2102.1,1263.67 2104.95,1263.67 2107.8,1263.67 2113.21,1263.67 2118.62,1263.67 2121.47,1263.67 
  2124.32,1263.67 2129.73,1263.67 2135.14,1263.67 2137.99,1263.67 2140.84,1263.67 2146.25,1263.67 2151.66,1263.67 2154.51,1263.67 
  2157.36,1263.67 2162.77,1263.67 2168.18,1263.67 2171.03,1263.67 2173.88,1263.67 2179.29,1263.67 2184.7,1263.67 2187.55,1263.67 
  2190.4,1263.67 2195.81,1263.67 2201.22,1263.67 2204.07,1263.67 2206.92,1263.67 2212.33,1263.67 2217.74,1263.67 2220.59,1263.67 
  2223.44,1263.67 2228.85,1263.67 2234.26,1263.67 2237.11,1263.67 2239.96,1263.67 2245.37,1263.67 2250.78,1263.67 2253.63,1263.67 
  2256.49,1263.67 2261.89,1263.67 2267.3,1263.67 2270.15,1263.67 2273.01,1263.67 2278.41,1263.67 2283.82,1263.67 2286.67,1263.67 
  2289.53,1263.67 2294.93,1263.67 2300.34,1263.67 2303.19,1263.67 2306.05,1263.67 2311.45,1263.67 2316.86,1263.67 2319.71,1263.67 
  2322.57,1263.67 2327.98,1263.67 2333.38,1263.67 2336.24,1263.67 2339.09,1263.67 2344.5,1263.67 2349.9,1263.67 2352.76,1263.67 
  
  "/>
<polyline clip-path="url(#clip982)" style="stroke:#e26f46; stroke-width:4; stroke-opacity:1; fill:none" points="
  238.13,1263.67 240.983,1263.67 246.39,1263.67 251.798,1263.67 254.651,1263.67 257.503,1263.67 262.911,1263.67 268.318,1263.67 271.171,1263.67 
  274.024,1263.67 279.431,1263.67 284.839,1263.67 287.692,1263.67 290.544,1263.67 295.952,1263.67 301.359,1263.67 304.212,1263.67 
  307.065,1263.67 312.472,1263.67 317.88,1263.67 320.733,1263.67 323.585,1263.67 328.993,1263.67 334.4,1263.67 337.253,1263.67 
  340.106,1263.67 345.513,1263.67 350.921,1263.67 353.774,1263.67 356.626,1263.67 362.034,1263.67 367.442,1263.67 370.294,1263.67 
  370.294,1263.67 373.147,1263.67 378.554,1263.67 383.962,1263.67 386.815,1263.67 386.815,1263.67 389.667,1263.67 395.075,1263.67 400.483,1263.67 403.335,1263.67 
  403.335,1263.67 406.188,1263.67 411.595,1263.67 417.003,1263.67 419.856,1263.67 419.856,1263.67 422.708,1263.67 428.116,1263.67 433.524,1263.67 436.376,1263.67 
  436.376,1263.67 439.229,1263.67 444.636,1263.67 450.044,1263.67 452.897,1263.67 452.897,1263.67 455.749,1263.67 461.157,1263.67 466.565,1263.67 469.417,1263.67 
  469.417,1263.67 472.27,1263.67 477.678,1263.67 483.085,1263.67 485.938,1263.67 485.938,1263.67 488.79,1263.67 494.198,1263.67 499.606,1263.67 502.458,1263.67 
  502.458,1263.67 505.311,1263.67 510.719,1263.67 516.126,1263.67 518.979,1263.67 518.979,1263.67 521.831,1263.67 527.239,1263.67 532.647,1263.67 535.499,1263.67 
  535.499,1263.67 538.352,1263.67 543.76,1263.67 549.167,1263.67 552.02,1263.67 552.02,1263.67 554.872,1263.67 560.28,1263.67 565.688,1263.67 568.54,1263.67 
  568.54,1263.67 571.393,1263.67 576.801,1263.67 582.208,1263.67 585.061,1263.67 585.061,1263.67 587.914,1263.67 593.321,1263.67 598.729,1263.67 601.581,1263.67 
  601.581,1263.67 604.434,1263.67 609.842,1263.67 615.249,1263.67 618.102,1263.67 618.102,1263.67 620.955,1263.67 626.362,1263.67 631.77,1263.67 634.622,1263.67 
  634.622,1263.67 637.475,1263.67 642.883,1263.67 648.29,1263.67 651.143,1263.67 651.143,1263.67 653.996,1263.67 659.403,1263.67 664.811,1263.67 667.663,1263.67 
  667.663,1263.67 670.516,1263.67 675.924,1263.67 681.331,1263.67 684.184,1263.67 684.184,1263.67 687.037,1263.67 692.444,1263.67 697.852,1263.67 700.704,1263.67 
  700.704,1263.67 703.557,1263.67 708.965,1263.67 714.372,1263.67 717.225,1263.67 717.225,1263.67 720.078,1263.67 725.485,1263.67 730.893,1263.67 733.745,1263.67 
  733.745,1263.67 736.598,1263.67 742.006,1263.67 747.413,1263.67 750.266,1263.67 750.266,1263.67 753.119,1263.67 758.526,1263.67 763.934,1263.67 766.787,1263.67 
  766.787,1263.67 769.639,1263.67 775.047,1263.67 780.454,1263.67 783.307,1263.67 783.307,1263.67 786.16,1263.67 791.567,1263.67 796.975,1263.67 799.828,1263.67 
  799.828,1263.67 802.68,1263.67 808.088,1263.67 813.495,1263.67 816.348,1263.67 816.348,1263.67 819.201,1263.67 824.608,1263.67 830.016,1263.67 832.869,1263.67 
  832.869,1263.67 835.721,1263.67 841.129,1263.67 846.536,1263.67 849.389,1263.67 849.389,1263.67 852.242,1263.67 857.649,1263.67 863.057,1263.67 865.91,1263.67 
  865.91,1263.67 868.762,1263.67 874.17,1263.67 879.577,1263.67 882.43,1263.67 882.43,1263.67 885.283,1263.67 890.69,1263.67 896.098,1263.67 898.951,1263.67 
  898.951,1263.67 901.803,1263.67 907.211,1263.67 912.618,1263.68 915.471,1263.67 915.471,1263.67 918.324,1263.66 923.731,1263.66 929.139,1263.67 931.992,1263.68 
  931.992,1263.68 934.844,1263.69 940.252,1263.67 945.66,1263.65 948.512,1263.66 948.512,1263.65 951.365,1263.67 956.772,1263.7 962.18,1263.68 965.033,1263.64 
  965.033,1263.66 967.885,1263.62 973.293,1263.65 978.701,1263.72 981.553,1263.73 981.553,1263.73 984.406,1263.71 989.813,1263.61 995.221,1263.59 998.074,1263.67 
  998.074,1263.63 1000.93,1263.75 1006.33,1263.78 1011.74,1263.63 1014.59,1263.5 1014.59,1263.55 1017.45,1263.47 1022.85,1263.7 1028.26,1263.94 1031.11,1263.87 
  1031.11,1263.92 1033.97,1263.7 1039.38,1263.34 1044.78,1263.46 1047.64,1263.86 1047.64,1263.67 1050.49,1264.14 1055.9,1264.01 1061.3,1263.27 1064.16,1262.93 
  1064.16,1263.05 1067.01,1263.01 1072.42,1264.03 1077.82,1264.69 1080.68,1264.17 1080.68,1264.46 1083.53,1263.42 1088.94,1262.38 1094.34,1263.23 1097.2,1264.72 
  1097.2,1264.09 1100.05,1265.54 1105.46,1264.61 1110.86,1261.93 1113.72,1261.04 1113.72,1261.29 1116.57,1261.59 1121.98,1265.24 1127.39,1267.17 1130.24,1265.18 
  1130.24,1266.13 1133.09,1262.58 1138.5,1259.25 1143.91,1262.22 1146.76,1267.08 1146.76,1265.21 1149.61,1269.79 1155.02,1267.14 1160.43,1258.51 1163.28,1255.1 
  1163.28,1256.07 1166.13,1256.25 1171.54,1267.32 1176.95,1275.04 1179.8,1270.78 1179.8,1272.73 1182.65,1263.5 1188.06,1250.5 1193.47,1254.76 1196.32,1268.53 
  1196.32,1263.68 1199.17,1278.58 1204.58,1279.57 1209.99,1257.31 1212.84,1241.21 1212.84,1245.99 1215.69,1237.22 1221.1,1259.79 1226.51,1292.34 1229.36,1296.87 
  1229.36,1296.4 1232.21,1285.93 1237.62,1241.55 1243.03,1219.5 1245.88,1238.79 1245.88,1232.57 1248.73,1266.64 1254.14,1314.17 1259.55,1300.88 1262.4,1253.87 
  1262.4,1267.17 1265.25,1216.11 1270.66,1198.29 1276.07,1274.22 1278.92,1348.15 1278.92,1329.35 1281.78,1384.24 1287.18,1306.55 1292.59,1015.57 1295.44,786.074 
  1295.44,804.156 1298.3,571.216 1303.7,256.728 1309.11,123.926 1311.96,133.235 1311.96,122.124 1314.82,154.998 1320.22,206.967 1325.63,225.655 1328.48,214.153 
  1328.48,218.61 1331.34,204.42 1336.74,190.277 1342.15,190.873 1345,196.337 1345,195.18 1347.86,199.651 1353.26,201.548 1358.67,199.156 1361.53,197.907 
  1361.53,197.788 1364.38,197.579 1369.79,198.089 1375.19,198.444 1378.05,198.03 1378.05,198.374 1380.9,197.881 1386.31,198.556 1391.71,199.48 1394.57,199.318 
  1394.57,199.449 1397.42,198.614 1402.83,196.966 1408.23,197.256 1411.09,199.003 1411.09,198.223 1413.94,200.331 1419.35,200.294 1424.75,197.184 1427.61,195.194 
  1427.61,195.901 1430.46,195.02 1435.87,199 1441.27,202.926 1444.13,201.974 1444.13,202.563 1446.98,199.306 1452.39,193.343 1457.8,194.077 1460.65,199.751 
  1460.65,197.496 1463.5,204.225 1468.91,205.263 1474.32,195.914 1477.17,188.794 1477.17,191.157 1480.02,187.07 1485.43,197.482 1490.84,211.428 1493.69,212.052 
  1493.69,212.362 1496.54,206.082 1501.95,186.274 1507.36,180.569 1510.21,193.095 1510.21,188.495 1513.06,206.812 1518.47,222.243 1523.88,206.044 1526.73,182.186 
  1526.73,189.601 1529.58,168.185 1534.99,175.954 1540.4,216.966 1543.25,239.877 1543.25,233.782 1546.1,242.259 1551.51,199.856 1556.92,148.079 1559.77,144.056 
  1559.77,143.814 1562.62,164.444 1568.03,238.041 1573.44,270.937 1576.29,237.298 1576.29,245.321 1579.14,182.895 1584.55,86.1857 1589.96,133.753 1592.81,263.696 
  1592.81,253.529 1595.66,442.891 1601.07,851.74 1606.48,1189.74 1609.33,1284.64 1609.33,1291.21 1612.19,1331.72 1617.59,1314.58 1623,1256.69 1625.85,1242.88 
  1625.85,1239.66 1628.71,1238.58 1634.11,1254.56 1639.52,1271.86 1642.37,1272.54 1642.37,1274.24 1645.23,1270.87 1650.63,1263.57 1656.04,1259.87 1658.89,1261.32 
  1658.89,1260.58 1661.75,1262.65 1667.15,1264.78 1672.56,1264.72 1675.41,1263.87 1675.41,1264.06 1678.27,1263.4 1683.68,1263.18 1689.08,1263.61 1691.94,1263.82 
  1691.94,1263.83 1694.79,1263.88 1700.2,1263.75 1705.6,1263.59 1708.46,1263.6 1708.46,1263.57 1711.31,1263.62 1716.72,1263.69 1722.12,1263.7 1724.98,1263.68 
  1724.98,1263.69 1727.83,1263.66 1733.24,1263.66 1738.64,1263.67 1741.5,1263.67 1741.5,1263.68 1744.35,1263.68 1749.76,1263.67 1755.16,1263.67 1758.02,1263.67 
  1758.02,1263.67 1760.87,1263.67 1766.28,1263.67 1771.69,1263.67 1774.54,1263.67 1774.54,1263.67 1777.39,1263.67 1782.8,1263.67 1788.21,1263.67 1791.06,1263.67 
  1791.06,1263.67 1793.91,1263.67 1799.32,1263.67 1804.73,1263.67 1807.58,1263.67 1807.58,1263.67 1810.43,1263.67 1815.84,1263.67 1821.25,1263.67 1824.1,1263.67 
  1824.1,1263.67 1826.95,1263.67 1832.36,1263.67 1837.77,1263.67 1840.62,1263.67 1840.62,1263.67 1843.47,1263.67 1848.88,1263.67 1854.29,1263.67 1857.14,1263.67 
  1857.14,1263.67 1859.99,1263.67 1865.4,1263.67 1870.81,1263.67 1873.66,1263.67 1873.66,1263.67 1876.51,1263.67 1881.92,1263.67 1887.33,1263.67 1890.18,1263.67 
  1890.18,1263.67 1893.03,1263.67 1898.44,1263.67 1903.85,1263.67 1906.7,1263.67 1906.7,1263.67 1909.55,1263.67 1914.96,1263.67 1920.37,1263.67 1923.22,1263.67 
  1923.22,1263.67 1926.08,1263.67 1931.48,1263.67 1936.89,1263.67 1939.74,1263.67 1939.74,1263.67 1942.6,1263.67 1948,1263.67 1953.41,1263.67 1956.26,1263.67 
  1956.26,1263.67 1959.12,1263.67 1964.52,1263.67 1969.93,1263.67 1972.78,1263.67 1972.78,1263.67 1975.64,1263.67 1981.04,1263.67 1986.45,1263.67 1989.3,1263.67 
  1989.3,1263.67 1992.16,1263.67 1997.56,1263.67 2002.97,1263.67 2005.83,1263.67 2005.83,1263.67 2008.68,1263.67 2014.09,1263.67 2019.49,1263.67 2022.35,1263.67 
  2022.35,1263.67 2025.2,1263.67 2030.61,1263.67 2036.01,1263.67 2038.87,1263.67 2041.72,1263.67 2047.13,1263.67 2052.53,1263.67 2055.39,1263.67 
  2058.24,1263.67 2063.65,1263.67 2069.05,1263.67 2071.91,1263.67 2074.76,1263.67 2080.17,1263.67 2085.58,1263.67 2088.43,1263.67 
  2091.28,1263.67 2096.69,1263.67 2102.1,1263.67 2104.95,1263.67 2107.8,1263.67 2113.21,1263.67 2118.62,1263.67 2121.47,1263.67 
  2124.32,1263.67 2129.73,1263.67 2135.14,1263.67 2137.99,1263.67 2140.84,1263.67 2146.25,1263.67 2151.66,1263.67 2154.51,1263.67 
  2157.36,1263.67 2162.77,1263.67 2168.18,1263.67 2171.03,1263.67 2173.88,1263.67 2179.29,1263.67 2184.7,1263.67 2187.55,1263.67 
  2190.4,1263.67 2195.81,1263.67 2201.22,1263.67 2204.07,1263.67 2206.92,1263.67 2212.33,1263.67 2217.74,1263.67 2220.59,1263.67 
  2223.44,1263.67 2228.85,1263.67 2234.26,1263.67 2237.11,1263.67 2239.96,1263.67 2245.37,1263.67 2250.78,1263.67 2253.63,1263.67 
  2256.49,1263.67 2261.89,1263.67 2267.3,1263.67 2270.15,1263.67 2273.01,1263.67 2278.41,1263.67 2283.82,1263.67 2286.67,1263.67 
  2289.53,1263.67 2294.93,1263.67 2300.34,1263.67 2303.19,1263.67 2306.05,1263.67 2311.45,1263.67 2316.86,1263.67 2319.71,1263.67 
  2322.57,1263.67 2327.98,1263.67 2333.38,1263.67 2336.24,1263.67 2339.09,1263.67 2344.5,1263.67 2349.9,1263.67 2352.76,1263.67 
  
  "/>
<path clip-path="url(#clip980)" d="
M1786.57 274.549 L2282.27 274.549 L2282.27 93.1086 L1786.57 93.1086  Z
  " fill="#ffffff" fill-rule="evenodd" fill-opacity="1"/>
<polyline clip-path="url(#clip980)" style="stroke:#000000; stroke-width:4; stroke-opacity:1; fill:none" points="
  1786.57,274.549 2282.27,274.549 2282.27,93.1086 1786.57,93.1086 1786.57,274.549 
  "/>
<polyline clip-path="url(#clip980)" style="stroke:#009af9; stroke-width:4; stroke-opacity:1; fill:none" points="
  1810.07,153.589 1951.04,153.589 
  "/>
<path clip-path="url(#clip980)" d="M 0 0 M1981.94 137.582 L1981.94 144.943 L1990.72 144.943 L1990.72 148.253 L1981.94 148.253 L1981.94 162.327 Q1981.94 165.498 1982.8 166.401 Q1983.68 167.304 1986.34 167.304 L1990.72 167.304 L1990.72 170.869 L1986.34 170.869 Q1981.41 170.869 1979.54 169.04 Q1977.66 167.188 1977.66 162.327 L1977.66 148.253 L1974.54 148.253 L1974.54 144.943 L1977.66 144.943 L1977.66 137.582 L1981.94 137.582 Z" fill="#000000" fill-rule="evenodd" fill-opacity="1" /><path clip-path="url(#clip980)" d="M 0 0 M1995.74 149.341 L2025.42 149.341 L2025.42 153.23 L1995.74 153.23 L1995.74 149.341 M1995.74 158.785 L2025.42 158.785 L2025.42 162.721 L1995.74 162.721 L1995.74 158.785 Z" fill="#000000" fill-rule="evenodd" fill-opacity="1" /><path clip-path="url(#clip980)" d="M 0 0 M2040.49 139.387 Q2036.87 139.387 2035.05 142.952 Q2033.24 146.494 2033.24 153.623 Q2033.24 160.73 2035.05 164.295 Q2036.87 167.836 2040.49 167.836 Q2044.12 167.836 2045.93 164.295 Q2047.75 160.73 2047.75 153.623 Q2047.75 146.494 2045.93 142.952 Q2044.12 139.387 2040.49 139.387 M2040.49 135.684 Q2046.3 135.684 2049.35 140.29 Q2052.43 144.873 2052.43 153.623 Q2052.43 162.35 2049.35 166.957 Q2046.3 171.54 2040.49 171.54 Q2034.68 171.54 2031.6 166.957 Q2028.54 162.35 2028.54 153.623 Q2028.54 144.873 2031.6 140.29 Q2034.68 135.684 2040.49 135.684 Z" fill="#000000" fill-rule="evenodd" fill-opacity="1" /><path clip-path="url(#clip980)" d="M 0 0 M2057.5 164.989 L2062.38 164.989 L2062.38 170.869 L2057.5 170.869 L2057.5 164.989 Z" fill="#000000" fill-rule="evenodd" fill-opacity="1" /><path clip-path="url(#clip980)" d="M 0 0 M2077.45 139.387 Q2073.84 139.387 2072.01 142.952 Q2070.21 146.494 2070.21 153.623 Q2070.21 160.73 2072.01 164.295 Q2073.84 167.836 2077.45 167.836 Q2081.09 167.836 2082.89 164.295 Q2084.72 160.73 2084.72 153.623 Q2084.72 146.494 2082.89 142.952 Q2081.09 139.387 2077.45 139.387 M2077.45 135.684 Q2083.26 135.684 2086.32 140.29 Q2089.4 144.873 2089.4 153.623 Q2089.4 162.35 2086.32 166.957 Q2083.26 171.54 2077.45 171.54 Q2071.64 171.54 2068.56 166.957 Q2065.51 162.35 2065.51 153.623 Q2065.51 144.873 2068.56 140.29 Q2071.64 135.684 2077.45 135.684 Z" fill="#000000" fill-rule="evenodd" fill-opacity="1" /><path clip-path="url(#clip980)" d="M 0 0 M2108.54 134.85 L2118.36 134.85 L2118.36 138.16 L2112.8 138.16 L2112.8 173.808 L2118.36 173.808 L2118.36 177.119 L2108.54 177.119 L2108.54 134.85 Z" fill="#000000" fill-rule="evenodd" fill-opacity="1" /><path clip-path="url(#clip980)" d="M 0 0 M2139.35 145.707 L2139.35 149.734 Q2137.55 148.809 2135.6 148.346 Q2133.66 147.883 2131.57 147.883 Q2128.4 147.883 2126.81 148.855 Q2125.23 149.827 2125.23 151.771 Q2125.23 153.253 2126.37 154.109 Q2127.5 154.943 2130.93 155.707 L2132.38 156.031 Q2136.92 157.003 2138.82 158.785 Q2140.74 160.545 2140.74 163.716 Q2140.74 167.327 2137.87 169.433 Q2135.02 171.54 2130.02 171.54 Q2127.94 171.54 2125.67 171.123 Q2123.43 170.73 2120.93 169.92 L2120.93 165.521 Q2123.29 166.748 2125.58 167.373 Q2127.87 167.975 2130.12 167.975 Q2133.12 167.975 2134.74 166.957 Q2136.37 165.915 2136.37 164.04 Q2136.37 162.304 2135.18 161.378 Q2134.03 160.452 2130.07 159.596 L2128.59 159.248 Q2124.63 158.415 2122.87 156.702 Q2121.11 154.966 2121.11 151.957 Q2121.11 148.299 2123.7 146.309 Q2126.3 144.318 2131.06 144.318 Q2133.43 144.318 2135.51 144.665 Q2137.59 145.012 2139.35 145.707 Z" fill="#000000" fill-rule="evenodd" fill-opacity="1" /><path clip-path="url(#clip980)" d="M 0 0 M2155.16 134.85 L2155.16 177.119 L2145.35 177.119 L2145.35 173.808 L2150.88 173.808 L2150.88 138.16 L2145.35 138.16 L2145.35 134.85 L2155.16 134.85 Z" fill="#000000" fill-rule="evenodd" fill-opacity="1" /><polyline clip-path="url(#clip980)" style="stroke:#e26f46; stroke-width:4; stroke-opacity:1; fill:none" points="
  1810.07,214.069 1951.04,214.069 
  "/>
<path clip-path="url(#clip980)" d="M 0 0 M1981.94 198.062 L1981.94 205.423 L1990.72 205.423 L1990.72 208.733 L1981.94 208.733 L1981.94 222.807 Q1981.94 225.978 1982.8 226.881 Q1983.68 227.784 1986.34 227.784 L1990.72 227.784 L1990.72 231.349 L1986.34 231.349 Q1981.41 231.349 1979.54 229.52 Q1977.66 227.668 1977.66 222.807 L1977.66 208.733 L1974.54 208.733 L1974.54 205.423 L1977.66 205.423 L1977.66 198.062 L1981.94 198.062 Z" fill="#000000" fill-rule="evenodd" fill-opacity="1" /><path clip-path="url(#clip980)" d="M 0 0 M1995.74 209.821 L2025.42 209.821 L2025.42 213.71 L1995.74 213.71 L1995.74 209.821 M1995.74 219.265 L2025.42 219.265 L2025.42 223.201 L1995.74 223.201 L1995.74 219.265 Z" fill="#000000" fill-rule="evenodd" fill-opacity="1" /><path clip-path="url(#clip980)" d="M 0 0 M2043.33 200.863 L2031.53 219.312 L2043.33 219.312 L2043.33 200.863 M2042.11 196.789 L2047.99 196.789 L2047.99 219.312 L2052.92 219.312 L2052.92 223.201 L2047.99 223.201 L2047.99 231.349 L2043.33 231.349 L2043.33 223.201 L2027.73 223.201 L2027.73 218.687 L2042.11 196.789 Z" fill="#000000" fill-rule="evenodd" fill-opacity="1" /><path clip-path="url(#clip980)" d="M 0 0 M2058.03 196.789 L2076.39 196.789 L2076.39 200.724 L2062.31 200.724 L2062.31 209.196 Q2063.33 208.849 2064.35 208.687 Q2065.37 208.502 2066.39 208.502 Q2072.18 208.502 2075.56 211.673 Q2078.93 214.844 2078.93 220.261 Q2078.93 225.839 2075.46 228.941 Q2071.99 232.02 2065.67 232.02 Q2063.5 232.02 2061.23 231.65 Q2058.98 231.279 2056.57 230.538 L2056.57 225.839 Q2058.66 226.974 2060.88 227.529 Q2063.1 228.085 2065.58 228.085 Q2069.58 228.085 2071.92 225.978 Q2074.26 223.872 2074.26 220.261 Q2074.26 216.65 2071.92 214.543 Q2069.58 212.437 2065.58 212.437 Q2063.7 212.437 2061.83 212.853 Q2059.98 213.27 2058.03 214.15 L2058.03 196.789 Z" fill="#000000" fill-rule="evenodd" fill-opacity="1" /><path clip-path="url(#clip980)" d="M 0 0 M2094 199.867 Q2090.39 199.867 2088.56 203.432 Q2086.76 206.974 2086.76 214.103 Q2086.76 221.21 2088.56 224.775 Q2090.39 228.316 2094 228.316 Q2097.64 228.316 2099.44 224.775 Q2101.27 221.21 2101.27 214.103 Q2101.27 206.974 2099.44 203.432 Q2097.64 199.867 2094 199.867 M2094 196.164 Q2099.81 196.164 2102.87 200.77 Q2105.95 205.353 2105.95 214.103 Q2105.95 222.83 2102.87 227.437 Q2099.81 232.02 2094 232.02 Q2088.19 232.02 2085.12 227.437 Q2082.06 222.83 2082.06 214.103 Q2082.06 205.353 2085.12 200.77 Q2088.19 196.164 2094 196.164 Z" fill="#000000" fill-rule="evenodd" fill-opacity="1" /><path clip-path="url(#clip980)" d="M 0 0 M2111.02 225.469 L2115.9 225.469 L2115.9 231.349 L2111.02 231.349 L2111.02 225.469 Z" fill="#000000" fill-rule="evenodd" fill-opacity="1" /><path clip-path="url(#clip980)" d="M 0 0 M2133.82 200.863 L2122.01 219.312 L2133.82 219.312 L2133.82 200.863 M2132.59 196.789 L2138.47 196.789 L2138.47 219.312 L2143.4 219.312 L2143.4 223.201 L2138.47 223.201 L2138.47 231.349 L2133.82 231.349 L2133.82 223.201 L2118.22 223.201 L2118.22 218.687 L2132.59 196.789 Z" fill="#000000" fill-rule="evenodd" fill-opacity="1" /><path clip-path="url(#clip980)" d="M 0 0 M2147.29 196.789 L2169.51 196.789 L2169.51 198.779 L2156.97 231.349 L2152.08 231.349 L2163.89 200.724 L2147.29 200.724 L2147.29 196.789 Z" fill="#000000" fill-rule="evenodd" fill-opacity="1" /><path clip-path="url(#clip980)" d="M 0 0 M2188.66 195.33 L2198.47 195.33 L2198.47 198.64 L2192.92 198.64 L2192.92 234.288 L2198.47 234.288 L2198.47 237.599 L2188.66 237.599 L2188.66 195.33 Z" fill="#000000" fill-rule="evenodd" fill-opacity="1" /><path clip-path="url(#clip980)" d="M 0 0 M2219.47 206.187 L2219.47 210.214 Q2217.66 209.289 2215.72 208.826 Q2213.77 208.363 2211.69 208.363 Q2208.52 208.363 2206.92 209.335 Q2205.35 210.307 2205.35 212.251 Q2205.35 213.733 2206.48 214.589 Q2207.61 215.423 2211.04 216.187 L2212.5 216.511 Q2217.04 217.483 2218.93 219.265 Q2220.86 221.025 2220.86 224.196 Q2220.86 227.807 2217.99 229.913 Q2215.14 232.02 2210.14 232.02 Q2208.05 232.02 2205.79 231.603 Q2203.54 231.21 2201.04 230.4 L2201.04 226.001 Q2203.4 227.228 2205.69 227.853 Q2207.99 228.455 2210.23 228.455 Q2213.24 228.455 2214.86 227.437 Q2216.48 226.395 2216.48 224.52 Q2216.48 222.784 2215.3 221.858 Q2214.14 220.932 2210.18 220.076 L2208.7 219.728 Q2204.74 218.895 2202.99 217.182 Q2201.23 215.446 2201.23 212.437 Q2201.23 208.779 2203.82 206.789 Q2206.41 204.798 2211.18 204.798 Q2213.54 204.798 2215.62 205.145 Q2217.71 205.492 2219.47 206.187 Z" fill="#000000" fill-rule="evenodd" fill-opacity="1" /><path clip-path="url(#clip980)" d="M 0 0 M2235.28 195.33 L2235.28 237.599 L2225.46 237.599 L2225.46 234.288 L2230.99 234.288 L2230.99 198.64 L2225.46 198.64 L2225.46 195.33 L2235.28 195.33 Z" fill="#000000" fill-rule="evenodd" fill-opacity="1" /></svg>
